<svg width="92" height="92" viewBox="0 0 92 92" fill="none" xmlns="http://www.w3.org/2000/svg">
<path d="M91 1H1V91H91V1Z" stroke="#55A2E7" stroke-opacity="0.595597"/>
<path fill-rule="evenodd" clip-rule="evenodd" d="M54.029 48.1176H35.7643C35.5205 48.1176 35.3234 47.9793 35.3234 47.8086C35.3234 47.638 35.5205 47.5 35.7643 47.5H54.029C54.2727 47.5 54.4704 47.638 54.4704 47.8086C54.4704 47.9793 54.2727 48.1176 54.029 48.1176Z" fill="#239A96"/>
<path fill-rule="evenodd" clip-rule="evenodd" d="M55.8819 50.5883H37.6172C37.3734 50.5883 37.1763 50.4503 37.1763 50.2797C37.1763 50.1091 37.3734 49.9707 37.6172 49.9707H55.8819C56.1256 49.9707 56.3233 50.1091 56.3233 50.2797C56.3233 50.4503 56.1256 50.5883 55.8819 50.5883Z" fill="#239A96"/>
<path fill-rule="evenodd" clip-rule="evenodd" d="M54.029 53.0581H35.7643C35.5205 53.0581 35.3234 52.92 35.3234 52.7494C35.3234 52.5788 35.5205 52.4404 35.7643 52.4404H54.029C54.2727 52.4404 54.4704 52.5788 54.4704 52.7494C54.4704 52.92 54.2727 53.0581 54.029 53.0581Z" fill="#239A96"/>
<path fill-rule="evenodd" clip-rule="evenodd" d="M42.5203 57.9944C38.9865 57.9944 35.4522 57.9949 31.9184 57.9944C31.0161 57.9944 30.7891 57.623 31.1911 56.8089C31.3905 56.4054 31.6138 56.0125 31.7877 55.5981C32.0226 55.0376 32.4198 54.8317 33.0155 54.8322C39.5316 54.8427 46.0473 54.8354 52.5639 54.8391C53.1502 54.8396 53.724 54.7902 54.2816 54.6011C56.4965 53.8489 57.8305 51.6417 57.4686 49.3273C57.113 47.0581 55.1142 45.3782 52.7613 45.3777C47.602 45.3767 42.4432 45.383 37.2834 45.3756C35.1086 45.3725 33.3726 44.1039 32.752 42.1005C32.6041 41.623 32.5401 41.1324 32.5401 40.6339C32.5385 36.5877 32.5437 32.5409 32.5333 28.4952C32.5318 27.9316 32.7385 27.5534 33.2534 27.3212C33.7288 27.1069 34.1854 26.8505 34.6545 26.6199C35.2476 26.3284 35.6547 26.58 35.6553 27.2477C35.6594 30.1057 35.6573 32.9638 35.6573 35.8218C35.6573 37.2206 35.7084 38.6221 35.6428 40.0177C35.5808 41.3378 36.2691 42.2759 37.8754 42.2596C42.8405 42.2108 47.8061 42.236 52.7717 42.2444C56.4934 42.2507 59.6252 44.7447 60.4432 48.3308C61.5663 53.2543 57.907 57.9534 52.8982 57.9881C49.4389 58.0118 45.9796 57.9928 42.5203 57.9928V57.9944Z" fill="#239A96"/>
<path d="M55.8282 70.7494C55.9536 70.7494 56.0825 70.7372 56.2148 70.7126C56.347 70.6881 56.4745 70.6478 56.5973 70.5919C56.72 70.536 56.8352 70.4651 56.9429 70.3792C57.0507 70.2933 57.1448 70.189 57.2252 70.0662C57.3057 69.9435 57.3691 69.8017 57.4154 69.6408C57.4618 69.4799 57.485 69.2972 57.485 69.0926C57.485 68.7708 57.4386 68.4926 57.3459 68.2581C57.2532 68.0235 57.1311 67.8299 56.9798 67.6772C56.8284 67.5244 56.6559 67.4112 56.4623 67.3376C56.2686 67.264 56.0723 67.2272 55.8732 67.2272C55.7041 67.2272 55.5425 67.2524 55.3884 67.3028C55.2343 67.3533 55.087 67.4222 54.9466 67.5094C54.8061 67.5967 54.6725 67.701 54.5457 67.8224C54.4189 67.9437 54.2968 68.074 54.1795 68.2131V64.9117H53.4104V69.3176C53.3395 69.424 53.2714 69.5344 53.2059 69.649C53.1404 69.7635 53.0736 69.8726 53.0054 69.9762H52.0891V70.7494H55.8282ZM55.8282 69.9762H53.9177C53.9177 69.9708 53.9204 69.9653 53.9259 69.9599C54.0132 69.8153 54.1045 69.666 54.2 69.5119C54.2954 69.3578 54.3943 69.2078 54.4966 69.0619C54.5989 68.916 54.7045 68.7783 54.8136 68.6487C54.9227 68.5192 55.0352 68.406 55.1511 68.3092C55.267 68.2124 55.385 68.136 55.505 68.0801C55.625 68.0242 55.7477 67.9962 55.8732 67.9962C56.1377 67.9962 56.3436 68.0924 56.4909 68.2847C56.6382 68.4769 56.7118 68.7462 56.7118 69.0926C56.7118 69.2726 56.6859 69.4226 56.6341 69.5426C56.5823 69.6626 56.5018 69.7581 56.3927 69.829C56.3409 69.8617 56.287 69.8876 56.2311 69.9067C56.1752 69.9258 56.1214 69.9408 56.0695 69.9517C56.0177 69.9626 55.9707 69.9694 55.9284 69.9722C55.8861 69.9749 55.8527 69.9762 55.8282 69.9762ZM52.2527 70.7494V69.9762C51.9964 69.9735 51.8034 69.9578 51.6739 69.9292C51.5443 69.9006 51.4475 69.846 51.3834 69.7656C51.3193 69.6851 51.2798 69.5712 51.2648 69.424C51.2498 69.2767 51.2423 69.0844 51.2423 68.8472V64.9117H50.4691V68.8472C50.4691 69.0599 50.4759 69.2535 50.4895 69.4281C50.5032 69.6026 50.5318 69.7601 50.5754 69.9006C50.6191 70.041 50.6798 70.1637 50.7575 70.2687C50.8352 70.3737 50.9389 70.461 51.0684 70.5306C51.1979 70.6001 51.3561 70.6533 51.5429 70.6901C51.7298 70.7269 51.9664 70.7467 52.2527 70.7494ZM46.9673 65.5458L47.6218 64.8912L46.9591 64.2285L46.3209 64.8912L46.9673 65.5458ZM48.5341 65.554L49.1886 64.8994L48.5259 64.2367L47.8877 64.8994L48.5341 65.554ZM47.1391 70.7494C47.8236 70.7494 48.3473 70.6335 48.71 70.4017C48.9282 70.2708 49.0911 70.1003 49.1989 69.8903C49.3066 69.6803 49.3604 69.4403 49.3604 69.1703V68.6058C49.3604 68.2322 49.325 67.9008 49.2541 67.6117C49.1832 67.3226 49.0741 67.0799 48.9268 66.8835C48.7904 66.6953 48.6227 66.5508 48.4236 66.4499C48.2245 66.349 48.0064 66.2985 47.7691 66.2985C47.5618 66.2985 47.3668 66.3353 47.1841 66.409C47.0014 66.4826 46.8391 66.5903 46.6973 66.7322C46.5554 66.874 46.4464 67.0437 46.37 67.2415C46.2936 67.4392 46.2554 67.6485 46.2554 67.8694C46.2554 68.0467 46.2752 68.2015 46.3148 68.3337C46.3543 68.466 46.4048 68.5806 46.4661 68.6774C46.5275 68.7742 46.5964 68.8553 46.6727 68.9208C46.7491 68.9862 46.8241 69.0408 46.8977 69.0844C46.9877 69.1335 47.0804 69.1731 47.1759 69.2031C47.2714 69.2331 47.3661 69.2556 47.4602 69.2706C47.5543 69.2856 47.645 69.2958 47.7323 69.3012C47.8195 69.3067 47.8986 69.3094 47.9695 69.3094H48.5914C48.5832 69.3803 48.5607 69.4547 48.5239 69.5324C48.487 69.6101 48.4168 69.6817 48.3132 69.7472C48.2095 69.8126 48.0643 69.8672 47.8775 69.9108C47.6907 69.9544 47.4445 69.9762 47.1391 69.9762H45.3227V70.7494H47.1391ZM48.5995 68.5362H47.9695C47.8141 68.5362 47.6791 68.526 47.5645 68.5056C47.45 68.4851 47.3532 68.4517 47.2741 68.4053C47.2441 68.389 47.2127 68.3685 47.18 68.344C47.1473 68.3194 47.1159 68.2874 47.0859 68.2478C47.0559 68.2083 47.0314 68.1578 47.0123 68.0965C46.9932 68.0351 46.9836 67.9594 46.9836 67.8694C46.9836 67.7303 47.0075 67.6103 47.0552 67.5094C47.1029 67.4085 47.1643 67.326 47.2393 67.2619C47.3143 67.1978 47.3989 67.1501 47.4929 67.1187C47.587 67.0874 47.6791 67.0717 47.7691 67.0717C47.9982 67.0717 48.1782 67.159 48.3091 67.3335C48.3964 67.4617 48.4652 67.6267 48.5157 67.8285C48.5661 68.0303 48.5941 68.2662 48.5995 68.5362ZM40.2214 70.7494C40.4914 70.7494 40.762 70.7256 41.0334 70.6778C41.3048 70.6301 41.5693 70.5674 41.827 70.4897C42.0848 70.4119 42.3336 70.3233 42.5736 70.2237C42.8136 70.1242 43.0386 70.0226 43.2486 69.919C43.3304 70.1072 43.4504 70.2681 43.6086 70.4017C43.7477 70.5162 43.9039 70.6028 44.077 70.6615C44.2502 70.7201 44.4364 70.7494 44.6354 70.7494H45.4945V69.9762H44.6354C44.6082 69.9762 44.5618 69.9728 44.4964 69.966C44.4309 69.9592 44.3614 69.9415 44.2877 69.9128C44.2141 69.8842 44.1439 69.8419 44.077 69.786C44.0102 69.7301 43.9618 69.6517 43.9318 69.5508C44.1309 69.4335 44.2904 69.334 44.4104 69.2522C44.5304 69.1703 44.5986 69.124 44.615 69.1131L44.5127 68.434L43.0645 67.8981C42.7945 67.7917 42.5627 67.7024 42.3691 67.6301C42.1754 67.5578 42.0104 67.4985 41.8741 67.4522C41.7377 67.4058 41.6273 67.3697 41.5427 67.3437C41.4582 67.3178 41.3893 67.2987 41.3361 67.2865C41.2829 67.2742 41.2434 67.2674 41.2175 67.266C41.1916 67.2647 41.1691 67.264 41.15 67.264C40.4764 67.264 40.0345 67.6676 39.8245 68.4749L40.5732 68.6712C40.6141 68.5158 40.6577 68.3951 40.7041 68.3092C40.7504 68.2233 40.7982 68.1599 40.8473 68.119C40.8964 68.0781 40.9461 68.0535 40.9966 68.0453C41.047 68.0372 41.0954 68.0331 41.1418 68.0331C41.1936 68.0412 41.2979 68.0699 41.4548 68.119C41.6116 68.1681 41.7991 68.2315 42.0173 68.3092C42.2354 68.3869 42.4761 68.4762 42.7393 68.5772C43.0025 68.6781 43.2664 68.7817 43.5309 68.8881C43.34 68.9999 43.1177 69.1192 42.8641 69.246C42.6104 69.3728 42.3391 69.4901 42.05 69.5978C41.7609 69.7056 41.4602 69.7956 41.1479 69.8678C40.8357 69.9401 40.5268 69.9762 40.2214 69.9762H39.0718V70.7494H40.2214ZM42.7495 72.9053L43.4123 72.2426L42.7577 71.5881L42.1114 72.2426L42.7495 72.9053ZM41.1827 72.9135L41.8454 72.2508L41.1909 71.5962L40.5445 72.2508L41.1827 72.9135ZM41.9927 74.0222L42.5573 73.4372L41.9764 72.8685L41.4036 73.4372L41.9927 74.0222ZM39.2354 70.7494V69.9762H39.1332C39.0323 69.9762 38.917 69.966 38.7875 69.9456C38.6579 69.9251 38.5304 69.8815 38.405 69.8147C38.2795 69.7478 38.1636 69.6524 38.0573 69.5283C37.9509 69.4042 37.8704 69.2399 37.8159 69.0353C37.7968 68.9726 37.775 68.8935 37.7504 68.7981C37.7259 68.7026 37.7 68.6003 37.6727 68.4912C37.6454 68.3822 37.6182 68.2703 37.5909 68.1558C37.5636 68.0412 37.5377 67.9342 37.5132 67.8347C37.4886 67.7351 37.4675 67.6472 37.4498 67.5708C37.432 67.4944 37.4191 67.4399 37.4109 67.4072C37.3727 67.2381 37.3291 67.0478 37.28 66.8365C37.2309 66.6251 37.1736 66.3831 37.1082 66.1103L36.3554 66.2699L36.4332 66.7117C35.7514 66.9135 35.2236 67.2053 34.85 67.5872C34.6373 67.8081 34.4961 68.0262 34.4266 68.2417C34.357 68.4572 34.3223 68.6522 34.3223 68.8267C34.3223 68.9303 34.3318 69.0353 34.3509 69.1417C34.3891 69.3735 34.4675 69.5747 34.5861 69.7451C34.7048 69.9156 34.8623 70.0526 35.0586 70.1562C35.1868 70.2272 35.3184 70.2776 35.4534 70.3076C35.5884 70.3376 35.72 70.3526 35.8482 70.3526C35.9764 70.3526 36.0977 70.3417 36.2123 70.3199C36.3268 70.2981 36.4277 70.2694 36.515 70.234C36.6677 70.1658 36.8048 70.0874 36.9261 69.9987C37.0475 69.9101 37.1518 69.8058 37.2391 69.6858C37.4136 70.0212 37.6639 70.2824 37.9898 70.4692C38.3157 70.656 38.6968 70.7494 39.1332 70.7494H39.2354ZM35.8727 69.5794H35.8318C35.7609 69.5794 35.69 69.5719 35.6191 69.5569C35.5482 69.5419 35.4827 69.5167 35.4227 69.4812C35.3382 69.4349 35.2645 69.3728 35.2018 69.2951C35.1391 69.2174 35.0982 69.1212 35.0791 69.0067C35.0682 68.9494 35.0627 68.8935 35.0627 68.839C35.0627 68.7326 35.0818 68.629 35.12 68.5281C35.1773 68.3753 35.2734 68.2328 35.4084 68.1006C35.5434 67.9683 35.7145 67.8476 35.9218 67.7385C36.1291 67.6294 36.3677 67.5353 36.6377 67.4562L36.7973 68.1599C36.8054 68.1981 36.8136 68.254 36.8218 68.3276C36.83 68.4012 36.8341 68.4585 36.8341 68.4994C36.8341 68.5758 36.8286 68.6576 36.8177 68.7449C36.7604 69.1185 36.56 69.3762 36.2164 69.5181C36.1645 69.5399 36.1086 69.5556 36.0486 69.5651C35.9886 69.5747 35.93 69.5794 35.8727 69.5794Z" fill="#239A96"/>
</svg>
