<svg width="242" height="201" viewBox="0 0 242 201" fill="none" xmlns="http://www.w3.org/2000/svg">
<path d="M21.3145 32H65.2734C71.6024 32 76.6263 37.3276 76.2549 43.6455L67.666 189.646C67.324 195.46 62.5096 200 56.6855 200H12.7266C6.39763 200 1.37468 194.672 1.74609 188.354L10.334 42.3545C10.676 36.5404 15.4904 32.0002 21.3145 32Z" stroke="white" stroke-width="2"/>
<path d="M33.5322 47H53.5039C57.5353 47.0002 60.7336 50.3968 60.4912 54.4209L56.4551 121.421C56.2324 125.117 53.1701 128 49.4678 128H29.4961C25.4647 128 22.2664 124.603 22.5088 120.579L26.5449 53.5791C26.7676 49.8834 29.8299 47.0002 33.5322 47Z" stroke="#88C4FF" stroke-width="2"/>
<path d="M37.5 60H48.5C49.8807 60 51 61.1193 51 62.5C51 63.8807 49.8807 65 48.5 65H37.5C36.1193 65 35 63.8807 35 62.5C35 61.1193 36.1193 60 37.5 60Z" fill="#88C4FF" stroke="#88C4FF" stroke-width="2"/>
<path d="M36.5 73H47.5C48.8807 73 50 74.1193 50 75.5C50 76.8807 48.8807 78 47.5 78H36.5C35.1193 78 34 76.8807 34 75.5C34 74.1193 35.1193 73 36.5 73Z" fill="#88C4FF" stroke="#88C4FF" stroke-width="2"/>
<circle cx="34" cy="175" r="14" stroke="white" stroke-width="2"/>
<circle cx="34" cy="175" r="5" stroke="white" stroke-width="2"/>
<path d="M87.3145 32H131.273C137.602 32 142.626 37.3276 142.255 43.6455L133.666 189.646C133.324 195.46 128.51 200 122.686 200H78.7266C72.3976 200 67.3747 194.672 67.7461 188.354L76.334 42.3545C76.676 36.5404 81.4904 32.0002 87.3145 32Z" stroke="white" stroke-width="2"/>
<path d="M99.5322 47H119.504C123.535 47.0002 126.734 50.3968 126.491 54.4209L122.455 121.421C122.232 125.117 119.17 128 115.468 128H95.4961C91.4647 128 88.2664 124.603 88.5088 120.579L92.5449 53.5791C92.7676 49.8834 95.8299 47.0002 99.5322 47Z" stroke="#88C4FF" stroke-width="2"/>
<path d="M103.5 60H114.5C115.881 60 117 61.1193 117 62.5C117 63.8807 115.881 65 114.5 65H103.5C102.119 65 101 63.8807 101 62.5C101 61.1193 102.119 60 103.5 60Z" fill="#88C4FF" stroke="#88C4FF" stroke-width="2"/>
<path d="M102.5 73H113.5C114.881 73 116 74.1193 116 75.5C116 76.8807 114.881 78 113.5 78H102.5C101.119 78 100 76.8807 100 75.5C100 74.1193 101.119 73 102.5 73Z" fill="#88C4FF" stroke="#88C4FF" stroke-width="2"/>
<circle cx="100" cy="175" r="14" stroke="white" stroke-width="2"/>
<circle cx="100" cy="175" r="5" stroke="white" stroke-width="2"/>
<path d="M153.314 32H197.273C203.602 32 208.626 37.3276 208.255 43.6455L199.666 189.646C199.324 195.46 194.51 200 188.686 200H144.727C138.398 200 133.375 194.672 133.746 188.354L142.334 42.3545C142.676 36.5404 147.49 32.0002 153.314 32Z" stroke="white" stroke-width="2"/>
<path d="M165.532 47H185.504C189.535 47.0002 192.734 50.3968 192.491 54.4209L188.455 121.421C188.232 125.117 185.17 128 181.468 128H161.496C157.465 128 154.266 124.603 154.509 120.579L158.545 53.5791C158.768 49.8834 161.83 47.0002 165.532 47Z" stroke="#88C4FF" stroke-width="2"/>
<path d="M169.5 60H180.5C181.881 60 183 61.1193 183 62.5C183 63.8807 181.881 65 180.5 65H169.5C168.119 65 167 63.8807 167 62.5C167 61.1193 168.119 60 169.5 60Z" fill="#88C4FF" stroke="#88C4FF" stroke-width="2"/>
<path d="M168.5 73H179.5C180.881 73 182 74.1193 182 75.5C182 76.8807 180.881 78 179.5 78H168.5C167.119 78 166 76.8807 166 75.5C166 74.1193 167.119 73 168.5 73Z" fill="#88C4FF" stroke="#88C4FF" stroke-width="2"/>
<circle cx="166" cy="175" r="14" stroke="white" stroke-width="2"/>
<circle cx="166" cy="175" r="5" stroke="white" stroke-width="2"/>
<path d="M179 20.6363C179 13.763 179 10.3263 180.338 7.70103C181.514 5.39176 183.392 3.51427 185.701 2.33765C188.326 1 191.763 1 198.636 1H220.727C227.601 1 231.037 1 233.663 2.33765C235.972 3.51427 237.849 5.39176 239.026 7.70103C240.364 10.3263 240.364 13.763 240.364 20.6364V24.8761C240.364 31.7494 240.364 35.1861 239.026 37.8114C237.849 40.1206 235.972 41.9981 233.663 43.1748C231.037 44.5124 227.601 44.5124 220.727 44.5124H209.682H200.981C198.518 44.5124 197.287 44.5124 196.105 44.7465C195.057 44.9543 194.04 45.2981 193.081 45.7692C192 46.3002 191.021 47.0476 189.064 48.5424L186.888 50.2033C184.353 52.1393 183.086 53.1073 182.023 53.0917C181.098 53.0781 180.229 52.6482 179.657 51.9216C179 51.0866 179 49.4916 179 46.3018V44.5124V20.6363Z" fill="black" stroke="white" stroke-width="2"/>
<circle cx="200.477" cy="22.4783" r="1.53409" fill="#777777" stroke="#88C4FF" stroke-width="3.06818"/>
<circle cx="209.682" cy="22.4783" r="1.53409" fill="#777777" stroke="#88C4FF" stroke-width="3.06818"/>
<circle cx="218.886" cy="22.4783" r="1.53409" fill="#777777" stroke="#88C4FF" stroke-width="3.06818"/>
</svg>
