<svg width="225" height="213" viewBox="0 0 225 213" fill="none" xmlns="http://www.w3.org/2000/svg">
<path d="M203.423 59.373V59.373C211.194 59.3719 217.495 65.6717 217.495 73.4433V186.589C217.495 197.635 208.558 206.589 197.512 206.589C172.458 206.589 130.992 206.589 116.137 206.589C114.492 206.589 112.979 207.337 111.952 208.621L110.093 210.945C109.659 211.487 108.836 211.487 108.402 210.945L106.543 208.621C105.515 207.337 103.96 206.589 102.316 206.589H21C9.95433 206.589 1 197.672 1.00001 186.626C1.00001 156.597 1.00003 100.451 1.00004 73.425C1.00004 65.6531 7.30026 59.3733 15.0722 59.373V59.373" stroke="white" stroke-width="2"/>
<path d="M109.248 195.762V209.834" stroke="white" stroke-width="2.16495" stroke-linecap="round" stroke-linejoin="round"/>
<path d="M109.248 198.93V59.3729M109.248 198.93L109.143 198.799C106.472 195.46 102.429 192.517 98.1542 192.517C75.1269 192.517 52.0996 192.517 29.0723 192.517C21.3403 192.517 15.0723 186.249 15.0723 178.517V59.3009C15.0723 51.569 21.3263 45.301 29.0583 45.3009C50.8546 45.3009 90.8877 45.3008 95.1754 45.3008C102.947 45.3008 109.248 51.6011 109.248 59.3729M109.248 198.93L109.352 198.799C112.023 195.46 116.066 192.517 120.341 192.517H189.423C197.155 192.517 203.423 186.256 203.423 178.524C203.423 141.146 203.423 96.6741 203.423 59.2968C203.423 51.5651 197.177 45.3035 189.446 45.3031C169.493 45.3023 134.068 45.3008 123.32 45.3008C115.548 45.3008 109.248 51.6011 109.248 59.3729" stroke="white" stroke-width="2"/>
<rect x="126.485" y="64.6992" width="59.701" height="6.65979" rx="2.24742" stroke="white" stroke-width="2"/>
<rect x="32.3093" y="64.6992" width="59.701" height="6.65979" rx="2.24742" stroke="white" stroke-width="2"/>
<rect x="32.3093" y="79.8555" width="59.701" height="6.65979" rx="2.24742" stroke="white" stroke-width="2"/>
<rect x="32.3093" y="95.0117" width="59.701" height="6.65979" rx="2.24742" stroke="white" stroke-width="2"/>
<rect x="32.3093" y="110.164" width="59.701" height="6.65979" rx="2.24742" stroke="white" stroke-width="2"/>
<rect x="31.3093" y="152.465" width="61.701" height="8.65979" rx="3.24742" fill="#88C4FF"/>
<rect x="31.3093" y="137.309" width="61.701" height="8.65979" rx="3.24742" fill="#88C4FF"/>
<rect x="69.1958" y="167.617" width="23.8144" height="8.65979" rx="3.24742" fill="#88C4FF"/>
<rect x="126.485" y="79.8555" width="59.701" height="6.65979" rx="2.24742" stroke="white" stroke-width="2"/>
<rect x="126.485" y="95.0117" width="59.701" height="6.65979" rx="2.24742" stroke="white" stroke-width="2"/>
<rect x="126" y="119" width="60" height="56" rx="4.41237" stroke="#88C4FF" stroke-width="2"/>
<path d="M189.019 14.8555C201.237 14.8557 211.142 24.7611 211.142 36.9795C211.142 43.2506 208.532 48.9114 204.34 52.9368C201.089 56.0589 198.258 59.973 198.258 64.4807V71.5439C198.258 76.6452 194.122 80.7811 189.021 80.7812C183.919 80.7812 179.783 76.6453 179.783 71.5439V64.4846C179.783 59.9758 176.952 56.0611 173.699 52.9389C169.506 48.9134 166.895 43.2517 166.895 36.9795C166.895 24.7609 176.8 14.8555 189.019 14.8555Z" fill="black"/>
<path d="M189.019 14.8555L189.019 13.8555H189.019V14.8555ZM211.142 36.9795L212.142 36.9795V36.9795H211.142ZM189.021 80.7812V81.7812H189.021L189.021 80.7812ZM166.895 36.9795H165.895V36.9795L166.895 36.9795ZM189.019 14.8555L189.019 15.8555C200.685 15.8557 210.142 25.3133 210.142 36.9795H211.142H212.142C212.142 24.2088 201.79 13.8557 189.019 13.8555L189.019 14.8555ZM211.142 36.9795L210.142 36.9795C210.142 42.9672 207.651 48.3708 203.647 52.2155L204.34 52.9368L205.033 53.6581C209.413 49.452 212.142 43.534 212.142 36.9795L211.142 36.9795ZM198.258 64.4807H197.258V71.5439H198.258H199.258V64.4807H198.258ZM198.258 71.5439H197.258C197.258 76.0929 193.57 79.7812 189.021 79.7812L189.021 80.7812L189.021 81.7812C194.674 81.7811 199.258 77.1975 199.258 71.5439H198.258ZM189.021 80.7812V79.7812C184.472 79.7812 180.783 76.093 180.783 71.5439H179.783H178.783C178.783 77.1976 183.367 81.7812 189.021 81.7812V80.7812ZM179.783 71.5439H180.783V64.4846H179.783H178.783V71.5439H179.783ZM173.699 52.9389L174.392 52.2175C170.386 48.3727 167.895 42.9683 167.895 36.9795L166.895 36.9795L165.895 36.9795C165.895 43.5352 168.625 49.4541 173.007 53.6603L173.699 52.9389ZM166.895 36.9795H167.895C167.895 25.3132 177.353 15.8555 189.019 15.8555V14.8555V13.8555C176.248 13.8555 165.895 24.2086 165.895 36.9795H166.895ZM179.783 64.4846H180.783C180.783 59.5543 177.698 55.391 174.392 52.2175L173.699 52.9389L173.007 53.6603C176.206 56.7313 178.783 60.3974 178.783 64.4846H179.783ZM204.34 52.9368L203.647 52.2155C200.343 55.3888 197.258 59.5515 197.258 64.4807H198.258H199.258C199.258 60.3944 201.834 56.729 205.033 53.6581L204.34 52.9368Z" fill="#88C4FF"/>
<path d="M198.257 65.6562H179.783" stroke="#88C4FF" stroke-width="2" stroke-linecap="round" stroke-linejoin="round"/>
<path d="M189.019 1V5.61856" stroke="#88C4FF" stroke-width="2" stroke-linecap="round" stroke-linejoin="round"/>
<path d="M219.039 35.6367L223.658 35.6367" stroke="#88C4FF" stroke-width="2" stroke-linecap="round" stroke-linejoin="round"/>
<path d="M154.381 35.6367L159 35.6367" stroke="#88C4FF" stroke-width="2" stroke-linecap="round" stroke-linejoin="round"/>
<path d="M215.825 11.1367L212.56 14.4025" stroke="#88C4FF" stroke-width="2" stroke-linecap="round" stroke-linejoin="round"/>
<path d="M165.954 14.8555L162.689 11.5897" stroke="#88C4FF" stroke-width="2" stroke-linecap="round" stroke-linejoin="round"/>
</svg>
