<svg width="95" height="20" viewBox="0 0 95 20" fill="none" xmlns="http://www.w3.org/2000/svg">
<path d="M5.36758 14.1364C4.70091 14.1364 4.12818 14.0939 3.6494 14.0091C3.17061 13.9303 2.76758 13.8121 2.44031 13.6545C2.11303 13.4909 1.8494 13.2848 1.6494 13.0364C1.45546 12.7879 1.30697 12.497 1.20394 12.1636C1.10091 11.8303 1.03121 11.4545 0.994851 11.0364C0.964548 10.6121 0.949396 10.1455 0.949396 9.63636V1.02727H3.21303V9.63636C3.21303 10.1212 3.22818 10.5091 3.25849 10.8C3.29485 11.0909 3.38273 11.3182 3.52212 11.4818C3.66758 11.6394 3.88273 11.7455 4.16758 11.8C4.45849 11.8485 4.85849 11.8727 5.36758 11.8727V14.1364ZM11.7492 12.4182C11.8037 12.4182 11.8886 12.4091 12.0037 12.3909C12.1249 12.3667 12.2462 12.3 12.3674 12.1909C12.4886 12.0818 12.5946 11.9152 12.6855 11.6909C12.7825 11.4606 12.831 11.1394 12.831 10.7273C12.831 10.5697 12.8007 10.3697 12.7401 10.1273C12.6855 9.87879 12.5855 9.63939 12.4401 9.40909C12.3007 9.17273 12.1098 8.97273 11.8674 8.80909C11.631 8.63939 11.331 8.55455 10.9674 8.55455C10.6522 8.55455 10.3946 8.64848 10.1946 8.83636C9.99464 9.02424 9.82494 9.25758 9.68555 9.53636C9.55221 9.81515 9.43706 10.1182 9.34009 10.4455C9.24918 10.7667 9.14918 11.0606 9.04009 11.3273C9.26433 11.4545 9.5007 11.5848 9.74918 11.7182C10.0037 11.8455 10.2522 11.9606 10.4946 12.0636C10.7371 12.1667 10.9643 12.2515 11.1765 12.3182C11.3946 12.3848 11.5855 12.4182 11.7492 12.4182ZM10.9674 6.3C11.6037 6.3 12.1583 6.41818 12.631 6.65455C13.1098 6.89091 13.5037 7.20909 13.8128 7.60909C14.128 8.00303 14.3613 8.46061 14.5128 8.98182C14.6704 9.50303 14.7492 10.0485 14.7492 10.6182C14.7492 11.2485 14.6946 11.7848 14.5855 12.2273C14.4765 12.6697 14.331 13.0364 14.1492 13.3273C13.9734 13.6182 13.7704 13.8455 13.5401 14.0091C13.3158 14.1788 13.0886 14.303 12.8583 14.3818C12.634 14.4667 12.4158 14.5182 12.2037 14.5364C11.9916 14.5606 11.8098 14.5727 11.6583 14.5727C11.3552 14.5727 11.0674 14.5424 10.7946 14.4818C10.5219 14.4273 10.2431 14.3455 9.95827 14.2364C9.67949 14.1333 9.38858 14.0061 9.08555 13.8545C8.78252 13.697 8.45221 13.5212 8.09464 13.3273C7.82191 13.6182 7.52797 13.8273 7.21282 13.9545C6.90373 14.0758 6.54009 14.1364 6.12191 14.1364H5.00373L4.98555 11.8727H6.12191C6.25524 11.8727 6.3704 11.8333 6.46737 11.7545C6.5704 11.6758 6.6613 11.5667 6.74009 11.4273C6.82494 11.2818 6.9007 11.1091 6.96736 10.9091C7.04009 10.703 7.11282 10.4758 7.18555 10.2273C7.30676 9.79091 7.45221 9.34242 7.62191 8.88182C7.79161 8.41515 8.01585 7.99091 8.29464 7.60909C8.57949 7.22727 8.93706 6.91515 9.36736 6.67273C9.79767 6.42424 10.331 6.3 10.9674 6.3ZM28.307 19.0273C27.8221 19.0273 27.3555 18.9697 26.907 18.8545C26.4585 18.7394 26.0343 18.5758 25.6343 18.3636C25.2403 18.1515 24.8737 17.8909 24.5343 17.5818C24.2009 17.2727 23.91 16.9242 23.6615 16.5364C23.3706 16.0636 23.1464 15.5364 22.9888 14.9545C22.8312 14.3788 22.7525 13.7758 22.7525 13.1455C22.7525 12.7455 22.7767 12.3576 22.8252 11.9818C22.8737 11.6061 22.9494 11.2212 23.0525 10.8273C23.1615 10.4333 23.3009 10.0212 23.4706 9.59091C23.6464 9.16061 23.8585 8.68788 24.107 8.17273L26.1525 9.14545C25.9343 9.58788 25.7525 9.98485 25.607 10.3364C25.4615 10.6879 25.3434 11.0212 25.2525 11.3364C25.1615 11.6455 25.0949 11.9455 25.0525 12.2364C25.0161 12.5212 24.9979 12.8212 24.9979 13.1364C24.9979 13.5485 25.0494 13.9424 25.1525 14.3182C25.2555 14.7 25.3979 15.0424 25.5797 15.3455C25.8706 15.7758 26.2525 16.1182 26.7252 16.3727C27.204 16.6333 27.7312 16.7636 28.307 16.7636H30.1525C30.7949 16.7636 31.3161 16.697 31.7161 16.5636C32.1221 16.4303 32.4373 16.2394 32.6615 15.9909C32.8858 15.7485 33.0373 15.4545 33.1161 15.1091C33.2009 14.7636 33.2434 14.3818 33.2434 13.9636V7.84545H35.507V13.9636C35.507 15.6545 35.0585 16.9212 34.1615 17.7636C33.2706 18.6061 31.9343 19.0273 30.1525 19.0273H28.307ZM28.1252 7.13636L29.7615 5.48182L31.4343 7.15455L29.7797 8.80909L28.1252 7.13636ZM42.5941 14.1364C41.9275 14.1364 41.3547 14.0939 40.876 14.0091C40.3972 13.9303 39.9941 13.8121 39.6669 13.6545C39.3396 13.4909 39.076 13.2848 38.876 13.0364C38.682 12.7879 38.5335 12.497 38.4305 12.1636C38.3275 11.8303 38.2578 11.4545 38.2214 11.0364C38.1911 10.6121 38.176 10.1455 38.176 9.63636V1.02727H40.4396V9.63636C40.4396 10.1212 40.4547 10.5091 40.485 10.8C40.5214 11.0909 40.6093 11.3182 40.7487 11.4818C40.8941 11.6394 41.1093 11.7455 41.3941 11.8C41.685 11.8485 42.085 11.8727 42.5941 11.8727V14.1364ZM48.9848 6.5C48.997 6.54242 49.0212 6.64242 49.0576 6.8C49.1 6.95758 49.1454 7.15152 49.1939 7.38182C49.2424 7.60606 49.2909 7.85758 49.3394 8.13636C49.3939 8.41515 49.4424 8.69697 49.4848 8.98182C49.5333 9.26061 49.5697 9.53333 49.5939 9.8C49.6242 10.0667 49.6394 10.3 49.6394 10.5C49.6394 11.1242 49.5364 11.6667 49.3303 12.1273C49.1242 12.5818 48.8545 12.9576 48.5212 13.2545C48.1879 13.5515 47.8121 13.7727 47.3939 13.9182C46.9818 14.0636 46.5667 14.1364 46.1485 14.1364H42.2303V11.8727H46.2121C46.2848 11.8727 46.3879 11.8636 46.5212 11.8455C46.6606 11.8212 46.797 11.7636 46.9303 11.6727C47.0697 11.5818 47.1909 11.4455 47.2939 11.2636C47.397 11.0758 47.4485 10.8212 47.4485 10.5C47.4485 10.3667 47.4364 10.2061 47.4121 10.0182C47.3939 9.82424 47.3667 9.61818 47.3303 9.4C47.2939 9.18182 47.2515 8.96061 47.203 8.73636C47.1606 8.50606 47.1182 8.29091 47.0757 8.09091C47.0333 7.88485 46.9909 7.7 46.9485 7.53636C46.906 7.36667 46.8727 7.23636 46.8485 7.14545L48.9848 6.5ZM47.9303 19.0818L46.403 17.5364L47.9121 15.9727L49.4757 17.5364L47.9303 19.0818ZM44.1212 19.0909L42.5939 17.5455L44.0939 15.9818L45.6576 17.5455L44.1212 19.0909ZM58.8458 14.1364H58.5004C58.2519 14.1364 58.0155 14.1212 57.7913 14.0909C57.5731 14.0606 57.358 13.9758 57.1458 13.8364C57.0731 14.6182 56.8943 15.3273 56.6095 15.9636C56.3246 16.6 55.9428 17.1424 55.464 17.5909C54.9913 18.0455 54.4246 18.397 53.764 18.6455C53.1034 18.8939 52.361 19.0182 51.5368 19.0182H50.4004V16.7545H51.5368C52.1186 16.7545 52.6216 16.6939 53.0458 16.5727C53.4701 16.4515 53.8186 16.2576 54.0913 15.9909C54.364 15.7242 54.5671 15.3758 54.7004 14.9455C54.8337 14.5212 54.9004 14.003 54.9004 13.3909V7.85455H57.164V10.5727C57.164 10.8515 57.2216 11.0758 57.3368 11.2455C57.458 11.4152 57.5943 11.5485 57.7458 11.6455C57.9034 11.7364 58.0549 11.797 58.2004 11.8273C58.3458 11.8576 58.4458 11.8727 58.5004 11.8727H58.8458V14.1364ZM68.2439 11.8727V14.1364H66.8985C66.3833 14.1364 65.9136 14.0667 65.4894 13.9273C65.0651 13.7879 64.7076 13.5818 64.4167 13.3091C64.0773 13.5939 63.6742 13.803 63.2076 13.9364C62.747 14.0697 62.2197 14.1364 61.6257 14.1364H58.4803V11.8727H61.6257C61.9954 11.8727 62.2894 11.8394 62.5076 11.7727C62.7318 11.7 62.8985 11.6121 63.0076 11.5091C63.1227 11.4061 63.1954 11.2909 63.2257 11.1636C63.2621 11.0364 63.2803 10.9121 63.2803 10.7909V7.84545H65.5348V10.7273C65.5348 11 65.5954 11.2152 65.7167 11.3727C65.8379 11.5242 65.9742 11.6394 66.1257 11.7182C66.2833 11.7909 66.4379 11.8364 66.5894 11.8545C66.7409 11.8667 66.8439 11.8727 66.8985 11.8727H68.2439ZM65.1621 5.5L63.6348 3.95455L65.1439 2.39091L66.7076 3.95455L65.1621 5.5ZM61.353 5.50909L59.8257 3.96364L61.3257 2.4L62.8894 3.96364L61.353 5.50909ZM67.8748 11.8727H69.0475C69.4051 11.8727 69.693 11.8424 69.9112 11.7818C70.1354 11.7212 70.3082 11.6333 70.4294 11.5182C70.5566 11.397 70.6415 11.2515 70.6839 11.0818C70.7263 10.9121 70.7475 10.7182 70.7475 10.5V7.85455H73.0112V10.4545C73.0112 10.9455 73.1294 11.303 73.3657 11.5273C73.6021 11.7515 73.9748 11.8667 74.4839 11.8727C74.5748 11.8667 74.6839 11.8485 74.8112 11.8182C74.9445 11.7879 75.0718 11.7273 75.193 11.6364C75.3203 11.5394 75.4263 11.403 75.5112 11.2273C75.6021 11.0455 75.6475 10.803 75.6475 10.5V7.85455H77.9021V10.4545C77.9021 10.9515 78.0203 11.3121 78.2566 11.5364C78.493 11.7606 78.8779 11.8727 79.4112 11.8727C79.5566 11.8727 79.6991 11.8515 79.8385 11.8091C79.9839 11.7606 80.1142 11.6848 80.2294 11.5818C80.3445 11.4727 80.4385 11.3333 80.5112 11.1636C80.5839 10.9939 80.6263 10.7848 80.6385 10.5364V7.85455H82.9021V10.5455C82.9142 11.0121 83.0566 11.3515 83.3294 11.5636C83.6021 11.7697 84.0203 11.8727 84.5839 11.8727H85.4748V14.1364H84.5839C83.9597 14.1364 83.4172 14.0697 82.9566 13.9364C82.496 13.797 82.0991 13.5727 81.7657 13.2636C81.4566 13.5485 81.093 13.7667 80.6748 13.9182C80.2627 14.0636 79.8415 14.1364 79.4112 14.1364C78.8415 14.1364 78.3415 14.0667 77.9112 13.9273C77.4869 13.7879 77.1082 13.5636 76.7748 13.2545C76.4597 13.5333 76.1051 13.7485 75.7112 13.9C75.3233 14.0515 74.9294 14.1303 74.5294 14.1364H74.4657C73.9203 14.1364 73.4354 14.0636 73.0112 13.9182C72.5869 13.7667 72.2172 13.5576 71.9021 13.2909C71.193 13.8545 70.2415 14.1364 69.0475 14.1364H67.8748V11.8727ZM76.5203 4.09091L74.9748 5.65455L73.4294 4.10909L74.9748 2.54545L76.5203 4.09091ZM80.4203 4.05455L78.893 5.6L77.3021 4.07273L78.8657 2.50909L80.4203 4.05455ZM78.4112 1.49091L76.9566 2.94545L75.5203 1.50909L76.9748 0.0545456L78.4112 1.49091ZM91.8664 12.4182C91.9209 12.4182 92.0058 12.4091 92.1209 12.3909C92.2421 12.3667 92.3633 12.3 92.4846 12.1909C92.6058 12.0818 92.7118 11.9152 92.8027 11.6909C92.8997 11.4606 92.9482 11.1394 92.9482 10.7273C92.9482 10.5697 92.9179 10.3697 92.8573 10.1273C92.8027 9.87879 92.7027 9.63939 92.5573 9.40909C92.4179 9.17273 92.227 8.97273 91.9846 8.80909C91.7482 8.63939 91.4482 8.55455 91.0846 8.55455C90.7694 8.55455 90.5118 8.64848 90.3118 8.83636C90.1118 9.02424 89.9421 9.25758 89.8027 9.53636C89.6694 9.81515 89.5542 10.1182 89.4573 10.4455C89.3664 10.7667 89.2664 11.0606 89.1573 11.3273C89.3815 11.4545 89.6179 11.5848 89.8664 11.7182C90.1209 11.8455 90.3694 11.9606 90.6118 12.0636C90.8542 12.1667 91.0815 12.2515 91.2936 12.3182C91.5118 12.3848 91.7027 12.4182 91.8664 12.4182ZM91.0846 6.3C91.7209 6.3 92.2755 6.41818 92.7482 6.65455C93.227 6.89091 93.6209 7.20909 93.93 7.60909C94.2452 8.00303 94.4785 8.46061 94.63 8.98182C94.7876 9.50303 94.8664 10.0485 94.8664 10.6182C94.8664 11.2485 94.8118 11.7848 94.7027 12.2273C94.5936 12.6697 94.4482 13.0364 94.2664 13.3273C94.0906 13.6182 93.8876 13.8455 93.6573 14.0091C93.433 14.1788 93.2058 14.303 92.9755 14.3818C92.7512 14.4667 92.533 14.5182 92.3209 14.5364C92.1088 14.5606 91.927 14.5727 91.7755 14.5727C91.4724 14.5727 91.1846 14.5424 90.9118 14.4818C90.6391 14.4273 90.3603 14.3455 90.0755 14.2364C89.7967 14.1333 89.5058 14.0061 89.2027 13.8545C88.8997 13.697 88.5694 13.5212 88.2118 13.3273C87.9391 13.6182 87.6452 13.8273 87.33 13.9545C87.0209 14.0758 86.6573 14.1364 86.2391 14.1364H85.1209L85.1027 11.8727H86.2391C86.3724 11.8727 86.4876 11.8333 86.5846 11.7545C86.6876 11.6758 86.7785 11.5667 86.8573 11.4273C86.9421 11.2818 87.0179 11.1091 87.0846 10.9091C87.1573 10.703 87.23 10.4758 87.3027 10.2273C87.4239 9.79091 87.5694 9.34242 87.7391 8.88182C87.9088 8.41515 88.133 7.99091 88.4118 7.60909C88.6967 7.22727 89.0542 6.91515 89.4846 6.67273C89.9149 6.42424 90.4482 6.3 91.0846 6.3Z" fill="white"/>
</svg>
