<svg width="92" height="92" viewBox="0 0 92 92" fill="none" xmlns="http://www.w3.org/2000/svg">
<path d="M91 1H1V91H91V1Z" stroke="#55A2E7" stroke-opacity="0.595597"/>
<path fill-rule="evenodd" clip-rule="evenodd" d="M67.7178 60.1631C67.4964 60.4447 67.2815 60.7326 67.051 61.006C66.876 61.2132 66.6885 61.411 66.4928 61.5975C66.3356 61.7472 66.2374 61.7414 66.0695 61.6059C65.9517 61.5111 65.8441 61.4029 65.7274 61.3067C65.3804 61.0218 65.2639 61.0281 64.9792 61.3677C64.7978 61.5844 64.6322 61.8147 64.4582 62.0382C64.2343 62.3259 64.2038 62.3348 63.9064 62.1522C63.6678 62.0065 63.4287 61.8604 63.2002 61.6984C62.9367 61.5113 62.9117 61.4037 63.089 61.121C63.3269 60.7423 63.5861 60.3777 63.8357 60.0068C63.9578 59.8261 64.0738 59.6407 64.2018 59.4644C64.3348 59.2808 64.4109 59.2617 64.6121 59.3591C64.8942 59.496 65.1512 59.6675 65.3516 59.9238C65.5233 60.1432 65.5595 60.1376 65.7327 59.9094C65.9963 59.5627 66.255 59.2118 66.5198 58.8661C66.6679 58.6723 66.6694 58.6788 66.8737 58.8254C67.1919 59.0539 67.4748 59.321 67.7178 59.6331V60.1631Z" fill="#1A57A7"/>
<path fill-rule="evenodd" clip-rule="evenodd" d="M42.8456 45.0837C42.8366 44.9807 42.8181 44.8775 42.8202 44.7745C42.8498 43.3628 42.9117 41.9512 43.2592 40.5774C44.0714 37.3686 45.7612 34.778 48.6073 33.0611C50.0901 32.1666 51.6934 31.5786 53.4384 31.4739C53.8869 31.4469 54.339 31.4208 54.7853 31.519C54.8651 31.5366 54.9455 31.5529 55.0236 31.5778C55.2621 31.6541 55.2709 31.6677 55.2687 31.9317C55.2543 33.579 54.938 35.1642 54.3061 36.6823C53.1645 39.4245 51.2188 41.3792 48.5937 42.6765C47.4613 43.2361 46.2743 43.5989 45.0327 43.7935C44.6489 43.8538 44.6094 43.9131 44.6867 44.308C44.7262 44.5107 44.7808 44.7103 44.8286 44.9113C44.1718 45.02 43.5102 45.0676 42.8456 45.0837Z" fill="#F3B01C"/>
<path fill-rule="evenodd" clip-rule="evenodd" d="M39.5352 65.3846C38.2515 65.3991 37.0903 65.3661 35.9442 65.135C34.9908 64.9431 34.0958 64.6234 33.3337 63.9917C32.9928 63.7091 32.7122 63.7507 32.4369 64.1048C32.2631 64.3286 32.1174 64.5746 31.9621 64.8129C31.7349 65.1626 31.4551 65.4584 31.088 65.6659C30.5969 65.9435 30.1244 65.8709 29.7417 65.4584C29.3129 64.9956 29.1962 64.4247 29.1868 63.8238C29.1733 62.937 29.2784 62.0607 29.4556 61.1927C29.6896 60.0464 30.0433 58.9359 30.4857 57.8531C30.5171 57.776 30.5526 57.6984 30.5987 57.6296C30.6356 57.5748 30.699 57.5487 30.766 57.5795C30.8281 57.6083 30.8704 57.6621 30.8606 57.7302C30.847 57.8231 30.8183 57.9142 30.7939 58.0058C30.5657 58.858 30.2937 59.7 30.1578 60.5747C30.0675 61.1567 29.9837 61.7411 30.1143 62.3298C30.1913 62.6784 30.3614 62.9763 30.6145 63.2271C31.0729 63.6814 31.6426 63.7224 32.1587 63.3297C32.3003 63.2218 32.4239 63.0894 32.5499 62.9623C32.802 62.7075 33.0501 62.4487 33.3329 62.2257C33.66 61.9676 34.009 61.906 34.3983 62.0822C35.7351 62.688 37.1562 62.936 38.6083 63.0354C39.9713 63.129 41.335 63.1112 42.6945 62.9718C44.9912 62.7365 47.1961 62.1498 49.32 61.2488C51.7637 60.2116 54.029 58.8715 56.145 57.2814C57.2403 56.4585 58.4264 55.8027 59.6684 55.2356C59.6971 55.2223 59.7265 55.2108 59.7552 55.1975C59.8241 55.1657 59.8951 55.1362 59.9625 55.1943C60.0441 55.2646 60.0061 55.3419 59.9736 55.4233C59.6525 56.2312 59.1299 56.8602 58.3097 57.1923C57.4263 57.5497 56.6558 58.0764 55.9304 58.6778C54.5483 59.8239 53.1126 60.8956 51.572 61.8245C49.2792 63.2071 46.8459 64.2528 44.2273 64.8507C43.0822 65.1123 41.9198 65.2612 40.7463 65.327C40.3032 65.3515 39.8606 65.3906 39.5352 65.3846Z" fill="#1A57A7"/>
<path fill-rule="evenodd" clip-rule="evenodd" d="M40.2512 58.7175C38.5117 58.7085 36.6133 58.5015 34.8007 57.77C34.3012 57.5683 33.8326 57.3177 33.4081 56.9813C32.8893 56.5709 32.7173 56.022 32.7455 55.3875C32.7497 55.2942 32.7742 55.1986 32.8072 55.1108C32.8893 54.8953 33.0797 54.7819 33.3074 54.8173C33.4201 54.8349 33.5329 54.8707 33.6378 54.9169C34.8973 55.4688 36.224 55.7718 37.5744 55.9831C38.7894 56.1732 40.0127 56.2663 41.2437 56.2475C44.2144 56.2028 47.0701 55.5849 49.829 54.4959C52.074 53.6099 54.1214 52.3884 55.9653 50.823C56.7633 50.1454 57.4636 49.3777 58.0792 48.5313C58.5825 47.8396 58.8527 47.0662 58.8657 46.205C58.8729 45.7469 58.9813 45.3074 59.1297 44.8776C59.2982 44.3889 59.5265 43.9256 59.7513 43.4615C59.7872 43.388 59.8167 43.2821 59.9216 43.3089C60.0218 43.335 60.005 43.4412 60.0073 43.5244C60.0522 45.3136 59.7373 47.0261 58.9478 48.6422C58.251 50.0681 57.2957 51.3026 56.2021 52.4386C54.3984 54.3118 52.2436 55.6467 49.8577 56.6291C47.7629 57.4918 45.5983 58.1047 43.3583 58.4413C42.3928 58.5868 41.4202 58.6666 40.2512 58.7175Z" fill="#1A57A7"/>
<mask id="mask0_472:4876" style="mask-type:alpha" maskUnits="userSpaceOnUse" x="32" y="59" width="30" height="16">
<path d="M32.1497 59.9033H61.7898V74.1306H32.1497V59.9033Z" fill="white"/>
</mask>
<g mask="url(#mask0_472:4876)">
<path fill-rule="evenodd" clip-rule="evenodd" d="M61.7898 59.9033C61.7423 60.4326 61.7279 60.904 61.6205 61.3647C61.5584 61.6311 61.4787 61.8905 61.3347 62.1247C61.0774 62.5433 60.7124 62.6883 60.2399 62.5577C60.1302 62.5273 60.0211 62.4897 59.9177 62.4421C59.5864 62.2904 59.2887 62.3661 59.0111 62.5714C58.8134 62.7177 58.6748 62.9145 58.5833 63.141C58.4606 63.4455 58.5254 63.692 58.7842 63.8935C58.8899 63.976 59.0123 64.0378 59.1304 64.1033C59.3929 64.2499 59.5178 64.4701 59.5032 64.7739C59.4825 65.1957 59.3385 65.5722 59.0804 65.9004C58.8461 66.1986 58.5323 66.2649 58.1879 66.1084C57.3536 65.7297 56.9639 65.7855 56.3062 66.4169C55.5807 67.1131 54.7914 67.7255 53.9585 68.2827C52.4764 69.2744 50.9612 70.2065 49.3083 70.889C47.383 71.6839 45.3883 72.1952 43.3185 72.4197C41.0476 72.6661 38.8157 72.4887 36.622 71.8433C36.1682 71.71 35.7392 71.5304 35.3923 71.194C35.2324 71.0383 35.0624 71.048 34.8773 71.1394C34.5903 71.2812 34.3711 71.5022 34.168 71.7432C33.5764 72.4461 32.9847 73.1492 32.3926 73.8519C32.3276 73.9294 32.2595 74.0046 32.1497 74.1307C32.1603 73.819 32.288 73.6304 32.4142 73.4435C32.9412 72.6644 33.4905 71.9014 34.0774 71.1666C34.4228 70.7343 34.771 70.3037 35.1183 69.8729C35.1641 69.8158 35.2116 69.7603 35.2609 69.7062C35.7458 69.175 36.1714 69.0494 36.8254 69.3471C38.8358 70.2633 40.9516 70.4574 43.1109 70.2746C46.0989 70.0211 48.9545 69.2295 51.6735 67.9593C53.311 67.1946 54.8122 66.1964 56.2661 65.1257C56.4668 64.9777 56.6459 64.7998 56.834 64.6346C57.0458 64.4482 57.2595 64.2588 57.5268 64.1609C57.6972 64.0984 57.7603 63.9795 57.8059 63.8203C57.9692 63.2544 58.1936 62.7155 58.5224 62.2248C58.7998 61.8115 59.1289 61.4544 59.5856 61.2349C59.9137 61.0772 60.2218 61.0174 60.5464 61.2743C60.7733 61.4539 60.9888 61.3914 61.1623 61.1487C61.3239 60.9224 61.4033 60.664 61.4312 60.3882C61.4528 60.1737 61.5619 60.0259 61.7898 59.9033Z" fill="#1A57A7"/>
</g>
<path fill-rule="evenodd" clip-rule="evenodd" d="M64.7259 58.1251C64.2704 58.1302 63.9032 57.8676 63.737 57.4179C63.6222 57.1076 63.5744 56.7836 63.569 56.4528C63.5547 55.5337 63.7146 54.6357 63.9115 53.7439C64.1436 52.6925 64.4656 51.6659 64.7835 50.6383C64.8105 50.5519 64.8158 50.4264 64.9189 50.4193C65.0445 50.4106 65.0555 50.5509 65.0871 50.6388C65.1507 50.8178 65.1347 51.004 65.0919 51.1857C64.8717 52.1244 64.7244 53.0767 64.5745 54.0281C64.496 54.5251 64.5351 55.0122 64.8231 55.4489C64.9575 55.6523 65.1289 55.8064 65.3797 55.8454C65.7129 55.8972 66.0116 55.7446 66.197 55.4255C66.2432 55.3462 66.2773 55.2597 66.3227 55.1799C66.355 55.1238 66.4046 55.0842 66.4744 55.1125C66.531 55.1352 66.5341 55.1892 66.5315 55.2417C66.5305 55.2622 66.5269 55.2824 66.523 55.3027C66.4012 55.9272 66.2702 56.549 65.9637 57.1159C65.8111 57.3981 65.6181 57.6483 65.377 57.8593C65.1865 58.0262 64.9697 58.1312 64.7259 58.1251Z" fill="#1A57A7"/>
<mask id="mask1_472:4876" style="mask-type:alpha" maskUnits="userSpaceOnUse" x="28" y="69" width="6" height="4">
<path d="M28 69.3877H33.3352V72.9445H28V69.3877Z" fill="white"/>
</mask>
<g mask="url(#mask1_472:4876)">
<path fill-rule="evenodd" clip-rule="evenodd" d="M33.3348 70.4737C33.3405 70.6457 33.2869 70.801 33.1973 70.9413C32.8527 71.481 32.3944 71.9166 31.9464 72.3611C31.8455 72.4612 31.7662 72.4245 31.671 72.3375C31.5109 72.1911 31.3431 72.0508 31.1653 71.9284C30.929 71.766 30.7724 71.7771 30.5448 71.9512C30.3634 72.0899 30.2015 72.2517 30.0516 72.4256C29.9878 72.5003 29.9251 72.5761 29.8582 72.6474C29.5002 73.0301 29.3709 73.0421 28.9742 72.6891C28.8041 72.5378 28.5926 72.4914 28.4017 72.3933C28.306 72.3443 28.2041 72.3076 28.1061 72.2625C27.9935 72.2111 27.9745 72.1232 28.0304 72.0194C28.0666 71.9522 28.1128 71.8903 28.1587 71.8295C28.5641 71.2874 28.9698 70.7454 29.3768 70.2046C29.5554 69.9668 29.6354 69.9358 29.8995 70.0289C30.2143 70.1396 30.5376 70.2377 30.7955 70.4687C30.9228 70.5831 31.0244 70.5516 31.1253 70.4317C31.3636 70.1477 31.6107 69.8708 31.8427 69.5815C31.9846 69.4037 32.1614 69.3534 32.3608 69.4095C32.8014 69.5341 33.1165 69.8157 33.2989 70.2471C33.3117 70.2768 33.3189 70.3098 33.3236 70.3423C33.33 70.3856 33.3312 70.4299 33.3348 70.4737Z" fill="#1A57A7"/>
</g>
<path fill-rule="evenodd" clip-rule="evenodd" d="M57.3112 60.4964C57.2642 60.4918 57.209 60.4941 57.1584 60.4798C57.0513 60.4491 57.0109 60.3368 57.0851 60.2549C57.1413 60.1933 57.2174 60.1481 57.2896 60.1035C58.2373 59.5194 59.1212 58.8448 60.0088 58.177C60.7248 57.6383 61.2371 56.9368 61.5542 56.0934C61.7122 55.6738 61.889 55.2614 62.0584 54.8459C62.0866 54.7769 62.1176 54.7088 62.1522 54.6426C62.1863 54.578 62.2425 54.5536 62.3132 54.5772C62.3755 54.5981 62.3844 54.6543 62.3821 54.7077C62.3801 54.7604 62.3712 54.8149 62.3542 54.8645C62.0711 55.6932 61.8648 56.5465 61.5431 57.3625C61.3701 57.8006 61.1697 58.2248 60.9153 58.6225C60.4852 59.2944 59.8997 59.7682 59.1436 60.0303C58.6087 60.2155 58.0712 60.3921 57.5091 60.4776C57.446 60.4872 57.3817 60.49 57.3112 60.4964Z" fill="#1A57A7"/>
<path fill-rule="evenodd" clip-rule="evenodd" d="M49.9336 49.4544C49.9131 49.5238 49.8919 49.6334 49.8482 49.7345C49.664 50.1606 49.3814 50.5214 48.9982 50.8117C48.898 50.8877 48.7893 50.9499 48.6634 50.9874C48.491 51.0381 48.345 51.0141 48.2317 50.8768C47.9559 50.5434 47.5897 50.321 47.1963 50.1275C46.918 49.9909 46.9095 49.9378 47.0975 49.6909C47.4648 49.2092 47.8332 48.7283 48.203 48.2483C48.3851 48.0118 48.4337 48.0002 48.7082 48.1322C49.0635 48.3028 49.4024 48.4961 49.6597 48.7893C49.819 48.9709 49.9382 49.1699 49.9336 49.4544Z" fill="#1A57A7"/>
<path fill-rule="evenodd" clip-rule="evenodd" d="M62.9753 64.1812C63.5178 63.5588 64.0325 62.9695 64.5453 62.3793C64.62 62.2931 64.7068 62.2478 64.8366 62.291C65.1339 62.3904 65.4293 62.4933 65.672 62.6731C65.9644 62.8895 66.0274 63.1087 65.809 63.3766C65.4634 63.7991 65.0714 64.1943 64.6203 64.5457C64.5025 64.6373 64.3481 64.6817 64.2104 64.6101C63.84 64.4175 63.4216 64.322 62.9753 64.1812Z" fill="#1A57A7"/>
<path fill-rule="evenodd" clip-rule="evenodd" d="M47.0791 27.3033C47.2727 27.3033 47.4675 27.2915 47.6601 27.3063C47.8698 27.3228 47.9559 27.4035 47.9605 27.6076C47.9746 28.2051 48.105 28.7937 48.0371 29.3992C47.7443 32.0049 46.4247 33.8472 44.063 34.9245C43.7411 35.0712 43.6876 35.0366 43.6203 34.665C43.4388 33.6662 43.1938 32.6858 42.8 31.7483C42.5273 31.0998 42.1956 30.4839 41.7988 29.9038C41.5652 29.5629 41.5736 29.5033 41.8699 29.2396C43.0711 28.171 44.484 27.5873 46.057 27.372C46.2376 27.3472 46.4188 27.3239 46.6005 27.3126C46.7594 27.3027 46.9194 27.3104 47.0791 27.3104V27.3033Z" fill="#F3B01C"/>
<path d="M42.8201 45.0833C50.0228 45.0833 55.8617 39.2444 55.8617 32.0416C55.8617 24.8389 50.0228 19 42.8201 19C35.6174 19 29.7784 24.8389 29.7784 32.0416C29.7784 39.2444 35.6174 45.0833 42.8201 45.0833Z" fill="#F4B11C"/>
<path fill-rule="evenodd" clip-rule="evenodd" d="M46.8318 27.5952V27.6016C46.6856 27.6016 46.5391 27.5947 46.3936 27.6036C46.2272 27.6137 46.0613 27.6346 45.8959 27.6568C44.4555 27.8501 43.1616 28.374 42.0618 29.3331C41.7904 29.5698 41.7827 29.6233 41.9966 29.9293C42.36 30.45 42.6637 31.0028 42.9134 31.5849C43.2741 32.4263 43.4984 33.3063 43.6646 34.2027C43.7262 34.5363 43.7752 34.5674 44.07 34.4357C46.2327 33.4687 47.441 31.8151 47.7091 29.4764C47.7713 28.933 47.6519 28.4046 47.6389 27.8684C47.6347 27.6852 47.5559 27.6127 47.3639 27.5979C47.1875 27.5846 47.0092 27.5952 46.8318 27.5952ZM41.0281 44.9474C41.0701 44.494 41.1169 44.0411 41.1527 43.5874C41.2178 42.7602 41.3967 41.9493 41.5101 41.1293C41.6195 40.3391 41.7193 39.5479 41.7847 38.7538C41.8765 37.6382 41.9367 36.521 41.8725 35.4002C41.8101 34.3176 41.6233 33.2589 41.2124 32.252C40.3262 30.0782 38.701 28.7387 36.4256 28.1556C35.4377 27.9026 34.4321 27.8048 33.4126 27.8481C32.882 27.8708 32.8306 27.9002 32.744 28.4229C32.3207 30.9843 33.0855 33.1172 35.1519 34.7323C36.4413 35.7402 37.9334 36.3568 39.5258 36.7358C39.678 36.772 39.8319 36.8009 39.9842 36.8369C40.2565 36.9017 40.2869 36.9518 40.217 37.2259C40.1508 37.4868 40.0794 37.7461 40.0138 38.0072C39.9914 38.0975 39.9861 38.1919 39.963 38.2819C39.8996 38.5265 39.7732 38.6165 39.5277 38.5578C37.6387 38.1066 35.823 37.4848 34.2102 36.3672C33.2365 35.6926 32.4905 34.8435 31.9774 33.7782C31.3666 32.5087 30.9651 31.1884 30.9641 29.7762C30.9636 28.8403 31.1579 27.9261 31.4225 27.0274C31.5058 26.7448 31.676 26.593 31.9767 26.5658C32.8524 26.4874 33.729 26.4519 34.6077 26.4862C36.0287 26.5419 37.3996 26.8454 38.7365 27.3154C39.3206 27.5207 39.8697 27.7917 40.3749 28.1494C40.5647 28.2836 40.5818 28.288 40.7463 28.1275C41.918 26.9823 43.3765 26.4869 44.9664 26.2845C46.1618 26.1322 47.3591 26.0634 48.5635 26.1566C48.9962 26.1901 49.133 26.2983 49.2134 26.7219C49.3325 27.3469 49.3527 27.9773 49.2937 28.6095C49.2258 29.3415 49.149 30.0728 49.0778 30.8048C49.0699 30.8847 49.0502 30.9668 49.0883 31.0646C49.6822 30.825 50.2874 30.6349 50.897 30.4579C52.1904 30.0826 53.5134 29.9263 54.857 29.9081C54.9716 29.9066 55.0863 29.8997 55.201 29.8955C55.6701 29.9179 56.1392 29.9404 56.608 29.9633C56.6811 29.9667 56.7545 29.969 56.8269 29.9783C57.0321 30.0047 57.0507 30.017 57.047 30.2343C57.0154 32.185 56.8403 34.1182 56.3235 36.0094C55.4206 39.3127 53.4089 41.7496 50.4399 43.4496C48.842 44.3643 47.1355 44.9752 45.3303 45.3283C45.0236 45.3882 44.9599 45.3579 44.8172 45.0773C44.7846 45.013 44.7555 44.9464 44.7246 44.8806C44.6759 44.6801 44.6202 44.4807 44.5799 44.2785C44.5013 43.884 44.5413 43.8248 44.9328 43.7649C46.1991 43.5706 47.4096 43.2082 48.5647 42.6498C51.2417 41.3546 53.2261 39.4032 54.3906 36.6655C55.0348 35.15 55.3574 33.5671 55.3723 31.9229C55.3746 31.6593 55.3656 31.6455 55.1221 31.5696C55.0428 31.5447 54.9607 31.5284 54.8791 31.5106C54.4239 31.4125 53.9631 31.4387 53.5054 31.4655C51.726 31.5703 50.0909 32.1573 48.5784 33.0504C45.676 34.7641 43.9526 37.3504 43.1243 40.5541C42.7696 41.9257 42.7065 43.3349 42.6764 44.7442C42.6741 44.847 42.693 44.9501 42.7022 45.0529C42.7027 45.1042 42.6973 45.1564 42.7047 45.2065C42.7729 45.67 42.8037 45.6912 43.2867 45.6602C43.4429 45.6498 43.6001 45.6525 43.7566 45.6513C45.1251 45.6404 46.4933 45.6298 47.8618 45.6192C47.9036 45.619 47.9454 45.6175 47.9872 45.619C48.2155 45.6269 48.2553 45.6478 48.2585 45.8618C48.266 46.3278 48.254 46.7935 48.2531 47.2595C48.2528 47.3816 48.1904 47.423 48.0777 47.4208C48.0046 47.4195 47.9314 47.4247 47.8583 47.4272C45.7486 47.494 43.6384 47.4176 41.5287 47.4365C41.4663 47.4373 41.4031 47.437 41.341 47.4301C41.0694 47.4005 40.9746 47.3046 40.9788 47.0268C40.9865 46.4886 41.0049 45.9501 41.0208 45.4121C41.0253 45.2573 41.0527 45.1027 41.0281 44.9474Z" fill="#1A57A7"/>
</svg>
