<svg width="44" height="44" viewBox="0 0 44 44" fill="none" xmlns="http://www.w3.org/2000/svg">
<path fill-rule="evenodd" clip-rule="evenodd" d="M19.5002 6.19421V8.22262C13.7722 9.25515 9.25527 13.7721 8.22274 19.5H6.19434C7.26673 12.6655 12.6657 7.2666 19.5002 6.19421ZM35.7776 19.5C34.7451 13.7721 30.2281 9.25515 24.5002 8.22262V6.19421C31.3347 7.2666 36.7336 12.6655 37.806 19.5H35.7776ZM24.5002 35.7775C30.2281 34.7449 34.7451 30.228 35.7776 24.5H37.806C36.7336 31.3345 31.3347 36.7335 24.5002 37.8059V35.7775ZM19.5002 35.7775C13.7722 34.7449 9.25527 30.228 8.22274 24.5H6.19434C7.26673 31.3345 12.6657 36.7335 19.5002 37.8059L19.5002 35.7775Z" fill="white"/>
<path d="M32 22H42" stroke="#FF6200" stroke-width="2" stroke-linecap="round" stroke-linejoin="round"/>
<path d="M2 22L12 22" stroke="#FF6200" stroke-width="2" stroke-linecap="round" stroke-linejoin="round"/>
<path d="M22 12V2" stroke="#FF6200" stroke-width="2" stroke-linecap="round" stroke-linejoin="round"/>
<path d="M22 42L22 32" stroke="#FF6200" stroke-width="2" stroke-linecap="round" stroke-linejoin="round"/>
</svg>
