<svg width="44" height="53" viewBox="0 0 44 53" fill="none" xmlns="http://www.w3.org/2000/svg">
<path d="M20.0748 52V46.9711C20.0748 46.764 19.9916 46.5654 19.8435 46.419C19.6954 46.2725 19.4946 46.1903 19.2852 46.1903H10.4185C10.1541 46.1892 9.89252 46.1367 9.64864 46.0357C9.40476 45.9347 9.18339 45.7872 8.99716 45.6015C8.81094 45.4159 8.66351 45.1958 8.56329 44.9538C8.46306 44.7118 8.41201 44.4527 8.41305 44.1912V36.8666C8.42203 36.6963 8.37442 36.5278 8.27747 36.3868C8.18052 36.2458 8.03958 36.14 7.87615 36.0857L5.72067 35.3751C5.56588 35.3238 5.42459 35.239 5.30713 35.1269C5.18966 35.0148 5.09897 34.8781 5.04166 34.727C4.99711 34.5676 4.98816 34.4005 5.01543 34.2373C5.0427 34.0742 5.10553 33.9188 5.19956 33.7821L8.35778 28.5268C8.35778 28.4799 8.35778 28.4799 8.35778 28.4799C8.3809 28.4323 8.39941 28.3826 8.41305 28.3316C8.41687 28.2796 8.41687 28.2274 8.41305 28.1754C8.41647 28.16 8.41647 28.144 8.41305 28.1285C8.39498 25.6466 8.99473 23.1985 10.1594 21H21M34.5315 52V39.0765C34.5271 39.0402 34.5271 39.0034 34.5315 38.9671C34.5277 38.9073 34.5277 38.8473 34.5315 38.7875C34.5601 38.732 34.5945 38.6797 34.6342 38.6314C34.6497 38.601 34.6682 38.5722 34.6894 38.5455C36.4358 36.7631 37.7118 34.583 38.405 32.1976C39.0982 29.8122 39.1872 27.2948 38.6642 24.8673C38.3729 23.5157 37.897 22.2151 37.2533 21H26" stroke="white" stroke-width="2"/>
<path d="M24 27H26C27.6569 27 29 28.3431 29 30V33" stroke="#FF6200" stroke-width="2" stroke-linecap="round" stroke-linejoin="round"/>
<path d="M23 24H21C19.3431 24 18 25.3431 18 27V30" stroke="#FF6200" stroke-width="2" stroke-linecap="round" stroke-linejoin="round"/>
<path d="M23.5 34V6" stroke="#FF6200" stroke-width="2" stroke-linecap="round" stroke-linejoin="round"/>
<path d="M30.4928 16H23.5V13.7127C23.5 12.4628 24.0278 11.2641 24.9673 10.3803C25.9069 9.49651 27.1811 9 28.5098 9H35.5V11.2873C35.5 12.5367 34.9725 13.7351 34.0336 14.6188C33.0946 15.5025 31.821 15.9993 30.4928 16V16Z" stroke="#FF6200" stroke-width="2" stroke-miterlimit="10"/>
<path d="M15.9245 8L23.5 8V5.71272C23.5 4.46283 22.9282 3.26413 21.9104 2.38032C20.8926 1.49651 19.5121 1 18.0727 1L10.5 1V3.28727C10.5 4.53674 11.0714 5.73506 12.0886 6.6188C13.1058 7.50254 14.4856 7.99935 15.9245 8V8Z" stroke="#FF6200" stroke-width="2" stroke-miterlimit="10"/>
</svg>
