<svg width="92" height="92" viewBox="0 0 92 92" fill="none" xmlns="http://www.w3.org/2000/svg">
<rect x="1" y="1" width="90" height="90" stroke="#55A2E7" stroke-opacity="0.6"/>
<path d="M29 53.8265C31.7668 52.6535 33.6869 50.5641 35.4944 48.341C37.2286 46.2101 38.9987 44.116 40.7172 41.9666C41.6952 40.766 42.4201 39.412 42.6185 37.8675C42.7653 36.7299 42.306 35.7749 41.353 35.0871C40.1423 34.209 38.8049 33.6547 37.2755 33.6118C37.0126 33.5873 36.7516 33.5458 36.4943 33.4874L36.499 33.2894H46.1477C46.8664 30.2311 48.5755 28.0204 51.4501 26.7645C52.488 26.2955 53.6113 26.0367 54.7531 26.0034C55.8949 25.9702 57.0318 26.1632 58.0961 26.5711C62.6627 28.2491 65.0592 33.0898 63.5407 37.5313C62.6471 40.1412 60.9114 42.0004 58.293 43.0198C55.6746 44.0392 53.1374 43.7752 50.5487 42.527C49.5144 43.9655 48.4536 45.3457 47.5069 46.7981C46.8829 47.716 46.5777 48.8076 46.6367 49.91C46.6577 50.3299 46.7724 50.7401 46.9728 51.1116C47.1731 51.483 47.4541 51.8066 47.7959 52.0594C49.1473 53.1156 50.719 53.5348 52.4016 53.6515C52.4768 53.6515 52.5511 53.6679 52.6192 53.6995C52.6873 53.7311 52.7474 53.7771 52.7952 53.8341C52.6283 53.8726 52.4585 53.8982 52.2875 53.9109C48.9546 53.9109 45.6217 53.9068 42.2888 53.8986C42.1591 53.904 42.0292 53.9009 41.8998 53.8894C40.7516 53.7359 40.4657 53.2108 41.1609 52.3035C42.3873 50.7176 43.6855 49.19 44.9588 47.6471C46.4164 45.8892 47.8975 44.1482 49.3473 42.3827C49.4769 42.2291 49.4426 41.9359 49.4832 41.7072L49.216 41.6258C48.1558 42.9041 47.0934 44.181 46.029 45.4563C44.3245 47.5104 42.631 49.5723 40.9203 51.6234C39.7283 53.0512 38.0988 53.6683 36.299 53.8341C34.524 53.9937 32.7402 54.0389 30.9591 53.9692C31.8965 53.4227 32.962 53.0097 33.7494 52.3004C35.2331 50.9525 36.6319 49.5169 37.9379 48.0017C40.2235 45.3626 42.4154 42.6467 44.6557 39.9646C45.1822 39.3337 45.7384 38.7242 46.2352 38.0717C46.3914 37.8644 46.3914 37.5466 46.4742 37.2795L46.2633 37.1797C45.6571 37.8859 45.0447 38.586 44.4495 39.2999C41.9363 42.3182 39.4267 45.3375 36.9208 48.3579C35.4616 50.1296 33.9712 51.8567 31.9059 52.9898C31.0013 53.481 30.103 53.9907 29 53.8265ZM49.7472 41.004L49.8269 41.2926C50.0128 41.2251 50.2612 41.2097 50.3753 41.0808C51.0564 40.3131 51.7126 39.5225 52.3672 38.7318C53.8779 36.9049 55.4418 35.1317 57.6102 34.0171C58.4429 33.5903 59.285 33.1481 60.4833 33.3032C56.1089 35.0733 53.9388 38.8424 51.1267 41.9989C53.4889 43.6078 57.6883 43.2747 60.0943 41.3587C63.2048 38.8854 64.2437 34.9643 62.6549 31.5054C61.191 28.3151 57.7305 26.0552 53.5826 26.7461C50.1706 27.3141 47.4178 29.9456 46.8992 33.2264C47.052 33.2318 47.2044 33.2467 47.3554 33.2709C48.5286 33.5227 48.7099 33.9833 48.0178 34.9735C47.7256 35.3927 47.36 35.7642 47.0804 36.1925C46.9523 36.3921 46.9617 36.6746 46.9085 36.9202L47.107 36.9832C47.3507 36.6899 47.6038 36.4029 47.835 36.1019C48.8552 34.7786 50.1175 33.8098 51.8266 33.5427C52.9718 33.363 54.1263 33.2018 55.2824 33.1189C56.2588 33.0483 57.2447 33.1051 58.2273 33.1051L58.2695 33.3001C54.3732 34.7509 52.2188 38.0471 49.7472 41.004Z" fill="#F59200"/>
<path d="M49.9597 44.2773C50.2019 44.2196 50.4486 44.1816 50.6971 44.1637C53.5874 44.1545 56.4776 44.1391 59.3678 44.1729C60.0633 44.2035 60.7535 44.3064 61.4269 44.48C61.9191 44.5905 62.1253 44.9559 61.8331 45.4103C61.4538 46.0446 61.0238 46.6483 60.5474 47.2158C58.9163 49.0381 57.2666 50.8497 55.5746 52.6107C55.0684 53.1342 54.3654 53.475 53.753 53.8987L53.5405 53.6546C53.9061 53.1941 54.3216 52.755 54.6247 52.2545C55.0934 51.4761 55.598 50.6885 55.898 49.8411C56.5323 48.051 55.9261 46.4635 54.1388 45.6268C52.8406 45.0158 51.3861 44.7302 49.9597 44.2773Z" fill="#F59200"/>
<path d="M24.6118 65.0477C24.4082 65.0477 24.2268 65.0191 24.0677 64.9618C23.9086 64.9024 23.7739 64.8186 23.6636 64.7105C23.6021 64.7741 23.5363 64.8282 23.4663 64.8727C23.3963 64.9152 23.3232 64.9502 23.2468 64.9777C23.1726 65.0032 23.0973 65.0212 23.0209 65.0318C22.9445 65.0424 22.8703 65.0477 22.7982 65.0477C22.7367 65.0477 22.6773 65.0456 22.62 65.0414C22.5627 65.0371 22.5076 65.0286 22.4545 65.0159C22.4015 65.0032 22.3506 64.9841 22.3018 64.9586C22.253 64.9332 22.2053 64.8992 22.1586 64.8568V65.0891C22.1586 65.6576 22.0048 66.0776 21.6973 66.3491C21.3918 66.6206 20.9368 66.7564 20.3323 66.7564H19.7118C19.4339 66.7564 19.1794 66.7108 18.9482 66.6195C18.717 66.5283 18.5165 66.3979 18.3468 66.2282C18.1792 66.0606 18.0488 65.857 17.9554 65.6173C17.8621 65.3797 17.8154 65.1114 17.8154 64.8123C17.8154 64.5344 17.8568 64.2459 17.9395 63.9468C18.0244 63.6456 18.1495 63.3211 18.315 62.9732L18.9418 63.2786C18.7954 63.5777 18.6798 63.8503 18.595 64.0964C18.5101 64.3424 18.4677 64.5779 18.4677 64.8027C18.4677 64.9788 18.4974 65.1432 18.5568 65.2959C18.6183 65.4486 18.7042 65.5812 18.8145 65.6936C18.9248 65.8082 19.0563 65.8983 19.2091 65.9641C19.3554 66.0277 19.5177 66.0595 19.6959 66.0595H20.3323C20.5677 66.0595 20.7586 66.0373 20.905 65.9927C21.0535 65.9503 21.168 65.8877 21.2486 65.805C21.3313 65.7223 21.3876 65.6205 21.4173 65.4995C21.447 65.3786 21.4618 65.2418 21.4618 65.0891V62.8491H22.1586V63.4695C22.1586 63.6626 22.1767 63.8174 22.2127 63.9341C22.2488 64.0486 22.2965 64.1377 22.3559 64.2014C22.4174 64.2629 22.4863 64.3042 22.5627 64.3255C22.6391 64.3445 22.7176 64.3541 22.7982 64.3541C22.847 64.3541 22.9021 64.3456 22.9636 64.3286C23.0273 64.3117 23.0867 64.282 23.1418 64.2395C23.197 64.1971 23.2426 64.1409 23.2786 64.0709C23.3168 64.0009 23.3359 63.9129 23.3359 63.8068V62.8491H24.0295V63.8386C24.0338 64.0168 24.0815 64.1473 24.1727 64.23C24.2639 64.3127 24.4082 64.3541 24.6054 64.3541C24.6394 64.352 24.6829 64.3445 24.7359 64.3318C24.791 64.3191 24.8441 64.2936 24.895 64.2555C24.948 64.2173 24.9926 64.1632 25.0286 64.0932C25.0668 64.0211 25.0859 63.9256 25.0859 63.8068C25.0859 63.7602 25.0817 63.7029 25.0732 63.635C25.0647 63.5671 25.0541 63.4939 25.0413 63.4155C25.0286 63.337 25.0138 63.2574 24.9968 63.1768C24.982 63.0941 24.966 63.0167 24.9491 62.9445C24.9342 62.8703 24.9194 62.8045 24.9045 62.7473C24.8897 62.6879 24.878 62.6423 24.8695 62.6105L25.5313 62.41C25.5356 62.4227 25.5441 62.4567 25.5568 62.5118C25.5717 62.5648 25.5876 62.6317 25.6045 62.7123C25.6215 62.7908 25.6395 62.8788 25.6586 62.9764C25.6777 63.0739 25.6947 63.1726 25.7095 63.2723C25.7265 63.372 25.7403 63.4685 25.7509 63.5618C25.7615 63.6552 25.7668 63.7368 25.7668 63.8068C25.7668 64.0147 25.7329 64.1961 25.665 64.3509C25.5971 64.5058 25.508 64.6341 25.3977 64.7359C25.2895 64.8377 25.1665 64.9152 25.0286 64.9682C24.8907 65.0191 24.7518 65.0456 24.6118 65.0477ZM23.5618 61.4714L23.0527 61.9868L22.5436 61.4777L23.0527 60.9623L23.5618 61.4714ZM24.9268 61.4586L24.4241 61.9677L23.8991 61.465L24.4145 60.9495L24.9268 61.4586ZM24.2236 60.5614L23.7463 61.0386L23.2754 60.5677L23.7527 60.0905L24.2236 60.5614ZM27.8443 64.8982C27.8316 65.1824 27.7785 65.4391 27.6852 65.6682C27.594 65.8973 27.4657 66.0924 27.3002 66.2536C27.1369 66.4148 26.9396 66.5389 26.7084 66.6259C26.4772 66.7129 26.2152 66.7564 25.9225 66.7564H25.4834V66.0595H25.9225C26.1346 66.0595 26.317 66.0373 26.4698 65.9927C26.6246 65.9482 26.7519 65.8771 26.8516 65.7795C26.9513 65.6841 27.0255 65.5579 27.0743 65.4009C27.1231 65.2461 27.1475 65.0573 27.1475 64.8345V62.8491H27.8443V64.8982ZM26.9502 61.4714L27.4784 60.9368L28.0193 61.4777L27.4848 62.0123L26.9502 61.4714ZM29.3346 65.0477H28.6377V60.4595H29.3346V65.0477ZM31.7318 65.0764C31.6024 65.0764 31.4762 65.07 31.3532 65.0573C31.2916 65.0509 31.2248 65.0424 31.1527 65.0318C31.0806 65.0212 31.0063 65.0064 30.93 64.9873C30.8557 64.9682 30.7804 64.9448 30.7041 64.9173C30.6298 64.8876 30.5588 64.8536 30.4909 64.8155L30.1886 64.6436L30.5354 64.0391L30.8377 64.2109C30.9098 64.2533 30.9979 64.2873 31.1018 64.3127C31.2079 64.3382 31.3203 64.3562 31.4391 64.3668C31.5366 64.3753 31.6353 64.3795 31.735 64.3795C31.7562 64.3795 31.8018 64.3795 31.8718 64.3795C31.9418 64.3774 32.0277 64.3689 32.1295 64.3541C32.2653 64.3329 32.366 64.3064 32.4318 64.2745C32.4997 64.2406 32.5389 64.2088 32.5495 64.1791C32.5559 64.1664 32.5591 64.1505 32.5591 64.1314C32.5591 64.1038 32.5516 64.0624 32.5368 64.0073C32.5219 63.9521 32.4763 63.8673 32.4 63.7527C32.1963 63.4452 32.0309 63.1959 31.9036 63.005C31.7763 62.812 31.6766 62.6614 31.6045 62.5532C31.5324 62.445 31.4836 62.3708 31.4582 62.3305C31.4327 62.2902 31.4189 62.2689 31.4168 62.2668L31.2259 61.9741L31.8082 61.5923L31.9991 61.885L32.0404 61.9455C32.0659 61.9858 32.1147 62.06 32.1868 62.1682C32.2589 62.2764 32.3586 62.427 32.4859 62.62C32.6132 62.813 32.7786 63.0623 32.9822 63.3677C33.1032 63.5502 33.1848 63.7262 33.2272 63.8959C33.2463 63.9765 33.2559 64.055 33.2559 64.1314C33.2559 64.248 33.2326 64.3583 33.1859 64.4623C33.1116 64.632 32.9854 64.7656 32.8072 64.8632C32.6524 64.9502 32.4604 65.0095 32.2313 65.0414C32.1507 65.0541 32.0691 65.0626 31.9863 65.0668C31.9036 65.0732 31.8188 65.0764 31.7318 65.0764ZM35.8231 65.0477H35.7562C35.6629 65.0477 35.5749 65.0403 35.4922 65.0255C35.4094 65.0106 35.3256 64.9682 35.2408 64.8982C35.2281 65.1824 35.175 65.4391 35.0817 65.6682C34.9905 65.8973 34.8622 66.0924 34.6967 66.2536C34.5334 66.4148 34.3361 66.5389 34.1049 66.6259C33.8737 66.7129 33.6117 66.7564 33.319 66.7564H32.8799V66.0595H33.319C33.5311 66.0595 33.7135 66.0373 33.8662 65.9927C34.0211 65.9482 34.1484 65.8771 34.2481 65.7795C34.3478 65.6841 34.422 65.5579 34.4708 65.4009C34.5196 65.2461 34.544 65.0573 34.544 64.8345V62.8491H35.2408V63.8482C35.2408 63.9564 35.2631 64.0433 35.3076 64.1091C35.3543 64.1748 35.4073 64.2258 35.4667 64.2618C35.5261 64.2979 35.5834 64.3223 35.6385 64.335C35.6958 64.3456 35.735 64.3509 35.7562 64.3509H35.8231V65.0477ZM38.0724 62.3973C38.0767 62.41 38.0851 62.445 38.0979 62.5023C38.1106 62.5574 38.1254 62.6264 38.1424 62.7091C38.1615 62.7918 38.1795 62.883 38.1965 62.9827C38.2156 63.0824 38.2326 63.1832 38.2474 63.285C38.2644 63.3847 38.2782 63.4823 38.2888 63.5777C38.2994 63.6711 38.3047 63.7527 38.3047 63.8227C38.3047 64.0327 38.2697 64.2152 38.1997 64.37C38.1297 64.5248 38.0385 64.6521 37.926 64.7518C37.8157 64.8515 37.6906 64.9258 37.5506 64.9745C37.4106 65.0233 37.2706 65.0477 37.1306 65.0477H35.7147V64.3509H37.1529C37.1804 64.3509 37.2207 64.3467 37.2738 64.3382C37.3289 64.3297 37.383 64.3085 37.436 64.2745C37.4891 64.2385 37.5347 64.1855 37.5729 64.1155C37.6132 64.0455 37.6333 63.9479 37.6333 63.8227C37.6333 63.7761 37.6291 63.7177 37.6206 63.6477C37.6121 63.5777 37.6015 63.5024 37.5888 63.4218C37.576 63.3412 37.5612 63.2585 37.5442 63.1736C37.5273 63.0888 37.5103 63.0092 37.4933 62.935C37.4785 62.8608 37.4636 62.7939 37.4488 62.7345C37.4339 62.6752 37.4223 62.6295 37.4138 62.5977L38.0724 62.3973ZM35.9724 66.0945L36.4815 65.5855L36.9906 66.1009L36.4815 66.61L35.9724 66.0945ZM37.2992 66.1009L37.8147 65.5918L38.3238 66.1073L37.8147 66.6164L37.2992 66.1009ZM36.666 66.9918L37.137 66.5209L37.6142 66.9982L37.1433 67.4691L36.666 66.9918ZM43.7733 65.0477H43.7064C43.6131 65.0477 43.5251 65.0403 43.4424 65.0255C43.3596 65.0106 43.2758 64.9682 43.191 64.8982C43.1783 65.1824 43.1252 65.4391 43.0319 65.6682C42.9407 65.8973 42.8124 66.0924 42.6469 66.2536C42.4836 66.4148 42.2863 66.5389 42.0551 66.6259C41.8239 66.7129 41.5619 66.7564 41.2692 66.7564H40.8301V66.0595H41.2692C41.4813 66.0595 41.6637 66.0373 41.8164 65.9927C41.9713 65.9482 42.0986 65.8771 42.1983 65.7795C42.298 65.6841 42.3722 65.5579 42.421 65.4009C42.4698 65.2461 42.4942 65.0573 42.4942 64.8345V62.8491H43.191V63.8482C43.191 63.9564 43.2133 64.0433 43.2578 64.1091C43.3045 64.1748 43.3575 64.2258 43.4169 64.2618C43.4763 64.2979 43.5336 64.3223 43.5887 64.335C43.646 64.3456 43.6852 64.3509 43.7064 64.3509H43.7733V65.0477ZM45.7999 64.2618C45.8868 64.1197 45.9781 63.9712 46.0735 63.8164C46.169 63.6615 46.2687 63.5109 46.3726 63.3645C46.4787 63.2161 46.5911 63.0761 46.7099 62.9445C46.8287 62.8109 46.9549 62.6942 47.0885 62.5945C47.2222 62.4927 47.3643 62.4132 47.5149 62.3559C47.6655 62.2965 47.8278 62.2668 48.0017 62.2668C48.1629 62.2668 48.3209 62.2944 48.4758 62.3495C48.6306 62.4026 48.7685 62.4874 48.8894 62.6041C49.0103 62.7186 49.1079 62.8682 49.1822 63.0527C49.2564 63.2352 49.2935 63.4568 49.2935 63.7177C49.2935 63.845 49.2818 63.9606 49.2585 64.0645C49.2373 64.1685 49.2065 64.2639 49.1662 64.3509H49.8567V65.0477H46.1435C46.0672 65.0477 45.9844 65.0414 45.8953 65.0286C45.8062 65.0159 45.7172 64.9979 45.6281 64.9745C45.5411 64.9491 45.4584 64.9205 45.3799 64.8886C45.3014 64.8547 45.2356 64.8176 45.1826 64.7773L45.1349 64.7391C45.0203 64.8452 44.8846 64.9226 44.7276 64.9714C44.5728 65.018 44.3893 65.0435 44.1772 65.0477H43.6617V64.3509H44.1549C44.2949 64.3509 44.4052 64.3382 44.4858 64.3127C44.5685 64.2852 44.6311 64.2512 44.6735 64.2109C44.7181 64.1685 44.7467 64.1229 44.7594 64.0741C44.7743 64.0232 44.7817 63.9744 44.7817 63.9277V62.8491H45.4753V63.9023C45.4753 63.9511 45.4849 63.9967 45.504 64.0391C45.5231 64.0815 45.5485 64.1197 45.5803 64.1536C45.6122 64.1876 45.6472 64.2141 45.6853 64.2332C45.7235 64.2523 45.7617 64.2618 45.7999 64.2618ZM48.0017 62.9605C47.8638 62.9605 47.7281 63.0018 47.5944 63.0845C47.4608 63.1673 47.3303 63.2755 47.2031 63.4091C47.0758 63.5406 46.9538 63.6891 46.8372 63.8545C46.7205 64.02 46.6112 64.1855 46.5094 64.3509H47.9635C47.9826 64.3509 48.0081 64.3498 48.0399 64.3477C48.0717 64.3456 48.1056 64.3414 48.1417 64.335C48.1799 64.3265 48.2191 64.3148 48.2594 64.3C48.2997 64.2852 48.339 64.2661 48.3772 64.2427V64.2459C48.4153 64.2205 48.4514 64.1908 48.4853 64.1568C48.5214 64.1229 48.5522 64.0847 48.5776 64.0423C48.6052 63.9977 48.6275 63.9489 48.6444 63.8959C48.6614 63.8408 48.6699 63.7814 48.6699 63.7177C48.6699 63.5905 48.6518 63.4802 48.6158 63.3868C48.5818 63.2914 48.5341 63.2118 48.4726 63.1482C48.4132 63.0845 48.3432 63.0379 48.2626 63.0082C48.182 62.9764 48.095 62.9605 48.0017 62.9605ZM49.7525 65.0477V64.3509H50.7452C50.6816 64.2745 50.6307 64.1982 50.5925 64.1218C50.5565 64.0455 50.5289 63.9723 50.5098 63.9023C50.4928 63.8323 50.4822 63.7665 50.478 63.705C50.4737 63.6435 50.4716 63.5883 50.4716 63.5395C50.4716 63.3592 50.5066 63.1917 50.5766 63.0368C50.6466 62.8798 50.741 62.7441 50.8598 62.6295C50.9786 62.515 51.1175 62.4248 51.2766 62.3591C51.4357 62.2933 51.6043 62.2605 51.7825 62.2605C51.8843 62.2605 51.9819 62.2721 52.0752 62.2955C52.1686 62.3167 52.263 62.3485 52.3584 62.3909C52.456 62.4333 52.5568 62.4853 52.6607 62.5468C52.7668 62.6062 52.8834 62.673 53.0107 62.7473L52.6639 63.3423C52.6109 63.3083 52.5472 63.2691 52.473 63.2245C52.4009 63.18 52.3245 63.1376 52.2439 63.0973C52.1654 63.057 52.0859 63.0241 52.0052 62.9986C51.9246 62.9711 51.8504 62.9573 51.7825 62.9573C51.7062 62.9573 51.6287 62.97 51.5502 62.9955C51.4718 63.0188 51.3996 63.0559 51.3339 63.1068C51.2702 63.1556 51.2183 63.2161 51.178 63.2882C51.1377 63.3603 51.1175 63.4441 51.1175 63.5395C51.1175 63.5671 51.1207 63.6 51.1271 63.6382C51.1355 63.6742 51.1504 63.7145 51.1716 63.7591C51.1928 63.8036 51.2215 63.8503 51.2575 63.8991C51.2957 63.9479 51.3445 63.9967 51.4039 64.0455H51.4007C51.5343 64.1536 51.7104 64.2321 51.9289 64.2809C52.1495 64.3276 52.4062 64.3509 52.6989 64.3509H53.0966V65.0477H49.7525ZM57.5785 65.0764C57.4491 65.0764 57.3229 65.07 57.1998 65.0573C57.1383 65.0509 57.0715 65.0424 56.9994 65.0318C56.9273 65.0212 56.853 65.0064 56.7767 64.9873C56.7024 64.9682 56.6271 64.9448 56.5507 64.9173C56.4765 64.8876 56.4054 64.8536 56.3376 64.8155L56.0353 64.6436L56.3821 64.0391L56.6844 64.2109C56.7565 64.2533 56.8445 64.2873 56.9485 64.3127C57.0545 64.3382 57.167 64.3562 57.2857 64.3668C57.3833 64.3753 57.482 64.3795 57.5817 64.3795C57.6029 64.3795 57.6485 64.3795 57.7185 64.3795C57.7885 64.3774 57.8744 64.3689 57.9762 64.3541C58.112 64.3329 58.2127 64.3064 58.2785 64.2745C58.3464 64.2406 58.3856 64.2088 58.3962 64.1791C58.4026 64.1664 58.4057 64.1505 58.4057 64.1314C58.4057 64.1038 58.3983 64.0624 58.3835 64.0073C58.3686 63.9521 58.323 63.8673 58.2467 63.7527C58.043 63.4452 57.8776 63.1959 57.7503 63.005C57.623 62.812 57.5233 62.6614 57.4512 62.5532C57.3791 62.445 57.3303 62.3708 57.3048 62.3305C57.2794 62.2902 57.2656 62.2689 57.2635 62.2668L57.0726 61.9741L57.6548 61.5923L57.8457 61.885L57.8871 61.9455C57.9126 61.9858 57.9614 62.06 58.0335 62.1682C58.1056 62.2764 58.2053 62.427 58.3326 62.62C58.4598 62.813 58.6253 63.0623 58.8289 63.3677C58.9498 63.5502 59.0315 63.7262 59.0739 63.8959C59.093 63.9765 59.1026 64.055 59.1026 64.1314C59.1026 64.248 59.0792 64.3583 59.0326 64.4623C58.9583 64.632 58.8321 64.7656 58.6539 64.8632C58.4991 64.9502 58.3071 65.0095 58.078 65.0414C57.9974 65.0541 57.9157 65.0626 57.833 65.0668C57.7503 65.0732 57.6654 65.0764 57.5785 65.0764ZM60.6295 65.0477H59.9327V60.4595H60.6295V65.0477ZM65.2413 64.3509V65.0477H65.1617C64.8499 65.0477 64.5593 64.9226 64.2899 64.6723C64.222 64.7529 64.1372 64.8218 64.0354 64.8791C63.8805 64.9661 63.6875 65.0255 63.4563 65.0573C63.3778 65.07 63.2961 65.0785 63.2113 65.0827C63.1285 65.0891 63.0437 65.0923 62.9567 65.0923C62.8273 65.0923 62.7011 65.0859 62.5781 65.0732C62.5166 65.0668 62.4497 65.0583 62.3776 65.0477C62.3076 65.0371 62.2344 65.0223 62.1581 65.0032C62.0817 64.9841 62.0054 64.9608 61.929 64.9332C61.8547 64.9035 61.7837 64.8695 61.7158 64.8314L61.4135 64.6595L61.7604 64.055L62.0626 64.2268C62.1135 64.2565 62.1729 64.282 62.2408 64.3032C62.3087 64.3244 62.3819 64.3424 62.4604 64.3573C62.5388 64.37 62.6205 64.3795 62.7054 64.3859C62.7902 64.3923 62.875 64.3955 62.9599 64.3955C63.1126 64.3955 63.2494 64.3891 63.3704 64.3764C63.4934 64.3615 63.5899 64.335 63.6599 64.2968C63.7299 64.2586 63.7691 64.2045 63.7776 64.1345V64.1123C63.7776 64.0444 63.7458 63.9595 63.6822 63.8577C63.5125 63.5968 63.3608 63.3645 63.2272 63.1609C63.0935 62.9573 62.9811 62.7886 62.8899 62.655C62.7987 62.5192 62.7319 62.4195 62.6894 62.3559C62.6555 62.3071 62.6385 62.2817 62.6385 62.2795L62.6417 62.2827L62.4508 61.99L63.0331 61.6082L63.2272 61.9009L63.3035 62.0155C63.3523 62.0918 63.4202 62.1968 63.5072 62.3305C63.5941 62.462 63.697 62.6179 63.8158 62.7982C63.9367 62.9785 64.0672 63.1736 64.2072 63.3836C64.2687 63.4748 64.3376 63.5767 64.414 63.6891C64.4904 63.8015 64.5699 63.9065 64.6526 64.0041C64.7375 64.1017 64.8234 64.1844 64.9104 64.2523C64.9973 64.318 65.0811 64.3509 65.1617 64.3509H65.2413ZM67.521 64.5036C67.5422 64.5036 67.5741 64.5015 67.6165 64.4973C67.661 64.4909 67.7056 64.4676 67.7501 64.4273C67.7947 64.3848 67.8339 64.317 67.8679 64.2236C67.9018 64.1282 67.9188 63.9903 67.9188 63.81C67.9188 63.7888 67.9156 63.7548 67.9092 63.7082C67.9029 63.6594 67.8912 63.6074 67.8742 63.5523C67.8572 63.495 67.8339 63.4367 67.8042 63.3773C67.7745 63.3158 67.7363 63.2606 67.6897 63.2118C67.643 63.1609 67.5857 63.1195 67.5179 63.0877C67.45 63.0559 67.3704 63.04 67.2792 63.04C67.1944 63.04 67.1212 63.058 67.0597 63.0941C66.9982 63.128 66.9441 63.1747 66.8974 63.2341C66.8507 63.2914 66.8104 63.3582 66.7765 63.4345C66.7447 63.5088 66.715 63.5862 66.6874 63.6668C66.6619 63.7474 66.6375 63.828 66.6142 63.9086C66.593 63.9892 66.5707 64.0635 66.5474 64.1314C66.6301 64.178 66.716 64.2236 66.8051 64.2682C66.8942 64.3127 66.9812 64.353 67.066 64.3891C67.153 64.423 67.2347 64.4506 67.311 64.4718C67.3895 64.493 67.4595 64.5036 67.521 64.5036ZM67.2792 62.3464C67.4956 62.3464 67.6833 62.3867 67.8424 62.4673C68.0015 62.5458 68.1341 62.6529 68.2401 62.7886C68.3462 62.9223 68.4247 63.0782 68.4756 63.2564C68.5286 63.4324 68.5551 63.617 68.5551 63.81C68.5551 64.0242 68.536 64.2077 68.4979 64.3605C68.4618 64.5111 68.4141 64.6383 68.3547 64.7423C68.2953 64.8441 68.2274 64.9258 68.151 64.9873C68.0768 65.0467 68.0015 65.0923 67.9251 65.1241C67.8488 65.1559 67.7745 65.1761 67.7024 65.1845C67.6324 65.1952 67.5719 65.2005 67.521 65.2005C67.4171 65.2005 67.3174 65.1898 67.2219 65.1686C67.1265 65.1495 67.0289 65.1198 66.9292 65.0795C66.8316 65.0414 66.7288 64.9947 66.6206 64.9395C66.5124 64.8844 66.3936 64.8218 66.2642 64.7518C66.173 64.8536 66.0722 64.9289 65.9619 64.9777C65.8516 65.0244 65.7339 65.0477 65.6088 65.0477H65.1188L65.1124 64.3509H65.5833C65.6385 64.3509 65.6862 64.3339 65.7265 64.3C65.7668 64.2639 65.8029 64.2162 65.8347 64.1568C65.8665 64.0974 65.8951 64.0274 65.9206 63.9468C65.9482 63.8662 65.9747 63.7792 66.0001 63.6859C66.0277 63.5862 66.0585 63.4844 66.0924 63.3805C66.1263 63.2765 66.1666 63.1747 66.2133 63.075C66.26 62.9753 66.3151 62.882 66.3788 62.795C66.4424 62.7059 66.5166 62.6285 66.6015 62.5627C66.6863 62.4948 66.7839 62.4418 66.8942 62.4036C67.0066 62.3655 67.135 62.3464 67.2792 62.3464ZM70.8992 65.0477C70.6786 65.0477 70.4898 65.0339 70.3328 65.0064C70.1759 64.9788 70.0433 64.9374 69.9351 64.8823C69.8291 64.8271 69.7431 64.7582 69.6774 64.6755C69.6138 64.5906 69.565 64.492 69.531 64.3795C69.4971 64.265 69.4748 64.1367 69.4642 63.9945C69.4536 63.8524 69.4483 63.6944 69.4483 63.5205V60.4595H70.1451V63.5205C70.1451 63.6986 70.1504 63.8429 70.161 63.9532C70.1737 64.0614 70.2045 64.1452 70.2533 64.2045C70.3042 64.2639 70.3795 64.3032 70.4792 64.3223C70.581 64.3414 70.721 64.3509 70.8992 64.3509V65.0477ZM72.5612 62.3973C72.5654 62.41 72.5739 62.445 72.5867 62.5023C72.5994 62.5574 72.6142 62.6264 72.6312 62.7091C72.6503 62.7918 72.6683 62.883 72.6853 62.9827C72.7044 63.0824 72.7214 63.1832 72.7362 63.285C72.7532 63.3847 72.767 63.4823 72.7776 63.5777C72.7882 63.6711 72.7935 63.7527 72.7935 63.8227C72.7935 64.0327 72.7585 64.2152 72.6885 64.37C72.6185 64.5248 72.5273 64.6521 72.4148 64.7518C72.3045 64.8515 72.1794 64.9258 72.0394 64.9745C71.8994 65.0233 71.7594 65.0477 71.6194 65.0477H70.7603V64.3509H71.6417C71.6692 64.3509 71.7095 64.3467 71.7626 64.3382C71.8177 64.3297 71.8718 64.3085 71.9248 64.2745C71.9779 64.2385 72.0235 64.1855 72.0617 64.1155C72.102 64.0455 72.1221 63.9479 72.1221 63.8227C72.1221 63.7761 72.1179 63.7177 72.1094 63.6477C72.1009 63.5777 72.0903 63.5024 72.0776 63.4218C72.0648 63.3412 72.05 63.2585 72.033 63.1736C72.0161 63.0888 71.9991 63.0092 71.9821 62.935C71.9673 62.8608 71.9524 62.7939 71.9376 62.7345C71.9227 62.6752 71.9111 62.6295 71.9026 62.5977L72.5612 62.3973ZM71.4317 66.155L71.9598 65.6205L72.5008 66.1614L71.9662 66.6959L71.4317 66.155Z" fill="#F59200"/>
</svg>
