<svg width="92" height="92" viewBox="0 0 92 92" fill="none" xmlns="http://www.w3.org/2000/svg">
<rect x="1" y="1" width="90" height="90" stroke="#55A2E7" stroke-opacity="0.6"/>
<path d="M41.4426 62.5175L41.7705 62.8414C41.8689 62.9385 41.8689 63.0681 41.7705 63.1653L41.4426 63.4892C41.3443 63.5864 41.2131 63.5864 41.1148 63.4892L40.7869 63.1653C40.6885 63.0681 40.6885 62.9385 40.7869 62.8414L41.1148 62.5175C41.2131 62.4203 41.3443 62.4203 41.4426 62.5175Z" fill="#364C9E"/>
<path d="M33.2132 62.5175L33.541 62.8414C33.6394 62.9385 33.6394 63.0681 33.541 63.1653L33.2132 63.4892C33.1148 63.5864 32.9836 63.5864 32.8853 63.4892L32.5574 63.1653C32.4591 63.0681 32.4591 62.9385 32.5574 62.8414L32.8853 62.5175C32.9836 62.4203 33.1148 62.4203 33.2132 62.5175Z" fill="#364C9E"/>
<path d="M23.4754 62.5175L23.8032 62.8414C23.9016 62.9385 23.9016 63.0681 23.8032 63.1653L23.4754 63.4892C23.377 63.5864 23.2458 63.5864 23.1475 63.4892L22.8196 63.1653C22.7213 63.0681 22.7213 62.9385 22.8196 62.8414L23.1475 62.5175C23.2458 62.4203 23.377 62.4203 23.4754 62.5175Z" fill="#364C9E"/>
<path d="M69.6067 67.1171L69.9346 67.441C70.0329 67.5382 70.0329 67.6677 69.9346 67.7649L69.6067 68.0888C69.5083 68.186 69.3772 68.186 69.2788 68.0888L68.951 67.7649C68.8526 67.6677 68.8526 67.5382 68.951 67.441L69.2788 67.1171C69.3772 67.0199 69.5083 67.0199 69.6067 67.1171Z" fill="#364C9E"/>
<path d="M64.1641 67.1171L64.4919 67.441C64.5903 67.5382 64.5903 67.6677 64.4919 67.7649L64.1641 68.0888C64.0657 68.186 63.9346 68.186 63.8362 68.0888L63.5083 67.7649C63.41 67.6677 63.41 67.5382 63.5083 67.441L63.8362 67.1171C63.9346 67.0199 64.0657 67.0199 64.1641 67.1171Z" fill="#364C9E"/>
<path d="M63.0821 67.1171L63.41 67.441C63.5084 67.5382 63.5084 67.6677 63.41 67.7649L63.0821 68.0888C62.9838 68.186 62.8526 68.186 62.7543 68.0888L62.4264 67.7649C62.328 67.6677 62.328 67.5382 62.4264 67.441L62.7543 67.1171C62.8198 67.0199 62.9838 67.0199 63.0821 67.1171ZM27.9346 67.1171L28.2625 67.441C28.3608 67.5382 28.3608 67.6677 28.2625 67.7649L27.9346 68.0888C27.8362 68.186 27.7051 68.186 27.6067 68.0888L27.2788 67.7649C27.1805 67.6677 27.1805 67.5382 27.2788 67.441L27.6067 67.1171C27.7051 67.0199 27.869 67.0199 27.9346 67.1171Z" fill="#364C9E"/>
<path d="M26.8525 67.1171L27.1804 67.441C27.2787 67.5381 27.2787 67.6677 27.1804 67.7649L26.8525 68.0888C26.7542 68.186 26.623 68.186 26.5246 68.0888L26.1968 67.7649C26.0984 67.6677 26.0984 67.5381 26.1968 67.441L26.5246 67.1171C26.5902 67.0199 26.7542 67.0199 26.8525 67.1171ZM26.5902 66.2749C26.2951 66.3073 26.0001 66.1777 25.8033 65.951C25.8361 66.4692 25.6722 66.9875 25.3443 67.4086C25.0165 67.8297 24.5246 68.0888 23.9673 68.0564H22.8853C22.4263 68.0564 21.9673 67.8621 21.6394 67.5058C21.3115 67.1494 21.1476 66.696 21.1804 66.2425V64.0723H21.8689V66.3397C21.8689 66.6312 22.0001 66.9227 22.2296 67.0847C22.4591 67.279 22.7542 67.3762 23.0492 67.3762H23.9345C24.2296 67.3762 24.5246 67.279 24.7214 67.0847C24.9509 66.8903 25.0492 66.6312 25.0492 66.3397V64.0723H25.7378V65.0764C25.7378 65.4003 26.0001 65.5623 26.5246 65.5623L26.5902 66.2749Z" fill="#364C9E"/>
<path d="M28.6558 65.1089C28.6558 65.4004 28.5574 65.6919 28.3935 65.8863C28.2295 66.113 27.9345 66.2426 27.6394 66.2426H26.4918L26.0984 65.53H27.4099C27.5738 65.5624 27.7049 65.4976 27.8361 65.4004C27.9345 65.2708 27.9672 65.1413 27.9345 64.9793V64.0076H28.6558V65.1089ZM32.5902 66.275H32.1312C32.1312 66.7608 31.9672 67.2143 31.6066 67.5382C31.2459 67.8621 30.7869 68.0565 30.2951 68.0565H29.2787V67.3439H30.164C30.459 67.3439 30.7869 67.2467 31.0164 67.0524C31.2459 66.858 31.3771 66.5665 31.3771 66.275C30.9181 66.3074 30.4918 66.2102 30.0656 66.0482C29.6722 65.7891 29.4754 65.368 29.5082 64.9145C29.5082 64.3315 29.6394 63.9104 29.9345 63.6836C30.1967 63.5217 30.4918 63.4569 30.7869 63.4893C31.2787 63.4569 31.7377 63.716 31.9345 64.2019C32.0656 64.6554 32.1312 65.1413 32.1312 65.6271H32.5902V66.275ZM31.4099 65.5624V64.8821C31.4099 64.6878 31.3771 64.5258 31.2787 64.3639C31.1804 64.2019 31.0164 64.1371 30.8197 64.1371C30.623 64.1047 30.459 64.2019 30.3607 64.3639C30.2951 64.5258 30.2623 64.7202 30.2623 64.9145C30.2295 65.1737 30.3935 65.4004 30.6558 65.4976C30.8853 65.5624 31.1476 65.5624 31.4099 65.5624Z" fill="#364C9E"/>
<path d="M34.5574 65.1089C34.5574 65.4004 34.459 65.6919 34.2623 65.8863C34.0656 66.113 33.8033 66.2426 33.5082 66.2426H32.3279V65.53C32.7541 65.5624 33.1476 65.53 33.5738 65.4976C33.7377 65.4328 33.8033 65.2384 33.8033 64.8497V64.0076H34.5246L34.5574 65.1089Z" fill="#364C9E"/>
<path d="M40.9182 66.2748C40.6887 66.2748 40.4592 66.2424 40.2297 66.1452C40.1641 66.1128 39.9018 65.8861 39.4756 65.4974C39.3758 65.7571 39.1949 65.9788 38.9591 66.1302C38.7233 66.2816 38.4449 66.3549 38.1641 66.3396C37.4428 66.372 36.8198 65.7889 36.8198 65.0763V64.9791C36.8198 64.5581 37.0821 64.1046 37.6395 63.5539L37.4428 63.3272L37.9346 62.8413L40.0657 65.0763C40.1641 65.2059 40.2952 65.3031 40.4264 65.4002C40.5903 65.465 40.7542 65.4974 40.9182 65.4974V66.2748ZM38.8854 65.0439C38.8854 64.9144 38.8526 64.7524 38.7542 64.6552L38.1641 64.1046C38.0002 64.2341 37.869 64.3637 37.7379 64.5257C37.6058 64.679 37.5357 64.8751 37.5411 65.0763C37.5411 65.2383 37.6067 65.4002 37.7379 65.5298C37.869 65.6594 38.0329 65.6918 38.1969 65.6918C38.3608 65.6918 38.5575 65.627 38.6887 65.5298C38.8198 65.3678 38.8854 65.2059 38.8854 65.0439Z" fill="#364C9E"/>
<path d="M42.8526 65.1089C42.8526 65.4004 42.7542 65.6919 42.5575 65.8863C42.3608 66.113 42.0985 66.2426 41.8034 66.2426H40.623V65.53C41.0493 65.5624 41.4427 65.53 41.8689 65.4976C42.0329 65.4328 42.0985 65.2384 42.0985 64.8497V64.0076H42.8198L42.8526 65.1089Z" fill="#364C9E"/>
<path d="M45.1147 66.2749C44.6557 66.3073 44.1967 66.2101 43.836 65.9186C43.6393 65.7242 43.5737 65.4651 43.5737 65.1736V61.8696H44.295V64.882C44.295 65.206 44.3606 65.4003 44.459 65.4975C44.6557 65.5623 44.8852 65.5947 45.1147 65.5947V66.2749Z" fill="#364C9E"/>
<path d="M48.0657 64.9468C48.0657 65.3031 47.9673 65.6594 47.7706 65.951C47.5411 66.2425 47.2132 66.4044 46.8525 66.372C46.5575 66.372 46.2624 66.2749 46.0657 66.1129C45.705 66.2425 45.3443 66.3073 44.9837 66.2749L44.8525 65.5623C45.246 65.5623 45.5083 65.5299 45.5738 65.4327C45.6066 65.2707 45.6394 65.0764 45.6066 64.882C45.6394 63.9103 46.0657 63.4244 46.8853 63.4244C47.246 63.4244 47.6066 63.5864 47.8034 63.8779C47.9673 64.2342 48.0657 64.5905 48.0657 64.9468ZM47.4427 64.9144C47.4427 64.3962 47.246 64.137 46.8198 64.137C46.3935 64.137 46.1968 64.3962 46.1968 64.9144C46.1968 65.4327 46.3935 65.6594 46.8198 65.6594C47.246 65.6594 47.4427 65.4003 47.4427 64.9144ZM50.3279 66.2749C49.8689 66.3073 49.4099 66.2101 49.0493 65.9186C48.8525 65.7242 48.787 65.4651 48.787 65.1736V61.8696H49.5083V64.882C49.5083 65.2059 49.5738 65.4003 49.6722 65.4975C49.8689 65.5623 50.0984 65.5946 50.3279 65.5946V66.2749Z" fill="#364C9E"/>
<path d="M55.6721 65.1412C55.6721 65.4327 55.6066 65.7242 55.4426 65.9834C55.2459 66.2425 54.9508 66.3721 54.6557 66.3397C54.2951 66.3073 53.9344 66.1453 53.7049 65.8538C53.5082 66.1453 53.1803 66.3073 52.8197 66.3397C52.4262 66.3073 52.0656 66.1129 51.8361 65.789C51.6066 66.0805 51.2787 66.2749 50.918 66.2749H50V65.5623H50.8525C51.1803 65.5623 51.3443 65.4003 51.3443 65.044V64.0723H52.0328V65.1088C52.0328 65.2707 52.0984 65.4327 52.2295 65.5299C52.3607 65.6271 52.5246 65.6918 52.6557 65.6918C52.9836 65.6918 53.1475 65.5299 53.1475 65.2384V64.0723H53.8361V65.1088C53.8361 65.2707 53.9016 65.4003 54.0328 65.5299C54.1639 65.6271 54.2951 65.6918 54.459 65.6918C54.7869 65.6918 54.9508 65.5299 54.9508 65.2384V64.0723H55.6393L55.6721 65.1412ZM62.6557 66.2749H62.3279C61.9672 66.2425 61.6393 66.0481 61.4098 65.789C61.3137 65.9502 61.1734 66.0812 61.0052 66.1672C60.837 66.2531 60.6477 66.2905 60.459 66.2749H58.1639V65.5623H60.4262C60.6885 65.5623 60.8197 65.4651 60.8197 65.3031C60.8197 65.206 60.7869 65.1088 60.7213 65.044L59.1148 63.3597L59.6066 62.8738L61.7377 65.1088C61.8361 65.2384 61.9672 65.3679 62.1311 65.4651C62.2986 65.5285 62.4764 65.5614 62.6557 65.5623V66.2749Z" fill="#364C9E"/>
<path d="M64.8525 65.1089C64.8525 65.4004 64.7542 65.6919 64.5902 65.8863C64.4263 66.113 64.1312 66.2426 63.8361 66.2426H62.2952V65.53H63.6066C63.7378 65.5624 63.9017 65.4976 64.0329 65.4004C64.1312 65.2708 64.164 65.1413 64.164 64.9793V64.0076H64.8853L64.8525 65.1089ZM68.8853 66.275C68.5902 66.3074 68.2952 66.1778 68.1312 65.9511C68.164 66.4693 68.0001 66.9876 67.6722 67.4087C67.3443 67.8298 66.8525 68.0889 66.328 68.0565H65.2788V67.3439H66.2624C66.5575 67.3439 66.8198 67.2467 67.0493 67.0524C67.2788 66.858 67.4099 66.5989 67.4099 66.3074V64.04H68.1312V65.0441C68.1312 65.368 68.3935 65.53 68.9181 65.53V66.275H68.8853Z" fill="#364C9E"/>
<path d="M70.8198 65.1089C70.8198 65.4004 70.7214 65.6919 70.5247 65.8863C70.328 66.113 70.0657 66.2426 69.7706 66.2426H68.8526L68.623 65.53C69.0493 65.5624 69.4427 65.53 69.869 65.4976C70.0329 65.4328 70.0985 65.2384 70.0985 64.8497V64.0076H70.8198V65.1089Z" fill="#364C9E"/>
<path d="M30.3848 55.5904L33.6766 52.3383L36.9454 55.5678L33.6536 58.8199L30.3848 55.5904ZM54.7428 55.5872L58.0346 52.3351L61.3034 55.5645L58.0116 58.8166L54.7428 55.5872ZM30.3871 49.1076L33.6789 45.8555L36.9477 49.0849L33.6559 52.337L30.3871 49.1076ZM55.0166 39.8761C48.4264 40.5563 43.3116 45.8685 42.9838 52.4116L48.8198 58.1772C49.1477 51.6342 54.2625 46.2896 60.8526 45.6093L55.0166 39.8761ZM37.5739 47.067C44.1641 46.3867 49.2789 41.0745 49.6067 34.5315L43.7379 28.7334C43.41 35.3089 37.5739 39.9732 31.0166 40.6211L37.5739 47.067V47.067Z" stroke="#364C9E" stroke-width="2" stroke-linejoin="round"/>
</svg>
