<svg width="92" height="92" viewBox="0 0 92 92" fill="none" xmlns="http://www.w3.org/2000/svg">
<path d="M91 1H1V91H91V1Z" stroke="#55A2E7" stroke-opacity="0.595597"/>
<path fill-rule="evenodd" clip-rule="evenodd" d="M43.9435 25.8228C43.6519 26.0357 42.9131 27.1285 43.0084 27.5387C43.0909 27.8918 43.9165 29.0448 44.2549 28.6793C44.6602 28.1939 44.9951 27.642 45.2476 27.0424C45.2995 26.7262 44.5031 26.0858 44.3011 25.8862C44.2201 25.8048 44.1717 25.75 44.1056 25.75C44.0636 25.75 44.0139 25.7719 43.9435 25.8228Z" fill="#5B7B39"/>
<path fill-rule="evenodd" clip-rule="evenodd" d="M46.221 28.3384C46.4215 28.6438 46.6768 28.9112 46.973 29.1268C46.6784 30.2 46.6298 30.4735 47.3223 31.3861C48.0465 31.8081 48.5779 32.1249 49.4123 31.7593C49.8843 31.6108 50.2182 31.1926 50.2568 30.7035C50.2637 30.5535 50.1342 29.8443 49.8457 30.037C49.6275 30.1818 49.5612 30.3966 49.2897 30.4781C49.1293 30.5284 48.9558 30.5063 48.8139 30.4187C48.6712 30.3311 48.574 30.1863 48.5486 30.0226C48.3234 28.4328 51.2463 28.0878 51.6535 30.3219C52.0483 32.4906 49.5211 33.2165 48.2624 34.3903C46.4347 36.0936 45.8925 38.9958 46.1748 41.38C46.2835 42.6688 47.1349 43.7787 48.3588 44.2289L48.3596 44.2228C49.7177 44.721 51.301 44.4871 52.6399 43.9996C56.8815 42.4548 62.6518 37.5668 64.2968 33.346C64.6415 32.4578 64.8852 30.3394 64.667 29.4299C64.5976 29.129 64.4317 28.8579 64.1942 28.6575C62.8068 27.4258 62.2176 30.0538 62.2299 30.9808C62.651 31.8614 63.2564 31.3701 63.9012 31.1476C64.532 30.9283 63.6837 32.7397 63.5271 32.9362C61.414 35.5779 58.1155 38.9158 55.1533 40.5657C53.9841 41.2535 52.6969 41.7213 51.3558 41.9475C50.7619 42.045 50.1589 42.0716 49.5581 42.0259C48.7768 41.93 47.8761 41.6474 47.4311 40.9549C46.3321 39.2525 47.3154 34.9418 49.4848 34.6516C50.5337 34.5099 51.2671 36.0311 50.4311 36.5765C50.3008 36.6595 50.155 36.7151 50.0023 36.741C49.7732 36.7487 49.4563 36.4881 49.2804 36.3609C48.6365 36.4615 48.7714 38.199 50.4226 38.0474C50.4828 39.1131 50.9771 40.1696 52.0545 40.5314C52.383 40.6419 53.1543 40.9191 53.445 40.6617C53.4951 40.2206 52.9375 39.986 52.71 39.6836C52.0622 38.8206 52.2118 38.2097 52.2211 37.2232C52.2303 36.1218 51.9596 35.7546 51.5054 34.8131C51.4499 34.6981 51.5208 34.743 51.5956 34.6585C51.8941 34.5907 52.1887 34.5076 52.4794 34.4109C53.2738 33.9935 52.8064 33.202 52.2766 32.8067L52.2465 32.7328C52.3105 32.2514 52.7555 31.8362 52.818 31.2573C52.9761 29.7841 52.154 28.1662 50.6733 27.7183C50.0655 27.5751 49.4409 27.5256 48.8193 27.5728C48.2856 27.3573 47.6493 27.1752 47.3362 26.6527C47.1797 26.3914 47.1226 26.0958 46.9444 25.8437L46.7856 25.75C45.8724 26.0128 45.8593 27.6589 46.221 28.3384Z" fill="#5B7B39"/>
<path fill-rule="evenodd" clip-rule="evenodd" d="M62.0141 37.7636C60.3056 40.262 57.5546 42.8997 55.1702 44.7694C54.3544 45.3816 53.488 45.9245 52.5818 46.3936C52.0158 46.6526 51.4333 46.8755 50.8387 47.0608C50.0559 47.319 49.237 47.4448 48.4144 47.432C46.6968 47.3522 45.6566 46.7935 45.3142 45.0104C45.05 43.6399 46.2332 41.4028 46.1353 40.9419C46.121 40.8689 46.0691 40.7657 45.9758 40.7718C45.7899 40.7838 45.5708 41.1934 45.5069 41.332C45.3782 41.6114 45.2856 41.9351 45.1817 42.2265C44.5525 43.7604 44.3538 45.4373 44.6067 47.0758C44.7708 48.5344 46.1745 49.5773 47.5496 49.7234C48.7824 49.8235 50.0213 49.6405 51.1729 49.1872C52.0708 48.8273 52.9416 48.4041 53.7808 47.9199C56.7245 46.0457 59.3159 43.664 61.4338 40.884C61.5641 40.7168 62.4575 39.5994 62.4785 39.5338C62.535 38.9872 62.48 38.436 62.3145 37.9126C62.2956 37.8524 62.2527 37.802 62.1955 37.7741C62.1639 37.7583 62.1278 37.75 62.0924 37.75C62.0661 37.75 62.0397 37.7545 62.0141 37.7636Z" fill="#5B7B39"/>
<path fill-rule="evenodd" clip-rule="evenodd" d="M46.9967 49.8205C46.5898 50.3066 46.2555 50.8584 46.0023 51.4573C45.9504 51.7735 46.7477 52.4123 46.949 52.6143C47.082 52.7466 47.1261 52.8084 47.3061 52.6777C47.5984 52.4647 48.3368 51.3704 48.2414 50.9618C48.171 50.6549 47.5422 49.75 47.156 49.75C47.0956 49.75 47.0415 49.7719 46.9967 49.8205Z" fill="#5B7B39"/>
<path fill-rule="evenodd" clip-rule="evenodd" d="M38.611 34.5011C34.3681 36.0449 28.598 40.9321 26.9536 45.153C26.608 46.041 26.3643 48.159 26.5834 49.0669C26.6536 49.3685 26.8186 49.6396 27.0562 49.8407C28.4445 51.0714 29.0338 48.4446 29.0207 47.5178C28.5995 46.6373 27.9948 47.1278 27.3493 47.351C26.7176 47.5703 27.5668 45.7577 27.7241 45.5627C29.8359 42.9207 33.1356 39.5841 36.0951 37.9345C37.2651 37.246 38.5532 36.7776 39.8937 36.5521C40.4884 36.4547 41.0915 36.428 41.6916 36.4745C42.4729 36.5704 43.3746 36.8522 43.8204 37.5453C44.9187 39.2475 43.9353 43.5566 41.7649 43.8476C40.7175 43.9885 39.9824 42.4675 40.82 41.923C40.9496 41.84 41.0954 41.7844 41.2473 41.7593C41.4756 41.7509 41.795 42.0113 41.9693 42.1378C42.6133 42.038 42.4791 40.3008 40.8285 40.4516C40.7676 39.3868 40.2724 38.3297 39.1949 37.968C38.8663 37.8575 38.095 37.5803 37.8043 37.8385C37.7557 38.2787 38.3133 38.514 38.5393 38.8172C39.1872 39.6793 39.0391 40.2893 39.0299 41.2787C39.0183 42.38 39.2898 42.7471 39.7441 43.6884C39.8004 43.8034 39.7302 43.7585 39.6538 43.8438C39.3553 43.9108 39.0599 43.9938 38.7699 44.0913C37.9747 44.5079 38.4421 45.3 38.9735 45.6952L39.0036 45.7684C38.9388 46.2497 38.4938 46.6648 38.4313 47.2443C38.2732 48.7173 39.0939 50.3342 40.5771 50.782C41.1833 50.9244 41.8096 50.9739 42.4321 50.9275C42.9643 51.143 43.6014 51.325 43.9137 51.8483C44.0711 52.1087 44.1282 52.405 44.3055 52.6563L44.4644 52.75C45.3769 52.4872 45.3908 50.8414 45.029 50.1628C44.8285 49.8567 44.574 49.5893 44.277 49.3738C44.5709 48.3007 44.6202 48.028 43.9276 47.1149C43.2034 46.6922 42.6727 46.3761 41.8374 46.7432C41.3654 46.891 41.0314 47.3083 40.9936 47.798C40.9874 47.9473 41.1162 48.6571 41.4047 48.4644C41.6222 48.3197 41.6893 48.105 41.9616 48.0235C42.1212 47.9732 42.294 47.9953 42.4367 48.0829C42.5794 48.1697 42.6758 48.3144 42.702 48.4789C42.9272 50.0676 40.004 50.4134 39.5968 48.1788C39.2011 46.0113 41.7294 45.2855 42.9889 44.1119C44.8154 42.4089 45.3576 39.5079 45.0776 37.1234C44.9666 35.8347 44.1166 34.7258 42.8925 34.2757V34.2765C42.3634 34.083 41.7996 34 41.2304 34C40.3372 34 39.4286 34.2033 38.611 34.5011Z" fill="#5B7B39"/>
<path fill-rule="evenodd" clip-rule="evenodd" d="M40.8278 29.3124C39.9292 29.6723 39.0576 30.0969 38.2192 30.5803C35.2757 32.4543 32.6851 34.8357 30.5665 37.6155C30.437 37.7826 29.5429 38.8999 29.5226 38.9662C29.4639 39.5113 29.5211 40.0639 29.6859 40.5872C29.7054 40.6474 29.7476 40.6971 29.804 40.725C29.8612 40.7536 29.9267 40.7581 29.9854 40.7363C31.6931 38.2366 34.4455 35.6007 36.8298 33.7305C37.6449 33.1191 38.5104 32.5755 39.4151 32.1072C39.9811 31.8467 40.5644 31.6246 41.1597 31.4401C41.9417 31.1811 42.762 31.0546 43.5862 31.0674C45.3022 31.148 46.3438 31.7067 46.6855 33.4895C46.9512 34.8606 45.7673 37.0967 45.8644 37.5575C45.8802 37.6313 45.9314 37.7337 46.0247 37.7277C46.2098 37.7156 46.4296 37.3053 46.4928 37.1667C46.6223 36.8882 46.7149 36.5637 46.8187 36.273C47.4479 34.7401 47.6466 33.0626 47.393 31.4243C47.2289 29.9659 45.8252 28.9232 44.4517 28.7771C44.2319 28.759 44.0129 28.75 43.7939 28.75C42.7809 28.75 41.7746 28.9397 40.8278 29.3124Z" fill="#5B7B39"/>
<path fill-rule="evenodd" clip-rule="evenodd" d="M27.5348 62.1855C27.3978 62.3612 27.3013 62.5552 27.25 62.7593C27.2569 62.8106 27.2944 62.8557 27.3511 62.8798L27.6237 63.0275C27.7653 63.12 27.9223 63.1948 28.0907 63.25C28.1887 63.2494 28.3235 63.146 28.4943 62.9394C28.6367 62.791 28.7255 62.6128 28.75 62.4252C28.6895 62.0708 28.3442 61.7931 27.9085 61.75C27.8488 61.75 27.7247 61.8945 27.5348 62.1855Z" fill="#5B7B39"/>
<path fill-rule="evenodd" clip-rule="evenodd" d="M28.2502 52.8396C28.0877 53.0919 27.9689 53.2807 27.8946 53.4065C27.8212 53.5323 27.7436 53.6537 27.6619 53.7684C27.6025 53.8291 27.5604 53.9016 27.539 53.9794V54.1385C27.539 54.2332 27.5414 54.3257 27.5456 54.416C27.5497 54.5026 27.5423 54.59 27.5208 54.6751C27.5018 54.7528 27.4697 54.8283 27.4234 54.8964C27.3682 54.9689 27.2955 55.0281 27.2081 55.0696C26.765 55.2864 26.3384 55.5322 25.9341 55.8038C25.6162 56.0185 25.3194 56.2343 25.0564 56.5164C24.9186 56.6641 24.7986 56.8705 24.6715 57.0173C24.9544 57.1756 25.13 57.2646 25.1982 57.2843C25.2258 57.1154 25.2602 56.9015 25.3247 56.7661C25.3891 56.6306 25.7038 56.424 25.9415 56.2886C26.1882 56.1442 26.444 56.0118 26.7064 55.8919C26.9688 55.7742 27.1891 55.6683 27.3682 55.5751C27.5802 55.4678 27.7609 55.3183 27.8946 55.1384C28.044 54.946 28.1512 54.7313 28.2148 54.5049C28.2461 54.3753 28.2717 54.2488 28.2874 54.1259C28.3031 54.0038 28.3154 53.8787 28.3237 53.7529C28.3319 53.6263 28.3385 53.4924 28.3418 53.3473C28.3468 53.2037 28.3567 53.0379 28.3724 52.8507C28.3798 52.7833 28.3724 52.75 28.3501 52.75C28.346 52.75 28.3418 52.7507 28.3369 52.753C28.2973 52.7729 28.2676 52.8033 28.2502 52.8396Z" fill="#5B7B39"/>
<path fill-rule="evenodd" clip-rule="evenodd" d="M24.781 56.8497C24.6772 56.9968 24.5994 57.1124 24.5478 57.1967C24.4703 57.3231 24.3995 57.4603 24.3437 57.5892C24.291 57.7049 24.2608 57.828 24.2515 57.9553C24.2414 58.1137 24.2755 58.2713 24.3491 58.4108C24.4243 58.5479 24.5258 58.6677 24.6483 58.7613C24.7847 58.868 24.9343 58.9542 25.0909 59.0198C25.2621 59.0929 25.4396 59.1487 25.6218 59.1881C26.3991 59.3629 27.1904 59.459 27.9864 59.4754C28.7808 59.4918 29.5845 59.5 30.3991 59.5C32.1088 59.5 33.7969 59.4196 35.457 59.2595C37.1187 59.1003 38.7858 58.8795 40.4599 58.6004C41.8945 58.3607 43.0725 58.1342 43.994 57.9224C44.9148 57.7115 45.6201 57.5252 46.1115 57.3651C46.3106 57.3175 46.4966 57.2256 46.6579 57.0951C46.7454 57.004 46.7702 56.9219 46.733 56.8497C46.6679 56.7602 46.5734 56.7019 46.4672 56.688C46.3122 56.6502 46.1525 56.6412 45.996 56.6576C44.8977 56.77 43.8181 56.9079 42.7548 57.0713C41.6922 57.2354 40.6157 57.3733 39.526 57.485C38.1526 57.6294 36.7885 57.7287 35.4337 57.7854C34.0782 57.8412 32.6723 57.8576 31.2144 57.833C29.4783 57.8477 27.743 57.6959 26.0333 57.3774C25.9798 57.3618 25.9108 57.3421 25.8271 57.3183C25.7419 57.2945 25.6597 57.2658 25.5791 57.2305C25.5016 57.196 25.4326 57.1476 25.3722 57.086C25.3148 57.0294 25.2877 56.9482 25.2962 56.8661C25.3102 56.7635 25.2993 56.6576 25.2637 56.5599C25.2428 56.5205 25.2063 56.5 25.1529 56.5C25.125 56.5 25.0924 56.5057 25.056 56.5164C24.9632 56.609 24.8733 56.729 24.781 56.8497Z" fill="#5B7B39"/>
<path fill-rule="evenodd" clip-rule="evenodd" d="M30.2302 60.2516C30.2069 60.265 30.1826 60.3211 30.1577 60.4207C30.0909 60.6902 30.0246 60.9581 29.961 61.2253C29.8967 61.4916 29.8367 61.7603 29.7802 62.029C29.7616 62.1041 29.7476 62.1815 29.7383 62.2606C29.73 62.3404 29.7259 62.421 29.7259 62.5024C29.7368 63.0533 29.7238 63.6049 29.6881 64.1534C29.6518 64.7003 29.6006 65.2385 29.5343 65.7704C29.5229 65.87 29.5136 65.964 29.5063 66.0525C29.4981 66.1118 29.4981 66.1727 29.5063 66.2319C29.5136 66.262 29.5296 66.2549 29.556 66.2082C29.6042 66.1094 29.6477 66.0051 29.687 65.8968C29.7569 65.6866 29.8201 65.4717 29.875 65.2512C29.9289 65.0354 29.9817 64.8165 30.0329 64.5928C30.0888 64.3462 30.1282 64.0902 30.1484 63.8302C30.1686 63.5686 30.1836 63.3078 30.1945 63.0462C30.2048 62.6067 30.2085 62.176 30.2059 61.7524C30.2028 61.3304 30.2147 60.8989 30.2406 60.4602C30.2545 60.3259 30.2535 60.25 30.2354 60.25C30.2338 60.25 30.2323 60.2508 30.2302 60.2516Z" fill="#5B7B39"/>
<path fill-rule="evenodd" clip-rule="evenodd" d="M32.4326 62.5C32.3763 62.504 32.3177 62.583 32.2576 62.7364C32.1359 63.0565 32.0339 63.3845 31.9525 63.7181C31.8688 64.0612 31.7387 64.3916 31.5683 64.6999C31.4252 64.9631 31.2555 65.2105 31.0607 65.4358C30.8409 65.6903 30.5951 65.9188 30.3265 66.118C30.131 66.2713 29.9689 66.4041 29.8411 66.5156C29.7117 66.6278 29.6174 66.7148 29.558 66.7757C29.5162 66.8183 29.4956 66.8776 29.5009 66.9369C29.5086 66.9915 29.5649 67.0104 29.6706 66.9946C30.0899 66.899 30.4992 66.7591 30.8911 66.5796C31.0356 66.518 31.1726 66.4381 31.2981 66.3425C31.4161 66.2492 31.5165 66.1362 31.5972 66.0073C31.693 65.8556 31.7729 65.6927 31.8353 65.5228C31.9061 65.3346 31.9791 65.1133 32.0545 64.8596C32.1907 64.3434 32.2941 63.9126 32.3664 63.5656C32.4235 63.3031 32.4669 63.0375 32.4965 62.7696L32.4958 62.7711C32.5095 62.5901 32.4912 62.5 32.4364 62.5C32.4357 62.5 32.4341 62.5 32.4326 62.5Z" fill="#5B7B39"/>
<path fill-rule="evenodd" clip-rule="evenodd" d="M33.9439 59.5075C33.9097 59.5322 33.8805 59.5615 33.8614 59.5945L33.7718 59.7257C33.6531 59.9011 33.5485 60.0675 33.4589 60.2234C33.3684 60.3809 33.2939 60.5181 33.2336 60.635C33.136 60.8329 33.0666 61.0391 33.0253 61.2483C32.8643 62.1006 32.7366 62.8098 32.643 63.3758C32.5595 63.8316 32.5112 64.2904 32.5001 64.75C32.5937 64.7403 32.6782 64.7028 32.7325 64.6458C32.8301 64.5618 32.9166 64.4704 32.9871 64.3722C33.0786 64.247 33.1561 64.1173 33.2185 63.9831C33.2869 63.8414 33.3372 63.6945 33.3684 63.5453C33.3996 62.9628 33.465 62.3413 33.5656 61.6808C33.6652 61.0203 33.799 60.3689 33.968 59.7264C33.9942 59.6627 34.0032 59.596 33.9992 59.5292C33.9912 59.5097 33.9801 59.5 33.966 59.5C33.96 59.5 33.9519 59.5022 33.9439 59.5075Z" fill="#5B7B39"/>
<path fill-rule="evenodd" clip-rule="evenodd" d="M35.036 59.9381C34.9021 60.1122 34.8057 60.3042 34.7522 60.5064L34.7499 60.507C34.7575 60.5606 34.795 60.6091 34.8524 60.6371C34.9426 60.6862 35.0337 60.7328 35.1247 60.7768C35.2654 60.8699 35.423 60.9445 35.5905 61C35.69 61 35.8246 60.898 35.9936 60.692C36.1367 60.5453 36.2262 60.368 36.2499 60.1805C36.1894 59.8227 35.8445 59.5434 35.4092 59.5C35.3496 59.5006 35.2257 59.646 35.036 59.9381Z" fill="#5B7B39"/>
<path fill-rule="evenodd" clip-rule="evenodd" d="M34.8084 62.1025C34.7104 62.2562 34.6276 62.4179 34.5607 62.5866L34.442 62.8397C34.403 62.9241 34.3623 63.0171 34.3241 63.1157C34.2851 63.2056 34.2755 63.3033 34.2938 63.398C34.3121 63.4823 34.3528 63.5604 34.4125 63.6227C34.4715 63.6842 34.5479 63.7283 34.6316 63.7496C34.7248 63.7725 34.822 63.7725 34.916 63.7496C35.0211 63.7315 35.1223 63.6921 35.2115 63.6345C35.2521 63.6045 35.3079 63.599 35.3525 63.6227C35.511 63.6842 35.5875 63.7685 35.5843 63.8758C35.5755 63.9956 35.5277 64.1084 35.4481 64.1991C35.2935 64.3662 35.092 64.4845 34.8682 64.5365C34.6451 64.5996 34.4125 64.6217 34.1823 64.5996C34.0429 64.5878 33.9059 64.5594 33.7744 64.5153C33.6534 64.475 33.5458 64.4017 33.4654 64.3047C33.3746 64.188 33.3076 64.0548 33.271 63.9128C33.2184 63.7134 33.1937 63.5083 33.2001 63.3025L32.5015 64.5697C32.4927 64.8456 32.5262 65.1216 32.6027 65.3873C32.6544 65.5592 32.7413 65.7201 32.856 65.8596C32.9755 66.0008 33.13 66.1096 33.3068 66.1742C33.4717 66.231 33.6454 66.257 33.8206 66.2484C33.9967 66.2405 34.1711 66.2034 34.3352 66.1388C34.4977 66.0757 34.6499 65.9882 34.7853 65.8801C35.1661 65.5781 35.4839 65.2068 35.7205 64.7857C35.9595 64.3702 36.1268 63.9184 36.2176 63.45C36.2558 63.2355 36.2614 63.0155 36.2287 62.7995C36.1937 62.5716 36.1093 62.354 35.981 62.16C35.8615 61.9416 35.6448 61.7894 35.3947 61.7516C35.3812 61.7508 35.3676 61.75 35.3541 61.75C35.1175 61.75 34.9024 61.888 34.8084 62.1025Z" fill="#5B7B39"/>
<path fill-rule="evenodd" clip-rule="evenodd" d="M43.4132 67.3897C43.2928 67.5671 43.1792 67.7494 43.0733 67.9368C42.9765 67.7653 42.8454 67.6195 42.6884 67.5105C42.5702 67.3989 42.4254 67.3231 42.2699 67.2914C42.2166 67.2914 42.0756 67.4963 41.8454 67.906C41.7013 68.1267 41.5855 68.3657 41.5001 68.6196C41.5047 68.6538 41.6335 68.7712 41.885 68.9702C41.9605 69.0268 42.0314 69.0876 42.1 69.1526C42.1594 69.2034 42.2295 69.2375 42.3042 69.25C42.4696 69.25 42.709 68.9619 43.0177 68.3865C43.1815 68.5031 43.3363 68.633 43.4818 68.7754C43.6099 68.9053 43.7044 68.9702 43.7646 68.9702C43.8545 68.9702 43.9986 68.8328 44.1945 68.5563C44.3667 68.3607 44.4734 68.1075 44.5001 67.8385C44.4727 67.6154 44.3629 67.413 44.1945 67.2798C44.068 67.1266 43.8957 67.0275 43.7082 67C43.6701 67 43.5718 67.1299 43.4132 67.3897Z" fill="#5B7B39"/>
<path fill-rule="evenodd" clip-rule="evenodd" d="M41.4547 58.7561C41.408 58.8181 41.3718 58.8854 41.3468 58.9573C41.2365 59.2412 41.1053 59.61 40.9547 60.0637C40.9346 60.1241 40.9201 60.1853 40.9105 60.2481C40.9129 60.3131 40.9314 60.3766 40.9644 60.4325C40.9845 60.4852 41.0111 60.5365 41.0425 60.5839C41.0779 60.6398 41.1157 60.7048 41.1552 60.779C41.3315 61.0193 41.4466 61.2947 41.4909 61.5832C41.5038 61.7079 41.4869 61.8341 41.4434 61.9527C41.3951 62.1011 41.3243 62.284 41.2277 62.4998C41.1399 62.6918 41.0538 62.8838 40.9708 63.0736C40.8871 63.2633 40.7977 63.4485 40.7019 63.6275C40.6222 63.7836 40.5514 63.9382 40.4934 64.0904C40.4347 64.2297 40.4049 64.3781 40.4024 64.5265C40.4033 64.665 40.4403 64.8012 40.5103 64.9228C40.6037 65.0705 40.7358 65.1937 40.8927 65.2801C40.9757 65.3192 41.0546 65.3628 41.1319 65.4094C41.2124 65.4576 41.2961 65.5074 41.383 65.5602C41.5102 65.6344 41.5803 65.7109 41.5932 65.7889C41.6012 65.8937 41.5859 65.9978 41.5489 66.0965C41.4788 66.339 41.3444 66.5609 41.156 66.7392C40.962 66.9236 40.7382 67.0781 40.4934 67.1975C40.235 67.323 39.9613 67.4194 39.6795 67.4844C39.4033 67.5494 39.1208 67.5869 38.8358 67.5953C38.4727 67.6229 38.1088 67.5609 37.7779 67.4171C37.5154 67.2939 37.2981 67.0988 37.1564 66.8585C37.0106 66.5976 36.9326 66.3084 36.9285 66.0146C36.9205 65.6673 36.9712 65.3215 37.0783 64.9902C37.1934 64.5801 37.3415 64.1784 37.5211 63.789C37.7038 63.3903 37.8753 63.0231 38.0355 62.6887C38.1144 62.525 38.1386 62.4225 38.1064 62.3812C38.075 62.3399 38.0387 62.349 37.9993 62.4095C37.8359 62.6382 37.6885 62.8777 37.5565 63.1241C37.422 63.3773 37.2908 63.6306 37.1636 63.8838C37.0292 64.144 36.8987 64.4163 36.7756 64.6994C36.6524 64.9817 36.5461 65.271 36.4584 65.5648C36.3706 65.8586 36.3094 66.1569 36.2732 66.4592C36.237 66.7591 36.2434 67.0621 36.2909 67.3604C36.3392 67.8241 36.5445 68.2617 36.877 68.6068C37.1701 68.8991 37.5484 69.1026 37.9647 69.1929C38.3922 69.2816 38.8374 69.2671 39.256 69.1485C39.7061 69.0276 40.1158 68.8057 40.4524 68.5004C40.6883 68.2855 40.9 68.0498 41.086 67.7958C41.284 67.5288 41.4603 67.2464 41.6125 66.9527C41.7622 66.6611 41.8862 66.3582 41.9828 66.0468C42.0754 65.7537 42.135 65.4531 42.1615 65.1478C42.1962 64.8808 42.1841 64.6114 42.1261 64.349C42.0343 64.082 41.8258 63.8639 41.5521 63.7507C41.3685 63.6543 41.2776 63.5678 41.2776 63.4936C41.2888 63.3781 41.3202 63.2641 41.3726 63.1585C41.6036 62.6222 41.7968 62.147 41.953 61.7339C42.0955 61.3712 42.1897 60.994 42.2332 60.6107C42.2718 60.3016 42.2437 59.9872 42.1503 59.6888C42.0657 59.3827 41.8967 59.1035 41.66 58.8778C41.5682 58.7928 41.5054 58.75 41.4724 58.75C41.4652 58.75 41.4587 58.7523 41.4547 58.7561Z" fill="#5B7B39"/>
<path fill-rule="evenodd" clip-rule="evenodd" d="M44.4437 59.5075C44.4095 59.5322 44.3814 59.5615 44.3613 59.5945L44.2717 59.7257C44.153 59.9011 44.0484 60.0675 43.9588 60.2234C43.8683 60.3809 43.7938 60.5181 43.7345 60.635C43.6359 60.8329 43.5664 61.0391 43.5252 61.2483C43.3652 62.1006 43.2374 62.8098 43.1439 63.3758C43.0594 63.8316 43.0111 64.2904 43 64.75C43.0936 64.7403 43.1791 64.7028 43.2324 64.6458C43.331 64.5618 43.4165 64.4704 43.487 64.3722C43.5785 64.247 43.656 64.1173 43.7184 63.9831C43.7868 63.8414 43.8381 63.6945 43.8683 63.5453L43.8713 63.5475C43.9005 62.9635 43.9659 62.3413 44.0665 61.6808C44.1651 61.0203 44.2999 60.3689 44.4679 59.7264C44.4941 59.6627 44.5031 59.596 44.4991 59.5292C44.491 59.5097 44.48 59.5 44.4659 59.5C44.4598 59.5 44.4518 59.5022 44.4437 59.5075Z" fill="#5B7B39"/>
<path fill-rule="evenodd" clip-rule="evenodd" d="M43.0043 64.4996C42.9969 64.6722 42.9991 64.8441 43.0101 65.0167C43.0197 65.2111 43.0527 65.4039 43.1077 65.5898C43.1583 65.764 43.2456 65.9226 43.3638 66.0556C43.49 66.1885 43.6646 66.2585 43.8436 66.2492C44.0226 66.2515 44.1979 66.2002 44.3498 66.1014C44.5017 65.9996 44.6345 65.872 44.7423 65.7204C44.8568 65.5618 44.9521 65.3884 45.0262 65.2041C45.1003 65.019 45.1649 64.8293 45.217 64.6364C45.2375 64.5525 45.2478 64.4669 45.25 64.3806C45.2493 64.3013 45.1869 64.2539 45.0644 64.2383C45.0064 64.2313 44.9433 64.2259 44.8788 64.2212C44.8164 64.2181 44.7548 64.2088 44.6939 64.1932C44.5926 64.1722 44.5259 64.0727 44.5413 63.9662C44.4261 63.9428 44.3073 63.9607 44.2031 64.0167C44.0901 64.0781 43.9976 64.1753 43.9412 64.2943C43.8612 64.4382 43.793 64.4312 43.7343 64.2718C43.658 63.9374 43.6279 63.5937 43.647 63.25L43.0043 64.4996Z" fill="#5B7B39"/>
<path fill-rule="evenodd" clip-rule="evenodd" d="M44.785 58.438C44.6486 58.6113 44.5529 58.8039 44.5 59.0053C44.5069 59.0589 44.5437 59.1079 44.6004 59.1366C44.6915 59.1857 44.7819 59.2329 44.8739 59.2762C45.0148 59.3687 45.1719 59.4445 45.3396 59.5C45.4385 59.5 45.5725 59.3974 45.7441 59.1921C45.8874 59.0455 45.9763 58.8676 46 58.6802C45.9395 58.3226 45.594 58.0433 45.1573 58C45.0983 58 44.9734 58.146 44.785 58.438Z" fill="#5B7B39"/>
<path fill-rule="evenodd" clip-rule="evenodd" d="M44.4258 63.6209C44.0938 63.9287 43.8627 64.2898 43.7499 64.6749L44.4922 64.3856C44.5168 64.2693 44.5887 64.1612 44.696 64.0757C44.7933 64.0135 44.918 63.9813 45.0481 63.9854C45.1081 63.9868 45.17 63.9937 45.2291 64.006C45.2973 64.019 45.6123 64.0821 45.6905 64.0986C45.7669 64.1157 46.0439 64.1485 46.0994 64.1499C46.1449 64.1499 46.0863 63.2198 45.9999 63.1589C45.8853 63.1254 45.4062 63.1025 45.0481 63.246C44.8061 63.3363 44.5941 63.4642 44.4258 63.6209Z" fill="#5B7B39"/>
<path fill-rule="evenodd" clip-rule="evenodd" d="M48.6636 65.1397C48.5424 65.3171 48.4289 65.5003 48.3229 65.6868C48.2261 65.5153 48.095 65.3695 47.938 65.2605C47.8199 65.1489 47.6751 65.0731 47.5196 65.0423C47.4662 65.0423 47.3252 65.2463 47.095 65.656C46.951 65.8767 46.8344 66.1165 46.7498 66.3696C46.7498 66.4021 46.8778 66.5187 47.1354 66.7202C47.2109 66.7768 47.2818 66.8376 47.3504 66.9026C47.4098 66.9534 47.4799 66.9867 47.5539 67C47.72 67 47.9586 66.7119 48.268 66.1365C48.4312 66.2531 48.5866 66.383 48.7322 66.5254C48.8595 66.6553 48.9533 66.7202 49.015 66.7202C49.1042 66.7202 49.249 66.5828 49.4449 66.3063C49.6171 66.1107 49.7238 65.8575 49.7498 65.5894C49.7231 65.3654 49.6133 65.163 49.4449 65.0298C49.3184 64.8766 49.1453 64.7775 48.9578 64.75C48.9197 64.75 48.8222 64.8799 48.6636 65.1397Z" fill="#5B7B39"/>
<path fill-rule="evenodd" clip-rule="evenodd" d="M47.2195 62.4016C47.2044 62.4227 47.178 62.4621 47.1411 62.5183C47.1049 62.576 47.0619 62.6366 47.0122 62.7001C46.9639 62.7621 46.9089 62.8278 46.8494 62.895C46.7928 62.9599 46.728 63.019 46.6587 63.0709C46.5803 63.1504 46.4793 63.2059 46.3677 63.227C46.2411 63.2322 46.116 63.2081 45.9999 63.1584V64.1182C46.1031 64.1598 46.2207 64.1598 46.3248 64.1182C46.4258 64.0722 46.5162 64.0087 46.5931 63.9306C46.6783 63.846 46.7544 63.7547 46.8222 63.6577C46.8931 63.5577 46.9587 63.4694 47.019 63.3913C47.1004 63.2847 47.1592 63.2365 47.1923 63.2467C47.2549 63.273 47.3129 63.3081 47.3657 63.3482C47.6009 63.5277 47.8745 63.6547 48.167 63.7212C48.5084 63.8087 48.8567 63.8693 49.2087 63.9029C49.5712 63.9379 49.8398 63.9798 50.2108 63.9994C50.5818 64.019 51.032 63.9994 51.2499 63.9994C51.3192 63.9067 51.2499 62.5614 51.2499 62.4378C50.7954 62.4371 50.1727 62.3731 49.722 62.3162C49.2682 62.2614 48.8227 62.1534 48.3954 61.9972C48.2627 61.9323 48.1165 61.8994 47.9702 61.8994C47.8858 61.8994 47.8006 61.9104 47.7177 61.933C47.5059 62.0366 47.331 62.2001 47.2195 62.4016Z" fill="#5B7B39"/>
<path fill-rule="evenodd" clip-rule="evenodd" d="M62.8197 58.0698C62.6166 58.1521 62.4187 58.2488 62.2291 58.3565C62.0447 58.4635 61.858 58.577 61.6736 58.6963C61.0492 59.0936 60.4391 59.4879 59.8417 59.8816C59.2315 60.2825 58.5974 60.6492 57.943 60.9817C57.4678 61.2218 56.9768 61.4423 56.4686 61.6438C55.9604 61.8454 55.4371 62.0105 54.9042 62.1386C54.312 62.2783 53.7086 62.3678 53.1 62.4042C52.4988 62.4398 51.8826 62.4507 51.25 62.4384V63.9998C53.1209 64.01 54.9687 63.6069 56.65 62.8211C57.0525 62.6363 57.4438 62.4318 57.8253 62.2099C58.2083 61.9865 58.5876 61.7544 58.9624 61.5136C59.3372 61.2728 59.706 61.0261 60.0695 60.7729C60.4338 60.5204 60.7974 60.2738 61.1609 60.0322C61.4728 59.827 61.7284 59.6604 61.9292 59.5331C62.0717 59.4363 62.2253 59.3541 62.3865 59.2886C62.4502 59.2653 62.5117 59.2347 62.5701 59.1984C62.6234 59.1613 62.6706 59.1161 62.7088 59.0652C62.8003 58.9553 62.8812 58.8382 62.9524 58.7152C63.0266 58.5872 63.0978 58.4635 63.1645 58.3427C63.2605 58.1863 63.2762 58.0829 63.2088 58.0313C63.1818 58.0102 63.1451 58 63.0978 58C63.0274 58 62.9344 58.0233 62.8197 58.0698Z" fill="#5B7B39"/>
<path fill-rule="evenodd" clip-rule="evenodd" d="M59.2634 61.9184C59.1699 62.1103 59.0818 62.2991 59.0018 62.4834C58.9225 62.6639 58.8528 62.8482 58.7904 63.0378C58.7701 63.094 58.7538 63.1425 58.7396 63.1751C58.7281 63.2009 58.7226 63.2282 58.7247 63.2563C58.7308 63.2828 58.7437 63.3056 58.7613 63.3238C58.7816 63.345 58.8155 63.3784 58.8622 63.4231C59.0262 63.5657 59.1726 63.7333 59.2952 63.9214C59.4009 64.0701 59.4592 64.2529 59.4612 64.4425C59.4341 64.6268 59.3508 64.7944 59.2254 64.9188C59.056 65.1107 58.8846 65.2904 58.7111 65.4558C58.5363 65.6219 58.3513 65.8009 58.1568 65.9927C58.0999 66.039 58.0505 66.0951 58.0098 66.1588C57.9935 66.196 57.9969 66.2218 58.0206 66.2362C58.0593 66.2521 58.1013 66.2544 58.1406 66.2423C58.2056 66.2286 58.268 66.2081 58.3276 66.1808C58.5627 66.0777 58.7701 65.9738 58.9517 65.8706C59.1211 65.7751 59.283 65.6643 59.4355 65.5384C59.5344 65.4588 59.6185 65.3564 59.6815 65.2389C59.7458 65.1213 59.8041 64.9992 59.8583 64.874C59.9606 64.6321 60.0514 64.3833 60.1287 64.1308C60.208 63.8759 60.2493 63.6082 60.2493 63.3382C60.2561 63.0614 60.1856 62.7883 60.0481 62.557C59.9024 62.3241 59.7377 62.1065 59.5548 61.907C59.506 61.8471 59.4504 61.7955 59.3894 61.7523C59.386 61.7508 59.3826 61.75 59.3793 61.75C59.3501 61.75 59.3115 61.8061 59.2634 61.9184Z" fill="#5B7B39"/>
<path fill-rule="evenodd" clip-rule="evenodd" d="M62.4438 59.5075C62.4096 59.5322 62.3814 59.5615 62.3623 59.5945L62.2728 59.7257C62.153 59.9011 62.0474 60.0675 61.9578 60.2234C61.8683 60.3809 61.7938 60.5181 61.7345 60.635C61.6359 60.8329 61.5665 61.0391 61.5242 61.2483C61.3652 62.1006 61.2374 62.8098 61.1429 63.3758C61.0594 63.8316 61.0111 64.2904 61 64.75C61.0946 64.7403 61.1781 64.7028 61.2324 64.6458C61.331 64.5618 61.4155 64.4704 61.486 64.3722C61.5775 64.247 61.656 64.1173 61.7184 63.9831C61.7868 63.8414 61.8381 63.6945 61.8673 63.5453C61.9005 62.9628 61.9659 62.3413 62.0655 61.6808C62.1651 61.0203 62.2999 60.3689 62.468 59.7264C62.4931 59.6627 62.5032 59.596 62.4991 59.5292C62.4911 59.5097 62.48 59.5 62.4659 59.5C62.4589 59.5 62.4519 59.5022 62.4438 59.5075Z" fill="#5B7B39"/>
<path fill-rule="evenodd" clip-rule="evenodd" d="M62.9126 68.8889C62.7922 69.0671 62.6795 69.2503 62.5735 69.4368C62.4768 69.2653 62.3442 69.1195 62.1887 69.0113C62.0691 68.8989 61.9251 68.8223 61.7696 68.7914C61.717 68.7914 61.5753 68.9963 61.3452 69.406C61.2012 69.6267 61.0846 69.8665 61 70.1196C61 70.1521 61.128 70.2687 61.3848 70.4702C61.4595 70.5268 61.5319 70.5868 61.5997 70.6526C61.6584 70.7034 61.7292 70.7375 61.8039 70.75C61.97 70.75 62.2078 70.4619 62.5164 69.8865C62.6802 70.0022 62.8364 70.133 62.9804 70.2754C63.1092 70.4053 63.2037 70.4702 63.2639 70.4702C63.3546 70.4702 63.4978 70.332 63.6944 70.0563C63.8659 69.8598 63.9741 69.6075 64 69.3385C63.9733 69.1154 63.8621 68.913 63.6944 68.7798C63.5679 68.6266 63.3957 68.5275 63.2068 68.5C63.1694 68.5 63.0711 68.6299 62.9126 68.8889Z" fill="#5B7B39"/>
<path fill-rule="evenodd" clip-rule="evenodd" d="M61.0018 64.532C60.994 64.7394 61.012 64.9468 61.0535 65.1494C61.0927 65.3497 61.1655 65.5403 61.269 65.715C61.3669 65.8786 61.5024 66.0166 61.6646 66.1171C61.8448 66.2216 62.0524 66.2663 62.2593 66.2447C62.423 66.2312 62.5821 66.1881 62.731 66.1171C62.8759 66.0453 63.0099 65.9511 63.1266 65.8371C63.2551 65.711 63.3695 65.5738 63.4698 65.4238C63.5787 65.2651 63.6868 65.092 63.7957 64.9053C63.8639 64.7649 63.9759 64.6524 64.1162 64.5846C64.2682 64.5487 64.4256 64.5511 64.5761 64.591C64.6364 64.5208 64.6811 64.4394 64.7077 64.3509C64.7351 64.2639 64.7484 64.1738 64.75 64.0828C64.75 63.9967 64.7351 63.9121 64.703 63.8323C64.6764 63.7614 64.6317 63.6967 64.5753 63.6465C64.4131 63.6018 64.2399 63.6225 64.0927 63.7039C63.9485 63.8068 63.8278 63.9377 63.7377 64.0884C63.6429 64.2368 63.5231 64.3652 63.382 64.4681C63.2535 64.5623 63.107 64.6285 62.9511 64.666C62.6322 64.741 62.2953 64.6468 62.0603 64.4155C61.7814 64.0956 61.6466 63.6736 61.6881 63.25L61.0018 64.532Z" fill="#5B7B39"/>
<path fill-rule="evenodd" clip-rule="evenodd" d="M64.2841 59.9375C64.1493 60.1116 64.0527 60.3042 63.9999 60.5057C64.0075 60.5593 64.0435 60.6078 64.1002 60.6365C64.1914 60.6862 64.2818 60.7328 64.3737 60.7761C64.5147 60.8693 64.6717 60.9445 64.8403 61C64.9391 61 65.0732 60.8967 65.244 60.692C65.388 60.5453 65.4769 60.3673 65.4999 60.1792C65.4394 59.8227 65.0939 59.5427 64.6579 59.5C64.5982 59.5 64.4741 59.6454 64.2841 59.9375Z" fill="#5B7B39"/>
<path fill-rule="evenodd" clip-rule="evenodd" d="M65.2823 61.9464C65.2042 62.0638 65.1406 62.1881 65.0933 62.3163C65.0379 62.4621 65.0006 62.6125 64.9797 62.7644C64.9561 62.9171 64.9543 63.0713 64.9715 63.224C64.9852 63.3614 65.0315 63.4949 65.1069 63.6169C65.057 63.768 64.897 63.8762 64.7098 63.8854C64.4717 63.8885 64.2336 63.8701 64 63.8294L63.8696 64.7842C64.0081 64.6159 64.3208 64.7517 64.4726 64.7095C64.6044 64.6696 64.727 64.6128 64.837 64.5407C64.9433 64.4716 65.0415 64.3926 65.1269 64.3059C65.2133 64.2192 65.296 64.1432 65.3778 64.0757C65.4732 64.0051 65.5968 64.01 65.7336 63.983C65.8247 63.965 65.9386 63.9325 66.0754 63.8854C66.3562 63.3729 66.3202 62.8956 66.0394 62.383C65.953 62.3163 65.8803 62.2388 65.824 62.1536C65.7595 62.0646 65.7004 61.9733 65.6486 61.8789C65.6041 61.793 65.5577 61.75 65.5104 61.75C65.4995 61.75 65.4895 61.7515 65.4795 61.7554C65.3941 61.8029 65.3251 61.8689 65.2823 61.9464Z" fill="#5B7B39"/>
<path fill-rule="evenodd" clip-rule="evenodd" d="M66.5357 67.4351C66.3979 67.6108 66.3022 67.8055 66.2501 68.0097C66.257 68.0611 66.2953 68.1061 66.3512 68.1296L66.6245 68.278C66.7647 68.3706 66.9224 68.4455 67.0901 68.5C67.1889 68.5 67.3229 68.3966 67.4944 68.1899C67.6368 68.0421 67.7256 67.8632 67.7501 67.6761C67.6889 67.3203 67.3435 67.0425 66.9086 67C66.8481 67 66.7241 67.1446 66.5357 67.4351Z" fill="#5B7B39"/>
<mask id="mask0_472:4901" style="mask-type:alpha" maskUnits="userSpaceOnUse" x="65" y="61" width="2" height="3">
<path d="M66.8429 61.8374C66.7789 61.9698 66.6774 62.0866 66.5485 62.1783C66.443 62.2502 66.3191 62.3004 66.1872 62.3246C66.0644 62.3454 65.9385 62.3428 65.8177 62.3177C65.6989 62.2934 65.5903 62.2467 65.5 62.1783V63.999C65.7182 64.0077 65.9344 63.9592 66.1171 63.8597C66.3201 63.7489 66.4876 63.5992 66.6084 63.4236C66.7525 63.215 66.8571 62.9892 66.918 62.7538C66.989 62.4821 67.0134 62.2034 66.9931 61.9257C66.9961 61.872 66.984 61.8175 66.9555 61.7682C66.9474 61.7561 66.9383 61.75 66.9281 61.75C66.9058 61.75 66.8774 61.7794 66.8429 61.8374Z" fill="white"/>
</mask>
<g mask="url(#mask0_472:4901)">
<path d="M66.8429 61.8374C66.7789 61.9698 66.6774 62.0866 66.5485 62.1783C66.443 62.2502 66.3191 62.3004 66.1872 62.3246C66.0644 62.3454 65.9385 62.3428 65.8177 62.3177C65.6989 62.2934 65.5903 62.2467 65.5 62.1783V63.999C65.7182 64.0077 65.9344 63.9592 66.1171 63.8597C66.3201 63.7489 66.4876 63.5992 66.6084 63.4236C66.7525 63.215 66.8571 62.9892 66.918 62.7538C66.989 62.4821 67.0134 62.2034 66.9931 61.9257C66.9961 61.872 66.984 61.8175 66.9555 61.7682C66.9474 61.7561 66.9383 61.75 66.9281 61.75C66.9058 61.75 66.8774 61.7794 66.8429 61.8374Z" fill="#5B7B39"/>
</g>
</svg>
