<svg width="92" height="92" viewBox="0 0 92 92" fill="none" xmlns="http://www.w3.org/2000/svg">
<rect x="1" y="1" width="90" height="90" stroke="#55A2E7" stroke-opacity="0.6"/>
<path d="M75 42.5488H71.4327V53.0321H75V42.5488Z" fill="white"/>
<path d="M60.2315 42.5488H56.6642V53.0321H60.2315V42.5488Z" fill="white"/>
<path d="M37.9759 42.5488H34.4086V53.0321H37.9759V42.5488Z" fill="white"/>
<path d="M30.5559 42.5488H26.9886V53.0321H30.5559V42.5488Z" fill="white"/>
<path d="M52.8115 39.1941H49.2443V42.6885H52.8115V39.1941Z" fill="white"/>
<path d="M26.7018 39.1941H23.1345V42.6885H26.7018V39.1941Z" fill="white"/>
<path d="M23.1345 49.5376H19.5673V53.032H23.1345V49.5376Z" fill="white"/>
<path d="M52.8114 53.032H49.2442L45.6769 49.5376H56.3787L52.8114 53.032Z" fill="white"/>
<path d="M56.3788 46.0432H52.8115V49.5376H56.3788V46.0432Z" fill="white"/>
<path d="M49.2484 46.0432H45.6812V49.5376H49.2484V46.0432Z" fill="white"/>
<path d="M64.0127 53.3117V56.8062H71.1473V53.3117H64.0127Z" fill="white"/>
<path d="M26.9886 53.3117V56.8062H34.1232V53.3117H26.9886Z" fill="white"/>
<path d="M16 46.0432V49.5376H23.1346V46.0432H16Z" fill="white"/>
<path d="M64.0128 46.0432V49.5376H71.1474V46.0432H64.0128Z" fill="white"/>
<path d="M67.58 49.5376L64.0127 53.032H60.4454L64.0127 49.5376H67.58Z" fill="white"/>
<path d="M41.8285 46.0432V49.5376H45.3958V46.0432H41.8285Z" fill="white"/>
<path d="M34.1232 49.5376L30.5559 53.032V49.5376H34.1232Z" fill="white"/>
<path d="M26.7018 49.5376L23.1345 53.032V49.5376H26.7018Z" fill="white"/>
<path d="M45.3958 49.5376L41.8285 53.032H38.2612L41.8285 49.5376H45.3958Z" fill="white"/>
</svg>
