<svg width="92" height="92" viewBox="0 0 92 92" fill="none" xmlns="http://www.w3.org/2000/svg">
<path d="M91 1H1V91H91V1Z" stroke="#55A2E7" stroke-opacity="0.595597"/>
<path fill-rule="evenodd" clip-rule="evenodd" d="M45.8353 51.9998C45.9832 51.9998 46.1316 52.0003 46.2789 51.9998C47.6743 51.9902 47.7549 51.8961 47.1159 50.7386C44.8184 46.5749 41.2211 44.2079 36.2572 43.7654C35.4976 43.6977 35.393 43.8342 35.5814 44.5518C36.7083 48.8403 41.0423 51.9892 45.8353 51.9998ZM39.25 33.2224C46.7803 34.4054 52.1796 38.2511 55.7833 44.5C57.4791 40.8186 56.1581 35.5099 51.8991 32.7607C47.576 29.9705 42.066 30.7776 39.25 33.2224ZM37.5881 36.2903C36.9447 36.1089 36.563 36.5589 36.2858 37.2542C35.9706 38.0423 35.7166 38.8405 35.5394 39.6696C35.407 40.2889 35.5992 40.5108 36.2534 40.5144C38.3335 40.526 40.3101 41.0252 42.1749 41.9177C45.7701 43.6382 48.3545 46.3237 49.9061 49.9436C50.1823 50.5877 50.4352 50.6339 50.9921 50.2801C51.7555 49.7951 52.4813 49.2787 53.1428 48.6625C53.5317 48.3006 53.5884 47.9742 53.3839 47.4898C52.2104 44.7111 50.4682 42.3434 48.1305 40.4095C45.139 37.9348 41.6891 36.5589 37.5881 36.2903ZM60.9937 41.1996C60.9947 44.2186 60.7374 46.8768 59.6499 49.3851C57.9611 53.2794 54.8709 55.4322 50.8198 56.364C50.5397 56.4282 50.2564 56.5027 49.9715 56.5192C49.2592 56.5606 48.7798 56.9057 48.4072 57.5059C47.9035 58.3187 47.3436 59.1004 46.6806 59.7963C46.1 60.4052 45.8281 60.4114 45.2818 59.7528C44.6711 59.0171 44.0879 58.2529 43.5587 57.4577C43.18 56.8907 42.7063 56.6273 42.0411 56.5151C38.9499 55.993 36.2125 54.7746 34.1569 52.3176C32.3752 50.1886 31.5124 47.6757 31.2032 44.9625C30.91 42.3865 30.8976 39.8136 31.4096 37.251C32.5801 31.3927 36.3469 27.7535 42.2777 26.8196C45.8639 26.2552 49.4112 26.383 52.8454 27.6506C56.7361 29.0868 59.1176 31.9241 60.2518 35.85C60.7867 37.6996 61.0445 39.5911 60.9937 41.1996Z" fill="#3ECE71"/>
<path d="M55.7936 64.9418L56.4972 64.2381L55.7854 63.5263L55.09 64.23L55.7936 64.9418ZM55.2822 69.2495C55.4568 69.2495 55.63 69.2195 55.8018 69.1595C55.9736 69.0995 56.1284 69.0075 56.2661 68.8834C56.4038 68.7593 56.5157 68.6025 56.6016 68.4129C56.6875 68.2234 56.7304 67.9977 56.7304 67.7359C56.7304 67.6459 56.7236 67.5409 56.71 67.4209C56.6963 67.3009 56.68 67.1761 56.6609 67.0466C56.6418 66.917 56.62 66.7888 56.5954 66.662C56.5709 66.5352 56.5484 66.4193 56.5279 66.3143C56.5075 66.2093 56.4891 66.1213 56.4727 66.0504C56.4563 65.9795 56.4454 65.9359 56.44 65.9195L55.7077 66.1445C55.7186 66.1827 55.7322 66.24 55.7486 66.3163C55.765 66.3927 55.7827 66.48 55.8018 66.5781C55.8209 66.6763 55.84 66.7806 55.8591 66.8911C55.8782 67.0015 55.8952 67.1093 55.9102 67.2143C55.9252 67.3193 55.9375 67.4175 55.947 67.5088C55.9566 67.6002 55.9613 67.6759 55.9613 67.7359C55.9613 67.9104 55.9334 68.0468 55.8775 68.145C55.8216 68.2431 55.7561 68.3168 55.6811 68.3659C55.6061 68.415 55.5311 68.4456 55.4561 68.4579C55.3811 68.4702 55.3232 68.4763 55.2822 68.4763H54.2391V69.2495H55.2822ZM53.0813 65.539L53.785 64.8354L53.0732 64.1236L52.3777 64.8272L53.0813 65.539ZM51.0932 71.52C51.4804 71.52 51.8234 71.4654 52.122 71.3563C52.4207 71.2472 52.6722 71.0884 52.8768 70.8797C53.0813 70.6711 53.2368 70.4168 53.3432 70.1168C53.4495 69.8168 53.5027 69.4759 53.5027 69.0941C53.7236 69.1977 53.965 69.2495 54.2268 69.2495H54.4027V68.4763H54.2268C54.1968 68.4763 54.1429 68.4715 54.0652 68.462C53.9875 68.4525 53.9063 68.4272 53.8218 68.3863C53.7372 68.3454 53.6629 68.282 53.5988 68.1961C53.5347 68.1102 53.5027 67.9909 53.5027 67.8381V66.4841H52.7295V69.0368C52.7295 69.334 52.6975 69.5904 52.6334 69.8059C52.5693 70.0213 52.4697 70.1986 52.3347 70.3377C52.1997 70.4768 52.0293 70.5797 51.8234 70.6466C51.6175 70.7134 51.3741 70.7468 51.0932 70.7468H50.5286V71.52H51.0932ZM48.3318 69.3109C48.4463 69.3109 48.5568 69.3068 48.6632 69.2986C48.7695 69.2904 48.8704 69.2795 48.9659 69.2659C49.585 69.1759 49.9804 68.9386 50.1522 68.554C50.2041 68.4422 50.2313 68.3543 50.2341 68.2902C50.2368 68.2261 50.2382 68.1886 50.2382 68.1777C50.2382 68.074 50.2259 67.9704 50.2013 67.8668C50.1741 67.7522 50.1332 67.6384 50.0786 67.5252C50.0241 67.412 49.9627 67.3036 49.8945 67.2C49.72 66.9381 49.5672 66.7091 49.4363 66.5127C49.3054 66.3163 49.1909 66.1445 49.0927 65.9972C48.9945 65.85 48.9113 65.7238 48.8432 65.6188C48.775 65.5138 48.715 65.4225 48.6632 65.3447C48.6113 65.267 48.5663 65.1988 48.5282 65.1402C48.49 65.0815 48.4532 65.025 48.4177 64.9704L47.7632 65.3959L49.2441 67.6336C49.3313 67.7645 49.3886 67.8715 49.4159 67.9547C49.4432 68.0379 49.4568 68.1027 49.4568 68.149C49.4568 68.1818 49.4513 68.2118 49.4404 68.2391C49.4132 68.2963 49.3484 68.3475 49.2461 68.3925C49.1438 68.4375 49.0136 68.4722 48.8554 68.4968C48.7218 68.5159 48.61 68.5261 48.52 68.5275C48.475 68.5281 48.4382 68.5287 48.4095 68.529L48.3482 68.5295C48.2145 68.5295 48.0809 68.5227 47.9472 68.509C47.7918 68.4954 47.6445 68.4716 47.5054 68.4375C47.3663 68.4034 47.2491 68.3591 47.1536 68.3045L46.8141 68.1122L46.4295 68.7872L46.7691 68.9795C46.87 69.0395 46.9825 69.0906 47.1066 69.1329C47.2307 69.1752 47.3602 69.2093 47.4952 69.2352C47.6302 69.2611 47.7686 69.2802 47.9104 69.2925C48.0523 69.3047 48.1927 69.3109 48.3318 69.3109ZM44.1427 69.2495C44.3172 69.2495 44.4904 69.2195 44.6623 69.1595C44.8341 69.0995 44.9888 69.0075 45.1266 68.8834C45.2643 68.7593 45.3761 68.6025 45.462 68.4129C45.5479 68.2234 45.5909 67.9977 45.5909 67.7359C45.5909 67.6459 45.5841 67.5409 45.5704 67.4209C45.5568 67.3009 45.5404 67.1761 45.5213 67.0466C45.5022 66.917 45.4804 66.7888 45.4559 66.662C45.4313 66.5352 45.4088 66.4193 45.3884 66.3143C45.3679 66.2093 45.3495 66.1213 45.3332 66.0504C45.3168 65.9795 45.3059 65.9359 45.3004 65.9195L44.5682 66.1445C44.5791 66.1827 44.5927 66.24 44.6091 66.3163C44.6254 66.3927 44.6432 66.48 44.6623 66.5781C44.6813 66.6763 44.7004 66.7806 44.7195 66.8911C44.7386 67.0015 44.7557 67.1093 44.7707 67.2143C44.7857 67.3193 44.7979 67.4175 44.8075 67.5088C44.817 67.6002 44.8218 67.6759 44.8218 67.7359C44.8218 67.9104 44.7938 68.0468 44.7379 68.145C44.682 68.2431 44.6166 68.3168 44.5416 68.3659C44.4666 68.415 44.3916 68.4456 44.3166 68.4579C44.2416 68.4702 44.1836 68.4763 44.1427 68.4763H42.4491V69.2495H44.1427ZM44.9813 71.4709L45.6441 70.8081L44.9895 70.1536L44.3432 70.8081L44.9813 71.4709ZM43.4145 71.4791L44.0772 70.8163L43.4227 70.1618L42.7763 70.8163L43.4145 71.4791ZM38.5873 69.2495C38.8 69.2495 39.0045 69.2325 39.2009 69.1984C39.3973 69.1643 39.5759 69.1118 39.7368 69.0409C39.925 68.9618 40.0879 68.8622 40.2257 68.7422C40.3634 68.6222 40.4704 68.4872 40.5468 68.3372C40.5522 68.3236 40.5577 68.3113 40.5632 68.3004C40.5686 68.2895 40.5741 68.2772 40.5795 68.2636C40.705 68.4136 40.8332 68.5493 40.9641 68.6706C41.095 68.792 41.2382 68.8956 41.3936 68.9815C41.5491 69.0675 41.7216 69.1336 41.9111 69.18C42.1007 69.2263 42.3168 69.2495 42.5595 69.2495H42.6209V68.4763H42.5595C42.3386 68.4763 42.1484 68.4504 41.9888 68.3986C41.8293 68.3468 41.682 68.2677 41.547 68.1613C41.412 68.055 41.2791 67.9206 41.1482 67.7584C41.0173 67.5961 40.8686 67.4031 40.7022 67.1795L39.0782 64.9254L42.4286 63.3913L42.1095 62.6836L38.3541 64.4181L38.2027 64.9909C38.2818 65.1027 38.3841 65.2459 38.5095 65.4204C38.6159 65.5704 38.7536 65.764 38.9227 66.0013C39.0918 66.2386 39.2977 66.5277 39.5404 66.8686C39.7123 67.1004 39.8173 67.2852 39.8554 67.4229C39.8936 67.5606 39.9127 67.6663 39.9127 67.74C39.9127 67.8327 39.895 67.9159 39.8595 67.9895C39.8213 68.0631 39.7634 68.13 39.6857 68.19C39.6079 68.25 39.5138 68.3011 39.4034 68.3434C39.2929 68.3856 39.1688 68.4184 39.0311 68.4415C38.8934 68.4647 38.7454 68.4763 38.5873 68.4763H37.3845V69.2495H38.5873ZM37.5563 69.2495V68.4763C37.3 68.4736 37.107 68.4579 36.9775 68.4293C36.8479 68.4006 36.7511 68.3461 36.687 68.2656C36.6229 68.1852 36.5834 68.0713 36.5684 67.924C36.5534 67.7768 36.5459 67.5845 36.5459 67.3472V63.4118H35.7727V67.3472C35.7727 67.56 35.7795 67.7536 35.7932 67.9281C35.8068 68.1027 35.8354 68.2602 35.8791 68.4006C35.9227 68.5411 35.9834 68.6638 36.0611 68.7688C36.1388 68.8738 36.2425 68.9611 36.372 69.0306C36.5016 69.1002 36.6598 69.1534 36.8466 69.1902C37.0334 69.227 37.27 69.2468 37.5563 69.2495Z" fill="#3ECE71"/>
</svg>
