<svg width="92" height="92" viewBox="0 0 92 92" fill="none" xmlns="http://www.w3.org/2000/svg">
<path d="M91 1H1V91H91V1Z" stroke="#55A2E7" stroke-opacity="0.6"/>
<path fill-rule="evenodd" clip-rule="evenodd" d="M47.8991 22.9729C47.0828 22.9729 46.3685 22.565 46.002 21.962C45.6332 22.565 44.9207 22.9729 44.1021 22.9729C42.99 22.9729 42.0728 22.2196 41.9503 21.25C41.9001 21.446 41.875 21.6469 41.875 21.8477C41.875 23.1742 42.9398 24.25 44.256 24.25C44.944 24.25 45.5637 23.956 45.9992 23.4865C46.4318 23.956 47.0537 24.25 47.7412 24.25C49.0579 24.25 50.125 23.1742 50.125 21.8477C50.125 21.6469 50.1005 21.446 50.0503 21.25C49.9272 22.2196 49.0106 22.9729 47.8991 22.9729ZM44.0581 26.4602L44.4295 46.9802C41.5566 44.6873 39.4573 41.1511 38.8433 36.9728C38.2283 32.7935 39.2218 28.791 41.3104 25.7509C38.3581 28.1896 36.4044 31.9518 36.2587 36.2379C36.0674 41.8721 39.0546 46.8429 43.5073 49.1913C41.7638 49.766 39.9163 49.9236 38.1047 49.6506C38.0036 49.6357 37.9036 49.6186 37.8036 49.6015C39.5044 50.3407 41.3407 50.6868 43.1841 50.6147C43.6601 50.5965 44.1346 50.5506 44.6064 50.478L45.9985 52.75L47.3916 50.478C47.8619 50.5506 48.3369 50.5965 48.8134 50.6147C50.6573 50.6873 52.4946 50.3412 54.1965 49.6015C54.0959 49.6186 53.9954 49.6357 53.8944 49.6506C52.0827 49.9236 50.2362 49.7655 48.4923 49.1903C52.9455 46.8429 55.9322 41.8748 55.7414 36.2379C55.5957 31.9518 53.6415 28.1891 50.6896 25.7509C52.7782 28.791 53.7713 32.7941 53.1568 36.9728C52.5423 41.1511 50.4414 44.6873 47.5701 46.9786L47.9394 26.4602C47.1115 26.2263 46.4837 25.6292 45.9985 25C45.5164 25.6292 44.886 26.2263 44.0581 26.4602ZM58.8455 37.939C58.8455 41.6974 57.5163 45.0924 55.3848 47.5C59.3287 45.3864 61.7556 41.4769 61.75 37.2487C61.75 31.6576 57.5848 26.9737 52 25.75C56.0214 27.756 58.8455 32.4593 58.8455 37.939ZM30.25 37.2487C30.2438 41.4769 32.6714 45.3864 36.6152 47.5C34.4837 45.0924 33.1545 41.6974 33.1545 37.939C33.1545 32.4593 35.9781 27.756 40 25.75C34.4152 26.9737 30.25 31.6587 30.25 37.2487Z" fill="white"/>
<path d="M75.1292 64.8724C75.2302 64.8812 75.4412 64.7164 75.762 64.378C75.8411 64.3473 75.9268 64.3143 76.019 64.2792C76.0981 64.2528 76.186 64.1913 76.2827 64.0946C76.375 64.0023 76.4739 63.91 76.5794 63.8177C76.6892 63.7255 76.7815 63.5892 76.8562 63.409C76.9441 63.2113 77.0056 63.0157 77.0408 62.8224C77.054 62.7696 77.0562 62.7235 77.0474 62.684C77.0386 62.6444 77.0188 62.6268 76.988 62.6312C76.9749 62.6312 76.943 62.696 76.8925 62.8257C76.8419 62.9553 76.7925 63.0509 76.7441 63.1124C76.7002 63.1783 76.6442 63.2003 76.5761 63.1783C76.5079 63.1564 76.4651 63.1476 76.4475 63.152C76.3333 63.5211 76.208 63.6815 76.0718 63.6332C76.0498 63.6244 76.0015 63.598 75.9268 63.5541C75.7817 63.8002 75.6686 63.9496 75.5873 64.0023C75.506 64.055 75.4302 64.0704 75.3599 64.0485L75.1292 64.0089C75.0896 64.0748 75.0643 64.1506 75.0533 64.2363C75.0424 64.322 75.0402 64.4055 75.0468 64.4868C75.0533 64.5681 75.0654 64.6439 75.083 64.7142C75.1006 64.7845 75.116 64.8373 75.1292 64.8724ZM73.4417 59.5594C73.5823 59.5594 73.7712 59.3199 74.0085 58.8409C74.1052 58.9112 74.2173 59.0101 74.3447 59.1376C74.4722 59.265 74.5601 59.3287 74.6084 59.3287C74.6831 59.3287 74.7996 59.2167 74.9578 58.9925C75.1204 58.764 75.2017 58.5663 75.2017 58.3993C75.1929 58.2587 75.1127 58.1081 74.9611 57.9477C74.8095 57.7873 74.6787 57.7071 74.5689 57.7071C74.5337 57.7071 74.4623 57.7972 74.3546 57.9774C74.247 58.1576 74.1492 58.3202 74.0613 58.4652C73.9866 58.3597 73.8778 58.2378 73.735 58.0994C73.5922 57.9609 73.4834 57.9071 73.4087 57.9379C73.3691 57.9379 73.2593 58.107 73.0791 58.4454C72.8989 58.7838 72.8088 58.9816 72.8088 59.0387C72.8088 59.0651 72.8737 59.131 73.0033 59.2364C73.1329 59.3419 73.2285 59.421 73.29 59.4737C73.356 59.5309 73.4065 59.5594 73.4417 59.5594ZM73.2571 66.2501C73.5779 66.2501 73.8679 66.0392 74.1272 65.6173C74.3689 65.1954 74.604 64.9471 74.8325 64.8724C74.8984 64.8505 74.9973 64.8505 75.1292 64.8724C75.1511 64.8109 75.1687 64.7538 75.1819 64.701C75.1995 64.6439 75.2083 64.5714 75.2083 64.4835C75.2083 64.4 75.1973 64.3044 75.1753 64.1968C75.1533 64.0891 75.1379 64.0265 75.1292 64.0089C75.0369 64.0089 74.9391 64.0507 74.8358 64.1341C74.7325 64.2176 74.6084 64.3561 74.4634 64.5494C74.27 64.8131 74.0239 64.9449 73.7251 64.9449C73.5098 64.9449 73.3208 64.8724 73.1582 64.7274C72.9429 64.5297 72.8352 64.2111 72.8352 63.7716C72.7122 63.8419 72.6045 63.9705 72.5122 64.1572C72.4199 64.344 72.3364 64.5648 72.2617 64.8197C72.2661 65.2108 72.3518 65.5404 72.5188 65.8085C72.6858 66.0765 72.9319 66.2237 73.2571 66.2501ZM72.2617 64.8197C72.3584 64.8329 72.4408 64.8164 72.5089 64.7703C72.577 64.7241 72.6331 64.6538 72.677 64.5593C72.721 64.4648 72.7561 64.3506 72.7825 64.2165C72.8088 64.0825 72.8264 63.932 72.8352 63.765C72.8352 63.7386 72.8462 63.5848 72.8682 63.3036C72.8901 63.0223 72.9495 62.5038 73.0461 61.7479C73.1428 60.9921 73.1978 60.4801 73.2109 60.212C73.2109 60.1769 73.1989 60.1549 73.1747 60.1461C73.1505 60.1373 73.1274 60.1593 73.1055 60.212C72.8901 60.7569 72.7473 61.1371 72.677 61.3524C72.5408 62.0951 72.4386 62.7729 72.3705 63.386C72.3024 63.999 72.2661 64.4769 72.2617 64.8197ZM69.5195 66.2633C69.5591 66.2633 69.6118 66.2567 69.6777 66.2435C70.2183 66.1073 70.6314 65.8942 70.917 65.6041C71.084 65.4371 71.2477 65.1921 71.4081 64.8691C71.5685 64.5461 71.6597 64.1693 71.6816 63.7386C71.6816 63.163 71.3982 62.7037 70.8313 62.361C70.7302 62.2994 70.6643 62.3148 70.6335 62.4071C70.4314 62.8553 70.2644 63.2069 70.1326 63.4618C70.0974 63.5716 70.126 63.6639 70.2183 63.7386C70.7192 64.1473 70.9697 64.4659 70.9697 64.6944C70.9697 64.7823 70.8357 64.9603 70.5676 65.2284C70.2908 65.5096 69.9941 65.7601 69.6777 65.9799C69.5195 66.0941 69.4404 66.1754 69.4404 66.2237C69.4404 66.2501 69.4668 66.2633 69.5195 66.2633ZM67.7266 65.8843C67.7529 65.8996 67.7903 65.8854 67.8386 65.8414C67.8782 65.7975 67.9298 65.7272 67.9935 65.6305C68.0573 65.5338 68.144 65.3393 68.2539 65.0471C68.3638 64.7549 68.4363 64.4198 68.4714 64.0419C68.4934 63.8661 68.5066 63.6507 68.511 63.3959C68.5154 63.141 68.522 62.8553 68.5308 62.5389C68.5308 62.4642 68.5341 62.35 68.5407 62.1962C68.5472 62.0423 68.5549 61.8852 68.5637 61.7248C68.5725 61.5644 68.5824 61.4194 68.5934 61.2898C68.6044 61.1601 68.6143 61.0778 68.6231 61.0426C68.6274 61.0074 68.6143 60.9833 68.5835 60.9701C68.5527 60.9569 68.5176 60.9811 68.478 61.0426C68.4297 61.1393 68.3759 61.2502 68.3165 61.3755C68.2572 61.5007 68.2012 61.6337 68.1484 61.7743C68.0957 61.9149 68.0485 62.0577 68.0067 62.2028C67.965 62.3478 67.9353 62.4884 67.9177 62.6246C67.887 62.8575 67.876 63.1948 67.8848 63.6365C67.8936 64.0781 67.8914 64.4198 67.8782 64.6615C67.865 64.9032 67.832 65.1526 67.7793 65.4097C67.7266 65.6667 67.7002 65.7997 67.7002 65.8085C67.6914 65.8436 67.7002 65.8689 67.7266 65.8843ZM65.3469 63.7518C65.3909 63.7079 65.4425 63.6518 65.5018 63.5837C65.5612 63.5156 65.6216 63.4398 65.6831 63.3563C65.7446 63.2728 65.8051 63.186 65.8644 63.0959C65.9237 63.0059 65.9797 62.9147 66.0325 62.8224C66.116 62.6598 66.1841 62.5312 66.2368 62.4368C66.2896 62.3423 66.3412 62.261 66.3917 62.1929C66.4423 62.1247 66.5027 62.0643 66.573 62.0116C66.7004 61.9193 66.7773 61.8622 66.8037 61.8402C66.8301 61.8182 66.8652 61.7391 66.9092 61.6029C66.918 61.5765 66.9345 61.5249 66.9586 61.448C66.9828 61.3711 67.0015 61.3041 67.0147 61.2469C67.0278 61.1898 67.0125 61.1612 66.9685 61.1612C66.7708 61.3063 66.5708 61.3788 66.3687 61.3788C66.272 61.3788 66.1555 61.3546 66.0193 61.3063C65.804 61.236 65.6238 61.2008 65.4788 61.2008C65.281 61.2008 65.1107 61.2634 64.9679 61.3887C64.8251 61.5139 64.6987 61.704 64.5889 61.9589C64.5625 62.0204 64.5427 62.083 64.5295 62.1467C64.5164 62.2104 64.5186 62.2467 64.5361 62.2555C64.5889 62.2643 64.6515 62.2148 64.724 62.1072C64.7965 61.9995 64.8778 61.916 64.9679 61.8567C65.058 61.7974 65.1711 61.7721 65.3074 61.7809C65.4568 61.7897 65.615 61.8259 65.782 61.8896C65.949 61.9534 66.0501 62.0028 66.0852 62.038C65.782 62.495 65.5864 62.7631 65.4985 62.8422C65.4634 62.8729 65.4128 62.9081 65.3469 62.9476C65.303 63.0839 65.2854 63.2179 65.2942 63.3497C65.303 63.4816 65.3206 63.6156 65.3469 63.7518ZM65.7424 68.7286C65.8127 68.7286 65.9248 68.5968 66.0786 68.3331C66.2324 68.0694 66.3093 67.8673 66.3093 67.7267C66.2961 67.6212 66.1973 67.4751 66.0127 67.2883C65.8281 67.1016 65.6875 67.0279 65.5908 67.0675C65.5425 67.0675 65.4359 67.229 65.2711 67.552C65.1063 67.875 65.0239 68.0848 65.0239 68.1815C65.0239 68.2299 65.0569 68.276 65.1228 68.3199C65.1975 68.3727 65.3129 68.4507 65.4689 68.5539C65.6249 68.6572 65.7161 68.7154 65.7424 68.7286ZM61.9324 66.2501C61.9939 66.2501 62.0466 66.2457 62.0906 66.2369C62.6487 66.171 63.0354 66.0611 63.2507 65.9073C63.4661 65.7579 63.6858 65.4569 63.9099 65.0043C64.033 64.7582 64.1406 64.589 64.2329 64.4967C64.3735 64.3517 64.6043 64.2023 64.9251 64.0485C65.0745 63.9781 65.1953 63.8968 65.2876 63.8046C65.3667 63.7299 65.4436 63.631 65.5183 63.5079C65.5447 63.4552 65.593 63.3695 65.6633 63.2508L65.8743 63.0597L65.3469 62.9344C65.2942 62.9696 65.0986 63.0817 64.7603 63.2706C64.5493 63.3761 64.3626 63.5255 64.2 63.7189C64.0549 63.8946 63.8726 64.2067 63.6528 64.6549C63.5869 64.7999 63.4485 64.9493 63.2376 65.1031C63.0881 65.2086 62.8552 65.3514 62.5388 65.5316C62.4334 65.5931 62.2752 65.6876 62.0642 65.8151C61.7961 65.9864 61.6621 66.1227 61.6621 66.2237C61.6621 66.2413 61.7017 66.2501 61.7808 66.2501H61.9324ZM60.2844 65.8843C60.3108 65.8996 60.3481 65.8854 60.3965 65.8414C60.436 65.7975 60.4877 65.7272 60.5514 65.6305C60.6151 65.5338 60.7019 65.3393 60.8118 65.0471C60.9216 64.7549 60.9941 64.4198 61.0293 64.0419C61.0513 63.8661 61.0645 63.6507 61.0689 63.3959C61.0732 63.141 61.0798 62.8553 61.0886 62.5389C61.0886 62.4642 61.0919 62.35 61.0985 62.1962C61.1051 62.0423 61.1128 61.8852 61.1216 61.7248C61.1304 61.5644 61.1403 61.4194 61.1512 61.2898C61.1622 61.1601 61.1721 61.0778 61.1809 61.0426C61.1853 61.0074 61.1721 60.9833 61.1414 60.9701C61.1106 60.9569 61.0754 60.9811 61.0359 61.0426C60.9876 61.1393 60.9337 61.2502 60.8744 61.3755C60.8151 61.5007 60.759 61.6337 60.7063 61.7743C60.6536 61.9149 60.6063 62.0577 60.5646 62.2028C60.5228 62.3478 60.4932 62.4884 60.4756 62.6246C60.4448 62.8575 60.4338 63.1948 60.4426 63.6365C60.4514 64.0781 60.4492 64.4198 60.436 64.6615C60.4229 64.9032 60.3899 65.1526 60.3372 65.4097C60.2844 65.6667 60.2581 65.7997 60.2581 65.8085C60.2493 65.8436 60.2581 65.8689 60.2844 65.8843ZM58.3695 63.475C58.4069 63.475 58.4431 63.4673 58.4783 63.4519C58.5134 63.4365 58.5376 63.4134 58.5508 63.3827C58.6475 63.1322 58.7452 62.8806 58.8441 62.6279C58.943 62.3752 59.043 62.1236 59.144 61.8732C59.3154 61.4073 59.4011 61.0206 59.4011 60.713C59.4011 60.4142 59.3352 60.1219 59.2034 59.8363C59.0627 59.5507 58.9177 59.3837 58.7683 59.3353C58.7068 59.4584 58.6167 59.6957 58.4981 60.0472C58.4717 60.1175 58.4431 60.201 58.4124 60.2977C58.3816 60.3944 58.3464 60.5043 58.3069 60.6273C58.2981 60.6713 58.3201 60.7328 58.3728 60.8119C58.3948 60.8558 58.4189 60.8998 58.4453 60.9437L58.5244 61.0756C58.5815 61.1898 58.6409 61.3238 58.7024 61.4777C58.7551 61.6183 58.7815 61.7172 58.7815 61.7743C58.7815 61.9413 58.6826 62.2555 58.4849 62.7169C58.4453 62.8092 58.3508 63.0311 58.2014 63.3827C58.2102 63.4134 58.2311 63.4365 58.264 63.4519C58.297 63.4673 58.3322 63.475 58.3695 63.475ZM57.7334 71.7015C57.874 71.7015 58.063 71.462 58.3003 70.983C58.397 71.0533 58.509 71.1522 58.6365 71.2797C58.7639 71.4071 58.8518 71.4708 58.9001 71.4708C58.9749 71.4708 59.0913 71.3588 59.2495 71.1346C59.4121 70.9061 59.4934 70.7084 59.4934 70.5414C59.4846 70.4007 59.4044 70.2502 59.2528 70.0898C59.1012 69.9294 58.9705 69.8492 58.8606 69.8492C58.8254 69.8492 58.754 69.9393 58.6464 70.1195C58.5387 70.2997 58.4409 70.4623 58.353 70.6073C58.2783 70.5018 58.1696 70.3799 58.0267 70.2414C57.8839 70.103 57.7751 70.0492 57.7004 70.0799C57.6609 70.0799 57.551 70.2491 57.3709 70.5875C57.1907 70.9259 57.1006 71.1236 57.1006 71.1808C57.1006 71.2071 57.1654 71.2731 57.295 71.3785C57.4247 71.484 57.5203 71.5631 57.5818 71.6158C57.6477 71.673 57.6982 71.7015 57.7334 71.7015ZM56.1777 68.4518C56.4194 68.4518 56.6458 68.4166 56.8567 68.3463C57.0501 68.2804 57.2478 68.1837 57.45 68.0563C57.9993 67.6564 58.4343 67.1202 58.7551 66.4479C58.9573 66.0128 59.0957 65.6481 59.1704 65.3536C59.2451 65.0504 59.2825 64.7538 59.2825 64.4637C59.2825 64.266 59.2605 64.1166 59.2166 64.0155C59.1726 63.9232 59.1001 63.8408 58.999 63.7683C58.898 63.6958 58.798 63.6288 58.6991 63.5673C58.6002 63.5057 58.5508 63.4442 58.5508 63.3827C58.5464 63.3519 58.5288 63.3299 58.4981 63.3168C58.4673 63.3036 58.4332 63.297 58.3959 63.297C58.3585 63.297 58.3212 63.3036 58.2838 63.3168C58.2465 63.3299 58.219 63.3519 58.2014 63.3827C58.1047 63.5585 58.0223 63.7441 57.9542 63.9397C57.8861 64.1352 57.8521 64.3099 57.8521 64.4637C57.8521 64.6791 58.0125 64.8614 58.3333 65.0109C58.6497 65.1559 58.8079 65.2657 58.8079 65.3404C58.8079 65.714 58.6057 66.0699 58.2014 66.4083C57.7268 66.8038 57.1379 67.0016 56.4348 67.0016C56.0437 67.0016 55.7251 66.9203 55.479 66.7577C55.145 66.5248 54.978 66.1381 54.978 65.5975C54.978 65.3119 55.0813 64.9076 55.2878 64.3846C55.4065 64.099 55.6218 63.5958 55.9338 62.8751C55.969 62.796 55.9976 62.7015 56.0195 62.5917C56.0415 62.4994 56.0283 62.4488 55.98 62.4401C55.9448 62.4357 55.8943 62.4928 55.8284 62.6114C55.802 62.673 55.7679 62.7433 55.7262 62.8224C55.6845 62.9015 55.6372 62.9894 55.5845 63.0861C55.5098 63.2443 55.4482 63.3728 55.3999 63.4717L55.3356 63.601C55.317 63.6378 55.301 63.6683 55.2878 63.6925C55.2 63.8946 55.0945 64.1429 54.9714 64.4374C54.8572 64.723 54.7473 65.0614 54.6418 65.4525C54.5364 65.8568 54.4836 66.1842 54.4836 66.4347C54.4836 66.9972 54.6133 67.4586 54.8726 67.819C55.1758 68.2408 55.6108 68.4518 56.1777 68.4518ZM53.5344 59.098C53.6047 59.098 53.7168 58.9662 53.8706 58.7025C54.0244 58.4388 54.1013 58.2367 54.1013 58.0961C54.0881 57.9906 53.9893 57.8445 53.8047 57.6577C53.6201 57.4709 53.4795 57.3973 53.3828 57.4369C53.3345 57.4369 53.2279 57.5984 53.0631 57.9214C52.8983 58.2444 52.8159 58.4542 52.8159 58.5509C52.8159 58.5992 52.8489 58.6454 52.9148 58.6893C52.9895 58.7421 53.1049 58.8201 53.2609 58.9233C53.4169 59.0266 53.5081 59.0848 53.5344 59.098ZM52.9939 64.6219C53.1653 64.4462 53.307 64.2781 53.4191 64.1177C53.5311 63.9573 53.6377 63.7441 53.7388 63.4783C53.8398 63.2124 53.8904 62.9366 53.8904 62.651C53.8904 62.2819 53.8047 61.9874 53.6333 61.7677C53.4663 61.548 53.2598 61.4381 53.0137 61.4381C52.9214 61.4381 52.8269 61.526 52.7302 61.7018C52.6335 61.8776 52.5654 62.0006 52.5259 62.0709C52.4644 62.2028 52.4028 62.3368 52.3413 62.473C52.2578 62.662 52.2161 62.7784 52.2161 62.8224C52.2161 62.9498 52.2578 63.0487 52.3413 63.119C52.4248 63.1937 52.5193 63.2311 52.6248 63.2311C52.6819 63.2311 52.7456 63.2267 52.8159 63.2179C52.8774 63.2047 52.9302 63.1849 52.9741 63.1586C53.0269 63.1586 53.0862 63.2069 53.1521 63.3036C53.2136 63.4003 53.2444 63.475 53.2444 63.5277C53.2444 63.598 53.1609 63.6925 52.9939 63.8111C52.9412 63.8859 52.906 63.9661 52.8884 64.0517C52.8709 64.1374 52.8643 64.2187 52.8687 64.2956C52.873 64.3726 52.8862 64.4418 52.9082 64.5033C52.9302 64.5648 52.9587 64.6044 52.9939 64.6219ZM47.938 68.4847C47.9863 68.5111 48.0588 68.5001 48.1555 68.4518C48.2698 68.399 48.4412 68.3155 48.6697 68.2013C48.8279 68.1222 48.9707 68.0453 49.0981 67.9706C49.6519 67.6014 50.1506 67.1334 50.5945 66.5665C50.8098 66.3028 51.0658 65.9886 51.3624 65.6239C51.6591 65.2591 51.9238 65.0306 52.1567 64.9383C52.2139 64.912 52.3611 64.8549 52.5984 64.767C52.8357 64.6791 52.9675 64.6307 52.9939 64.6219C53.0422 64.4857 53.0686 64.3473 53.073 64.2067C53.0774 64.066 53.051 63.9254 52.9939 63.7848C52.9456 63.8024 52.895 63.8221 52.8423 63.8441C52.5566 63.9584 52.3831 64.0309 52.3215 64.0616C52.1589 64.1363 51.9963 64.2308 51.8337 64.3451C51.6755 64.4725 51.5107 64.6329 51.3394 64.8263C51.2207 64.9713 51.0625 65.1822 50.8647 65.4591C50.5176 65.9645 50.2891 66.2831 50.1792 66.4149C50.0254 66.6083 49.9023 66.7445 49.8101 66.8236C49.7266 66.9291 49.5837 67.0763 49.3816 67.2653C49.3113 67.34 49.096 67.5201 48.7356 67.8058L48.1819 68.2013C48.1379 68.2364 48.0984 68.2672 48.0632 68.2936C48.0281 68.3243 47.9973 68.3485 47.9709 68.3661C47.927 68.41 47.916 68.4496 47.938 68.4847ZM48.729 66.2501C49.063 66.2501 49.3289 66.0392 49.5266 65.6173C49.6672 65.2965 49.7376 64.9713 49.7376 64.6417C49.7288 64.5538 49.6914 64.4396 49.6255 64.2989C49.5552 64.1671 49.4673 64.121 49.3618 64.1605C49.3179 64.2045 49.2629 64.3319 49.197 64.5428C49.1355 64.7582 49.0916 64.868 49.0652 64.8724C48.9158 64.8724 48.7861 64.7977 48.6763 64.6483C48.5576 64.5033 48.4983 64.2858 48.4983 63.9957V63.7716C48.4456 63.754 48.3851 63.776 48.317 63.8375C48.2489 63.899 48.1863 63.9825 48.1292 64.088C48.072 64.1935 48.0248 64.3121 47.9874 64.444C47.9501 64.5758 47.9314 64.701 47.9314 64.8197C47.9314 65.1053 47.949 65.3426 47.9841 65.5316C48.0193 65.7118 48.105 65.8766 48.2412 66.026C48.3774 66.1754 48.54 66.2501 48.729 66.2501ZM47.9248 64.8197C48.0215 64.8329 48.1039 64.8164 48.172 64.7703C48.2401 64.7241 48.2961 64.6538 48.3401 64.5593C48.384 64.4648 48.4192 64.3506 48.4456 64.2165C48.4719 64.0825 48.4895 63.932 48.4983 63.765C48.4983 63.7386 48.5093 63.5848 48.5313 63.3036C48.5532 63.0223 48.6126 62.5038 48.7092 61.7479C48.8059 60.9921 48.8608 60.4801 48.874 60.212C48.874 60.1769 48.8619 60.1549 48.8378 60.1461C48.8136 60.1373 48.7905 60.1593 48.7686 60.212C48.5532 60.7569 48.4104 61.1371 48.3401 61.3524C48.2039 62.0951 48.1017 62.7729 48.0336 63.386C47.9655 63.999 47.9292 64.4769 47.9248 64.8197ZM43.5149 68.5507C44.5125 68.5419 45.3672 68.0563 46.0791 67.0939C46.7998 66.1007 47.1997 64.9142 47.2788 63.5343C47.2876 63.0069 47.2964 62.6466 47.3052 62.4532C47.314 62.2599 47.3206 62.1291 47.325 62.061C47.3293 61.9929 47.3162 61.9589 47.2854 61.9589C47.2415 61.9589 47.1876 62.0248 47.1239 62.1566C47.0602 62.2884 46.98 62.5005 46.8833 62.7927C46.7866 63.085 46.7295 63.3519 46.7119 63.5936L46.7124 63.7207C46.713 63.7977 46.7139 63.8949 46.7152 64.0122C46.7174 64.2078 46.7185 64.3693 46.7185 64.4967C46.7185 64.8307 46.679 65.0987 46.5999 65.3009C46.3933 65.881 46.0286 66.3446 45.5056 66.6918C44.9783 66.995 44.429 67.1466 43.8577 67.1466C43.3918 67.129 43.0172 67.0104 42.7338 66.7906C42.4503 66.5709 42.2998 66.2501 42.2822 65.8282C42.291 65.2657 42.491 64.5978 42.8821 63.8243C42.9084 63.7452 42.9106 63.6672 42.8887 63.5903C42.8667 63.5134 42.7986 63.5804 42.6843 63.7914C42.0911 64.8417 41.7966 65.8151 41.801 66.7115C41.8186 67.2784 41.979 67.7212 42.2822 68.0398C42.5855 68.3584 42.9963 68.5287 43.5149 68.5507ZM44.6685 65.2877C44.7124 65.2877 44.7717 65.2526 44.8464 65.1822C44.9607 65.0724 45.0519 64.9526 45.12 64.823C45.1881 64.6934 45.2376 64.5758 45.2683 64.4703C45.2991 64.3649 45.3057 64.2682 45.2881 64.1803C45.2705 64.0704 45.2299 63.9759 45.1661 63.8968C45.1024 63.8177 45.0123 63.7331 44.8959 63.6431C44.7794 63.553 44.6816 63.475 44.6025 63.409C44.4663 63.6332 44.3663 63.8024 44.3026 63.9166C44.2389 64.0309 44.1631 64.1869 44.0752 64.3846C44.0488 64.4462 44.0071 64.5362 43.95 64.6549C43.95 64.6901 43.9774 64.734 44.0324 64.7867C44.0873 64.8395 44.1532 64.8977 44.2301 64.9614C44.307 65.0251 44.3927 65.0955 44.4872 65.1724C44.5817 65.2493 44.6421 65.2877 44.6685 65.2877ZM37.8818 63.4177L37.9316 63.4156C38.0503 63.3981 38.1909 63.3585 38.3535 63.297C38.4326 63.2706 38.5018 63.2465 38.5612 63.2245C38.6205 63.2025 38.6699 63.1849 38.7095 63.1717C38.916 63.0926 39.0281 63.0465 39.0457 63.0333C39.1687 62.9806 39.3027 62.9125 39.4478 62.829C39.606 62.7367 39.7883 62.6027 39.9949 62.4269C40.1003 62.339 40.2058 62.2489 40.3113 62.1566C40.4168 62.0643 40.5222 61.9654 40.6277 61.86L41.5308 60.9767C41.5747 60.9327 41.6406 60.8789 41.7285 60.8152C41.8164 60.7515 41.8801 60.7064 41.9197 60.68C41.9504 60.6625 42.012 60.5922 42.1043 60.4691C42.1877 60.3592 42.2537 60.267 42.302 60.1923C42.3459 60.1132 42.3679 60.0362 42.3679 59.9615C42.3679 59.878 42.3262 59.8473 42.2427 59.8693L42.2485 59.8691L42.2358 59.8753C42.2162 59.885 42.1792 59.9023 42.1248 59.9274L42.0647 59.9549C41.9768 59.9945 41.8669 60.0143 41.7351 60.0143C41.5989 60.0143 41.4363 59.9879 41.2473 59.9352C40.9749 59.8561 40.7046 59.7704 40.4365 59.6781C40.3398 59.6605 40.23 59.6891 40.1069 59.7638C39.9751 59.8517 39.8477 59.9857 39.7246 60.1659C39.6191 60.3153 39.5532 60.423 39.5269 60.4889C39.4917 60.5636 39.4939 60.6031 39.5334 60.6075C39.5598 60.6207 39.6367 60.5636 39.7642 60.4361C39.8564 60.3439 39.9476 60.2867 40.0377 60.2648C40.1278 60.2428 40.2388 60.2582 40.3706 60.3109L41.1946 60.6471C40.9221 60.9591 40.7156 61.1854 40.575 61.326C40.3728 61.5194 40.219 61.6622 40.1135 61.7545C39.9773 61.8776 39.7949 62.016 39.5664 62.1698C39.3379 62.3236 39.1292 62.4466 38.9402 62.5389C38.1755 62.8905 37.7932 63.1652 37.7932 63.3629C37.7932 63.4069 37.8394 63.4244 37.9316 63.4156L37.8818 63.4177ZM37.2725 58.9728C37.3428 58.9728 37.4548 58.8409 37.6086 58.5773C37.7625 58.3136 37.8394 58.1114 37.8394 57.9708C37.8262 57.8653 37.7273 57.7192 37.5427 57.5325C37.3582 57.3457 37.2175 57.2721 37.1209 57.3116C37.0725 57.3116 36.9659 57.4731 36.8011 57.7961C36.6364 58.1191 36.554 58.329 36.554 58.4257C36.554 58.474 36.5869 58.5201 36.6528 58.5641C36.7275 58.6168 36.8429 58.6948 36.9989 58.7981C37.1549 58.9014 37.2461 58.9596 37.2725 58.9728ZM36.7649 63.7452C36.9583 63.7452 37.1516 63.7255 37.345 63.6859C37.5295 63.6464 37.7031 63.576 37.8657 63.475C38.3096 63.2069 38.6787 62.8553 38.9731 62.4203C39.3423 61.8885 39.5269 61.4447 39.5269 61.0887C39.5269 60.9261 39.4719 60.8053 39.3621 60.7262C39.2566 60.6427 39.1313 60.6009 38.9863 60.6009C38.8897 60.6009 38.771 60.6295 38.6304 60.6866C38.4941 60.7482 38.3711 60.8382 38.2612 60.9569C38.1514 61.0756 38.0107 61.2535 37.8394 61.4908C37.7603 61.6095 37.668 61.7424 37.5625 61.8896C37.457 62.0369 37.3428 62.1962 37.2197 62.3675C37.1055 62.3719 36.9912 62.3774 36.877 62.384C36.7627 62.3906 36.6484 62.4027 36.5342 62.4203C36.4727 62.6444 36.4518 62.8652 36.4716 63.0828C36.4913 63.3003 36.5122 63.5211 36.5342 63.7452H36.7649ZM37.6454 62.3829L37.5032 62.3807C37.5691 62.2928 37.6361 62.2028 37.7042 62.1105C37.7723 62.0182 37.8394 61.9237 37.9053 61.827C38.1426 61.515 38.3733 61.359 38.5974 61.359C38.7073 61.3458 38.8193 61.3656 38.9336 61.4183C39.0391 61.4667 39.0918 61.5084 39.0918 61.5436C39.0918 61.6359 39.0347 61.7435 38.9204 61.8666C38.7534 62.0599 38.5205 62.2137 38.2217 62.328C38.0898 62.3719 37.8503 62.3895 37.5032 62.3807L37.6454 62.3829ZM30.5356 68.2672C30.584 68.298 30.6455 68.298 30.7202 68.2672C30.7598 68.254 30.7949 68.2408 30.8257 68.2277C30.8521 68.2189 30.874 68.2101 30.8916 68.2013C31.0938 68.1178 31.2827 68.0244 31.4585 67.9211C31.6343 67.8179 31.8254 67.6915 32.032 67.5421C32.2385 67.3927 32.5 67.1631 32.8164 66.8533C33.1328 66.5434 33.4437 66.1743 33.7491 65.7458C34.0546 65.3174 34.316 64.9647 34.5336 64.6879C34.7511 64.411 35.0225 64.1825 35.3477 64.0023C35.5718 63.8968 35.7476 63.8265 35.875 63.7914C36.02 63.7518 36.1508 63.732 36.2672 63.732C36.3837 63.732 36.4727 63.7364 36.5342 63.7452C36.5781 63.6573 36.6188 63.5596 36.6561 63.4519C36.6935 63.3442 36.7166 63.2333 36.7253 63.119C36.7341 63.0048 36.7253 62.8883 36.699 62.7696C36.6726 62.651 36.6177 62.5345 36.5342 62.4203C36.4858 62.4291 36.4386 62.4379 36.3925 62.4466C36.3463 62.4554 36.2991 62.4708 36.2507 62.4928C35.9695 62.5983 35.6729 62.7609 35.3608 62.9806C35.0488 63.2003 34.7258 63.5167 34.3918 63.9298C34.2776 64.066 34.0249 64.4176 33.6338 64.9845C33.5283 65.1559 33.4163 65.3207 33.2976 65.4789C33.0471 65.8744 32.7824 66.2226 32.5033 66.5237C32.2242 66.8247 31.9518 67.0818 31.6859 67.2949C31.42 67.508 31.1816 67.6827 30.9707 67.819C30.7861 67.964 30.6609 68.0716 30.595 68.142C30.5422 68.2035 30.5225 68.2452 30.5356 68.2672ZM27.7144 62.5389C27.855 62.5389 28.0439 62.2994 28.2813 61.8204C28.3779 61.8907 28.49 61.9896 28.6174 62.1171C28.7449 62.2445 28.8328 62.3082 28.8811 62.3082C28.9558 62.3082 29.0723 62.1962 29.2305 61.972C29.3931 61.7435 29.4744 61.5458 29.4744 61.3788C29.4656 61.2382 29.3854 61.0876 29.2338 60.9272C29.0822 60.7668 28.9514 60.6866 28.8416 60.6866C28.8064 60.6866 28.735 60.7767 28.6273 60.9569C28.5197 61.1371 28.4219 61.2997 28.334 61.4447C28.2593 61.3392 28.1505 61.2173 28.0077 61.0788C27.8649 60.9404 27.7561 60.8866 27.6814 60.9174C27.6418 60.9174 27.532 61.0865 27.3518 61.4249C27.1716 61.7633 27.0815 61.9611 27.0815 62.0182C27.0815 62.0445 27.1464 62.1105 27.276 62.2159C27.4056 62.3214 27.5012 62.4005 27.5627 62.4532C27.6287 62.5104 27.6792 62.5389 27.7144 62.5389ZM26.9695 66.2501C27.4353 66.2501 27.9165 66.2205 28.4131 66.1611C28.9097 66.1018 29.4128 66.0062 29.9226 65.8744C30.2566 65.7821 30.5642 65.6788 30.8455 65.5646C31.1663 65.4195 31.4541 65.2613 31.709 65.09C31.8892 64.9625 32.0419 64.8087 32.1671 64.6285C32.2924 64.4484 32.4187 64.2067 32.5461 63.9034C32.6428 63.6661 32.7 63.4772 32.7175 63.3365C32.7263 63.2355 32.7131 63.1849 32.678 63.1849C32.6516 63.1849 32.5945 63.2596 32.5066 63.409C32.4187 63.5585 32.3022 63.6936 32.1572 63.8144C32.0122 63.9353 31.7661 64.0682 31.4189 64.2132C31.0718 64.3583 30.684 64.478 30.2555 64.5725C29.827 64.667 29.3788 64.7318 28.9108 64.767C28.4428 64.8021 28.0198 64.8197 27.6418 64.8197C26.5564 64.8109 25.7786 64.6944 25.3084 64.4703C25.0667 64.3341 24.9392 64.1825 24.926 64.0155C24.9128 63.8485 24.9008 63.7266 24.8898 63.6496C24.8788 63.5727 24.8513 63.5343 24.8074 63.5343C24.7634 63.5343 24.7305 63.5662 24.7085 63.6299C24.6865 63.6936 24.6547 63.8265 24.6129 64.0287C24.5712 64.2308 24.5349 64.433 24.5042 64.6351C24.4734 64.8373 24.458 64.9933 24.458 65.1031C24.458 65.38 24.5481 65.5997 24.7283 65.7623C24.926 65.9689 25.26 66.1095 25.7302 66.1842C26.0159 66.2281 26.429 66.2501 26.9695 66.2501ZM22.6255 65.8843C22.6519 65.8996 22.6892 65.8854 22.7375 65.8414C22.7771 65.7975 22.8287 65.7272 22.8925 65.6305C22.9562 65.5338 23.043 65.3393 23.1528 65.0471C23.2627 64.7549 23.3352 64.4198 23.3704 64.0419C23.3923 63.8661 23.4055 63.6507 23.4099 63.3959C23.4143 63.141 23.4209 62.8553 23.4297 62.5389C23.4297 62.4642 23.433 62.35 23.4396 62.1962C23.4462 62.0423 23.4539 61.8852 23.4626 61.7248C23.4714 61.5644 23.4813 61.4194 23.4923 61.2898C23.5033 61.1601 23.5132 61.0778 23.522 61.0426C23.5264 61.0074 23.5132 60.9833 23.4824 60.9701C23.4517 60.9569 23.4165 60.9811 23.377 61.0426C23.3286 61.1393 23.2748 61.2502 23.2155 61.3755C23.1561 61.5007 23.1001 61.6337 23.0474 61.7743C22.9946 61.9149 22.9474 62.0577 22.9056 62.2028C22.8639 62.3478 22.8342 62.4884 22.8167 62.6246C22.7859 62.8575 22.7749 63.1948 22.7837 63.6365C22.7925 64.0781 22.7903 64.4198 22.7771 64.6615C22.7639 64.9032 22.731 65.1526 22.6782 65.4097C22.6716 65.4418 22.6655 65.472 22.6597 65.5002L22.63 65.6465C22.6094 65.749 22.5991 65.803 22.5991 65.8085C22.5903 65.8436 22.5991 65.8689 22.6255 65.8843ZM20.8984 66.2501C21.2324 66.2501 21.4983 66.0392 21.696 65.6173C21.8367 65.2965 21.907 64.9713 21.907 64.6417C21.8982 64.5538 21.8608 64.4396 21.7949 64.2989C21.7246 64.1671 21.6367 64.121 21.5313 64.1605C21.4873 64.2045 21.4324 64.3319 21.3665 64.5428C21.3049 64.7582 21.261 64.868 21.2346 64.8724C21.0852 64.8724 20.9556 64.7977 20.8457 64.6483C20.7271 64.5033 20.6677 64.2858 20.6677 63.9957V63.7716C20.615 63.754 20.5546 63.776 20.4865 63.8375C20.4183 63.899 20.3557 63.9825 20.2986 64.088C20.2415 64.1935 20.1942 64.3121 20.1569 64.444C20.1195 64.5758 20.1008 64.701 20.1008 64.8197C20.1008 65.1053 20.1184 65.3426 20.1536 65.5316C20.1887 65.7118 20.2744 65.8766 20.4106 66.026C20.5469 66.1754 20.7095 66.2501 20.8984 66.2501ZM20.0942 64.8197C20.1909 64.8329 20.2733 64.8164 20.3414 64.7703C20.4095 64.7241 20.4656 64.6538 20.5095 64.5593C20.5535 64.4648 20.5886 64.3506 20.615 64.2165C20.6414 64.0825 20.6589 63.932 20.6677 63.765C20.6677 63.7386 20.6787 63.5848 20.7007 63.3036C20.7227 63.0223 20.782 62.5038 20.8787 61.7479C20.9753 60.9921 21.0303 60.4801 21.0435 60.212C21.0435 60.1769 21.0314 60.1549 21.0072 60.1461C20.983 60.1373 20.96 60.1593 20.938 60.212C20.7227 60.7569 20.5798 61.1371 20.5095 61.3524C20.3733 62.0951 20.2711 62.7729 20.203 63.386C20.1349 63.999 20.0986 64.4769 20.0942 64.8197ZM15.0581 73.0067C15.1196 73.0858 15.1592 72.8935 15.1768 72.4299C15.1943 71.9663 15.2141 71.4181 15.2361 70.7853C15.2581 70.1525 15.3042 69.4746 15.3745 68.7517C15.4448 68.0288 15.536 67.4169 15.6481 66.9159C15.7601 66.4149 15.8909 66.0326 16.0403 65.7689C16.1897 65.514 16.3776 65.28 16.6039 65.0669C16.8302 64.8538 17.0488 64.7021 17.2598 64.6121C17.4707 64.522 17.6729 64.4549 17.8662 64.411C18.0596 64.3671 18.2343 64.3198 18.3903 64.2693C18.5463 64.2187 18.6693 64.1671 18.7594 64.1144C18.8495 64.0616 18.944 63.9814 19.0428 63.8738C19.1417 63.7661 19.2252 63.6442 19.2933 63.5079C19.3615 63.3717 19.4065 63.2651 19.4285 63.1882C19.4504 63.1113 19.4614 63.0201 19.4614 62.9147C19.4614 62.7609 19.3757 62.6554 19.2043 62.5983C19.033 62.5411 18.9077 62.5038 18.8286 62.4862C18.7495 62.4686 18.6331 62.4444 18.4792 62.4137C18.3606 62.3961 18.2925 62.3961 18.2749 62.4137C18.2134 62.4576 18.1409 62.5653 18.0574 62.7367L17.6816 63.4947C17.6465 63.5211 17.5795 63.5607 17.4806 63.6134C17.3817 63.6661 17.2686 63.7353 17.1411 63.821C17.0137 63.9067 16.8719 64.0243 16.7159 64.1737C16.5599 64.3231 16.427 64.4659 16.3171 64.6022C16.093 64.8878 15.8997 65.202 15.7371 65.5448C15.658 65.725 15.5854 65.9051 15.5195 66.0853C15.3042 66.7533 15.168 67.5311 15.1108 68.4188C15.0537 69.3065 15.0186 70.1448 15.0054 70.9336C14.9966 71.4595 14.9917 71.9038 14.9907 72.2666L14.991 72.6022L14.9922 72.7496C14.9922 72.8727 15.0142 72.9584 15.0581 73.0067Z" fill="white"/>
</svg>
