<svg width="92" height="92" viewBox="0 0 92 92" fill="none" xmlns="http://www.w3.org/2000/svg">
<path d="M91 1H1V91H91V1Z" stroke="#55A2E7" stroke-opacity="0.595597"/>
<path d="M50.6786 61.0206C50.2519 60.5735 50.7468 59.751 51.31 60.0729C51.8049 60.3411 51.6001 61.0206 51.1223 61.1636C50.9687 61.11 50.8151 61.0564 50.6786 61.0206ZM50.0471 61.2352C50.4226 60.7524 51.1905 61.3425 50.9346 61.8789C50.8151 62.2544 50.3714 62.2366 50.0813 62.1293C49.9447 61.861 49.757 61.4676 50.0471 61.2352ZM51.3612 62.0577C50.8834 61.6643 51.4977 60.7702 51.9926 61.1458C52.2827 61.2709 52.2657 61.6286 52.2998 61.8968C52.0438 62.1471 51.6513 62.3796 51.3612 62.0577ZM54.7914 61.2173C55.0985 60.8418 55.747 61.2173 55.6788 61.6822C55.6788 62.0935 55.1497 62.3796 54.8426 62.1114C54.5354 61.9504 54.5012 61.414 54.7914 61.2173ZM34.3127 62.6657C34.6882 62.6657 35.0636 62.6657 35.422 62.6657C35.4732 64.5254 35.3025 66.403 35.5073 68.2448C35.7462 68.2806 35.9852 68.3164 36.207 68.1733C36.1899 66.3315 36.207 64.4897 36.207 62.6478C36.5995 62.6478 36.975 62.6478 37.3675 62.6836C37.3333 64.0784 37.3675 65.4732 37.3504 66.8679C37.3504 67.3507 37.3163 67.8335 37.4869 68.2985C37.6064 68.2806 37.8282 68.2627 37.9306 68.2448C38.0842 67.6726 38.033 67.0825 38.033 66.5103C38.033 65.2228 38.033 63.9353 38.033 62.6478C38.4085 62.6478 38.7839 62.6478 39.1764 62.6478C39.1764 64.2393 39.1764 65.8129 39.1764 67.4044C39.1764 67.6905 39.2447 67.9766 39.2959 68.2627C39.4665 68.2448 39.6201 68.2269 39.7908 68.2091C39.8761 66.3672 39.8249 64.5075 39.8249 62.6478C40.2174 62.63 40.6099 62.63 41.0024 62.63C41.0024 64.3287 41.0024 66.0454 41.0024 67.7441C40.9854 68.3879 40.6782 69.121 40.0638 69.3535C39.586 69.586 39.0399 69.425 38.562 69.3177C37.9818 69.5681 37.3504 69.4787 36.8043 69.2104C36.1046 69.6038 35.0636 69.6217 34.5858 68.8528C33.9544 67.5832 34.8076 65.956 33.9032 64.7579C33.34 63.8459 32.0771 63.5419 31.1897 64.1499C30.0293 64.8652 29.7562 66.7249 30.746 67.6726C31.4116 68.4058 32.4526 68.3521 33.3571 68.3342C33.3571 68.7276 33.3571 69.1032 33.3741 69.4966C32.6232 69.4966 31.8382 69.5681 31.1215 69.282C29.8416 68.7992 28.92 67.4223 29.0054 65.9738C28.9883 64.2214 30.5242 62.5942 32.2137 62.6657C32.9816 62.6121 33.7154 62.9339 34.3127 63.4346C34.3127 63.1664 34.3127 62.9161 34.3127 62.6657ZM43.238 62.7015C43.6305 62.6657 44.023 62.6657 44.4155 62.6657C44.4155 64.3645 44.3985 66.0633 44.4155 67.762C44.4155 69.0495 45.6784 70.0866 46.873 69.8363C47.8798 69.6754 48.6307 68.6561 48.6478 67.6011C48.6478 65.956 48.6478 64.3108 48.6478 62.6657C49.0403 62.6657 49.4499 62.6657 49.8424 62.7015C49.8424 64.5612 49.7741 66.403 49.8765 68.2627C50.0471 68.2448 50.4055 68.4236 50.4396 68.1375C50.4908 66.3136 50.4055 64.5075 50.4738 62.6836C50.8492 62.6836 51.2417 62.6836 51.6172 62.6836C51.6172 64.3287 51.6172 65.9738 51.6172 67.619C51.583 67.9051 51.6854 68.1554 51.839 68.3879C51.9585 68.3521 52.1803 68.2627 52.2998 68.2269C52.3169 66.3851 52.3169 64.5254 52.2998 62.6836C52.6923 62.6657 53.0848 62.6657 53.4773 62.6836C53.4432 64.3824 53.4773 66.099 53.4602 67.7978C53.4432 68.4594 53.136 69.1747 52.5046 69.4071C52.0267 69.6217 51.4806 69.4966 51.0028 69.3535C50.4567 69.586 49.8594 69.5502 49.3133 69.3356C48.8184 70.2655 47.931 70.945 46.9071 71.0165C45.1664 71.2847 43.4087 69.8005 43.2892 67.9408C43.2209 66.2063 43.2892 64.4539 43.238 62.7015ZM54.5524 62.6478C54.9279 62.6657 55.3204 62.6657 55.7129 62.6657C55.6958 65.0261 55.7129 67.3865 55.7129 69.7469C55.73 70.6052 55.3204 71.3741 54.7743 72C54.4671 71.7318 54.177 71.4635 53.9039 71.1774C54.2623 70.784 54.5183 70.2655 54.5354 69.7111C54.5524 67.3686 54.4842 65.0082 54.5524 62.6478ZM56.8392 62.6657C57.2317 62.6657 57.6413 62.6657 58.0338 62.7015C57.9997 65.044 58.0338 67.3865 58.0167 69.7469C58.0167 70.5873 57.6413 71.392 57.0952 71.9821C56.771 71.7318 56.4808 71.4635 56.1907 71.1953C56.5832 70.7662 56.8734 70.1939 56.8563 69.5681C56.8392 67.2613 56.8392 64.9725 56.8392 62.6657ZM60.5424 62.9518C61.3104 62.5584 62.1807 62.6657 62.9999 62.6836C62.9828 65.0976 62.9999 67.5117 62.9828 69.9078C62.9657 70.7125 62.5732 71.4278 62.0613 72C61.7712 71.7318 61.481 71.4635 61.1909 71.1953C61.5834 70.7304 61.8565 70.1403 61.8394 69.5144C60.1499 69.5502 58.6652 67.923 58.6823 66.1884C58.614 64.8294 59.4161 63.5598 60.5424 62.9518ZM59.9451 65.3837C59.4332 66.6891 60.4742 68.3521 61.8394 68.3164C61.8394 66.8322 61.8394 65.348 61.8394 63.8638C60.952 63.828 60.2523 64.5969 59.9451 65.3837Z" fill="#7D7E80"/>
<path d="M41.4599 25.2227C44.371 22.8629 48.0742 21.4598 51.8416 21.3535C51.9058 22.7779 51.9914 24.181 52.0128 25.6054C50.0863 25.6479 48.1812 26.1794 46.4688 27.0085C44.949 27.3487 43.4078 27.625 41.995 28.2841C40.7107 28.8368 39.4477 29.5384 38.4203 30.4738C36.8577 31.8769 35.7874 33.7902 35.2308 35.8099C35.3165 34.9808 35.5305 34.1942 35.7874 33.4076C36.8363 30.2187 38.827 27.3274 41.4599 25.2227Z" fill="#016CBA"/>
<path d="M33.3898 24.3721C34.6313 25.1161 35.9585 25.6689 37.2214 26.3705C36.0227 28.4751 35.5732 31.005 35.7658 33.4073C35.509 34.1939 35.2949 34.9805 35.2093 35.8096C34.6742 38.297 34.9096 40.9969 36.1726 43.2504C36.8147 44.5472 37.8422 45.5677 38.8268 46.5881C37.6709 45.8228 36.6863 44.8448 35.7444 43.8457C33.0687 40.8056 31.5061 36.8513 31.4205 32.812C31.3563 29.8995 32.0199 26.9657 33.3898 24.3721Z" fill="#01AB55"/>
<path d="M46.4688 27.03C50.5787 26.5198 54.8812 27.3277 58.3703 29.5812C60.6607 30.9843 62.5444 32.9827 64 35.1936C62.7799 35.9377 61.5598 36.6818 60.3396 37.4471C59.0553 35.5125 57.3643 33.8118 55.2879 32.7275C54.4959 31.8134 53.6183 30.963 52.6336 30.2615C50.857 28.8158 48.6308 27.8804 46.319 27.7528C44.842 27.6253 43.3864 27.9654 41.9736 28.3056C43.3864 27.6253 44.949 27.3702 46.4688 27.03Z" fill="#2D3E50"/>
<path d="M41.9734 28.3057C43.3862 27.9656 44.8418 27.6254 46.3188 27.753C48.6306 27.8806 50.8567 28.816 52.6334 30.2616C53.0401 30.7506 53.4896 31.1758 53.9177 31.6222C56.0583 34.1521 56.8075 37.7024 56.1653 40.9125C55.9727 42.0818 55.6088 43.2086 55.2235 44.3353C54.0462 47.1415 52.1839 49.6927 49.7651 51.5847C46.6827 54.0296 42.744 55.3902 38.784 55.3477C38.784 53.9445 38.7412 52.5202 38.8054 51.117C40.9032 51.0745 43.0223 50.6493 44.8632 49.6501C45.2699 49.4376 45.6552 49.1824 46.0405 48.9486C43.429 49.0974 40.8603 48.1833 38.8054 46.6313C37.7994 45.6109 36.7719 44.5904 36.1511 43.2936C34.8882 41.0401 34.6527 38.3402 35.1879 35.8528C35.7444 33.8332 36.8147 31.9411 38.3773 30.5167C39.4476 29.56 40.6891 28.8585 41.9734 28.3057ZM44.2638 32.1324C41.5881 32.7277 39.362 35.13 39.2763 37.8937C38.891 41.2102 41.6952 44.3991 44.9916 44.6542C47.5389 44.9518 50.1718 43.5062 51.3277 41.2314C52.1411 39.7008 52.2481 37.8087 51.6488 36.193C50.6641 33.2592 47.3034 31.4096 44.2638 32.1324Z" fill="#7D7E80"/>
<path d="M43.5114 35.1719C43.2117 35.2782 42.9334 35.4057 42.6552 35.5333C43.2545 37.6167 43.4686 39.8064 43.4258 41.9961H44.3676C44.389 41.2308 44.389 40.4655 44.282 39.7214C44.9241 39.9765 45.6519 39.8915 46.0372 39.2749C46.4653 39.5726 46.9363 39.9552 47.5142 39.8702C48.349 39.8064 48.9698 38.956 48.9056 38.1482C48.8628 37.1065 48.4133 36.1498 47.9423 35.2569C47.6212 35.3845 47.3002 35.5333 47.0219 35.7246C47.45 36.4049 47.7497 37.149 47.8567 37.9356C47.9209 38.3183 47.7497 38.8072 47.3002 38.8285C46.8935 38.7647 46.6366 38.4033 46.5296 38.0419C46.2727 37.1277 46.1657 36.1711 45.9088 35.2357C45.6091 35.3207 45.3094 35.427 45.0098 35.5333C45.0312 36.6388 45.8874 37.8718 45.181 38.8923C44.7743 38.8497 44.3034 38.7222 44.2392 38.2545C44.0465 37.2128 43.8967 36.1711 43.5114 35.1719Z" fill="#7D7E80"/>
<path d="M52.655 30.2607C53.6397 30.9623 54.5173 31.8127 55.3093 32.7268C57.7496 35.4905 59.248 39.0409 59.5476 42.6975C59.8473 45.8651 59.1623 49.0753 57.7924 51.924C56.5509 51.3075 55.3093 50.6697 54.0464 50.117C54.0678 49.8619 54.1106 49.6068 54.2176 49.3729C54.9026 47.8422 55.2879 46.1628 55.3093 44.4833L55.2451 44.3344C55.6304 43.2077 55.9943 42.081 56.187 40.9117C56.8291 37.7015 56.0799 34.1725 53.9394 31.6213C53.5113 31.1536 53.0403 30.7284 52.655 30.2607Z" fill="#EF0D19"/>
<path d="M27.5248 41.8898C28.6807 41.0182 29.965 40.3166 31.1423 39.5088C32.3196 41.2946 33.9036 42.804 35.7659 43.867C36.7078 44.8662 37.6924 45.8441 38.8483 46.6094C40.9033 48.1614 43.4719 49.0755 46.0834 48.9267C45.6981 49.1818 45.3128 49.4157 44.9061 49.6283C38.9768 50.4999 32.6407 48.2039 28.8305 43.5481C28.3596 43.0378 27.9743 42.4426 27.5248 41.8898Z" fill="#FEF302"/>
</svg>
