<svg width="37" height="51" viewBox="0 0 37 51" fill="none" xmlns="http://www.w3.org/2000/svg">
<path d="M23.6787 40.0206C23.2521 39.5735 23.747 38.751 24.3101 39.0729C24.805 39.3411 24.6002 40.0206 24.1224 40.1636C23.9688 40.11 23.8152 40.0564 23.6787 40.0206ZM23.0473 40.2352C23.4227 39.7524 24.1907 40.3425 23.9347 40.8789C23.8152 41.2544 23.3715 41.2366 23.0814 41.1293C22.9449 40.861 22.7572 40.4676 23.0473 40.2352ZM24.3613 41.0577C23.8835 40.6643 24.4978 39.7702 24.9927 40.1458C25.2828 40.2709 25.2658 40.6286 25.2999 40.8968C25.0439 41.1471 24.6514 41.3796 24.3613 41.0577ZM27.7915 40.2173C28.0987 39.8418 28.7472 40.2173 28.6789 40.6822C28.6789 41.0935 28.1499 41.3796 27.8427 41.1114C27.5355 40.9504 27.5014 40.414 27.7915 40.2173ZM7.31285 41.6657C7.68829 41.6657 8.06373 41.6657 8.42211 41.6657C8.47331 43.5254 8.30265 45.403 8.50744 47.2448C8.74636 47.2806 8.98527 47.3164 9.20713 47.1733C9.19006 45.3315 9.20713 43.4897 9.20713 41.6478C9.59963 41.6478 9.97507 41.6478 10.3676 41.6836C10.3334 43.0784 10.3676 44.4732 10.3505 45.8679C10.3505 46.3507 10.3164 46.8335 10.487 47.2985C10.6065 47.2806 10.8283 47.2627 10.9307 47.2448C11.0843 46.6726 11.0331 46.0825 11.0331 45.5103C11.0331 44.2228 11.0331 42.9353 11.0331 41.6478C11.4086 41.6478 11.784 41.6478 12.1765 41.6478C12.1765 43.2393 12.1765 44.8129 12.1765 46.4044C12.1765 46.6905 12.2448 46.9766 12.296 47.2627C12.4666 47.2448 12.6202 47.2269 12.7909 47.2091C12.8762 45.3672 12.825 43.5075 12.825 41.6478C13.2175 41.63 13.61 41.63 14.0025 41.63C14.0025 43.3287 14.0025 45.0454 14.0025 46.7441C13.9855 47.3879 13.6783 48.121 13.0639 48.3535C12.5861 48.586 12.04 48.425 11.5622 48.3177C10.9819 48.5681 10.3505 48.4787 9.80442 48.2104C9.10473 48.6038 8.06374 48.6217 7.5859 47.8528C6.95448 46.5832 7.80775 44.956 6.90328 43.7579C6.34012 42.8459 5.07727 42.5419 4.18986 43.1499C3.02941 43.8652 2.75636 45.7249 3.74616 46.6726C4.41171 47.4058 5.45271 47.3521 6.35718 47.3342C6.35718 47.7276 6.35718 48.1032 6.37425 48.4966C5.62336 48.4966 4.83835 48.5681 4.1216 48.282C2.84168 47.7992 1.92015 46.4223 2.00547 44.9738C1.98841 43.2214 3.52431 41.5942 5.21379 41.6657C5.98174 41.6121 6.71556 41.9339 7.31285 42.4346C7.31285 42.1664 7.31285 41.9161 7.31285 41.6657ZM16.2381 41.7015C16.6306 41.6657 17.0231 41.6657 17.4156 41.6657C17.4156 43.3645 17.3986 45.0633 17.4156 46.762C17.4156 48.0495 18.6785 49.0866 19.8731 48.8363C20.8799 48.6754 21.6308 47.6561 21.6479 46.6011C21.6479 44.956 21.6479 43.3108 21.6479 41.6657C22.0404 41.6657 22.45 41.6657 22.8425 41.7015C22.8425 43.5612 22.7742 45.403 22.8766 47.2627C23.0473 47.2448 23.4056 47.4236 23.4398 47.1375C23.491 45.3136 23.4056 43.5075 23.4739 41.6836C23.8493 41.6836 24.2419 41.6836 24.6173 41.6836C24.6173 43.3287 24.6173 44.9738 24.6173 46.619C24.5832 46.9051 24.6856 47.1554 24.8391 47.3879C24.9586 47.3521 25.1805 47.2627 25.2999 47.2269C25.317 45.3851 25.317 43.5254 25.2999 41.6836C25.6924 41.6657 26.0849 41.6657 26.4774 41.6836C26.4433 43.3824 26.4774 45.099 26.4604 46.7978C26.4433 47.4594 26.1361 48.1747 25.5047 48.4071C25.0269 48.6217 24.4808 48.4966 24.0029 48.3535C23.4568 48.586 22.8595 48.5502 22.3134 48.3356C21.8185 49.2655 20.9311 49.945 19.9072 50.0165C18.1665 50.2847 16.4088 48.8005 16.2893 46.9408C16.2211 45.2063 16.2893 43.4539 16.2381 41.7015ZM27.5526 41.6478C27.928 41.6657 28.3205 41.6657 28.713 41.6657C28.696 44.0261 28.713 46.3865 28.713 48.7469C28.7301 49.6052 28.3205 50.3741 27.7744 51C27.4672 50.7318 27.1771 50.4635 26.9041 50.1774C27.2624 49.784 27.5184 49.2655 27.5355 48.7111C27.5526 46.3686 27.4843 44.0082 27.5526 41.6478ZM29.8393 41.6657C30.2319 41.6657 30.6414 41.6657 31.0339 41.7015C30.9998 44.044 31.0339 46.3865 31.0169 48.7469C31.0169 49.5873 30.6414 50.392 30.0953 50.9821C29.7711 50.7318 29.481 50.4635 29.1909 50.1953C29.5834 49.7662 29.8735 49.1939 29.8564 48.5681C29.8393 46.2613 29.8393 43.9725 29.8393 41.6657ZM33.5426 41.9518C34.3105 41.5584 35.1809 41.6657 36 41.6836C35.9829 44.0976 36 46.5117 35.9829 48.9078C35.9659 49.7125 35.5734 50.4278 35.0614 51C34.7713 50.7318 34.4812 50.4635 34.1911 50.1953C34.5836 49.7304 34.8566 49.1403 34.8395 48.5144C33.1501 48.5502 31.6654 46.923 31.6824 45.1884C31.6142 43.8294 32.4162 42.5598 33.5426 41.9518ZM32.9453 44.3837C32.4333 45.6891 33.4743 47.3521 34.8395 47.3164C34.8395 45.8322 34.8395 44.348 34.8395 42.8638C33.9521 42.828 33.2524 43.5969 32.9453 44.3837Z" fill="#7D7E80"/>
<path d="M14.46 4.22248C17.3711 1.86269 21.0743 0.459568 24.8417 0.353271C24.9059 1.77765 24.9915 3.18077 25.0129 4.60514C23.0864 4.64766 21.1813 5.17915 19.4689 6.00826C17.9491 6.34841 16.4079 6.62478 14.9951 7.28382C13.7108 7.83657 12.4479 8.53813 11.4204 9.47354C9.85778 10.8767 8.7875 12.79 8.23096 14.8096C8.31658 13.9805 8.53064 13.1939 8.7875 12.4073C9.83638 9.21843 11.8271 6.32715 14.46 4.22248Z" fill="#016CBA"/>
<path d="M6.38982 3.37207C7.63135 4.11615 8.9585 4.66889 10.2214 5.37045C9.02272 7.47513 8.5732 10.005 8.76585 12.4073C8.50898 13.1939 8.29492 13.9805 8.2093 14.8096C7.67416 17.297 7.90962 19.9969 9.17255 22.2504C9.81472 23.5472 10.8422 24.5677 11.8268 25.5881C10.6709 24.8228 9.68629 23.8448 8.74444 22.8457C6.06874 19.8056 4.50613 15.8513 4.42051 11.812C4.35629 8.89951 5.01987 5.96571 6.38982 3.37207Z" fill="#01AB55"/>
<path d="M19.4688 6.02954C23.5787 5.51932 27.8812 6.32717 31.3703 8.58067C33.6607 9.98378 35.5444 11.9822 37 14.1931C35.7799 14.9372 34.5598 15.6813 33.3396 16.4466C32.0553 14.512 30.3643 12.8113 28.2879 11.7271C27.4959 10.8129 26.6183 9.96252 25.6336 9.26097C23.857 7.81533 21.6308 6.87992 19.319 6.75236C17.842 6.6248 16.3864 6.96495 14.9736 7.3051C16.3864 6.6248 17.949 6.36969 19.4688 6.02954Z" fill="#2D3E50"/>
<path d="M14.9736 7.30526C16.3863 6.96511 17.8419 6.62496 19.3189 6.75252C21.6307 6.88007 23.8569 7.81548 25.6335 9.26112C26.0402 9.75009 26.4898 10.1753 26.9179 10.6217C29.0584 13.1516 29.8076 16.7019 29.1654 19.9121C28.9728 21.0813 28.6089 22.2081 28.2236 23.3348C27.0463 26.1411 25.184 28.6922 22.7652 30.5843C19.6828 33.0291 15.7442 34.3897 11.7841 34.3472C11.7841 32.944 11.7413 31.5197 11.8055 30.1166C13.9033 30.074 16.0224 29.6488 17.8633 28.6497C18.27 28.4371 18.6553 28.182 19.0406 27.9481C16.4291 28.0969 13.8605 27.1828 11.8055 25.6308C10.7995 24.6104 9.77201 23.5899 9.15124 22.2931C7.88831 20.0396 7.65285 17.3397 8.18799 14.8523C8.74454 12.8327 9.81482 10.9406 11.3774 9.51623C12.4477 8.55956 13.6892 7.858 14.9736 7.30526ZM17.264 11.1319C14.5883 11.7272 12.3621 14.1295 12.2765 16.8932C11.8912 20.2097 14.6953 23.3986 17.9917 23.6537C20.539 23.9513 23.1719 22.5057 24.3278 20.231C25.1412 18.7003 25.2482 16.8082 24.6489 15.1925C23.6642 12.2587 20.3035 10.4091 17.264 11.1319Z" fill="#7D7E80"/>
<path d="M16.5115 14.1719C16.2118 14.2782 15.9335 14.4057 15.6553 14.5333C16.2546 16.6167 16.4687 18.8064 16.4259 20.9961H17.3677C17.3891 20.2308 17.3891 19.4655 17.2821 18.7214C17.9243 18.9765 18.6521 18.8915 19.0374 18.2749C19.4655 18.5726 19.9364 18.9552 20.5143 18.8702C21.3492 18.8064 21.9699 17.956 21.9057 17.1482C21.8629 16.1065 21.4134 15.1498 20.9425 14.2569C20.6214 14.3845 20.3003 14.5333 20.022 14.7246C20.4501 15.4049 20.7498 16.149 20.8568 16.9356C20.921 17.3183 20.7498 17.8072 20.3003 17.8285C19.8936 17.7647 19.6367 17.4033 19.5297 17.0419C19.2728 16.1277 19.1658 15.1711 18.9089 14.2357C18.6092 14.3207 18.3096 14.427 18.0099 14.5333C18.0313 15.6388 18.8875 16.8718 18.1811 17.8923C17.7744 17.8497 17.3035 17.7222 17.2393 17.2545C17.0466 16.2128 16.8968 15.1711 16.5115 14.1719Z" fill="#7D7E80"/>
<path d="M25.655 9.26099C26.6397 9.96255 27.5173 10.8129 28.3093 11.7271C30.7496 14.4908 32.248 18.0411 32.5476 21.6977C32.8473 24.8654 32.1623 28.0755 30.7924 30.9243C29.5509 30.3078 28.3093 29.67 27.0464 29.1172C27.0678 28.8621 27.1106 28.607 27.2176 28.3732C27.9026 26.8425 28.2879 25.163 28.3093 23.4835L28.2451 23.3347C28.6304 22.2079 28.9943 21.0812 29.187 19.9119C29.8291 16.7018 29.0799 13.1727 26.9394 10.6216C26.5113 10.1539 26.0403 9.72869 25.655 9.26099Z" fill="#EF0D19"/>
<path d="M0.524902 20.8898C1.6808 20.0182 2.96514 19.3166 4.14244 18.5088C5.31975 20.2946 6.90377 21.804 8.76605 22.867C9.7079 23.8662 10.6926 24.8441 11.8485 25.6094C13.9034 27.1614 16.4721 28.0755 19.0835 27.9267C18.6982 28.1818 18.3129 28.4157 17.9062 28.6283C11.9769 29.4999 5.64084 27.2039 1.83064 22.5481C1.35972 22.0378 0.97442 21.4426 0.524902 20.8898Z" fill="#FEF302"/>
</svg>
