<svg width="92" height="92" viewBox="0 0 92 92" fill="none" xmlns="http://www.w3.org/2000/svg">
<rect x="1" y="1" width="90" height="90" stroke="#55A2E7" stroke-opacity="0.6"/>
<path d="M44.6104 26.6884C44.6428 26.5925 44.7362 26.5977 44.8066 26.5843C45.1826 26.5131 45.5586 26.4315 45.9379 26.3897C46.4947 26.3278 47.0561 26.3196 47.6144 26.365C49.0708 26.4843 50.4289 26.9079 51.6667 27.6818C53.7729 28.9987 55.1265 30.8725 55.7332 33.2814C55.8481 33.7384 55.9355 34.2012 55.9525 34.6749C55.9609 34.9108 55.982 35.1451 55.9982 35.38C56.0094 35.541 55.9668 35.6868 55.9041 35.8353C55.6822 36.3597 55.4581 36.8837 55.2586 37.4168C54.9761 38.1716 54.7573 38.9472 54.5898 39.7353C54.4815 40.2435 54.3834 40.7551 54.3124 41.2697C54.2428 41.7747 54.1944 42.2827 54.1607 42.7929C54.128 43.2942 54.1157 43.7947 54.1236 44.2945C54.129 44.6379 54.1475 44.9816 54.1764 45.3238C54.1944 45.5373 54.1225 45.7002 53.9867 45.8584C52.9716 47.0419 51.8516 48.1102 50.5756 49.0118C48.8166 50.2543 46.9011 51.1626 44.8212 51.7223C44.0627 51.9265 43.2916 52.0804 42.5128 52.1831C42.0647 52.242 41.6165 52.2886 41.1648 52.3046C40.8634 52.3152 40.5626 52.3399 40.2574 52.334C40.5391 52.254 40.8215 52.1764 41.1023 52.0934C42.0627 51.8071 42.9953 51.4346 43.8888 50.9807C46.311 49.7556 48.4082 47.9737 50.0084 45.7812C50.0315 45.7493 50.0579 45.7197 50.0783 45.6863C50.1496 45.57 50.2456 45.5149 50.3879 45.4947C50.786 45.4387 51.0727 45.212 51.2535 44.8572C51.481 44.4107 51.4102 43.9156 51.0741 43.5422C51.0092 43.4701 50.9406 43.4012 50.8653 43.322C50.9505 43.0963 51.0328 42.8772 51.1159 42.6586C51.458 41.7559 51.6958 40.8261 51.8608 39.8755C51.9989 39.0794 52.0642 38.2782 52.0793 37.4723C52.0905 36.8825 52.039 36.2953 51.9806 35.7083C51.881 34.7077 51.6726 33.73 51.3736 32.7715C51.0034 31.5849 50.5055 30.4547 49.85 29.3968C49.27 28.4606 48.4641 27.775 47.4848 27.2849C46.6896 26.8868 45.8456 26.6879 44.9582 26.6696C44.8402 26.6671 44.7223 26.6788 44.6051 26.6844L44.6104 26.6884Z" fill="#00A693"/>
<path d="M40.2726 51.9194C40.3335 51.8752 40.3926 51.8297 40.4556 51.7893C40.9184 51.4917 41.3563 51.1568 41.7646 50.788C42.3087 50.2976 42.7728 49.74 43.1774 49.1339C43.8217 48.1688 44.2733 47.1189 44.5202 45.9821C44.7069 45.1222 44.7752 44.2525 44.7066 43.3772C44.673 42.9483 44.5829 42.5236 44.5149 42.0977C44.4888 41.9346 44.4933 41.9106 44.6308 41.8385C44.7439 41.7795 44.8601 41.7259 44.9748 41.67C47.7036 40.3419 49.5838 37.8311 50.2678 35.1171C50.5742 33.9156 50.6529 32.6673 50.4997 31.4369C50.4937 31.3888 50.4944 31.3399 50.4916 31.283C50.588 31.2999 50.5902 31.3795 50.6138 31.4347C50.9818 32.2922 51.2689 33.1823 51.4713 34.0933C51.7007 35.1227 51.8148 36.1655 51.8309 37.219C51.8402 37.8283 51.7901 38.435 51.7208 39.0406C51.6028 40.0551 51.3796 41.0546 51.0547 42.0229C50.9494 42.3393 50.8267 42.65 50.7104 42.9627C50.6866 43.0272 50.6587 43.0902 50.6269 43.1511C50.5728 43.2544 50.5317 43.28 50.4118 43.251C50.2339 43.2079 50.0646 43.2293 49.8884 43.2657C49.2926 43.3879 48.7745 44.1139 49.0749 44.8315C49.237 45.0357 49.1372 45.2094 49.0205 45.3918C48.185 46.6915 47.164 47.8621 45.9899 48.8664C44.3878 50.2404 42.577 51.2402 40.567 51.8808C40.476 51.9103 40.3829 51.9321 40.2907 51.9575L40.2726 51.9194Z" fill="#00A693"/>
<path d="M55.5107 31.7C55.4492 31.6007 55.3787 31.5059 55.328 31.4013C54.9748 30.676 54.5285 29.9999 54.0003 29.3901C53.2935 28.5712 52.4643 27.901 51.5226 27.3702C49.8679 26.4371 47.9662 26.0356 46.0754 26.2202C44.7142 26.3552 43.4463 26.7657 42.2604 27.4389C41.6283 27.7972 41.0932 28.2677 40.6642 28.8576C40.3959 29.2262 40.1951 29.6284 40.0411 30.0556C40.0149 30.1294 39.9917 30.2031 39.9674 30.2753C39.8927 30.2823 39.9099 30.2262 39.9084 30.197C39.8369 28.1047 40.6393 26.4101 42.2611 25.105C42.9999 24.5108 43.8484 24.1319 44.7795 23.9439C44.8945 23.9207 45.0129 23.9153 45.1296 23.901C45.8456 23.8137 46.562 23.8309 47.2751 23.9209C47.7329 23.98 48.1847 24.079 48.6252 24.2168C50.188 24.7007 51.521 25.5585 52.6725 26.7123C53.4855 27.5272 54.1374 28.4565 54.6557 29.48C54.9668 30.0943 55.2136 30.7362 55.41 31.3967C55.4405 31.5 55.4779 31.6009 55.5123 31.703L55.5107 31.7Z" fill="#00A693"/>
<path d="M42.2436 24.6918C42.2186 24.8082 42.1235 24.8665 42.0405 24.9343C41.2834 25.5519 40.6808 26.2923 40.2659 27.1798C39.8916 27.9802 39.6796 28.8181 39.6579 29.707C39.6396 30.4613 39.7222 31.1998 39.9715 31.9093C40.3006 32.8455 40.9313 33.4909 41.8982 33.7801C42.4269 33.9383 42.927 33.8391 43.4121 33.6104C43.4898 33.5737 43.5636 33.5289 43.6372 33.4889C43.6853 33.5447 43.6409 33.5721 43.6207 33.5963C43.1008 34.2189 42.4436 34.5517 41.6237 34.5629C40.8846 34.5729 40.2659 34.3103 39.7449 33.7934C39.0601 33.1145 38.6551 32.2912 38.4717 31.3518C38.3597 30.7779 38.3521 30.1968 38.4246 29.6215C38.5179 28.8843 38.776 28.1944 39.1543 27.5528C39.84 26.3901 40.7924 25.5061 41.9722 24.8595C42.0661 24.8081 42.1547 24.747 42.2457 24.6904L42.2436 24.6918Z" fill="#00A693"/>
<path d="M41.9036 34.8182C42.055 34.7809 42.2091 34.7518 42.3574 34.7046C43.4447 34.3587 44.1001 33.6162 44.3478 32.5099C44.4352 32.1189 44.3411 31.7488 44.1627 31.4005C44.051 31.1823 43.8655 31.0384 43.633 30.9596C43.5525 30.9323 43.4693 30.9133 43.3392 30.8771C43.8017 30.7826 44.143 30.9082 44.4259 31.2039C44.7531 31.5458 44.9108 31.9645 44.9232 32.4303C44.9474 33.3413 44.5192 34.0068 43.7558 34.4649C43.3282 34.722 42.8548 34.8454 42.3532 34.8482C42.2058 34.8491 42.0591 34.8482 41.912 34.8482C41.909 34.8391 41.9064 34.828 41.9036 34.8182Z" fill="#00A693"/>
<path d="M44.0362 31.8748C44.0638 32.2426 43.7335 32.5599 43.3523 32.5592C42.9642 32.5592 42.6249 32.212 42.6391 31.8558C42.6559 31.4311 42.9355 31.1489 43.3695 31.1551C43.7891 31.161 44.0399 31.4317 44.0362 31.8748Z" fill="#00A693"/>
<path d="M43.0131 33.4991C43.1045 33.3992 43.2047 33.3057 43.2851 33.1976C43.3654 33.0896 43.4287 32.9647 43.5102 32.829C43.7253 32.7546 43.9418 32.6444 44.1082 32.4172C44.0883 32.8537 43.6425 33.3017 43.0131 33.4991Z" fill="#00A693"/>
<path d="M44.6053 26.6839C44.5866 26.688 44.5679 26.6926 44.549 26.6959C44.5394 26.6966 44.5298 26.6966 44.5203 26.6959C44.5316 26.6872 44.5427 26.6717 44.5542 26.6714C44.5734 26.6735 44.5922 26.6788 44.6097 26.687C44.6103 26.6883 44.6053 26.6839 44.6053 26.6839Z" fill="#00A693"/>
<path d="M42.2464 24.6904L42.2838 24.7005L42.2446 24.6916L42.2464 24.6904Z" fill="#00A693"/>
<path d="M55.5131 31.7032C55.5066 31.7074 55.5123 31.7007 55.5107 31.7002C55.5116 31.7011 55.5124 31.7021 55.5131 31.7032Z" fill="#00A693"/>
<path d="M26.3035 66.9219C24.2765 66.9219 22.2495 66.9222 20.2225 66.9228C19.8343 66.9228 19.4629 66.8526 19.1257 66.659C18.4349 66.2617 18.0348 65.676 18.0038 64.8636C17.9983 64.7197 18.0004 64.5756 18.0004 64.4314C18.0004 62.9703 18.0004 61.5092 18.0004 60.0481C18.0004 59.616 18.002 59.6144 18.4244 59.6136C18.8874 59.6127 19.3504 59.6127 19.8134 59.6136C20.1866 59.615 20.1981 59.6252 20.1993 59.9915C20.2005 61.185 20.2005 62.3786 20.1993 63.5722C20.1993 63.85 20.1968 64.1278 20.2004 64.4056C20.2047 64.7534 20.2467 64.798 20.5936 64.7992C21.5197 64.8022 22.4457 64.8022 23.3718 64.7992C23.7195 64.7978 23.7585 64.7552 23.7588 64.4039C23.7604 62.9634 23.7607 61.5229 23.7598 60.0824C23.7598 59.9898 23.7572 59.8972 23.7632 59.8046C23.7718 59.6697 23.8153 59.6298 23.9572 59.6176C24.0083 59.6132 24.06 59.6138 24.1115 59.6138C24.626 59.6138 25.1405 59.6138 25.6549 59.6138C25.7063 59.6138 25.758 59.6138 25.8093 59.6189C25.9307 59.6312 25.9769 59.6738 25.9854 59.791C25.992 59.8836 25.9892 59.9762 25.9892 60.0688C25.9892 61.4579 25.9892 62.8469 25.9892 64.236C25.9892 64.3286 25.9851 64.4221 25.9971 64.5138C26.0064 64.5806 26.0377 64.6425 26.0861 64.6895C26.1345 64.7365 26.1972 64.766 26.2643 64.7733C26.3999 64.7896 26.5135 64.7395 26.5766 64.6211C26.6186 64.5422 26.6384 64.4476 26.65 64.3576C26.6626 64.2562 26.6549 64.1522 26.6549 64.0489C26.6549 61.5795 26.6549 59.11 26.6549 56.6406C26.6549 56.5376 26.6527 56.4344 26.6606 56.3319C26.6694 56.2163 26.7171 56.174 26.8392 56.1621C26.8901 56.1569 26.9418 56.157 26.9935 56.1569C27.4977 56.1569 28.0019 56.1569 28.506 56.1569C28.5266 56.1569 28.5471 56.1569 28.5678 56.1569C28.8086 56.1673 28.8439 56.2032 28.8525 56.4546C28.8558 56.5472 28.8538 56.6398 28.8538 56.7324C28.8538 59.1607 28.8538 61.589 28.8538 64.0173C28.8538 64.1304 28.851 64.2439 28.8573 64.3569C28.8596 64.4286 28.8722 64.4997 28.8947 64.5678C28.941 64.6949 29.0408 64.7639 29.1754 64.7759C29.2427 64.7817 29.3101 64.7655 29.3673 64.7297C29.4246 64.6939 29.4687 64.6404 29.4929 64.5774C29.5207 64.5002 29.5372 64.4195 29.542 64.3376C29.5506 64.225 29.5465 64.1115 29.5465 63.998C29.5465 61.5594 29.5465 59.1208 29.5465 56.6822C29.5465 56.5693 29.5448 56.4557 29.5531 56.3427C29.562 56.2238 29.6108 56.1763 29.7243 56.1624C29.7755 56.1573 29.8271 56.1552 29.8786 56.1561C30.393 56.1561 30.9074 56.1536 31.422 56.1561C31.7152 56.1579 31.7375 56.1839 31.744 56.4729C31.7458 56.5552 31.744 56.6375 31.744 56.7199V64.0665C31.744 64.1695 31.7395 64.2729 31.7477 64.3752C31.7517 64.4466 31.7677 64.5168 31.7952 64.5828C31.8949 64.8037 32.1778 64.8423 32.3241 64.6486C32.3828 64.5714 32.4167 64.465 32.4322 64.3672C32.4524 64.2467 32.445 64.1212 32.445 63.9977C32.4456 61.5591 32.4456 59.1205 32.445 56.6819C32.445 56.5688 32.4434 56.4553 32.4521 56.3424C32.461 56.2237 32.5103 56.1757 32.6231 56.1618C32.6743 56.1565 32.7259 56.1544 32.7774 56.1555C33.2918 56.1555 33.8064 56.1528 34.3208 56.1555C34.6141 56.1573 34.634 56.1791 34.6354 56.4756C34.6381 57.0209 34.6363 57.5661 34.6363 58.1116C34.6363 60.2209 34.6363 62.3303 34.6363 64.4396C34.6363 64.6964 34.6401 64.9531 34.5778 65.2065C34.3572 66.1017 33.7982 66.6508 32.9038 66.8675C32.6905 66.9191 32.476 66.9208 32.2601 66.9208C30.2742 66.9208 28.2884 66.9208 26.3025 66.9208L26.3035 66.9219Z" fill="#00A693"/>
<path d="M55.3669 66.9065C55.5227 66.7676 55.6201 66.6788 55.7207 66.5932C56.449 65.9731 57.1778 65.3536 57.9071 64.7347C58.1583 64.5217 58.2733 64.2583 58.2721 63.9235C58.2655 62.0615 58.269 60.1997 58.269 58.3377C58.269 57.7512 58.269 57.1647 58.269 56.5782C58.269 56.496 58.2667 56.4133 58.2733 56.3313C58.2827 56.2148 58.328 56.1736 58.4513 56.1615C58.5024 56.1564 58.5541 56.1566 58.6056 56.1564C59.2023 56.1564 59.7988 56.1547 60.396 56.1564C60.7297 56.1577 60.7432 56.1719 60.7435 56.5054C60.7447 57.771 60.745 59.0363 60.7445 60.3013C60.7445 60.4039 60.7463 60.5072 60.756 60.61C60.7584 60.6414 60.7718 60.6709 60.794 60.6933C60.8162 60.7156 60.8457 60.7293 60.877 60.7319C60.9488 60.7403 61.0209 60.7441 61.0931 60.7431C61.8648 60.7438 62.6365 60.7438 63.4082 60.7431C63.4701 60.7446 63.5319 60.7422 63.5934 60.7361C63.9714 60.6897 64.229 60.4274 64.262 60.0461C64.2815 59.821 64.2949 59.5947 64.2958 59.3689C64.2995 58.4428 64.2968 57.5168 64.2977 56.5907C64.2977 56.162 64.3034 56.157 64.7254 56.1561C65.1678 56.155 65.6103 56.155 66.0527 56.1561C66.1248 56.1546 66.1969 56.157 66.2688 56.1631C66.3821 56.1753 66.4301 56.2248 66.4413 56.3426C66.449 56.4242 66.4481 56.5068 66.4481 56.5895C66.4481 58.1432 66.4481 59.6966 66.4481 61.2495C66.4481 61.3318 66.4481 61.4142 66.4446 61.4965C66.4188 62.1282 66.0164 62.6636 65.412 62.8524C65.2744 62.8928 65.1317 62.9136 64.9882 62.9141C64.5252 62.9221 64.0622 62.9184 63.5991 62.9186C62.7865 62.9186 61.9739 62.9175 61.1606 62.9186C60.7593 62.9195 60.7468 62.934 60.7456 63.3367C60.7446 63.6556 60.7537 63.9748 60.7429 64.2936C60.7332 64.5807 60.7249 64.8709 60.6772 65.1531C60.529 66.0292 59.8609 66.6614 59.0802 66.8518C58.9107 66.8937 58.7369 66.9158 58.5623 66.9179C57.5745 66.9244 56.5867 66.9219 55.5997 66.9217C55.5483 66.9219 55.4986 66.9156 55.3669 66.9065Z" fill="#00A693"/>
<path d="M35.5779 66.9026C35.6608 66.8144 35.7097 66.7525 35.7683 66.7019C36.1266 66.3932 36.4869 66.0859 36.8464 65.7782C37.2137 65.4639 37.5727 65.1391 37.9506 64.8379C38.3099 64.5513 38.4548 64.1965 38.4526 63.7381C38.4418 61.3821 38.4477 59.0261 38.4477 56.67C38.4477 56.5774 38.4452 56.4848 38.4495 56.3922C38.4583 56.2011 38.4932 56.169 38.6946 56.1582C38.7357 56.1559 38.7769 56.1567 38.8181 56.1567C39.3839 56.1567 39.9499 56.1551 40.5158 56.1567C40.8645 56.1581 40.8765 56.1701 40.8768 56.526C40.8781 57.7711 40.8785 59.0161 40.8782 60.2611C40.877 60.374 40.8837 60.4869 40.8983 60.5989C40.9019 60.6355 40.9187 60.6695 40.9455 60.6946C40.9724 60.7197 41.0074 60.7341 41.0442 60.7352C41.1158 60.7402 41.1878 60.7433 41.2602 60.7433C42.0216 60.7433 42.7831 60.7433 43.5445 60.7433C43.5753 60.7433 43.6062 60.742 43.6371 60.7433C44.0604 60.7538 44.4353 60.4397 44.4421 59.9481C44.4454 59.7218 44.4441 59.4954 44.4441 59.269C44.4441 58.3532 44.4441 57.4375 44.4441 56.5217C44.4441 56.1667 44.452 56.1585 44.8065 56.1572C45.2901 56.1551 45.7736 56.1572 46.2573 56.1572C46.3191 56.156 46.3809 56.1581 46.4425 56.1633C46.5594 56.176 46.6055 56.2218 46.6158 56.3402C46.6229 56.422 46.6216 56.5047 46.6216 56.5872C46.6216 58.0997 46.6216 59.6122 46.6216 61.1248C46.6216 61.2379 46.6121 61.3512 46.6149 61.4643C46.6304 62.1316 46.0176 62.9338 45.1187 62.9201C44.5119 62.9108 43.9047 62.9201 43.2975 62.9201C42.6391 62.9201 41.9805 62.919 41.322 62.9201C40.9116 62.9212 40.8812 62.9523 40.8782 63.357C40.8747 63.8509 40.8782 64.3448 40.8694 64.8387C40.8512 65.9091 40.0067 66.7217 39.1546 66.8664C39.003 66.8921 38.8494 66.9192 38.6966 66.92C37.7295 66.9252 36.7624 66.9235 35.795 66.9231C35.7369 66.9217 35.6791 66.9118 35.5779 66.9026Z" fill="#00A693"/>
<path d="M35.3069 60.034C35.3069 58.8713 35.3069 57.7086 35.3069 56.5459C35.3069 56.1584 35.3081 56.1571 35.7066 56.1564C36.2622 56.1552 36.8178 56.1552 37.3735 56.1564C37.4145 56.1564 37.4557 56.1564 37.4969 56.1564C37.7479 56.1653 37.7726 56.1897 37.7772 56.4496C37.78 56.604 37.7772 56.7583 37.7772 56.9126C37.7772 59.094 37.7772 61.275 37.7772 63.4556C37.7772 63.5586 37.7797 63.6619 37.7703 63.7643C37.7584 63.8915 37.7018 63.9395 37.5696 63.9531C37.5491 63.9549 37.5285 63.9557 37.5079 63.9554C36.8494 63.9554 36.1909 63.9554 35.5324 63.9554C35.5013 63.9554 35.4704 63.9529 35.4397 63.9478C35.36 63.9344 35.3177 63.89 35.3112 63.7994C35.3047 63.7088 35.3061 63.6142 35.3059 63.5216C35.3065 62.3592 35.3068 61.1967 35.3069 60.034Z" fill="#00A693"/>
<path d="M55.162 60.066C55.162 58.9033 55.162 57.7409 55.162 56.5788C55.162 56.165 55.1694 56.1579 55.5692 56.157C56.1145 56.1557 56.6598 56.1557 57.2051 56.157C57.277 56.157 57.3494 56.1561 57.4212 56.1627C57.5423 56.1738 57.5877 56.2175 57.5971 56.3348C57.6038 56.4168 57.6016 56.4993 57.6016 56.5818C57.6016 58.9066 57.6016 61.2313 57.6016 63.5561C57.6016 63.6281 57.6033 63.7005 57.5982 63.7722C57.5885 63.9094 57.5493 63.9452 57.403 63.9545C57.3412 63.9584 57.2795 63.9565 57.2178 63.9565C56.6622 63.9565 56.1066 63.9565 55.5509 63.9565C55.479 63.9565 55.4066 63.958 55.3349 63.9516C55.2332 63.9425 55.1805 63.8968 55.1714 63.8002C55.1616 63.6981 55.1619 63.5949 55.1619 63.4915C55.1617 62.3497 55.1617 61.2078 55.162 60.066Z" fill="#00A693"/>
<path d="M21.8064 57.5748C21.8553 58.2641 21.2059 58.7927 20.6353 58.7848C19.975 58.7759 19.435 58.2272 19.4325 57.5914C19.4302 56.9895 19.9653 56.4055 20.6039 56.4007C21.2698 56.3956 21.843 56.9443 21.8064 57.5748Z" fill="#00A693"/>
<path d="M24.4685 57.5968C24.5008 58.2859 23.8777 58.7937 23.2843 58.7834C22.6515 58.7724 22.0909 58.2612 22.0959 57.5865C22.1008 56.8456 22.7382 56.397 23.2952 56.4007C23.8374 56.4041 24.4977 56.8347 24.4685 57.5968Z" fill="#00A693"/>
<path d="M42.3275 66.8065C41.7359 66.8498 41.1391 66.2663 41.1493 65.6005C41.1581 65.0013 41.7128 64.4128 42.3709 64.429C42.9483 64.4432 43.538 64.9825 43.538 65.6292C43.5382 66.1583 43.0401 66.8549 42.3275 66.8065Z" fill="#00A693"/>
<path d="M66.0111 65.6079C66.0684 66.2773 65.416 66.818 64.8373 66.8158C64.2045 66.8135 63.6335 66.2631 63.6362 65.6212C63.6387 64.9884 64.1715 64.453 64.8092 64.4308C65.4374 64.4089 66.0602 64.9864 66.0111 65.6079Z" fill="#00A693"/>
<path d="M44.9995 66.8064C44.3769 66.8527 43.8015 66.2634 43.802 65.6217C43.802 64.975 44.382 64.4223 45.0003 64.4288C45.5868 64.4348 46.1762 64.948 46.185 65.607C46.1938 66.2661 45.6115 66.8425 44.9995 66.8064Z" fill="#00A693"/>
<path d="M62.1627 64.4382C62.7787 64.3891 63.3606 64.9784 63.3606 65.6224C63.3606 66.2571 62.7867 66.8224 62.1616 66.8155C61.5478 66.8087 60.9829 66.2665 60.9767 65.6371C60.9701 64.9554 61.5723 64.399 62.1627 64.4382Z" fill="#00A693"/>
<path d="M54.4686 58.0421C54.4686 57.8672 54.46 57.6924 54.456 57.5173C54.4405 56.8125 53.7644 56.1409 53.0126 56.148C51.5927 56.1613 50.1727 56.1613 48.7528 56.148C47.9376 56.14 47.2866 56.8642 47.2841 57.5979C47.2793 58.884 47.2741 60.1703 47.2866 61.4564C47.2921 62.0256 47.573 62.4532 48.0664 62.7375C48.2944 62.8685 48.5412 62.9211 48.8057 62.9201C49.814 62.9159 50.8223 62.9185 51.8308 62.9201C51.9335 62.9191 52.0362 62.925 52.1381 62.9375C52.2143 62.9478 52.2674 62.9968 52.2799 63.0789C52.3313 63.4164 52.344 63.7529 52.2583 64.0949C52.091 64.1955 51.9342 64.1775 51.7811 64.1776C50.4435 64.1789 49.1059 64.1792 47.7683 64.1786C47.6655 64.1786 47.5622 64.1772 47.4596 64.1858C47.3421 64.1957 47.2978 64.2445 47.2866 64.3627C47.2818 64.4136 47.2833 64.4655 47.2833 64.517C47.2833 65.2064 47.2833 65.8958 47.2833 66.5852C47.2833 66.9175 47.2898 66.9234 47.6354 66.9235C49.1684 66.9235 50.7015 66.9217 52.2347 66.9251C52.492 66.9251 52.7477 66.885 52.9927 66.8062C53.9616 66.4994 54.4529 65.5673 54.4555 64.927C54.4555 64.7417 54.468 64.5565 54.468 64.3713C54.4697 62.2612 54.4699 60.1514 54.4686 58.0421ZM52.2802 60.0505C52.2298 60.449 51.9407 60.7205 51.5345 60.7397C51.3184 60.7499 51.1023 60.7415 50.8862 60.7415V60.7426C50.6805 60.7426 50.4745 60.737 50.2689 60.7438C50.0817 60.7483 49.8994 60.684 49.7565 60.5631C49.6136 60.4422 49.5199 60.273 49.4933 60.0877C49.4782 59.9966 49.4691 59.9046 49.4663 59.8122C49.4625 59.6064 49.4625 59.4007 49.4663 59.1949C49.468 59.1023 49.4817 59.0109 49.4913 58.9191C49.5243 58.5889 49.7511 58.3048 50.184 58.2443C50.2454 58.2361 50.3073 58.2322 50.3692 58.2325C50.7087 58.2315 51.0483 58.229 51.3878 58.2339C51.4905 58.2361 51.5926 58.2495 51.6924 58.2739C52.0307 58.3559 52.2366 58.598 52.2824 58.9428C52.3296 59.3106 52.3289 59.683 52.2802 60.0505Z" fill="#00A693"/>
<path d="M74.3264 57.8727C74.3247 57.6983 74.3071 57.5244 74.2736 57.3532C74.1318 56.6246 73.547 56.1506 72.8099 56.1526C72.1105 56.1546 71.4111 56.1526 70.7118 56.1526C70.0121 56.1526 69.3124 56.1526 68.6127 56.1526C68.3942 56.1526 68.1806 56.172 67.9841 56.2771C67.4544 56.5622 67.1426 56.9857 67.1436 57.6082C67.1453 58.8837 67.1609 60.1593 67.1386 61.4343C67.1261 62.1528 67.7034 62.7493 68.2327 62.8714C68.3908 62.9078 68.5581 62.9155 68.7214 62.9163C69.6882 62.9203 70.655 62.9183 71.6217 62.9189C71.7247 62.9166 71.8278 62.9198 71.9304 62.9285C72.0693 62.9439 72.1368 63.0057 72.1419 63.1477C72.1513 63.4145 72.1513 63.6823 72.1426 63.9493C72.138 64.0908 72.0744 64.149 71.9295 64.1654C71.8169 64.1755 71.7038 64.1794 71.5907 64.1771C70.2331 64.1777 68.8755 64.1781 67.5177 64.1782C67.1661 64.1782 67.1494 64.1958 67.1485 64.5426C67.1464 65.2217 67.1464 65.9008 67.1485 66.5799C67.1479 66.6521 67.1517 66.7243 67.1599 66.796C67.1684 66.8644 67.2141 66.9147 67.2817 66.9136C67.3933 66.9116 67.508 66.907 67.6157 66.8806C69.4338 66.4355 70.9772 65.5243 72.2459 64.147C73.0803 63.242 73.6967 62.208 74.1251 61.0577C74.2582 60.7008 74.3267 60.3231 74.3273 59.9421C74.3313 59.251 74.3323 58.5617 74.3264 57.8727ZM72.1485 59.8225C72.1436 59.9456 72.1246 60.0676 72.0917 60.1863C71.9991 60.5144 71.7367 60.7197 71.3927 60.7399C71.2692 60.7472 71.1458 60.743 71.0223 60.7435C70.9092 60.7435 70.796 60.7435 70.6827 60.7435V60.7409C70.477 60.7409 70.2713 60.7452 70.0654 60.7396C69.8516 60.7339 69.6641 60.6583 69.5155 60.4996C69.3996 60.3762 69.3259 60.2315 69.3258 60.0573C69.3258 59.6869 69.3191 59.3164 69.3273 58.947C69.3341 58.6349 69.5371 58.3743 69.8366 58.285C69.945 58.2531 70.0571 58.2361 70.17 58.2342C70.5298 58.2279 70.8897 58.2308 71.2495 58.2327C71.3214 58.2327 71.3932 58.239 71.464 58.2515C71.8139 58.3155 72.0335 58.5183 72.105 58.8706C72.1277 58.9705 72.1419 59.0722 72.1474 59.1746C72.1553 59.3907 72.1579 59.6071 72.1485 59.8225Z" fill="#00A693"/>
</svg>
