<svg width="100" height="19" viewBox="0 0 100 19" fill="none" xmlns="http://www.w3.org/2000/svg">
<path d="M2.52216 7.78182C2.15246 8.54545 1.86155 9.28182 1.64943 9.99091C1.44337 10.7 1.3161 11.3697 1.26761 12C1.24943 12.2 1.24034 12.397 1.24034 12.5909C1.24034 13.003 1.2858 13.4333 1.3767 13.8818C1.47367 14.3364 1.65852 14.7818 1.93125 15.2182C2.27064 15.7576 2.71307 16.1727 3.25852 16.4636C3.81004 16.7545 4.42519 16.9 5.10398 16.9H7.36761C7.65852 16.9 7.96761 16.8879 8.29489 16.8636C8.62822 16.8394 8.95852 16.7939 9.2858 16.7273C9.61913 16.6667 9.93731 16.5848 10.2403 16.4818C10.5494 16.3788 10.8191 16.2515 11.0494 16.1C11.2858 15.9485 11.4737 15.7667 11.6131 15.5545C11.7525 15.3485 11.8222 15.1061 11.8222 14.8273C11.8222 14.6394 11.8009 14.4667 11.7585 14.3091C11.7161 14.1576 11.6373 14.0182 11.5222 13.8909C11.407 13.7697 11.2464 13.6606 11.0403 13.5636C10.8343 13.4667 10.5706 13.3818 10.2494 13.3091C9.92822 13.2364 9.53731 13.1727 9.0767 13.1182C8.62216 13.0697 8.0858 13.0303 7.46761 13L7.49489 11.8818H15.3494V13H12.204C12.4585 13.2485 12.6434 13.5182 12.7585 13.8091C12.8737 14.1 12.9312 14.4394 12.9312 14.8273C12.9312 15.2333 12.8555 15.5939 12.704 15.9091C12.5525 16.2303 12.3434 16.5091 12.0767 16.7455C11.81 16.9818 11.4979 17.1788 11.1403 17.3364C10.7828 17.5 10.3979 17.6303 9.9858 17.7273C9.57367 17.8303 9.14337 17.903 8.69489 17.9455C8.25246 17.9939 7.81004 18.0182 7.36761 18.0182H5.10398C4.23125 18.0182 3.43731 17.8273 2.72216 17.4455C2.00701 17.0636 1.42822 16.5212 0.985796 15.8182C0.567614 15.1394 0.303977 14.4394 0.194886 13.7182C0.12822 13.3242 0.0948864 12.9333 0.0948864 12.5455C0.0948864 12.2121 0.13125 11.7818 0.203977 11.2545C0.276705 10.7212 0.437311 10.097 0.685796 9.38182C0.93428 8.66667 1.21307 7.97273 1.52216 7.3L2.52216 7.78182ZM21.2381 11.8818V13H21.0381C20.523 13 20.0503 12.8879 19.62 12.6636C19.1897 12.4394 18.8381 12.1182 18.5654 11.7C18.3957 11.9364 18.1957 12.1364 17.9654 12.3C17.7412 12.4636 17.4836 12.597 17.1927 12.7C16.9018 12.797 16.5775 12.8697 16.22 12.9182C15.8624 12.9667 15.4715 12.9939 15.0472 13V11.8818C15.7139 11.8818 16.2442 11.8212 16.6381 11.7C17.0321 11.5727 17.3321 11.4061 17.5381 11.2C17.7442 10.9939 17.8775 10.7606 17.9381 10.5C17.9987 10.2394 18.029 9.97576 18.029 9.70909V0.0272732H19.1472V9.80909C19.1472 10.1182 19.1927 10.4 19.2836 10.6545C19.3745 10.9091 19.5018 11.1273 19.6654 11.3091C19.8351 11.4909 20.0351 11.6333 20.2654 11.7364C20.4957 11.8333 20.7533 11.8818 21.0381 11.8818H21.2381ZM33.1743 5.20909C33.5682 5.20909 33.9197 5.27273 34.2288 5.4C34.544 5.52121 34.8228 5.68788 35.0652 5.9C35.3076 6.11212 35.5137 6.36061 35.6834 6.64545C35.8591 6.9303 36.0046 7.23636 36.1197 7.56364C36.2349 7.88485 36.3167 8.21818 36.3652 8.56364C36.4197 8.90303 36.447 9.23939 36.447 9.57273C36.447 9.97273 36.4046 10.3273 36.3197 10.6364C36.2349 10.9455 36.1258 11.2182 35.9925 11.4545C35.8652 11.6848 35.7197 11.8788 35.5561 12.0364C35.3925 12.1939 35.2319 12.3242 35.0743 12.4273C34.8804 12.5545 34.6834 12.6545 34.4834 12.7273C34.2894 12.8 34.1016 12.8576 33.9197 12.9C33.7379 12.9424 33.5682 12.9697 33.4107 12.9818C33.2591 12.9939 33.1288 13 33.0197 13H27.7561C27.35 13 26.9652 12.9424 26.6016 12.8273C26.2379 12.7061 25.9197 12.5303 25.647 12.3C25.4834 12.1667 25.347 12.0273 25.2379 11.8818C25.2137 11.9121 25.1894 11.9424 25.1652 11.9727C25.141 11.997 25.1167 12.0242 25.0925 12.0545C24.4985 12.6848 23.5925 13 22.3743 13H20.9652V11.8818H22.3743C23.2773 11.8818 23.9107 11.6848 24.2743 11.2909C24.5349 11.0121 24.6652 10.6364 24.6652 10.1636V6.86364H25.7834V10.1182C25.7834 10.5242 25.8713 10.8515 26.047 11.1C26.2288 11.3485 26.4531 11.5364 26.7197 11.6636L27.3288 10.6727C27.6864 10.0848 28.0652 9.48182 28.4652 8.86364C28.8652 8.24545 29.2985 7.67273 29.7652 7.14545C30.341 6.49091 30.9076 6.00606 31.4652 5.69091C32.0228 5.3697 32.5925 5.20909 33.1743 5.20909ZM33.0197 11.8818C33.1349 11.8818 33.2713 11.8727 33.4288 11.8545C33.5864 11.8364 33.75 11.8 33.9197 11.7455C34.0955 11.6909 34.2652 11.6121 34.4288 11.5091C34.5985 11.4061 34.75 11.2697 34.8834 11.1C35.0167 10.9242 35.1228 10.7121 35.2016 10.4636C35.2864 10.2152 35.3288 9.91818 35.3288 9.57273C35.3288 9.22121 35.2925 8.85455 35.2197 8.47273C35.1531 8.08485 35.0379 7.73333 34.8743 7.41818C34.7107 7.10303 34.4894 6.84242 34.2107 6.63636C33.9379 6.4303 33.5925 6.32727 33.1743 6.32727C32.3682 6.32727 31.5107 6.84545 30.6016 7.88182C30.1652 8.37273 29.7561 8.91515 29.3743 9.50909C28.9925 10.103 28.6288 10.6848 28.2834 11.2545C28.2167 11.3576 28.15 11.4636 28.0834 11.5727C28.0228 11.6758 27.9591 11.7788 27.8925 11.8818H33.0197ZM40.3452 13H39.2088V0.0272732H40.3452V13ZM60.148 13H59.9662C59.4874 13 59.0389 12.9424 58.6207 12.8273C58.2086 12.7121 57.8207 12.5424 57.4571 12.3182C57.0389 12.0515 56.6783 11.7182 56.3753 11.3182C56.242 11.1424 56.1238 10.9515 56.0207 10.7455C55.9177 10.5394 55.8268 10.3212 55.748 10.0909C55.5601 10.4727 55.3238 10.8212 55.0389 11.1364C54.7601 11.4455 54.4147 11.6788 54.0026 11.8364C53.5116 12.0303 53.0268 12.1273 52.548 12.1273C52.5056 12.1273 52.342 12.1242 52.0571 12.1182C51.7783 12.1061 51.4238 11.997 50.9935 11.7909C50.5632 11.5788 50.1935 11.2818 49.8844 10.9C49.5813 10.5182 49.3844 10.0697 49.2935 9.55455C49.2571 9.35455 49.2389 9.15758 49.2389 8.96364C49.2389 8.55152 49.3298 8.10909 49.5116 7.63636C49.6935 7.16364 50.0116 6.70303 50.4662 6.25455C50.9026 5.81818 51.442 5.43333 52.0844 5.1C52.7268 4.76667 53.4571 4.49091 54.2753 4.27273L54.0298 3.05455L55.1389 2.74545C55.3147 3.49697 55.4662 4.15455 55.5935 4.71818C55.7268 5.28182 55.845 5.78485 55.948 6.22727C56.0207 6.53636 56.0874 6.8303 56.148 7.10909C56.2086 7.38182 56.2692 7.65152 56.3298 7.91818C56.3965 8.17879 56.4632 8.43939 56.5298 8.7C56.5965 8.96061 56.6692 9.23636 56.748 9.52727C56.845 9.88485 56.9723 10.1909 57.1298 10.4455C57.2874 10.6939 57.4632 10.9061 57.6571 11.0818C57.8571 11.2576 58.0632 11.4 58.2753 11.5091C58.4874 11.6121 58.6965 11.6909 58.9026 11.7455C59.1147 11.8 59.3116 11.8364 59.4935 11.8545C59.6753 11.8727 59.8329 11.8818 59.9662 11.8818H60.148V13ZM54.5935 5.33636C53.8783 5.5303 53.242 5.7697 52.6844 6.05455C52.1329 6.33333 51.6723 6.64848 51.3026 7C50.9389 7.34545 50.6783 7.71818 50.5207 8.11818C50.4116 8.39091 50.3571 8.6697 50.3571 8.95455C50.3571 9.08788 50.3692 9.22121 50.3935 9.35455C50.4541 9.7 50.5995 9.99697 50.8298 10.2455C51.0601 10.4939 51.3298 10.6848 51.6389 10.8182C51.948 10.9455 52.2723 11.0121 52.6116 11.0182H52.6571C52.9723 11.0182 53.2571 10.9576 53.5116 10.8364C53.8571 10.6667 54.1359 10.4636 54.348 10.2273C54.5601 9.98485 54.7238 9.73333 54.8389 9.47273C54.9541 9.21212 55.0298 8.95455 55.0662 8.7C55.1026 8.43939 55.1177 8.20606 55.1116 8C55.1116 7.79394 55.0995 7.62727 55.0753 7.5C55.0571 7.36667 55.048 7.29697 55.048 7.29091C54.9813 7 54.9238 6.75455 54.8753 6.55455C54.8329 6.35455 54.7935 6.18182 54.7571 6.03636C54.7268 5.89091 54.6965 5.76364 54.6662 5.65455C54.642 5.54545 54.6177 5.43939 54.5935 5.33636ZM73.9583 13H73.3038C73.1038 13 72.8826 12.9848 72.6401 12.9545C72.3977 12.9242 72.1553 12.8788 71.9129 12.8182C71.6765 12.7576 71.4522 12.6848 71.2401 12.6C71.0341 12.5091 70.8613 12.4091 70.7219 12.3C70.4492 12.0818 70.228 11.8273 70.0583 11.5364C69.8947 11.2394 69.7856 10.9152 69.731 10.5636C69.3189 10.8242 68.9007 11.0667 68.4765 11.2909C68.0583 11.5152 67.6219 11.7182 67.1674 11.9C66.7129 12.0818 66.231 12.2424 65.7219 12.3818C65.2189 12.5152 64.6704 12.6273 64.0765 12.7182C63.4886 12.8091 62.8492 12.8788 62.1583 12.9273C61.4674 12.9758 60.6795 13 59.7947 13V11.8818C60.7644 11.8818 61.6159 11.8545 62.3492 11.8C63.0886 11.7455 63.7674 11.6606 64.3856 11.5455C65.0098 11.4303 65.5886 11.2848 66.1219 11.1091C66.6613 10.9273 67.1826 10.7152 67.6856 10.4727C68.1947 10.2303 68.7038 9.95455 69.2129 9.64545C69.7219 9.3303 70.2583 8.98182 70.8219 8.6C70.4038 8.44242 69.9704 8.27879 69.5219 8.10909C69.0795 7.93333 68.6401 7.76364 68.2038 7.6C67.7674 7.43636 67.3432 7.27879 66.931 7.12727C66.525 6.97576 66.1492 6.84545 65.8038 6.73636C65.4583 6.62121 65.1522 6.5303 64.8856 6.46364C64.625 6.39697 64.4219 6.36364 64.2765 6.36364C63.8947 6.36364 63.5492 6.51515 63.2401 6.81818C62.9371 7.12121 62.7159 7.54242 62.5765 8.08182L61.4947 7.8C61.5856 7.44848 61.7129 7.11818 61.8765 6.80909C62.0462 6.5 62.2492 6.2303 62.4856 6C62.7219 5.7697 62.9886 5.58788 63.2856 5.45455C63.5886 5.31515 63.9219 5.24545 64.2856 5.24545C64.4735 5.24545 64.7129 5.28182 65.0038 5.35455C65.3007 5.42121 65.631 5.51212 65.9947 5.62727C66.3583 5.74242 66.7432 5.87576 67.1492 6.02727C67.5553 6.17273 67.9613 6.32727 68.3674 6.49091C68.7735 6.64848 69.1674 6.80606 69.5492 6.96364C69.931 7.12121 70.2795 7.26667 70.5947 7.4C70.9159 7.53333 71.1886 7.64848 71.4129 7.74545C71.6432 7.83636 71.8068 7.9 71.9038 7.93636L72.0583 8.94545C71.828 9.11515 71.6007 9.27879 71.3765 9.43636C71.1583 9.59394 70.9432 9.74848 70.731 9.9C70.731 10.2212 70.7977 10.5061 70.931 10.7545C71.0644 11.003 71.2462 11.2121 71.4765 11.3818C71.7068 11.5455 71.9795 11.6697 72.2947 11.7545C72.6098 11.8394 72.9462 11.8818 73.3038 11.8818H73.9583V13ZM78.971 11.1818C79.0982 11.1333 79.2194 11.0818 79.3346 11.0273C79.4558 10.9727 79.571 10.9121 79.68 10.8455C79.8619 10.7424 80.0467 10.6212 80.2346 10.4818C80.4225 10.3364 80.5922 10.1727 80.7437 9.99091C80.9013 9.80909 81.0285 9.60303 81.1255 9.37273C81.2225 9.14242 81.271 8.89091 81.271 8.61818C81.271 8.32727 81.2194 8.03939 81.1164 7.75455C81.0134 7.4697 80.8649 7.21515 80.671 6.99091C80.477 6.76667 80.2406 6.58485 79.9619 6.44545C79.6891 6.30606 79.377 6.23636 79.0255 6.23636C78.6558 6.23636 78.3225 6.29394 78.0255 6.40909C77.7285 6.51818 77.474 6.67879 77.2619 6.89091C77.0497 7.09697 76.8861 7.34545 76.771 7.63636C76.6558 7.92727 76.5982 8.25455 76.5982 8.61818C76.5982 8.90909 76.6528 9.17273 76.7619 9.40909C76.877 9.64545 77.0225 9.86061 77.1982 10.0545C77.38 10.2485 77.577 10.4182 77.7891 10.5636C78.0073 10.7091 78.2225 10.8364 78.4346 10.9455C78.5194 10.9879 78.6043 11.0303 78.6891 11.0727C78.78 11.1091 78.874 11.1455 78.971 11.1818ZM79.1073 5.11818C79.5497 5.11818 79.971 5.21212 80.371 5.4C80.771 5.58182 81.1194 5.83636 81.4164 6.16364C81.7194 6.49091 81.9558 6.8697 82.1255 7.3C82.3013 7.72424 82.3891 8.16364 82.3891 8.61818C82.3891 9.21212 82.2285 9.76667 81.9073 10.2818C81.5922 10.797 81.1316 11.2515 80.5255 11.6455C81.3134 11.803 82.1316 11.8818 82.98 11.8818H83.88V13H82.98C82.2528 13 81.5497 12.9485 80.871 12.8455C80.1922 12.7364 79.5588 12.5788 78.971 12.3727C78.371 12.5788 77.7134 12.7364 76.9982 12.8455C76.2891 12.9485 75.5255 13 74.7073 13H73.5891V11.8818H74.7073C75.677 11.8818 76.574 11.803 77.3982 11.6455C77.1255 11.4758 76.871 11.2818 76.6346 11.0636C76.3982 10.8455 76.1952 10.6091 76.0255 10.3545C75.8558 10.1 75.7225 9.82727 75.6255 9.53636C75.5285 9.24545 75.48 8.93939 75.48 8.61818C75.48 8.10909 75.5679 7.63939 75.7437 7.20909C75.9194 6.77273 76.1619 6.4 76.471 6.09091C76.7861 5.77576 77.1619 5.5303 77.5982 5.35455C77.9982 5.19697 78.4406 5.11818 78.9255 5.11818H79.1073ZM77.78 1.30909L78.9437 0.127273L80.1437 1.32727L78.9619 2.50909L77.78 1.30909ZM95.7524 5.20909C96.1464 5.20909 96.4979 5.27273 96.807 5.4C97.1221 5.52121 97.4009 5.68788 97.6433 5.9C97.8857 6.11212 98.0918 6.36061 98.2615 6.64545C98.4373 6.9303 98.5827 7.23636 98.6979 7.56364C98.813 7.88485 98.8948 8.21818 98.9433 8.56364C98.9979 8.90303 99.0251 9.23939 99.0251 9.57273C99.0251 9.97273 98.9827 10.3273 98.8979 10.6364C98.813 10.9455 98.7039 11.2182 98.5706 11.4545C98.4433 11.6848 98.2979 11.8788 98.1342 12.0364C97.9706 12.1939 97.81 12.3242 97.6524 12.4273C97.4585 12.5545 97.2615 12.6545 97.0615 12.7273C96.8676 12.8 96.6797 12.8576 96.4979 12.9C96.3161 12.9424 96.1464 12.9697 95.9888 12.9818C95.8373 12.9939 95.707 13 95.5979 13H90.3342C89.9282 13 89.5433 12.9424 89.1797 12.8273C88.8161 12.7061 88.4979 12.5303 88.2251 12.3C88.0615 12.1667 87.9251 12.0273 87.8161 11.8818C87.7918 11.9121 87.7676 11.9424 87.7433 11.9727C87.7191 11.997 87.6948 12.0242 87.6706 12.0545C87.0767 12.6848 86.1706 13 84.9524 13H83.5433V11.8818H84.9524C85.8554 11.8818 86.4888 11.6848 86.8524 11.2909C87.113 11.0121 87.2433 10.6364 87.2433 10.1636V6.86364H88.3615V10.1182C88.3615 10.5242 88.4494 10.8515 88.6251 11.1C88.807 11.3485 89.0312 11.5364 89.2979 11.6636L89.907 10.6727C90.2645 10.0848 90.6433 9.48182 91.0433 8.86364C91.4433 8.24545 91.8767 7.67273 92.3433 7.14545C92.9191 6.49091 93.4857 6.00606 94.0433 5.69091C94.6009 5.3697 95.1706 5.20909 95.7524 5.20909ZM95.5979 11.8818C95.713 11.8818 95.8494 11.8727 96.007 11.8545C96.1645 11.8364 96.3282 11.8 96.4979 11.7455C96.6736 11.6909 96.8433 11.6121 97.007 11.5091C97.1767 11.4061 97.3282 11.2697 97.4615 11.1C97.5948 10.9242 97.7009 10.7121 97.7797 10.4636C97.8645 10.2152 97.907 9.91818 97.907 9.57273C97.907 9.22121 97.8706 8.85455 97.7979 8.47273C97.7312 8.08485 97.6161 7.73333 97.4524 7.41818C97.2888 7.10303 97.0676 6.84242 96.7888 6.63636C96.5161 6.4303 96.1706 6.32727 95.7524 6.32727C94.9464 6.32727 94.0888 6.84545 93.1797 7.88182C92.7433 8.37273 92.3342 8.91515 91.9524 9.50909C91.5706 10.103 91.207 10.6848 90.8615 11.2545C90.7948 11.3576 90.7282 11.4636 90.6615 11.5727C90.6009 11.6758 90.5373 11.7788 90.4706 11.8818H95.5979Z" fill="white"/>
</svg>
