<svg width="619" height="720" viewBox="0 0 619 720" fill="none" xmlns="http://www.w3.org/2000/svg">
<mask id="mask0_4130_5736" style="mask-type:alpha" maskUnits="userSpaceOnUse" x="0" y="0" width="619" height="720">
<rect width="619" height="720" fill="#C4C4C4"/>
</mask>
<g mask="url(#mask0_4130_5736)">
<path d="M319.901 340.647C343.016 341.327 402.165 331.809 440.917 302.574C516.196 245.785 554.455 110.172 700.627 105.413C846.799 100.654 1201.01 91.1356 1201.01 91.1356M-190 516.053L268.911 354.244" stroke="#1A1B2F" stroke-width="10"/>
<circle cx="291.346" cy="343.366" r="28.9934" stroke="#1A1B2F" stroke-width="10"/>
<path d="M345.736 -36L294.206 316.851M225.399 788L286.561 369.201" stroke="#1A1B2F" stroke-width="10"/>
<path d="M515.703 -34.6403V87.4441C515.703 88.0904 515.766 88.7352 515.89 89.3694L536.779 195.835L587.5 744" stroke="#1A1B2F" stroke-width="10"/>
<path d="M306.304 370.561L311.459 374.428C313.395 375.88 315.792 376.58 318.205 376.4L487.149 363.762M487.149 363.762L508 580.5M487.149 363.762L477.63 267.221" stroke="#1A1B2F" stroke-width="10"/>
<path d="M198 -6L94 747.5" stroke="#1A1B2F" stroke-width="10"/>
<path d="M-0.996582 49.6633L117.3 407.954" stroke="#1A1B2F" stroke-width="4"/>
<path d="M-20 337L306 220.5" stroke="#1A1B2F" stroke-width="4"/>
<path d="M272.99 466.422L630 435M266.191 514.013L408.284 502.455M258.713 558.205L505.505 537.129M258.713 537.129L126.818 520.812M282.508 388.238L226.377 407.976C222.853 409.215 220.313 412.316 219.792 416.015L174.5 737.5" stroke="#1A1B2F" stroke-width="4"/>
<path d="M404 454.5L410.323 545.287M279.789 426.31L400.442 418.141C405.915 417.77 410.068 413.061 409.75 407.585L407.604 370.561" stroke="#1A1B2F" stroke-width="4"/>
<path d="M253.954 597.637L568.733 576.561M198.885 379.399L181.156 330.789C179.295 325.686 181.848 320.03 186.907 318.05L215.69 306.787C220.721 304.819 223.279 299.209 221.466 294.12L207.043 253.624" stroke="#1A1B2F" stroke-width="4"/>
<path d="M71.5005 269L311.743 184.277M60.5005 237L321.261 147.564M49.9934 203.993L321.261 113.571M39.7954 170.68L330.779 77.5379" stroke="#1A1B2F" stroke-width="4"/>
<path d="M444.317 297.135L356.466 301.559C352.438 301.762 348.926 304.365 347.56 308.16L337.578 335.888M302.225 271.98L489.017 253M310.383 230.508L485.109 213.512M318.541 184.277L481.765 169M322.621 147.564L477.631 131.927M326.7 114.251L475.679 98.5M326.7 78.8977L462.89 66.8623C468.399 66.3754 473.258 70.4531 473.733 75.9634L489.188 254.984" stroke="#1A1B2F" stroke-width="5"/>
<path d="M279.868 340.022C279.305 340.022 278.794 339.898 278.336 339.651C277.878 339.407 277.507 339.058 277.223 338.604C277.027 338.295 276.887 337.951 276.803 337.573C276.734 337.282 276.699 336.976 276.699 336.656C276.699 336.562 276.707 336.384 276.721 336.122C276.739 335.856 276.816 335.489 276.95 335.02C277.085 334.547 277.272 334.06 277.512 333.558L278.439 334C278.236 334.422 278.074 334.827 277.954 335.216C277.838 335.602 277.765 335.967 277.736 336.313C277.725 336.429 277.719 336.542 277.719 336.651C277.719 336.869 277.743 337.1 277.79 337.344C277.841 337.591 277.941 337.831 278.09 338.064C278.279 338.358 278.527 338.585 278.832 338.745C279.138 338.909 279.483 338.991 279.868 338.991H281.15C281.568 338.991 281.908 338.945 282.17 338.855C282.436 338.767 282.641 338.644 282.787 338.484C282.936 338.324 283.036 338.129 283.087 337.9C283.141 337.675 283.168 337.424 283.168 337.147V333.313H284.199V337.147C284.199 338.107 283.945 338.825 283.436 339.302C282.927 339.782 282.165 340.022 281.15 340.022H279.868ZM279.912 332.882L280.839 331.944L281.788 332.893L280.85 333.831L279.912 332.882ZM287.001 336.995H285.97V329.216H287.001V336.995ZM294.99 335.969V337H294.788C294.246 337 293.746 336.775 293.288 336.324C293.015 336.691 292.537 336.924 291.853 337.022C291.726 337.04 291.592 337.055 291.45 337.065C291.308 337.076 291.161 337.082 291.008 337.082C290.823 337.082 290.635 337.073 290.446 337.055C290.257 337.04 290.072 337.016 289.89 336.984C289.712 336.947 289.539 336.902 289.372 336.847C289.204 336.789 289.053 336.722 288.919 336.645L288.472 336.384L288.984 335.484L289.437 335.745C289.564 335.818 289.719 335.878 289.901 335.925C290.086 335.969 290.283 336 290.49 336.018C290.646 336.033 290.803 336.04 290.959 336.04C291.013 336.04 291.106 336.04 291.237 336.04C291.368 336.036 291.524 336.022 291.706 335.996C291.917 335.964 292.09 335.918 292.224 335.86C292.363 335.798 292.45 335.729 292.486 335.653C292.519 335.616 292.535 335.571 292.535 335.516C292.535 335.48 292.523 335.422 292.497 335.342C292.472 335.258 292.415 335.149 292.328 335.015L290.283 331.9L291.15 331.333L293.266 334.562C293.375 334.718 293.484 334.88 293.593 335.047C293.706 335.211 293.824 335.362 293.948 335.5C294.072 335.635 294.201 335.747 294.335 335.838C294.473 335.925 294.624 335.969 294.788 335.969H294.99ZM300.722 335.969V337H299.768C299.437 337 299.144 336.953 298.89 336.858C298.639 336.764 298.437 336.622 298.284 336.433C297.906 336.811 297.346 337 296.604 337H294.75V335.969H296.604C296.866 335.969 297.073 335.944 297.226 335.893C297.379 335.838 297.493 335.773 297.57 335.696C297.65 335.616 297.7 335.529 297.722 335.435C297.748 335.336 297.76 335.244 297.76 335.156V333.313H298.786V335.118C298.786 335.253 298.806 335.367 298.846 335.462C298.89 335.556 298.942 335.636 299.004 335.702C299.066 335.764 299.135 335.813 299.211 335.849C299.291 335.885 299.368 335.913 299.44 335.931C299.513 335.949 299.579 335.96 299.637 335.964C299.695 335.967 299.739 335.969 299.768 335.969H300.722ZM299.217 339.111L298.333 339.995L297.482 339.111L298.344 338.238L299.217 339.111ZM297.128 339.122L296.244 340.005L295.393 339.122L296.255 338.249L297.128 339.122ZM304.439 336.231C304.465 336.231 304.499 336.229 304.543 336.225C304.59 336.222 304.639 336.207 304.69 336.182C304.745 336.156 304.797 336.118 304.848 336.067C304.903 336.013 304.95 335.938 304.99 335.844C305.034 335.745 305.068 335.622 305.094 335.473C305.123 335.32 305.137 335.135 305.137 334.916C305.137 334.876 305.134 334.813 305.126 334.725C305.119 334.638 305.103 334.542 305.077 334.436C305.052 334.327 305.014 334.216 304.963 334.104C304.916 333.991 304.85 333.887 304.766 333.793C304.683 333.698 304.581 333.622 304.461 333.564C304.341 333.502 304.196 333.471 304.025 333.471C303.865 333.471 303.728 333.5 303.616 333.558C303.506 333.613 303.414 333.689 303.337 333.787C303.261 333.885 303.197 334.002 303.146 334.136C303.096 334.267 303.048 334.411 303.005 334.567C302.961 334.72 302.917 334.882 302.874 335.053C302.83 335.22 302.779 335.387 302.721 335.555C302.91 335.649 303.085 335.738 303.245 335.822C303.405 335.905 303.554 335.978 303.692 336.04C303.83 336.098 303.959 336.145 304.079 336.182C304.203 336.215 304.323 336.231 304.439 336.231ZM304.025 332.445C304.381 332.445 304.69 332.515 304.952 332.653C305.217 332.787 305.437 332.969 305.612 333.198C305.786 333.427 305.916 333.691 305.999 333.989C306.086 334.287 306.13 334.596 306.13 334.916C306.13 335.269 306.099 335.573 306.037 335.827C305.979 336.082 305.901 336.296 305.803 336.471C305.705 336.642 305.594 336.78 305.47 336.885C305.35 336.991 305.226 337.071 305.099 337.125C304.976 337.18 304.856 337.216 304.739 337.235C304.623 337.253 304.523 337.262 304.439 337.262C304.261 337.262 304.09 337.244 303.926 337.207C303.763 337.171 303.596 337.118 303.425 337.049C303.254 336.984 303.074 336.902 302.885 336.804C302.699 336.705 302.494 336.595 302.268 336.471C301.97 336.824 301.586 337 301.117 337H300.49V335.969H301.117C301.256 335.969 301.368 335.918 301.456 335.816C301.546 335.715 301.625 335.582 301.69 335.418C301.756 335.255 301.816 335.067 301.87 334.856C301.925 334.645 301.986 334.429 302.056 334.207C302.128 333.985 302.214 333.769 302.312 333.558C302.41 333.347 302.534 333.16 302.683 332.996C302.836 332.833 303.019 332.7 303.234 332.598C303.452 332.496 303.716 332.445 304.025 332.445ZM278.747 352H278.513C278.164 352 277.842 351.931 277.547 351.793C277.547 352.302 277.477 352.756 277.335 353.156C277.193 353.556 276.986 353.895 276.713 354.171C276.44 354.451 276.104 354.664 275.704 354.809C275.307 354.955 274.851 355.027 274.335 355.027H273.582V353.996H274.335C274.709 353.996 275.033 353.951 275.306 353.86C275.582 353.773 275.809 353.636 275.987 353.451C276.169 353.265 276.302 353.029 276.386 352.742C276.473 352.455 276.517 352.113 276.517 351.716V348.313H277.547V350.118C277.547 350.322 277.589 350.482 277.673 350.598C277.76 350.711 277.86 350.795 277.973 350.849C278.086 350.904 278.193 350.938 278.295 350.953C278.4 350.964 278.473 350.969 278.513 350.969H278.747V352ZM278.518 352V350.969H279.462C279.716 350.969 279.92 350.944 280.073 350.893C280.226 350.842 280.342 350.778 280.422 350.702C280.502 350.622 280.555 350.535 280.58 350.44C280.606 350.345 280.618 350.253 280.618 350.162V348.313H281.644V350.118C281.644 350.322 281.686 350.48 281.769 350.593C281.856 350.705 281.955 350.789 282.064 350.844C282.107 350.775 282.149 350.705 282.189 350.636C282.233 350.564 282.276 350.491 282.32 350.418C282.462 350.185 282.609 349.949 282.762 349.709C282.918 349.465 283.082 349.229 283.253 349C283.424 348.767 283.602 348.549 283.787 348.345C283.976 348.142 284.176 347.965 284.387 347.816C284.598 347.664 284.822 347.544 285.058 347.456C285.295 347.365 285.546 347.32 285.811 347.32C286.076 347.32 286.336 347.369 286.591 347.467C286.849 347.562 287.078 347.711 287.278 347.915C287.478 348.115 287.638 348.371 287.758 348.684C287.882 348.996 287.944 349.369 287.944 349.802C287.944 350.042 287.918 350.258 287.867 350.451C287.82 350.644 287.755 350.816 287.671 350.969H288.795V352H282.626C282.364 352 282.116 351.962 281.884 351.885C281.651 351.805 281.446 351.693 281.267 351.547C281.224 351.515 281.182 351.478 281.142 351.438C280.953 351.624 280.722 351.762 280.449 351.853C280.18 351.944 279.864 351.993 279.5 352H278.518ZM285.806 350.969C285.889 350.965 285.995 350.951 286.122 350.925C286.253 350.9 286.378 350.849 286.498 350.773C286.636 350.678 286.742 350.553 286.815 350.396C286.891 350.236 286.929 350.038 286.929 349.802C286.929 349.336 286.829 348.978 286.629 348.727C286.429 348.473 286.156 348.345 285.811 348.345C285.64 348.345 285.475 348.384 285.315 348.46C285.155 348.533 284.996 348.633 284.84 348.76C284.687 348.887 284.538 349.036 284.393 349.207C284.247 349.378 284.106 349.56 283.967 349.753C283.833 349.945 283.7 350.145 283.569 350.353C283.442 350.556 283.318 350.755 283.198 350.947L283.187 350.969H285.806ZM293.629 352C293.567 352 293.497 351.993 293.417 351.978C293.337 351.96 293.242 351.927 293.133 351.88C293.024 351.833 292.898 351.765 292.757 351.678C292.615 351.591 292.449 351.476 292.26 351.335C291.838 351.564 291.346 351.733 290.782 351.842C290.218 351.947 289.589 352 288.895 352H288.578V350.969H288.895C289.418 350.969 289.888 350.94 290.302 350.882C290.717 350.82 291.067 350.733 291.355 350.62C291.166 350.46 290.977 350.295 290.787 350.124C290.602 349.953 290.431 349.793 290.275 349.644C290.118 349.491 289.982 349.36 289.866 349.251C289.753 349.138 289.677 349.06 289.637 349.016V348.798C289.637 348.729 289.64 348.655 289.647 348.575C289.655 348.491 289.669 348.405 289.691 348.318C289.713 348.231 289.746 348.144 289.789 348.056C289.833 347.965 289.891 347.878 289.964 347.795C290.24 347.485 290.68 347.331 291.284 347.331H293.089C293.391 347.331 293.664 347.405 293.908 347.555C294.151 347.7 294.329 347.902 294.442 348.16C294.526 348.327 294.566 348.493 294.562 348.656C294.562 348.816 294.531 348.975 294.469 349.131C294.411 349.284 294.329 349.433 294.224 349.578C294.122 349.72 294.009 349.858 293.886 349.993C293.762 350.124 293.635 350.249 293.504 350.369C293.377 350.489 293.258 350.602 293.149 350.707C293.229 350.762 293.298 350.807 293.357 350.844C293.415 350.876 293.462 350.902 293.498 350.92C293.538 350.938 293.567 350.951 293.586 350.958C293.607 350.962 293.622 350.965 293.629 350.969H295.626V352H293.629ZM290.678 348.602C290.751 348.671 290.853 348.767 290.984 348.891C291.115 349.011 291.257 349.142 291.409 349.284C291.566 349.425 291.722 349.567 291.878 349.709C292.038 349.851 292.182 349.975 292.309 350.08C292.506 349.924 292.693 349.758 292.871 349.584C293.053 349.409 293.235 349.207 293.417 348.978C293.457 348.927 293.491 348.867 293.52 348.798C293.531 348.773 293.537 348.745 293.537 348.716C293.537 348.673 293.526 348.629 293.504 348.585C293.475 348.531 293.428 348.48 293.362 348.433C293.297 348.385 293.206 348.362 293.089 348.362H291.284C291.178 348.362 291.091 348.367 291.022 348.378C290.957 348.385 290.902 348.396 290.858 348.411C290.818 348.425 290.787 348.44 290.766 348.455C290.748 348.465 290.735 348.476 290.728 348.487C290.717 348.495 290.708 348.509 290.7 348.531C290.693 348.549 290.686 348.573 290.678 348.602ZM300.546 350.969V352H299.592C299.261 352 298.968 351.953 298.714 351.858C298.463 351.764 298.261 351.622 298.108 351.433C297.73 351.811 297.17 352 296.428 352H294.574V350.969H296.428C296.69 350.969 296.897 350.944 297.05 350.893C297.203 350.838 297.317 350.773 297.394 350.696C297.474 350.616 297.525 350.529 297.546 350.435C297.572 350.336 297.585 350.244 297.585 350.156V348.313H298.61V350.118C298.61 350.253 298.63 350.367 298.67 350.462C298.714 350.556 298.766 350.636 298.828 350.702C298.89 350.764 298.959 350.813 299.036 350.849C299.116 350.885 299.192 350.913 299.265 350.931C299.337 350.949 299.403 350.96 299.461 350.964C299.519 350.967 299.563 350.969 299.592 350.969H300.546ZM299.041 354.111L298.157 354.995L297.306 354.111L298.168 353.238L299.041 354.111ZM296.952 354.122L296.068 355.005L295.217 354.122L296.079 353.249L296.952 354.122ZM300.309 350.969H300.494C300.829 350.969 301.089 350.945 301.274 350.898C301.463 350.847 301.609 350.771 301.711 350.669C301.783 350.6 301.836 350.504 301.869 350.38C301.905 350.253 301.923 350.085 301.923 349.878V344.211H302.949V349.878C302.949 350.002 302.943 350.131 302.933 350.265C302.922 350.396 302.898 350.529 302.862 350.664C302.825 350.798 302.773 350.931 302.703 351.062C302.634 351.189 302.542 351.309 302.425 351.422C302.32 351.52 302.205 351.605 302.082 351.678C301.962 351.747 301.823 351.807 301.667 351.858C301.511 351.905 301.336 351.942 301.143 351.967C300.951 351.989 300.734 352 300.494 352H300.309V350.969ZM304.881 353.98C305.43 353.98 305.892 353.938 306.266 353.855C306.641 353.771 306.937 353.642 307.155 353.467C307.344 353.315 307.483 353.12 307.57 352.884C307.661 352.647 307.706 352.353 307.706 352H306.703C306.448 352 306.19 351.962 305.928 351.885C305.666 351.809 305.428 351.684 305.214 351.509C305.003 351.335 304.83 351.107 304.695 350.827C304.561 350.544 304.494 350.198 304.494 349.791C304.494 349.551 304.514 349.335 304.554 349.142C304.597 348.945 304.65 348.771 304.712 348.618C304.777 348.465 304.848 348.333 304.924 348.22C305.001 348.107 305.075 348.011 305.148 347.931C305.348 347.731 305.577 347.576 305.835 347.467C306.094 347.358 306.37 347.304 306.664 347.304C306.923 347.304 307.164 347.344 307.39 347.424C307.615 347.504 307.817 347.624 307.995 347.784C308.486 348.242 308.732 348.96 308.732 349.938V352C308.732 352.516 308.655 352.96 308.503 353.331C308.354 353.705 308.121 354.018 307.804 354.269C307.484 354.52 307.086 354.705 306.61 354.825C306.137 354.949 305.561 355.011 304.881 355.011V353.98ZM306.664 348.335C306.304 348.335 306.024 348.462 305.824 348.716C305.624 348.971 305.524 349.329 305.524 349.791C305.524 350.26 305.666 350.585 305.95 350.767C306.019 350.811 306.09 350.847 306.163 350.876C306.235 350.902 306.306 350.922 306.375 350.936C306.444 350.947 306.506 350.956 306.561 350.964C306.619 350.967 306.666 350.969 306.703 350.969H307.706V349.938C307.706 349.673 307.686 349.449 307.646 349.267C307.606 349.082 307.555 348.929 307.494 348.809C307.432 348.689 307.361 348.598 307.281 348.536C307.204 348.471 307.128 348.424 307.052 348.395C306.975 348.365 306.903 348.349 306.834 348.345C306.764 348.338 306.708 348.335 306.664 348.335Z" fill="white"/>
<path d="M306.11 236.968L306.071 237.199C306.012 237.543 305.89 237.849 305.705 238.116C306.206 238.202 306.643 238.348 307.013 238.555C307.384 238.762 307.682 239.023 307.909 239.338C308.139 239.654 308.293 240.021 308.369 240.44C308.446 240.855 308.441 241.317 308.354 241.826L308.228 242.568L307.212 242.395L307.338 241.653C307.401 241.284 307.41 240.957 307.366 240.673C307.327 240.386 307.23 240.139 307.078 239.932C306.925 239.722 306.714 239.551 306.445 239.421C306.177 239.287 305.847 239.186 305.456 239.12L302.101 238.549L302.274 237.533L304.054 237.835C304.254 237.87 304.419 237.855 304.548 237.792C304.674 237.725 304.773 237.641 304.846 237.539C304.918 237.437 304.97 237.337 305.002 237.239C305.03 237.137 305.048 237.066 305.055 237.026L305.094 236.795L306.11 236.968ZM306.072 237.194L305.055 237.021L305.214 236.091C305.256 235.84 305.265 235.635 305.241 235.476C305.216 235.317 305.173 235.191 305.111 235.1C305.046 235.007 304.969 234.941 304.88 234.9C304.791 234.859 304.701 234.831 304.612 234.815L302.789 234.505L302.961 233.494L304.741 233.797C304.942 233.831 305.105 233.817 305.23 233.753C305.355 233.686 305.454 233.603 305.526 233.505C305.466 233.45 305.405 233.397 305.343 233.346C305.279 233.291 305.214 233.236 305.15 233.181C304.944 233.002 304.736 232.817 304.525 232.626C304.311 232.431 304.106 232.23 303.908 232.023C303.708 231.816 303.522 231.604 303.353 231.387C303.184 231.166 303.043 230.939 302.932 230.706C302.817 230.473 302.736 230.232 302.69 229.985C302.64 229.736 302.637 229.481 302.681 229.22C302.726 228.958 302.818 228.71 302.957 228.475C303.094 228.237 303.279 228.036 303.514 227.873C303.744 227.709 304.024 227.595 304.352 227.529C304.681 227.459 305.059 227.461 305.486 227.533C305.722 227.574 305.931 227.635 306.113 227.718C306.295 227.796 306.454 227.89 306.591 227.998L306.779 226.89L307.796 227.063L306.761 233.145C306.717 233.403 306.638 233.64 306.523 233.857C306.405 234.073 306.26 234.257 306.087 234.408C306.047 234.445 306.004 234.481 305.958 234.513C306.109 234.731 306.207 234.982 306.25 235.266C306.295 235.546 306.29 235.866 306.236 236.226L306.072 237.194ZM306.278 229.837C306.288 229.754 306.292 229.648 306.288 229.518C306.285 229.385 306.256 229.252 306.2 229.121C306.13 228.969 306.024 228.844 305.882 228.746C305.738 228.644 305.549 228.573 305.316 228.534C304.857 228.455 304.487 228.494 304.206 228.649C303.921 228.804 303.75 229.051 303.692 229.392C303.664 229.56 303.673 229.73 303.722 229.9C303.767 230.07 303.839 230.243 303.938 230.418C304.038 230.59 304.16 230.762 304.304 230.934C304.448 231.106 304.604 231.277 304.77 231.445C304.938 231.61 305.113 231.775 305.295 231.938C305.474 232.098 305.649 232.253 305.819 232.404L305.839 232.418L306.278 229.837ZM308.606 222.297C308.596 222.358 308.577 222.427 308.549 222.503C308.518 222.579 308.47 222.667 308.405 222.766C308.34 222.866 308.253 222.978 308.143 223.103C308.033 223.229 307.892 223.373 307.721 223.535C307.876 223.989 307.96 224.504 307.973 225.077C307.982 225.651 307.929 226.28 307.812 226.965L307.759 227.276L306.743 227.104L306.796 226.792C306.884 226.275 306.934 225.808 306.946 225.39C306.955 224.971 306.927 224.61 306.865 224.308C306.675 224.468 306.48 224.626 306.28 224.784C306.08 224.938 305.894 225.08 305.721 225.209C305.544 225.337 305.392 225.45 305.265 225.546C305.135 225.638 305.045 225.701 304.995 225.733L304.78 225.696C304.712 225.685 304.639 225.668 304.562 225.648C304.48 225.627 304.399 225.598 304.316 225.562C304.234 225.526 304.153 225.479 304.075 225.421C303.992 225.363 303.916 225.291 303.846 225.205C303.587 224.881 303.509 224.421 303.61 223.826L303.913 222.046C303.964 221.749 304.083 221.492 304.271 221.277C304.455 221.061 304.684 220.92 304.957 220.852C305.136 220.797 305.306 220.786 305.467 220.817C305.624 220.844 305.775 220.901 305.919 220.988C306.06 221.071 306.193 221.176 306.319 221.305C306.441 221.429 306.559 221.563 306.671 221.708C306.779 221.852 306.881 221.998 306.978 222.147C307.075 222.293 307.166 222.428 307.252 222.553C307.319 222.484 307.375 222.423 307.421 222.372C307.463 222.32 307.496 222.278 307.52 222.245C307.544 222.209 307.562 222.182 307.572 222.165C307.579 222.144 307.585 222.131 307.59 222.124L307.925 220.156L308.941 220.329L308.606 222.297ZM304.761 224.636C304.842 224.576 304.954 224.492 305.098 224.384C305.238 224.275 305.391 224.157 305.556 224.03C305.722 223.9 305.888 223.769 306.054 223.639C306.221 223.505 306.367 223.384 306.492 223.276C306.371 223.057 306.239 222.844 306.097 222.639C305.956 222.431 305.787 222.218 305.592 222C305.548 221.952 305.495 221.908 305.432 221.868C305.408 221.853 305.383 221.843 305.354 221.838C305.311 221.83 305.266 221.834 305.219 221.848C305.161 221.868 305.103 221.906 305.045 221.962C304.987 222.019 304.949 222.104 304.929 222.219L304.626 223.999C304.609 224.103 304.599 224.19 304.599 224.26C304.595 224.326 304.596 224.381 304.603 224.427C304.611 224.469 304.62 224.501 304.631 224.525C304.639 224.545 304.647 224.56 304.657 224.569C304.662 224.581 304.675 224.592 304.695 224.603C304.712 224.613 304.734 224.624 304.761 224.636ZM308.75 215.305L309.767 215.478L309.607 216.419C309.551 216.745 309.455 217.026 309.32 217.261C309.184 217.492 309.011 217.668 308.799 217.786C309.108 218.223 309.2 218.806 309.076 219.538L308.765 221.366L307.749 221.193L308.06 219.365C308.104 219.107 308.113 218.898 308.089 218.739C308.061 218.579 308.015 218.455 307.953 218.367C307.887 218.275 307.81 218.21 307.72 218.173C307.628 218.131 307.539 218.103 307.452 218.089L305.635 217.779L305.807 216.768L307.587 217.071C307.719 217.094 307.836 217.093 307.936 217.07C308.036 217.043 308.124 217.004 308.199 216.954C308.27 216.903 308.33 216.844 308.379 216.774C308.428 216.702 308.468 216.631 308.498 216.562C308.528 216.494 308.55 216.431 308.563 216.374C308.576 216.317 308.586 216.275 308.59 216.246L308.75 215.305ZM311.595 217.316L312.318 218.335L311.304 219.026L310.589 218.03L311.595 217.316ZM311.256 219.377L311.978 220.397L310.965 221.087L310.249 220.091L311.256 219.377ZM308.711 215.539L308.742 215.356C308.798 215.027 308.818 214.766 308.803 214.576C308.784 214.381 308.733 214.224 308.65 214.107C308.594 214.024 308.508 213.956 308.392 213.903C308.272 213.845 308.11 213.799 307.906 213.765L302.319 212.814L302.491 211.803L308.078 212.754C308.2 212.774 308.326 212.801 308.457 212.835C308.584 212.867 308.711 212.913 308.838 212.971C308.964 213.03 309.086 213.104 309.204 213.194C309.318 213.284 309.42 213.395 309.512 213.529C309.591 213.649 309.656 213.777 309.707 213.911C309.755 214.04 309.791 214.187 309.815 214.349C309.835 214.512 309.842 214.69 309.835 214.884C309.824 215.078 309.798 215.293 309.758 215.529L309.727 215.712L308.711 215.539ZM312.446 211.537C312.538 210.996 312.574 210.534 312.555 210.15C312.535 209.767 312.457 209.453 312.322 209.209C312.203 208.997 312.034 208.828 311.816 208.702C311.598 208.573 311.316 208.479 310.968 208.42L310.799 209.409C310.757 209.66 310.676 209.908 310.557 210.153C310.437 210.399 310.274 210.612 310.066 210.795C309.858 210.973 309.605 211.105 309.307 211.191C309.004 211.276 308.653 211.285 308.251 211.216C308.015 211.176 307.805 211.12 307.621 211.048C307.435 210.972 307.272 210.891 307.132 210.804C306.992 210.714 306.873 210.622 306.775 210.528C306.676 210.434 306.594 210.344 306.527 210.259C306.364 210.028 306.25 209.776 306.185 209.504C306.121 209.231 306.114 208.949 306.163 208.659C306.207 208.404 306.287 208.173 306.403 207.964C306.52 207.755 306.672 207.576 306.86 207.427C307.394 207.02 308.143 206.899 309.107 207.063L311.14 207.409C311.649 207.495 312.073 207.645 312.413 207.858C312.758 208.068 313.027 208.349 313.221 208.703C313.415 209.061 313.531 209.485 313.569 209.974C313.612 210.461 313.576 211.04 313.462 211.71L312.446 211.537ZM307.18 208.832C307.119 209.187 307.198 209.484 307.415 209.724C307.632 209.964 307.969 210.122 308.424 210.2C308.886 210.279 309.231 210.193 309.458 209.944C309.513 209.883 309.56 209.82 309.601 209.753C309.638 209.685 309.67 209.619 309.696 209.553C309.718 209.487 309.738 209.428 309.754 209.375C309.767 209.318 309.777 209.272 309.783 209.236L309.952 208.247L308.935 208.074C308.674 208.029 308.45 208.011 308.264 208.02C308.074 208.029 307.915 208.053 307.786 208.094C307.658 208.135 307.556 208.189 307.482 208.258C307.405 208.322 307.345 208.39 307.304 208.46C307.262 208.53 307.234 208.599 307.219 208.667C307.2 208.734 307.187 208.789 307.18 208.832ZM315.495 199.829C315.4 200.384 315.193 200.867 314.872 201.277C314.555 201.688 314.149 201.995 313.653 202.199C313.315 202.34 312.953 202.421 312.566 202.44C312.268 202.459 311.961 202.442 311.645 202.388C311.552 202.372 311.378 202.335 311.122 202.277C310.864 202.215 310.514 202.078 310.074 201.866C309.631 201.655 309.182 201.388 308.728 201.067L309.319 200.227C309.7 200.499 310.073 200.726 310.436 200.91C310.797 201.089 311.145 201.222 311.481 201.309C311.593 201.339 311.704 201.364 311.811 201.382C312.026 201.418 312.258 201.434 312.506 201.428C312.758 201.419 313.012 201.361 313.266 201.253C313.588 201.116 313.854 200.911 314.063 200.636C314.275 200.363 314.414 200.036 314.479 199.656L314.694 198.392C314.764 197.98 314.776 197.637 314.73 197.364C314.689 197.087 314.601 196.864 314.468 196.694C314.335 196.52 314.16 196.389 313.943 196.3C313.73 196.209 313.487 196.14 313.215 196.093L309.434 195.45L309.607 194.434L313.387 195.077C314.334 195.238 314.999 195.609 315.383 196.191C315.771 196.774 315.88 197.565 315.71 198.565L315.495 199.829ZM308.463 198.588L307.694 197.516L308.789 196.74L309.556 197.822L308.463 198.588ZM313.938 190.962C313.871 191.338 313.792 191.646 313.704 191.885C313.612 192.12 313.507 192.316 313.388 192.473C313.266 192.626 313.128 192.743 312.974 192.823C312.817 192.9 312.643 192.951 312.45 192.978C312.254 193.003 312.039 193.006 311.807 192.984C311.575 192.963 311.318 192.929 311.039 192.881L305.866 192.001L306.039 190.985L311.212 191.865C311.524 191.918 311.778 191.952 311.975 191.967C312.172 191.979 312.331 191.952 312.453 191.888C312.571 191.82 312.665 191.705 312.733 191.543C312.798 191.377 312.861 191.126 312.922 190.789L313.938 190.962ZM310.017 187.536C310.04 187.533 310.1 187.528 310.197 187.523C310.294 187.517 310.414 187.514 310.558 187.512C310.699 187.507 310.857 187.502 311.031 187.499C311.201 187.494 311.375 187.494 311.551 187.499C311.724 187.502 311.89 187.508 312.051 187.517C312.212 187.526 312.351 187.541 312.47 187.561C312.814 187.62 313.102 187.727 313.333 187.885C313.562 188.038 313.743 188.22 313.876 188.431C314.007 188.638 314.093 188.861 314.133 189.1C314.174 189.339 314.175 189.574 314.135 189.803L313.902 191.174L312.886 191.001L313.119 189.63C313.128 189.576 313.134 189.5 313.136 189.401C313.135 189.297 313.111 189.192 313.063 189.084C313.015 188.972 312.933 188.87 312.816 188.776C312.7 188.679 312.527 188.611 312.298 188.572C312.219 188.558 312.119 188.549 311.998 188.543C311.875 188.533 311.743 188.527 311.603 188.526C311.46 188.52 311.315 188.517 311.167 188.518C311.016 188.518 310.874 188.52 310.74 188.523C310.607 188.526 310.488 188.53 310.384 188.534C310.28 188.538 310.202 188.544 310.149 188.549L310.017 187.536ZM316.03 190.474L315.26 189.402L316.355 188.626L317.123 189.708L316.03 190.474ZM315.112 184.065C315.044 184.441 314.966 184.749 314.877 184.988C314.786 185.223 314.68 185.42 314.561 185.576C314.44 185.729 314.302 185.846 314.148 185.926C313.991 186.003 313.816 186.054 313.624 186.081C313.427 186.106 313.213 186.109 312.981 186.087C312.748 186.066 312.492 186.032 312.212 185.984L307.039 185.104L307.212 184.088L312.385 184.968C312.697 185.021 312.951 185.055 313.148 185.07C313.345 185.082 313.505 185.055 313.626 184.991C313.745 184.923 313.838 184.808 313.906 184.646C313.972 184.48 314.035 184.229 314.095 183.892L315.112 184.065ZM315.059 178.232L316.075 178.405L315.915 179.346C315.859 179.673 315.764 179.953 315.628 180.188C315.492 180.42 315.319 180.595 315.107 180.714C315.416 181.15 315.508 181.734 315.384 182.465L315.073 184.293L314.057 184.12L314.368 182.292C314.412 182.034 314.421 181.825 314.397 181.666C314.369 181.507 314.323 181.383 314.261 181.295C314.195 181.202 314.118 181.138 314.028 181.1C313.936 181.059 313.847 181.031 313.761 181.016L311.943 180.707L312.115 179.696L313.895 179.999C314.028 180.021 314.144 180.021 314.244 179.997C314.344 179.97 314.432 179.931 314.507 179.881C314.578 179.831 314.638 179.771 314.687 179.702C314.736 179.629 314.776 179.558 314.806 179.49C314.836 179.421 314.858 179.358 314.871 179.302C314.884 179.245 314.894 179.202 314.898 179.173L315.059 178.232ZM317.903 180.244L318.626 181.263L317.612 181.953L316.897 180.957L317.903 180.244ZM317.564 182.305L318.287 183.324L317.273 184.015L316.557 183.019L317.564 182.305ZM315.117 171.025C315.128 171.049 315.175 171.153 315.258 171.337C315.341 171.52 315.44 171.764 315.554 172.068C315.666 172.367 315.782 172.715 315.902 173.112C316.023 173.508 316.124 173.931 316.206 174.381C316.289 174.826 316.343 175.287 316.369 175.764C316.392 176.24 316.364 176.707 316.286 177.166L316.035 178.64L315.019 178.467L315.269 176.993C315.338 176.592 315.36 176.179 315.336 175.754C315.31 175.325 315.259 174.909 315.184 174.505C315.105 174.101 315.011 173.718 314.903 173.357C314.792 172.995 314.684 172.676 314.579 172.4C314.38 172.724 314.185 173.048 313.993 173.373C313.802 173.695 313.632 173.991 313.483 174.26C313.33 174.529 313.203 174.762 313.104 174.959C313.004 175.153 312.943 175.282 312.921 175.349C312.911 175.41 312.905 175.475 312.904 175.545C312.904 175.611 312.925 175.681 312.968 175.755C313.011 175.829 313.084 175.906 313.189 175.986C313.29 176.066 313.438 176.15 313.633 176.239L313.207 177.179C312.193 176.722 311.761 176.051 311.912 175.166C311.916 175.144 311.922 175.116 311.932 175.081C311.938 175.045 311.956 174.995 311.985 174.93C312.011 174.864 312.052 174.777 312.107 174.668C312.159 174.559 312.23 174.422 312.321 174.256C312.413 174.087 312.528 173.884 312.669 173.646C312.805 173.407 312.973 173.122 313.174 172.791L314.202 171.008L315.117 171.025ZM309.516 175.948L308.747 174.876L309.841 174.1L310.609 175.182L309.516 175.948Z" fill="white"/>
<path d="M380.378 372.328C380.019 372.345 379.7 372.308 379.423 372.215C379.149 372.123 378.917 371.981 378.726 371.79C378.633 371.911 378.527 372.014 378.407 372.1C378.291 372.182 378.169 372.251 378.04 372.309C377.915 372.362 377.786 372.403 377.653 372.431C377.523 372.455 377.396 372.47 377.273 372.476C376.819 372.498 376.422 372.415 376.082 372.227L376.103 372.685C376.149 373.636 375.928 374.362 375.443 374.862C374.957 375.362 374.207 375.636 373.194 375.685L371.913 375.746C371.35 375.773 370.834 375.675 370.365 375.454C369.896 375.232 369.509 374.903 369.204 374.466C368.993 374.166 368.837 373.83 368.735 373.456C368.652 373.165 368.603 372.858 368.588 372.535C368.583 372.44 368.582 372.26 368.584 371.994C368.589 371.728 368.648 371.354 368.76 370.872C368.871 370.39 369.035 369.891 369.251 369.374L370.199 369.782C370.015 370.213 369.873 370.626 369.772 371.02C369.674 371.415 369.619 371.785 369.606 372.131C369.601 372.248 369.601 372.361 369.606 372.47C369.616 372.692 369.651 372.925 369.71 373.169C369.773 373.414 369.884 373.649 370.044 373.874C370.247 374.16 370.505 374.375 370.817 374.52C371.13 374.669 371.479 374.734 371.864 374.716L373.145 374.655C373.562 374.635 373.9 374.575 374.157 374.476C374.418 374.376 374.618 374.243 374.755 374.076C374.897 373.909 374.987 373.712 375.027 373.484C375.071 373.26 375.087 373.01 375.074 372.734L374.891 368.898L375.921 368.849L375.971 369.912C375.988 370.26 376.034 370.538 376.109 370.746C376.188 370.95 376.285 371.105 376.399 371.213C376.517 371.32 376.646 371.388 376.786 371.418C376.929 371.448 377.075 371.459 377.224 371.452C377.315 371.447 377.418 371.426 377.532 371.388C377.647 371.35 377.753 371.29 377.851 371.209C377.949 371.124 378.03 371.015 378.092 370.881C378.159 370.747 378.187 370.581 378.178 370.385L378.1 368.745L379.124 368.696L379.205 370.391C379.228 370.721 379.327 370.96 379.501 371.109C379.679 371.257 379.954 371.322 380.324 371.304C380.386 371.298 380.465 371.281 380.562 371.255C380.663 371.224 380.757 371.173 380.844 371.099C380.935 371.022 381.01 370.917 381.069 370.783C381.132 370.645 381.158 370.465 381.147 370.244C381.144 370.164 381.132 370.064 381.111 369.945C381.095 369.826 381.074 369.699 381.05 369.566C381.025 369.429 380.996 369.29 380.964 369.149C380.932 369.005 380.9 368.87 380.869 368.744C380.841 368.618 380.814 368.507 380.787 368.41C380.76 368.309 380.739 368.234 380.722 368.184L381.688 367.837C381.696 367.855 381.712 367.911 381.734 368.004C381.76 368.094 381.791 368.207 381.827 368.344C381.862 368.477 381.899 368.626 381.936 368.792C381.976 368.957 382.013 369.125 382.047 369.294C382.08 369.46 382.108 369.623 382.13 369.782C382.156 369.937 382.171 370.075 382.177 370.195C382.194 370.54 382.152 370.842 382.051 371.102C381.954 371.358 381.819 371.575 381.645 371.755C381.475 371.93 381.278 372.067 381.053 372.165C380.832 372.259 380.607 372.314 380.378 372.328ZM379.004 364.792L378.266 365.587L377.467 364.866L378.215 364.049L379.004 364.792ZM379.388 367.242L378.486 366.412L379.294 365.488L380.218 366.329L379.388 367.242ZM377.301 367.331L376.398 366.5L377.206 365.577L378.131 366.418L377.301 367.331ZM381.944 375.284L381.895 374.255L382.647 374.219C383.021 374.201 383.342 374.14 383.61 374.036C383.882 373.936 384.103 373.789 384.272 373.595C384.444 373.401 384.566 373.159 384.636 372.868C384.709 372.577 384.737 372.233 384.718 371.838L384.556 368.438L385.585 368.389L385.747 371.789C385.772 372.308 385.725 372.774 385.607 373.188C385.492 373.605 385.307 373.961 385.051 374.257C384.796 374.553 384.47 374.785 384.074 374.954C383.682 375.125 383.222 375.223 382.696 375.249L381.944 375.284ZM383.98 366.101L384.862 365.119L385.855 366.022L384.963 367.004L383.98 366.101ZM389.76 371.881C389.378 371.896 389.061 371.886 388.808 371.85C388.559 371.811 388.345 371.75 388.166 371.668C387.991 371.582 387.847 371.472 387.736 371.339C387.627 371.202 387.539 371.042 387.472 370.86C387.405 370.674 387.357 370.465 387.328 370.233C387.299 370.002 387.277 369.744 387.264 369.461L387.014 364.22L388.044 364.171L388.294 369.412C388.309 369.728 388.33 369.984 388.357 370.179C388.389 370.374 388.448 370.524 388.537 370.629C388.629 370.73 388.762 370.797 388.934 370.829C389.111 370.857 389.369 370.864 389.711 370.852L389.76 371.881ZM393.795 371.678C393.453 371.695 393.147 371.66 392.878 371.575C392.608 371.485 392.377 371.351 392.187 371.171C392.008 371.383 391.795 371.544 391.549 371.654C391.303 371.761 391.053 371.82 390.798 371.832L389.545 371.892L389.496 370.862L390.749 370.802C390.804 370.8 390.882 370.789 390.983 370.769C391.083 370.746 391.181 370.7 391.276 370.63C391.371 370.556 391.452 370.45 391.518 370.312C391.588 370.174 391.617 369.989 391.606 369.757L391.527 368.106L392.557 368.057L392.635 369.686C392.652 370.038 392.746 370.292 392.917 370.448C393.092 370.603 393.368 370.672 393.746 370.654C393.8 370.651 393.876 370.639 393.973 370.616C394.074 370.589 394.172 370.539 394.266 370.465C394.365 370.392 394.447 370.286 394.513 370.148C394.583 370.01 394.613 369.825 394.602 369.592L394.524 367.963L395.548 367.914L395.626 369.543C395.643 369.896 395.74 370.151 395.919 370.31C396.098 370.469 396.376 370.54 396.754 370.522C396.812 370.519 396.889 370.504 396.987 370.478C397.083 370.448 397.177 370.394 397.268 370.317C397.363 370.24 397.441 370.132 397.504 369.994C397.567 369.857 397.593 369.675 397.582 369.45C397.578 369.37 397.566 369.271 397.546 369.152C397.529 369.032 397.507 368.904 397.478 368.767C397.454 368.63 397.425 368.491 397.393 368.351C397.361 368.207 397.329 368.073 397.298 367.951C397.266 367.825 397.237 367.714 397.211 367.617C397.184 367.516 397.162 367.442 397.146 367.396L398.106 367.039C398.114 367.06 398.132 367.118 398.158 367.211C398.184 367.301 398.215 367.414 398.25 367.551C398.286 367.684 398.322 367.833 398.359 367.999C398.4 368.164 398.437 368.332 398.471 368.501C398.508 368.667 398.539 368.829 398.565 368.988C398.59 369.144 398.606 369.281 398.612 369.401C398.628 369.746 398.586 370.05 398.486 370.314C398.385 370.573 398.248 370.793 398.075 370.972C397.905 371.148 397.708 371.284 397.483 371.382C397.258 371.477 397.031 371.531 396.803 371.546C396.454 371.563 396.143 371.526 395.869 371.438C395.599 371.345 395.367 371.205 395.172 371.017C394.993 371.226 394.78 371.386 394.534 371.496C394.292 371.605 394.045 371.666 393.795 371.678ZM410.086 370.913L409.949 370.92C409.368 370.947 408.854 370.848 408.406 370.622C407.962 370.392 407.613 370.059 407.359 369.623C407.251 369.789 407.118 369.935 406.96 370.063C406.806 370.187 406.629 370.299 406.43 370.399C406.316 370.452 406.183 370.497 406.032 370.533C405.881 370.569 405.72 370.592 405.549 370.6C405.379 370.608 405.201 370.596 405.018 370.565C404.838 370.533 404.66 370.475 404.485 370.388C404.217 370.263 403.998 370.091 403.827 369.873C403.66 369.652 403.544 369.388 403.478 369.082C403.446 368.941 403.427 368.802 403.42 368.664C403.409 368.432 403.442 368.17 403.519 367.879C403.6 367.587 403.775 367.288 404.044 366.98C404.518 366.448 405.202 366.026 406.097 365.713L405.966 365.13L406.958 364.87C407.063 365.229 407.154 365.548 407.233 365.829C407.312 366.105 407.382 366.355 407.444 366.578C407.457 366.621 407.476 366.693 407.503 366.793C407.533 366.894 407.568 367.01 407.607 367.143C407.646 367.272 407.687 367.413 407.731 367.563C407.775 367.714 407.818 367.861 407.861 368.005C407.904 368.148 407.945 368.283 407.984 368.409C408.023 368.534 408.057 368.638 408.086 368.72C408.172 368.989 408.29 369.204 408.439 369.364C408.589 369.521 408.749 369.641 408.921 369.724C409.092 369.803 409.263 369.853 409.436 369.874C409.611 369.891 409.766 369.896 409.9 369.89L410.037 369.884L410.086 370.913ZM406.417 366.692C406.063 366.815 405.751 366.955 405.482 367.113C405.212 367.272 404.991 367.444 404.818 367.631C404.648 367.814 404.53 368.009 404.464 368.216C404.419 368.353 404.4 368.492 404.407 368.634C404.411 368.706 404.421 368.78 404.44 368.856C404.472 369.007 404.533 369.134 404.621 369.235C404.71 369.333 404.812 369.41 404.927 369.466C405.01 369.51 405.098 369.54 405.194 369.557C405.289 369.571 405.384 369.575 405.478 369.571L405.533 369.568C405.609 369.565 405.687 369.556 405.766 369.541C405.846 369.523 405.919 369.497 405.987 369.465C406.435 369.254 406.686 368.898 406.739 368.397C406.748 368.28 406.75 368.171 406.745 368.069C406.742 368.015 406.733 367.939 406.718 367.841C406.702 367.743 406.688 367.669 406.674 367.619L406.417 366.692ZM417.107 368.395C417.086 368.41 416.994 368.478 416.832 368.599C416.671 368.719 416.454 368.868 416.182 369.045C415.914 369.218 415.599 369.406 415.237 369.609C414.875 369.811 414.484 370.001 414.063 370.178C413.645 370.354 413.206 370.506 412.746 370.634C412.286 370.757 411.824 370.83 411.359 370.853L409.866 370.924L409.817 369.894L411.31 369.823C411.717 369.804 412.125 369.737 412.534 369.623C412.947 369.505 413.343 369.366 413.721 369.206C414.1 369.042 414.453 368.869 414.783 368.685C415.113 368.499 415.401 368.325 415.649 368.164C415.289 368.039 414.931 367.918 414.572 367.8C414.217 367.682 413.891 367.579 413.596 367.491C413.3 367.4 413.046 367.327 412.832 367.271C412.622 367.216 412.482 367.184 412.412 367.177C412.351 367.179 412.286 367.188 412.217 367.202C412.152 367.216 412.088 367.252 412.026 367.31C411.963 367.367 411.903 367.456 411.847 367.575C411.791 367.69 411.74 367.853 411.696 368.063L410.686 367.849C410.915 366.76 411.477 366.194 412.375 366.152C412.396 366.151 412.426 366.151 412.462 366.153C412.498 366.151 412.551 366.158 412.621 366.173C412.691 366.184 412.785 366.205 412.903 366.236C413.021 366.263 413.17 366.303 413.351 366.356C413.535 366.41 413.759 366.479 414.022 366.565C414.284 366.647 414.598 366.75 414.965 366.875L416.927 367.497L417.107 368.395ZM413.914 375.094L413.093 374.352L413.82 373.559L414.629 374.279L413.914 375.094ZM415.692 372.634L414.852 373.559L413.96 372.716L414.779 371.804L415.692 372.634ZM413.606 372.744L412.765 373.669L411.873 372.827L412.693 371.914L413.606 372.744ZM418.801 372.48C419.349 372.454 419.809 372.391 420.179 372.289C420.549 372.188 420.839 372.045 421.049 371.86C421.23 371.699 421.359 371.498 421.435 371.257C421.514 371.017 421.546 370.721 421.529 370.368L420.527 370.416C420.272 370.428 420.013 370.402 419.747 370.338C419.482 370.275 419.238 370.161 419.016 369.996C418.797 369.832 418.613 369.613 418.466 369.34C418.318 369.063 418.234 368.721 418.215 368.315C418.203 368.075 418.213 367.858 418.244 367.663C418.278 367.465 418.322 367.288 418.377 367.133C418.435 366.977 418.5 366.841 418.571 366.725C418.641 366.609 418.711 366.509 418.78 366.425C418.97 366.216 419.192 366.051 419.445 365.93C419.697 365.808 419.971 365.741 420.265 365.727C420.523 365.714 420.766 365.743 420.995 365.812C421.224 365.881 421.432 365.992 421.617 366.143C422.129 366.577 422.409 367.283 422.455 368.26L422.504 369.29L423.322 369.251L423.371 370.281L422.553 370.319C422.578 370.835 422.523 371.282 422.388 371.66C422.257 372.041 422.039 372.364 421.735 372.63C421.427 372.896 421.038 373.1 420.568 373.243C420.102 373.389 419.529 373.478 418.85 373.51L418.801 372.48ZM420.26 366.759C419.9 366.776 419.626 366.917 419.439 367.18C419.251 367.444 419.168 367.807 419.19 368.268C419.212 368.737 419.37 369.055 419.662 369.223C419.733 369.263 419.805 369.296 419.879 369.322C419.953 369.344 420.025 369.36 420.095 369.372C420.164 369.379 420.226 369.385 420.281 369.39C420.339 369.391 420.387 369.391 420.423 369.389L421.425 369.341L421.376 368.311C421.364 368.046 421.333 367.824 421.285 367.644C421.236 367.461 421.178 367.311 421.11 367.194C421.043 367.077 420.968 366.989 420.885 366.931C420.805 366.87 420.727 366.826 420.649 366.801C420.572 366.775 420.498 366.762 420.429 366.762C420.36 366.758 420.303 366.757 420.26 366.759ZM423.135 370.292L423.086 369.262L426.279 369.11C426.541 369.097 426.755 369.058 426.923 368.992C427.095 368.922 427.203 368.833 427.249 368.725C427.272 368.669 427.282 368.607 427.279 368.538C427.276 368.476 427.253 368.39 427.212 368.279C427.173 368.164 427.094 368.017 426.972 367.837C426.85 367.654 426.703 367.462 426.53 367.263C426.356 367.064 426.17 366.865 425.972 366.667C425.773 366.469 425.569 366.277 425.36 366.09C425.151 365.9 424.949 365.726 424.756 365.567C424.563 365.406 424.387 365.265 424.228 365.145C424.069 365.021 423.939 364.927 423.838 364.863L423.886 363.698L428.767 361.27L429.226 362.187L424.953 364.302C425.067 364.406 425.213 364.537 425.392 364.696C425.57 364.852 425.764 365.026 425.974 365.22C426.183 365.41 426.397 365.615 426.615 365.834C426.832 366.049 427.039 366.267 427.235 366.487C427.432 366.707 427.606 366.924 427.758 367.139C427.914 367.35 428.03 367.547 428.108 367.729C428.178 367.885 428.228 368.032 428.26 368.169C428.284 368.288 428.298 368.397 428.303 368.495C428.304 368.513 428.304 368.555 428.304 368.62C428.307 368.686 428.298 368.764 428.277 368.856C428.259 368.948 428.237 369.028 428.211 369.094C428.176 369.187 428.119 369.292 428.041 369.408C427.962 369.521 427.849 369.63 427.701 369.736C427.557 369.837 427.374 369.926 427.152 370.002C426.93 370.078 426.655 370.124 426.328 370.14L423.135 370.292Z" fill="white"/>
<path d="M439.465 309.842C439.062 310.237 438.61 310.506 438.11 310.649C437.612 310.796 437.103 310.806 436.582 310.679C436.226 310.596 435.885 310.448 435.561 310.236C435.308 310.076 435.07 309.882 434.846 309.654C434.78 309.586 434.66 309.454 434.488 309.256C434.315 309.054 434.113 308.738 433.881 308.309C433.646 307.877 433.439 307.397 433.26 306.871L434.231 306.538C434.381 306.982 434.549 307.385 434.735 307.747C434.922 308.104 435.125 308.416 435.346 308.683C435.42 308.774 435.495 308.858 435.571 308.936C435.724 309.092 435.902 309.241 436.106 309.382C436.316 309.523 436.555 309.624 436.824 309.687C437.165 309.765 437.501 309.754 437.831 309.655C438.164 309.558 438.468 309.375 438.744 309.106L439.66 308.209C439.959 307.916 440.17 307.646 440.293 307.398C440.422 307.15 440.482 306.918 440.474 306.702C440.469 306.483 440.404 306.274 440.281 306.075C440.162 305.876 440.006 305.677 439.813 305.48L437.131 302.739L437.867 302.018L440.549 304.759C441.221 305.445 441.541 306.136 441.511 306.833C441.482 307.532 441.106 308.236 440.381 308.946L439.465 309.842ZM434.502 304.709L434.508 303.39L435.851 303.404L435.836 304.731L434.502 304.709ZM443.411 301.752C443.136 302.016 442.892 302.219 442.68 302.361C442.467 302.498 442.267 302.594 442.079 302.652C441.89 302.703 441.71 302.717 441.538 302.692C441.366 302.662 441.195 302.601 441.023 302.509C440.85 302.415 440.675 302.29 440.499 302.137C440.323 301.983 440.136 301.805 439.938 301.602L436.268 297.852L437.004 297.131L440.675 300.881C440.896 301.107 441.082 301.284 441.232 301.412C441.385 301.537 441.529 301.609 441.665 301.629C441.802 301.643 441.945 301.605 442.095 301.514C442.245 301.418 442.444 301.251 442.69 301.015L443.411 301.752ZM447.014 295.173C447.009 295.199 446.987 295.307 446.949 295.497C446.911 295.686 446.852 295.93 446.771 296.227C446.894 296.296 447.013 296.327 447.129 296.32C447.245 296.308 447.352 296.283 447.45 296.243C447.546 296.2 447.628 296.152 447.698 296.099C447.766 296.043 447.813 296.002 447.839 295.977L448.657 295.176L449.378 295.912L448.56 296.713C448.37 296.899 448.165 297.046 447.945 297.154C447.726 297.257 447.496 297.319 447.257 297.34C446.981 297.36 446.717 297.318 446.464 297.215C446.36 297.51 446.241 297.817 446.106 298.137C445.969 298.455 445.814 298.772 445.641 299.089C445.468 299.401 445.274 299.707 445.06 300.008C444.846 300.304 444.611 300.578 444.353 300.83L443.258 301.902L442.537 301.165L443.632 300.093C443.923 299.808 444.184 299.487 444.414 299.13C444.644 298.767 444.847 298.4 445.024 298.029C445.198 297.656 445.347 297.291 445.471 296.935C445.594 296.576 445.694 296.254 445.771 295.97C445.42 296.115 445.071 296.263 444.725 296.414C444.381 296.562 444.07 296.701 443.791 296.832C443.509 296.96 443.27 297.074 443.074 297.175C442.88 297.273 442.754 297.343 442.697 297.383C442.653 297.426 442.61 297.476 442.568 297.532C442.529 297.586 442.505 297.655 442.497 297.74C442.488 297.824 442.502 297.93 442.539 298.056C442.574 298.18 442.644 298.335 442.75 298.522L441.854 299.033C441.301 298.067 441.346 297.271 441.988 296.643C442.006 296.625 442.028 296.606 442.054 296.585C442.08 296.56 442.124 296.53 442.186 296.494C442.248 296.454 442.332 296.407 442.438 296.354C442.542 296.299 442.68 296.23 442.853 296.147C443.026 296.064 443.24 295.967 443.493 295.857C443.743 295.744 444.047 295.612 444.403 295.461L446.283 294.621L447.014 295.173ZM439.581 295.876L439.588 294.557L440.93 294.571L440.916 295.898L439.581 295.876ZM453.802 291.583C453.614 291.766 453.412 291.911 453.195 292.017C452.978 292.122 452.754 292.189 452.522 292.218C452.559 292.395 452.567 292.56 452.547 292.712C452.528 292.858 452.492 292.99 452.439 293.108C452.391 293.225 452.334 293.328 452.266 293.414C452.201 293.504 452.14 293.576 452.082 293.632C451.955 293.757 451.82 293.863 451.678 293.952C451.535 294.04 451.379 294.12 451.208 294.19C451.041 294.263 450.855 294.33 450.651 294.392C450.45 294.452 450.225 294.516 449.978 294.585C450.011 295.046 449.86 295.44 449.525 295.769L449.221 296.066L448.5 295.329L448.804 295.032C448.903 294.935 448.948 294.82 448.939 294.686C448.933 294.55 448.896 294.4 448.828 294.237C448.76 294.075 448.672 293.899 448.564 293.71C448.455 293.521 448.348 293.323 448.242 293.116C448.139 292.907 448.049 292.693 447.972 292.473C447.894 292.254 447.852 292.033 447.844 291.812C447.838 291.588 447.877 291.365 447.959 291.142C448.044 290.917 448.196 290.696 448.417 290.48C448.672 290.231 448.941 290.064 449.225 289.98C449.509 289.89 449.793 289.866 450.078 289.908C450.363 289.949 450.64 290.048 450.908 290.202C451.179 290.354 451.427 290.545 451.65 290.773C451.818 290.945 451.982 291.052 452.141 291.095C452.3 291.133 452.444 291.139 452.572 291.115C452.701 291.085 452.811 291.042 452.902 290.984C452.992 290.92 453.052 290.875 453.081 290.847L453.217 290.713L453.938 291.45L453.802 291.583ZM451.361 292.895C451.382 292.875 451.407 292.848 451.435 292.815C451.464 292.782 451.488 292.739 451.506 292.685C451.527 292.629 451.538 292.564 451.539 292.492C451.54 292.415 451.522 292.329 451.484 292.233C451.447 292.133 451.385 292.02 451.299 291.896C451.213 291.766 451.093 291.624 450.941 291.468C450.913 291.439 450.866 291.396 450.8 291.339C450.733 291.282 450.654 291.224 450.562 291.167C450.468 291.106 450.363 291.054 450.248 291.009C450.135 290.961 450.016 290.933 449.89 290.924C449.764 290.915 449.638 290.932 449.511 290.974C449.382 291.014 449.257 291.093 449.135 291.213C449.02 291.325 448.943 291.441 448.903 291.561C448.863 291.677 448.851 291.796 448.865 291.92C448.879 292.043 448.915 292.171 448.972 292.303C449.028 292.432 449.094 292.568 449.172 292.71C449.248 292.85 449.33 292.996 449.418 293.148C449.504 293.298 449.585 293.454 449.66 293.614C449.862 293.549 450.049 293.491 450.221 293.439C450.394 293.386 450.552 293.334 450.694 293.282C450.833 293.227 450.958 293.17 451.07 293.112C451.181 293.049 451.278 292.977 451.361 292.895ZM453.389 285.774C453.41 285.785 453.461 285.816 453.543 285.868C453.624 285.921 453.724 285.989 453.841 286.072C453.959 286.151 454.089 286.24 454.232 286.339C454.372 286.435 454.513 286.537 454.653 286.644C454.791 286.749 454.922 286.852 455.047 286.953C455.172 287.055 455.276 287.148 455.36 287.234C455.604 287.484 455.774 287.74 455.869 288.003C455.964 288.262 456.003 288.515 455.988 288.765C455.972 289.009 455.911 289.24 455.803 289.457C455.695 289.674 455.558 289.864 455.392 290.027L453.778 291.607L453.057 290.87L454.671 289.29C454.71 289.252 454.759 289.194 454.819 289.115C454.879 289.03 454.921 288.931 454.946 288.815C454.973 288.697 454.967 288.566 454.927 288.421C454.89 288.274 454.79 288.118 454.627 287.952C454.571 287.894 454.496 287.828 454.402 287.752C454.308 287.672 454.204 287.59 454.092 287.506C453.98 287.417 453.864 287.33 453.744 287.244C453.621 287.155 453.505 287.073 453.396 286.997C453.286 286.921 453.188 286.855 453.101 286.797C453.014 286.74 452.948 286.698 452.901 286.672L453.389 285.774ZM458.276 290.112L458.263 291.362L457.036 291.326L457.042 290.099L458.276 290.112ZM456.791 291.581L456.777 292.831L455.551 292.795L455.556 291.568L456.791 291.581ZM461.056 284.484L460.889 284.648C460.639 284.892 460.361 285.068 460.054 285.175C460.41 285.539 460.677 285.913 460.855 286.298C461.034 286.683 461.122 287.07 461.121 287.458C461.121 287.849 461.03 288.236 460.846 288.62C460.664 289.001 460.389 289.372 460.02 289.734L459.482 290.26L458.761 289.523L459.299 288.997C459.566 288.735 459.766 288.476 459.897 288.22C460.034 287.965 460.101 287.708 460.098 287.451C460.099 287.191 460.028 286.93 459.887 286.666C459.749 286.399 459.541 286.125 459.263 285.841L456.883 283.409L457.62 282.688L458.882 283.978C459.025 284.124 459.167 284.209 459.308 284.233C459.449 284.253 459.579 284.243 459.698 284.203C459.816 284.163 459.917 284.113 460 284.052C460.083 283.986 460.139 283.939 460.168 283.911L460.335 283.747L461.056 284.484ZM460.885 284.652L460.164 283.915L462.448 281.679C462.635 281.496 462.769 281.324 462.851 281.163C462.932 280.997 462.954 280.858 462.917 280.747C462.897 280.69 462.863 280.637 462.815 280.588C462.771 280.544 462.697 280.494 462.592 280.439C462.488 280.378 462.33 280.321 462.12 280.268C461.907 280.211 461.67 280.166 461.408 280.133C461.146 280.099 460.875 280.074 460.595 280.058C460.315 280.043 460.034 280.034 459.754 280.034C459.471 280.031 459.205 280.034 458.956 280.045C458.703 280.052 458.478 280.064 458.28 280.08C458.079 280.093 457.92 280.109 457.801 280.129L457.063 279.226L459.096 274.168L460.049 274.548L458.261 278.969C458.416 278.97 458.612 278.971 458.851 278.971C459.088 278.969 459.349 278.97 459.634 278.976C459.917 278.979 460.213 278.99 460.521 279.009C460.827 279.025 461.126 279.05 461.419 279.084C461.712 279.118 461.987 279.164 462.243 279.224C462.5 279.278 462.717 279.347 462.896 279.431C463.053 279.503 463.188 279.579 463.303 279.66C463.4 279.733 463.483 279.804 463.551 279.874C463.564 279.887 463.592 279.919 463.635 279.968C463.681 280.015 463.727 280.079 463.772 280.162C463.82 280.242 463.856 280.316 463.881 280.383C463.916 280.476 463.943 280.592 463.962 280.731C463.979 280.868 463.967 281.024 463.927 281.201C463.886 281.373 463.808 281.561 463.693 281.766C463.578 281.97 463.403 282.187 463.169 282.416L460.885 284.652ZM470.336 279.637L469.615 278.901L470.153 278.374C470.421 278.112 470.62 277.853 470.752 277.598C470.888 277.342 470.955 277.086 470.953 276.828C470.953 276.569 470.883 276.307 470.742 276.043C470.603 275.777 470.395 275.502 470.118 275.219L467.737 272.786L468.474 272.065L470.855 274.498C471.218 274.869 471.493 275.249 471.679 275.637C471.871 276.024 471.969 276.414 471.975 276.805C471.981 277.196 471.892 277.586 471.708 277.974C471.529 278.363 471.251 278.742 470.874 279.111L470.336 279.637ZM472.948 272.838L472.211 273.559L466.771 268L467.507 267.279L472.948 272.838ZM475.91 272.717C476.302 272.333 476.603 271.98 476.812 271.659C477.022 271.337 477.143 271.037 477.177 270.76C477.205 270.519 477.168 270.283 477.065 270.053C476.965 269.82 476.791 269.578 476.544 269.326L475.827 270.028C475.645 270.206 475.434 270.359 475.193 270.488C474.953 270.616 474.695 270.693 474.42 270.719C474.147 270.741 473.864 270.7 473.572 270.594C473.278 270.485 472.988 270.285 472.703 269.994C472.535 269.823 472.398 269.654 472.292 269.488C472.186 269.318 472.102 269.156 472.039 269.004C471.979 268.849 471.937 268.704 471.912 268.57C471.888 268.436 471.874 268.315 471.87 268.207C471.873 267.924 471.929 267.654 472.037 267.395C472.145 267.137 472.305 266.904 472.515 266.698C472.7 266.518 472.9 266.377 473.117 266.277C473.335 266.176 473.563 266.121 473.802 266.11C474.473 266.095 475.151 266.436 475.835 267.135L476.556 267.872L477.141 267.3L477.862 268.037L477.277 268.609C477.639 268.978 477.894 269.348 478.045 269.72C478.2 270.092 478.252 270.479 478.202 270.879C478.149 271.282 477.994 271.693 477.737 272.112C477.486 272.531 477.117 272.979 476.631 273.454L475.91 272.717ZM473.197 267.473C472.94 267.725 472.829 268.012 472.864 268.334C472.899 268.655 473.078 268.981 473.401 269.311C473.729 269.647 474.058 269.78 474.388 269.712C474.468 269.695 474.544 269.671 474.616 269.641C474.686 269.608 474.751 269.573 474.81 269.535C474.867 269.494 474.918 269.458 474.962 269.425C475.006 269.387 475.041 269.355 475.067 269.329L475.784 268.627L475.063 267.891C474.878 267.701 474.707 267.555 474.551 267.453C474.393 267.349 474.25 267.275 474.122 267.232C473.994 267.19 473.879 267.175 473.779 267.186C473.678 267.193 473.591 267.213 473.516 267.245C473.441 267.278 473.378 267.317 473.326 267.363C473.271 267.406 473.228 267.443 473.197 267.473ZM476.985 267.453L477.047 267.392C477.32 267.125 477.506 266.894 477.606 266.7C477.706 266.5 477.753 266.33 477.746 266.188C477.738 266.044 477.694 265.922 477.615 265.82C477.539 265.717 477.461 265.623 477.379 265.54L473.419 261.494L474.152 260.777L478.112 264.823C478.201 264.914 478.299 264.999 478.406 265.077C478.514 265.15 478.629 265.2 478.752 265.227C478.878 265.252 479.009 265.243 479.146 265.201C479.282 265.158 479.426 265.063 479.577 264.916L479.639 264.855L480.36 265.592L480.298 265.653C480.098 265.849 479.873 265.998 479.622 266.101C479.374 266.201 479.092 266.248 478.776 266.242C478.777 266.841 478.441 267.47 477.768 268.129L477.706 268.19L476.985 267.453ZM479.193 260.521C479.214 260.532 479.265 260.563 479.346 260.616C479.428 260.668 479.528 260.736 479.645 260.819C479.763 260.898 479.893 260.987 480.036 261.086C480.176 261.183 480.316 261.284 480.457 261.391C480.594 261.496 480.726 261.599 480.851 261.7C480.976 261.802 481.08 261.896 481.164 261.981C481.408 262.231 481.578 262.487 481.672 262.751C481.767 263.009 481.807 263.263 481.792 263.512C481.776 263.756 481.714 263.987 481.607 264.204C481.499 264.421 481.362 264.612 481.195 264.774L480.201 265.747L479.48 265.01L480.474 264.038C480.513 263.999 480.563 263.941 480.623 263.862C480.683 263.778 480.725 263.678 480.75 263.562C480.777 263.444 480.77 263.313 480.731 263.169C480.694 263.022 480.594 262.865 480.431 262.699C480.375 262.641 480.3 262.575 480.206 262.5C480.111 262.419 480.008 262.337 479.896 262.253C479.784 262.165 479.668 262.077 479.548 261.991C479.425 261.902 479.309 261.82 479.199 261.744C479.09 261.668 478.991 261.602 478.904 261.544C478.818 261.487 478.751 261.445 478.705 261.419L479.193 260.521ZM482.335 266.43L482.341 265.111L483.683 265.125L483.669 266.452L482.335 266.43Z" fill="white"/>
<path d="M487.638 414.619C487.583 414.058 487.656 413.538 487.858 413.057C488.056 412.578 488.367 412.175 488.792 411.848C489.081 411.623 489.409 411.45 489.778 411.33C490.061 411.237 490.362 411.175 490.68 411.144C490.774 411.134 490.952 411.124 491.214 411.113C491.48 411.102 491.853 411.141 492.333 411.229C492.816 411.317 493.319 411.456 493.842 411.646L493.492 412.612C493.053 412.45 492.633 412.329 492.235 412.247C491.84 412.169 491.469 412.132 491.122 412.136C491.006 412.14 490.893 412.148 490.785 412.158C490.567 412.179 490.34 412.225 490.102 412.296C489.86 412.367 489.631 412.488 489.414 412.659C489.139 412.876 488.937 413.144 488.807 413.464C488.674 413.784 488.626 414.135 488.664 414.519L488.788 415.795C488.829 416.211 488.907 416.545 489.023 416.797C489.135 417.052 489.278 417.245 489.452 417.374C489.625 417.507 489.829 417.588 490.062 417.616C490.291 417.648 490.544 417.651 490.819 417.624L494.635 417.252L494.735 418.278L493.047 418.443C492.903 418.461 492.773 418.499 492.658 418.558C492.547 418.62 492.454 418.696 492.379 418.788C492.304 418.879 492.249 418.985 492.213 419.105C492.181 419.229 492.172 419.363 492.186 419.508L492.207 419.72L491.181 419.82L491.16 419.608C491.126 419.253 491.172 418.922 491.299 418.613L490.919 418.65C489.963 418.744 489.224 418.56 488.7 418.1C488.173 417.639 487.86 416.904 487.762 415.895L487.638 414.619ZM494.726 413.966L495.75 414.798L494.897 415.835L493.872 414.992L494.726 413.966ZM495.947 422.948C495.926 422.957 495.87 422.977 495.778 423.008C495.686 423.039 495.57 423.074 495.432 423.113C495.297 423.156 495.146 423.201 494.979 423.251C494.816 423.299 494.649 423.345 494.477 423.387C494.31 423.429 494.147 423.467 493.99 423.501C493.832 423.534 493.694 423.557 493.574 423.568C493.227 423.602 492.921 423.574 492.656 423.483C492.395 423.395 492.173 423.267 491.988 423.098C491.808 422.933 491.667 422.741 491.565 422.52C491.463 422.3 491.401 422.074 491.378 421.843L491.159 419.595L492.185 419.495L492.404 421.743C492.41 421.797 492.424 421.872 492.448 421.968C492.476 422.068 492.527 422.163 492.602 422.255C492.677 422.35 492.783 422.427 492.921 422.487C493.058 422.55 493.243 422.57 493.475 422.548C493.554 422.54 493.653 422.523 493.771 422.497C493.893 422.474 494.022 422.445 494.157 422.41C494.297 422.378 494.438 422.343 494.58 422.303C494.726 422.263 494.863 422.224 494.99 422.186C495.118 422.148 495.232 422.113 495.331 422.082C495.43 422.05 495.504 422.025 495.554 422.005L495.947 422.948ZM489.504 424.037L488.539 423.243L489.336 422.31L490.288 423.083L489.504 424.037ZM489.29 421.958L488.325 421.165L489.122 420.232L490.074 421.005L489.29 421.958ZM492.147 429.731L492.125 429.497C492.091 429.15 492.128 428.823 492.237 428.516C491.731 428.566 491.271 428.539 490.859 428.437C490.448 428.335 490.091 428.161 489.789 427.917C489.484 427.672 489.24 427.358 489.056 426.974C488.873 426.594 488.756 426.147 488.706 425.633L488.633 424.884L489.659 424.784L489.732 425.533C489.769 425.906 489.845 426.223 489.962 426.486C490.076 426.752 490.234 426.965 490.435 427.125C490.638 427.288 490.886 427.397 491.18 427.452C491.474 427.511 491.819 427.521 492.213 427.483L495.601 427.153L495.701 428.179L493.904 428.354C493.701 428.374 493.546 428.431 493.438 428.525C493.335 428.623 493.261 428.731 493.218 428.848C493.174 428.966 493.15 429.076 493.146 429.179C493.145 429.285 493.147 429.358 493.151 429.397L493.173 429.631L492.147 429.731ZM492.125 429.497L493.151 429.397L493.386 431.808C493.425 432.213 493.486 432.536 493.568 432.776C493.65 433.02 493.741 433.207 493.842 433.336C493.942 433.465 494.045 433.548 494.151 433.585C494.261 433.626 494.363 433.647 494.459 433.649L494.378 432.823C494.369 432.729 494.362 432.624 494.358 432.507C494.354 432.391 494.355 432.268 494.361 432.14C494.371 432.015 494.389 431.887 494.417 431.756C494.444 431.626 494.485 431.498 494.538 431.372C494.586 431.269 494.649 431.162 494.726 431.052C494.803 430.942 494.901 430.84 495.019 430.744C495.142 430.652 495.287 430.57 495.456 430.499C495.628 430.431 495.832 430.385 496.067 430.362C496.36 430.334 496.642 430.357 496.913 430.433C497.187 430.509 497.427 430.632 497.634 430.801C497.84 430.971 498.004 431.173 498.125 431.406C498.247 431.639 498.321 431.893 498.348 432.168C498.378 432.483 498.34 432.779 498.232 433.056C498.123 433.333 497.953 433.574 497.721 433.78C497.48 434.001 497.172 434.177 496.797 434.308C496.423 434.44 495.988 434.53 495.492 434.578L494.743 434.651C494.384 434.686 494.059 434.645 493.766 434.527C493.474 434.413 493.226 434.22 493.024 433.947C492.67 433.496 492.448 432.816 492.36 431.908L492.125 429.497ZM497.322 432.268C497.31 432.148 497.276 432.027 497.221 431.905C497.169 431.786 497.095 431.68 496.998 431.587C496.905 431.497 496.788 431.426 496.648 431.374C496.508 431.326 496.346 431.311 496.161 431.329C496.042 431.34 495.942 431.363 495.861 431.396C495.784 431.429 495.72 431.469 495.67 431.514C495.623 431.558 495.585 431.604 495.557 431.651C495.529 431.697 495.506 431.742 495.488 431.783C495.437 431.894 495.404 432.027 495.39 432.182C495.379 432.337 495.384 432.517 495.404 432.723L495.486 433.559C495.843 433.517 496.153 433.449 496.414 433.354C496.675 433.262 496.885 433.151 497.044 433.018C497.259 432.822 497.351 432.572 497.322 432.268ZM500.438 431.125L501.462 431.957L500.61 432.994L499.585 432.151L500.438 431.125ZM492.988 438.349L492.888 437.323L499.82 436.647L499.92 437.673L492.988 438.349ZM500.968 439.363L500.712 436.741C500.69 436.513 500.662 436.322 500.629 436.168C500.595 436.014 500.546 435.886 500.481 435.782C500.417 435.683 500.331 435.604 500.223 435.545C500.115 435.489 499.975 435.445 499.804 435.41L499.975 434.527C500.574 434.637 501.004 434.9 501.264 435.317C501.376 435.492 501.455 435.691 501.503 435.913C501.553 436.135 501.592 436.381 501.619 436.653L501.874 439.275L500.968 439.363ZM494.205 450.826L494.191 450.69C494.135 450.111 494.209 449.593 494.412 449.134C494.62 448.679 494.935 448.314 495.358 448.039C495.187 447.939 495.034 447.813 494.899 447.662C494.768 447.514 494.647 447.343 494.537 447.149C494.478 447.038 494.427 446.908 494.383 446.759C494.34 446.609 494.309 446.45 494.293 446.28C494.276 446.11 494.279 445.932 494.301 445.747C494.324 445.566 494.374 445.386 494.451 445.207C494.563 444.933 494.724 444.705 494.933 444.524C495.146 444.346 495.403 444.217 495.706 444.136C495.845 444.097 495.983 444.071 496.12 444.057C496.352 444.035 496.615 444.055 496.91 444.117C497.205 444.184 497.513 444.344 497.834 444.597C498.389 445.044 498.844 445.706 499.2 446.585L499.776 446.425L500.086 447.403C499.732 447.525 499.417 447.632 499.142 447.725C498.869 447.817 498.623 447.9 498.404 447.972C498.361 447.987 498.291 448.011 498.191 448.042C498.093 448.078 497.978 448.118 497.847 448.164C497.72 448.209 497.582 448.257 497.434 448.308C497.285 448.359 497.14 448.41 496.999 448.46C496.858 448.51 496.725 448.558 496.602 448.603C496.479 448.648 496.376 448.687 496.296 448.721C496.031 448.819 495.823 448.947 495.67 449.105C495.521 449.262 495.409 449.428 495.335 449.603C495.264 449.778 495.223 449.952 495.21 450.125C495.202 450.301 495.204 450.456 495.217 450.59L495.231 450.726L494.205 450.826ZM498.239 446.953C498.099 446.605 497.943 446.3 497.771 446.039C497.6 445.778 497.417 445.566 497.222 445.402C497.031 445.242 496.83 445.134 496.62 445.077C496.481 445.04 496.341 445.028 496.2 445.042C496.128 445.049 496.054 445.063 495.979 445.085C495.83 445.125 495.707 445.192 495.61 445.285C495.517 445.379 495.445 445.484 495.394 445.602C495.355 445.687 495.329 445.777 495.316 445.873C495.308 445.969 495.308 446.064 495.317 446.158L495.322 446.212C495.33 446.288 495.343 446.366 495.361 446.444C495.383 446.522 495.412 446.594 495.448 446.66C495.681 447.098 496.049 447.331 496.552 447.358C496.669 447.361 496.778 447.358 496.88 447.348C496.934 447.343 497.009 447.33 497.106 447.31C497.203 447.289 497.276 447.271 497.326 447.255L498.239 446.953ZM498.887 453.097C498.866 453.106 498.81 453.127 498.718 453.157C498.626 453.188 498.51 453.223 498.372 453.262C498.237 453.305 498.086 453.351 497.919 453.4C497.756 453.448 497.589 453.494 497.417 453.536C497.25 453.578 497.087 453.616 496.93 453.65C496.772 453.683 496.634 453.706 496.514 453.718C496.167 453.751 495.861 453.723 495.596 453.632C495.336 453.544 495.113 453.416 494.929 453.247C494.748 453.082 494.607 452.89 494.505 452.669C494.403 452.449 494.341 452.223 494.318 451.992L494.183 450.607L495.209 450.507L495.344 451.892C495.35 451.946 495.364 452.021 495.388 452.117C495.416 452.217 495.468 452.312 495.542 452.404C495.617 452.499 495.723 452.576 495.861 452.636C495.999 452.699 496.183 452.72 496.415 452.697C496.494 452.689 496.593 452.672 496.711 452.646C496.833 452.623 496.962 452.594 497.097 452.559C497.237 452.527 497.378 452.492 497.52 452.452C497.666 452.412 497.803 452.373 497.931 452.335C498.058 452.297 498.172 452.263 498.271 452.231C498.37 452.199 498.445 452.174 498.494 452.154L498.887 453.097ZM492.314 451.842L493.338 452.674L492.486 453.71L491.461 452.868L492.314 451.842ZM496.611 464.878L495.585 464.978L495.565 464.777C495.513 464.238 495.688 463.718 496.093 463.218C495.701 462.983 495.423 462.529 495.259 461.858C495.228 461.734 495.201 461.601 495.176 461.461C495.151 461.321 495.132 461.175 495.117 461.023C495.099 460.838 495.09 460.651 495.089 460.461C495.086 460.271 495.091 460.085 495.106 459.9C495.125 459.72 495.153 459.543 495.191 459.371C495.233 459.199 495.285 459.043 495.348 458.901L495.566 458.431L496.511 458.854L496.294 459.33C496.234 459.463 496.19 459.623 496.16 459.809C496.135 459.997 496.123 460.196 496.125 460.404C496.126 460.561 496.134 460.717 496.149 460.873C496.154 460.927 496.163 461.019 496.176 461.15C496.192 461.28 496.222 461.434 496.265 461.612C496.318 461.819 496.38 461.987 496.451 462.115C496.526 462.246 496.603 462.327 496.683 462.355C496.722 462.384 496.769 462.396 496.823 462.391C496.859 462.387 496.916 462.369 496.993 462.336C497.074 462.303 497.177 462.236 497.302 462.136L500.204 459.798L500.853 460.606L497.844 463.026C497.699 463.149 497.549 463.274 497.393 463.399C497.241 463.527 497.102 463.659 496.977 463.795C496.855 463.932 496.755 464.071 496.678 464.214C496.604 464.36 496.575 464.514 496.591 464.677L496.611 464.878ZM497.167 470.583L496.141 470.683L496.048 469.733C496.016 469.404 496.035 469.108 496.104 468.845C496.174 468.587 496.296 468.372 496.469 468.202C496.056 467.862 495.813 467.323 495.741 466.585L495.561 464.739L496.587 464.639L496.767 466.484C496.793 466.745 496.838 466.949 496.904 467.096C496.973 467.243 497.049 467.35 497.133 467.419C497.22 467.491 497.312 467.533 497.408 467.545C497.508 467.561 497.602 467.565 497.689 467.556L499.524 467.378L499.623 468.398L497.826 468.573C497.692 468.586 497.58 468.617 497.49 468.666C497.4 468.719 497.326 468.779 497.266 468.847C497.211 468.915 497.169 468.988 497.14 469.068C497.112 469.151 497.092 469.23 497.081 469.304C497.07 469.378 497.065 469.444 497.067 469.502C497.069 469.561 497.072 469.604 497.075 469.633L497.167 470.583ZM493.894 469.39L492.929 468.596L493.726 467.663L494.678 468.436L493.894 469.39ZM493.68 467.312L492.715 466.518L493.512 465.585L494.464 466.358L493.68 467.312ZM497.554 472.641C497.584 472.759 497.619 472.874 497.659 472.987C497.7 473.104 497.742 473.217 497.785 473.326C497.929 473.674 498.074 473.939 498.219 474.122C498.369 474.305 498.507 474.435 498.636 474.514C498.764 474.593 498.878 474.635 498.977 474.64C499.079 474.645 499.158 474.644 499.212 474.639C499.545 474.606 499.778 474.505 499.912 474.335C500.048 474.165 500.1 473.909 500.067 473.569C500.054 473.439 500.014 473.311 499.947 473.186C499.881 473.065 499.757 472.96 499.577 472.872C499.397 472.783 499.145 472.716 498.823 472.671C498.501 472.626 498.078 472.616 497.554 472.641ZM501.088 473.47C501.118 473.781 501.1 474.064 501.033 474.319C500.971 474.577 500.863 474.799 500.709 474.986C500.556 475.176 500.361 475.329 500.124 475.443C499.89 475.558 499.619 475.63 499.312 475.66C499.127 475.678 498.927 475.668 498.712 475.63C498.5 475.593 498.285 475.504 498.066 475.365C497.848 475.225 497.633 475.023 497.421 474.759C497.212 474.494 497.019 474.144 496.842 473.708C496.706 473.4 496.598 473.084 496.519 472.759C496.288 472.829 496.072 472.936 495.871 473.08C495.666 473.227 495.482 473.399 495.318 473.594C495.151 473.789 495.007 474 494.886 474.228C494.767 474.459 494.674 474.694 494.61 474.934C494.699 474.838 494.809 474.76 494.938 474.7C495.068 474.643 495.206 474.6 495.353 474.571C495.417 474.558 495.482 474.548 495.547 474.541C495.627 474.534 495.725 474.531 495.843 474.535C495.96 474.538 496.08 474.555 496.204 474.587C496.414 474.647 496.607 474.734 496.783 474.848C496.962 474.963 497.118 475.099 497.25 475.258C497.386 475.416 497.495 475.592 497.576 475.785C497.661 475.981 497.714 476.188 497.735 476.405L497.832 477.404L496.806 477.504L496.709 476.505C496.687 476.277 496.607 476.082 496.471 475.92C496.331 475.758 496.154 475.648 495.94 475.588C495.808 475.55 495.676 475.537 495.542 475.55C495.422 475.562 495.272 475.61 495.09 475.693C494.904 475.777 494.717 475.951 494.527 476.214L493.593 475.965C493.558 475.614 493.567 475.275 493.62 474.949C493.668 474.622 493.751 474.315 493.869 474.026C493.984 473.737 494.127 473.469 494.301 473.222C494.474 472.978 494.666 472.759 494.878 472.563C495.089 472.367 495.315 472.2 495.558 472.063C495.797 471.927 496.042 471.824 496.295 471.756C496.254 471.526 496.22 471.305 496.192 471.092C496.164 470.883 496.14 470.668 496.118 470.447L497.144 470.347C497.162 470.535 497.185 470.734 497.213 470.943C497.241 471.156 497.276 471.381 497.317 471.618C497.782 471.591 498.189 471.587 498.539 471.608C498.888 471.629 499.203 471.675 499.484 471.746C499.787 471.826 500.039 471.931 500.238 472.062C500.437 472.192 500.597 472.335 500.718 472.492C500.84 472.652 500.927 472.817 500.98 472.987C501.037 473.157 501.073 473.318 501.088 473.47ZM497.208 481.515C497.175 481.175 497.195 480.868 497.267 480.594C497.342 480.32 497.465 480.083 497.636 479.884C497.415 479.715 497.243 479.511 497.121 479.271C497.003 479.03 496.931 478.783 496.906 478.53L496.785 477.282L497.811 477.181L497.932 478.43C497.938 478.484 497.953 478.561 497.977 478.661C498.005 478.761 498.056 478.856 498.131 478.948C498.209 479.039 498.319 479.114 498.46 479.173C498.601 479.236 498.788 479.256 499.019 479.234L500.664 479.073L500.764 480.099L499.141 480.258C498.79 480.292 498.541 480.399 498.394 480.577C498.247 480.76 498.192 481.039 498.229 481.415C498.234 481.47 498.251 481.545 498.278 481.641C498.31 481.74 498.365 481.835 498.443 481.926C498.522 482.021 498.632 482.098 498.773 482.157C498.914 482.22 499.1 482.24 499.332 482.218L500.955 482.059L501.055 483.08L499.432 483.238C499.081 483.272 498.83 483.383 498.68 483.569C498.53 483.755 498.474 484.037 498.51 484.413C498.516 484.471 498.534 484.548 498.566 484.643C498.601 484.739 498.659 484.83 498.74 484.917C498.822 485.007 498.934 485.081 499.074 485.136C499.215 485.192 499.397 485.209 499.622 485.187C499.701 485.179 499.8 485.162 499.918 485.136C500.036 485.114 500.163 485.085 500.299 485.05C500.435 485.018 500.572 484.983 500.71 484.944C500.853 484.904 500.984 484.866 501.105 484.829C501.229 484.791 501.339 484.757 501.434 484.725C501.534 484.694 501.606 484.668 501.652 484.649L502.056 485.591C502.035 485.6 501.978 485.62 501.886 485.651C501.798 485.682 501.687 485.718 501.552 485.761C501.421 485.803 501.273 485.846 501.11 485.891C500.946 485.94 500.781 485.986 500.613 486.028C500.45 486.073 500.289 486.112 500.132 486.146C499.978 486.179 499.841 486.202 499.722 486.213C499.378 486.247 499.072 486.22 498.804 486.133C498.54 486.045 498.314 485.919 498.126 485.755C497.942 485.594 497.796 485.404 497.687 485.184C497.581 484.964 497.516 484.74 497.49 484.513C497.456 484.165 497.477 483.853 497.552 483.575C497.631 483.301 497.759 483.061 497.937 482.858C497.719 482.689 497.55 482.485 497.427 482.244C497.306 482.008 497.233 481.765 497.208 481.515ZM505.021 483.006L504.191 482.308L504.872 481.475L505.724 482.181L505.021 483.006ZM502.593 483.511L503.378 482.568L504.34 483.329L503.546 484.295L502.593 483.511ZM502.401 481.431L503.186 480.488L504.148 481.249L503.354 482.214L502.401 481.431Z" fill="white"/>
<rect x="458" y="376.499" width="20" height="20" rx="3" transform="rotate(-4.29853 458 376.499)" fill="#F8BC45"/>
</g>
</svg>
