<svg width="22" height="23" viewBox="0 0 22 23" fill="none" xmlns="http://www.w3.org/2000/svg">
<g clip-path="url(#clip0_48_4201)">
<path fill-rule="evenodd" clip-rule="evenodd" d="M7.49545 6.91481C8.49093 5.91858 7.9549 5.22889 7.9549 5.22889C7.9549 5.22889 6.27024 1.78041 5.50449 1.16734C4.81531 0.477648 3.8964 0.937446 3.8964 0.937446L1.21626 3.69623C-1.84676 9.75023 12.2431 23.8507 18.3692 20.7854L21.0493 18.1032C21.0493 18.1032 21.5088 17.2602 20.8962 16.4939C20.207 15.8042 16.8377 14.0417 16.8377 14.0417C16.8377 14.0417 16.0719 13.5819 15.153 14.5015C14.2341 15.4977 14.2341 15.4977 14.2341 15.4977C14.2341 15.4977 13.7746 15.8809 13.162 15.5743C10.7882 14.3482 7.72517 11.2829 6.42339 8.83063C6.11709 8.2942 6.57654 7.75777 6.57654 7.75777L7.49545 6.91481Z" stroke="#4286F5"/>
<path d="M14.0391 1.58755C17.1506 2.40248 19.5954 4.92135 20.4103 7.95881" stroke="#4286F5" stroke-linecap="round"/>
<path d="M12.4453 7.87846C13.324 8.11069 13.963 8.72995 14.1227 9.50403" stroke="#4286F5" stroke-linecap="round"/>
<path d="M13.293 4.73573C15.2407 5.2811 16.7989 6.83929 17.2664 8.78703" stroke="#4286F5" stroke-linecap="round"/>
</g>
<defs>
<clipPath id="clip0_48_4201">
<rect width="22" height="22" fill="white" transform="translate(0.000488281 0.00158691)"/>
</clipPath>
</defs>
</svg>
