<svg width="142" height="37" viewBox="0 0 142 37" fill="none" xmlns="http://www.w3.org/2000/svg">
<rect x="1" y="1" width="140" height="35" stroke="#FF6200"/>
<path d="M50.033 22C49.5875 21.9958 49.2184 21.9661 48.9257 21.9109C48.6372 21.8515 48.3912 21.7688 48.1875 21.6627C47.9881 21.5524 47.8269 21.4167 47.7039 21.2555C47.5851 21.09 47.4918 20.8991 47.4239 20.6827C47.356 20.4621 47.3115 20.2161 47.2902 19.9445C47.269 19.673 47.2584 19.3718 47.2584 19.0409V12.9191H48.4612V19.0409C48.4612 19.41 48.4718 19.7091 48.493 19.9382C48.5184 20.1673 48.5799 20.3455 48.6775 20.4727C48.7793 20.5958 48.9299 20.6806 49.1293 20.7273C49.333 20.7697 49.6342 20.793 50.033 20.7973V22ZM55.4713 20.7973V22H54.975C54.5889 22 54.2474 21.9448 53.9504 21.8345C53.6577 21.7242 53.4223 21.5588 53.2441 21.3382C52.8029 21.7794 52.1495 22 51.2841 22H50.0623V20.7973H51.2841C51.5895 20.7973 51.8313 20.7676 52.0095 20.7082C52.1877 20.6445 52.3213 20.5682 52.4104 20.4791C52.5038 20.3858 52.5632 20.2839 52.5886 20.1736C52.6183 20.0591 52.6332 19.9509 52.6332 19.8491V17.6982H53.8295V19.8045C53.8295 19.9615 53.8529 20.0952 53.8995 20.2055C53.9462 20.3158 54.0056 20.4091 54.0777 20.4855C54.1541 20.5576 54.2368 20.6148 54.3259 20.6573C54.4192 20.6997 54.5083 20.7315 54.5932 20.7527C54.678 20.7739 54.7544 20.7867 54.8223 20.7909C54.8901 20.7952 54.941 20.7973 54.975 20.7973H55.4713ZM51.4941 24.38L52.5759 23.2855L53.6832 24.3927L52.5886 25.4873L51.4941 24.38ZM59.2066 20.4345C59.3975 20.3667 59.5693 20.2818 59.722 20.18C59.8747 20.0782 60.0041 19.9594 60.1102 19.8236C60.2205 19.6879 60.3053 19.533 60.3647 19.3591C60.4241 19.1852 60.4538 18.9879 60.4538 18.7673C60.4538 18.64 60.4199 18.5127 60.352 18.3855C60.2884 18.2582 60.1993 18.1436 60.0847 18.0418C59.9744 17.94 59.8472 17.8573 59.7029 17.7936C59.5587 17.73 59.4081 17.6982 59.2511 17.6982C59.0729 17.6982 58.9011 17.7279 58.7356 17.7873C58.5744 17.8424 58.4302 17.9188 58.3029 18.0164C58.1799 18.1097 58.0823 18.2221 58.0102 18.3536C57.9381 18.4852 57.902 18.623 57.902 18.7673V18.8436C57.902 19.0261 57.9296 19.2 57.9847 19.3655C58.0441 19.5267 58.1311 19.6752 58.2456 19.8109C58.3602 19.9467 58.4981 20.0676 58.6593 20.1736C58.8247 20.2755 59.0072 20.3624 59.2066 20.4345ZM59.2511 16.4955C59.6159 16.4955 59.9426 16.5591 60.2311 16.6864C60.5196 16.8136 60.7635 16.9833 60.9629 17.1955C61.1623 17.4033 61.315 17.6452 61.4211 17.9209C61.5272 18.1924 61.5802 18.4745 61.5802 18.7673C61.5802 19.1788 61.5208 19.55 61.402 19.8809C61.2875 20.2118 61.1114 20.5045 60.8738 20.7591C61.1963 20.7845 61.5441 20.7973 61.9175 20.7973H62.6556V22H61.9175C60.8314 22 59.9235 21.8982 59.1938 21.6945C58.8205 21.7964 58.392 21.8727 57.9084 21.9236C57.4247 21.9745 56.8732 22 56.2538 22H55.4966V20.7973H56.2538C56.7163 20.7973 57.1299 20.7845 57.4947 20.7591C57.2444 20.5003 57.0578 20.2055 56.9347 19.8745C56.8117 19.5394 56.7502 19.1703 56.7502 18.7673C56.7502 18.4576 56.8138 18.1648 56.9411 17.8891C57.0726 17.6133 57.2508 17.3715 57.4756 17.1636C57.7047 16.9558 57.9699 16.7924 58.2711 16.6736C58.5766 16.5548 58.9032 16.4955 59.2511 16.4955ZM58.1311 13.8164L59.2129 12.7218L60.3202 13.8291L59.2256 14.9236L58.1311 13.8164ZM62.6809 20.7973H62.8972C63.2875 20.7973 63.5909 20.7697 63.8072 20.7145C64.0278 20.6552 64.1975 20.5661 64.3163 20.4473C64.4012 20.3667 64.4627 20.2542 64.5009 20.11C64.5433 19.9615 64.5645 19.7664 64.5645 19.5245V12.9127H65.7609V19.5245C65.7609 19.6688 65.7545 19.8194 65.7418 19.9764C65.729 20.1291 65.7015 20.2839 65.659 20.4409C65.6166 20.5979 65.5551 20.7527 65.4745 20.9055C65.3939 21.0539 65.2857 21.1939 65.1499 21.3255C65.0269 21.44 64.8933 21.5397 64.749 21.6245C64.609 21.7052 64.4478 21.7752 64.2654 21.8345C64.083 21.8897 63.8793 21.9321 63.6545 21.9618C63.4296 21.9873 63.1772 22 62.8972 22H62.6809V20.7973ZM69.2276 21.9936H68.0249V12.9191H69.2276V21.9936ZM82.2907 22.0382H78.5107C78.2137 22.0339 77.9316 21.983 77.6643 21.8855C77.3971 21.7836 77.1616 21.6373 76.958 21.4464C76.8731 21.37 76.7883 21.2767 76.7034 21.1664C76.6186 21.0561 76.5422 20.9267 76.4743 20.7782C76.4065 20.6255 76.3492 20.4558 76.3025 20.2691C76.2601 20.0782 76.2389 19.8639 76.2389 19.6264C76.2389 19.4142 76.2601 19.1809 76.3025 18.9264C76.3449 18.6718 76.3937 18.4321 76.4489 18.2073C76.504 17.9782 76.5549 17.7809 76.6016 17.6155C76.6483 17.4458 76.678 17.3418 76.6907 17.3036L77.8362 17.6664C77.8107 17.7555 77.7746 17.8827 77.728 18.0482C77.6813 18.2094 77.6368 18.3833 77.5943 18.57C77.5519 18.7567 77.5137 18.9455 77.4798 19.1364C77.4501 19.323 77.4352 19.4864 77.4352 19.6264C77.4352 19.9064 77.4798 20.127 77.5689 20.2882C77.658 20.4494 77.7619 20.5703 77.8807 20.6509C78.0037 20.7315 78.1246 20.7824 78.2434 20.8036C78.3665 20.8248 78.4598 20.8355 78.5234 20.8355L82.278 20.8418C82.804 20.8418 83.2707 20.8355 83.678 20.8227C84.0852 20.81 84.4331 20.7803 84.7216 20.7336C85.0143 20.687 85.2477 20.6191 85.4216 20.53C85.5955 20.4409 85.7143 20.32 85.778 20.1673C85.7949 20.1206 85.8034 20.0676 85.8034 20.0082C85.8034 19.9403 85.7843 19.847 85.7462 19.7282C85.7122 19.6052 85.6443 19.4524 85.5425 19.27C85.4407 19.0833 85.3155 18.8903 85.1671 18.6909C85.0228 18.4915 84.8637 18.2942 84.6898 18.0991C84.3462 17.7215 84.0237 17.3927 83.7225 17.1127C83.4213 16.8327 83.1498 16.5952 82.908 16.4C82.6704 16.2048 82.4668 16.0521 82.2971 15.9418C82.1274 15.8273 82.0001 15.7467 81.9152 15.7L82.0107 14.2555L87.7507 11.7864L88.2343 12.8809L83.2007 15.0573C83.3619 15.1761 83.5358 15.3139 83.7225 15.4709C83.9134 15.6236 84.1107 15.7955 84.3143 15.9864C84.518 16.1773 84.7258 16.3852 84.938 16.61C85.1501 16.8306 85.3622 17.0639 85.5743 17.31C85.7355 17.5052 85.8946 17.7088 86.0516 17.9209C86.2086 18.133 86.3486 18.3515 86.4716 18.5764C86.5946 18.797 86.6943 19.0218 86.7707 19.2509C86.8471 19.4758 86.8852 19.7006 86.8852 19.9255C86.8852 19.9636 86.8852 20.0039 86.8852 20.0464C86.8852 20.0845 86.881 20.1248 86.8725 20.1673C86.8343 20.4685 86.7474 20.7252 86.6116 20.9373C86.4801 21.1452 86.3104 21.3191 86.1025 21.4591C85.8946 21.5948 85.6507 21.703 85.3707 21.7836C85.0949 21.86 84.7916 21.9173 84.4607 21.9555C84.134 21.9936 83.7862 22.017 83.4171 22.0255C83.0522 22.0339 82.6768 22.0382 82.2907 22.0382ZM82.0552 12.5245L87.0825 10.3991L87.3625 10.9845L81.9852 13.2755L82.0552 12.5245ZM89.822 24.31C90.4626 24.31 91.0014 24.2612 91.4384 24.1636C91.8753 24.0661 92.2211 23.9155 92.4756 23.7118C92.6963 23.5336 92.8575 23.3067 92.9593 23.0309C93.0653 22.7552 93.1184 22.4115 93.1184 22H91.9475C91.6505 22 91.3493 21.9555 91.0438 21.8664C90.7384 21.7773 90.4605 21.6309 90.2102 21.4273C89.9641 21.2236 89.7626 20.9585 89.6056 20.6318C89.4487 20.3009 89.3702 19.8979 89.3702 19.4227C89.3702 19.1427 89.3935 18.8903 89.4402 18.6655C89.4911 18.4364 89.5526 18.2327 89.6247 18.0545C89.7011 17.8764 89.7838 17.7215 89.8729 17.59C89.962 17.4585 90.049 17.3461 90.1338 17.2527C90.3672 17.0194 90.6344 16.8391 90.9356 16.7118C91.2369 16.5845 91.5593 16.5209 91.9029 16.5209C92.2041 16.5209 92.4863 16.5676 92.7493 16.6609C93.0123 16.7542 93.2478 16.8942 93.4556 17.0809C94.0284 17.6155 94.3147 18.4533 94.3147 19.5945V20.7973H95.2693V22H94.3147C94.3147 22.6024 94.2256 23.12 94.0475 23.5527C93.8735 23.9897 93.602 24.3545 93.2329 24.6473C92.8596 24.94 92.395 25.1564 91.8393 25.2964C91.2878 25.4406 90.6153 25.5127 89.822 25.5127V24.31ZM91.8393 17.7236C91.4193 17.7236 91.0926 17.8721 90.8593 18.1691C90.6259 18.4661 90.5093 18.8839 90.5093 19.4227C90.5093 19.97 90.6747 20.3497 91.0056 20.5618C91.0863 20.6127 91.169 20.6552 91.2538 20.6891C91.3387 20.7188 91.4214 20.7421 91.502 20.7591C91.5826 20.7718 91.6547 20.7824 91.7184 20.7909C91.7863 20.7952 91.8414 20.7973 91.8838 20.7973H93.0547V19.5945C93.0547 19.2848 93.0314 19.0239 92.9847 18.8118C92.9381 18.5955 92.8787 18.4173 92.8066 18.2773C92.7344 18.1373 92.6517 18.0312 92.5584 17.9591C92.4693 17.8827 92.3802 17.8276 92.2911 17.7936C92.202 17.7597 92.1172 17.7406 92.0366 17.7364C91.9559 17.7279 91.8902 17.7236 91.8393 17.7236ZM95.2937 20.7973H95.5101C95.9004 20.7973 96.2037 20.7697 96.4201 20.7145C96.6407 20.6552 96.8104 20.5661 96.9292 20.4473C97.014 20.3667 97.0756 20.2542 97.1137 20.11C97.1562 19.9615 97.1774 19.7664 97.1774 19.5245V12.9127H98.3737V19.5245C98.3737 19.6688 98.3674 19.8194 98.3547 19.9764C98.3419 20.1291 98.3143 20.2839 98.2719 20.4409C98.2295 20.5979 98.168 20.7527 98.0874 20.9055C98.0068 21.0539 97.8986 21.1939 97.7628 21.3255C97.6398 21.44 97.5062 21.5397 97.3619 21.6245C97.2219 21.7052 97.0607 21.7752 96.8783 21.8345C96.6959 21.8897 96.4922 21.9321 96.2674 21.9618C96.0425 21.9873 95.7901 22 95.5101 22H95.2937V20.7973ZM103.412 22C102.967 21.9958 102.598 21.9661 102.305 21.9109C102.017 21.8515 101.771 21.7688 101.567 21.6627C101.368 21.5524 101.206 21.4167 101.083 21.2555C100.964 21.09 100.871 20.8991 100.803 20.6827C100.735 20.4621 100.691 20.2161 100.67 19.9445C100.648 19.673 100.638 19.3718 100.638 19.0409V12.9191H101.841V19.0409C101.841 19.41 101.851 19.7091 101.872 19.9382C101.898 20.1673 101.959 20.3455 102.057 20.4727C102.159 20.5958 102.309 20.6806 102.509 20.7273C102.712 20.7697 103.014 20.793 103.412 20.7973V22ZM107.864 16.82C107.873 16.8455 107.89 16.9133 107.915 17.0236C107.941 17.1339 107.968 17.2718 107.998 17.4373C108.032 17.5985 108.068 17.7788 108.106 17.9782C108.144 18.1733 108.178 18.3727 108.208 18.5764C108.238 18.7758 108.263 18.9688 108.284 19.1555C108.306 19.3421 108.316 19.5055 108.316 19.6455C108.316 20.0527 108.248 20.4048 108.113 20.7018C107.981 20.9945 107.807 21.2385 107.591 21.4336C107.379 21.6245 107.139 21.7667 106.872 21.86C106.604 21.9533 106.335 22 106.063 22H103.429V20.7973H106.063C106.127 20.7973 106.216 20.7888 106.331 20.7718C106.45 20.7506 106.566 20.7018 106.681 20.6255C106.8 20.5491 106.901 20.4345 106.986 20.2818C107.075 20.1291 107.12 19.917 107.12 19.6455C107.12 19.5521 107.111 19.4355 107.094 19.2955C107.082 19.1512 107.063 18.9985 107.037 18.8373C107.016 18.6718 106.99 18.5042 106.961 18.3345C106.931 18.1606 106.901 17.9973 106.872 17.8445C106.842 17.6918 106.814 17.5561 106.789 17.4373C106.763 17.3185 106.742 17.2294 106.725 17.17L107.864 16.82ZM107.75 15.4709L106.744 14.4527L107.737 13.4218L108.768 14.4527L107.75 15.4709ZM105.313 15.4582L104.307 14.44L105.3 13.4091L106.331 14.44L105.313 15.4582ZM113.447 22C113.002 21.9958 112.632 21.9661 112.34 21.9109C112.051 21.8515 111.805 21.7688 111.602 21.6627C111.402 21.5524 111.241 21.4167 111.118 21.2555C110.999 21.09 110.906 20.8991 110.838 20.6827C110.77 20.4621 110.725 20.2161 110.704 19.9445C110.683 19.673 110.672 19.3718 110.672 19.0409V12.9191H111.875V19.0409C111.875 19.41 111.886 19.7091 111.907 19.9382C111.932 20.1673 111.994 20.3455 112.092 20.4727C112.193 20.5958 112.344 20.6806 112.543 20.7273C112.747 20.7697 113.048 20.793 113.447 20.7973V22ZM113.457 22V20.7973H117.186C117.492 20.7973 117.744 20.7633 117.944 20.6955C118.147 20.6233 118.279 20.5258 118.338 20.4027C118.368 20.3391 118.383 20.267 118.383 20.1864C118.383 20.1142 118.361 20.0124 118.319 19.8809C118.281 19.7452 118.196 19.5691 118.064 19.3527C117.933 19.1321 117.772 18.9009 117.581 18.6591C117.39 18.4173 117.184 18.1755 116.964 17.9336C116.743 17.6918 116.516 17.4564 116.283 17.2273C116.049 16.9939 115.824 16.7797 115.608 16.5845C115.392 16.3852 115.194 16.2112 115.016 16.0627C114.838 15.91 114.692 15.7933 114.577 15.7127L114.698 14.3573L120.521 11.7991L121.004 12.8936L115.907 15.1209C116.034 15.2482 116.198 15.4094 116.397 15.6045C116.597 15.7955 116.813 16.0097 117.046 16.2473C117.28 16.4806 117.517 16.7309 117.759 16.9982C118.001 17.2612 118.23 17.5264 118.446 17.7936C118.663 18.0609 118.854 18.3239 119.019 18.5827C119.189 18.8373 119.314 19.0727 119.394 19.2891C119.467 19.4758 119.517 19.6497 119.547 19.8109C119.568 19.9509 119.579 20.0782 119.579 20.1927C119.579 20.2139 119.577 20.2627 119.573 20.3391C119.573 20.4155 119.558 20.5067 119.528 20.6127C119.503 20.7188 119.473 20.81 119.439 20.8864C119.392 20.9924 119.32 21.1112 119.223 21.2427C119.125 21.37 118.987 21.4909 118.809 21.6055C118.635 21.7158 118.417 21.8091 118.154 21.8855C117.89 21.9618 117.568 22 117.186 22H113.457Z" fill="white"/>
<path d="M24 11L24 22.5M24 22.5L20 18.5M24 22.5L28 18.5" stroke="white" stroke-linecap="round" stroke-linejoin="round"/>
<path d="M20 25H28" stroke="white" stroke-linecap="round" stroke-linejoin="round"/>
</svg>
