<svg width="136" height="137" viewBox="0 0 136 137" fill="none" xmlns="http://www.w3.org/2000/svg">
<path d="M122.64 32.2588C124.838 31.5133 126.337 31.2974 127.6 31.5254C129.98 31.9553 132.087 33.3255 133.445 35.3262C134.166 36.3875 134.577 37.8451 134.788 40.1562C134.999 42.4688 135 45.4915 135 49.6123V84.0137C135 91.4224 134.986 94.8832 133.923 97.9053C132.971 100.611 131.419 103.067 129.383 105.088C127.393 107.062 124.754 108.455 119.642 110.9L117.294 112.019L68.8574 135.012C68.4604 135.2 68.224 135.311 68.0488 135.375C68.0394 135.378 68.0298 135.38 68.0215 135.383C68.0206 135.374 68.0185 135.365 68.0176 135.355C68.0006 135.17 68 134.909 68 134.47V56.291L113.912 35.9033C117.678 34.2309 120.441 33.0047 122.64 32.2588Z" stroke="white" stroke-width="2" stroke-linecap="round" stroke-linejoin="round"/>
<path d="M13.3604 32.2588C11.1623 31.5133 9.66302 31.2974 8.40039 31.5254C6.02047 31.9553 3.91347 33.3255 2.55469 35.3262C1.83392 36.3875 1.42265 37.8451 1.21191 40.1562C1.00108 42.4688 1 45.4915 1 49.6123V84.0137C1 91.4224 1.01405 94.8832 2.07715 97.9053C3.02914 100.611 4.58088 103.067 6.61719 105.088C8.60718 107.062 11.2459 108.455 16.3584 110.9L18.7061 112.019L67.1426 135.012C67.5396 135.2 67.776 135.311 67.9512 135.375C67.9606 135.378 67.9702 135.38 67.9785 135.383C67.9794 135.374 67.9815 135.365 67.9824 135.355C67.9994 135.17 68 134.909 68 134.47V56.291L22.0879 35.9033C18.3217 34.2309 15.5595 33.0047 13.3604 32.2588Z" stroke="white" stroke-width="2" stroke-linecap="round" stroke-linejoin="round"/>
<path d="M135 52V42.9848C135 35.104 130.372 27.9579 123.181 24.7344L76.1808 3.66693C70.9765 1.33413 65.0238 1.33413 59.8195 3.66693L12.8194 24.7344C5.62798 27.9579 1 35.104 1 42.9848V52" stroke="white" stroke-width="2" stroke-linecap="round" stroke-linejoin="round"/>
<path d="M22.3428 67.0586V87.8647C22.3428 89.3985 23.2198 90.7973 24.6005 91.4653L37.3999 97.6586" stroke="#88C4FF" stroke-width="2" stroke-linecap="round" stroke-linejoin="round"/>
</svg>
