<svg width="34" height="36" viewBox="0 0 34 36" fill="none" xmlns="http://www.w3.org/2000/svg">
<mask id="mask0_23412_15887" style="mask-type:alpha" maskUnits="userSpaceOnUse" x="0" y="0" width="31" height="36">
<path d="M0.5 0.5H30.9138V35.5H0.5V0.5Z" fill="white"/>
</mask>
<g mask="url(#mask0_23412_15887)">
<path fill-rule="evenodd" clip-rule="evenodd" d="M17.9415 0.854391C17.1118 0.38187 16.0895 0.38187 15.2598 0.854391L1.84037 8.50146C1.01062 8.97398 0.499512 9.84772 0.499512 10.7933V26.0864C0.499512 27.0319 1.01062 27.9057 1.84037 28.3787L13.9189 35.2611C15.111 35.9401 16.6007 35.0909 16.6007 33.7329V19.9681C16.6007 19.0225 17.1118 18.1482 17.9415 17.6757L30.0195 10.7933C31.2116 10.1143 31.2116 8.41632 30.0195 7.73734L17.9415 0.854391Z" fill="white"/>
</g>
<path fill-rule="evenodd" clip-rule="evenodd" d="M22.4468 23.0216C22.4468 22.1762 22.9003 21.396 23.636 20.9733L31.087 16.6981C32.1442 16.0909 33.4664 16.8498 33.4664 18.0636V26.6141C33.4664 27.4594 33.0129 28.2396 32.2767 28.6623L24.8262 32.9375C23.7685 33.5442 22.4468 32.7859 22.4468 31.572V23.0216Z" fill="#88C4FF"/>
</svg>
