<svg width="556" height="360" viewBox="0 0 556 360" fill="none" xmlns="http://www.w3.org/2000/svg">
<g opacity="0.05">
<path d="M311.861 477.594C253.497 477.594 235.778 453.789 218.65 430.766C200.558 406.465 183.474 383.507 120.62 389.345C85.1735 392.629 53.0711 382.507 25.2033 359.25C-25.4289 317.004 -53.377 237.461 -58.6191 177.351C-63.1603 125.21 -57.3853 83.2124 -41.4473 52.5627C-26.5533 23.8468 -2.59879 4.66885 29.7372 -4.56985C100.053 -24.5943 113.728 -64.293 126.957 -102.678C137.142 -132.219 147.67 -162.766 184.328 -183.221C269.158 -230.553 340.445 -153.301 403.357 -85.1567C412.118 -75.6699 420.354 -66.7377 428.619 -58.1558C467.744 -17.45 482.733 -12.7285 512.58 -3.33656C529.941 2.1293 551.552 8.93061 585.589 24.7955C610.566 36.3714 632.734 53.2216 650.568 74.1853C667.2 93.7136 680.028 116.511 688.708 142.001C705.201 190.428 705.092 244.839 688.409 291.288C680.247 314.012 668.653 333.956 653.941 350.566C640.189 366.07 623.613 378.822 605.098 388.141C570.71 405.553 529.671 411.996 486.428 406.786C433.649 400.422 410.235 421.724 387.602 442.332C368.517 459.679 348.841 477.594 311.861 477.594ZM139.288 387.695C187.475 387.695 202.96 408.472 219.234 430.335C236.26 453.206 253.862 476.864 311.861 476.864C348.556 476.864 367.254 459.839 387.061 441.836C409.826 421.118 433.357 399.693 486.471 406.078C560.562 415.018 652.328 389.498 687.679 291.061C719.905 201.345 689.913 74.324 585.254 25.4742C551.289 9.63847 529.701 2.84446 512.361 -2.6287C482.383 -12.0498 467.336 -16.786 428.078 -57.6304C419.806 -66.2342 411.549 -75.1883 402.802 -84.6313C340.094 -152.586 269.012 -229.604 184.678 -182.55C148.269 -162.233 138.252 -133.175 127.651 -102.415C114.363 -63.8771 100.615 -24.0032 29.9416 -3.86929C-37.147 15.2357 -66.7013 76.1849 -57.889 177.285C-52.6689 237.235 -24.801 316.574 25.6706 358.688C53.4143 381.821 85.3049 391.892 120.583 388.608C127.3 387.987 133.535 387.695 139.288 387.695Z" fill="#181818"/>
<path d="M309.737 465.188C254.249 465.188 236.939 442.726 220.176 421.002C202.507 398.087 185.81 376.443 126.643 381.244C64.3804 386.331 24.5755 346.778 2.1323 312.728C-26.838 268.731 -40.4908 213.999 -43.5791 177.453C-47.8282 128.187 -42.3744 88.4229 -27.3782 59.167C-13.3385 31.8158 9.21425 13.3749 39.652 4.35511C105.361 -15.1221 118.649 -52.6023 131.469 -88.8419C141.369 -116.835 151.605 -145.763 186.372 -165.233C266.362 -210.025 334.1 -138.626 393.873 -75.6042C402.452 -66.5552 410.563 -58.0171 418.697 -49.8073C455.997 -12.152 471.519 -7.16043 499.737 1.91042C516.639 7.3398 537.666 14.1119 570.513 29.809C593.935 40.9494 614.716 56.9448 631.476 76.7322C647.417 95.6614 659.684 117.398 667.645 140.827C684.153 188.567 683.722 242.569 666.433 289.12C658.49 310.487 647.385 329.257 633.418 344.917C620.357 359.554 604.673 371.62 587.174 380.493C554.677 397.058 515.931 403.356 475.111 398.7C425.465 392.921 403.197 412.865 381.659 432.145C363.472 448.36 344.687 465.188 309.737 465.188ZM142.435 379.843C189.337 379.843 204.625 399.671 220.738 420.556C237.384 442.143 254.6 464.458 309.715 464.458C344.409 464.458 362.282 448.491 381.155 431.619C402.832 412.223 425.253 392.169 475.199 397.992C544.777 405.932 631.367 381.434 665.754 288.894C682.985 242.525 683.415 188.64 666.93 141.053C649.743 91.3127 615.378 52.0373 570.163 30.4293C537.359 14.7541 516.354 7.99659 499.482 2.56721C471.183 -6.54014 455.596 -11.5536 418.171 -49.333C410.038 -57.5427 401.926 -66.1174 393.348 -75.1371C333.764 -137.896 266.23 -209.106 186.73 -164.598C152.211 -145.274 142.472 -117.748 132.163 -88.6011C119.276 -52.1863 105.959 -14.531 39.8564 5.05567C-23.2605 23.7593 -51.0918 81.7383 -42.8563 177.387C-39.7753 213.875 -26.1736 268.446 2.74559 312.326C25.072 346.194 64.6797 385.543 126.563 380.493C132.228 380.062 137.507 379.843 142.435 379.843Z" fill="#181818"/>
<path d="M307.546 452.79C254.979 452.79 238.012 431.627 221.621 411.194C204.369 389.673 188.037 369.342 132.608 373.122C129.688 373.327 126.83 373.426 124.037 373.422C70.0094 373.422 34.9647 337.664 14.7337 306.831C-12.8494 264.673 -25.721 212.394 -28.5684 177.526C-32.5109 131.128 -27.3856 93.5312 -13.3312 65.7786C-0.145688 39.7555 20.9833 22.0809 49.5447 13.2362C110.727 -5.63524 123.562 -40.897 135.974 -74.9985C145.596 -101.438 155.548 -128.781 188.424 -147.244C263.624 -189.497 327.807 -123.892 384.462 -66.0298C392.858 -57.4479 400.802 -49.333 408.774 -41.5538C444.206 -6.96339 460.21 -1.70186 486.734 7.01872C503.191 12.4335 523.67 19.1618 555.363 34.7494C599.038 56.1677 631.914 94.801 647.925 143.534C663.118 189.509 661.863 241.817 644.479 286.96C636.769 306.977 626.161 324.586 612.939 339.305C600.561 353.06 585.772 364.436 569.301 372.874C538.637 388.644 502.132 394.767 463.824 390.571C417.375 385.462 396.202 404.035 375.73 421.95C357.66 437.815 340.561 452.79 307.546 452.79ZM145.465 371.969C191.096 371.969 206.245 390.863 222.213 410.763C238.487 431.065 255.323 452.06 307.561 452.06C340.277 452.06 357.273 437.173 375.27 421.41C395.859 403.378 417.149 384.733 463.926 389.848C471.946 390.731 480.009 391.177 488.078 391.184C560.905 391.184 618.166 353.28 643.815 286.668C661.14 241.679 662.396 189.611 647.253 143.731C631.308 95.1586 598.571 56.7078 555.049 35.377C523.378 19.8405 502.921 13.1195 486.479 7.71198C459.881 -1.03778 443.819 -6.32121 408.3 -41.0357C400.269 -48.8222 392.34 -56.937 383.929 -65.5263C327.464 -123.213 263.463 -188.592 188.774 -146.617C156.132 -128.278 146.67 -102.277 136.653 -74.7431C124.183 -40.4811 111.289 -5.04414 49.7711 13.9806C-9.36681 32.2755 -35.497 87.2918 -27.8237 177.49C-24.9836 212.27 -12.1485 264.418 15.3616 306.459C36.4906 338.758 73.9884 376.428 132.571 372.429C137.134 372.115 141.42 371.969 145.465 371.969Z" fill="#181818"/>
<path d="M305.422 440.384C255.695 440.384 239.129 420.578 223.111 401.422C206.275 381.303 190.373 362.3 138.631 365.058C82.9906 368.029 47.4641 331.847 27.4448 300.949C5.28634 266.819 -10.0457 220.713 -13.5137 177.657C-17.0473 134.084 -12.236 98.6905 0.84735 72.4485C13.1422 47.7244 32.8694 30.8379 59.4742 22.183C116.057 3.83692 128.461 -29.1991 140.457 -61.1478C149.802 -86.0543 159.439 -111.8 190.461 -129.292C221.913 -147.047 254.125 -146.522 288.944 -127.701C319.513 -111.173 347.768 -83.3104 375.095 -56.3606C383.309 -48.2457 391.062 -40.576 398.86 -33.2784C432.393 -1.74571 447.922 3.47203 473.651 12.1196C489.713 17.5125 509.681 24.2263 540.316 39.6752C582.268 60.8381 613.516 98.6686 628.3 146.219C642.172 190.494 640.077 240.978 622.576 284.742C607.974 321.229 584.064 348.332 551.494 365.226C522.684 380.179 488.479 386.134 452.595 382.448C409.308 378.012 389.266 395.168 369.875 411.763C352.674 426.467 336.422 440.384 305.422 440.384ZM148.093 364.066C167.003 364.066 182.225 367.386 194.433 374.151C207.122 381.171 215.532 391.235 223.673 400.955C239.582 419.98 256.038 439.632 305.444 439.632C336.174 439.632 352.323 425.818 369.422 411.172C388.931 394.482 409.096 377.216 452.653 381.69C459.688 382.418 466.754 382.785 473.826 382.791C542.368 382.791 596.855 347.033 621.897 284.435C639.339 240.825 641.413 190.516 627.599 146.402C612.881 99.0408 581.764 61.3562 539.988 40.2882C509.404 24.8685 489.458 18.162 473.425 12.7764C447.594 4.13612 431.999 -1.10354 398.356 -32.7384C390.551 -40.0725 382.798 -47.7203 374.584 -55.8206C347.293 -82.7266 319.097 -110.552 288.593 -127.037C254.016 -145.734 222.03 -146.252 190.819 -128.636C160.067 -111.275 150.868 -86.7914 141.136 -60.8705C129.082 -28.7613 116.619 4.44991 59.7005 22.9127C4.71687 40.7333 -19.6684 92.7795 -12.7836 177.621C-9.3156 220.538 5.97263 266.52 28.0581 300.577C47.9751 331.293 83.3264 367.291 138.587 364.329C141.858 364.154 145.027 364.066 148.093 364.066Z" fill="#181818"/>
<path d="M303.275 427.985C256.396 427.985 240.202 409.493 224.534 391.607C208.136 372.889 192.658 355.199 144.633 356.965C143.231 357.017 141.836 357.038 140.464 357.038C90.5177 357.046 58.3935 323.572 40.0826 295.111C19.158 262.528 4.74592 218.662 1.52619 177.752C-1.67894 137.046 2.82576 103.85 14.9308 79.1038C26.3714 55.7079 44.7114 39.573 69.3887 31.137C121.372 13.3821 133.353 -17.4355 144.925 -47.2387C154.416 -71.6855 163.389 -94.7822 192.505 -111.289C221.84 -127.928 251.971 -127.847 284.614 -111.041C313.3 -96.2709 339.992 -70.9849 365.808 -46.5308C373.795 -38.9705 381.337 -31.8189 388.938 -24.9811C420.514 3.47932 436.394 8.91599 460.436 17.1695C476.126 22.5551 495.641 29.2543 525.232 44.6302C565.475 65.5377 595.095 102.587 608.639 148.934C621.196 191.479 618.283 240.154 600.651 282.552C586.538 316.464 564.008 341.706 533.687 357.593C506.724 371.714 474.79 377.508 441.329 374.334C401.225 370.532 382.301 386.302 363.998 401.553C347.702 415.149 332.289 427.985 303.275 427.985ZM150.875 356.119C194.425 356.119 210.013 373.903 225.089 391.147C240.64 408.909 256.732 427.277 303.275 427.277C332.027 427.277 347.329 414.521 363.53 401.006C381.943 385.681 400.992 369.787 441.402 373.618C514.025 380.493 573.302 346.347 599.972 282.275C617.546 240.051 620.452 191.53 607.938 149.16C594.475 102.981 564.957 66.0923 524.896 45.2797C495.357 29.9548 475.863 23.2338 460.202 17.8628C436.073 9.58007 420.142 4.1069 388.448 -24.463C380.841 -31.3154 373.299 -38.467 365.312 -46.0273C339.532 -70.4449 312.876 -95.6944 284.271 -110.421C251.869 -127.11 221.964 -127.205 192.855 -110.684C163.973 -94.3006 155.044 -71.3279 145.604 -47.0051C133.966 -17.0487 121.934 13.9294 69.6151 31.8084C18.6689 49.2277 -4.00065 98.311 2.24899 177.701C5.46141 218.487 19.837 262.229 40.6959 294.703C59.4083 323.827 92.6277 358.191 144.603 356.236C146.757 356.155 148.853 356.119 150.875 356.119Z" fill="#181818"/>
<path d="M301.129 415.579C257.082 415.579 241.261 398.386 225.929 381.763C210.597 365.139 194.9 348.099 150.641 348.873C101.608 349.712 70.3306 316.902 52.7207 289.215C33.0081 258.237 19.5159 216.612 16.5663 177.854C13.6824 140.002 17.8731 109.024 29.0144 85.7447C39.6008 63.6769 56.5026 48.3083 79.3035 40.0621C126.694 22.9201 138.23 -5.67901 149.393 -33.3294C158.607 -56.1854 167.302 -77.7934 194.549 -93.3007C221.797 -108.808 249.869 -109.173 280.336 -94.3662C307.167 -81.3181 332.304 -58.6081 356.616 -36.606C364.348 -29.6296 371.649 -23.0107 379.023 -16.691C408.592 8.66798 424.72 14.3236 447.054 22.1466C462.429 27.5322 481.558 34.2386 510.149 49.5854C548.683 70.2666 576.682 106.506 588.999 151.656C600.432 193.077 596.789 238.789 578.734 280.363C565.139 311.677 544.003 335.095 515.945 349.96C490.823 363.256 461.144 368.882 430.115 366.219C393.18 363.044 375.358 377.435 358.179 391.352C342.723 403.845 328.157 415.579 301.129 415.579ZM153.496 348.114C195.885 348.114 211.407 364.964 226.433 381.266C241.648 397.781 257.382 414.835 301.107 414.835C327.88 414.835 342.343 403.159 357.653 390.753C374.978 376.749 392.88 362.293 430.115 365.46C497.014 371.203 552.312 339.269 578.033 280.079C596.023 238.658 599.651 193.121 588.254 151.853C576.032 106.9 548.165 70.8139 509.783 50.2275C481.244 34.9027 462.137 28.2181 446.791 22.8398C424.384 14.9877 408.198 9.31016 378.519 -16.1364C371.145 -22.4634 363.837 -29.0677 356.105 -36.066C331.83 -58.0098 306.729 -80.7051 280 -93.7167C249.752 -108.429 221.906 -108.093 194.885 -92.6804C167.864 -77.268 159.205 -55.7986 150.035 -33.0594C138.843 -5.25575 127.249 23.4893 79.5518 40.748C32.6065 57.7294 11.6527 103.843 17.2891 177.803C20.2095 216.444 33.7017 257.945 53.3267 288.821C70.6081 315.997 101.126 348.157 148.743 348.157H150.619C151.598 348.121 152.569 348.114 153.496 348.114Z" fill="#181818"/>
<path d="M298.983 403.181C257.732 403.181 242.232 387.272 227.236 371.882C212.423 356.681 197.105 340.962 156.628 340.78C110.881 340.568 81.7351 309.4 65.3663 283.319C46.9022 253.953 34.2715 214.561 31.5701 177.957C29.0148 142.928 32.8843 114.176 43.0765 92.4001C52.8013 71.6605 68.3159 57.0508 89.2478 48.9943C132.002 32.4799 143.085 6.12844 153.81 -19.3765C162.754 -40.6562 171.209 -60.7536 196.594 -75.3195C221.768 -89.776 247.788 -90.5349 276.175 -77.6475C301.159 -66.2925 324.755 -46.0855 347.578 -26.5646C355.003 -20.1427 361.99 -14.166 369.101 -8.40098C396.619 13.8711 412.856 19.68 433.452 27.0359C449.376 32.7207 467.416 39.1645 495.072 54.5404C531.898 75.01 558.27 110.462 569.331 154.371C579.486 194.07 575.033 238.037 556.795 278.174C543.741 306.89 524.013 328.476 498.146 342.327C474.849 354.798 447.419 360.249 418.814 358.097C385.069 355.557 368.437 368.561 352.287 381.135C337.758 392.468 324.032 403.181 298.983 403.181ZM237.458 -86.0323C223.586 -86.0323 210.174 -82.2522 196.988 -74.6846C171.822 -60.2428 163.404 -40.2548 154.518 -19.0919C143.735 6.5444 132.616 33.0491 89.5398 49.6729C46.5444 66.2384 27.3137 109.382 32.3002 177.906C36.8925 240.38 74.6459 339.67 156.636 340.05C197.419 340.232 212.853 356.068 227.762 371.378C242.67 386.689 258.039 402.451 298.983 402.451C323.806 402.451 337.408 391.819 351.835 380.559C368.065 367.897 384.85 354.805 418.865 357.374C480.105 361.986 531.409 332.263 556.123 277.875C574.295 237.891 578.756 194.092 568.615 154.546C557.605 110.834 531.38 75.5428 494.707 55.168C467.11 39.8431 449.098 33.3921 433.204 27.7146C412.535 20.3368 396.21 14.506 368.634 -7.84637C361.523 -13.5749 354.499 -19.6173 347.067 -25.9808C324.281 -45.4871 300.728 -65.6649 275.839 -76.9761C262.566 -83.0185 249.811 -86.0323 237.458 -86.0323Z" fill="#181818"/>
<path d="M296.836 390.775C258.353 390.775 243.159 376.122 228.477 361.957C214.123 348.092 199.273 333.803 162.63 332.679C85.8088 330.329 50.7057 236.592 46.6318 178.059C44.3904 145.95 47.9313 119.343 57.1671 99.0555C66.0012 79.644 80.114 65.8005 99.1184 57.9192C137.295 42.0908 147.918 17.9578 158.198 -5.37978C166.893 -25.0832 175.1 -43.7284 198.638 -57.3383C221.767 -70.7148 245.773 -71.8751 272.027 -60.885C295.201 -51.1865 317.293 -33.4681 338.612 -16.3261C345.38 -10.8894 352.389 -5.27032 359.179 -0.118244C384.477 19.067 400.736 24.9707 419.565 31.8085C435.314 37.5079 453.208 44.0246 479.988 59.4954C515.033 79.717 539.754 114.38 549.669 157.086C558.518 195.208 553.261 237.432 534.862 275.992C522.4 302.117 504.074 321.872 480.419 334.701C458.947 346.377 433.744 351.631 407.555 349.982C377.001 348.063 361.472 359.68 346.453 370.918C332.808 381.128 319.914 390.775 296.836 390.775ZM237.713 -67.5768C224.396 -67.5768 211.568 -63.928 199.018 -56.6816C175.655 -43.1957 167.521 -24.6745 158.862 -5.05869C148.531 18.381 137.843 42.6162 99.3959 58.5979C60.4671 74.7254 42.9594 114.92 47.3618 178.008C51.4212 236.286 86.3125 329.614 162.651 331.986C199.587 333.117 214.532 347.53 228.981 361.468C244.233 376.187 258.645 390.082 296.836 390.082C319.674 390.082 332.472 380.507 346.015 370.378C361.136 359.06 376.774 347.362 407.599 349.296C463.225 352.791 510.543 325.294 534.205 275.722C552.531 237.315 557.773 195.252 548.961 157.297C539.09 114.782 514.463 80.2935 479.601 60.1668C452.872 44.7325 435.065 38.2742 419.295 32.5383C400.408 25.6786 384.097 19.753 358.697 0.509346C351.937 -4.69381 344.928 -10.3202 338.152 -15.7642C316.848 -32.8624 294.821 -50.5516 271.772 -60.2136C259.988 -65.1394 248.686 -67.5768 237.713 -67.5768Z" fill="#181818"/>
<path d="M294.69 378.369C258.915 378.369 244.671 365.547 229.587 351.974C215.715 339.502 201.412 326.6 168.624 324.586C129.403 322.171 104.529 294.382 90.5618 271.518C74.5946 245.364 63.7892 210.46 61.6646 178.161C59.7371 148.876 62.9568 124.509 71.2288 105.725C79.1942 87.6347 91.9125 74.5575 109.026 66.8513C142.545 51.7381 152.722 29.8527 162.549 8.68983C171.019 -9.51027 178.962 -26.7106 200.682 -39.35C247.847 -66.8471 289.55 -35.9055 329.888 -5.94906C336.254 -1.21295 342.847 3.67641 349.257 8.1717C372.226 24.2628 388.288 30.1665 405.285 36.4205C421.048 42.2148 438.869 48.7826 464.912 64.4504C498.226 84.5187 521.341 118.379 530.015 159.808C537.644 196.295 531.577 236.746 512.938 273.803C501.088 297.352 484.194 315.275 462.722 327.075C443.067 337.882 420.098 342.998 396.283 341.852C368.926 340.539 354.558 350.77 340.649 360.673C327.88 369.78 315.811 378.369 294.69 378.369ZM238.187 -49.2746C226.148 -49.2746 213.795 -46.1586 201.055 -38.7224C179.531 -26.1779 171.603 -9.09431 163.207 8.99633C153.328 30.2833 143.114 52.2927 109.325 67.5154C74.3902 83.2562 58.5836 120.466 62.3947 178.11C65.9502 232.155 97.9504 319.507 168.668 323.857C201.712 325.893 216.124 338.875 230.076 351.427C245.05 364.905 259.192 377.639 294.69 377.639C315.578 377.639 327.544 369.116 340.233 360.125C354.236 350.15 368.707 339.831 396.327 341.152C398.517 341.254 400.707 341.305 402.861 341.305C450.164 341.305 490.743 316.311 512.281 273.489C530.854 236.585 536.892 196.266 529.299 159.968C520.669 118.744 497.671 85.0514 464.532 65.0999C438.585 49.4758 420.763 42.9153 405.037 37.1357C387.989 30.8671 371.883 24.9415 348.819 8.79199C342.416 4.26751 335.823 -0.629146 329.45 -5.35796C300.246 -27.0536 270.312 -49.2746 238.187 -49.2746Z" fill="#181818"/>
<path d="M292.543 365.971C259.397 365.971 245.372 354.295 230.521 341.889C217.219 330.797 203.471 319.339 174.618 316.486C138.653 312.925 115.911 286.843 103.163 265.593C88.4445 241.051 78.5517 208.402 76.6973 178.256C75.0764 151.831 77.9676 129.669 85.2832 112.395C92.3797 95.611 103.704 83.3219 118.933 75.7762C147.823 61.4584 157.483 41.828 166.82 22.8471C175.041 6.12841 182.802 -9.63431 202.719 -21.3688C245.488 -46.5891 284.096 -20.5514 321.419 4.62511C327.259 8.58038 333.37 12.6524 339.299 16.4544C359.741 29.4587 374.635 34.9683 390.405 40.8064C407.147 47.002 424.457 53.4092 449.813 69.4055C481.427 89.357 502.921 122.422 510.331 162.522C518.596 207.191 504.366 246.502 490.984 271.613C479.806 292.594 464.35 308.7 445.046 319.478C427.195 329.454 406.438 334.387 385.017 333.745C360.866 333.015 347.658 341.881 334.874 350.442C322.974 358.425 311.716 365.971 292.543 365.971ZM238.72 -30.8994C227.126 -30.8994 215.277 -27.922 203.092 -20.7412C183.379 -9.11618 175.647 6.57355 167.478 23.1755C158.081 42.2659 148.371 62.0131 119.255 76.4476C88.2985 91.7725 74.2222 126.034 77.4274 178.234C79.2745 208.263 89.1089 240.796 103.791 265.243C116.451 286.354 139.026 312.239 174.669 315.764C203.741 318.639 217.584 330.176 230.967 341.305C245.715 353.594 259.638 365.212 292.521 365.212C311.504 365.212 322.645 357.732 334.465 349.807C347.352 341.181 360.676 332.293 385.039 332.986C430.305 334.336 468.701 311.823 490.341 271.241C503.673 246.232 517.837 207.088 509.616 162.632C502.242 122.729 480.864 89.8313 449.419 69.9893C424.136 54.0368 406.862 47.6442 390.15 41.4559C374.372 35.6397 359.449 30.1155 338.941 17.0747C332.998 13.2946 326.916 9.20067 321.039 5.2381C294.566 -12.619 267.442 -30.8994 238.72 -30.8994Z" fill="#181818"/>
<path d="M290.397 353.565C259.769 353.565 245.861 342.932 231.164 331.672C218.511 321.988 205.435 311.969 180.612 308.386C147.882 303.642 127.271 279.268 115.75 259.653C102.083 236.395 93.3287 206.76 91.7371 178.358C89.0941 131.318 101.571 99.807 128.833 84.7083C153.065 71.2954 162.177 53.9491 171.018 37.1721C179.049 21.891 186.591 7.45644 204.763 -3.35853C243.298 -26.3896 278.941 -5.14643 313.438 15.4035C318.681 18.5195 324.098 21.745 329.398 24.737C347.016 34.669 361.063 39.843 374.664 44.8491C392.778 51.5191 409.884 57.8241 434.766 74.3604C464.7 94.2462 484.559 126.523 490.713 165.244C497.503 207.957 482.682 245.473 469.088 269.431C448.777 305.189 414.374 325.622 374.621 325.622H373.796C352.937 325.455 340.868 332.92 329.223 340.174C318.118 347.063 307.649 353.565 290.397 353.565ZM239.589 -12.6118C228.331 -12.6118 216.861 -9.75848 205.143 -2.76013C187.146 7.98186 179.59 22.3288 171.632 37.5151C162.768 54.3797 153.606 71.8135 129.184 85.3505C102.17 100.303 89.8388 131.588 92.4672 178.321C94.0515 206.614 102.769 236.125 116.378 259.324C127.826 278.794 148.269 303 180.714 307.7C205.727 311.348 218.884 321.39 231.609 331.125C246.211 342.305 260.017 352.864 290.397 352.864C307.437 352.864 317.826 346.42 328.822 339.59C340.437 332.38 352.448 324.922 373.168 324.922H374.628C414.119 324.922 448.28 304.613 468.46 269.096C482.018 245.24 496.759 207.884 489.998 165.383C483.872 126.859 464.123 94.7644 434.372 74.988C409.548 58.5028 392.493 52.2123 374.423 45.557C360.807 40.5435 346.731 35.3404 329.062 25.3938C323.747 22.4018 318.33 19.169 313.088 16.0457C289.294 1.87381 264.967 -12.6118 239.589 -12.6118Z" fill="#181818"/>
<path d="M288.25 341.159C259.937 341.159 246.036 331.482 231.303 321.237C219.475 313.005 207.209 304.489 186.591 300.293C163.228 295.549 143.085 279.436 128.322 253.698C115.911 232.09 108.07 204.666 106.763 178.46C104.689 136.93 115.443 108.404 138.726 93.6552C158.264 81.2493 166.747 66.2674 174.954 51.7526C182.839 37.7924 190.286 24.613 206.801 14.6008C241.268 -6.32861 274.247 10.3098 306.138 26.3936C310.518 28.5829 315.023 30.8816 319.462 33.0198C333.699 39.8795 345.687 44.185 357.274 48.3447C376.643 55.3065 394.932 61.8816 419.668 79.3082C434.026 89.4696 445.938 102.702 454.537 118.044C463.219 133.457 468.823 150.409 471.037 167.959C475.286 200.345 467.022 234.68 447.134 267.206C428.1 298.373 397.261 316.69 362.523 317.464C344.913 317.858 334.093 323.951 323.623 329.87C313.344 335.686 303.619 341.159 288.25 341.159ZM241.035 5.52262C229.894 5.52262 218.614 8.28109 207.188 15.2211C190.841 25.1019 183.43 38.2375 175.596 52.1029C167.346 66.698 158.804 81.7893 139.091 94.2609C116.049 108.856 105.412 137.17 107.471 178.416C108.77 204.512 116.597 231.812 128.936 253.326C139.157 271.146 157.475 293.63 186.716 299.57C207.509 303.795 219.804 312.355 231.697 320.631C246.299 330.811 260.171 340.422 288.221 340.422C303.4 340.422 313.044 334.992 323.266 329.249C333.808 323.309 344.716 317.172 362.501 316.771C396.991 316.004 427.611 297.797 446.513 266.863C466.314 234.44 474.542 200.272 470.307 168.054C465.51 131.515 446.9 99.391 419.252 79.9066C394.596 62.5384 376.351 55.9852 357.033 49.0379C345.424 44.871 333.421 40.5582 319.148 33.7131C314.709 31.5676 310.182 29.2907 305.816 27.0869C284.724 16.4033 263.149 5.52262 241.035 5.52262Z" fill="#181818"/>
<path d="M286.104 328.76C259.747 328.76 245.539 319.828 230.492 310.371C219.825 303.657 208.794 296.724 192.578 292.192C171.763 286.354 153.883 270.993 140.902 247.677C129.775 227.726 122.817 202.535 121.802 178.548C120.284 142.571 129.308 117.015 148.626 102.58C163.425 91.517 171.128 78.9506 178.56 66.8221C186.431 53.9857 193.848 41.8863 208.852 32.5819C239.699 13.4624 270.458 25.7368 300.209 37.6173C303.312 38.8505 306.422 40.0911 309.532 41.3025C319.316 45.1045 328.121 48.0601 336.641 50.9207C359.559 58.6123 379.352 65.2604 404.606 84.2778C430.816 104.025 447.871 135.521 451.383 170.688C454.617 201.776 445.542 234.418 425.209 265.067C407.687 291.412 380.768 307.568 351.279 309.393C337.028 310.268 327.5 314.983 318.294 319.544C308.715 324.302 299.669 328.76 286.104 328.76ZM243.575 23.3797C231.433 23.3082 219.525 26.717 209.261 33.2022C194.381 42.3972 187 54.4454 179.195 67.1942C171.712 79.4103 163.98 92.0059 149.064 103.178C129.95 117.46 121.021 142.811 122.533 178.533C124.518 225.471 149.283 279.349 192.775 291.463C209.093 296.016 220.168 302.985 230.886 309.706C245.831 319.106 259.959 327.987 286.104 327.987C299.501 327.987 308.474 323.543 317.972 318.843C327.245 314.253 336.831 309.509 351.236 308.626C380.491 306.817 407.234 290.784 424.603 264.63C444.856 234.155 453.873 201.703 450.646 170.761C447.148 135.791 430.203 104.485 404.146 84.8616C378.994 65.888 359.252 59.3202 336.393 51.6067C327.865 48.746 319.053 45.7686 309.248 41.9812C306.137 40.7698 303.027 39.5292 299.924 38.2886C281.46 30.94 262.58 23.3797 243.575 23.3797Z" fill="#181818"/>
<path d="M283.957 316.355C258.703 316.355 243.502 307.67 227.418 298.476C218.73 293.513 209.75 288.383 198.558 284.092C180.269 277.079 164.674 262.389 153.467 241.62C143.465 223.07 137.558 200.71 136.843 178.664C135.857 148.358 143.143 125.772 158.512 111.527C168.47 102.31 174.997 92.4948 181.305 83.008C189.388 70.8722 197.024 59.4004 210.889 50.5704C239.063 32.6184 267.523 40.5946 297.654 49.0452L299.581 49.5852L307.335 51.7745C337.919 60.2396 362.092 66.9315 389.529 89.2766C414.039 109.221 429.422 139.9 431.729 173.447C433.919 203.673 424.063 234.615 403.255 262.922C387.193 284.763 364.757 298.395 340.014 301.307C329.282 302.569 321.258 305.89 313.504 309.108C304.473 312.815 295.916 316.355 283.957 316.355ZM248.562 40.5071C235.997 40.4998 223.585 43.3458 211.283 51.1834C197.543 59.9404 189.95 71.3392 181.919 83.424C175.581 92.9108 169.033 102.799 159.008 112.081C143.808 126.158 136.594 148.569 137.573 178.635C138.894 218.283 158.607 267.979 198.813 283.435C210.064 287.748 219.073 292.922 227.783 297.877C243.78 307.021 258.893 315.654 283.957 315.654C295.77 315.654 304.261 312.144 313.241 308.422C321.046 305.189 329.121 301.854 339.948 300.577C364.494 297.658 386.777 284.158 402.686 262.484C423.369 234.315 433.16 203.542 430.999 173.49C428.743 140.119 413.411 109.622 389.069 89.802C361.734 67.5591 337.641 60.8599 307.145 52.4386L299.384 50.2858L297.457 49.7458C280.708 45.0534 264.471 40.4998 248.562 40.4998V40.5071Z" fill="#181818"/>
<path d="M281.811 303.956C254.644 303.956 236.91 294.017 216.379 282.516C212.561 280.378 208.611 278.137 204.523 275.948C188.76 267.519 175.465 253.508 166.068 235.432C157.059 217.866 152.204 198.467 151.875 178.73C151.401 154.385 156.986 134.791 168.397 120.481C172.917 114.825 176.91 109.111 180.809 103.587C190.045 90.3858 198.769 77.9143 212.97 68.5589C237.114 52.5699 264.077 53.9638 289.63 57.8752C327.427 63.6403 352.002 74.1707 374.46 94.2098C397.232 114.533 410.965 144.395 412.067 176.139C413.476 213.933 396.137 242.992 381.338 260.718C367.035 277.845 348.87 289.062 328.771 293.156C322.73 294.473 316.769 296.138 310.92 298.14C301.706 301.125 292.945 303.956 281.811 303.956ZM260.82 56.0509C244.561 56.0509 228.375 59.1961 213.328 69.1864C199.244 78.4981 190.556 90.9186 181.364 104.061C177.494 109.593 173.493 115.314 168.952 120.984C157.628 135.156 152.124 154.597 152.591 178.766C153.423 220.873 173.939 258.791 204.866 275.335C208.962 277.524 212.897 279.714 216.737 281.903C237.18 293.353 254.834 303.248 281.811 303.248C292.813 303.248 301.523 300.439 310.723 297.461C316.598 295.45 322.585 293.778 328.654 292.455C348.563 288.39 366.582 277.262 380.775 260.266C395.494 242.642 412.739 213.744 411.337 176.176C410.22 144.614 396.618 114.942 373.985 94.7425C351.652 74.8056 327.179 64.3336 289.535 58.5904C280.041 57.0234 270.442 56.1745 260.82 56.0509V56.0509Z" fill="#181818"/>
<path d="M279.657 291.55C217.489 291.55 166.908 240.993 166.908 178.854C166.908 116.715 217.489 66.158 279.657 66.158C294.463 66.158 309.125 69.0729 322.804 74.7364C336.483 80.3999 348.913 88.7011 359.382 99.1659C369.852 109.631 378.157 122.054 383.823 135.727C389.489 149.4 392.406 164.055 392.406 178.854C392.406 193.654 389.489 208.308 383.823 221.981C378.157 235.654 369.852 248.077 359.382 258.542C348.913 269.007 336.483 277.308 322.804 282.972C309.125 288.635 294.463 291.55 279.657 291.55V291.55ZM279.657 66.8877C217.89 66.8877 167.638 117.117 167.638 178.854C167.638 240.591 217.89 290.82 279.657 290.82C294.367 290.82 308.934 287.924 322.524 282.297C336.115 276.671 348.464 268.423 358.866 258.026C369.268 247.629 377.519 235.286 383.149 221.702C388.778 208.117 391.675 193.558 391.675 178.854C391.675 164.15 388.778 149.591 383.149 136.006C377.519 122.422 369.268 110.079 358.866 99.6819C348.464 89.2849 336.115 81.0375 322.524 75.4106C308.934 69.7838 294.367 66.8877 279.657 66.8877V66.8877Z" fill="#181818"/>
<path d="M279.657 189.669C277.152 189.67 274.724 188.802 272.787 187.213C270.85 185.625 269.525 183.415 269.036 180.959C268.547 178.503 268.925 175.953 270.106 173.745C271.287 171.537 273.198 169.806 275.512 168.848C277.827 167.89 280.402 167.764 282.799 168.491C285.197 169.218 287.267 170.754 288.659 172.836C290.05 174.919 290.676 177.419 290.43 179.911C290.184 182.402 289.08 184.732 287.308 186.502C285.278 188.529 282.526 189.668 279.657 189.669V189.669ZM279.657 168.769C277.32 168.778 275.059 169.596 273.259 171.085C271.458 172.574 270.23 174.64 269.783 176.933C269.337 179.225 269.7 181.602 270.81 183.657C271.92 185.712 273.709 187.319 275.872 188.203C278.035 189.087 280.438 189.194 282.671 188.506C284.903 187.817 286.828 186.376 288.117 184.428C289.406 182.48 289.979 180.145 289.738 177.822C289.498 175.499 288.458 173.331 286.797 171.688C284.897 169.809 282.33 168.76 279.657 168.769V168.769Z" fill="#181818"/>
<path d="M279.657 206.65C273.223 206.65 266.989 204.42 262.015 200.34C257.042 196.26 253.638 190.583 252.383 184.276C251.128 177.969 252.1 171.422 255.133 165.751C258.165 160.08 263.072 155.635 269.015 153.174C274.959 150.713 281.573 150.388 287.73 152.254C293.886 154.12 299.205 158.063 302.78 163.409C306.355 168.756 307.964 175.176 307.334 181.575C306.704 187.975 303.874 193.959 299.325 198.506C294.108 203.719 287.033 206.648 279.657 206.65V206.65ZM279.657 151.787C273.393 151.784 267.322 153.952 262.478 157.922C257.634 161.892 254.317 167.417 253.093 173.558C251.869 179.698 252.812 186.072 255.763 191.595C258.714 197.117 263.49 201.446 269.277 203.844C275.063 206.241 281.502 206.559 287.497 204.742C293.491 202.926 298.67 199.088 302.151 193.883C305.631 188.677 307.198 182.427 306.584 176.196C305.971 169.965 303.214 164.14 298.785 159.713C293.709 154.645 286.831 151.795 279.657 151.787V151.787Z" fill="#181818"/>
<path d="M279.657 223.632C269.295 223.635 259.252 220.048 251.24 213.481C243.227 206.913 237.74 197.773 235.714 187.615C233.688 177.458 235.248 166.913 240.128 157.776C245.008 148.639 252.907 141.477 262.478 137.508C272.049 133.539 282.701 133.01 292.618 136.011C302.536 139.012 311.106 145.357 316.868 153.965C322.63 162.573 325.228 172.912 324.22 183.22C323.211 193.528 318.658 203.167 311.336 210.496C302.934 218.897 291.541 223.621 279.657 223.632ZM279.657 134.806C269.461 134.807 259.582 138.342 251.701 144.808C243.821 151.275 238.427 160.272 236.44 170.267C234.452 180.263 235.994 190.638 240.801 199.624C245.609 208.611 253.385 215.654 262.806 219.552C272.226 223.45 282.707 223.963 292.463 221.003C302.219 218.043 310.647 211.793 316.309 203.319C321.972 194.844 324.52 184.669 323.519 174.528C322.517 164.386 318.029 154.905 310.818 147.701C302.55 139.447 291.343 134.809 279.657 134.806V134.806Z" fill="#181818"/>
<path d="M279.657 240.613C265.36 240.615 251.505 235.661 240.452 226.597C229.399 217.532 221.833 204.917 219.043 190.902C216.253 176.886 218.411 162.337 225.15 149.734C231.888 137.13 242.791 127.253 255.999 121.783C269.208 116.314 283.905 115.592 297.586 119.739C311.268 123.887 323.087 132.648 331.031 144.53C338.974 156.412 342.549 170.679 341.148 184.901C339.747 199.122 333.455 212.418 323.346 222.523C311.755 234.099 296.042 240.605 279.657 240.613V240.613ZM279.657 117.825C265.531 117.825 251.842 122.72 240.922 131.677C230.003 140.634 222.528 153.098 219.772 166.946C217.016 180.794 219.148 195.169 225.807 207.621C232.465 220.073 243.237 229.833 256.288 235.237C269.338 240.641 283.859 241.354 297.377 237.257C310.895 233.159 322.573 224.503 330.422 212.764C338.271 201.025 341.804 186.928 340.421 172.877C339.037 158.826 332.822 145.688 322.835 135.704C311.38 124.262 295.851 117.832 279.657 117.825V117.825Z" fill="#181818"/>
<path d="M279.657 257.587C261.433 257.582 243.775 251.261 229.691 239.702C215.607 228.142 205.969 212.059 202.418 194.193C198.868 176.326 201.625 157.782 210.22 141.72C218.815 125.658 232.717 113.072 249.555 106.106C266.394 99.1396 285.128 98.2248 302.566 103.517C320.003 108.81 335.066 119.982 345.186 135.13C355.307 150.278 359.859 168.465 358.068 186.592C356.277 204.719 348.253 221.665 335.363 234.542C320.582 249.296 300.547 257.584 279.657 257.587V257.587ZM279.657 100.851C261.604 100.854 244.111 107.113 230.158 118.563C216.204 130.012 206.654 145.943 203.135 163.642C199.616 181.34 202.345 199.71 210.857 215.623C219.369 231.536 233.138 244.006 249.817 250.909C266.497 257.813 285.055 258.722 302.33 253.482C319.605 248.242 334.528 237.178 344.556 222.173C354.585 207.169 359.098 189.154 357.327 171.196C355.556 153.239 347.611 136.45 334.845 123.692C320.202 109.071 300.354 100.856 279.657 100.851V100.851Z" fill="#181818"/>
<path d="M279.657 274.569C226.856 274.569 183.897 231.63 183.897 178.854C183.897 126.078 226.856 83.1394 279.657 83.1394C292.232 83.1394 304.684 85.6151 316.302 90.4253C327.92 95.2354 338.477 102.286 347.369 111.174C356.261 120.062 363.315 130.613 368.127 142.226C372.939 153.838 375.416 166.285 375.416 178.854C375.416 191.424 372.939 203.87 368.127 215.483C363.315 227.095 356.261 237.647 347.369 246.535C338.477 255.423 327.92 262.473 316.302 267.283C304.684 272.093 292.232 274.569 279.657 274.569V274.569ZM279.657 83.8692C257.668 83.8627 236.357 91.4777 219.356 105.416C202.355 119.355 190.716 138.755 186.422 160.31C182.128 181.866 185.444 204.242 195.807 223.627C206.169 243.012 222.936 258.205 243.25 266.619C263.564 275.032 286.168 276.144 307.21 269.765C328.252 263.387 346.431 249.912 358.648 231.638C370.864 213.364 376.363 191.421 374.208 169.549C372.052 147.676 362.375 127.228 346.826 111.687C329.004 93.8919 304.848 83.8877 279.657 83.8692V83.8692Z" fill="#181818"/>
</g>
</svg>
