<svg width="92" height="92" viewBox="0 0 92 92" fill="none" xmlns="http://www.w3.org/2000/svg">
<path d="M91 1H1V91H91V1Z" stroke="#55A2E7" stroke-opacity="0.595597"/>
<mask id="mask0_472:5054" style="mask-type:alpha" maskUnits="userSpaceOnUse" x="39" y="27" width="27" height="30">
<path d="M39.7643 27.25H65.9851V56.0112H39.7643V27.25Z" fill="white"/>
</mask>
<g mask="url(#mask0_472:5054)">
<path fill-rule="evenodd" clip-rule="evenodd" d="M55.2677 46.2821C54.2509 46.2821 53.2347 46.286 52.2178 46.2788C51.9737 46.2769 51.8647 46.3369 51.7851 46.6065C51.4516 47.7389 51.1324 48.8797 50.3662 49.8313C49.9569 50.3411 49.4159 50.6322 48.8481 50.8795C48.2665 51.1321 47.6452 51.2065 47.0062 51.262C46.1088 51.3403 45.2283 51.279 44.389 51.0296C43.4146 50.7412 42.5628 50.2269 41.8579 49.4293C40.657 48.0698 40.2387 46.4355 39.9939 44.7235C39.7643 43.1212 39.7224 41.5091 39.8001 39.8911C39.8634 38.5493 40.02 37.2211 40.441 35.9451C40.8313 34.7631 41.5531 33.8193 42.6131 33.1256C43.4759 32.5616 44.4125 32.3619 45.4196 32.3149C46.1062 32.2823 46.7908 32.2046 47.4729 32.3228C48.2437 32.4559 48.9747 32.6693 49.6319 33.1471C50.4347 33.7312 51.0926 34.412 51.509 35.3166C51.6467 35.6155 51.7472 35.9281 51.7903 36.2512C51.8216 36.4875 51.915 36.5847 52.1538 36.5847C54.2502 36.5801 56.3473 36.5814 58.4436 36.5834C58.6381 36.5841 58.7269 36.5514 58.6897 36.3112C58.4417 34.6854 58.007 33.1366 57.1141 31.723C56.4902 30.7355 55.8205 29.8054 54.9675 29.002C54.508 28.5679 54.1288 28.0504 53.6243 27.6588C53.5342 27.5883 53.5231 27.5034 53.5682 27.4062C53.6171 27.3005 53.6935 27.228 53.8168 27.2561C53.9715 27.2913 54.1275 27.3266 54.2744 27.384C55.2403 27.7625 56.1913 28.1874 57.0828 28.7089C58.2367 29.3825 59.3541 30.12 60.3788 30.9913C60.837 31.381 61.2867 31.7876 61.7103 32.2053C62.2924 32.779 62.7872 33.4434 63.2754 34.1072C64.3072 35.5091 65.0989 37.0253 65.5525 38.7092C65.8834 39.9388 66.0466 41.1978 65.9644 42.4659C65.8312 44.5147 65.1603 46.397 64.056 48.1285C63.3439 49.2446 62.5261 50.2804 61.5856 51.2033C60.9394 51.8363 60.2339 52.4127 59.5088 52.9648C58.2491 53.9236 56.874 54.6748 55.4544 55.3542C54.9897 55.5768 54.5035 55.755 54.0237 55.9436C53.8828 55.9991 53.7105 56.0924 53.6178 55.8725C53.5258 55.6558 53.6961 55.6166 53.8423 55.5389C54.6751 55.0938 55.4165 54.5515 56.0255 53.8035C56.59 53.1104 57.0606 52.3735 57.4535 51.5785C57.9659 50.5408 58.2237 49.4228 58.4834 48.3054C58.6094 47.7584 58.6172 47.1991 58.6792 46.6456C58.7099 46.3709 58.5977 46.2736 58.3177 46.2775C57.3008 46.2899 56.2846 46.2821 55.2677 46.2821Z" fill="#1E5AA0"/>
</g>
<mask id="mask1_472:5054" style="mask-type:alpha" maskUnits="userSpaceOnUse" x="25" y="27" width="16" height="30">
<path d="M25.75 27.2529H40.1109V56.0301H25.75V27.2529Z" fill="white"/>
</mask>
<g mask="url(#mask1_472:5054)">
<path fill-rule="evenodd" clip-rule="evenodd" d="M39.881 27.2529C39.9848 27.2529 40.0703 27.2706 40.0977 27.3691C40.1251 27.4664 40.1166 27.5584 40.0057 27.6093C39.8921 27.6615 39.7805 27.7209 39.6656 27.7718C38.2323 28.4082 37.0947 29.4368 36.0707 30.5835C35.1524 31.6108 34.4175 32.7784 33.9228 34.0727C33.4835 35.2207 33.1317 36.391 32.9072 37.6121C32.5796 39.3887 32.4836 41.1718 32.5476 42.9627C32.5972 44.349 32.7917 45.7242 33.152 47.0752C33.5612 48.6083 34.1336 50.0671 35.031 51.3757C35.6576 52.2901 36.3801 53.1242 37.2488 53.8408C38.094 54.5392 38.9921 55.139 39.9463 55.6663C40.0383 55.7179 40.1362 55.7538 40.0768 55.9039C40.022 56.041 39.9228 56.0436 39.8203 56.0168C38.9562 55.7917 38.0783 55.6141 37.2462 55.2793C36.5224 54.9889 35.7809 54.7513 35.0819 54.393C33.6989 53.6829 32.3825 52.8703 31.1372 51.9428C30.8343 51.717 30.5739 51.4338 30.29 51.1818C29.6739 50.6362 29.1119 50.0357 28.5957 49.4C28.1055 48.7957 27.6552 48.16 27.2851 47.4623C26.9385 46.8083 26.6154 46.1458 26.3426 45.4605C26.1442 44.9632 26.0613 44.428 25.9425 43.9045C25.7004 42.8394 25.7422 41.7605 25.7761 40.6869C25.7976 39.9937 25.9876 39.313 26.1514 38.6368C26.4941 37.2225 27.1559 35.9517 27.9834 34.7711C28.4201 34.1471 28.9155 33.5643 29.4278 32.9919C30.7442 31.5214 32.34 30.4217 34.022 29.4485C34.9494 28.9114 35.9565 28.5061 36.9649 28.1216C37.8819 27.7718 38.7989 27.4376 39.7713 27.2803C39.8131 27.2738 39.8529 27.2601 39.881 27.2529Z" fill="#1E5AA0"/>
</g>
<path fill-rule="evenodd" clip-rule="evenodd" d="M62.3223 59.8331C62.2968 59.8344 62.272 59.8364 62.2472 59.8383C61.9985 60.5197 61.7531 61.2024 61.5012 61.8825C61.4163 62.1109 61.5417 62.1416 61.7166 62.1259C62.1167 62.0894 62.5161 62.0724 62.9162 62.1168C63.082 62.1344 63.1688 62.0737 63.1028 61.8988C62.845 61.2089 62.5827 60.5217 62.3223 59.8331ZM64.9636 64.8345C64.1151 64.8123 64.294 64.9833 63.9618 64.1499C63.5552 63.1291 63.8573 63.3321 62.7517 63.3105C62.3079 63.3014 61.8615 63.3334 61.419 63.302C61.077 63.2779 60.9184 63.4143 60.8348 63.7282C60.7611 64.0037 60.6351 64.2641 60.5548 64.5376C60.4863 64.7725 60.3492 64.8515 60.1117 64.8378C59.8271 64.8221 59.5399 64.8234 59.2554 64.8371C58.9962 64.8489 58.9395 64.7621 59.0328 64.5219C59.412 63.5448 59.7794 62.5645 60.1528 61.5855C60.5568 60.5282 60.9667 59.4728 61.3628 58.4122C61.4509 58.1773 61.5691 58.0676 61.8406 58.0487C63.0389 57.9665 63.0226 57.9619 63.452 59.0597C64.1497 60.8428 64.869 62.618 65.5791 64.3959C65.7534 64.8332 65.7527 64.8332 65.2808 64.8345C65.1751 64.8345 65.0693 64.8345 64.9636 64.8345Z" fill="#1E5AA0"/>
<path fill-rule="evenodd" clip-rule="evenodd" d="M25.8262 61.4696C25.8125 60.6022 25.9718 59.7811 26.5096 59.0749C27.0937 58.3074 27.8822 57.9497 28.8429 57.9282C29.6065 57.9112 30.3166 58.0398 30.9256 58.5384C31.2911 58.8367 31.5149 59.2251 31.6742 59.6591C31.7447 59.851 31.6957 59.9567 31.4862 59.9985C31.1958 60.0553 30.9066 60.1238 30.6214 60.2008C30.4478 60.2471 30.3349 60.2145 30.2762 60.035C30.0471 59.3301 29.2867 59.0749 28.79 59.133C28.031 59.2231 27.5382 59.6702 27.3724 60.4247C27.221 61.1172 27.2269 61.8109 27.3887 62.5021C27.5499 63.1953 28.1139 63.6978 28.7535 63.7272C29.5145 63.7631 30.051 63.4172 30.2781 62.6614C30.3838 62.3096 30.532 62.2946 30.8179 62.4121C31.0522 62.5087 31.3009 62.5693 31.5443 62.6418C31.7068 62.6901 31.7545 62.7776 31.7075 62.9505C31.3877 64.1299 30.3773 64.9242 29.1444 64.9542C27.1642 65.0025 25.8399 63.7135 25.8262 61.7241C25.8256 61.6393 25.8262 61.5544 25.8262 61.4696Z" fill="#1E5AA0"/>
<path fill-rule="evenodd" clip-rule="evenodd" d="M55.7739 57.9364C57.0956 57.9358 57.9375 58.4573 58.3898 59.5557C58.5276 59.8905 58.5099 59.9297 58.1705 60.0132C57.9036 60.0785 57.6334 60.132 57.3671 60.2032C57.1968 60.2488 57.0936 60.2195 57.0245 60.038C56.7843 59.4062 56.298 59.1191 55.6408 59.1289C54.9614 59.1393 54.4177 59.5355 54.2056 60.1875C53.9262 61.0497 53.9451 61.9229 54.2375 62.7773C54.4464 63.3856 55.024 63.738 55.7048 63.7295C56.3235 63.7217 56.798 63.351 57.0369 62.6905C57.1811 62.2884 57.1811 62.2891 57.5786 62.4164C57.7998 62.4875 58.0204 62.5652 58.2456 62.6233C58.4558 62.6768 58.5086 62.7779 58.446 62.9914C58.1007 64.1675 57.1589 64.9063 55.9221 64.9539C53.9706 65.0297 52.6046 63.7295 52.5824 61.7741C52.5778 61.3401 52.5745 60.9074 52.6574 60.4766C52.9759 58.8182 54.2761 57.8464 55.7739 57.9364Z" fill="#1E5AA0"/>
<path fill-rule="evenodd" clip-rule="evenodd" d="M38.0421 62.8286C38.1511 62.6981 38.174 62.5388 38.2229 62.3919C38.6589 61.0879 39.1034 59.7858 39.5178 58.474C39.6236 58.1385 39.7815 58.0145 40.1261 58.0556C40.3657 58.0843 40.6124 58.0608 40.8552 58.0432C41.0849 58.0269 41.1717 58.0797 41.0823 58.3284C40.3409 60.3896 39.6053 62.452 38.8756 64.517C38.7921 64.754 38.6654 64.8701 38.4109 64.8362C38.3385 64.8264 38.2634 64.8342 38.1896 64.8342C37.2198 64.8349 37.223 64.8336 36.9065 63.9323C36.2604 62.0956 35.609 60.2616 34.9628 58.425C34.8362 58.0641 34.8414 58.0647 35.2109 58.0608C35.4745 58.0582 35.7402 58.0608 36.0025 58.036C36.2714 58.0099 36.402 58.1183 36.4862 58.3721C36.9411 59.7486 37.4097 61.1199 37.8777 62.4918C37.9168 62.6054 37.9227 62.7411 38.0421 62.8286Z" fill="#1E5AA0"/>
<path fill-rule="evenodd" clip-rule="evenodd" d="M45.8775 60.8908C45.8775 61.706 45.8853 62.5212 45.8729 63.3364C45.869 63.5877 45.9591 63.6666 46.2051 63.664C47.1149 63.6536 48.0261 63.6686 48.9365 63.6542C49.1846 63.651 49.2635 63.7378 49.2831 63.974C49.353 64.8356 49.3595 64.8349 48.4993 64.8349C47.2814 64.8343 46.0641 64.8271 44.8469 64.8402C44.5584 64.8427 44.4553 64.7527 44.4566 64.4603C44.4657 62.4598 44.4657 60.4594 44.4559 58.4583C44.4547 58.1633 44.5617 58.0589 44.8469 58.0785C45.0786 58.0948 45.3129 58.0902 45.5453 58.0791C45.7887 58.0674 45.884 58.1653 45.8807 58.4139C45.8703 59.2396 45.8768 60.0652 45.8775 60.8908Z" fill="#1E5AA0"/>
<path fill-rule="evenodd" clip-rule="evenodd" d="M34.239 61.4524C34.239 62.4582 34.2325 63.4639 34.2436 64.469C34.2469 64.7406 34.162 64.8593 33.8794 64.8378C33.6373 64.8202 33.3919 64.8228 33.1497 64.8378C32.8945 64.8522 32.8208 64.7373 32.8214 64.4984C32.8266 62.4666 32.8266 60.4342 32.8214 58.4025C32.8208 58.1649 32.8906 58.0481 33.1471 58.0598C33.4101 58.0722 33.6758 58.0624 33.9388 58.0487C34.1777 58.037 34.2455 58.146 34.2436 58.3724C34.2345 59.3991 34.2397 60.4257 34.239 61.4524Z" fill="#1E5AA0"/>
<path fill-rule="evenodd" clip-rule="evenodd" d="M41.7842 61.4513C41.7835 60.4664 41.7835 59.4816 41.7835 58.4973C41.7842 58.0587 41.7848 58.0594 42.2065 58.062C42.4186 58.0633 42.6327 58.0809 42.8415 58.0568C43.1176 58.0254 43.2201 58.1136 43.2077 58.402C43.1861 58.8772 43.2018 59.3543 43.2018 59.8307C43.2018 61.3658 43.1953 62.9016 43.207 64.4366C43.209 64.7356 43.1215 64.8661 42.8102 64.8387C42.5791 64.8185 42.3435 64.8237 42.1118 64.8367C41.8599 64.8524 41.779 64.7421 41.7809 64.5006C41.7888 63.4844 41.7842 62.4675 41.7842 61.4513Z" fill="#1E5AA0"/>
<path fill-rule="evenodd" clip-rule="evenodd" d="M51.5902 61.4513C51.5902 62.4578 51.5836 63.4635 51.5954 64.4699C51.598 64.7428 51.5125 64.8589 51.2299 64.8387C50.978 64.8204 50.7221 64.8263 50.4682 64.8367C50.2444 64.8459 50.1713 64.7434 50.1713 64.5319C50.1752 62.4773 50.1752 60.4221 50.1719 58.3675C50.1719 58.1567 50.2496 58.0548 50.4708 58.062C50.7345 58.0698 51.0008 58.0705 51.2645 58.0574C51.5171 58.0457 51.5947 58.1625 51.5934 58.4014C51.5863 59.4176 51.5902 60.4345 51.5902 61.4513Z" fill="#1E5AA0"/>
</svg>
