<svg width="60" height="17" viewBox="0 0 60 17" fill="none" xmlns="http://www.w3.org/2000/svg">
<path fill-rule="evenodd" clip-rule="evenodd" d="M44.7361 0.45816L45.2152 0L51.5618 6.07763C52.2298 6.72044 52.6049 7.59043 52.6049 8.49733C52.6049 9.40423 52.2298 10.2742 51.5618 10.917L45.2152 16.9947L38.8687 10.917C38.201 10.274 37.8262 9.40412 37.8262 8.49733C37.8262 7.59054 38.201 6.72061 38.8687 6.07763L44.7361 0.45816Z" fill="#385E9D"/>
<path fill-rule="evenodd" clip-rule="evenodd" d="M52.1301 0.45816L52.6085 0L58.9551 6.07763C59.6228 6.72061 59.9976 7.59054 59.9976 8.49733C59.9976 9.40412 59.6228 10.274 58.9551 10.917L52.6085 16.9947L46.262 10.917C45.5943 10.274 45.2195 9.40412 45.2195 8.49733C45.2195 7.59054 45.5943 6.72061 46.262 6.07763L52.1301 0.45816Z" fill="#FFB81C"/>
<path d="M10.2561 7.71184C10.1167 10.5777 8.14086 13.1036 4.95573 13.1777C1.19941 13.2659 1.42817 10.2538 2.25252 7.74724L2.99876 5.48783H1.70993L0.74539 8.47121C-0.209382 11.4145 -1.08116 16.8517 3.77151 16.8971C9.22396 16.8971 11.2172 12.2327 11.727 8.36569C16.3251 9.06161 19.9113 7.16619 22.8753 5.53191C25.0492 4.32974 26.9322 3.2765 28.4017 3.44948L29.2916 0.737924C29.466 0.203627 28.7476 0.154872 27.8131 0.414007C26.4133 0.804711 24.4138 1.81988 23.2582 2.38222C21.7441 3.11688 20.4371 3.73199 19.1873 4.19349C16.4911 5.1953 13.4734 5.06173 10.3998 4.80259L10.2561 7.71184Z" fill="#385E9C"/>
<path d="M18.0205 16.5064C21.3856 14.2577 22.4966 10.8342 23.6299 7.41602L22.2692 7.91558C20.8228 11.7084 17.2492 14.7907 12.4837 15.6282L12.0854 16.5057L18.0205 16.5064Z" fill="#385E9C"/>
<path d="M28.6402 13.5656C26.255 13.4868 25.8226 11.4451 26.9238 8.05496C27.412 6.55025 27.6108 6.08407 28.099 4.58203C27.518 4.82514 26.9071 5.02149 26.3261 5.26393L24.8281 10.0218C23.639 13.7906 24.4529 16.9931 28.0362 16.9931C34.6534 16.9931 35.9652 5.92245 31.5687 5.29999C29.9709 5.07425 29.3795 6.16155 28.9115 7.38843L28.408 8.72417C27.7698 10.4045 28.9966 11.8057 30.6906 11.4952C31.2799 11.389 31.9704 11.0791 32.4419 10.7805C32.5137 12.3854 30.4849 13.6277 28.6402 13.5656Z" fill="#385E9C"/>
<path d="M31.9231 0L33.318 1.11601C34.4562 2.02365 34.3397 2.62206 33.318 3.59048L32.1094 4.73654L29.5645 2.44107L31.9231 0Z" fill="#385E9C"/>
</svg>
