<svg width="35" height="13" viewBox="0 0 35 13" fill="none" xmlns="http://www.w3.org/2000/svg">
<path d="M11.1168 13H10.9349C10.4562 13 10.0077 12.9424 9.58949 12.8273C9.17737 12.7121 8.78949 12.5424 8.42585 12.3182C8.00767 12.0515 7.64706 11.7182 7.34403 11.3182C7.2107 11.1424 7.09252 10.9515 6.98949 10.7455C6.88646 10.5394 6.79555 10.3212 6.71676 10.0909C6.52888 10.4727 6.29252 10.8212 6.00767 11.1364C5.72888 11.4455 5.38343 11.6788 4.97131 11.8364C4.4804 12.0303 3.99555 12.1273 3.51676 12.1273C3.47434 12.1273 3.3107 12.1242 3.02585 12.1182C2.74706 12.1061 2.39252 11.997 1.96222 11.7909C1.53191 11.5788 1.16222 11.2818 0.853125 10.9C0.550095 10.5182 0.353125 10.0697 0.262216 9.55455C0.225852 9.35455 0.20767 9.15758 0.20767 8.96364C0.20767 8.55152 0.29858 8.10909 0.480398 7.63636C0.662216 7.16364 0.980398 6.70303 1.43494 6.25455C1.87131 5.81818 2.4107 5.43333 3.05313 5.1C3.69555 4.76667 4.42585 4.49091 5.24403 4.27273L4.99858 3.05455L6.10767 2.74545C6.28343 3.49697 6.43494 4.15455 6.56222 4.71818C6.69555 5.28182 6.81373 5.78485 6.91676 6.22727C6.98949 6.53636 7.05616 6.8303 7.11676 7.10909C7.17737 7.38182 7.23797 7.65152 7.29858 7.91818C7.36525 8.17879 7.43191 8.43939 7.49858 8.7C7.56525 8.96061 7.63797 9.23636 7.71676 9.52727C7.81373 9.88485 7.941 10.1909 8.09858 10.4455C8.25616 10.6939 8.43191 10.9061 8.62585 11.0818C8.82585 11.2576 9.03191 11.4 9.24403 11.5091C9.45616 11.6121 9.66525 11.6909 9.87131 11.7455C10.0834 11.8 10.2804 11.8364 10.4622 11.8545C10.644 11.8727 10.8016 11.8818 10.9349 11.8818H11.1168V13ZM5.56222 5.33636C4.84706 5.5303 4.2107 5.7697 3.65313 6.05455C3.10161 6.33333 2.641 6.64848 2.27131 7C1.90767 7.34545 1.64706 7.71818 1.48949 8.11818C1.3804 8.39091 1.32585 8.6697 1.32585 8.95455C1.32585 9.08788 1.33797 9.22121 1.36222 9.35455C1.42282 9.7 1.56828 9.99697 1.79858 10.2455C2.02888 10.4939 2.29858 10.6848 2.60767 10.8182C2.91676 10.9455 3.241 11.0121 3.5804 11.0182H3.62585C3.941 11.0182 4.22585 10.9576 4.4804 10.8364C4.82585 10.6667 5.10464 10.4636 5.31676 10.2273C5.52888 9.98485 5.69252 9.73333 5.80767 9.47273C5.92282 9.21212 5.99858 8.95455 6.03494 8.7C6.07131 8.43939 6.08646 8.20606 6.0804 8C6.0804 7.79394 6.06828 7.62727 6.04403 7.5C6.02585 7.36667 6.01676 7.29697 6.01676 7.29091C5.95009 7 5.89252 6.75455 5.84403 6.55455C5.80161 6.35455 5.76222 6.18182 5.72585 6.03636C5.69555 5.89091 5.66525 5.76364 5.63494 5.65455C5.6107 5.54545 5.58646 5.43939 5.56222 5.33636ZM15.3998 5.69091C15.4604 5.95152 15.5271 6.23939 15.5998 6.55455C15.6725 6.8697 15.7362 7.19697 15.7907 7.53636C15.8513 7.8697 15.9028 8.20909 15.9452 8.55455C15.9877 8.9 16.0149 9.2303 16.0271 9.54545V9.6C16.0271 10.0121 15.9634 10.4212 15.8362 10.8273C15.7089 11.2333 15.521 11.6 15.2725 11.9273C15.024 12.2485 14.718 12.5091 14.3543 12.7091C13.9968 12.903 13.5937 13 13.1452 13H10.7816V11.8818H13.1452C13.4362 11.8636 13.6907 11.7879 13.9089 11.6545C14.1331 11.5212 14.318 11.3485 14.4634 11.1364C14.6149 10.9182 14.7301 10.6727 14.8089 10.4C14.8755 10.1515 14.9089 9.89697 14.9089 9.63636V9.57273C14.9028 9.28182 14.8786 8.97879 14.8362 8.66364C14.7998 8.34848 14.7513 8.03636 14.6907 7.72727C14.6362 7.41818 14.5755 7.11818 14.5089 6.82727C14.4422 6.53636 14.3786 6.26667 14.318 6.01818L15.3998 5.69091ZM13.0089 1.84545L14.1725 0.663636L15.3725 1.86364L14.1907 3.04545L13.0089 1.84545ZM22.1208 13C21.3996 13 20.8208 12.9152 20.3844 12.7455C19.9541 12.5758 19.6238 12.3242 19.3935 11.9909C19.1632 11.6576 19.0117 11.2485 18.939 10.7636C18.8663 10.2727 18.8299 9.70909 18.8299 9.07273V0.0272732H19.9663V9.07273C19.9663 9.63636 19.9844 10.1 20.0208 10.4636C20.0572 10.8273 20.1481 11.1152 20.2935 11.3273C20.439 11.5333 20.6541 11.6788 20.939 11.7636C21.2299 11.8424 21.6238 11.8818 22.1208 11.8818H22.2481V13H22.1208ZM26.4548 5.24545C26.6427 5.24545 26.8821 5.28182 27.173 5.35455C27.47 5.42121 27.8003 5.51212 28.1639 5.62727C28.5276 5.74242 28.9124 5.87576 29.3185 6.02727C29.7245 6.17273 30.1306 6.32727 30.5366 6.49091C30.9427 6.64848 31.3366 6.80606 31.7185 6.96364C32.1003 7.12121 32.4488 7.26667 32.7639 7.4C33.0851 7.53333 33.3579 7.64848 33.5821 7.74545C33.8124 7.83636 33.976 7.9 34.073 7.93636L34.2276 8.94545C33.6276 9.38182 33.07 9.78485 32.5548 10.1545C32.0397 10.5242 31.5245 10.8606 31.0094 11.1636C30.4942 11.4606 29.9609 11.7242 29.4094 11.9545C28.8579 12.1848 28.2457 12.3788 27.573 12.5364C26.9003 12.6879 26.1488 12.803 25.3185 12.8818C24.4882 12.9606 23.3579 13 21.9276 13V11.8818H22.2639C23.3791 11.8818 24.276 11.8545 24.9548 11.8C25.6397 11.7455 26.276 11.6606 26.8639 11.5455C27.4579 11.4242 28.0033 11.2727 28.5003 11.0909C29.0033 10.9091 29.4942 10.6939 29.973 10.4455C30.4518 10.197 30.9336 9.91818 31.4185 9.60909C31.9094 9.29394 32.4366 8.94545 33.0003 8.56364C32.5821 8.40606 32.1488 8.24242 31.7003 8.07273C31.2579 7.90303 30.8185 7.73636 30.3821 7.57273C29.9457 7.40909 29.5215 7.25455 29.1094 7.10909C28.6973 6.96364 28.3185 6.83636 27.973 6.72727C27.6276 6.61212 27.3215 6.52424 27.0548 6.46364C26.7942 6.39697 26.5912 6.36364 26.4457 6.36364C26.0639 6.36364 25.7185 6.51515 25.4094 6.81818C25.1063 7.12121 24.8851 7.54242 24.7457 8.08182L23.6639 7.8C23.7548 7.44848 23.8821 7.11818 24.0457 6.80909C24.2154 6.5 24.4185 6.2303 24.6548 6C24.8912 5.7697 25.1579 5.58788 25.4548 5.45455C25.7579 5.31515 26.0912 5.24545 26.4548 5.24545ZM24.9094 1.53636L26.073 0.354546L27.273 1.55455L26.0912 2.73636L24.9094 1.53636Z" fill="white"/>
</svg>
