<svg width="78" height="36" viewBox="0 0 78 36" fill="none" xmlns="http://www.w3.org/2000/svg">
<rect x="1" y="1" width="76" height="34" stroke="#55A2E7" stroke-opacity="0.6"/>
<path d="M33.6838 11C33.6838 11.0429 33.6867 11.0859 33.6867 11.129C33.6867 12.3995 33.6867 13.6702 33.6867 14.9408C33.6867 14.9797 33.6684 15.0348 33.7001 15.0544C33.739 15.0789 33.7719 15.0265 33.8048 15.0048C34.2059 14.7328 34.6626 14.5622 35.1384 14.5069C35.2886 14.4865 35.4399 14.4768 35.5914 14.4777C36.3429 14.4967 37.0197 14.7333 37.6053 15.232C37.8988 15.4819 38.1318 15.7851 38.32 16.1263C38.5777 16.5931 38.7285 17.0971 38.7895 17.6297C38.8176 17.8544 38.8293 18.0809 38.8246 18.3073C38.8078 18.876 38.7273 19.4323 38.5103 19.9592C38.3746 20.2895 38.1884 20.5948 37.9591 20.8632C37.4164 21.4985 36.726 21.8464 35.9335 22.0007C35.4892 22.0872 35.0406 22.102 34.5915 22.0801C33.7424 22.0413 32.9038 21.8701 32.1036 21.5722C32.0308 21.5453 31.9594 21.5147 31.8869 21.4875C31.8694 21.4827 31.8542 21.4715 31.844 21.456C31.8338 21.4404 31.8293 21.4216 31.8313 21.4029C31.8313 21.3827 31.8313 21.3624 31.8313 21.3421V11.0689C31.8313 11.046 31.8313 11.0229 31.8313 11H33.6838ZM33.6869 18.4712C33.6869 19.0733 33.6869 19.6754 33.6869 20.2774C33.6869 20.4149 33.6756 20.4082 33.8092 20.4469C34.3124 20.5931 34.8247 20.6554 35.3457 20.5989C35.6665 20.5655 35.9688 20.4266 36.2087 20.2022C36.5004 19.9343 36.6821 19.5947 36.791 19.2099C36.8851 18.8772 36.9149 18.5348 36.9193 18.1905C36.9192 18.0478 36.9103 17.9053 36.8925 17.7638C36.8567 17.4438 36.7731 17.1399 36.6202 16.8588C36.3934 16.4382 36.0665 16.1437 35.6174 16.0056C35.4085 15.9416 35.1948 15.9323 34.9793 15.9394C34.7861 15.9455 34.5957 15.9884 34.4174 16.066C34.184 16.1672 33.9788 16.3159 33.7756 16.471C33.7079 16.5226 33.6848 16.5803 33.6853 16.666C33.6883 17.2673 33.6869 17.8693 33.6869 18.4712Z" fill="#48AFD1"/>
<path d="M58.9984 21.4637C58.5573 21.7492 58.0924 21.9744 57.5737 22.0576C57.2939 22.1026 57.0138 22.1018 56.7374 22.0327C56.5357 21.9825 56.3619 21.8851 56.2425 21.7006C56.1851 21.6093 56.14 21.5103 56.1083 21.4064C56.0779 21.3116 56.0785 21.3106 55.996 21.3689C55.828 21.4888 55.6526 21.5971 55.4709 21.6929C55.116 21.879 54.7437 22.0082 54.3491 22.0613C53.9932 22.1093 53.638 22.1068 53.2973 21.9716C52.7832 21.7674 52.4087 21.4076 52.2009 20.8711C52.1392 20.7049 52.1063 20.5285 52.1037 20.3503C52.0928 20.0804 52.1238 19.8105 52.1955 19.551C52.3186 19.1204 52.5679 18.7895 52.9219 18.5384C53.2016 18.34 53.5054 18.1931 53.8199 18.0664C54.2806 17.8807 54.7587 17.7531 55.2317 17.6079C55.4721 17.5342 55.713 17.4621 55.9536 17.3882C56.0345 17.3633 56.0377 17.3592 56.0378 17.2762C56.0378 17.13 56.0427 16.9838 56.0229 16.8381C56.0034 16.6887 55.9626 16.5471 55.8838 16.419C55.7817 16.2527 55.636 16.1441 55.4612 16.0759C55.2974 16.0119 55.1274 15.9846 54.9528 15.9718C54.6854 15.9538 54.4169 15.9776 54.1563 16.0425C53.8038 16.1271 53.4675 16.273 53.1615 16.474C52.9026 16.6441 52.6652 16.8474 52.4547 17.0789C52.4332 17.1026 52.4159 17.1334 52.3808 17.1417C52.3577 17.1142 52.3663 17.0842 52.3663 17.0569C52.3663 16.5463 52.3663 16.0358 52.3647 15.5253C52.3632 15.4942 52.3696 15.4632 52.3833 15.4355C52.3969 15.4078 52.4174 15.3844 52.4425 15.3675C52.9993 14.9299 53.6236 14.6587 54.311 14.5445C54.6045 14.4937 54.9021 14.4718 55.1996 14.4791C55.5913 14.4909 55.9801 14.5293 56.3578 14.6492C56.73 14.7673 57.0667 14.9502 57.3423 15.2406C57.6329 15.5467 57.798 15.9192 57.8589 16.3426C57.8826 16.5186 57.8937 16.6963 57.8919 16.874C57.8909 18.0184 57.8909 19.1628 57.8919 20.3071C57.8919 20.3906 57.8919 20.473 57.9225 20.5528C57.9662 20.6692 58.0465 20.7312 58.1658 20.7403C58.2541 20.7456 58.3425 20.7299 58.4242 20.6945C58.6334 20.6124 58.828 20.4944 58.9999 20.3456L58.9984 21.4637ZM56.0365 19.3341V18.6891C56.0365 18.6081 56.0375 18.5285 56.0365 18.4483C56.0353 18.3784 56.0295 18.375 55.9628 18.3961C55.9497 18.4003 55.9367 18.405 55.9239 18.4096C55.6876 18.4965 55.4522 18.5864 55.2222 18.6901C54.9588 18.8086 54.7015 18.9388 54.4671 19.1135C54.3275 19.2176 54.1972 19.3333 54.1064 19.487C53.9897 19.6848 53.9562 19.9011 53.9873 20.1314C54.0356 20.49 54.2777 20.7646 54.6183 20.8401C54.7782 20.8725 54.943 20.8689 55.1016 20.8296C55.431 20.7557 55.706 20.5761 55.9604 20.3537C56.0188 20.3019 56.0396 20.2474 56.0382 20.169C56.0342 19.8902 56.0365 19.6121 56.0365 19.3341Z" fill="#56BB9D"/>
<path d="M27.447 22.0849C26.9413 22.0892 26.4796 22.0189 26.0305 21.8681C25.5827 21.7208 25.1648 21.4883 24.7983 21.1826C24.4831 20.9203 24.219 20.5976 24.0203 20.232C23.7869 19.8013 23.6523 19.3389 23.5924 18.8497C23.5572 18.5507 23.5489 18.249 23.5675 17.9485C23.592 17.4483 23.7171 16.959 23.9347 16.5123C24.1186 16.1321 24.3681 15.7905 24.6709 15.5044C25.0334 15.164 25.4498 14.9171 25.9082 14.7438C26.2669 14.61 26.6412 14.5266 27.0211 14.4959C27.6435 14.4427 28.254 14.5075 28.847 14.7132C29.3274 14.8799 29.7655 15.1279 30.1465 15.4799C30.6314 15.9281 30.9562 16.4805 31.1384 17.1255C31.2123 17.3958 31.258 17.6736 31.2746 17.9542C31.3153 18.5044 31.2546 19.0577 31.0957 19.5842C30.9762 19.9824 30.7842 20.353 30.5303 20.6757C30.2456 21.0353 29.8959 21.3331 29.501 21.5523C29.0861 21.7867 28.6362 21.9464 28.1701 22.0246C28.075 22.0408 27.9795 22.0552 27.8837 22.0651C27.7271 22.0789 27.5703 22.0916 27.447 22.0849ZM25.5138 18.2701C25.51 18.4616 25.5223 18.6531 25.5505 18.8424C25.6338 19.3689 25.8257 19.8371 26.2118 20.2036C26.3393 20.3266 26.4861 20.4261 26.6457 20.4977C26.8318 20.5772 27.0287 20.626 27.2292 20.6423C27.4903 20.6679 27.7537 20.6418 28.0054 20.5653C28.5367 20.4033 28.9001 20.041 29.1167 19.5165C29.2624 19.1642 29.3176 18.7907 29.332 18.4106C29.3384 18.2418 29.3347 18.0727 29.3207 17.9043C29.2964 17.6137 29.2445 17.3308 29.1344 17.0619C28.9004 16.4914 28.4992 16.1235 27.9157 15.9754C27.7106 15.923 27.5019 15.9163 27.292 15.9222C26.9844 15.9287 26.6847 16.0242 26.4261 16.1978C26.086 16.4252 25.8541 16.747 25.7003 17.132C25.5564 17.4922 25.506 17.8709 25.5138 18.2701Z" fill="#43ADDF"/>
<path d="M44.1276 15.6049C44.1607 15.6037 44.1716 15.5775 44.1871 15.5593C44.4283 15.2726 44.6992 15.0229 45.0174 14.8313C45.2982 14.6645 45.6073 14.5556 45.9276 14.5105C46.0801 14.4854 46.2343 14.4744 46.3886 14.4777C46.8414 14.4931 47.2735 14.5893 47.6646 14.8408C47.9953 15.0534 48.2504 15.3414 48.4451 15.6893C48.6486 16.0524 48.7522 16.4489 48.7952 16.8639C48.8092 17.0007 48.8162 17.1382 48.8162 17.2758C48.8147 18.7843 48.8147 20.2928 48.8162 21.8012C48.8162 21.9464 48.8162 21.9464 48.675 21.9464H47.1129C46.9573 21.9464 46.9623 21.9554 46.9623 21.7935C46.9623 20.3652 46.9623 18.937 46.9623 17.5091C46.9623 17.2808 46.9409 17.0563 46.8758 16.8384C46.7721 16.4927 46.5823 16.2177 46.2608 16.0575C46.1335 15.9942 45.9949 15.9597 45.8539 15.9562C45.6684 15.9503 45.4844 15.9578 45.3074 16.023C45.1253 16.0904 44.9558 16.1904 44.8068 16.3185C44.5646 16.5247 44.3595 16.7673 44.165 17.022C44.1337 17.059 44.1175 17.1071 44.1196 17.1563C44.1216 17.1848 44.1196 17.2136 44.1196 17.2422C44.1196 18.7594 44.1196 20.2764 44.1196 21.7933C44.1196 21.9554 44.1259 21.9464 43.9689 21.9464H42.3902C42.2636 21.9464 42.2634 21.9464 42.2634 21.8118V14.7481C42.2634 14.6158 42.2634 14.6156 42.3926 14.6156H43.9796C44.1195 14.6156 44.1195 14.6156 44.1195 14.7655C44.1195 15.015 44.1195 15.2644 44.1195 15.5148C44.1195 15.5441 44.1126 15.5767 44.1276 15.6049Z" fill="#4FB5B6"/>
<path d="M51.5914 18.7379C51.5914 20.0485 51.5957 21.3589 51.589 22.6696C51.5867 23.1455 51.5097 23.6113 51.3275 24.0529C51.0894 24.6301 50.7072 25.0691 50.1712 25.3617C49.9772 25.4646 49.7743 25.5482 49.5652 25.6114C49.4905 25.6351 49.4808 25.6317 49.4411 25.556C49.3326 25.3501 49.2246 25.1436 49.1171 24.9367L48.6707 24.0831C48.6641 24.0705 48.6559 24.0588 48.6501 24.0458C48.6293 23.9993 48.6332 23.9893 48.6822 23.9715C48.7312 23.9537 48.7822 23.9389 48.8314 23.9201C49.212 23.7743 49.4685 23.5003 49.6062 23.1046C49.679 22.8937 49.7184 22.6719 49.7229 22.4478C49.7245 22.3818 49.7241 22.316 49.7241 22.25V14.7571C49.7241 14.6176 49.7256 14.6154 49.8558 14.6154H51.4593C51.5916 14.6154 51.5927 14.6164 51.5927 14.7545V18.7379H51.5914Z" fill="#54B8A4"/>
<path d="M22.9526 18.7187C22.9526 20.0267 22.9563 21.3345 22.9504 22.6423C22.9485 23.0918 22.8824 23.5333 22.725 23.9564C22.5138 24.5234 22.1651 24.9715 21.6613 25.2856C21.4329 25.4248 21.1883 25.5332 20.9336 25.608C20.8443 25.6354 20.8425 25.6323 20.7984 25.5473C20.5421 25.0595 20.2858 24.5715 20.0298 24.0833C20.027 24.0783 20.0243 24.0734 20.0218 24.0681C19.987 23.9981 19.9897 23.99 20.0607 23.9669C20.177 23.9312 20.2895 23.8831 20.3964 23.8233C20.712 23.6376 20.9005 23.3521 20.9993 22.9965C21.0587 22.7753 21.0873 22.5464 21.0843 22.3168C21.0831 19.8072 21.0831 17.2975 21.0843 14.7877C21.0843 14.7533 21.0843 14.7189 21.0853 14.6845C21.0853 14.644 21.1047 14.6203 21.1458 14.6182C21.1705 14.6168 21.1953 14.6164 21.22 14.6164C21.7517 14.6164 22.2833 14.6164 22.8149 14.6164C22.951 14.6164 22.951 14.6164 22.951 14.7612V18.7187H22.9526Z" fill="#41ACE4"/>
<path d="M41.2889 18.2737V21.7925C41.2889 21.946 41.2889 21.9462 41.1444 21.9462H39.5496C39.4218 21.9462 39.4216 21.9462 39.4216 21.8128V14.758C39.4216 14.6162 39.4216 14.6162 39.5603 14.6162H41.1551C41.2874 14.6162 41.2885 14.6176 41.2885 14.7555C41.2889 15.9281 41.2891 17.1008 41.2889 18.2737Z" fill="#4CB3BF"/>
<path d="M40.3579 13.4301C39.8133 13.4674 39.3006 12.8969 39.3 12.3376C39.3 11.7118 39.8331 11.2392 40.352 11.2376C40.8993 11.2357 41.4035 11.7169 41.407 12.3325C41.4101 12.9157 40.9026 13.4641 40.3579 13.4301Z" fill="#4CB3BE"/>
<path d="M22.0191 13.4301C21.4928 13.4666 20.9626 12.9147 20.9663 12.3321C20.9704 11.6936 21.508 11.2365 22.0244 11.2386C22.565 11.24 23.0581 11.7503 23.0577 12.3382C23.0573 12.9532 22.5361 13.466 22.0191 13.4301Z" fill="#41ACE4"/>
<path d="M50.6543 13.4301C50.3809 13.4348 50.151 13.3305 49.9563 13.1324C49.8367 13.0109 49.7373 12.8764 49.6754 12.7128C49.516 12.2916 49.6434 11.7922 49.9798 11.5061C50.1374 11.3722 50.3105 11.2793 50.5125 11.2499C50.8068 11.2072 51.0707 11.2835 51.2991 11.4804C51.4257 11.5874 51.5284 11.7218 51.6003 11.8742C51.7587 12.214 51.7306 12.7481 51.4173 13.084C51.2573 13.2555 51.0723 13.3758 50.844 13.419C50.7809 13.4315 50.7177 13.4281 50.6543 13.4301Z" fill="#53B8A6"/>
</svg>
