<svg width="295" height="84" viewBox="0 0 295 84" fill="none" xmlns="http://www.w3.org/2000/svg">
<path d="M82.1141 15.3053C81.9347 15.4071 81.7602 15.5332 81.5905 15.6835C81.4256 15.8338 81.2777 16.0059 81.1468 16.1998C81.0159 16.3889 80.9117 16.5998 80.8341 16.8326C80.7614 17.0556 80.725 17.2932 80.725 17.5453V17.5962C80.7832 17.4944 80.8462 17.4144 80.9141 17.3562C80.982 17.298 81.0498 17.2544 81.1177 17.2253C81.1856 17.1962 81.2535 17.1768 81.3214 17.1671C81.3892 17.1574 81.4571 17.1526 81.525 17.1526C81.6414 17.1526 81.7505 17.1744 81.8523 17.218C81.9589 17.2617 82.0486 17.3223 82.1214 17.3998C82.1989 17.4774 82.2595 17.5695 82.3032 17.6762C82.3517 17.778 82.3759 17.8871 82.3759 18.0035C82.3759 18.1344 82.3517 18.2605 82.3032 18.3817C82.2547 18.498 82.1868 18.6047 82.0995 18.7017C82.0123 18.7938 81.908 18.8689 81.7868 18.9271C81.6705 18.9805 81.5444 19.0071 81.4086 19.0071C81.1808 19.0071 80.9747 18.9659 80.7905 18.8835C80.6111 18.8011 80.4583 18.6871 80.3323 18.5417C80.2062 18.3962 80.1092 18.2241 80.0414 18.0253C79.9783 17.8217 79.9468 17.6011 79.9468 17.3635C79.9468 17.1017 79.9929 16.8423 80.085 16.5853C80.182 16.3235 80.308 16.0762 80.4632 15.8435C80.6232 15.6108 80.8074 15.3974 81.0159 15.2035C81.2244 15.0047 81.4426 14.8374 81.6705 14.7017L82.1141 15.3053ZM92.5874 18.1053V18.9998H92.471C92.2916 18.9998 92.1074 18.9659 91.9183 18.898C91.7292 18.8302 91.5425 18.7356 91.3583 18.6144C91.1789 18.4932 91.0068 18.3526 90.8419 18.1926C90.6819 18.0326 90.5413 17.8605 90.4201 17.6762C90.4153 17.6859 90.4128 17.6932 90.4128 17.698C90.4128 17.7029 90.4104 17.7077 90.4056 17.7126C90.2989 17.9647 90.1413 18.1805 89.9328 18.3598C89.7244 18.5344 89.4868 18.6798 89.2201 18.7962C88.9583 18.9077 88.6747 18.9877 88.3692 19.0362C88.0686 19.0895 87.7704 19.1162 87.4747 19.1162C87.1547 19.1162 86.8541 19.0992 86.5728 19.0653C86.2916 19.0362 86.0153 18.9853 85.7438 18.9126C85.4771 18.8398 85.2031 18.7429 84.9219 18.6217C84.6456 18.5005 84.3522 18.3502 84.0419 18.1708L84.5001 17.3998L84.8783 17.6326C85.0819 17.7538 85.3244 17.858 85.6056 17.9453C85.8868 18.0326 86.1825 18.1005 86.4928 18.1489C86.808 18.1926 87.1256 18.2144 87.4456 18.2144H87.5328C87.8141 18.2144 88.0783 18.1926 88.3256 18.1489C88.6456 18.0956 88.9195 18.0035 89.1474 17.8726C89.3801 17.7368 89.5377 17.5695 89.6201 17.3708C89.6638 17.2641 89.6856 17.1526 89.6856 17.0362C89.6856 16.9586 89.6662 16.8447 89.6274 16.6944C89.5934 16.5441 89.5062 16.3598 89.3656 16.1417L86.631 11.9962L87.3801 11.5162L90.3256 15.9744C90.505 16.2508 90.6819 16.5174 90.8565 16.7744C91.0359 17.0265 91.2128 17.252 91.3874 17.4508C91.5668 17.6495 91.7462 17.8095 91.9256 17.9308C92.105 18.0471 92.2868 18.1053 92.471 18.1053H92.5874ZM97.1815 13.1526C97.23 13.3611 97.2833 13.5914 97.3415 13.8435C97.3997 14.0956 97.4506 14.3574 97.4942 14.6289C97.5427 14.8956 97.5839 15.1671 97.6178 15.4435C97.6518 15.7198 97.6736 15.9841 97.6833 16.2362V16.2798C97.6833 16.6095 97.6324 16.9368 97.5306 17.2617C97.4288 17.5865 97.2784 17.8798 97.0797 18.1417C96.8809 18.3986 96.636 18.6071 96.3451 18.7671C96.0591 18.9223 95.7366 18.9998 95.3778 18.9998H92.3597V18.1053H95.3778C95.6106 18.0908 95.8142 18.0302 95.9887 17.9235C96.1681 17.8168 96.316 17.6786 96.4324 17.5089C96.5536 17.3344 96.6457 17.138 96.7088 16.9198C96.7621 16.7211 96.7888 16.5174 96.7888 16.3089V16.258C96.7839 16.0253 96.7645 15.7829 96.7306 15.5308C96.7015 15.2786 96.6627 15.0289 96.6142 14.7817C96.5706 14.5344 96.5221 14.2944 96.4688 14.0617C96.4154 13.8289 96.3645 13.6132 96.316 13.4144L97.1815 13.1526ZM96.8397 22.6944L95.9378 21.7853L96.8251 20.8835L97.7415 21.7926L96.8397 22.6944ZM93.8724 22.6798L92.9706 21.7708L93.8578 20.8689L94.7742 21.778L93.8724 22.6798ZM108.087 18.1053V18.9998H107.971C107.792 18.9998 107.607 18.9659 107.418 18.898C107.229 18.8302 107.043 18.7356 106.858 18.6144C106.679 18.4932 106.507 18.3526 106.342 18.1926C106.182 18.0326 106.041 17.8605 105.92 17.6762C105.915 17.6859 105.913 17.6932 105.913 17.698C105.913 17.7029 105.91 17.7077 105.906 17.7126C105.799 17.9647 105.641 18.1805 105.433 18.3598C105.224 18.5344 104.987 18.6798 104.72 18.7962C104.458 18.9077 104.175 18.9877 103.869 19.0362C103.569 19.0895 103.27 19.1162 102.975 19.1162C102.655 19.1162 102.354 19.0992 102.073 19.0653C101.792 19.0362 101.515 18.9853 101.244 18.9126C100.977 18.8398 100.703 18.7429 100.422 18.6217C100.146 18.5005 99.8522 18.3502 99.5419 18.1708L100 17.3998L100.378 17.6326C100.582 17.7538 100.824 17.858 101.106 17.9453C101.387 18.0326 101.683 18.1005 101.993 18.1489C102.308 18.1926 102.626 18.2144 102.946 18.2144H103.033C103.314 18.2144 103.578 18.1926 103.826 18.1489C104.146 18.0956 104.42 18.0035 104.647 17.8726C104.88 17.7368 105.038 17.5695 105.12 17.3708C105.164 17.2641 105.186 17.1526 105.186 17.0362C105.186 16.9586 105.166 16.8447 105.127 16.6944C105.093 16.5441 105.006 16.3598 104.866 16.1417L102.131 11.9962L102.88 11.5162L105.826 15.9744C106.005 16.2508 106.182 16.5174 106.356 16.7744C106.536 17.0265 106.713 17.252 106.887 17.4508C107.067 17.6495 107.246 17.8095 107.426 17.9308C107.605 18.0471 107.787 18.1053 107.971 18.1053H108.087ZM114.041 18.1053V18.9998H113.532C113.208 18.9998 112.9 18.9514 112.609 18.8544C112.318 18.7574 112.063 18.6192 111.845 18.4398C111.714 18.3332 111.605 18.2217 111.518 18.1053C111.271 18.4156 110.96 18.6411 110.587 18.7817C110.214 18.9223 109.76 18.995 109.227 18.9998H107.86V18.1053H109.227C109.513 18.0956 109.768 18.0689 109.991 18.0253C110.214 17.9817 110.403 17.9065 110.558 17.7998C110.713 17.6932 110.832 17.5526 110.914 17.378C111.001 17.1986 111.05 16.9708 111.06 16.6944V14.0835H111.954V16.6944C111.954 16.9562 112.003 17.1768 112.1 17.3562C112.197 17.5356 112.32 17.6811 112.471 17.7926C112.621 17.9041 112.788 17.9841 112.972 18.0326C113.161 18.0811 113.348 18.1053 113.532 18.1053H114.041ZM109.983 10.7308L110.914 9.7853L111.874 10.7453L110.929 11.6908L109.983 10.7308ZM122.578 18.9998C122.209 18.9998 121.891 18.9562 121.625 18.8689C121.363 18.7768 121.13 18.6386 120.927 18.4544C120.83 18.372 120.745 18.2798 120.672 18.178C120.59 18.3526 120.485 18.5126 120.359 18.658C120.238 18.7986 120.1 18.9198 119.945 19.0217C119.79 19.1235 119.625 19.2011 119.45 19.2544C119.276 19.3126 119.096 19.3417 118.912 19.3417C118.674 19.3417 118.437 19.3126 118.199 19.2544C117.962 19.1962 117.714 19.1138 117.457 19.0071C117.201 18.9053 116.929 18.7817 116.643 18.6362C116.357 18.4859 116.047 18.3211 115.712 18.1417C115.329 18.7138 114.808 18.9998 114.148 18.9998H113.792V18.1053H114.148C114.338 18.1053 114.498 18.0665 114.628 17.9889C114.764 17.9065 114.888 17.7756 114.999 17.5962C115.116 17.4071 115.213 17.1817 115.29 16.9198C115.373 16.6532 115.455 16.3744 115.538 16.0835C115.586 15.9041 115.634 15.7247 115.683 15.5453C115.736 15.3659 115.794 15.1889 115.857 15.0144C115.921 14.8398 115.988 14.6702 116.061 14.5053C116.139 14.3405 116.228 14.1829 116.33 14.0326C116.825 13.3005 117.528 12.9344 118.439 12.9344C118.803 12.9344 119.15 13.0289 119.479 13.218C119.809 13.4023 120.1 13.6714 120.352 14.0253C120.585 14.3356 120.762 14.6823 120.883 15.0653C121.004 15.4483 121.065 15.8362 121.065 16.2289C121.065 16.9902 121.22 17.5138 121.53 17.7998C121.647 17.9065 121.785 17.9841 121.945 18.0326C122.11 18.0811 122.321 18.1053 122.578 18.1053H122.73V18.9998H122.578ZM118.912 18.4471C119.062 18.4471 119.213 18.4083 119.363 18.3308C119.513 18.2532 119.649 18.1271 119.77 17.9526C119.891 17.778 119.988 17.5502 120.061 17.2689C120.134 16.9829 120.17 16.6362 120.17 16.2289C120.17 15.938 120.122 15.6447 120.025 15.3489C119.933 15.0483 119.802 14.7817 119.632 14.5489C119.584 14.4811 119.521 14.4059 119.443 14.3235C119.37 14.2411 119.283 14.1635 119.181 14.0908C119.079 14.018 118.965 13.9574 118.839 13.9089C118.718 13.8556 118.585 13.8289 118.439 13.8289C118.119 13.8289 117.853 13.8871 117.639 14.0035C117.426 14.115 117.244 14.2774 117.094 14.4908C116.948 14.7041 116.822 14.9659 116.716 15.2762C116.609 15.5817 116.505 15.9283 116.403 16.3162C116.35 16.4956 116.299 16.6702 116.25 16.8398C116.202 17.0095 116.151 17.1744 116.098 17.3344C116.408 17.4992 116.694 17.652 116.956 17.7926C117.222 17.9283 117.47 18.0471 117.697 18.1489C117.93 18.2459 118.148 18.3211 118.352 18.3744C118.536 18.4229 118.708 18.4471 118.868 18.4471H118.912ZM126.76 15.5598C126.91 15.5598 127.061 15.555 127.211 15.5453C127.366 15.5356 127.514 15.5235 127.654 15.5089C127.795 15.4895 127.928 15.4702 128.054 15.4508C128.181 15.4314 128.29 15.4144 128.382 15.3998C128.377 15.1865 128.365 14.9562 128.345 14.7089C128.326 14.4568 128.292 14.2047 128.244 13.9526C128.195 13.6956 128.125 13.4508 128.033 13.218C127.945 12.9805 127.829 12.7695 127.684 12.5853C127.538 12.4011 127.359 12.2556 127.145 12.1489C126.937 12.0374 126.687 11.9817 126.396 11.9817C126.091 11.9817 125.824 12.0374 125.596 12.1489C125.373 12.2605 125.189 12.4059 125.044 12.5853C124.898 12.7647 124.789 12.9708 124.716 13.2035C124.648 13.4362 124.614 13.6714 124.614 13.9089C124.614 14.2386 124.668 14.5102 124.774 14.7235C124.886 14.932 125.039 15.0992 125.233 15.2253C125.427 15.3465 125.654 15.4338 125.916 15.4871C126.178 15.5356 126.459 15.5598 126.76 15.5598ZM126.396 11.0871C126.804 11.092 127.158 11.1623 127.458 11.298C127.764 11.4338 128.023 11.618 128.236 11.8508C128.45 12.0786 128.624 12.3453 128.76 12.6508C128.896 12.9562 129 13.2811 129.073 13.6253C129.15 13.9695 129.204 14.3259 129.233 14.6944C129.262 15.058 129.276 15.412 129.276 15.7562C129.276 16.3914 129.179 16.9174 128.985 17.3344C128.796 17.7514 128.525 18.0835 128.171 18.3308C127.822 18.578 127.4 18.7526 126.905 18.8544C126.411 18.9514 125.861 18.9998 125.254 18.9998H122.44V18.1053H125.254C125.681 18.0811 126.071 18.052 126.425 18.018C126.779 17.9792 127.087 17.9017 127.349 17.7853C127.616 17.6689 127.834 17.4968 128.004 17.2689C128.173 17.0411 128.287 16.7211 128.345 16.3089C128.142 16.3429 127.899 16.3768 127.618 16.4108C127.337 16.4398 127.051 16.4544 126.76 16.4544C126.304 16.4544 125.89 16.4059 125.516 16.3089C125.143 16.2071 124.823 16.052 124.556 15.8435C124.29 15.635 124.084 15.3708 123.938 15.0508C123.793 14.7308 123.72 14.3502 123.72 13.9089C123.72 13.5259 123.783 13.1623 123.909 12.818C124.04 12.4689 124.222 12.1659 124.454 11.9089C124.687 11.6471 124.968 11.4411 125.298 11.2908C125.608 11.155 125.95 11.0871 126.324 11.0871H126.396ZM127.691 9.50167L126.789 8.59258C126.954 8.42288 127.102 8.27257 127.233 8.14167C127.368 8.00591 127.516 7.85561 127.676 7.69076L128.593 8.59985L127.691 9.50167ZM124.738 9.48712L123.836 8.57803C124.001 8.40833 124.149 8.25803 124.28 8.12712C124.416 7.99136 124.564 7.84106 124.724 7.67621L125.64 8.5853L124.738 9.48712ZM138.284 14.5198C138.284 15.1114 138.301 15.6302 138.335 16.0762C138.374 16.5223 138.446 16.8956 138.553 17.1962C138.66 17.4968 138.808 17.7247 138.997 17.8798C139.191 18.0302 139.443 18.1053 139.753 18.1053H139.993V18.9998H139.753C139.481 18.9998 139.241 18.9635 139.033 18.8908C138.825 18.818 138.638 18.7186 138.473 18.5926C138.313 18.4665 138.175 18.3162 138.058 18.1417C137.942 17.9671 137.845 17.778 137.768 17.5744C137.622 17.8556 137.44 18.0883 137.222 18.2726C137.004 18.4568 136.749 18.6023 136.458 18.7089C136.168 18.8156 135.835 18.8908 135.462 18.9344C135.089 18.978 134.674 18.9998 134.218 18.9998H131.288V18.1053H134.218C134.718 18.0859 135.142 18.0447 135.491 17.9817C135.845 17.9186 136.138 17.8289 136.371 17.7126C136.609 17.5914 136.795 17.4411 136.931 17.2617C137.067 17.0774 137.169 16.8568 137.237 16.5998C137.305 16.338 137.346 16.035 137.36 15.6908C137.38 15.3465 137.389 14.9538 137.389 14.5126V8.61439H138.284V14.5198ZM132.168 16.5853V8.62167H133.077V16.5853H132.168ZM147.307 18.1053V18.9998H139.75V18.1053H142.754C142.55 17.9744 142.364 17.8168 142.194 17.6326C142.024 17.4483 141.879 17.2471 141.758 17.0289C141.641 16.8108 141.549 16.578 141.481 16.3308C141.413 16.0835 141.379 15.8289 141.379 15.5671C141.379 15.1841 141.457 14.8229 141.612 14.4835C141.772 14.1441 141.985 13.8483 142.252 13.5962C142.519 13.3392 142.827 13.1356 143.176 12.9853C143.525 12.835 143.888 12.7598 144.267 12.7598C144.548 12.7598 144.807 12.7938 145.045 12.8617C145.287 12.9295 145.518 13.0168 145.736 13.1235C145.959 13.2253 146.175 13.3417 146.383 13.4726C146.596 13.6035 146.812 13.732 147.03 13.858L146.579 14.6289C146.39 14.5174 146.201 14.4035 146.012 14.2871C145.823 14.1708 145.634 14.0665 145.445 13.9744C145.256 13.8774 145.062 13.7998 144.863 13.7417C144.669 13.6835 144.47 13.6544 144.267 13.6544C144.029 13.6544 143.791 13.7029 143.554 13.7998C143.316 13.892 143.103 14.0229 142.914 14.1926C142.725 14.3574 142.57 14.5586 142.448 14.7962C142.332 15.0289 142.274 15.2859 142.274 15.5671C142.274 15.6592 142.281 15.7708 142.296 15.9017C142.315 16.0277 142.351 16.1635 142.405 16.3089C142.463 16.4544 142.543 16.6047 142.645 16.7598C142.747 16.915 142.882 17.0653 143.052 17.2108C143.207 17.3417 143.391 17.4629 143.605 17.5744C143.823 17.6811 144.056 17.7756 144.303 17.858C144.555 17.9356 144.815 17.9962 145.081 18.0398C145.353 18.0835 145.624 18.1053 145.896 18.1053H147.307ZM156.293 14.8253C155.997 15.4362 155.764 16.0253 155.595 16.5926C155.43 17.1598 155.328 17.6956 155.289 18.1998C155.275 18.3598 155.267 18.5174 155.267 18.6726C155.267 19.0023 155.304 19.3465 155.376 19.7053C155.454 20.0689 155.602 20.4253 155.82 20.7744C156.092 21.2059 156.445 21.538 156.882 21.7708C157.323 22.0035 157.815 22.1198 158.358 22.1198H160.169C160.402 22.1198 160.649 22.1102 160.911 22.0908C161.178 22.0714 161.442 22.035 161.704 21.9817C161.97 21.9332 162.225 21.8677 162.467 21.7853C162.715 21.7029 162.93 21.6011 163.115 21.4798C163.304 21.3586 163.454 21.2132 163.565 21.0435C163.677 20.8786 163.733 20.6847 163.733 20.4617C163.733 20.3114 163.716 20.1732 163.682 20.0471C163.648 19.9259 163.585 19.8144 163.493 19.7126C163.401 19.6156 163.272 19.5283 163.107 19.4508C162.942 19.3732 162.732 19.3053 162.475 19.2471C162.218 19.1889 161.905 19.138 161.536 19.0944C161.173 19.0556 160.744 19.0241 160.249 18.9998L160.271 18.1053H166.555V18.9998H164.038C164.242 19.1986 164.39 19.4144 164.482 19.6471C164.574 19.8798 164.62 20.1514 164.62 20.4617C164.62 20.7865 164.559 21.075 164.438 21.3271C164.317 21.5841 164.15 21.8071 163.936 21.9962C163.723 22.1853 163.473 22.3429 163.187 22.4689C162.901 22.5998 162.593 22.7041 162.264 22.7817C161.934 22.8641 161.59 22.9223 161.231 22.9562C160.877 22.995 160.523 23.0144 160.169 23.0144H158.358C157.66 23.0144 157.025 22.8617 156.453 22.5562C155.881 22.2508 155.418 21.8168 155.064 21.2544C154.729 20.7114 154.518 20.1514 154.431 19.5744C154.378 19.2592 154.351 18.9465 154.351 18.6362C154.351 18.3695 154.38 18.0253 154.438 17.6035C154.496 17.1768 154.625 16.6774 154.824 16.1053C155.022 15.5332 155.245 14.978 155.493 14.4398L156.293 14.8253ZM171.682 18.1053V18.9998H164.125V18.1053H167.129C166.925 17.9744 166.739 17.8168 166.569 17.6326C166.399 17.4483 166.254 17.2471 166.133 17.0289C166.016 16.8108 165.924 16.578 165.856 16.3308C165.788 16.0835 165.754 15.8289 165.754 15.5671C165.754 15.1841 165.832 14.8229 165.987 14.4835C166.147 14.1441 166.36 13.8483 166.627 13.5962C166.894 13.3392 167.202 13.1356 167.551 12.9853C167.9 12.835 168.263 12.7598 168.642 12.7598C168.923 12.7598 169.182 12.7938 169.42 12.8617C169.662 12.9295 169.893 13.0168 170.111 13.1235C170.334 13.2253 170.55 13.3417 170.758 13.4726C170.971 13.6035 171.187 13.732 171.405 13.858L170.954 14.6289C170.765 14.5174 170.576 14.4035 170.387 14.2871C170.198 14.1708 170.009 14.0665 169.82 13.9744C169.631 13.8774 169.437 13.7998 169.238 13.7417C169.044 13.6835 168.845 13.6544 168.642 13.6544C168.404 13.6544 168.166 13.7029 167.929 13.7998C167.691 13.892 167.478 14.0229 167.289 14.1926C167.1 14.3574 166.945 14.5586 166.823 14.7962C166.707 15.0289 166.649 15.2859 166.649 15.5671C166.649 15.6592 166.656 15.7708 166.671 15.9017C166.69 16.0277 166.726 16.1635 166.78 16.3089C166.838 16.4544 166.918 16.6047 167.02 16.7598C167.122 16.915 167.257 17.0653 167.427 17.2108C167.582 17.3417 167.766 17.4629 167.98 17.5744C168.198 17.6811 168.431 17.7756 168.678 17.858C168.93 17.9356 169.19 17.9962 169.456 18.0398C169.728 18.0835 169.999 18.1053 170.271 18.1053H171.682ZM178.463 18.1053V16.2944C178.454 15.9114 178.417 15.5574 178.354 15.2326C178.296 14.9029 178.194 14.6192 178.049 14.3817C177.903 14.1392 177.709 13.9526 177.467 13.8217C177.225 13.6859 176.914 13.618 176.536 13.618C176.163 13.618 175.853 13.6859 175.605 13.8217C175.358 13.9574 175.159 14.1465 175.009 14.3889C174.863 14.6265 174.759 14.9102 174.696 15.2398C174.638 15.5647 174.609 15.9162 174.609 16.2944C174.609 16.6289 174.667 16.9126 174.783 17.1453C174.9 17.3732 175.062 17.5598 175.271 17.7053C175.479 17.8459 175.722 17.9477 175.998 18.0108C176.279 18.0738 176.585 18.1053 176.914 18.1053H178.463ZM176.536 12.7235C177.036 12.7429 177.465 12.8423 177.823 13.0217C178.182 13.2011 178.473 13.4483 178.696 13.7635C178.924 14.0738 179.091 14.4447 179.198 14.8762C179.305 15.3029 179.358 15.7756 179.358 16.2944V18.1053H180.594V18.9998H179.358V19.1235C179.358 19.7635 179.246 20.3283 179.023 20.818C178.805 21.3077 178.485 21.7174 178.063 22.0471C177.642 22.3768 177.137 22.6192 176.551 22.7744C175.969 22.9344 175.331 23.0144 174.638 23.0144H174.223V22.1198H174.638C175.225 22.1053 175.751 22.0471 176.216 21.9453C176.686 21.8435 177.086 21.6738 177.416 21.4362C177.746 21.1986 178 20.8811 178.18 20.4835C178.359 20.0908 178.454 19.5962 178.463 18.9998H176.805C176.398 18.9998 176.008 18.9465 175.634 18.8398C175.261 18.7332 174.929 18.5683 174.638 18.3453C174.352 18.1174 174.126 17.8338 173.962 17.4944C173.797 17.1502 173.714 16.7502 173.714 16.2944C173.714 15.7805 173.765 15.3102 173.867 14.8835C173.974 14.452 174.139 14.0811 174.362 13.7708C174.589 13.4556 174.88 13.2083 175.234 13.0289C175.593 12.8447 176.027 12.7429 176.536 12.7235ZM186.51 18.1053V18.9998H186.001C185.676 18.9998 185.368 18.9514 185.077 18.8544C184.787 18.7574 184.532 18.6192 184.314 18.4398C184.183 18.3332 184.074 18.2217 183.987 18.1053C183.739 18.4156 183.429 18.6411 183.056 18.7817C182.682 18.9223 182.229 18.995 181.696 18.9998H180.328V18.1053H181.696C181.982 18.0956 182.236 18.0689 182.459 18.0253C182.682 17.9817 182.871 17.9065 183.027 17.7998C183.182 17.6932 183.301 17.5526 183.383 17.378C183.47 17.1986 183.519 16.9708 183.528 16.6944V14.0835H184.423V16.6944C184.423 16.9562 184.471 17.1768 184.568 17.3562C184.665 17.5356 184.789 17.6811 184.939 17.7926C185.09 17.9041 185.257 17.9841 185.441 18.0326C185.63 18.0811 185.817 18.1053 186.001 18.1053H186.51ZM182.452 10.7308L183.383 9.7853L184.343 10.7453L183.398 11.6908L182.452 10.7308ZM191.73 18.9998C191.405 18.9998 191.097 18.9538 190.806 18.8617C190.515 18.7647 190.261 18.6241 190.043 18.4398C189.912 18.3332 189.803 18.2217 189.715 18.1053C189.696 18.1295 189.677 18.1538 189.657 18.178C189.638 18.1974 189.618 18.2192 189.599 18.2435C189.124 18.7477 188.399 18.9998 187.424 18.9998H186.297V18.1053H187.424C188.147 18.1053 188.654 17.9477 188.944 17.6326C189.153 17.4095 189.257 17.1089 189.257 16.7308V14.0908H190.152V16.6944C190.152 17.0192 190.222 17.2811 190.363 17.4798C190.508 17.6786 190.687 17.8289 190.901 17.9308L191.388 17.138C191.674 16.6677 191.977 16.1853 192.297 15.6908C192.617 15.1962 192.964 14.738 193.337 14.3162C193.798 13.7926 194.251 13.4047 194.697 13.1526C195.143 12.8956 195.599 12.7671 196.064 12.7671C196.38 12.7671 196.661 12.818 196.908 12.9198C197.16 13.0168 197.383 13.1502 197.577 13.3198C197.771 13.4895 197.936 13.6883 198.072 13.9162C198.212 14.1441 198.329 14.3889 198.421 14.6508C198.513 14.9077 198.578 15.1744 198.617 15.4508C198.661 15.7223 198.683 15.9914 198.683 16.258C198.683 16.6944 198.622 17.0629 198.501 17.3635C198.384 17.6641 198.244 17.9114 198.079 18.1053H199.984V18.9998H191.73ZM192.152 17.6035C192.098 17.6859 192.045 17.7708 191.992 17.858C191.943 17.9405 191.892 18.0229 191.839 18.1053H196.028C196.125 18.1005 196.237 18.0883 196.363 18.0689C196.489 18.0495 196.617 18.0156 196.748 17.9671C196.879 17.9186 197.005 17.8532 197.126 17.7708C197.252 17.6835 197.364 17.572 197.461 17.4362C197.558 17.3005 197.635 17.138 197.694 16.9489C197.757 16.755 197.788 16.5247 197.788 16.258C197.788 15.9768 197.759 15.6835 197.701 15.378C197.647 15.0677 197.555 14.7865 197.424 14.5344C197.294 14.2823 197.117 14.0738 196.894 13.9089C196.675 13.7441 196.399 13.6617 196.064 13.6617C195.42 13.6617 194.734 14.0762 194.006 14.9053C193.657 15.298 193.33 15.732 193.024 16.2071C192.719 16.6823 192.428 17.1477 192.152 17.6035ZM205.102 18.4471C205.252 18.4471 205.403 18.4083 205.553 18.3308C205.708 18.2532 205.844 18.1271 205.96 17.9526C206.081 17.778 206.178 17.5502 206.251 17.2689C206.329 16.9829 206.367 16.6362 206.367 16.2289C206.367 15.938 206.319 15.6447 206.222 15.3489C206.13 15.0483 205.999 14.7817 205.829 14.5489C205.781 14.4811 205.718 14.4059 205.64 14.3235C205.567 14.2411 205.48 14.1635 205.378 14.0908C205.276 14.018 205.163 13.9574 205.036 13.9089C204.91 13.8556 204.775 13.8289 204.629 13.8289C204.314 13.8289 204.05 13.8871 203.836 14.0035C203.623 14.115 203.441 14.2774 203.291 14.4908C203.146 14.7041 203.02 14.9659 202.913 15.2762C202.806 15.5817 202.7 15.9283 202.593 16.3162C202.544 16.4956 202.496 16.6702 202.447 16.8398C202.399 17.0095 202.346 17.1744 202.287 17.3344C202.598 17.4895 202.886 17.6374 203.153 17.778C203.42 17.9186 203.667 18.0398 203.895 18.1417C204.123 18.2435 204.336 18.3211 204.535 18.3744C204.704 18.4229 204.867 18.4471 205.022 18.4471H205.102ZM204.629 12.9344C204.998 12.9344 205.344 13.0289 205.669 13.218C205.999 13.4023 206.292 13.6714 206.549 14.0253C206.777 14.3356 206.952 14.6823 207.073 15.0653C207.199 15.4483 207.262 15.8362 207.262 16.2289C207.262 16.4811 207.245 16.7332 207.211 16.9853C207.177 17.2326 207.124 17.4726 207.051 17.7053C206.983 17.938 206.891 18.1538 206.775 18.3526C206.663 18.5514 206.527 18.7235 206.367 18.8689C206.207 19.0144 206.023 19.1283 205.815 19.2108C205.606 19.298 205.369 19.3417 205.102 19.3417C204.86 19.3417 204.622 19.3102 204.389 19.2471C204.156 19.1889 203.912 19.1065 203.655 18.9998C203.403 18.8932 203.133 18.7671 202.847 18.6217C202.561 18.4762 202.246 18.3162 201.902 18.1417C201.529 18.7138 201.01 18.9998 200.346 18.9998H199.698V18.1053H200.346C200.535 18.1053 200.695 18.0665 200.826 17.9889C200.961 17.9065 201.083 17.7756 201.189 17.5962C201.306 17.4071 201.405 17.1817 201.487 16.9198C201.57 16.6532 201.652 16.3744 201.735 16.0835C201.832 15.7247 201.936 15.3683 202.047 15.0144C202.164 14.6605 202.324 14.3332 202.527 14.0326C203.027 13.3005 203.727 12.9344 204.629 12.9344ZM231.675 13.1671C231.68 13.1817 231.699 13.2471 231.733 13.3635C231.767 13.4798 231.808 13.6277 231.857 13.8071C231.905 13.9865 231.956 14.1902 232.01 14.418C232.063 14.6459 232.111 14.8811 232.155 15.1235C232.204 15.3611 232.242 15.5986 232.271 15.8362C232.305 16.0689 232.322 16.2823 232.322 16.4762C232.322 16.7235 232.298 16.9489 232.25 17.1526C232.206 17.3514 232.145 17.5283 232.068 17.6835C231.995 17.8386 231.913 17.9744 231.821 18.0908C231.733 18.2071 231.646 18.3041 231.559 18.3817C231.345 18.5756 231.103 18.7259 230.831 18.8326C230.56 18.9344 230.271 18.9877 229.966 18.9926V18.9998C229.098 18.9998 228.424 18.7598 227.944 18.2798C227.905 18.2411 227.869 18.1998 227.835 18.1562C227.801 18.1126 227.767 18.0665 227.733 18.018C227.68 18.0956 227.624 18.1659 227.566 18.2289C227.508 18.2871 227.452 18.3405 227.399 18.3889C227.176 18.5877 226.921 18.7405 226.635 18.8471C226.354 18.9489 226.056 18.9998 225.741 18.9998C224.95 18.9998 224.332 18.7938 223.886 18.3817V19.3708C223.886 20.4665 223.629 21.3102 223.115 21.9017C222.795 22.275 222.383 22.5514 221.879 22.7308C221.36 22.9247 220.73 23.0217 219.988 23.0217H218.25C217.551 23.0217 216.916 22.8689 216.344 22.5635C215.777 22.258 215.316 21.8241 214.962 21.2617C214.841 21.0677 214.734 20.8641 214.642 20.6508C214.555 20.4374 214.485 20.2095 214.431 19.9671C214.33 19.5453 214.279 19.0992 214.279 18.6289C214.279 18.5465 214.281 18.4665 214.286 18.3889C214.344 17.1768 214.713 15.8629 215.391 14.4471L216.199 14.8326C215.903 15.4435 215.67 16.0326 215.501 16.5998C215.336 17.1671 215.234 17.7029 215.195 18.2071C215.181 18.3768 215.173 18.5417 215.173 18.7017C215.173 19.0217 215.21 19.3611 215.282 19.7198C215.355 20.0835 215.501 20.4398 215.719 20.7889C215.99 21.2156 216.344 21.5453 216.781 21.778C217.222 22.0108 217.711 22.1271 218.25 22.1271H219.988C221.156 22.1271 221.973 21.858 222.439 21.3198C222.807 20.8932 222.991 20.2435 222.991 19.3708V14.0908H223.886V15.6908C223.886 16.6411 224.073 17.3029 224.446 17.6762C224.587 17.8217 224.761 17.9308 224.97 18.0035C225.183 18.0714 225.44 18.1053 225.741 18.1053C225.92 18.1053 226.099 18.0762 226.279 18.018C226.463 17.9598 226.63 17.8677 226.781 17.7417C226.931 17.6156 227.052 17.4508 227.144 17.2471C227.241 17.0386 227.29 16.7841 227.29 16.4835V14.0908H228.184V16.4835C228.184 17.5502 228.766 18.0908 229.93 18.1053V18.098C230.104 18.098 230.279 18.0714 230.453 18.018C230.633 17.9598 230.793 17.8677 230.933 17.7417C231.079 17.6108 231.197 17.4435 231.29 17.2398C231.382 17.0314 231.428 16.7768 231.428 16.4762C231.428 16.3017 231.413 16.1077 231.384 15.8944C231.355 15.6762 231.316 15.4556 231.268 15.2326C231.224 15.0047 231.176 14.7841 231.122 14.5708C231.074 14.3574 231.025 14.1683 230.977 14.0035C230.933 13.8338 230.897 13.698 230.868 13.5962C230.839 13.4895 230.824 13.4338 230.824 13.4289L231.675 13.1671ZM226.955 10.9344L226.053 11.8435L225.151 10.9489L226.061 10.0326L226.955 10.9344ZM229.886 10.9126L228.984 11.8144L228.068 10.9126L228.977 10.0035L229.886 10.9126ZM228.446 8.93439L227.544 9.83621L226.628 8.93439L227.537 8.0253L228.446 8.93439ZM238.838 18.1053V16.2944C238.829 15.9114 238.792 15.5574 238.729 15.2326C238.671 14.9029 238.569 14.6192 238.424 14.3817C238.278 14.1392 238.084 13.9526 237.842 13.8217C237.6 13.6859 237.289 13.618 236.911 13.618C236.538 13.618 236.228 13.6859 235.98 13.8217C235.733 13.9574 235.534 14.1465 235.384 14.3889C235.238 14.6265 235.134 14.9102 235.071 15.2398C235.013 15.5647 234.984 15.9162 234.984 16.2944C234.984 16.6289 235.042 16.9126 235.158 17.1453C235.275 17.3732 235.437 17.5598 235.646 17.7053C235.854 17.8459 236.097 17.9477 236.373 18.0108C236.654 18.0738 236.96 18.1053 237.289 18.1053H238.838ZM236.911 12.7235C237.411 12.7429 237.84 12.8423 238.198 13.0217C238.557 13.2011 238.848 13.4483 239.071 13.7635C239.299 14.0738 239.466 14.4447 239.573 14.8762C239.68 15.3029 239.733 15.7756 239.733 16.2944V18.1053H240.969V18.9998H239.733V19.1235C239.733 19.7635 239.621 20.3283 239.398 20.818C239.18 21.3077 238.86 21.7174 238.438 22.0471C238.017 22.3768 237.512 22.6192 236.926 22.7744C236.344 22.9344 235.706 23.0144 235.013 23.0144H234.598V22.1198H235.013C235.6 22.1053 236.126 22.0471 236.591 21.9453C237.061 21.8435 237.461 21.6738 237.791 21.4362C238.121 21.1986 238.375 20.8811 238.555 20.4835C238.734 20.0908 238.829 19.5962 238.838 18.9998H237.18C236.773 18.9998 236.383 18.9465 236.009 18.8398C235.636 18.7332 235.304 18.5683 235.013 18.3453C234.727 18.1174 234.501 17.8338 234.337 17.4944C234.172 17.1502 234.089 16.7502 234.089 16.2944C234.089 15.7805 234.14 15.3102 234.242 14.8835C234.349 14.452 234.514 14.0811 234.737 13.7708C234.964 13.4556 235.255 13.2083 235.609 13.0289C235.968 12.8447 236.402 12.7429 236.911 12.7235ZM245.372 17.6108C245.596 17.5283 245.809 17.4241 246.012 17.298C246.221 17.1671 246.4 17.0144 246.551 16.8398C246.706 16.6653 246.829 16.4665 246.922 16.2435C247.014 16.0205 247.06 15.7732 247.06 15.5017C247.06 15.2205 247.009 14.9635 246.907 14.7308C246.81 14.498 246.682 14.2992 246.522 14.1344C246.362 13.9695 246.18 13.8435 245.976 13.7562C245.777 13.6641 245.576 13.618 245.372 13.618C245.023 13.618 244.73 13.6714 244.493 13.778C244.255 13.8798 244.061 14.0156 243.911 14.1853C243.76 14.3502 243.651 14.5392 243.583 14.7526C243.52 14.9659 243.489 15.1792 243.489 15.3926C243.489 15.7077 243.552 15.9889 243.678 16.2362C243.809 16.4786 244.012 16.7114 244.289 16.9344C244.439 17.0556 244.604 17.172 244.783 17.2835C244.968 17.3902 245.164 17.4992 245.372 17.6108ZM247.074 11.5089C247.462 11.9211 247.823 12.3041 248.158 12.658C248.493 13.012 248.798 13.3465 249.074 13.6617C249.351 13.972 249.596 14.2653 249.809 14.5417C250.027 14.8132 250.214 15.0726 250.369 15.3198C250.524 15.572 250.65 15.8168 250.747 16.0544C250.844 16.292 250.907 16.5271 250.936 16.7598C250.946 16.8471 250.951 16.9368 250.951 17.0289C250.951 17.1744 250.931 17.3465 250.892 17.5453C250.854 17.7392 250.766 17.9647 250.631 18.2217C250.524 18.4253 250.383 18.6071 250.209 18.7671C250.034 18.9223 249.838 19.0532 249.62 19.1598C249.406 19.2665 249.176 19.3465 248.929 19.3998C248.682 19.458 248.434 19.4871 248.187 19.4871C247.93 19.4871 247.678 19.4605 247.431 19.4071C247.188 19.3586 246.948 19.2908 246.711 19.2035C246.473 19.1211 246.238 19.0265 246.005 18.9198C245.773 18.8083 245.54 18.6944 245.307 18.578C244.846 18.7186 244.33 18.8253 243.758 18.898C243.191 18.9659 242.563 18.9998 241.874 18.9998H240.667V18.1053H241.874C242.737 18.1053 243.496 18.0471 244.151 17.9308C244.073 17.8823 244 17.8338 243.933 17.7853C243.865 17.7368 243.799 17.6859 243.736 17.6326C243.363 17.3417 243.079 17.0144 242.885 16.6508C242.691 16.2823 242.594 15.8629 242.594 15.3926C242.594 14.995 242.662 14.6314 242.798 14.3017C242.939 13.972 243.133 13.6908 243.38 13.458C243.627 13.2253 243.92 13.0459 244.26 12.9198C244.599 12.7889 244.97 12.7235 245.372 12.7235C245.736 12.7235 246.076 12.8011 246.391 12.9562C246.706 13.1114 246.977 13.3198 247.205 13.5817C247.438 13.8386 247.62 14.1344 247.751 14.4689C247.886 14.8035 247.954 15.1477 247.954 15.5017C247.954 16.0786 247.821 16.5853 247.554 17.0217C247.288 17.4532 246.905 17.8144 246.405 18.1053C246.667 18.2459 246.951 18.3623 247.256 18.4544C247.562 18.5465 247.874 18.5926 248.194 18.5926C248.403 18.5926 248.594 18.5708 248.769 18.5271C248.948 18.4835 249.108 18.4253 249.249 18.3526C249.389 18.2798 249.508 18.1974 249.605 18.1053C249.707 18.0083 249.785 17.9089 249.838 17.8071C249.925 17.6471 249.986 17.4895 250.02 17.3344C250.039 17.2374 250.049 17.1405 250.049 17.0435C250.049 16.9853 250.042 16.9029 250.027 16.7962C250.017 16.6847 249.976 16.5417 249.903 16.3671C249.836 16.1877 249.736 15.9962 249.605 15.7926C249.319 15.3368 248.907 14.8132 248.369 14.2217C247.831 13.6253 247.183 12.9271 246.427 12.1271L247.074 11.5089ZM266.081 18.9998H265.935C265.552 18.9998 265.194 18.9538 264.859 18.8617C264.529 18.7695 264.219 18.6338 263.928 18.4544C263.594 18.2411 263.305 17.9744 263.063 17.6544C262.956 17.5138 262.862 17.3611 262.779 17.1962C262.697 17.0314 262.624 16.8568 262.561 16.6726C262.411 16.978 262.222 17.2568 261.994 17.5089C261.771 17.7562 261.494 17.9429 261.165 18.0689C260.772 18.2241 260.384 18.3017 260.001 18.3017C259.967 18.3017 259.836 18.2992 259.608 18.2944C259.385 18.2847 259.102 18.1974 258.757 18.0326C258.413 17.8629 258.117 17.6253 257.87 17.3198C257.628 17.0144 257.47 16.6556 257.397 16.2435C257.368 16.0835 257.354 15.9259 257.354 15.7708C257.354 15.4411 257.426 15.0871 257.572 14.7089C257.717 14.3308 257.972 13.9623 258.335 13.6035C258.685 13.2544 259.116 12.9465 259.63 12.6798C260.144 12.4132 260.728 12.1926 261.383 12.018L261.186 11.0435L262.074 10.7962C262.214 11.3974 262.335 11.9235 262.437 12.3744C262.544 12.8253 262.638 13.2277 262.721 13.5817C262.779 13.8289 262.832 14.0641 262.881 14.2871C262.929 14.5053 262.978 14.7211 263.026 14.9344C263.08 15.1429 263.133 15.3514 263.186 15.5598C263.24 15.7683 263.298 15.9889 263.361 16.2217C263.438 16.5077 263.54 16.7526 263.666 16.9562C263.792 17.155 263.933 17.3247 264.088 17.4653C264.248 17.6059 264.413 17.7198 264.583 17.8071C264.752 17.8895 264.92 17.9526 265.085 17.9962C265.254 18.0398 265.412 18.0689 265.557 18.0835C265.703 18.098 265.829 18.1053 265.935 18.1053H266.081V18.9998ZM261.637 12.8689C261.065 13.0241 260.556 13.2156 260.11 13.4435C259.669 13.6665 259.3 13.9186 259.005 14.1998C258.714 14.4762 258.505 14.7744 258.379 15.0944C258.292 15.3126 258.248 15.5356 258.248 15.7635C258.248 15.8702 258.258 15.9768 258.277 16.0835C258.326 16.3598 258.442 16.5974 258.626 16.7962C258.811 16.995 259.026 17.1477 259.274 17.2544C259.521 17.3562 259.78 17.4095 260.052 17.4144H260.088C260.34 17.4144 260.568 17.3659 260.772 17.2689C261.048 17.1332 261.271 16.9708 261.441 16.7817C261.611 16.5877 261.742 16.3865 261.834 16.178C261.926 15.9695 261.986 15.7635 262.015 15.5598C262.045 15.3514 262.057 15.1647 262.052 14.9998C262.052 14.835 262.042 14.7017 262.023 14.5998C262.008 14.4932 262.001 14.4374 262.001 14.4326C261.948 14.1998 261.902 14.0035 261.863 13.8435C261.829 13.6835 261.797 13.5453 261.768 13.4289C261.744 13.3126 261.72 13.2108 261.695 13.1235C261.676 13.0362 261.657 12.9514 261.637 12.8689ZM269.507 13.1526C269.556 13.3611 269.609 13.5914 269.667 13.8435C269.726 14.0956 269.776 14.3574 269.82 14.6289C269.869 14.8956 269.91 15.1671 269.944 15.4435C269.978 15.7198 269.999 15.9841 270.009 16.2362V16.2798C270.009 16.6095 269.958 16.9368 269.856 17.2617C269.755 17.5865 269.604 17.8798 269.406 18.1417C269.207 18.3986 268.962 18.6071 268.671 18.7671C268.385 18.9223 268.062 18.9998 267.704 18.9998H265.813V18.1053H267.704C267.936 18.0908 268.14 18.0302 268.315 17.9235C268.494 17.8168 268.642 17.6786 268.758 17.5089C268.879 17.3344 268.972 17.138 269.035 16.9198C269.088 16.7211 269.115 16.5174 269.115 16.3089V16.258C269.11 16.0253 269.09 15.7829 269.056 15.5308C269.027 15.2786 268.989 15.0289 268.94 14.7817C268.896 14.5344 268.848 14.2944 268.795 14.0617C268.741 13.8289 268.69 13.6132 268.642 13.4144L269.507 13.1526ZM267.58 21.6398L268.409 20.8035L269.267 21.6544L268.424 22.498L267.58 21.6398ZM282.914 18.9998H282.579C282.279 18.9998 281.993 18.9586 281.721 18.8762C281.455 18.7938 281.212 18.675 280.994 18.5198V18.7598C280.994 20.1659 280.645 21.2277 279.947 21.9453C279.253 22.6629 278.228 23.0217 276.87 23.0217H275.859V22.1344H276.87C278.01 22.1344 278.844 21.8362 279.372 21.2398C279.857 20.6871 280.099 19.8605 280.099 18.7598V14.0908H280.994V16.6944C280.994 16.9562 281.042 17.1768 281.139 17.3562C281.236 17.5356 281.36 17.6811 281.51 17.7926C281.665 17.9041 281.835 17.9841 282.019 18.0326C282.208 18.0811 282.395 18.1053 282.579 18.1053H282.914V18.9998ZM291.183 8.38167L285.082 11.0653C285.402 11.3368 285.831 11.7223 286.369 12.2217C286.907 12.7162 287.523 13.332 288.216 14.0689C288.827 14.7138 289.244 15.3417 289.467 15.9526C289.583 16.2726 289.644 16.578 289.649 16.8689V16.9053C289.649 17.1865 289.598 17.4459 289.496 17.6835C289.443 17.8047 289.358 17.9429 289.242 18.098C289.13 18.2483 288.968 18.3914 288.754 18.5271C288.546 18.658 288.282 18.7695 287.962 18.8617C287.642 18.9538 287.249 18.9998 286.783 18.9998H282.645V18.1053H286.783C287.331 18.1053 287.773 18.0253 288.107 17.8653C288.393 17.7295 288.582 17.5502 288.674 17.3271C288.733 17.1962 288.762 17.0532 288.762 16.898C288.762 16.675 288.682 16.3792 288.522 16.0108C288.366 15.6423 288.046 15.1986 287.562 14.6798C287.043 14.1271 286.563 13.6423 286.122 13.2253C285.685 12.8035 285.307 12.452 284.987 12.1708C284.667 11.8847 284.417 11.6689 284.238 11.5235C284.059 11.378 283.966 11.3053 283.962 11.3053L284.056 10.5417L290.82 7.55985L291.183 8.38167ZM284.303 8.1853L289.823 5.80712L290.114 6.38894L284.245 8.92712L284.303 8.1853ZM293.551 18.9998H292.642V8.62167H293.551V18.9998ZM3.08284 43.3053C2.90345 43.4071 2.7289 43.5332 2.5592 43.6835C2.39436 43.8338 2.24648 44.0059 2.11557 44.1998C1.98466 44.3889 1.88042 44.5998 1.80284 44.8326C1.73011 45.0556 1.69375 45.2932 1.69375 45.5453V45.5962C1.75193 45.4944 1.81496 45.4144 1.88284 45.3562C1.95072 45.298 2.0186 45.2544 2.08648 45.2253C2.15436 45.1962 2.22223 45.1768 2.29011 45.1671C2.35799 45.1574 2.42587 45.1526 2.49375 45.1526C2.61011 45.1526 2.7192 45.1744 2.82102 45.218C2.92769 45.2617 3.01739 45.3223 3.09011 45.3998C3.16769 45.4774 3.2283 45.5695 3.27193 45.6762C3.32042 45.778 3.34466 45.8871 3.34466 46.0035C3.34466 46.1344 3.32042 46.2605 3.27193 46.3817C3.22345 46.498 3.15557 46.6047 3.0683 46.7017C2.98102 46.7938 2.87678 46.8689 2.75557 46.9271C2.6392 46.9805 2.51314 47.0071 2.37739 47.0071C2.14951 47.0071 1.94345 46.9659 1.7592 46.8835C1.57981 46.8011 1.42708 46.6871 1.30102 46.5417C1.17496 46.3962 1.07799 46.2241 1.01011 46.0253C0.947083 45.8217 0.915568 45.6011 0.915568 45.3635C0.915568 45.1017 0.961629 44.8423 1.05375 44.5853C1.15072 44.3235 1.27678 44.0762 1.43193 43.8435C1.59193 43.6108 1.77617 43.3974 1.98466 43.2035C2.19314 43.0047 2.41133 42.8374 2.6392 42.7017L3.08284 43.3053ZM67.7091 40.7744C68.5867 40.7744 69.263 41.0556 69.7382 41.618C70.2618 42.2338 70.5236 43.2035 70.5236 44.5271V47.3635C70.5236 48.4641 70.2691 49.3077 69.76 49.8944C69.6 50.0786 69.4158 50.2386 69.2073 50.3744C69.0036 50.515 68.7758 50.6314 68.5236 50.7235C68.0048 50.9174 67.3745 51.0144 66.6327 51.0144H64.9236C64.2255 51.0144 63.5903 50.8592 63.0182 50.5489C62.4461 50.2435 61.9806 49.8071 61.6218 49.2398C61.3745 48.8471 61.1927 48.4059 61.0764 47.9162C60.9794 47.5089 60.9309 47.0798 60.9309 46.6289C60.9309 46.5368 60.9333 46.4423 60.9382 46.3453C60.9624 45.7441 61.0667 45.1332 61.2509 44.5126C61.44 43.892 61.7042 43.2277 62.0436 42.5198L62.8509 42.9053C62.56 43.5114 62.3297 44.0932 62.16 44.6508C61.9952 45.2035 61.8933 45.7271 61.8545 46.2217C61.8448 46.372 61.84 46.5198 61.84 46.6653C61.84 46.995 61.8739 47.3417 61.9418 47.7053C62.0145 48.0689 62.16 48.4229 62.3782 48.7671C62.6545 49.1986 63.0109 49.5308 63.4473 49.7635C63.8885 50.0011 64.3806 50.1198 64.9236 50.1198H66.6327C67.8012 50.1198 68.6182 49.8508 69.0836 49.3126C69.4473 48.8908 69.6291 48.2435 69.6291 47.3708V46.9998H67.7527C67.3891 46.9998 67.0327 46.9514 66.6836 46.8544C66.3394 46.7574 66.0315 46.5974 65.76 46.3744C65.4933 46.1514 65.2776 45.8605 65.1127 45.5017C64.9527 45.1429 64.8727 44.7041 64.8727 44.1853C64.8727 43.7586 64.9236 43.3417 65.0255 42.9344C65.1273 42.5271 65.2897 42.1635 65.5127 41.8435C65.7406 41.5235 66.0339 41.2665 66.3927 41.0726C66.7515 40.8738 67.1903 40.7744 67.7091 40.7744ZM69.6291 46.1053V44.5271C69.6291 43.9792 69.5806 43.5114 69.4836 43.1235C69.3915 42.7308 69.2485 42.4205 69.0545 42.1926C68.8994 42.0132 68.7127 41.8823 68.4945 41.7998C68.2812 41.7126 68.0194 41.6689 67.7091 41.6689C67.4036 41.6689 67.1297 41.7271 66.8873 41.8435C66.6497 41.955 66.4461 42.1198 66.2764 42.338C66.1115 42.5514 65.9855 42.8156 65.8982 43.1308C65.8109 43.4411 65.7673 43.7926 65.7673 44.1853C65.7673 44.5102 65.8133 44.7841 65.9055 45.0071C66.0024 45.2253 66.1212 45.4071 66.2618 45.5526C66.4073 45.6932 66.5624 45.8023 66.7273 45.8798C66.897 45.9526 67.0545 46.0059 67.2 46.0398C67.3503 46.0738 67.4764 46.0932 67.5782 46.098C67.68 46.1029 67.7382 46.1053 67.7527 46.1053H69.6291ZM69.3673 38.9562L68.4655 38.0471C68.6303 37.8774 68.7782 37.7271 68.9091 37.5962C69.0448 37.4605 69.1927 37.3102 69.3527 37.1453L70.2691 38.0544L69.3673 38.9562ZM66.4145 38.9417L65.5127 38.0326C65.6776 37.8629 65.8255 37.7126 65.9564 37.5817C66.0921 37.4459 66.24 37.2956 66.4 37.1308L67.3164 38.0398L66.4145 38.9417ZM79.9558 42.5198C79.9558 43.1114 79.9728 43.6302 80.0067 44.0762C80.0455 44.5223 80.1182 44.8956 80.2249 45.1962C80.3316 45.4968 80.4794 45.7247 80.6685 45.8798C80.8625 46.0302 81.1146 46.1053 81.4249 46.1053H81.6649V46.9998H81.4249C81.1534 46.9998 80.9134 46.9635 80.7049 46.8908C80.4964 46.818 80.3097 46.7186 80.1449 46.5926C79.9849 46.4665 79.8467 46.3162 79.7303 46.1417C79.614 45.9671 79.517 45.778 79.4394 45.5744C79.294 45.8556 79.1122 46.0883 78.894 46.2726C78.6758 46.4568 78.4213 46.6023 78.1303 46.7089C77.8394 46.8156 77.5073 46.8908 77.134 46.9344C76.7606 46.978 76.3461 46.9998 75.8903 46.9998H72.9594V46.1053H75.8903C76.3897 46.0859 76.814 46.0447 77.1631 45.9817C77.517 45.9186 77.8103 45.8289 78.0431 45.7126C78.2806 45.5914 78.4673 45.4411 78.6031 45.2617C78.7388 45.0774 78.8406 44.8568 78.9085 44.5998C78.9764 44.338 79.0176 44.035 79.0322 43.6908C79.0516 43.3465 79.0613 42.9538 79.0613 42.5126V36.6144H79.9558V42.5198ZM73.8394 44.5853V36.6217H74.7485V44.5853H73.8394ZM85.0076 40.7962C85.1579 40.7962 85.3494 40.8253 85.5822 40.8835C85.8197 40.9368 86.084 41.0095 86.3749 41.1017C86.6658 41.1938 86.9737 41.3005 87.2985 41.4217C87.6234 41.538 87.9482 41.6617 88.2731 41.7926C88.5979 41.9186 88.9131 42.0447 89.2185 42.1708C89.524 42.2968 89.8028 42.4132 90.0549 42.5198C90.3119 42.6265 90.53 42.7186 90.7094 42.7962C90.8937 42.8689 91.0246 42.9198 91.1022 42.9489L91.2258 43.7562C90.7458 44.1053 90.2997 44.4277 89.8876 44.7235C89.4755 45.0192 89.0634 45.2883 88.6512 45.5308C88.2391 45.7683 87.8125 45.9792 87.3713 46.1635C86.93 46.3477 86.4403 46.5029 85.9022 46.6289C85.364 46.7502 84.7628 46.8423 84.0985 46.9053C83.4343 46.9683 82.53 46.9998 81.3858 46.9998V46.1053H81.6549C82.547 46.1053 83.2646 46.0835 83.8076 46.0398C84.3555 45.9962 84.8646 45.9283 85.3349 45.8362C85.81 45.7392 86.2464 45.618 86.644 45.4726C87.0464 45.3271 87.4391 45.155 87.8222 44.9562C88.2052 44.7574 88.5906 44.5344 88.9785 44.2871C89.3712 44.035 89.7931 43.7562 90.244 43.4508C89.9094 43.3247 89.5628 43.1938 89.204 43.058C88.85 42.9223 88.4985 42.7889 88.1494 42.658C87.8003 42.5271 87.4609 42.4035 87.1312 42.2871C86.8016 42.1708 86.4985 42.0689 86.2222 41.9817C85.9458 41.8895 85.7009 41.8192 85.4876 41.7708C85.2791 41.7174 85.1167 41.6908 85.0003 41.6908C84.6949 41.6908 84.4185 41.812 84.1713 42.0544C83.9288 42.2968 83.7519 42.6338 83.6403 43.0653L82.7749 42.8398C82.8476 42.5586 82.9494 42.2944 83.0803 42.0471C83.2161 41.7998 83.3785 41.5841 83.5676 41.3998C83.7567 41.2156 83.97 41.0702 84.2076 40.9635C84.45 40.852 84.7167 40.7962 85.0076 40.7962ZM83.7713 37.8289L84.7022 36.8835L85.6622 37.8435L84.7167 38.7889L83.7713 37.8289ZM102.557 46.1053V44.2944C102.547 43.9114 102.511 43.5574 102.448 43.2326C102.39 42.9029 102.288 42.6192 102.143 42.3817C101.997 42.1392 101.803 41.9526 101.561 41.8217C101.318 41.6859 101.008 41.618 100.63 41.618C100.257 41.618 99.9463 41.6859 99.699 41.8217C99.4517 41.9574 99.2529 42.1465 99.1026 42.3889C98.9572 42.6265 98.8529 42.9102 98.7899 43.2398C98.7317 43.5647 98.7026 43.9162 98.7026 44.2944C98.7026 44.6289 98.7608 44.9126 98.8772 45.1453C98.9935 45.3732 99.1559 45.5598 99.3644 45.7053C99.5729 45.8459 99.8153 45.9477 100.092 46.0108C100.373 46.0738 100.678 46.1053 101.008 46.1053H102.557ZM100.63 40.7235C101.129 40.7429 101.558 40.8423 101.917 41.0217C102.276 41.2011 102.567 41.4483 102.79 41.7635C103.018 42.0738 103.185 42.4447 103.292 42.8762C103.398 43.3029 103.452 43.7756 103.452 44.2944V47.1235C103.452 47.7635 103.34 48.3283 103.117 48.818C102.899 49.3077 102.579 49.7174 102.157 50.0471C101.735 50.3768 101.231 50.6192 100.644 50.7744C100.063 50.9344 99.425 51.0144 98.7317 51.0144H98.3172V50.1198H98.7317C99.3184 50.1053 99.8444 50.0471 100.31 49.9453C100.78 49.8435 101.18 49.6738 101.51 49.4362C101.84 49.1986 102.094 48.8811 102.274 48.4835C102.453 48.0908 102.547 47.5962 102.557 46.9998H100.899C100.492 46.9998 100.101 46.9465 99.7281 46.8398C99.3547 46.7332 99.0226 46.5683 98.7317 46.3453C98.4456 46.1174 98.2202 45.8338 98.0553 45.4944C97.8905 45.1502 97.8081 44.7502 97.8081 44.2944C97.8081 43.7805 97.859 43.3102 97.9608 42.8835C98.0675 42.452 98.2323 42.0811 98.4553 41.7708C98.6832 41.4556 98.9741 41.2083 99.3281 41.0289C99.6869 40.8447 100.121 40.7429 100.63 40.7235ZM119.946 42.0835V47.3635C119.946 48.4641 119.691 49.3077 119.182 49.8944C119.022 50.0786 118.838 50.2386 118.629 50.3744C118.426 50.515 118.198 50.6314 117.946 50.7235C117.427 50.9174 116.796 51.0144 116.055 51.0144H114.346C113.647 51.0144 113.012 50.8592 112.44 50.5489C111.868 50.2435 111.402 49.8071 111.044 49.2398C110.796 48.8471 110.615 48.4059 110.498 47.9162C110.401 47.5089 110.353 47.0798 110.353 46.6289C110.353 46.5368 110.355 46.4423 110.36 46.3453C110.384 45.7441 110.489 45.1332 110.673 44.5126C110.862 43.892 111.126 43.2277 111.466 42.5198L112.273 42.9053C111.982 43.5114 111.752 44.0932 111.582 44.6508C111.417 45.2035 111.315 45.7271 111.276 46.2217C111.267 46.372 111.262 46.5198 111.262 46.6653C111.262 46.995 111.296 47.3417 111.364 47.7053C111.436 48.0689 111.582 48.4229 111.8 48.7671C112.076 49.1986 112.433 49.5308 112.869 49.7635C113.31 50.0011 113.802 50.1198 114.346 50.1198H116.055C117.223 50.1198 118.04 49.8508 118.506 49.3126C118.869 48.8908 119.051 48.2411 119.051 47.3635V42.0835H119.946ZM114.746 41.5089L115.676 40.5635L116.636 41.5235L115.691 42.4689L114.746 41.5089ZM123.426 46.9998H122.517V36.6217H123.426V46.9998ZM130.526 46.1053V44.2944C130.516 43.9114 130.48 43.5574 130.417 43.2326C130.359 42.9029 130.257 42.6192 130.111 42.3817C129.966 42.1392 129.772 41.9526 129.53 41.8217C129.287 41.6859 128.977 41.618 128.599 41.618C128.225 41.618 127.915 41.6859 127.668 41.8217C127.42 41.9574 127.222 42.1465 127.071 42.3889C126.926 42.6265 126.822 42.9102 126.759 43.2398C126.7 43.5647 126.671 43.9162 126.671 44.2944C126.671 44.6289 126.73 44.9126 126.846 45.1453C126.962 45.3732 127.125 45.5598 127.333 45.7053C127.542 45.8459 127.784 45.9477 128.06 46.0108C128.342 46.0738 128.647 46.1053 128.977 46.1053H130.526ZM128.599 40.7235C129.098 40.7429 129.527 40.8423 129.886 41.0217C130.245 41.2011 130.536 41.4483 130.759 41.7635C130.987 42.0738 131.154 42.4447 131.26 42.8762C131.367 43.3029 131.42 43.7756 131.42 44.2944V46.1053H132.657V46.9998H131.42V47.1235C131.42 47.7635 131.309 48.3283 131.086 48.818C130.868 49.3077 130.548 49.7174 130.126 50.0471C129.704 50.3768 129.2 50.6192 128.613 50.7744C128.031 50.9344 127.394 51.0144 126.7 51.0144H126.286V50.1198H126.7C127.287 50.1053 127.813 50.0471 128.279 49.9453C128.749 49.8435 129.149 49.6738 129.479 49.4362C129.808 49.1986 130.063 48.8811 130.242 48.4835C130.422 48.0908 130.516 47.5962 130.526 46.9998H128.868C128.46 46.9998 128.07 46.9465 127.697 46.8398C127.323 46.7332 126.991 46.5683 126.7 46.3453C126.414 46.1174 126.189 45.8338 126.024 45.4944C125.859 45.1502 125.777 44.7502 125.777 44.2944C125.777 43.7805 125.828 43.3102 125.93 42.8835C126.036 42.452 126.201 42.0811 126.424 41.7708C126.652 41.4556 126.943 41.2083 127.297 41.0289C127.656 40.8447 128.09 40.7429 128.599 40.7235ZM135.976 40.7962C136.127 40.7962 136.318 40.8253 136.551 40.8835C136.788 40.9368 137.053 41.0095 137.344 41.1017C137.635 41.1938 137.942 41.3005 138.267 41.4217C138.592 41.538 138.917 41.6617 139.242 41.7926C139.567 41.9186 139.882 42.0447 140.187 42.1708C140.493 42.2968 140.772 42.4132 141.024 42.5198C141.281 42.6265 141.499 42.7186 141.678 42.7962C141.862 42.8689 141.993 42.9198 142.071 42.9489L142.195 43.7562C141.715 44.1053 141.268 44.4277 140.856 44.7235C140.444 45.0192 140.032 45.2883 139.62 45.5308C139.208 45.7683 138.781 45.9792 138.34 46.1635C137.899 46.3477 137.409 46.5029 136.871 46.6289C136.333 46.7502 135.732 46.8423 135.067 46.9053C134.403 46.9683 133.499 46.9998 132.355 46.9998V46.1053H132.624C133.516 46.1053 134.233 46.0835 134.776 46.0398C135.324 45.9962 135.833 45.9283 136.304 45.8362C136.779 45.7392 137.215 45.618 137.613 45.4726C138.015 45.3271 138.408 45.155 138.791 44.9562C139.174 44.7574 139.559 44.5344 139.947 44.2871C140.34 44.035 140.762 43.7562 141.213 43.4508C140.878 43.3247 140.532 43.1938 140.173 43.058C139.819 42.9223 139.467 42.7889 139.118 42.658C138.769 42.5271 138.43 42.4035 138.1 42.2871C137.77 42.1708 137.467 42.0689 137.191 41.9817C136.915 41.8895 136.67 41.8192 136.456 41.7708C136.248 41.7174 136.085 41.6908 135.969 41.6908C135.664 41.6908 135.387 41.812 135.14 42.0544C134.898 42.2968 134.721 42.6338 134.609 43.0653L133.744 42.8398C133.816 42.5586 133.918 42.2944 134.049 42.0471C134.185 41.7998 134.347 41.5841 134.536 41.3998C134.725 41.2156 134.939 41.0702 135.176 40.9635C135.419 40.852 135.685 40.7962 135.976 40.7962ZM136.565 49.6035L137.395 48.7671L138.253 49.618L137.409 50.4617L136.565 49.6035ZM159.031 46.1053V46.9998H158.82C158.544 46.9902 158.287 46.9489 158.05 46.8762C157.948 46.8471 157.843 46.8083 157.737 46.7598C157.635 46.7114 157.538 46.6532 157.446 46.5853C157.359 46.5174 157.279 46.4374 157.206 46.3453C157.133 46.2532 157.077 46.1441 157.039 46.018C156.927 46.2023 156.801 46.3598 156.66 46.4908C156.52 46.6217 156.37 46.7283 156.21 46.8108C156.054 46.8932 155.892 46.9538 155.722 46.9926C155.553 47.0314 155.383 47.0508 155.213 47.0508C155.17 47.0508 155.114 47.0459 155.046 47.0362C154.978 47.0314 154.891 47.0144 154.784 46.9853C154.682 46.9562 154.556 46.9174 154.406 46.8689C154.256 46.8156 154.076 46.7453 153.868 46.658C153.722 46.5998 153.545 46.5247 153.337 46.4326C153.133 46.3356 152.915 46.2314 152.682 46.1198C152.45 46.0083 152.21 45.892 151.962 45.7708C151.715 45.6495 151.477 45.5308 151.25 45.4144C151.027 45.298 150.82 45.1914 150.631 45.0944C150.442 44.9926 150.287 44.9077 150.166 44.8398V52.5198H149.271V44.2871L150.093 43.778C150.21 43.8459 150.416 43.9598 150.711 44.1198C151.012 44.2798 151.368 44.4665 151.78 44.6798C151.902 44.0495 152.025 43.5211 152.151 43.0944C152.282 42.6629 152.433 42.2968 152.602 41.9962C152.83 41.5889 153.126 41.2641 153.49 41.0217C153.858 40.7744 154.287 40.6508 154.777 40.6508C155.208 40.6508 155.591 40.7574 155.926 40.9708C156.26 41.1792 156.542 41.4508 156.77 41.7853C157.002 42.115 157.177 42.4859 157.293 42.898C157.414 43.3053 157.475 43.7077 157.475 44.1053C157.475 44.9005 157.65 45.4653 157.999 45.7998C158.071 45.8677 158.147 45.9211 158.224 45.9598C158.302 45.9986 158.377 46.0302 158.45 46.0544C158.522 46.0738 158.59 46.0883 158.653 46.098C158.721 46.1029 158.777 46.1053 158.82 46.1053H159.031ZM156.108 45.778C156.263 45.6083 156.379 45.3829 156.457 45.1017C156.539 44.8156 156.58 44.4835 156.58 44.1053C156.58 43.7998 156.539 43.4944 156.457 43.1889C156.374 42.8786 156.256 42.6023 156.1 42.3598C155.945 42.1174 155.756 41.9211 155.533 41.7708C155.31 41.6156 155.058 41.538 154.777 41.538C154.491 41.538 154.239 41.5986 154.02 41.7198C153.807 41.8411 153.616 42.0423 153.446 42.3235C153.276 42.6047 153.123 42.9732 152.988 43.4289C152.857 43.8798 152.733 44.435 152.617 45.0944C153.131 45.3465 153.55 45.5453 153.875 45.6908C154.205 45.8314 154.464 45.938 154.653 46.0108C154.847 46.0786 154.983 46.1223 155.06 46.1417C155.143 46.1562 155.194 46.1635 155.213 46.1635C155.339 46.1635 155.485 46.1392 155.65 46.0908C155.814 46.0374 155.967 45.9332 156.108 45.778ZM166.643 46.1053V46.9998H165.451C165.126 46.9998 164.818 46.9514 164.527 46.8544C164.236 46.7574 163.982 46.6192 163.763 46.4398C163.632 46.3332 163.523 46.2217 163.436 46.1053C163.189 46.4156 162.879 46.6411 162.505 46.7817C162.132 46.9223 161.679 46.995 161.145 46.9998H158.745V46.1053H161.145C161.431 46.0956 161.686 46.0689 161.909 46.0253C162.132 45.9817 162.321 45.9065 162.476 45.7998C162.631 45.6932 162.75 45.5526 162.832 45.378C162.92 45.1986 162.968 44.9708 162.978 44.6944V42.0835H163.872V44.6944C163.872 44.9562 163.921 45.1768 164.018 45.3562C164.115 45.5356 164.239 45.6811 164.389 45.7926C164.539 45.9041 164.706 45.9841 164.891 46.0326C165.08 46.0811 165.266 46.1053 165.451 46.1053H166.643ZM163.603 50.738L162.702 49.8289L163.589 48.9271L164.505 49.8362L163.603 50.738ZM160.636 50.7235L159.734 49.8144L160.622 48.9126L161.538 49.8217L160.636 50.7235ZM171.213 41.1526C171.261 41.3611 171.315 41.5914 171.373 41.8435C171.431 42.0956 171.482 42.3574 171.525 42.6289C171.574 42.8956 171.615 43.1671 171.649 43.4435C171.683 43.7198 171.705 43.9841 171.715 44.2362V44.2798C171.715 44.6095 171.664 44.9368 171.562 45.2617C171.46 45.5865 171.31 45.8798 171.111 46.1417C170.912 46.3986 170.667 46.6071 170.376 46.7671C170.09 46.9223 169.768 46.9998 169.409 46.9998H166.391V46.1053H169.409C169.642 46.0908 169.845 46.0302 170.02 45.9235C170.199 45.8168 170.347 45.6786 170.464 45.5089C170.585 45.3344 170.677 45.138 170.74 44.9198C170.793 44.7211 170.82 44.5174 170.82 44.3089V44.258C170.815 44.0253 170.796 43.7829 170.762 43.5308C170.733 43.2786 170.694 43.0289 170.645 42.7817C170.602 42.5344 170.553 42.2944 170.5 42.0617C170.447 41.8289 170.396 41.6132 170.347 41.4144L171.213 41.1526ZM171.351 39.2762L170.449 38.3671C170.614 38.1974 170.762 38.0471 170.893 37.9162C171.028 37.7805 171.176 37.6302 171.336 37.4653L172.253 38.3744L171.351 39.2762ZM168.398 39.2617L167.496 38.3526C167.661 38.1829 167.809 38.0326 167.94 37.9017C168.076 37.7659 168.224 37.6156 168.384 37.4508L169.3 38.3598L168.398 39.2617ZM177.938 51.0217V50.1344H178.948C180.088 50.1344 180.922 49.8362 181.45 49.2398C181.935 48.6871 182.178 47.8605 182.178 46.7598V42.0908H183.072V46.7598C183.072 48.1659 182.723 49.2277 182.025 49.9453C181.331 50.6629 180.306 51.0217 178.948 51.0217H177.938ZM188.025 46.9998C187.448 46.9998 186.985 46.932 186.636 46.7962C186.291 46.6605 186.027 46.4592 185.843 46.1926C185.659 45.9259 185.537 45.5986 185.479 45.2108C185.421 44.818 185.392 44.3671 185.392 43.858V36.6217H186.301V43.858C186.301 44.3089 186.316 44.6798 186.345 44.9708C186.374 45.2617 186.447 45.492 186.563 45.6617C186.679 45.8265 186.851 45.9429 187.079 46.0108C187.312 46.0738 187.627 46.1053 188.025 46.1053H188.127V46.9998H188.025ZM194.088 46.1053V46.9998H193.579C193.254 46.9998 192.947 46.9514 192.656 46.8544C192.365 46.7574 192.11 46.6192 191.892 46.4398C191.761 46.3332 191.652 46.2217 191.565 46.1053C191.317 46.4156 191.007 46.6411 190.634 46.7817C190.26 46.9223 189.807 46.995 189.274 46.9998H187.907V46.1053H189.274C189.56 46.0956 189.814 46.0689 190.037 46.0253C190.26 45.9817 190.45 45.9065 190.605 45.7998C190.76 45.6932 190.879 45.5526 190.961 45.378C191.048 45.1986 191.097 44.9708 191.107 44.6944V42.0835H192.001V44.6944C192.001 44.9562 192.05 45.1768 192.147 45.3562C192.244 45.5356 192.367 45.6811 192.517 45.7926C192.668 45.9041 192.835 45.9841 193.019 46.0326C193.208 46.0811 193.395 46.1053 193.579 46.1053H194.088ZM190.03 38.7308L190.961 37.7853L191.921 38.7453L190.976 39.6908L190.03 38.7308ZM202.355 36.3817L196.253 39.0653C196.573 39.3368 197.003 39.7223 197.541 40.2217C198.079 40.7162 198.695 41.332 199.388 42.0689C199.999 42.7138 200.416 43.3417 200.639 43.9526C200.755 44.2726 200.816 44.578 200.821 44.8689V44.9053C200.821 45.1865 200.77 45.4459 200.668 45.6835C200.615 45.8047 200.53 45.9429 200.413 46.098C200.302 46.2483 200.14 46.3914 199.926 46.5271C199.718 46.658 199.453 46.7695 199.133 46.8617C198.813 46.9538 198.421 46.9998 197.955 46.9998H193.817V46.1053H197.955C198.503 46.1053 198.944 46.0253 199.279 45.8653C199.565 45.7295 199.754 45.5502 199.846 45.3271C199.904 45.1962 199.933 45.0532 199.933 44.898C199.933 44.675 199.853 44.3792 199.693 44.0108C199.538 43.6423 199.218 43.1986 198.733 42.6798C198.215 42.1271 197.735 41.6423 197.293 41.2253C196.857 40.8035 196.479 40.452 196.159 40.1708C195.839 39.8847 195.589 39.6689 195.41 39.5235C195.23 39.378 195.138 39.3053 195.133 39.3053L195.228 38.5417L201.992 35.5598L202.355 36.3817ZM207.422 51.0217V50.1344H208.433C209.572 50.1344 210.406 49.8362 210.935 49.2398C211.419 48.6871 211.662 47.8605 211.662 46.7598V42.0908H212.556V46.7598C212.556 48.1659 212.207 49.2277 211.509 49.9453C210.816 50.6629 209.79 51.0217 208.433 51.0217H207.422ZM217.596 47.058C217.228 47.058 216.855 47.0289 216.476 46.9708C216.098 46.9126 215.744 46.8302 215.415 46.7235C215.085 46.612 214.796 46.4835 214.549 46.338L214.164 46.1126L214.622 45.3417L215.007 45.5744C215.211 45.6956 215.453 45.7998 215.735 45.8871C216.016 45.9744 216.312 46.0423 216.622 46.0908C216.932 46.1344 217.247 46.1562 217.567 46.1562H217.655C217.936 46.1562 218.2 46.1344 218.447 46.0908C218.767 46.0374 219.036 45.9429 219.255 45.8071C219.473 45.6714 219.623 45.5041 219.706 45.3053C219.754 45.1841 219.778 45.0556 219.778 44.9198C219.778 44.8568 219.766 44.7574 219.742 44.6217C219.718 44.4811 219.633 44.3017 219.487 44.0835C219.114 43.5259 218.794 43.0459 218.527 42.6435C218.261 42.2411 218.035 41.9017 217.851 41.6253C217.667 41.3441 217.519 41.1186 217.407 40.9489C217.296 40.7792 217.209 40.6483 217.146 40.5562C217.087 40.4641 217.046 40.4035 217.022 40.3744C217.002 40.3405 216.993 40.3211 216.993 40.3162L216.753 39.938L217.509 39.458C217.548 39.5259 217.592 39.5986 217.64 39.6762C217.693 39.7489 217.759 39.8459 217.836 39.9671C217.914 40.0883 218.013 40.2435 218.135 40.4326C218.261 40.6168 218.416 40.852 218.6 41.138C218.789 41.4192 219.017 41.7611 219.284 42.1635C219.55 42.5611 219.866 43.0362 220.229 43.5889C220.462 43.938 220.605 44.2895 220.658 44.6435C220.673 44.7356 220.68 44.8277 220.68 44.9198C220.68 45.172 220.629 45.4168 220.527 45.6544C220.382 45.9986 220.144 46.2847 219.815 46.5126C219.485 46.7356 219.08 46.8883 218.6 46.9708C218.295 47.0289 217.96 47.058 217.596 47.058ZM226.219 51.0217V50.1344H227.23C228.369 50.1344 229.203 49.8362 229.731 49.2398C230.216 48.6871 230.459 47.8605 230.459 46.7598V42.0908H231.353V46.7598C231.353 48.1659 231.004 49.2277 230.306 49.9453C229.613 50.6629 228.587 51.0217 227.23 51.0217H226.219ZM238.229 46.1053V44.2944C238.219 43.9114 238.183 43.5574 238.12 43.2326C238.062 42.9029 237.96 42.6192 237.814 42.3817C237.669 42.1392 237.475 41.9526 237.233 41.8217C236.99 41.6859 236.68 41.618 236.302 41.618C235.928 41.618 235.618 41.6859 235.371 41.8217C235.124 41.9574 234.925 42.1465 234.774 42.3889C234.629 42.6265 234.525 42.9102 234.462 43.2398C234.404 43.5647 234.374 43.9162 234.374 44.2944C234.374 44.6289 234.433 44.9126 234.549 45.1453C234.665 45.3732 234.828 45.5598 235.036 45.7053C235.245 45.8459 235.487 45.9477 235.764 46.0108C236.045 46.0738 236.35 46.1053 236.68 46.1053H238.229ZM236.302 40.7235C236.801 40.7429 237.23 40.8423 237.589 41.0217C237.948 41.2011 238.239 41.4483 238.462 41.7635C238.69 42.0738 238.857 42.4447 238.964 42.8762C239.07 43.3029 239.124 43.7756 239.124 44.2944V46.1053H240.36V46.9998H239.124V47.1235C239.124 47.7635 239.012 48.3283 238.789 48.818C238.571 49.3077 238.251 49.7174 237.829 50.0471C237.407 50.3768 236.903 50.6192 236.316 50.7744C235.734 50.9344 235.097 51.0144 234.404 51.0144H233.989V50.1198H234.404C234.99 50.1053 235.516 50.0471 235.982 49.9453C236.452 49.8435 236.852 49.6738 237.182 49.4362C237.511 49.1986 237.766 48.8811 237.945 48.4835C238.125 48.0908 238.219 47.5962 238.229 46.9998H236.571C236.164 46.9998 235.773 46.9465 235.4 46.8398C235.027 46.7332 234.694 46.5683 234.404 46.3453C234.118 46.1174 233.892 45.8338 233.727 45.4944C233.562 45.1502 233.48 44.7502 233.48 44.2944C233.48 43.7805 233.531 43.3102 233.633 42.8835C233.739 42.452 233.904 42.0811 234.127 41.7708C234.355 41.4556 234.646 41.2083 235 41.0289C235.359 40.8447 235.793 40.7429 236.302 40.7235ZM245.527 46.9998C245.202 46.9998 244.894 46.9538 244.603 46.8617C244.312 46.7647 244.058 46.6241 243.839 46.4398C243.709 46.3332 243.599 46.2217 243.512 46.1053C243.493 46.1295 243.473 46.1538 243.454 46.178C243.435 46.1974 243.415 46.2192 243.396 46.2435C242.921 46.7477 242.196 46.9998 241.221 46.9998H240.094V46.1053H241.221C241.944 46.1053 242.45 45.9477 242.741 45.6326C242.95 45.4095 243.054 45.1089 243.054 44.7308V42.0908H243.949V44.6944C243.949 45.0192 244.019 45.2811 244.159 45.4798C244.305 45.6786 244.484 45.8289 244.698 45.9308L245.185 45.138C245.471 44.6677 245.774 44.1853 246.094 43.6908C246.414 43.1962 246.761 42.738 247.134 42.3162C247.595 41.7926 248.048 41.4047 248.494 41.1526C248.94 40.8956 249.396 40.7671 249.861 40.7671C250.176 40.7671 250.458 40.818 250.705 40.9198C250.957 41.0168 251.18 41.1502 251.374 41.3198C251.568 41.4895 251.733 41.6883 251.869 41.9162C252.009 42.1441 252.126 42.3889 252.218 42.6508C252.31 42.9077 252.375 43.1744 252.414 43.4508C252.458 43.7223 252.479 43.9914 252.479 44.258C252.479 44.6944 252.419 45.0629 252.298 45.3635C252.181 45.6641 252.041 45.9114 251.876 46.1053H253.781V46.9998H245.527ZM245.949 45.6035C245.895 45.6859 245.842 45.7708 245.789 45.858C245.74 45.9405 245.689 46.0229 245.636 46.1053H249.825C249.922 46.1005 250.033 46.0883 250.159 46.0689C250.286 46.0495 250.414 46.0156 250.545 45.9671C250.676 45.9186 250.802 45.8532 250.923 45.7708C251.049 45.6835 251.161 45.572 251.258 45.4362C251.355 45.3005 251.432 45.138 251.49 44.9489C251.553 44.755 251.585 44.5247 251.585 44.258C251.585 43.9768 251.556 43.6835 251.498 43.378C251.444 43.0677 251.352 42.7865 251.221 42.5344C251.09 42.2823 250.913 42.0738 250.69 41.9089C250.472 41.7441 250.196 41.6617 249.861 41.6617C249.216 41.6617 248.53 42.0762 247.803 42.9053C247.454 43.298 247.127 43.732 246.821 44.2071C246.516 44.6823 246.225 45.1477 245.949 45.6035ZM248.814 37.9598L249.745 37.0144L250.705 37.9744L249.759 38.9198L248.814 37.9598ZM257.117 40.7962C257.267 40.7962 257.459 40.8253 257.692 40.8835C257.929 40.9368 258.193 41.0095 258.484 41.1017C258.775 41.1938 259.083 41.3005 259.408 41.4217C259.733 41.538 260.058 41.6617 260.382 41.7926C260.707 41.9186 261.022 42.0447 261.328 42.1708C261.633 42.2968 261.912 42.4132 262.164 42.5198C262.421 42.6265 262.639 42.7186 262.819 42.7962C263.003 42.8689 263.134 42.9198 263.212 42.9489L263.335 43.7562C262.855 44.1053 262.409 44.4277 261.997 44.7235C261.585 45.0192 261.173 45.2883 260.761 45.5308C260.349 45.7683 259.922 45.9792 259.481 46.1635C259.039 46.3477 258.55 46.5029 258.012 46.6289C257.473 46.7502 256.872 46.8423 256.208 46.9053C255.544 46.9683 254.639 46.9998 253.495 46.9998V46.1053H253.764C254.656 46.1053 255.374 46.0835 255.917 46.0398C256.465 45.9962 256.974 45.9283 257.444 45.8362C257.919 45.7392 258.356 45.618 258.753 45.4726C259.156 45.3271 259.549 45.155 259.932 44.9562C260.315 44.7574 260.7 44.5344 261.088 44.2871C261.481 44.035 261.902 43.7562 262.353 43.4508C262.019 43.3247 261.672 43.1938 261.313 43.058C260.959 42.9223 260.608 42.7889 260.259 42.658C259.91 42.5271 259.57 42.4035 259.241 42.2871C258.911 42.1708 258.608 42.0689 258.332 41.9817C258.055 41.8895 257.81 41.8192 257.597 41.7708C257.389 41.7174 257.226 41.6908 257.11 41.6908C256.804 41.6908 256.528 41.812 256.281 42.0544C256.038 42.2968 255.861 42.6338 255.75 43.0653L254.884 42.8398C254.957 42.5586 255.059 42.2944 255.19 42.0471C255.325 41.7998 255.488 41.5841 255.677 41.3998C255.866 41.2156 256.079 41.0702 256.317 40.9635C256.559 40.852 256.826 40.7962 257.117 40.7962ZM278.877 40.6653C279.115 40.6653 279.353 40.6823 279.59 40.7162C279.833 40.7502 280.077 40.8035 280.325 40.8762L280.077 41.7344C279.67 41.618 279.273 41.5598 278.885 41.5598C278.414 41.5598 277.971 41.6398 277.554 41.7998C277.142 41.9598 276.776 42.1974 276.456 42.5126C276.077 42.8811 275.813 43.315 275.663 43.8144C275.566 44.1198 275.517 44.4326 275.517 44.7526C275.517 44.9514 275.537 45.1526 275.576 45.3562C275.653 45.3805 275.777 45.4168 275.947 45.4653C276.121 45.5089 276.32 45.5598 276.543 45.618C276.766 45.6762 277.001 45.7392 277.248 45.8071C277.5 45.875 277.743 45.9405 277.976 46.0035C278.213 46.0665 278.429 46.1247 278.623 46.178C278.817 46.2314 278.972 46.2726 279.088 46.3017C279.282 46.355 279.435 46.418 279.547 46.4908C279.663 46.5635 279.748 46.6435 279.801 46.7308C279.854 46.818 279.888 46.9126 279.903 47.0144C279.917 47.1162 279.925 47.2229 279.925 47.3344C279.925 47.4992 279.913 47.6883 279.888 47.9017C279.864 48.115 279.823 48.3332 279.765 48.5562C279.711 48.7841 279.636 49.0047 279.539 49.218C279.447 49.4362 279.331 49.6302 279.19 49.7998C278.996 50.0374 278.783 50.2338 278.55 50.3889C278.322 50.5441 278.075 50.6677 277.808 50.7598C277.547 50.852 277.268 50.915 276.972 50.9489C276.681 50.9877 276.373 51.0071 276.048 51.0071H274.194C273.869 51.0071 273.549 50.9683 273.234 50.8908C272.919 50.8132 272.616 50.6944 272.325 50.5344C272.034 50.3792 271.765 50.1877 271.517 49.9598C271.275 49.7368 271.062 49.4798 270.877 49.1889C270.611 48.7623 270.424 48.3065 270.317 47.8217C270.225 47.4241 270.179 47.0168 270.179 46.5998C270.179 46.5077 270.182 46.4156 270.187 46.3235C270.23 45.1259 270.589 43.8289 271.263 42.4326L272.07 42.818C271.779 43.4192 271.551 44.0011 271.387 44.5635C271.227 45.1211 271.13 45.6495 271.096 46.1489C271.086 46.2992 271.081 46.4447 271.081 46.5853C271.081 46.9198 271.117 47.2714 271.19 47.6398C271.268 48.0083 271.416 48.3671 271.634 48.7162C271.915 49.1623 272.281 49.5065 272.732 49.7489C273.188 49.9914 273.694 50.1126 274.252 50.1126H276.048C276.645 50.1126 277.134 50.0423 277.517 49.9017C277.9 49.7611 278.216 49.555 278.463 49.2835C278.584 49.1526 278.684 48.9998 278.761 48.8253C278.844 48.6556 278.907 48.4762 278.95 48.2871C278.999 48.1029 279.03 47.9162 279.045 47.7271C279.05 47.6544 279.052 47.5817 279.052 47.5089C279.052 47.4071 279.047 47.3077 279.037 47.2108L274.827 46.0762L274.761 45.8289C274.669 45.4847 274.623 45.138 274.623 44.7889C274.623 44.7744 274.623 44.6726 274.623 44.4835C274.623 44.2944 274.669 44.0302 274.761 43.6908C274.853 43.3514 274.989 43.0289 275.168 42.7235C275.348 42.4132 275.568 42.1295 275.83 41.8726C276.029 41.6786 276.245 41.5065 276.477 41.3562C276.715 41.2011 276.965 41.0726 277.227 40.9708C277.488 40.8689 277.76 40.7914 278.041 40.738C278.293 40.6895 278.548 40.6653 278.805 40.6653H278.877ZM283.536 46.9998H282.626V36.6217H283.536V46.9998ZM290.226 46.9998H289.892C289.591 46.9998 289.305 46.9586 289.034 46.8762C288.767 46.7938 288.525 46.675 288.306 46.5198V46.7598C288.306 48.1659 287.957 49.2277 287.259 49.9453C286.566 50.6629 285.54 51.0217 284.183 51.0217H283.172V50.1344H284.183C285.322 50.1344 286.156 49.8362 286.685 49.2398C287.169 48.6871 287.412 47.8605 287.412 46.7598V42.0908H288.306V44.6944C288.306 44.9562 288.355 45.1768 288.452 45.3562C288.549 45.5356 288.672 45.6811 288.823 45.7926C288.978 45.9041 289.148 45.9841 289.332 46.0326C289.521 46.0811 289.708 46.1053 289.892 46.1053H290.226V46.9998ZM293.71 41.1526C293.759 41.3611 293.812 41.5914 293.87 41.8435C293.929 42.0956 293.98 42.3574 294.023 42.6289C294.072 42.8956 294.113 43.1671 294.147 43.4435C294.181 43.7198 294.203 43.9841 294.212 44.2362V44.2798C294.212 44.6095 294.161 44.9368 294.06 45.2617C293.958 45.5865 293.807 45.8798 293.609 46.1417C293.41 46.3986 293.165 46.6071 292.874 46.7671C292.588 46.9223 292.266 46.9998 291.907 46.9998H290.016V46.1053H291.907C292.14 46.0908 292.343 46.0302 292.518 45.9235C292.697 45.8168 292.845 45.6786 292.961 45.5089C293.083 45.3344 293.175 45.138 293.238 44.9198C293.291 44.7211 293.318 44.5174 293.318 44.3089V44.258C293.313 44.0253 293.293 43.7829 293.26 43.5308C293.23 43.2786 293.192 43.0289 293.143 42.7817C293.1 42.5344 293.051 42.2944 292.998 42.0617C292.944 41.8289 292.893 41.6132 292.845 41.4144L293.71 41.1526ZM291.783 49.6398L292.612 48.8035L293.47 49.6544L292.627 50.498L291.783 49.6398ZM160.89 74.3671C160.89 74.1683 160.953 73.9986 161.079 73.858C161.21 73.7174 161.392 73.6471 161.624 73.6471C161.852 73.6471 162.032 73.7174 162.163 73.858C162.298 73.9986 162.366 74.1683 162.366 74.3671C162.366 74.5708 162.298 74.738 162.163 74.8689C162.032 74.9998 161.852 75.0653 161.624 75.0653C161.392 75.0653 161.21 74.9998 161.079 74.8689C160.953 74.738 160.89 74.5708 160.89 74.3671ZM172.884 74.1053V74.9998H172.768C172.589 74.9998 172.404 74.9659 172.215 74.898C172.026 74.8302 171.839 74.7356 171.655 74.6144C171.476 74.4932 171.304 74.3526 171.139 74.1926C170.979 74.0326 170.838 73.8605 170.717 73.6762C170.712 73.6859 170.71 73.6932 170.71 73.698C170.71 73.7029 170.707 73.7077 170.702 73.7126C170.596 73.9647 170.438 74.1805 170.23 74.3598C170.021 74.5344 169.784 74.6798 169.517 74.7962C169.255 74.9077 168.972 74.9877 168.666 75.0362C168.365 75.0895 168.067 75.1162 167.772 75.1162C167.452 75.1162 167.151 75.0992 166.87 75.0653C166.589 75.0362 166.312 74.9853 166.041 74.9126C165.774 74.8398 165.5 74.7429 165.219 74.6217C164.942 74.5005 164.649 74.3502 164.339 74.1708L164.797 73.3998L165.175 73.6326C165.379 73.7538 165.621 73.858 165.902 73.9453C166.184 74.0326 166.479 74.1005 166.79 74.1489C167.105 74.1926 167.422 74.2144 167.742 74.2144H167.83C168.111 74.2144 168.375 74.1926 168.622 74.1489C168.942 74.0956 169.216 74.0035 169.444 73.8726C169.677 73.7368 169.835 73.5695 169.917 73.3708C169.961 73.2641 169.982 73.1526 169.982 73.0362C169.982 72.9586 169.963 72.8447 169.924 72.6944C169.89 72.5441 169.803 72.3598 169.662 72.1417L166.928 67.9962L167.677 67.5162L170.622 71.9744C170.802 72.2508 170.979 72.5174 171.153 72.7744C171.333 73.0265 171.51 73.252 171.684 73.4508C171.864 73.6495 172.043 73.8095 172.222 73.9308C172.402 74.0471 172.584 74.1053 172.768 74.1053H172.884ZM180.518 74.1053V74.9998H179.326C179.001 74.9998 178.693 74.9514 178.402 74.8544C178.111 74.7574 177.857 74.6192 177.638 74.4398C177.507 74.3332 177.398 74.2217 177.311 74.1053C177.064 74.4156 176.754 74.6411 176.38 74.7817C176.007 74.9223 175.554 74.995 175.02 74.9998H172.62V74.1053H175.02C175.306 74.0956 175.561 74.0689 175.784 74.0253C176.007 73.9817 176.196 73.9065 176.351 73.7998C176.506 73.6932 176.625 73.5526 176.707 73.378C176.795 73.1986 176.843 72.9708 176.853 72.6944V70.0835H177.747V72.6944C177.747 72.9562 177.796 73.1768 177.893 73.3562C177.99 73.5356 178.114 73.6811 178.264 73.7926C178.414 73.9041 178.581 73.9841 178.766 74.0326C178.955 74.0811 179.141 74.1053 179.326 74.1053H180.518ZM177.478 78.738L176.577 77.8289L177.464 76.9271L178.38 77.8362L177.478 78.738ZM174.511 78.7235L173.609 77.8144L174.497 76.9126L175.413 77.8217L174.511 78.7235ZM180.222 74.1053H181.597C181.776 74.1053 181.956 74.0762 182.135 74.018C182.319 73.9598 182.487 73.8677 182.637 73.7417C182.787 73.6156 182.908 73.4508 183 73.2471C183.097 73.0386 183.146 72.7841 183.146 72.4835V70.0908H184.04V72.4835C184.04 73.5502 184.622 74.0908 185.786 74.1053C185.965 74.1053 186.145 74.0762 186.324 74.018C186.508 73.9598 186.676 73.8677 186.826 73.7417C186.976 73.6156 187.097 73.4508 187.19 73.2471C187.287 73.0386 187.335 72.7841 187.335 72.4835V70.0908H188.23V72.4835C188.23 73.5502 188.811 74.0908 189.975 74.1053V74.098C190.15 74.098 190.324 74.0714 190.499 74.018C190.678 73.9598 190.838 73.8677 190.979 73.7417C191.124 73.6108 191.243 73.4435 191.335 73.2398C191.427 73.0314 191.473 72.7768 191.473 72.4762C191.473 72.3017 191.459 72.1077 191.43 71.8944C191.4 71.6762 191.362 71.4556 191.313 71.2326C191.27 71.0047 191.221 70.7841 191.168 70.5708C191.119 70.3574 191.071 70.1683 191.022 70.0035C190.979 69.8338 190.942 69.698 190.913 69.5962C190.884 69.4895 190.87 69.4338 190.87 69.4289L191.72 69.1671C191.725 69.1817 191.745 69.2471 191.779 69.3635C191.813 69.4798 191.854 69.6277 191.902 69.8071C191.951 69.9865 192.002 70.1902 192.055 70.418C192.108 70.6459 192.157 70.8811 192.2 71.1235C192.249 71.3611 192.288 71.5986 192.317 71.8362C192.351 72.0689 192.368 72.2823 192.368 72.4762C192.368 72.7235 192.343 72.9489 192.295 73.1526C192.251 73.3514 192.191 73.5283 192.113 73.6835C192.04 73.8386 191.958 73.9744 191.866 74.0908C191.779 74.2071 191.691 74.3041 191.604 74.3817C191.391 74.5756 191.148 74.7259 190.877 74.8326C190.605 74.9344 190.317 74.9877 190.011 74.9926V74.9998C189.143 74.9998 188.47 74.7598 187.99 74.2798C187.951 74.2411 187.914 74.1998 187.88 74.1562C187.847 74.1126 187.813 74.0665 187.779 74.018C187.725 74.0956 187.67 74.1659 187.611 74.2289C187.553 74.2871 187.497 74.3405 187.444 74.3889C187.221 74.5877 186.962 74.7405 186.666 74.8471C186.37 74.9489 186.065 74.9998 185.75 74.9998C184.872 74.9998 184.193 74.7598 183.713 74.2798C183.674 74.2411 183.638 74.1998 183.604 74.1562C183.57 74.1126 183.536 74.0665 183.502 74.018C183.449 74.0956 183.393 74.1659 183.335 74.2289C183.277 74.2871 183.221 74.3405 183.168 74.3889C182.945 74.5877 182.69 74.7405 182.404 74.8471C182.123 74.9489 181.825 74.9998 181.51 74.9998H180.222V74.1053ZM187.284 66.8689L186.382 67.778L185.48 66.8835L186.39 65.9671L187.284 66.8689ZM190.215 66.8471L189.313 67.7489L188.397 66.8471L189.306 65.938L190.215 66.8471ZM188.775 64.8689L187.873 65.7708L186.957 64.8689L187.866 63.9598L188.775 64.8689ZM197.4 74.9998C196.823 74.9998 196.36 74.932 196.011 74.7962C195.666 74.6605 195.402 74.4592 195.218 74.1926C195.034 73.9259 194.912 73.5986 194.854 73.2108C194.796 72.818 194.767 72.3671 194.767 71.858V64.6217H195.676V71.858C195.676 72.3089 195.691 72.6798 195.72 72.9708C195.749 73.2617 195.822 73.492 195.938 73.6617C196.054 73.8265 196.226 73.9429 196.454 74.0108C196.687 74.0738 197.002 74.1053 197.4 74.1053H197.502V74.9998H197.4ZM200.976 69.1526C201.025 69.3611 201.078 69.5914 201.136 69.8435C201.194 70.0956 201.245 70.3574 201.289 70.6289C201.337 70.8956 201.379 71.1671 201.412 71.4435C201.446 71.7198 201.468 71.9841 201.478 72.2362V72.2798C201.478 72.6095 201.427 72.9368 201.325 73.2617C201.223 73.5865 201.073 73.8798 200.874 74.1417C200.675 74.3986 200.431 74.6071 200.14 74.7671C199.854 74.9223 199.531 74.9998 199.172 74.9998H197.282V74.1053H199.172C199.405 74.0908 199.609 74.0302 199.783 73.9235C199.963 73.8168 200.111 73.6786 200.227 73.5089C200.348 73.3344 200.44 73.138 200.503 72.9198C200.557 72.7211 200.583 72.5174 200.583 72.3089V72.258C200.579 72.0253 200.559 71.7829 200.525 71.5308C200.496 71.2786 200.457 71.0289 200.409 70.7817C200.365 70.5344 200.317 70.2944 200.263 70.0617C200.21 69.8289 200.159 69.6132 200.111 69.4144L200.976 69.1526ZM199.049 77.6398L199.878 76.8035L200.736 77.6544L199.892 78.498L199.049 77.6398ZM216.761 69.778C217.154 70.3598 217.35 71.1841 217.35 72.2508C217.35 72.5756 217.309 72.8641 217.226 73.1162C217.149 73.3635 217.047 73.5817 216.921 73.7708C216.8 73.955 216.661 74.1102 216.506 74.2362C216.356 74.3623 216.208 74.4665 216.063 74.5489C215.878 74.6508 215.692 74.7332 215.503 74.7962C215.318 74.8544 215.144 74.9005 214.979 74.9344C214.819 74.9635 214.676 74.9829 214.55 74.9926C214.429 74.9974 214.339 74.9998 214.281 74.9998H207.975V74.1053H209.692C209.798 73.9356 209.908 73.7586 210.019 73.5744C210.131 73.3853 210.244 73.1889 210.361 72.9853L210.535 72.6798V64.6289H211.43V71.2253C211.546 71.0508 211.665 70.8811 211.786 70.7162C211.912 70.5514 212.041 70.3914 212.172 70.2362C213.011 69.2471 213.874 68.7526 214.761 68.7526C215.197 68.7526 215.583 68.8398 215.917 69.0144C216.257 69.1889 216.538 69.4435 216.761 69.778ZM214.281 74.1053C214.339 74.1053 214.434 74.1005 214.564 74.0908C214.7 74.0811 214.848 74.0568 215.008 74.018C215.168 73.9744 215.333 73.9138 215.503 73.8362C215.677 73.7586 215.835 73.652 215.975 73.5162C216.116 73.3756 216.23 73.2035 216.317 72.9998C216.409 72.7962 216.455 72.5465 216.455 72.2508C216.455 71.3732 216.31 70.7114 216.019 70.2653C215.743 69.8532 215.323 69.6471 214.761 69.6471C214.523 69.6471 214.291 69.7029 214.063 69.8144C213.835 69.9211 213.612 70.0689 213.394 70.258C213.18 70.4423 212.972 70.658 212.768 70.9053C212.569 71.1526 212.375 71.4168 212.186 71.698C211.997 71.9792 211.813 72.2677 211.634 72.5635C211.459 72.8592 211.292 73.1477 211.132 73.4289C211.001 73.6617 210.87 73.8871 210.739 74.1053H214.281ZM222.509 74.9998C221.932 74.9998 221.469 74.932 221.12 74.7962C220.776 74.6605 220.512 74.4592 220.327 74.1926C220.143 73.9259 220.022 73.5986 219.964 73.2108C219.906 72.818 219.876 72.3671 219.876 71.858V64.6217H220.786V71.858C220.786 72.3089 220.8 72.6798 220.829 72.9708C220.858 73.2617 220.931 73.492 221.047 73.6617C221.164 73.8265 221.336 73.9429 221.564 74.0108C221.796 74.0738 222.112 74.1053 222.509 74.1053H222.611V74.9998H222.509ZM228.573 74.1053V74.9998H228.064C227.739 74.9998 227.431 74.9514 227.14 74.8544C226.849 74.7574 226.595 74.6192 226.376 74.4398C226.245 74.3332 226.136 74.2217 226.049 74.1053C225.802 74.4156 225.492 74.6411 225.118 74.7817C224.745 74.9223 224.292 74.995 223.758 74.9998H222.391V74.1053H223.758C224.044 74.0956 224.299 74.0689 224.522 74.0253C224.745 73.9817 224.934 73.9065 225.089 73.7998C225.244 73.6932 225.363 73.5526 225.445 73.378C225.533 73.1986 225.581 72.9708 225.591 72.6944V70.0835H226.485V72.6944C226.485 72.9562 226.534 73.1768 226.631 73.3562C226.728 73.5356 226.852 73.6811 227.002 73.7926C227.152 73.9041 227.319 73.9841 227.504 74.0326C227.693 74.0811 227.879 74.1053 228.064 74.1053H228.573ZM224.398 77.7198L225.227 76.8835L226.085 77.7344L225.242 78.578L224.398 77.7198ZM233.181 69.1526C233.23 69.3611 233.283 69.5914 233.341 69.8435C233.4 70.0956 233.451 70.3574 233.494 70.6289C233.543 70.8956 233.584 71.1671 233.618 71.4435C233.652 71.7198 233.674 71.9841 233.683 72.2362V72.2798C233.683 72.6095 233.632 72.9368 233.531 73.2617C233.429 73.5865 233.278 73.8798 233.08 74.1417C232.881 74.3986 232.636 74.6071 232.345 74.7671C232.059 74.9223 231.737 74.9998 231.378 74.9998H228.36V74.1053H231.378C231.611 74.0908 231.814 74.0302 231.989 73.9235C232.168 73.8168 232.316 73.6786 232.432 73.5089C232.554 73.3344 232.646 73.138 232.709 72.9198C232.762 72.7211 232.789 72.5174 232.789 72.3089V72.258C232.784 72.0253 232.765 71.7829 232.731 71.5308C232.701 71.2786 232.663 71.0289 232.614 70.7817C232.571 70.5344 232.522 70.2944 232.469 70.0617C232.415 69.8289 232.365 69.6132 232.316 69.4144L233.181 69.1526ZM233.32 67.2762L232.418 66.3671C232.583 66.1974 232.731 66.0471 232.861 65.9162C232.997 65.7805 233.145 65.6302 233.305 65.4653L234.221 66.3744L233.32 67.2762ZM230.367 67.2617L229.465 66.3526C229.63 66.1829 229.778 66.0326 229.909 65.9017C230.045 65.7659 230.192 65.6156 230.352 65.4508L231.269 66.3598L230.367 67.2617ZM234.844 79.0217V78.1344H235.855C236.994 78.1344 237.828 77.8362 238.356 77.2398C238.841 76.6871 239.084 75.8605 239.084 74.7598V70.0908H239.978V74.7598C239.978 76.1659 239.629 77.2277 238.931 77.9453C238.238 78.6629 237.212 79.0217 235.855 79.0217H234.844ZM243.207 74.9998H242.298V64.6217H243.207V74.9998ZM249.719 79.0217V78.1344H250.73C251.869 78.1344 252.703 77.8362 253.231 77.2398C253.716 76.6871 253.959 75.8605 253.959 74.7598V70.0908H254.853V74.7598C254.853 76.1659 254.504 77.2277 253.806 77.9453C253.113 78.6629 252.087 79.0217 250.73 79.0217H249.719ZM259.893 75.058C259.525 75.058 259.151 75.0289 258.773 74.9708C258.395 74.9126 258.041 74.8302 257.711 74.7235C257.382 74.612 257.093 74.4835 256.846 74.338L256.461 74.1126L256.919 73.3417L257.304 73.5744C257.508 73.6956 257.75 73.7998 258.031 73.8871C258.313 73.9744 258.608 74.0423 258.919 74.0908C259.229 74.1344 259.544 74.1562 259.864 74.1562H259.951C260.233 74.1562 260.497 74.1344 260.744 74.0908C261.064 74.0374 261.333 73.9429 261.551 73.8071C261.77 73.6714 261.92 73.5041 262.002 73.3053C262.051 73.1841 262.075 73.0556 262.075 72.9198C262.075 72.8568 262.063 72.7574 262.039 72.6217C262.015 72.4811 261.93 72.3017 261.784 72.0835C261.411 71.5259 261.091 71.0459 260.824 70.6435C260.558 70.2411 260.332 69.9017 260.148 69.6253C259.964 69.3441 259.816 69.1186 259.704 68.9489C259.593 68.7792 259.505 68.6483 259.442 68.5562C259.384 68.4641 259.343 68.4035 259.319 68.3744C259.299 68.3405 259.29 68.3211 259.29 68.3162L259.05 67.938L259.806 67.458C259.845 67.5259 259.888 67.5986 259.937 67.6762C259.99 67.7489 260.056 67.8459 260.133 67.9671C260.211 68.0883 260.31 68.2435 260.431 68.4326C260.558 68.6168 260.713 68.852 260.897 69.138C261.086 69.4192 261.314 69.7611 261.581 70.1635C261.847 70.5611 262.162 71.0362 262.526 71.5889C262.759 71.938 262.902 72.2895 262.955 72.6435C262.97 72.7356 262.977 72.8277 262.977 72.9198C262.977 73.172 262.926 73.4168 262.824 73.6544C262.679 73.9986 262.441 74.2847 262.111 74.5126C261.782 74.7356 261.377 74.8883 260.897 74.9708C260.591 75.0289 260.257 75.058 259.893 75.058ZM272.603 74.9998C272.026 74.9998 271.563 74.932 271.214 74.7962C270.87 74.6605 270.605 74.4592 270.421 74.1926C270.237 73.9259 270.116 73.5986 270.057 73.2108C269.999 72.818 269.97 72.3671 269.97 71.858V64.6217H270.879V71.858C270.879 72.3089 270.894 72.6798 270.923 72.9708C270.952 73.2617 271.025 73.492 271.141 73.6617C271.257 73.8265 271.43 73.9429 271.657 74.0108C271.89 74.0738 272.205 74.1053 272.603 74.1053H272.705V74.9998H272.603ZM277.852 74.4471C278.002 74.4471 278.153 74.4083 278.303 74.3308C278.458 74.2532 278.594 74.1271 278.71 73.9526C278.831 73.778 278.928 73.5502 279.001 73.2689C279.079 72.9829 279.117 72.6362 279.117 72.2289C279.117 71.938 279.069 71.6447 278.972 71.3489C278.88 71.0483 278.749 70.7817 278.579 70.5489C278.531 70.4811 278.468 70.4059 278.39 70.3235C278.317 70.2411 278.23 70.1635 278.128 70.0908C278.026 70.018 277.913 69.9574 277.786 69.9089C277.66 69.8556 277.525 69.8289 277.379 69.8289C277.064 69.8289 276.8 69.8871 276.586 70.0035C276.373 70.115 276.191 70.2774 276.041 70.4908C275.896 70.7041 275.77 70.9659 275.663 71.2762C275.556 71.5817 275.45 71.9283 275.343 72.3162C275.294 72.4956 275.246 72.6702 275.197 72.8398C275.149 73.0095 275.096 73.1744 275.037 73.3344C275.348 73.4895 275.636 73.6374 275.903 73.778C276.17 73.9186 276.417 74.0398 276.645 74.1417C276.873 74.2435 277.086 74.3211 277.285 74.3744C277.454 74.4229 277.617 74.4471 277.772 74.4471H277.852ZM277.379 68.9344C277.748 68.9344 278.094 69.0289 278.419 69.218C278.749 69.4023 279.042 69.6714 279.299 70.0253C279.527 70.3356 279.702 70.6823 279.823 71.0653C279.949 71.4483 280.012 71.8362 280.012 72.2289C280.012 72.4811 279.995 72.7332 279.961 72.9853C279.927 73.2326 279.874 73.4726 279.801 73.7053C279.733 73.938 279.641 74.1538 279.525 74.3526C279.413 74.5514 279.277 74.7235 279.117 74.8689C278.957 75.0144 278.773 75.1283 278.565 75.2108C278.356 75.298 278.119 75.3417 277.852 75.3417C277.61 75.3417 277.372 75.3102 277.139 75.2471C276.906 75.1889 276.662 75.1065 276.405 74.9998C276.153 74.8932 275.883 74.7671 275.597 74.6217C275.311 74.4762 274.996 74.3162 274.652 74.1417C274.279 74.7138 273.76 74.9998 273.096 74.9998H272.448V74.1053H273.096C273.285 74.1053 273.445 74.0665 273.576 73.9889C273.711 73.9065 273.833 73.7756 273.939 73.5962C274.056 73.4071 274.155 73.1817 274.237 72.9198C274.32 72.6532 274.402 72.3744 274.485 72.0835C274.582 71.7247 274.686 71.3683 274.797 71.0144C274.914 70.6605 275.074 70.3332 275.277 70.0326C275.777 69.3005 276.477 68.9344 277.379 68.9344ZM290.134 74.9998C289.557 74.9998 289.094 74.932 288.745 74.7962C288.401 74.6605 288.137 74.4592 287.952 74.1926C287.768 73.9259 287.647 73.5986 287.589 73.2108C287.531 72.818 287.501 72.3671 287.501 71.858V64.6217H288.411V71.858C288.411 72.3089 288.425 72.6798 288.454 72.9708C288.483 73.2617 288.556 73.492 288.672 73.6617C288.789 73.8265 288.961 73.9429 289.189 74.0108C289.421 74.0738 289.737 74.1053 290.134 74.1053H290.236V74.9998H290.134ZM293.71 69.1526C293.759 69.3611 293.812 69.5914 293.87 69.8435C293.929 70.0956 293.98 70.3574 294.023 70.6289C294.072 70.8956 294.113 71.1671 294.147 71.4435C294.181 71.7198 294.203 71.9841 294.212 72.2362V72.2798C294.212 72.6095 294.161 72.9368 294.06 73.2617C293.958 73.5865 293.807 73.8798 293.609 74.1417C293.41 74.3986 293.165 74.6071 292.874 74.7671C292.588 74.9223 292.266 74.9998 291.907 74.9998H290.016V74.1053H291.907C292.14 74.0908 292.343 74.0302 292.518 73.9235C292.697 73.8168 292.845 73.6786 292.961 73.5089C293.083 73.3344 293.175 73.138 293.238 72.9198C293.291 72.7211 293.318 72.5174 293.318 72.3089V72.258C293.313 72.0253 293.293 71.7829 293.26 71.5308C293.23 71.2786 293.192 71.0289 293.143 70.7817C293.1 70.5344 293.051 70.2944 292.998 70.0617C292.944 69.8289 292.893 69.6132 292.845 69.4144L293.71 69.1526ZM291.783 77.6398L292.612 76.8035L293.47 77.6544L292.627 78.498L291.783 77.6398Z" fill="white"/>
<path d="M42.3346 50.7804C41.6769 50.7762 41.0216 50.6999 40.3802 50.5529L39.5769 50.3689L39.9385 48.7426L40.7417 48.9266C41.8929 49.1897 43.429 49.2431 44.2909 48.6021C44.7307 48.2757 44.9711 47.7811 45.0277 47.0866C44.1719 47.3703 43.2737 47.5002 42.3737 47.4704C41.1854 47.415 40.517 46.9837 40.2238 46.7305C39.5593 46.1548 39.1919 45.1477 39.2173 43.9389C39.3052 39.8297 41.9535 39.8297 42.8095 39.8297C45.1098 39.8297 46.3782 41.0167 46.5815 43.3355C46.7202 44.9538 46.7496 46.3744 46.6597 47.231C46.5326 48.4518 46.0733 49.3401 45.2564 49.9455C44.5235 50.4995 43.5346 50.7804 42.3346 50.7804ZM42.8173 41.4955C41.2303 41.4955 40.9372 42.2869 40.8512 44.1506C40.8258 44.6848 40.9411 45.0904 41.1932 45.3594C41.5704 45.7551 42.1997 45.8145 42.7039 45.8165C43.5159 45.8115 44.3167 45.625 45.0492 45.2704C45.0492 44.8114 45.0121 43.9013 44.9496 43.472C44.7561 42.1622 44.373 41.4955 42.8173 41.4955Z" fill="white"/>
<path d="M12.5164 50.6894C10.6969 50.6894 9.22326 50.1077 8.25778 49.0077C7.26104 47.8681 6.83498 46.2023 7.05778 44.3168C7.177 43.3078 7.30794 42.3285 7.39003 41.6855L7.43107 41.4441L9.05713 41.6914L9.02391 41.9348C8.93596 42.5698 8.80697 43.5333 8.69166 44.5206C8.52554 45.9273 8.80892 47.1302 9.48905 47.9057C10.1692 48.6813 11.1601 49.0295 12.5164 49.0295C15.2819 49.0295 16.8689 47.6228 16.8689 45.1695C16.8689 44.299 16.8689 43.4008 16.6363 40.3045L16.6187 40.0592L18.2643 39.9088L18.278 40.166C18.3171 40.9238 18.4637 42.8528 18.5282 43.4008C18.6982 44.8273 18.9699 45.215 20.6995 45.4208C22.7477 45.6641 32.3516 45.6542 37.5464 45.405L37.7907 45.3911L37.865 47.057H37.6207C32.422 47.2884 24.1353 47.3537 20.5646 47.0787C19.6344 47.0075 18.9327 46.8215 18.3816 46.499C17.8402 49.1304 15.663 50.6894 12.5164 50.6894Z" fill="white"/>
<path d="M48.7861 50.7013C48.4635 50.7012 48.1414 50.676 47.8226 50.6261L47.0076 50.5034L47.2597 48.8554L48.0727 48.9781C48.659 49.0691 49.7613 49.1284 50.4942 48.5309C50.9672 48.1451 51.2369 47.5081 51.2916 46.6375C51.3905 45.1998 51.3781 43.7564 51.2545 42.3206L51.188 41.3313L52.8297 41.2166L52.8962 42.2058C53.0231 43.7162 53.0335 45.2343 52.9275 46.7464C52.8395 48.0996 52.3665 49.1383 51.5183 49.8288C50.8187 50.4006 49.8747 50.7013 48.7861 50.7013Z" fill="white"/>
<path d="M12.8859 44.5265C12.7045 44.5269 12.5271 44.4728 12.3761 44.3711C12.2251 44.2694 12.1073 44.1246 12.0376 43.9551C11.9679 43.7856 11.9495 43.5989 11.9847 43.4188C12.0198 43.2387 12.107 43.0732 12.2351 42.9432C12.3632 42.8132 12.5265 42.7247 12.7044 42.6887C12.8822 42.6527 13.0666 42.671 13.2342 42.7412C13.4018 42.8113 13.5451 42.9303 13.6459 43.0829C13.7467 43.2355 13.8005 43.415 13.8005 43.5986C13.8005 43.8444 13.7042 44.0801 13.5327 44.254C13.3613 44.428 13.1286 44.526 12.8859 44.5265Z" fill="white"/>
<path d="M28.2746 37.5386C27.9052 37.5381 27.551 37.3893 27.2898 37.1249C27.0286 36.8604 26.8816 36.5019 26.8811 36.128C26.8808 35.9439 26.9168 35.7616 26.9869 35.5917C27.0571 35.4219 27.16 35.2679 27.2896 35.1388C27.484 34.9421 27.7315 34.808 28.001 34.7534C28.2705 34.6987 28.5499 34.726 28.8042 34.8317C29.0584 34.9375 29.2761 35.1169 29.4298 35.3476C29.5835 35.5782 29.6664 35.8498 29.6681 36.128C29.6676 36.5019 29.5206 36.8604 29.2594 37.1249C28.9981 37.3893 28.644 37.5381 28.2746 37.5386Z" fill="#F8BC45"/>
<path d="M24.3539 38.9948C24.0783 38.9948 23.8089 38.912 23.5798 38.757C23.3506 38.602 23.172 38.3817 23.0665 38.124C22.9611 37.8662 22.9335 37.5826 22.9872 37.3089C23.041 37.0353 23.1737 36.7839 23.3686 36.5867C23.5635 36.3894 23.8118 36.255 24.0821 36.2006C24.3524 36.1462 24.6326 36.1741 24.8872 36.2809C25.1418 36.3876 25.3595 36.5684 25.5126 36.8004C25.6657 37.0324 25.7474 37.3051 25.7474 37.5841C25.7469 37.9581 25.5999 38.3166 25.3387 38.581C25.0775 38.8455 24.7234 38.9942 24.3539 38.9948Z" fill="#F8BC45"/>
<path d="M22.4389 42.5125C22.1157 42.5146 21.8017 42.4032 21.5506 42.197C21.2996 41.9909 21.127 41.7029 21.0624 41.3823C20.9977 41.0617 21.0451 40.7283 21.1963 40.4391C21.3475 40.1498 21.5932 39.9227 21.8915 39.7965C22.1897 39.6703 22.522 39.6529 22.8315 39.7471C23.1411 39.8414 23.4087 40.0415 23.5887 40.3133C23.7687 40.5851 23.8499 40.9117 23.8184 41.2374C23.787 41.5631 23.6448 41.8676 23.4161 42.099C23.2881 42.2295 23.1358 42.3332 22.9682 42.4041C22.8005 42.4751 22.6207 42.5119 22.4389 42.5125Z" fill="#F8BC45"/>
<path d="M34.1104 42.5124C33.8809 42.5139 33.6546 42.4578 33.4516 42.3494C33.2486 42.2409 33.0752 42.0834 32.9468 41.8908C32.8184 41.6982 32.7391 41.4764 32.7157 41.2453C32.6924 41.0141 32.7258 40.7807 32.813 40.5658C32.9003 40.3508 33.0386 40.161 33.2157 40.0133C33.3929 39.8655 33.6033 39.7643 33.8284 39.7187C34.0534 39.673 34.2862 39.6844 34.5058 39.7517C34.7255 39.8191 34.9254 39.9403 35.0876 40.1047C35.2819 40.3015 35.4144 40.552 35.4684 40.8248C35.5223 41.0977 35.4954 41.3805 35.3909 41.6379C35.2865 41.8953 35.1092 42.1156 34.8813 42.2712C34.6535 42.4268 34.3853 42.5108 34.1104 42.5124Z" fill="#F8BC45"/>
<path d="M32.1952 38.9948C31.9196 38.9948 31.6502 38.912 31.4211 38.757C31.1919 38.602 31.0133 38.3817 30.9078 38.124C30.8024 37.8662 30.7748 37.5826 30.8285 37.3089C30.8823 37.0353 31.015 36.7839 31.2099 36.5867C31.4048 36.3894 31.6531 36.255 31.9234 36.2006C32.1937 36.1462 32.4739 36.1741 32.7285 36.2809C32.9831 36.3876 33.2008 36.5684 33.3539 36.8004C33.507 37.0324 33.5887 37.3051 33.5887 37.5841C33.5882 37.9581 33.4412 38.3166 33.18 38.581C32.9188 38.8455 32.5647 38.9942 32.1952 38.9948Z" fill="#F8BC45"/>
</svg>
