<svg width="259" height="79" viewBox="0 0 259 79" fill="none" xmlns="http://www.w3.org/2000/svg">
<path d="M72.7248 12.7673C72.5679 12.8564 72.4151 12.9667 72.2666 13.0982C72.1224 13.2297 71.993 13.3803 71.8785 13.55C71.7639 13.7155 71.6727 13.9 71.6048 14.1036C71.5412 14.2988 71.5094 14.5067 71.5094 14.7273V14.7718C71.5603 14.6827 71.6154 14.6127 71.6748 14.5618C71.7342 14.5109 71.7936 14.4727 71.853 14.4473C71.9124 14.4218 71.9718 14.4048 72.0312 14.3964C72.0906 14.3879 72.15 14.3836 72.2094 14.3836C72.3112 14.3836 72.4066 14.4027 72.4957 14.4409C72.5891 14.4791 72.6676 14.5321 72.7312 14.6C72.7991 14.6679 72.8521 14.7485 72.8903 14.8418C72.9327 14.9309 72.9539 15.0264 72.9539 15.1282C72.9539 15.2427 72.9327 15.353 72.8903 15.4591C72.8479 15.5609 72.7885 15.6542 72.7121 15.7391C72.6357 15.8197 72.5445 15.8855 72.4385 15.9364C72.3366 15.983 72.2263 16.0064 72.1076 16.0064C71.9082 16.0064 71.7279 15.9703 71.5666 15.8982C71.4097 15.8261 71.276 15.7264 71.1657 15.5991C71.0554 15.4718 70.9706 15.3212 70.9112 15.1473C70.856 14.9691 70.8285 14.7761 70.8285 14.5682C70.8285 14.3391 70.8688 14.1121 70.9494 13.8873C71.0342 13.6582 71.1445 13.4418 71.2803 13.2382C71.4203 13.0345 71.5815 12.8479 71.7639 12.6782C71.9463 12.5042 72.1373 12.3579 72.3366 12.2391L72.7248 12.7673ZM81.889 15.2173V16H81.7871C81.6302 16 81.469 15.9703 81.3035 15.9109C81.1381 15.8515 80.9747 15.7688 80.8135 15.6627C80.6565 15.5567 80.5059 15.4336 80.3617 15.2936C80.2217 15.1536 80.0987 15.003 79.9926 14.8418C79.9884 14.8503 79.9862 14.8567 79.9862 14.8609C79.9862 14.8652 79.9841 14.8694 79.9799 14.8736C79.8865 15.0942 79.7487 15.283 79.5662 15.44C79.3838 15.5927 79.1759 15.72 78.9426 15.8218C78.7135 15.9194 78.4653 15.9894 78.1981 16.0318C77.935 16.0785 77.6741 16.1018 77.4153 16.1018C77.1353 16.1018 76.8723 16.087 76.6262 16.0573C76.3802 16.0318 76.1384 15.9873 75.9008 15.9236C75.6674 15.86 75.4278 15.7752 75.1817 15.6691C74.9399 15.563 74.6832 15.4315 74.4117 15.2745L74.8126 14.6L75.1435 14.8036C75.3217 14.9097 75.5338 15.0009 75.7799 15.0773C76.0259 15.1536 76.2847 15.213 76.5562 15.2555C76.832 15.2936 77.1099 15.3127 77.3899 15.3127H77.4662C77.7123 15.3127 77.9435 15.2936 78.1599 15.2555C78.4399 15.2088 78.6796 15.1282 78.879 15.0136C79.0826 14.8948 79.2205 14.7485 79.2926 14.5745C79.3308 14.4812 79.3499 14.3836 79.3499 14.2818C79.3499 14.2139 79.3329 14.1142 79.299 13.9827C79.2693 13.8512 79.1929 13.69 79.0699 13.4991L76.6771 9.87182L77.3326 9.45182L79.9099 13.3527C80.0668 13.5945 80.2217 13.8279 80.3744 14.0527C80.5314 14.2733 80.6862 14.4706 80.839 14.6445C80.9959 14.8185 81.1529 14.9585 81.3099 15.0645C81.4668 15.1664 81.6259 15.2173 81.7871 15.2173H81.889ZM85.9088 10.8836C85.9512 11.0661 85.9979 11.2676 86.0488 11.4882C86.0997 11.7088 86.1442 11.9379 86.1824 12.1755C86.2249 12.4088 86.2609 12.6464 86.2906 12.8882C86.3203 13.13 86.3394 13.3612 86.3479 13.5818V13.62C86.3479 13.9085 86.3033 14.1948 86.2142 14.4791C86.1252 14.7633 85.9936 15.02 85.8197 15.2491C85.6458 15.4739 85.4315 15.6564 85.177 15.7964C84.9267 15.9321 84.6446 16 84.3306 16H81.6897V15.2173H84.3306C84.5342 15.2045 84.7124 15.1515 84.8652 15.0582C85.0221 14.9648 85.1515 14.8439 85.2533 14.6955C85.3594 14.5427 85.44 14.3709 85.4952 14.18C85.5418 14.0061 85.5652 13.8279 85.5652 13.6455V13.6009C85.5609 13.3973 85.5439 13.1852 85.5142 12.9645C85.4888 12.7439 85.4549 12.5255 85.4124 12.3091C85.3742 12.0927 85.3318 11.8827 85.2852 11.6791C85.2385 11.4755 85.1939 11.2867 85.1515 11.1127L85.9088 10.8836ZM85.6097 19.2327L84.8206 18.4373L85.597 17.6482L86.3988 18.4436L85.6097 19.2327ZM83.0133 19.22L82.2242 18.4245L83.0006 17.6355L83.8024 18.4309L83.0133 19.22ZM95.4515 15.2173V16H95.3496C95.1927 16 95.0315 15.9703 94.866 15.9109C94.7006 15.8515 94.5372 15.7688 94.376 15.6627C94.219 15.5567 94.0684 15.4336 93.9242 15.2936C93.7842 15.1536 93.6612 15.003 93.5551 14.8418C93.5509 14.8503 93.5487 14.8567 93.5487 14.8609C93.5487 14.8652 93.5466 14.8694 93.5424 14.8736C93.449 15.0942 93.3112 15.283 93.1287 15.44C92.9463 15.5927 92.7384 15.72 92.5051 15.8218C92.276 15.9194 92.0278 15.9894 91.7606 16.0318C91.4975 16.0785 91.2366 16.1018 90.9778 16.1018C90.6978 16.1018 90.4348 16.087 90.1887 16.0573C89.9427 16.0318 89.7009 15.9873 89.4633 15.9236C89.2299 15.86 88.9903 15.7752 88.7442 15.6691C88.5024 15.563 88.2457 15.4315 87.9742 15.2745L88.3751 14.6L88.706 14.8036C88.8842 14.9097 89.0963 15.0009 89.3424 15.0773C89.5884 15.1536 89.8472 15.213 90.1187 15.2555C90.3945 15.2936 90.6724 15.3127 90.9524 15.3127H91.0287C91.2748 15.3127 91.506 15.2936 91.7224 15.2555C92.0024 15.2088 92.2421 15.1282 92.4415 15.0136C92.6451 14.8948 92.783 14.7485 92.8551 14.5745C92.8933 14.4812 92.9124 14.3836 92.9124 14.2818C92.9124 14.2139 92.8954 14.1142 92.8615 13.9827C92.8318 13.8512 92.7554 13.69 92.6324 13.4991L90.2396 9.87182L90.8951 9.45182L93.4724 13.3527C93.6293 13.5945 93.7842 13.8279 93.9369 14.0527C94.0939 14.2733 94.2487 14.4706 94.4015 14.6445C94.5584 14.8185 94.7154 14.9585 94.8724 15.0645C95.0293 15.1664 95.1884 15.2173 95.3496 15.2173H95.4515ZM100.661 15.2173V16H100.216C99.9316 16 99.6622 15.9576 99.4077 15.8727C99.1531 15.7879 98.9304 15.667 98.7395 15.51C98.6249 15.4167 98.5295 15.3191 98.4531 15.2173C98.2367 15.4888 97.9652 15.6861 97.6386 15.8091C97.3119 15.9321 96.9152 15.9958 96.4486 16H95.2522V15.2173H96.4486C96.6989 15.2088 96.9216 15.1855 97.1167 15.1473C97.3119 15.1091 97.4774 15.0433 97.6131 14.95C97.7489 14.8567 97.8528 14.7336 97.9249 14.5809C98.0013 14.4239 98.0437 14.2245 98.0522 13.9827V11.6982H98.8349V13.9827C98.8349 14.2118 98.8774 14.4048 98.9622 14.5618C99.0471 14.7188 99.1552 14.8461 99.2867 14.9436C99.4183 15.0412 99.5646 15.1112 99.7258 15.1536C99.8913 15.1961 100.055 15.2173 100.216 15.2173H100.661ZM97.1104 8.76455L97.9249 7.93727L98.7649 8.77727L97.9377 9.60455L97.1104 8.76455ZM108.13 16C107.808 16 107.53 15.9618 107.297 15.8855C107.068 15.8048 106.864 15.6839 106.686 15.5227C106.601 15.4506 106.527 15.37 106.463 15.2809C106.391 15.4336 106.3 15.5736 106.189 15.7009C106.083 15.8239 105.962 15.93 105.827 16.0191C105.691 16.1082 105.547 16.1761 105.394 16.2227C105.241 16.2736 105.084 16.2991 104.923 16.2991C104.715 16.2991 104.507 16.2736 104.299 16.2227C104.092 16.1718 103.875 16.0997 103.65 16.0064C103.425 15.9173 103.188 15.8091 102.938 15.6818C102.687 15.5503 102.416 15.4061 102.123 15.2491C101.788 15.7497 101.332 16 100.755 16H100.443V15.2173H100.755C100.92 15.2173 101.06 15.1833 101.175 15.1155C101.294 15.0433 101.402 14.9288 101.499 14.7718C101.601 14.6064 101.686 14.4091 101.754 14.18C101.826 13.9467 101.898 13.7027 101.97 13.4482C102.013 13.2912 102.055 13.1342 102.098 12.9773C102.144 12.8203 102.195 12.6655 102.25 12.5127C102.305 12.36 102.365 12.2115 102.428 12.0673C102.496 11.923 102.575 11.7852 102.664 11.6536C103.097 11.013 103.712 10.6927 104.509 10.6927C104.828 10.6927 105.131 10.7755 105.419 10.9409C105.708 11.1021 105.962 11.3376 106.183 11.6473C106.387 11.9188 106.542 12.2221 106.648 12.5573C106.754 12.8924 106.807 13.2318 106.807 13.5755C106.807 14.2415 106.942 14.6997 107.214 14.95C107.316 15.0433 107.437 15.1112 107.577 15.1536C107.721 15.1961 107.905 15.2173 108.13 15.2173H108.264V16H108.13ZM104.923 15.5164C105.055 15.5164 105.186 15.4824 105.318 15.4145C105.449 15.3467 105.568 15.2364 105.674 15.0836C105.78 14.9309 105.865 14.7315 105.928 14.4855C105.992 14.2352 106.024 13.9318 106.024 13.5755C106.024 13.3209 105.982 13.0642 105.897 12.8055C105.816 12.5424 105.702 12.3091 105.553 12.1055C105.511 12.0461 105.455 11.9803 105.388 11.9082C105.324 11.8361 105.248 11.7682 105.158 11.7045C105.069 11.6409 104.97 11.5879 104.859 11.5455C104.753 11.4988 104.637 11.4755 104.509 11.4755C104.229 11.4755 103.996 11.5264 103.809 11.6282C103.623 11.7258 103.464 11.8679 103.332 12.0545C103.205 12.2412 103.095 12.4703 103.001 12.7418C102.908 13.0091 102.817 13.3124 102.728 13.6518C102.681 13.8088 102.636 13.9615 102.594 14.11C102.552 14.2585 102.507 14.4027 102.46 14.5427C102.732 14.687 102.982 14.8206 103.211 14.9436C103.445 15.0624 103.661 15.1664 103.86 15.2555C104.064 15.3403 104.255 15.4061 104.433 15.4527C104.594 15.4952 104.745 15.5164 104.885 15.5164H104.923ZM111.79 12.99C111.921 12.99 112.053 12.9858 112.184 12.9773C112.32 12.9688 112.45 12.9582 112.573 12.9455C112.696 12.9285 112.812 12.9115 112.923 12.8945C113.033 12.8776 113.128 12.8627 113.209 12.85C113.205 12.6633 113.194 12.4618 113.177 12.2455C113.16 12.0248 113.131 11.8042 113.088 11.5836C113.046 11.3588 112.984 11.1445 112.904 10.9409C112.827 10.733 112.725 10.5485 112.598 10.3873C112.471 10.2261 112.314 10.0988 112.127 10.0055C111.945 9.90788 111.726 9.85909 111.472 9.85909C111.204 9.85909 110.971 9.90788 110.772 10.0055C110.577 10.103 110.415 10.2303 110.288 10.3873C110.161 10.5442 110.065 10.7245 110.002 10.9282C109.942 11.1318 109.913 11.3376 109.913 11.5455C109.913 11.8339 109.959 12.0715 110.053 12.2582C110.15 12.4406 110.284 12.587 110.454 12.6973C110.623 12.8033 110.823 12.8797 111.052 12.9264C111.281 12.9688 111.527 12.99 111.79 12.99ZM111.472 9.07636C111.828 9.08061 112.138 9.14212 112.401 9.26091C112.668 9.3797 112.895 9.54091 113.082 9.74455C113.268 9.94394 113.421 10.1773 113.54 10.4445C113.659 10.7118 113.75 10.9961 113.814 11.2973C113.881 11.5985 113.928 11.9103 113.954 12.2327C113.979 12.5509 113.992 12.8606 113.992 13.1618C113.992 13.7176 113.907 14.1779 113.737 14.5427C113.572 14.9076 113.334 15.1982 113.024 15.4145C112.719 15.6309 112.35 15.7836 111.917 15.8727C111.484 15.9576 111.003 16 110.473 16H108.01V15.2173H110.473C110.846 15.1961 111.188 15.1706 111.497 15.1409C111.807 15.107 112.076 15.0391 112.305 14.9373C112.539 14.8355 112.73 14.6848 112.878 14.4855C113.027 14.2861 113.126 14.0061 113.177 13.6455C112.999 13.6752 112.787 13.7048 112.541 13.7345C112.295 13.76 112.044 13.7727 111.79 13.7727C111.391 13.7727 111.028 13.7303 110.702 13.6455C110.375 13.5564 110.095 13.4206 109.862 13.2382C109.628 13.0558 109.448 12.8245 109.321 12.5445C109.194 12.2645 109.13 11.9315 109.13 11.5455C109.13 11.2103 109.185 10.8921 109.295 10.5909C109.41 10.2855 109.569 10.0203 109.773 9.79545C109.976 9.56636 110.222 9.38606 110.511 9.25455C110.782 9.13576 111.081 9.07636 111.408 9.07636H111.472ZM112.604 7.68909L111.815 6.89364C111.96 6.74515 112.089 6.61364 112.204 6.49909C112.322 6.3803 112.452 6.24879 112.592 6.10455L113.394 6.9L112.604 7.68909ZM110.021 7.67636L109.232 6.88091C109.376 6.73242 109.505 6.60091 109.62 6.48636C109.739 6.36758 109.868 6.23606 110.008 6.09182L110.81 6.88727L110.021 7.67636ZM121.873 12.08C121.873 12.5976 121.888 13.0515 121.918 13.4418C121.952 13.8321 122.016 14.1588 122.109 14.4218C122.202 14.6848 122.332 14.8842 122.497 15.02C122.667 15.1515 122.887 15.2173 123.159 15.2173H123.369V16H123.159C122.921 16 122.711 15.9682 122.529 15.9045C122.346 15.8409 122.183 15.7539 122.039 15.6436C121.899 15.5333 121.778 15.4018 121.676 15.2491C121.574 15.0964 121.489 14.9309 121.422 14.7527C121.294 14.9988 121.135 15.2024 120.944 15.3636C120.753 15.5248 120.531 15.6521 120.276 15.7455C120.022 15.8388 119.731 15.9045 119.404 15.9427C119.078 15.9809 118.715 16 118.316 16H115.752V15.2173H118.316C118.753 15.2003 119.124 15.1642 119.43 15.1091C119.739 15.0539 119.996 14.9755 120.2 14.8736C120.408 14.7676 120.571 14.6361 120.69 14.4791C120.809 14.3179 120.898 14.1248 120.957 13.9C121.016 13.6709 121.053 13.4058 121.065 13.1045C121.082 12.8033 121.091 12.4597 121.091 12.0736V6.91273H121.873V12.08ZM116.522 13.8873V6.91909H117.317V13.8873H116.522ZM129.768 15.2173V16H123.156V15.2173H125.785C125.606 15.1027 125.443 14.9648 125.295 14.8036C125.146 14.6424 125.019 14.4664 124.913 14.2755C124.811 14.0845 124.73 13.8809 124.671 13.6645C124.612 13.4482 124.582 13.2255 124.582 12.9964C124.582 12.6612 124.65 12.3452 124.786 12.0482C124.926 11.7512 125.112 11.4924 125.346 11.2718C125.579 11.047 125.848 10.8688 126.154 10.7373C126.459 10.6058 126.777 10.54 127.108 10.54C127.354 10.54 127.581 10.5697 127.789 10.6291C128.001 10.6885 128.203 10.7648 128.394 10.8582C128.589 10.9473 128.778 11.0491 128.96 11.1636C129.147 11.2782 129.336 11.3906 129.526 11.5009L129.132 12.1755C128.966 12.0779 128.801 11.9782 128.636 11.8764C128.47 11.7745 128.305 11.6833 128.139 11.6027C127.974 11.5179 127.804 11.45 127.63 11.3991C127.46 11.3482 127.286 11.3227 127.108 11.3227C126.9 11.3227 126.693 11.3652 126.485 11.45C126.277 11.5306 126.09 11.6452 125.925 11.7936C125.759 11.9379 125.623 12.1139 125.517 12.3218C125.416 12.5255 125.365 12.7503 125.365 12.9964C125.365 13.077 125.371 13.1745 125.384 13.2891C125.401 13.3994 125.433 13.5182 125.479 13.6455C125.53 13.7727 125.6 13.9042 125.689 14.04C125.778 14.1758 125.897 14.3073 126.046 14.4345C126.181 14.5491 126.343 14.6552 126.529 14.7527C126.72 14.8461 126.924 14.9288 127.14 15.0009C127.361 15.0688 127.588 15.1218 127.821 15.16C128.059 15.1982 128.296 15.2173 128.534 15.2173H129.768ZM137.631 12.3473C137.372 12.8818 137.169 13.3973 137.02 13.8936C136.876 14.39 136.787 14.8588 136.753 15.3C136.74 15.44 136.734 15.5779 136.734 15.7136C136.734 16.0021 136.766 16.3033 136.829 16.6173C136.897 16.9355 137.027 17.2473 137.217 17.5527C137.455 17.9303 137.765 18.2209 138.147 18.4245C138.533 18.6282 138.963 18.73 139.438 18.73H141.023C141.227 18.73 141.443 18.7215 141.672 18.7045C141.905 18.6876 142.137 18.6558 142.366 18.6091C142.599 18.5667 142.822 18.5094 143.034 18.4373C143.25 18.3652 143.439 18.2761 143.6 18.17C143.766 18.0639 143.897 17.9367 143.995 17.7882C144.092 17.6439 144.141 17.4742 144.141 17.2791C144.141 17.1476 144.126 17.0267 144.097 16.9164C144.067 16.8103 144.012 16.7127 143.931 16.6236C143.851 16.5388 143.738 16.4624 143.594 16.3945C143.45 16.3267 143.265 16.2673 143.04 16.2164C142.815 16.1655 142.542 16.1209 142.219 16.0827C141.901 16.0488 141.526 16.0212 141.093 16L141.112 15.2173H146.61V16H144.408C144.587 16.1739 144.716 16.3627 144.797 16.5664C144.877 16.77 144.917 17.0076 144.917 17.2791C144.917 17.5633 144.864 17.8158 144.758 18.0364C144.652 18.2612 144.506 18.4564 144.319 18.6218C144.133 18.7873 143.914 18.9252 143.664 19.0355C143.414 19.15 143.144 19.2412 142.856 19.3091C142.567 19.3812 142.266 19.4321 141.952 19.4618C141.642 19.4958 141.333 19.5127 141.023 19.5127H139.438C138.828 19.5127 138.272 19.3791 137.771 19.1118C137.271 18.8445 136.865 18.4648 136.556 17.9727C136.263 17.4976 136.078 17.0076 136.002 16.5027C135.955 16.227 135.932 15.9533 135.932 15.6818C135.932 15.4485 135.958 15.1473 136.008 14.7782C136.059 14.4048 136.172 13.9679 136.346 13.4673C136.52 12.9667 136.715 12.4809 136.931 12.01L137.631 12.3473ZM151.096 15.2173V16H144.485V15.2173H147.113C146.935 15.1027 146.771 14.9648 146.623 14.8036C146.474 14.6424 146.347 14.4664 146.241 14.2755C146.139 14.0845 146.059 13.8809 145.999 13.6645C145.94 13.4482 145.91 13.2255 145.91 12.9964C145.91 12.6612 145.978 12.3452 146.114 12.0482C146.254 11.7512 146.44 11.4924 146.674 11.2718C146.907 11.047 147.176 10.8688 147.482 10.7373C147.787 10.6058 148.106 10.54 148.436 10.54C148.683 10.54 148.909 10.5697 149.117 10.6291C149.329 10.6885 149.531 10.7648 149.722 10.8582C149.917 10.9473 150.106 11.0491 150.288 11.1636C150.475 11.2782 150.664 11.3906 150.855 11.5009L150.46 12.1755C150.295 12.0779 150.129 11.9782 149.964 11.8764C149.798 11.7745 149.633 11.6833 149.467 11.6027C149.302 11.5179 149.132 11.45 148.958 11.3991C148.789 11.3482 148.615 11.3227 148.436 11.3227C148.229 11.3227 148.021 11.3652 147.813 11.45C147.605 11.5306 147.418 11.6452 147.253 11.7936C147.087 11.9379 146.952 12.1139 146.846 12.3218C146.744 12.5255 146.693 12.7503 146.693 12.9964C146.693 13.077 146.699 13.1745 146.712 13.2891C146.729 13.3994 146.761 13.5182 146.807 13.6455C146.858 13.7727 146.928 13.9042 147.017 14.04C147.106 14.1758 147.225 14.3073 147.374 14.4345C147.509 14.5491 147.671 14.6552 147.857 14.7527C148.048 14.8461 148.252 14.9288 148.468 15.0009C148.689 15.0688 148.916 15.1218 149.149 15.16C149.387 15.1982 149.624 15.2173 149.862 15.2173H151.096ZM157.03 15.2173V13.6327C157.022 13.2976 156.99 12.9879 156.935 12.7036C156.884 12.4152 156.795 12.167 156.668 11.9591C156.54 11.747 156.371 11.5836 156.159 11.4691C155.947 11.3503 155.675 11.2909 155.344 11.2909C155.017 11.2909 154.746 11.3503 154.53 11.4691C154.313 11.5879 154.139 11.7533 154.008 11.9655C153.88 12.1733 153.789 12.4215 153.734 12.71C153.683 12.9942 153.658 13.3018 153.658 13.6327C153.658 13.9255 153.709 14.1736 153.81 14.3773C153.912 14.5767 154.054 14.74 154.237 14.8673C154.419 14.9903 154.631 15.0794 154.873 15.1345C155.119 15.1897 155.387 15.2173 155.675 15.2173H157.03ZM155.344 10.5082C155.781 10.5252 156.157 10.6121 156.47 10.7691C156.784 10.9261 157.039 11.1424 157.234 11.4182C157.434 11.6897 157.58 12.0142 157.673 12.3918C157.767 12.7652 157.813 13.1788 157.813 13.6327V15.2173H158.895V16H157.813V16.1082C157.813 16.6682 157.716 17.1624 157.52 17.5909C157.33 18.0194 157.05 18.3779 156.68 18.6664C156.311 18.9548 155.87 19.167 155.357 19.3027C154.848 19.4427 154.29 19.5127 153.683 19.5127H153.32V18.73H153.683C154.197 18.7173 154.657 18.6664 155.064 18.5773C155.476 18.4882 155.826 18.3397 156.114 18.1318C156.403 17.9239 156.625 17.6461 156.782 17.2982C156.939 16.9545 157.022 16.5218 157.03 16H155.58C155.223 16 154.882 15.9533 154.555 15.86C154.228 15.7667 153.938 15.6224 153.683 15.4273C153.433 15.2279 153.236 14.9797 153.091 14.6827C152.947 14.3815 152.875 14.0315 152.875 13.6327C152.875 13.183 152.92 12.7715 153.009 12.3982C153.102 12.0206 153.246 11.6961 153.441 11.4245C153.641 11.1488 153.895 10.9324 154.205 10.7755C154.519 10.6142 154.899 10.5252 155.344 10.5082ZM164.071 15.2173V16H163.626C163.342 16 163.072 15.9576 162.818 15.8727C162.563 15.7879 162.341 15.667 162.15 15.51C162.035 15.4167 161.94 15.3191 161.863 15.2173C161.647 15.4888 161.375 15.6861 161.049 15.8091C160.722 15.9321 160.325 15.9958 159.859 16H158.662V15.2173H159.859C160.109 15.2088 160.332 15.1855 160.527 15.1473C160.722 15.1091 160.888 15.0433 161.023 14.95C161.159 14.8567 161.263 14.7336 161.335 14.5809C161.411 14.4239 161.454 14.2245 161.462 13.9827V11.6982H162.245V13.9827C162.245 14.2118 162.288 14.4048 162.372 14.5618C162.457 14.7188 162.565 14.8461 162.697 14.9436C162.828 15.0412 162.975 15.1112 163.136 15.1536C163.301 15.1961 163.465 15.2173 163.626 15.2173H164.071ZM160.521 8.76455L161.335 7.93727L162.175 8.77727L161.348 9.60455L160.521 8.76455ZM168.639 16C168.354 16 168.085 15.9597 167.83 15.8791C167.576 15.7942 167.353 15.6712 167.162 15.51C167.048 15.4167 166.952 15.3191 166.876 15.2173C166.859 15.2385 166.842 15.2597 166.825 15.2809C166.808 15.2979 166.791 15.317 166.774 15.3382C166.358 15.7794 165.724 16 164.871 16H163.885V15.2173H164.871C165.503 15.2173 165.947 15.0794 166.201 14.8036C166.384 14.6085 166.475 14.3455 166.475 14.0145V11.7045H167.258V13.9827C167.258 14.267 167.319 14.4961 167.442 14.67C167.57 14.8439 167.727 14.9755 167.913 15.0645L168.34 14.3709C168.59 13.9594 168.855 13.5373 169.135 13.1045C169.415 12.6718 169.718 12.2709 170.045 11.9018C170.448 11.4436 170.845 11.1042 171.235 10.8836C171.625 10.6588 172.024 10.5464 172.431 10.5464C172.707 10.5464 172.953 10.5909 173.17 10.68C173.39 10.7648 173.585 10.8815 173.755 11.03C173.925 11.1785 174.069 11.3524 174.188 11.5518C174.311 11.7512 174.413 11.9655 174.493 12.1945C174.574 12.4194 174.631 12.6527 174.665 12.8945C174.703 13.1321 174.722 13.3676 174.722 13.6009C174.722 13.9827 174.669 14.3052 174.563 14.5682C174.461 14.8312 174.338 15.0476 174.194 15.2173H175.861V16H168.639ZM169.008 14.7782C168.961 14.8503 168.914 14.9245 168.868 15.0009C168.825 15.073 168.781 15.1452 168.734 15.2173H172.4C172.484 15.213 172.582 15.2024 172.692 15.1855C172.803 15.1685 172.915 15.1388 173.03 15.0964C173.144 15.0539 173.254 14.9967 173.36 14.9245C173.471 14.8482 173.568 14.7506 173.653 14.6318C173.738 14.513 173.806 14.3709 173.857 14.2055C173.912 14.0358 173.94 13.8342 173.94 13.6009C173.94 13.3548 173.914 13.0982 173.863 12.8309C173.817 12.5594 173.736 12.3133 173.621 12.0927C173.507 11.8721 173.352 11.6897 173.157 11.5455C172.966 11.4012 172.724 11.3291 172.431 11.3291C171.867 11.3291 171.267 11.6918 170.63 12.4173C170.325 12.7609 170.039 13.1406 169.771 13.5564C169.504 13.9721 169.25 14.3794 169.008 14.7782ZM180.339 15.5164C180.471 15.5164 180.602 15.4824 180.734 15.4145C180.869 15.3467 180.988 15.2364 181.09 15.0836C181.196 14.9309 181.281 14.7315 181.345 14.4855C181.413 14.2352 181.446 13.9318 181.446 13.5755C181.446 13.3209 181.404 13.0642 181.319 12.8055C181.239 12.5424 181.124 12.3091 180.976 12.1055C180.933 12.0461 180.878 11.9803 180.81 11.9082C180.746 11.8361 180.67 11.7682 180.581 11.7045C180.492 11.6409 180.392 11.5879 180.282 11.5455C180.172 11.4988 180.053 11.4755 179.926 11.4755C179.65 11.4755 179.419 11.5264 179.232 11.6282C179.045 11.7258 178.886 11.8679 178.755 12.0545C178.627 12.2412 178.517 12.4703 178.424 12.7418C178.33 13.0091 178.237 13.3124 178.144 13.6518C178.101 13.8088 178.059 13.9615 178.016 14.11C177.974 14.2585 177.927 14.4027 177.876 14.5427C178.148 14.6785 178.4 14.8079 178.634 14.9309C178.867 15.0539 179.083 15.16 179.283 15.2491C179.482 15.3382 179.669 15.4061 179.843 15.4527C179.991 15.4952 180.133 15.5164 180.269 15.5164H180.339ZM179.926 10.6927C180.248 10.6927 180.551 10.7755 180.836 10.9409C181.124 11.1021 181.381 11.3376 181.606 11.6473C181.805 11.9188 181.958 12.2221 182.064 12.5573C182.174 12.8924 182.229 13.2318 182.229 13.5755C182.229 13.7961 182.214 14.0167 182.185 14.2373C182.155 14.4536 182.108 14.6636 182.045 14.8673C181.985 15.0709 181.905 15.2597 181.803 15.4336C181.705 15.6076 181.586 15.7582 181.446 15.8855C181.306 16.0127 181.145 16.1124 180.963 16.1845C180.78 16.2609 180.573 16.2991 180.339 16.2991C180.127 16.2991 179.919 16.2715 179.716 16.2164C179.512 16.1655 179.298 16.0933 179.073 16C178.852 15.9067 178.617 15.7964 178.366 15.6691C178.116 15.5418 177.84 15.4018 177.539 15.2491C177.213 15.7497 176.759 16 176.177 16H175.611V15.2173H176.177C176.343 15.2173 176.483 15.1833 176.597 15.1155C176.716 15.0433 176.822 14.9288 176.916 14.7718C177.017 14.6064 177.104 14.4091 177.176 14.18C177.249 13.9467 177.321 13.7027 177.393 13.4482C177.478 13.1342 177.569 12.8224 177.666 12.5127C177.768 12.203 177.908 11.9167 178.086 11.6536C178.523 11.013 179.136 10.6927 179.926 10.6927ZM203.591 10.8964C203.595 10.9091 203.612 10.9664 203.642 11.0682C203.671 11.17 203.707 11.2994 203.75 11.4564C203.792 11.6133 203.837 11.7915 203.883 11.9909C203.93 12.1903 203.972 12.3961 204.011 12.6082C204.053 12.8161 204.087 13.0239 204.112 13.2318C204.142 13.4355 204.157 13.6221 204.157 13.7918C204.157 14.0082 204.136 14.2055 204.093 14.3836C204.055 14.5576 204.002 14.7124 203.934 14.8482C203.871 14.9839 203.799 15.1027 203.718 15.2045C203.642 15.3064 203.565 15.3912 203.489 15.4591C203.302 15.6288 203.09 15.7603 202.852 15.8536C202.615 15.9427 202.362 15.9894 202.095 15.9936V16C201.336 16 200.746 15.79 200.326 15.37C200.292 15.3361 200.26 15.3 200.231 15.2618C200.201 15.2236 200.171 15.1833 200.142 15.1409C200.095 15.2088 200.046 15.2703 199.995 15.3255C199.944 15.3764 199.896 15.423 199.849 15.4655C199.654 15.6394 199.431 15.773 199.181 15.8664C198.935 15.9555 198.674 16 198.398 16C197.706 16 197.166 15.8197 196.775 15.4591V16.3245C196.775 17.2833 196.55 18.0215 196.101 18.5391C195.821 18.8658 195.46 19.1076 195.019 19.2645C194.565 19.4342 194.013 19.5191 193.364 19.5191H191.843C191.232 19.5191 190.677 19.3855 190.176 19.1182C189.68 18.8509 189.277 18.4712 188.967 17.9791C188.861 17.8094 188.768 17.6312 188.687 17.4445C188.611 17.2579 188.549 17.0585 188.502 16.8464C188.413 16.4773 188.369 16.087 188.369 15.6755C188.369 15.6033 188.371 15.5333 188.375 15.4655C188.426 14.4048 188.749 13.2552 189.342 12.0164L190.049 12.3536C189.79 12.8882 189.586 13.4036 189.438 13.9C189.294 14.3964 189.205 14.8652 189.171 15.3064C189.158 15.4548 189.152 15.5991 189.152 15.7391C189.152 16.0191 189.183 16.3161 189.247 16.63C189.311 16.9482 189.438 17.26 189.629 17.5655C189.866 17.9388 190.176 18.2273 190.558 18.4309C190.944 18.6345 191.372 18.7364 191.843 18.7364H193.364C194.387 18.7364 195.102 18.5009 195.509 18.03C195.831 17.6567 195.992 17.0882 195.992 16.3245V11.7045H196.775V13.1045C196.775 13.9361 196.939 14.5152 197.265 14.8418C197.388 14.9691 197.541 15.0645 197.723 15.1282C197.91 15.1876 198.135 15.2173 198.398 15.2173C198.555 15.2173 198.712 15.1918 198.869 15.1409C199.03 15.09 199.176 15.0094 199.308 14.8991C199.439 14.7888 199.546 14.6445 199.626 14.4664C199.711 14.2839 199.753 14.0612 199.753 13.7982V11.7045H200.536V13.7982C200.536 14.7315 201.045 15.2045 202.063 15.2173V15.2109C202.216 15.2109 202.369 15.1876 202.522 15.1409C202.679 15.09 202.819 15.0094 202.942 14.8991C203.069 14.7845 203.173 14.6382 203.253 14.46C203.334 14.2776 203.374 14.0548 203.374 13.7918C203.374 13.6391 203.362 13.4694 203.336 13.2827C203.311 13.0918 203.277 12.8988 203.234 12.7036C203.196 12.5042 203.154 12.3112 203.107 12.1245C203.065 11.9379 203.022 11.7724 202.98 11.6282C202.942 11.4797 202.91 11.3609 202.884 11.2718C202.859 11.1785 202.846 11.1297 202.846 11.1255L203.591 10.8964ZM199.461 8.94273L198.672 9.73818L197.882 8.95545L198.678 8.15364L199.461 8.94273ZM202.025 8.92364L201.236 9.71273L200.434 8.92364L201.23 8.12818L202.025 8.92364ZM200.765 7.19273L199.976 7.98182L199.174 7.19273L199.97 6.39727L200.765 7.19273ZM209.859 15.2173V13.6327C209.85 13.2976 209.818 12.9879 209.763 12.7036C209.712 12.4152 209.623 12.167 209.496 11.9591C209.369 11.747 209.199 11.5836 208.987 11.4691C208.775 11.3503 208.503 11.2909 208.172 11.2909C207.846 11.2909 207.574 11.3503 207.358 11.4691C207.141 11.5879 206.967 11.7533 206.836 11.9655C206.709 12.1733 206.617 12.4215 206.562 12.71C206.511 12.9942 206.486 13.3018 206.486 13.6327C206.486 13.9255 206.537 14.1736 206.639 14.3773C206.74 14.5767 206.883 14.74 207.065 14.8673C207.247 14.9903 207.46 15.0794 207.701 15.1345C207.947 15.1897 208.215 15.2173 208.503 15.2173H209.859ZM208.172 10.5082C208.609 10.5252 208.985 10.6121 209.299 10.7691C209.613 10.9261 209.867 11.1424 210.062 11.4182C210.262 11.6897 210.408 12.0142 210.501 12.3918C210.595 12.7652 210.641 13.1788 210.641 13.6327V15.2173H211.723V16H210.641V16.1082C210.641 16.6682 210.544 17.1624 210.349 17.5909C210.158 18.0194 209.878 18.3779 209.509 18.6664C209.14 18.9548 208.698 19.167 208.185 19.3027C207.676 19.4427 207.118 19.5127 206.511 19.5127H206.149V18.73H206.511C207.025 18.7173 207.485 18.6664 207.892 18.5773C208.304 18.4882 208.654 18.3397 208.942 18.1318C209.231 17.9239 209.453 17.6461 209.61 17.2982C209.767 16.9545 209.85 16.5218 209.859 16H208.408C208.051 16 207.71 15.9533 207.383 15.86C207.056 15.7667 206.766 15.6224 206.511 15.4273C206.261 15.2279 206.064 14.9797 205.92 14.6827C205.775 14.3815 205.703 14.0315 205.703 13.6327C205.703 13.183 205.748 12.7715 205.837 12.3982C205.93 12.0206 206.074 11.6961 206.27 11.4245C206.469 11.1488 206.723 10.9324 207.033 10.7755C207.347 10.6142 207.727 10.5252 208.172 10.5082ZM215.576 14.7845C215.771 14.7124 215.958 14.6212 216.136 14.5109C216.318 14.3964 216.475 14.2627 216.607 14.11C216.743 13.9573 216.851 13.7833 216.931 13.5882C217.012 13.393 217.052 13.1767 217.052 12.9391C217.052 12.693 217.008 12.4682 216.919 12.2645C216.834 12.0609 216.721 11.887 216.581 11.7427C216.441 11.5985 216.282 11.4882 216.104 11.4118C215.93 11.3312 215.754 11.2909 215.576 11.2909C215.27 11.2909 215.014 11.3376 214.806 11.4309C214.598 11.52 214.428 11.6388 214.297 11.7873C214.165 11.9315 214.07 12.097 214.01 12.2836C213.955 12.4703 213.928 12.657 213.928 12.8436C213.928 13.1194 213.983 13.3655 214.093 13.5818C214.208 13.7939 214.386 13.9976 214.628 14.1927C214.759 14.2988 214.904 14.4006 215.06 14.4982C215.222 14.5915 215.394 14.687 215.576 14.7845ZM217.065 9.44545C217.404 9.80606 217.72 10.1412 218.013 10.4509C218.306 10.7606 218.573 11.0533 218.815 11.3291C219.057 11.6006 219.271 11.8573 219.458 12.0991C219.649 12.3367 219.812 12.5636 219.948 12.78C220.084 13.0006 220.194 13.2148 220.279 13.4227C220.364 13.6306 220.419 13.8364 220.444 14.04C220.453 14.1164 220.457 14.1948 220.457 14.2755C220.457 14.4027 220.44 14.5533 220.406 14.7273C220.372 14.897 220.296 15.0942 220.177 15.3191C220.084 15.4973 219.96 15.6564 219.808 15.7964C219.655 15.9321 219.483 16.0467 219.292 16.14C219.106 16.2333 218.904 16.3033 218.688 16.35C218.471 16.4009 218.255 16.4264 218.039 16.4264C217.814 16.4264 217.593 16.403 217.377 16.3564C217.165 16.3139 216.955 16.2545 216.747 16.1782C216.539 16.1061 216.333 16.0233 216.13 15.93C215.926 15.8324 215.722 15.7327 215.519 15.6309C215.116 15.7539 214.664 15.8473 214.163 15.9109C213.667 15.9703 213.117 16 212.515 16H211.459V15.2173H212.515C213.27 15.2173 213.934 15.1664 214.507 15.0645C214.439 15.0221 214.375 14.9797 214.316 14.9373C214.257 14.8948 214.199 14.8503 214.144 14.8036C213.817 14.5491 213.569 14.2627 213.4 13.9445C213.23 13.6221 213.145 13.2552 213.145 12.8436C213.145 12.4958 213.204 12.1776 213.323 11.8891C213.446 11.6006 213.616 11.3545 213.832 11.1509C214.049 10.9473 214.305 10.7903 214.602 10.68C214.899 10.5655 215.224 10.5082 215.576 10.5082C215.894 10.5082 216.191 10.5761 216.467 10.7118C216.743 10.8476 216.98 11.03 217.18 11.2591C217.383 11.4839 217.542 11.7427 217.657 12.0355C217.776 12.3282 217.835 12.6294 217.835 12.9391C217.835 13.4439 217.718 13.8873 217.485 14.2691C217.252 14.6467 216.917 14.9627 216.48 15.2173C216.709 15.3403 216.957 15.4421 217.224 15.5227C217.491 15.6033 217.765 15.6436 218.045 15.6436C218.227 15.6436 218.395 15.6245 218.548 15.5864C218.705 15.5482 218.845 15.4973 218.968 15.4336C219.091 15.37 219.195 15.2979 219.28 15.2173C219.369 15.1324 219.437 15.0455 219.483 14.9564C219.56 14.8164 219.613 14.6785 219.642 14.5427C219.659 14.4579 219.668 14.373 219.668 14.2882C219.668 14.2373 219.661 14.1652 219.649 14.0718C219.64 13.9742 219.604 13.8491 219.54 13.6964C219.481 13.5394 219.394 13.3718 219.28 13.1936C219.029 12.7948 218.669 12.3367 218.198 11.8191C217.727 11.2973 217.16 10.6864 216.499 9.98636L217.065 9.44545ZM233.696 16H233.569C233.233 16 232.919 15.9597 232.627 15.8791C232.338 15.7985 232.067 15.6797 231.812 15.5227C231.519 15.3361 231.267 15.1027 231.055 14.8227C230.962 14.6997 230.879 14.5661 230.807 14.4218C230.735 14.2776 230.671 14.1248 230.616 13.9636C230.484 14.2309 230.319 14.4748 230.119 14.6955C229.924 14.9118 229.682 15.0752 229.394 15.1855C229.05 15.3212 228.711 15.3891 228.376 15.3891C228.346 15.3891 228.232 15.387 228.032 15.3827C227.837 15.3742 227.589 15.2979 227.288 15.1536C226.986 15.0052 226.728 14.7973 226.511 14.53C226.299 14.2627 226.161 13.9488 226.098 13.5882C226.072 13.4482 226.059 13.3103 226.059 13.1745C226.059 12.8861 226.123 12.5764 226.25 12.2455C226.378 11.9145 226.6 11.5921 226.919 11.2782C227.224 10.9727 227.602 10.7033 228.051 10.47C228.501 10.2367 229.012 10.0436 229.585 9.89091L229.413 9.03818L230.189 8.82182C230.312 9.34788 230.419 9.80818 230.508 10.2027C230.601 10.5973 230.684 10.9494 230.756 11.2591C230.807 11.4755 230.853 11.6812 230.896 11.8764C230.938 12.0673 230.981 12.2561 231.023 12.4427C231.07 12.6252 231.116 12.8076 231.163 12.99C231.21 13.1724 231.261 13.3655 231.316 13.5691C231.384 13.8194 231.473 14.0336 231.583 14.2118C231.693 14.3858 231.816 14.5342 231.952 14.6573C232.092 14.7803 232.236 14.88 232.385 14.9564C232.533 15.0285 232.68 15.0836 232.824 15.1218C232.972 15.16 233.11 15.1855 233.238 15.1982C233.365 15.2109 233.475 15.2173 233.569 15.2173H233.696V16ZM229.808 10.6355C229.307 10.7712 228.862 10.9388 228.471 11.1382C228.085 11.3333 227.763 11.5539 227.504 11.8C227.249 12.0418 227.067 12.3027 226.957 12.5827C226.88 12.7736 226.842 12.9688 226.842 13.1682C226.842 13.2615 226.851 13.3548 226.868 13.4482C226.91 13.69 227.012 13.8979 227.173 14.0718C227.334 14.2458 227.523 14.3794 227.739 14.4727C227.956 14.5618 228.183 14.6085 228.42 14.6127H228.452C228.673 14.6127 228.872 14.5703 229.05 14.4855C229.292 14.3667 229.487 14.2245 229.636 14.0591C229.784 13.8894 229.899 13.7133 229.979 13.5309C230.06 13.3485 230.113 13.1682 230.139 12.99C230.164 12.8076 230.175 12.6442 230.17 12.5C230.17 12.3558 230.162 12.2391 230.145 12.15C230.132 12.0567 230.126 12.0079 230.126 12.0036C230.079 11.8 230.039 11.6282 230.005 11.4882C229.975 11.3482 229.948 11.2273 229.922 11.1255C229.901 11.0236 229.88 10.9345 229.859 10.8582C229.842 10.7818 229.825 10.7076 229.808 10.6355ZM236.694 10.8836C236.736 11.0661 236.783 11.2676 236.834 11.4882C236.885 11.7088 236.929 11.9379 236.968 12.1755C237.01 12.4088 237.046 12.6464 237.076 12.8882C237.105 13.13 237.125 13.3612 237.133 13.5818V13.62C237.133 13.9085 237.088 14.1948 236.999 14.4791C236.91 14.7633 236.779 15.02 236.605 15.2491C236.431 15.4739 236.217 15.6564 235.962 15.7964C235.712 15.9321 235.43 16 235.116 16H233.461V15.2173H235.116C235.319 15.2045 235.498 15.1515 235.65 15.0582C235.807 14.9648 235.937 14.8439 236.038 14.6955C236.145 14.5427 236.225 14.3709 236.28 14.18C236.327 14.0061 236.35 13.8279 236.35 13.6455V13.6009C236.346 13.3973 236.329 13.1852 236.299 12.9645C236.274 12.7439 236.24 12.5255 236.198 12.3091C236.159 12.0927 236.117 11.8827 236.07 11.6791C236.024 11.4755 235.979 11.2867 235.937 11.1127L236.694 10.8836ZM235.008 18.31L235.733 17.5782L236.484 18.3227L235.746 19.0609L235.008 18.31ZM248.425 16H248.132C247.869 16 247.619 15.9639 247.381 15.8918C247.148 15.8197 246.936 15.7158 246.745 15.58V15.79C246.745 17.0203 246.439 17.9494 245.828 18.5773C245.222 19.2052 244.324 19.5191 243.136 19.5191H242.252V18.7427H243.136C244.133 18.7427 244.863 18.4818 245.326 17.96C245.75 17.4764 245.962 16.753 245.962 15.79V11.7045H246.745V13.9827C246.745 14.2118 246.787 14.4048 246.872 14.5618C246.957 14.7188 247.065 14.8461 247.196 14.9436C247.332 15.0412 247.481 15.1112 247.642 15.1536C247.807 15.1961 247.971 15.2173 248.132 15.2173H248.425V16ZM255.66 6.70909L250.321 9.05727C250.601 9.29485 250.977 9.63212 251.448 10.0691C251.919 10.5018 252.457 11.0406 253.064 11.6855C253.599 12.2497 253.964 12.7991 254.159 13.3336C254.26 13.6136 254.314 13.8809 254.318 14.1355V14.1673C254.318 14.4133 254.273 14.6403 254.184 14.8482C254.137 14.9542 254.063 15.0752 253.961 15.2109C253.864 15.3424 253.722 15.4676 253.535 15.5864C253.353 15.7009 253.121 15.7985 252.841 15.8791C252.561 15.9597 252.218 16 251.81 16H248.19V15.2173H251.81C252.29 15.2173 252.676 15.1473 252.969 15.0073C253.219 14.8885 253.384 14.7315 253.465 14.5364C253.516 14.4218 253.541 14.2967 253.541 14.1609C253.541 13.9658 253.471 13.707 253.331 13.3845C253.196 13.0621 252.916 12.6739 252.491 12.22C252.037 11.7364 251.617 11.3121 251.231 10.9473C250.85 10.5782 250.519 10.2706 250.239 10.0245C249.959 9.77424 249.74 9.58545 249.583 9.45818C249.426 9.33091 249.346 9.26727 249.341 9.26727L249.424 8.59909L255.342 5.99L255.66 6.70909ZM249.64 6.53727L254.47 4.45636L254.725 4.96545L249.59 7.18636L249.64 6.53727ZM257.732 16H256.937V6.91909H257.732V16Z" fill="white"/>
<path d="M3.47579 46.0517C3.47579 46.2468 3.39306 46.4398 3.22761 46.6308C3.01124 46.8726 2.73124 46.9935 2.38761 46.9935C1.9973 46.9935 1.69185 46.8471 1.47124 46.5544C1.26761 46.2871 1.16579 45.952 1.16579 45.5489C1.16579 44.552 1.67064 43.695 2.68033 42.978C2.76518 43.0374 2.85427 43.1053 2.94761 43.1817C3.04518 43.258 3.14912 43.3408 3.25942 43.4298C2.45761 44.0111 2.0567 44.6071 2.0567 45.218C2.167 45.1332 2.34942 45.0908 2.60397 45.0908C3.14276 45.1671 3.43336 45.4874 3.47579 46.0517ZM57.9492 50.5253H57.3128C56.9862 50.5253 56.6722 50.4871 56.371 50.4108C56.0698 50.3386 55.7856 50.2326 55.5183 50.0926C55.2553 49.9526 55.0135 49.7786 54.7928 49.5708C54.5765 49.3671 54.3877 49.1338 54.2265 48.8708C53.9974 48.5102 53.8319 48.1092 53.7301 47.668C53.6495 47.3286 53.6092 46.9723 53.6092 46.5989C53.6092 46.4886 53.6177 46.2808 53.6347 45.9753C53.6516 45.6656 53.7386 45.2371 53.8956 44.6898C54.0525 44.1383 54.2753 43.5698 54.5638 42.9844L55.6456 43.4998C55.408 43.992 55.2192 44.465 55.0792 44.9189C54.9435 45.3686 54.8586 45.795 54.8247 46.198C54.8119 46.3338 54.8056 46.4653 54.8056 46.5926C54.8056 46.8471 54.8332 47.1165 54.8883 47.4008C54.9477 47.6892 55.0644 47.9692 55.2383 48.2408C55.4504 48.5844 55.7368 48.8495 56.0974 49.0362C56.458 49.2271 56.8632 49.3226 57.3128 49.3226H57.8856V49.3098C58.5262 49.3098 59.065 49.2611 59.5019 49.1635C59.9389 49.0659 60.2847 48.9153 60.5392 48.7117C60.7598 48.5335 60.921 48.3065 61.0228 48.0308C61.1289 47.755 61.1819 47.4114 61.1819 46.9998H60.011C59.7141 46.9998 59.4128 46.9553 59.1074 46.8662C58.8019 46.7771 58.5241 46.6308 58.2738 46.4271C58.0277 46.2235 57.8262 45.9583 57.6692 45.6317C57.5122 45.3008 57.4338 44.8977 57.4338 44.4226C57.4338 44.1426 57.4571 43.8902 57.5038 43.6653C57.5547 43.4362 57.6162 43.2326 57.6883 43.0544C57.7647 42.8762 57.8474 42.7214 57.9365 42.5898C58.0256 42.4583 58.1125 42.3459 58.1974 42.2526C58.4307 42.0192 58.698 41.8389 58.9992 41.7117C59.3004 41.5844 59.6228 41.5208 59.9665 41.5208C60.2677 41.5208 60.5498 41.5674 60.8128 41.6608C61.0759 41.7541 61.3113 41.8941 61.5192 42.0808C62.0919 42.6153 62.3783 43.4532 62.3783 44.5944V46.9998C62.3783 47.6023 62.2892 48.1198 62.111 48.5526C61.9371 48.9895 61.6656 49.3544 61.2965 49.6471C60.9274 49.9398 60.4713 50.1562 59.9283 50.2962C59.3895 50.4362 58.7298 50.5083 57.9492 50.5126V50.5253ZM59.9665 42.7235C59.5465 42.7235 59.2198 42.872 58.9865 43.1689C58.7532 43.4659 58.6365 43.8838 58.6365 44.4226C58.6365 44.9698 58.8019 45.3495 59.1328 45.5617C59.2135 45.6126 59.2962 45.655 59.381 45.6889C59.4659 45.7186 59.5486 45.742 59.6292 45.7589C59.7098 45.7717 59.7819 45.7823 59.8456 45.7908C59.9135 45.795 59.9686 45.7971 60.011 45.7971H61.1819V44.5944C61.1819 44.2847 61.1586 44.0238 61.1119 43.8117C61.0653 43.5953 61.0059 43.4171 60.9338 43.2771C60.8616 43.1371 60.7789 43.0311 60.6856 42.9589C60.5965 42.8826 60.5074 42.8274 60.4183 42.7935C60.3292 42.7595 60.2444 42.7405 60.1638 42.7362C60.0832 42.7277 60.0174 42.7235 59.9665 42.7235ZM61.0292 40.1908L60.0238 39.1726L61.0165 38.1417L62.0474 39.1726L61.0292 40.1908ZM58.5919 40.178L57.5865 39.1598L58.5792 38.1289L59.6101 39.1598L58.5919 40.178ZM64.9105 44.6708L64.5287 38.1735L65.7187 38.0398L66.1069 44.6708H64.9105ZM71.8914 45.7971V46.9998H71.5669C71.1808 46.9998 70.8393 46.9447 70.5424 46.8344C70.2496 46.7241 70.0142 46.5586 69.836 46.338C69.3948 46.7792 68.7414 46.9998 67.876 46.9998H64.1214V45.7971H67.876C68.1814 45.7971 68.4233 45.7674 68.6014 45.708C68.7796 45.6444 68.9133 45.568 69.0024 45.4789C69.0957 45.3856 69.1551 45.2838 69.1805 45.1735C69.2102 45.0589 69.2251 44.9508 69.2251 44.8489V37.9126H70.4214V44.8044C70.4214 44.9614 70.4448 45.095 70.4914 45.2053C70.5381 45.3156 70.5975 45.4089 70.6696 45.4853C70.746 45.5574 70.8287 45.6147 70.9178 45.6571C71.0111 45.6995 71.1002 45.7314 71.1851 45.7526C71.2699 45.7738 71.3463 45.7865 71.4142 45.7908C71.482 45.795 71.533 45.7971 71.5669 45.7971H71.8914ZM80.1872 44.4544C80.1618 44.4714 80.0515 44.5456 79.8563 44.6771C79.6612 44.8086 79.4003 44.9698 79.0736 45.1608C78.7512 45.3474 78.3736 45.5489 77.9409 45.7653C77.5081 45.9817 77.0415 46.1811 76.5409 46.3635C76.0445 46.5459 75.5248 46.6986 74.9818 46.8217C74.4388 46.9405 73.8957 46.9998 73.3527 46.9998H71.6091V45.7971H73.3527C73.8278 45.7971 74.3072 45.742 74.7909 45.6317C75.2788 45.5171 75.7475 45.3771 76.1972 45.2117C76.6469 45.042 77.0691 44.8595 77.4636 44.6644C77.8581 44.465 78.2039 44.2783 78.5009 44.1044C78.0894 43.9389 77.6778 43.7777 77.2663 43.6208C76.8591 43.4638 76.4857 43.3259 76.1463 43.2071C75.8069 43.0841 75.5142 42.9844 75.2681 42.908C75.0263 42.8317 74.8651 42.7871 74.7845 42.7744C74.7124 42.7744 74.636 42.7808 74.5554 42.7935C74.4791 42.8062 74.4027 42.8444 74.3263 42.908C74.25 42.9717 74.1757 43.0714 74.1036 43.2071C74.0315 43.3386 73.9636 43.5253 73.9 43.7671L72.7354 43.4617C73.0621 42.2059 73.7494 41.578 74.7972 41.578C74.8227 41.578 74.8566 41.5802 74.8991 41.5844C74.9415 41.5844 75.003 41.595 75.0836 41.6162C75.1642 41.6332 75.2724 41.6629 75.4081 41.7053C75.5439 41.7435 75.7157 41.7986 75.9236 41.8708C76.1357 41.9429 76.3924 42.0362 76.6936 42.1508C76.9948 42.2611 77.3554 42.3989 77.7754 42.5644L80.0281 43.398L80.1872 44.4544ZM73.4291 38.9753L74.5109 37.8808L75.6181 38.988L74.5236 40.0826L73.4291 38.9753ZM86.2946 49.3098C86.9352 49.3098 87.474 49.2611 87.911 49.1635C88.3479 49.0659 88.6937 48.9153 88.9482 48.7117C89.1688 48.5335 89.33 48.3065 89.4319 48.0308C89.5379 47.755 89.591 47.4114 89.591 46.9998H88.42C88.1231 46.9998 87.8219 46.9553 87.5164 46.8662C87.211 46.7771 86.9331 46.6308 86.6828 46.4271C86.4367 46.2235 86.2352 45.9583 86.0782 45.6317C85.9213 45.3008 85.8428 44.8977 85.8428 44.4226C85.8428 44.1426 85.8661 43.8902 85.9128 43.6653C85.9637 43.4362 86.0252 43.2326 86.0973 43.0544C86.1737 42.8762 86.2564 42.7214 86.3455 42.5898C86.4346 42.4583 86.5216 42.3459 86.6064 42.2526C86.8397 42.0192 87.107 41.8389 87.4082 41.7117C87.7094 41.5844 88.0319 41.5208 88.3755 41.5208C88.6767 41.5208 88.9588 41.5674 89.2219 41.6608C89.4849 41.7541 89.7203 41.8941 89.9282 42.0808C90.501 42.6153 90.7873 43.4532 90.7873 44.5944V46.9998C90.7873 47.6023 90.6982 48.1198 90.52 48.5526C90.3461 48.9895 90.0746 49.3544 89.7055 49.6471C89.3322 49.9398 88.8676 50.1562 88.3119 50.2962C87.7603 50.4405 87.0879 50.5126 86.2946 50.5126V49.3098ZM88.3755 42.7235C87.9555 42.7235 87.6288 42.872 87.3955 43.1689C87.1622 43.4659 87.0455 43.8838 87.0455 44.4226C87.0455 44.9698 87.211 45.3495 87.5419 45.5617C87.6225 45.6126 87.7052 45.655 87.79 45.6889C87.8749 45.7186 87.9576 45.742 88.0382 45.7589C88.1188 45.7717 88.191 45.7823 88.2546 45.7908C88.3225 45.795 88.3776 45.7971 88.42 45.7971H89.591V44.5944C89.591 44.2847 89.5676 44.0238 89.521 43.8117C89.4743 43.5953 89.4149 43.4171 89.3428 43.2771C89.2706 43.1371 89.1879 43.0311 89.0946 42.9589C89.0055 42.8826 88.9164 42.8274 88.8273 42.7935C88.7382 42.7595 88.6534 42.7405 88.5728 42.7362C88.4922 42.7277 88.4264 42.7235 88.3755 42.7235ZM100.358 50.5253C99.7 50.5253 99.1039 50.3811 98.5694 50.0926C98.0349 49.8083 97.6021 49.4011 97.2712 48.8708C97.0421 48.5102 96.8788 48.1092 96.7812 47.668C96.7006 47.3286 96.6603 46.9723 96.6603 46.5989C96.6603 46.4886 96.6688 46.2808 96.6858 45.9753C96.707 45.6656 96.7961 45.2371 96.953 44.6898C97.11 44.1383 97.3285 43.5698 97.6085 42.9844L98.6903 43.4998C98.4527 43.992 98.2639 44.465 98.1239 44.9189C97.9882 45.3686 97.9033 45.795 97.8694 46.198C97.8567 46.3338 97.8503 46.4653 97.8503 46.5926C97.8503 46.8471 97.8779 47.1165 97.933 47.4008C97.9924 47.6892 98.1091 47.9692 98.283 48.2408C98.5036 48.5844 98.7921 48.8495 99.1485 49.0362C99.5049 49.2271 99.9079 49.3226 100.358 49.3226H101.853C102.341 49.3226 102.738 49.2695 103.043 49.1635C103.353 49.0617 103.592 48.9174 103.762 48.7308C103.936 48.5441 104.053 48.3171 104.112 48.0498C104.176 47.7868 104.208 47.4941 104.208 47.1717V42.698H105.41V47.1717C105.41 48.2917 105.113 49.1295 104.519 49.6853C103.925 50.2453 103.037 50.5253 101.853 50.5253H100.358ZM100.408 42.1953L101.49 41.1008L102.598 42.208L101.503 43.3026L100.408 42.1953ZM108.679 46.9935H107.476V37.9189H108.679V46.9935ZM111.247 49.3098C111.888 49.3098 112.427 49.2611 112.864 49.1635C113.301 49.0659 113.646 48.9153 113.901 48.7117C114.122 48.5335 114.283 48.3065 114.385 48.0308C114.491 47.755 114.544 47.4114 114.544 46.9998H113.373C113.076 46.9998 112.775 46.9553 112.469 46.8662C112.164 46.7771 111.886 46.6308 111.636 46.4271C111.39 46.2235 111.188 45.9583 111.031 45.6317C110.874 45.3008 110.796 44.8977 110.796 44.4226C110.796 44.1426 110.819 43.8902 110.866 43.6653C110.916 43.4362 110.978 43.2326 111.05 43.0544C111.126 42.8762 111.209 42.7214 111.298 42.5898C111.387 42.4583 111.474 42.3459 111.559 42.2526C111.793 42.0192 112.06 41.8389 112.361 41.7117C112.662 41.5844 112.985 41.5208 113.328 41.5208C113.63 41.5208 113.912 41.5674 114.175 41.6608C114.438 41.7541 114.673 41.8941 114.881 42.0808C115.454 42.6153 115.74 43.4532 115.74 44.5944V45.7971H116.695V46.9998H115.74C115.74 47.6023 115.651 48.1198 115.473 48.5526C115.299 48.9895 115.027 49.3544 114.658 49.6471C114.285 49.9398 113.82 50.1562 113.265 50.2962C112.713 50.4405 112.041 50.5126 111.247 50.5126V49.3098ZM113.265 42.7235C112.845 42.7235 112.518 42.872 112.285 43.1689C112.051 43.4659 111.935 43.8838 111.935 44.4226C111.935 44.9698 112.1 45.3495 112.431 45.5617C112.512 45.6126 112.594 45.655 112.679 45.6889C112.764 45.7186 112.847 45.742 112.927 45.7589C113.008 45.7717 113.08 45.7823 113.144 45.7908C113.212 45.795 113.267 45.7971 113.309 45.7971H114.48V44.5944C114.48 44.2847 114.457 44.0238 114.41 43.8117C114.363 43.5953 114.304 43.4171 114.232 43.2771C114.16 43.1371 114.077 43.0311 113.984 42.9589C113.895 42.8826 113.806 42.8274 113.716 42.7935C113.627 42.7595 113.543 42.7405 113.462 42.7362C113.381 42.7277 113.316 42.7235 113.265 42.7235ZM125.017 44.4544C124.992 44.4714 124.882 44.5456 124.686 44.6771C124.491 44.8086 124.23 44.9698 123.904 45.1608C123.581 45.3474 123.204 45.5489 122.771 45.7653C122.338 45.9817 121.872 46.1811 121.371 46.3635C120.875 46.5459 120.355 46.6986 119.812 46.8217C119.269 46.9405 118.726 46.9998 118.183 46.9998H116.439V45.7971H118.183C118.658 45.7971 119.137 45.742 119.621 45.6317C120.109 45.5171 120.578 45.3771 121.027 45.2117C121.477 45.042 121.899 44.8595 122.294 44.6644C122.688 44.465 123.034 44.2783 123.331 44.1044C122.919 43.9389 122.508 43.7777 122.096 43.6208C121.689 43.4638 121.316 43.3259 120.976 43.2071C120.637 43.0841 120.344 42.9844 120.098 42.908C119.856 42.8317 119.695 42.7871 119.615 42.7744C119.542 42.7744 119.466 42.7808 119.385 42.7935C119.309 42.8062 119.233 42.8444 119.156 42.908C119.08 42.9717 119.006 43.0714 118.934 43.2071C118.862 43.3386 118.794 43.5253 118.73 43.7671L117.565 43.4617C117.892 42.2059 118.579 41.578 119.627 41.578C119.653 41.578 119.687 41.5802 119.729 41.5844C119.772 41.5844 119.833 41.595 119.914 41.6162C119.994 41.6332 120.102 41.6629 120.238 41.7053C120.374 41.7435 120.546 41.7986 120.754 41.8708C120.966 41.9429 121.222 42.0362 121.524 42.1508C121.825 42.2611 122.185 42.3989 122.605 42.5644L124.858 43.398L125.017 44.4544ZM119.767 49.278L120.849 48.1835L121.956 49.2908L120.862 50.3853L119.767 49.278ZM139.378 46.9998C139.018 46.9998 138.7 46.9468 138.424 46.8408C138.152 46.7347 137.906 46.5798 137.686 46.3762C137.571 46.5205 137.45 46.6371 137.323 46.7262C137.196 46.8111 137.068 46.8789 136.941 46.9298C136.814 46.9765 136.691 47.0062 136.572 47.0189C136.457 47.0359 136.358 47.0444 136.273 47.0444C136.201 47.0444 136.107 47.0338 135.993 47.0126C135.878 46.9914 135.723 46.9468 135.528 46.8789C135.333 46.8111 135.087 46.7135 134.79 46.5862C134.493 46.4589 134.126 46.2871 133.689 46.0708C133.396 45.9265 133.121 45.7886 132.862 45.6571C132.607 45.5214 132.4 45.4089 132.238 45.3198V51.1998H131.042V44.6071L132.2 43.9326C132.323 44.0005 132.45 44.0705 132.582 44.1426C132.692 44.202 132.811 44.2677 132.938 44.3398C133.07 44.412 133.197 44.4777 133.32 44.5371C133.384 44.1553 133.456 43.8117 133.536 43.5062C133.621 43.1965 133.725 42.9186 133.848 42.6726C134.26 41.8453 134.909 41.4317 135.796 41.4317C136.19 41.4317 136.538 41.5123 136.839 41.6735C137.145 41.8305 137.399 42.0405 137.603 42.3035C137.811 42.5665 137.968 42.872 138.074 43.2198C138.18 43.5677 138.233 43.9283 138.233 44.3017C138.233 44.3738 138.231 44.4438 138.226 44.5117C138.226 44.5753 138.224 44.6368 138.22 44.6962C138.22 44.9295 138.267 45.1183 138.36 45.2626C138.458 45.4068 138.57 45.5192 138.697 45.5998C138.825 45.6762 138.952 45.7292 139.079 45.7589C139.211 45.7844 139.31 45.7971 139.378 45.7971H139.588V46.9998H139.378ZM134.383 45.0398C134.743 45.218 135.043 45.3602 135.28 45.4662C135.522 45.568 135.715 45.6486 135.859 45.708C136.003 45.7632 136.105 45.7992 136.165 45.8162C136.228 45.8332 136.264 45.8417 136.273 45.8417C136.32 45.8417 136.387 45.8332 136.476 45.8162C136.57 45.7992 136.661 45.7441 136.75 45.6508C136.843 45.5532 136.924 45.4005 136.992 45.1926C137.06 44.9847 137.094 44.6877 137.094 44.3017C137.094 44.255 137.087 44.1808 137.075 44.0789C137.066 43.9771 137.047 43.8647 137.017 43.7417C136.988 43.6186 136.943 43.4914 136.884 43.3598C136.829 43.2283 136.752 43.1095 136.655 43.0035C136.557 42.8932 136.438 42.8041 136.298 42.7362C136.158 42.6641 135.991 42.628 135.796 42.628C135.63 42.628 135.477 42.6556 135.337 42.7108C135.202 42.7617 135.076 42.872 134.962 43.0417C134.847 43.2114 134.741 43.4553 134.644 43.7735C134.55 44.0917 134.463 44.5138 134.383 45.0398ZM146.289 45.7971V46.9998H145.175C144.789 46.9998 144.447 46.9447 144.15 46.8344C143.858 46.7241 143.622 46.5586 143.444 46.338C143.003 46.7792 142.35 46.9998 141.484 46.9998H139.32V45.7971H141.484C141.79 45.7971 142.031 45.7674 142.21 45.708C142.388 45.6444 142.521 45.568 142.61 45.4789C142.704 45.3856 142.763 45.2838 142.789 45.1735C142.818 45.0589 142.833 44.9508 142.833 44.8489V42.698H144.03V44.8044C144.03 44.9614 144.053 45.095 144.1 45.2053C144.15 45.3156 144.212 45.4089 144.284 45.4853C144.356 45.5574 144.437 45.6147 144.526 45.6571C144.619 45.6995 144.708 45.7314 144.793 45.7526C144.878 45.7738 144.954 45.7865 145.022 45.7908C145.09 45.795 145.141 45.7971 145.175 45.7971H146.289ZM144.532 49.4626L143.501 50.4935L142.509 49.4626L143.514 48.4444L144.532 49.4626ZM142.095 49.4753L141.064 50.5062L140.071 49.4753L141.077 48.4571L142.095 49.4753ZM150.434 41.8198C150.443 41.8453 150.46 41.9132 150.485 42.0235C150.51 42.1338 150.538 42.2717 150.568 42.4371C150.602 42.5983 150.638 42.7786 150.676 42.978C150.714 43.1732 150.748 43.3726 150.778 43.5762C150.807 43.7756 150.833 43.9686 150.854 44.1553C150.875 44.342 150.886 44.5053 150.886 44.6453C150.886 45.0526 150.818 45.4047 150.682 45.7017C150.551 45.9944 150.377 46.2383 150.16 46.4335C149.948 46.6244 149.709 46.7665 149.441 46.8598C149.174 46.9532 148.905 46.9998 148.633 46.9998H145.999V45.7971H148.633C148.697 45.7971 148.786 45.7886 148.9 45.7717C149.019 45.7505 149.136 45.7017 149.25 45.6253C149.369 45.5489 149.471 45.4344 149.556 45.2817C149.645 45.1289 149.69 44.9168 149.69 44.6453C149.69 44.552 149.681 44.4353 149.664 44.2953C149.651 44.1511 149.632 43.9983 149.607 43.8371C149.586 43.6717 149.56 43.5041 149.53 43.3344C149.501 43.1605 149.471 42.9971 149.441 42.8444C149.412 42.6917 149.384 42.5559 149.359 42.4371C149.333 42.3183 149.312 42.2292 149.295 42.1698L150.434 41.8198ZM150.32 40.4708L149.314 39.4526L150.307 38.4217L151.338 39.4526L150.32 40.4708ZM147.882 40.458L146.877 39.4398L147.87 38.4089L148.9 39.4398L147.882 40.458ZM156.119 50.5317V49.3289H156.997C157.434 49.3289 157.812 49.2759 158.13 49.1698C158.452 49.068 158.718 48.9089 158.926 48.6926C159.138 48.4762 159.292 48.2005 159.39 47.8653C159.492 47.5302 159.543 47.1314 159.543 46.6689V42.698H160.746V46.6689C160.746 47.2756 160.665 47.8165 160.504 48.2917C160.347 48.7711 160.111 49.1762 159.797 49.5071C159.483 49.838 159.091 50.0905 158.62 50.2644C158.153 50.4426 157.612 50.5317 156.997 50.5317H156.119ZM165.416 46.9998C164.971 46.9956 164.602 46.9659 164.309 46.9108C164.021 46.8514 163.775 46.7686 163.571 46.6626C163.372 46.5523 163.21 46.4165 163.087 46.2553C162.969 46.0898 162.875 45.8989 162.807 45.6826C162.739 45.462 162.695 45.2159 162.674 44.9444C162.652 44.6729 162.642 44.3717 162.642 44.0408V37.9189H163.845V44.0408C163.845 44.4098 163.855 44.7089 163.876 44.938C163.902 45.1671 163.963 45.3453 164.061 45.4726C164.163 45.5956 164.313 45.6805 164.513 45.7271C164.716 45.7695 165.018 45.7929 165.416 45.7971V46.9998ZM170.575 45.7971V46.9998H170.078C169.692 46.9998 169.351 46.9447 169.054 46.8344C168.761 46.7241 168.526 46.5586 168.348 46.338C167.906 46.7792 167.253 46.9998 166.388 46.9998H165.166V45.7971H166.388C166.693 45.7971 166.935 45.7674 167.113 45.708C167.291 45.6444 167.425 45.568 167.514 45.4789C167.607 45.3856 167.667 45.2838 167.692 45.1735C167.722 45.0589 167.737 44.9508 167.737 44.8489V42.698H168.933V44.8044C168.933 44.9614 168.956 45.095 169.003 45.2053C169.05 45.3156 169.109 45.4089 169.181 45.4853C169.258 45.5574 169.34 45.6147 169.429 45.6571C169.523 45.6995 169.612 45.7314 169.697 45.7526C169.781 45.7738 169.858 45.7865 169.926 45.7908C169.994 45.795 170.044 45.7971 170.078 45.7971H170.575ZM166.788 39.7644L167.87 38.6698L168.978 39.7771L167.883 40.8717L166.788 39.7644ZM170.301 46.9998V45.7971H174.03C174.335 45.7971 174.588 45.7632 174.787 45.6953C174.991 45.6232 175.122 45.5256 175.182 45.4026C175.212 45.3389 175.226 45.2668 175.226 45.1862C175.226 45.1141 175.205 45.0123 175.163 44.8808C175.125 44.745 175.04 44.5689 174.908 44.3526C174.777 44.132 174.615 43.9008 174.425 43.6589C174.234 43.4171 174.028 43.1753 173.807 42.9335C173.587 42.6917 173.36 42.4562 173.126 42.2271C172.893 41.9938 172.668 41.7795 172.452 41.5844C172.235 41.385 172.038 41.2111 171.86 41.0626C171.682 40.9098 171.535 40.7932 171.421 40.7126L171.542 39.3571L177.365 36.7989L177.848 37.8935L172.751 40.1208C172.878 40.248 173.042 40.4092 173.241 40.6044C173.44 40.7953 173.657 41.0095 173.89 41.2471C174.123 41.4805 174.361 41.7308 174.603 41.998C174.845 42.2611 175.074 42.5262 175.29 42.7935C175.506 43.0608 175.697 43.3238 175.863 43.5826C176.032 43.8371 176.158 44.0726 176.238 44.2889C176.31 44.4756 176.361 44.6495 176.391 44.8108C176.412 44.9508 176.423 45.078 176.423 45.1926C176.423 45.2138 176.421 45.2626 176.416 45.3389C176.416 45.4153 176.402 45.5065 176.372 45.6126C176.346 45.7186 176.317 45.8098 176.283 45.8862C176.236 45.9923 176.164 46.1111 176.066 46.2426C175.969 46.3698 175.831 46.4908 175.653 46.6053C175.479 46.7156 175.26 46.8089 174.997 46.8853C174.734 46.9617 174.412 46.9998 174.03 46.9998H170.301ZM182.273 50.5317V49.3289H183.152C183.589 49.3289 183.966 49.2759 184.284 49.1698C184.607 49.068 184.872 48.9089 185.08 48.6926C185.292 48.4762 185.447 48.2005 185.544 47.8653C185.646 47.5302 185.697 47.1314 185.697 46.6689V42.698H186.9V46.6689C186.9 47.2756 186.819 47.8165 186.658 48.2917C186.501 48.7711 186.266 49.1762 185.952 49.5071C185.638 49.838 185.245 50.0905 184.774 50.2644C184.308 50.4426 183.767 50.5317 183.152 50.5317H182.273ZM190.979 47.0953C190.763 47.0953 190.544 47.0847 190.323 47.0635C190.103 47.0465 189.886 47.0189 189.674 46.9808C189.466 46.9383 189.265 46.8853 189.07 46.8217C188.879 46.7538 188.705 46.6732 188.548 46.5798L188.02 46.2808L188.618 45.2308L189.146 45.5298C189.295 45.6147 189.477 45.6847 189.693 45.7398C189.91 45.7908 190.139 45.8268 190.381 45.848C190.589 45.8692 190.796 45.8798 191.004 45.8798C191.043 45.8798 191.132 45.8798 191.272 45.8798C191.412 45.8756 191.586 45.8586 191.793 45.8289C192.039 45.7908 192.241 45.7377 192.398 45.6698C192.559 45.5977 192.661 45.5171 192.703 45.428C192.72 45.3856 192.729 45.3389 192.729 45.288C192.729 45.2159 192.708 45.1162 192.665 44.9889C192.623 44.8574 192.534 44.6898 192.398 44.4862L190.094 41.0053L191.113 40.3435C191.168 40.4283 191.225 40.5174 191.284 40.6108C191.344 40.6998 191.414 40.8059 191.494 40.9289C191.575 41.0477 191.668 41.1898 191.774 41.3553C191.88 41.5165 192.01 41.7117 192.163 41.9408C192.315 42.1698 192.493 42.4371 192.697 42.7426C192.901 43.048 193.138 43.4044 193.41 43.8117C193.516 43.9729 193.611 44.1426 193.696 44.3208C193.781 44.4947 193.845 44.6708 193.887 44.8489C193.925 45.0102 193.944 45.1714 193.944 45.3326C193.944 45.3495 193.942 45.4089 193.938 45.5108C193.934 45.6083 193.891 45.7441 193.811 45.918C193.543 46.5162 192.928 46.8853 191.965 47.0253C191.817 47.0465 191.66 47.0635 191.494 47.0762C191.329 47.0889 191.157 47.0953 190.979 47.0953ZM198.83 50.5317V49.3289H199.708C200.145 49.3289 200.523 49.2759 200.841 49.1698C201.163 49.068 201.429 48.9089 201.636 48.6926C201.849 48.4762 202.003 48.2005 202.101 47.8653C202.203 47.5302 202.254 47.1314 202.254 46.6689V42.698H203.456V46.6689C203.456 47.2756 203.376 47.8165 203.215 48.2917C203.058 48.7711 202.822 49.1762 202.508 49.5071C202.194 49.838 201.802 50.0905 201.331 50.2644C200.864 50.4426 200.323 50.5317 199.708 50.5317H198.83ZM205.693 49.3098C206.333 49.3098 206.872 49.2611 207.309 49.1635C207.746 49.0659 208.092 48.9153 208.346 48.7117C208.567 48.5335 208.728 48.3065 208.83 48.0308C208.936 47.755 208.989 47.4114 208.989 46.9998H207.818C207.521 46.9998 207.22 46.9553 206.915 46.8662C206.609 46.7771 206.331 46.6308 206.081 46.4271C205.835 46.2235 205.633 45.9583 205.476 45.6317C205.319 45.3008 205.241 44.8977 205.241 44.4226C205.241 44.1426 205.264 43.8902 205.311 43.6653C205.362 43.4362 205.423 43.2326 205.495 43.0544C205.572 42.8762 205.655 42.7214 205.744 42.5898C205.833 42.4583 205.92 42.3459 206.005 42.2526C206.238 42.0192 206.505 41.8389 206.806 41.7117C207.108 41.5844 207.43 41.5208 207.774 41.5208C208.075 41.5208 208.357 41.5674 208.62 41.6608C208.883 41.7541 209.118 41.8941 209.326 42.0808C209.899 42.6153 210.185 43.4532 210.185 44.5944V45.7971H211.14V46.9998H210.185C210.185 47.6023 210.096 48.1198 209.918 48.5526C209.744 48.9895 209.473 49.3544 209.104 49.6471C208.73 49.9398 208.266 50.1562 207.71 50.2962C207.158 50.4405 206.486 50.5126 205.693 50.5126V49.3098ZM207.71 42.7235C207.29 42.7235 206.963 42.872 206.73 43.1689C206.497 43.4659 206.38 43.8838 206.38 44.4226C206.38 44.9698 206.545 45.3495 206.876 45.5617C206.957 45.6126 207.04 45.655 207.125 45.6889C207.209 45.7186 207.292 45.742 207.373 45.7589C207.453 45.7717 207.525 45.7823 207.589 45.7908C207.657 45.795 207.712 45.7971 207.755 45.7971H208.925V44.5944C208.925 44.2847 208.902 44.0238 208.855 43.8117C208.809 43.5953 208.749 43.4171 208.677 43.2771C208.605 43.1371 208.522 43.0311 208.429 42.9589C208.34 42.8826 208.251 42.8274 208.162 42.7935C208.073 42.7595 207.988 42.7405 207.907 42.7362C207.827 42.7277 207.761 42.7235 207.71 42.7235ZM210.878 46.9998V45.7971H211.979C212.276 45.7971 212.514 45.7674 212.692 45.708C212.87 45.6486 213.006 45.5744 213.099 45.4853C213.192 45.392 213.254 45.2902 213.284 45.1798C213.313 45.0695 213.328 44.9614 213.328 44.8553V42.698H214.524V44.8044C214.524 45.042 214.573 45.2265 214.671 45.358C214.773 45.4895 214.887 45.5871 215.014 45.6508C215.065 45.5702 215.114 45.4895 215.161 45.4089C215.212 45.3241 215.263 45.2392 215.314 45.1544C215.479 44.8829 215.651 44.6071 215.829 44.3271C216.011 44.0429 216.202 43.7671 216.402 43.4998C216.601 43.2283 216.809 42.9738 217.025 42.7362C217.246 42.4986 217.479 42.2929 217.725 42.1189C217.971 41.9408 218.232 41.8008 218.508 41.6989C218.784 41.5929 219.077 41.5398 219.386 41.5398C219.696 41.5398 219.999 41.5971 220.296 41.7117C220.597 41.822 220.865 41.9959 221.098 42.2335C221.331 42.4668 221.518 42.7659 221.658 43.1308C221.802 43.4956 221.874 43.9305 221.874 44.4353C221.874 44.7153 221.845 44.9677 221.785 45.1926C221.73 45.4174 221.654 45.6189 221.556 45.7971H222.867V46.9998H215.67C215.364 46.9998 215.076 46.9553 214.804 46.8662C214.533 46.7729 214.293 46.6414 214.085 46.4717C214.034 46.4335 213.986 46.3911 213.939 46.3444C213.718 46.5608 213.449 46.722 213.131 46.828C212.817 46.9341 212.448 46.9914 212.024 46.9998H210.878ZM219.38 45.7971C219.477 45.7929 219.601 45.7759 219.749 45.7462C219.902 45.7165 220.048 45.6571 220.188 45.568C220.349 45.4577 220.472 45.3114 220.557 45.1289C220.646 44.9423 220.691 44.7111 220.691 44.4353C220.691 43.8923 220.574 43.4744 220.341 43.1817C220.107 42.8847 219.789 42.7362 219.386 42.7362C219.187 42.7362 218.994 42.7808 218.807 42.8698C218.621 42.9547 218.436 43.0714 218.254 43.2198C218.075 43.3683 217.901 43.5423 217.732 43.7417C217.562 43.9411 217.397 44.1532 217.235 44.378C217.078 44.6029 216.924 44.8362 216.771 45.078C216.622 45.3156 216.478 45.5468 216.338 45.7717L216.325 45.7971H219.38ZM218.279 39.0898L219.361 37.9953L220.468 39.1026L219.374 40.1971L218.279 39.0898ZM231.193 44.4544C231.168 44.4714 231.057 44.5456 230.862 44.6771C230.667 44.8086 230.406 44.9698 230.079 45.1608C229.757 45.3474 229.379 45.5489 228.947 45.7653C228.514 45.9817 228.047 46.1811 227.547 46.3635C227.05 46.5459 226.531 46.6986 225.988 46.8217C225.445 46.9405 224.902 46.9998 224.359 46.9998H222.615V45.7971H224.359C224.834 45.7971 225.313 45.742 225.797 45.6317C226.285 45.5171 226.753 45.3771 227.203 45.2117C227.653 45.042 228.075 44.8595 228.469 44.6644C228.864 44.465 229.21 44.2783 229.507 44.1044C229.095 43.9389 228.684 43.7777 228.272 43.6208C227.865 43.4638 227.492 43.3259 227.152 43.2071C226.813 43.0841 226.52 42.9844 226.274 42.908C226.032 42.8317 225.871 42.7871 225.79 42.7744C225.718 42.7744 225.642 42.7808 225.561 42.7935C225.485 42.8062 225.409 42.8444 225.332 42.908C225.256 42.9717 225.182 43.0714 225.109 43.2071C225.037 43.3386 224.969 43.5253 224.906 43.7671L223.741 43.4617C224.068 42.2059 224.755 41.578 225.803 41.578C225.829 41.578 225.862 41.5802 225.905 41.5844C225.947 41.5844 226.009 41.595 226.089 41.6162C226.17 41.6332 226.278 41.6629 226.414 41.7053C226.55 41.7435 226.722 41.7986 226.929 41.8708C227.142 41.9429 227.398 42.0362 227.699 42.1508C228.001 42.2611 228.361 42.3989 228.781 42.5644L231.034 43.398L231.193 44.4544ZM242.01 49.2971C242.434 49.2971 242.801 49.2589 243.11 49.1826C243.424 49.1105 243.683 48.9938 243.887 48.8326C244.09 48.6714 244.241 48.4614 244.339 48.2026C244.436 47.9438 244.485 47.6298 244.485 47.2608C244.078 47.1547 243.679 47.0486 243.289 46.9426C243.123 46.9002 242.949 46.8556 242.767 46.8089C242.584 46.758 242.402 46.7092 242.22 46.6626C242.041 46.6117 241.865 46.565 241.691 46.5226C241.522 46.4802 241.365 46.4398 241.22 46.4017C241.034 45.9477 240.94 45.5002 240.94 45.0589C240.94 45.0335 240.943 44.8977 240.947 44.6517C240.955 44.4056 241.047 44.0811 241.22 43.678C241.394 43.275 241.64 42.9144 241.959 42.5962C242.277 42.2738 242.644 42.0171 243.06 41.8262C243.475 41.6353 243.929 41.5186 244.421 41.4762C244.519 41.4677 244.619 41.4635 244.72 41.4635C245.119 41.4635 245.529 41.525 245.949 41.648L245.65 42.7998C245.361 42.7108 245.068 42.6683 244.771 42.6726C244.474 42.6726 244.188 42.715 243.912 42.7998C243.641 42.8805 243.388 42.9992 243.155 43.1562C242.922 43.3132 242.722 43.502 242.557 43.7226C242.396 43.9389 242.279 44.1829 242.207 44.4544C242.156 44.6326 242.13 44.8171 242.13 45.008C242.13 45.1183 242.139 45.2286 242.156 45.3389L244.593 45.9435C244.933 46.0368 245.187 46.1895 245.357 46.4017C245.527 46.6138 245.611 46.8726 245.611 47.178C245.611 47.7338 245.546 48.2195 245.414 48.6353C245.283 49.0553 245.073 49.4032 244.784 49.6789C244.496 49.9547 244.122 50.1626 243.664 50.3026C243.21 50.4426 242.659 50.5126 242.01 50.5126H240.603C240.281 50.5126 239.969 50.4723 239.668 50.3917C239.367 50.3111 239.082 50.1986 238.815 50.0544C238.548 49.9102 238.302 49.7362 238.077 49.5326C237.852 49.3289 237.655 49.1041 237.485 48.858C237.286 48.5356 237.135 48.1814 237.033 47.7953C236.931 47.4092 236.88 47.002 236.88 46.5735C236.88 46.0432 236.963 45.4726 237.129 44.8617C237.298 44.2465 237.544 43.5974 237.867 42.9144C238.058 43.0035 238.236 43.0905 238.401 43.1753C238.567 43.2559 238.741 43.3408 238.923 43.4298C238.363 44.6262 238.083 45.6635 238.083 46.5417C238.083 46.8556 238.121 47.1547 238.198 47.4389C238.274 47.7232 238.38 47.9798 238.516 48.2089C238.732 48.5483 239.025 48.8135 239.394 49.0044C239.763 49.1995 240.166 49.2971 240.603 49.2971H242.01ZM249.184 46.9935H247.982V37.9189H249.184V46.9935ZM254.896 46.9998H254.622C254.215 46.9998 253.839 46.9192 253.496 46.758C253.496 47.352 253.413 47.8823 253.247 48.3489C253.082 48.8156 252.84 49.2102 252.522 49.5326C252.204 49.8592 251.811 50.1074 251.345 50.2771C250.882 50.4468 250.35 50.5317 249.747 50.5317H248.869V49.3289H249.747C250.184 49.3289 250.562 49.2759 250.88 49.1698C251.202 49.068 251.468 48.9089 251.676 48.6926C251.888 48.4762 252.042 48.2005 252.14 47.8653C252.242 47.5302 252.293 47.1314 252.293 46.6689V42.698H253.496V44.8044C253.496 45.042 253.544 45.2286 253.642 45.3644C253.744 45.4959 253.86 45.5935 253.992 45.6571C254.123 45.7208 254.249 45.7611 254.367 45.778C254.49 45.7908 254.575 45.7971 254.622 45.7971H254.896V46.9998ZM258.058 41.8198C258.067 41.8453 258.084 41.9132 258.109 42.0235C258.134 42.1338 258.162 42.2717 258.192 42.4371C258.226 42.5983 258.262 42.7786 258.3 42.978C258.338 43.1732 258.372 43.3726 258.402 43.5762C258.431 43.7756 258.457 43.9686 258.478 44.1553C258.499 44.342 258.51 44.5053 258.51 44.6453C258.51 45.0526 258.442 45.4047 258.306 45.7017C258.175 45.9944 258.001 46.2383 257.784 46.4335C257.572 46.6244 257.333 46.7665 257.065 46.8598C256.798 46.9532 256.529 46.9998 256.257 46.9998H254.634V45.7971H256.257C256.321 45.7971 256.41 45.7886 256.524 45.7717C256.643 45.7505 256.76 45.7017 256.874 45.6253C256.993 45.5489 257.095 45.4344 257.18 45.2817C257.269 45.1289 257.314 44.9168 257.314 44.6453C257.314 44.552 257.305 44.4353 257.288 44.2953C257.275 44.1511 257.256 43.9983 257.231 43.8371C257.21 43.6717 257.184 43.5041 257.154 43.3344C257.125 43.1605 257.095 42.9971 257.065 42.8444C257.036 42.6917 257.008 42.5559 256.983 42.4371C256.957 42.3183 256.936 42.2292 256.919 42.1698L258.058 41.8198ZM255.856 49.3098L256.938 48.2153L258.045 49.3226L256.951 50.4171L255.856 49.3098ZM139.674 70.338C139.674 70.1174 139.738 69.935 139.865 69.7908C139.996 69.6423 140.191 69.568 140.45 69.568C140.709 69.568 140.906 69.6423 141.042 69.7908C141.178 69.935 141.246 70.1174 141.246 70.338C141.246 70.5459 141.178 70.722 141.042 70.8662C140.906 71.0062 140.709 71.0762 140.45 71.0762C140.191 71.0762 139.996 71.0062 139.865 70.8662C139.738 70.722 139.674 70.5459 139.674 70.338ZM150.415 69.7971V70.9998H150.18C149.548 70.9998 148.964 70.7368 148.43 70.2108C148.112 70.6392 147.554 70.9108 146.756 71.0253C146.608 71.0465 146.451 71.0635 146.285 71.0762C146.12 71.0889 145.948 71.0953 145.77 71.0953C145.553 71.0953 145.335 71.0847 145.114 71.0635C144.894 71.0465 144.677 71.0189 144.465 70.9808C144.257 70.9383 144.056 70.8853 143.861 70.8217C143.666 70.7538 143.489 70.6753 143.333 70.5862L142.811 70.2808L143.409 69.2308L143.937 69.5362C144.086 69.6211 144.266 69.6911 144.478 69.7462C144.694 69.7971 144.923 69.8332 145.165 69.8544C145.348 69.8714 145.53 69.8798 145.713 69.8798C145.776 69.8798 145.884 69.8798 146.037 69.8798C146.19 69.8756 146.372 69.8586 146.584 69.8289C146.83 69.7908 147.032 69.7377 147.189 69.6698C147.35 69.5977 147.452 69.5171 147.494 69.428C147.533 69.3856 147.552 69.3326 147.552 69.2689C147.552 69.2265 147.537 69.1586 147.507 69.0653C147.477 68.9677 147.412 68.8405 147.31 68.6835L144.923 65.0498L145.935 64.388L148.404 68.1553C148.532 68.3377 148.659 68.5265 148.786 68.7217C148.918 68.9126 149.056 69.0886 149.2 69.2498C149.344 69.4068 149.495 69.5383 149.652 69.6444C149.813 69.7462 149.989 69.7971 150.18 69.7971H150.415ZM157.103 69.7971V70.9998H155.989C155.603 70.9998 155.262 70.9447 154.965 70.8344C154.672 70.7241 154.437 70.5586 154.259 70.338C153.817 70.7792 153.164 70.9998 152.299 70.9998H150.135V69.7971H152.299C152.604 69.7971 152.846 69.7674 153.024 69.708C153.202 69.6444 153.336 69.568 153.425 69.4789C153.518 69.3856 153.578 69.2838 153.603 69.1735C153.633 69.0589 153.648 68.9508 153.648 68.8489V66.698H154.844V68.8044C154.844 68.9614 154.867 69.095 154.914 69.2053C154.965 69.3156 155.026 69.4089 155.099 69.4853C155.171 69.5574 155.251 69.6147 155.34 69.6571C155.434 69.6995 155.523 69.7314 155.608 69.7526C155.692 69.7738 155.769 69.7865 155.837 69.7908C155.905 69.795 155.955 69.7971 155.989 69.7971H157.103ZM155.347 73.4626L154.316 74.4935L153.323 73.4626L154.329 72.4444L155.347 73.4626ZM152.909 73.4753L151.879 74.5062L150.886 73.4753L151.891 72.4571L152.909 73.4753ZM161.789 70.9871C161.391 70.9871 161.036 70.9298 160.727 70.8153C160.417 70.6965 160.156 70.5268 159.944 70.3062C159.723 70.5438 159.467 70.7198 159.174 70.8344C158.881 70.9447 158.586 70.9998 158.289 70.9998H156.826V69.7971H158.289C158.353 69.7971 158.444 69.7886 158.563 69.7717C158.682 69.7505 158.799 69.7017 158.913 69.6253C159.028 69.5447 159.127 69.4259 159.212 69.2689C159.301 69.112 159.346 68.8977 159.346 68.6262V66.698H160.549V68.6008C160.549 69.0123 160.644 69.3135 160.835 69.5044C161.03 69.6953 161.348 69.7908 161.789 69.7908C161.853 69.7908 161.942 69.7802 162.057 69.7589C162.176 69.7335 162.292 69.6805 162.407 69.5998C162.526 69.5192 162.627 69.4005 162.712 69.2435C162.801 69.0865 162.846 68.8723 162.846 68.6008V66.698H164.042V68.6008C164.042 69.0123 164.142 69.3156 164.341 69.5108C164.541 69.7059 164.861 69.8035 165.302 69.8035C165.37 69.8035 165.461 69.7908 165.576 69.7653C165.69 69.7356 165.803 69.6783 165.913 69.5935C166.028 69.5086 166.125 69.3877 166.206 69.2308C166.286 69.0738 166.327 68.8638 166.327 68.6008C166.327 68.5074 166.318 68.3908 166.301 68.2508C166.289 68.1108 166.269 67.9602 166.244 67.7989C166.223 67.6377 166.197 67.4744 166.168 67.3089C166.138 67.1392 166.108 66.9823 166.079 66.838C166.049 66.6895 166.021 66.558 165.996 66.4435C165.97 66.3247 165.949 66.2377 165.932 66.1826L167.071 65.8198C167.08 65.8453 167.097 65.9132 167.122 66.0235C167.148 66.1295 167.177 66.2632 167.211 66.4244C167.245 66.5814 167.279 66.7574 167.313 66.9526C167.351 67.1477 167.385 67.345 167.415 67.5444C167.449 67.7395 167.476 67.9305 167.498 68.1171C167.519 68.2995 167.529 68.4608 167.529 68.6008C167.529 69.0038 167.464 69.3559 167.332 69.6571C167.201 69.9541 167.029 70.2023 166.817 70.4017C166.609 70.5968 166.371 70.7453 166.104 70.8471C165.837 70.9447 165.569 70.9956 165.302 70.9998C164.895 70.9998 164.534 70.9405 164.22 70.8217C163.911 70.6986 163.648 70.5226 163.431 70.2935C163.211 70.5268 162.954 70.7008 162.661 70.8153C162.373 70.9298 162.082 70.9871 161.789 70.9871ZM164.405 62.0844L163.501 62.9689L162.61 62.0844L163.527 61.1744L164.405 62.0844ZM164.717 64.9608L163.711 63.9426L164.704 62.9117L165.735 63.9426L164.717 64.9608ZM162.279 64.948L161.274 63.9298L162.267 62.8989L163.298 63.9298L162.279 64.948ZM172.321 70.9998C171.875 70.9956 171.506 70.9659 171.213 70.9108C170.925 70.8514 170.679 70.7686 170.475 70.6626C170.276 70.5523 170.115 70.4165 169.992 70.2553C169.873 70.0898 169.779 69.8989 169.712 69.6826C169.644 69.462 169.599 69.2159 169.578 68.9444C169.557 68.6729 169.546 68.3717 169.546 68.0408V61.9189H170.749V68.0408C170.749 68.4098 170.759 68.7089 170.781 68.938C170.806 69.1671 170.868 69.3453 170.965 69.4726C171.067 69.5956 171.218 69.6805 171.417 69.7271C171.621 69.7695 171.922 69.7929 172.321 69.7971V70.9998ZM175.494 65.8198C175.502 65.8453 175.519 65.9132 175.545 66.0235C175.57 66.1338 175.598 66.2717 175.627 66.4371C175.661 66.5983 175.697 66.7786 175.735 66.978C175.774 67.1732 175.808 67.3726 175.837 67.5762C175.867 67.7756 175.892 67.9686 175.914 68.1553C175.935 68.342 175.945 68.5053 175.945 68.6453C175.945 69.0526 175.878 69.4047 175.742 69.7017C175.61 69.9944 175.436 70.2383 175.22 70.4335C175.008 70.6244 174.768 70.7665 174.501 70.8598C174.234 70.9532 173.964 70.9998 173.693 70.9998H172.07V69.7971H173.693C173.756 69.7971 173.845 69.7886 173.96 69.7717C174.079 69.7505 174.195 69.7017 174.31 69.6253C174.429 69.5489 174.531 69.4344 174.615 69.2817C174.705 69.1289 174.749 68.9168 174.749 68.6453C174.749 68.552 174.741 68.4353 174.724 68.2953C174.711 68.1511 174.692 67.9983 174.666 67.8371C174.645 67.6717 174.62 67.5041 174.59 67.3344C174.56 67.1605 174.531 66.9971 174.501 66.8444C174.471 66.6917 174.444 66.5559 174.418 66.4371C174.393 66.3183 174.372 66.2292 174.355 66.1698L175.494 65.8198ZM173.292 73.3098L174.374 72.2153L175.481 73.3226L174.386 74.4171L173.292 73.3098ZM181.419 70.9998V69.7971H182.844C182.95 69.6359 183.054 69.4662 183.156 69.288C183.258 69.1098 183.364 68.938 183.474 68.7726V61.9189H184.671V67.0544C184.853 66.838 185.042 66.6365 185.237 66.4498C185.436 66.2589 185.644 66.0956 185.861 65.9598C186.081 65.8241 186.31 65.718 186.548 65.6417C186.79 65.5611 187.042 65.5208 187.305 65.5208C187.615 65.5208 187.92 65.578 188.222 65.6926C188.523 65.8071 188.79 65.9832 189.023 66.2208C189.261 66.4583 189.452 66.7595 189.596 67.1244C189.74 67.4892 189.813 67.922 189.813 68.4226C189.813 68.7408 189.776 69.025 189.704 69.2753C189.632 69.5256 189.533 69.7462 189.405 69.9371C189.282 70.128 189.136 70.2914 188.966 70.4271C188.801 70.5586 188.623 70.6689 188.432 70.758C188.241 70.8429 188.041 70.9044 187.833 70.9426C187.63 70.9808 187.43 70.9998 187.235 70.9998H181.419ZM187.235 69.7971C187.273 69.7971 187.324 69.795 187.388 69.7908C187.456 69.7865 187.53 69.7759 187.611 69.7589C187.691 69.742 187.774 69.7186 187.859 69.6889C187.948 69.6592 188.033 69.6189 188.113 69.568C188.283 69.4577 188.408 69.3092 188.489 69.1226C188.569 68.9359 188.61 68.7026 188.61 68.4226C188.61 67.8838 188.495 67.4659 188.266 67.1689C188.037 66.8677 187.717 66.7171 187.305 66.7171C187.11 66.7171 186.919 66.7617 186.733 66.8508C186.546 66.9356 186.361 67.0544 186.179 67.2071C186.001 67.3556 185.827 67.5317 185.657 67.7353C185.487 67.9347 185.322 68.1489 185.161 68.378C185.004 68.6029 184.851 68.8362 184.703 69.078C184.554 69.3156 184.412 69.5468 184.276 69.7717C184.268 69.7802 184.263 69.7886 184.263 69.7971H187.235ZM194.62 70.9998C194.174 70.9956 193.805 70.9659 193.512 70.9108C193.224 70.8514 192.978 70.7686 192.774 70.6626C192.575 70.5523 192.413 70.4165 192.29 70.2553C192.172 70.0898 192.078 69.8989 192.01 69.6826C191.943 69.462 191.898 69.2159 191.877 68.9444C191.856 68.6729 191.845 68.3717 191.845 68.0408V61.9189H193.048V68.0408C193.048 68.4098 193.058 68.7089 193.08 68.938C193.105 69.1671 193.167 69.3453 193.264 69.4726C193.366 69.5956 193.517 69.6805 193.716 69.7271C193.92 69.7695 194.221 69.7929 194.62 69.7971V70.9998ZM199.778 69.7971V70.9998H199.282C198.895 70.9998 198.554 70.9447 198.257 70.8344C197.964 70.7241 197.729 70.5586 197.551 70.338C197.109 70.7792 196.456 70.9998 195.591 70.9998H194.369V69.7971H195.591C195.896 69.7971 196.138 69.7674 196.316 69.708C196.494 69.6444 196.628 69.568 196.717 69.4789C196.81 69.3856 196.87 69.2838 196.895 69.1735C196.925 69.0589 196.94 68.9508 196.94 68.8489V66.698H198.136V68.8044C198.136 68.9614 198.159 69.095 198.206 69.2053C198.253 69.3156 198.312 69.4089 198.384 69.4853C198.461 69.5574 198.543 69.6147 198.632 69.6571C198.726 69.6995 198.815 69.7314 198.9 69.7526C198.985 69.7738 199.061 69.7865 199.129 69.7908C199.197 69.795 199.248 69.7971 199.282 69.7971H199.778ZM195.801 73.3798L196.882 72.2853L197.99 73.3926L196.895 74.4871L195.801 73.3798ZM203.946 65.8198C203.954 65.8453 203.971 65.9132 203.997 66.0235C204.022 66.1338 204.05 66.2717 204.079 66.4371C204.113 66.5983 204.149 66.7786 204.188 66.978C204.226 67.1732 204.26 67.3726 204.289 67.5762C204.319 67.7756 204.345 67.9686 204.366 68.1553C204.387 68.342 204.398 68.5053 204.398 68.6453C204.398 69.0526 204.33 69.4047 204.194 69.7017C204.063 69.9944 203.889 70.2383 203.672 70.4335C203.46 70.6244 203.22 70.7665 202.953 70.8598C202.686 70.9532 202.416 70.9998 202.145 70.9998H199.51V69.7971H202.145C202.209 69.7971 202.298 69.7886 202.412 69.7717C202.531 69.7505 202.648 69.7017 202.762 69.6253C202.881 69.5489 202.983 69.4344 203.068 69.2817C203.157 69.1289 203.201 68.9168 203.201 68.6453C203.201 68.552 203.193 68.4353 203.176 68.2953C203.163 68.1511 203.144 67.9983 203.119 67.8371C203.097 67.6717 203.072 67.5041 203.042 67.3344C203.013 67.1605 202.983 66.9971 202.953 66.8444C202.923 66.6917 202.896 66.5559 202.87 66.4371C202.845 66.3183 202.824 66.2292 202.807 66.1698L203.946 65.8198ZM203.831 64.4708L202.826 63.4526L203.819 62.4217L204.849 63.4526L203.831 64.4708ZM201.394 64.458L200.389 63.4398L201.381 62.4089L202.412 63.4398L201.394 64.458ZM205.201 74.5317V73.3289H206.079C206.516 73.3289 206.894 73.2759 207.212 73.1698C207.535 73.068 207.8 72.9089 208.008 72.6926C208.22 72.4762 208.375 72.2005 208.472 71.8653C208.574 71.5302 208.625 71.1314 208.625 70.6689V66.698H209.828V70.6689C209.828 71.2756 209.747 71.8165 209.586 72.2917C209.429 72.7711 209.193 73.1762 208.879 73.5071C208.565 73.838 208.173 74.0905 207.702 74.2644C207.235 74.4426 206.695 74.5317 206.079 74.5317H205.201ZM212.927 70.9935H211.724V61.9189H212.927V70.9935ZM218.627 74.5317V73.3289H219.505C219.942 73.3289 220.32 73.2759 220.638 73.1698C220.96 73.068 221.225 72.9089 221.433 72.6926C221.645 72.4762 221.8 72.2005 221.898 71.8653C222 71.5302 222.051 71.1314 222.051 70.6689V66.698H223.253V70.6689C223.253 71.2756 223.173 71.8165 223.011 72.2917C222.855 72.7711 222.619 73.1762 222.305 73.5071C221.991 73.838 221.599 74.0905 221.128 74.2644C220.661 74.4426 220.12 74.5317 219.505 74.5317H218.627ZM227.332 71.0953C227.116 71.0953 226.898 71.0847 226.677 71.0635C226.456 71.0465 226.24 71.0189 226.028 70.9808C225.82 70.9383 225.618 70.8853 225.423 70.8217C225.232 70.7538 225.058 70.6732 224.901 70.5798L224.373 70.2808L224.971 69.2308L225.5 69.5298C225.648 69.6147 225.831 69.6847 226.047 69.7398C226.263 69.7908 226.492 69.8268 226.734 69.848C226.942 69.8692 227.15 69.8798 227.358 69.8798C227.396 69.8798 227.485 69.8798 227.625 69.8798C227.765 69.8756 227.939 69.8586 228.147 69.8289C228.393 69.7908 228.595 69.7377 228.751 69.6698C228.913 69.5977 229.015 69.5171 229.057 69.428C229.074 69.3856 229.082 69.3389 229.082 69.288C229.082 69.2159 229.061 69.1162 229.019 68.9889C228.976 68.8574 228.887 68.6898 228.751 68.4862L226.448 65.0053L227.466 64.3435C227.521 64.4283 227.578 64.5174 227.638 64.6108C227.697 64.6998 227.767 64.8059 227.848 64.9289C227.928 65.0477 228.022 65.1898 228.128 65.3553C228.234 65.5165 228.363 65.7117 228.516 65.9408C228.669 66.1698 228.847 66.4371 229.051 66.7426C229.254 67.048 229.492 67.4044 229.763 67.8117C229.869 67.9729 229.965 68.1426 230.05 68.3208C230.135 68.4947 230.198 68.6708 230.241 68.8489C230.279 69.0102 230.298 69.1714 230.298 69.3326C230.298 69.3495 230.296 69.4089 230.291 69.5108C230.287 69.6083 230.245 69.7441 230.164 69.918C229.897 70.5162 229.282 70.8853 228.319 71.0253C228.17 71.0465 228.013 71.0635 227.848 71.0762C227.682 71.0889 227.511 71.0953 227.332 71.0953ZM239.231 70.9998C238.785 70.9956 238.416 70.9659 238.124 70.9108C237.835 70.8514 237.589 70.7686 237.385 70.6626C237.186 70.5523 237.025 70.4165 236.902 70.2553C236.783 70.0898 236.69 69.8989 236.622 69.6826C236.554 69.462 236.509 69.2159 236.488 68.9444C236.467 68.6729 236.456 68.3717 236.456 68.0408V61.9189H237.659V68.0408C237.659 68.4098 237.67 68.7089 237.691 68.938C237.716 69.1671 237.778 69.3453 237.875 69.4726C237.977 69.5956 238.128 69.6805 238.327 69.7271C238.531 69.7695 238.832 69.7929 239.231 69.7971V70.9998ZM243.594 70.1026C243.623 70.1026 243.664 70.1005 243.715 70.0962C243.77 70.092 243.827 70.075 243.887 70.0453C243.95 70.0156 244.012 69.9711 244.071 69.9117C244.135 69.848 244.19 69.7611 244.237 69.6508C244.287 69.5362 244.328 69.392 244.357 69.218C244.391 69.0398 244.408 68.8235 244.408 68.5689C244.408 68.5223 244.404 68.448 244.396 68.3462C244.387 68.2444 244.368 68.132 244.338 68.0089C244.309 67.8817 244.264 67.7523 244.205 67.6208C244.15 67.4892 244.073 67.3683 243.976 67.258C243.878 67.1477 243.759 67.0586 243.619 66.9908C243.479 66.9186 243.31 66.8826 243.11 66.8826C242.923 66.8826 242.764 66.9165 242.633 66.9844C242.506 67.048 242.397 67.1371 242.308 67.2517C242.219 67.3662 242.145 67.502 242.086 67.6589C242.026 67.8117 241.971 67.9792 241.92 68.1617C241.869 68.3398 241.818 68.5286 241.767 68.728C241.717 68.9232 241.657 69.1183 241.589 69.3135C241.81 69.4238 242.013 69.5277 242.2 69.6253C242.387 69.7229 242.561 69.8077 242.722 69.8798C242.883 69.9477 243.034 70.0029 243.174 70.0453C243.318 70.0835 243.458 70.1026 243.594 70.1026ZM243.11 65.6862C243.526 65.6862 243.887 65.7668 244.192 65.928C244.502 66.085 244.758 66.2971 244.962 66.5644C245.166 66.8317 245.316 67.1392 245.414 67.4871C245.516 67.835 245.567 68.1956 245.567 68.5689C245.567 68.9805 245.53 69.3347 245.458 69.6317C245.39 69.9286 245.299 70.1789 245.185 70.3826C245.07 70.582 244.941 70.7432 244.797 70.8662C244.657 70.9892 244.512 71.0826 244.364 71.1462C244.22 71.2098 244.08 71.2523 243.944 71.2735C243.808 71.2947 243.691 71.3053 243.594 71.3053C243.386 71.3053 243.187 71.2841 242.996 71.2417C242.805 71.1992 242.61 71.1377 242.41 71.0571C242.211 70.9808 242.001 70.8853 241.78 70.7708C241.564 70.6562 241.324 70.5268 241.061 70.3826C240.713 70.7941 240.266 70.9998 239.718 70.9998H238.987V69.7971H239.718C239.88 69.7971 240.011 69.7377 240.113 69.6189C240.219 69.5002 240.31 69.3453 240.387 69.1544C240.463 68.9635 240.533 68.745 240.597 68.4989C240.66 68.2529 240.732 68.0005 240.813 67.7417C240.898 67.4829 240.997 67.2305 241.112 66.9844C241.227 66.7383 241.371 66.5198 241.545 66.3289C241.723 66.138 241.937 65.9832 242.187 65.8644C242.442 65.7456 242.75 65.6862 243.11 65.6862ZM254.885 70.9998C254.44 70.9956 254.071 70.9659 253.778 70.9108C253.489 70.8514 253.243 70.7686 253.04 70.6626C252.84 70.5523 252.679 70.4165 252.556 70.2553C252.437 70.0898 252.344 69.8989 252.276 69.6826C252.208 69.462 252.164 69.2159 252.142 68.9444C252.121 68.6729 252.111 68.3717 252.111 68.0408V61.9189H253.313V68.0408C253.313 68.4098 253.324 68.7089 253.345 68.938C253.371 69.1671 253.432 69.3453 253.53 69.4726C253.632 69.5956 253.782 69.6805 253.982 69.7271C254.185 69.7695 254.486 69.7929 254.885 69.7971V70.9998ZM258.058 65.8198C258.067 65.8453 258.084 65.9132 258.109 66.0235C258.134 66.1338 258.162 66.2717 258.192 66.4371C258.226 66.5983 258.262 66.7786 258.3 66.978C258.338 67.1732 258.372 67.3726 258.402 67.5762C258.431 67.7756 258.457 67.9686 258.478 68.1553C258.499 68.342 258.51 68.5053 258.51 68.6453C258.51 69.0526 258.442 69.4047 258.306 69.7017C258.175 69.9944 258.001 70.2383 257.784 70.4335C257.572 70.6244 257.333 70.7665 257.065 70.8598C256.798 70.9532 256.529 70.9998 256.257 70.9998H254.634V69.7971H256.257C256.321 69.7971 256.41 69.7886 256.524 69.7717C256.643 69.7505 256.76 69.7017 256.874 69.6253C256.993 69.5489 257.095 69.4344 257.18 69.2817C257.269 69.1289 257.314 68.9168 257.314 68.6453C257.314 68.552 257.305 68.4353 257.288 68.2953C257.275 68.1511 257.256 67.9983 257.231 67.8371C257.21 67.6717 257.184 67.5041 257.154 67.3344C257.125 67.1605 257.095 66.9971 257.065 66.8444C257.036 66.6917 257.008 66.5559 256.983 66.4371C256.957 66.3183 256.936 66.2292 256.919 66.1698L258.058 65.8198ZM255.856 73.3098L256.938 72.2153L258.045 73.3226L256.951 74.4171L255.856 73.3098Z" fill="white"/>
<path d="M37.787 50.3843C37.2139 50.3807 36.643 50.3142 36.0841 50.1861L35.3842 50.0258L35.6993 48.6088L36.3991 48.7691C37.4021 48.9984 38.7406 49.0449 39.4915 48.4864C39.8747 48.202 40.0841 47.771 40.1335 47.1659C39.3879 47.4131 38.6052 47.5263 37.821 47.5004C36.7857 47.4521 36.2033 47.0763 35.9479 46.8557C35.3689 46.354 35.0488 45.4766 35.0709 44.4233C35.1475 40.843 37.4549 40.843 38.2008 40.843C40.205 40.843 41.3102 41.8773 41.4873 43.8976C41.6082 45.3077 41.6337 46.5454 41.5554 47.2918C41.4447 48.3554 41.0446 49.1294 40.3328 49.6569C39.6942 50.1395 38.8325 50.3843 37.787 50.3843ZM38.2076 42.2944C36.8249 42.2944 36.5694 42.9839 36.4945 44.6078C36.4724 45.0732 36.5728 45.4266 36.7925 45.661C37.1212 46.0058 37.6695 46.0575 38.1088 46.0592C38.8163 46.0549 39.514 45.8925 40.1523 45.5835C40.1523 45.1835 40.1199 44.3906 40.0654 44.0165C39.8968 42.8753 39.5631 42.2944 38.2076 42.2944Z" fill="white"/>
<path d="M11.8065 50.305C10.2211 50.305 8.93712 49.7982 8.0959 48.8398C7.22744 47.8469 6.85622 46.3954 7.05034 44.7526C7.15422 43.8735 7.26831 43.0202 7.33983 42.4599L7.37559 42.2496L8.79238 42.4651L8.76343 42.6771C8.6868 43.2305 8.57441 44.07 8.47394 44.9302C8.3292 46.1558 8.57611 47.2039 9.16871 47.8796C9.76131 48.5554 10.6247 48.8588 11.8065 48.8588C14.216 48.8588 15.5987 47.6331 15.5987 45.4956C15.5987 44.7371 15.5987 43.9545 15.3961 41.2567L15.3808 41.0429L16.8146 40.9119L16.8265 41.136C16.8606 41.7962 16.9883 43.477 17.0445 43.9545C17.1926 45.1974 17.4293 45.5352 18.9364 45.7145C20.721 45.9265 29.0889 45.9179 33.6151 45.7007L33.8279 45.6886L33.8926 47.1401H33.6798C29.1502 47.3418 21.93 47.3987 18.8189 47.1591C18.0083 47.097 17.397 46.935 16.9168 46.654C16.4451 48.9467 14.5481 50.305 11.8065 50.305Z" fill="white"/>
<path d="M43.4083 50.3154C43.1272 50.3153 42.8465 50.2934 42.5687 50.2499L41.8586 50.143L42.0783 48.7071L42.7867 48.814C43.2976 48.8933 44.258 48.945 44.8966 48.4244C45.3087 48.0882 45.5436 47.5332 45.5913 46.7747C45.6775 45.5219 45.6667 44.2643 45.559 43.0133L45.5011 42.1514L46.9315 42.0514L46.9894 42.9133C47.1 44.2293 47.1091 45.552 47.0166 46.8695C46.94 48.0486 46.5279 48.9536 45.7889 49.5552C45.1792 50.0534 44.3567 50.3154 43.4083 50.3154Z" fill="white"/>
<path d="M12.1285 44.9353C11.9704 44.9357 11.8159 44.8885 11.6843 44.7999C11.5527 44.7113 11.4501 44.5851 11.3894 44.4374C11.3287 44.2897 11.3126 44.1271 11.3433 43.9702C11.3739 43.8133 11.4498 43.669 11.5614 43.5558C11.6731 43.4426 11.8154 43.3654 11.9703 43.3341C12.1253 43.3027 12.286 43.3186 12.432 43.3798C12.578 43.4409 12.7029 43.5445 12.7907 43.6775C12.8785 43.8105 12.9254 43.9669 12.9254 44.1269C12.9254 44.341 12.8415 44.5464 12.6921 44.6979C12.5427 44.8495 12.34 44.9349 12.1285 44.9353Z" fill="white"/>
<path d="M25.5367 38.8468C25.2148 38.8463 24.9062 38.7167 24.6786 38.4863C24.451 38.2559 24.323 37.9435 24.3225 37.6177C24.3223 37.4573 24.3536 37.2985 24.4147 37.1505C24.4758 37.0025 24.5655 36.8683 24.6784 36.7558V36.7558C24.8478 36.5844 25.0635 36.4676 25.2983 36.42C25.5331 36.3724 25.7766 36.3961 25.9981 36.4883C26.2196 36.5804 26.4092 36.7368 26.5432 36.9377C26.6771 37.1387 26.7493 37.3753 26.7508 37.6177C26.7503 37.9435 26.6223 38.2559 26.3947 38.4863C26.1671 38.7167 25.8585 38.8463 25.5367 38.8468V38.8468Z" fill="#F8BC45"/>
<path d="M22.1206 40.1155C21.8805 40.1155 21.6458 40.0434 21.4461 39.9084C21.2464 39.7733 21.0908 39.5814 20.9989 39.3568C20.907 39.1322 20.883 38.8851 20.9298 38.6467C20.9767 38.4082 21.0923 38.1892 21.2621 38.0173C21.4319 37.8454 21.6483 37.7284 21.8838 37.681C22.1193 37.6335 22.3634 37.6579 22.5853 37.7509C22.8071 37.8439 22.9968 38.0015 23.1302 38.2036C23.2636 38.4057 23.3348 38.6433 23.3348 38.8864C23.3343 39.2123 23.2063 39.5246 22.9787 39.755C22.7511 39.9854 22.4425 40.1151 22.1206 40.1155Z" fill="#F8BC45"/>
<path d="M20.452 43.1805C20.1703 43.1824 19.8968 43.0852 19.678 42.9056C19.4593 42.726 19.3089 42.4751 19.2526 42.1958C19.1963 41.9164 19.2375 41.6259 19.3693 41.3739C19.501 41.1219 19.7151 40.924 19.975 40.8141C20.2348 40.7041 20.5243 40.6889 20.7941 40.771C21.0638 40.8531 21.297 41.0275 21.4538 41.2643C21.6106 41.5012 21.6814 41.7858 21.6539 42.0695C21.6265 42.3533 21.5026 42.6186 21.3034 42.8202C21.1918 42.9339 21.0592 43.0242 20.9131 43.0861C20.767 43.1479 20.6103 43.18 20.452 43.1805V43.1805Z" fill="#F8BC45"/>
<path d="M30.6214 43.1805C30.4214 43.1817 30.2242 43.1329 30.0473 43.0384C29.8705 42.9439 29.7194 42.8066 29.6075 42.6388C29.4957 42.471 29.4265 42.2778 29.4062 42.0764C29.3859 41.875 29.415 41.6716 29.491 41.4843C29.567 41.2971 29.6875 41.1317 29.8419 41.0029C29.9962 40.8742 30.1795 40.786 30.3757 40.7462C30.5718 40.7065 30.7745 40.7164 30.9659 40.7751C31.1573 40.8337 31.3315 40.9394 31.4728 41.0826V41.0826C31.6421 41.254 31.7575 41.4724 31.8046 41.7101C31.8516 41.9478 31.8281 42.1943 31.7371 42.4185C31.6461 42.6427 31.4916 42.8347 31.2931 42.9703C31.0946 43.1059 30.8609 43.179 30.6214 43.1805V43.1805Z" fill="#F8BC45"/>
<path d="M28.9527 40.1155C28.7125 40.1155 28.4778 40.0434 28.2781 39.9084C28.0785 39.7733 27.9228 39.5814 27.8309 39.3568C27.7391 39.1322 27.715 38.8851 27.7619 38.6467C27.8087 38.4082 27.9243 38.1892 28.0941 38.0173C28.2639 37.8454 28.4803 37.7284 28.7158 37.681C28.9513 37.6335 29.1954 37.6579 29.4173 37.7509C29.6392 37.8439 29.8288 38.0015 29.9622 38.2036C30.0956 38.4057 30.1668 38.6433 30.1668 38.8864C30.1664 39.2123 30.0383 39.5246 29.8107 39.755C29.5831 39.9854 29.2745 40.1151 28.9527 40.1155Z" fill="#F8BC45"/>
</svg>
