<svg width="78" height="36" viewBox="0 0 78 36" fill="none" xmlns="http://www.w3.org/2000/svg">
<path fill-rule="evenodd" clip-rule="evenodd" d="M30.5 13.1003V23.2941C30.5 23.417 30.5952 23.5 30.6923 23.5H47.3077C47.4048 23.5 47.5 23.417 47.5 23.2941V13.1001L39.6949 18.2841C39.2761 18.5719 38.7234 18.5719 38.3046 18.2841L30.5 13.1003ZM46.5962 12.5H31.4036L38.8616 17.4535L38.8701 17.4592L38.87 17.4593C38.9481 17.5135 39.0513 17.5135 39.1294 17.4593L39.1379 17.4535L39.1379 17.4535L46.5962 12.5ZM30.6923 11.5C30.0247 11.5 29.5 12.049 29.5 12.7058V23.2941C29.5 23.9509 30.0247 24.5 30.6923 24.5H47.3077C47.9753 24.5 48.5 23.9509 48.5 23.2941V12.7058C48.5 12.049 47.9753 11.5 47.3077 11.5H30.6923Z" fill="#4286F5"/>
<rect x="1" y="1" width="76" height="34" stroke="#55A2E7" stroke-opacity="0.6"/>
</svg>
