<svg width="53" height="19" viewBox="0 0 53 19" fill="none" xmlns="http://www.w3.org/2000/svg">
<path d="M45.5383 9.75882C45.3107 7.18484 43.8928 5.88989 41.3166 5.88989C40.3493 5.88989 37.4021 5.88989 37.3043 10.4416C37.277 11.7684 37.6821 12.8904 38.4149 13.5185C38.7381 13.7939 39.48 14.2673 40.8136 14.3287C41.9259 14.3628 43.0347 14.1868 44.0817 13.8098C44.0817 13.8963 44.0681 13.9828 44.0612 14.0738C43.9907 14.9227 43.688 15.5326 43.1327 15.94C42.0835 16.7092 40.2378 16.6523 38.8609 16.3405L38.094 16.1585L37.7481 17.6947L38.515 17.8676C39.2498 18.0356 40.0007 18.1226 40.7544 18.1271C42.1199 18.1271 43.2283 17.8153 44.0658 17.2008C44.9761 16.534 45.4859 15.5508 45.6316 14.1967C45.734 13.2295 45.6998 11.6068 45.5383 9.75882ZM44.3139 12.2053L44.257 12.2395C43.3143 12.7372 42.2642 12.9967 41.1982 12.9951H41.1755C40.5064 12.9951 39.6711 12.9177 39.1272 12.3442C38.7563 11.955 38.5856 11.3883 38.6197 10.6623C38.7563 7.75836 39.6325 7.22809 41.3075 7.22809C43.3876 7.22809 43.9361 8.18621 44.1841 9.84302C44.2752 10.4529 44.3048 11.8276 44.3048 12.1416L44.3139 12.2053Z" fill="white"/>
<path d="M52.7594 8.46384L52.7025 7.61951L51.3575 7.71054L51.4144 8.55488C51.5604 10.2201 51.5756 11.8941 51.4599 13.5617C51.3893 14.645 51.0411 15.4461 50.4244 15.9445C49.489 16.7001 48.119 16.6273 47.3861 16.518L46.7193 16.4179L46.519 17.7515L47.1859 17.8517C47.5437 17.9053 47.905 17.9326 48.2669 17.9336C49.4617 17.9336 50.504 17.6104 51.271 16.9937C52.1927 16.2495 52.7093 15.1252 52.8049 13.6505C52.9242 11.923 52.909 10.1889 52.7594 8.46384V8.46384Z" fill="white"/>
<path d="M48.2669 18.0451C47.8996 18.0446 47.533 18.0164 47.1699 17.9609L46.3916 17.8448L46.6192 16.2859L47.3975 16.4042C48.1121 16.5112 49.4458 16.5817 50.3561 15.8535C50.9456 15.3778 51.2801 14.604 51.3484 13.5526C51.464 11.8911 51.4488 10.2231 51.3029 8.56395L51.2369 7.60582L52.8095 7.49658L52.8755 8.45926C53.0254 10.1874 53.0399 11.9246 52.9187 13.655C52.8208 15.1639 52.2906 16.3155 51.3415 17.0688C50.5587 17.7105 49.4958 18.0451 48.2669 18.0451Z" fill="white"/>
<path d="M6.25958 18.0315C4.19084 18.0315 2.52038 17.3829 1.42798 16.1539C0.290058 14.8817 -0.18104 13.0133 0.0624743 10.8922C0.210404 9.72467 0.362885 8.60496 0.460746 7.86986L0.476677 7.75607L2.03563 7.98365L2.0197 8.09744C1.91728 8.82116 1.76935 9.91811 1.63053 11.0765C1.43253 12.7424 1.77618 14.1717 2.60231 15.1025C3.39658 15.9992 4.62553 16.452 6.25503 16.452C9.58458 16.452 11.4895 14.7725 11.4895 11.8412C11.4895 10.8376 11.4895 9.79294 11.2186 6.23126V6.11974L12.7912 5.97864V6.09698C12.8368 6.96863 13.0188 9.1944 13.0848 9.82936C13.2942 11.5294 13.6606 12.062 15.7703 12.3077C18.1554 12.5877 29.3639 12.5763 35.4131 12.2895H35.5269L35.5974 13.8621H35.4836C29.4344 14.1239 19.8054 14.2012 15.6429 13.8826C14.4708 13.7939 13.6151 13.5458 12.9688 13.1088C12.4408 16.1971 9.94644 18.0315 6.25958 18.0315Z" fill="white"/>
<path d="M6.68965 10.9422C6.867 10.9422 7.04036 10.8896 7.18782 10.7911C7.33528 10.6926 7.45021 10.5525 7.51808 10.3887C7.58594 10.2248 7.6037 10.0446 7.5691 9.87061C7.5345 9.69667 7.4491 9.5369 7.3237 9.4115C7.1983 9.28609 7.03852 9.20069 6.86459 9.16609C6.69065 9.1315 6.51035 9.14925 6.34651 9.21712C6.18266 9.28499 6.04262 9.39992 5.94409 9.54738C5.84556 9.69483 5.79297 9.8682 5.79297 10.0455C5.79267 10.1634 5.81566 10.2801 5.86062 10.389C5.90557 10.498 5.97161 10.5969 6.05493 10.6803C6.13826 10.7636 6.23723 10.8296 6.34615 10.8746C6.45508 10.9195 6.57181 10.9425 6.68965 10.9422V10.9422Z" fill="white"/>
<path d="M24.8372 2.90397C25.6391 2.90397 26.2892 2.25389 26.2892 1.45198C26.2892 0.650076 25.6391 0 24.8372 0C24.0353 0 23.3853 0.650076 23.3853 1.45198C23.3853 2.25389 24.0353 2.90397 24.8372 2.90397Z" fill="#FABE46"/>
<path d="M20.2718 4.57896C21.0737 4.57896 21.7238 3.92888 21.7238 3.12697C21.7238 2.32506 21.0737 1.67499 20.2718 1.67499C19.4699 1.67499 18.8198 2.32506 18.8198 3.12697C18.8198 3.92888 19.4699 4.57896 20.2718 4.57896Z" fill="#FABE46"/>
<path d="M18.0416 8.62541C18.8435 8.62541 19.4936 7.97533 19.4936 7.17342C19.4936 6.37151 18.8435 5.72144 18.0416 5.72144C17.2397 5.72144 16.5896 6.37151 16.5896 7.17342C16.5896 7.97533 17.2397 8.62541 18.0416 8.62541Z" fill="#FABE46"/>
<path d="M31.6329 8.62541C32.4348 8.62541 33.0849 7.97533 33.0849 7.17342C33.0849 6.37151 32.4348 5.72144 31.6329 5.72144C30.831 5.72144 30.1809 6.37151 30.1809 7.17342C30.1809 7.97533 30.831 8.62541 31.6329 8.62541Z" fill="#FABE46"/>
<path d="M29.4027 4.57896C30.2046 4.57896 30.8547 3.92888 30.8547 3.12697C30.8547 2.32506 30.2046 1.67499 29.4027 1.67499C28.6008 1.67499 27.9507 2.32506 27.9507 3.12697C27.9507 3.92888 28.6008 4.57896 29.4027 4.57896Z" fill="#FABE46"/>
</svg>
