<svg width="45" height="47" viewBox="0 0 45 47" fill="none" xmlns="http://www.w3.org/2000/svg">
<path fill-rule="evenodd" clip-rule="evenodd" d="M20.6463 0.725109C20.3481 0.942925 19.5923 2.06083 19.6898 2.48045C19.7741 2.84161 20.6187 4.02118 20.9649 3.64721C21.3795 3.15072 21.7221 2.58616 21.9804 1.97275C22.0335 1.64923 21.2188 0.994176 21.0122 0.789973C20.9293 0.70669 20.8798 0.650635 20.8122 0.650635C20.7692 0.650635 20.7183 0.673057 20.6463 0.725109Z" fill="white"/>
<path fill-rule="evenodd" clip-rule="evenodd" d="M22.9762 3.29848C23.1814 3.61095 23.4425 3.88446 23.7454 4.10499C23.4441 5.20293 23.3944 5.48267 24.1028 6.4162C24.8436 6.84789 25.3872 7.17206 26.2409 6.79802C26.7237 6.64607 27.0653 6.21827 27.1047 5.718C27.1118 5.56449 26.9793 4.83903 26.6842 5.03617C26.461 5.18423 26.3931 5.40397 26.1154 5.48735C25.9513 5.53878 25.7738 5.51618 25.6286 5.42657C25.4827 5.33696 25.3833 5.1889 25.3572 5.02137C25.1269 3.3951 28.1169 3.04211 28.5335 5.32761C28.9374 7.54609 26.3521 8.2887 25.0645 9.4895C23.1948 11.2319 22.6401 14.2008 22.9289 16.6398C23.0401 17.9582 23.9111 19.0936 25.1632 19.5541L25.164 19.5479C26.5533 20.0575 28.173 19.8183 29.5426 19.3196C33.8817 17.7393 39.7845 12.7389 41.4673 8.42117C41.82 7.51258 42.0693 5.34553 41.846 4.41512C41.775 4.10732 41.6054 3.82992 41.3624 3.62498C39.9431 2.36495 39.3403 5.05331 39.353 6.00164C39.7837 6.90244 40.403 6.39983 41.0626 6.1723C41.7079 5.94788 40.8401 7.8009 40.68 8.00194C38.5183 10.7043 35.144 14.1189 32.1137 15.8068C30.9177 16.5104 29.6009 16.9889 28.229 17.2203C27.6215 17.32 27.0045 17.3473 26.39 17.3006C25.5908 17.2024 24.6693 16.9133 24.2141 16.205C23.0898 14.4634 24.0957 10.0537 26.315 9.75678C27.388 9.61184 28.1382 11.168 27.283 11.7259C27.1497 11.8108 27.0006 11.8677 26.8444 11.8942C26.6101 11.902 26.2858 11.6355 26.1059 11.5054C25.4472 11.6082 25.5852 13.3857 27.2744 13.2306C27.3359 14.3208 27.8416 15.4016 28.9437 15.7717C29.2798 15.8847 30.0688 16.1683 30.3662 15.9049C30.4175 15.4538 29.8471 15.2138 29.6143 14.9044C28.9516 14.0215 29.1047 13.3966 29.1142 12.3875C29.1236 11.2607 28.8467 10.8851 28.382 9.92198C28.3252 9.80431 28.3978 9.85029 28.4743 9.76379C28.7796 9.69444 29.081 9.6095 29.3784 9.51054C30.1911 9.08352 29.713 8.27389 29.171 7.86947L29.1402 7.79389C29.2057 7.30141 29.6609 6.87673 29.7248 6.28451C29.8865 4.77747 29.0455 3.12237 27.5308 2.66418C26.9091 2.51768 26.27 2.46703 25.6342 2.51534C25.0882 2.29482 24.4373 2.10858 24.117 1.57403C23.9569 1.30675 23.8985 1.00441 23.7163 0.746481L23.5537 0.650635C22.6196 0.919471 22.6062 2.6034 22.9762 3.29848Z" fill="white"/>
<path fill-rule="evenodd" clip-rule="evenodd" d="M39.1319 12.9403C37.3841 15.4961 34.5699 18.1944 32.1307 20.1071C31.2961 20.7333 30.4099 21.2887 29.4829 21.7686C28.9039 22.0336 28.3079 22.2616 27.6997 22.4511C26.8989 22.7153 26.0612 22.844 25.2197 22.8309C23.4626 22.7492 22.3985 22.1776 22.0482 20.3536C21.778 18.9516 22.9883 16.6631 22.8882 16.1917C22.8736 16.117 22.8205 16.0114 22.725 16.0176C22.5348 16.0299 22.3108 16.449 22.2453 16.5907C22.1137 16.8765 22.019 17.2077 21.9127 17.5058C21.269 19.0749 21.0658 20.7903 21.3245 22.4665C21.4923 23.9586 22.9283 25.0254 24.335 25.1749C25.5962 25.2773 26.8635 25.0901 28.0415 24.6264C28.9601 24.2582 29.8509 23.8253 30.7094 23.33C33.7207 21.4127 36.3716 18.9763 38.5383 16.1324C38.6715 15.9614 39.5854 14.8182 39.607 14.7512C39.6647 14.192 39.6085 13.6281 39.4391 13.0928C39.4199 13.0312 39.376 12.9795 39.3175 12.951C39.2851 12.9349 39.2482 12.9264 39.212 12.9264C39.185 12.9264 39.1581 12.931 39.1319 12.9403Z" fill="white"/>
<path fill-rule="evenodd" clip-rule="evenodd" d="M23.7697 25.2742C23.3535 25.7715 23.0115 26.3361 22.7525 26.9487C22.6994 27.2722 23.515 27.9256 23.721 28.1322C23.857 28.2676 23.9021 28.3308 24.0862 28.1971C24.3853 27.9793 25.1406 26.8598 25.0431 26.4418C24.971 26.1279 24.3278 25.2021 23.9327 25.2021C23.8709 25.2021 23.8156 25.2246 23.7697 25.2742Z" fill="white"/>
<path fill-rule="evenodd" clip-rule="evenodd" d="M15.1911 9.60274C10.8507 11.182 4.94797 16.1815 3.26577 20.4993C2.91229 21.4078 2.66296 23.5745 2.88704 24.5032C2.95884 24.8117 3.12769 25.089 3.37071 25.2947C4.79095 26.5538 5.39377 23.8666 5.38035 22.9184C4.94955 22.0178 4.33095 22.5195 3.67054 22.7478C3.02433 22.9722 3.89305 21.1179 4.05401 20.9185C6.21435 18.2158 9.58979 14.8025 12.6173 13.115C13.8142 12.4106 15.1319 11.9315 16.5032 11.7009C17.1116 11.6011 17.7286 11.5739 18.3424 11.6214C19.1417 11.7196 20.0641 12.0078 20.5201 12.7168C21.6437 14.4581 20.6377 18.8663 18.4174 19.1639C17.3459 19.3081 16.594 17.7522 17.4508 17.1951C17.5834 17.1102 17.7325 17.0533 17.888 17.0276C18.1215 17.0191 18.4482 17.2855 18.6265 17.4148C19.2853 17.3128 19.148 15.5356 17.4595 15.6899C17.3972 14.6007 16.8906 13.5193 15.7884 13.1492C15.4522 13.0363 14.6632 12.7527 14.3658 13.0168C14.316 13.4671 14.8865 13.7079 15.1177 14.0179C15.7805 14.8999 15.629 15.5239 15.6195 16.536C15.6077 17.6626 15.8854 18.0381 16.3501 19.0011C16.4077 19.1187 16.3359 19.0728 16.2578 19.16C15.9525 19.2286 15.6503 19.3135 15.3536 19.4132C14.5401 19.8394 15.0183 20.6497 15.5619 21.054L15.5927 21.1288C15.5264 21.6212 15.0711 22.0458 15.0072 22.6387C14.8455 24.1455 15.685 25.7996 17.2023 26.2577C17.8225 26.4034 18.4632 26.454 19.0999 26.4065C19.6443 26.627 20.2961 26.8132 20.6156 27.3484C20.7766 27.6149 20.835 27.918 21.0164 28.1751L21.179 28.2709C22.1124 28.0021 22.1266 26.3185 21.7565 25.6243C21.5514 25.3111 21.291 25.0376 20.9872 24.8171C21.2879 23.7194 21.3384 23.4404 20.6298 22.5063C19.8889 22.0739 19.3461 21.7506 18.4916 22.1261C18.0087 22.2772 17.667 22.7042 17.6284 23.2052C17.6221 23.3579 17.7538 24.084 18.0489 23.8869C18.2714 23.7388 18.3401 23.5191 18.6186 23.4358C18.7819 23.3844 18.9587 23.4069 19.1046 23.4965C19.2506 23.5854 19.3492 23.7334 19.3761 23.9017C19.6064 25.5269 16.616 25.8806 16.1994 23.5947C15.7947 21.3774 18.3811 20.6349 19.6696 19.4343C21.538 17.6922 22.0927 14.7246 21.8062 12.2852C21.6926 10.967 20.8231 9.83258 19.5709 9.37212V9.3729C19.0297 9.17501 18.4529 9.09009 17.8706 9.09009C16.9569 9.09009 16.0274 9.29811 15.1911 9.60274Z" fill="white"/>
<path fill-rule="evenodd" clip-rule="evenodd" d="M17.459 4.29495C16.5398 4.66311 15.6482 5.0975 14.7905 5.59197C11.7793 7.50902 9.12926 9.94518 6.96193 12.7888C6.8295 12.9598 5.91483 14.1027 5.89405 14.1705C5.83399 14.7282 5.89251 15.2935 6.06112 15.8288C6.08114 15.8904 6.12425 15.9412 6.182 15.9697C6.24051 15.999 6.30749 16.0036 6.36755 15.9813C8.1145 13.4242 10.9301 10.7277 13.3692 8.81452C14.203 8.18911 15.0885 7.63302 16.0139 7.15395C16.5929 6.88746 17.1896 6.66025 17.7986 6.47155C18.5985 6.2066 19.4377 6.0772 20.2808 6.0903C22.0362 6.17271 23.1018 6.7442 23.4513 8.56805C23.7231 9.97059 22.512 12.2581 22.6114 12.7295C22.6275 12.805 22.6799 12.9097 22.7754 12.9035C22.9648 12.8912 23.1896 12.4715 23.2542 12.3297C23.3867 12.0448 23.4814 11.7128 23.5876 11.4155C24.2313 9.84736 24.4345 8.13134 24.1751 6.45538C24.0072 4.96349 22.5713 3.89675 21.1662 3.74733C20.9414 3.72885 20.7174 3.7196 20.4933 3.7196C19.457 3.7196 18.4276 3.9137 17.459 4.29495Z" fill="white"/>
<path fill-rule="evenodd" clip-rule="evenodd" d="M3.86072 37.9233C3.72051 38.103 3.62182 38.3014 3.56934 38.5103C3.57639 38.5628 3.61477 38.6089 3.67273 38.6335L3.95158 38.7846C4.09649 38.8793 4.25706 38.9558 4.42939 39.0122C4.52965 39.0116 4.66751 38.9059 4.84218 38.6945C4.98787 38.5427 5.07874 38.3605 5.1038 38.1685C5.04192 37.8059 4.68866 37.5219 4.24297 37.4778C4.18187 37.4778 4.05498 37.6257 3.86072 37.9233Z" fill="white"/>
<path fill-rule="evenodd" clip-rule="evenodd" d="M4.59261 28.3626C4.42632 28.6208 4.30477 28.8139 4.2288 28.9426C4.15367 29.0713 4.07432 29.1955 3.99076 29.3128C3.92998 29.3749 3.88693 29.4491 3.86499 29.5286V29.6914C3.86499 29.7883 3.86752 29.8829 3.87174 29.9753C3.87596 30.0639 3.86836 30.1532 3.84642 30.2403C3.827 30.3198 3.79408 30.397 3.74681 30.4667C3.69026 30.5409 3.61597 30.6015 3.5265 30.6439C3.07321 30.8657 2.63681 31.1171 2.2232 31.3949C1.898 31.6146 1.5944 31.8354 1.32535 32.124C1.18445 32.2751 1.06161 32.4862 0.931641 32.6363C1.22104 32.7982 1.40063 32.8893 1.47041 32.9095C1.49867 32.7367 1.53386 32.5179 1.59981 32.3793C1.66576 32.2408 1.98769 32.0294 2.23079 31.8909C2.48318 31.7432 2.74485 31.6077 3.01328 31.485C3.28171 31.3647 3.50708 31.2564 3.69026 31.161C3.90719 31.0512 4.09205 30.8983 4.2288 30.7143C4.38158 30.5174 4.49131 30.2979 4.55631 30.0662C4.58839 29.9337 4.61455 29.8042 4.63059 29.6785C4.64663 29.5536 4.65929 29.4256 4.66773 29.2969C4.67617 29.1674 4.68293 29.0304 4.6863 28.882C4.69137 28.7351 4.7015 28.5655 4.71754 28.374C4.72513 28.3051 4.71753 28.271 4.69474 28.271C4.69052 28.271 4.6863 28.2718 4.68124 28.274C4.64072 28.2945 4.61033 28.3255 4.59261 28.3626Z" fill="white"/>
<path fill-rule="evenodd" clip-rule="evenodd" d="M1.04349 32.4649C0.937252 32.6153 0.857708 32.7337 0.804851 32.8199C0.725566 32.9492 0.653204 33.0896 0.596119 33.2214C0.542205 33.3398 0.511284 33.4657 0.50177 33.5959C0.491463 33.7579 0.526348 33.9191 0.601669 34.0619C0.678575 34.2021 0.782438 34.3247 0.907708 34.4204C1.04725 34.5296 1.20027 34.6177 1.36042 34.6849C1.53564 34.7596 1.7172 34.8167 1.90352 34.857C2.69875 35.0359 3.50825 35.1341 4.3225 35.1509C5.13517 35.1677 5.95735 35.1761 6.79063 35.1761C8.53965 35.1761 10.2665 35.0938 11.9648 34.9301C13.6646 34.7672 15.37 34.5413 17.0826 34.2559C18.5501 34.0107 19.7553 33.7789 20.698 33.5623C21.6399 33.3465 22.3614 33.1559 22.864 32.9922C23.0678 32.9435 23.2581 32.8494 23.423 32.7159C23.5126 32.6227 23.5379 32.5388 23.4999 32.4649C23.4333 32.3733 23.3366 32.3137 23.2279 32.2995C23.0694 32.2608 22.906 32.2516 22.7459 32.2684C21.6224 32.3834 20.518 32.5245 19.4302 32.6916C18.3432 32.8595 17.2419 33.0006 16.1272 33.1148C14.7223 33.2625 13.3269 33.3641 11.941 33.4221C10.5543 33.4792 9.11605 33.496 7.62471 33.4708C5.84873 33.4859 4.07355 33.3306 2.32453 33.0048C2.26982 32.9888 2.19926 32.9687 2.11363 32.9443C2.02641 32.92 1.94237 32.8906 1.85992 32.8545C1.78063 32.8192 1.71007 32.7697 1.64823 32.7067C1.58956 32.6488 1.56181 32.5656 1.57053 32.4817C1.5848 32.3767 1.5737 32.2684 1.53723 32.1685C1.51582 32.1282 1.47856 32.1072 1.42385 32.1072C1.39531 32.1072 1.36201 32.1131 1.32475 32.124C1.22989 32.2187 1.13783 32.3414 1.04349 32.4649Z" fill="white"/>
<path fill-rule="evenodd" clip-rule="evenodd" d="M6.61795 35.945C6.59411 35.9587 6.56922 36.0161 6.54379 36.118C6.47547 36.3937 6.40767 36.6678 6.34251 36.941C6.27683 37.2135 6.21539 37.4884 6.15765 37.7632C6.13859 37.8401 6.12428 37.9193 6.11475 38.0001C6.10627 38.0818 6.10204 38.1643 6.10204 38.2475C6.11316 38.811 6.09992 39.3754 6.06337 39.9364C6.02629 40.4959 5.97385 41.0465 5.90605 41.5906C5.8944 41.6925 5.88487 41.7887 5.87745 41.8792C5.86898 41.9399 5.86898 42.0021 5.87745 42.0627C5.88487 42.0935 5.90129 42.0862 5.9283 42.0385C5.97756 41.9374 6.02205 41.8307 6.06231 41.72C6.13382 41.5049 6.19844 41.285 6.25459 41.0594C6.30967 40.8387 6.3637 40.6148 6.41614 40.386C6.47335 40.1337 6.5136 39.8718 6.53426 39.6058C6.55492 39.3382 6.57028 39.0714 6.5814 38.8038C6.592 38.3542 6.5957 37.9136 6.59306 37.4803C6.58988 37.0486 6.60206 36.6071 6.62854 36.1584C6.64285 36.021 6.64179 35.9434 6.62325 35.9434C6.62166 35.9434 6.62007 35.9442 6.61795 35.945Z" fill="white"/>
<path fill-rule="evenodd" clip-rule="evenodd" d="M8.87096 38.245C8.81336 38.249 8.75343 38.3299 8.69194 38.4868C8.5674 38.8143 8.4631 39.1499 8.37982 39.4911C8.2942 39.842 8.1611 40.1801 7.98675 40.4954C7.84041 40.7647 7.66684 41.0178 7.46758 41.2483C7.24263 41.5086 6.99122 41.7423 6.71646 41.9461C6.51642 42.103 6.35063 42.2388 6.21987 42.3529C6.08755 42.4677 5.99103 42.5566 5.93032 42.6189C5.88751 42.6626 5.86649 42.7232 5.87194 42.7839C5.87972 42.8397 5.93732 42.8591 6.04551 42.8429C6.47439 42.745 6.89315 42.6019 7.294 42.4184C7.44189 42.3553 7.582 42.2736 7.71043 42.1758C7.83107 42.0803 7.93382 41.9647 8.01632 41.8329C8.1144 41.6776 8.19612 41.5111 8.25995 41.3372C8.33234 41.1448 8.40706 40.9183 8.48412 40.6588C8.62344 40.1307 8.7293 39.69 8.80325 39.335C8.86162 39.0666 8.90599 38.7949 8.93634 38.5207L8.93557 38.5224C8.94958 38.3372 8.9309 38.245 8.87486 38.245C8.87408 38.245 8.87252 38.245 8.87096 38.245Z" fill="white"/>
<path fill-rule="evenodd" clip-rule="evenodd" d="M10.4169 35.1838C10.3819 35.2091 10.352 35.239 10.3325 35.2728L10.2409 35.407C10.1194 35.5864 10.0124 35.7567 9.92078 35.9162C9.82815 36.0773 9.75199 36.2176 9.69024 36.3372C9.59041 36.5397 9.51939 36.7506 9.47719 36.9646C9.31252 37.8365 9.18181 38.562 9.08609 39.141C9.00067 39.6073 8.95126 40.0767 8.93994 40.5468C9.03566 40.5368 9.12211 40.4985 9.17769 40.4402C9.27752 40.3543 9.36604 40.2607 9.43808 40.1603C9.53174 40.0322 9.61099 39.8995 9.6748 39.7622C9.74479 39.6173 9.79625 39.467 9.82815 39.3144C9.86006 38.7185 9.92696 38.0827 10.0299 37.4071C10.1318 36.7314 10.2687 36.065 10.4416 35.4078C10.4683 35.3426 10.4776 35.2743 10.4735 35.2061C10.4652 35.1861 10.4539 35.1761 10.4395 35.1761C10.4333 35.1761 10.4251 35.1784 10.4169 35.1838Z" fill="white"/>
<path fill-rule="evenodd" clip-rule="evenodd" d="M11.5339 35.6244C11.3969 35.8025 11.2983 35.9988 11.2436 36.2056L11.2412 36.2063C11.249 36.2611 11.2874 36.3107 11.3461 36.3394C11.4384 36.3896 11.5315 36.4373 11.6246 36.4823C11.7686 36.5775 11.9298 36.6539 12.1012 36.7106C12.2029 36.7106 12.3406 36.6062 12.5135 36.3955C12.6599 36.2454 12.7514 36.0641 12.7757 35.8723C12.7139 35.5063 12.361 35.2205 11.9157 35.1761C11.8547 35.1768 11.7279 35.3255 11.5339 35.6244Z" fill="white"/>
<path fill-rule="evenodd" clip-rule="evenodd" d="M11.3013 37.8383C11.201 37.9956 11.1163 38.161 11.0478 38.3336L10.9264 38.5925C10.8865 38.6788 10.8449 38.774 10.8058 38.8748C10.7659 38.9668 10.7561 39.0668 10.7749 39.1636C10.7936 39.2499 10.8352 39.3298 10.8963 39.3935C10.9566 39.4564 11.0348 39.5016 11.1204 39.5234C11.2157 39.5467 11.3151 39.5467 11.4113 39.5234C11.5189 39.5048 11.6223 39.4645 11.7136 39.4056C11.7552 39.3749 11.8122 39.3693 11.8578 39.3935C12.02 39.4564 12.0982 39.5427 12.095 39.6524C12.086 39.775 12.0371 39.8904 11.9556 39.9831C11.7975 40.1541 11.5914 40.2751 11.3624 40.3284C11.1342 40.3929 10.8963 40.4155 10.6608 40.3929C10.5182 40.3808 10.378 40.3517 10.2435 40.3066C10.1197 40.2654 10.0097 40.1904 9.92736 40.0912C9.83446 39.9718 9.76601 39.8355 9.72853 39.6903C9.67474 39.4862 9.64948 39.2765 9.656 39.066L8.94134 40.3622C8.93237 40.6445 8.9666 40.9269 9.04483 41.1987C9.0978 41.3745 9.18662 41.5391 9.30396 41.6819C9.4262 41.8262 9.58429 41.9375 9.7652 42.0037C9.93388 42.0618 10.1115 42.0884 10.2908 42.0795C10.4709 42.0714 10.6494 42.0335 10.8172 41.9674C10.9835 41.9029 11.1391 41.8133 11.2776 41.7028C11.6672 41.3939 11.9923 41.014 12.2343 40.5832C12.4788 40.1582 12.6499 39.696 12.7428 39.2168C12.7819 38.9974 12.7876 38.7724 12.7542 38.5514C12.7184 38.3183 12.632 38.0956 12.5008 37.8972C12.3786 37.6738 12.1569 37.5181 11.901 37.4794C11.8872 37.4786 11.8733 37.4778 11.8595 37.4778C11.6175 37.4778 11.3974 37.6189 11.3013 37.8383Z" fill="white"/>
<path fill-rule="evenodd" clip-rule="evenodd" d="M20.104 43.2471C19.9808 43.4285 19.8647 43.6151 19.7563 43.8067C19.6573 43.6312 19.5232 43.4822 19.3625 43.3706C19.2417 43.2564 19.0935 43.1789 18.9345 43.1465C18.8799 43.1465 18.7357 43.3561 18.5002 43.7752C18.3528 44.0009 18.2343 44.2454 18.147 44.5052C18.1517 44.5402 18.2834 44.6603 18.5407 44.8639C18.6179 44.9218 18.6904 44.984 18.7606 45.0504C18.8214 45.1024 18.8932 45.1373 18.9696 45.1501C19.1388 45.1501 19.3836 44.8553 19.6994 44.2667C19.867 44.386 20.0253 44.5189 20.1742 44.6645C20.3052 44.7974 20.4019 44.8639 20.4635 44.8639C20.5555 44.8639 20.7029 44.7233 20.9032 44.4405C21.0795 44.2403 21.1886 43.9813 21.2159 43.7062C21.1878 43.4779 21.0756 43.2709 20.9032 43.1346C20.7738 42.9779 20.5976 42.8765 20.4058 42.8484C20.3668 42.8484 20.2662 42.9813 20.104 43.2471Z" fill="white"/>
<path fill-rule="evenodd" clip-rule="evenodd" d="M18.1002 34.4152C18.0524 34.4786 18.0153 34.5475 17.9898 34.621C17.877 34.9114 17.7427 35.2887 17.5887 35.7528C17.5681 35.8146 17.5533 35.8772 17.5434 35.9414C17.5459 36.008 17.5648 36.0729 17.5986 36.13C17.6192 36.1841 17.6464 36.2365 17.6785 36.285C17.7147 36.3422 17.7534 36.4087 17.7938 36.4846C17.9741 36.7304 18.0919 37.0121 18.1372 37.3072C18.1504 37.4348 18.1331 37.5639 18.0886 37.6852C18.0392 37.8371 17.9667 38.0241 17.8679 38.2449C17.7781 38.4413 17.69 38.6378 17.6052 38.8319C17.5195 39.026 17.4281 39.2154 17.3301 39.3985C17.2486 39.5582 17.1761 39.7163 17.1168 39.872C17.0567 40.0145 17.0262 40.1663 17.0237 40.3182C17.0246 40.4598 17.0624 40.5992 17.1341 40.7236C17.2296 40.8747 17.3647 41.0007 17.5253 41.0891C17.6101 41.129 17.6908 41.1736 17.7699 41.2214C17.8523 41.2707 17.9379 41.3216 18.0269 41.3756C18.157 41.4515 18.2286 41.5298 18.2418 41.6096C18.25 41.7168 18.2344 41.8233 18.1965 41.9242C18.1249 42.1723 17.9873 42.3993 17.7946 42.5817C17.5961 42.7703 17.3672 42.9284 17.1168 43.0505C16.8524 43.1789 16.5724 43.2775 16.2842 43.344C16.0017 43.4105 15.7126 43.4489 15.4211 43.4575C15.0496 43.4857 14.6774 43.4223 14.3389 43.2751C14.0704 43.1491 13.848 42.9496 13.7031 42.7038C13.554 42.4369 13.4741 42.141 13.47 41.8405C13.4618 41.4852 13.5136 41.1314 13.6232 40.7925C13.741 40.373 13.8925 39.9621 14.0762 39.5637C14.2631 39.1559 14.4385 38.7802 14.6024 38.4382C14.6831 38.2707 14.7078 38.1658 14.6749 38.1235C14.6428 38.0813 14.6057 38.0907 14.5654 38.1525C14.3982 38.3865 14.2475 38.6315 14.1124 38.8835C13.9749 39.1426 13.8406 39.4017 13.7105 39.6607C13.5729 39.9268 13.4395 40.2055 13.3135 40.4951C13.1875 40.7839 13.0788 41.0797 12.989 41.3803C12.8993 41.6808 12.8367 41.9861 12.7996 42.2952C12.7625 42.602 12.7691 42.912 12.8177 43.2172C12.8671 43.6915 13.0772 44.1392 13.4173 44.4922C13.7171 44.7912 14.1042 44.9994 14.5299 45.0917C14.9673 45.1825 15.4227 45.1677 15.851 45.0464C16.3113 44.9227 16.7305 44.6957 17.0748 44.3834C17.3161 44.1635 17.5327 43.9224 17.723 43.6626C17.9256 43.3894 18.1059 43.1006 18.2616 42.8001C18.4148 42.5019 18.5416 42.1919 18.6404 41.8734C18.7351 41.5736 18.7961 41.266 18.8233 40.9537C18.8587 40.6806 18.8463 40.4051 18.787 40.1366C18.6931 39.8634 18.4798 39.6404 18.1998 39.5245C18.012 39.4259 17.919 39.3375 17.919 39.2616C17.9305 39.1434 17.9626 39.0268 18.0162 38.9187C18.2525 38.3701 18.4502 37.884 18.61 37.4614C18.7557 37.0904 18.8521 36.7045 18.8966 36.3124C18.9361 35.9962 18.9073 35.6745 18.8117 35.3693C18.7253 35.0562 18.5523 34.7705 18.3102 34.5396C18.2163 34.4528 18.152 34.4089 18.1183 34.4089C18.1109 34.4089 18.1043 34.4113 18.1002 34.4152Z" fill="white"/>
<path fill-rule="evenodd" clip-rule="evenodd" d="M21.1581 35.1838C21.1231 35.2091 21.0943 35.239 21.0737 35.2728L20.9821 35.407C20.8606 35.5864 20.7536 35.7567 20.662 35.9162C20.5694 36.0773 20.4932 36.2176 20.4325 36.3372C20.3316 36.5397 20.2606 36.7506 20.2184 36.9646C20.0548 37.8365 19.924 38.562 19.8283 39.141C19.7419 39.6073 19.6925 40.0767 19.6812 40.5468C19.7769 40.5368 19.8644 40.4985 19.9189 40.4402C20.0198 40.3543 20.1072 40.2607 20.1793 40.1603C20.273 40.0322 20.3522 39.8995 20.416 39.7622C20.486 39.6173 20.5385 39.467 20.5694 39.3144L20.5725 39.3167C20.6023 38.7192 20.6692 38.0827 20.7721 37.4071C20.873 36.7314 21.0109 36.065 21.1828 35.4078C21.2095 35.3426 21.2188 35.2743 21.2147 35.2061C21.2064 35.1861 21.1951 35.1761 21.1807 35.1761C21.1745 35.1761 21.1663 35.1784 21.1581 35.1838Z" fill="white"/>
<path fill-rule="evenodd" clip-rule="evenodd" d="M19.6855 40.2906C19.678 40.4672 19.6803 40.643 19.6915 40.8196C19.7013 41.0185 19.7351 41.2158 19.7913 41.4059C19.8431 41.584 19.9324 41.7463 20.0533 41.8823C20.1824 42.0184 20.361 42.09 20.5441 42.0804C20.7272 42.0828 20.9066 42.0303 21.062 41.9293C21.2173 41.8251 21.3532 41.6946 21.4635 41.5395C21.5806 41.3772 21.6781 41.1998 21.7539 41.0113C21.8297 40.822 21.8958 40.6279 21.9491 40.4306C21.9701 40.3447 21.9806 40.2572 21.9829 40.1689C21.9821 40.0878 21.9183 40.0393 21.793 40.0234C21.7337 40.0162 21.6691 40.0106 21.6031 40.0059C21.5393 40.0027 21.4763 39.9931 21.414 39.9772C21.3104 39.9557 21.2421 39.8539 21.2579 39.7449C21.14 39.7211 21.0184 39.7394 20.9119 39.7967C20.7963 39.8595 20.7017 39.9589 20.6439 40.0806C20.5621 40.2278 20.4923 40.2206 20.4323 40.0576C20.3542 39.7155 20.3235 39.3639 20.343 39.0123L19.6855 40.2906Z" fill="white"/>
<path fill-rule="evenodd" clip-rule="evenodd" d="M21.5069 34.0896C21.3674 34.267 21.2694 34.4639 21.2153 34.67C21.2224 34.7248 21.26 34.775 21.318 34.8044C21.4113 34.8546 21.5037 34.9028 21.5978 34.9472C21.742 35.0417 21.9026 35.1193 22.0743 35.1761C22.1754 35.1761 22.3125 35.0711 22.488 34.8611C22.6346 34.7111 22.7255 34.5292 22.7498 34.3374C22.6879 33.9716 22.3344 33.6859 21.8877 33.6416C21.8274 33.6416 21.6997 33.7909 21.5069 34.0896Z" fill="white"/>
<path fill-rule="evenodd" clip-rule="evenodd" d="M21.1397 39.392C20.8 39.7068 20.5636 40.0763 20.4482 40.4702L21.2076 40.1742C21.2328 40.0553 21.3063 39.9447 21.4161 39.8573C21.5157 39.7936 21.6432 39.7607 21.7763 39.7649C21.8377 39.7663 21.901 39.7733 21.9615 39.7859C22.0313 39.7992 22.3534 39.8638 22.4334 39.8806C22.5116 39.8981 22.795 39.9318 22.8518 39.9332C22.8983 39.9332 22.8384 38.9817 22.7499 38.9194C22.6327 38.8851 22.1426 38.8617 21.7763 39.0085C21.5287 39.1009 21.3119 39.2317 21.1397 39.392Z" fill="white"/>
<path fill-rule="evenodd" clip-rule="evenodd" d="M25.4749 40.9453C25.351 41.1267 25.2348 41.3141 25.1264 41.505C25.0274 41.3295 24.8933 41.1804 24.7327 41.0688C24.6118 40.9547 24.4637 40.8771 24.3046 40.8456C24.25 40.8456 24.1058 41.0543 23.8703 41.4734C23.7229 41.6992 23.6036 41.9445 23.5171 42.2035C23.5171 42.2367 23.6481 42.356 23.9116 42.5621C23.9888 42.62 24.0613 42.6822 24.1315 42.7487C24.1923 42.8006 24.2641 42.8347 24.3397 42.8483C24.5097 42.8483 24.7537 42.5536 25.0703 41.965C25.2371 42.0842 25.3962 42.2171 25.5451 42.3628C25.6753 42.4957 25.7712 42.5621 25.8344 42.5621C25.9256 42.5621 26.0738 42.4216 26.2741 42.1387C26.4504 41.9386 26.5595 41.6796 26.586 41.4053C26.5587 41.1761 26.4465 40.9691 26.2741 40.8329C26.1447 40.6761 25.9677 40.5747 25.7759 40.5466C25.7369 40.5466 25.6371 40.6795 25.4749 40.9453Z" fill="white"/>
<path fill-rule="evenodd" clip-rule="evenodd" d="M23.9976 38.1448C23.9822 38.1664 23.9552 38.2068 23.9174 38.2643C23.8804 38.3232 23.8365 38.3852 23.7856 38.4502C23.7362 38.5136 23.6799 38.5808 23.619 38.6495C23.5612 38.716 23.4949 38.7764 23.4239 38.8295C23.3437 38.9108 23.2404 38.9676 23.1263 38.9892C22.9967 38.9945 22.8687 38.9698 22.75 38.9191V39.9009C22.8556 39.9434 22.9759 39.9434 23.0823 39.9009C23.1857 39.8538 23.2782 39.7889 23.3568 39.709C23.444 39.6224 23.5219 39.5291 23.5913 39.4298C23.6637 39.3275 23.7308 39.2371 23.7925 39.1572C23.8758 39.0482 23.9359 38.9989 23.9699 39.0094C24.0339 39.0363 24.0932 39.0721 24.1472 39.1132C24.3878 39.2969 24.6677 39.4268 24.9669 39.4947C25.3162 39.5843 25.6724 39.6463 26.0325 39.6806C26.4034 39.7165 26.6781 39.7593 27.0577 39.7794C27.4372 39.7994 27.8978 39.7794 28.1206 39.7794C28.1916 39.6845 28.1206 38.3083 28.1206 38.1818C27.6557 38.1811 27.0187 38.1157 26.5576 38.0574C26.0934 38.0014 25.6377 37.8909 25.2005 37.7312C25.0648 37.6647 24.9152 37.6311 24.7656 37.6311C24.6793 37.6311 24.5921 37.6423 24.5073 37.6654C24.2906 37.7715 24.1117 37.9387 23.9976 38.1448Z" fill="white"/>
<path fill-rule="evenodd" clip-rule="evenodd" d="M39.9562 33.7131C39.7484 33.7972 39.5459 33.8962 39.3519 34.0063C39.1633 34.1157 38.9724 34.2318 38.7837 34.3539C38.145 34.7603 37.5208 35.1637 36.9097 35.5664C36.2855 35.9765 35.6368 36.3517 34.9674 36.6918C34.4812 36.9375 33.979 37.163 33.4591 37.3692C32.9392 37.5753 32.404 37.7443 31.8588 37.8753C31.253 38.0182 30.6357 38.1098 30.0131 38.147C29.3981 38.1834 28.7678 38.1946 28.1206 38.182V39.7793C30.0345 39.7897 31.9247 39.3773 33.6446 38.5735C34.0564 38.3844 34.4567 38.1753 34.847 37.9482C35.2388 37.7197 35.6268 37.4823 36.0102 37.2359C36.3936 36.9896 36.7709 36.7372 37.1428 36.4782C37.5155 36.2199 37.8874 35.9676 38.2593 35.7205C38.5782 35.5106 38.8397 35.3401 39.0452 35.2099C39.1909 35.1109 39.3481 35.0268 39.513 34.9598C39.5782 34.936 39.641 34.9047 39.7008 34.8675C39.7553 34.8295 39.8036 34.7834 39.8427 34.7313C39.9363 34.6189 40.0191 34.4991 40.0919 34.3733C40.1678 34.2423 40.2407 34.1157 40.3089 33.9922C40.4071 33.8321 40.4232 33.7265 40.3542 33.6736C40.3266 33.652 40.289 33.6416 40.2407 33.6416C40.1686 33.6416 40.0735 33.6654 39.9562 33.7131Z" fill="white"/>
<path fill-rule="evenodd" clip-rule="evenodd" d="M36.3181 37.65C36.2224 37.8463 36.1323 38.0395 36.0505 38.2281C35.9694 38.4127 35.898 38.6012 35.8342 38.7952C35.8134 38.8526 35.7968 38.9023 35.7822 38.9356C35.7704 38.962 35.7649 38.99 35.767 39.0187C35.7732 39.0458 35.7864 39.0691 35.8044 39.0877C35.8252 39.1094 35.8599 39.1436 35.9077 39.1894C36.0754 39.3352 36.2252 39.5067 36.3506 39.6991C36.4588 39.8512 36.5184 40.0382 36.5205 40.2321C36.4927 40.4207 36.4075 40.5921 36.2792 40.7194C36.1059 40.9157 35.9306 41.0996 35.7531 41.2687C35.5743 41.4386 35.385 41.6217 35.1861 41.818C35.1279 41.8653 35.0773 41.9228 35.0357 41.9879C35.019 42.026 35.0225 42.0523 35.0468 42.0671C35.0863 42.0834 35.1292 42.0857 35.1695 42.0733C35.236 42.0593 35.2998 42.0384 35.3608 42.0104C35.6013 41.9049 35.8134 41.7986 35.9992 41.6931C36.1725 41.5953 36.3382 41.4821 36.4941 41.3533C36.5953 41.2718 36.6813 41.1671 36.7457 41.0468C36.8116 40.9265 36.8712 40.8016 36.9267 40.6736C37.0313 40.4261 37.1242 40.1716 37.2032 39.9132C37.2843 39.6526 37.3266 39.3787 37.3266 39.1025C37.3336 38.8193 37.2615 38.54 37.1208 38.3033C36.9717 38.0651 36.8033 37.8424 36.6161 37.6384C36.5662 37.5771 36.5094 37.5243 36.447 37.4801C36.4435 37.4786 36.4401 37.4778 36.4366 37.4778C36.4068 37.4778 36.3673 37.5352 36.3181 37.65Z" fill="white"/>
<path fill-rule="evenodd" clip-rule="evenodd" d="M39.5717 35.1838C39.5367 35.2091 39.5079 35.239 39.4883 35.2728L39.3967 35.407C39.2743 35.5864 39.1662 35.7567 39.0746 35.9162C38.983 36.0773 38.9068 36.2176 38.8461 36.3372C38.7452 36.5397 38.6742 36.7506 38.631 36.9646C38.4683 37.8365 38.3376 38.562 38.2409 39.141C38.1555 39.6073 38.106 40.0767 38.0947 40.5468C38.1915 40.5368 38.2769 40.4985 38.3325 40.4402C38.4334 40.3543 38.5198 40.2607 38.5919 40.1603C38.6855 40.0322 38.7658 39.8995 38.8296 39.7622C38.8996 39.6173 38.9521 39.467 38.9819 39.3144C39.0159 38.7185 39.0828 38.0827 39.1847 37.4071C39.2866 36.7314 39.4245 36.065 39.5964 35.4078C39.6221 35.3426 39.6324 35.2743 39.6283 35.2061C39.6201 35.1861 39.6088 35.1761 39.5943 35.1761C39.5871 35.1761 39.5799 35.1784 39.5717 35.1838Z" fill="white"/>
<path fill-rule="evenodd" clip-rule="evenodd" d="M40.0513 44.7807C39.9281 44.963 39.8128 45.1505 39.7044 45.3413C39.6054 45.1658 39.4698 45.0167 39.3108 44.906C39.1884 44.791 39.0411 44.7126 38.882 44.6811C38.8282 44.6811 38.6833 44.8906 38.4478 45.3097C38.3005 45.5355 38.1813 45.7808 38.0947 46.0398C38.0947 46.073 38.2257 46.1923 38.4884 46.3984C38.5648 46.4563 38.6388 46.5177 38.7082 46.585C38.7682 46.6369 38.8407 46.6719 38.9171 46.6846C39.087 46.6846 39.3302 46.3899 39.646 45.8013C39.8135 45.9197 39.9733 46.0534 40.1207 46.1991C40.2524 46.332 40.3491 46.3984 40.4107 46.3984C40.5034 46.3984 40.65 46.257 40.8511 45.975C41.0265 45.774 41.1372 45.5159 41.1637 45.2407C41.1364 45.0125 41.0226 44.8055 40.8511 44.6692C40.7217 44.5124 40.5455 44.411 40.3522 44.3829C40.314 44.3829 40.2134 44.5158 40.0513 44.7807Z" fill="white"/>
<path fill-rule="evenodd" clip-rule="evenodd" d="M38.0966 40.3238C38.0885 40.5359 38.107 40.7481 38.1495 40.9554C38.1895 41.1602 38.2641 41.3553 38.3699 41.534C38.4701 41.7013 38.6087 41.8425 38.7746 41.9453C38.959 42.0522 39.1714 42.0979 39.383 42.0759C39.5505 42.062 39.7132 42.0179 39.8655 41.9453C40.0137 41.8718 40.1508 41.7755 40.2702 41.6588C40.4016 41.5299 40.5187 41.3895 40.6213 41.2361C40.7327 41.0737 40.8433 40.8966 40.9547 40.7057C41.0244 40.562 41.139 40.447 41.2825 40.3776C41.438 40.3409 41.5991 40.3433 41.753 40.3841C41.8147 40.3123 41.8604 40.2291 41.8876 40.1385C41.9157 40.0496 41.9293 39.9573 41.9309 39.8643C41.9309 39.7762 41.9157 39.6897 41.8828 39.6081C41.8556 39.5354 41.8099 39.4693 41.7522 39.4179C41.5863 39.3722 41.4091 39.3934 41.2584 39.4767C41.111 39.5819 40.9875 39.7158 40.8954 39.87C40.7984 40.0218 40.6758 40.1532 40.5315 40.2585C40.4 40.3548 40.2502 40.4225 40.0907 40.4609C39.7645 40.5376 39.4198 40.4413 39.1794 40.2046C38.894 39.8774 38.7562 39.4457 38.7987 39.0123L38.0966 40.3238Z" fill="white"/>
<path fill-rule="evenodd" clip-rule="evenodd" d="M41.4543 35.6237C41.3164 35.8018 41.2176 35.9988 41.1636 36.205C41.1714 36.2598 41.2082 36.3094 41.2662 36.3387C41.3595 36.3896 41.452 36.4373 41.546 36.4816C41.6902 36.5769 41.8509 36.6539 42.0233 36.7106C42.1244 36.7106 42.2615 36.6049 42.4363 36.3955C42.5836 36.2454 42.6745 36.0634 42.698 35.871C42.6361 35.5063 42.2827 35.2199 41.8368 35.1761C41.7756 35.1761 41.6487 35.3249 41.4543 35.6237Z" fill="white"/>
<path fill-rule="evenodd" clip-rule="evenodd" d="M42.4754 37.6787C42.3955 37.7988 42.3304 37.926 42.2821 38.0571C42.2254 38.2062 42.1872 38.3601 42.1659 38.5155C42.1417 38.6717 42.1398 38.8295 42.1575 38.9857C42.1714 39.1262 42.2188 39.2627 42.296 39.3875C42.2449 39.5422 42.0812 39.6529 41.8897 39.6623C41.6462 39.6654 41.4026 39.6466 41.1636 39.605L41.0303 40.5817C41.1719 40.4095 41.4918 40.5485 41.6471 40.5053C41.7819 40.4645 41.9074 40.4064 42.0199 40.3326C42.1287 40.262 42.2291 40.1811 42.3165 40.0924C42.4048 40.0037 42.4894 39.926 42.5731 39.8569C42.6707 39.7847 42.7972 39.7897 42.937 39.7621C43.0303 39.7437 43.1468 39.7104 43.2867 39.6623C43.574 39.1379 43.5372 38.6497 43.2499 38.1254C43.1616 38.0571 43.0872 37.9778 43.0295 37.8907C42.9635 37.7996 42.9031 37.7062 42.8501 37.6097C42.8046 37.5217 42.7571 37.4778 42.7088 37.4778C42.6976 37.4778 42.6874 37.4794 42.6772 37.4833C42.5898 37.5319 42.5191 37.5994 42.4754 37.6787Z" fill="white"/>
<path fill-rule="evenodd" clip-rule="evenodd" d="M43.7575 43.2935C43.6165 43.4732 43.5186 43.6724 43.4653 43.8813C43.4724 43.9339 43.5115 43.9799 43.5687 44.0039L43.8484 44.1558C43.9917 44.2505 44.1531 44.3271 44.3246 44.3829C44.4256 44.3829 44.5627 44.2771 44.7382 44.0656C44.8839 43.9144 44.9747 43.7314 44.9998 43.54C44.9371 43.176 44.5839 42.8919 44.139 42.8484C44.0771 42.8484 43.9502 42.9963 43.7575 43.2935Z" fill="white"/>
<mask id="mask0_6008_43244" style="mask-type:alpha" maskUnits="userSpaceOnUse" x="42" y="37" width="3" height="3">
<path d="M44.072 37.5671C44.0066 37.7025 43.9027 37.822 43.7709 37.9158C43.6629 37.9893 43.5362 38.0407 43.4012 38.0654C43.2756 38.0867 43.1468 38.084 43.0232 38.0584C42.9018 38.0336 42.7907 37.9858 42.6982 37.9158V39.7784C42.9215 39.7872 43.1427 39.7376 43.3296 39.6358C43.5372 39.5225 43.7086 39.3694 43.8321 39.1897C43.9796 38.9763 44.0865 38.7453 44.1488 38.5045C44.2215 38.2266 44.2464 37.9415 44.2257 37.6574C44.2288 37.6025 44.2163 37.5467 44.1872 37.4963C44.1789 37.4839 44.1696 37.4777 44.1592 37.4777C44.1364 37.4777 44.1073 37.5078 44.072 37.5671Z" fill="white"/>
</mask>
<g mask="url(#mask0_6008_43244)">
<path d="M44.072 37.5672C44.0066 37.7026 43.9027 37.8221 43.7709 37.916C43.6629 37.9894 43.5362 38.0408 43.4012 38.0656C43.2756 38.0868 43.1468 38.0842 43.0232 38.0585C42.9018 38.0337 42.7907 37.9859 42.6982 37.916V39.7785C42.9215 39.7873 43.1427 39.7378 43.3296 39.636C43.5372 39.5226 43.7086 39.3695 43.8321 39.1898C43.9796 38.9765 44.0865 38.7454 44.1488 38.5046C44.2215 38.2267 44.2464 37.9416 44.2257 37.6575C44.2288 37.6026 44.2163 37.5468 44.1872 37.4964C44.1789 37.484 44.1696 37.4778 44.1592 37.4778C44.1364 37.4778 44.1073 37.5079 44.072 37.5672Z" fill="white"/>
</g>
</svg>
