<svg width="62" height="55" viewBox="0 0 62 55" fill="none" xmlns="http://www.w3.org/2000/svg">
<path d="M61.2735 45.1765C61.3154 45.1765 61.3809 45.0993 61.4698 44.945C61.5588 44.7906 61.6033 44.669 61.6033 44.5801C61.6033 44.4885 61.5549 44.3917 61.4581 44.2897C61.3638 44.1982 61.2775 44.1524 61.199 44.1524C61.1675 44.1524 61.0988 44.257 60.9928 44.4663C60.8868 44.6755 60.8338 44.7946 60.8338 44.8233C60.8338 44.8495 60.8574 44.8783 60.9045 44.9096C60.9516 44.941 61.0184 44.9934 61.1047 45.0666C61.1911 45.1398 61.2474 45.1765 61.2735 45.1765ZM60.8731 46.1377C60.9595 46.1377 61.0799 45.9886 61.2343 45.6904C61.2971 45.7323 61.3743 45.8003 61.4659 45.8945C61.534 45.9625 61.5863 45.9965 61.623 45.9965C61.6701 45.9965 61.7447 45.9246 61.8467 45.7807C61.9488 45.6342 61.9998 45.5126 61.9998 45.4158C61.9998 45.3295 61.9488 45.2353 61.8467 45.1333C61.7447 45.0417 61.6596 44.996 61.5915 44.996C61.5706 44.996 61.5196 45.0601 61.4384 45.1882C61.3809 45.2798 61.322 45.3739 61.2618 45.4707C61.2277 45.4001 61.1623 45.3262 61.0655 45.249C60.9686 45.1719 60.8967 45.1333 60.8495 45.1333C60.8234 45.1333 60.7501 45.2386 60.6297 45.4491C60.5093 45.6597 60.4491 45.782 60.4491 45.816C60.4491 45.8343 60.5145 45.8925 60.6454 45.9906C60.7763 46.0887 60.8522 46.1377 60.8731 46.1377ZM60.0369 49.0843C60.1782 49.0948 60.2901 49.0575 60.3725 48.9725C60.455 48.8875 60.6088 48.6554 60.8338 48.2761C60.9019 48.1819 60.9601 48.1178 61.0085 48.0838C61.057 48.0498 61.1073 48.0256 61.1597 48.0112C61.212 47.9969 61.2683 47.9884 61.3285 47.9857C61.4175 47.9805 61.5183 47.8393 61.6308 47.562C61.6674 47.4626 61.6858 47.3933 61.6858 47.354C61.6805 47.2991 61.6622 47.2795 61.6308 47.2952C61.6099 47.3057 61.5843 47.3364 61.5542 47.3874C61.5242 47.4384 61.4908 47.4914 61.4541 47.5463C61.3887 47.5463 61.3115 47.5568 61.2225 47.5777C61.1335 47.5986 61.0471 47.6601 60.9634 47.7621C60.8796 47.8641 60.8208 47.9387 60.7867 47.9857C60.7291 48.0668 60.6886 48.1231 60.665 48.1545C60.6074 48.2329 60.5512 48.2722 60.4962 48.2722L60.4777 48.2719C60.4544 48.2715 60.4102 48.271 60.3451 48.2702C60.2364 48.2689 60.1337 48.2774 60.0369 48.2957C59.9584 48.5599 59.9584 48.8228 60.0369 49.0843ZM56.5323 51.7881L56.5742 51.7759C56.5978 51.7681 56.6187 51.7602 56.637 51.7524C56.6527 51.7472 56.6658 51.7419 56.6763 51.7367C56.7967 51.687 56.9092 51.6314 57.0139 51.5699C57.1186 51.5085 57.2325 51.4333 57.3555 51.3443C57.4785 51.2554 57.6342 51.1187 57.8227 50.9343C58.0111 50.7499 58.1963 50.5302 58.3782 50.2752C58.5601 50.0201 58.7158 49.8102 58.8454 49.6454C58.9749 49.4806 59.1365 49.3446 59.3302 49.2374C59.4637 49.1746 59.5684 49.1327 59.6443 49.1118C59.7307 49.0883 59.8085 49.0765 59.8779 49.0765C59.9472 49.0765 60.0002 49.0791 60.0369 49.0843C60.0631 49.032 60.0873 48.9738 60.1095 48.9097C60.1318 48.8457 60.1455 48.7796 60.1507 48.7116C60.156 48.6436 60.1507 48.5743 60.135 48.5037C60.1193 48.433 60.0866 48.3637 60.0369 48.2957C60.0081 48.3009 59.98 48.3062 59.9525 48.3114C59.925 48.3166 59.8969 48.3258 59.8681 48.3389C59.7006 48.4016 59.5239 48.4984 59.3381 48.6292C59.1522 48.76 58.9599 48.9483 58.761 49.1942C58.6929 49.2753 58.5424 49.4846 58.3095 49.822C58.2467 49.924 58.1799 50.0221 58.1093 50.1163C57.9601 50.3517 57.8024 50.559 57.6362 50.7381C57.47 50.9173 57.3077 51.0703 57.1494 51.1972C56.991 51.3241 56.849 51.428 56.7234 51.5091C56.6135 51.5954 56.5389 51.6595 56.4996 51.7014C56.4682 51.738 56.4564 51.7629 56.4643 51.7759C56.4931 51.7942 56.5297 51.7942 56.5742 51.7759L56.5323 51.7881ZM57.8933 45.867C57.9038 45.8853 57.9457 45.8644 58.019 45.8042C58.053 45.7781 58.0896 45.75 58.1289 45.7199C58.1681 45.6898 58.2074 45.6577 58.2467 45.6237L58.8002 45.1921C59.007 45.0404 59.2216 44.877 59.4441 44.7017C59.6116 44.5735 59.7935 44.4257 59.9898 44.2583C60.1337 44.138 60.26 44.0308 60.3686 43.9366C60.4772 43.8424 60.5682 43.7627 60.6415 43.6973C60.8456 43.5142 60.9817 43.3886 61.0498 43.3206C61.0733 43.2971 61.1531 43.212 61.2892 43.0656C61.4044 42.9348 61.496 42.8236 61.5641 42.7321C61.6295 42.6484 61.7028 42.5372 61.7839 42.3985C61.8624 42.2573 61.9135 42.1448 61.937 42.0611C61.9475 42.0297 61.9527 42.0049 61.9527 41.9866C61.9527 41.9885 61.9401 42.0024 61.9149 42.0283L61.8016 42.1416C61.7008 42.241 61.5497 42.3881 61.3481 42.583C61.0524 42.8681 60.8404 43.0708 60.7121 43.1911C60.474 43.4108 60.2384 43.6175 60.0055 43.811C59.6312 44.1171 59.2883 44.3917 58.9769 44.635C58.5764 44.962 58.3252 45.1817 58.2231 45.2942C58.1551 45.3622 58.0935 45.4459 58.0386 45.5453C57.9784 45.6577 57.93 45.765 57.8933 45.867ZM57.1395 49.1864C57.1997 49.1864 57.2652 49.1432 57.3358 49.0569C57.4065 48.9732 57.4746 48.8777 57.54 48.7705C57.6054 48.6606 57.6565 48.5468 57.6931 48.4291C57.7297 48.314 57.7585 48.1728 57.7795 48.0054C57.7978 47.8563 57.8174 47.4417 57.8384 46.7616C57.8462 46.6439 57.8541 46.5144 57.8619 46.3731C57.8724 46.2476 57.8776 46.1286 57.8776 46.0161C57.8776 45.9559 57.875 45.9206 57.8698 45.9102C57.8514 45.8788 57.8331 45.884 57.8148 45.9259L57.6774 46.3378L57.4929 46.9146L57.5007 48.0054C57.5007 48.0786 57.4929 48.178 57.4772 48.3036C57.4615 48.4239 57.4432 48.5089 57.4222 48.5586C57.383 48.6658 57.33 48.709 57.2632 48.6881C57.1965 48.6671 57.1291 48.6567 57.061 48.6567C57.0296 48.743 57.0152 48.8287 57.0178 48.9137C57.0205 48.9987 57.0349 49.0843 57.061 49.1707C57.0741 49.1785 57.1003 49.1837 57.1395 49.1864ZM53.8457 48.6057C53.9295 48.6057 54.042 48.4631 54.1833 48.178C54.2409 48.2199 54.3077 48.2787 54.3836 48.3546C54.4595 48.4304 54.5118 48.4683 54.5406 48.4683C54.5851 48.4683 54.6544 48.4016 54.7487 48.2682C54.8455 48.1322 54.8939 48.0145 54.8939 47.9151C54.8887 47.8314 54.8409 47.7418 54.7506 47.6464C54.6603 47.5509 54.5825 47.5031 54.517 47.5031C54.4961 47.5031 54.4536 47.5568 54.3894 47.664L54.269 47.8645L54.2147 47.9544C54.1702 47.8916 54.1055 47.819 54.0204 47.7366C53.9353 47.6542 53.8706 47.6222 53.8261 47.6405C53.8025 47.6405 53.7371 47.7412 53.6298 47.9426C53.5225 48.144 53.4688 48.2617 53.4688 48.2957C53.4688 48.3114 53.5074 48.3506 53.5846 48.4134C53.6618 48.4762 53.7188 48.5233 53.7554 48.5547C53.7947 48.5887 53.8248 48.6057 53.8457 48.6057ZM53.3667 50.6302C53.9373 50.6302 54.4542 50.5792 54.9175 50.4772C55.386 50.3752 55.7445 50.2313 55.9932 50.0456C56.0953 49.9776 56.1829 49.8939 56.2562 49.7945C56.2876 49.7474 56.3197 49.701 56.3524 49.6552C56.3851 49.6095 56.4172 49.563 56.4486 49.5159C56.514 49.4218 56.5781 49.3485 56.641 49.2962C56.7064 49.2387 56.7692 49.2034 56.8294 49.1903C56.8948 49.1772 56.972 49.1707 57.061 49.1707C57.1055 49.1157 57.1422 49.032 57.171 48.9196C57.184 48.8019 57.1474 48.7142 57.061 48.6567C56.9354 48.6828 56.832 48.7391 56.7509 48.8254C56.7116 48.8646 56.6606 48.9268 56.5978 49.0118C56.535 49.0968 56.4996 49.1419 56.4918 49.1471C56.4211 49.2204 56.3243 49.289 56.2013 49.3531C56.0782 49.4172 55.9238 49.4767 55.738 49.5316C55.4553 49.618 55.2165 49.6742 55.0215 49.7004C54.8265 49.7265 54.5727 49.7468 54.2599 49.7612C53.9471 49.7756 53.6651 49.7801 53.4138 49.7749C53.1076 49.7723 52.874 49.7501 52.7131 49.7082C52.5521 49.6663 52.4356 49.6114 52.3637 49.5434C52.2917 49.4754 52.2492 49.3812 52.2361 49.2609C52.2178 49.1406 52.1981 49.0804 52.1772 49.0804C52.1432 49.0804 52.1131 49.1785 52.0869 49.3747C52.0581 49.5552 52.0437 49.733 52.0437 49.9083C52.0437 50.1803 52.1261 50.3674 52.291 50.4694C52.3931 50.5374 52.5515 50.5805 52.7661 50.5989C52.9545 50.6198 53.1547 50.6302 53.3667 50.6302ZM50.7678 48.8686C50.9667 48.8686 51.125 48.743 51.2428 48.4919C51.3266 48.3009 51.3684 48.1074 51.3684 47.9112C51.3632 47.8589 51.341 47.7909 51.3017 47.7072C51.2598 47.6287 51.2075 47.6012 51.1447 47.6248C51.1185 47.6509 51.0858 47.7268 51.0465 47.8523C51.0099 47.9805 50.9837 48.0459 50.968 48.0485C50.879 48.0485 50.8018 48.0041 50.7364 47.9151C50.6657 47.8288 50.6304 47.6993 50.6304 47.5267V47.3933C50.599 47.3828 50.563 47.3959 50.5224 47.4325C50.4818 47.4691 50.4445 47.5188 50.4105 47.5816C50.3765 47.6444 50.3484 47.715 50.3261 47.7935C50.3039 47.872 50.2927 47.9465 50.2927 48.0171C50.2927 48.1872 50.3032 48.3284 50.3242 48.4409C50.3451 48.5481 50.3961 48.6462 50.4773 48.7351C50.5584 48.8241 50.6552 48.8686 50.7678 48.8686ZM50.0533 48.898C50.0899 48.8967 50.1226 48.8869 50.1514 48.8686C50.1566 48.8215 50.2038 48.7234 50.2927 48.5743C50.3372 48.4984 50.37 48.4605 50.3909 48.4605C50.4197 48.4605 50.4472 48.4043 50.4733 48.2918C50.5021 48.195 50.5309 48.0511 50.5597 47.8602L50.6304 47.3972C50.6304 47.2978 50.6579 47.0715 50.7128 46.7184C50.7207 46.6609 50.7318 46.5896 50.7462 46.5046C50.7606 46.4196 50.7776 46.3326 50.7972 46.2437C50.8169 46.1547 50.8188 46.1063 50.8031 46.0985C50.79 46.0906 50.773 46.0946 50.7521 46.1103C50.6709 46.2489 50.6068 46.3745 50.5597 46.4869C50.5388 46.5392 50.5061 46.636 50.4616 46.7773C50.4328 46.895 50.4079 47.0075 50.387 47.1147C50.3608 47.2376 50.3385 47.3841 50.3202 47.5541L50.2927 47.97L50.2849 48.1466C50.2797 48.2042 50.2456 48.2931 50.1828 48.4134C50.175 48.4317 50.1279 48.522 50.0415 48.6841L49.9433 48.8686C49.98 48.8895 50.0166 48.8993 50.0533 48.898ZM48.7381 51.8858C48.882 51.8858 49.0168 51.8649 49.1424 51.823C49.2576 51.7838 49.3754 51.7262 49.4958 51.6504C49.8229 51.4123 50.0821 51.0932 50.2731 50.693C50.3935 50.4341 50.476 50.217 50.5204 50.0417C50.5649 49.8612 50.5872 49.6847 50.5872 49.512C50.5872 49.3943 50.5741 49.3054 50.5479 49.2452C50.5218 49.1903 50.4786 49.1412 50.4184 49.0981C50.3582 49.0549 50.2986 49.015 50.2397 48.9784C50.1809 48.9418 50.1514 48.9052 50.1514 48.8686C50.1488 48.8502 50.1383 48.8372 50.12 48.8293C50.1017 48.8215 50.0814 48.8175 50.0592 48.8175C50.0369 48.8175 50.0147 48.8215 49.9924 48.8293C49.9702 48.8372 49.9538 48.8502 49.9433 48.8686C49.8858 48.9732 49.8367 49.0837 49.7961 49.2001C49.7555 49.3165 49.7353 49.4205 49.7353 49.512C49.7353 49.6402 49.8308 49.7487 50.0219 49.8377C50.2103 49.924 50.3045 49.9894 50.3045 50.0339C50.3045 50.2562 50.1841 50.4681 49.9433 50.6695C49.6607 50.9049 49.31 51.0226 48.8912 51.0226C48.6583 51.0226 48.4685 50.9742 48.3219 50.8774C48.123 50.7388 48.0236 50.5086 48.0236 50.1869C48.0236 50.0169 48.0851 49.7762 48.2081 49.4649C48.2787 49.2949 48.407 48.9954 48.5928 48.5664C48.6138 48.5194 48.6308 48.4631 48.6439 48.3977C48.6569 48.3428 48.6491 48.3127 48.6203 48.3075C48.5994 48.3049 48.5693 48.3389 48.53 48.4095C48.5143 48.4461 48.494 48.488 48.4692 48.535C48.4443 48.5821 48.4162 48.6344 48.3847 48.692C48.3403 48.7862 48.3036 48.8627 48.2748 48.9215C48.246 48.9804 48.2238 49.0242 48.2081 49.053C48.1557 49.1733 48.0929 49.3211 48.0196 49.4963C47.9516 49.6663 47.8862 49.8678 47.8233 50.1006C47.7605 50.3412 47.7291 50.5361 47.7291 50.6852C47.7291 51.02 47.8063 51.2946 47.9607 51.5091C48.1413 51.7602 48.4005 51.8858 48.7381 51.8858ZM46.7123 50.5753C46.851 50.5675 46.9688 50.4955 47.0656 50.3595C47.1625 50.2235 47.239 50.0496 47.2953 49.8377C47.3516 49.6258 47.381 49.4728 47.3836 49.3786C47.3889 49.3237 47.3771 49.2962 47.3483 49.2962C47.3247 49.2962 47.2999 49.3348 47.2737 49.412C47.2475 49.4891 47.2155 49.5565 47.1775 49.614C47.1396 49.6716 47.0853 49.7082 47.0146 49.7239C46.9439 49.7396 46.8733 49.7239 46.8026 49.6768C46.6848 49.5905 46.6259 49.4375 46.6259 49.2178V49.0451C46.5841 49.0556 46.5297 49.1144 46.463 49.2217C46.3963 49.3289 46.3367 49.495 46.2844 49.72V49.7474C46.2791 49.9881 46.3119 50.1843 46.3825 50.336C46.461 50.4903 46.571 50.5701 46.7123 50.5753ZM46.5042 53.6318C46.5827 53.6318 46.6901 53.4853 46.8262 53.1923C46.8811 53.2342 46.9505 53.3009 47.0342 53.3925C47.0944 53.4578 47.1402 53.4905 47.1716 53.4905C47.2135 53.4905 47.2789 53.4212 47.3679 53.2826C47.4595 53.1387 47.5053 53.0184 47.5053 52.9216C47.5053 52.8379 47.4595 52.7451 47.3679 52.643C47.2789 52.5541 47.2044 52.5096 47.1442 52.5096C47.1258 52.5096 47.08 52.5737 47.0067 52.7019C46.957 52.7908 46.9047 52.8811 46.8497 52.9726C46.8209 52.9072 46.7633 52.836 46.677 52.7588C46.5906 52.6816 46.5265 52.643 46.4846 52.643C46.461 52.643 46.3963 52.747 46.2903 52.955C46.1843 53.1629 46.1313 53.2826 46.1313 53.314C46.1313 53.3323 46.1888 53.3898 46.304 53.4866C46.4192 53.5834 46.4859 53.6318 46.5042 53.6318ZM46.8536 54.4047C46.885 54.4047 46.9426 54.3407 47.0264 54.2125C47.1075 54.0791 47.1507 53.9666 47.1559 53.8751C47.1612 53.7914 47.1265 53.7037 47.0519 53.6122C46.9773 53.5206 46.9086 53.4722 46.8458 53.467C46.8222 53.4644 46.7594 53.554 46.6573 53.7358C46.5553 53.9176 46.5029 54.0215 46.5003 54.0477C46.5003 54.0712 46.518 54.0987 46.5533 54.1301C46.5886 54.1615 46.6233 54.1916 46.6573 54.2203C46.6992 54.2648 46.7398 54.3067 46.779 54.3459C46.8078 54.3825 46.8327 54.4021 46.8536 54.4047ZM46.2844 49.7239C46.342 49.7317 46.391 49.7219 46.4316 49.6945C46.4722 49.667 46.5055 49.6252 46.5317 49.5689C46.5579 49.5127 46.5788 49.4447 46.5945 49.3649C46.6102 49.2851 46.6207 49.1955 46.6259 49.0961C46.6259 49.0804 46.6325 48.9889 46.6456 48.8215C46.6586 48.6541 46.694 48.3454 46.7516 47.8955C46.8091 47.4456 46.8419 47.1409 46.8497 46.9813C46.8497 46.9604 46.8425 46.9473 46.8281 46.9421C46.8137 46.9368 46.8 46.9499 46.7869 46.9813C46.6586 47.3057 46.5736 47.5319 46.5317 47.6601C46.4506 48.1021 46.3897 48.5056 46.3492 48.8705C46.3086 49.2354 46.287 49.5199 46.2844 49.7239ZM44.7454 50.5753C44.8815 50.5779 45.0098 50.5269 45.1302 50.4223C45.2113 50.3491 45.3003 50.2392 45.3971 50.0927C45.4547 50.0038 45.5084 49.8952 45.5581 49.7671C45.5921 49.6807 45.6222 49.5983 45.6484 49.5199C45.6746 49.4414 45.7066 49.3328 45.7446 49.1942C45.7825 49.0556 45.8041 48.8829 45.8093 48.6763C45.812 48.6161 45.8159 48.5122 45.8211 48.3644C45.8264 48.2166 45.8303 48.0917 45.8329 47.9897C45.8512 47.5895 45.8813 47.2363 45.9232 46.9303C45.9363 46.8623 45.9468 46.7917 45.9546 46.7184C45.9677 46.6373 45.9677 46.5935 45.9546 46.587C45.9415 46.5804 45.9258 46.5903 45.9075 46.6164C45.7609 46.8728 45.6549 47.1095 45.5895 47.3266C45.5241 47.5437 45.4881 47.7346 45.4815 47.8994C45.475 48.0642 45.473 48.248 45.4756 48.4507C45.4783 48.6534 45.4769 48.8175 45.4717 48.9431V49.1864C45.4717 49.2675 45.4475 49.3825 45.3991 49.5316C45.3507 49.6807 45.2545 49.8135 45.1105 49.9299C44.9666 50.0463 44.8226 50.1019 44.6787 50.0966C44.6525 50.0966 44.6211 50.096 44.5845 50.0947C44.5478 50.0934 44.5269 50.0875 44.5216 50.077C44.6263 49.9253 44.7127 49.7435 44.7808 49.5316C44.8305 49.3878 44.8678 49.2387 44.8926 49.0843C44.9175 48.93 44.9496 48.5913 44.9888 48.0681C44.9995 47.9255 45.0088 47.8005 45.0166 47.6932L45.0302 47.5023C45.0419 47.335 45.0477 47.2385 45.0477 47.2128C45.0503 47.116 45.0425 47.0676 45.0242 47.0676C45.0189 47.0676 45.0124 47.0729 45.0045 47.0833C44.9967 47.0938 44.9901 47.1069 44.9849 47.1226C44.8645 47.4469 44.7781 47.7046 44.7258 47.8955C44.6473 48.178 44.6041 48.4396 44.5962 48.6802C44.5989 48.7744 44.5995 48.862 44.5982 48.9431C44.5969 49.0242 44.5949 49.1053 44.5923 49.1864C44.5897 49.2675 44.5831 49.3642 44.5727 49.4767C44.5622 49.5892 44.5465 49.6801 44.5256 49.7494C44.5046 49.8187 44.4811 49.8743 44.4549 49.9162C44.4287 49.958 44.4078 49.9894 44.3921 50.0103C44.3607 50.0522 44.3319 50.0901 44.3057 50.1241C44.2795 50.1581 44.2665 50.1882 44.2665 50.2143C44.2638 50.251 44.2822 50.2876 44.3214 50.3242C44.3319 50.3347 44.3568 50.3556 44.396 50.387C44.4457 50.4419 44.4981 50.4864 44.553 50.5204C44.608 50.5544 44.6721 50.5727 44.7454 50.5753ZM43.709 48.4173C43.8006 48.331 43.9 48.195 44.0073 48.0093C44.1094 47.8288 44.1631 47.6666 44.1683 47.5228C44.1735 47.3344 44.1762 47.2285 44.1762 47.2049C44.1762 47.1108 44.1775 47.0375 44.1801 46.9852C44.1827 46.9094 44.1788 46.8675 44.1683 46.8597C44.15 46.8518 44.1304 46.8662 44.1094 46.9028C44.0309 47.065 43.9694 47.1866 43.9249 47.2677C43.8568 47.3828 43.8228 47.4744 43.8228 47.5424V47.8798C43.8228 47.9138 43.8163 47.9504 43.8032 47.9897C43.7849 48.0289 43.7535 48.0616 43.709 48.0878C43.6854 48.1427 43.6763 48.1976 43.6815 48.2525C43.6867 48.3075 43.6959 48.3624 43.709 48.4173ZM43.1476 52.7333C43.2313 52.7333 43.3439 52.5907 43.4852 52.3056C43.5428 52.3475 43.6095 52.4063 43.6854 52.4822C43.7613 52.558 43.8137 52.596 43.8425 52.596C43.8869 52.596 43.9563 52.5293 44.0505 52.3959C44.1474 52.2598 44.1958 52.1421 44.1958 52.0427C44.1906 51.959 44.1428 51.8694 44.0525 51.774C43.9622 51.6785 43.8843 51.6308 43.8189 51.6308C43.798 51.6308 43.7554 51.6844 43.6913 51.7916C43.6272 51.8989 43.569 51.9957 43.5166 52.082C43.4721 52.0192 43.4073 51.9466 43.3223 51.8642C43.2372 51.7818 43.1724 51.7498 43.1279 51.7681C43.1044 51.7681 43.0389 51.8688 42.9316 52.0702C42.8243 52.2716 42.7707 52.3893 42.7707 52.4233C42.7707 52.439 42.8093 52.4783 42.8865 52.541C42.9637 52.6038 43.0206 52.6509 43.0573 52.6823C43.0965 52.7163 43.1266 52.7333 43.1476 52.7333ZM42.1033 45.9376C42.1425 45.9376 42.2034 45.8618 42.2858 45.7101C42.3683 45.5583 42.4095 45.4393 42.4095 45.353C42.4095 45.2615 42.365 45.166 42.276 45.0666C42.187 44.9777 42.1059 44.9332 42.0326 44.9332C42.0038 44.9332 41.9403 45.0359 41.8422 45.2412C41.744 45.4465 41.695 45.5623 41.695 45.5884C41.695 45.6146 41.7166 45.6434 41.7598 45.6747C41.8029 45.7061 41.8651 45.7578 41.9462 45.8297C42.0274 45.9017 42.0797 45.9376 42.1033 45.9376ZM41.7303 46.8793C41.8114 46.8793 41.924 46.7328 42.0679 46.4398C42.1255 46.4817 42.1975 46.5484 42.2839 46.64C42.3467 46.7053 42.3951 46.738 42.4291 46.738C42.471 46.738 42.5404 46.6687 42.6372 46.5301C42.7314 46.3862 42.7785 46.2659 42.7785 46.1691C42.7785 46.0854 42.7314 45.9939 42.6372 45.8945C42.5404 45.8055 42.4605 45.7611 42.3977 45.7611C42.3794 45.7611 42.3323 45.8238 42.2564 45.9494C42.204 46.0383 42.1491 46.1299 42.0915 46.2241C42.0601 46.156 41.9992 46.0841 41.9089 46.0083C41.8186 45.9324 41.7526 45.8945 41.7107 45.8945C41.6845 45.8945 41.6158 45.9978 41.5046 46.2044C41.3933 46.4111 41.3377 46.5301 41.3377 46.5615C41.3377 46.5798 41.3986 46.6373 41.5203 46.7341C41.642 46.8309 41.712 46.8793 41.7303 46.8793ZM40.3052 51.9211C40.8993 51.9159 41.4084 51.6268 41.8324 51.054C42.013 50.7977 42.1609 50.523 42.276 50.23C42.4252 49.8481 42.5273 49.4192 42.5822 48.9431C42.5927 48.9012 42.6006 48.8803 42.6058 48.8803C42.7105 48.8672 42.8001 48.843 42.8747 48.8077C42.9493 48.7724 43.0219 48.7273 43.0926 48.6724C43.1554 48.7064 43.2562 48.6763 43.3949 48.5821C43.4996 48.5743 43.6043 48.5207 43.709 48.4213C43.7142 48.4082 43.7247 48.386 43.7404 48.3546C43.7509 48.3336 43.7561 48.2996 43.7561 48.2525C43.7561 48.2081 43.7509 48.1754 43.7404 48.1545L43.709 48.0917C43.6854 48.11 43.6514 48.1231 43.6069 48.1309C43.5598 48.1335 43.5192 48.1257 43.4852 48.1074C43.4669 48.0917 43.4407 48.1159 43.4067 48.18C43.3727 48.244 43.3334 48.2761 43.2889 48.2761C43.2418 48.2761 43.2038 48.2617 43.175 48.2329C43.1463 48.2042 43.1227 48.1937 43.1044 48.2015C43.0206 48.3114 42.95 48.3781 42.8924 48.4016C42.8348 48.4252 42.7766 48.4278 42.7177 48.4095C42.6588 48.3912 42.6097 48.382 42.5705 48.382C42.4291 48.3846 42.3532 48.4683 42.3428 48.6331L42.343 49.0667C42.333 49.5516 42.236 49.9394 42.0522 50.23C41.9109 50.4628 41.7238 50.6577 41.4908 50.8147C41.1768 50.9951 40.8496 51.0854 40.5093 51.0854C40.2529 51.0801 40.0363 51.0121 39.8596 50.8814C39.6829 50.7506 39.5868 50.557 39.5711 50.3007C39.5763 49.9658 39.6954 49.5683 39.9283 49.1079C39.944 49.0608 39.9453 49.015 39.9322 48.9706C39.9192 48.9235 39.8786 48.9627 39.8105 49.0883C39.4572 49.7134 39.2818 50.2928 39.2844 50.8264C39.2949 51.1639 39.3905 51.4267 39.5711 51.6151C39.7516 51.806 39.9964 51.908 40.3052 51.9211ZM37.4668 50.5753C37.5008 50.5753 37.6087 50.5459 37.7906 50.487C37.9725 50.4282 38.108 50.3824 38.197 50.3497C38.286 50.317 38.3527 50.2863 38.3972 50.2575C38.4417 50.2287 38.5032 50.1542 38.5817 50.0339C38.6602 49.9135 38.7453 49.7265 38.8369 49.4728C38.8578 49.4152 38.8768 49.3531 38.8938 49.2864C38.9108 49.2197 38.9239 49.1648 38.9331 49.1216C38.9422 49.0785 38.9508 49.0248 38.9586 48.9608C38.9665 48.8967 38.9704 48.8319 38.9704 48.7665C38.9704 48.6384 38.9344 48.5285 38.8624 48.437C38.7904 48.3454 38.7008 48.2996 38.5935 48.2996C38.5307 48.2996 38.4672 48.3415 38.4031 48.4252C38.339 48.5089 38.2755 48.6148 38.2127 48.743C38.1499 48.8712 38.1086 48.9647 38.089 49.0235C38.0694 49.0824 38.0543 49.134 38.0439 49.1785C38.0334 49.2518 38.0609 49.3185 38.1263 49.3786C38.1917 49.4388 38.2729 49.4702 38.3697 49.4728C38.4064 49.4728 38.4437 49.463 38.4816 49.4434C38.5196 49.4237 38.5569 49.4165 38.5935 49.4218C38.5595 49.5421 38.5065 49.65 38.4345 49.7455C38.3625 49.8409 38.2919 49.9135 38.2225 49.9632C38.1531 50.0129 37.9994 50.1176 37.7612 50.2771C37.523 50.4367 37.4144 50.5308 37.4353 50.5596C37.4353 50.5701 37.4458 50.5753 37.4668 50.5753ZM35.1779 47.3266C35.3533 47.1566 35.6373 46.9774 36.0299 46.789C36.4225 46.6007 36.6305 46.4974 36.6541 46.4791C36.7064 46.4529 36.7562 46.4124 36.8033 46.3575C36.8347 46.3234 36.8923 46.2404 36.976 46.1083C37.0598 45.9762 37.1069 45.8958 37.1174 45.867C37.1252 45.8408 37.1147 45.8278 37.0859 45.8278L37.031 45.8474C36.8582 45.9232 36.6796 46.0154 36.4951 46.124C36.3106 46.2326 36.1339 46.3444 35.9651 46.4595C35.7963 46.5746 35.6432 46.6877 35.5058 46.7989C35.3684 46.91 35.2591 47.0048 35.1779 47.0833C35.1518 47.1435 35.142 47.1938 35.1485 47.2344C35.155 47.2749 35.1649 47.3057 35.1779 47.3266ZM36.5559 51.7171C36.6345 51.7171 36.7418 51.5706 36.8779 51.2776C36.9328 51.3195 37.0022 51.3862 37.0859 51.4777C37.1461 51.5431 37.1919 51.5758 37.2234 51.5758C37.2652 51.5758 37.3307 51.5065 37.4196 51.3679C37.5112 51.224 37.5571 51.1037 37.5571 51.0069C37.5571 50.9232 37.5112 50.8303 37.4196 50.7283C37.3307 50.6394 37.2561 50.5949 37.1959 50.5949C37.1775 50.5949 37.1317 50.659 37.0585 50.7872C37.0087 50.8761 36.9564 50.9664 36.9014 51.0579C36.8726 50.9925 36.8151 50.9212 36.7287 50.8441C36.6423 50.7669 36.5782 50.7283 36.5363 50.7283C36.5128 50.7283 36.448 50.8323 36.342 51.0403C36.236 51.2482 36.183 51.3679 36.183 51.3993C36.183 51.4176 36.2406 51.4751 36.3557 51.5719C36.4709 51.6687 36.5376 51.7171 36.5559 51.7171ZM36.9053 52.49C36.9368 52.49 36.9943 52.4259 37.0781 52.2978C37.1592 52.1644 37.2024 52.0519 37.2076 51.9603C37.2129 51.8766 37.1782 51.789 37.1036 51.6975C37.029 51.6059 36.9603 51.5575 36.8975 51.5523C36.8739 51.5497 36.8111 51.6393 36.7091 51.8211C36.607 52.0028 36.5546 52.1068 36.552 52.133C36.552 52.1565 36.5697 52.184 36.605 52.2154C36.6404 52.2468 36.675 52.2768 36.7091 52.3056C36.7509 52.3501 36.7915 52.3919 36.8308 52.4312C36.8595 52.4678 36.8844 52.4874 36.9053 52.49ZM35.6648 44.7252C35.7066 44.7252 35.7734 44.6468 35.865 44.4898C35.9566 44.3329 36.0024 44.2126 36.0024 44.1289C35.9945 44.0661 35.9356 43.9791 35.8257 43.8679C35.7158 43.7568 35.632 43.713 35.5745 43.7365C35.5457 43.7365 35.4822 43.8326 35.3841 44.0249C35.2859 44.2171 35.2368 44.342 35.2368 44.3996C35.2368 44.4284 35.2565 44.4558 35.2957 44.482C35.3402 44.5134 35.4089 44.5598 35.5018 44.6213L35.553 44.6549C35.6149 44.6955 35.6522 44.719 35.6648 44.7252ZM35.1779 48.4173C35.2722 48.3232 35.3703 48.2159 35.4724 48.0956C35.5274 48.0302 35.581 47.9635 35.6334 47.8955C35.6988 47.8118 35.7773 47.7425 35.8689 47.6876C35.8898 47.6771 35.916 47.6418 35.9474 47.5816C35.9814 47.5136 36.0024 47.4613 36.0102 47.4247C36.0181 47.3854 36.0155 47.3606 36.0024 47.3501C35.9893 47.3397 35.971 47.3397 35.9474 47.3501C35.8898 47.3763 35.8081 47.3952 35.7021 47.407C35.5961 47.4188 35.4802 47.426 35.3546 47.4286C35.229 47.4312 35.1387 47.4247 35.0837 47.409C35.1125 47.3802 35.1439 47.3527 35.1779 47.3266C35.2015 47.3083 35.2179 47.2847 35.227 47.256C35.2362 47.2272 35.2401 47.2004 35.2388 47.1755C35.2375 47.1507 35.2309 47.1291 35.2192 47.1108C35.2074 47.0925 35.1936 47.0833 35.1779 47.0833C35.0863 47.1696 35.0072 47.256 34.9404 47.3423C34.8737 47.4286 34.8259 47.5123 34.7971 47.5934C34.7867 47.6222 34.7919 47.6457 34.8128 47.664C34.8364 47.6849 34.8848 47.6954 34.9581 47.6954C34.9971 47.6949 35.034 47.6945 35.0689 47.6943L35.2536 47.6946C35.4403 47.697 35.5263 47.7064 35.5117 47.7229C35.441 47.8301 35.3782 47.9125 35.3232 47.97C35.2682 48.0276 35.2198 48.0668 35.1779 48.0878C35.1492 48.1165 35.1302 48.1492 35.121 48.1858C35.1119 48.2225 35.1086 48.2584 35.1112 48.2937C35.1138 48.3291 35.1217 48.3585 35.1348 48.382C35.1478 48.4056 35.1622 48.4173 35.1779 48.4173ZM33.5722 45.9376C33.6115 45.9376 33.6724 45.8618 33.7548 45.7101C33.8372 45.5583 33.8785 45.4393 33.8785 45.353C33.8785 45.2615 33.834 45.166 33.745 45.0666C33.656 44.9777 33.5749 44.9332 33.5016 44.9332C33.4728 44.9332 33.4093 45.0359 33.3112 45.2412C33.213 45.4465 33.1639 45.5623 33.1639 45.5884C33.1639 45.6146 33.1855 45.6434 33.2287 45.6747C33.2719 45.7061 33.3341 45.7578 33.4152 45.8297C33.4963 45.9017 33.5487 45.9376 33.5722 45.9376ZM33.1993 46.8793C33.2804 46.8793 33.393 46.7328 33.5369 46.4398C33.5945 46.4817 33.6665 46.5484 33.7528 46.64C33.8157 46.7053 33.8641 46.738 33.8981 46.738C33.94 46.738 34.0093 46.6687 34.1062 46.5301C34.2004 46.3862 34.2475 46.2659 34.2475 46.1691C34.2475 46.0854 34.2004 45.9939 34.1062 45.8945C34.0093 45.8055 33.9295 45.7611 33.8667 45.7611C33.8484 45.7611 33.8013 45.8238 33.7254 45.9494C33.673 46.0383 33.618 46.1299 33.5605 46.2241C33.5291 46.156 33.4682 46.0841 33.3779 46.0083C33.2876 45.9324 33.2215 45.8945 33.1796 45.8945C33.1535 45.8945 33.0848 45.9978 32.9735 46.2044C32.8623 46.4111 32.8067 46.5301 32.8067 46.5615C32.8067 46.5798 32.8675 46.6373 32.9892 46.7341C33.1109 46.8309 33.181 46.8793 33.1993 46.8793ZM31.7742 51.9211C32.3683 51.9159 32.8774 51.6268 33.3014 51.054C33.4819 50.7977 33.6298 50.523 33.745 50.23C33.8942 49.8481 33.9962 49.4192 34.0512 48.9431C34.0617 48.9012 34.0695 48.8803 34.0748 48.8803C34.1795 48.8672 34.2691 48.843 34.3437 48.8077C34.4183 48.7724 34.4909 48.7273 34.5616 48.6724C34.6244 48.7064 34.7252 48.6763 34.8639 48.5821C34.9686 48.5743 35.0733 48.5207 35.1779 48.4213C35.1832 48.4082 35.1936 48.386 35.2094 48.3546C35.2198 48.3336 35.2251 48.2996 35.2251 48.2525C35.2251 48.2081 35.2198 48.1754 35.2094 48.1545L35.1779 48.0917C35.1544 48.11 35.1204 48.1231 35.0759 48.1309C35.0288 48.1335 34.9882 48.1257 34.9542 48.1074C34.9358 48.0917 34.9097 48.1159 34.8756 48.18C34.8416 48.244 34.8024 48.2761 34.7579 48.2761C34.7108 48.2761 34.6728 48.2617 34.644 48.2329C34.6152 48.2042 34.5917 48.1937 34.5734 48.2015C34.4896 48.3114 34.4189 48.3781 34.3614 48.4016C34.3038 48.4252 34.2455 48.4278 34.1866 48.4095C34.1278 48.3912 34.0787 48.382 34.0394 48.382C33.8981 48.3846 33.8222 48.4683 33.8117 48.6331L33.812 49.0667C33.8019 49.5516 33.705 49.9394 33.5212 50.23C33.3799 50.4628 33.1927 50.6577 32.9598 50.8147C32.6457 50.9951 32.3186 51.0854 31.9783 51.0854C31.7218 51.0801 31.5052 51.0121 31.3286 50.8814C31.1519 50.7506 31.0557 50.557 31.04 50.3007C31.0453 49.9658 31.1643 49.5683 31.3973 49.1079C31.413 49.0608 31.4143 49.015 31.4012 48.9706C31.3881 48.9235 31.3476 48.9627 31.2795 49.0883C30.9262 49.7134 30.7508 50.2928 30.7534 50.8264C30.7639 51.1639 30.8594 51.4267 31.04 51.6151C31.2206 51.806 31.4653 51.908 31.7742 51.9211ZM30.1842 46.3182C30.226 46.3182 30.2928 46.2397 30.3844 46.0828C30.476 45.9259 30.5218 45.8055 30.5218 45.7218C30.514 45.6591 30.4551 45.5721 30.3451 45.4609C30.2352 45.3497 30.1515 45.3059 30.0939 45.3295C30.0651 45.3295 30.0016 45.4256 29.9035 45.6179C29.8053 45.8101 29.7562 45.935 29.7562 45.9926C29.7562 46.0213 29.7759 46.0488 29.8151 46.075C29.8596 46.1063 29.9283 46.1528 30.0212 46.2142C30.1142 46.2757 30.1685 46.3104 30.1842 46.3182ZM29.8622 49.6062C29.9643 49.5016 30.0487 49.4015 30.1155 49.306C30.1822 49.2106 30.2457 49.0837 30.3059 48.9254C30.3661 48.7672 30.3962 48.6031 30.3962 48.433C30.3962 48.2133 30.3451 48.0381 30.2431 47.9073C30.1436 47.7765 30.0206 47.7111 29.874 47.7111C29.8191 47.7111 29.7628 47.7634 29.7052 47.868C29.6476 47.9727 29.6071 48.0459 29.5835 48.0878C29.5469 48.1662 29.5102 48.246 29.4736 48.3271C29.4239 48.4396 29.399 48.5089 29.399 48.535C29.399 48.6109 29.4239 48.6698 29.4736 48.7116C29.5233 48.7561 29.5796 48.7783 29.6424 48.7783C29.6764 48.7783 29.7144 48.7757 29.7562 48.7705C29.7929 48.7626 29.8243 48.7508 29.8505 48.7351C29.8819 48.7351 29.9172 48.7639 29.9565 48.8215C29.9931 48.879 30.0114 48.9235 30.0114 48.9549C30.0114 48.9967 29.9617 49.053 29.8622 49.1236C29.8308 49.1681 29.8099 49.2158 29.7994 49.2668C29.789 49.3178 29.785 49.3662 29.7877 49.412C29.7903 49.4577 29.7981 49.4989 29.8112 49.5356C29.8243 49.5722 29.8413 49.5957 29.8622 49.6062ZM26.8511 51.9054C26.8799 51.9211 26.923 51.9146 26.9806 51.8858C27.0487 51.8544 27.1507 51.8047 27.2868 51.7367C27.3811 51.6896 27.4661 51.6438 27.542 51.5994C27.8718 51.3797 28.1689 51.1011 28.4332 50.7636C28.5615 50.6067 28.7139 50.4197 28.8906 50.2026C29.0672 49.9855 29.2249 49.8494 29.3637 49.7945C29.3977 49.7788 29.4854 49.7448 29.6267 49.6925L29.704 49.6639C29.7969 49.6296 29.8497 49.6104 29.8622 49.6062C29.891 49.5251 29.9067 49.4427 29.9094 49.359C29.912 49.2753 29.8963 49.1916 29.8622 49.1079C29.8335 49.1184 29.8034 49.1301 29.7719 49.1432C29.6018 49.2112 29.4984 49.2544 29.4618 49.2727C29.365 49.3171 29.2681 49.3734 29.1713 49.4414C29.0771 49.5173 28.9789 49.6127 28.8768 49.7278C28.8062 49.8141 28.712 49.9397 28.5942 50.1045C28.3874 50.4053 28.2513 50.5949 28.1859 50.6734C28.0943 50.7885 28.021 50.8696 27.966 50.9167C27.9163 50.9794 27.8312 51.0671 27.7108 51.1795C27.669 51.224 27.5407 51.3313 27.3261 51.5013L26.9963 51.7367C26.9702 51.7576 26.9466 51.7759 26.9257 51.7916C26.9047 51.8099 26.8864 51.8243 26.8707 51.8348C26.8445 51.8609 26.838 51.8845 26.8511 51.9054ZM26.5605 46.9264C26.5841 46.9421 26.6188 46.931 26.6646 46.893C26.7104 46.8551 26.7601 46.8178 26.8138 46.7812C26.8674 46.7446 26.9329 46.7145 27.0101 46.691C27.0873 46.6674 27.1763 46.6628 27.277 46.6772C27.3778 46.6916 27.4629 46.7093 27.5322 46.7302C27.6016 46.7511 27.6821 46.7655 27.7737 46.7734C28.0014 46.7812 28.1911 46.759 28.3429 46.7067C28.4947 46.6543 28.6661 46.5667 28.8572 46.4438C28.9802 46.3627 29.0869 46.2731 29.1772 46.175C29.2675 46.0769 29.3362 45.9847 29.3833 45.8984C29.4068 45.8618 29.4193 45.8297 29.4206 45.8023C29.4219 45.7748 29.4147 45.7611 29.399 45.7611C29.3807 45.7611 29.3578 45.7696 29.3303 45.7866C29.3028 45.8036 29.2485 45.8395 29.1674 45.8945C29.0862 45.9494 28.9972 45.9978 28.9004 46.0396C28.7355 46.1103 28.5562 46.1456 28.3625 46.1456C28.25 46.1456 28.1401 46.1364 28.0328 46.1181C27.8129 46.0763 27.6807 46.0553 27.6362 46.0553C27.5028 46.0553 27.3444 46.1142 27.1612 46.2319C27.0016 46.3339 26.8589 46.4608 26.7333 46.6125C26.6757 46.6779 26.6292 46.742 26.5939 46.8047C26.5586 46.8675 26.5475 46.9081 26.5605 46.9264ZM27.1651 50.3576C27.1808 50.3667 27.2031 50.3582 27.2319 50.3321C27.2554 50.3059 27.2862 50.264 27.3241 50.2065C27.3621 50.149 27.4138 50.0332 27.4792 49.8593C27.5446 49.6853 27.5878 49.4859 27.6088 49.2609C27.6219 49.1563 27.6297 49.0281 27.6323 48.8764C27.6349 48.7247 27.6389 48.5547 27.6441 48.3663C27.6441 48.3219 27.6461 48.2539 27.65 48.1623C27.6539 48.0708 27.6585 47.9772 27.6637 47.8818C27.669 47.7863 27.6749 47.7 27.6814 47.6228C27.6879 47.5456 27.6938 47.4966 27.6991 47.4757C27.7017 47.4548 27.6938 47.4404 27.6755 47.4325C27.6572 47.4247 27.6362 47.4391 27.6127 47.4757C27.5839 47.5332 27.5518 47.5993 27.5165 47.6738C27.4812 47.7484 27.4478 47.8275 27.4164 47.9112C27.385 47.9949 27.3569 48.0799 27.332 48.1662C27.3071 48.2525 27.2895 48.3363 27.279 48.4173C27.2607 48.556 27.2541 48.7567 27.2594 49.0196C27.2646 49.2825 27.2633 49.4859 27.2554 49.6297C27.2476 49.7736 27.228 49.922 27.1965 50.0751C27.1651 50.2281 27.1494 50.3072 27.1494 50.3124C27.1442 50.3334 27.1494 50.3484 27.1651 50.3576ZM24.7036 50.5753C24.7376 50.5753 24.8456 50.5459 25.0275 50.487C25.2094 50.4282 25.3448 50.3824 25.4338 50.3497C25.5228 50.317 25.5895 50.2863 25.634 50.2575C25.6785 50.2287 25.74 50.1542 25.8185 50.0339C25.8971 49.9135 25.9821 49.7265 26.0737 49.4728C26.0947 49.4152 26.1136 49.3531 26.1307 49.2864C26.1477 49.2197 26.1608 49.1648 26.1699 49.1216C26.1791 49.0785 26.1876 49.0248 26.1954 48.9608C26.2033 48.8967 26.2072 48.8319 26.2072 48.7665C26.2072 48.6384 26.1712 48.5285 26.0992 48.437C26.0273 48.3454 25.9376 48.2996 25.8303 48.2996C25.7675 48.2996 25.704 48.3415 25.6399 48.4252C25.5758 48.5089 25.5123 48.6148 25.4495 48.743C25.3867 48.8712 25.3455 48.9647 25.3258 49.0235C25.3062 49.0824 25.2912 49.134 25.2807 49.1785C25.2702 49.2518 25.2977 49.3185 25.3631 49.3786C25.4286 49.4388 25.5097 49.4702 25.6065 49.4728C25.6432 49.4728 25.6805 49.463 25.7184 49.4434C25.7564 49.4237 25.7937 49.4165 25.8303 49.4218C25.7963 49.5421 25.7433 49.65 25.6713 49.7455C25.5993 49.8409 25.5287 49.9135 25.4593 49.9632C25.39 50.0129 25.2362 50.1176 24.998 50.2771C24.7599 50.4367 24.6512 50.5308 24.6722 50.5596C24.6722 50.5701 24.6826 50.5753 24.7036 50.5753ZM23.0154 50.5714C23.0416 50.5714 23.1051 50.5629 23.2058 50.5459C23.3066 50.5289 23.4401 50.4962 23.6063 50.4478C23.7725 50.3994 23.8929 50.3458 23.9675 50.2869C24.0421 50.2281 24.1108 50.1424 24.1736 50.0299C24.2364 49.9175 24.309 49.7514 24.3915 49.5316C24.4739 49.3119 24.5407 49.1092 24.5917 48.9235C24.6427 48.7378 24.6696 48.6096 24.6722 48.539C24.6722 48.4919 24.6578 48.4657 24.629 48.4605C24.595 48.4579 24.5636 48.4867 24.5348 48.5468C24.506 48.607 24.4582 48.7195 24.3915 48.8842C24.3247 49.049 24.2501 49.2125 24.1677 49.3747C24.0853 49.5369 24.0113 49.6585 23.9459 49.7396C23.8804 49.8207 23.7705 49.9155 23.6161 50.024C23.4617 50.1326 23.3262 50.2228 23.2098 50.2948C23.0933 50.3667 23.0207 50.4249 22.9919 50.4694C22.9709 50.4981 22.9631 50.5217 22.9683 50.54C22.9736 50.5583 22.9893 50.5688 23.0154 50.5714ZM21.7003 50.5832C21.7238 50.5832 21.7552 50.5792 21.7945 50.5714C22.1164 50.4903 22.3624 50.3634 22.5325 50.1908C22.632 50.0914 22.7295 49.9456 22.825 49.7533C22.9206 49.5611 22.9749 49.3368 22.988 49.0804C22.988 48.7378 22.8191 48.4644 22.4815 48.2604C22.4213 48.2238 22.3821 48.2329 22.3637 48.2879C22.2433 48.5547 22.1439 48.7639 22.0654 48.9156C22.0444 48.981 22.0614 49.036 22.1164 49.0804C22.4148 49.3237 22.564 49.5133 22.564 49.6493C22.564 49.7017 22.4841 49.8076 22.3245 49.9672C22.1596 50.1346 21.9829 50.2837 21.7945 50.4144C21.7003 50.4825 21.6531 50.5308 21.6531 50.5596C21.6531 50.5753 21.6688 50.5832 21.7003 50.5832ZM20.6049 50.5753C20.7279 50.5753 20.8392 50.5282 20.9386 50.4341C21.0381 50.3399 21.1349 50.2026 21.2291 50.0221C21.2893 49.9096 21.3384 49.7834 21.3764 49.6435C21.4143 49.5035 21.4333 49.3773 21.4333 49.2648C21.4333 49.1105 21.4156 48.9967 21.3803 48.9235C21.345 48.8502 21.2841 48.7744 21.1977 48.6959C21.1611 48.6698 21.1159 48.6403 21.0623 48.6076C21.0086 48.5749 20.9687 48.5586 20.9426 48.5586C20.9085 48.5586 20.8784 48.5913 20.8523 48.6567L20.5735 49.2884C20.5343 49.3799 20.5172 49.4362 20.5225 49.4571C20.5277 49.4571 20.5343 49.4584 20.5421 49.461C20.55 49.4636 20.5709 49.4702 20.6049 49.4806C20.5709 49.5382 20.529 49.6088 20.4793 49.6925C20.4296 49.7762 20.3877 49.8665 20.3537 49.9632C20.3275 50.0548 20.3144 50.1411 20.3144 50.2222C20.3144 50.4576 20.4112 50.5753 20.6049 50.5753ZM20.7423 50.1084C20.601 50.1084 20.5303 50.0496 20.5303 49.9318C20.5303 49.8691 20.5598 49.7919 20.6187 49.7004C20.6776 49.6088 20.7188 49.563 20.7423 49.563C20.7737 49.5683 20.8137 49.5859 20.8621 49.616C20.9105 49.6461 20.9478 49.6742 20.974 49.7004C21.0263 49.7474 21.0525 49.8089 21.0525 49.8848C21.0525 49.9423 21.0165 49.994 20.9445 50.0397C20.8725 50.0855 20.8051 50.1084 20.7423 50.1084ZM18.96 50.5753C19.1275 50.5753 19.2753 50.4707 19.4036 50.2614C19.5161 50.0862 19.5724 49.9096 19.5724 49.7317C19.5724 49.6663 19.5567 49.6049 19.5253 49.5473C19.4756 49.461 19.4245 49.4179 19.3722 49.4179C19.3669 49.4179 19.3512 49.4506 19.3251 49.5159C19.2753 49.6389 19.2374 49.7004 19.2112 49.7004C19.185 49.7004 19.1569 49.6722 19.1268 49.616C19.0967 49.5598 19.0817 49.4885 19.0817 49.4022C19.0817 49.2086 19.1759 48.9784 19.3643 48.7116C19.38 48.6907 19.3931 48.6724 19.4036 48.6567C19.4638 48.5651 19.5253 48.4657 19.5881 48.3585C19.6745 48.1963 19.7294 48.0819 19.753 48.0152C19.7766 47.9485 19.7883 47.889 19.7883 47.8366C19.7883 47.8026 19.7752 47.7856 19.7491 47.7856H19.6627C19.4847 47.7699 19.3709 47.7183 19.3211 47.6307C19.2714 47.543 19.2479 47.4377 19.2505 47.3148C19.2583 47.1736 19.2773 47.0389 19.3074 46.9107C19.3375 46.7825 19.3617 46.6805 19.38 46.6046C19.4167 46.4765 19.4572 46.3457 19.5017 46.2123C19.5253 46.1338 19.5227 46.0933 19.4939 46.0906C19.4546 46.0906 19.3761 46.2247 19.2583 46.4928C19.1406 46.7609 19.0503 46.9944 18.9874 47.1932C18.9717 47.2455 18.9443 47.3475 18.905 47.4992C18.8527 47.7294 18.8265 47.9112 18.8265 48.0446C18.8265 48.2277 18.869 48.3683 18.9541 48.4664C19.0391 48.5645 19.1353 48.6358 19.2426 48.6802C19.0437 48.9418 18.8906 49.1798 18.7833 49.3943C18.6498 49.6611 18.5831 49.8939 18.5831 50.0927C18.5831 50.2157 18.6191 50.3268 18.691 50.4262C18.763 50.5256 18.8527 50.5753 18.96 50.5753ZM15.7603 52.0506C16.0535 52.0506 16.3126 51.976 16.5377 51.8269C16.6554 51.7511 16.7654 51.6595 16.8674 51.5523C16.9695 51.445 17.0585 51.3378 17.1344 51.2306C17.2836 51.0004 17.404 50.729 17.4956 50.4164C17.5872 50.1038 17.633 49.8259 17.633 49.5826C17.633 49.4074 17.5898 49.2897 17.5034 49.2295C17.4773 49.2086 17.4236 49.1824 17.3425 49.1511C17.2613 49.1197 17.2051 49.0922 17.1737 49.0687C17.137 49.0373 17.1187 48.9928 17.1187 48.9353C17.1187 48.896 17.1547 48.8254 17.2267 48.7234C17.2986 48.6214 17.3988 48.5115 17.527 48.3938C17.6552 48.2761 17.773 48.1904 17.8803 48.1368C17.9876 48.0832 18.074 48.0564 18.1394 48.0564C18.1551 48.0564 18.1722 48.0636 18.1905 48.0779C18.2088 48.0923 18.2297 48.1074 18.2533 48.1231C18.2847 48.1231 18.3213 48.0904 18.3632 48.025C18.3737 48.0093 18.4044 47.9465 18.4555 47.8366C18.5065 47.7268 18.5432 47.6411 18.5654 47.5797C18.5877 47.5182 18.604 47.4548 18.6145 47.3894C18.6197 47.3684 18.6171 47.3462 18.6066 47.3227C18.5962 47.2991 18.5765 47.2873 18.5477 47.2873C18.4797 47.2978 18.3868 47.337 18.269 47.4051C18.1722 47.46 18.0727 47.526 17.9706 47.6032C17.8686 47.6804 17.7848 47.749 17.7194 47.8092C17.5964 47.9269 17.4603 48.0799 17.3111 48.2682C17.1279 48.4984 16.9859 48.7325 16.8851 48.9706C16.7843 49.2086 16.734 49.4048 16.734 49.5591C16.734 49.6611 16.7549 49.7416 16.7968 49.8004C16.8387 49.8593 16.9002 49.9083 16.9813 49.9475C17.0232 49.9685 17.0605 49.9829 17.0932 49.9907C17.1259 49.9985 17.1796 50.0142 17.2541 50.0378C17.3287 50.0613 17.366 50.0979 17.366 50.1476C17.366 50.2287 17.3379 50.3196 17.2816 50.4203C17.2254 50.521 17.1436 50.6289 17.0363 50.744C16.9289 50.8591 16.7955 50.9572 16.6358 51.0383C16.4212 51.1455 16.1987 51.1992 15.9684 51.1992C15.691 51.1992 15.4757 51.1364 15.3226 51.0108C15.1695 50.8853 15.0929 50.7153 15.0929 50.5008C15.0929 50.2967 15.1701 49.9907 15.3246 49.5826C15.356 49.5094 15.3959 49.4165 15.4443 49.3041C15.4927 49.1916 15.5379 49.087 15.5797 48.9902C15.6216 48.8934 15.653 48.8195 15.674 48.7685C15.6949 48.7175 15.7198 48.6541 15.7486 48.5782C15.759 48.5573 15.7636 48.5259 15.7623 48.484C15.761 48.4422 15.7472 48.4213 15.7211 48.4213C15.7028 48.4213 15.6818 48.4422 15.6583 48.484C15.6347 48.5259 15.6125 48.5691 15.5915 48.6135L15.407 49.0059C15.3468 49.134 15.2683 49.3028 15.1714 49.512C15.0746 49.7213 14.9922 49.9384 14.9241 50.1633C14.8796 50.302 14.8469 50.4399 14.826 50.5773C14.805 50.7146 14.7946 50.8552 14.7946 50.9991C14.7946 51.1115 14.8096 51.2306 14.8397 51.3561C14.8698 51.4817 14.9241 51.6007 15.0026 51.7132C15.1754 51.9329 15.4279 52.0454 15.7603 52.0506ZM14.5237 44.4977C14.5655 44.4977 14.6323 44.4192 14.7239 44.2623C14.8155 44.1053 14.8613 43.985 14.8613 43.9013C14.8534 43.8385 14.7946 43.7515 14.6846 43.6404C14.5747 43.5292 14.491 43.4854 14.4334 43.5089C14.4046 43.5089 14.3411 43.6051 14.243 43.7973C14.1448 43.9896 14.0957 44.1145 14.0957 44.172C14.0957 44.2008 14.1154 44.2283 14.1546 44.2544C14.1991 44.2858 14.2678 44.3322 14.3607 44.3937L14.4119 44.4274C14.4738 44.468 14.5111 44.4914 14.5237 44.4977ZM13.7974 48.0054C13.9073 47.9138 14.0159 47.7804 14.1232 47.6052C14.1939 47.4901 14.2515 47.358 14.296 47.2089C14.3431 47.0598 14.3666 46.9264 14.3666 46.8087L14.3823 46.4712L14.3902 46.1927C14.3902 46.1377 14.385 46.1103 14.3745 46.1103C14.3509 46.1338 14.3378 46.1547 14.3352 46.173L14.1743 46.5615C14.135 46.6478 14.0971 46.7433 14.0604 46.8479C14.0395 46.9238 14.029 46.9931 14.029 47.0559V47.3148C14.029 47.3802 14.0054 47.4456 13.9583 47.511C13.9138 47.5764 13.8602 47.6313 13.7974 47.6758C13.7738 47.7281 13.7647 47.7817 13.7699 47.8366C13.7751 47.8916 13.7843 47.9478 13.7974 48.0054ZM12.6235 45.6983C12.6654 45.6983 12.7321 45.6198 12.8237 45.4629C12.9153 45.3059 12.9612 45.1856 12.9612 45.1019C12.9533 45.0391 12.8944 44.9522 12.7845 44.841C12.6746 44.7298 12.5908 44.686 12.5332 44.7095C12.5044 44.7095 12.441 44.8057 12.3428 44.9979C12.2447 45.1902 12.1956 45.3151 12.1956 45.3726C12.1956 45.4014 12.2152 45.4289 12.2545 45.455C12.299 45.4864 12.3677 45.5328 12.4606 45.5943C12.5535 45.6558 12.6078 45.6904 12.6235 45.6983ZM12.3409 48.5743C12.3644 48.5743 12.3886 48.5723 12.4135 48.5684C12.4383 48.5645 12.4678 48.5507 12.5018 48.5272L12.6549 48.4056C12.7727 48.314 12.8368 48.263 12.8473 48.2525C12.9258 48.2002 13.007 48.1741 13.0907 48.1741C13.1116 48.1741 13.1404 48.1767 13.1771 48.1819C13.2504 48.1872 13.2962 48.1898 13.3145 48.1898C13.3616 48.1898 13.4087 48.1858 13.4558 48.178C13.5055 48.1702 13.5579 48.1532 13.6129 48.127C13.6678 48.1061 13.7293 48.0655 13.7974 48.0054C13.8026 47.9871 13.8131 47.9596 13.8288 47.923C13.8392 47.8994 13.8445 47.8733 13.8445 47.8445C13.8445 47.8105 13.8392 47.7804 13.8288 47.7543C13.8105 47.7124 13.8 47.6862 13.7974 47.6758C13.6848 47.7333 13.5985 47.7621 13.5383 47.7621C13.533 47.7412 13.5304 47.7281 13.5304 47.7229C13.5356 47.7072 13.5455 47.6758 13.5599 47.6287C13.5742 47.5816 13.5945 47.5228 13.6207 47.4521C13.6259 47.4207 13.6286 47.3881 13.6286 47.354C13.6286 47.2468 13.6011 47.1579 13.5461 47.0872C13.4938 47.0192 13.427 46.9852 13.3459 46.9852C13.2621 46.9852 13.1718 47.0441 13.075 47.1618C13.0331 47.2036 12.9729 47.286 12.8944 47.409C12.8211 47.5319 12.7701 47.6287 12.7413 47.6993C12.702 47.7883 12.6759 47.855 12.6628 47.8994C12.6575 47.923 12.6575 47.9504 12.6628 47.9818C12.6628 47.9897 12.6759 48.008 12.702 48.0368C12.702 48.0603 12.685 48.0773 12.651 48.0878C12.617 48.0982 12.581 48.0982 12.543 48.0878C12.5051 48.0773 12.4691 48.0694 12.4351 48.0642C12.4011 48.059 12.3696 48.0577 12.3409 48.0603V48.5743ZM13.1692 47.7935C13.1038 47.7935 13.0449 47.7765 12.9926 47.7425C12.9402 47.7111 12.914 47.681 12.914 47.6522C12.935 47.5921 12.9585 47.5463 12.9847 47.5149C13.0475 47.4286 13.1273 47.3854 13.2242 47.3854C13.2922 47.3854 13.3459 47.4103 13.3852 47.46C13.4244 47.5149 13.444 47.5672 13.444 47.6169C13.444 47.6483 13.4139 47.6849 13.3537 47.7268C13.2962 47.7713 13.2347 47.7935 13.1692 47.7935ZM10.9786 46.7145C11.0623 46.7145 11.1749 46.5719 11.3162 46.2868C11.3738 46.3287 11.4405 46.3875 11.5164 46.4634C11.5923 46.5392 11.6447 46.5772 11.6734 46.5772C11.7179 46.5772 11.7873 46.5105 11.8815 46.3771C11.9784 46.2411 12.0268 46.1233 12.0268 46.0239C12.0215 45.9402 11.9738 45.8507 11.8835 45.7552C11.7932 45.6597 11.7153 45.612 11.6499 45.612C11.629 45.612 11.5864 45.6656 11.5223 45.7728C11.4582 45.8801 11.3999 45.9769 11.3476 46.0632C11.3031 46.0004 11.2383 45.9278 11.1533 45.8454C11.0682 45.763 11.0034 45.731 10.9589 45.7493C10.9354 45.7493 10.8699 45.85 10.7626 46.0514C10.6553 46.2528 10.6017 46.3705 10.6017 46.4045C10.6017 46.4202 10.6403 46.4595 10.7175 46.5222C10.7947 46.585 10.8516 46.6321 10.8883 46.6635C10.9275 46.6975 10.9576 46.7145 10.9786 46.7145ZM11.3152 48.9529L11.3515 48.949C11.3751 48.9451 11.3921 48.9366 11.4026 48.9235C11.4994 48.7665 11.61 48.6469 11.7343 48.5645C11.8586 48.4821 11.9849 48.454 12.1132 48.4801C12.1419 48.488 12.1786 48.5063 12.2231 48.535C12.244 48.5481 12.2636 48.5586 12.282 48.5664C12.3003 48.5743 12.3199 48.5769 12.3409 48.5743C12.3435 48.5638 12.3579 48.518 12.384 48.437C12.3971 48.3846 12.4037 48.3349 12.4037 48.2879C12.4037 48.246 12.3971 48.2055 12.384 48.1662L12.3409 48.0603C12.1498 48.0812 11.9941 48.1224 11.8737 48.1839C11.7533 48.2454 11.6296 48.3467 11.5027 48.488C11.3757 48.6292 11.2652 48.7744 11.1709 48.9235C11.1735 48.9287 11.1853 48.9346 11.2063 48.9411C11.2272 48.9477 11.2508 48.9516 11.2769 48.9529C11.3031 48.9542 11.328 48.9529 11.3515 48.949L11.3152 48.9529ZM9.98923 51.8858C10.1332 51.8858 10.268 51.8649 10.3936 51.823C10.5088 51.7838 10.6265 51.7262 10.7469 51.6504C11.0741 51.4123 11.3332 51.0932 11.5243 50.693C11.6447 50.4341 11.7271 50.217 11.7716 50.0417C11.8161 49.8612 11.8383 49.6847 11.8383 49.512C11.8383 49.3943 11.8253 49.3054 11.7991 49.2452C11.7729 49.1903 11.7297 49.1412 11.6695 49.0981C11.6093 49.0549 11.5498 49.015 11.4909 48.9784C11.432 48.9418 11.4026 48.9052 11.4026 48.8686C11.3999 48.8502 11.3895 48.8372 11.3712 48.8293C11.3528 48.8215 11.3325 48.8175 11.3103 48.8175C11.2881 48.8175 11.2658 48.8215 11.2436 48.8293C11.2213 48.8372 11.205 48.8502 11.1945 48.8686C11.1369 48.9732 11.0878 49.0837 11.0473 49.2001C11.0067 49.3165 10.9864 49.4205 10.9864 49.512C10.9864 49.6402 11.0819 49.7487 11.273 49.8377C11.4614 49.924 11.5557 49.9894 11.5557 50.0339C11.5557 50.2562 11.4353 50.4681 11.1945 50.6695C10.9118 50.9049 10.5611 51.0226 10.1423 51.0226C9.9094 51.0226 9.71965 50.9742 9.57308 50.8774C9.37417 50.7388 9.27471 50.5086 9.27471 50.1869C9.27471 50.0169 9.33622 49.7762 9.45923 49.4649C9.5299 49.2949 9.65814 48.9954 9.84397 48.5664C9.86491 48.5194 9.88192 48.4631 9.89501 48.3977C9.90809 48.3428 9.90024 48.3127 9.87145 48.3075C9.85051 48.3049 9.82041 48.3389 9.78115 48.4095C9.76545 48.4461 9.74517 48.488 9.7203 48.535C9.69544 48.5821 9.6673 48.6344 9.6359 48.692C9.5914 48.7862 9.55476 48.8627 9.52597 48.9215C9.49718 48.9804 9.47493 49.0242 9.45923 49.053C9.40688 49.1733 9.34407 49.3211 9.27078 49.4963C9.20273 49.6663 9.1373 49.8678 9.07449 50.1006C9.01167 50.3412 8.98027 50.5361 8.98027 50.6852C8.98027 51.02 9.05748 51.2946 9.2119 51.5091C9.39249 51.7602 9.6516 51.8858 9.98923 51.8858ZM7.92027 50.3576C7.93597 50.3667 7.95822 50.3582 7.98701 50.3321C8.01056 50.3059 8.04132 50.264 8.07927 50.2065C8.11722 50.149 8.16891 50.0332 8.23434 49.8593C8.29977 49.6853 8.34296 49.4859 8.3639 49.2609C8.37698 49.1563 8.38484 49.0281 8.38745 48.8764C8.39007 48.7247 8.394 48.5547 8.39923 48.3663C8.39923 48.3219 8.40119 48.2539 8.40512 48.1623C8.40904 48.0708 8.41363 47.9772 8.41886 47.8818C8.42409 47.7863 8.42998 47.7 8.43653 47.6228C8.44307 47.5456 8.44896 47.4966 8.45419 47.4757C8.45681 47.4548 8.44896 47.4404 8.43064 47.4325C8.41232 47.4247 8.39138 47.4391 8.36782 47.4757C8.33903 47.5332 8.30697 47.5993 8.27164 47.6738C8.2363 47.7484 8.20293 47.8275 8.17153 47.9112C8.14012 47.9949 8.11198 48.0799 8.08712 48.1662C8.06226 48.2525 8.04459 48.3363 8.03412 48.4173C8.0158 48.556 8.00926 48.7567 8.01449 49.0196C8.01972 49.2825 8.01842 49.4859 8.01056 49.6297C8.00271 49.7736 7.98308 49.922 7.95167 50.0751C7.92027 50.2281 7.90456 50.3072 7.90456 50.3124C7.89933 50.3334 7.90456 50.3484 7.92027 50.3576ZM5.29849 50.5729L5.34486 50.5714C5.42338 50.5714 5.532 50.557 5.67071 50.5282C5.8042 50.5047 5.9115 50.4772 5.99264 50.4458C6.16276 50.37 6.29101 50.2418 6.37738 50.0613C6.42973 49.9436 6.49908 49.7749 6.58545 49.5552C6.63518 49.4401 6.68622 49.3459 6.73857 49.2727C6.75427 49.2518 6.78699 49.2217 6.83671 49.1824C6.88644 49.1458 7.02516 49.0726 7.25286 48.9627C7.41513 48.8816 7.5617 48.6083 7.69256 48.1427C7.71089 48.0538 7.70827 48.0054 7.68471 47.9975C7.66116 47.9949 7.62059 48.0446 7.56301 48.1466C7.50543 48.2512 7.45832 48.3192 7.42168 48.3506C7.38242 48.3846 7.31437 48.4252 7.21753 48.4723C7.1076 48.5298 7.03039 48.5704 6.9859 48.5939C6.86812 48.6698 6.78175 48.7443 6.72679 48.8175C6.67182 48.8882 6.59069 49.0425 6.48338 49.2805C6.37869 49.5186 6.31718 49.6493 6.29886 49.6729C6.24128 49.7514 6.13659 49.8455 5.98479 49.9554C5.99264 49.9502 5.92852 49.9933 5.79242 50.0849C5.61706 50.1947 5.49536 50.2752 5.42731 50.3262C5.35926 50.3772 5.31476 50.4105 5.29383 50.4262C5.23625 50.4681 5.21007 50.5008 5.21531 50.5243C5.23363 50.5635 5.27681 50.5792 5.34486 50.5714L5.29849 50.5729ZM6.71108 53.5298C6.79484 53.5298 6.90738 53.3872 7.04871 53.1021C7.10629 53.144 7.17303 53.2028 7.24894 53.2787C7.32484 53.3545 7.37718 53.3925 7.40597 53.3925C7.45047 53.3925 7.51982 53.3258 7.61405 53.1923C7.71089 53.0563 7.75931 52.9386 7.75931 52.8392C7.75407 52.7555 7.70631 52.6659 7.61601 52.5705C7.52571 52.475 7.44785 52.4272 7.38242 52.4272C7.36148 52.4272 7.31895 52.4809 7.25482 52.5881L7.13443 52.7887C7.11567 52.8198 7.09757 52.8497 7.08012 52.8785C7.03563 52.8157 6.97085 52.7431 6.88579 52.6607C6.80073 52.5783 6.73595 52.5463 6.69145 52.5646C6.6679 52.5646 6.60247 52.6653 6.49516 52.8667C6.38785 53.0681 6.3342 53.1858 6.3342 53.2198C6.3342 53.2355 6.3728 53.2747 6.45001 53.3375C6.52722 53.4003 6.58415 53.4474 6.62079 53.4788C6.66005 53.5128 6.69015 53.5298 6.71108 53.5298ZM4.68923 50.3576C4.70494 50.3667 4.72718 50.3582 4.75598 50.3321C4.77953 50.3059 4.81028 50.264 4.84823 50.2065C4.88618 50.149 4.93788 50.0332 5.00331 49.8593C5.06874 49.6853 5.11193 49.4859 5.13286 49.2609C5.14595 49.1563 5.1538 49.0281 5.15642 48.8764C5.15904 48.7247 5.16296 48.5547 5.1682 48.3663C5.1682 48.3219 5.17016 48.2539 5.17409 48.1623C5.17801 48.0708 5.18259 47.9772 5.18783 47.8818C5.19306 47.7863 5.19895 47.7 5.20549 47.6228C5.21204 47.5456 5.21793 47.4966 5.22316 47.4757C5.22578 47.4548 5.21793 47.4404 5.1996 47.4325C5.18128 47.4247 5.16035 47.4391 5.13679 47.4757C5.108 47.5332 5.07594 47.5993 5.0406 47.6738C5.00527 47.7484 4.9719 47.8275 4.94049 47.9112C4.90909 47.9949 4.88095 48.0799 4.85609 48.1662C4.83122 48.2525 4.81356 48.3363 4.80309 48.4173C4.78477 48.556 4.77822 48.7567 4.78346 49.0196C4.78869 49.2825 4.78738 49.4859 4.77953 49.6297C4.77168 49.7736 4.75205 49.922 4.72064 50.0751C4.68923 50.2281 4.67353 50.3072 4.67353 50.3124C4.6683 50.3334 4.67353 50.3484 4.68923 50.3576ZM1.96464 51.9446C2.55877 51.9394 3.06783 51.6504 3.49183 51.0775C3.92106 50.4864 4.15923 49.7801 4.20635 48.9588C4.21158 48.6449 4.21681 48.4304 4.22205 48.3153C4.22728 48.2002 4.23121 48.1224 4.23383 48.0819C4.23644 48.0413 4.22859 48.0211 4.21027 48.0211C4.1841 48.0211 4.15204 48.0603 4.11409 48.1388C4.07614 48.2172 4.02837 48.3434 3.97079 48.5174C3.91321 48.6913 3.87919 48.8502 3.86872 48.9941C3.86872 49.0438 3.86937 49.1269 3.87068 49.2433C3.87199 49.3597 3.87264 49.4558 3.87264 49.5316C3.87264 49.7304 3.84909 49.89 3.80198 50.0103C3.67896 50.3556 3.46173 50.6316 3.15027 50.8382C2.8362 51.0187 2.50904 51.1089 2.16879 51.1089C1.89136 51.0985 1.66824 51.0278 1.49942 50.897C1.33061 50.7663 1.24097 50.5753 1.2305 50.3242C1.23573 49.9894 1.35482 49.5918 1.58776 49.1314C1.60346 49.0843 1.60477 49.0379 1.59168 48.9921C1.5786 48.9464 1.53803 48.9863 1.46998 49.1118C1.11665 49.737 0.941287 50.3164 0.943876 50.85C0.954374 51.1874 1.0499 51.4509 1.2305 51.6406C1.41109 51.8302 1.65581 51.9316 1.96464 51.9446ZM2.65168 50.0025C2.67785 50.0025 2.71319 49.9815 2.75768 49.9397C2.82573 49.8743 2.88004 49.803 2.92061 49.7259C2.96117 49.6487 2.99062 49.5787 3.00894 49.5159C3.02726 49.4532 3.03119 49.3956 3.02072 49.3433C3.01025 49.2779 2.98604 49.2217 2.94809 49.1746C2.91014 49.1275 2.85648 49.0772 2.78713 49.0235C2.71777 48.9699 2.65953 48.9235 2.61242 48.8842C2.53129 49.0176 2.47174 49.1184 2.43379 49.1864C2.39584 49.2544 2.35069 49.3472 2.29835 49.4649C2.28264 49.5016 2.25778 49.5552 2.22376 49.6258C2.22376 49.6467 2.24011 49.6729 2.27283 49.7043C2.30555 49.7357 2.3448 49.7703 2.39061 49.8083C2.43641 49.8462 2.48745 49.888 2.54372 49.9338C2.59999 49.9796 2.63598 50.0025 2.65168 50.0025Z" fill="white"/>
<path fill-rule="evenodd" clip-rule="evenodd" d="M22.6615 22.8427C20.3734 22.845 18.2926 23.8159 17.0485 25.0337C16.8622 25.2161 16.7171 25.3022 16.5556 25.5025C16.4074 25.6856 16.2785 25.8525 16.1264 26.0357C15.8059 26.4144 15.6281 26.7753 15.3573 27.2131C15.2114 27.4467 14.2458 29.9024 14.519 30.188C14.526 30.1927 15.133 30.3712 15.2098 30.3929C15.2851 30.4177 15.7539 30.6467 15.8121 30.6863C16.197 30.9455 16.4997 31.131 16.7923 31.4919C17.3869 32.2277 17.6826 32.9976 17.6127 34.2293C17.5118 36.0168 15.4799 37.7406 13.4736 36.9706L13.5427 36.47C13.5706 36.4421 13.7142 36.4514 13.9269 36.46C14.5726 36.4871 15.861 36.5135 16.5292 35.489C16.8195 35.0412 17.0306 34.6717 17.0353 33.9957C17.0399 33.3771 16.8808 32.8152 16.6387 32.3883C16.1303 31.488 15.4675 30.9525 14.2753 30.708C13.67 30.5823 12.9621 30.6684 12.4444 30.8205C10.8697 30.9354 9.5673 33.2072 9.51297 33.7512C9.45942 34.2953 9.48425 35.2461 9.51297 35.6078C9.56109 36.193 9.76444 36.7696 10.005 37.2105C10.4816 38.0867 11.2678 38.7736 12.2108 39.1857C13.1794 39.6111 14.526 39.9207 15.7236 39.5218C16.506 39.2626 17.1626 38.9389 17.7361 38.3801C17.844 38.2769 18.2003 37.9105 18.2763 37.8578C18.4183 37.8492 19.6136 38.4344 19.8433 38.5353C21.3219 39.1857 22.8687 38.7076 23.8063 39.0685C24.5048 39.3379 24.2929 40.0131 24.2114 40.6922C25.4323 40.6231 26.6112 38.3266 25.3135 36.9994C25.0784 36.7595 25.2895 36.5601 25.3593 36.2613C25.4152 36.0207 25.4913 35.7149 25.4952 35.4184C25.5068 34.0353 25.1731 33.3461 24.4225 32.5637C24.0795 32.2075 23.6852 32.0158 23.2187 31.7876C23.0107 31.6852 21.7837 31.3701 21.512 31.5493C21.5415 31.5975 22.3045 31.8109 22.6366 32.5506C22.9083 33.1544 22.7732 33.7621 22.462 34.2223C22.2385 34.5545 21.6463 34.924 21.0456 34.9294C20.2461 34.9356 19.9186 34.7556 19.3986 34.4218C18.6993 33.9779 18.0163 32.6569 17.9635 31.6176C17.8774 29.959 17.9201 29.3855 18.7187 28.2352C19.2628 27.4498 20.1965 26.742 21.1868 26.4447C22.3014 26.1102 23.8482 26.1234 24.7741 26.6698C26.0307 27.4118 26.2193 27.5173 26.976 28.7234C27.1964 29.0711 27.458 29.8496 27.5038 30.3122C27.5325 30.6087 27.6194 30.8795 27.7242 31.1326C27.8368 31.4058 28.1371 31.6658 28.1689 31.7581C28.1464 31.8225 27.8616 32.0779 27.7692 32.2424C27.6885 32.3922 27.4898 32.6173 27.3913 32.778C27.2368 33.0318 26.9093 33.7311 26.8643 34.0438C26.7036 35.1491 26.7036 36.2807 27.1848 37.1383C28.0673 38.7076 29.3091 39.9114 31.6887 39.9114C33.7719 39.9114 35.4553 38.5353 36.0692 37.0126C36.5008 35.9376 36.6063 35.2577 36.3199 33.9841C35.9994 32.5622 35.0696 31.9017 34.9951 31.6852C35.5647 31.1326 35.4724 30.871 35.668 30.0491C35.8418 29.3187 35.9435 28.9508 36.3393 28.4021C36.9602 27.5484 37.852 26.6985 38.9991 26.4074C40.4156 26.0489 41.7692 26.1498 42.8348 26.8103C43.3323 27.1192 43.7693 27.4382 44.1185 27.8526C44.2869 28.0529 44.4569 28.2857 44.6052 28.5146C44.675 28.6233 45.0126 29.2722 45.0173 29.2768L45.2299 29.7068L45.2354 29.72C45.0398 29.4988 45.1477 29.8186 45.2082 30.0584C45.275 30.3254 45.2501 30.6661 45.2462 30.9719C45.2369 31.637 45.0825 32.0453 44.9459 32.6018C44.7177 33.5308 44.0269 34.4094 43.1802 34.7424C42.1339 35.1514 40.8409 34.8565 40.5002 33.9142C40.3372 33.4625 40.2425 32.7586 40.5902 32.379C40.7447 32.2122 40.8456 32.0228 41.0497 31.8776C41.1125 31.8334 41.6815 31.5602 41.6861 31.5315C41.3648 31.353 40.2006 31.6727 39.9825 31.7628C39.5075 31.963 39.1093 32.1788 38.7546 32.535C38.0266 33.2708 37.6347 34.0043 37.6417 35.3741C37.644 35.8468 38.0266 36.7945 37.8792 36.9613C37.5338 37.351 37.2761 37.6529 37.2715 38.3553C37.2699 39.0072 37.4197 39.4853 37.7154 39.8858C37.9141 40.1544 38.4908 40.6938 38.9231 40.6938C38.8113 39.989 38.6297 39.4162 39.329 39.0887C40.1579 38.7014 41.8825 39.1989 43.2655 38.554C43.472 38.4569 44.7262 37.8725 44.8434 37.8756C44.9653 37.9416 45.403 38.4034 45.5753 38.5431C45.878 38.7821 46.0682 38.9195 46.4042 39.1019C46.9871 39.4186 47.7307 39.6809 48.6092 39.6894C50.132 39.7073 51.7914 38.9498 52.5435 38.0518C53.3173 37.1313 54.0647 35.4665 53.554 33.8366C53.2544 32.8773 52.6871 31.9188 51.8737 31.3732C51.647 31.2218 51.1775 31.0317 50.9928 30.9222L52.091 31.6394L50.9462 30.8935C50.711 30.7103 49.8301 30.6622 49.4133 30.6638C48.513 30.67 47.4932 31.0806 46.9623 31.7302C46.828 31.8947 46.27 32.5816 46.3367 32.8501C46.1303 32.965 46.0596 34.0834 46.1466 34.3892C46.2948 34.9162 46.3639 35.2841 46.7271 35.6582C47.3767 36.3319 48.7101 36.4312 49.3062 36.4421C49.3124 36.4421 49.3194 36.4429 49.3264 36.4429L49.3504 36.4398L49.3264 36.4429C49.4118 36.4452 49.4995 36.4491 49.5864 36.46L49.6128 36.9683C48.6333 37.2415 47.6127 37.1445 46.7861 36.5127C46.1962 36.0626 45.5575 35.1778 45.5373 34.2115C45.5132 33.0442 45.7275 32.1392 46.3546 31.481C47.133 30.6661 47.4443 30.5605 48.6263 30.195L48.6783 30.1864L48.4144 28.843C47.8153 26.6946 46.7364 25.4978 45.1741 24.3072C44.3925 23.7104 43.5318 23.4348 42.5104 23.0871C41.4905 22.7418 40.0679 22.8256 38.9564 22.9769C38.3091 23.0646 36.4651 23.708 36.122 24.0294C35.8519 24.2824 35.2512 24.5509 34.9888 24.8459C34.6993 25.1703 34.3322 25.4536 34.0233 25.8308C32.4183 27.7789 32.4796 29.2854 32.201 29.8186C31.9479 30.3005 31.4124 30.5404 31.0593 30.0056C30.873 29.7239 30.7248 28.9229 30.5998 28.548C30.2389 27.4622 29.9246 26.9011 29.2462 26.0116C28.9032 25.5622 28.6548 25.3884 28.2986 25.0088C27.1685 23.8058 24.8867 22.8427 22.6685 22.8427C22.6661 22.8427 22.6638 22.8427 22.6615 22.8427ZM31.6452 37.0871C30.6464 37.0622 29.7096 36.2457 29.6971 35.2352C29.6669 32.6569 33.5165 32.6879 33.5212 35.1646L33.5196 35.1623C33.5165 35.7529 33.2728 36.1619 32.9569 36.5019C32.7575 36.7192 32.0442 37.0871 31.6592 37.0871C31.6546 37.0871 31.6499 37.0871 31.6452 37.0871Z" fill="white"/>
<path fill-rule="evenodd" clip-rule="evenodd" d="M27.6203 19.7379C26.2582 19.7379 26.335 21.2529 27.1205 21.5664C27.6156 21.7628 27.878 21.7201 28.3064 22.0826C29.0197 22.6864 29.4132 23.1032 29.9114 23.9166C29.9735 24.0182 30.2211 24.3737 30.2491 24.4389C30.343 24.664 30.4245 24.8386 30.5455 25.0086C30.7256 25.2639 30.9794 25.8616 31.1129 26.165C31.265 26.5104 31.4195 27.1841 31.5677 27.4542C31.6795 27.6599 31.785 27.0964 31.8316 26.9668C32.0474 26.394 32.3438 25.6893 32.6108 25.1498C33.0074 24.3403 33.4553 23.7474 33.9559 23.0473C34.3921 22.4357 35.1868 21.8094 35.935 21.6083C37.0115 21.3173 36.8027 19.7402 35.7394 19.7402L35.7371 19.7379H27.6203Z" fill="white"/>
<path fill-rule="evenodd" clip-rule="evenodd" d="M36.9023 16.6499H26.0504C25.944 16.6507 25.8424 16.6491 25.7446 16.6468C25.0251 16.6359 24.5354 16.6235 24.2948 17.3857C24.0247 18.2441 24.6262 18.9643 25.275 18.962V18.9589H37.8011C38.5702 18.9589 39.2307 18.2472 38.8776 17.3236C38.647 16.7229 38.2147 16.6336 37.6567 16.6336C37.4246 16.6336 37.1716 16.6491 36.9023 16.6499Z" fill="white"/>
<path fill-rule="evenodd" clip-rule="evenodd" d="M30.6714 2.53045C30.4121 3.37488 30.1343 4.22553 30.1366 5.25546L30.1389 5.25235C30.1389 6.02538 30.2173 6.90785 30.4672 7.58852C30.5441 7.79497 31.1464 9.18969 31.1464 9.19124C30.6574 9.10354 29.6911 7.73211 29.4482 7.22141C28.9708 6.20545 29.1657 5.18949 29.1067 3.93603C28.953 3.97328 28.3057 5.18328 28.1924 5.44173C27.9006 6.09912 27.8051 6.5454 27.6134 7.27263C27.3805 8.15821 27.5179 9.55214 27.826 10.4571C27.8827 10.6224 28.1489 11.2682 28.1567 11.3605C27.7671 11.2162 27.0654 10.2119 26.9133 9.78576C26.7806 9.41244 26.6898 9.16252 26.5578 8.7372C26.4911 8.516 26.4003 7.65527 26.3234 7.56601C26.1581 7.59473 25.2927 9.33095 25.181 9.56999C24.8907 10.1707 24.6144 11.3644 24.6167 12.1871C24.6191 13.349 25.0941 14.5644 25.8236 15.353C26.3033 15.8707 26.0293 15.8551 27.0654 15.8575H36.2588C36.8696 15.8575 37.6566 14.93 37.9802 14.4977C38.442 13.883 38.6733 13.0083 38.5577 12.0629C38.3629 10.4843 37.2165 9.01118 36.3123 8.1062L34.8167 6.52289C34.4341 6.0347 33.7192 5.26477 33.4654 4.77348C33.1193 4.09979 32.687 3.57047 32.3835 2.75087C32.2392 2.36125 32.1437 1.98948 32.0009 1.5758C31.8977 1.27156 31.8076 0.544317 31.7098 0.333984C31.4739 0.396075 30.7862 2.15868 30.6714 2.53045Z" fill="white"/>
</svg>
