<svg width="39" height="53" viewBox="0 0 39 53" fill="none" xmlns="http://www.w3.org/2000/svg">
<path d="M24.339 41.1476C23.8997 40.6873 24.4093 39.8403 24.9892 40.1717C25.4988 40.4479 25.2879 41.1476 24.7959 41.2949C24.6378 41.2397 24.4796 41.1844 24.339 41.1476ZM23.6888 41.3686C24.0754 40.8714 24.8662 41.479 24.6026 42.0314C24.4796 42.4181 24.0227 42.3997 23.724 42.2892C23.5834 42.013 23.3901 41.6079 23.6888 41.3686ZM25.0419 42.2156C24.5499 41.8105 25.1825 40.8898 25.6921 41.2765C25.9908 41.4054 25.9733 41.7736 26.0084 42.0498C25.7448 42.3076 25.3407 42.547 25.0419 42.2156ZM28.574 41.3501C28.8903 40.9635 29.5581 41.3501 29.4878 41.8289C29.4878 42.2524 28.9431 42.547 28.6267 42.2708C28.3104 42.1051 28.2753 41.5527 28.574 41.3501ZM7.48684 42.8416C7.87344 42.8416 8.26004 42.8416 8.62907 42.8416C8.68178 44.7566 8.50606 46.69 8.71693 48.5865C8.96295 48.6233 9.20896 48.6602 9.43741 48.5129C9.41984 46.6163 9.43741 44.7198 9.43741 42.8232C9.84158 42.8232 10.2282 42.8232 10.6323 42.86C10.5972 44.2962 10.6323 45.7325 10.6148 47.1687C10.6148 47.6659 10.5796 48.163 10.7554 48.6418C10.8784 48.6233 11.1068 48.6049 11.2122 48.5865C11.3704 47.9973 11.3177 47.3897 11.3177 46.8004C11.3177 45.4747 11.3177 44.1489 11.3177 42.8232C11.7043 42.8232 12.0909 42.8232 12.495 42.8232C12.495 44.462 12.495 46.0823 12.495 47.7211C12.495 48.0157 12.5653 48.3103 12.6181 48.6049C12.7938 48.5865 12.9519 48.5681 13.1277 48.5497C13.2155 46.6531 13.1628 44.7382 13.1628 42.8232C13.567 42.8048 13.9712 42.8048 14.3753 42.8048C14.3753 44.554 14.3753 46.3217 14.3753 48.0709C14.3578 48.7338 14.0414 49.4888 13.4088 49.7281C12.9168 49.9675 12.3545 49.8018 11.8624 49.6913C11.265 49.9491 10.6148 49.857 10.0525 49.5808C9.33197 49.9859 8.26004 50.0043 7.76801 49.2126C7.11782 47.9052 7.99645 46.2296 7.0651 44.9959C6.4852 44.0569 5.18483 43.7439 4.27105 44.3699C3.07611 45.1064 2.79495 47.0214 3.81416 47.9973C4.49949 48.7522 5.57143 48.697 6.50278 48.6786C6.50278 49.0837 6.50278 49.4703 6.52035 49.8754C5.74715 49.8754 4.93881 49.9491 4.20076 49.6545C2.88281 49.1573 1.93389 47.7395 2.02175 46.248C2.00418 44.4436 3.58572 42.768 5.32541 42.8416C6.11618 42.7864 6.8718 43.1178 7.48684 43.6334C7.48684 43.3572 7.48684 43.0994 7.48684 42.8416ZM16.6773 42.8784C17.0815 42.8416 17.4857 42.8416 17.8899 42.8416C17.8899 44.5909 17.8723 46.3401 17.8899 48.0894C17.8899 49.4151 19.1902 50.4831 20.4203 50.2253C21.4571 50.0596 22.2303 49.01 22.2479 47.9236C22.2479 46.2296 22.2479 44.5356 22.2479 42.8416C22.652 42.8416 23.0738 42.8416 23.478 42.8784C23.478 44.7934 23.4077 46.69 23.5131 48.6049C23.6888 48.5865 24.0579 48.7706 24.093 48.476C24.1457 46.5979 24.0579 44.7382 24.1281 42.86C24.5147 42.86 24.9189 42.86 25.3055 42.86C25.3055 44.554 25.3055 46.248 25.3055 47.9421C25.2704 48.2367 25.3758 48.4944 25.534 48.7338C25.657 48.697 25.8854 48.6049 26.0084 48.5681C26.026 46.6715 26.026 44.7566 26.0084 42.86C26.4126 42.8416 26.8168 42.8416 27.2209 42.86C27.1858 44.6093 27.2209 46.3769 27.2034 48.1262C27.1858 48.8075 26.8695 49.544 26.2193 49.7834C25.7273 50.0043 25.1649 49.8754 24.6729 49.7281C24.1106 49.9675 23.4955 49.9307 22.9332 49.7097C22.4236 50.6672 21.5098 51.3669 20.4555 51.4406C18.6631 51.7168 16.8531 50.1885 16.7301 48.2735C16.6598 46.4874 16.7301 44.6829 16.6773 42.8784ZM28.328 42.8232C28.7146 42.8416 29.1188 42.8416 29.523 42.8416C29.5054 45.2721 29.523 47.7027 29.523 50.1332C29.5405 51.0171 29.1188 51.8088 28.5565 52.4533C28.2401 52.1771 27.9414 51.9009 27.6602 51.6063C28.0293 51.2012 28.2929 50.6672 28.3104 50.0964C28.328 47.6843 28.2577 45.2537 28.328 42.8232ZM30.6827 42.8416C31.0869 42.8416 31.5087 42.8416 31.9128 42.8784C31.8777 45.2906 31.9128 47.7027 31.8953 50.1332C31.8953 50.9986 31.5087 51.8272 30.9463 52.4349C30.6125 52.1771 30.3137 51.9009 30.015 51.6247C30.4192 51.1828 30.7179 50.5935 30.7003 49.9491C30.6827 47.5738 30.6827 45.2169 30.6827 42.8416ZM34.496 43.1362C35.2868 42.7311 36.183 42.8416 37.0265 42.86C37.0089 45.3458 37.0265 47.8316 37.0089 50.2989C36.9913 51.1275 36.5872 51.8641 36.06 52.4533C35.7612 52.1771 35.4625 51.9009 35.1638 51.6247C35.5679 51.1459 35.8491 50.5383 35.8315 49.8938C34.0918 49.9307 32.563 48.2551 32.5806 46.469C32.5103 45.0696 33.3362 43.7623 34.496 43.1362ZM33.881 45.6404C33.3538 46.9846 34.4257 48.697 35.8315 48.6602C35.8315 47.1319 35.8315 45.6036 35.8315 44.0753C34.9178 44.0385 34.1973 44.8302 33.881 45.6404Z" fill="white"/>
<path d="M14.8458 4.2857C17.8434 1.85578 21.6566 0.410969 25.536 0.301514C25.6021 1.76822 25.6903 3.21303 25.7123 4.67974C23.7286 4.72352 21.7669 5.2708 20.0035 6.12455C18.4386 6.47481 16.8516 6.75939 15.3968 7.43802C14.0743 8.00719 12.7738 8.7296 11.7158 9.69281C10.1068 11.1376 9.00472 13.1078 8.43164 15.1875C8.51981 14.3337 8.74023 13.5238 9.00473 12.7138C10.0848 9.43011 12.1346 6.45292 14.8458 4.2857Z" fill="white"/>
<path d="M6.53661 3.41003C7.81503 4.17622 9.18161 4.74539 10.4821 5.4678C9.24774 7.63502 8.78486 10.2401 8.98324 12.7138C8.71874 13.5237 8.49832 14.3337 8.41015 15.1875C7.85911 17.7487 8.10157 20.5289 9.40203 22.8494C10.0633 24.1847 11.1213 25.2355 12.1352 26.2863C10.9449 25.4982 9.93103 24.4912 8.96119 23.4623C6.20598 20.3319 4.59694 16.2601 4.50877 12.1008C4.44265 9.10173 5.12594 6.08075 6.53661 3.41003Z" fill="white"/>
<path d="M20.0033 6.14634C24.2353 5.62096 28.6657 6.45282 32.2585 8.77328C34.6169 10.2181 36.5566 12.2759 38.0554 14.5525C36.799 15.3187 35.5427 16.0849 34.2863 16.873C32.9638 14.8809 31.2225 13.1296 29.0844 12.0132C28.2689 11.0718 27.3652 10.1962 26.3513 9.47379C24.5218 7.9852 22.2295 7.02199 19.849 6.89064C18.3281 6.75929 16.8293 7.10955 15.3745 7.45981C16.8293 6.75929 18.4383 6.4966 20.0033 6.14634Z" fill="white"/>
<path d="M15.3753 7.45995C16.8301 7.10969 18.3289 6.75943 19.8498 6.89078C22.2303 7.02213 24.5226 7.98534 26.3521 9.47393C26.7709 9.97743 27.2337 10.4153 27.6746 10.875C29.8787 13.48 30.6502 17.1358 29.989 20.4414C29.7906 21.6454 29.4159 22.8056 29.0191 23.9659C27.8068 26.8555 25.8892 29.4824 23.3985 31.4307C20.2245 33.9482 16.1688 35.3492 12.0911 35.3054C12.0911 33.8606 12.047 32.3939 12.1132 30.9491C14.2732 30.9053 16.4554 30.4675 18.351 29.4386C18.7697 29.2197 19.1665 28.957 19.5632 28.7162C16.8742 28.8695 14.2292 27.9281 12.1132 26.3301C11.0772 25.2793 10.0192 24.2285 9.37999 22.8932C8.07954 20.5727 7.83708 17.7926 8.38812 15.2313C8.9612 13.1516 10.0633 11.2033 11.6723 9.73663C12.7744 8.75153 14.0528 8.02912 15.3753 7.45995ZM17.7338 11.4004C14.9786 12.0133 12.6862 14.487 12.5981 17.3328C12.2013 20.7479 15.0888 24.0315 18.4832 24.2942C21.1062 24.6007 23.8173 23.1121 25.0075 20.7697C25.8451 19.1936 25.9553 17.2453 25.3382 15.5816C24.3242 12.5606 20.8637 10.6561 17.7338 11.4004Z" fill="white"/>
<path d="M16.9588 14.5306C16.6502 14.6401 16.3637 14.7714 16.0771 14.9028C16.6943 17.0481 16.9147 19.3029 16.8706 21.5577H17.8405C17.8625 20.7696 17.8625 19.9815 17.7523 19.2153C18.4136 19.478 19.163 19.3905 19.5597 18.7556C20.0006 19.0621 20.4855 19.4561 21.0806 19.3686C21.9402 19.3029 22.5794 18.4273 22.5133 17.5954C22.4692 16.5227 22.0064 15.5376 21.5214 14.6182C21.1908 14.7496 20.8602 14.9028 20.5736 15.0998C21.0145 15.8003 21.3231 16.5665 21.4333 17.3765C21.4994 17.7705 21.3231 18.274 20.8602 18.2959C20.4414 18.2302 20.1769 17.8581 20.0667 17.4859C19.8022 16.5446 19.692 15.5595 19.4275 14.5963C19.1189 14.6839 18.8103 14.7933 18.5017 14.9028C18.5238 16.0411 19.4054 17.3108 18.6781 18.3616C18.2593 18.3178 17.7744 18.1865 17.7082 17.7049C17.5099 16.6322 17.3556 15.5595 16.9588 14.5306Z" fill="white"/>
<path d="M26.374 9.47388C27.3879 10.1963 28.2917 11.0719 29.1072 12.0132C31.62 14.8591 33.1629 18.5149 33.4715 22.2802C33.78 25.542 33.0747 28.8475 31.664 31.7809C30.3856 31.1461 29.1072 30.4894 27.8067 29.9202C27.8288 29.6575 27.8729 29.3948 27.9831 29.154C28.6884 27.5778 29.0852 25.8484 29.1072 24.119L29.0411 23.9658C29.4378 22.8056 29.8125 21.6453 30.0109 20.4413C30.6722 17.1358 29.9007 13.5018 27.6965 10.8749C27.2557 10.3933 26.7708 9.95548 26.374 9.47388Z" fill="white"/>
<path d="M0.497559 21.4483C1.68781 20.5507 3.01031 19.8283 4.2226 18.9965C5.43489 20.8353 7.06598 22.3896 8.98361 23.4841C9.95344 24.513 10.9674 25.52 12.1576 26.3081C14.2736 27.9061 16.9186 28.8475 19.6077 28.6942C19.2109 28.9569 18.8142 29.1977 18.3954 29.4166C12.2899 30.3142 5.76552 27.9499 1.8421 23.1558C1.35719 22.6304 0.960434 22.0174 0.497559 21.4483Z" fill="white"/>
</svg>
