<svg width="92" height="92" viewBox="0 0 92 92" fill="none" xmlns="http://www.w3.org/2000/svg">
<path d="M91 1H1V91H91V1Z" stroke="#55A2E7" stroke-opacity="0.595597"/>
<path fill-rule="evenodd" clip-rule="evenodd" d="M40.8095 25C40.7469 25.0008 40.6836 25.0016 40.6202 25.0032C37.2334 25.0839 33.8443 25.0245 30.4567 25.0245H29.5001V58H45.5345C45.5638 57.7989 45.5963 57.6817 45.5963 57.5653C45.5923 55.6641 45.647 53.7598 45.5598 51.861C45.4403 49.2488 43.5113 47.7625 40.956 48.3588C39.8664 48.6122 38.8195 49.1221 37.8099 49.6265C36.2412 50.412 34.6955 51.1935 32.681 50.7699C33.5932 51.7897 34.5451 52.2284 35.7194 52.2387C37.0244 52.2514 38.0768 51.663 39.1125 50.9631C39.8727 50.4484 40.6471 49.921 41.4849 49.5623C43.0655 48.8861 44.5676 49.5647 44.7569 51.2402C44.9778 53.1913 44.8092 55.1851 44.8092 57.1892H30.2825V25.8544C30.6428 25.8377 30.9453 25.8116 31.2462 25.8116C34.5728 25.8092 37.8986 25.8045 41.2244 25.8132C43.6206 25.8195 45.004 26.9376 45.5583 29.2473C45.6058 29.4477 45.8647 29.5997 46.0239 29.7739C46.1648 29.6132 46.4143 29.4611 46.4285 29.2893C46.6122 27.2179 48.5523 25.7768 50.7188 25.8005C52.9851 25.8259 55.2522 25.8203 57.5185 25.8156C58.6398 25.8132 59.7611 25.8116 60.8824 25.8116C61.1476 25.8116 61.4129 25.852 61.7003 25.8758V57.1805H47.02C47.02 55.4345 47.0058 53.7519 47.0311 52.07C47.0375 51.6805 47.142 51.2782 47.2726 50.9061C47.7177 49.6384 48.8389 49.0397 50.1321 49.4269C50.6824 49.5924 51.205 49.8838 51.7023 50.1815C52.4926 50.6551 53.2266 51.2283 54.0288 51.6781C55.9308 52.7439 58.1869 52.3123 59.267 50.7073C57.6159 51.2362 56.1787 50.6194 54.7549 49.9274C53.8435 49.4839 52.9542 48.9835 52.0135 48.6122C48.9237 47.3927 46.6162 48.8354 46.4095 52.1302C46.3224 53.5056 46.385 54.8897 46.3802 56.2707C46.3778 56.8368 46.3802 57.403 46.3802 57.9699H62.5001V25.1069C62.3568 25.0728 62.2705 25.034 62.1834 25.034C58.1805 25.0325 54.1753 24.9786 50.1732 25.0776C49.2784 25.099 48.3306 25.5376 47.53 25.9969C46.9076 26.354 46.4752 27.0397 45.9186 27.6217C44.7989 25.6754 43.0734 25.0143 40.9504 25H40.8095Z" fill="#9B7B3A"/>
<path fill-rule="evenodd" clip-rule="evenodd" d="M44.7758 38.7634C45.1813 40.8491 45.5424 42.9442 45.9232 45.0354C46.3501 43.4494 46.6327 41.8856 46.9835 40.3376C47.6725 37.308 47.3795 34.3949 45.9834 31.4541C44.9667 33.8731 44.2817 36.2137 44.7758 38.7634Z" fill="#9B7B3A"/>
<path fill-rule="evenodd" clip-rule="evenodd" d="M46.868 44.5631C47.9378 42.9802 49.2001 41.3879 50.1448 39.6276C51.0031 38.0297 51.5464 36.2592 52.1616 34.541C52.3073 34.134 52.183 33.6304 52.183 33.0381C48.8168 36.3582 47.4279 40.3609 46.868 44.5631Z" fill="#9B7B3A"/>
<path fill-rule="evenodd" clip-rule="evenodd" d="M39.5938 33.1874C39.8147 34.2476 40.0166 35.3126 40.2629 36.3665C41.0389 39.6882 44.0828 41.7335 45.0885 44.9317C44.5738 40.4476 43.2133 36.3459 39.8741 33.124C39.7806 33.1446 39.6872 33.166 39.5938 33.1874Z" fill="#9B7B3A"/>
<path fill-rule="evenodd" clip-rule="evenodd" d="M47.6132 45.5313C48.7249 43.8352 50.2896 42.9848 51.8892 42.1771C53.8578 41.1826 55.4114 39.7272 56.6 37.887C56.8763 37.4594 57.0395 36.9582 57.3475 36.2852C50.0268 40.0978 48.5507 42.3537 47.6132 45.5313Z" fill="#9B7B3A"/>
<path fill-rule="evenodd" clip-rule="evenodd" d="M35.5563 38.1553C36.779 39.9741 38.3967 41.3543 40.3661 42.329C41.8912 43.0844 43.3411 43.9356 44.426 45.3815C44.3674 45.2176 44.3111 45.0529 44.2502 44.889C42.6086 40.4476 38.6961 38.5298 34.8009 36.5439C34.9973 37.1117 35.2277 37.6675 35.5563 38.1553Z" fill="#9B7B3A"/>
<path fill-rule="evenodd" clip-rule="evenodd" d="M37.3149 44.8823C39.8568 45.1096 42.367 45.2268 44.3823 47.0939C43.0322 44.3542 40.6835 43.0825 37.8471 42.5195C35.8175 42.1173 33.7848 41.734 31.7173 41.335C32.9375 43.4333 34.8784 44.6638 37.3149 44.8823Z" fill="#9B7B3A"/>
<path fill-rule="evenodd" clip-rule="evenodd" d="M54.1224 42.5211C51.3319 43.0864 48.9872 44.3201 47.6584 47.0202C49.4441 45.4437 51.6067 44.9971 53.8888 44.9607C55.4139 44.9361 56.7957 44.484 58.0461 43.6637C58.948 43.0706 59.7961 42.3857 60.1675 41.3809C58.1276 41.7633 56.1203 42.1173 54.1224 42.5211Z" fill="#9B7B3A"/>
<path fill-rule="evenodd" clip-rule="evenodd" d="M46.9667 48.8804C47.5994 48.4521 48.0024 48.1258 48.4522 47.8835C50.0011 47.0482 51.5175 47.4583 53.0759 47.9548C54.3167 48.3507 55.6138 48.7165 56.9022 48.7799C58.5152 48.8583 60.186 47.57 60.5558 46.2508C58.8929 47.1622 57.2221 47.0228 55.5338 46.4543C55.1276 46.3173 54.7087 46.2168 54.2914 46.1146C53.7094 45.9705 53.1305 45.8984 52.5628 45.8984C50.4287 45.8984 48.4459 46.9096 46.9667 48.8804Z" fill="#9B7B3A"/>
<path fill-rule="evenodd" clip-rule="evenodd" d="M38.5358 45.9776C37.8707 46.0766 37.2 46.2112 36.5641 46.4242C34.8085 47.0133 33.0728 47.1741 31.2087 46.1415C32.4401 48.2636 34.3398 49.1655 36.4651 48.734C37.2419 48.5756 38.0132 48.3309 38.748 48.0316C40.8449 47.1764 42.8499 47.0117 44.729 48.5906C43.344 46.9009 41.6653 45.8984 39.5763 45.8984C39.2398 45.8984 38.8937 45.9238 38.5358 45.9776Z" fill="#9B7B3A"/>
<mask id="mask0_472:4360" style="mask-type:alpha" maskUnits="userSpaceOnUse" x="23" y="63" width="7" height="10">
<path d="M28.2317 63.6717C28.1338 63.9223 27.9954 64.1665 27.9549 64.4283C27.7521 65.7276 27.445 66.9862 26.8835 68.1761C26.6075 68.7619 26.726 69.0644 27.247 69.4387C27.597 69.6909 27.6328 69.9647 27.3401 70.2919C26.6855 71.0245 25.9132 71.3685 24.9444 71.0748C24.4759 70.9327 24.2174 70.5904 24.1792 70.0884C24.1331 69.4962 24.3837 69.0061 24.6143 68.5041C24.8044 68.0923 24.9977 67.6821 25.1838 67.2687C25.2307 67.1634 25.2617 67.0253 25.1528 66.9551C25.02 66.8673 24.9484 67.0173 24.9038 67.1043C24.5889 67.7188 24.1625 68.2639 23.9454 68.9439C23.8102 69.3653 23.8444 69.8609 23.5 70.2009V71.4044C23.5477 71.4722 23.6169 71.5329 23.6392 71.6079C23.9613 72.7197 24.8076 72.9862 25.84 72.5545C27.445 71.8817 27.9318 70.3741 28.2348 68.7747C28.2778 68.5472 28.1585 68.327 27.9787 68.1689C27.8626 68.0668 27.7409 67.9734 27.6288 67.8697C27.3528 67.6135 27.5469 67.3892 27.6654 67.1466C27.7863 66.8984 27.9262 66.9024 28.1251 67.0397C28.2627 67.1354 28.4265 67.1258 28.5506 67.0181C28.996 66.6294 29.2847 66.1402 29.3468 65.5265C29.3643 65.3581 29.303 65.2001 29.1392 65.1442C28.9809 65.0907 28.9292 65.2559 28.8735 65.3573C28.7312 65.6175 28.5951 65.5009 28.5164 65.3349C28.4401 65.1745 28.3796 64.9726 28.4003 64.8002C28.4424 64.461 28.409 64.1107 28.5331 63.7834C28.5824 63.6518 28.6015 63.5121 28.4432 63.465C28.4249 63.4594 28.409 63.457 28.3939 63.457C28.2913 63.457 28.2659 63.5815 28.2317 63.6717Z" fill="white"/>
</mask>
<g mask="url(#mask0_472:4360)">
<path fill-rule="evenodd" clip-rule="evenodd" d="M23.0116 73.4744H29.8502V62.9316H23.0116V73.4744Z" fill="#9B7B3A"/>
</g>
<mask id="mask1_472:4360" style="mask-type:alpha" maskUnits="userSpaceOnUse" x="63" y="65" width="6" height="7">
<path d="M64.448 67.1593C64.2109 68.1809 63.9015 69.1888 63.9683 70.2575C64.0049 70.8561 64.4106 71.2631 64.9427 71.2822C65.4183 71.299 65.5949 70.9383 65.8239 70.6342C65.9973 70.4035 66.1413 70.125 66.5111 70.3317C66.6225 70.3924 66.7601 70.3549 66.8563 70.2615C67.3073 69.8201 68.0072 69.643 68.2196 68.9446C68.2323 68.9031 68.3023 68.8792 68.3461 68.8473V68.3461C68.2427 68.3078 68.152 68.3237 68.1043 68.4315C67.9134 68.8592 67.3479 68.8991 67.1745 69.3533C67.1546 69.4035 66.9923 69.4371 66.9104 69.4171C66.5032 69.3237 66.1994 69.4833 65.9043 69.7507C65.7237 69.9143 65.5153 70.0125 65.2362 69.8592C64.7637 69.5983 64.5561 69.1226 64.6993 68.4746C64.8695 67.706 65.0501 66.939 65.198 66.1665C65.2433 65.931 65.3149 65.6613 65.12 65.4131C64.7486 65.9598 64.5879 66.5528 64.448 67.1593Z" fill="white"/>
</mask>
<g mask="url(#mask1_472:4360)">
<path fill-rule="evenodd" clip-rule="evenodd" d="M63.4142 71.7872H68.8323V64.9229H63.4142V71.7872Z" fill="#9B7B3A"/>
</g>
<mask id="mask2_472:4360" style="mask-type:alpha" maskUnits="userSpaceOnUse" x="37" y="61" width="11" height="11">
<path d="M47.3716 61.666C46.0051 62.4569 44.6347 63.2422 43.2802 64.0531C42.6606 64.4242 42.0147 64.7706 41.6393 65.4481C41.2265 66.1904 41.0643 66.9829 41.0698 67.8209C41.073 68.1864 41.0714 68.5503 40.9052 68.8911C40.8392 69.0244 40.7517 69.1872 40.6022 69.1106C40.0828 68.8416 39.8314 69.279 39.5212 69.5112C39.1116 69.8177 38.7044 69.8863 38.325 69.6357C37.9711 69.4019 37.7674 68.8177 37.8685 68.4067C38.0434 67.6908 38.2041 66.9701 38.3648 66.251C38.3942 66.1209 38.4626 65.9462 38.2669 65.8991C38.1055 65.86 38.088 66.026 38.0347 66.1409C37.5185 67.2598 37.3212 68.4545 37.1646 69.6645C37.0906 70.2359 37.2783 70.6804 37.7022 71.0436C38.0665 71.3556 38.43 71.3676 38.7919 71.0483C39.0432 70.8273 39.2596 70.5671 39.495 70.3285C39.6771 70.1425 39.8744 69.9893 40.1448 70.0619C40.3007 70.0882 40.4494 70.1146 40.5632 70.0108C40.9036 69.6988 41.2377 69.3843 41.4134 68.9342C41.7785 67.9933 41.8573 67.006 41.9169 66.0164C41.9328 65.7642 42.0187 65.5918 42.2295 65.4657C43.3541 64.7937 44.4693 64.105 45.6042 63.4521C46.3304 63.0347 47.1075 62.7011 47.646 62.0196C47.7533 61.8847 47.9792 61.761 47.8138 61.5694C47.7708 61.5192 47.7271 61.5 47.6833 61.5C47.576 61.5 47.4678 61.6109 47.3716 61.666Z" fill="white"/>
</mask>
<g mask="url(#mask2_472:4360)">
<path fill-rule="evenodd" clip-rule="evenodd" d="M36.6604 71.7704H48.3595V61.0098H36.6604V71.7704Z" fill="#9B7B3A"/>
</g>
<mask id="mask3_472:4360" style="mask-type:alpha" maskUnits="userSpaceOnUse" x="32" y="65" width="6" height="7">
<path d="M32.9975 66.5655C32.8201 67.2463 32.6101 67.9223 32.4797 68.6126C32.3922 69.0779 32.253 69.5416 32.2769 70.0244C32.323 70.9909 32.9068 71.4554 33.8215 71.224C34.2597 71.113 34.5787 70.8026 34.8618 70.4618C35.273 69.9646 35.5204 69.366 35.8624 68.8265C35.9324 68.7164 35.9451 68.5887 35.86 68.4809C35.7781 68.3764 35.6652 68.4211 35.557 68.4442C35.2126 68.5177 34.8698 68.6142 34.5015 68.5376C35.1776 68.1705 35.7694 67.6733 36.5067 67.4506C36.9624 67.3125 37.302 67.0412 37.5462 66.6421C37.6091 66.5392 37.6934 66.4267 37.582 66.3085C37.4897 66.212 37.3681 66.2559 37.275 66.2998C36.8813 66.4849 36.5019 66.7044 36.0994 66.8696C35.2213 67.2295 34.4626 67.7347 33.9297 68.5344C33.8104 68.7132 33.6441 68.9199 33.8175 69.1282C33.975 69.3149 34.1993 69.3501 34.4546 69.2679C34.6877 69.1928 34.9414 69.1801 35.2221 69.1346C34.9183 69.6685 34.255 69.9766 33.7356 69.8648C33.1438 69.7371 32.9132 69.2734 33.0293 68.6637C33.2099 67.7044 33.4262 66.7555 33.6696 65.8113C33.7014 65.6924 33.7316 65.5416 33.5686 65.4131C33.3307 65.781 33.1072 66.1425 32.9975 66.5655Z" fill="white"/>
</mask>
<g mask="url(#mask3_472:4360)">
<path fill-rule="evenodd" clip-rule="evenodd" d="M31.7655 71.9436H38.1802V64.9229H31.7655V71.9436Z" fill="#9B7B3A"/>
</g>
<mask id="mask4_472:4360" style="mask-type:alpha" maskUnits="userSpaceOnUse" x="52" y="66" width="7" height="7">
<path d="M57.775 66.639C57.4465 67.3725 57.2548 68.1346 57.3113 68.9559C57.3439 69.4339 57.149 69.8202 56.8778 70.1897C56.232 71.0676 55.3539 71.2288 54.3963 71.0892C53.7059 70.9878 53.4418 70.5911 53.4203 69.8681C53.4028 69.2408 53.7337 68.738 53.8992 68.1761C53.9389 68.0436 54.0757 67.8832 53.9182 67.7907C53.7695 67.7021 53.682 67.8912 53.6144 68.0077C53.103 68.8864 52.788 69.8346 52.7483 70.5081C52.7276 72.0038 53.4227 72.8186 54.4527 72.746C55.1678 72.6957 55.847 72.4116 56.3728 71.8521C57.398 70.7603 57.8203 69.3844 57.9866 67.8992C58.0303 67.5113 57.95 67.1131 58.0407 66.726C58.0677 66.6095 58.1926 66.4602 58.0192 66.3996C58.0025 66.394 57.9866 66.3916 57.9723 66.3916C57.8681 66.3916 57.8227 66.5321 57.775 66.639Z" fill="white"/>
</mask>
<g mask="url(#mask4_472:4360)">
<path fill-rule="evenodd" clip-rule="evenodd" d="M52.2393 73.3061H58.6794V65.8623H52.2393V73.3061Z" fill="#9B7B3A"/>
</g>
<mask id="mask5_472:4360" style="mask-type:alpha" maskUnits="userSpaceOnUse" x="47" y="65" width="6" height="7">
<path d="M48.407 65.7251C48.1254 66.2806 48.0459 66.8959 47.855 67.4785C47.6036 68.2503 47.5758 69.0604 47.3849 69.7802C47.3833 70.1952 47.5114 70.5193 47.6935 70.8082C48.0514 71.374 48.706 71.4403 49.1936 70.9742C49.3336 70.8417 49.4346 70.6725 49.5491 70.5177C49.6851 70.3357 49.8673 70.212 50.0908 70.3022C50.432 70.441 50.6539 70.2703 50.8798 70.0803C50.9856 69.9909 51.077 69.8975 51.2266 69.8608C51.7133 69.7459 52.076 69.449 52.348 69.0548C52.5349 68.7834 52.7099 68.4985 52.7441 68.1609C52.7521 68.0835 52.7569 67.9829 52.6511 67.9598C52.6113 67.9502 52.5342 67.9901 52.5151 68.0268C52.383 68.275 52.1174 68.4091 51.9631 68.631C51.6465 69.0867 51.0548 69.1274 50.6611 69.4618C50.6364 69.4825 50.5688 69.4841 50.5394 69.4666C50.1584 69.2455 49.9126 69.4913 49.643 69.6932C49.2143 70.0125 48.9224 69.9853 48.5175 69.6262C48.065 69.2224 48.1206 68.7076 48.2216 68.2112C48.3855 67.4115 48.6018 66.623 48.7911 65.8289C48.8245 65.6876 48.9033 65.4841 48.7275 65.4259C48.7005 65.4171 48.6766 65.4131 48.6551 65.4131C48.5056 65.4131 48.4682 65.6054 48.407 65.7251Z" fill="white"/>
</mask>
<g mask="url(#mask5_472:4360)">
<path fill-rule="evenodd" clip-rule="evenodd" d="M46.8942 71.9277H53.242V64.8662H46.8942V71.9277Z" fill="#9B7B3A"/>
</g>
<mask id="mask6_472:4360" style="mask-type:alpha" maskUnits="userSpaceOnUse" x="58" y="65" width="3" height="7">
<path d="M59.4541 66.3509C59.0604 67.0276 59.0317 67.8034 58.8575 68.5368C58.6961 69.212 58.5044 69.8952 58.6468 70.6103C58.7088 70.9231 58.8512 71.1578 59.1526 71.2479C59.4565 71.3405 59.7301 71.2471 59.9305 70.9894C60.2296 70.6063 60.3783 70.153 60.5231 69.7044C60.5962 69.4778 60.4968 69.2088 60.2709 69.1162C60.0021 69.0069 59.9639 69.2974 59.8637 69.457C59.8032 69.5528 59.7651 69.6829 59.6163 69.6629C59.4596 69.6414 59.4111 69.5145 59.392 69.3812C59.3777 69.283 59.3729 69.1817 59.3721 69.0811C59.3586 68.3557 59.5845 67.6701 59.7428 66.9726C59.8207 66.6262 59.8915 66.287 59.7515 65.9023C59.5766 66.0388 59.5376 66.2088 59.4541 66.3509Z" fill="white"/>
</mask>
<g mask="url(#mask6_472:4360)">
<path fill-rule="evenodd" clip-rule="evenodd" d="M58.0161 71.8279H61.0823V65.4121H58.0161V71.8279Z" fill="#9B7B3A"/>
</g>
<mask id="mask7_472:4360" style="mask-type:alpha" maskUnits="userSpaceOnUse" x="41" y="68" width="3" height="4">
<path d="M42.7995 68.8792C42.6985 69.0492 42.6349 69.2415 42.5562 69.4243C42.4154 69.7539 42.5084 70.0197 42.817 70.1904C43.0819 70.3365 43.0055 70.4506 42.8329 70.6062C42.4973 70.9063 42.1123 71.1346 41.7274 71.3644C41.6176 71.4291 41.4856 71.5153 41.5556 71.6701C41.6311 71.8409 41.7807 71.7515 41.8984 71.722C43.1121 71.4219 43.9242 70.4243 43.96 69.1473C44.0236 68.7842 43.8566 68.4594 43.4573 68.362C43.4175 68.3524 43.3802 68.3477 43.3452 68.3477C43.058 68.3477 42.934 68.6541 42.7995 68.8792Z" fill="white"/>
</mask>
<g mask="url(#mask7_472:4360)">
<path fill-rule="evenodd" clip-rule="evenodd" d="M40.9974 72.3289H44.5098V67.7822H40.9974V72.3289Z" fill="#9B7B3A"/>
</g>
<mask id="mask8_472:4360" style="mask-type:alpha" maskUnits="userSpaceOnUse" x="43" y="67" width="4" height="5">
<path d="M45.6171 67.8713C45.229 68.0062 44.9641 69.0461 45.2457 69.3271C45.6418 69.7229 45.6219 69.9615 45.1415 70.2848C44.9068 70.4428 44.6483 70.5729 44.4065 70.7245C44.2817 70.8035 44.1568 70.8905 44.0574 70.9935C43.9222 71.1323 43.942 71.2473 44.1751 71.2784C44.5624 71.3319 45.5527 70.8674 45.6966 70.537C45.8008 70.3015 45.9456 70.0932 46.1015 69.8881C46.3083 69.6152 46.4029 69.3151 46.4069 68.9376C46.4395 68.5697 46.2653 68.2329 45.901 67.9711C45.8342 67.9232 45.7714 67.8594 45.6839 67.8594C45.6632 67.8594 45.641 67.8626 45.6171 67.8713Z" fill="white"/>
</mask>
<g mask="url(#mask8_472:4360)">
<path fill-rule="evenodd" clip-rule="evenodd" d="M43.4346 71.82H46.9263V67.3379H43.4346V71.82Z" fill="#9B7B3A"/>
</g>
<mask id="mask9_472:4360" style="mask-type:alpha" maskUnits="userSpaceOnUse" x="39" y="62" width="3" height="3">
<path d="M40.6607 62.8377C40.5868 62.9813 40.5168 63.1306 40.4189 63.3277C40.3625 63.2391 40.3314 63.1904 40.2996 63.1409C39.9711 62.619 39.7739 62.6166 39.4685 63.1489C39.3659 63.3285 39.2927 63.5328 39.2036 63.7243C39.1344 63.8744 39.0191 64.05 39.1805 64.1808C39.3547 64.3229 39.5408 64.5496 39.7858 64.3668C39.9163 64.2686 40.0316 64.133 40.1421 64.0005C40.2249 63.9007 40.2885 63.8648 40.4142 63.9223C40.9797 64.1808 41.2374 64.0444 41.4847 63.3875C41.6112 63.0515 41.4982 62.7163 41.1904 62.5352C41.1244 62.4961 41.0664 62.4785 41.0155 62.4785C40.8492 62.4785 40.7538 62.6597 40.6607 62.8377Z" fill="white"/>
</mask>
<g mask="url(#mask9_472:4360)">
<path fill-rule="evenodd" clip-rule="evenodd" d="M38.5317 65.0374H42.099V61.877H38.5317V65.0374Z" fill="#9B7B3A"/>
</g>
<mask id="mask10_472:4360" style="mask-type:alpha" maskUnits="userSpaceOnUse" x="28" y="69" width="4" height="3">
<path d="M30.9492 69.4219C30.7877 69.6989 30.5714 69.7875 30.2692 69.6486C30.2254 69.6286 30.1514 69.6454 30.1045 69.6694C29.5319 69.9678 29.0674 70.3709 28.8773 71.0149C28.8136 71.2264 28.9496 71.3405 29.1238 71.2536C29.4006 71.1139 29.6623 71.0923 29.9136 71.1785C30.4728 71.169 31.3739 70.0724 31.2936 69.5409C31.2817 69.4531 31.2658 69.3677 31.1687 69.3365C31.1473 69.3294 31.1258 69.3262 31.1051 69.3262C31.0399 69.3262 30.985 69.3613 30.9492 69.4219Z" fill="white"/>
</mask>
<g mask="url(#mask10_472:4360)">
<path fill-rule="evenodd" clip-rule="evenodd" d="M28.3268 71.8294H31.8598V68.8174H28.3268V71.8294Z" fill="#9B7B3A"/>
</g>
<mask id="mask11_472:4360" style="mask-type:alpha" maskUnits="userSpaceOnUse" x="61" y="68" width="3" height="4">
<path d="M63.1365 68.5376C63.0736 68.6557 63.0044 68.777 62.9718 68.9047C62.8024 69.5679 62.4087 70.0516 61.8551 70.4195C61.6109 70.5799 61.3795 70.7603 61.148 70.9383C61.0725 70.9957 61.012 71.0747 61.0423 71.1817C61.0645 71.2567 61.1385 71.299 61.1981 71.2766C61.6404 71.1059 62.1836 71.0915 62.5002 70.726C63.0108 70.1362 63.3154 69.4107 63.465 68.6302C63.4705 68.5192 63.4984 68.3923 63.3631 68.354C63.3472 68.3501 63.3329 68.3477 63.3194 68.3477C63.22 68.3477 63.1794 68.457 63.1365 68.5376Z" fill="white"/>
</mask>
<g mask="url(#mask11_472:4360)">
<path fill-rule="evenodd" clip-rule="evenodd" d="M60.5228 71.7873H63.9859V67.8271H60.5228V71.7873Z" fill="#9B7B3A"/>
</g>
<mask id="mask12_472:4360" style="mask-type:alpha" maskUnits="userSpaceOnUse" x="53" y="63" width="2" height="5">
<path d="M54.4303 64.1847C53.8831 65.0323 53.9356 66.0906 53.7343 67.0603C53.7105 67.1728 53.7089 67.338 53.8473 67.3659C53.9721 67.3907 54.0175 67.2526 54.066 67.1393C54.4271 66.3005 54.5488 65.3835 54.6737 64.4673C54.676 64.4122 54.6824 64.3571 54.6792 64.3013C54.6745 64.1831 54.7476 64.0195 54.6283 63.9605C54.6069 63.9501 54.5886 63.9453 54.5734 63.9453C54.4804 63.9453 54.4772 64.1113 54.4303 64.1847Z" fill="white"/>
</mask>
<g mask="url(#mask12_472:4360)">
<path fill-rule="evenodd" clip-rule="evenodd" d="M53.2208 67.8803H55.2339V63.3975H53.2208V67.8803Z" fill="#9B7B3A"/>
</g>
<mask id="mask13_472:4360" style="mask-type:alpha" maskUnits="userSpaceOnUse" x="54" y="67" width="3" height="3">
<path d="M54.9391 68.4388C54.8604 68.5952 54.8023 68.7612 54.7403 68.9248C54.5605 69.3941 54.9861 69.5098 55.2414 69.7221C55.4983 69.9352 55.651 69.7413 55.8013 69.5673C56.0185 69.3167 56.1656 69.0413 56.1584 68.8259C56.1616 68.252 55.923 67.9097 55.5301 67.8642C55.5038 67.861 55.4792 67.8594 55.4553 67.8594C55.1006 67.8594 55.06 68.1994 54.9391 68.4388Z" fill="white"/>
</mask>
<g mask="url(#mask13_472:4360)">
<path fill-rule="evenodd" clip-rule="evenodd" d="M54.072 70.424H56.6514V67.3242H54.072V70.424Z" fill="#9B7B3A"/>
</g>
<mask id="mask14_472:4360" style="mask-type:alpha" maskUnits="userSpaceOnUse" x="35" y="71" width="2" height="3">
<path d="M35.6061 72.1402C35.5178 72.2312 35.4566 72.3421 35.3747 72.4387C35.2077 72.635 35.1043 72.8409 35.3238 73.0508C35.5345 73.2519 35.8241 73.2871 36.0873 73.1793C36.423 73.0404 36.5996 72.7723 36.6608 72.4594C36.621 72.145 36.4405 71.9072 36.1279 71.797C36.0778 71.7795 36.034 71.7715 35.9959 71.7715C35.7811 71.7715 35.7286 72.0133 35.6061 72.1402Z" fill="white"/>
</mask>
<g mask="url(#mask14_472:4360)">
<path fill-rule="evenodd" clip-rule="evenodd" d="M34.6158 73.7756H37.1483V71.1914H34.6158V73.7756Z" fill="#9B7B3A"/>
</g>
<mask id="mask15_472:4360" style="mask-type:alpha" maskUnits="userSpaceOnUse" x="62" y="64" width="1" height="2">
<path d="M62.2935 64.6893C62.2013 64.8665 62.1361 65.0676 62.0669 65.2632C61.9269 65.6654 62.0366 65.8753 62.4447 65.896C62.6308 65.936 62.7771 65.7883 62.8765 65.5289C62.9855 65.244 63.042 64.9495 62.8972 64.6718C62.8153 64.5138 62.7095 64.4355 62.6037 64.4355C62.4932 64.4355 62.381 64.5201 62.2935 64.6893Z" fill="white"/>
</mask>
<g mask="url(#mask15_472:4360)">
<path fill-rule="evenodd" clip-rule="evenodd" d="M61.4376 66.4243H63.5287V63.8584H61.4376V66.4243Z" fill="#9B7B3A"/>
</g>
<mask id="mask16_472:4360" style="mask-type:alpha" maskUnits="userSpaceOnUse" x="30" y="63" width="2" height="2">
<path d="M31.0231 63.8297C30.9476 63.9798 30.8951 64.1482 30.8402 64.3126C30.7392 64.6095 30.9134 64.9143 31.1846 64.9239C31.4972 64.9351 31.8813 64.2966 31.7652 63.9375C31.696 63.7228 31.6077 63.4921 31.385 63.4602C31.3715 63.4578 31.3588 63.457 31.3468 63.457C31.1623 63.457 31.1027 63.6725 31.0231 63.8297Z" fill="white"/>
</mask>
<g mask="url(#mask16_472:4360)">
<path fill-rule="evenodd" clip-rule="evenodd" d="M30.2523 65.4237H32.368V62.9385H30.2523V65.4237Z" fill="#9B7B3A"/>
</g>
<mask id="mask17_472:4360" style="mask-type:alpha" maskUnits="userSpaceOnUse" x="50" y="65" width="2" height="2">
<path d="M50.6626 65.5097C50.5035 65.7435 50.3604 65.9901 50.3158 66.2886C50.28 66.5344 50.4057 66.694 50.5743 66.8177C50.6968 66.9095 50.8241 66.9023 50.9322 66.785C51.1335 66.5639 51.2416 66.2878 51.2846 65.9773C51.2949 65.7211 51.1525 65.5831 50.9847 65.469C50.933 65.4338 50.8789 65.4131 50.828 65.4131C50.7668 65.4131 50.7095 65.4426 50.6626 65.5097Z" fill="white"/>
</mask>
<g mask="url(#mask17_472:4360)">
<path fill-rule="evenodd" clip-rule="evenodd" d="M49.7916 67.3977H51.7816V64.8965H49.7916V67.3977Z" fill="#9B7B3A"/>
</g>
<mask id="mask18_472:4360" style="mask-type:alpha" maskUnits="userSpaceOnUse" x="34" y="62" width="3" height="3">
<path d="M35.1013 63.2766C34.947 63.4522 34.8253 63.6541 34.7346 63.8576C34.6224 64.1082 34.9446 64.4482 35.2508 64.4347C35.6397 64.4163 36.2657 63.8074 36.1623 63.5073C36.0875 63.287 35.9444 63.0611 35.6429 62.9837C35.6 62.9726 35.5618 62.9678 35.526 62.9678C35.3089 62.9678 35.2102 63.1537 35.1013 63.2766Z" fill="white"/>
</mask>
<g mask="url(#mask18_472:4360)">
<path fill-rule="evenodd" clip-rule="evenodd" d="M34.1332 64.937H36.7515V62.415H34.1332V64.937Z" fill="#9B7B3A"/>
</g>
<mask id="mask19_472:4360" style="mask-type:alpha" maskUnits="userSpaceOnUse" x="30" y="66" width="2" height="3">
<path d="M31.0265 66.9591C30.8213 67.0892 30.6853 67.2751 30.6567 67.5345C30.6432 67.6614 30.6376 67.7635 30.4825 67.7915C30.3298 67.8186 30.3043 67.9623 30.3361 68.1059C30.3688 68.2488 30.461 68.331 30.5795 68.3477C30.8738 68.3653 31.2476 67.8705 31.1204 67.6191C31.0162 67.4108 31.0408 67.2999 31.211 67.1801C31.2906 67.1235 31.3335 67.0165 31.2643 66.9279C31.2381 66.8936 31.2103 66.8809 31.1824 66.8809C31.1291 66.8809 31.0758 66.9279 31.0265 66.9591Z" fill="white"/>
</mask>
<g mask="url(#mask19_472:4360)">
<path fill-rule="evenodd" clip-rule="evenodd" d="M29.8163 68.8533H31.8214V66.3369H29.8163V68.8533Z" fill="#9B7B3A"/>
</g>
<mask id="mask20_472:4360" style="mask-type:alpha" maskUnits="userSpaceOnUse" x="67" y="64" width="2" height="3">
<path d="M67.9562 65.1714C67.9053 65.264 67.8838 65.3869 67.9244 65.4827C68.0978 65.8969 68.0278 66.2887 67.883 66.679C67.86 66.7413 67.8377 66.8187 67.8926 66.861C67.9634 66.9168 68.0119 66.8434 68.0381 66.7708C68.1829 66.3693 68.3857 65.9903 68.3388 65.5322C68.3388 65.4268 68.3436 65.3438 68.3372 65.264C68.3277 65.1331 68.3467 64.9671 68.2139 64.9304C68.1996 64.9264 68.1861 64.9248 68.1734 64.9248C68.0628 64.9248 68.0135 65.0669 67.9562 65.1714Z" fill="white"/>
</mask>
<g mask="url(#mask20_472:4360)">
<path fill-rule="evenodd" clip-rule="evenodd" d="M67.3495 67.4046H68.8321V64.4014H67.3495V67.4046Z" fill="#9B7B3A"/>
</g>
</svg>
