<svg width="99" height="160" viewBox="0 0 99 160" fill="none" xmlns="http://www.w3.org/2000/svg">
<g opacity="0.25">
<path fill-rule="evenodd" clip-rule="evenodd" d="M75.0423 76C73.0839 48.1596 50.8411 25.9167 23.0007 23.9583V21.9535C51.9461 23.9189 75.0818 47.0545 77.0472 76H75.0423ZM-39.0458 76C-37.0804 47.0545 -13.9447 23.9189 15.0007 21.9535V23.9583C-12.8397 25.9167 -35.0825 48.1596 -37.0409 76H-39.0458ZM23.0007 136.042C50.8411 134.083 73.0839 111.84 75.0423 84H77.0472C75.0818 112.945 51.9461 136.081 23.0007 138.046V136.042ZM15.0007 136.042C-12.8397 134.083 -35.0825 111.84 -37.0409 84H-39.0458C-37.0804 112.945 -13.9447 136.081 15.0007 138.046V136.042Z" fill="#26FF7B"/>
<path d="M55.3639 80H91.7275" stroke="#26FF7B" stroke-width="2" stroke-linecap="round" stroke-linejoin="round"/>
<path d="M19.0002 43.6364L19.0002 7.27272" stroke="#26FF7B" stroke-width="2" stroke-linecap="round" stroke-linejoin="round"/>
<path d="M19.0002 152.727L19.0002 116.364" stroke="#26FF7B" stroke-width="2" stroke-linecap="round" stroke-linejoin="round"/>
</g>
</svg>
