<svg width="28" height="29" viewBox="0 0 28 29" fill="none" xmlns="http://www.w3.org/2000/svg">
<mask id="mask0_4966_6799" style="mask-type:alpha" maskUnits="userSpaceOnUse" x="0" y="0" width="26" height="29">
<path d="M0 0H25.2V29H0V0Z" fill="white"/>
</mask>
<g mask="url(#mask0_4966_6799)">
<path fill-rule="evenodd" clip-rule="evenodd" d="M14.4516 0.293638C13.7641 -0.0978793 12.9171 -0.0978793 12.2296 0.293638L1.11068 6.62978C0.423175 7.0213 -0.000318527 7.74525 -0.000318527 8.52872V21.2001C-0.000318527 21.9836 0.423175 22.7076 1.11068 23.0995L11.1186 28.8021C12.1063 29.3647 13.3406 28.661 13.3406 27.5358V16.1307C13.3406 15.3472 13.7641 14.6228 14.4516 14.2313L24.4591 8.52872C25.4468 7.96614 25.4468 6.55923 24.4591 5.99665L14.4516 0.293638Z" fill="white"/>
</g>
<path fill-rule="evenodd" clip-rule="evenodd" d="M18.1848 18.6594C18.1848 17.959 18.5606 17.3126 19.1702 16.9623L25.3439 13.42C26.2198 12.9169 27.3154 13.5457 27.3154 14.5514V21.6361C27.3154 22.3365 26.9396 22.983 26.3296 23.3332L20.1563 26.8755C19.28 27.3782 18.1848 26.7499 18.1848 25.7441V18.6594Z" fill="#26FF7B"/>
</svg>
