<svg width="78" height="54" viewBox="0 0 78 36" fill="none" xmlns="http://www.w3.org/2000/svg">
<path d="M12 13.0042H14.0898V20.6167H17.9588V22.5453H12V13.0042ZM18.8828 16.0762H20.8905V22.5417H18.8828V16.0762ZM19.8866 12.8618C20.5255 12.8619 21.0511 13.3876 21.0511 14.0265C21.0511 14.6654 20.5253 15.1911 19.8864 15.1911C19.2475 15.1911 18.7218 14.6654 18.7218 14.0265C18.7218 13.3875 19.2477 12.8618 19.8866 12.8618ZM29.2888 13.0028H31.2965V18.7048L33.5719 16.0732H36.0335L33.3984 19.0666L35.978 22.5445H33.4546L31.3233 19.3485H31.297V22.544H29.2893L29.2888 13.0028ZM22.0037 16.0768H23.9317V16.9604H23.9591C24.3509 16.2891 25.0833 15.8867 25.8601 15.916C27.8961 15.916 28.2708 17.2555 28.2708 18.9957V22.5413H26.2631V19.3978C26.2631 18.6475 26.2493 17.6829 25.2175 17.6829C24.1739 17.6829 24.0128 18.5 24.0128 19.3432V22.5405H22.0052L22.0037 16.0768Z" fill="#0A66C2"/>
<path d="M40.2615 18.5569C40.2617 18.5475 40.2618 18.538 40.2618 18.5285C40.2618 17.8681 39.7184 17.3248 39.058 17.3248C39.0483 17.3248 39.0386 17.3249 39.0288 17.3251C38.3037 17.28 37.6672 17.8326 37.6101 18.5569H40.2615ZM41.9622 21.422C41.287 22.2408 40.2779 22.7136 39.2167 22.7084C37.209 22.7084 35.6016 21.3683 35.6016 19.2931C35.6016 17.2178 37.2088 15.8783 39.2167 15.8783C41.0932 15.8783 42.27 17.2168 42.27 19.2931V19.9226H37.6101C37.7295 20.6574 38.3789 21.1976 39.1231 21.1814C39.7032 21.1777 40.2434 20.8798 40.5559 20.3912L41.9622 21.422ZM46.4548 17.639C45.451 17.639 44.8487 18.3093 44.8487 19.286C44.8487 20.2626 45.4507 20.9335 46.4548 20.9335C47.4588 20.9335 48.0624 20.2643 48.0624 19.286C48.0624 18.3076 47.4599 17.639 46.4548 17.639ZM49.9107 22.5405H48.0624V21.6831H48.035C47.5653 22.3147 46.8262 22.6918 46.039 22.7011C44.11 22.7011 42.8393 21.3089 42.8393 19.3401C42.8393 17.532 43.9638 15.8716 45.8123 15.8716C46.6432 15.8716 47.4193 16.0989 47.8746 16.7291H47.901V13.0021H49.9105L49.9107 22.5405ZM63.4645 22.5443H61.4568V19.4001C61.4568 18.6504 61.4434 17.6852 60.4126 17.6852C59.3669 17.6852 59.2069 18.5021 59.2069 19.3455V22.544H57.1993V16.0784H59.1266V16.962H59.1536C59.5461 16.2911 60.2784 15.8888 61.0553 15.9177C63.0901 15.9177 63.4653 17.2561 63.4653 18.9974L63.4645 22.5443ZM54.9339 15.1946C54.2948 15.1946 53.7686 14.6688 53.7686 14.0296C53.7686 13.3904 54.2945 12.8645 54.9337 12.8645C55.5728 12.8645 56.0987 13.3903 56.0988 14.0294C56.0988 14.6684 55.573 15.1946 54.9339 15.1946ZM55.9377 22.5443H53.928V16.0784H55.9377V22.5443ZM64.4653 11.0001H52.9191C52.3771 10.994 51.9259 11.4347 51.9193 11.9767V23.5709C51.9256 24.1132 52.3768 24.5544 52.9191 24.5486H64.4653C65.009 24.5554 65.4617 24.1143 65.469 23.5709V11.9759C65.4617 11.4328 65.0084 10.9929 64.4653 11.0001Z" fill="#0A66C2"/>
<path d="M47.985 53.6059C47.985 53.6059 47.985 53.6059 47.985 53.6059C47.9875 53.6059 47.9895 53.6039 47.9895 53.6014C47.9895 53.6014 47.9895 53.6013 47.9895 53.6012C47.9895 53.5978 47.9875 53.5962 47.9833 53.5962H47.9766V53.6138H47.9791V53.6061H47.9822L47.9823 53.6062L47.9871 53.6138H47.9898L47.9846 53.606L47.985 53.6059ZM47.982 53.6042H47.9791V53.5982H47.9828C47.9847 53.5982 47.9869 53.5985 47.9869 53.601C47.9869 53.6039 47.9847 53.6042 47.982 53.6042H47.982ZM47 53.4135H47.0373V53.5494H47.1064V53.5839H47V53.4135ZM47.1229 53.4684H47.1588V53.5838H47.1229V53.4684ZM47.1408 53.411C47.1522 53.411 47.1616 53.4204 47.1616 53.4318C47.1616 53.4432 47.1522 53.4526 47.1408 53.4526C47.1294 53.4526 47.12 53.4432 47.12 53.4318C47.12 53.4204 47.1294 53.411 47.1408 53.411C47.1408 53.411 47.1408 53.411 47.1408 53.411ZM47.3087 53.4135H47.3446V53.5153L47.3852 53.4683H47.4292L47.3821 53.5218L47.4282 53.5839H47.3831L47.3451 53.5268H47.3446V53.5839H47.3087L47.3087 53.4135ZM47.1786 53.4684H47.2131V53.4842H47.2136C47.2206 53.4722 47.2336 53.465 47.2475 53.4655C47.2839 53.4655 47.2905 53.4894 47.2905 53.5205V53.5838H47.2547V53.5277C47.2547 53.5143 47.2545 53.4971 47.236 53.4971C47.2174 53.4971 47.2145 53.5116 47.2145 53.5267V53.5838H47.1787L47.1786 53.4684Z" fill="#0A66C2"/>
<path d="M47.5046 53.5127C47.5046 53.5125 47.5046 53.5123 47.5046 53.5122C47.5046 53.5004 47.4949 53.4907 47.4831 53.4907C47.4829 53.4907 47.4828 53.4907 47.4826 53.4907C47.4696 53.4899 47.4583 53.4997 47.4573 53.5127H47.5046ZM47.535 53.5638C47.5229 53.5784 47.5049 53.5869 47.4859 53.5868C47.4501 53.5868 47.4214 53.5629 47.4214 53.5258C47.4214 53.4887 47.4501 53.4648 47.4859 53.4648C47.5195 53.4648 47.5405 53.4887 47.5405 53.5258V53.537H47.4573C47.4594 53.5502 47.471 53.5598 47.4843 53.5595C47.4946 53.5595 47.5043 53.5541 47.5099 53.5454L47.535 53.5638ZM47.6152 53.4963C47.5973 53.4963 47.5865 53.5082 47.5865 53.5257C47.5865 53.5431 47.5973 53.5551 47.6152 53.5551C47.6331 53.5551 47.6439 53.5431 47.6439 53.5257C47.6439 53.5082 47.6331 53.4963 47.6152 53.4963ZM47.6769 53.5838H47.6439V53.5685H47.6434C47.635 53.5798 47.6218 53.5865 47.6078 53.5867C47.5733 53.5867 47.5506 53.5618 47.5506 53.5266C47.5506 53.4944 47.5707 53.4647 47.6037 53.4647C47.6186 53.4647 47.6324 53.4688 47.6405 53.48H47.641V53.4135H47.6769L47.6769 53.5838ZM47.9189 53.5839H47.8831V53.5277C47.8831 53.5143 47.8828 53.4971 47.8644 53.4971C47.8458 53.4971 47.8429 53.5117 47.8429 53.5267V53.5839H47.8071V53.4684H47.8415V53.4842H47.842C47.849 53.4722 47.862 53.465 47.8759 53.4655C47.9123 53.4655 47.919 53.4894 47.919 53.5205L47.9189 53.5839ZM47.7666 53.4526C47.7666 53.4526 47.7666 53.4526 47.7666 53.4526C47.7552 53.4526 47.7458 53.4432 47.7458 53.4318C47.7458 53.4204 47.7552 53.411 47.7666 53.411C47.778 53.411 47.7874 53.4204 47.7874 53.4318C47.7874 53.4318 47.7874 53.4318 47.7874 53.4318C47.7874 53.4432 47.778 53.4526 47.7666 53.4526ZM47.7845 53.5839H47.7486V53.4684H47.7845V53.5839ZM47.9368 53.3777H47.7306C47.7209 53.3776 47.7129 53.3855 47.7128 53.3952V53.6022C47.7129 53.6119 47.7209 53.6198 47.7306 53.6197H47.9368C47.9465 53.6198 47.9546 53.6119 47.9547 53.6022V53.3951C47.9546 53.3854 47.9465 53.3776 47.9368 53.3777V53.3777ZM47.9823 53.5884C47.9733 53.5885 47.9659 53.5959 47.9659 53.6049C47.9659 53.6139 47.9734 53.6214 47.9824 53.6214C47.9915 53.6214 47.9989 53.6139 47.9989 53.6049C47.9989 53.5959 47.9916 53.5885 47.9826 53.5884H47.9823ZM47.9823 53.6195C47.9822 53.6195 47.9821 53.6195 47.982 53.6195C47.9741 53.6195 47.9676 53.613 47.9676 53.605C47.9676 53.5971 47.9741 53.5905 47.982 53.5905C47.9899 53.5905 47.9964 53.5969 47.9965 53.6048V53.605C47.9967 53.6128 47.9904 53.6193 47.9827 53.6195H47.9823" fill="#0A66C2"/>
<rect x="1" y="1" width="76" height="34" stroke="#55A2E7" stroke-opacity="0.6"/>
</svg>
