<svg width="98" height="98" viewBox="0 0 98 98" fill="none" xmlns="http://www.w3.org/2000/svg">
<path d="M72.5453 96.092V96.092C77.6135 96.092 80.1475 96.092 82.2384 95.5878C88.8401 93.9958 93.9946 88.8413 95.5866 82.2396C96.0908 80.1487 96.0908 77.6147 96.0908 72.5465V72.5465M25.4544 96.092V96.092C20.3862 96.092 17.8522 96.092 15.7613 95.5878C9.15958 93.9958 4.0051 88.8413 2.41314 82.2396C1.90894 80.1487 1.90894 77.6147 1.90894 72.5465V72.5465M1.90894 25.4556V25.4556C1.90894 20.3875 1.90894 17.8534 2.41314 15.7625C4.0051 9.1608 9.15958 4.00632 15.7613 2.41436C17.8522 1.91016 20.3862 1.91016 25.4544 1.91016V1.91016M72.5453 1.91016V1.91016C77.6134 1.91016 80.1475 1.91016 82.2384 2.41436C88.8401 4.00632 93.9946 9.1608 95.5866 15.7625C96.0908 17.8534 96.0908 20.3875 96.0908 25.4556V25.4556" stroke="white" stroke-width="3" stroke-linecap="round" stroke-linejoin="round"/>
<path d="M65.8163 61H52.2163" stroke="#88C4FF" stroke-width="3" stroke-linecap="round"/>
<path d="M66 49H32" stroke="#88C4FF" stroke-width="3" stroke-linecap="round"/>
<path d="M66 37H32" stroke="#88C4FF" stroke-width="3" stroke-linecap="round"/>
</svg>
