<svg width="46" height="51" viewBox="0 0 46 51" fill="none" xmlns="http://www.w3.org/2000/svg">
<path fill-rule="evenodd" clip-rule="evenodd" d="M15.5312 44.626C15.4618 44.1993 15.2874 43.7062 14.9195 43.3043C14.7677 43.1379 14.5586 43.0309 14.33 43.1248C14.076 43.229 14.0038 43.4688 14.033 43.7156C14.0964 44.2535 14.2958 44.7381 14.6983 45.1153C14.8594 45.2657 15.0458 45.405 15.2837 45.2947C15.5192 45.1854 15.5344 44.9592 15.5312 44.626ZM0.5 47.1459C0.726259 46.6454 0.772992 46.0761 1.08254 45.6083C1.15102 45.505 1.21441 45.3415 1.35877 45.384C1.55958 45.4424 1.46565 45.6247 1.44529 45.7593C1.41845 45.9406 1.37219 46.1187 1.33887 46.2995C1.10891 47.5562 1.63407 48.3175 2.89539 48.439C3.97208 48.5428 5.05202 48.5031 6.10188 48.182C6.3832 48.096 6.65712 47.9955 6.89263 47.8114C7.33404 47.4656 7.4289 47.0828 7.11611 46.6122C6.83387 46.1864 6.51137 45.7817 6.16573 45.4055C5.91541 45.1335 5.87146 44.9092 6.0533 44.5783C6.69645 43.4066 6.68719 43.4015 7.63665 44.3479C8.52318 45.2307 9.48513 44.9872 9.81503 43.7973C9.84927 43.674 9.87518 43.5445 9.93441 43.4328C10.0552 43.2043 10.1995 43.1959 10.3314 43.4286C10.367 43.4917 10.3855 43.5646 10.4096 43.6342C10.802 44.7699 11.0592 44.9279 12.2585 44.8166C12.6986 44.7755 12.929 44.5839 12.9072 44.1165C12.8966 43.8801 12.8906 43.6305 12.9521 43.4057C13.1062 42.8397 13.4467 42.4346 14.0422 42.2836C14.6784 42.1219 15.1721 42.4065 15.5502 42.851C16.1244 43.5253 16.4302 44.332 16.414 45.2316C16.4015 45.9233 16.1327 46.4949 15.4655 46.7753C14.7784 47.0636 14.2375 46.7229 13.8215 46.2261C13.5152 45.8602 13.3935 45.7878 13.0544 46.2247C12.3404 47.1454 10.9523 46.9407 10.1172 45.7822C9.6975 46.6645 8.95487 46.8267 8.10444 46.7211C7.87633 46.693 7.88789 46.8496 7.86846 46.9982C7.54735 49.4579 5.95844 50.7047 3.47838 50.4327C3.11656 50.393 2.75611 50.3182 2.40261 50.229C1.4092 49.979 0.799365 49.3247 0.5 48.3582V47.1459Z" fill="#6899D3"/>
<path fill-rule="evenodd" clip-rule="evenodd" d="M40.8979 44.2163C41.0587 44.1635 41.393 44.3068 41.4723 44.025C41.5524 43.7404 41.2285 43.6115 41.0489 43.4392C41.0362 43.4268 41.0194 43.4173 41.0029 43.4092C40.7123 43.2636 40.4183 43.1736 40.121 43.3849C39.9504 43.5068 39.8936 43.6895 39.9766 43.8751C40.122 44.203 40.4384 44.1916 40.7301 44.2159C40.7662 44.2187 40.8032 44.2163 40.8979 44.2163ZM39.8758 49.8882C39.3254 49.8249 38.7736 49.7692 38.2246 49.6921C38.0689 49.6702 37.8453 49.6578 37.8195 49.4608C37.7913 49.2533 38.0112 49.2181 38.1575 49.15C38.9489 48.7841 39.7507 48.4362 40.4267 47.8651C40.6536 47.6743 40.882 47.4811 41.0831 47.2636C41.3452 46.9794 41.7601 46.6397 41.6378 46.2956C41.5229 45.972 41.0067 46.1795 40.6719 46.1604C39.3976 46.0895 38.8763 45.4437 39.1266 44.1711C39.264 43.4716 39.5129 42.8048 39.8599 42.1847C40.3072 41.3866 41.1267 41.31 41.7442 41.9882C42.1586 42.4446 42.3635 43.0052 42.4822 43.5958C42.5637 44.0012 42.7757 44.1669 43.1775 44.1359C43.5633 44.1069 43.9585 44.1816 44.3303 44.025C44.735 43.8542 44.7842 43.6286 44.4968 43.2993C44.4602 43.2574 44.418 43.2203 44.3768 43.1827C43.5849 42.455 43.5689 42.2837 44.1817 41.3961C44.3857 41.0996 44.5737 41.034 44.8339 41.3433C45.6234 42.2856 45.7359 44.1821 45.0374 45.201C44.6262 45.8002 44.0434 46.1028 43.3242 46.041C42.7789 45.9943 42.5604 46.2161 42.4995 46.7448C42.4085 47.5353 42.1075 48.2525 41.6659 48.9188C41.2331 49.5717 40.738 50.0533 39.8758 49.8882Z" fill="#6899D3"/>
<path fill-rule="evenodd" clip-rule="evenodd" d="M34.8654 44.3509C35.1038 44.2936 35.4604 44.4524 35.556 44.1395C35.6312 43.8905 35.3374 43.7351 35.1463 43.6035C34.8591 43.4058 34.5363 43.3052 34.1951 43.5011C34.0103 43.6077 33.9311 43.7811 34.0021 43.9699C34.1517 44.3664 34.5329 44.3086 34.8654 44.3509ZM36.7161 45.3943C36.7561 46.8087 36.456 48.2025 35.4271 49.3896C35.1226 49.7405 34.779 49.9219 34.2969 49.9209C33.6286 49.9195 32.965 49.873 32.3068 49.7687C32.1089 49.7372 31.8179 49.7382 31.7837 49.5117C31.7465 49.2614 32.0481 49.236 32.2291 49.1627C33.4717 48.6582 34.6367 48.0503 35.4609 46.9699C35.5178 46.8956 35.5753 46.8223 35.6284 46.7458C35.8421 46.4367 35.8513 46.2455 35.3716 46.2577C34.9552 46.268 34.5339 46.2901 34.1227 46.1713C33.3405 45.9453 32.9718 45.4661 33.0615 44.6938C33.1605 43.8412 33.4587 43.0351 33.9118 42.3056C34.4489 41.4412 35.4329 41.5004 36.0265 42.3925C36.5375 43.1596 36.7195 43.9277 36.7161 45.3943Z" fill="#6899D3"/>
<path fill-rule="evenodd" clip-rule="evenodd" d="M26.8327 45.1652C26.8296 47.4721 25.7561 48.5978 23.4342 48.7879C22.9078 48.831 22.3746 48.8516 21.8499 48.7476C20.3576 48.4516 19.6639 47.5869 19.7095 46.0765C19.7292 45.4132 19.9312 44.7961 20.2177 44.2046C20.2767 44.0835 20.3446 43.901 20.5073 43.9485C20.7062 44.0068 20.5976 44.1885 20.5587 44.3082C20.4411 44.6688 20.4443 45.0383 20.4568 45.4074C20.4805 46.1016 20.8219 46.6021 21.4865 46.7837C22.9002 47.1708 24.2892 47.0295 25.618 46.4326C26.2334 46.1559 26.3214 45.7783 26.0122 45.1841C25.7646 44.7082 25.3851 44.3338 25.0401 43.9355C24.8452 43.7099 24.8206 43.514 24.9739 43.2727C25.087 43.0942 25.1934 42.9112 25.2962 42.7265C25.6555 42.0798 25.8021 42.069 26.1838 42.7296C26.632 43.5054 26.8939 44.34 26.8327 45.1652Z" fill="#6899D3"/>
<path fill-rule="evenodd" clip-rule="evenodd" d="M32.3237 45.9773C32.3387 47.2097 32.0258 48.2574 31.3495 49.1886C30.9901 49.6827 30.564 49.9807 29.9343 49.9107C29.366 49.8471 28.7925 49.8292 28.2382 49.6661C28.1145 49.6298 27.931 49.6141 27.9394 49.4253C27.9451 49.2807 28.103 49.2558 28.2132 49.2098C29.0018 48.8773 29.7908 48.5466 30.489 48.0262C30.6022 47.9424 30.7202 47.865 30.8295 47.7761C31.8695 46.9269 31.8783 46.2619 30.8642 45.3768C30.1111 44.7201 30.1111 44.7201 30.6562 43.8649C31.1029 43.164 31.2525 43.1594 31.7072 43.8488C32.1429 44.5101 32.3685 45.2387 32.3237 45.9773Z" fill="#6899D3"/>
<path fill-rule="evenodd" clip-rule="evenodd" d="M29.0171 40.5622C28.8776 42.1641 28.7051 44.1572 28.5292 46.1499C28.5125 46.3379 28.5361 46.6095 28.3084 46.6271C28.052 46.647 28.085 46.3492 28.0627 46.1807C27.835 44.4785 27.6245 42.7736 27.4066 41.0701C27.3317 40.4868 27.5072 40.0598 28.0666 39.8573C28.162 39.823 28.2489 39.7643 28.3396 39.7168C29.0689 39.3373 29.0689 39.3373 29.0171 40.5622Z" fill="#6899D3"/>
<path fill-rule="evenodd" clip-rule="evenodd" d="M38.9024 39.9023C38.7425 41.9853 38.5843 44.0686 38.4216 46.1511C38.4061 46.3416 38.4002 46.6153 38.1918 46.6274C37.9178 46.6433 37.9575 46.3403 37.9328 46.1439C37.7136 44.4231 37.5085 42.7005 37.2817 40.9811C37.2164 40.4857 37.388 40.1534 37.7813 39.9344C38.0157 39.8039 38.2663 39.7073 38.5015 39.5777C38.8551 39.3835 38.9522 39.5411 38.9024 39.9023Z" fill="#6899D3"/>
<path fill-rule="evenodd" clip-rule="evenodd" d="M16.4299 41.0495C16.3645 40.2988 16.4893 40.0885 17.2076 39.7579C18.128 39.335 18.1114 39.3332 18.0199 40.4044C17.8618 42.2678 17.7276 44.134 17.5798 45.9988C17.561 46.2392 17.608 46.6125 17.3392 46.6275C17.0418 46.6439 17.0991 46.2619 17.0692 46.032C16.8508 44.3721 16.6418 42.7104 16.4299 41.0495Z" fill="#6899D3"/>
<path fill-rule="evenodd" clip-rule="evenodd" d="M37.9463 38.3059C37.673 38.267 37.3782 38.2343 37.0857 38.1819C36.6998 38.1134 36.3322 38.0418 35.9641 38.3168C35.7214 38.4979 35.5843 38.3562 35.6312 38.0293C35.75 37.2084 36.3444 36.7134 37.0735 36.9111C38.0937 37.1887 39.0923 37.1202 40.0975 36.8452C40.2416 36.8057 40.4492 36.6418 40.5431 36.8644C40.6248 37.0574 40.4088 37.1736 40.297 37.2961C39.6534 37.9971 38.8383 38.2255 37.9463 38.3059Z" fill="#6899D3"/>
<path fill-rule="evenodd" clip-rule="evenodd" d="M11.4755 48.5504C11.2665 48.888 11.025 49.1537 10.7185 49.33C10.4783 49.4682 10.3212 49.2312 10.1903 49.0802C9.91627 48.763 9.69732 48.777 9.40659 49.0793C8.99714 49.5054 8.95876 49.4587 8.39085 48.9257C8.02157 48.5785 8.20711 48.384 8.46082 48.1048C8.7836 47.7495 9.05447 47.6289 9.39531 48.0686C9.70499 48.4679 9.96457 48.249 10.221 47.9793C10.3627 47.8297 10.5217 47.6167 10.76 47.7903C11.0431 47.9965 11.3008 48.2385 11.4755 48.5504Z" fill="#6899D3"/>
<path fill-rule="evenodd" clip-rule="evenodd" d="M3.54087 44.433C3.35083 44.4305 2.67878 43.7472 2.6955 43.5733C2.70977 43.4213 3.3594 42.7874 3.5009 42.7866C3.68278 42.7858 4.3532 43.4761 4.34138 43.6512C4.32874 43.8349 3.71418 44.4354 3.54087 44.433Z" fill="#6899D3"/>
<path fill-rule="evenodd" clip-rule="evenodd" d="M44.1028 38.9452C44.2629 38.9364 44.9458 39.5904 44.9511 39.7587C44.9573 39.9257 44.2958 40.5935 44.1262 40.5914C43.9882 40.5897 43.325 39.9524 43.3053 39.8024C43.284 39.6421 43.9233 38.9552 44.1028 38.9452Z" fill="#6899D3"/>
<path fill-rule="evenodd" clip-rule="evenodd" d="M23.5487 42.5092C23.5377 42.6649 22.8468 43.3447 22.709 43.3355C22.5574 43.3253 21.8948 42.6168 21.9025 42.4734C21.9114 42.3068 22.5578 41.68 22.711 41.6893C22.9055 41.7007 23.5604 42.3418 23.5487 42.5092Z" fill="#6899D3"/>
<path fill-rule="evenodd" clip-rule="evenodd" d="M14.0455 8.11927C14.0873 8.95701 13.6948 9.37073 13.2866 9.78548C11.6853 11.4167 10.1237 13.0881 8.47746 14.675C7.78224 15.345 7.79268 15.7557 8.48581 16.4277C12.7657 20.5835 17.0112 24.7742 21.2441 28.9763C21.5886 29.319 22.4665 29.6699 21.8725 30.2895C21.361 30.8226 20.6177 30.5303 20.1083 30.0312C16.2596 26.2531 12.3638 22.5203 8.6069 18.6558C6.74776 16.7426 6.84901 14.0781 8.60482 12.0311C9.96081 10.4503 11.5642 9.10418 13.1018 7.69731C13.2803 7.53368 13.4578 7.31035 13.7334 7.46266C14.0747 7.64997 14.033 8.00812 14.0455 8.11927Z" fill="#6899D3"/>
<path fill-rule="evenodd" clip-rule="evenodd" d="M38.75 15.6611C38.6851 16.7222 38.1769 17.7607 37.2999 18.6232C35.899 20.0013 34.4866 21.3671 33.07 22.7308C32.852 22.9418 32.6603 23.3319 32.2632 23.0797C31.953 22.8831 31.9813 22.5188 31.9813 22.1935C31.9813 21.5668 32.3889 21.1623 32.7944 20.7485C34.3441 19.1748 35.8519 17.56 37.4455 16.0295C38.1979 15.307 38.1015 14.8429 37.3984 14.1522C33.1611 9.99831 28.9574 5.81042 24.7662 1.6112C24.4194 1.26229 23.5413 0.917502 24.1176 0.295852C24.6268 -0.253751 25.376 0.041635 25.8852 0.537719C29.7233 4.28408 33.5729 8.01912 37.3586 11.8139C38.3351 12.7937 38.7228 14.109 38.75 15.6611Z" fill="#6899D3"/>
<path fill-rule="evenodd" clip-rule="evenodd" d="M24.8644 6.37541C24.852 5.45194 24.0543 4.65484 23.1271 4.6422C22.1853 4.62851 21.3856 5.41193 21.3866 6.34697C21.3876 7.33467 22.2164 8.09282 23.2514 8.05175C24.1734 8.01384 24.8769 7.28307 24.8644 6.37541ZM23.7103 9.30585C20.8344 10.3409 19.2566 12.5659 19.2504 15.5595C19.2493 16.5167 19.3591 17.4538 19.5456 18.392C19.9507 20.4253 19.3053 21.5025 17.3773 22.1701C16.7961 22.3712 16.5899 22.0859 16.5889 21.5973C16.5837 19.4892 16.3672 17.3738 16.6987 15.2773C17.1317 12.5459 18.7717 10.7368 21.1763 9.60489C22.0237 9.20792 22.1128 8.98258 21.3773 8.31289C20.1724 7.21358 20.1817 5.50038 21.2643 4.46635C22.3874 3.39442 24.1051 3.46392 25.0975 4.62219C26.1574 5.85945 25.9647 7.48419 24.6376 8.53086C24.3185 8.78462 24.0108 9.05419 23.6969 9.31638L23.7103 9.30585Z" fill="#FEB82D"/>
<path fill-rule="evenodd" clip-rule="evenodd" d="M30.2136 26.867C29.3264 26.6766 28.5951 26.1769 28.5597 25.0706C28.5254 24.0513 29.5721 23.0508 30.5539 23.1719C31.6384 23.3071 32.1984 24.0289 32.2622 25.0565C32.3213 26.01 31.3206 26.8964 30.2136 26.867Z" fill="#95989A"/>
<path fill-rule="evenodd" clip-rule="evenodd" d="M27.1327 26.8677C27.9884 26.9605 28.522 27.4107 28.557 28.2184C28.5921 29.025 28.1188 29.6081 27.2609 29.645C26.3559 29.684 25.7905 29.1789 25.7795 28.2764C25.7697 27.4307 26.3252 27.0258 27.1327 26.8677Z" fill="#A9ACAE"/>
<mask id="mask0_4471_5762" style="mask-type:alpha" maskUnits="userSpaceOnUse" x="23" y="29" width="3" height="3">
<path d="M23.9265 29.647H25.7795V31.4999H23.9265V29.647Z" fill="white"/>
</mask>
<g mask="url(#mask0_4471_5762)">
<path fill-rule="evenodd" clip-rule="evenodd" d="M24.8289 29.647C25.3985 29.7085 25.7538 30.0087 25.7782 30.5476C25.8017 31.0856 25.4859 31.4744 24.9145 31.4988C24.311 31.5241 23.9341 31.1878 23.9266 30.5865C23.9191 30.0222 24.2904 29.7528 24.8289 29.647Z" fill="#BFC1C3"/>
</g>
<path fill-rule="evenodd" clip-rule="evenodd" d="M23.2672 9.27511C24.1977 9.64695 24.8031 10.3906 25.4964 11.0311C26.061 11.5521 26.0159 12.1865 25.7744 12.8219C25.432 13.726 25.0317 14.6127 24.7086 15.5239C23.8403 17.9664 24.4199 20.1024 26.3229 21.9208C26.7576 22.3376 27.2491 22.7002 27.6323 23.162C25.2732 22.7922 22.7015 20.034 22.2153 17.6793C21.8171 15.7588 22.3473 13.9405 22.7015 12.0966C22.8829 11.1507 23.0869 10.2088 23.2811 9.26489L23.2672 9.27511Z" fill="#FEB82D"/>
</svg>
