<svg width="50" height="53" viewBox="0 0 50 53" fill="none" xmlns="http://www.w3.org/2000/svg">
<path fill-rule="evenodd" clip-rule="evenodd" d="M17.1036 20.7085C17.1036 23.8525 17.1051 26.9958 17.0998 30.1391C17.0998 30.3518 17.1463 30.5135 17.3133 30.6598C17.818 31.0982 18.3044 31.5564 18.8045 31.9986C18.9082 32.0908 18.9509 32.1869 18.9509 32.3218C18.9486 33.8496 18.9478 35.3774 18.9516 36.9053C18.9516 37.0669 18.896 37.1812 18.7755 37.2864C18.3837 37.6288 17.9842 37.9657 17.6274 38.3469C17.5008 38.4819 17.3987 38.462 17.2736 38.3469C16.8734 37.9795 16.4693 37.6158 16.0645 37.2544C15.9738 37.1744 15.9417 37.0829 15.9417 36.964C15.944 35.3843 15.9433 33.8054 15.944 32.2265C15.944 32.164 15.9196 32.0832 15.9913 32.0466C16.066 32.0077 16.1133 32.0786 16.1605 32.119C16.4419 32.366 16.7186 32.6184 17.0022 32.8624C17.112 32.9576 17.1151 33.0758 17.1143 33.2031C17.1135 34.2827 17.1135 35.3622 17.1135 36.4417C17.1135 36.5599 17.0968 36.6865 17.2119 36.7627C17.3011 36.8229 17.3453 37.0021 17.4848 36.9266C17.6274 36.8496 17.7585 36.7459 17.757 36.5363C17.7501 35.5375 17.7547 34.5388 17.7547 33.5401C17.7547 33.3343 17.7364 33.1269 17.7577 32.9233C17.7867 32.6535 17.6823 32.472 17.4818 32.2997C16.4022 31.3696 15.3379 30.4243 14.2554 29.498C14.0167 29.2936 13.9176 29.0809 13.9214 28.763C13.939 27.3755 13.9298 25.9864 13.9291 24.5989C13.9291 24.3679 13.7552 24.0759 13.6195 24.0759C13.4815 24.0759 13.3085 24.3656 13.3085 24.5989C13.3085 28.7341 13.3047 32.8692 13.3146 37.0044C13.3153 37.3269 13.2406 37.5624 12.9814 37.7607C12.7489 37.9383 12.5461 38.154 12.3288 38.3523C12.2877 38.3904 12.2465 38.4483 12.1794 38.4178C12.1169 38.3896 12.1176 38.3233 12.1154 38.2646C12.1131 38.2127 12.1138 38.1617 12.1138 38.1098C12.1138 33.4829 12.1154 28.856 12.1093 24.2284C12.1093 24.0035 12.1672 23.8419 12.341 23.6947C12.7092 23.3798 13.0599 23.0452 13.4205 22.7212C13.6256 22.5374 13.6485 22.5458 13.8521 22.7379C14.1997 23.0642 14.5481 23.3913 14.908 23.7046C15.0658 23.8419 15.129 23.989 15.1283 24.1994C15.1199 25.6319 15.1275 27.0637 15.1199 28.4962C15.1184 28.699 15.1771 28.8454 15.3364 28.9681C15.4813 29.0802 15.6093 29.2136 15.7481 29.334C15.7847 29.3653 15.8205 29.4217 15.8792 29.3897C15.9212 29.3653 15.9074 29.3112 15.9082 29.2685C15.9105 29.1945 15.9097 29.1213 15.9097 29.0482V11.3983C15.9097 11.3098 15.9135 11.2214 15.909 11.1337C15.8975 10.9591 15.9616 10.8768 16.1491 10.8859C16.3908 10.8966 16.634 10.8959 16.8757 10.8859C17.0541 10.8791 17.1128 10.9591 17.1051 11.123C17.099 11.2557 17.1036 11.3876 17.1036 11.5202V20.7085Z" fill="#058105"/>
<path fill-rule="evenodd" clip-rule="evenodd" d="M21.5081 34.5876C21.5089 33.8168 21.5074 33.0453 21.5097 32.2745C21.5104 32.1906 21.4799 32.0778 21.5806 32.0404C21.6659 32.0077 21.7193 32.1045 21.778 32.1556C22.0319 32.3782 22.2781 32.6099 22.5381 32.8249C22.6647 32.9301 22.7066 33.0468 22.7051 33.2061C22.7005 34.2712 22.7028 35.3362 22.7028 36.4005C22.7028 36.6544 22.8797 36.9387 23.0299 36.9303C23.1762 36.922 23.3455 36.6445 23.3455 36.4112C23.3455 35.199 23.3424 33.9876 23.3478 32.7754C23.3485 32.6145 23.3028 32.4986 23.1808 32.3927C22.6891 31.9627 22.2072 31.522 21.7132 31.0936C21.5623 30.9632 21.4937 30.8252 21.4937 30.6209C21.4998 28.0288 21.4883 25.4359 21.5028 22.8438C21.5089 21.8817 21.5691 20.9234 22.0083 20.0299C22.2873 19.4627 22.7272 19.0357 23.1511 18.589C23.8349 17.8716 24.7155 17.4561 25.5617 16.9864C26.8524 16.2706 28.1454 15.56 29.4339 14.8396C29.5802 14.7572 29.6938 14.7481 29.8356 14.8419C29.9812 14.9387 30.1436 15.0111 30.2984 15.0957C30.3495 15.1232 30.4242 15.1422 30.428 15.2032C30.4341 15.2825 30.3472 15.2985 30.2923 15.329C29.353 15.8452 28.4115 16.3575 27.473 16.8759C26.4842 17.4218 25.4862 17.9478 24.5821 18.6408C23.5079 19.4627 22.9307 20.5391 22.7569 21.8588C22.7028 22.2667 22.6685 22.6753 22.6685 23.087C22.67 25.4519 22.6708 27.8161 22.667 30.181C22.6662 30.3624 22.7097 30.4928 22.8553 30.6178C23.3722 31.0631 23.873 31.5281 24.3854 31.9794C24.4845 32.0664 24.5188 32.1578 24.5188 32.2844C24.5157 33.8267 24.5157 35.369 24.5188 36.9113C24.5188 37.0455 24.4837 37.1492 24.3823 37.2414C23.9729 37.6096 23.5498 37.9626 23.1694 38.3621C23.0764 38.4605 22.9894 38.4444 22.9018 38.3659C22.4649 37.9733 22.0304 37.5791 21.5935 37.1857C21.499 37.1011 21.5089 36.9891 21.5089 36.8793C21.5081 36.1154 21.5081 35.3515 21.5081 34.5876Z" fill="#058105"/>
<path fill-rule="evenodd" clip-rule="evenodd" d="M19.6104 30.3825C19.6104 27.8933 19.6043 25.4034 19.6142 22.9142C19.6165 22.3439 19.6249 21.7691 19.7293 21.2034C19.9397 20.0728 20.3804 19.0672 21.2434 18.2637C22.0668 17.4975 22.9839 16.8738 23.9735 16.347C25.3275 15.6258 26.683 14.9084 28.0332 14.1788C28.239 14.0675 28.4044 14.0561 28.6004 14.1887C28.7643 14.2993 28.9503 14.3747 29.1249 14.4685C29.1813 14.499 29.2675 14.5143 29.272 14.5875C29.2774 14.6683 29.1859 14.6759 29.1302 14.7056C28.2169 15.1913 27.302 15.6754 26.3872 16.1595C25.5821 16.5841 24.7534 16.9714 23.9781 17.4433C23.1112 17.9694 22.2711 18.5549 21.7572 19.472C21.2777 20.3297 21.036 21.2659 20.9506 22.2402C20.8813 23.0308 20.9072 23.8245 20.9072 24.6173C20.9064 28.7296 20.9049 32.8419 20.911 36.9534C20.911 37.1639 20.8538 37.3102 20.6922 37.4467C20.3842 37.7059 20.093 37.988 19.7941 38.2594C19.7568 38.2929 19.7217 38.3494 19.6668 38.3326C19.5959 38.3105 19.615 38.2365 19.6111 38.1809C19.6073 38.1298 19.6104 38.078 19.6104 38.0269V30.3825Z" fill="#058105"/>
<path fill-rule="evenodd" clip-rule="evenodd" d="M35.648 26.351C35.648 27.6722 35.6495 28.9942 35.6449 30.3162C35.6442 30.426 35.6853 30.4938 35.7601 30.5609C36.2815 31.0244 36.7977 31.4941 37.3222 31.9538C37.432 32.0498 37.4785 32.1482 37.4777 32.293C37.4747 33.8353 37.4747 35.3776 37.4769 36.9199C37.4777 37.0549 37.4388 37.1532 37.3382 37.2478C36.941 37.6183 36.5095 37.9507 36.1413 38.3525C36.0452 38.4577 35.9545 38.45 35.8569 38.3616C35.4216 37.9682 34.9862 37.5741 34.5502 37.1807C34.4762 37.1143 34.4693 37.0282 34.4693 36.939C34.4693 35.3746 34.4694 33.8102 34.4701 32.2458C34.4701 32.1741 34.4564 32.0849 34.5273 32.0445C34.6104 31.9988 34.6599 32.0842 34.711 32.1291C34.9878 32.3708 35.2569 32.6201 35.5359 32.8595C35.6503 32.9586 35.6648 33.0783 35.6648 33.2155C35.664 34.2874 35.664 35.3593 35.6648 36.432C35.6648 36.5258 35.6396 36.6318 35.712 36.7065C35.7997 36.7972 35.8767 36.9687 36.0162 36.9131C36.1634 36.8536 36.3059 36.7393 36.3059 36.5349C36.3036 35.2572 36.3029 33.9794 36.3067 32.7017C36.3075 32.5675 36.2411 32.4836 36.1512 32.4028C35.6533 31.9576 35.1601 31.5063 34.6554 31.0687C34.5143 30.9467 34.4549 30.8209 34.4549 30.6349C34.4587 27.9841 34.4655 25.3325 34.4541 22.6817C34.4488 21.3414 33.9258 20.1963 33.0193 19.2289C32.5825 18.7638 32.1083 18.3331 31.644 17.8955C31.49 17.7499 31.5136 17.6759 31.6905 17.5768C32.1144 17.3382 32.1174 17.3237 32.4818 17.6424C33.3288 18.3834 34.1293 19.1709 34.7324 20.1323C35.1319 20.7704 35.4414 21.4527 35.6 22.1907C35.6571 22.4606 35.6541 22.7457 35.6549 23.024C35.661 24.1333 35.6579 25.2418 35.6579 26.351H35.648Z" fill="#058105"/>
<path fill-rule="evenodd" clip-rule="evenodd" d="M30.1065 27.6064C30.1065 28.4801 30.1088 29.3538 30.1035 30.2275C30.1027 30.3868 30.1485 30.505 30.2705 30.6117C30.7622 31.0417 31.244 31.4839 31.7388 31.9108C31.8905 32.0412 31.9561 32.1807 31.9553 32.3835C31.9485 33.8595 31.9485 35.3354 31.9553 36.8114C31.9561 37.0279 31.8859 37.1766 31.719 37.3207C31.3355 37.6508 30.9467 37.9771 30.6013 38.3491C30.5152 38.4414 30.4351 38.4635 30.3383 38.3758C29.8977 37.9779 29.4578 37.5776 29.0171 37.1781C28.9493 37.1179 28.9447 37.0394 28.9447 36.9563C28.9454 35.3774 28.9447 33.7992 28.9462 32.2204C28.9462 32.1578 28.921 32.0763 28.998 32.0435C29.0712 32.0122 29.12 32.077 29.1681 32.119C29.4433 32.3622 29.7132 32.6107 29.9922 32.8501C30.0997 32.9431 30.1165 33.0544 30.1165 33.1848C30.1142 34.2719 30.1149 35.3583 30.1157 36.4455C30.1157 36.5461 30.0921 36.6597 30.1851 36.7337C30.2758 36.8068 30.3383 36.9776 30.4801 36.909C30.6196 36.8411 30.7561 36.7352 30.7561 36.5423C30.7546 35.2569 30.7546 33.9723 30.7561 32.6869C30.7561 32.5657 30.7027 32.4826 30.6143 32.4041C30.0959 31.9482 29.5843 31.4854 29.0651 31.0326C28.9317 30.9159 28.9104 30.7779 28.9111 30.6186C28.9127 28.8849 28.9119 27.152 28.9119 25.4191C28.9119 25.2949 28.9287 25.1607 28.8074 25.0784C28.7274 25.0235 28.6611 24.8748 28.5612 24.9396C28.4346 25.0204 28.2745 25.1028 28.2791 25.3025C28.2822 25.4413 28.2692 25.5808 28.2684 25.7203C28.2677 26.9027 28.2684 28.0844 28.2684 29.2669C28.2684 29.3256 28.2692 29.3851 28.2669 29.4438C28.2623 29.5657 28.209 29.6176 28.1045 29.5276C27.7881 29.2539 27.4771 28.9749 27.1653 28.6951C27.0936 28.6303 27.0967 28.5373 27.0967 28.4481C27.0967 27.2733 27.0982 26.0984 27.0944 24.9236C27.0936 24.7932 27.1409 24.7033 27.2354 24.6194C27.6296 24.2672 28.0214 23.9119 28.4087 23.5536C28.5498 23.4225 28.6573 23.3981 28.8135 23.5528C29.1681 23.9035 29.5401 24.2375 29.9137 24.5676C30.0524 24.6895 30.1111 24.8214 30.1096 25.0067C30.102 25.8735 30.1058 26.7396 30.1065 27.6064Z" fill="#058105"/>
<path fill-rule="evenodd" clip-rule="evenodd" d="M25.0662 30.4256C25.0662 27.9799 25.0555 25.5341 25.0715 23.0892C25.0792 21.8816 25.4565 20.7845 26.18 19.8094C26.825 18.9403 27.6781 18.3342 28.6113 17.815C29.6123 17.2585 30.5996 16.6775 31.5952 16.1119C31.705 16.0493 31.814 15.9236 31.9535 15.9891C32.1914 16.1012 32.4521 16.1889 32.6275 16.3947C32.7167 16.4992 32.5795 16.5418 32.5131 16.5815C31.9322 16.9253 31.349 17.2669 30.7665 17.6077C30.1322 17.9774 29.4865 18.3296 28.8651 18.7207C28.0547 19.2315 27.3373 19.8529 26.9112 20.7334C26.5757 21.4241 26.3661 22.1606 26.3653 22.9382C26.3622 27.5865 26.3615 32.2355 26.3691 36.8845C26.3691 37.1338 26.3043 37.3084 26.1068 37.4685C25.8118 37.7094 25.545 37.9846 25.2637 38.243C25.2179 38.285 25.1745 38.3635 25.1005 38.3223C25.0448 38.2911 25.067 38.2156 25.067 38.1592C25.0662 37.1231 25.0662 36.0878 25.0662 35.0525V30.4256Z" fill="#058105"/>
<path fill-rule="evenodd" clip-rule="evenodd" d="M32.521 30.1631C32.521 27.6 32.5271 25.0361 32.5187 22.473C32.5149 21.4247 32.094 20.5213 31.4788 19.6964C31.1731 19.2885 30.782 18.963 30.4122 18.6169C30.2887 18.501 30.2666 18.4423 30.4305 18.3508C31.154 17.9437 30.8986 17.9025 31.4841 18.4621C32.1009 19.0522 32.6849 19.6758 33.0966 20.4321C33.4122 21.013 33.689 21.6145 33.8025 22.2748C33.8155 22.3533 33.8163 22.4356 33.8163 22.5157C33.817 27.3195 33.8155 32.1232 33.8216 36.927C33.8216 37.1542 33.7553 37.3143 33.5853 37.4591C33.2895 37.7115 33.0089 37.9821 32.72 38.2429C32.6742 38.2833 32.6338 38.3633 32.5576 38.3237C32.4974 38.2924 32.5195 38.2177 32.5195 38.162C32.5179 37.7725 32.5187 37.3836 32.5187 36.9941V30.1631H32.521Z" fill="#058105"/>
<path fill-rule="evenodd" clip-rule="evenodd" d="M17.7543 25.6673C17.7543 24.3896 17.7383 23.1118 17.7581 21.8341C17.7817 20.2315 18.323 18.8234 19.4109 17.6326C20.1558 16.8176 21.0584 16.2252 22.0434 15.748C23.556 15.0153 25.0754 14.2934 26.5781 13.5416C26.8945 13.3838 27.1445 13.3594 27.4205 13.5805C27.5425 13.6789 27.7918 13.7139 27.7888 13.8481C27.7857 13.9876 27.544 14.0219 27.4045 14.0944C25.6739 14.997 23.9204 15.8608 22.2112 16.8024C21.0302 17.4527 20.1344 18.4087 19.5642 19.6598C19.0793 20.7225 18.9383 21.831 18.9451 22.983C18.9588 25.5377 18.9497 28.0932 18.9466 30.6487C18.9466 30.7669 19.0038 30.9369 18.878 30.9895C18.7698 31.0353 18.6867 30.882 18.6005 30.8081C18.3779 30.6167 18.166 30.4124 17.9395 30.2264C17.8015 30.1135 17.7497 29.9862 17.7505 29.8086C17.7566 28.4279 17.7543 27.048 17.7543 25.6673Z" fill="#058105"/>
<path fill-rule="evenodd" clip-rule="evenodd" d="M36.3559 13.6575C35.4022 14.0395 34.4492 14.4237 33.494 14.8034C33.1875 14.9261 33.1151 14.8819 33.035 14.5869C32.9946 14.4382 33.0777 14.3681 33.1707 14.2934C33.8294 13.765 34.4889 13.2375 35.1468 12.7091C35.7994 12.1861 36.4505 11.6631 37.1023 11.1394C37.068 11.0929 37.0406 11.1234 37.0215 11.1356C35.6553 11.9696 34.2906 12.8052 32.9237 13.6377C32.7918 13.7178 32.6553 13.8962 32.5044 13.653C32.3595 13.4174 32.374 13.3396 32.6317 13.1765C33.792 12.4423 34.9532 11.7104 36.1143 10.977C37.2312 10.271 38.3488 9.56583 39.4657 8.85834C39.7775 8.66012 39.7806 8.65783 39.962 8.96888C39.9734 8.98794 39.9856 9.00624 39.9963 9.0253C40.1724 9.31119 40.1678 9.30586 39.9193 9.52085C38.6065 10.6522 37.2967 11.7859 35.9869 12.9195C35.9702 12.9333 35.9587 12.9531 35.9008 13.0248C36.0373 12.9699 36.1181 12.9371 36.1981 12.9058C37.7267 12.299 39.2553 11.6921 40.7839 11.0868C41.0408 10.9846 41.0888 11.0136 41.1803 11.2499C41.2344 11.3894 41.1666 11.4512 41.0667 11.5168C40.0802 12.1678 39.0937 12.8189 38.1071 13.4715C37.607 13.8031 37.1069 14.1363 36.6205 14.5053C36.9491 14.4214 37.2777 14.3391 37.607 14.2552C38.9503 13.9122 40.2952 13.5683 41.64 13.2268C41.7269 13.2047 41.8428 13.1368 41.8985 13.2497C41.9694 13.3976 42.0578 13.5584 42.0143 13.7284C41.9892 13.8275 41.8596 13.8275 41.7704 13.8519C40.7213 14.1363 39.6723 14.4169 38.624 14.702C37.0085 15.1419 35.3953 15.5864 33.7806 16.0262C33.5283 16.0956 33.4375 16.0346 33.4124 15.8105C33.3971 15.6824 33.4772 15.626 33.5641 15.5673C34.4546 14.9711 35.3458 14.3742 36.2362 13.778C36.2835 13.746 36.3315 13.7124 36.378 13.6789C36.3712 13.672 36.3636 13.6644 36.3559 13.6575Z" fill="#058105"/>
<path fill-rule="evenodd" clip-rule="evenodd" d="M27.955 6.46776C27.7179 7.39939 27.4838 8.33102 27.2437 9.26265C27.2109 9.38997 27.2086 9.55617 26.9997 9.53558C26.7024 9.50661 26.6285 9.44562 26.617 9.1887C26.569 8.09621 26.524 7.00448 26.476 5.91198C26.4478 5.3036 26.415 4.69599 26.3708 4.0876C26.2793 5.22508 26.1886 6.36179 26.0955 7.49926C26.0544 8.00396 26.0102 8.50789 25.9667 9.01183C25.9545 9.13991 25.9408 9.2657 25.7563 9.25503C25.4994 9.23978 25.4117 9.18184 25.4224 8.98209C25.4498 8.45453 25.4849 7.92772 25.52 7.40015C25.5596 6.80016 25.6023 6.20016 25.6457 5.60017C25.7136 4.63423 25.7853 3.66906 25.8508 2.70312C25.8905 2.11685 25.9172 1.53058 25.9598 0.945068C25.9698 0.794116 25.9103 0.582937 26.1855 0.578362C26.6002 0.571501 26.7207 0.635541 26.7459 0.927533C26.8282 1.89271 26.9037 2.85865 26.9814 3.82382C27.0432 4.59154 27.1042 5.35926 27.1667 6.12698C27.169 6.16205 27.1819 6.19711 27.2292 6.24057C27.2574 6.14146 27.2872 6.04388 27.3131 5.944C27.7126 4.3796 28.1105 2.81443 28.5108 1.25002C28.5428 1.12804 28.5474 0.972514 28.7517 1.01216C28.9308 1.04646 29.0139 1.1349 29.004 1.32931C28.9331 2.78012 28.866 4.23169 28.8051 5.68327C28.7913 6.0271 28.8028 6.37246 28.8028 6.70105C28.9499 6.33282 29.1062 5.94095 29.2617 5.54833C29.7367 4.34681 30.2101 3.14454 30.6874 1.94379C30.7232 1.85306 30.7423 1.71507 30.8749 1.7349C31.0304 1.75777 31.2027 1.78369 31.3163 1.90796C31.3842 1.98191 31.3141 2.07644 31.2836 2.15573C30.8978 3.17961 30.509 4.20196 30.1232 5.22508C29.5735 6.68123 29.0269 8.13814 28.4788 9.59505C28.4582 9.64994 28.433 9.70331 28.4094 9.75667C28.3644 9.85883 28.3255 9.97243 28.1738 9.91982C28.032 9.87027 27.8749 9.85578 27.8833 9.63164C27.9237 8.63445 27.9519 7.63649 27.984 6.63853C27.9855 6.58059 27.984 6.52189 27.984 6.46395C27.9741 6.46547 27.9649 6.467 27.955 6.46776Z" fill="#058105"/>
<path fill-rule="evenodd" clip-rule="evenodd" d="M32.4913 8.68613C32.9853 8.08766 33.4809 7.48843 33.9757 6.88996C34.5841 6.15502 35.1932 5.41932 35.8023 4.68439C35.8885 4.5807 35.9571 4.4389 36.137 4.56622C36.3124 4.69049 36.2857 4.81704 36.198 4.98172C35.3663 6.55908 34.5383 8.1395 33.7073 9.72297C33.7554 9.75346 33.7737 9.70848 33.7927 9.69019C35.0087 8.55042 36.2239 7.4099 37.4377 6.26785C37.6763 6.04371 37.9515 6.10928 38.0651 6.42262C38.1047 6.53316 38.0178 6.585 37.9584 6.64295C37.3858 7.20177 36.811 7.75831 36.2354 8.31561C35.3236 9.19921 34.4118 10.0836 33.4969 10.9656C32.9953 11.4498 32.4913 11.9316 31.9859 12.4127C31.9104 12.4843 31.8326 12.6078 31.7129 12.4904C31.61 12.3905 31.5079 12.2853 31.6009 12.1077C31.9577 11.433 32.303 10.7514 32.6537 10.0737C32.8092 9.77405 32.9671 9.47596 33.1386 9.14966C33.0471 9.16643 33.0212 9.21903 32.9884 9.25944C32.4296 9.94025 31.8715 10.6218 31.3112 11.3026C31.2692 11.3537 31.2303 11.4086 31.1793 11.4498C31.0863 11.526 31.0291 11.6952 30.8575 11.5931C30.6517 11.4696 30.5976 11.3278 30.6852 11.1174C31.2974 9.64673 31.9112 8.17686 32.5241 6.70622C32.5607 6.61931 32.5958 6.53088 32.6034 6.42872C32.4235 6.73977 32.242 7.05006 32.0629 7.36187C31.4309 8.45589 30.8019 9.55067 30.1676 10.6432C30.1096 10.7438 30.0791 10.9245 29.8847 10.8177C29.6476 10.6874 29.5958 10.5631 29.7071 10.3641C30.452 9.0231 31.1998 7.6836 31.9462 6.34257C32.5035 5.34156 33.0578 4.33979 33.6174 3.34031C33.6784 3.23053 33.7119 3.04603 33.8667 3.06738C34.0595 3.09482 34.241 3.19698 34.382 3.34107C34.44 3.39977 34.3919 3.48059 34.3668 3.5492C33.9398 4.69125 33.5144 5.83253 33.0867 6.97382C32.8771 7.53646 32.6651 8.09833 32.4532 8.66097C32.4662 8.66936 32.4784 8.67774 32.4913 8.68613Z" fill="#058105"/>
<mask id="mask0_4471_5876" style="mask-type:alpha" maskUnits="userSpaceOnUse" x="7" y="17" width="9" height="6">
<path d="M7 17.3271H15.6236V22.7967H7V17.3271Z" fill="white"/>
</mask>
<g mask="url(#mask0_4471_5876)">
<path fill-rule="evenodd" clip-rule="evenodd" d="M10.8437 21.2913C11.4902 21.1297 12.1367 20.9688 12.7824 20.8049C13.6286 20.5907 14.4749 20.3719 15.3211 20.1584C15.421 20.1333 15.5422 20.0685 15.6002 20.2263C15.6634 20.3978 15.5925 20.6372 15.4561 20.6852C15.3044 20.7386 15.1473 20.7798 14.991 20.8217C12.6238 21.4583 10.2566 22.0956 7.88943 22.73C7.77355 22.7612 7.6226 22.855 7.53873 22.7437C7.41523 22.5813 7.36415 22.3716 7.36491 22.1643C7.36567 22.0636 7.4846 22.0469 7.56237 22.0125C8.77989 21.4796 9.99818 20.949 11.2149 20.4169C11.6381 20.2316 12.0597 20.0441 12.514 19.8428C12.3745 19.8016 12.2708 19.839 12.1672 19.8466C11.2088 19.9251 10.2521 20.0006 9.29374 20.0776C8.65029 20.1295 8.00607 20.1798 7.36339 20.237C7.20405 20.2514 7.07826 20.2598 7.03632 20.0517C6.99439 19.8451 7.08817 19.7864 7.26351 19.7353C8.91864 19.2482 10.5715 18.7541 12.2243 18.2609C12.2632 18.2494 12.3135 18.2578 12.3425 18.1999C12.0642 18.1808 11.7898 18.1572 11.5161 18.1458C10.3207 18.0954 9.12525 18.0497 7.9306 18.0001C7.68816 17.9902 7.44725 17.9696 7.20634 17.9605C7.02108 17.9544 6.98829 17.8408 7.00278 17.6921C7.0165 17.5404 6.96161 17.3361 7.21015 17.33C7.51129 17.3224 7.81243 17.3315 8.11357 17.3399C9.55218 17.3818 10.9893 17.4253 12.4279 17.4695C13.3809 17.4985 14.3346 17.5282 15.2883 17.5587C15.4263 17.5633 15.578 17.5473 15.5971 17.7524C15.6162 17.9445 15.5636 18.068 15.357 18.129C14.4139 18.4072 13.4731 18.697 12.5323 18.9828C12.4988 18.9928 12.4652 19.0042 12.3722 19.0339C12.7145 19.0804 12.992 19.0118 13.2696 18.995C13.8909 18.9569 14.5122 18.8929 15.1328 18.8388C15.1404 18.838 15.1481 18.8349 15.1549 18.8365C15.2967 18.8609 15.498 18.7236 15.5605 18.9661C15.6276 19.226 15.5369 19.3953 15.2967 19.4906C14.006 20.0014 12.7153 20.5099 11.4254 21.0199C11.2287 21.0977 11.032 21.1777 10.8353 21.257C10.8383 21.2685 10.8414 21.2799 10.8437 21.2913Z" fill="#058105"/>
</g>
<path fill-rule="evenodd" clip-rule="evenodd" d="M22.0532 6.27363C22.2072 6.96587 22.3628 7.65812 22.5168 8.35036C22.5778 8.62329 22.6372 8.89546 22.6982 9.16763C22.731 9.31477 22.6952 9.39482 22.5259 9.4276C22.1668 9.49851 22.1714 9.50765 21.9755 9.15925C21.2428 7.85405 20.5064 6.55038 19.7707 5.24594C19.7531 5.21468 19.731 5.18648 19.6754 5.17123C19.792 5.4617 19.9087 5.75064 20.0268 6.04034C20.4843 7.16943 20.9432 8.29852 21.4022 9.4276C21.4586 9.56712 21.5318 9.70206 21.3099 9.7783C21.056 9.86521 20.9897 9.85225 20.8944 9.62887C20.2266 8.05455 19.5595 6.48024 18.8916 4.90592C18.5333 4.0612 18.1689 3.21877 17.8129 2.37329C17.7671 2.26503 17.6513 2.13466 17.7641 2.02945C17.8998 1.90214 18.0568 1.77787 18.2604 1.77101C18.3748 1.76796 18.4182 1.86783 18.4678 1.94712C18.9847 2.78421 19.5008 3.62131 20.0162 4.45993C20.4233 5.12244 20.8304 5.78647 21.2375 6.44898C21.2512 6.47261 21.2718 6.4932 21.3259 6.50311C21.2405 6.11506 21.1559 5.72624 21.069 5.33743C20.79 4.08407 20.5079 2.83072 20.2327 1.5766C20.2075 1.45995 20.1198 1.32044 20.2754 1.21675C20.4805 1.07953 20.5902 1.11536 20.697 1.35017C21.4006 2.90086 22.1051 4.45154 22.8095 6.00146C22.8278 6.03958 22.8507 6.07541 22.8903 6.14555C22.9445 5.86118 22.8789 5.61798 22.8576 5.37631C22.7371 4.02384 22.606 2.6729 22.4787 1.3212C22.4695 1.22667 22.4726 1.13061 22.4596 1.03607C22.439 0.882069 22.4909 0.81193 22.6548 0.789821C23.0619 0.734167 23.0657 0.738741 23.1084 1.14662C23.2403 2.41598 23.3806 3.68458 23.517 4.95471C23.6474 6.16537 23.7755 7.37604 23.9051 8.58746C23.9196 8.73307 23.934 8.87869 23.9531 9.0243C23.9668 9.13028 23.9905 9.25683 23.8487 9.26903C23.6977 9.28199 23.5086 9.3933 23.4065 9.16382C23.2639 8.8421 23.1168 8.52189 22.9696 8.20169C22.6723 7.55672 22.3757 6.91098 22.0784 6.26601C22.07 6.26829 22.0616 6.27134 22.0532 6.27363Z" fill="#058105"/>
<path fill-rule="evenodd" clip-rule="evenodd" d="M13.265 13.2243C13.9656 13.4934 14.619 13.7541 15.2815 13.9927C15.5003 14.0713 15.5742 14.1879 15.5674 14.4136C15.5498 14.9541 15.5895 14.9053 15.0886 14.8718C13.7567 14.7826 12.4248 14.6781 11.0929 14.5798C11.0281 14.5752 10.9626 14.579 10.8375 14.579C11.7074 14.7544 12.5186 14.9183 13.3313 15.0814C14.0007 15.2164 14.67 15.3498 15.3386 15.487C15.5399 15.5282 15.5933 15.6433 15.5536 15.8918C15.5216 16.0939 15.389 16.0573 15.254 16.0329C13.1476 15.6387 11.0403 15.2446 8.93312 14.8512C8.50847 14.7719 8.08077 14.7002 7.65613 14.6179C7.39463 14.5668 7.37481 14.5295 7.43123 14.2779C7.525 13.8578 7.57455 13.8395 7.99539 13.8608C8.7875 13.9012 9.58038 13.9157 10.3725 13.9439C11.3247 13.9775 12.2769 14.0133 13.2383 14.0225C12.7915 13.8502 12.344 13.6763 11.8965 13.504C10.7179 13.0512 9.53845 12.5999 8.35981 12.1455C8.12499 12.0555 8.10212 11.9557 8.23935 11.746C8.3072 11.6431 8.3903 11.6568 8.48941 11.6728C9.38064 11.8177 10.2719 11.9595 11.1638 12.1013C12.0406 12.24 12.9166 12.378 13.8047 12.4924C13.2939 12.2164 12.7839 11.9404 12.2723 11.6659C11.2774 11.13 10.2818 10.594 9.28305 10.0627C9.12371 9.97803 9.09017 9.8896 9.19233 9.73255C9.40351 9.40777 9.39969 9.40244 9.73819 9.57855C11.6091 10.5483 13.4784 11.5203 15.3508 12.487C15.5079 12.5686 15.5857 12.6685 15.5704 12.8476C15.559 13.0016 15.5643 13.1564 15.5681 13.3104C15.5719 13.488 15.5109 13.5635 15.3158 13.5323C14.6502 13.4248 13.9816 13.331 13.265 13.2243Z" fill="#058105"/>
<path fill-rule="evenodd" clip-rule="evenodd" d="M23.353 25.9761C23.353 24.7212 23.3385 23.4648 23.3584 22.2099C23.3706 21.3575 23.674 20.5929 24.1627 19.8953C24.8473 18.9164 25.7629 18.2135 26.7936 17.6364C28.0684 16.9228 29.3354 16.1962 30.6017 15.4689C30.7474 15.385 30.8632 15.3706 31.0035 15.4666C31.1186 15.5451 31.2444 15.6084 31.371 15.6671C31.5341 15.7426 31.5585 15.799 31.3832 15.9027C30.8084 16.2427 30.2396 16.5934 29.6686 16.9403C28.7972 17.4694 27.9265 18.0023 27.0521 18.5268C25.9352 19.1954 25.1095 20.1011 24.7047 21.3598C24.5683 21.7845 24.5195 22.2206 24.5187 22.6612C24.5149 25.3196 24.5164 27.9773 24.5164 30.635C24.5164 30.6792 24.5202 30.7234 24.5164 30.7676C24.5111 30.837 24.5446 30.9277 24.4638 30.9666C24.3822 31.007 24.3312 30.9254 24.2793 30.8797C24.0094 30.6418 23.7464 30.3963 23.472 30.1638C23.3553 30.0639 23.3439 29.945 23.3439 29.8085C23.3462 28.5316 23.3454 27.2538 23.3454 25.9761H23.353Z" fill="#058105"/>
<path fill-rule="evenodd" clip-rule="evenodd" d="M37.4758 26.4387C37.4758 27.8705 37.4766 29.303 37.4743 30.7355C37.4743 30.8125 37.5116 30.9177 37.4316 30.9604C37.3347 31.0115 37.2768 30.9032 37.2151 30.8506C36.949 30.6204 36.6913 30.3795 36.4229 30.1508C36.3132 30.0562 36.3048 29.9419 36.3048 29.8138C36.3063 27.471 36.2872 25.1274 36.3116 22.7854C36.3292 21.0327 35.6438 19.6291 34.3401 18.4962C33.8362 18.0579 33.3368 17.6134 32.8298 17.1788C32.6873 17.0561 32.6995 16.9867 32.8565 16.8899C33.2987 16.6154 33.2934 16.6139 33.6959 16.9341C34.5307 17.5974 35.3457 18.2835 36.0356 19.1C36.6478 19.8243 37.0969 20.6454 37.3752 21.5572C37.4735 21.8789 37.4743 22.209 37.475 22.5384C37.4773 23.8382 37.4758 25.1381 37.4758 26.4387Z" fill="#058105"/>
<mask id="mask1_4471_5876" style="mask-type:alpha" maskUnits="userSpaceOnUse" x="35" y="16" width="8" height="5">
<path d="M35.0967 16.0886H42.6696V20.1239H35.0967V16.0886Z" fill="white"/>
</mask>
<g mask="url(#mask1_4471_5876)">
<path fill-rule="evenodd" clip-rule="evenodd" d="M39.8962 19.4873C40.6845 19.5605 41.4728 19.6329 42.2618 19.7099C42.3716 19.7206 42.5096 19.7046 42.5378 19.867C42.5676 20.0401 42.4845 20.1331 42.2817 20.1232C41.6809 20.095 41.0802 20.0599 40.4794 20.0256C39.5638 19.9714 38.6489 19.9127 37.7333 19.8639C37.5633 19.8548 37.4436 19.8136 37.3689 19.6451C37.2759 19.4385 37.2789 19.3989 37.5061 19.3448C38.0771 19.2106 38.6504 19.084 39.223 18.9537C39.2436 18.9491 39.2619 18.9415 39.2794 18.8851C38.6116 18.8851 37.9422 18.8652 37.2751 18.8927C36.9107 18.9079 36.7315 18.6746 36.5341 18.4566C36.4258 18.3377 36.5562 18.2767 36.6553 18.2439C37.0106 18.1265 37.3681 18.0144 37.7241 17.9001C38.5902 17.6233 39.4563 17.345 40.3178 17.0363C39.9816 17.0713 39.6461 17.1057 39.3099 17.1415C38.1435 17.2673 36.977 17.3938 35.8106 17.5181C35.5971 17.541 35.1786 17.2513 35.1084 17.0431C35.0642 16.912 35.1526 16.8884 35.2449 16.8777C35.4637 16.8503 35.6825 16.8297 35.9013 16.8053C37.1699 16.6635 38.4377 16.5209 39.7063 16.3783C40.5518 16.2838 41.3973 16.1885 42.2435 16.0978C42.5203 16.0688 42.5515 16.0963 42.5843 16.3623C42.6507 16.9097 42.7551 16.8037 42.1894 17.0287C41.2204 17.4137 40.2484 17.7887 39.2771 18.1676C39.2314 18.1859 39.1849 18.205 39.1429 18.2546C39.3732 18.2683 39.6034 18.2866 39.8344 18.2965C40.6547 18.3308 41.4758 18.3621 42.2969 18.3948C42.3335 18.3964 42.3701 18.4025 42.4067 18.407C42.5325 18.4246 42.656 18.4352 42.669 18.6106C42.6819 18.7882 42.5576 18.8134 42.4349 18.8431C41.7503 19.0063 41.0641 19.1679 40.3788 19.3303C40.2164 19.3692 40.054 19.4096 39.8916 19.45C39.8931 19.4622 39.8946 19.4751 39.8962 19.4873Z" fill="#058105"/>
</g>
<path fill-rule="evenodd" clip-rule="evenodd" d="M31.9515 26.7519V30.6065C31.9515 30.6728 31.9538 30.7384 31.9492 30.8047C31.9446 30.8688 31.9538 30.9473 31.8791 30.9755C31.8135 30.9999 31.7746 30.9366 31.7319 30.8993C31.4781 30.6766 31.2311 30.4464 30.9711 30.2306C30.8102 30.098 30.7515 29.9463 30.7523 29.7359C30.7591 27.5112 30.7469 25.2866 30.7599 23.062C30.7683 21.6074 30.2201 20.3944 29.2306 19.3606C29.0888 19.2127 29.0834 19.1441 29.2702 19.0442C29.8252 18.7461 29.6537 18.6684 30.1485 19.1891C30.8209 19.8973 31.305 20.7184 31.674 21.6157C31.8425 22.0267 31.95 22.4513 31.9507 22.8973C31.9523 24.1819 31.9515 25.4665 31.9515 26.7519Z" fill="#058105"/>
<path fill-rule="evenodd" clip-rule="evenodd" d="M32.2477 13.1432C32.0945 13.0898 32.0442 12.9434 31.9771 12.8191C31.9153 12.7071 32.0091 12.6468 32.0846 12.5874C32.8111 12.0156 33.5377 11.4438 34.265 10.872C35.6899 9.75284 37.1148 8.63214 38.5427 7.51602C38.6334 7.44512 38.7211 7.29035 38.856 7.37116C38.994 7.45274 39.0688 7.61208 39.1252 7.76227C39.161 7.85528 39.0649 7.90178 39.0032 7.94981C38.3079 8.48958 37.6118 9.02934 36.9158 9.56911C35.4421 10.7096 33.9684 11.8509 32.4947 12.9907C32.42 13.0486 32.3506 13.1165 32.2477 13.1432Z" fill="#058105"/>
<path fill-rule="evenodd" clip-rule="evenodd" d="M32.9126 2.5689C32.8943 2.61312 32.879 2.65429 32.8608 2.69394C31.9703 4.57016 31.0791 6.44714 30.1886 8.32336C29.8989 8.93403 29.6039 9.54165 29.3241 10.1554C29.228 10.3658 29.1098 10.3421 28.9375 10.2644C28.7561 10.182 28.7233 10.0867 28.8079 9.90454C29.9568 7.44357 31.0996 4.97956 32.247 2.51783C32.2928 2.41872 32.3073 2.25785 32.459 2.27158C32.6206 2.28606 32.7639 2.3745 32.8829 2.48885C32.9012 2.50639 32.9027 2.54146 32.9126 2.5689Z" fill="#058105"/>
<mask id="mask2_4471_5876" style="mask-type:alpha" maskUnits="userSpaceOnUse" x="24" y="0" width="2" height="10">
<path d="M24.1128 0.5H25.093V9.22958H24.1128V0.5Z" fill="white"/>
</mask>
<g mask="url(#mask2_4471_5876)">
<path fill-rule="evenodd" clip-rule="evenodd" d="M25.0892 8.64778C25.0892 8.7507 25.0824 8.85438 25.0908 8.95578C25.1037 9.12045 25.0648 9.23024 24.8712 9.22948C24.6936 9.22871 24.5335 9.2371 24.5281 8.98018C24.5205 8.62109 24.4809 8.26354 24.4641 7.90446C24.3825 6.16089 24.3063 4.41732 24.2232 2.67375C24.1934 2.05775 24.1515 1.44403 24.1149 0.828792C24.1004 0.592453 24.1576 0.516215 24.3627 0.503255C24.6684 0.484195 24.7507 0.537562 24.7614 0.799059C24.7873 1.39219 24.8018 1.98685 24.827 2.58074C24.8933 4.14896 24.968 5.71642 25.0298 7.28464C25.0473 7.73826 25.0328 8.1934 25.0328 8.64778H25.0892Z" fill="#058105"/>
</g>
<path fill-rule="evenodd" clip-rule="evenodd" d="M15.2998 17.1766C14.1333 17.05 12.9814 16.9257 11.8302 16.8007C10.6713 16.6749 9.51252 16.5491 8.35446 16.4226C8.01139 16.3852 7.66984 16.3433 7.32753 16.309C7.156 16.2914 7.06756 16.2236 7.11864 16.0368C7.13313 15.9819 7.12855 15.9209 7.12931 15.8615C7.1316 15.7082 7.21089 15.6564 7.35727 15.6739C8.20885 15.7746 9.06043 15.8729 9.91353 15.972C11.1433 16.1153 12.3737 16.2594 13.6035 16.4035C14.1935 16.4729 14.7829 16.5415 15.3722 16.6155C15.5857 16.6421 15.7107 16.9707 15.575 17.1369C15.4919 17.2391 15.3806 17.1552 15.2998 17.1766Z" fill="#058105"/>
<path fill-rule="evenodd" clip-rule="evenodd" d="M34.5075 16.6852C34.3535 16.6905 33.9235 16.4435 33.8892 16.3375C33.8465 16.2018 33.9646 16.198 34.0439 16.1835C34.4548 16.1081 34.8665 16.0372 35.279 15.9685C36.9288 15.6949 38.5778 15.4212 40.2276 15.1498C40.836 15.0499 41.4459 14.9614 42.052 14.8539C42.2693 14.8151 42.3417 14.9035 42.3676 15.0994C42.4073 15.4158 42.4004 15.4456 42.1458 15.4852C40.0446 15.8145 37.9435 16.1408 35.8424 16.4694C35.3857 16.5403 34.9306 16.6166 34.5075 16.6852Z" fill="#058105"/>
<path fill-rule="evenodd" clip-rule="evenodd" d="M15.6533 21.2762C15.6838 21.4439 15.5817 21.5331 15.417 21.5956C13.1329 22.4655 10.8503 23.3377 8.56776 24.2091C8.43053 24.2617 8.29254 24.3105 8.15531 24.3638C8.03562 24.4096 7.96548 24.3753 7.91821 24.2518C7.76269 23.8462 7.75887 23.8447 8.16751 23.6922C10.553 22.7994 12.9377 21.9082 15.324 21.0162C15.6061 20.911 15.6564 20.9461 15.6533 21.2762Z" fill="#058105"/>
<path fill-rule="evenodd" clip-rule="evenodd" d="M14.4084 8.89501C14.612 9.05663 14.8148 9.21749 15.0176 9.38064C15.154 9.48967 15.2409 9.91965 15.1548 10.0683C15.0976 10.1674 15.0198 10.1369 14.9497 10.0858C14.8369 10.0043 14.7286 9.91584 14.6181 9.83121C13.4936 8.96972 12.3698 8.10518 11.2415 7.24979C11.0722 7.12171 11.0593 7.03403 11.1942 6.86326C11.4839 6.49655 11.4443 6.48817 11.9025 6.74204C12.8722 7.278 13.8435 7.81319 14.8148 8.34686C15.2265 8.57252 15.2371 8.59692 15.1799 9.05282C15.1578 9.2175 15.0831 9.23732 14.9581 9.16413C14.7835 9.06197 14.6135 8.95447 14.4404 8.84926C14.4298 8.86451 14.4199 8.87976 14.4084 8.89501Z" fill="#058105"/>
<path fill-rule="evenodd" clip-rule="evenodd" d="M17.5988 9.10932C17.5988 9.45468 17.5927 9.79927 17.6011 10.1439C17.6056 10.3093 17.5355 10.3642 17.3792 10.3619C16.8074 10.3535 16.2349 10.3444 15.6631 10.3497C15.4695 10.352 15.4077 10.2872 15.4108 10.0958C15.4199 9.43562 15.4199 8.7754 15.4108 8.11441C15.4085 7.92458 15.4687 7.83843 15.6616 7.85825C15.7127 7.86359 15.7653 7.86283 15.8156 7.85825C15.9863 7.84377 16.0519 7.91924 16.0489 8.09002C16.042 8.52229 16.0466 8.95532 16.0466 9.38835C16.0466 9.44705 16.0451 9.50652 16.0496 9.56446C16.0542 9.62164 16.0542 9.69788 16.1365 9.68797C16.2059 9.67958 16.1853 9.6102 16.1853 9.56065C16.1846 9.09178 16.1808 8.62216 16.1808 8.15253C16.1815 7.87197 16.1991 7.85901 16.5086 7.85901C16.8158 7.85901 16.8326 7.8735 16.8341 8.15558C16.8356 8.6031 16.8334 9.05062 16.8364 9.49813C16.8364 9.55912 16.8143 9.66281 16.8928 9.66586C17.0018 9.67043 16.9645 9.55836 16.9652 9.49508C16.9698 9.06968 16.9675 8.64427 16.9683 8.2181C16.9683 7.85749 16.9683 7.85749 17.29 7.85901C17.5995 7.85978 17.5995 7.85978 17.5995 8.20666C17.5995 8.5078 17.5995 8.80818 17.5988 9.10932Z" fill="#058105"/>
<path fill-rule="evenodd" clip-rule="evenodd" d="M15.5699 11.744C15.5699 11.8065 15.5715 11.8363 15.5699 11.8652C15.5654 11.9369 15.5867 12.0208 15.5143 12.0673C15.4274 12.1237 15.361 12.0536 15.2962 12.0116C14.694 11.6175 14.0932 11.221 13.4902 10.8269C12.3977 10.1102 11.3029 9.39436 10.2112 8.67696C10.1227 8.61902 9.98168 8.57862 10.0053 8.44596C10.0335 8.2851 10.1342 8.14253 10.2714 8.05562C10.3819 7.98472 10.4757 8.09755 10.5641 8.15626C11.6284 8.86375 12.6919 9.57276 13.7547 10.2818C14.2808 10.6325 14.803 10.987 15.3328 11.3301C15.5044 11.4406 15.618 11.5603 15.5699 11.744Z" fill="#058105"/>
<path fill-rule="evenodd" clip-rule="evenodd" d="M17.4149 4.97082C17.4248 4.81149 17.4317 4.65062 17.4439 4.48976C17.4492 4.41429 17.4172 4.30984 17.5277 4.29002C17.6169 4.27477 17.6451 4.36626 17.6802 4.42725C17.9844 4.96244 18.2878 5.49915 18.5905 6.03587C19.285 7.26864 19.9803 8.50218 20.6741 9.73571C20.8296 10.0109 20.7221 10.2107 20.4057 10.2351C20.27 10.2457 20.2426 10.1283 20.1938 10.0437C19.667 9.12809 19.144 8.21095 18.6179 7.29533C18.2489 6.65264 17.88 6.01071 17.5079 5.36955C17.4347 5.24452 17.3943 5.11644 17.4149 4.97082Z" fill="#058105"/>
<path fill-rule="evenodd" clip-rule="evenodd" d="M17.8809 8.74294C17.9031 8.47153 17.8558 8.20241 17.8459 7.93177C17.8383 7.73126 17.7712 7.55591 17.5402 7.50712C17.4342 7.48501 17.4037 7.40725 17.4029 7.31043C17.4022 7.17777 17.4022 7.04588 17.4014 6.91399C17.4006 6.84766 17.3968 6.7699 17.4693 6.74169C17.5569 6.70815 17.6004 6.78667 17.6423 6.84461C17.9724 7.30128 18.3018 7.76023 18.6304 8.21842C19.0878 8.85501 19.546 9.49236 20.0004 10.1305C20.0705 10.2288 20.1795 10.3302 20.04 10.4537C19.9135 10.5666 19.7915 10.6443 19.6154 10.514C19.0863 10.1213 18.548 9.73937 18.0121 9.35513C17.9206 9.28957 17.8756 9.20799 17.8802 9.0944C17.884 8.97776 17.8809 8.86035 17.8809 8.74294Z" fill="#058105"/>
<path fill-rule="evenodd" clip-rule="evenodd" d="M17.1029 6.25665C17.1029 6.6165 17.0991 6.97558 17.1052 7.33619C17.1075 7.50086 17.0511 7.57786 16.8742 7.57176C16.6249 7.56109 16.3749 7.56414 16.1256 7.57024C15.9777 7.57405 15.909 7.51839 15.9098 7.36668C15.9121 6.63251 15.9121 5.89833 15.9098 5.16416C15.9098 5.00482 15.9815 4.94078 16.1385 4.94459C16.3741 4.95146 16.6097 4.95527 16.8437 4.94307C17.0534 4.93316 17.1113 5.03074 17.1067 5.22134C17.0984 5.56594 17.1045 5.91129 17.1045 6.25665H17.1029Z" fill="#058105"/>
<path fill-rule="evenodd" clip-rule="evenodd" d="M42.1125 21.2645C40.7174 21.1898 39.355 21.1174 37.9926 21.0434C37.8965 21.0381 37.7921 21.0335 37.7578 20.9191C37.7151 20.7789 37.68 20.6302 37.738 20.4892C37.7685 20.4137 37.8615 20.4274 37.9354 20.4327C39.2978 20.5166 40.6594 20.5997 42.021 20.6836C42.0866 20.6874 42.1522 20.6958 42.2177 20.7041C42.5333 20.743 42.5982 20.8604 42.4678 21.1555C42.3824 21.3476 42.2124 21.2409 42.1125 21.2645Z" fill="#058105"/>
<path fill-rule="evenodd" clip-rule="evenodd" d="M15.5573 7.01697C15.6884 7.3608 15.4208 7.49498 15.2279 7.66194C15.1349 7.74275 15.0648 7.6566 15.0061 7.59333C14.5624 7.1054 14.121 6.61595 13.6788 6.1265C13.447 5.87111 13.2145 5.618 12.9881 5.35879C12.9202 5.28178 12.8005 5.19335 12.9271 5.0828C13.0376 4.98598 13.1489 4.86705 13.3281 4.9997C14.0226 5.51507 14.721 6.02511 15.4254 6.52599C15.6198 6.66475 15.5497 6.85077 15.5573 7.01697Z" fill="#058105"/>
<path fill-rule="evenodd" clip-rule="evenodd" d="M41.9763 22.5902C41.2498 22.5101 40.5286 22.4308 39.8066 22.3523C39.2897 22.2951 38.7713 22.2433 38.2551 22.18C38.1187 22.1632 37.9593 22.1808 37.9288 21.9642C37.8709 21.5632 37.8953 21.5365 38.3032 21.5861C39.4826 21.7279 40.662 21.8621 41.8414 22.0008C41.8993 22.0069 41.9596 22.0107 42.016 22.0229C42.1059 22.0428 42.2317 22.0252 42.2538 22.1411C42.2805 22.2776 42.2546 22.4209 42.1753 22.5406C42.1288 22.61 42.0434 22.5886 41.9763 22.5902Z" fill="#058105"/>
<path fill-rule="evenodd" clip-rule="evenodd" d="M11.9517 23.8473C11.9867 24.0158 11.8952 24.1225 11.7161 24.2071C10.7219 24.6752 9.7316 25.1525 8.74051 25.6297C8.60862 25.693 8.50417 25.7327 8.42107 25.5543C8.27088 25.2249 8.26631 25.1616 8.47672 25.0618C9.5433 24.5563 10.6106 24.0539 11.6795 23.5523C11.8968 23.4501 11.9517 23.5073 11.9517 23.8473Z" fill="#058105"/>
<path fill-rule="evenodd" clip-rule="evenodd" d="M37.9001 22.9996C37.8956 22.7297 37.9284 22.7 38.1647 22.7335C39.3311 22.9013 40.4976 23.0675 41.6648 23.2352C41.7967 23.2542 41.9331 23.2611 41.9004 23.4662C41.8516 23.778 41.818 23.8253 41.5893 23.7948C40.4496 23.6438 39.3113 23.4868 38.1708 23.3396C37.9345 23.3091 37.8872 23.1696 37.9001 22.9996Z" fill="#058105"/>
<path fill-rule="evenodd" clip-rule="evenodd" d="M11.9516 25.0507C11.9859 25.2207 11.8884 25.3289 11.7184 25.4197C10.9041 25.8542 10.0937 26.2956 9.28712 26.7424C9.11482 26.8369 9.01342 26.8217 8.92194 26.6372C8.77632 26.3414 8.7687 26.3086 8.98445 26.1927C9.88787 25.7071 10.7921 25.2237 11.697 24.7427C11.8975 24.6367 11.9524 24.7 11.9516 25.0507Z" fill="#058105"/>
<path fill-rule="evenodd" clip-rule="evenodd" d="M37.8487 24.2539C37.8495 23.9307 37.8739 23.9108 38.1735 23.9696C39.1737 24.1678 40.174 24.3652 41.1742 24.5634C41.499 24.6283 41.5562 24.7632 41.3915 25.0552C41.3244 25.1756 41.2238 25.1482 41.1224 25.1284C40.3508 24.982 39.5801 24.8349 38.8093 24.6877C38.5783 24.6443 38.3488 24.5909 38.1171 24.5604C37.9074 24.5322 37.8091 24.4384 37.8487 24.2539Z" fill="#058105"/>
<path fill-rule="evenodd" clip-rule="evenodd" d="M40.6815 26.3459C40.3842 26.2719 40.0861 26.1972 39.7865 26.1225C39.2101 25.9792 38.633 25.8374 38.0574 25.691C37.8698 25.6437 37.7593 25.2564 37.8874 25.1162C37.9354 25.0628 37.9941 25.0758 38.0505 25.091C38.9677 25.325 39.884 25.5591 40.8012 25.7947C40.9194 25.8244 40.988 25.8961 40.9361 26.0196C40.8828 26.1477 40.9163 26.3512 40.6815 26.3459Z" fill="#058105"/>
<path fill-rule="evenodd" clip-rule="evenodd" d="M11.9143 26.3857C11.9821 26.5862 11.8418 26.6914 11.6589 26.7966C11.0924 27.1214 10.5328 27.4599 9.97094 27.7938C9.85201 27.8647 9.74299 27.9349 9.64388 27.7557C9.4731 27.4469 9.46624 27.3631 9.65531 27.2518C10.2881 26.8797 10.9216 26.5092 11.5575 26.1433C11.8929 25.9504 11.9173 25.9672 11.9143 26.3857Z" fill="#058105"/>
<path fill-rule="evenodd" clip-rule="evenodd" d="M37.8457 26.6263C37.8366 26.3054 37.8717 26.2794 38.1408 26.3679C38.7865 26.5798 39.4338 26.7895 40.0803 27.0029C40.2099 27.0456 40.3654 27.0708 40.296 27.2789C40.1931 27.5915 40.1504 27.6258 39.8943 27.545C39.308 27.362 38.724 27.1691 38.1354 26.9945C37.9197 26.9305 37.7954 26.8314 37.8457 26.6263Z" fill="#058105"/>
<path fill-rule="evenodd" clip-rule="evenodd" d="M11.9449 27.6284C11.9983 27.8464 11.8824 27.9677 11.6941 28.0721C11.2908 28.2962 10.8959 28.5364 10.5002 28.7758C10.3538 28.8642 10.2563 28.8444 10.1953 28.6774C10.1701 28.6088 10.132 28.5455 10.0969 28.4807C10.0413 28.3763 10.0695 28.2985 10.1686 28.2406C10.6939 27.9341 11.2199 27.6276 11.7444 27.3196C11.8672 27.248 11.9243 27.3067 11.9434 27.4218C11.9541 27.4858 11.9449 27.5537 11.9449 27.6284Z" fill="#058105"/>
<path fill-rule="evenodd" clip-rule="evenodd" d="M16.4976 4.69919H16.387C15.9151 4.69919 15.9151 4.69919 15.9098 4.42092C15.8984 3.87048 16.0889 3.58611 16.4823 3.56629C16.8079 3.54952 17.0961 3.78052 17.0991 4.09233C17.1075 4.82727 17.1776 4.68318 16.4976 4.69919Z" fill="#058105"/>
<path fill-rule="evenodd" clip-rule="evenodd" d="M17.9635 9.81104C18.0359 9.81408 18.0725 9.86288 18.1107 9.90557C18.4065 10.2311 18.7015 10.5566 18.9958 10.8822C19.0682 10.9615 19.1444 11.0522 19.0392 11.1467C18.9218 11.2527 18.8174 11.4509 18.6214 11.3495C18.3234 11.194 18.0428 11.0057 17.7561 10.8288C17.6982 10.7937 17.6304 10.719 17.6967 10.6702C17.9506 10.488 17.869 10.2265 17.8827 9.98638C17.8858 9.91624 17.869 9.83391 17.9635 9.81104Z" fill="#058105"/>
<path fill-rule="evenodd" clip-rule="evenodd" d="M37.8487 27.8327C37.8502 27.4965 37.8853 27.4706 38.1605 27.5819C38.5951 27.758 39.0273 27.9371 39.4611 28.114C39.5968 28.1689 39.7234 28.2169 39.6411 28.4129C39.5198 28.6972 39.4787 28.7308 39.253 28.6416C38.865 28.4876 38.4815 28.3229 38.0904 28.178C37.9028 28.1087 37.8075 28.0065 37.8487 27.8327Z" fill="#058105"/>
<path fill-rule="evenodd" clip-rule="evenodd" d="M11.9517 28.8007C11.9989 28.9867 11.8876 29.1072 11.7047 29.2017C11.4958 29.3092 11.3014 29.4419 11.0963 29.5547C10.9171 29.6546 10.7921 29.5852 10.651 29.3466C10.5496 29.1766 10.6297 29.0996 10.7707 29.0203C11.0658 28.8556 11.3532 28.681 11.6437 28.5102C11.8914 28.3646 11.9463 28.3951 11.9517 28.6795V28.8007Z" fill="#058105"/>
<path fill-rule="evenodd" clip-rule="evenodd" d="M15.6085 4.40396C15.6085 4.55491 15.6108 4.66469 15.6078 4.77447C15.6062 4.82784 15.591 4.87892 15.5292 4.89264C15.4804 4.90255 15.44 4.87892 15.4141 4.84233C15.1778 4.50764 14.9414 4.17143 14.7074 3.8337C14.6571 3.76127 14.6769 3.69265 14.747 3.64234C14.8309 3.58363 14.917 3.52722 15.0032 3.47156C15.1008 3.40829 15.1824 3.42811 15.2502 3.52036C15.4522 3.7971 15.716 4.04945 15.6085 4.40396Z" fill="#058105"/>
<path fill-rule="evenodd" clip-rule="evenodd" d="M38.0147 28.7205C38.2991 28.8653 38.598 28.9896 38.864 29.1642C39.0043 29.2564 38.8412 29.3837 38.7947 29.4867C38.752 29.5835 38.6849 29.6704 38.5576 29.6132C38.3578 29.524 38.1573 29.4363 37.9644 29.3334C37.8478 29.2717 37.8142 28.86 37.908 28.7708C37.9332 28.7479 37.9705 28.7403 38.0147 28.7205Z" fill="#058105"/>
<path fill-rule="evenodd" clip-rule="evenodd" d="M17.3642 11.642C17.3642 11.5909 17.3589 11.539 17.365 11.4887C17.3802 11.3652 17.4412 11.3103 17.5541 11.3927C17.7309 11.5215 17.9032 11.6565 18.074 11.7929C18.1556 11.8577 18.1701 11.95 18.0992 12.0232C18.01 12.1146 17.9589 12.2877 17.7805 12.2359C17.538 12.1657 17.3612 11.9057 17.3642 11.642Z" fill="#058105"/>
<path fill-rule="evenodd" clip-rule="evenodd" d="M16.5928 3.28123C16.3389 3.36891 16.2314 3.17145 16.1315 2.96561C16.0843 2.86878 16.1048 2.79407 16.2047 2.74909C16.2985 2.70792 16.3946 2.67057 16.4891 2.63168C16.5867 2.59128 16.6599 2.62254 16.7117 2.71097C16.7735 2.81923 16.8398 2.9252 16.8962 3.03575C17.0037 3.24464 16.9709 3.29496 16.7369 3.28962C16.7003 3.28886 16.6637 3.28504 16.5928 3.28123Z" fill="#058105"/>
<path fill-rule="evenodd" clip-rule="evenodd" d="M11.9524 29.9989C11.9402 30.0988 11.9905 30.233 11.87 30.31C11.7778 30.3687 11.6794 30.4914 11.559 30.4007C11.4263 30.3001 11.3234 30.1605 11.3082 29.9814C11.3036 29.925 11.3531 29.8929 11.3981 29.8663C11.4553 29.8335 11.5132 29.8022 11.5697 29.7694C11.9196 29.5689 11.9524 29.5872 11.9524 29.9989Z" fill="#058105"/>
<path fill-rule="evenodd" clip-rule="evenodd" d="M17.1311 47.905C17.1359 47.6163 17.1419 47.3299 17.1839 47.0423C17.2557 46.5487 17.457 46.3798 17.9399 46.5068C18.6768 46.6997 19.4208 46.7152 20.1733 46.6973C22.3695 46.641 24.3884 45.9796 26.2898 44.9096C27.4293 44.2698 28.4992 43.5282 29.5309 42.7266C29.7693 42.5421 30.0161 42.3743 30.3013 42.2689C30.3863 42.2377 30.4846 42.1946 30.5637 42.2653C30.6475 42.3408 30.6068 42.439 30.5649 42.5205C30.3636 42.9147 30.1407 43.2861 29.7022 43.4718C29.2157 43.6779 28.8551 44.0685 28.4417 44.38C26.7667 45.6417 25.0162 46.7752 23.0189 47.4677C21.3762 48.038 19.694 48.3364 17.9507 48.0476C17.6475 47.9973 17.6068 48.1698 17.5685 48.3975C17.3612 49.616 16.9191 50.7243 16.0588 51.6445C15.4765 52.2675 14.7708 52.6677 13.9321 52.7683C13.3246 52.8426 12.4979 52.4664 12.2151 51.6313C11.9922 50.9699 12.0522 50.3133 12.2319 49.6555C12.3577 49.1978 12.5266 48.7557 12.7195 48.3244C12.7627 48.2285 12.7902 48.038 12.9196 48.0907C13.085 48.1566 12.9448 48.3124 12.9136 48.4178C12.8345 48.6946 12.7135 48.9606 12.6476 49.2398C12.3433 50.5134 13.1197 51.3545 14.4305 51.2479C16.066 51.1149 17.082 49.4818 17.1299 48.425C17.1383 48.2525 17.1311 48.0788 17.1311 47.905Z" fill="#058105"/>
<path fill-rule="evenodd" clip-rule="evenodd" d="M35.7669 49.8298C35.1738 49.8502 34.5999 49.8082 34.0307 49.704C33.6413 49.6309 33.2771 49.5015 32.944 49.2786C32.581 49.0354 32.43 49.075 32.1628 49.4296C31.9759 49.6776 31.7962 49.934 31.5877 50.1629C31.3433 50.4313 31.0318 50.6038 30.6591 50.4924C30.2853 50.3809 30.1895 50.0491 30.1355 49.7052C30.0253 48.9839 30.1715 48.2794 30.2781 47.5737C30.4231 46.6056 30.5261 45.6255 30.9407 44.7185C30.9695 44.6562 30.9922 44.5903 31.0198 44.5268C31.0473 44.4656 31.0653 44.3794 31.1528 44.3974C31.2438 44.4165 31.2295 44.5064 31.2199 44.5711C31.1648 44.9593 31.106 45.3463 31.0485 45.7345C30.9467 46.4079 30.8389 47.08 30.7454 47.7534C30.7166 47.9583 30.7202 48.168 30.7238 48.3752C30.7286 48.7107 30.9 48.9551 31.2043 49.0702C31.5314 49.1924 31.8201 49.0809 32.0442 48.8209C32.2467 48.5861 32.4216 48.3273 32.666 48.1272C32.8805 47.9499 33.1058 47.884 33.3718 47.9822C35.4673 48.7622 37.5641 48.4136 39.6429 47.9403C41.7672 47.4562 43.6555 46.4474 45.412 45.175C45.7847 44.9054 46.1788 44.6633 46.5706 44.4177C46.6821 44.3482 46.8247 44.2284 46.9481 44.3386C47.0882 44.4656 46.9612 44.6202 46.9025 44.7496C46.7815 45.0156 46.6222 45.2792 46.3574 45.405C45.3976 45.8603 44.6296 46.5948 43.7502 47.1651C41.79 48.4351 39.692 49.3553 37.3736 49.7268C36.838 49.813 36.2965 49.855 35.7669 49.8298Z" fill="#058105"/>
<path fill-rule="evenodd" clip-rule="evenodd" d="M0.286621 49.5279C0.333349 48.3177 0.7551 47.2526 1.30865 46.2282C1.42367 46.0161 1.54828 45.8076 1.67888 45.6039C1.7316 45.5224 1.80588 45.4026 1.9221 45.4841C2.01676 45.55 1.93888 45.6566 1.90054 45.7333C1.64293 46.2365 1.39731 46.7446 1.20081 47.2765C1.06782 47.6348 0.96358 47.999 0.903672 48.3765C0.76828 49.2164 1.2763 49.8813 2.12339 49.9245C3.13584 49.976 3.89547 49.5039 4.44902 48.682C4.63114 48.4124 4.58081 48.2267 4.2681 48.1608C3.32634 47.9631 3.33233 47.4359 3.58994 46.6655C3.97694 45.5069 4.70542 44.5795 5.66754 43.8366C5.8928 43.6617 6.17436 43.4448 6.44395 43.6893C6.7315 43.9505 6.46791 44.2224 6.33132 44.4609C6.16238 44.7544 5.98146 45.0408 5.55132 44.9425C5.45786 44.9222 5.32966 45.0012 5.23621 45.0624C4.80487 45.3463 4.46699 45.7189 4.19381 46.1563C4.03086 46.4151 4.09197 46.6271 4.36754 46.6966C5.09363 46.88 5.1068 47.2454 5.00496 47.9679C4.83722 49.1313 4.25971 50.0862 3.38985 50.8686C3.32035 50.9297 3.24607 50.9848 3.16699 51.034C2.5104 51.4449 1.81427 51.6007 1.10376 51.2221C0.424409 50.8614 0.312981 50.1929 0.286621 49.5279Z" fill="#058105"/>
<path fill-rule="evenodd" clip-rule="evenodd" d="M28.7077 47.9221C28.5831 47.2967 28.8216 46.6725 29.0971 46.0566C29.1379 45.9655 29.1834 45.8457 29.3104 45.8673C29.4051 45.8817 29.4027 45.9883 29.4015 46.0686C29.3787 47.5627 29.3152 49.0508 28.4765 50.3688C27.9074 51.259 27.2376 52.0366 26.1808 52.3661C25.7854 52.4895 25.3817 52.5051 24.9827 52.4308C24.0313 52.2535 23.5293 51.4531 23.6467 50.3328C23.7354 49.4941 24.0313 48.7213 24.4303 47.9868C24.4806 47.8946 24.5346 47.722 24.6652 47.7963C24.791 47.867 24.6676 48.0024 24.628 48.1019C24.4399 48.5608 24.2458 49.0149 24.1883 49.5157C24.1092 50.1998 24.4411 50.7114 25.1109 50.896C26.3474 51.2374 27.9122 50.5485 28.5136 49.4138C28.7545 48.9573 28.7029 48.4745 28.7077 47.9221Z" fill="#058105"/>
<path fill-rule="evenodd" clip-rule="evenodd" d="M9.12195 47.9913C9.72702 47.9493 10.1811 47.7912 10.5537 47.4317C10.7359 47.2568 10.6544 47.1609 10.4507 47.0974C10.3261 47.0591 10.2243 47.1082 10.1224 47.1609C9.75817 47.3466 9.48259 47.639 9.12195 47.9913ZM6.39135 49.8724C5.67605 49.9263 5.41605 49.6028 5.63292 48.951C5.69522 48.7653 5.76951 48.5819 5.85577 48.407C5.95282 48.2105 6.06425 48.0008 6.32665 48.0056C6.58545 48.0104 6.73402 48.1901 6.86462 48.3902C6.9449 48.5137 6.90775 48.7473 7.06831 48.7593C7.26121 48.7725 7.36305 48.5616 7.48167 48.4238C7.63863 48.2393 7.78121 48.0428 7.93457 47.8547C8.09872 47.651 8.29282 47.5983 8.49771 47.79C8.72775 48.0044 8.90029 47.9325 9.07043 47.7109C9.2813 47.4377 9.49697 47.1669 9.72222 46.9033C9.87199 46.7284 10.0301 46.5583 10.2015 46.4061C10.4291 46.2036 10.676 45.9987 11.0019 46.194C11.3158 46.3809 11.2978 46.696 11.2547 46.998C11.1289 47.875 10.0517 49.0049 9.18904 49.1786C8.77688 49.2625 8.40305 49.2218 8.15504 48.824C8.02563 48.6167 7.91061 48.6407 7.75725 48.8192C7.35946 49.2793 6.92573 49.6986 6.69328 50.2905C6.4237 50.9723 5.7755 51.1484 5.14047 51.3078C5.03743 51.3341 4.91642 51.3593 4.86849 51.2359C4.81817 51.1077 4.94158 51.0537 5.02665 51.0034C5.42683 50.7698 5.79227 50.4882 6.14333 50.1887C6.23918 50.1072 6.34462 50.0341 6.39135 49.8724Z" fill="#058105"/>
<path fill-rule="evenodd" clip-rule="evenodd" d="M19.8374 51.0508C19.5103 51.6439 19.0047 51.8836 18.4032 51.9578C18.2798 51.9734 18.1181 52.0237 18.0689 51.8716C18.0282 51.7446 18.1768 51.6835 18.2678 51.6188C18.4176 51.5121 18.571 51.4079 18.7255 51.3084C19.4756 50.8292 20.0387 50.193 20.3706 49.3602C20.4353 49.1997 20.5072 49.0415 20.5815 48.8858C20.6162 48.8139 20.6665 48.73 20.7636 48.7779C20.8367 48.8127 20.8175 48.8978 20.8007 48.9649C20.7396 49.1865 20.6713 49.407 20.6905 49.643C20.7193 49.9989 20.9373 50.2768 21.2512 50.3499C21.6418 50.4386 22.2181 50.2744 22.3595 50.0252C22.471 49.8287 22.338 49.7688 22.1822 49.7688C22.0468 49.7676 21.9102 49.8251 21.7748 49.8287C21.4118 49.8419 21.1793 49.5519 21.2944 49.2141C21.419 48.8426 21.5855 48.4844 21.818 48.1657C22.072 47.8194 22.3703 47.8158 22.6399 48.1573C23.1323 48.7803 23.0916 49.4609 22.8232 50.1534C22.6722 50.5428 22.4554 50.8963 22.1906 51.221C21.4334 52.1531 20.494 52.1052 19.8374 51.0508Z" fill="#058105"/>
<path fill-rule="evenodd" clip-rule="evenodd" d="M46.0682 43.7422C45.9052 43.7302 45.8225 43.7362 45.7447 43.7158C45.3325 43.602 44.9455 43.6427 44.592 43.8967C44.5369 43.9363 44.4662 43.9902 44.4027 43.9459C44.3189 43.8883 44.368 43.8009 44.3919 43.7254C44.6196 42.9957 45.3828 42.5081 46.1436 42.5859C47.0435 42.677 47.8223 42.3727 48.5124 41.8143C48.5759 41.7628 48.6274 41.6981 48.6897 41.6478C48.7748 41.5771 48.8623 41.4441 48.9809 41.5256C49.1223 41.6226 49.0168 41.7592 48.9581 41.8623C48.3063 43.0209 47.2819 43.5924 46.0682 43.7422Z" fill="#058105"/>
<path fill-rule="evenodd" clip-rule="evenodd" d="M34.5699 44.4358C34.5028 44.7917 34.3171 45.0768 34.0163 45.2757C33.839 45.3931 33.7072 45.241 33.5994 45.1296C33.3957 44.9163 33.2507 44.9259 33.1021 45.1931C33.0087 45.3596 32.8876 45.5801 32.666 45.5297C32.3976 45.4674 32.1867 45.2649 32.0166 45.0433C31.9543 44.9618 32.0178 44.866 32.0633 44.7857C32.1711 44.5952 32.273 44.3999 32.3904 44.2154C32.6037 43.8787 32.7211 43.8451 33.0147 44.1135C33.2579 44.3364 33.4017 44.3687 33.5718 44.0452C33.6581 43.8811 33.7623 43.6259 34.0391 43.7601C34.3158 43.8931 34.5423 44.0884 34.5699 44.4358Z" fill="#058105"/>
<path fill-rule="evenodd" clip-rule="evenodd" d="M23.8778 43.3758C23.8346 43.6885 23.6345 43.9653 23.3434 44.1678C23.1541 44.2984 23.0151 44.1199 22.8989 44.0084C22.6964 43.8131 22.5634 43.8371 22.4232 44.0779C22.3226 44.2517 22.2039 44.4793 21.9559 44.411C21.6995 44.3403 21.5018 44.1462 21.3341 43.9401C21.2778 43.8706 21.3269 43.782 21.3652 43.7125C21.4719 43.522 21.5761 43.3291 21.6947 43.1458C21.9344 42.7707 22.0578 42.7384 22.3921 43.0511C22.6221 43.2668 22.7239 43.2188 22.8713 42.978C22.9696 42.8187 23.0426 42.5682 23.323 42.6365C23.5962 42.7036 23.8766 43.0559 23.8778 43.3758Z" fill="#058105"/>
<path fill-rule="evenodd" clip-rule="evenodd" d="M46.2577 46.0371C46.0336 47.167 46.054 48.3675 45.7425 49.5202C45.673 49.7766 45.5627 50.0186 45.4178 50.2427C45.3758 50.3062 45.3387 50.4056 45.2392 50.3709C45.1398 50.3349 45.1757 50.2331 45.1841 50.1588C45.2656 49.4039 45.3794 48.6503 45.4297 47.8931C45.4753 47.2077 45.6921 46.5883 46.0049 45.9916C46.0456 45.9137 46.0719 45.8011 46.1906 45.8251C46.2804 45.8442 46.2505 45.9365 46.2577 46.0371Z" fill="#058105"/>
<path fill-rule="evenodd" clip-rule="evenodd" d="M9.22731 51.3633C9.13625 51.3681 9.02842 51.3825 8.98528 51.2806C8.93975 51.1752 9.02482 51.1009 9.1039 51.059C10.2877 50.4347 10.9838 49.4271 11.3876 48.1846C11.4139 48.1007 11.4559 47.9797 11.5661 48.0109C11.7123 48.0504 11.6452 48.1798 11.6212 48.2733C11.4331 49.0245 11.1839 49.7506 10.8185 50.4395C10.4746 51.0889 9.91266 51.3214 9.22731 51.3633Z" fill="#058105"/>
<path fill-rule="evenodd" clip-rule="evenodd" d="M27.3376 48.4316C27.2968 48.7251 27.1279 49.0055 26.8871 49.2451C26.7924 49.3386 26.6678 49.3122 26.566 49.2511C25.8758 48.8377 25.7812 48.8833 26.1885 48.0697C26.294 47.8589 26.3779 47.5665 26.7289 47.6612C27.0416 47.7462 27.3328 48.0937 27.3376 48.4316Z" fill="#058105"/>
<path fill-rule="evenodd" clip-rule="evenodd" d="M10.4395 44.6588C10.3963 44.9296 10.237 45.1872 10.0021 45.4017C9.90267 45.4915 9.79005 45.4676 9.68341 45.404C9.55641 45.3274 9.4318 45.2447 9.3036 45.1704C9.1071 45.0578 9.05917 44.8924 9.1706 44.7067C9.35152 44.4096 9.35512 43.9471 9.80562 43.8908C10.0752 43.8584 10.4418 44.3185 10.4395 44.6588Z" fill="#058105"/>
</svg>
