<svg width="46" height="49" viewBox="0 0 46 49" fill="none" xmlns="http://www.w3.org/2000/svg">
<path fill-rule="evenodd" clip-rule="evenodd" d="M17.8094 0C17.7468 0.000791823 17.6834 0.00158365 17.6201 0.00316729C14.2333 0.0839332 10.8441 0.0245465 7.45657 0.0245465H6.5V33H22.5344C22.5637 32.7989 22.5962 32.6817 22.5962 32.5653C22.5922 30.6641 22.6468 28.7598 22.5597 26.861C22.4402 24.2488 20.5112 22.7625 17.9558 23.3588C16.8662 23.6122 15.8194 24.1221 14.8098 24.6265C13.2411 25.412 11.6954 26.1935 9.6809 25.7699C10.5931 26.7897 11.5449 27.2284 12.7193 27.2387C14.0243 27.2514 15.0766 26.663 16.1124 25.9631C16.8726 25.4484 17.647 24.921 18.4848 24.5623C20.0654 23.8861 21.5675 24.5647 21.7568 26.2402C21.9777 28.1913 21.809 30.1851 21.809 32.1892H7.28236V0.854377C7.64265 0.837748 7.94515 0.811618 8.24605 0.811618C11.5727 0.809243 14.8985 0.804492 18.2243 0.813202C20.6205 0.819536 22.0038 1.93759 22.5581 4.24734C22.6057 4.44767 22.8646 4.5997 23.0238 4.7739C23.1647 4.61316 23.4141 4.46113 23.4284 4.2893C23.6121 2.2179 25.5522 0.776778 27.7187 0.800533C29.985 0.825871 32.2521 0.820328 34.5184 0.815577C35.6397 0.813202 36.761 0.811618 37.8822 0.811618C38.1475 0.811618 38.4128 0.852001 38.7002 0.875756V32.1805H24.0199C24.0199 30.4345 24.0057 28.7519 24.031 27.07C24.0373 26.6805 24.1419 26.2782 24.2725 25.9061C24.7175 24.6384 25.8388 24.0397 27.1319 24.4269C27.6823 24.5924 28.2049 24.8838 28.7022 25.1815C29.4925 25.6551 30.2265 26.2283 31.0287 26.6781C32.9307 27.7439 35.1867 27.3123 36.2668 25.7073C34.6158 26.2362 33.1786 25.6194 31.7548 24.9274C30.8434 24.4839 29.9541 23.9835 29.0134 23.6122C25.9235 22.3927 23.6161 23.8354 23.4094 27.1302C23.3223 28.5056 23.3848 29.8897 23.3801 31.2707C23.3777 31.8368 23.3801 32.403 23.3801 32.9699H39.5V0.106896C39.3567 0.0728477 39.2704 0.0340484 39.1833 0.0340484C35.1804 0.0324647 31.1752 -0.0213792 27.1731 0.0775986C26.2783 0.0989778 25.3304 0.537648 24.5299 0.996905C23.9075 1.35402 23.4751 2.03974 22.9184 2.62172C21.7987 0.675425 20.0733 0.0142528 17.9503 0H17.8094Z" fill="#9B7B3A"/>
<path fill-rule="evenodd" clip-rule="evenodd" d="M21.7757 13.7637C22.1811 15.8493 22.5422 17.9445 22.9231 20.0357C23.3499 18.4497 23.6326 16.8858 23.9834 15.3378C24.6723 12.3083 24.3794 9.39517 22.9833 6.45435C21.9666 8.87336 21.2816 11.214 21.7757 13.7637Z" fill="#9B7B3A"/>
<path fill-rule="evenodd" clip-rule="evenodd" d="M23.8679 19.5631C24.9377 17.9802 26.1999 16.3879 27.1446 14.6276C28.003 13.0297 28.5462 11.2592 29.1615 9.54097C29.3072 9.13397 29.1829 8.63037 29.1829 8.03809C25.8167 11.3582 24.4278 15.3609 23.8679 19.5631Z" fill="#9B7B3A"/>
<path fill-rule="evenodd" clip-rule="evenodd" d="M16.5938 8.18737C16.8147 9.24762 17.0166 10.3126 17.2629 11.3665C18.0389 14.6882 21.0828 16.7335 22.0885 19.9317C21.5738 15.4476 20.2133 11.3459 16.8741 8.12402C16.7806 8.14461 16.6872 8.16599 16.5938 8.18737Z" fill="#9B7B3A"/>
<path fill-rule="evenodd" clip-rule="evenodd" d="M24.613 20.531C25.7248 18.8349 27.2895 17.9845 28.8891 17.1769C30.8576 16.1823 32.4113 14.727 33.5999 12.8868C33.8762 12.4592 34.0393 11.958 34.3474 11.2849C27.0266 15.0975 25.5506 17.3534 24.613 20.531Z" fill="#9B7B3A"/>
<path fill-rule="evenodd" clip-rule="evenodd" d="M12.5562 13.1555C13.7788 14.9744 15.3966 16.3545 17.366 17.3292C18.8911 18.0846 20.341 18.9359 21.4258 20.3817C21.3672 20.2178 21.311 20.0531 21.2501 19.8892C19.6085 15.4479 15.6959 13.5301 11.8008 11.5442C11.9972 12.1119 12.2276 12.6678 12.5562 13.1555Z" fill="#9B7B3A"/>
<path fill-rule="evenodd" clip-rule="evenodd" d="M14.3147 19.8821C16.8566 20.1093 19.3668 20.2265 21.3821 22.0936C20.0319 19.3539 17.6833 18.0823 14.8468 17.5193C12.8173 17.117 10.7846 16.7338 8.71704 16.3347C9.9373 18.433 11.8781 19.6635 14.3147 19.8821Z" fill="#9B7B3A"/>
<path fill-rule="evenodd" clip-rule="evenodd" d="M31.1222 17.5208C28.3316 18.0862 25.9869 19.3199 24.6582 22.02C26.4438 20.4435 28.6064 19.9969 30.8886 19.9604C32.4137 19.9359 33.7955 19.4838 35.0458 18.6634C35.9478 18.0704 36.7958 17.3854 37.1672 16.3806C35.1274 16.7631 33.12 17.117 31.1222 17.5208Z" fill="#9B7B3A"/>
<path fill-rule="evenodd" clip-rule="evenodd" d="M23.9666 23.88C24.5992 23.4516 25.0023 23.1253 25.4521 22.883C27.001 22.0477 28.5174 22.4578 30.0758 22.9543C31.3166 23.3502 32.6137 23.716 33.902 23.7794C35.515 23.8578 37.1859 22.5695 37.5557 21.2503C35.8928 22.1617 34.2219 22.0223 32.5337 21.4538C32.1275 21.3168 31.7086 21.2163 31.2913 21.1141C30.7092 20.97 30.1304 20.8979 29.5626 20.8979C27.4286 20.8979 25.4457 21.9091 23.9666 23.88Z" fill="#9B7B3A"/>
<path fill-rule="evenodd" clip-rule="evenodd" d="M15.5358 20.9779C14.8707 21.0768 14.2 21.2115 13.5641 21.4245C11.8085 22.0136 10.0728 22.1743 8.20874 21.1418C9.44008 23.2639 11.3398 24.1657 13.4651 23.7342C14.2419 23.5758 15.0132 23.3312 15.748 23.0319C17.8449 22.1767 19.8499 22.012 21.729 23.5909C20.344 21.9011 18.6653 20.8987 16.5763 20.8987C16.2398 20.8987 15.8937 20.924 15.5358 20.9779Z" fill="#9B7B3A"/>
<mask id="mask0_4471_6169" style="mask-type:alpha" maskUnits="userSpaceOnUse" x="0" y="38" width="7" height="10">
<path d="M5.23167 38.6712C5.13383 38.9218 4.99544 39.166 4.95488 39.4278C4.75206 40.7271 4.44504 41.9857 3.88351 43.1756C3.60752 43.7614 3.72603 44.0639 4.247 44.4382C4.59696 44.6904 4.63275 44.9642 4.34005 45.2914C3.68546 46.024 2.91316 46.368 1.94439 46.0743C1.47592 45.9322 1.21743 45.5899 1.17925 45.0879C1.13312 44.4957 1.38366 44.0057 1.61432 43.5037C1.80441 43.0918 1.99768 42.6816 2.1838 42.2682C2.23073 42.1629 2.26175 42.0248 2.15278 41.9546C2.01995 41.8668 1.94837 42.0168 1.90383 42.1038C1.58886 42.7183 1.16254 43.2634 0.945408 43.9434C0.810195 44.3648 0.844396 44.8604 0.5 45.2004V46.4039C0.547722 46.4718 0.61692 46.5324 0.63919 46.6074C0.961315 47.7192 1.80759 47.9857 2.83998 47.554C4.44504 46.8812 4.93181 45.3736 5.23485 43.7742C5.2778 43.5468 5.15849 43.3265 4.97874 43.1685C4.86261 43.0663 4.74092 42.9729 4.62877 42.8692C4.35278 42.613 4.54685 42.3887 4.66536 42.1461C4.78626 41.8979 4.92624 41.9019 5.12509 42.0392C5.26268 42.1349 5.42653 42.1254 5.55061 42.0176C5.99602 41.6289 6.28474 41.1397 6.34678 40.526C6.36427 40.3576 6.30303 40.1996 6.13918 40.1437C5.98091 40.0902 5.92921 40.2554 5.87353 40.3568C5.73116 40.617 5.59515 40.5004 5.51641 40.3344C5.44005 40.174 5.3796 39.9721 5.40028 39.7997C5.44244 39.4605 5.40903 39.1102 5.53311 38.783C5.58242 38.6513 5.60151 38.5116 5.44323 38.4645C5.42494 38.4589 5.40903 38.4565 5.39392 38.4565C5.29132 38.4565 5.26587 38.581 5.23167 38.6712Z" fill="white"/>
</mask>
<g mask="url(#mask0_4471_6169)">
<path fill-rule="evenodd" clip-rule="evenodd" d="M0.0114746 48.4734H6.85008V37.9307H0.0114746V48.4734Z" fill="#9B7B3A"/>
</g>
<mask id="mask1_4471_6169" style="mask-type:alpha" maskUnits="userSpaceOnUse" x="40" y="40" width="6" height="7">
<path d="M41.4481 42.1591C41.2111 43.1806 40.9017 44.1886 40.9685 45.2572C41.0051 45.8558 41.4107 46.2628 41.9428 46.282C42.4184 46.2987 42.595 45.938 42.8241 45.6339C42.9975 45.4033 43.1414 45.1248 43.5113 45.3315C43.6226 45.3921 43.7602 45.3546 43.8565 45.2612C44.3074 44.8199 45.0074 44.6427 45.2197 43.9444C45.2325 43.9029 45.3024 43.8789 45.3462 43.847V43.3458C45.2428 43.3075 45.1521 43.3235 45.1044 43.4312C44.9135 43.859 44.348 43.8989 44.1746 44.353C44.1547 44.4033 43.9925 44.4368 43.9105 44.4169C43.5033 44.3235 43.1995 44.4831 42.9044 44.7505C42.7239 44.9141 42.5155 45.0122 42.2363 44.859C41.7638 44.598 41.5562 44.1224 41.6994 43.4743C41.8696 42.7058 42.0502 41.9388 42.1981 41.1662C42.2434 40.9308 42.315 40.661 42.1202 40.4128C41.7487 40.9595 41.5881 41.5525 41.4481 42.1591Z" fill="white"/>
</mask>
<g mask="url(#mask1_4471_6169)">
<path fill-rule="evenodd" clip-rule="evenodd" d="M40.4143 46.7872H45.8324V39.9229H40.4143V46.7872Z" fill="#9B7B3A"/>
</g>
<mask id="mask2_4471_6169" style="mask-type:alpha" maskUnits="userSpaceOnUse" x="14" y="36" width="11" height="11">
<path d="M24.3714 36.666C23.005 37.4569 21.6346 38.2422 20.28 39.0531C19.6605 39.4242 19.0146 39.7706 18.6392 40.4481C18.2264 41.1904 18.0641 41.9829 18.0697 42.8209C18.0729 43.1864 18.0713 43.5503 17.9051 43.8911C17.8391 44.0244 17.7516 44.1872 17.602 44.1106C17.0827 43.8416 16.8313 44.279 16.5211 44.5112C16.1115 44.8177 15.7043 44.8863 15.3249 44.6357C14.9709 44.4019 14.7673 43.8177 14.8683 43.4067C15.0433 42.6908 15.204 41.9701 15.3647 41.251C15.3941 41.1209 15.4625 40.9462 15.2668 40.8991C15.1054 40.86 15.0879 41.026 15.0346 41.1409C14.5184 42.2598 14.3211 43.4545 14.1644 44.6645C14.0905 45.2359 14.2782 45.6804 14.7021 46.0436C15.0664 46.3556 15.4299 46.3676 15.7918 46.0483C16.0431 45.8273 16.2594 45.5671 16.4949 45.3285C16.677 45.1425 16.8743 44.9893 17.1447 45.0619C17.3006 45.0882 17.4493 45.1146 17.5631 45.0108C17.9035 44.6988 18.2375 44.3843 18.4133 43.9342C18.7784 42.9933 18.8571 42.006 18.9168 41.0164C18.9327 40.7642 19.0186 40.5918 19.2294 40.4657C20.354 39.7937 21.4691 39.105 22.6041 38.4521C23.3303 38.0347 24.1074 37.7011 24.6458 37.0196C24.7532 36.8847 24.9791 36.761 24.8137 36.5694C24.7707 36.5192 24.727 36.5 24.6832 36.5C24.5758 36.5 24.4677 36.6109 24.3714 36.666Z" fill="white"/>
</mask>
<g mask="url(#mask2_4471_6169)">
<path fill-rule="evenodd" clip-rule="evenodd" d="M13.6602 46.7709H25.3593V36.0103H13.6602V46.7709Z" fill="#9B7B3A"/>
</g>
<mask id="mask3_4471_6169" style="mask-type:alpha" maskUnits="userSpaceOnUse" x="9" y="40" width="6" height="7">
<path d="M9.99749 41.5653C9.82012 42.2461 9.61014 42.922 9.4797 43.6124C9.39221 44.0777 9.25302 44.5414 9.27688 45.0242C9.32301 45.9907 9.90681 46.4552 10.8215 46.2237C11.2597 46.1128 11.5787 45.8023 11.8618 45.4616C12.273 44.9643 12.5204 44.3658 12.8624 43.8263C12.9324 43.7161 12.9451 43.5884 12.86 43.4807C12.7781 43.3761 12.6652 43.4208 12.557 43.444C12.2126 43.5174 11.8698 43.614 11.5015 43.5374C12.1776 43.1702 12.7694 42.673 13.5067 42.4504C13.9624 42.3123 14.302 42.0409 14.5462 41.6419C14.6091 41.5389 14.6934 41.4264 14.582 41.3083C14.4897 41.2117 14.3681 41.2556 14.275 41.2995C13.8813 41.4847 13.5019 41.7041 13.0994 41.8694C12.2213 42.2293 11.4626 42.7345 10.9297 43.5342C10.8104 43.7129 10.6441 43.9196 10.8175 44.1279C10.975 44.3147 11.1993 44.3498 11.4546 44.2676C11.6877 44.1926 11.9414 44.1798 12.2221 44.1343C11.9183 44.6683 11.255 44.9763 10.7356 44.8646C10.1438 44.7369 9.91318 44.2732 10.0293 43.6635C10.2099 42.7042 10.4262 41.7552 10.6696 40.8111C10.7014 40.6922 10.7316 40.5413 10.5686 40.4128C10.3307 40.7808 10.1072 41.1423 9.99749 41.5653Z" fill="white"/>
</mask>
<g mask="url(#mask3_4471_6169)">
<path fill-rule="evenodd" clip-rule="evenodd" d="M8.76562 46.9436H15.1803V39.9229H8.76562V46.9436Z" fill="#9B7B3A"/>
</g>
<mask id="mask4_4471_6169" style="mask-type:alpha" maskUnits="userSpaceOnUse" x="29" y="41" width="7" height="7">
<path d="M34.775 41.6388C34.4465 42.3722 34.2548 43.1344 34.3113 43.9556C34.3439 44.4337 34.149 44.8199 33.8778 45.1895C33.232 46.0674 32.3539 46.2286 31.3963 46.0889C30.7059 45.9876 30.4418 45.5909 30.4203 44.8678C30.4028 44.2405 30.7337 43.7377 30.8992 43.1759C30.9389 43.0434 31.0757 42.883 30.9182 42.7904C30.7695 42.7018 30.682 42.891 30.6144 43.0075C30.103 43.8862 29.788 44.8343 29.7483 45.5079C29.7276 47.0035 30.4227 47.8184 31.4527 47.7457C32.1678 47.6955 32.847 47.4113 33.3728 46.8519C34.398 45.7601 34.8203 44.3842 34.9866 42.8989C35.0303 42.5111 34.95 42.1128 35.0407 41.7258C35.0677 41.6092 35.1926 41.46 35.0192 41.3993C35.0025 41.3938 34.9866 41.3914 34.9723 41.3914C34.8681 41.3914 34.8227 41.5318 34.775 41.6388Z" fill="white"/>
</mask>
<g mask="url(#mask4_4471_6169)">
<path fill-rule="evenodd" clip-rule="evenodd" d="M29.2393 48.3061H35.6794V40.8623H29.2393V48.3061Z" fill="#9B7B3A"/>
</g>
<mask id="mask5_4471_6169" style="mask-type:alpha" maskUnits="userSpaceOnUse" x="24" y="40" width="6" height="7">
<path d="M25.4071 40.7249C25.1255 41.2804 25.046 41.8957 24.8551 42.4783C24.6038 43.25 24.5759 44.0601 24.385 44.78C24.3834 45.195 24.5115 45.519 24.6936 45.8079C25.0516 46.3738 25.7062 46.44 26.1937 45.9739C26.3337 45.8414 26.4347 45.6722 26.5492 45.5174C26.6853 45.3355 26.8674 45.2118 27.0909 45.3019C27.4321 45.4408 27.654 45.27 27.8799 45.0801C27.9857 44.9907 28.0772 44.8973 28.2267 44.8606C28.7134 44.7457 29.0761 44.4488 29.3482 44.0545C29.5351 43.7832 29.7101 43.4983 29.7443 43.1607C29.7522 43.0832 29.757 42.9827 29.6512 42.9595C29.6114 42.95 29.5343 42.9899 29.5152 43.0266C29.3832 43.2748 29.1175 43.4089 28.9632 43.6307C28.6466 44.0864 28.0549 44.1271 27.6612 44.4615C27.6365 44.4823 27.5689 44.4839 27.5395 44.4663C27.1585 44.2453 26.9127 44.4911 26.6431 44.693C26.2144 45.0122 25.9225 44.9851 25.5176 44.626C25.0651 44.2221 25.1208 43.7074 25.2218 43.2109C25.3856 42.4113 25.602 41.6227 25.7913 40.8286C25.8247 40.6874 25.9034 40.4839 25.7276 40.4256C25.7006 40.4168 25.6767 40.4128 25.6552 40.4128C25.5057 40.4128 25.4683 40.6052 25.4071 40.7249Z" fill="white"/>
</mask>
<g mask="url(#mask5_4471_6169)">
<path fill-rule="evenodd" clip-rule="evenodd" d="M23.8943 46.9277H30.2421V39.8662H23.8943V46.9277Z" fill="#9B7B3A"/>
</g>
<mask id="mask6_4471_6169" style="mask-type:alpha" maskUnits="userSpaceOnUse" x="35" y="40" width="3" height="7">
<path d="M36.4541 41.3506C36.0604 42.0274 36.0317 42.8031 35.8575 43.5366C35.6961 44.2118 35.5044 44.8949 35.6468 45.61C35.7088 45.9229 35.8512 46.1575 36.1526 46.2477C36.4565 46.3403 36.7301 46.2469 36.9305 45.9891C37.2296 45.606 37.3783 45.1527 37.5231 44.7042C37.5962 44.4775 37.4968 44.2086 37.2709 44.116C37.0021 44.0067 36.9639 44.2972 36.8637 44.4568C36.8032 44.5526 36.7651 44.6826 36.6163 44.6627C36.4596 44.6411 36.4111 44.5143 36.392 44.381C36.3777 44.2828 36.3729 44.1814 36.3721 44.0809C36.3586 43.3554 36.5845 42.6699 36.7428 41.9723C36.8207 41.626 36.8915 41.2868 36.7515 40.9021C36.5766 41.0386 36.5376 41.2086 36.4541 41.3506Z" fill="white"/>
</mask>
<g mask="url(#mask6_4471_6169)">
<path fill-rule="evenodd" clip-rule="evenodd" d="M35.0161 46.8279H38.0823V40.4121H35.0161V46.8279Z" fill="#9B7B3A"/>
</g>
<mask id="mask7_4471_6169" style="mask-type:alpha" maskUnits="userSpaceOnUse" x="18" y="43" width="3" height="4">
<path d="M19.7997 43.8789C19.6986 44.0489 19.635 44.2413 19.5563 44.424C19.4155 44.7536 19.5086 45.0194 19.8172 45.1902C20.082 45.3363 20.0057 45.4504 19.8331 45.606C19.4974 45.9061 19.1125 46.1343 18.7275 46.3642C18.6177 46.4288 18.4857 46.515 18.5557 46.6699C18.6313 46.8406 18.7808 46.7513 18.8985 46.7217C20.1122 46.4217 20.9243 45.424 20.9601 44.1471C21.0237 43.784 20.8567 43.4591 20.4574 43.3618C20.4177 43.3522 20.3803 43.3474 20.3453 43.3474C20.0582 43.3474 19.9341 43.6539 19.7997 43.8789Z" fill="white"/>
</mask>
<g mask="url(#mask7_4471_6169)">
<path fill-rule="evenodd" clip-rule="evenodd" d="M17.9976 47.3289H21.5099V42.7822H17.9976V47.3289Z" fill="#9B7B3A"/>
</g>
<mask id="mask8_4471_6169" style="mask-type:alpha" maskUnits="userSpaceOnUse" x="20" y="42" width="4" height="5">
<path d="M22.617 42.8711C22.2288 43.006 21.964 44.0459 22.2455 44.3268C22.6416 44.7227 22.6217 44.9613 22.1413 45.2845C21.9067 45.4425 21.6482 45.5726 21.4064 45.7243C21.2815 45.8033 21.1567 45.8903 21.0573 45.9932C20.922 46.1321 20.9419 46.247 21.175 46.2781C21.5623 46.3316 22.5526 45.8671 22.6965 45.5367C22.8007 45.3013 22.9455 45.093 23.1014 44.8879C23.3082 44.6149 23.4028 44.3148 23.4068 43.9373C23.4394 43.5694 23.2652 43.2326 22.9009 42.9709C22.8341 42.923 22.7713 42.8591 22.6838 42.8591C22.6631 42.8591 22.6408 42.8623 22.617 42.8711Z" fill="white"/>
</mask>
<g mask="url(#mask8_4471_6169)">
<path fill-rule="evenodd" clip-rule="evenodd" d="M20.4346 46.8195H23.9263V42.3374H20.4346V46.8195Z" fill="#9B7B3A"/>
</g>
<mask id="mask9_4471_6169" style="mask-type:alpha" maskUnits="userSpaceOnUse" x="16" y="37" width="3" height="3">
<path d="M17.6607 37.8377C17.5868 37.9813 17.5168 38.1306 17.4189 38.3277C17.3625 38.2391 17.3314 38.1904 17.2996 38.1409C16.9711 37.619 16.7739 37.6166 16.4685 38.1489C16.3659 38.3285 16.2927 38.5328 16.2036 38.7243C16.1344 38.8744 16.0191 39.05 16.1805 39.1808C16.3547 39.3229 16.5408 39.5496 16.7858 39.3668C16.9163 39.2686 17.0316 39.133 17.1421 39.0005C17.2249 38.9007 17.2885 38.8648 17.4142 38.9223C17.9797 39.1808 18.2374 39.0444 18.4847 38.3875C18.6112 38.0515 18.4982 37.7163 18.1904 37.5352C18.1244 37.4961 18.0664 37.4785 18.0155 37.4785C17.8492 37.4785 17.7538 37.6597 17.6607 37.8377Z" fill="white"/>
</mask>
<g mask="url(#mask9_4471_6169)">
<path fill-rule="evenodd" clip-rule="evenodd" d="M15.5317 40.0379H19.099V36.8774H15.5317V40.0379Z" fill="#9B7B3A"/>
</g>
<mask id="mask10_4471_6169" style="mask-type:alpha" maskUnits="userSpaceOnUse" x="5" y="44" width="4" height="3">
<path d="M7.94921 44.4219C7.78775 44.6989 7.57141 44.7875 7.26916 44.6486C7.22542 44.6286 7.15145 44.6454 7.10452 44.6694C6.53186 44.9678 6.06736 45.3709 5.87726 46.0149C5.81363 46.2264 5.94964 46.3405 6.12383 46.2536C6.40062 46.1139 6.6623 46.0923 6.91363 46.1785C7.47278 46.169 8.37394 45.0724 8.2936 44.5409C8.28167 44.4531 8.26577 44.3677 8.16873 44.3365C8.14725 44.3294 8.12578 44.3262 8.1051 44.3262C8.03988 44.3262 7.985 44.3613 7.94921 44.4219Z" fill="white"/>
</mask>
<g mask="url(#mask10_4471_6169)">
<path fill-rule="evenodd" clip-rule="evenodd" d="M5.3269 46.8289H8.85994V43.8169H5.3269V46.8289Z" fill="#9B7B3A"/>
</g>
<mask id="mask11_4471_6169" style="mask-type:alpha" maskUnits="userSpaceOnUse" x="38" y="43" width="3" height="4">
<path d="M40.1366 43.5374C40.0738 43.6555 40.0046 43.7768 39.9719 43.9045C39.8025 44.5677 39.4088 45.0513 38.8552 45.4193C38.6111 45.5797 38.3796 45.76 38.1482 45.938C38.0726 45.9955 38.0121 46.0745 38.0424 46.1814C38.0646 46.2564 38.1386 46.2987 38.1983 46.2764C38.6405 46.1056 39.1837 46.0912 39.5003 45.7257C40.0109 45.1359 40.3155 44.4105 40.4651 43.6299C40.4706 43.519 40.4985 43.3921 40.3633 43.3538C40.3474 43.3498 40.333 43.3474 40.3195 43.3474C40.2201 43.3474 40.1795 43.4568 40.1366 43.5374Z" fill="white"/>
</mask>
<g mask="url(#mask11_4471_6169)">
<path fill-rule="evenodd" clip-rule="evenodd" d="M37.5229 46.7875H40.986V42.8274H37.5229V46.7875Z" fill="#9B7B3A"/>
</g>
<mask id="mask12_4471_6169" style="mask-type:alpha" maskUnits="userSpaceOnUse" x="30" y="38" width="2" height="5">
<path d="M31.4304 39.1852C30.8832 40.0328 30.9357 41.0911 30.7345 42.0607C30.7106 42.1733 30.709 42.3385 30.8474 42.3664C30.9723 42.3912 31.0176 42.2531 31.0661 42.1398C31.4272 41.301 31.5489 40.384 31.6738 39.4678C31.6762 39.4127 31.6825 39.3576 31.6794 39.3017C31.6746 39.1836 31.7478 39.02 31.6284 38.961C31.607 38.9506 31.5887 38.9458 31.5736 38.9458C31.4805 38.9458 31.4773 39.1118 31.4304 39.1852Z" fill="white"/>
</mask>
<g mask="url(#mask12_4471_6169)">
<path fill-rule="evenodd" clip-rule="evenodd" d="M30.2209 42.8806H32.234V38.3977H30.2209V42.8806Z" fill="#9B7B3A"/>
</g>
<mask id="mask13_4471_6169" style="mask-type:alpha" maskUnits="userSpaceOnUse" x="31" y="42" width="3" height="3">
<path d="M31.9391 43.4385C31.8604 43.595 31.8023 43.761 31.7403 43.9246C31.5605 44.3939 31.9861 44.5096 32.2414 44.7219C32.4983 44.935 32.651 44.741 32.8013 44.567C33.0185 44.3164 33.1656 44.0411 33.1584 43.8256C33.1616 43.2518 32.923 42.9094 32.5301 42.8639C32.5038 42.8607 32.4792 42.8591 32.4553 42.8591C32.1006 42.8591 32.06 43.1991 31.9391 43.4385Z" fill="white"/>
</mask>
<g mask="url(#mask13_4471_6169)">
<path fill-rule="evenodd" clip-rule="evenodd" d="M31.072 45.4235H33.6514V42.3237H31.072V45.4235Z" fill="#9B7B3A"/>
</g>
<mask id="mask14_4471_6169" style="mask-type:alpha" maskUnits="userSpaceOnUse" x="12" y="46" width="2" height="3">
<path d="M12.6061 47.14C12.5178 47.2309 12.4566 47.3419 12.3747 47.4384C12.2077 47.6348 12.1043 47.8407 12.3238 48.0506C12.5345 48.2517 12.8241 48.2868 13.0873 48.1791C13.423 48.0402 13.5996 47.772 13.6608 47.4592C13.621 47.1447 13.4405 46.9069 13.1279 46.7968C13.0778 46.7792 13.034 46.7712 12.9959 46.7712C12.7811 46.7712 12.7286 47.0131 12.6061 47.14Z" fill="white"/>
</mask>
<g mask="url(#mask14_4471_6169)">
<path fill-rule="evenodd" clip-rule="evenodd" d="M11.616 48.7751H14.1484V46.1909H11.616V48.7751Z" fill="#9B7B3A"/>
</g>
<mask id="mask15_4471_6169" style="mask-type:alpha" maskUnits="userSpaceOnUse" x="39" y="39" width="1" height="2">
<path d="M39.2935 39.6891C39.2013 39.8663 39.1361 40.0674 39.0669 40.2629C38.9269 40.6652 39.0366 40.8751 39.4447 40.8958C39.6308 40.9357 39.7771 40.7881 39.8765 40.5287C39.9855 40.2438 40.042 39.9493 39.8972 39.6715C39.8153 39.5135 39.7095 39.4353 39.6037 39.4353C39.4932 39.4353 39.381 39.5199 39.2935 39.6891Z" fill="white"/>
</mask>
<g mask="url(#mask15_4471_6169)">
<path fill-rule="evenodd" clip-rule="evenodd" d="M38.4375 41.4243H40.5285V38.8584H38.4375V41.4243Z" fill="#9B7B3A"/>
</g>
<mask id="mask16_4471_6169" style="mask-type:alpha" maskUnits="userSpaceOnUse" x="7" y="38" width="2" height="2">
<path d="M8.02324 38.8293C7.94768 38.9793 7.89518 39.1477 7.8403 39.3121C7.73929 39.609 7.91347 39.9139 8.1847 39.9234C8.49728 39.9346 8.88144 39.2961 8.76532 38.937C8.69612 38.7223 8.60783 38.4917 8.38513 38.4597C8.37161 38.4573 8.35888 38.4565 8.34695 38.4565C8.16243 38.4565 8.10277 38.672 8.02324 38.8293Z" fill="white"/>
</mask>
<g mask="url(#mask16_4471_6169)">
<path fill-rule="evenodd" clip-rule="evenodd" d="M7.25244 40.423H9.36813V37.9377H7.25244V40.423Z" fill="#9B7B3A"/>
</g>
<mask id="mask17_4471_6169" style="mask-type:alpha" maskUnits="userSpaceOnUse" x="27" y="40" width="2" height="2">
<path d="M27.6627 40.5094C27.5036 40.7433 27.3605 40.9899 27.3159 41.2883C27.2801 41.5342 27.4058 41.6938 27.5744 41.8175C27.6969 41.9093 27.8242 41.9021 27.9324 41.7848C28.1336 41.5637 28.2417 41.2875 28.2847 40.9771C28.295 40.7209 28.1527 40.5828 27.9848 40.4687C27.9331 40.4336 27.8791 40.4128 27.8282 40.4128C27.7669 40.4128 27.7096 40.4424 27.6627 40.5094Z" fill="white"/>
</mask>
<g mask="url(#mask17_4471_6169)">
<path fill-rule="evenodd" clip-rule="evenodd" d="M26.7917 42.397H28.7818V39.8958H26.7917V42.397Z" fill="#9B7B3A"/>
</g>
<mask id="mask18_4471_6169" style="mask-type:alpha" maskUnits="userSpaceOnUse" x="11" y="37" width="3" height="3">
<path d="M12.1011 38.2766C11.9468 38.4522 11.8251 38.6541 11.7345 38.8576C11.6223 39.1082 11.9445 39.4482 12.2507 39.4347C12.6396 39.4163 13.2656 38.8074 13.1622 38.5073C13.0874 38.287 12.9442 38.0611 12.6428 37.9837C12.5998 37.9726 12.5617 37.9678 12.5259 37.9678C12.3087 37.9678 12.2101 38.1537 12.1011 38.2766Z" fill="white"/>
</mask>
<g mask="url(#mask18_4471_6169)">
<path fill-rule="evenodd" clip-rule="evenodd" d="M11.1331 39.9372H13.7514V37.4153H11.1331V39.9372Z" fill="#9B7B3A"/>
</g>
<mask id="mask19_4471_6169" style="mask-type:alpha" maskUnits="userSpaceOnUse" x="7" y="41" width="2" height="3">
<path d="M8.0264 41.9588C7.8212 42.0889 7.68519 42.2749 7.65655 42.5343C7.64303 42.6611 7.63746 42.7633 7.48237 42.7912C7.32966 42.8184 7.3042 42.962 7.33602 43.1057C7.36863 43.2485 7.46089 43.3307 7.5794 43.3475C7.87369 43.3651 8.24751 42.8702 8.12026 42.6188C8.01606 42.4105 8.04072 42.2996 8.21093 42.1799C8.29046 42.1232 8.33341 42.0163 8.26422 41.9277C8.23797 41.8934 8.21013 41.8806 8.18229 41.8806C8.129 41.8806 8.07571 41.9277 8.0264 41.9588Z" fill="white"/>
</mask>
<g mask="url(#mask19_4471_6169)">
<path fill-rule="evenodd" clip-rule="evenodd" d="M6.81616 43.8535H8.82129V41.3372H6.81616V43.8535Z" fill="#9B7B3A"/>
</g>
<mask id="mask20_4471_6169" style="mask-type:alpha" maskUnits="userSpaceOnUse" x="44" y="39" width="2" height="3">
<path d="M44.9562 40.1712C44.9053 40.2637 44.8838 40.3867 44.9244 40.4824C45.0978 40.8966 45.0278 41.2885 44.883 41.6788C44.86 41.741 44.8377 41.8184 44.8926 41.8607C44.9634 41.9166 45.0119 41.8432 45.0381 41.7705C45.1829 41.3691 45.3857 40.99 45.3388 40.5319C45.3388 40.4266 45.3436 40.3436 45.3372 40.2637C45.3277 40.1329 45.3467 39.9669 45.2139 39.9301C45.1996 39.9262 45.1861 39.9246 45.1734 39.9246C45.0628 39.9246 45.0135 40.0666 44.9562 40.1712Z" fill="white"/>
</mask>
<g mask="url(#mask20_4471_6169)">
<path fill-rule="evenodd" clip-rule="evenodd" d="M44.3496 42.4043H45.8322V39.4011H44.3496V42.4043Z" fill="#9B7B3A"/>
</g>
</svg>
