<svg width="30" height="49" viewBox="0 0 30 49" fill="none" xmlns="http://www.w3.org/2000/svg">
<path fill-rule="evenodd" clip-rule="evenodd" d="M23.0291 22.1176H4.76438C4.52066 22.1176 4.32349 21.9793 4.32349 21.8086C4.32349 21.638 4.52066 21.5 4.76438 21.5H23.0291C23.2729 21.5 23.4705 21.638 23.4705 21.8086C23.4705 21.9793 23.2729 22.1176 23.0291 22.1176Z" fill="#239A96"/>
<path fill-rule="evenodd" clip-rule="evenodd" d="M24.8822 24.5883H6.6174C6.37368 24.5883 6.17651 24.4503 6.17651 24.2797C6.17651 24.1091 6.37368 23.9707 6.6174 23.9707H24.8822C25.1259 23.9707 25.3236 24.1091 25.3236 24.2797C25.3236 24.4503 25.1259 24.5883 24.8822 24.5883Z" fill="#239A96"/>
<path fill-rule="evenodd" clip-rule="evenodd" d="M23.0291 27.0588H4.76438C4.52066 27.0588 4.32349 26.9208 4.32349 26.7502C4.32349 26.5796 4.52066 26.4412 4.76438 26.4412H23.0291C23.2729 26.4412 23.4705 26.5796 23.4705 26.7502C23.4705 26.9208 23.2729 27.0588 23.0291 27.0588Z" fill="#239A96"/>
<path fill-rule="evenodd" clip-rule="evenodd" d="M11.5204 31.9947C7.98661 31.9947 4.45232 31.9952 0.918546 31.9947C0.016229 31.9947 -0.210782 31.6233 0.191173 30.8091C0.390589 30.4057 0.613955 30.0128 0.787858 29.5983C1.02268 29.0379 1.41995 28.8319 2.01559 28.8325C8.53175 28.843 15.0474 28.8356 21.5641 28.8393C22.1503 28.8398 22.7241 28.7905 23.2817 28.6014C25.4967 27.8491 26.8306 25.6419 26.4687 23.3275C26.1131 21.0583 24.1143 19.3785 21.7614 19.378C16.6021 19.3769 11.4433 19.3832 6.2835 19.3759C4.10868 19.3727 2.37277 18.1041 1.75213 16.1007C1.60426 15.6232 1.54022 15.1326 1.54022 14.6341C1.53866 10.5879 1.54387 6.54115 1.53345 2.49544C1.53189 1.93181 1.7386 1.55361 2.25354 1.32143C2.72891 1.10712 3.18553 0.850782 3.65465 0.620184C4.24769 0.328654 4.65486 0.580263 4.65538 1.24789C4.65954 4.10595 4.65746 6.964 4.65746 9.82205C4.65746 11.2209 4.70848 12.6223 4.64288 14.018C4.58092 15.338 5.26924 16.2762 6.8755 16.2599C11.8406 16.211 16.8062 16.2362 21.7718 16.2447C25.4935 16.251 28.6253 18.745 29.4433 22.3311C30.5664 27.2545 26.9071 31.9537 21.8983 31.9884C18.439 32.012 14.9797 31.9931 11.5204 31.9931V31.9947Z" fill="#239A96"/>
<path d="M24.8284 44.7499C24.9539 44.7499 25.0827 44.7376 25.215 44.7131C25.3473 44.6885 25.4748 44.6483 25.5975 44.5924C25.7202 44.5365 25.8355 44.4656 25.9432 44.3797C26.0509 44.2938 26.145 44.1895 26.2255 44.0667C26.3059 43.944 26.3693 43.8022 26.4157 43.6413C26.4621 43.4804 26.4852 43.2976 26.4852 43.0931C26.4852 42.7713 26.4389 42.4931 26.3461 42.2585C26.2534 42.024 26.1314 41.8304 25.98 41.6776C25.8286 41.5249 25.6561 41.4117 25.4625 41.3381C25.2689 41.2645 25.0725 41.2276 24.8734 41.2276C24.7043 41.2276 24.5427 41.2529 24.3886 41.3033C24.2346 41.3538 24.0873 41.4226 23.9468 41.5099C23.8064 41.5972 23.6727 41.7015 23.5459 41.8229C23.4191 41.9442 23.2971 42.0745 23.1798 42.2136V38.9122H22.4107V43.3181C22.3398 43.4245 22.2716 43.5349 22.2061 43.6495C22.1407 43.764 22.0739 43.8731 22.0057 43.9767H21.0893V44.7499H24.8284ZM24.8284 43.9767H22.918C22.918 43.9713 22.9207 43.9658 22.9261 43.9604C23.0134 43.8158 23.1048 43.6665 23.2002 43.5124C23.2957 43.3583 23.3946 43.2083 23.4968 43.0624C23.5991 42.9165 23.7048 42.7788 23.8139 42.6492C23.923 42.5197 24.0355 42.4065 24.1514 42.3097C24.2673 42.2129 24.3852 42.1365 24.5052 42.0806C24.6252 42.0247 24.748 41.9967 24.8734 41.9967C25.138 41.9967 25.3439 42.0929 25.4911 42.2851C25.6384 42.4774 25.7121 42.7467 25.7121 43.0931C25.7121 43.2731 25.6861 43.4231 25.6343 43.5431C25.5825 43.6631 25.5021 43.7586 25.393 43.8295C25.3411 43.8622 25.2873 43.8881 25.2314 43.9072C25.1755 43.9263 25.1216 43.9413 25.0698 43.9522C25.018 43.9631 24.9709 43.9699 24.9286 43.9726C24.8864 43.9754 24.853 43.9767 24.8284 43.9767ZM21.253 44.7499V43.9767C20.9966 43.974 20.8036 43.9583 20.6741 43.9297C20.5446 43.9011 20.4477 43.8465 20.3836 43.7661C20.3196 43.6856 20.28 43.5717 20.265 43.4245C20.25 43.2772 20.2425 43.0849 20.2425 42.8476V38.9122H19.4693V42.8476C19.4693 43.0604 19.4761 43.254 19.4898 43.4285C19.5034 43.6031 19.5321 43.7606 19.5757 43.9011C19.6193 44.0415 19.68 44.1642 19.7577 44.2692C19.8355 44.3742 19.9391 44.4615 20.0686 44.5311C20.1982 44.6006 20.3564 44.6538 20.5432 44.6906C20.73 44.7274 20.9666 44.7472 21.253 44.7499ZM15.9675 39.5463L16.6221 38.8917L15.9593 38.229L15.3211 38.8917L15.9675 39.5463ZM17.5343 39.5545L18.1889 38.8999L17.5261 38.2372L16.888 38.8999L17.5343 39.5545ZM16.1393 44.7499C16.8239 44.7499 17.3475 44.634 17.7102 44.4022C17.9284 44.2713 18.0914 44.1008 18.1991 43.8908C18.3068 43.6808 18.3607 43.4408 18.3607 43.1708V42.6063C18.3607 42.2326 18.3252 41.9013 18.2543 41.6122C18.1834 41.3231 18.0743 41.0804 17.9271 40.884C17.7907 40.6958 17.623 40.5513 17.4239 40.4504C17.2248 40.3495 17.0066 40.299 16.7693 40.299C16.5621 40.299 16.3671 40.3358 16.1843 40.4095C16.0016 40.4831 15.8393 40.5908 15.6975 40.7326C15.5557 40.8745 15.4466 41.0442 15.3702 41.242C15.2939 41.4397 15.2557 41.649 15.2557 41.8699C15.2557 42.0472 15.2755 42.202 15.315 42.3342C15.3546 42.4665 15.405 42.5811 15.4664 42.6779C15.5277 42.7747 15.5966 42.8558 15.673 42.9213C15.7493 42.9867 15.8243 43.0413 15.898 43.0849C15.988 43.134 16.0807 43.1736 16.1761 43.2036C16.2716 43.2336 16.3664 43.2561 16.4605 43.2711C16.5546 43.2861 16.6452 43.2963 16.7325 43.3017C16.8198 43.3072 16.8989 43.3099 16.9698 43.3099H17.5916C17.5834 43.3808 17.5609 43.4551 17.5241 43.5329C17.4873 43.6106 17.4171 43.6822 17.3134 43.7476C17.2098 43.8131 17.0646 43.8676 16.8777 43.9113C16.6909 43.9549 16.4448 43.9767 16.1393 43.9767H14.323V44.7499H16.1393ZM17.5998 42.5367H16.9698C16.8143 42.5367 16.6793 42.5265 16.5648 42.5061C16.4502 42.4856 16.3534 42.4522 16.2743 42.4058C16.2443 42.3895 16.213 42.369 16.1802 42.3445C16.1475 42.3199 16.1161 42.2879 16.0861 42.2483C16.0561 42.2088 16.0316 42.1583 16.0125 42.097C15.9934 42.0356 15.9839 41.9599 15.9839 41.8699C15.9839 41.7308 16.0077 41.6108 16.0555 41.5099C16.1032 41.409 16.1646 41.3265 16.2396 41.2624C16.3146 41.1983 16.3991 41.1506 16.4932 41.1192C16.5873 41.0879 16.6793 41.0722 16.7693 41.0722C16.9984 41.0722 17.1784 41.1595 17.3093 41.334C17.3966 41.4622 17.4655 41.6272 17.5159 41.829C17.5664 42.0308 17.5943 42.2667 17.5998 42.5367ZM9.2216 44.7499C9.4916 44.7499 9.76228 44.726 10.0336 44.6783C10.305 44.6306 10.5696 44.5679 10.8273 44.4901C11.085 44.4124 11.3339 44.3238 11.5739 44.2242C11.8139 44.1247 12.0389 44.0231 12.2489 43.9195C12.3307 44.1076 12.4507 44.2685 12.6089 44.4022C12.748 44.5167 12.9041 44.6033 13.0773 44.662C13.2505 44.7206 13.4366 44.7499 13.6357 44.7499H14.4948V43.9767H13.6357C13.6084 43.9767 13.5621 43.9733 13.4966 43.9665C13.4311 43.9597 13.3616 43.942 13.288 43.9133C13.2143 43.8847 13.1441 43.8424 13.0773 43.7865C13.0105 43.7306 12.9621 43.6522 12.9321 43.5513C13.1311 43.434 13.2907 43.3345 13.4107 43.2526C13.5307 43.1708 13.5989 43.1245 13.6152 43.1135L13.513 42.4345L12.0648 41.8985C11.7948 41.7922 11.563 41.7029 11.3693 41.6306C11.1757 41.5583 11.0107 41.499 10.8743 41.4526C10.738 41.4063 10.6275 41.3701 10.543 41.3442C10.4584 41.3183 10.3896 41.2992 10.3364 41.287C10.2832 41.2747 10.2436 41.2679 10.2177 41.2665C10.1918 41.2651 10.1693 41.2645 10.1502 41.2645C9.4766 41.2645 9.03478 41.6681 8.82478 42.4754L9.57342 42.6717C9.61433 42.5163 9.65796 42.3956 9.70433 42.3097C9.75069 42.2238 9.79842 42.1604 9.84751 42.1195C9.8966 42.0786 9.94637 42.054 9.99683 42.0458C10.0473 42.0376 10.0957 42.0335 10.1421 42.0335C10.1939 42.0417 10.2982 42.0704 10.455 42.1195C10.6118 42.1686 10.7993 42.232 11.0175 42.3097C11.2357 42.3874 11.4764 42.4767 11.7396 42.5776C12.0027 42.6786 12.2666 42.7822 12.5311 42.8885C12.3402 43.0004 12.118 43.1197 11.8643 43.2465C11.6107 43.3733 11.3393 43.4906 11.0502 43.5983C10.7611 43.706 10.4605 43.7961 10.1482 43.8683C9.83592 43.9406 9.52705 43.9767 9.2216 43.9767H8.07206V44.7499H9.2216ZM11.7498 46.9058L12.4125 46.2431L11.758 45.5886L11.1116 46.2431L11.7498 46.9058ZM10.183 46.914L10.8457 46.2513L10.1911 45.5967L9.54478 46.2513L10.183 46.914ZM10.993 48.0226L11.5575 47.4376L10.9766 46.869L10.4039 47.4376L10.993 48.0226ZM8.23569 44.7499V43.9767H8.13342C8.03251 43.9767 7.91728 43.9665 7.78774 43.946C7.65819 43.9256 7.53069 43.882 7.40524 43.8151C7.27978 43.7483 7.16387 43.6529 7.05751 43.5288C6.95115 43.4047 6.87069 43.2404 6.81615 43.0358C6.79706 42.9731 6.77524 42.894 6.75069 42.7985C6.72615 42.7031 6.70024 42.6008 6.67296 42.4917C6.64569 42.3826 6.61842 42.2708 6.59115 42.1563C6.56387 42.0417 6.53796 41.9347 6.51342 41.8351C6.48887 41.7356 6.46774 41.6476 6.45001 41.5713C6.43228 41.4949 6.41933 41.4404 6.41115 41.4076C6.37296 41.2385 6.32933 41.0483 6.28024 40.837C6.23115 40.6256 6.17387 40.3835 6.10842 40.1108L5.35569 40.2704L5.43342 40.7122C4.7516 40.914 4.22387 41.2058 3.85024 41.5876C3.63751 41.8086 3.49637 42.0267 3.42683 42.2422C3.35728 42.4576 3.32251 42.6526 3.32251 42.8272C3.32251 42.9308 3.33206 43.0358 3.35115 43.1422C3.38933 43.374 3.46774 43.5751 3.58637 43.7456C3.70501 43.916 3.86251 44.0531 4.05887 44.1567C4.18706 44.2276 4.31865 44.2781 4.45365 44.3081C4.58865 44.3381 4.72024 44.3531 4.84842 44.3531C4.9766 44.3531 5.09796 44.3422 5.21251 44.3204C5.32706 44.2985 5.42796 44.2699 5.51524 44.2345C5.66796 44.1663 5.80501 44.0879 5.92637 43.9992C6.04774 43.9106 6.15206 43.8063 6.23933 43.6863C6.41387 44.0217 6.6641 44.2829 6.99001 44.4697C7.31592 44.6565 7.69706 44.7499 8.13342 44.7499H8.23569ZM4.87296 43.5799H4.83206C4.76115 43.5799 4.69024 43.5724 4.61933 43.5574C4.54842 43.5424 4.48296 43.5172 4.42296 43.4817C4.33842 43.4354 4.26478 43.3733 4.20206 43.2956C4.13933 43.2179 4.09842 43.1217 4.07933 43.0072C4.06842 42.9499 4.06296 42.894 4.06296 42.8395C4.06296 42.7331 4.08206 42.6295 4.12024 42.5285C4.17751 42.3758 4.27365 42.2333 4.40865 42.101C4.54365 41.9688 4.71478 41.8481 4.92206 41.739C5.12933 41.6299 5.36796 41.5358 5.63796 41.4567L5.79751 42.1604C5.80569 42.1985 5.81387 42.2545 5.82206 42.3281C5.83024 42.4017 5.83433 42.459 5.83433 42.4999C5.83433 42.5763 5.82887 42.6581 5.81796 42.7454C5.76069 43.119 5.56024 43.3767 5.2166 43.5185C5.16478 43.5404 5.10887 43.5561 5.04887 43.5656C4.98887 43.5751 4.93024 43.5799 4.87296 43.5799Z" fill="#239A96"/>
</svg>
