<svg width="92" height="92" viewBox="0 0 92 92" fill="none" xmlns="http://www.w3.org/2000/svg">
<path d="M91 1H1V91H91V1Z" stroke="#55A2E7" stroke-opacity="0.595597"/>
<mask id="mask0_472:4700" style="mask-type:alpha" maskUnits="userSpaceOnUse" x="30" y="22" width="25" height="24">
<path d="M30.4388 22H54.2108V45.857H30.4388V22Z" fill="white"/>
</mask>
<g mask="url(#mask0_472:4700)">
<path fill-rule="evenodd" clip-rule="evenodd" d="M37.6808 29.0528C37.7445 29.0881 37.815 29.0705 37.8822 29.0705C43.2311 29.0705 48.5791 29.0705 53.928 29.0705C54.2108 29.0705 54.2108 29.0705 54.2108 29.3567C54.2108 30.3554 54.2108 31.3534 54.21 32.3521C54.21 32.5552 54.2041 32.5628 54.0018 32.5628H37.732C37.5272 32.5628 37.5154 32.5494 37.5154 32.3395V29.4045V29.2333C37.502 29.2283 37.4886 29.2241 37.4768 29.2199C37.3165 29.3928 37.1528 29.5623 36.9992 29.7402C36.0911 30.7852 35.3886 31.9551 34.8926 33.246C34.6786 33.8016 34.5157 34.3732 34.3831 34.9565C34.1548 35.9662 34.0919 36.9868 34.1255 38.0166C34.1574 39.0078 34.3294 39.9772 34.6165 40.9264C35.0311 42.3012 35.679 43.5543 36.5494 44.6941C36.8213 45.0499 37.1142 45.3865 37.4239 45.7088C37.4533 45.7398 37.5053 45.7667 37.4869 45.8171C37.4676 45.8708 37.4105 45.854 37.3685 45.854C35.914 45.8548 34.4578 45.854 33.0033 45.8557C32.9076 45.8557 32.8464 45.8204 32.7969 45.7398C32.0541 44.5447 31.4708 43.279 31.0704 41.9269C30.6432 40.485 30.42 39.0187 30.4401 37.5113C30.451 36.7308 30.4611 35.9519 30.587 35.1814C30.759 34.1323 31.0133 33.1041 31.3877 32.1054C31.8014 30.9983 32.331 29.9526 32.9798 28.9656C33.6714 27.9156 34.4797 26.9638 35.402 26.1111C36.4915 25.1048 37.6984 24.268 39.027 23.6041C40.0308 23.1039 41.0741 22.7119 42.1601 22.4433C43.2554 22.1722 44.3658 22.0002 45.4989 21.9992C46.3784 21.9985 47.2572 21.9952 48.1284 22.132C48.9526 22.2612 49.765 22.4358 50.5615 22.6876C51.5972 23.0141 52.5868 23.4438 53.536 23.9717C53.6468 24.0338 53.6703 24.0842 53.6149 24.2017C53.1063 25.2902 52.2594 25.9718 51.102 26.258C50.4935 26.4099 49.8884 26.3419 49.2841 26.1539C48.7318 25.9818 48.162 25.8702 47.5862 25.788C46.9047 25.6906 46.2223 25.6646 45.5366 25.6797C44.6503 25.6998 43.78 25.8324 42.9222 26.0565C41.7463 26.3629 40.6468 26.8455 39.6179 27.4909C38.9506 27.9089 38.3388 28.3973 37.7647 28.9345C37.7353 28.9622 37.7093 28.9916 37.6841 29.0218C37.6791 29.0277 37.6816 29.0394 37.6808 29.0528Z" fill="#006BB8"/>
</g>
<path fill-rule="evenodd" clip-rule="evenodd" d="M45.8626 52.9764C45.051 53.0208 44.1764 52.9403 43.3103 52.7867C42.1008 52.5727 40.9258 52.2344 39.797 51.7392C39.2657 51.5059 38.747 51.244 38.2392 50.9629C38.0235 50.8429 38.0202 50.8361 38.1393 50.6263C38.564 49.8768 39.1373 49.2834 39.9304 48.9192C40.5817 48.6196 41.2666 48.5449 41.9666 48.6632C42.3073 48.7211 42.6338 48.8512 42.9704 48.9402C43.6569 49.1206 44.3552 49.2364 45.0661 49.2809C45.8601 49.3296 46.6532 49.3212 47.4438 49.2205C48.6776 49.0627 49.8602 48.7194 50.9849 48.1881C52.0743 47.6745 53.0571 47.0022 53.9467 46.1889C54.781 45.4243 55.4835 44.554 56.0685 43.5913C56.5763 42.757 56.9632 41.8665 57.2486 40.9307C57.6497 39.6222 57.8025 38.2827 57.7412 36.9197C57.7077 36.1559 57.5952 35.4022 57.4114 34.6569C57.126 33.5004 56.6787 32.4135 56.0677 31.3954C55.6698 30.7298 55.2091 30.1062 54.6811 29.5363C54.5628 29.4088 54.4411 29.2854 54.3194 29.1612C54.2942 29.136 54.269 29.1091 54.2816 29.0714C54.2976 29.0235 54.3395 29.0235 54.3798 29.0235C55.7999 29.021 57.2192 29.0227 58.6393 29.0117C58.8491 29.0101 58.9717 29.0764 59.0816 29.2569C59.7421 30.337 60.2868 31.4709 60.6788 32.6745C60.8483 33.1974 60.9801 33.732 61.1043 34.2692C61.4367 35.696 61.482 37.1421 61.4065 38.5907C61.3469 39.7062 61.1253 40.8006 60.8097 41.8766C60.3968 43.2833 59.7933 44.6001 59.0069 45.8322C58.2641 46.9972 57.3778 48.0446 56.3522 48.9729C55.4684 49.7728 54.5124 50.4702 53.4692 51.0468C52.4771 51.5966 51.4406 52.0389 50.3495 52.3595C48.9059 52.7825 47.4405 53.0234 45.8626 52.9764Z" fill="#006BB8"/>
<path fill-rule="evenodd" clip-rule="evenodd" d="M45.8917 41.4386H37.8017C37.7472 41.4386 37.6926 41.4386 37.638 41.4369C37.5617 41.4336 37.5172 41.3966 37.5163 41.3169C37.5155 41.2817 37.5155 41.2472 37.5155 41.2128V38.1737C37.5155 37.9639 37.5264 37.9521 37.732 37.9521H54.0464C54.2545 37.9521 54.2663 37.9631 54.2663 38.1704V41.1801C54.2663 41.4386 54.2663 41.4386 54.012 41.4386H45.8917Z" fill="#006BB8"/>
<path fill-rule="evenodd" clip-rule="evenodd" d="M45.9231 45.8539H37.8499C37.7953 45.8539 37.7408 45.8531 37.6862 45.8523C37.6065 45.8506 37.5696 45.8086 37.5696 45.7306C37.5696 45.6256 37.5687 45.5216 37.5687 45.4175V42.6168C37.5687 42.3641 37.5696 42.3633 37.8289 42.3633H54.0199C54.2608 42.3633 54.2658 42.3683 54.2658 42.6016V45.6105C54.2658 45.8489 54.2616 45.8539 54.0258 45.8539H45.9231Z" fill="#006BB8"/>
<path fill-rule="evenodd" clip-rule="evenodd" d="M45.9102 36.9735H37.8344C37.5692 36.9735 37.5692 36.9735 37.5692 36.7016V33.7069C37.5692 33.4988 37.581 33.4854 37.7866 33.4854C43.2043 33.4854 48.6228 33.4854 54.0414 33.4854C54.2512 33.4854 54.2663 33.5021 54.2663 33.7178V36.7427C54.2663 36.9676 54.2596 36.9735 54.0296 36.9735H45.9102Z" fill="#006BB8"/>
<path fill-rule="evenodd" clip-rule="evenodd" d="M68.5263 62.9745C68.3826 62.9812 68.2265 62.9458 68.124 63.0942C68.0254 63.2398 68.0493 63.5683 68.1719 63.7407C68.2801 63.892 68.4784 63.9456 68.691 63.8843C68.9266 63.8163 69.0789 63.6593 69.1717 63.439C69.2426 63.2695 69.1919 63.1431 69.0233 63.0665C68.8662 62.9946 68.6986 62.9707 68.5263 62.9745ZM68.1326 62.2888C68.237 62.2562 68.2744 62.1959 68.3213 62.1499C69.256 61.2344 70.2041 60.3332 71.0603 59.341C71.1513 59.2337 71.2337 59.1179 71.3247 59.0087C71.3601 58.9646 71.385 58.8756 71.4626 58.9206C71.5334 58.9608 71.4875 59.0365 71.4693 59.091C71.3476 59.455 71.1714 59.7892 70.9196 60.0794C70.5413 60.5161 70.1381 60.9298 69.733 61.3416C69.4035 61.6768 69.0798 62.0168 68.7494 62.3511C68.6603 62.4411 68.6575 62.4708 68.7944 62.4957C69.0721 62.5483 69.3422 62.6374 69.6238 62.6642C69.8632 62.6872 70.0682 62.6288 70.2377 62.4459C70.4187 62.2505 70.6102 62.0657 70.7989 61.8789C70.8956 61.7841 70.9914 61.7104 71.1427 61.7908C71.248 61.8463 71.34 61.7879 71.4061 61.696C71.4836 61.5859 71.5603 61.4958 71.724 61.5293C71.8294 61.5514 71.8677 61.4365 71.9175 61.3646C71.9864 61.2641 72.0429 61.1587 72.1971 61.2535C72.269 61.2966 72.337 61.2382 72.3868 61.1788C72.4682 61.0821 72.517 60.9662 72.5716 60.8551C72.6233 60.7469 72.676 60.6406 72.7516 60.5477C72.8503 60.4299 72.9719 60.3801 73.1117 60.4606C73.2085 60.5151 73.2535 60.4874 73.2946 60.3993C73.3176 60.3495 73.3425 60.2872 73.4144 60.2977C73.4824 60.3083 73.5207 60.361 73.5437 60.4203C73.6337 60.6502 73.5523 60.8427 73.4077 61.017C73.2793 61.1693 73.1184 61.1769 72.946 61.1003C72.8407 61.0534 72.7564 61.0764 72.7028 61.1807C72.5419 61.4968 72.3044 61.719 71.9922 61.9048C71.7547 62.0455 71.4731 62.1289 71.2806 62.3472C71.2251 62.4104 71.1369 62.4133 71.0575 62.4028C70.8765 62.3779 70.7567 62.4641 70.6514 62.5962C70.5451 62.7303 70.4646 62.8797 70.3488 63.0061C70.1793 63.191 69.9762 63.2867 69.7272 63.2475C69.5778 63.2235 69.5251 63.2886 69.4926 63.417C69.3959 63.7924 69.256 64.1515 69.0645 64.4877C68.9045 64.7721 68.6728 64.9723 68.3271 64.9866C67.9899 65.0001 67.785 64.865 67.6557 64.5509C67.5609 64.321 67.5303 64.0787 67.5552 63.8336C67.6346 63.0636 67.7247 62.2945 67.8654 61.5322C67.922 61.2191 68.0675 60.9327 68.1796 60.6368C68.1939 60.5965 68.2083 60.5381 68.2667 60.5525C68.3223 60.5659 68.3184 60.6243 68.3136 60.6674C68.2878 60.9432 68.26 61.2191 68.2284 61.4939C68.1997 61.7515 68.1671 62.0082 68.1326 62.2888Z" fill="#006BB8"/>
<path fill-rule="evenodd" clip-rule="evenodd" d="M36.6886 62.8586C37.0927 62.8395 37.4241 62.7514 37.7057 62.5244C37.7842 62.4612 37.9154 62.3999 37.8656 62.2754C37.8177 62.1557 37.6875 62.1318 37.563 62.1289C37.4873 62.127 37.4174 62.1432 37.3513 62.1816C37.0832 62.3415 36.9146 62.5962 36.6886 62.8586ZM37.0736 62.0005C37.1952 61.8799 37.291 61.7841 37.3868 61.6893C37.4557 61.6213 37.5352 61.5677 37.6224 61.5236C37.8081 61.4317 37.9834 61.4508 38.1491 61.5715C38.3138 61.6912 38.3167 61.8626 38.2745 62.0322C38.1319 62.6077 37.7861 63.0579 37.3619 63.4543C37.1435 63.6583 36.8878 63.8039 36.5909 63.8652C36.2586 63.9341 35.9368 63.9207 35.6543 63.7005C35.5566 63.6248 35.5547 63.711 35.5384 63.7637C35.4369 64.073 35.2971 64.3622 35.0921 64.617C34.9159 64.8363 34.7129 65.0125 34.4054 64.9867C34.1421 64.9637 33.9888 64.7769 33.8452 64.5863C33.7935 64.5164 33.849 64.4398 33.8979 64.3871C34.1727 64.0903 34.234 63.7196 34.2216 63.3432C34.1938 62.4851 34.3432 61.6644 34.6707 60.8733C34.6765 60.858 34.6803 60.8417 34.688 60.8264C34.7129 60.7785 34.7176 60.6942 34.7866 60.7077C34.8613 60.723 34.8517 60.8063 34.8469 60.8657C34.7971 61.4623 34.733 62.059 34.6975 62.6566C34.664 63.2197 34.5395 63.7531 34.2675 64.2483C34.2062 64.3584 34.2761 64.3546 34.3528 64.3575C34.7627 64.3747 35.1908 63.9878 35.2425 63.531C35.2798 63.2053 35.3066 62.8768 35.3114 62.5493C35.321 61.8377 35.4627 61.1568 35.7539 60.5075C35.7702 60.4711 35.7864 60.4347 35.8085 60.4031C35.82 60.3868 35.8458 60.3715 35.865 60.3725C35.8995 60.3744 35.909 60.406 35.9081 60.4347C35.9062 60.5027 35.9023 60.5707 35.8947 60.6377C35.8343 61.1779 35.7749 61.7171 35.7759 62.261C35.7769 62.6029 35.9607 62.7954 36.2998 62.8366C36.3544 62.8424 36.3955 62.8433 36.4338 62.7945C36.6541 62.512 36.8131 62.2103 36.815 61.8368C36.816 61.357 36.8006 60.8733 36.9137 60.4012C36.9884 60.0928 37.1071 59.7978 37.2287 59.5048C37.2489 59.4569 37.267 59.3793 37.3408 59.4042C37.3992 59.4243 37.3781 59.4952 37.3686 59.5402C37.2661 60.0555 37.3197 60.5793 37.2709 61.0974C37.2479 61.3455 37.1904 61.5878 37.1234 61.8282C37.11 61.8751 37.0966 61.9211 37.0736 62.0005Z" fill="#006BB8"/>
<path fill-rule="evenodd" clip-rule="evenodd" d="M41.9895 66.7973C41.2837 66.7897 40.8508 66.3884 40.7857 65.695C40.7282 65.0658 40.8881 64.4807 41.1276 63.9137C41.3287 63.4396 41.5576 62.9771 41.775 62.5097C41.796 62.4647 41.8228 62.4206 41.8516 62.3785C41.8717 62.3498 41.9042 62.3306 41.9406 62.344C41.9751 62.3565 41.9895 62.3881 41.9943 62.4245C42.0039 62.4953 41.978 62.5586 41.9521 62.6218C41.7683 63.0661 41.5786 63.5086 41.4005 63.9558C41.3076 64.1866 41.2473 64.4289 41.2023 64.6751C41.1113 65.1683 41.343 65.5418 41.8238 65.6663C42.6005 65.8674 43.5276 65.4163 43.8465 64.6818C43.947 64.45 43.9154 64.3801 43.677 64.3092C43.6549 64.3035 43.6329 64.2987 43.6109 64.292C43.2067 64.1713 43.0679 63.9348 43.1569 63.5182C43.2862 62.9129 43.6109 62.4149 44.0026 61.9485C44.3119 61.5788 44.672 61.2733 45.0963 61.0473C45.1968 60.9937 45.3204 60.8941 45.4248 60.9879C45.5253 61.0779 45.4554 61.2149 45.4123 61.3222C45.3395 61.506 45.2543 61.6861 45.1671 61.8633C45.1164 61.9686 45.0426 62.0452 44.9133 61.9571C44.8415 61.9073 44.7678 61.9389 44.7017 61.9677C44.2688 62.1506 43.9509 62.4666 43.7028 62.8564C43.6099 63.0029 43.6559 63.1035 43.8206 63.1801C44.2516 63.3803 44.3081 63.4454 44.2707 63.9156C44.2104 64.6502 44.0064 65.3435 43.5505 65.9364C43.2297 66.353 42.8399 66.6853 42.2921 66.7686C42.1925 66.7839 42.09 66.7878 41.9895 66.7973Z" fill="#006BB8"/>
<path fill-rule="evenodd" clip-rule="evenodd" d="M26.0425 64.9868C25.6106 64.9906 25.2247 65.0021 24.8492 64.8872C24.7238 64.8489 24.6041 64.8019 24.4958 64.7263C24.2957 64.5874 24.1894 64.4007 24.1932 64.1517C24.197 63.8098 24.2727 63.4784 24.3493 63.148C24.3646 63.0857 24.3761 62.9976 24.4671 63.0072C24.5571 63.0168 24.5543 63.103 24.5533 63.1691C24.5504 63.4803 24.7305 63.6364 25.0034 63.7284C25.3683 63.8509 25.7456 63.8912 26.1239 63.9046C27.0998 63.9381 28.0709 63.8854 29.0085 63.5665C29.2815 63.4736 29.5516 63.3673 29.7804 63.1844C29.9069 63.0838 30.0007 62.9564 30.0831 62.8195C30.1051 62.7831 30.1338 62.7333 30.1894 62.7572C30.2411 62.7802 30.2354 62.8358 30.2248 62.8779C30.0859 63.4008 29.8935 63.8902 29.4098 64.2034C28.8716 64.552 28.2701 64.7282 27.6496 64.846C27.1027 64.9494 26.553 65.0107 26.0425 64.9868Z" fill="#006BB8"/>
<path fill-rule="evenodd" clip-rule="evenodd" d="M60.9902 63.6113C60.8781 63.642 60.7613 63.6755 60.6358 63.6266C60.4251 63.5443 60.337 63.3882 60.4002 63.1717C60.4797 62.8978 60.6071 62.644 60.767 62.4094C60.9873 62.0838 61.3168 62.1163 61.4853 62.4745C61.5064 62.5195 61.5236 62.5665 61.5495 62.6277C61.7123 62.4659 61.7851 62.2734 61.8301 62.0713C61.9182 61.6777 61.9488 61.2764 61.968 60.8761C61.9919 60.3886 62.126 59.9424 62.3856 59.5315C62.4057 59.5009 62.4172 59.4453 62.466 59.4606C62.5225 59.4779 62.5053 59.5382 62.4995 59.5784C62.4631 59.8408 62.4133 60.1023 62.3827 60.3657C62.3367 60.7631 62.2783 61.1605 62.33 61.5647C62.3664 61.8501 62.4583 61.9612 62.7026 62.0244C62.8146 62.0541 62.8721 62.0206 62.9094 61.9171C62.9966 61.672 63.0952 61.4306 63.2149 61.1989C63.304 61.0265 63.4151 60.8713 63.5769 60.7564C63.7302 60.6463 63.9016 60.6281 64.0797 60.6587C64.2291 60.6836 64.3278 60.8177 64.2895 60.9355C64.2435 61.0791 64.1449 61.1146 63.9964 61.0811C63.6899 61.0121 63.5003 61.104 63.3615 61.3607C63.2944 61.4852 63.2992 61.602 63.394 61.7064C63.4917 61.8156 63.6105 61.8683 63.7589 61.8108C63.9093 61.7534 64.0098 61.6404 64.0931 61.5101C64.1554 61.4143 64.209 61.3157 64.2703 61.219C64.301 61.1711 64.3402 61.1165 64.4044 61.1404C64.4772 61.1673 64.4542 61.2372 64.4389 61.2879C64.4092 61.3799 64.3757 61.4708 64.3354 61.557C64.1372 61.9861 63.9054 62.3922 63.5587 62.7235C63.2657 63.0032 62.9228 63.1248 62.5206 63.0807C62.3271 63.0597 62.1806 62.9591 62.0666 62.8097C62.0073 62.7331 61.968 62.7283 61.9259 62.8183C61.9182 62.8337 61.9077 62.848 61.8952 62.8595C61.5581 63.1794 61.3857 63.5912 61.2325 64.0193C61.0898 64.4186 60.8302 64.7069 60.3878 64.7969C60.2058 64.8343 60.0315 64.908 59.8534 64.9636C59.7892 64.9837 59.7011 65.021 59.6647 64.9559C59.6178 64.8726 59.7155 64.8266 59.7701 64.7883C60.0267 64.6025 60.2901 64.4254 60.5506 64.2453C60.7508 64.1055 60.8973 63.9226 60.995 63.6994C61.0065 63.6736 61.0208 63.6477 60.9902 63.6113Z" fill="#006BB8"/>
<mask id="mask1_472:4700" style="mask-type:alpha" maskUnits="userSpaceOnUse" x="13" y="61" width="5" height="6">
<path d="M13.6302 61.8604H17.6828V66.6616H13.6302V61.8604Z" fill="white"/>
</mask>
<g mask="url(#mask1_472:4700)">
<path fill-rule="evenodd" clip-rule="evenodd" d="M17.177 63.4579C17.1387 62.9685 17.2718 62.5145 17.4586 62.0721C17.4844 62.0098 17.5189 61.9505 17.5572 61.8949C17.5706 61.8758 17.6042 61.8595 17.6291 61.8604C17.6693 61.8623 17.6769 61.9007 17.6808 61.9361C17.6817 61.9418 17.6827 61.9466 17.6827 61.9524C17.6607 63.047 17.6396 64.1417 17.0745 65.1329C16.769 65.6673 16.3994 66.1394 15.842 66.4344C15.4809 66.6269 15.094 66.6959 14.6908 66.6461C14.1449 66.5781 13.7341 66.15 13.6546 65.584C13.5607 64.9136 13.7475 64.2949 14.0118 63.6925C14.1009 63.4914 14.212 63.2989 14.3173 63.1045C14.3394 63.0623 14.37 63.0001 14.4303 63.0269C14.4897 63.0537 14.4868 63.1217 14.4696 63.1782C14.4485 63.2414 14.4179 63.3027 14.3911 63.365C14.2273 63.727 14.0779 64.0919 14.0415 64.4951C13.9869 65.0946 14.2848 65.4777 14.8891 65.5744C15.8343 65.7257 16.7633 65.1904 17.1033 64.2959C17.1368 64.2068 17.1684 64.112 17.1741 64.0172C17.1856 63.8314 17.177 63.6446 17.177 63.4579Z" fill="#006BB8"/>
</g>
<path fill-rule="evenodd" clip-rule="evenodd" d="M49.5602 63.8563C49.609 63.0365 49.7 62.2215 49.8734 61.419C49.9318 61.1508 50.0592 60.898 50.1568 60.6384C50.1722 60.5982 50.1856 60.5398 50.244 60.5513C50.2986 60.5628 50.2967 60.6221 50.2928 60.6652C50.266 60.9411 50.2382 61.2159 50.2076 61.4917C50.1473 62.0367 50.0831 62.5806 50.0256 63.1265C50.0084 63.297 50.039 63.4665 50.1042 63.6255C50.2718 64.0363 50.7659 64.1359 51.0791 63.819C51.1902 63.7069 51.2879 63.5805 51.3952 63.4646C51.4986 63.3516 51.624 63.3066 51.7782 63.3554C51.8367 63.3736 51.9027 63.3746 51.964 63.3698C52.1038 63.3583 52.1757 63.2673 52.1383 63.139C52.1048 63.0241 52.0502 62.9245 51.8951 62.9867C51.8501 63.0049 51.7964 63.0097 51.7457 63.0107C51.3616 63.0164 51.2343 62.8383 51.3789 62.4858C51.4746 62.256 51.5742 62.0261 51.7083 61.8154C51.8366 61.6143 51.9343 61.5885 52.1469 61.6996C52.5013 61.8815 52.6746 62.302 52.5952 62.7664C52.5262 63.1754 52.3404 63.5259 52.078 63.8391C51.9889 63.9463 51.8826 64.0373 51.7284 64.0047C51.4555 63.9473 51.2697 64.0747 51.1222 64.2825C51.0226 64.4204 50.9393 64.5707 50.8349 64.7029C50.4978 65.1291 49.9672 65.0764 49.7134 64.5966C49.5908 64.3648 49.5535 64.1158 49.5602 63.8563Z" fill="#006BB8"/>
<path fill-rule="evenodd" clip-rule="evenodd" d="M31.5005 64.9882C31.0963 64.9882 30.8406 64.7861 30.7286 64.3848C30.6385 64.0554 30.6692 63.7211 30.697 63.3907C30.7525 62.7539 30.8349 62.1199 30.9603 61.4926C31.0216 61.1861 31.1653 60.9065 31.2716 60.6144C31.285 60.577 31.307 60.531 31.3549 60.5473C31.4076 60.5646 31.3989 60.6182 31.397 60.6642C31.3798 61.0654 31.3147 61.4619 31.2687 61.8613C31.2084 62.3832 31.1183 62.9033 31.1509 63.4319C31.1691 63.7355 31.2831 63.8734 31.5407 63.9318C31.647 63.9567 31.6968 63.9213 31.7313 63.8246C31.8299 63.5526 31.9305 63.2816 32.078 63.0316C32.2446 62.7462 32.4582 62.5202 32.8326 62.5527C32.8891 62.5566 32.9447 62.5671 32.9945 62.5968C33.0883 62.6562 33.1487 62.7376 33.1065 62.8525C33.0653 62.9665 32.9878 63.0153 32.8537 62.9904C32.4984 62.9215 32.3365 62.9942 32.1871 63.2653C32.1191 63.3888 32.1191 63.5028 32.2159 63.6091C32.3097 63.7125 32.4208 63.7662 32.5635 63.7211C32.7148 63.6733 32.8096 63.5631 32.8949 63.4405C32.9753 63.3247 33.0471 63.2021 33.1266 63.0862C33.1525 63.0479 33.1937 63.0191 33.2435 63.0498C33.2837 63.0737 33.2847 63.1159 33.2732 63.1551C33.2483 63.2308 33.2262 63.3074 33.1937 63.3792C32.9686 63.8772 32.7167 64.358 32.2819 64.7124C32.0396 64.9116 31.8108 64.9882 31.5005 64.9882Z" fill="#006BB8"/>
<path fill-rule="evenodd" clip-rule="evenodd" d="M56.2252 68.2453C56.2338 67.3 56.2529 66.3548 56.365 65.4153C56.4655 64.5639 56.705 63.7632 57.2863 63.1015C57.4903 62.8697 57.7211 62.6705 57.994 62.524C58.1204 62.4569 58.2076 62.3659 58.266 62.2357C58.3407 62.071 58.4269 61.911 58.5112 61.7501C58.5658 61.6438 58.6472 61.5979 58.7765 61.6247C58.9422 61.6601 59.1098 61.6908 59.2706 61.7453C59.466 61.8124 59.5445 61.9206 59.5024 62.1179C59.4162 62.5163 59.2122 62.8323 58.8138 62.9798C58.6232 63.0507 58.4231 63.0957 58.2268 63.1493C57.5908 63.3256 57.1637 63.7393 56.9185 64.3378C56.7165 64.8282 56.6485 65.353 56.5862 65.8759C56.4665 66.8777 56.432 67.8842 56.4081 68.8908C56.4052 69.0086 56.388 69.1273 56.3755 69.2451C56.3707 69.2853 56.3602 69.3332 56.3161 69.338C56.2577 69.3447 56.2424 69.292 56.2347 69.247C56.2261 69.1982 56.2252 69.1455 56.2252 69.0957C56.2242 68.8122 56.2252 68.5287 56.2252 68.2453Z" fill="#006BB8"/>
<path fill-rule="evenodd" clip-rule="evenodd" d="M54.8716 63.6013C54.6772 63.677 54.5 63.677 54.3468 63.5295C54.2529 63.4405 54.2127 63.3399 54.252 63.2087C54.3478 62.8917 54.4895 62.5967 54.6868 62.3314C54.8295 62.1399 55.0373 62.1284 55.2145 62.2912C55.3687 62.431 55.4309 62.6149 55.4166 62.8122C55.3763 63.3926 55.1953 63.9289 54.8774 64.4173C54.8151 64.5121 54.7423 64.5983 54.6332 64.6472C54.3229 64.786 53.9972 64.8808 53.6716 64.9766C53.6237 64.99 53.5596 65.0044 53.5308 64.9555C53.4935 64.8933 53.5519 64.8492 53.596 64.8176C53.8584 64.6309 54.1208 64.4432 54.388 64.2631C54.5671 64.1434 54.7031 63.9892 54.8084 63.8044C54.84 63.7469 54.8755 63.6885 54.8716 63.6013Z" fill="#006BB8"/>
<path fill-rule="evenodd" clip-rule="evenodd" d="M48.6364 63.5869C48.4257 63.6807 48.259 63.674 48.1096 63.5467C48.0052 63.4586 47.9583 63.3503 47.9985 63.2153C48.0943 62.8868 48.236 62.5794 48.4506 62.3103C48.5779 62.1503 48.7676 62.1369 48.9304 62.2662C49.1028 62.4051 49.1746 62.5966 49.1612 62.8073C49.1238 63.3944 48.9361 63.9336 48.6163 64.4277C48.5291 64.5618 48.4084 64.6499 48.259 64.7007C47.9976 64.7898 47.7342 64.8759 47.4708 64.9612C47.4038 64.9823 47.3109 65.0263 47.2736 64.9459C47.2362 64.8654 47.332 64.8214 47.3875 64.7802C47.6365 64.604 47.8894 64.4316 48.1393 64.2573C48.3692 64.0993 48.5415 63.8991 48.6364 63.5869Z" fill="#006BB8"/>
<path fill-rule="evenodd" clip-rule="evenodd" d="M75.5968 62.8275C75.5432 63.4289 75.3632 63.9873 75.0088 64.4834C74.959 64.5533 74.8968 64.6117 74.8173 64.6471C74.5051 64.785 74.1804 64.8827 73.8538 64.9756C73.8078 64.9881 73.7456 65.0053 73.7197 64.944C73.6948 64.8866 73.7418 64.8483 73.7801 64.8167C74.0243 64.6136 74.2972 64.4499 74.5587 64.2717C74.7598 64.1348 74.9197 63.9633 75.0203 63.7412C75.0366 63.7067 75.073 63.6684 75.0481 63.631C75.0184 63.585 74.9762 63.6243 74.9418 63.6348C74.778 63.6866 74.6401 63.631 74.5204 63.5257C74.3959 63.4155 74.4064 63.2767 74.4562 63.134C74.5482 62.8649 74.6707 62.6101 74.8364 62.3783C75.0289 62.1073 75.3143 62.1198 75.4944 62.4032C75.5758 62.5325 75.6055 62.6743 75.5968 62.8275Z" fill="#006BB8"/>
<path fill-rule="evenodd" clip-rule="evenodd" d="M65.99 64.385C66.1758 64.3802 66.3616 64.2308 66.3549 64.1034C66.3482 63.9818 66.1356 63.7768 66.0226 63.7826C65.9364 63.7864 65.763 64.0661 65.7707 64.1944C65.7793 64.3409 65.8856 64.3725 65.99 64.385ZM65.8511 64.9874C65.5696 64.9864 65.4317 64.8016 65.4585 64.4874C65.4805 64.249 65.5715 64.0392 65.6902 63.8372C65.7333 63.7634 65.8004 63.6945 65.7295 63.593C65.696 63.547 65.7391 63.4838 65.7621 63.4321C65.876 63.1677 65.9948 62.9044 66.1078 62.6391C66.1691 62.4983 66.2524 62.4705 66.3894 62.5452C66.7217 62.7234 66.8941 62.9953 66.8721 63.3727C66.8404 63.9281 66.648 64.4204 66.2505 64.8217C66.1385 64.9347 66.0044 64.9989 65.8511 64.9874Z" fill="#006BB8"/>
<path fill-rule="evenodd" clip-rule="evenodd" d="M19.3098 64.9856C19.259 64.9856 19.2197 64.9866 19.1795 64.9856C19.1326 64.9837 19.0885 64.9722 19.0713 64.9205C19.055 64.8698 19.0828 64.8305 19.1192 64.8027C19.2264 64.7194 19.3347 64.637 19.4467 64.5595C19.6967 64.3842 19.9658 64.2358 20.1995 64.0356C20.3058 63.9456 20.3862 63.8402 20.4446 63.7148C20.549 63.4888 20.6553 63.2637 20.7607 63.0377C20.8756 62.7906 21.0604 62.6105 21.3018 62.4947C21.5776 62.3635 21.8352 62.2188 21.9636 61.9191C21.9837 61.8731 22.021 61.8061 22.09 61.8406C22.1436 61.8674 22.1273 61.9287 22.1168 61.9794C22.0488 62.2801 21.9415 62.5655 21.7768 62.827C21.7059 62.9381 21.6063 63.0233 21.4799 63.0702C21.0806 63.2158 20.8153 63.4888 20.6984 63.9006C20.6821 63.9599 20.6505 64.0155 20.6295 64.0739C20.3747 64.7615 20.1305 64.9004 19.3098 64.9856Z" fill="#006BB8"/>
<path fill-rule="evenodd" clip-rule="evenodd" d="M69.4524 58.9913C69.5433 58.8457 69.6286 58.7136 69.71 58.5795C69.7809 58.4608 69.8709 58.4569 69.982 58.5201C70.2932 58.6973 70.3804 58.9789 70.2176 59.2959C70.1601 59.407 70.0883 59.5075 70.0078 59.6033C69.9015 59.7297 69.801 59.7163 69.6927 59.611C69.6133 59.5334 69.5472 59.3916 69.4409 59.406C69.3355 59.4194 69.3144 59.5784 69.2512 59.6684C69.0817 59.9078 69.0281 59.9193 68.7944 59.7422C68.465 59.4893 68.464 59.4893 68.6613 59.1168C68.7303 58.9875 68.804 58.8611 68.8787 58.7337C68.9409 58.6293 69.0262 58.6236 69.1229 58.6849C69.2474 58.7634 69.3451 58.8726 69.4524 58.9913Z" fill="#006BB8"/>
<path fill-rule="evenodd" clip-rule="evenodd" d="M76.9343 60.2137C77.0224 60.0729 77.1067 59.9407 77.1881 59.8066C77.258 59.6898 77.3461 59.6793 77.4601 59.7425C77.7713 59.9158 77.8613 60.2003 77.7005 60.5163C77.643 60.6284 77.5712 60.728 77.4907 60.8247C77.3873 60.9492 77.2858 60.9444 77.1766 60.8371C77.0961 60.7596 77.0291 60.6197 76.9247 60.6293C76.8165 60.6389 76.7973 60.7998 76.7341 60.8898C76.5637 61.1302 76.5081 61.1436 76.2783 60.9683C75.945 60.7136 75.944 60.7136 76.1394 60.3439C76.2026 60.2242 76.2668 60.1045 76.3396 59.9905C76.4325 59.843 76.4995 59.8325 76.6422 59.935C76.6968 59.9752 76.7466 60.0221 76.7954 60.0691C76.8395 60.1112 76.8807 60.1572 76.9343 60.2137Z" fill="#006BB8"/>
<path fill-rule="evenodd" clip-rule="evenodd" d="M27.8794 61.4687C27.8276 61.7206 27.6984 61.9294 27.5039 62.096C27.4158 62.1727 27.3383 62.1047 27.2636 62.0462C27.1774 61.9763 27.1189 61.8298 27.0079 61.8451C26.9063 61.8585 26.8881 62.0098 26.8259 62.096C26.6545 62.3374 26.5826 62.3489 26.3547 62.1612C26.0463 61.9074 26.0463 61.9064 26.2426 61.5511C26.3106 61.4276 26.3815 61.304 26.4524 61.1824C26.5175 61.0694 26.6066 61.0617 26.71 61.1297C26.7962 61.1862 26.8699 61.2561 26.9312 61.3385C26.9916 61.4209 27.0395 61.4247 27.0921 61.3299C27.1486 61.2255 27.2147 61.1268 27.277 61.0244C27.3478 60.9075 27.4436 60.896 27.549 60.9717C27.7194 61.0943 27.8516 61.2456 27.8794 61.4687Z" fill="#006BB8"/>
<path fill-rule="evenodd" clip-rule="evenodd" d="M22.1957 65.9105C22.1526 66.1748 22.0175 66.3865 21.8183 66.5551C21.7388 66.623 21.6603 66.5675 21.5933 66.5091C21.508 66.4353 21.4429 66.2974 21.3357 66.3041C21.2207 66.3118 21.2064 66.4717 21.1403 66.5598C20.9689 66.7906 20.8989 66.8041 20.6825 66.624C20.3799 66.3731 20.3454 66.4267 20.5628 66.0015C20.6193 65.8904 20.6796 65.7812 20.7448 65.6759C20.8444 65.515 20.9344 65.5025 21.0742 65.6242C21.1297 65.6711 21.1853 65.7209 21.2303 65.7793C21.3203 65.8971 21.3759 65.8617 21.4333 65.7496C21.4831 65.6539 21.5444 65.5657 21.6009 65.4748C21.6622 65.3742 21.7436 65.3522 21.8442 65.4154C22.0281 65.5322 22.1583 65.6883 22.1957 65.9105Z" fill="#006BB8"/>
<path fill-rule="evenodd" clip-rule="evenodd" d="M23.1273 61.3943C23.0622 62.0915 23.1005 62.8002 23.022 63.5041C22.9789 63.8958 22.8563 64.2654 22.6437 64.6006C22.6073 64.6591 22.5661 64.75 22.479 64.7108C22.3985 64.6744 22.4416 64.5901 22.457 64.5279C22.5891 63.9877 22.5786 63.438 22.5594 62.8902C22.5412 62.3194 22.6868 61.7936 22.9463 61.2927C22.9779 61.2324 22.9923 61.1242 23.0823 61.1453C23.1838 61.1692 23.1149 61.2707 23.1264 61.3368C23.1302 61.3531 23.1273 61.3703 23.1273 61.3943Z" fill="#006BB8"/>
<path fill-rule="evenodd" clip-rule="evenodd" d="M18.9794 61.3753C18.9373 61.9739 18.9239 62.5725 18.9047 63.171C18.8913 63.5982 18.7965 64.0119 18.6088 64.3998C18.5676 64.4859 18.5121 64.5654 18.4594 64.6459C18.4316 64.688 18.3933 64.7378 18.3368 64.7177C18.2688 64.6928 18.2793 64.6267 18.2937 64.5712C18.4441 64.0052 18.4278 63.4267 18.4105 62.8502C18.3943 62.2765 18.5561 61.7565 18.8118 61.2566C18.8396 61.2039 18.8607 61.1206 18.9373 61.1436C19.0177 61.1675 18.9746 61.2499 18.9794 61.3073C18.9813 61.3303 18.9794 61.3523 18.9794 61.3753Z" fill="#006BB8"/>
<path fill-rule="evenodd" clip-rule="evenodd" d="M38.9546 63.0514C38.8876 62.4921 39.0207 61.8926 39.3099 61.3237C39.3252 61.2931 39.3386 61.2615 39.3549 61.2318C39.3789 61.1868 39.4076 61.1312 39.4651 61.1446C39.5302 61.159 39.5168 61.226 39.5149 61.2739C39.5005 61.6129 39.4928 61.9529 39.4641 62.291C39.4449 62.517 39.4536 62.743 39.4488 62.97C39.4373 63.4488 39.3693 63.9162 39.1615 64.3548C39.1184 64.4468 39.0666 64.5349 39.013 64.6211C38.9795 64.6718 38.9374 64.7398 38.8665 64.712C38.7918 64.6833 38.8215 64.6077 38.832 64.5473C38.8607 64.3807 38.8914 64.214 38.9192 64.0464C38.9709 63.7429 38.9469 63.4364 38.9546 63.0514Z" fill="#006BB8"/>
<path fill-rule="evenodd" clip-rule="evenodd" d="M47.1699 62.5947C47.1057 62.9711 46.9659 63.3714 46.8165 63.7679C46.7198 64.0217 46.624 64.2755 46.4564 64.4948C46.375 64.6021 46.2763 64.6835 46.1547 64.7362C45.8684 64.8597 45.5657 64.9315 45.2583 64.9813C45.1941 64.9909 45.1108 65.0101 45.0783 64.9296C45.0486 64.854 45.1137 64.8003 45.1654 64.7611C45.2813 64.671 45.3972 64.5772 45.5265 64.5092C46.1365 64.1864 46.5024 63.6683 46.7389 63.0382C46.8079 62.8533 46.8893 62.6723 46.9688 62.4923C46.9937 62.4348 47.0339 62.3745 47.1095 62.3946C47.19 62.4156 47.1747 62.4884 47.1699 62.5947Z" fill="#006BB8"/>
<path fill-rule="evenodd" clip-rule="evenodd" d="M16.2194 63.5614C16.1686 63.8228 16.0604 64.0603 15.8488 64.2423C15.7798 64.3017 15.707 64.3055 15.6342 64.2471C15.6247 64.2404 15.6151 64.2346 15.6055 64.227C15.0836 63.7893 15.1295 63.9483 15.4006 63.3622C15.459 63.2338 15.5385 63.116 15.6074 62.9915C15.6534 62.9082 15.708 62.8929 15.7817 62.9599C15.8794 63.0471 15.9819 63.1266 16.0777 63.2156C16.1734 63.3056 16.2041 63.4263 16.2194 63.5614Z" fill="#006BB8"/>
<path fill-rule="evenodd" clip-rule="evenodd" d="M50.6069 61.1794C50.6854 60.9055 50.8023 60.6498 50.9795 60.4247C51.0369 60.3519 51.125 60.3682 51.1959 60.4151C51.3453 60.5128 51.4669 60.6373 51.5502 60.7973C51.5838 60.8605 51.5847 60.9246 51.5646 60.9945C51.5043 61.1918 51.4028 61.3681 51.2783 61.5309C51.2141 61.6171 51.1384 61.6391 51.0446 61.5749C50.9277 61.4945 50.8099 61.4179 50.6931 61.3374C50.6385 61.3001 50.5993 61.2541 50.6069 61.1794Z" fill="#006BB8"/>
<path fill-rule="evenodd" clip-rule="evenodd" d="M53.0816 59.2395C53.0299 59.4694 52.9083 59.6954 52.7263 59.8888C52.6861 59.931 52.6325 59.9224 52.5846 59.8927C52.5271 59.8582 52.4687 59.8218 52.4132 59.7844C52.0492 59.5431 52.0464 59.5374 52.2437 59.137C52.304 59.0154 52.371 58.8976 52.4381 58.7798C52.4764 58.7118 52.5329 58.6687 52.62 58.6821C52.778 58.708 53.0797 59.0489 53.0816 59.2395Z" fill="#006BB8"/>
<path fill-rule="evenodd" clip-rule="evenodd" d="M77.332 59.2277C77.3176 59.4844 77.1864 59.6941 77.0341 59.8943C76.9786 59.969 76.9068 59.9546 76.8407 59.9019C76.7219 59.8052 76.6051 59.7066 76.4883 59.6089C76.4289 59.5591 76.4174 59.4978 76.4452 59.426C76.5333 59.2038 76.6377 58.9902 76.7555 58.7833C76.81 58.6885 76.8857 58.6627 76.9843 58.7153C77.1855 58.8255 77.3205 58.9797 77.332 59.2277Z" fill="#006BB8"/>
<path fill-rule="evenodd" clip-rule="evenodd" d="M69.8508 58.0016C69.8384 58.2573 69.7062 58.467 69.5558 58.6681C69.5012 58.7419 69.4294 58.7333 69.3624 58.6796C69.2436 58.5829 69.1268 58.4843 69.009 58.3866C68.9506 58.3377 68.9362 58.2764 68.964 58.2036C69.0502 57.9815 69.1565 57.7698 69.2733 57.562C69.3327 57.4557 69.4151 57.4404 69.5156 57.4978C69.7091 57.608 69.8403 57.7602 69.8508 58.0016Z" fill="#006BB8"/>
<path fill-rule="evenodd" clip-rule="evenodd" d="M78.2464 67.1073C78.2301 67.3075 78.1085 67.5067 77.9428 67.6819C77.8892 67.7384 77.8336 67.7308 77.781 67.679C77.6756 67.5756 77.5722 67.4722 77.4678 67.3697C77.4094 67.3132 77.4122 67.2519 77.4448 67.1849C77.5367 66.9962 77.6392 66.8152 77.7522 66.6399C77.8154 66.5423 77.893 66.5308 77.9811 66.594C78.1382 66.7079 78.2512 66.8497 78.2464 67.1073Z" fill="#006BB8"/>
<path fill-rule="evenodd" clip-rule="evenodd" d="M73.2178 62.4717C73.1259 62.6556 73.0397 62.8184 72.9621 62.985C72.9065 63.1028 72.8587 63.2244 72.8108 63.3451C72.7485 63.507 72.7198 63.6477 72.9171 63.7598C73.0598 63.8421 73.0732 64.0059 73.0272 64.1563C72.986 64.2913 72.9065 64.4053 72.7428 64.4062C72.5752 64.4072 72.534 64.2798 72.4986 64.1486C72.465 64.0232 72.4852 63.8996 72.5158 63.7789C72.6202 63.3508 72.8041 62.9582 73.0464 62.5914C73.0789 62.5416 73.1134 62.4841 73.2178 62.4717Z" fill="#006BB8"/>
<path fill-rule="evenodd" clip-rule="evenodd" d="M69.7732 60.4614C69.7521 60.3369 69.8182 60.243 69.8842 60.1559C70.1802 59.7689 70.5384 59.4385 70.8582 59.0737C70.886 59.042 70.9214 58.9913 70.9693 59.0267C71.0162 59.0602 70.977 59.111 70.9645 59.1503C70.9147 59.3112 70.8113 59.4376 70.7031 59.5611C70.457 59.8417 70.2012 60.1128 69.934 60.3723C69.8919 60.4125 69.8526 60.4671 69.7732 60.4614Z" fill="#006BB8"/>
<path fill-rule="evenodd" clip-rule="evenodd" d="M78.6775 62.0527C78.5923 62.2863 78.5262 62.5277 78.4056 62.7479C78.3146 62.9108 78.2006 63.0496 78.0196 63.1138C77.6164 63.2594 77.3626 63.54 77.2496 63.9518C77.2343 64.0064 77.2065 64.0571 77.1864 64.1098C76.9288 64.8013 76.6664 64.9516 75.8025 65.0206C75.7374 65.0254 75.655 65.0349 75.6263 64.9545C75.5976 64.8731 75.6732 64.8367 75.725 64.7955C76.0563 64.5283 76.4423 64.3396 76.7621 64.0571C76.8761 63.9566 76.9623 63.8445 77.0226 63.7066C77.1165 63.494 77.2151 63.2843 77.3138 63.0736C77.4316 62.8226 77.6193 62.6378 77.8683 62.5219C78.1403 62.3955 78.3912 62.2509 78.5176 61.9569C78.5444 61.8946 78.599 61.8477 78.6775 61.8486V62.0527Z" fill="#006BB8"/>
<path fill-rule="evenodd" clip-rule="evenodd" d="M78.6775 66.0303C78.6009 66.2017 78.5185 66.3674 78.3978 66.513C78.2982 66.6336 78.2053 66.6288 78.0971 66.5283C78.0167 66.4526 77.9554 66.3051 77.8481 66.3224C77.7571 66.3377 77.7332 66.4909 77.6748 66.58C77.5139 66.8252 77.4564 66.8347 77.2256 66.647C76.9239 66.4009 76.923 66.4009 77.0973 66.0504C77.1576 65.9288 77.2199 65.8071 77.2888 65.6903C77.3922 65.5141 77.442 65.5074 77.6068 65.6376C77.6719 65.6903 77.7361 65.7497 77.7887 65.8138C77.8491 65.8857 77.8864 65.8732 77.9276 65.8004C77.986 65.697 78.0502 65.5964 78.1076 65.4921C78.1814 65.358 78.2743 65.3637 78.3873 65.4432C78.5166 65.5332 78.5999 65.6606 78.6775 65.7918V66.0303Z" fill="#006BB8"/>
<path fill-rule="evenodd" clip-rule="evenodd" d="M49.6555 80.1586C49.6239 80.127 49.5969 80.0924 49.5623 80.0654C49.0632 79.6534 49.0977 79.7587 49.3894 79.1618C49.418 79.1077 49.448 79.0535 49.4796 78.9994C49.672 78.6626 49.7923 78.6356 50.0509 78.9378C50.2178 79.1317 50.2794 79.0686 50.3802 78.8957C50.4598 78.7574 50.508 78.5439 50.7154 78.5649C50.9214 78.586 51.0492 78.7589 51.1469 78.9303C51.3018 79.1949 51.0462 79.8293 50.7515 79.9285C50.6042 79.9782 50.5125 79.8684 50.4358 79.7827C50.2779 79.6113 50.1667 79.5782 50.0614 79.8278C50.0013 79.9676 49.893 80.0759 49.7623 80.1586H49.6555Z" fill="#006BB8"/>
<path fill-rule="evenodd" clip-rule="evenodd" d="M38.5778 78.7908C38.4666 78.7953 38.2531 78.7832 38.0456 78.7276C37.6667 78.6224 37.4668 78.3908 37.4577 78.003C37.4487 77.6015 37.5134 77.2061 37.6081 76.8167C37.6261 76.7431 37.6412 76.6378 37.7419 76.6423C37.8652 76.6499 37.8201 76.7596 37.8246 76.8318C37.8456 77.1866 37.9704 77.379 38.2982 77.4542C38.9161 77.597 39.534 77.5985 40.1264 77.3354C40.6766 77.0934 40.9427 76.6604 40.9968 76.0665C41.0495 75.5073 41.0675 74.9465 41.0419 74.3887C41.0044 73.637 41.2945 72.995 41.5862 72.3305C41.9245 71.5592 42.5033 71.039 43.1377 70.5429C44.5585 69.4274 45.9522 68.2817 47.1865 66.9542C47.2346 66.9031 47.2872 66.7933 47.3744 66.8595C47.4481 66.9166 47.3819 67.0113 47.3564 67.0805C47.0963 67.7465 46.6182 68.2502 46.1206 68.7358C45.0546 69.7731 43.8669 70.6677 42.6882 71.5728C42.4973 71.7186 42.3259 71.8945 42.1199 72.0133C41.8177 72.1847 41.741 72.4493 41.7185 72.762C41.6854 73.2235 41.6629 73.6836 41.6568 74.1466C41.6463 74.957 41.5666 75.7598 41.3381 76.5416C41.1908 77.0453 40.9547 77.5038 40.6225 77.9037C40.1233 78.5081 39.4678 78.7998 38.5778 78.7908Z" fill="#006BB8"/>
<path fill-rule="evenodd" clip-rule="evenodd" d="M35.4523 76.3961C35.5094 75.3828 35.9078 74.5544 36.7212 73.9425C36.7918 73.8899 36.873 73.8132 36.9572 73.8869C37.0489 73.965 36.9662 74.0522 36.9241 74.1244C36.7437 74.4206 36.5814 74.7258 36.443 75.046C36.0311 76.0037 36.0792 76.9494 36.5212 77.883C36.646 78.1476 36.7963 78.4002 36.9301 78.6603C36.9662 78.7279 37.0384 78.8046 36.9617 78.8768C36.8775 78.958 36.7948 78.8888 36.7257 78.8362C36.0431 78.316 35.6327 77.6319 35.4974 76.7855C35.4763 76.6547 35.4673 76.5209 35.4523 76.3961Z" fill="#006BB8"/>
<path fill-rule="evenodd" clip-rule="evenodd" d="M54.4255 76.4041C54.3864 77.3948 53.982 78.1992 53.1972 78.8096C53.122 78.8667 53.0363 78.9674 52.9416 78.8817C52.8439 78.7945 52.9416 78.6998 52.9867 78.6216C53.325 78.0323 53.6151 77.4294 53.7113 76.7438C53.8211 75.9726 53.573 75.2885 53.2483 74.618C53.1671 74.4511 53.0634 74.2932 52.9732 74.1309C52.9326 74.0557 52.8544 73.9685 52.9416 73.8918C53.0258 73.8151 53.11 73.8963 53.1776 73.9474C53.797 74.4285 54.206 75.0465 54.3683 75.8192C54.4074 76.0117 54.433 76.2056 54.4255 76.4041Z" fill="#006BB8"/>
<path fill-rule="evenodd" clip-rule="evenodd" d="M45.051 78.6807C44.7518 78.6897 44.615 78.5018 44.5113 78.2898C44.4361 78.1394 44.3895 78.0838 44.2738 78.2597C44.0512 78.6025 43.6874 78.6972 43.3191 78.7784C43.1522 78.8145 42.9898 78.8551 42.8244 78.8851C42.7658 78.8957 42.6906 78.9092 42.6621 78.831C42.6365 78.7589 42.6921 78.7122 42.7418 78.6777C42.865 78.5905 42.9868 78.4988 43.1206 78.4296C43.8829 78.0237 44.4091 77.4088 44.7428 76.618C44.7939 76.4962 44.8646 76.3819 44.9353 76.2677C44.9744 76.2015 45.024 76.1143 45.1202 76.1549C45.2209 76.1955 45.1788 76.2887 45.1578 76.3639C45.1247 76.4917 45.0826 76.6195 45.051 76.7488C45.0014 76.9547 45.018 77.1577 45.1097 77.3471C45.236 77.6057 45.4464 77.6253 45.6268 77.4058C45.6795 77.3426 45.7095 77.2193 45.8253 77.2825C45.9065 77.3276 45.8779 77.4253 45.8584 77.502C45.7787 77.8327 45.678 78.153 45.475 78.4326C45.3652 78.583 45.2299 78.6912 45.051 78.6807Z" fill="#006BB8"/>
<path fill-rule="evenodd" clip-rule="evenodd" d="M47.8525 78.6812C47.7638 78.6631 47.6255 78.7278 47.5864 78.588C47.5548 78.4767 47.6676 78.4196 47.7442 78.3655C48.0209 78.173 48.3005 77.9806 48.5847 77.7987C48.8944 77.6002 49.1244 77.3431 49.2477 76.9913C49.4657 76.3704 49.8145 75.8683 50.464 75.6307C50.6699 75.5555 50.7586 75.3556 50.8669 75.1827C50.9015 75.1241 50.9466 75.0429 51.0262 75.0744C51.1119 75.1075 51.0879 75.1932 51.0698 75.2609C50.918 75.8156 50.7692 76.3674 50.1392 76.5959C49.828 76.7087 49.6401 76.9537 49.5243 77.2574C49.4747 77.3912 49.4146 77.5205 49.3664 77.6543C49.0898 78.4076 48.7906 78.591 47.8525 78.6812Z" fill="#006BB8"/>
<path fill-rule="evenodd" clip-rule="evenodd" d="M52.2424 74.4612C52.2214 75.1092 52.1973 75.7572 52.1808 76.4037C52.1673 76.9058 52.0906 77.3944 51.8966 77.8605C51.844 77.9823 51.7794 78.0996 51.7102 78.2138C51.6651 78.286 51.6125 78.3882 51.5073 78.3416C51.417 78.301 51.4486 78.1958 51.4667 78.1251C51.632 77.4952 51.5614 76.8517 51.5719 76.2142C51.5824 75.5783 51.7403 74.9844 52.0319 74.4251C52.0695 74.3545 52.1011 74.2613 52.2003 74.2823C52.292 74.3034 52.268 74.3921 52.2424 74.4612Z" fill="#006BB8"/>
<path fill-rule="evenodd" clip-rule="evenodd" d="M44.2231 72.9182C44.1149 73.7917 44.2277 74.6667 44.0668 75.5251C43.9991 75.8859 43.8879 76.2302 43.6954 76.5444C43.6458 76.6256 43.5887 76.7414 43.4789 76.7068C43.3466 76.6617 43.4173 76.5399 43.4399 76.4527C43.5962 75.8243 43.5646 75.1838 43.5496 74.5464C43.5361 73.942 43.7075 73.3932 43.9585 72.858C44.0021 72.7693 44.0337 72.6205 44.1675 72.6641C44.2758 72.7002 44.2051 72.837 44.2231 72.9182Z" fill="#006BB8"/>
<path fill-rule="evenodd" clip-rule="evenodd" d="M47.4707 74.4741C47.3866 75.3897 47.4557 76.2722 47.3189 77.1412C47.2603 77.5215 47.131 77.8809 46.9295 78.2086C46.8844 78.2823 46.8318 78.3845 46.7295 78.3529C46.6063 78.3154 46.6649 78.2056 46.6844 78.1259C46.8408 77.4524 46.8198 76.7698 46.8077 76.0873C46.7942 75.5009 46.9746 74.9717 47.2332 74.459C47.2708 74.3839 47.3009 74.2696 47.4151 74.3072C47.5098 74.3373 47.4662 74.4425 47.4707 74.4741Z" fill="#006BB8"/>
<path fill-rule="evenodd" clip-rule="evenodd" d="M46.6663 74.5405C46.6032 74.8081 46.4708 75.0546 46.2889 75.2756C46.2724 75.2952 46.2483 75.3177 46.2258 75.3207C45.9762 75.3403 45.8409 75.1328 45.6575 75.0261C45.5477 74.9614 45.5132 74.8532 45.5598 74.7269C45.6455 74.4743 45.7642 74.2383 45.9131 74.0173C45.9582 73.9466 46.0198 73.9015 46.1115 73.909C46.307 73.9225 46.6738 74.3285 46.6663 74.5405Z" fill="#006BB8"/>
<path fill-rule="evenodd" clip-rule="evenodd" d="M39.2915 76.2044C39.1922 76.1923 39.0627 76.1743 39.0476 76.0312C39.0341 75.8912 39.1621 75.8897 39.2554 75.8882C39.4526 75.8837 39.5099 75.7858 39.5038 75.5991C39.4948 75.3552 39.6454 75.1941 39.8547 75.185C39.939 75.182 40.0218 75.1911 40.0459 75.2889C40.0685 75.3838 40.0143 75.4515 39.9269 75.4651C39.7357 75.4937 39.6815 75.572 39.7267 75.7722C39.7824 76.0116 39.5761 76.2029 39.2915 76.2044Z" fill="#006BB8"/>
</svg>
