<svg width="92" height="92" viewBox="0 0 92 92" fill="none" xmlns="http://www.w3.org/2000/svg">
<path d="M91 1H1V91H91V1Z" stroke="#55A2E7" stroke-opacity="0.595597"/>
<path d="M57.592 70.4528C57.6173 70.3778 57.9907 70.1091 58.4218 69.8557C59.4491 69.2518 60.3262 68.4029 61.3659 67.0066C62.33 65.7116 63.1232 64.9377 63.9556 64.4799C64.4602 64.2024 64.6557 64.1628 65.538 64.1593L66.5447 64.1553L67.063 63.6529L67.5813 63.1505L67.2317 62.9318C66.776 62.6468 66.3669 62.6547 66.0435 62.9548C65.7801 63.1993 65.5101 63.2744 65.5101 63.1033C65.5101 62.924 66.3522 62.04 66.6181 61.9401C66.8055 61.8698 67.1026 61.9077 67.6045 62.0661C67.9995 62.1907 68.4023 62.2798 68.4996 62.2641C69.1422 62.1601 68.9498 62.9252 68.2063 63.4305C67.9295 63.6186 67.3317 64.2081 66.8778 64.7405C65.8692 65.9236 65.6811 66.035 64.9445 65.886C64.5063 65.7973 64.2706 65.8146 63.7867 65.9709C62.9302 66.2477 62.6637 66.4746 61.4629 67.9496C60.3398 69.3291 59.7985 69.7592 58.5126 70.2938C57.7259 70.6209 57.5234 70.6558 57.592 70.4528V70.4528Z" fill="#002B9B"/>
<path d="M67.669 59.9598C67.4948 59.7524 67.3524 59.5304 67.3524 59.4664C67.3524 59.4024 67.5608 59.0896 67.8156 58.7712C68.3468 58.1074 68.6473 58.0383 69.1203 58.4712C69.4664 58.788 69.5097 59.1791 69.2529 59.6696C68.8552 60.4292 68.1688 60.5549 67.669 59.9598Z" fill="#002B9B"/>
<path d="M64.6468 69.774C64.3935 69.5846 64.2021 69.3745 64.2216 69.3071C64.307 69.0123 65.2135 67.8594 65.36 67.8594C65.8449 67.8594 66.4315 68.3942 66.4315 68.8363C66.4315 69.116 65.9026 69.7631 65.5101 69.9635C65.1081 70.1689 65.2025 70.1896 64.6468 69.774Z" fill="#002B9B"/>
<path d="M55.6567 68.7305C55.6187 68.6326 55.6172 68.505 55.6535 68.447C55.6897 68.3891 56.267 68.0456 56.9362 67.6836C58.1019 67.0533 58.1718 66.9939 58.5994 66.2707C58.9659 65.651 59.1556 65.4578 59.6586 65.1924C60.506 64.7451 60.6743 64.5781 60.6743 64.1845C60.6743 63.9322 60.5495 63.7261 60.1957 63.3936L59.7172 62.944L60.0518 62.3154C60.6015 61.2827 61.6015 60.4392 64.3249 58.7111C65.0086 58.2774 65.9223 57.6721 66.3555 57.3661C66.7887 57.0601 67.1678 56.8341 67.198 56.864C67.2283 56.8938 67.1189 57.1797 66.955 57.4992C66.6192 58.1536 66.0361 58.6164 63.4417 60.2881C62.589 60.8375 61.5923 61.5143 61.2268 61.7921L60.5624 62.2971L60.9638 62.6935C61.3093 63.0348 61.365 63.1647 61.364 63.6264C61.3619 64.6461 60.5803 65.8694 59.6526 66.3052C59.2238 66.5066 59.0339 66.7059 58.6057 67.4042C58.0057 68.3827 57.5115 68.7006 56.3866 68.8316C55.8447 68.8948 55.7135 68.8766 55.6567 68.7305H55.6567Z" fill="#002B9B"/>
<path d="M62.8619 59.008C62.8619 58.78 65.0158 57.2822 65.3438 57.2822C65.7157 57.2822 65.2679 57.7215 64.1987 58.4056C63.1477 59.0781 62.8619 59.2069 62.8619 59.008Z" fill="#002B9B"/>
<path d="M58.2275 61.2801C58.0535 61.1764 57.911 61.0549 57.9109 61.0101C57.9106 60.896 58.7262 59.4424 58.7905 59.4424C58.9333 59.4424 59.5973 59.8405 59.7205 60.0001C60.1204 60.5176 59.5815 61.4984 58.908 61.4791C58.7078 61.4734 58.4016 61.3839 58.2275 61.2801Z" fill="#002B9B"/>
<path d="M55.2628 67.4287C55.2631 67.3212 55.315 67.0499 55.378 66.8257C55.4411 66.6016 55.6149 65.5524 55.7644 64.4942C55.9934 62.8726 56.0958 62.4496 56.4159 61.8026C56.6247 61.3803 56.8651 61.0349 56.95 61.0349C57.1402 61.0349 57.1484 60.8424 56.8675 62.952C56.5657 65.2175 56.3843 65.9912 55.9603 66.8209C55.6149 67.4967 55.2615 67.8046 55.2628 67.4287Z" fill="#002B9B"/>
<path d="M50.6567 68.5986C50.6567 68.5051 51.0959 68.143 51.6327 67.7937C52.7903 67.0407 53.1509 66.6201 53.7595 65.3127C54.1702 64.4304 54.4564 64.087 54.4564 64.4765C54.4564 64.7749 53.8767 66.4074 53.5178 67.1197C53.0301 68.0878 52.7865 68.2969 51.8464 68.5544C50.9025 68.8129 50.6567 68.822 50.6567 68.5986Z" fill="#002B9B"/>
<path d="M45.8654 70.9422C45.1081 70.7497 44.5381 70.1072 44.317 69.1966C44.1497 68.5077 44.2388 67.0514 44.5035 66.1493C44.7217 65.4059 46.0483 62.6272 46.185 62.6272C46.3935 62.6272 46.2557 63.1222 45.6917 64.3987C44.8041 66.408 44.6813 67.6778 45.3038 68.4086C45.8567 69.0576 47.2433 69.1648 48.4504 68.6519C49.3209 68.2821 50.3272 67.11 50.155 66.6666C50.1274 66.5954 49.8857 66.4724 49.6181 66.3932C48.9514 66.1959 48.5839 65.8102 48.5839 65.3077C48.5839 64.5368 49.2641 63.0838 50.1174 62.0318C50.8309 61.1522 52.2835 60.4173 52.4519 60.8508C52.6589 61.3836 52.0398 62.2203 51.3589 62.3279C50.5577 62.4544 49.3664 63.5848 49.5463 64.0479C49.5818 64.1392 49.8388 64.3198 50.1175 64.4492C50.9165 64.8202 51.0339 65.2827 50.7029 66.756C50.17 69.128 48.5843 70.8625 46.8331 70.9891C46.4978 71.0133 46.0623 70.9922 45.8654 70.9422Z" fill="#002B9B"/>
<path d="M46.8567 61.3768C46.6984 61.2545 46.5041 61.1533 46.4249 61.1519C46.3458 61.1505 46.281 61.0885 46.281 61.014C46.281 60.8468 47.2007 59.3295 47.3017 59.3301C47.5072 59.3313 48.1441 59.8189 48.2554 60.0603C48.4268 60.4318 48.3152 60.7905 47.8898 61.2347C47.4835 61.6591 47.2616 61.6896 46.8567 61.3768Z" fill="#002B9B"/>
<path d="M43.6382 63.0541C43.6472 62.7882 43.6166 62.3276 43.5703 62.0305C43.4918 61.527 43.5031 61.4902 43.7349 61.4902C44.0707 61.4902 44.2465 61.9745 44.1478 62.6276C44.004 63.5788 43.6095 63.909 43.6382 63.0541Z" fill="#002B9B"/>
<path d="M25.1586 70.5371C24.4781 70.2924 24.1492 70.0033 23.799 69.3419C23.5171 68.8095 23.4824 68.6231 23.4824 67.6435C23.4824 67.0159 23.5592 66.2517 23.6611 65.8652C23.8289 65.2285 24.5268 63.5294 24.8267 63.0273C25.0703 62.6195 25.1504 62.9697 24.9384 63.5161C24.0787 65.7317 23.9224 66.4839 24.1687 67.221C24.3965 67.9028 24.8118 68.2936 25.5266 68.4988C27.4634 69.055 29.6315 67.6969 30.2683 65.5285C30.3417 65.2783 30.4451 64.4925 30.4979 63.7823C30.6278 62.0354 30.6921 61.9681 32.0219 62.1864C32.5525 62.2735 33.7541 62.3422 34.7089 62.3399C38.247 62.3315 40.742 61.4847 45.3918 58.714C47.0337 57.7357 47.6463 57.4488 47.7901 57.5908C47.9403 57.7392 47.4697 58.4112 47.0652 58.6259C46.8659 58.7317 45.7919 59.4122 44.6784 60.138C43.5649 60.8638 42.343 61.6277 41.963 61.8355C41.583 62.0433 41.2579 62.2227 41.2404 62.2342C41.146 62.2961 40.755 65.4228 40.7545 66.1193C40.7541 66.8195 40.7938 66.9833 41.0305 67.255C41.2562 67.5142 41.3955 67.5701 41.7896 67.5599C42.3439 67.5456 42.8659 67.2194 42.921 66.8529C42.9754 66.4918 42.6647 66.4385 42.254 66.7384C41.9818 66.9372 41.8505 66.9717 41.7068 66.8821C41.2877 66.621 41.274 66.4306 41.6123 65.5666C42.0092 64.5529 42.0871 64.4481 42.4434 64.4481C42.9322 64.4481 43.3734 64.7563 43.5223 65.2018C43.8119 66.0685 43.4145 67.739 42.7061 68.6335C42.3344 69.1028 41.569 69.566 41.1653 69.566C40.3163 69.566 39.948 68.9198 39.948 67.4303C39.948 66.2973 40.3362 63.3156 40.5304 62.9572C40.6003 62.8282 40.6317 62.6971 40.6002 62.666C40.5686 62.6348 40.0823 62.7913 39.5195 63.0137C38.9567 63.2361 37.929 63.5603 37.2358 63.7341C36.0596 64.0289 35.8175 64.05 33.6059 64.05H31.2363L30.9758 65.0736C30.578 66.6367 29.7658 68.2295 28.9007 69.1429C27.7452 70.363 26.2371 70.9249 25.1586 70.5371Z" fill="#002B9B"/>
<path d="M35.2929 69.0092C35.1956 68.8538 35.4728 68.5977 36.3907 67.9946C37.5924 67.205 37.9698 66.7749 38.5315 65.5541C38.7973 64.9764 39.0934 64.4876 39.1896 64.4678C39.345 64.4357 39.3443 64.4991 39.1833 65.0364C38.4345 67.5349 37.7852 68.5177 36.6873 68.8145C35.8109 69.0513 35.3587 69.1145 35.2929 69.0092Z" fill="#002B9B"/>
<path d="M40.007 38.4133C39.7444 38.4148 39.4144 38.4237 39.0176 38.4404C31.8434 38.742 26.0504 41.0528 24.1989 44.3515C23.8605 44.9545 23.8142 45.1759 23.8158 46.1823C23.8175 47.1727 23.8693 47.4241 24.1994 48.0463C25.8517 51.1606 31.0979 53.4309 37.9268 53.9869C38.8642 54.0633 41.4414 54.1324 43.6537 54.1405C48.068 54.1567 49.0157 54.0545 51.307 53.3149C54.6592 52.2329 56.9395 50.4428 57.8428 48.1842C58.0737 47.6067 58.1218 47.2455 58.0826 46.3843C58.007 44.7212 57.3526 43.6041 55.4734 41.9309C55.3848 41.852 55.0208 41.6189 54.6645 41.413C54.0707 41.0698 53.7519 40.6657 54.2128 40.8404C54.3206 40.8812 54.6735 40.9821 54.9969 41.0646C58.7177 42.0138 61.4467 43.8429 62.4056 46.0304C62.7308 46.7722 62.7299 48.1854 62.4037 48.9433C61.5551 50.915 59.1791 52.5973 55.7644 53.6441C54.5039 54.0305 52.8635 54.3918 52.3465 54.397C52.2903 54.3976 52.2442 54.4586 52.2442 54.5327C52.2442 54.7185 53.0375 54.7011 55.5849 54.4595C58.1628 54.215 59.9653 53.8665 61.9255 53.2336C65.2177 52.1707 67.6642 50.5314 68.692 48.6997C69.0426 48.0747 69.0842 47.8719 69.0842 46.7884C69.0842 45.7 69.0435 45.5035 68.685 44.8643C67.4366 42.6386 64.1723 40.7376 59.9484 39.7764C57.0428 39.1152 55.9877 39.0148 51.017 38.9272C44.813 38.8179 43.9262 38.8984 41.2675 39.8115C38.4568 40.7767 36.181 42.5071 35.2502 44.3865C34.9105 45.0724 34.861 45.326 34.86 46.3843C34.859 47.4797 34.9015 47.6826 35.3018 48.4908C35.877 49.6521 36.7434 50.5908 38.0159 51.4314C38.6099 51.8239 38.933 52.1083 38.7846 52.1083C38.2529 52.1083 36.0381 51.3919 34.827 50.8281C30.1486 48.6502 28.9375 45.124 31.8724 42.2251C33.4879 40.6294 36.5197 39.2693 39.5631 38.775C41.0157 38.539 41.1447 38.4068 40.007 38.4133Z" fill="#002B9B"/>
<g filter="url(#filter0_f_472:5005)">
<path d="M46.4285 50.0755C48.5677 50.0755 50.3019 48.3626 50.3019 46.2497C50.3019 44.1367 48.5677 42.4238 46.4285 42.4238C44.2893 42.4238 42.5552 44.1367 42.5552 46.2497C42.5552 48.3626 44.2893 50.0755 46.4285 50.0755Z" fill="white"/>
</g>
<g opacity="0.5" filter="url(#filter1_f_472:5005)">
<path d="M46.4285 50.0755C48.5677 50.0755 50.3019 48.3626 50.3019 46.2497C50.3019 44.1367 48.5677 42.4238 46.4285 42.4238C44.2893 42.4238 42.5552 44.1367 42.5552 46.2497C42.5552 48.3626 44.2893 50.0755 46.4285 50.0755Z" fill="white"/>
</g>
<path d="M44.7763 37.6045C42.7571 36.021 41.0711 34.1936 40.7376 33.2268C40.16 31.5522 41.0689 29.9198 43.7107 27.8878C44.397 27.3599 45.2938 26.5616 45.7037 26.1139L46.4488 25.2998L47.1239 25.9287C47.4953 26.2745 48.4107 27.0429 49.1582 27.6362C51.8816 29.7974 52.838 31.729 52.0764 33.5294C51.5686 34.7298 47.2278 38.7145 46.4279 38.7145C46.298 38.7145 45.5548 38.215 44.7763 37.6045Z" fill="#FF8903"/>
<defs>
<filter id="filter0_f_472:5005" x="1.35784" y="1.22649" width="90.1414" height="90.046" filterUnits="userSpaceOnUse" color-interpolation-filters="sRGB">
<feFlood flood-opacity="0" result="BackgroundImageFix"/>
<feBlend mode="normal" in="SourceGraphic" in2="BackgroundImageFix" result="shape"/>
<feGaussianBlur stdDeviation="20.5987" result="effect1_foregroundBlur_472:5005"/>
</filter>
<filter id="filter1_f_472:5005" x="37.5552" y="37.4238" width="17.7467" height="17.6514" filterUnits="userSpaceOnUse" color-interpolation-filters="sRGB">
<feFlood flood-opacity="0" result="BackgroundImageFix"/>
<feBlend mode="normal" in="SourceGraphic" in2="BackgroundImageFix" result="shape"/>
<feGaussianBlur stdDeviation="2.5" result="effect1_foregroundBlur_472:5005"/>
</filter>
</defs>
</svg>
