<svg width="140" height="140" viewBox="0 0 140 140" fill="none" xmlns="http://www.w3.org/2000/svg">
<path fill-rule="evenodd" clip-rule="evenodd" d="M45.5299 71.193C45.5299 73.4679 42.9503 73.1228 42.9503 73.1228H32.6669C31.0628 73.1228 30.6936 71.8975 30.6936 70.777V69.1254L28 71.2014V71.789C28 74.6257 29.4578 75.6528 32.7205 75.6528H44.0648C46.2605 75.6528 48.2144 74.1976 48.2144 72.1166V66.6686L45.5299 69.1597V71.193Z" fill="white"/>
<path fill-rule="evenodd" clip-rule="evenodd" d="M49.8989 76.2142H52.145V63.861L49.8989 66.3834V76.2142Z" fill="white"/>
<path fill-rule="evenodd" clip-rule="evenodd" d="M54.9508 73.832C54.9508 75.5046 53.9849 76.4454 52.145 76.4454L53.9446 79.0217C54.9676 79.0217 57.7601 78.3253 57.7601 73.609V66.1069L54.9508 68.7878V73.832Z" fill="white"/>
<path fill-rule="evenodd" clip-rule="evenodd" d="M62.7153 76.2143H64.5965H65.2676H67.1677C68.3143 76.2143 69.2063 75.8131 69.8426 75.0115C70.3971 74.3313 70.6745 73.4651 70.6745 72.4125V67.283L67.9614 69.8436V71.6423C67.9614 72.9325 67.5047 73.5773 66.5909 73.5773H62.1283C62.1283 73.5773 62.1574 72.2584 62.1574 71.5275V63.2996L59.4443 65.8955V72.9613C59.4443 75.1302 60.5344 76.2143 62.7153 76.2143Z" fill="white"/>
<path fill-rule="evenodd" clip-rule="evenodd" d="M71.7959 76.2142H74.0419V63.861L71.7959 66.2134V76.2142Z" fill="white"/>
<path fill-rule="evenodd" clip-rule="evenodd" d="M72.8802 59.3689C68.9155 59.3689 67.8672 62.1847 67.8672 63.2156L70.5327 64.984C70.5327 63.1291 70.9778 62.2012 72.6564 62.2012H75.2834L77.9744 59.3689H72.8802Z" fill="white"/>
<path fill-rule="evenodd" clip-rule="evenodd" d="M37.2721 66.6686H30.8086V68.9147H39.7928L37.2721 66.6686Z" fill="white"/>
<path fill-rule="evenodd" clip-rule="evenodd" d="M67.861 80.1449L70.114 78.0412C70.0902 78.009 70.0699 77.973 70.0448 77.9425C69.4142 77.1646 68.531 76.7759 67.3956 76.7759C67.3956 76.7759 60.0888 76.7805 60.0068 76.7835L62.7388 79.3332H66.5073C67.0559 79.3332 67.5531 79.6664 67.861 80.1449Z" fill="white"/>
<path fill-rule="evenodd" clip-rule="evenodd" d="M65.0601 80.1449H66.4051C66.9971 80.1449 67.3061 80.8215 67.3061 80.8215L66.4857 81.8294L65.0601 80.1449Z" fill="white"/>
<path fill-rule="evenodd" clip-rule="evenodd" d="M94.2571 56.8256L91.5392 56.1453C89.1015 55.535 86.5999 56.9033 85.9528 59.2015L85.2729 61.6151C87.4611 59.0603 90.6388 57.2923 94.2571 56.8256Z" fill="white"/>
<path fill-rule="evenodd" clip-rule="evenodd" d="M82.6713 72.8452L82.0486 75.4076C81.4425 77.9016 82.801 80.4601 85.0832 81.1224L87.5194 81.8294C84.9854 79.6516 83.2035 76.478 82.6713 72.8452Z" fill="white"/>
<path fill-rule="evenodd" clip-rule="evenodd" d="M107.778 60.1095L104.928 59.3688C107.76 61.5071 109.712 64.7028 110.171 68.353L110.954 65.4674C111.588 63.1292 110.166 60.7305 107.778 60.1095Z" fill="white"/>
<path fill-rule="evenodd" clip-rule="evenodd" d="M98.1875 84.3292L100.919 85.0488C103.312 85.6786 105.767 84.2662 106.403 81.8934L107.172 79.022C105.046 81.8295 101.851 83.7952 98.1875 84.3292Z" fill="white"/>
<path fill-rule="evenodd" clip-rule="evenodd" d="M100.99 69.9596C99.033 69.5826 97.7515 67.6905 98.1285 65.7326C98.5055 63.7752 100.398 62.4937 102.356 62.8706C104.313 63.2476 105.595 65.1402 105.218 67.0977C104.841 69.0555 102.948 70.337 100.99 69.9596ZM103.379 76.6486C103.002 78.606 101.109 79.8871 99.1516 79.5105C97.1937 79.1336 95.9121 77.2409 96.2896 75.2831C96.6661 73.3261 98.5588 72.0446 100.517 72.4211C102.474 72.7981 103.756 74.6912 103.379 76.6486ZM95.8529 71.9827C94.9829 71.8156 94.4131 70.9742 94.5807 70.1042C94.7483 69.2342 95.5893 68.6645 96.4593 68.8316C97.3297 68.9997 97.899 69.8406 97.7314 70.711C97.5638 71.581 96.7228 72.1503 95.8529 71.9827ZM94.3202 74.9044C93.9432 76.8618 92.0505 78.1429 90.0926 77.7663C88.1352 77.3893 86.8541 75.4963 87.2306 73.5393C87.608 71.5814 89.5003 70.2999 91.4577 70.6769C93.4156 71.0539 94.6971 72.9465 94.3202 74.9044ZM89.07 63.9884C89.447 62.0305 91.3396 60.749 93.2971 61.1264C95.255 61.5034 96.5365 63.3956 96.1591 65.3535C95.7825 67.3109 93.8899 68.5924 91.932 68.2154C89.9745 67.8384 88.693 65.9458 89.07 63.9884ZM96.2243 57.6845C89.2465 57.6845 83.5903 63.3406 83.5903 70.3183C83.5903 77.2959 89.2465 82.9525 96.2243 82.9525C103.202 82.9525 108.858 77.2959 108.858 70.3183C108.858 63.3406 103.202 57.6845 96.2243 57.6845Z" fill="white"/>
<rect x="0.5" y="0.5" width="139" height="139" stroke="#4A4E57"/>
</svg>
