<svg width="140" height="141" viewBox="0 0 140 141" fill="none" xmlns="http://www.w3.org/2000/svg">
<rect x="0.5" y="0.611816" width="139" height="139" stroke="#4A4E57"/>
<path fill-rule="evenodd" clip-rule="evenodd" d="M67.6463 48.7251C67.3481 48.9429 66.5923 50.0608 66.6898 50.4805C66.7741 50.8416 67.6187 52.0212 67.9649 51.6472C68.3795 51.1507 68.7221 50.5862 68.9804 49.9727C69.0335 49.6492 68.2188 48.9942 68.0122 48.79C67.9293 48.7067 67.8798 48.6506 67.8122 48.6506C67.7692 48.6506 67.7183 48.6731 67.6463 48.7251Z" fill="white"/>
<path fill-rule="evenodd" clip-rule="evenodd" d="M69.9762 51.2985C70.1814 51.6109 70.4425 51.8845 70.7454 52.105C70.4441 53.2029 70.3944 53.4827 71.1028 54.4162C71.8436 54.8479 72.3872 55.1721 73.2409 54.798C73.7237 54.6461 74.0653 54.2183 74.1047 53.718C74.1118 53.5645 73.9793 52.839 73.6842 53.0362C73.461 53.1842 73.3931 53.404 73.1154 53.4873C72.9513 53.5388 72.7738 53.5162 72.6286 53.4266C72.4827 53.337 72.3833 53.1889 72.3572 53.0214C72.1269 51.3951 75.1169 51.0421 75.5335 53.3276C75.9374 55.5461 73.3521 56.2887 72.0645 57.4895C70.1948 59.2319 69.6401 62.2008 69.9289 64.6398C70.0401 65.9582 70.9111 67.0936 72.1632 67.5541L72.164 67.5479C73.5533 68.0575 75.173 67.8183 76.5426 67.3196C80.8817 65.7393 86.7845 60.7389 88.4673 56.4212C88.82 55.5126 89.0693 53.3455 88.846 52.4151C88.775 52.1073 88.6054 51.8299 88.3624 51.625C86.9431 50.365 86.3403 53.0533 86.353 54.0016C86.7837 54.9024 87.403 54.3998 88.0626 54.1723C88.7079 53.9479 87.8401 55.8009 87.68 56.0019C85.5183 58.7043 82.144 62.1189 79.1137 63.8068C77.9177 64.5104 76.6009 64.9889 75.229 65.2203C74.6215 65.32 74.0045 65.3473 73.39 65.3006C72.5908 65.2024 71.6693 64.9133 71.2141 64.205C70.0898 62.4634 71.0957 58.0537 73.315 57.7568C74.388 57.6118 75.1382 59.168 74.283 59.7259C74.1497 59.8108 74.0006 59.8677 73.8444 59.8942C73.6101 59.902 73.2858 59.6355 73.1059 59.5054C72.4472 59.6082 72.5852 61.3857 74.2744 61.2306C74.3359 62.3208 74.8416 63.4016 75.9437 63.7717C76.2798 63.8847 77.0688 64.1683 77.3662 63.9049C77.4175 63.4538 76.8471 63.2138 76.6143 62.9044C75.9516 62.0215 76.1047 61.3966 76.1142 60.3875C76.1236 59.2607 75.8467 58.8851 75.382 57.922C75.3252 57.8043 75.3978 57.8503 75.4743 57.7638C75.7796 57.6944 76.081 57.6095 76.3784 57.5105C77.1911 57.0835 76.713 56.2739 76.171 55.8695L76.1402 55.7939C76.2057 55.3014 76.6609 54.8767 76.7248 54.2845C76.8865 52.7775 76.0455 51.1224 74.5308 50.6642C73.9091 50.5177 73.27 50.467 72.6342 50.5153C72.0882 50.2948 71.4373 50.1086 71.117 49.574C70.9569 49.3068 70.8985 49.0044 70.7163 48.7465L70.5537 48.6506C69.6196 48.9195 69.6062 50.6034 69.9762 51.2985Z" fill="white"/>
<path fill-rule="evenodd" clip-rule="evenodd" d="M86.1319 60.9403C84.3841 63.4961 81.5699 66.1944 79.1307 68.1071C78.2961 68.7333 77.4099 69.2887 76.4829 69.7686C75.9039 70.0336 75.3079 70.2616 74.6997 70.4511C73.8989 70.7153 73.0612 70.844 72.2197 70.8309C70.4626 70.7492 69.3985 70.1776 69.0482 68.3536C68.778 66.9516 69.9883 64.6631 69.8882 64.1917C69.8736 64.117 69.8205 64.0114 69.725 64.0176C69.5348 64.0299 69.3108 64.449 69.2453 64.5907C69.1137 64.8765 69.019 65.2077 68.9127 65.5058C68.269 67.0749 68.0658 68.7903 68.3245 70.4665C68.4923 71.9586 69.9283 73.0254 71.335 73.1749C72.5962 73.2773 73.8635 73.0901 75.0415 72.6264C75.9601 72.2582 76.8509 71.8253 77.7094 71.33C80.7207 69.4127 83.3716 66.9763 85.5383 64.1324C85.6715 63.9614 86.5854 62.8182 86.607 62.7512C86.6647 62.192 86.6085 61.6281 86.4391 61.0928C86.4199 61.0312 86.376 60.9795 86.3175 60.951C86.2851 60.9349 86.2482 60.9264 86.212 60.9264C86.185 60.9264 86.1581 60.931 86.1319 60.9403Z" fill="white"/>
<path fill-rule="evenodd" clip-rule="evenodd" d="M70.7697 73.2742C70.3535 73.7715 70.0115 74.3361 69.7525 74.9487C69.6994 75.2722 70.515 75.9256 70.721 76.1322C70.857 76.2676 70.9021 76.3308 71.0862 76.1971C71.3853 75.9793 72.1406 74.8598 72.0431 74.4418C71.971 74.1279 71.3278 73.2021 70.9327 73.2021C70.8709 73.2021 70.8156 73.2246 70.7697 73.2742Z" fill="white"/>
<path fill-rule="evenodd" clip-rule="evenodd" d="M62.1911 57.6027C57.8507 59.182 51.948 64.1815 50.2658 68.4993C49.9123 69.4078 49.663 71.5745 49.887 72.5032C49.9588 72.8117 50.1277 73.089 50.3707 73.2947C51.791 74.5538 52.3938 71.8666 52.3804 70.9184C51.9495 70.0178 51.331 70.5195 50.6705 70.7478C50.0243 70.9722 50.893 69.1179 51.054 68.9185C53.2144 66.2158 56.5898 62.8025 59.6173 61.115C60.8142 60.4106 62.1319 59.9315 63.5032 59.7009C64.1116 59.6011 64.7286 59.5739 65.3424 59.6214C66.1417 59.7196 67.0641 60.0078 67.5201 60.7168C68.6437 62.4581 67.6377 66.8663 65.4174 67.1639C64.3459 67.3081 63.594 65.7522 64.4508 65.1951C64.5834 65.1102 64.7325 65.0533 64.888 65.0276C65.1215 65.0191 65.4482 65.2855 65.6265 65.4148C66.2853 65.3128 66.148 63.5356 64.4595 63.6899C64.3972 62.6007 63.8906 61.5193 62.7884 61.1492C62.4522 61.0363 61.6632 60.7527 61.3658 61.0168C61.316 61.4671 61.8865 61.7079 62.1177 62.0179C62.7805 62.8999 62.629 63.5239 62.6195 64.536C62.6077 65.6626 62.8854 66.0381 63.3501 67.0011C63.4077 67.1187 63.3359 67.0728 63.2578 67.16C62.9525 67.2286 62.6503 67.3135 62.3536 67.4132C61.5401 67.8394 62.0183 68.6497 62.5619 69.054L62.5927 69.1288C62.5264 69.6212 62.0711 70.0458 62.0072 70.6387C61.8455 72.1455 62.685 73.7996 64.2023 74.2577C64.8225 74.4034 65.4632 74.454 66.0999 74.4065C66.6443 74.627 67.2961 74.8132 67.6156 75.3484C67.7766 75.6149 67.835 75.918 68.0164 76.1751L68.179 76.2709C69.1124 76.0021 69.1266 74.3185 68.7565 73.6243C68.5514 73.3111 68.291 73.0376 67.9872 72.8171C68.2879 71.7194 68.3384 71.4404 67.6298 70.5063C66.8889 70.0739 66.3461 69.7506 65.4916 70.1261C65.0087 70.2772 64.667 70.7042 64.6284 71.2052C64.6221 71.3579 64.7538 72.084 65.0489 71.8869C65.2714 71.7388 65.3401 71.5191 65.6186 71.4358C65.7819 71.3844 65.9587 71.4069 66.1046 71.4965C66.2506 71.5854 66.3492 71.7334 66.3761 71.9017C66.6064 73.5269 63.616 73.8806 63.1994 71.5947C62.7947 69.3774 65.3811 68.6349 66.6696 67.4343C68.538 65.6922 69.0927 62.7246 68.8062 60.2852C68.6926 58.967 67.8231 57.8326 66.5709 57.3721V57.3729C66.0297 57.175 65.4529 57.0901 64.8706 57.0901C63.9569 57.0901 63.0274 57.2981 62.1911 57.6027Z" fill="white"/>
<path fill-rule="evenodd" clip-rule="evenodd" d="M64.459 52.2949C63.5398 52.6631 62.6482 53.0975 61.7905 53.592C58.7793 55.509 56.1293 57.9452 53.9619 60.7888C53.8295 60.9598 52.9148 62.1027 52.894 62.1705C52.834 62.7282 52.8925 63.2935 53.0611 63.8288C53.0811 63.8904 53.1243 63.9412 53.182 63.9697C53.2405 63.999 53.3075 64.0036 53.3675 63.9813C55.1145 61.4242 57.9301 58.7277 60.3692 56.8145C61.203 56.1891 62.0885 55.633 63.0139 55.154C63.5929 54.8875 64.1896 54.6603 64.7986 54.4715C65.5985 54.2066 66.4377 54.0772 67.2808 54.0903C69.0362 54.1727 70.1018 54.7442 70.4513 56.568C70.7231 57.9706 69.512 60.2581 69.6114 60.7295C69.6275 60.805 69.6799 60.9097 69.7754 60.9035C69.9648 60.8912 70.1896 60.4715 70.2542 60.3297C70.3867 60.0448 70.4814 59.7128 70.5876 59.4155C71.2313 57.8474 71.4345 56.1313 71.1751 54.4554C71.0072 52.9635 69.5713 51.8968 68.1662 51.7473C67.9414 51.7288 67.7174 51.7196 67.4933 51.7196C66.457 51.7196 65.4276 51.9137 64.459 52.2949Z" fill="white"/>
<path fill-rule="evenodd" clip-rule="evenodd" d="M50.8607 85.9233C50.7205 86.103 50.6218 86.3014 50.5693 86.5103C50.5764 86.5628 50.6148 86.6089 50.6727 86.6335L50.9516 86.7846C51.0965 86.8793 51.2571 86.9558 51.4294 87.0122C51.5296 87.0116 51.6675 86.9059 51.8422 86.6945C51.9879 86.5427 52.0787 86.3605 52.1038 86.1685C52.0419 85.8059 51.6887 85.5219 51.243 85.4778C51.1819 85.4778 51.055 85.6257 50.8607 85.9233Z" fill="white"/>
<path fill-rule="evenodd" clip-rule="evenodd" d="M51.5926 76.3626C51.4263 76.6208 51.3048 76.8139 51.2288 76.9426C51.1537 77.0713 51.0743 77.1955 50.9908 77.3128C50.93 77.3749 50.8869 77.4491 50.865 77.5286V77.6914C50.865 77.7883 50.8675 77.8829 50.8717 77.9753C50.876 78.0639 50.8684 78.1532 50.8464 78.2403C50.827 78.3198 50.7941 78.397 50.7468 78.4667C50.6903 78.5409 50.616 78.6015 50.5265 78.6439C50.0732 78.8657 49.6368 79.1171 49.2232 79.3949C48.898 79.6146 48.5944 79.8354 48.3253 80.124C48.1845 80.2751 48.0616 80.4862 47.9316 80.6363C48.221 80.7982 48.4006 80.8893 48.4704 80.9095C48.4987 80.7367 48.5339 80.5179 48.5998 80.3793C48.6658 80.2408 48.9877 80.0294 49.2308 79.8909C49.4832 79.7432 49.7449 79.6077 50.0133 79.485C50.2817 79.3647 50.5071 79.2564 50.6903 79.161C50.9072 79.0512 51.0921 78.8983 51.2288 78.7143C51.3816 78.5174 51.4913 78.2979 51.5563 78.0662C51.5884 77.9337 51.6146 77.8042 51.6306 77.6785C51.6466 77.5536 51.6593 77.4256 51.6677 77.2969C51.6762 77.1674 51.6829 77.0304 51.6863 76.882C51.6914 76.7351 51.7015 76.5655 51.7175 76.374C51.7251 76.3051 51.7175 76.271 51.6947 76.271C51.6905 76.271 51.6863 76.2718 51.6812 76.274C51.6407 76.2945 51.6103 76.3255 51.5926 76.3626Z" fill="white"/>
<path fill-rule="evenodd" clip-rule="evenodd" d="M48.0435 80.4649C47.9373 80.6153 47.8577 80.7337 47.8049 80.8199C47.7256 80.9492 47.6532 81.0896 47.5961 81.2214C47.5422 81.3398 47.5113 81.4657 47.5018 81.5959C47.4915 81.7579 47.5263 81.9191 47.6017 82.0619C47.6786 82.2021 47.7824 82.3247 47.9077 82.4204C48.0472 82.5296 48.2003 82.6177 48.3604 82.6849C48.5356 82.7596 48.7172 82.8167 48.9035 82.857C49.6987 83.0359 50.5082 83.1341 51.3225 83.1509C52.1352 83.1677 52.9574 83.1761 53.7906 83.1761C55.5397 83.1761 57.2665 83.0938 58.9648 82.9301C60.6646 82.7672 62.37 82.5413 64.0826 82.2559C65.5501 82.0107 66.7553 81.7789 67.698 81.5623C68.6399 81.3465 69.3614 81.1559 69.864 80.9922C70.0678 80.9435 70.2581 80.8494 70.423 80.7159C70.5126 80.6227 70.5379 80.5388 70.4999 80.4649C70.4333 80.3733 70.3366 80.3137 70.2279 80.2995C70.0694 80.2608 69.906 80.2516 69.7459 80.2684C68.6224 80.3834 67.518 80.5245 66.4302 80.6916C65.3432 80.8595 64.2419 81.0006 63.1272 81.1148C61.7223 81.2625 60.3269 81.3641 58.941 81.4221C57.5543 81.4792 56.1161 81.496 54.6247 81.4708C52.8487 81.4859 51.0735 81.3306 49.3245 81.0048C49.2698 80.9888 49.1993 80.9687 49.1136 80.9443C49.0264 80.92 48.9424 80.8906 48.8599 80.8545C48.7806 80.8192 48.7101 80.7697 48.6482 80.7067C48.5896 80.6488 48.5618 80.5656 48.5705 80.4817C48.5848 80.3767 48.5737 80.2684 48.5372 80.1685C48.5158 80.1282 48.4786 80.1072 48.4239 80.1072C48.3953 80.1072 48.362 80.1131 48.3247 80.124C48.2299 80.2187 48.1378 80.3414 48.0435 80.4649Z" fill="white"/>
<path fill-rule="evenodd" clip-rule="evenodd" d="M53.618 83.945C53.5941 83.9587 53.5692 84.0161 53.5438 84.118C53.4755 84.3937 53.4077 84.6678 53.3425 84.941C53.2768 85.2135 53.2154 85.4884 53.1577 85.7632C53.1386 85.8401 53.1243 85.9193 53.1147 86.0001C53.1063 86.0818 53.102 86.1643 53.102 86.2475C53.1132 86.811 53.0999 87.3754 53.0634 87.9364C53.0263 88.4959 52.9739 89.0465 52.9061 89.5906C52.8944 89.6925 52.8849 89.7887 52.8774 89.8792C52.869 89.9399 52.869 90.0021 52.8774 90.0627C52.8849 90.0935 52.9013 90.0862 52.9283 90.0385C52.9776 89.9374 53.0221 89.8307 53.0623 89.72C53.1338 89.5049 53.1984 89.285 53.2546 89.0594C53.3097 88.8387 53.3637 88.6148 53.4161 88.386C53.4733 88.1337 53.5136 87.8718 53.5343 87.6058C53.5549 87.3382 53.5703 87.0714 53.5814 86.8038C53.592 86.3542 53.5957 85.9136 53.5931 85.4803C53.5899 85.0486 53.6021 84.6071 53.6285 84.1584C53.6428 84.021 53.6418 83.9434 53.6232 83.9434C53.6217 83.9434 53.6201 83.9442 53.618 83.945Z" fill="white"/>
<path fill-rule="evenodd" clip-rule="evenodd" d="M55.871 86.245C55.8134 86.249 55.7534 86.3299 55.6919 86.4868C55.5674 86.8143 55.4631 87.1499 55.3798 87.4911C55.2942 87.842 55.1611 88.1801 54.9867 88.4954C54.8404 88.7647 54.6668 89.0178 54.4676 89.2483C54.2426 89.5086 53.9912 89.7423 53.7165 89.9461C53.5164 90.103 53.3506 90.2388 53.2199 90.3529C53.0875 90.4677 52.991 90.5566 52.9303 90.6189C52.8875 90.6626 52.8665 90.7232 52.8719 90.7839C52.8797 90.8397 52.9373 90.8591 53.0455 90.8429C53.4744 90.745 53.8931 90.6019 54.294 90.4184C54.4419 90.3553 54.582 90.2736 54.7104 90.1758C54.8311 90.0803 54.9338 89.9647 55.0163 89.8329C55.1144 89.6776 55.1961 89.5111 55.2599 89.3372C55.3323 89.1448 55.4071 88.9183 55.4841 88.6588C55.6234 88.1307 55.7293 87.69 55.8032 87.335C55.8616 87.0666 55.906 86.7949 55.9363 86.5207L55.9356 86.5224C55.9496 86.3372 55.9309 86.245 55.8749 86.245C55.8741 86.245 55.8725 86.245 55.871 86.245Z" fill="white"/>
<path fill-rule="evenodd" clip-rule="evenodd" d="M57.4169 83.1838C57.3819 83.2091 57.352 83.239 57.3325 83.2728L57.2409 83.407C57.1194 83.5864 57.0124 83.7567 56.9208 83.9162C56.8282 84.0773 56.752 84.2176 56.6902 84.3372C56.5904 84.5397 56.5194 84.7506 56.4772 84.9646C56.3125 85.8365 56.1818 86.562 56.0861 87.141C56.0007 87.6073 55.9513 88.0767 55.9399 88.5468C56.0357 88.5368 56.1221 88.4985 56.1777 88.4402C56.2775 88.3543 56.366 88.2607 56.4381 88.1603C56.5317 88.0322 56.611 87.8995 56.6748 87.7622C56.7448 87.6173 56.7962 87.467 56.8282 87.3144C56.8601 86.7185 56.927 86.0827 57.0299 85.4071C57.1318 84.7314 57.2687 84.065 57.4416 83.4078C57.4683 83.3426 57.4776 83.2743 57.4735 83.2061C57.4652 83.1861 57.4539 83.1761 57.4395 83.1761C57.4333 83.1761 57.4251 83.1784 57.4169 83.1838Z" fill="white"/>
<path fill-rule="evenodd" clip-rule="evenodd" d="M58.5339 83.6244C58.3969 83.8025 58.2983 83.9988 58.2436 84.2056L58.2412 84.2063C58.249 84.2611 58.2874 84.3107 58.3461 84.3394C58.4384 84.3896 58.5315 84.4373 58.6246 84.4823C58.7686 84.5775 58.9298 84.6539 59.1012 84.7106C59.2029 84.7106 59.3406 84.6062 59.5135 84.3955C59.6599 84.2454 59.7514 84.0641 59.7757 83.8723C59.7139 83.5063 59.361 83.2205 58.9157 83.1761C58.8547 83.1768 58.7279 83.3255 58.5339 83.6244Z" fill="white"/>
<path fill-rule="evenodd" clip-rule="evenodd" d="M58.3013 85.8383C58.201 85.9956 58.1163 86.161 58.0478 86.3336L57.9264 86.5925C57.8865 86.6788 57.8449 86.774 57.8058 86.8748C57.7659 86.9668 57.7561 87.0668 57.7749 87.1636C57.7936 87.2499 57.8352 87.3298 57.8963 87.3935C57.9566 87.4564 58.0348 87.5016 58.1204 87.5234C58.2157 87.5467 58.3151 87.5467 58.4113 87.5234C58.5189 87.5048 58.6223 87.4645 58.7136 87.4056C58.7552 87.3749 58.8122 87.3693 58.8578 87.3935C59.02 87.4564 59.0982 87.5427 59.095 87.6524C59.086 87.775 59.0371 87.8904 58.9556 87.9831C58.7975 88.1541 58.5914 88.2751 58.3624 88.3284C58.1342 88.3929 57.8963 88.4155 57.6608 88.3929C57.5182 88.3808 57.378 88.3517 57.2435 88.3066C57.1197 88.2654 57.0097 88.1904 56.9274 88.0912C56.8345 87.9718 56.766 87.8355 56.7285 87.6903C56.6747 87.4862 56.6495 87.2765 56.656 87.066L55.9413 88.3622C55.9324 88.6445 55.9666 88.9269 56.0448 89.1987C56.0978 89.3745 56.1866 89.5391 56.304 89.6819C56.4262 89.8262 56.5843 89.9375 56.7652 90.0037C56.9339 90.0618 57.1115 90.0884 57.2908 90.0795C57.4709 90.0714 57.6494 90.0335 57.8172 89.9674C57.9835 89.9029 58.1391 89.8133 58.2776 89.7028C58.6672 89.3939 58.9923 89.014 59.2343 88.5832C59.4788 88.1582 59.6499 87.696 59.7428 87.2168C59.7819 86.9974 59.7876 86.7724 59.7542 86.5514C59.7184 86.3183 59.632 86.0956 59.5008 85.8972C59.3786 85.6738 59.1569 85.5181 58.901 85.4794C58.8872 85.4786 58.8733 85.4778 58.8595 85.4778C58.6175 85.4778 58.3974 85.6189 58.3013 85.8383Z" fill="white"/>
<path fill-rule="evenodd" clip-rule="evenodd" d="M67.104 91.2471C66.9808 91.4285 66.8647 91.6151 66.7563 91.8067C66.6573 91.6312 66.5232 91.4822 66.3625 91.3706C66.2417 91.2564 66.0935 91.1789 65.9345 91.1465C65.8799 91.1465 65.7357 91.3561 65.5002 91.7752C65.3528 92.0009 65.2343 92.2454 65.147 92.5052C65.1517 92.5402 65.2834 92.6603 65.5407 92.8639C65.6179 92.9218 65.6904 92.984 65.7606 93.0504C65.8214 93.1024 65.8932 93.1373 65.9696 93.1501C66.1388 93.1501 66.3836 92.8553 66.6994 92.2667C66.867 92.386 67.0253 92.5189 67.1742 92.6645C67.3052 92.7974 67.4019 92.8639 67.4635 92.8639C67.5555 92.8639 67.7029 92.7233 67.9032 92.4405C68.0795 92.2403 68.1886 91.9813 68.2159 91.7062C68.1878 91.4779 68.0756 91.2709 67.9032 91.1346C67.7738 90.9779 67.5976 90.8765 67.4058 90.8484C67.3668 90.8484 67.2662 90.9813 67.104 91.2471Z" fill="white"/>
<path fill-rule="evenodd" clip-rule="evenodd" d="M65.1002 82.4152C65.0524 82.4786 65.0153 82.5475 64.9898 82.621C64.877 82.9114 64.7427 83.2887 64.5887 83.7528C64.5681 83.8146 64.5533 83.8772 64.5434 83.9414C64.5459 84.008 64.5648 84.0729 64.5986 84.13C64.6192 84.1841 64.6464 84.2365 64.6785 84.285C64.7147 84.3422 64.7534 84.4087 64.7938 84.4846C64.9741 84.7304 65.0919 85.0121 65.1372 85.3072C65.1504 85.4348 65.1331 85.5639 65.0886 85.6852C65.0392 85.8371 64.9667 86.0241 64.8679 86.2449C64.7781 86.4413 64.69 86.6378 64.6052 86.8319C64.5195 87.026 64.4281 87.2154 64.3301 87.3985C64.2486 87.5582 64.1761 87.7163 64.1168 87.872C64.0567 88.0145 64.0262 88.1663 64.0237 88.3182C64.0246 88.4598 64.0624 88.5992 64.1341 88.7236C64.2296 88.8747 64.3647 89.0007 64.5253 89.0891C64.6101 89.129 64.6908 89.1736 64.7699 89.2214C64.8523 89.2707 64.9379 89.3216 65.0269 89.3756C65.157 89.4515 65.2286 89.5298 65.2418 89.6096C65.25 89.7168 65.2344 89.8233 65.1965 89.9242C65.1249 90.1723 64.9873 90.3993 64.7946 90.5817C64.5961 90.7703 64.3672 90.9284 64.1168 91.0505C63.8524 91.1789 63.5724 91.2775 63.2842 91.344C63.0017 91.4105 62.7126 91.4489 62.4211 91.4575C62.0496 91.4857 61.6774 91.4223 61.3389 91.2751C61.0704 91.1491 60.848 90.9496 60.7031 90.7038C60.554 90.4369 60.4741 90.141 60.47 89.8405C60.4618 89.4852 60.5136 89.1314 60.6232 88.7925C60.741 88.373 60.8925 87.9621 61.0762 87.5637C61.2631 87.1559 61.4385 86.7802 61.6024 86.4382C61.6831 86.2707 61.7078 86.1658 61.6749 86.1235C61.6428 86.0813 61.6057 86.0907 61.5654 86.1525C61.3982 86.3865 61.2475 86.6315 61.1124 86.8835C60.9749 87.1426 60.8406 87.4017 60.7105 87.6607C60.5729 87.9268 60.4395 88.2055 60.3135 88.4951C60.1875 88.7839 60.0788 89.0797 59.989 89.3803C59.8993 89.6808 59.8367 89.9861 59.7996 90.2952C59.7625 90.602 59.7691 90.912 59.8177 91.2172C59.8671 91.6915 60.0772 92.1392 60.4173 92.4922C60.7171 92.7912 61.1042 92.9994 61.5299 93.0917C61.9673 93.1825 62.4227 93.1677 62.851 93.0464C63.3113 92.9227 63.7305 92.6957 64.0748 92.3834C64.3161 92.1635 64.5327 91.9224 64.723 91.6626C64.9256 91.3894 65.1059 91.1006 65.2616 90.8001C65.4148 90.5019 65.5416 90.1919 65.6404 89.8734C65.7351 89.5736 65.7961 89.266 65.8233 88.9537C65.8587 88.6806 65.8463 88.4051 65.787 88.1366C65.6931 87.8634 65.4798 87.6404 65.1998 87.5245C65.012 87.4259 64.919 87.3375 64.919 87.2616C64.9305 87.1434 64.9626 87.0268 65.0162 86.9187C65.2525 86.3701 65.4502 85.884 65.61 85.4614C65.7557 85.0904 65.8521 84.7045 65.8966 84.3124C65.9361 83.9962 65.9073 83.6745 65.8117 83.3693C65.7253 83.0562 65.5523 82.7705 65.3102 82.5396C65.2163 82.4528 65.152 82.4089 65.1183 82.4089C65.1109 82.4089 65.1043 82.4113 65.1002 82.4152Z" fill="white"/>
<path fill-rule="evenodd" clip-rule="evenodd" d="M68.1581 83.1838C68.1231 83.2091 68.0943 83.239 68.0737 83.2728L67.9821 83.407C67.8606 83.5864 67.7536 83.7567 67.662 83.9162C67.5694 84.0773 67.4932 84.2176 67.4325 84.3372C67.3316 84.5397 67.2606 84.7506 67.2184 84.9646C67.0548 85.8365 66.924 86.562 66.8283 87.141C66.7419 87.6073 66.6925 88.0767 66.6812 88.5468C66.7769 88.5368 66.8644 88.4985 66.9189 88.4402C67.0198 88.3543 67.1072 88.2607 67.1793 88.1603C67.273 88.0322 67.3522 87.8995 67.416 87.7622C67.486 87.6173 67.5385 87.467 67.5694 87.3144L67.5725 87.3167C67.6023 86.7192 67.6692 86.0827 67.7721 85.4071C67.873 84.7314 68.0109 84.065 68.1828 83.4078C68.2095 83.3426 68.2188 83.2743 68.2147 83.2061C68.2064 83.1861 68.1951 83.1761 68.1807 83.1761C68.1745 83.1761 68.1663 83.1784 68.1581 83.1838Z" fill="white"/>
<path fill-rule="evenodd" clip-rule="evenodd" d="M66.6855 88.2906C66.678 88.4672 66.6803 88.643 66.6915 88.8196C66.7013 89.0185 66.7351 89.2158 66.7913 89.4059C66.8431 89.584 66.9324 89.7463 67.0533 89.8823C67.1824 90.0184 67.361 90.09 67.5441 90.0804C67.7272 90.0828 67.9066 90.0303 68.062 89.9293C68.2173 89.8251 68.3532 89.6946 68.4635 89.5395C68.5806 89.3772 68.6781 89.1998 68.7539 89.0113C68.8297 88.822 68.8958 88.6279 68.9491 88.4306C68.9701 88.3447 68.9806 88.2572 68.9829 88.1689C68.9821 88.0878 68.9183 88.0393 68.793 88.0234C68.7337 88.0162 68.6691 88.0106 68.6031 88.0059C68.5393 88.0027 68.4763 87.9931 68.414 87.9772C68.3104 87.9557 68.2421 87.8539 68.2579 87.7449C68.14 87.7211 68.0184 87.7394 67.9119 87.7967C67.7963 87.8595 67.7017 87.9589 67.6439 88.0806C67.5621 88.2278 67.4923 88.2206 67.4323 88.0576C67.3542 87.7155 67.3235 87.3639 67.343 87.0123L66.6855 88.2906Z" fill="white"/>
<path fill-rule="evenodd" clip-rule="evenodd" d="M68.5069 82.0896C68.3674 82.267 68.2694 82.4639 68.2153 82.67C68.2224 82.7248 68.26 82.775 68.318 82.8044C68.4113 82.8546 68.5037 82.9028 68.5978 82.9472C68.742 83.0417 68.9026 83.1193 69.0743 83.1761C69.1754 83.1761 69.3125 83.0711 69.488 82.8611C69.6346 82.7111 69.7255 82.5292 69.7498 82.3374C69.6879 81.9716 69.3344 81.6859 68.8877 81.6416C68.8274 81.6416 68.6997 81.7909 68.5069 82.0896Z" fill="white"/>
<path fill-rule="evenodd" clip-rule="evenodd" d="M68.1397 87.392C67.8 87.7068 67.5636 88.0763 67.4482 88.4702L68.2076 88.1742C68.2328 88.0553 68.3063 87.9447 68.4161 87.8573C68.5157 87.7936 68.6432 87.7607 68.7763 87.7649C68.8377 87.7663 68.901 87.7733 68.9615 87.7859C69.0313 87.7992 69.3534 87.8638 69.4334 87.8806C69.5116 87.8981 69.795 87.9318 69.8518 87.9332C69.8983 87.9332 69.8384 86.9817 69.7499 86.9194C69.6327 86.8851 69.1426 86.8617 68.7763 87.0085C68.5287 87.1009 68.3119 87.2317 68.1397 87.392Z" fill="white"/>
<path fill-rule="evenodd" clip-rule="evenodd" d="M72.4749 88.9453C72.351 89.1267 72.2348 89.3141 72.1264 89.505C72.0274 89.3295 71.8933 89.1804 71.7327 89.0688C71.6118 88.9547 71.4637 88.8771 71.3046 88.8456C71.25 88.8456 71.1058 89.0543 70.8703 89.4734C70.7229 89.6992 70.6036 89.9445 70.5171 90.2035C70.5171 90.2367 70.6481 90.356 70.9116 90.5621C70.9888 90.62 71.0613 90.6822 71.1315 90.7487C71.1923 90.8006 71.2641 90.8347 71.3397 90.8483C71.5097 90.8483 71.7537 90.5536 72.0703 89.965C72.2371 90.0842 72.3962 90.2171 72.5451 90.3628C72.6753 90.4957 72.7712 90.5621 72.8344 90.5621C72.9256 90.5621 73.0738 90.4216 73.2741 90.1387C73.4504 89.9386 73.5595 89.6796 73.586 89.4053C73.5587 89.1761 73.4465 88.9691 73.2741 88.8329C73.1447 88.6761 72.9677 88.5747 72.7759 88.5466C72.7369 88.5466 72.6371 88.6795 72.4749 88.9453Z" fill="white"/>
<path fill-rule="evenodd" clip-rule="evenodd" d="M70.9976 86.1448C70.9822 86.1664 70.9552 86.2068 70.9174 86.2643C70.8804 86.3232 70.8365 86.3852 70.7856 86.4502C70.7362 86.5136 70.6799 86.5808 70.619 86.6495C70.5612 86.716 70.4949 86.7764 70.4239 86.8295C70.3437 86.9108 70.2404 86.9676 70.1263 86.9892C69.9967 86.9945 69.8687 86.9698 69.75 86.9191V87.9009C69.8556 87.9434 69.9759 87.9434 70.0823 87.9009C70.1857 87.8538 70.2782 87.7889 70.3568 87.709C70.444 87.6224 70.5219 87.5291 70.5913 87.4298C70.6637 87.3275 70.7308 87.2371 70.7925 87.1572C70.8758 87.0482 70.9359 86.9989 70.9699 87.0094C71.0339 87.0363 71.0932 87.0721 71.1472 87.1132C71.3878 87.2969 71.6677 87.4268 71.9669 87.4947C72.3162 87.5843 72.6724 87.6463 73.0325 87.6806C73.4034 87.7165 73.6781 87.7593 74.0577 87.7794C74.4372 87.7994 74.8978 87.7794 75.1206 87.7794C75.1916 87.6845 75.1206 86.3083 75.1206 86.1818C74.6557 86.1811 74.0187 86.1157 73.5576 86.0574C73.0934 86.0014 72.6377 85.8909 72.2005 85.7312C72.0648 85.6647 71.9152 85.6311 71.7656 85.6311C71.6793 85.6311 71.5921 85.6423 71.5073 85.6654C71.2906 85.7715 71.1117 85.9387 70.9976 86.1448Z" fill="white"/>
<path fill-rule="evenodd" clip-rule="evenodd" d="M86.9562 81.7131C86.7484 81.7972 86.5459 81.8962 86.3519 82.0063C86.1633 82.1157 85.9724 82.2318 85.7837 82.3539C85.145 82.7603 84.5208 83.1637 83.9097 83.5664C83.2855 83.9765 82.6368 84.3517 81.9674 84.6918C81.4812 84.9375 80.979 85.163 80.4591 85.3692C79.9392 85.5753 79.404 85.7443 78.8588 85.8753C78.253 86.0182 77.6357 86.1098 77.0131 86.147C76.3981 86.1834 75.7678 86.1946 75.1206 86.182V87.7793C77.0345 87.7897 78.9247 87.3773 80.6446 86.5735C81.0564 86.3844 81.4567 86.1753 81.847 85.9482C82.2388 85.7197 82.6268 85.4823 83.0102 85.2359C83.3936 84.9896 83.7709 84.7372 84.1428 84.4782C84.5155 84.2199 84.8874 83.9676 85.2593 83.7205C85.5782 83.5106 85.8397 83.3401 86.0452 83.2099C86.1909 83.1109 86.3481 83.0268 86.513 82.9598C86.5782 82.936 86.641 82.9047 86.7008 82.8675C86.7553 82.8295 86.8036 82.7834 86.8427 82.7313C86.9363 82.6189 87.0191 82.4991 87.0919 82.3733C87.1678 82.2423 87.2407 82.1157 87.3089 81.9922C87.4071 81.8321 87.4232 81.7265 87.3542 81.6736C87.3266 81.652 87.289 81.6416 87.2407 81.6416C87.1686 81.6416 87.0735 81.6654 86.9562 81.7131Z" fill="white"/>
<path fill-rule="evenodd" clip-rule="evenodd" d="M83.3181 85.65C83.2224 85.8463 83.1323 86.0395 83.0505 86.2281C82.9694 86.4127 82.898 86.6012 82.8342 86.7952C82.8134 86.8526 82.7968 86.9023 82.7822 86.9356C82.7704 86.962 82.7649 86.99 82.767 87.0187C82.7732 87.0458 82.7864 87.0691 82.8044 87.0877C82.8252 87.1094 82.8599 87.1436 82.9077 87.1894C83.0754 87.3352 83.2252 87.5067 83.3506 87.6991C83.4588 87.8512 83.5184 88.0382 83.5205 88.2321C83.4927 88.4207 83.4075 88.5921 83.2792 88.7194C83.1059 88.9157 82.9306 89.0996 82.7531 89.2687C82.5743 89.4386 82.385 89.6217 82.1861 89.818C82.1279 89.8653 82.0773 89.9228 82.0357 89.9879C82.019 90.026 82.0225 90.0523 82.0468 90.0671C82.0863 90.0834 82.1292 90.0857 82.1695 90.0733C82.236 90.0593 82.2998 90.0384 82.3608 90.0104C82.6013 89.9049 82.8134 89.7986 82.9992 89.6931C83.1725 89.5953 83.3382 89.4821 83.4941 89.3533C83.5953 89.2718 83.6813 89.1671 83.7457 89.0468C83.8116 88.9265 83.8712 88.8016 83.9267 88.6736C84.0313 88.4261 84.1242 88.1716 84.2032 87.9132C84.2843 87.6526 84.3266 87.3787 84.3266 87.1025C84.3336 86.8193 84.2615 86.54 84.1208 86.3033C83.9717 86.0651 83.8033 85.8424 83.6161 85.6384C83.5662 85.5771 83.5094 85.5243 83.447 85.4801C83.4435 85.4786 83.4401 85.4778 83.4366 85.4778C83.4068 85.4778 83.3673 85.5352 83.3181 85.65Z" fill="white"/>
<path fill-rule="evenodd" clip-rule="evenodd" d="M86.5717 83.1838C86.5367 83.2091 86.5079 83.239 86.4883 83.2728L86.3967 83.407C86.2743 83.5864 86.1662 83.7567 86.0746 83.9162C85.983 84.0773 85.9068 84.2176 85.8461 84.3372C85.7452 84.5397 85.6742 84.7506 85.631 84.9646C85.4683 85.8365 85.3376 86.562 85.2409 87.141C85.1555 87.6073 85.106 88.0767 85.0947 88.5468C85.1915 88.5368 85.2769 88.4985 85.3325 88.4402C85.4334 88.3543 85.5198 88.2607 85.5919 88.1603C85.6855 88.0322 85.7658 87.8995 85.8296 87.7622C85.8996 87.6173 85.9521 87.467 85.9819 87.3144C86.0159 86.7185 86.0828 86.0827 86.1847 85.4071C86.2866 84.7314 86.4245 84.065 86.5964 83.4078C86.6221 83.3426 86.6324 83.2743 86.6283 83.2061C86.6201 83.1861 86.6088 83.1761 86.5943 83.1761C86.5871 83.1761 86.5799 83.1784 86.5717 83.1838Z" fill="white"/>
<path fill-rule="evenodd" clip-rule="evenodd" d="M87.0513 92.7807C86.9281 92.963 86.8128 93.1505 86.7044 93.3413C86.6054 93.1658 86.4698 93.0167 86.3108 92.906C86.1884 92.791 86.0411 92.7126 85.882 92.6811C85.8282 92.6811 85.6833 92.8906 85.4478 93.3097C85.3005 93.5355 85.1813 93.7808 85.0947 94.0398C85.0947 94.073 85.2257 94.1923 85.4884 94.3984C85.5648 94.4563 85.6388 94.5177 85.7082 94.585C85.7682 94.6369 85.8407 94.6719 85.9171 94.6846C86.087 94.6846 86.3302 94.3899 86.646 93.8013C86.8135 93.9197 86.9733 94.0534 87.1207 94.1991C87.2524 94.332 87.3491 94.3984 87.4107 94.3984C87.5034 94.3984 87.65 94.257 87.8511 93.975C88.0265 93.774 88.1372 93.5159 88.1637 93.2407C88.1364 93.0125 88.0226 92.8055 87.8511 92.6692C87.7217 92.5124 87.5455 92.411 87.3522 92.3829C87.314 92.3829 87.2134 92.5158 87.0513 92.7807Z" fill="white"/>
<path fill-rule="evenodd" clip-rule="evenodd" d="M85.0966 88.3238C85.0885 88.5359 85.107 88.7481 85.1495 88.9554C85.1895 89.1602 85.2641 89.3553 85.3699 89.534C85.4701 89.7013 85.6087 89.8425 85.7746 89.9453C85.959 90.0522 86.1714 90.0979 86.383 90.0759C86.5505 90.062 86.7132 90.0179 86.8655 89.9453C87.0137 89.8718 87.1508 89.7755 87.2702 89.6588C87.4016 89.5299 87.5187 89.3895 87.6213 89.2361C87.7327 89.0737 87.8433 88.8966 87.9547 88.7057C88.0244 88.562 88.139 88.447 88.2825 88.3776C88.438 88.3409 88.5991 88.3433 88.753 88.3841C88.8147 88.3123 88.8604 88.2291 88.8876 88.1385C88.9157 88.0496 88.9293 87.9573 88.9309 87.8643C88.9309 87.7762 88.9157 87.6897 88.8828 87.6081C88.8556 87.5354 88.8099 87.4693 88.7522 87.4179C88.5863 87.3722 88.4091 87.3934 88.2584 87.4767C88.111 87.5819 87.9875 87.7158 87.8954 87.87C87.7984 88.0218 87.6758 88.1532 87.5315 88.2585C87.4 88.3548 87.2502 88.4225 87.0907 88.4609C86.7645 88.5376 86.4198 88.4413 86.1794 88.2046C85.894 87.8774 85.7562 87.4457 85.7987 87.0123L85.0966 88.3238Z" fill="white"/>
<path fill-rule="evenodd" clip-rule="evenodd" d="M88.4543 83.6237C88.3164 83.8018 88.2176 83.9988 88.1636 84.205C88.1714 84.2598 88.2082 84.3094 88.2662 84.3387C88.3595 84.3896 88.452 84.4373 88.546 84.4816C88.6902 84.5769 88.8509 84.6539 89.0233 84.7106C89.1244 84.7106 89.2615 84.6049 89.4363 84.3955C89.5836 84.2454 89.6745 84.0634 89.698 83.871C89.6361 83.5063 89.2827 83.2199 88.8368 83.1761C88.7756 83.1761 88.6487 83.3249 88.4543 83.6237Z" fill="white"/>
<path fill-rule="evenodd" clip-rule="evenodd" d="M89.4754 85.6787C89.3955 85.7988 89.3304 85.926 89.2821 86.0571C89.2254 86.2062 89.1872 86.3601 89.1659 86.5155C89.1417 86.6717 89.1398 86.8295 89.1575 86.9857C89.1714 87.1262 89.2188 87.2627 89.296 87.3875C89.2449 87.5422 89.0812 87.6529 88.8897 87.6623C88.6462 87.6654 88.4026 87.6466 88.1636 87.605L88.0303 88.5817C88.1719 88.4095 88.4918 88.5485 88.6471 88.5053C88.7819 88.4645 88.9074 88.4064 89.0199 88.3326C89.1287 88.262 89.2291 88.1811 89.3165 88.0924C89.4048 88.0037 89.4894 87.926 89.5731 87.8569C89.6707 87.7847 89.7972 87.7897 89.937 87.7621C90.0303 87.7437 90.1468 87.7104 90.2867 87.6623C90.574 87.1379 90.5372 86.6497 90.2499 86.1254C90.1616 86.0571 90.0872 85.9778 90.0295 85.8907C89.9635 85.7996 89.9031 85.7062 89.8501 85.6097C89.8046 85.5217 89.7571 85.4778 89.7088 85.4778C89.6976 85.4778 89.6874 85.4794 89.6772 85.4833C89.5898 85.5319 89.5191 85.5994 89.4754 85.6787Z" fill="white"/>
<path fill-rule="evenodd" clip-rule="evenodd" d="M90.7575 91.2935C90.6165 91.4732 90.5186 91.6724 90.4653 91.8813C90.4724 91.9339 90.5115 91.9799 90.5687 92.0039L90.8484 92.1558C90.9917 92.2505 91.1531 92.3271 91.3246 92.3829C91.4256 92.3829 91.5627 92.2771 91.7382 92.0656C91.8839 91.9144 91.9747 91.7314 91.9998 91.54C91.9371 91.176 91.5839 90.8919 91.139 90.8484C91.0771 90.8484 90.9502 90.9963 90.7575 91.2935Z" fill="white"/>
<mask id="mask0_6008_43242" style="mask-type:alpha" maskUnits="userSpaceOnUse" x="89" y="85" width="3" height="3">
<path d="M91.072 85.5671C91.0066 85.7025 90.9027 85.822 90.7709 85.9158C90.6629 85.9893 90.5362 86.0407 90.4012 86.0654C90.2756 86.0867 90.1468 86.084 90.0232 86.0584C89.9018 86.0336 89.7907 85.9858 89.6982 85.9158V87.7784C89.9215 87.7872 90.1427 87.7376 90.3296 87.6358C90.5372 87.5225 90.7086 87.3694 90.8321 87.1897C90.9796 86.9763 91.0865 86.7453 91.1488 86.5045C91.2215 86.2266 91.2464 85.9415 91.2257 85.6574C91.2288 85.6025 91.2163 85.5467 91.1872 85.4963C91.1789 85.4839 91.1696 85.4777 91.1592 85.4777C91.1364 85.4777 91.1073 85.5078 91.072 85.5671Z" fill="white"/>
</mask>
<g mask="url(#mask0_6008_43242)">
<path d="M91.072 85.5672C91.0066 85.7026 90.9027 85.8221 90.7709 85.916C90.6629 85.9894 90.5362 86.0408 90.4012 86.0656C90.2756 86.0868 90.1468 86.0842 90.0232 86.0585C89.9018 86.0337 89.7907 85.9859 89.6982 85.916V87.7785C89.9215 87.7873 90.1427 87.7378 90.3296 87.636C90.5372 87.5226 90.7086 87.3695 90.8321 87.1898C90.9796 86.9765 91.0865 86.7454 91.1488 86.5046C91.2215 86.2267 91.2464 85.9416 91.2257 85.6575C91.2288 85.6026 91.2163 85.5468 91.1872 85.4964C91.1789 85.484 91.1696 85.4778 91.1592 85.4778C91.1364 85.4778 91.1073 85.5079 91.072 85.5672Z" fill="white"/>
</g>
</svg>
