<svg width="140" height="140" viewBox="0 0 140 140" fill="none" xmlns="http://www.w3.org/2000/svg">
<path d="M108.754 70.6465L108.832 70.7225C109.593 71.6337 110.152 72.6883 110.474 73.8201C110.779 74.8839 110.805 76.005 110.552 77.0815C110.52 77.2406 110.445 77.3883 110.334 77.5092C110.215 77.6491 110.087 77.7825 109.953 77.9089C109.624 78.1874 109.279 78.4463 108.919 78.6843C107.909 79.3758 106.867 80.0113 105.8 80.6228C104.433 81.4222 103.05 82.1616 101.626 82.8451C101.113 83.0889 100.6 83.3247 100.066 83.5245C99.8475 83.6087 99.6226 83.6768 99.3933 83.7284C99.2206 83.7683 99.0407 83.7683 98.868 83.7284C98.492 83.637 98.1252 83.5126 97.7723 83.3567C96.9966 83.0289 96.2374 82.6612 95.4905 82.2735C93.6724 81.3382 91.8954 80.331 90.1554 79.2319L89.6137 78.8762L89.4741 78.7762C89.5096 78.7722 89.5454 78.7722 89.5808 78.7762C89.6998 78.8282 89.8147 78.8881 89.9338 78.9361C90.5731 79.1965 91.243 79.379 91.9283 79.4797C92.4328 79.5601 92.9438 79.5949 93.4549 79.5836C94.3742 79.5672 95.28 79.3644 96.1143 78.9881C96.8981 78.6323 97.6779 78.2686 98.4412 77.8809C99.9897 77.0815 101.514 76.2542 103.013 75.3989C104.322 74.6434 105.619 73.868 106.875 73.0287C107.209 72.8049 107.537 72.573 107.86 72.3332C108.046 72.1945 108.223 72.0436 108.389 71.8816C108.618 71.6702 108.763 71.3873 108.8 71.0822C108.808 71.0025 108.808 70.9221 108.8 70.8424C108.808 70.7944 108.791 70.7465 108.754 70.6465Z" fill="white"/>
<path d="M108.852 70.7225L108.774 70.6465C108.781 70.7155 108.795 70.7837 108.815 70.8504C108.823 70.9301 108.823 71.0105 108.815 71.0902C108.778 71.3953 108.633 71.6782 108.404 71.8896C108.246 72.0517 108.078 72.2039 107.9 72.3452C107.579 72.585 107.251 72.8169 106.915 73.0407C105.995 73.6562 105.051 74.2398 104.095 74.8033C108.757 74.0039 110.161 75.9065 110.584 77.1295V77.0935C110.837 76.017 110.81 74.8959 110.506 73.8321C110.182 72.6948 109.619 71.6357 108.852 70.7225Z" fill="white"/>
<path d="M110.943 75.291C110.885 75.255 110.889 75.2071 110.889 75.1591C110.876 74.8674 110.837 74.5773 110.774 74.2918C110.527 73.0182 109.964 71.8229 109.133 70.8105C108.763 70.3515 108.326 69.9475 107.836 69.6114C107.229 69.2117 106.605 68.7921 105.997 68.4123C104.487 67.4531 102.932 66.5578 101.364 65.6905C100.092 64.987 98.8074 64.3075 97.49 63.692C96.9853 63.4482 96.4764 63.2124 95.947 63.0165C95.7582 62.9446 95.5612 62.8806 95.3642 62.8247C95.1137 62.7529 94.8473 62.7529 94.5968 62.8247C94.4554 62.8659 94.3251 62.9368 94.2151 63.0325L94.1084 63.1165V63.0325C94.6383 61.616 95.5618 60.3706 96.776 59.4353C97.4181 58.9713 98.1391 58.6209 98.9059 58.4001C99.1218 58.3403 99.3507 58.3403 99.5666 58.4001C99.8576 58.4693 100.142 58.5629 100.416 58.6799C101.114 58.9597 101.787 59.2834 102.468 59.6192C104.532 60.6542 106.536 61.7977 108.472 63.0445C108.936 63.3443 109.396 63.656 109.835 63.9958C110.033 64.1493 110.22 64.3148 110.397 64.4914C110.528 64.6244 110.623 64.7862 110.676 64.963C110.783 65.3438 110.856 65.733 110.893 66.1261C111.042 67.5965 111.114 69.0732 111.111 70.5507C111.111 71.5979 111.111 72.6451 111.062 73.6922C111.037 74.2078 111 74.7194 110.967 75.235C110.951 75.243 110.947 75.259 110.943 75.291Z" fill="white"/>
<path d="M94.6086 62.8328C94.8591 62.7609 95.1255 62.7609 95.376 62.8328C95.573 62.8887 95.7864 62.9527 95.9588 63.0246C96.4841 63.2205 96.9929 63.4603 97.5018 63.7001C98.4457 64.1517 99.3732 64.6274 100.293 65.123C96.599 61.194 98.573 58.8479 99.0613 58.3842H98.9218C98.162 58.6133 97.4495 58.9704 96.8165 59.4394C95.6023 60.3747 94.6788 61.62 94.1489 63.0366V63.1525L94.2556 63.0686C94.3552 62.967 94.4754 62.8866 94.6086 62.8328Z" fill="white"/>
<path d="M97.1563 59.0117C97.1358 59.0836 97.0783 59.0996 97.0373 59.1276C95.9313 59.8584 95.0232 60.8389 94.3903 61.9853C94.0366 62.621 93.7952 63.3101 93.6762 64.0238C93.6433 64.2156 93.6228 64.4235 93.6064 64.6033C93.512 65.6585 93.4423 66.7137 93.4094 67.7728C93.352 69.4915 93.3315 71.2062 93.3766 72.9248C93.3766 73.5044 93.4012 74.0799 93.4258 74.6595C93.4546 75.4069 93.4956 76.1583 93.5695 76.9058C93.6008 77.3084 93.657 77.7088 93.7377 78.1048C93.7691 78.2909 93.8285 78.4714 93.9142 78.6404C93.9802 78.7615 94.0631 78.8731 94.1604 78.9721C94.2746 79.0868 94.4153 79.1732 94.5708 79.2239L94.735 79.2839C94.538 79.3119 94.3821 79.3439 94.2261 79.3558C93.9101 79.3798 93.5941 79.4078 93.2781 79.4118C92.4367 79.429 91.5976 79.3184 90.7911 79.0841C89.8569 78.8157 88.9941 78.3519 88.2631 77.7251L88.2221 77.6931C87.9807 77.5143 87.812 77.258 87.746 76.9697C87.6816 76.7374 87.6336 76.501 87.6024 76.2623C87.5039 75.5628 87.4546 74.8633 87.4177 74.1599C87.3274 72.4932 87.3233 70.8305 87.3602 69.1638C87.3602 68.4323 87.4136 67.7009 87.4669 66.9695C87.4964 66.4727 87.5526 65.9777 87.6352 65.4866C87.6762 65.2668 87.7296 65.051 87.7912 64.8351C87.8431 64.6703 87.9362 64.5207 88.062 64.3995C88.2746 64.1856 88.5038 63.9878 88.7474 63.8079C89.3589 63.3523 89.9785 62.9326 90.6475 62.5289C92.5633 61.335 94.5413 60.2384 96.5736 59.2435L97.0824 59.0037L97.1563 59.0117Z" fill="white"/>
<path d="M94.1907 78.9801C94.0933 78.881 94.0105 78.7694 93.9445 78.6483C93.8588 78.4793 93.7993 78.2988 93.768 78.1127C93.6872 77.7167 93.631 77.3163 93.5997 76.9137C93.53 76.1663 93.4848 75.4188 93.4561 74.6674C93.4356 74.1438 93.4233 73.6162 93.4109 73.0927C92.9472 74.4836 91.359 78.2526 88.1333 77.6171C88.1711 77.6525 88.2108 77.6859 88.2523 77.7171L88.2934 77.749C89.0244 78.3759 89.8872 78.8396 90.8214 79.108C91.6279 79.3423 92.4669 79.4529 93.3084 79.4357C93.6244 79.4357 93.9404 79.4037 94.2564 79.3798C94.4274 79.3667 94.5974 79.3427 94.7652 79.3078L94.6011 79.2479C94.4447 79.1911 94.3041 79.0994 94.1907 78.9801Z" fill="white"/>
<path d="M66.8895 74.4356C66.5151 74.8412 66.0624 75.1709 65.5571 75.4059C65.0518 75.6409 64.5039 75.7765 63.9447 75.8051C63.3856 75.8337 62.8261 75.7547 62.2983 75.5725C61.7706 75.3903 61.2849 75.1086 60.869 74.7434C60.7617 74.6523 60.6603 74.5548 60.5653 74.4516C60.1897 74.8578 59.7353 75.1877 59.2283 75.4224C58.7214 75.657 58.1718 75.7918 57.6112 75.8189C57.0506 75.846 56.49 75.765 55.9617 75.5804C55.4333 75.3958 54.9476 75.1114 54.5325 74.7434C54.4258 74.6475 54.3232 74.5476 54.2247 74.4436C53.4677 75.2546 52.4121 75.7413 51.2882 75.7974C50.1642 75.8536 49.0631 75.4747 48.2248 74.7434C48.1175 74.6509 48.0161 74.5521 47.9211 74.4476C47.1629 75.2629 46.1037 75.7519 44.9757 75.8073C43.8478 75.8628 42.7433 75.4801 41.9047 74.7434C41.7974 74.6509 41.696 74.5521 41.6011 74.4476C40.8435 75.2638 39.784 75.7535 38.6558 75.809C37.5275 75.8644 36.4228 75.4811 35.5847 74.7434C35.4835 74.6501 35.385 74.5542 35.2892 74.4556L35.121 74.6155L31.3494 78.2927C31.296 78.3515 31.2279 78.3959 31.1517 78.4218C31.0756 78.4477 30.9939 78.4541 30.9144 78.4405C30.6714 78.407 30.4348 78.3383 30.2127 78.2367C29.8935 78.0889 29.5932 77.9051 29.318 77.6891C29.1538 77.5612 29.1497 77.4693 29.318 77.3254L33.4671 73.2885C33.69 73.0871 33.8748 72.849 34.0129 72.5851C34.2396 72.0992 34.2616 71.5461 34.0741 71.0446C33.8867 70.5431 33.5048 70.1332 33.0104 69.9029C32.5161 69.6726 31.9487 69.6404 31.4302 69.8131C30.9117 69.9857 30.4834 70.3496 30.2373 70.8265C30.1403 71.0216 30.0765 71.2309 30.0485 71.446C30.0055 71.74 30.0304 72.0396 30.1213 72.3231C30.2121 72.6065 30.3667 72.8667 30.5738 73.0847C30.7256 73.2526 30.9062 73.3965 31.0663 73.5523L31.8871 74.3517C32.0143 74.4796 32.0143 74.5795 31.8871 74.6875C31.523 74.9847 31.1056 75.2138 30.6559 75.3629C30.5055 75.4067 30.3518 75.4388 30.1962 75.4589C30.1398 75.4688 30.0818 75.4648 30.0273 75.4474C29.9728 75.4299 29.9237 75.3995 29.8843 75.3589C29.4978 75.0146 29.1332 74.6475 28.7927 74.2598C28.1005 73.4566 27.764 72.4187 27.857 71.374C27.9371 70.3744 28.3887 69.4375 29.1271 68.7389C29.8656 68.0403 30.8402 67.6278 31.8685 67.5788C32.8967 67.5298 33.9081 67.8476 34.713 68.4726C35.518 69.0977 36.0614 69.9871 36.2413 70.9743C36.2783 71.1862 36.2906 71.402 36.307 71.6138C36.3198 71.9961 36.4253 72.37 36.6148 72.705C36.8291 73.0599 37.1487 73.3433 37.5316 73.5179C37.9145 73.6924 38.3427 73.7499 38.7598 73.6829C39.1769 73.6158 39.5634 73.4273 39.8684 73.1422C40.1734 72.857 40.3826 72.4886 40.4684 72.0855C40.4881 71.9827 40.4977 71.8783 40.4971 71.7737V70.175C40.4971 69.9991 40.5833 69.9192 40.7474 69.9391C41.1631 69.9755 41.5702 70.0753 41.954 70.2349C42.117 70.3113 42.2747 70.3981 42.4259 70.4947C42.5015 70.5356 42.5631 70.5971 42.6032 70.6717C42.6433 70.7463 42.6601 70.8306 42.6517 70.9144V71.7138C42.6464 71.9674 42.6942 72.2194 42.7923 72.4545C42.8904 72.6895 43.0366 72.9026 43.2221 73.0807C43.4793 73.3568 43.8125 73.5552 44.182 73.6523C44.5516 73.7494 44.942 73.741 45.3069 73.6283C45.6768 73.5382 46.0121 73.3457 46.2721 73.074C46.5321 72.8024 46.7057 72.4632 46.772 72.0975C46.8324 71.8397 46.8397 71.5727 46.7934 71.3122C46.7471 71.0516 46.6482 70.8026 46.5024 70.5795C46.3566 70.3565 46.1668 70.1638 45.9439 70.0127C45.7211 69.8616 45.4697 69.7551 45.2043 69.6993C45.1192 69.6802 45.0328 69.6668 44.9458 69.6594H40.8254C40.5587 69.6594 40.5094 69.6114 40.5381 69.3556C40.5753 68.9563 40.6807 68.5659 40.85 68.2005C40.9328 68.0441 41.026 67.8933 41.1291 67.7488C41.169 67.6878 41.2253 67.6384 41.2917 67.606C41.3582 67.5736 41.4325 67.5595 41.5067 67.565H44.7898C45.4057 67.5646 46.0135 67.7014 46.5668 67.9647C47.2052 68.2483 47.7598 68.6842 48.1794 69.2319C48.5991 69.7796 48.8701 70.4215 48.9676 71.0982C49.0005 71.3099 49.0169 71.5237 49.0168 71.7377C49.0275 72.2479 49.2341 72.7356 49.596 73.1045C49.9579 73.4735 50.4487 73.6968 50.9714 73.7305C51.4942 73.7641 52.0109 73.6056 52.4195 73.2862C52.8281 72.9669 53.0988 72.5099 53.1782 72.0055C53.1823 71.9443 53.1823 71.8829 53.1782 71.8217V67.9167C53.1782 67.6409 53.2275 67.593 53.5065 67.6249C53.9014 67.6639 54.2877 67.7624 54.6515 67.9167C54.8087 67.9927 54.9608 68.0781 55.1071 68.1725C55.1815 68.2154 55.2418 68.278 55.2811 68.353C55.3203 68.428 55.3368 68.5124 55.3287 68.5962V71.6938C55.3162 71.9688 55.361 72.2434 55.4604 72.5011C55.5599 72.7588 55.7119 72.9942 55.9073 73.1931C56.1027 73.392 56.3374 73.5504 56.5973 73.6585C56.8573 73.7667 57.137 73.8224 57.4196 73.8224C57.7023 73.8224 57.982 73.7667 58.242 73.6585C58.5019 73.5504 58.7366 73.392 58.932 73.1931C59.1274 72.9942 59.2794 72.7588 59.3789 72.5011C59.4783 72.2434 59.5231 71.9688 59.5106 71.6938V62.8047C59.5106 62.6528 59.5845 62.5769 59.7363 62.5889C60.3425 62.6272 60.9275 62.8217 61.4312 63.1524C61.4995 63.1958 61.5555 63.255 61.5942 63.3248C61.6329 63.3946 61.6531 63.4728 61.6528 63.5521V71.6698C61.6452 72.186 61.8389 72.6857 62.1949 73.0682C62.5509 73.4506 63.0426 73.6873 63.5708 73.7304C64.099 73.7736 64.6243 73.6199 65.0407 73.3005C65.4571 72.9811 65.7335 72.5197 65.8142 72.0095C65.8183 71.9483 65.8183 71.8869 65.8142 71.8257V67.8288C65.8142 67.6529 65.8881 67.585 66.0728 67.601C66.5574 67.6385 67.0299 67.7675 67.464 67.9807C67.5838 68.0464 67.6989 68.1199 67.8087 68.2005C67.8577 68.2329 67.8978 68.2763 67.9257 68.3272C67.9536 68.378 67.9684 68.4346 67.9688 68.4923V71.6898C67.9695 72.1247 68.1129 72.5481 68.3779 72.8982C68.6429 73.2483 69.0157 73.5069 69.4421 73.6363C69.6387 73.6964 69.8434 73.7274 70.0495 73.7282H76.2833C76.6222 73.7406 76.9593 73.6763 77.2683 73.5403C77.6366 73.3838 77.9497 73.1253 78.1685 72.7971C78.3874 72.4688 78.5025 72.0852 78.4995 71.6938C78.5111 71.4269 78.5002 71.1595 78.4666 70.8944C78.3877 70.4267 78.1436 70.0004 77.7764 69.6893C77.4092 69.3782 76.942 69.2017 76.4555 69.1903C75.9689 69.179 75.4936 69.3334 75.1115 69.627C74.7294 69.9206 74.4645 70.335 74.3627 70.7985C74.3299 70.9374 74.3134 71.0796 74.3135 71.2221V72.5251C74.3172 72.6079 74.2991 72.6903 74.2611 72.7644C74.223 72.8385 74.1662 72.902 74.0959 72.9488C73.7674 73.1736 73.3941 73.3288 73.0002 73.4045C72.8041 73.4484 72.6053 73.4804 72.4051 73.5004C72.2369 73.5004 72.163 73.4524 72.163 73.2925V71.0303C72.192 70.0861 72.5694 69.1836 73.2259 68.4883C73.9325 67.6965 74.9304 67.2069 76.0043 67.1253C77.0463 67.0351 78.0855 67.3256 78.9199 67.9402C79.7542 68.5548 80.3241 69.4497 80.5186 70.4507C80.5644 70.7151 80.5918 70.9822 80.6007 71.2501C80.6205 71.5931 80.6054 71.9372 80.5555 72.2773C80.4138 73.1904 79.9621 74.031 79.2725 74.6648C78.583 75.2987 77.6953 75.6894 76.7512 75.7746C76.5378 75.7946 76.3408 75.7746 76.1069 75.7746H70.1274C69.5376 75.7853 68.952 75.6748 68.409 75.4503C67.8659 75.2258 67.3775 74.8923 66.9756 74.4716L66.9346 74.4317L66.8895 74.4356ZM51.1632 77.7571C50.9904 77.5613 50.7684 77.4125 50.5189 77.3254C50.2644 77.2338 49.9887 77.213 49.7227 77.2654C49.372 77.3297 49.0561 77.5131 48.8313 77.7831C48.6065 78.053 48.4874 78.392 48.4953 78.7394C48.5032 79.0869 48.6375 79.4204 48.8743 79.6804C49.1112 79.9404 49.4351 80.1101 49.7884 80.1592C50.1792 80.2124 50.5761 80.1177 50.8974 79.8947C51.2188 79.6717 51.4402 79.3372 51.5161 78.9601C51.569 79.2233 51.6889 79.4694 51.865 79.6756C52.0385 79.8729 52.2638 80.0205 52.5167 80.1029C52.7697 80.1853 53.0409 80.1992 53.3013 80.1432C53.6521 80.079 53.968 79.8955 54.1928 79.6256C54.4176 79.3556 54.5367 79.0167 54.5288 78.6692C54.5209 78.3217 54.3866 77.9883 54.1497 77.7282C53.9129 77.4682 53.589 77.2985 53.2357 77.2495C52.8449 77.1963 52.448 77.2909 52.1267 77.5139C51.8053 77.737 51.5839 78.0714 51.5079 78.4485C51.4525 78.1942 51.3341 77.9568 51.1632 77.7571ZM66.1097 80.1552C66.4624 80.098 66.7828 79.9208 67.0139 79.6551C67.245 79.3894 67.3718 79.0525 67.3718 78.7043C67.3718 78.3561 67.245 78.0192 67.0139 77.7535C66.7828 77.4879 66.4624 77.3107 66.1097 77.2535C65.7173 77.196 65.3173 77.2888 64.9937 77.5124C64.67 77.7359 64.4478 78.0729 64.3737 78.4525C64.2997 78.0697 64.0751 77.7301 63.7478 77.5061C63.4205 77.2822 63.0163 77.1915 62.6214 77.2535C62.2687 77.3107 61.9483 77.4879 61.7172 77.7535C61.4861 78.0192 61.3592 78.3561 61.3592 78.7043C61.3592 79.0525 61.4861 79.3894 61.7172 79.6551C61.9483 79.9208 62.2687 80.098 62.6214 80.1552C63.0138 80.2126 63.4137 80.1198 63.7374 79.8963C64.061 79.6727 64.2832 79.3358 64.3573 78.9561C64.4324 79.3385 64.6572 79.6774 64.9842 79.9012C65.3113 80.125 65.7149 80.2161 66.1097 80.1552ZM76.1931 65.5066C76.4917 65.5074 76.784 65.4219 77.0328 65.2609C77.2816 65.1 77.4758 64.8708 77.5909 64.6023C77.7059 64.3338 77.7367 64.0382 77.6792 63.7527C77.6217 63.4672 77.4786 63.2048 77.268 62.9985C77.0573 62.7923 76.7886 62.6515 76.4958 62.5939C76.203 62.5364 75.8993 62.5647 75.623 62.6753C75.3467 62.7859 75.1103 62.9738 74.9437 63.2152C74.7771 63.4567 74.6877 63.7408 74.6869 64.0317C74.6864 64.2249 74.7249 64.4163 74.8003 64.5949C74.8757 64.7736 74.9865 64.936 75.1264 65.073C75.2662 65.2099 75.4324 65.3187 75.6154 65.3931C75.7984 65.4675 75.9947 65.5061 76.1931 65.5066Z" fill="white"/>
<rect x="0.5" y="0.5" width="139" height="139" stroke="#4A4E57"/>
</svg>
