<svg width="82" height="62" viewBox="0 0 82 62" fill="none" xmlns="http://www.w3.org/2000/svg">
<path d="M55.5951 48.8119C55.9679 48.8119 56.2554 48.6915 56.4576 48.4507C56.6166 48.2451 56.696 48.0088 56.696 47.7416C56.696 47.5742 56.6325 47.3466 56.5053 47.0589C56.4533 46.9502 56.3175 46.6947 56.0979 46.2925L55.5647 46.6801L55.9418 47.376C56.0141 47.4993 56.0502 47.608 56.0502 47.7019C56.0502 47.9368 55.8942 48.0543 55.5821 48.0543H54.9016V48.8119H55.5951ZM56.6917 50.2301V49.5606H56.0242V50.2301H56.6917ZM55.7901 50.2301V49.5606H55.1183V50.2301H55.7901ZM56.2366 51.0978V50.4283H55.5647V51.0978H56.2366ZM53.0854 45.09V44.4117H52.4179V45.09H53.0854ZM53.5319 45.9489V45.2794H52.8687V45.9489H53.5319ZM52.626 45.9489V45.2794H51.9585V45.9489H52.626ZM50.6408 51.133C52.1232 50.349 53.0854 49.6223 53.5275 48.9528C53.6691 48.7443 53.7544 48.5535 53.7833 48.3802C54.0202 48.668 54.3294 48.8119 54.7109 48.8119H55.0923V48.0543H54.7455C54.2919 48.0543 53.9422 47.8091 53.6966 47.3187L53.1981 46.3585L52.626 46.7285L53.0464 47.5125C53.1418 47.6828 53.1895 47.8443 53.1895 47.997C53.1895 48.1526 53.1302 48.323 53.0118 48.5079C52.5956 49.1187 51.697 49.7955 50.3157 50.5384L50.6408 51.133ZM47.2079 50.8467C49.2798 49.8308 50.3157 48.8119 50.3157 47.79C50.3157 47.1939 50.1496 46.7344 49.8172 46.4114C49.5543 46.153 49.2711 46.0238 48.9677 46.0238C48.6932 46.0238 48.457 46.1222 48.259 46.3189C48.0611 46.5156 47.9621 46.7505 47.9621 47.0236C47.9621 47.3995 48.0632 47.6894 48.2655 47.8935C48.4678 48.0976 48.751 48.1996 49.1151 48.1996H49.6179C49.4069 48.6107 48.9576 49.0424 48.2698 49.4946C47.8191 49.7911 47.3553 50.0525 46.8785 50.2786L47.2079 50.8467ZM49.6655 47.4597H49.0024C48.6758 47.4597 48.5126 47.3261 48.5126 47.0589C48.5126 46.9531 48.5646 46.8651 48.6686 46.7946C48.7611 46.7241 48.8608 46.6889 48.9677 46.6889C49.0948 46.6889 49.235 46.7579 49.3881 46.8959C49.5644 47.0545 49.6569 47.2424 49.6655 47.4597ZM45.5218 49.2215C45.7761 49.2215 45.9935 49.1334 46.1741 48.9572C46.3547 48.781 46.445 48.5681 46.445 48.3185C46.445 47.79 46.0492 47.0647 45.2574 46.1427C44.8239 45.6553 44.4035 45.231 43.9961 44.8698L43.4846 45.297L43.879 45.6846C43.5698 45.7375 43.317 45.8931 43.1205 46.1515C42.9529 46.3747 42.8691 46.6023 42.8691 46.8342C42.8691 47.3217 43.0194 47.7239 43.3199 48.0411C43.2749 48.0479 43.1129 48.0521 42.8337 48.0536L42.284 48.0543V48.8119H42.7391C43.1667 48.8119 43.5453 48.7326 43.8747 48.574C44.051 48.6973 44.285 48.8251 44.5769 48.9572C44.9728 49.1334 45.2877 49.2215 45.5218 49.2215ZM44.0004 47.812C43.8299 47.7298 43.6934 47.5991 43.5908 47.42C43.4882 47.2409 43.4369 47.0545 43.4369 46.8607C43.4369 46.708 43.5005 46.5758 43.6276 46.4642C43.7548 46.3527 43.8964 46.2969 44.0524 46.2969C44.2229 46.2969 44.3732 46.3483 44.5032 46.451C44.6419 46.5655 44.7113 46.7021 44.7113 46.8607C44.7113 47.304 44.4743 47.6212 44.0004 47.812ZM45.5261 48.5828C45.269 48.5828 44.9309 48.4433 44.5119 48.1644C44.6535 48.091 44.7936 47.9618 44.9323 47.7768C45.0941 47.5507 45.1707 47.3231 45.162 47.0941C45.2979 47.2321 45.4423 47.4142 45.5955 47.6403C45.7746 47.9075 45.8642 48.1013 45.8642 48.2216C45.8642 48.4624 45.7515 48.5828 45.5261 48.5828ZM39.9433 44.8522V44.1827H39.2715V44.8522H39.9433ZM40.3811 45.7155V45.0416H39.718V45.7155H40.3811ZM39.4882 45.7155V45.0416H38.8164V45.7155H39.4882ZM38.9421 48.8559C39.2513 48.8559 39.5056 48.6768 39.705 48.3185C39.8812 48.6738 40.15 48.8515 40.5112 48.8515C40.8521 48.8515 41.1223 48.6724 41.3217 48.3141C41.3968 48.4668 41.5269 48.5887 41.7118 48.6797C41.8852 48.7678 42.0615 48.8119 42.2406 48.8119H42.479V48.0543H42.1366C41.7002 48.0543 41.4821 47.7709 41.4821 47.2042V46.4951H40.8796V47.6447C40.8796 47.9442 40.7669 48.0939 40.5415 48.0939C40.0821 48.0939 39.8523 47.6711 39.8523 46.8254V46.4995H39.2412V47.6447C39.2412 47.9442 39.1371 48.0939 38.9291 48.0939C38.4927 48.0939 38.2746 47.6711 38.2746 46.8254V46.4995H37.6634V47.6447C37.6634 47.9177 37.5175 48.0543 37.2256 48.0543H36.7965V48.8119H37.2603C37.636 48.8119 37.9076 48.6474 38.0752 48.3185C38.2544 48.6768 38.5433 48.8559 38.9421 48.8559ZM34.3476 48.8119C34.9544 48.8119 35.3474 48.6107 35.5265 48.2084C35.6421 48.3817 35.8126 48.5256 36.038 48.6401C36.2634 48.7546 36.4816 48.8119 36.6925 48.8119H36.9872V48.0543H36.7922C36.509 48.0543 36.2807 48.0044 36.1073 47.9045C35.8646 47.7606 35.6306 47.467 35.4052 47.0236L34.6856 45.623C34.6105 45.4703 34.5729 45.3572 34.5729 45.2838C34.5729 45.1899 34.664 45.1165 34.846 45.0636L37.1216 44.3985L36.8876 43.8215L34.599 44.513C34.1511 44.6422 33.9271 44.8948 33.9271 45.2706C33.9271 45.4204 33.9734 45.5819 34.0658 45.7551L34.8027 47.2042C34.9096 47.4186 34.9631 47.5874 34.9631 47.7107C34.9631 47.9398 34.768 48.0543 34.3779 48.0543H33.7451V48.8119H34.3476ZM31.3741 48.8119C31.9694 48.8119 32.3364 48.6151 32.4751 48.2216C32.7785 48.6151 33.1874 48.8119 33.7017 48.8119H33.9358V48.0543H33.7581C33.4084 48.0543 33.1267 47.9706 32.9128 47.8032C32.7279 47.6681 32.5502 47.4303 32.3797 47.0897L31.4175 45.1737L30.8496 45.5393L31.8119 47.4332C31.8812 47.5624 31.9159 47.6667 31.9159 47.746C31.9159 47.9515 31.7397 48.0543 31.3871 48.0543H29.9351C29.7039 48.0543 29.4785 47.928 29.2589 47.6755L28.8515 48.1159C28.9555 48.345 29.1332 48.5212 29.3846 48.6445C29.6187 48.7561 29.8643 48.8119 30.1215 48.8119H31.3741ZM26.7146 48.8119C27.0989 48.8119 27.4225 48.7311 27.6855 48.5696C28.0178 48.3523 28.184 48.0425 28.184 47.6403C28.184 47.2321 27.9369 46.8401 27.4428 46.4642C26.9891 46.1207 26.5701 45.9489 26.1858 45.9489C25.8737 45.9489 25.6223 46.0943 25.4316 46.385C25.2726 46.6375 25.1932 46.9311 25.1932 47.2659C25.1932 48.2965 25.7003 48.8119 26.7146 48.8119ZM26.6799 48.0543C26.4198 48.0543 26.2147 47.9956 26.0644 47.8781C25.8881 47.743 25.8 47.5507 25.8 47.3011C25.8 47.1367 25.8318 46.984 25.8954 46.843C25.9763 46.6727 26.0875 46.5876 26.2291 46.5876C26.4083 46.5876 26.6727 46.7021 27.0223 46.9311C27.3951 47.1895 27.5815 47.4171 27.5815 47.6138C27.5815 47.9075 27.2809 48.0543 26.6799 48.0543ZM80.0111 54.6387V53.9692H79.3436V54.6387H80.0111ZM79.7077 58.6908C80.1469 58.6908 80.4836 58.5528 80.7176 58.2768C80.943 58.0096 81.0557 57.6528 81.0557 57.2065C81.0557 56.7191 80.9344 56.2948 80.6916 55.9336C80.4229 55.5254 80.0588 55.3214 79.5993 55.3214C79.3508 55.3214 79.1384 55.4374 78.9622 55.6693C78.7975 55.8866 78.718 56.1303 78.7238 56.4005C78.7296 56.7205 78.8329 56.9709 79.0337 57.1514C79.2345 57.332 79.4968 57.4223 79.8204 57.4223H80.4229C80.3795 57.7629 80.1585 57.9333 79.7597 57.9333H78.2297V58.6908H79.7077ZM80.4055 56.7264H79.7424C79.4014 56.7264 79.2309 56.6192 79.2309 56.4049C79.2309 56.2845 79.2685 56.1825 79.3436 56.0988C79.4187 56.0151 79.5155 55.9732 79.634 55.9732C79.9374 55.9732 80.1946 56.2243 80.4055 56.7264ZM77.0203 55.7706V55.1011H76.3528V55.7706H77.0203ZM76.3875 58.6908C76.7776 58.6908 77.068 58.5279 77.2587 58.2019C77.4523 58.5279 77.763 58.6908 78.1906 58.6908H78.4204V57.9333H78.2383C77.9407 57.9333 77.7413 57.8804 77.6402 57.7747C77.5043 57.6484 77.4364 57.4032 77.4364 57.0391V56.3388H76.7906V57.2461C76.7906 57.5163 76.7675 57.691 76.7213 57.7703C76.6548 57.8789 76.4886 57.9333 76.2228 57.9333H75.9237V58.6908H76.3875ZM76.1144 58.6908V57.9333H75.642C75.3761 57.9333 75.1926 57.854 75.0915 57.6954C75.0048 57.5721 74.9615 57.368 74.9615 57.0832V53.7401H74.2636V57.1404C74.2636 58.174 74.6841 58.6908 75.5249 58.6908H76.1144ZM70.2499 60.7257C72.3218 59.7097 73.3577 58.6908 73.3577 57.669C73.3577 57.0729 73.1916 56.6134 72.8593 56.2904C72.5963 56.032 72.3131 55.9028 72.0097 55.9028C71.7352 55.9028 71.499 56.0011 71.301 56.1979C71.1031 56.3946 71.0041 56.6295 71.0041 56.9026C71.0041 57.2784 71.1052 57.5684 71.3075 57.7725C71.5098 57.9766 71.793 58.0786 72.1571 58.0786H72.6599C72.4489 58.4897 71.9996 58.9213 71.3119 59.3735C70.8611 59.6701 70.3973 59.9314 69.9205 60.1575L70.2499 60.7257ZM72.7075 57.3386H72.0444C71.7178 57.3386 71.5546 57.205 71.5546 56.9378C71.5546 56.8321 71.6066 56.744 71.7106 56.6736C71.8031 56.6031 71.9028 56.5678 72.0097 56.5678C72.1368 56.5678 72.277 56.6369 72.4301 56.7749C72.6064 56.9334 72.6989 57.1214 72.7075 57.3386ZM66.2795 61.012C67.7561 60.2309 68.7184 59.5027 69.1663 58.8274C69.383 58.4985 69.4914 58.1726 69.4914 57.8496C69.4914 57.6235 69.4394 57.4062 69.3353 57.1977L68.8369 56.2419L68.2647 56.6031L68.6852 57.3827C68.7805 57.5559 68.8282 57.7189 68.8282 57.8716C68.8282 58.0301 68.769 58.2005 68.6505 58.3825C68.2286 58.9991 67.3299 59.676 65.9545 60.413L66.2795 61.012ZM62.8553 60.8667C63.6557 60.8667 64.3709 60.6156 65.0009 60.1135C65.5615 59.676 65.8418 59.2678 65.8418 58.889C65.8418 58.4368 65.6149 58.1916 65.1612 58.1535L64.0039 58.0742C63.8595 58.0624 63.7872 57.9949 63.7872 57.8716C63.7872 57.7982 63.819 57.7233 63.8826 57.647C64.264 57.1948 64.6469 56.9687 65.0312 56.9687C65.2393 56.9687 65.456 57.0274 65.6814 57.1448L65.9545 56.6031C65.6568 56.4064 65.3245 56.308 64.9575 56.308C64.605 56.308 64.2149 56.4988 63.7872 56.8806C63.348 57.274 63.1284 57.6499 63.1284 58.0081C63.1284 58.4045 63.3697 58.6571 63.8522 58.7657C64.0169 58.8068 64.4114 58.8288 65.0356 58.8318C65.1656 58.8318 65.2306 58.8699 65.2306 58.9463C65.2306 59.005 65.206 59.0711 65.1569 59.1445C64.9286 59.491 64.5645 59.7508 64.0646 59.9241C63.6774 60.0709 63.2873 60.1443 62.8943 60.1443C61.7905 60.1443 61.2386 59.6598 61.2386 58.6908C61.2386 58.4912 61.2834 58.2313 61.3729 57.9112L60.8571 57.735C60.7271 58.0845 60.6621 58.475 60.6621 58.9066C60.6621 59.5497 60.8716 60.043 61.2906 60.3866C61.6865 60.7066 62.208 60.8667 62.8553 60.8667ZM58.3301 58.6908V53.7401H57.6323V58.6908H58.3301ZM55.1053 58.6908C55.5301 58.6908 55.8913 58.5734 56.1889 58.3385C56.5501 58.0507 56.7307 57.6426 56.7307 57.114C56.7307 56.7675 56.5992 56.4739 56.3363 56.2331C56.0936 56.0041 55.7945 55.8896 55.4391 55.8896C55.0432 55.8896 54.6227 56.0466 54.1777 56.3608C53.857 56.5869 53.5695 56.8585 53.3152 57.1757V53.7534H52.73V57.277C52.73 57.4884 52.7083 57.6426 52.665 57.7395C52.5956 57.8687 52.4671 57.9333 52.2792 57.9333H51.8588V58.6864L55.1053 58.6908ZM55.166 57.9333H53.2415C54.0275 57.02 54.7542 56.5634 55.4217 56.5634C55.6067 56.5634 55.7627 56.6185 55.8898 56.7286C56.017 56.8387 56.0806 56.9833 56.0806 57.1625C56.0806 57.3533 56.0141 57.5222 55.8812 57.669C55.7136 57.8452 55.4752 57.9333 55.166 57.9333ZM52.0495 58.6908V57.9333H51.7287C51.3907 57.9333 51.0916 57.8011 50.8315 57.5368C50.9789 57.3254 51.0526 57.001 51.0526 56.5634V53.7446H50.4111V56.3344C50.4111 56.8718 50.2897 57.2564 50.047 57.4884L48.3262 54.0352L47.7844 54.3964L49.5485 57.7879C49.4965 57.8231 49.183 57.854 48.6079 57.8804C48.3219 57.9009 47.9708 57.9186 47.5547 57.9333V58.4618C47.754 58.6145 48.1022 58.6908 48.5993 58.6908C49.4257 58.6908 50.0643 58.4589 50.5151 57.9949C50.6307 58.2093 50.807 58.3788 51.0439 58.5036C51.2809 58.6284 51.5178 58.6908 51.7548 58.6908H52.0495ZM46.8828 58.6908V57.9333H45.4524C44.8167 57.9333 44.4989 57.6558 44.4989 57.1008C44.4989 56.9041 44.5899 56.744 44.7719 56.6207C44.9482 56.5179 45.136 56.4665 45.3354 56.4665C45.6562 56.4665 46.0203 56.5796 46.4277 56.8057L46.7311 56.3212C46.2168 55.9835 45.7111 55.8147 45.2141 55.8147C44.7719 55.8147 44.4151 55.9527 44.1434 56.2287C43.9007 56.4754 43.7793 56.7616 43.7793 57.0876C43.7793 57.4165 43.8458 57.6983 43.9787 57.9333H43.2852V58.6908H46.8828ZM43.4759 58.6908V57.9333H43.0035C42.7376 57.9333 42.5541 57.854 42.453 57.6954C42.3663 57.5721 42.323 57.368 42.323 57.0832V53.7401H41.6251V57.1404C41.6251 58.174 42.0456 58.6908 42.8864 58.6908H43.4759ZM38.1836 56.6119V55.9468H37.5204V56.6119H38.1836ZM37.282 56.6119V55.9468H36.6101V56.6119H37.282ZM39.6269 58.6908C39.9361 58.6908 40.1919 58.6013 40.3941 58.4222C40.6109 58.2254 40.7192 57.9744 40.7192 57.669C40.7192 57.4781 40.6585 57.255 40.5372 56.9995L40.1601 56.2023L39.6096 56.5634L39.9433 57.2197C40.0243 57.3988 40.0647 57.5383 40.0647 57.6381C40.0647 57.8349 39.8986 57.9333 39.5662 57.9333H35.8559C35.4138 57.9333 35.1928 57.7027 35.1928 57.2417V57.0964H34.5686V57.4047C34.5686 57.7776 34.6799 58.0852 34.9024 58.3275C35.1249 58.5697 35.4196 58.6908 35.7866 58.6908H39.6269ZM28.8905 60.7257C30.9623 59.7097 31.9983 58.6908 31.9983 57.669C31.9983 57.0729 31.8321 56.6134 31.4998 56.2904C31.2369 56.032 30.9537 55.9028 30.6503 55.9028C30.3757 55.9028 30.1395 56.0011 29.9416 56.1979C29.7436 56.3946 29.6447 56.6295 29.6447 56.9026C29.6447 57.2784 29.7458 57.5684 29.9481 57.7725C30.1504 57.9766 30.4335 58.0786 30.7976 58.0786H31.3004C31.0895 58.4897 30.6401 58.9213 29.9524 59.3735C29.5016 59.6701 29.0378 59.9314 28.561 60.1575L28.8905 60.7257ZM31.3481 57.3386H30.6849C30.3584 57.3386 30.1951 57.205 30.1951 56.9378C30.1951 56.8321 30.2472 56.744 30.3512 56.6736C30.4437 56.6031 30.5433 56.5678 30.6503 56.5678C30.7774 56.5678 30.9176 56.6369 31.0707 56.7749C31.247 56.9334 31.3394 57.1214 31.3481 57.3386ZM26.2291 58.6908V53.7401H25.5313V58.6908H26.2291ZM21.4135 61.012C22.8901 60.2309 23.8524 59.5027 24.3003 58.8274C24.517 58.4985 24.6254 58.1726 24.6254 57.8496C24.6254 57.6235 24.5733 57.4062 24.4693 57.1977L23.9709 56.2419L23.3987 56.6031L23.8191 57.3827C23.9145 57.5559 23.9622 57.7189 23.9622 57.8716C23.9622 58.0301 23.9029 58.2005 23.7845 58.3825C23.3626 58.9991 22.4639 59.676 21.0884 60.413L21.4135 61.012ZM20.837 55.7927V55.11H20.1695V55.7927H20.837ZM19.9268 55.7927V55.11H19.2593V55.7927H19.9268ZM19.9832 58.6908C20.3559 58.6908 20.6434 58.5704 20.8457 58.3297C21.0046 58.1241 21.0841 57.8877 21.0841 57.6205C21.0841 57.4532 21.0205 57.2256 20.8934 56.9378C20.8414 56.8292 20.7056 56.5737 20.4859 56.1714L19.9528 56.559L20.3299 57.255C20.4021 57.3783 20.4383 57.4869 20.4383 57.5809C20.4383 57.8158 20.2822 57.9333 19.9701 57.9333H19.2896V58.6908H19.9832ZM17.4475 58.6908C17.8376 58.6908 18.128 58.5279 18.3187 58.2019C18.5123 58.5279 18.823 58.6908 19.2506 58.6908H19.4804V57.9333H19.2983C19.0007 57.9333 18.8013 57.8804 18.7001 57.7747C18.5643 57.6484 18.4964 57.4032 18.4964 57.0391V56.3388H17.8506V57.2461C17.8506 57.5163 17.8275 57.691 17.7812 57.7703C17.7148 57.8789 17.5486 57.9333 17.2828 57.9333H16.9837V58.6908H17.4475ZM18.3361 60.1179V59.4572H17.6772V60.1179H18.3361ZM17.1744 58.6908V57.9333H16.702C16.4361 57.9333 16.2526 57.854 16.1515 57.6954C16.0648 57.5721 16.0215 57.368 16.0215 57.0832V53.7401H15.3236V57.1404C15.3236 58.174 15.744 58.6908 16.5849 58.6908H17.1744ZM12.7966 58.6908C13.2214 58.6908 13.5826 58.5734 13.8802 58.3385C14.2414 58.0507 14.422 57.6426 14.422 57.114C14.422 56.7675 14.2906 56.4739 14.0276 56.2331C13.7849 56.0041 13.4858 55.8896 13.1304 55.8896C12.7345 55.8896 12.314 56.0466 11.869 56.3608C11.5483 56.5869 11.2608 56.8585 11.0065 57.1757V53.7534H10.4213V57.277C10.4213 57.4884 10.3997 57.6426 10.3563 57.7395C10.287 57.8687 10.1584 57.9333 9.97054 57.9333H9.5501V58.6864L12.7966 58.6908ZM12.8573 57.9333H10.9328C11.7188 57.02 12.4455 56.5634 13.113 56.5634C13.298 56.5634 13.454 56.6185 13.5811 56.7286C13.7083 56.8387 13.7719 56.9833 13.7719 57.1625C13.7719 57.3533 13.7054 57.5222 13.5725 57.669C13.4049 57.8452 13.1665 57.9333 12.8573 57.9333ZM9.74082 58.6908V57.9333H9.26836C9.00251 57.9333 8.81902 57.854 8.71788 57.6954C8.63119 57.5721 8.58785 57.368 8.58785 57.0832V53.7401H7.89V57.1404C7.89 58.174 8.31044 58.6908 9.15133 58.6908H9.74082ZM4.44844 56.6119V55.9468H3.78526V56.6119H4.44844ZM3.54687 56.6119V55.9468H2.87503V56.6119H3.54687ZM5.89181 58.6908C6.201 58.6908 6.45674 58.6013 6.65901 58.4222C6.87574 58.2254 6.9841 57.9744 6.9841 57.669C6.9841 57.4781 6.92342 57.255 6.80205 56.9995L6.42495 56.2023L5.87448 56.5634L6.20823 57.2197C6.28914 57.3988 6.32959 57.5383 6.32959 57.6381C6.32959 57.8349 6.16344 57.9333 5.83113 57.9333H2.12083C1.67872 57.9333 1.45766 57.7027 1.45766 57.2417V57.0964H0.833496V57.4047C0.833496 57.7776 0.944747 58.0852 1.16725 58.3275C1.38975 58.5697 1.6845 58.6908 2.05148 58.6908H5.89181Z" fill="white"/>
<path fill-rule="evenodd" clip-rule="evenodd" d="M44.5522 1.85065L45.9304 1.21678C46.0098 1.18268 46.015 1.10409 46.0416 1.01587C45.5857 1.22197 45.1253 1.4214 44.6805 1.65122C44.5975 1.68384 44.5819 1.77725 44.5522 1.85065Z" fill="white"/>
<path fill-rule="evenodd" clip-rule="evenodd" d="M46.811 2.19354L48.3279 2.2017C48.4139 2.20318 48.4517 2.13498 48.5132 2.06603C48.0128 2.0601 47.5116 2.04675 47.0119 2.06677C46.9215 2.06158 46.8681 2.13942 46.811 2.19354Z" fill="white"/>
<mask id="mask0_6008_43067" style="mask-type:alpha" maskUnits="userSpaceOnUse" x="38" y="0" width="2" height="2">
<path d="M38.4751 0.380371H39.7851V1.47537H38.4751V0.380371Z" fill="white"/>
</mask>
<g mask="url(#mask0_6008_43067)">
<path fill-rule="evenodd" clip-rule="evenodd" d="M38.4751 1.47513L39.7132 0.597356C39.7843 0.549167 39.7747 0.471324 39.7851 0.379395C39.3744 0.666303 38.9592 0.948022 38.5641 1.25495C38.4884 1.30314 38.4907 1.39803 38.4751 1.47513Z" fill="white"/>
</g>
<path fill-rule="evenodd" clip-rule="evenodd" d="M36.5786 2.16086L37.6966 1.36908C37.7611 1.32534 37.7529 1.25491 37.7618 1.17188C37.3912 1.43061 37.016 1.68416 36.6594 1.96217C36.5912 2.00517 36.5934 2.09117 36.5786 2.16086Z" fill="white"/>
<path fill-rule="evenodd" clip-rule="evenodd" d="M32.6349 4.29523L33.3184 3.5079C33.3585 3.46341 33.3414 3.39743 33.3355 3.31885C33.1086 3.5761 32.8766 3.82891 32.6623 4.10395C32.6193 4.14695 32.6342 4.2285 32.6349 4.29523Z" fill="white"/>
<path fill-rule="evenodd" clip-rule="evenodd" d="M36.4834 6.44254L37.0759 5.89906C37.11 5.86936 37.1056 5.81145 37.1108 5.74463C36.914 5.92208 36.715 6.09433 36.5265 6.28811C36.4908 6.31707 36.4916 6.38686 36.4834 6.44254Z" fill="white"/>
<path fill-rule="evenodd" clip-rule="evenodd" d="M39.332 5.4982L40.7762 4.64637C40.86 4.59967 40.8563 4.51293 40.8756 4.41284C40.3974 4.69085 39.914 4.96219 39.4506 5.26467C39.3624 5.30989 39.3558 5.41443 39.332 5.4982Z" fill="white"/>
<path fill-rule="evenodd" clip-rule="evenodd" d="M42.6953 5.94978L43.8948 5.67918C43.963 5.66584 43.9801 5.6043 44.0164 5.53906C43.6198 5.6258 43.2224 5.70587 42.831 5.81337C42.7591 5.82523 42.7309 5.8964 42.6953 5.94978Z" fill="white"/>
<path fill-rule="evenodd" clip-rule="evenodd" d="M44.3157 1.61613C44.4159 1.61093 44.4939 1.52258 44.5971 1.52406C44.6751 1.51218 44.7887 1.54188 44.828 1.45056C44.9134 1.27385 44.8154 1.07265 44.6669 0.964988C44.7263 1.14318 44.7619 1.24935 44.7382 1.32657C44.7233 1.36295 44.6691 1.39636 44.6186 1.3236C44.5733 1.24712 44.5281 1.16991 44.4813 1.09492C44.4694 1.19664 44.4627 1.29835 44.4553 1.40007C44.439 1.45576 44.3491 1.45947 44.3209 1.39933C44.2385 1.24712 44.2882 1.03478 44.1427 0.918213C44.1293 1.10457 44.1702 1.28796 44.2147 1.46764C44.234 1.52406 44.2407 1.60648 44.3157 1.61613Z" fill="white"/>
<path fill-rule="evenodd" clip-rule="evenodd" d="M47.2404 3.37267C47.3355 3.40534 47.4416 3.35262 47.5352 3.39271C47.6131 3.41128 47.7067 3.48107 47.778 3.41053C47.9228 3.27837 47.9064 3.05489 47.8099 2.89972C47.798 3.08756 47.7913 3.19893 47.7408 3.26278C47.7134 3.29025 47.6503 3.30065 47.631 3.21527C47.6176 3.12691 47.6042 3.03856 47.5886 2.95169C47.5396 3.04153 47.4958 3.13285 47.4513 3.22492C47.4149 3.27021 47.3295 3.23977 47.3258 3.17369C47.3065 3.00144 47.4327 2.82399 47.3407 2.66064C47.259 2.82844 47.2278 3.01406 47.2026 3.19745C47.1988 3.25759 47.1751 3.33629 47.2404 3.37267Z" fill="white"/>
<path fill-rule="evenodd" clip-rule="evenodd" d="M43.1482 2.21887C43.1662 2.14325 43.1988 2.11953 43.2822 2.11953C43.3639 2.11953 43.3982 2.16772 43.3982 2.23444C43.3982 2.33304 43.1253 2.30635 43.1482 2.21887ZM43.0215 2.33452C43.0665 2.40495 43.1662 2.42349 43.2381 2.46574C43.0607 2.63033 42.8246 2.73486 42.6587 2.90982C42.9986 2.80974 43.3067 2.6066 43.493 2.32711C43.5527 2.23296 43.5551 2.10618 43.5012 2.00906C43.4497 1.91862 43.3214 1.88303 43.2217 1.92974C43.0681 2.00165 42.9864 2.17735 43.0215 2.33452Z" fill="white"/>
<path fill-rule="evenodd" clip-rule="evenodd" d="M46.2433 1.61538C46.2804 1.54124 46.3152 1.52495 46.3879 1.54776C46.4591 1.57057 46.4746 1.63168 46.4561 1.70174C46.4287 1.80603 46.1981 1.70093 46.2433 1.61538ZM46.101 1.70256C46.1203 1.78892 46.2011 1.83618 46.2522 1.90135C46.0513 2.02519 45.8178 2.07 45.6235 2.20851C45.9475 2.1971 46.273 2.06919 46.5132 1.82558C46.5918 1.7433 46.6296 1.61049 46.6088 1.49317C46.5895 1.38318 46.488 1.30986 46.3879 1.33104C46.2344 1.36363 46.1136 1.52658 46.101 1.70256Z" fill="white"/>
<path fill-rule="evenodd" clip-rule="evenodd" d="M51.1366 4.12437C51.1841 4.053 51.2211 4.04154 51.2901 4.08119C51.3568 4.11908 51.3635 4.18604 51.3346 4.25741C51.2916 4.36403 51.0803 4.20719 51.1366 4.12437ZM50.9831 4.18957C50.9898 4.28649 51.0625 4.35258 51.1032 4.431C50.8868 4.52439 50.6495 4.52704 50.4375 4.63718C50.7585 4.68828 51.0988 4.61427 51.3724 4.40104C51.4606 4.32879 51.5192 4.19397 51.5162 4.06445C51.5132 3.94374 51.4235 3.84593 51.322 3.84946C51.1663 3.85386 51.0224 4.00453 50.9831 4.18957Z" fill="white"/>
<path fill-rule="evenodd" clip-rule="evenodd" d="M35.5302 2.38425C35.5621 2.44885 35.5681 2.52755 35.5866 2.59957C35.6854 2.47706 35.773 2.21274 35.5911 2.1333C35.3795 2.16374 35.2414 2.37906 35.2711 2.5862C35.3639 2.45702 35.4656 2.30258 35.5302 2.38425Z" fill="white"/>
<path fill-rule="evenodd" clip-rule="evenodd" d="M41.8471 1.17918C41.8783 1.24377 41.8842 1.32247 41.9035 1.39449C42.0023 1.27198 42.0899 1.00767 41.908 0.928223C41.6964 0.959406 41.5583 1.17398 41.588 1.38113C41.6808 1.25194 41.7825 1.0975 41.8471 1.17918Z" fill="white"/>
<path fill-rule="evenodd" clip-rule="evenodd" d="M50.354 4.99053C50.6454 5.00758 50.936 5.01574 51.2281 5.01574C51.3274 5.02315 51.4142 4.96829 51.4972 4.92084C51.2043 4.90527 50.9123 4.90305 50.6194 4.89489C50.5201 4.88674 50.4333 4.93863 50.354 4.99053Z" fill="white"/>
<path fill-rule="evenodd" clip-rule="evenodd" d="M36.0638 2.57936C36.4856 3.07088 36.883 3.58539 37.2337 4.13103C37.1514 3.69289 36.9327 3.28588 36.6398 2.95152C36.4849 2.7432 36.3648 2.50967 36.2002 2.30876C36.1505 2.24945 36.0742 2.21979 35.9978 2.23314H35.9971C36.0015 2.34953 35.9748 2.48594 36.0638 2.57936Z" fill="white"/>
<path fill-rule="evenodd" clip-rule="evenodd" d="M45.9009 5.53886C46.1018 5.49438 46.3027 5.44989 46.5073 5.42617C46.603 5.42395 46.6689 5.35352 46.7334 5.29272C46.4502 5.31793 46.0944 5.28753 45.9009 5.53886Z" fill="white"/>
<path fill-rule="evenodd" clip-rule="evenodd" d="M42.5654 1.93247C42.7841 1.88725 42.9865 1.77753 43.1548 1.63222C43.2675 1.5351 43.3565 1.39424 43.3498 1.24078C43.3298 1.05321 43.0747 0.938301 42.9257 1.05988C42.8887 1.09695 42.8679 1.14218 42.859 1.19037C42.8316 1.33493 42.9799 1.45429 43.1163 1.40017C43.1622 1.38164 43.2067 1.36014 43.2512 1.3379C43.1185 1.63074 42.7923 1.7323 42.5654 1.93247Z" fill="white"/>
<path fill-rule="evenodd" clip-rule="evenodd" d="M45.487 2.88133C45.4396 2.90431 45.3929 2.92952 45.3424 2.94657C45.272 2.92433 45.2135 2.87762 45.1541 2.83611C45.2661 2.83907 45.378 2.8539 45.487 2.88133ZM43.8805 2.9614C43.942 3.26758 43.9101 3.58266 43.9576 3.89107C43.7797 3.93258 43.5869 3.95483 43.4386 4.07196C43.3193 4.15499 43.2399 4.2788 43.1332 4.37518C43.0813 4.39223 43.0479 4.3737 43.0331 4.3218C42.9278 4.09494 42.933 3.83547 42.8478 3.60194C42.8151 3.51964 42.7076 3.50333 42.6305 3.5152C42.4066 3.55968 42.2094 3.68942 42.0426 3.84066C41.8595 4.00376 41.6631 4.16982 41.5682 4.40113C41.5215 4.54718 41.5274 4.70657 41.4525 4.84298C41.3621 5.00163 41.4251 5.18105 41.4488 5.34785C41.4866 5.5584 41.474 5.7734 41.4836 5.98691C41.6934 5.70593 41.6749 5.3523 41.6453 5.02017C41.6386 4.9401 41.6831 4.86374 41.7579 4.83483C41.907 4.77774 42.0738 4.79109 42.2339 4.77997C42.3577 4.77107 42.4622 4.68507 42.4941 4.56497C42.4941 4.56423 42.4949 4.56349 42.4949 4.562C42.509 4.50788 42.4897 4.44858 42.4437 4.4167C42.2799 4.30401 42.0968 4.22394 41.9062 4.1676C42.0604 4.04157 42.2243 3.91776 42.4155 3.85474C42.5171 3.81767 42.6594 3.854 42.701 3.96224C42.7521 4.08308 42.7677 4.21356 42.8033 4.33959C42.8529 4.53902 42.9627 4.71695 43.0716 4.88895C43.2318 5.10839 43.4231 5.33599 43.7018 5.39826C43.7389 5.29299 43.773 5.18698 43.8034 5.08022C43.6366 4.95567 43.4535 4.84298 43.3296 4.67173C43.2963 4.61761 43.2266 4.55088 43.2911 4.49157C43.4282 4.33811 43.6351 4.26472 43.8345 4.23729C44.1199 4.20096 44.3831 4.34256 44.6559 4.39668C44.6975 4.27287 44.7249 4.1461 44.7338 4.01562C44.564 3.95038 44.3809 3.91479 44.2208 3.82509C44.1044 3.76059 44.0903 3.62121 44.0769 3.50259C44.266 3.53373 44.4573 3.6049 44.6508 3.55968C44.8598 3.5189 45.037 3.39509 45.2246 3.30391C45.3069 3.25201 45.3862 3.32911 45.4611 3.36025C45.656 3.4722 45.8829 3.58192 46.1135 3.52039C46.3722 3.45885 46.4686 3.15415 46.4545 2.91691C46.4575 2.7464 46.3559 2.60183 46.2432 2.48396C46.1883 2.57663 46.1201 2.673 46.1246 2.78495C46.1743 2.93026 46.2551 3.0637 46.2988 3.21124C46.0653 3.28537 45.8191 3.23348 45.6219 3.09558C45.7065 3.04146 45.7999 2.99772 45.874 2.92803C45.9348 2.83462 45.9563 2.72268 45.9889 2.6174C45.6182 2.46913 45.1934 2.47135 44.819 2.60702C44.6085 2.68783 44.5507 2.92729 44.5025 3.12227C44.6656 3.10967 44.8339 3.0941 44.9896 3.1586C44.7583 3.29204 44.4536 3.32985 44.2215 3.17862C44.0755 3.0815 44.0428 2.89541 44.025 2.7338C43.9724 2.18741 43.9175 1.63509 43.7485 1.11021C43.707 1.10576 43.7018 1.10576 43.6595 1.10205C43.5261 1.36968 43.6937 1.64102 43.7255 1.91014C43.7722 2.26155 43.813 2.6137 43.8805 2.9614Z" fill="white"/>
<path fill-rule="evenodd" clip-rule="evenodd" d="M40.069 3.31946C40.3293 3.42918 40.6288 3.51518 40.783 3.77244C40.6629 3.8829 40.5168 3.99855 40.3411 3.97112C40.1921 3.96371 40.1031 3.83619 40.0186 3.73092C39.9682 3.87549 39.9519 4.13941 39.7399 4.11643C39.5516 4.13496 39.4982 3.91923 39.4352 3.78504C39.3447 3.51518 39.218 3.25941 39.1297 2.98881C39.4545 3.06295 39.7658 3.18453 40.069 3.31946ZM39.0022 2.66261L38.9711 2.65594C38.8013 2.3846 38.7383 2.03838 38.4951 1.8182C38.4951 1.9205 38.4936 2.02948 38.547 2.12216C38.7739 2.5692 38.9585 3.03626 39.1579 3.49591C39.2854 3.79245 39.3692 4.11717 39.5746 4.3722C39.6442 4.47006 39.7747 4.46932 39.8785 4.4367C39.9786 4.37368 40.0305 4.26025 40.0972 4.1661C40.3004 4.24987 40.5532 4.33958 40.7489 4.18538C40.9216 4.05712 40.8727 3.82507 40.8727 3.63973C41.1144 3.70497 41.3627 3.8095 41.617 3.75168C41.723 3.7198 41.829 3.66123 41.8987 3.57227C41.9833 3.28017 41.8646 2.98362 41.7468 2.7197C41.5814 2.34679 41.4561 1.95609 41.2745 1.5906C41.1566 1.6032 41.0995 1.7663 41.1336 1.86935C41.3093 2.37941 41.6163 2.83238 41.7823 3.34689C41.5755 3.49961 41.3005 3.47366 41.0721 3.39063C40.5339 3.18676 40.009 2.95248 39.4782 2.72933C39.7821 2.4743 40.0943 2.22595 40.4264 2.00947C40.6325 1.86713 40.8749 1.7789 41.0603 1.60913C41.1574 1.50756 41.0758 1.36819 41.0261 1.26514C40.5887 1.56539 40.1424 1.85082 39.7073 2.15329C39.4797 2.3327 39.261 2.52842 39.0022 2.66261Z" fill="white"/>
<path fill-rule="evenodd" clip-rule="evenodd" d="M33.5689 6.33318C33.6038 6.11374 33.6586 5.89207 33.7617 5.69338C33.8284 5.62889 33.861 5.7134 33.8892 5.76678C33.8959 5.99586 33.7558 6.20938 33.5689 6.33318ZM33.1968 4.47458C33.1871 4.71478 33.4029 4.86899 33.6008 4.9535C33.9062 5.08843 34.1472 5.32493 34.3904 5.54585C34.5727 5.71933 34.7707 5.87798 34.9271 6.07593C34.5268 6.05517 34.2221 5.76975 33.9159 5.54437C33.8173 5.47839 33.7609 5.37237 33.7061 5.27155C33.6497 5.28489 33.5875 5.32196 33.5356 5.2797C33.3828 5.19445 33.2368 5.09881 33.0767 5.02838C33.1063 5.11512 33.1248 5.21076 33.1842 5.28341C33.3006 5.37608 33.4399 5.43242 33.5674 5.50804C33.5118 5.70599 33.4384 5.898 33.3873 6.09669C33.3317 6.28129 33.4251 6.47182 33.5422 6.6112C33.586 6.68014 33.6786 6.66013 33.735 6.61787C33.9722 6.45254 34.1064 6.15451 34.0597 5.86761C34.3718 6.05221 34.661 6.31242 35.0346 6.35987C35.3934 6.41844 35.7196 6.22494 36.0429 6.09891C36.0095 5.98771 35.9613 5.88169 35.9013 5.78235C35.6833 5.86835 35.455 5.97436 35.2155 5.93359C34.9442 5.88911 34.7395 5.68078 34.5913 5.46282C34.81 5.51768 35.022 5.62666 35.2533 5.61109C35.5091 5.59182 35.7478 5.4517 35.9079 5.25376C36.1022 5.01578 36.2905 4.77261 36.4788 4.52944C36.5722 4.40786 36.7116 4.33743 36.8384 4.25736C36.8094 4.17062 36.779 4.08314 36.7472 3.9964C36.4173 4.14912 36.0888 4.31074 35.7448 4.43084C35.7471 4.26181 35.7522 4.08907 35.7048 3.92523C35.5906 3.57234 35.3393 3.2921 35.1243 2.99852C35.0643 2.91994 34.9768 2.86878 34.8937 2.81763C34.9041 2.92957 34.9078 3.05042 34.979 3.14309C35.1666 3.41369 35.3919 3.65759 35.5662 3.93783C35.6233 4.02902 35.6596 4.1506 35.5906 4.24624C35.4298 4.47977 35.1881 4.64287 34.9516 4.79263C34.9746 4.89419 35.0027 4.99354 35.0339 5.09288C35.3423 4.97648 35.6373 4.82599 35.9487 4.71775C35.8012 4.95869 35.5943 5.18481 35.3148 5.26636C35.0012 5.3657 34.6765 5.23967 34.3889 5.11586C34.079 4.96759 33.7758 4.80004 33.4955 4.60061C33.6987 4.43306 33.8766 4.23882 34.0478 4.04014C34.3162 3.79178 34.6002 3.55454 34.83 3.26764C34.9234 3.15866 34.7966 2.97183 34.6654 2.97702C34.2769 3.34919 33.9255 3.76435 33.494 4.09055C33.3754 4.19879 33.1871 4.28776 33.1968 4.47458Z" fill="white"/>
<path fill-rule="evenodd" clip-rule="evenodd" d="M48.1876 3.29677C48.4189 3.69785 48.6695 4.10337 48.7637 4.56376C48.5902 4.61343 48.3759 4.59638 48.261 4.44143C48.2106 4.2939 48.2506 4.13229 48.2388 3.97882C48.0364 4.0322 47.8822 4.17825 47.7139 4.29316C47.5723 4.38732 47.4878 4.53781 47.3758 4.66162C47.3262 4.47109 47.358 4.27389 47.3373 4.08113C47.3121 3.88986 47.0867 3.79126 46.914 3.84167C46.4439 3.93731 46.1022 4.32208 45.8671 4.71722C45.9902 4.65643 46.1237 4.65495 46.2304 4.74762C46.0955 4.77208 45.9517 4.7617 45.8227 4.8136C45.6054 4.98189 45.6114 5.27547 45.5669 5.52086C45.5358 5.75513 45.4535 5.9768 45.4053 6.20663C45.6655 5.87079 45.7129 5.44005 45.8256 5.04417C46.0251 5.03453 46.2252 5.04268 46.4239 5.03675C46.5625 5.04639 46.6649 4.92481 46.7093 4.80619C46.6915 4.57859 46.4254 4.51631 46.2749 4.3925C46.4476 4.29094 46.627 4.19234 46.822 4.14192C46.997 4.09522 47.1816 4.25165 47.192 4.42587C47.2187 4.70017 47.1897 4.99449 47.3299 5.24285C47.4196 5.40669 47.6049 5.47045 47.768 5.53643C47.8206 5.45414 47.8651 5.36592 47.8948 5.27176C47.7487 5.17835 47.6056 5.06344 47.5382 4.89812C47.4989 4.81064 47.4826 4.68831 47.5626 4.61788C47.7124 4.48147 47.8859 4.36063 48.0868 4.31614C48.1053 4.47776 48.0223 4.70981 48.201 4.8047C48.3707 4.92184 48.6243 4.89515 48.7585 4.73502C48.8689 4.60454 48.9861 4.44143 48.949 4.25906C48.9119 3.89876 48.6599 3.62074 48.5464 3.28713C49.2292 3.30344 49.8979 3.46432 50.5644 3.59554C50.7053 3.61926 50.7779 3.46802 50.835 3.36646C50.1893 3.22041 49.5384 3.08696 48.8786 3.02913C48.7132 3.01653 48.5427 2.98613 48.3796 3.02394C48.2751 3.07287 48.2121 3.18853 48.1876 3.29677Z" fill="white"/>
<path fill-rule="evenodd" clip-rule="evenodd" d="M45.2902 3.86849C45.4221 3.84996 45.5489 3.88703 45.6253 4.00194C45.5015 4.00342 45.3272 4.02418 45.2902 3.86849ZM44.2708 4.75665C43.9928 4.74404 43.7407 4.6195 43.479 4.54313C43.6332 4.73218 43.8719 4.81299 44.0884 4.9064C44.4672 5.03392 44.9135 5.08062 45.2724 4.86934C45.5734 4.71217 45.7817 4.41784 45.8773 4.09683C45.9648 3.85292 45.7409 3.55712 45.4837 3.57714C45.3257 3.6142 45.2383 3.77137 45.1656 3.90259C45.1159 4.00861 45.0611 4.16578 45.1664 4.25549C45.2902 4.36521 45.4681 4.34222 45.6208 4.36298C45.2961 4.75442 44.7415 4.79298 44.2708 4.75665Z" fill="white"/>
<path fill-rule="evenodd" clip-rule="evenodd" d="M38.1293 4.80266C37.7645 4.98948 37.3545 5.15555 36.9372 5.074C36.7844 5.04953 36.7222 4.89014 36.6221 4.79154C36.6666 4.9576 36.6925 5.14813 36.82 5.27268C37.058 5.44542 37.3768 5.42096 37.6459 5.34608C38.041 5.21931 38.4199 5.03026 38.7402 4.76411C38.9084 4.6314 39.0782 4.46682 39.1242 4.24886C39.116 4.108 39.0426 3.98345 38.9796 3.86038C38.9121 3.71878 38.7468 3.67578 38.6149 3.61499C38.6341 3.7047 38.6393 3.79959 38.6838 3.88114C38.7654 3.97455 38.8729 4.04202 38.9663 4.12283C38.7231 4.38749 38.4599 4.6492 38.1293 4.80266Z" fill="white"/>
<path fill-rule="evenodd" clip-rule="evenodd" d="M48.6709 5.51182C48.2187 5.7839 47.6026 5.7068 47.2038 5.36948C47.0926 5.26272 47.0303 5.11371 46.9072 5.01733C46.9198 5.11074 46.9339 5.20638 46.9799 5.29089C47.2497 5.81282 47.9414 6.0849 48.4863 5.84544C48.6828 5.75944 48.7844 5.56223 48.9171 5.40655C49.0609 5.45325 49.2158 5.5222 49.3686 5.47105C49.5569 5.40432 49.7111 5.24938 49.7852 5.06404C49.8378 4.92688 49.783 4.7838 49.7378 4.65332C49.6681 4.70744 49.5939 4.76008 49.548 4.83644C49.4612 4.95135 49.5443 5.09517 49.5532 5.22195C49.4256 5.22788 49.2855 5.24419 49.1721 5.17005C49.0253 5.0974 48.9608 4.94023 48.8896 4.80308C48.8333 4.87944 48.7636 4.94913 48.7288 5.03883C48.7258 5.19674 48.8414 5.40284 48.6709 5.51182Z" fill="white"/>
<path fill-rule="evenodd" clip-rule="evenodd" d="M50.0784 5.42179C50.2193 5.40771 50.3386 5.48333 50.3535 5.63012C50.2304 5.60639 50.0851 5.57377 50.0784 5.42179ZM49.5254 6.48862C50.0087 6.45081 50.4877 6.112 50.6018 5.62567C50.647 5.45515 50.5781 5.22533 50.3876 5.18381C50.2 5.1675 50.0599 5.32097 49.9539 5.45515C49.8871 5.54041 49.8041 5.67682 49.9086 5.76801C50.0391 5.85549 50.2022 5.87328 50.3475 5.92963C50.1666 6.16093 49.8523 6.24767 49.5698 6.22617C49.231 6.18762 48.9211 6.03119 48.6172 5.88663C48.8529 6.16093 49.1198 6.52124 49.5254 6.48862Z" fill="white"/>
<path fill-rule="evenodd" clip-rule="evenodd" d="M49.7459 18.0494C49.6659 17.9834 49.5962 17.8759 49.4879 17.8625C49.2551 18.0516 49.0683 18.2911 48.8556 18.5023C48.7992 18.572 48.6717 18.6684 48.7762 18.7552C49.0031 19.0117 49.2796 19.2185 49.5206 19.4609C49.7504 19.2348 49.9735 19.0013 50.1937 18.7648C50.2389 18.7107 50.3042 18.6536 50.2805 18.575C50.127 18.3763 49.9164 18.2325 49.7459 18.0494Z" fill="white"/>
<path fill-rule="evenodd" clip-rule="evenodd" d="M45.2058 22.0842C45.1828 22.0657 45.1627 22.0345 45.1323 22.0308C45.0662 22.0842 45.012 22.1533 44.9519 22.2134C44.9363 22.2335 44.8992 22.2609 44.9296 22.2854C44.9942 22.3589 45.0729 22.4176 45.142 22.4866C45.2073 22.422 45.2704 22.356 45.3335 22.2884C45.3461 22.2728 45.3654 22.2565 45.358 22.2342C45.3142 22.177 45.2541 22.1362 45.2058 22.0842Z" fill="white"/>
<path fill-rule="evenodd" clip-rule="evenodd" d="M43.5942 22.3288C43.5719 22.3103 43.5511 22.2798 43.5206 22.2754C43.4546 22.3296 43.4011 22.3979 43.3402 22.458C43.3246 22.4781 43.2883 22.5056 43.318 22.5301C43.3826 22.6036 43.4613 22.6622 43.5303 22.7313C43.5956 22.6674 43.6595 22.6006 43.7219 22.533C43.7345 22.5174 43.7538 22.5011 43.7464 22.4788C43.7026 22.4217 43.6424 22.3808 43.5942 22.3288Z" fill="white"/>
<path fill-rule="evenodd" clip-rule="evenodd" d="M44.1864 22.3288C44.1642 22.3103 44.1434 22.2798 44.1129 22.2754C44.0469 22.3296 43.9934 22.3979 43.9325 22.458C43.9169 22.4781 43.8805 22.5056 43.9102 22.5301C43.9748 22.6036 44.0535 22.6622 44.1226 22.7313C44.1879 22.6674 44.2518 22.6006 44.3141 22.533C44.3268 22.5174 44.3461 22.5011 44.3386 22.4788C44.2948 22.4217 44.2347 22.3808 44.1864 22.3288Z" fill="white"/>
<path fill-rule="evenodd" clip-rule="evenodd" d="M43.9054 21.9446C43.8824 21.926 43.8624 21.8948 43.8312 21.8911C43.7659 21.9446 43.7117 22.0136 43.6508 22.0738C43.6352 22.0938 43.5988 22.1213 43.6285 22.1458C43.6938 22.2193 43.7718 22.2779 43.8408 22.347C43.9062 22.2824 43.97 22.2156 44.0331 22.148C44.0458 22.1332 44.0643 22.1168 44.0576 22.0945C44.0138 22.0374 43.9537 21.9965 43.9054 21.9446Z" fill="white"/>
<path fill-rule="evenodd" clip-rule="evenodd" d="M42.1233 1.60618C42.1367 1.71294 42.1708 1.81524 42.199 1.91829C42.3243 2.40982 42.3843 2.92062 42.5696 3.39658C42.5986 3.30317 42.6319 3.20605 42.6149 3.1067C42.5355 2.56847 42.4659 2.02653 42.3131 1.50313C42.2909 1.43492 42.259 1.36968 42.2286 1.30444C42.1752 1.39637 42.11 1.49497 42.1233 1.60618Z" fill="white"/>
<path fill-rule="evenodd" clip-rule="evenodd" d="M37.6527 2.83227C37.729 2.63877 37.9418 2.66472 38.093 2.75071C37.9729 2.8545 37.798 2.94347 37.6527 2.83227ZM37.5941 2.45343C37.4695 2.68177 37.5533 2.98499 37.7157 3.17107C37.9144 3.26448 38.1182 3.11621 38.2799 3.01093C38.2576 3.22741 38.2309 3.46168 38.0849 3.63442C37.964 3.7738 37.8172 3.89094 37.6601 3.98731C37.4777 4.09926 37.259 4.1341 37.0796 4.25198C37.1693 4.28312 37.2657 4.30684 37.3606 4.28238C37.6986 4.2201 38.0552 4.10297 38.2762 3.82421C38.4318 3.62997 38.4452 3.36753 38.44 3.12881C38.4489 2.78482 38.1946 2.48382 37.8951 2.34371C37.7854 2.28736 37.646 2.34519 37.5941 2.45343Z" fill="white"/>
<path fill-rule="evenodd" clip-rule="evenodd" d="M51.0239 6.04723C50.8652 6.37936 50.5835 7.0592 50.5835 7.0592C50.8793 7.35129 51.25 7.55072 51.5614 7.82503C51.935 8.10082 52.259 8.43962 52.6393 8.70429C53.2005 8.59679 53.7521 8.43888 54.3118 8.31878C53.9374 7.99851 53.1649 7.37428 52.3094 6.77229C52.3094 6.77229 52.8276 5.83075 52.9848 5.47119C52.3984 5.63948 51.7986 5.76032 51.2092 5.91972C51.1343 5.94048 51.0528 5.96791 51.0239 6.04723Z" fill="white"/>
<path fill-rule="evenodd" clip-rule="evenodd" d="M52.6431 6.65453L54.4891 8.09129L55.1222 7.10528C54.5921 6.53072 53.3822 5.54618 53.2139 5.52246L52.6431 6.65453Z" fill="white"/>
<path fill-rule="evenodd" clip-rule="evenodd" d="M54.8389 8.38772C54.9189 8.50412 56.028 9.66584 56.8724 10.9454C57.057 10.6014 57.2839 10.1937 57.4766 9.85414C57.4766 9.85414 56.8413 8.70355 55.429 7.37354L54.8389 8.38772Z" fill="white"/>
<path fill-rule="evenodd" clip-rule="evenodd" d="M54.6296 8.64941C54.4287 8.6724 53.3078 8.96894 52.9697 9.06532C53.1061 9.2299 53.9335 10.0921 54.789 11.2575C54.7609 11.259 56.5943 11.1189 56.5943 11.1189C55.7528 9.79705 54.6296 8.64941 54.6296 8.64941Z" fill="white"/>
<path fill-rule="evenodd" clip-rule="evenodd" d="M42.4112 13.313C42.5113 13.0795 42.6062 12.7896 42.862 12.6873C42.9828 12.6614 43.1289 12.6614 43.2186 12.7592C43.3713 12.8964 43.3572 13.1218 43.3194 13.3049C43.2608 13.5488 43.1837 13.7905 43.0755 14.0166C43.0036 14.1701 42.8405 14.2731 42.6722 14.2746C42.5158 14.262 42.3541 14.1753 42.2993 14.0211C42.1948 13.7831 42.3341 13.5369 42.4112 13.313ZM51.7769 12.3144C51.5345 12.2522 51.2802 12.267 51.0341 12.2307C50.4506 12.1321 49.8983 11.9141 49.3334 11.7458C48.8774 11.6012 48.4185 11.4152 47.9307 11.4285C47.6216 11.43 47.2813 11.4708 47.0425 11.6872C46.6682 11.9934 46.5043 12.4709 46.3694 12.9179C46.316 13.078 46.3301 13.3205 46.5199 13.3753C46.5199 13.3753 46.8565 13.1544 47.0663 13.1255C47.7113 13.0454 48.3592 13.2841 48.8774 13.6593C48.9842 13.7223 49.0576 13.8854 48.9449 13.9781C48.5772 14.3102 48.0671 14.4147 47.5852 14.4169C47.0537 14.4147 46.5214 14.4088 45.9898 14.414C45.5546 14.4236 45.1209 14.3695 44.6939 14.2931C44.5063 14.2531 44.3195 14.3828 44.2528 14.5556C43.9896 15.1464 43.7561 15.7499 43.5047 16.346C43.444 16.4772 43.3832 16.6181 43.2638 16.7085C43.1267 16.8212 42.9272 16.8071 42.7671 16.7604C42.5551 16.6662 42.3749 16.515 42.197 16.3704C42.0747 16.2793 42.0643 16.0739 42.191 15.9834C42.2867 15.9449 42.3957 15.9671 42.4965 15.9605C42.7263 15.9708 42.988 15.9101 43.1289 15.7136C43.5248 15.1583 43.7879 14.5089 43.9051 13.8387C43.9155 13.858 43.9266 13.8787 43.9377 13.8987C43.9303 13.64 44.0289 13.3939 44.0319 13.1359C44.0341 12.8793 44.0697 12.6088 43.9666 12.3656C43.9095 12.2284 43.8384 12.0935 43.7279 11.9919C43.378 11.6287 42.6848 11.7399 42.4572 12.1877C42.2785 12.5287 42.1154 12.8816 42.0242 13.2574C41.9605 13.5006 41.9071 13.7512 41.7855 13.9743C41.7307 14.0752 41.6276 14.1515 41.5075 14.1412C40.586 14.1374 39.6637 14.136 38.7422 14.1419C38.4509 14.1441 38.1662 13.9054 38.1543 13.6089C38.141 12.9046 38.1691 12.201 38.1336 11.4982C38.1632 11.0956 38.1521 10.6931 38.1454 10.2898C38.1402 10.0785 38.1743 9.86347 38.1232 9.65515C38.098 9.54246 37.9601 9.44905 37.8548 9.52764C37.6101 9.68851 37.3596 9.83901 37.1223 10.011C36.7383 10.2875 36.3328 10.5344 35.9562 10.8221C35.7567 10.9681 35.8034 11.3091 36.0229 11.4137C36.2312 11.5227 36.4106 11.7228 36.398 11.9719C36.3958 12.9357 36.4025 13.9002 36.3936 14.864C36.3965 15.0908 36.4796 15.3095 36.5863 15.5067C36.7969 15.8863 37.238 16.1021 37.665 16.0909C38.5865 16.0887 39.5073 16.0917 40.4281 16.0924C40.6023 16.0835 40.7758 16.1703 40.8647 16.3208C40.9782 16.5224 40.8633 16.7767 40.9863 16.9776C41.1858 17.2927 41.5045 17.5047 41.8092 17.7086C42.2392 18.0089 42.6626 18.318 43.0918 18.6197C43.1704 18.6813 43.3098 18.7332 43.3839 18.6375C43.547 18.4403 43.676 18.2157 43.825 18.0066C43.9192 17.8257 44.1312 17.6715 44.1104 17.4543C43.9733 17.2897 43.719 17.18 43.7257 16.9331C43.7538 16.733 43.8606 16.5491 43.9866 16.3934C44.1557 16.1836 44.4396 16.125 44.6961 16.1332C45.883 16.1347 47.07 16.1332 48.2569 16.131C48.4534 16.1302 48.6402 16.0539 48.8003 15.9427C49.2377 15.6439 49.6269 15.2821 50.0065 14.9137C50.2452 14.7046 50.4232 14.4236 50.7064 14.2694C51.0081 14.0848 51.3729 14.0707 51.7154 14.0552C51.8125 14.0633 51.877 13.961 51.8711 13.8728C51.8851 13.4836 51.8718 13.0943 51.8792 12.7059C51.8785 12.5709 51.897 12.4078 51.7769 12.3144Z" fill="white"/>
<path fill-rule="evenodd" clip-rule="evenodd" d="M58.2603 14.255L59.3019 13.3372C58.7726 11.8722 57.6413 10.1374 57.6257 10.1382C57.4559 10.5096 57.2031 10.9655 57.0215 11.3318C57.0215 11.3318 57.8081 12.7389 58.2603 14.255Z" fill="white"/>
<path fill-rule="evenodd" clip-rule="evenodd" d="M31.4954 15.294C31.5443 15.5475 31.7022 15.7662 31.8794 15.9486C32.1826 16.2311 32.6133 16.3104 33.0107 16.3489C33.6275 16.366 34.277 16.4127 34.853 16.1465C35.0421 16.0642 35.1525 15.8722 35.1963 15.6787C35.2978 15.2413 35.3275 14.7913 35.329 14.3443C35.329 13.8987 35.3475 13.4509 35.2837 13.0083C35.2126 12.287 35.0643 11.5449 34.6491 10.9355C34.3407 10.4929 33.7884 10.1704 33.2376 10.2771C33.0367 10.312 32.8365 10.3839 32.6875 10.5292C32.2797 10.9058 32.0269 11.4581 32.0358 12.0164C32.0373 12.1721 32.0203 12.3315 32.0573 12.4849C32.1055 12.6406 32.2953 12.7133 32.4436 12.668C32.6289 12.5954 32.7653 12.4241 32.9655 12.3848C33.1849 12.3522 33.4222 12.3678 33.6157 12.4842C33.7929 12.5761 33.9063 12.7444 34.0308 12.8927C34.228 13.127 34.4104 13.3738 34.6002 13.614C34.6781 13.7252 34.7796 13.8498 34.7537 13.9958C34.6951 14.1634 34.5327 14.2664 34.3711 14.3198C34.0523 14.4429 33.7024 14.4303 33.3681 14.3969C32.9218 14.325 32.4302 14.2145 32.1263 13.8498C32.0321 13.7586 31.9483 13.6155 31.8001 13.6222C31.703 13.617 31.5725 13.614 31.5384 13.7282C31.4998 13.8876 31.5206 14.0537 31.5161 14.2153C31.5302 14.5748 31.4479 14.9344 31.4954 15.294Z" fill="white"/>
<path fill-rule="evenodd" clip-rule="evenodd" d="M56.3217 14.4162L58.0032 14.3391C57.8482 13.8691 57.2818 12.2855 56.7621 11.4463C56.7621 11.4463 55.358 11.5553 54.9287 11.5745C55.0703 11.8303 55.8502 12.9683 56.3217 14.4162Z" fill="white"/>
<path fill-rule="evenodd" clip-rule="evenodd" d="M58.4004 14.7443L58.9127 18.0397L60.2657 17.0982C60.0455 15.9387 59.8505 14.9059 59.4969 13.7783L58.4004 14.7443Z" fill="white"/>
<path fill-rule="evenodd" clip-rule="evenodd" d="M57.1018 17.6341L58.6283 18.0381C58.6172 17.7097 58.4007 16.1187 58.1234 14.831C57.5807 14.8287 57.0373 14.828 56.4946 14.8317C56.6978 15.3136 56.9609 16.1017 57.1018 17.6341Z" fill="white"/>
<path fill-rule="evenodd" clip-rule="evenodd" d="M60.3332 17.5771L59.0069 18.5224C59.1107 19.5084 59.0521 20.5522 58.9824 21.5405L60.3829 21.0134C60.3829 21.0134 60.5059 19.5951 60.3332 17.5771Z" fill="white"/>
<path fill-rule="evenodd" clip-rule="evenodd" d="M58.6911 21.4999C58.8119 20.4353 58.7541 19.109 58.7297 18.6271L57.1913 18.229C57.1802 18.4358 57.2877 19.5953 57.0972 21.0847L58.6911 21.4999Z" fill="white"/>
<path fill-rule="evenodd" clip-rule="evenodd" d="M58.6753 26.8703C58.4543 27.3945 58.1963 27.9023 57.9458 28.4131C57.7233 28.835 57.5425 29.2783 57.3178 29.6994C57.0554 29.583 56.8189 29.4184 56.5661 29.2842C56.4578 29.2338 56.3466 29.1552 56.2228 29.1678C56.1324 29.2301 56.0649 29.3176 56.0004 29.4036C55.6053 29.9544 55.1916 30.4904 54.7927 31.0383C54.6748 31.2066 54.5244 31.3534 54.4339 31.5387C54.385 31.6306 54.4406 31.73 54.4925 31.8056C54.6348 32.0065 54.8031 32.1859 54.9521 32.3824C54.9907 32.4395 55.0381 32.501 55.0389 32.5751C54.9158 32.7523 54.7297 32.8724 54.577 33.0222C54.0039 33.579 53.4108 34.1135 52.834 34.6651C52.5078 34.3759 52.2343 34.0312 51.9155 33.7354C51.8265 33.639 51.6938 33.6976 51.6049 33.7584C51.0244 34.1342 50.4728 34.5538 49.9005 34.9423C49.8189 35.0098 49.7077 35.0706 49.6825 35.1796C49.6988 35.3397 49.7885 35.4798 49.8545 35.6229C49.9538 35.8275 50.051 36.0329 50.134 36.2449C49.7974 36.4466 49.4119 36.54 49.0538 36.6986C48.5423 36.927 48.0107 37.1108 47.494 37.328C47.3709 37.3658 47.2404 37.4778 47.11 37.4259C46.9039 37.0841 46.8216 36.6831 46.6436 36.3272C46.5954 36.219 46.4672 36.216 46.3664 36.2308C45.4782 36.3628 44.5982 36.5437 43.7108 36.689C43.6226 36.7045 43.5062 36.7446 43.5121 36.8565C43.4869 37.265 43.5714 37.6706 43.5922 38.079C43.0665 38.0961 42.5402 38.0909 42.0138 38.0887H42.0071H42.0005C41.4741 38.0909 40.9477 38.0961 40.4221 38.079C40.4421 37.6706 40.5274 37.265 40.5022 36.8565C40.5081 36.7446 40.3917 36.7045 40.3027 36.689C39.4161 36.5437 38.5361 36.3628 37.6479 36.2308C37.5471 36.216 37.4188 36.219 37.3714 36.3272C37.1927 36.6831 37.1104 37.0841 36.9043 37.4259C36.7738 37.4778 36.6434 37.3658 36.5203 37.328C36.0036 37.1108 35.472 36.927 34.9605 36.6986C34.6024 36.54 34.2169 36.4466 33.8795 36.2449C33.9626 36.0329 34.0597 35.8275 34.1605 35.6229C34.2258 35.4798 34.3162 35.3397 34.3318 35.1796C34.3066 35.0706 34.1946 35.0098 34.1138 34.9423C33.5422 34.5538 32.9899 34.1342 32.4094 33.7584C32.3197 33.6976 32.1877 33.639 32.0988 33.7354C31.7793 34.0312 31.5072 34.3759 31.1802 34.6651C30.6027 34.1135 30.0096 33.579 29.4373 33.0222C29.2838 32.8724 29.0985 32.7523 28.9747 32.5751C28.9762 32.501 29.0236 32.4395 29.0629 32.3824C29.2112 32.1859 29.3795 32.0065 29.5218 31.8056C29.5737 31.73 29.6293 31.6306 29.5804 31.5387C29.4892 31.3534 29.3402 31.2066 29.2215 31.0383C28.8227 30.4904 28.409 29.9544 28.0146 29.4036C27.9494 29.3176 27.8819 29.2301 27.7914 29.1678C27.6676 29.1552 27.5564 29.2338 27.4482 29.2842C27.1954 29.4184 26.9589 29.583 26.6965 29.6994C26.4718 29.2783 26.2909 28.835 26.0693 28.4131C25.8187 27.9023 25.5599 27.3945 25.339 26.8703C26.1857 26.4841 27.9271 25.828 27.9271 25.828C27.9271 25.828 28.6299 27.4301 29.0414 28.0232C29.3135 28.4139 29.5522 28.8275 29.8606 29.1916C30.086 29.5089 30.3343 29.8069 30.6027 30.0886C32.1329 31.7493 34.357 33.1267 34.6572 33.2743C34.9345 33.4114 35.2066 33.5582 35.4876 33.6879C36.5344 34.1446 37.619 34.5257 38.7355 34.7718C39.2448 34.8519 39.743 34.9957 40.259 35.0217C40.8365 35.0913 41.4192 35.1158 42.0005 35.1128H42.0071H42.0138C42.5958 35.1158 43.1778 35.0913 43.7553 35.0217C44.2713 34.9957 44.7695 34.8519 45.2788 34.7718C46.396 34.5257 47.4792 34.1446 48.5274 33.6879C48.8077 33.5582 49.0805 33.4114 49.3578 33.2743C49.6573 33.1267 51.8806 31.7493 53.4116 30.0886C53.6799 29.8069 53.929 29.5089 54.1537 29.1916C54.4613 28.8275 54.7015 28.4139 54.9729 28.0232C55.3851 27.4301 56.0872 25.828 56.0872 25.828C56.0872 25.828 57.8286 26.4841 58.6753 26.8703ZM32.6785 27.5724C33.0411 27.5724 33.2612 27.7852 33.3591 28.0647C33.5541 28.5495 33.7231 29.044 33.9255 29.5259C34.0048 29.7402 34.1331 29.944 34.1368 30.179C33.9418 30.099 33.7839 29.9537 33.6015 29.8491C33.3154 29.6838 33.0611 29.4703 32.7779 29.299C32.508 29.1367 32.2723 28.9061 31.9609 28.8216C31.3092 28.6466 30.6531 28.4917 29.9992 28.3227C29.7976 28.2693 29.5477 28.273 29.4076 28.0921C29.2786 27.9201 29.1682 27.7792 29.1 27.5724H32.6785ZM33.1382 31.9183C32.9113 31.753 31.9609 31.0894 31.6807 30.8218C31.2655 30.4163 30.854 30.0056 30.4863 29.5563C30.3366 29.3569 30.0652 29.1293 29.9829 28.8906C30.4878 29.0455 31.0794 29.2798 31.5783 29.454C31.8015 29.5259 31.9683 29.6949 32.144 29.8402C32.4324 30.0842 32.7245 30.3244 33.021 30.5579C33.0959 30.6328 33.2131 30.6987 33.2116 30.8174C33.2212 31.1932 33.2049 31.5484 33.1382 31.9183ZM34.3192 30.6758C34.3629 30.8641 34.3288 31.0605 34.3503 31.2518C34.3881 31.5372 34.3866 31.8264 34.4156 32.1133C34.4222 32.2504 34.4563 32.4328 34.3066 32.5092C34.1687 32.5492 34.0063 32.541 33.8921 32.4454C33.7098 32.3068 33.5326 32.1622 33.3472 32.0273C33.3339 31.6811 33.3539 31.3356 33.3813 30.9916C33.3851 30.8418 33.4095 30.6639 33.285 30.5527C32.9951 30.2799 32.6585 30.0619 32.3649 29.7921C32.1574 29.6201 31.969 29.4088 31.7081 29.3168C31.0905 29.09 30.4945 28.8668 29.8702 28.6592C29.8688 28.6259 29.8443 28.554 29.8428 28.5214C30.4559 28.6185 31.4538 28.8906 31.8008 29.007C32.0684 29.0974 32.2863 29.2672 32.5177 29.4162C32.9751 29.7038 33.4177 30.0152 33.8721 30.308C34.0345 30.4111 34.2272 30.4978 34.3192 30.6758ZM34.6365 30.8604C34.6357 30.6958 34.767 30.5779 34.8885 30.4845C37.2075 28.6978 40.5518 27.9868 40.775 28.0046C40.7713 28.0558 40.7661 28.1062 40.7602 28.1581C36.3987 29.6238 35.8279 30.5268 35.7226 30.8448C35.6447 31.0865 35.6729 31.3445 35.6699 31.5951C35.6685 32.1303 35.6707 32.6663 35.6648 33.2023L35.664 33.2468L35.3378 33.2476C35.2385 33.2431 35.1562 33.2335 35.0857 33.1519C34.787 32.848 34.738 32.4009 34.6869 31.9998C34.6328 31.6225 34.6283 31.2407 34.6365 30.8604ZM35.151 29.4903C35.2948 29.0855 35.4305 28.6785 35.5624 28.27C35.6232 28.078 35.6544 27.8193 35.8471 27.7096C35.9227 27.6636 36.0065 27.6673 36.2489 27.6569H40.5148C40.5985 27.6614 40.5711 27.7844 40.5185 27.8022C40.2227 27.8919 39.9224 27.9638 39.6214 28.0298C38.8778 28.2396 37.1252 28.763 36.4387 29.1878C36.1036 29.3954 35.77 29.6067 35.4475 29.8343C35.2918 29.9396 35.1451 30.0604 34.9686 30.1323C34.9834 29.907 35.0872 29.7031 35.151 29.4903ZM36.6738 32.0006V33.126H36.3779V32.0006H36.6738ZM37.2728 32.0006V33.126H36.9762V32.0006H37.2728ZM37.8525 32.0006V33.126H37.5567V32.0006H37.8525ZM38.4278 32.0006V33.126H38.1328V32.0006H38.4278ZM38.9861 32.0006V33.126H38.691V32.0006H38.9861ZM39.5443 32.0006V33.126H39.2493V32.0006H39.5443ZM41.07 31.4638L41.0715 34.7644C41.0715 34.8178 41.0278 34.8615 40.9744 34.8615C40.8128 34.86 40.4962 34.8586 40.3702 34.8623C40.2545 34.8623 40.1782 34.7192 40.1359 34.6072C40.0336 34.3648 39.8386 31.4757 39.8386 31.4757H36.0087V31.1213C36.0073 30.9834 36.0399 30.847 36.1059 30.7262C36.14 30.6632 36.1778 30.6016 36.2156 30.5631C36.4499 30.3377 37.1015 29.8269 38.2403 29.3584C38.3596 29.3065 38.4338 29.4154 38.5368 29.4851C39.3315 30.0716 40.1255 30.6609 40.9344 31.2288C41.0167 31.2829 41.0663 31.3148 41.07 31.4638ZM41.2065 27.8994L41.7558 27.8979L41.7573 34.7651C41.7573 34.8185 41.7136 34.8623 41.6602 34.8623H41.3028C41.2495 34.8623 41.2065 34.8185 41.2065 34.7651V27.8994ZM42.2585 27.8979L42.8086 27.8994V34.7651C42.8086 34.8185 42.7648 34.8623 42.7114 34.8623H42.3541C42.3007 34.8623 42.257 34.8185 42.257 34.7651L42.2585 27.8979ZM44.765 32.0006V33.126H44.47V32.0006H44.765ZM45.3233 32.0006V33.126H45.0282V32.0006H45.3233ZM45.8815 32.0006V33.126H45.5864V32.0006H45.8815ZM46.4583 32.0006V33.126H46.1617V32.0006H46.4583ZM47.038 32.0006V33.126H46.7415V32.0006H47.038ZM47.6363 32.0006V33.126H47.3405V32.0006H47.6363ZM42.9442 31.4638C42.9479 31.3148 42.9983 31.2829 43.0799 31.2288C43.8887 30.6609 44.6827 30.0716 45.4775 29.4851C45.5805 29.4154 45.6554 29.3065 45.7748 29.3584C46.9128 29.8269 47.5644 30.3377 47.7987 30.5631C47.8365 30.6016 47.875 30.6632 47.9091 30.7262C47.9736 30.847 48.007 30.9834 48.0048 31.1213L48.0055 31.4757H44.1756C44.1756 31.4757 43.9806 34.3648 43.8783 34.6072C43.8361 34.7192 43.759 34.8623 43.6448 34.8623C43.5188 34.8586 43.2007 34.86 43.0399 34.8615C42.9865 34.8615 42.9427 34.8178 42.9427 34.7644L42.9442 31.4638ZM49.1257 30.4845C49.2473 30.5779 49.3785 30.6958 49.377 30.8604C49.3859 31.2407 49.3815 31.6225 49.3281 31.9998C49.2762 32.4009 49.2273 32.848 48.9293 33.1519C48.8581 33.2335 48.7758 33.2431 48.6765 33.2476L48.3503 33.2468L48.3495 33.2023C48.3436 32.6663 48.3458 32.1303 48.3443 31.5951C48.3421 31.3445 48.3703 31.0865 48.2917 30.8448C48.1872 30.5268 47.6156 29.6238 43.2534 28.1581C43.2482 28.1062 43.2437 28.0558 43.2393 28.0046C43.4624 27.9868 46.8067 28.6978 49.1257 30.4845ZM43.4995 27.6569H47.7653C48.007 27.6673 48.0923 27.6636 48.1671 27.7096C48.3599 27.8193 48.391 28.078 48.4518 28.27C48.5838 28.6785 48.7195 29.0855 48.864 29.4903C48.9278 29.7031 49.0308 29.907 49.0457 30.1323C48.8692 30.0604 48.7224 29.9396 48.5667 29.8343C48.2442 29.6067 47.9106 29.3954 47.5755 29.1878C46.8898 28.763 45.1364 28.2396 44.3928 28.0298C44.0919 27.9638 43.7916 27.8919 43.4958 27.8022C43.4424 27.7844 43.4157 27.6614 43.4995 27.6569ZM54.0313 28.8906C53.949 29.1293 53.6777 29.3569 53.5287 29.5563C53.161 30.0056 52.7488 30.4163 52.3336 30.8218C52.0534 31.0894 51.1029 31.753 50.8761 31.9183C50.8101 31.5484 50.7931 31.1932 50.8027 30.8174C50.8012 30.6987 50.9183 30.6328 50.9932 30.5579C51.2898 30.3244 51.5826 30.0842 51.8703 29.8402C52.0467 29.6949 52.2128 29.5259 52.4359 29.454C52.9349 29.2798 53.5265 29.0455 54.0313 28.8906ZM49.598 32.1133C49.6276 31.8264 49.6261 31.5372 49.664 31.2518C49.6855 31.0605 49.6514 30.8641 49.6951 30.6758C49.787 30.4978 49.9798 30.4111 50.1421 30.308C50.5973 30.0152 51.0392 29.7038 51.4966 29.4162C51.7279 29.2672 51.9451 29.0974 52.2135 29.007C52.5605 28.8906 53.5591 28.6185 54.1715 28.5214C54.17 28.554 54.1455 28.6259 54.1448 28.6592C53.5198 28.8668 52.9237 29.09 52.3062 29.3168C52.046 29.4088 51.8569 29.6201 51.6486 29.7921C51.3558 30.0619 51.0192 30.2799 50.7293 30.5527C50.6048 30.6639 50.6292 30.8418 50.6329 30.9916C50.6604 31.3356 50.6804 31.6811 50.667 32.0273C50.4817 32.1622 50.3045 32.3068 50.1221 32.4454C50.0087 32.541 49.8456 32.5492 49.7077 32.5092C49.5572 32.4328 49.592 32.2504 49.598 32.1133ZM50.0888 29.5259C50.2912 29.044 50.4602 28.5495 50.6559 28.0647C50.753 27.7852 50.9732 27.5724 51.3365 27.5724H54.9143C54.8461 27.7792 54.7364 27.9201 54.6059 28.0921C54.4658 28.273 54.2167 28.2693 54.015 28.3227C53.3611 28.4917 52.705 28.6466 52.0534 28.8216C51.742 28.9061 51.5063 29.1367 51.2364 29.299C50.9532 29.4703 50.6989 29.6838 50.4127 29.8491C50.2304 29.9537 50.0725 30.099 49.8775 30.179C49.8819 29.944 50.0102 29.7402 50.0888 29.5259ZM60.3055 21.6704L58.822 22.1767C58.527 23.1086 58.0073 24.9717 57.5232 26.0496C57.4854 26.1475 57.2889 26.0882 57.2889 26.0882C57.2889 26.0882 58.2171 23.7633 58.5329 22.1426L57.022 21.6311C56.919 22.0277 56.7195 23.334 56.1479 24.7975C56.1198 24.885 56.0619 24.9954 56.1339 25.0785C56.2984 25.3046 56.7025 25.8561 56.7025 25.8561L55.953 25.5322C55.953 25.5322 55.3717 26.8066 55.1523 27.175C55.116 27.2321 55.0589 27.3448 54.9595 27.3448L51.1667 27.3463C50.9992 27.3374 50.845 27.4212 50.7286 27.5346C50.4676 27.7733 50.4038 28.1366 50.2674 28.448C50.0087 29.0626 49.7863 29.6905 49.5416 30.3103C49.36 30.2428 49.2896 30.0441 49.2236 29.8795C48.996 29.1849 48.7499 28.4961 48.5334 27.7985C48.4607 27.5813 48.2494 27.4293 48.0204 27.436L42.535 27.4397C42.3749 27.4308 42.1013 27.5554 42.1013 27.7059V34.8015C42.1013 34.8348 42.0739 34.8623 42.0405 34.8623H42.0138H42.0005H41.9738C41.9404 34.8623 41.9137 34.8348 41.9137 34.8015V27.7059C41.9137 27.5554 41.6394 27.4308 41.48 27.4397L35.9939 27.436C35.7648 27.4293 35.5543 27.5813 35.4809 27.7985C35.2644 28.4961 35.0183 29.1849 34.7907 29.8795C34.7247 30.0441 34.655 30.2428 34.4726 30.3103C34.228 29.6905 34.0063 29.0626 33.7468 28.448C33.6104 28.1366 33.5467 27.7733 33.2857 27.5346C33.1693 27.4212 33.0151 27.3374 32.8476 27.3463L29.0547 27.3448C28.9554 27.3448 28.8983 27.2321 28.862 27.175C28.6425 26.8066 28.0613 25.5322 28.0613 25.5322L27.3118 25.8561C27.3118 25.8561 27.7158 25.3046 27.8804 25.0785C27.9523 24.9954 27.8945 24.885 27.8663 24.7975C27.2947 23.334 27.0953 22.0277 26.993 21.6311L25.4821 22.1426C25.7972 23.7633 26.7254 26.0882 26.7254 26.0882C26.7254 26.0882 26.5296 26.1475 26.4911 26.0496C26.0077 24.9717 25.4873 23.1086 25.1922 22.1767L23.708 21.6704C23.9801 24.1265 24.714 25.7613 24.8912 26.2024C25.3108 26.2461 26.2857 26.2876 26.2857 26.2876C25.9506 26.3973 25.4991 26.5857 25.1663 26.708C25.1129 26.7354 25.015 26.7406 25.0106 26.8192C25.0202 26.9007 25.0714 26.9689 25.1084 27.0401C25.2693 27.3092 25.3761 27.6058 25.5214 27.8823C25.8179 28.4954 26.1278 29.1026 26.4036 29.7261C26.4592 29.8343 26.5089 29.9759 26.6409 30.0093C26.8151 29.9781 26.9633 29.8736 27.1138 29.7869C27.297 29.6749 27.4927 29.5852 27.6647 29.4555C27.8211 29.5711 27.9212 29.7416 28.0376 29.8929C28.3853 30.3392 28.7048 30.8062 29.0518 31.2533C29.1363 31.3771 29.249 31.4883 29.2994 31.6314C29.1029 31.9309 28.8486 32.1896 28.664 32.498C28.5966 32.5937 28.6959 32.6871 28.7552 32.7553C28.9406 32.9436 29.1504 33.1067 29.3357 33.2958C29.808 33.7724 30.3314 34.1973 30.8021 34.6754C30.9156 34.7822 31.0208 34.9075 31.1676 34.969C31.2284 34.9868 31.2788 34.9327 31.3263 34.9053C31.6636 34.6295 31.9171 34.2692 32.2374 33.9763C32.7586 34.2929 33.239 34.671 33.7468 35.0105C33.8543 35.0802 33.9552 35.1595 34.0464 35.2492C33.9099 35.5072 33.8084 35.7823 33.6705 36.0395C33.6104 36.1493 33.5697 36.2768 33.6038 36.4021C33.7691 36.5303 33.9811 36.5748 34.1679 36.6645C34.7121 36.9092 35.2703 37.1175 35.8279 37.3303C36.1978 37.4948 36.5811 37.6253 36.9525 37.7877C37.0363 37.7247 37.1238 37.6572 37.1549 37.5534C37.2542 37.2806 37.381 37.0189 37.4774 36.7446C37.5182 36.6564 37.5426 36.5437 37.636 36.497C37.7673 36.5014 37.8948 36.5333 38.023 36.5548C38.3811 36.6274 38.7444 36.666 39.1032 36.7364C39.4769 36.8054 39.8483 36.8877 40.2271 36.9284C40.2701 37.1783 40.2123 37.4281 40.2027 37.678C40.1975 37.864 40.1382 38.0472 40.1619 38.234C40.2056 38.3422 40.3383 38.3445 40.4362 38.3474C40.9581 38.3422 41.4793 38.343 42.0005 38.3452H42.0071H42.0138C42.535 38.343 43.0569 38.3422 43.5781 38.3474C43.6767 38.3445 43.8087 38.3422 43.8524 38.234C43.8761 38.0472 43.8168 37.864 43.8116 37.678C43.802 37.4281 43.7442 37.1783 43.7872 36.9284C44.166 36.8877 44.5374 36.8054 44.9118 36.7364C45.2699 36.666 45.6332 36.6274 45.992 36.5548C46.1195 36.5333 46.247 36.5014 46.3782 36.497C46.4716 36.5437 46.4961 36.6564 46.5369 36.7446C46.6333 37.0189 46.76 37.2806 46.8594 37.5534C46.8905 37.6572 46.9787 37.7247 47.0618 37.7877C47.4332 37.6253 47.8172 37.4948 48.1872 37.3303C48.7439 37.1175 49.3022 36.9092 49.8463 36.6645C50.0332 36.5748 50.2452 36.5303 50.4113 36.4021C50.4446 36.2768 50.4038 36.1493 50.3438 36.0395C50.2059 35.7823 50.1043 35.5072 49.9679 35.2492C50.0591 35.1595 50.1607 35.0802 50.2674 35.0105C50.7745 34.671 51.2557 34.2929 51.7769 33.9763C52.0971 34.2692 52.3507 34.6295 52.688 34.9053C52.7354 34.9327 52.7866 34.9868 52.8474 34.969C52.9934 34.9075 53.0994 34.7822 53.2121 34.6754C53.6836 34.1973 54.2063 33.7724 54.6786 33.2958C54.8639 33.1067 55.0744 32.9436 55.2598 32.7553C55.3184 32.6871 55.4177 32.5937 55.351 32.498C55.1664 32.1896 54.9113 31.9309 54.7149 31.6314C54.766 31.4883 54.878 31.3771 54.9625 31.2533C55.3095 30.8062 55.6297 30.3392 55.9759 29.8929C56.0938 29.7416 56.1932 29.5711 56.3496 29.4555C56.5216 29.5852 56.7173 29.6749 56.9004 29.7869C57.0517 29.8736 57.1992 29.9781 57.3734 30.0093C57.5054 29.9759 57.5551 29.8343 57.6107 29.7261C57.8872 29.1026 58.1963 28.4954 58.4929 27.8823C58.6382 27.6058 58.7449 27.3092 58.9066 27.0401C58.9429 26.9689 58.994 26.9007 59.0037 26.8192C58.9992 26.7406 58.9021 26.7354 58.848 26.708C58.5151 26.5857 58.0636 26.3973 57.7293 26.2876C57.7293 26.2876 58.7034 26.2461 59.123 26.2024C59.3002 25.7613 60.0342 24.1265 60.3055 21.6704Z" fill="white"/>
<path fill-rule="evenodd" clip-rule="evenodd" d="M29.7021 8.31878C30.2619 8.43888 30.8135 8.59679 31.3747 8.70429C31.755 8.43962 32.079 8.10082 32.4526 7.82503C32.7632 7.55072 33.1347 7.35129 33.4297 7.0592C33.4297 7.0592 33.148 6.37936 32.9901 6.04723C32.9612 5.96791 32.8782 5.94048 32.804 5.91972C32.2154 5.76032 31.6156 5.63948 31.0292 5.47119C31.1856 5.83075 31.7038 6.77229 31.7038 6.77229C30.849 7.37428 30.0765 7.99851 29.7021 8.31878Z" fill="white"/>
<path fill-rule="evenodd" clip-rule="evenodd" d="M31.3705 6.65453L30.7996 5.52246C30.6314 5.54618 29.4214 6.53072 28.8906 7.10528L29.5245 8.09129L31.3705 6.65453Z" fill="white"/>
<path fill-rule="evenodd" clip-rule="evenodd" d="M29.1749 8.38772L28.5848 7.37354C27.1717 8.70355 26.5371 9.85414 26.5371 9.85414C26.7299 10.1937 26.956 10.6014 27.1413 10.9454C27.9857 9.66584 29.0948 8.50412 29.1749 8.38772Z" fill="white"/>
<path fill-rule="evenodd" clip-rule="evenodd" d="M31.0442 9.06532C30.7062 8.96894 29.5852 8.6724 29.3843 8.64941C29.3843 8.64941 28.2611 9.79705 27.4189 11.1189C27.4189 11.1189 29.2531 11.2583 29.2249 11.2575C30.0804 10.0921 30.9071 9.2299 31.0442 9.06532Z" fill="white"/>
<path fill-rule="evenodd" clip-rule="evenodd" d="M26.9919 11.3318C26.8102 10.9655 26.5574 10.5096 26.3884 10.1382C26.3713 10.1374 25.2408 11.8722 24.7114 13.3379L25.753 14.255C26.2053 12.7389 26.9919 11.3318 26.9919 11.3318Z" fill="white"/>
<path fill-rule="evenodd" clip-rule="evenodd" d="M29.0835 11.5745C28.6542 11.5553 27.2493 11.4463 27.2493 11.4463C26.7304 12.2855 26.164 13.8691 26.0098 14.3391L27.6904 14.4162C28.162 12.9683 28.9426 11.8303 29.0835 11.5745Z" fill="white"/>
<path fill-rule="evenodd" clip-rule="evenodd" d="M25.6123 14.7443L24.5159 13.7783C24.1622 14.9059 23.9673 15.9387 23.7471 17.0982L25.1001 18.0397L25.6123 14.7443Z" fill="white"/>
<path fill-rule="evenodd" clip-rule="evenodd" d="M25.8901 14.8314C25.6129 16.1191 25.3964 17.7101 25.3853 18.0393L26.9117 17.6345C27.0526 16.1021 27.3158 15.314 27.5189 14.8321C26.9762 14.8292 26.4321 14.8299 25.8901 14.8314Z" fill="white"/>
<path fill-rule="evenodd" clip-rule="evenodd" d="M25.0064 18.5226L23.6801 17.5774C23.5073 19.5954 23.6304 21.0129 23.6304 21.0129L25.0308 21.54C24.9604 20.5518 24.9026 19.5086 25.0064 18.5226Z" fill="white"/>
<path fill-rule="evenodd" clip-rule="evenodd" d="M26.8222 18.2295L25.2839 18.6276C25.2594 19.1095 25.2009 20.4358 25.3217 21.5004L26.9164 21.0852C26.7251 19.5951 26.8334 18.4356 26.8222 18.2295Z" fill="white"/>
<path fill-rule="evenodd" clip-rule="evenodd" d="M46.7369 21.8044C46.5353 21.8971 46.3833 22.0632 46.2313 22.2189C46.1661 22.296 46.0778 22.3842 46.1082 22.4947C46.2009 23.0477 46.2513 23.6112 46.4122 24.1509C46.4285 24.2339 46.4945 24.2828 46.5708 24.3103C46.7895 23.8729 46.8162 23.3643 46.7799 22.8839C46.7221 22.5258 46.7725 22.1633 46.7369 21.8044Z" fill="white"/>
<path fill-rule="evenodd" clip-rule="evenodd" d="M40.1356 22.219C39.9384 22.2813 39.7582 22.3821 39.584 22.4896C39.5877 22.9515 39.5743 23.4141 39.6285 23.873C39.6559 24.1095 39.8828 24.3089 40.1237 24.2882C40.5129 24.283 40.9036 24.3015 41.2928 24.2778C41.5449 24.2533 41.7021 24.0398 41.8896 23.9012C42.0386 24.0361 42.1528 24.2429 42.3663 24.2807C42.6532 24.297 42.975 24.3415 43.2159 24.1466C43.3005 24.2051 43.3783 24.2919 43.488 24.2933C43.6259 24.3111 43.7468 24.234 43.8661 24.1784C43.964 24.2318 44.0618 24.3059 44.1797 24.2948C44.308 24.2963 44.4095 24.2073 44.5126 24.1443C44.6067 24.2111 44.7024 24.2926 44.824 24.2904C45.0123 24.2971 45.2021 24.2971 45.3889 24.2726C45.6446 24.2259 45.7877 23.9642 45.8322 23.7292C45.89 23.337 45.8344 22.8959 45.5572 22.5934C45.42 22.7335 45.2754 22.8759 45.1902 23.056C45.271 23.2502 45.5713 23.3548 45.4801 23.6016C45.2569 23.6365 45.0219 23.6587 44.8025 23.5935C44.6297 23.5053 44.6297 23.2695 44.4814 23.1553C44.3235 23.2406 44.3932 23.5334 44.1767 23.5468C43.9744 23.5772 43.981 23.317 43.9017 23.1939C43.878 23.1954 43.8313 23.1983 43.8075 23.1998C43.7393 23.3007 43.7171 23.423 43.6541 23.526C43.6178 23.5801 43.5399 23.6098 43.4799 23.5787C43.3071 23.5016 43.3612 23.2317 43.17 23.1783C43.0906 23.3184 43.0617 23.5127 42.9075 23.592C42.6443 23.6795 42.3337 23.6128 42.1358 23.4141C41.8963 23.182 41.6324 22.9656 41.4604 22.6742C41.725 22.586 41.9994 22.5319 42.2581 22.4295C42.2966 22.2464 42.3256 22.0611 42.3426 21.8743C41.9386 21.9603 41.5456 22.09 41.1446 22.1901C41.0593 22.2212 40.9525 22.2309 40.8932 22.3072C40.8436 22.4822 40.8362 22.666 40.7998 22.8432C40.9918 23.0716 41.2484 23.2517 41.384 23.5245C41.1208 23.6906 40.8028 23.5957 40.5129 23.6231C40.3861 23.6217 40.1771 23.6409 40.1445 23.4786C40.1178 23.0597 40.1556 22.6386 40.1356 22.219Z" fill="white"/>
<path fill-rule="evenodd" clip-rule="evenodd" d="M42.2767 21.7505C42.3442 21.7364 42.3865 21.683 42.4243 21.6304C42.0558 21.6786 41.7059 21.8172 41.3463 21.9062C41.2032 21.9566 41.0216 21.9566 40.9312 22.0989C41.0698 22.0922 41.2062 22.0626 41.3374 22.0196C41.6481 21.921 41.9654 21.8446 42.2767 21.7505Z" fill="white"/>
<path fill-rule="evenodd" clip-rule="evenodd" d="M47.5167 23.5917C47.3262 23.5679 47.3543 23.2677 47.1475 23.2818C47.0882 23.5138 47.043 23.7622 47.1082 23.9979C47.1653 24.1581 47.3232 24.2922 47.4997 24.2878C47.6687 24.293 47.8392 24.2952 48.0075 24.2811C48.2988 24.2492 48.5353 23.9883 48.5591 23.6999C48.5709 23.473 48.5887 23.2306 48.4805 23.0223C48.3752 22.8221 48.2203 22.6516 48.0572 22.4967C47.9845 22.4218 47.8844 22.3877 47.7843 22.3691C47.6857 22.5552 47.5923 22.7458 47.4804 22.9259C47.7399 23.1379 48.0572 23.2751 48.2818 23.5286C48.0535 23.6688 47.7688 23.6361 47.5167 23.5917Z" fill="white"/>
<path fill-rule="evenodd" clip-rule="evenodd" d="M38.2079 23.386C38.3072 23.4728 38.1997 23.6136 38.0908 23.6092C37.9744 23.6262 37.9113 23.5091 37.838 23.4424C37.9143 23.3141 38.1056 23.2533 38.2079 23.386ZM38.5356 23.5536C38.6586 23.6003 38.7528 23.6922 38.8329 23.7938C38.7899 23.8294 38.7469 23.8627 38.7002 23.8946C38.6112 23.8783 38.5267 23.8442 38.4407 23.8153C38.4703 23.7271 38.5022 23.6396 38.5356 23.5536ZM36.6718 24.0933C36.8668 24.1348 37.0284 24.2838 37.2345 24.2868C37.4072 24.2942 37.5807 24.2935 37.7549 24.2831C37.9099 24.2742 38.0463 24.1926 38.1834 24.1267C38.308 24.1919 38.4288 24.2809 38.5734 24.2898C38.6764 24.292 38.8032 24.3127 38.8781 24.223C39.1057 23.9947 39.1813 23.6003 38.9967 23.323C38.8017 23.0213 38.4763 22.8404 38.1656 22.678C38.0774 22.6358 37.9914 22.5772 37.8921 22.5728C37.7497 22.7588 37.6949 22.9901 37.637 23.2126C37.5926 23.3416 37.5525 23.4743 37.5392 23.6121C37.2122 23.6388 36.8838 23.6299 36.5561 23.6388C36.3182 23.65 36.0698 23.7048 35.8807 23.8583C35.7829 23.9361 35.6947 24.0451 35.6887 24.1748C35.6828 24.2964 35.7873 24.4054 35.9067 24.4113C36.1284 24.4277 36.3508 24.4054 36.5724 24.4314C36.5724 24.4662 36.5739 24.5359 36.5739 24.5715C36.264 24.6078 35.9519 24.5952 35.6405 24.5952C35.3825 24.6041 35.0919 24.5522 34.9288 24.332C34.7843 24.1548 34.8577 23.9176 34.8406 23.71C34.765 23.6455 34.6938 23.7337 34.6427 23.7864C34.5203 23.9458 34.4907 24.1548 34.4633 24.3483C34.4247 24.6338 34.5307 24.9592 34.7909 25.1075C35.0734 25.2728 35.4122 25.2365 35.7251 25.238C36.0527 25.238 36.4101 25.2068 36.6762 24.9963C36.8734 24.8354 36.9602 24.4692 36.7207 24.3068C36.485 24.1852 36.2062 24.2697 35.9534 24.2171C35.9541 24.1889 35.9549 24.1318 35.9564 24.1037C36.1906 24.054 36.436 24.0444 36.6718 24.0933Z" fill="white"/>
<path fill-rule="evenodd" clip-rule="evenodd" d="M49.7193 4.15984L49.4766 3.91632L49.7342 3.65942L49.977 3.90221L49.7193 4.15984Z" fill="white"/>
<path fill-rule="evenodd" clip-rule="evenodd" d="M38.6947 5.80249L38.3599 5.72378L38.4438 5.36963L38.7779 5.44833L38.6947 5.80249Z" fill="white"/>
<path fill-rule="evenodd" clip-rule="evenodd" d="M48.6174 6.63477L48.375 6.3916L48.2008 6.56582L48.0273 6.3916L47.77 6.64886L48.0132 6.89202L48.1867 6.7178L48.3601 6.89202L48.6174 6.63477Z" fill="white"/>
<path fill-rule="evenodd" clip-rule="evenodd" d="M47.2809 6.43822L47.1495 6.12045L46.9223 6.21474L46.828 5.98755L46.4917 6.12639L46.6231 6.44416L46.8503 6.34987L46.9446 6.57707L47.2809 6.43822Z" fill="white"/>
<path fill-rule="evenodd" clip-rule="evenodd" d="M44.972 5.83325L44.7763 5.55153L44.5746 5.69165L44.4338 5.48926L44.1357 5.69684L44.3315 5.97856L44.5331 5.83844L44.6732 6.04083L44.972 5.83325Z" fill="white"/>
<path fill-rule="evenodd" clip-rule="evenodd" d="M40.1046 1.23311L39.7779 1.12842L39.7022 1.36229L39.4683 1.28731L39.3569 1.63478L39.6851 1.73947L39.7593 1.50485L39.994 1.57984L40.1046 1.23311Z" fill="white"/>
<path fill-rule="evenodd" clip-rule="evenodd" d="M33.3897 5.8642L33.3288 5.52564L33.0867 5.56945L33.0429 5.32666L32.6851 5.39125L32.7459 5.72908L32.988 5.68601L33.031 5.92806L33.3897 5.8642Z" fill="white"/>
</svg>
