<svg width="141" height="141" viewBox="0 0 141 141" fill="none" xmlns="http://www.w3.org/2000/svg">
<path d="M85.5951 90.8119C85.9679 90.8119 86.2554 90.6915 86.4576 90.4507C86.6166 90.2451 86.696 90.0088 86.696 89.7416C86.696 89.5742 86.6325 89.3466 86.5053 89.0589C86.4533 88.9502 86.3175 88.6947 86.0979 88.2925L85.5647 88.6801L85.9418 89.376C86.0141 89.4993 86.0502 89.608 86.0502 89.7019C86.0502 89.9368 85.8942 90.0543 85.5821 90.0543H84.9016V90.8119H85.5951ZM86.6917 92.2301V91.5606H86.0242V92.2301H86.6917ZM85.7901 92.2301V91.5606H85.1183V92.2301H85.7901ZM86.2366 93.0978V92.4283H85.5647V93.0978H86.2366ZM83.0854 87.09V86.4117H82.4179V87.09H83.0854ZM83.5319 87.9489V87.2794H82.8687V87.9489H83.5319ZM82.626 87.9489V87.2794H81.9585V87.9489H82.626ZM80.6408 93.133C82.1232 92.349 83.0854 91.6223 83.5275 90.9528C83.6691 90.7443 83.7544 90.5535 83.7833 90.3802C84.0202 90.668 84.3294 90.8119 84.7109 90.8119H85.0923V90.0543H84.7455C84.2919 90.0543 83.9422 89.8091 83.6966 89.3187L83.1981 88.3585L82.626 88.7285L83.0464 89.5125C83.1418 89.6828 83.1895 89.8443 83.1895 89.997C83.1895 90.1526 83.1302 90.323 83.0118 90.5079C82.5956 91.1187 81.697 91.7955 80.3157 92.5384L80.6408 93.133ZM77.2079 92.8467C79.2798 91.8308 80.3157 90.8119 80.3157 89.79C80.3157 89.1939 80.1496 88.7344 79.8172 88.4114C79.5543 88.153 79.2711 88.0238 78.9677 88.0238C78.6932 88.0238 78.457 88.1222 78.259 88.3189C78.0611 88.5156 77.9621 88.7505 77.9621 89.0236C77.9621 89.3995 78.0632 89.6894 78.2655 89.8935C78.4678 90.0976 78.751 90.1996 79.1151 90.1996H79.6179C79.4069 90.6107 78.9576 91.0424 78.2698 91.4946C77.8191 91.7911 77.3553 92.0525 76.8785 92.2786L77.2079 92.8467ZM79.6655 89.4597H79.0024C78.6758 89.4597 78.5126 89.3261 78.5126 89.0589C78.5126 88.9531 78.5646 88.8651 78.6686 88.7946C78.7611 88.7241 78.8608 88.6889 78.9677 88.6889C79.0948 88.6889 79.235 88.7579 79.3881 88.8959C79.5644 89.0545 79.6569 89.2424 79.6655 89.4597ZM75.5218 91.2215C75.7761 91.2215 75.9935 91.1334 76.1741 90.9572C76.3547 90.781 76.445 90.5681 76.445 90.3185C76.445 89.79 76.0492 89.0647 75.2574 88.1427C74.8239 87.6553 74.4035 87.231 73.9961 86.8698L73.4846 87.297L73.879 87.6846C73.5698 87.7375 73.317 87.8931 73.1205 88.1515C72.9529 88.3747 72.8691 88.6023 72.8691 88.8342C72.8691 89.3217 73.0194 89.7239 73.3199 90.0411C73.2749 90.0479 73.1129 90.0521 72.8337 90.0536L72.284 90.0543V90.8119H72.7391C73.1667 90.8119 73.5453 90.7326 73.8747 90.574C74.051 90.6973 74.285 90.8251 74.5769 90.9572C74.9728 91.1334 75.2877 91.2215 75.5218 91.2215ZM74.0004 89.812C73.8299 89.7298 73.6934 89.5991 73.5908 89.42C73.4882 89.2409 73.4369 89.0545 73.4369 88.8607C73.4369 88.708 73.5005 88.5758 73.6276 88.4642C73.7548 88.3527 73.8964 88.2969 74.0524 88.2969C74.2229 88.2969 74.3732 88.3483 74.5032 88.451C74.6419 88.5655 74.7113 88.7021 74.7113 88.8607C74.7113 89.304 74.4743 89.6212 74.0004 89.812ZM75.5261 90.5828C75.269 90.5828 74.9309 90.4433 74.5119 90.1644C74.6535 90.091 74.7936 89.9618 74.9323 89.7768C75.0941 89.5507 75.1707 89.3231 75.162 89.0941C75.2979 89.2321 75.4423 89.4142 75.5955 89.6403C75.7746 89.9075 75.8642 90.1013 75.8642 90.2216C75.8642 90.4624 75.7515 90.5828 75.5261 90.5828ZM69.9433 86.8522V86.1827H69.2715V86.8522H69.9433ZM70.3811 87.7155V87.0416H69.718V87.7155H70.3811ZM69.4882 87.7155V87.0416H68.8164V87.7155H69.4882ZM68.9421 90.8559C69.2513 90.8559 69.5056 90.6768 69.705 90.3185C69.8812 90.6738 70.15 90.8515 70.5112 90.8515C70.8521 90.8515 71.1223 90.6724 71.3217 90.3141C71.3968 90.4668 71.5269 90.5887 71.7118 90.6797C71.8852 90.7678 72.0615 90.8119 72.2406 90.8119H72.479V90.0543H72.1366C71.7002 90.0543 71.4821 89.7709 71.4821 89.2042V88.4951H70.8796V89.6447C70.8796 89.9442 70.7669 90.0939 70.5415 90.0939C70.0821 90.0939 69.8523 89.6711 69.8523 88.8254V88.4995H69.2412V89.6447C69.2412 89.9442 69.1371 90.0939 68.9291 90.0939C68.4927 90.0939 68.2746 89.6711 68.2746 88.8254V88.4995H67.6634V89.6447C67.6634 89.9177 67.5175 90.0543 67.2256 90.0543H66.7965V90.8119H67.2603C67.636 90.8119 67.9076 90.6474 68.0752 90.3185C68.2544 90.6768 68.5433 90.8559 68.9421 90.8559ZM64.3476 90.8119C64.9544 90.8119 65.3474 90.6107 65.5265 90.2084C65.6421 90.3817 65.8126 90.5256 66.038 90.6401C66.2634 90.7546 66.4816 90.8119 66.6925 90.8119H66.9872V90.0543H66.7922C66.509 90.0543 66.2807 90.0044 66.1073 89.9045C65.8646 89.7606 65.6306 89.467 65.4052 89.0236L64.6856 87.623C64.6105 87.4703 64.5729 87.3572 64.5729 87.2838C64.5729 87.1899 64.664 87.1165 64.846 87.0636L67.1216 86.3985L66.8876 85.8215L64.599 86.513C64.1511 86.6422 63.9271 86.8948 63.9271 87.2706C63.9271 87.4204 63.9734 87.5819 64.0658 87.7551L64.8027 89.2042C64.9096 89.4186 64.9631 89.5874 64.9631 89.7107C64.9631 89.9398 64.768 90.0543 64.3779 90.0543H63.7451V90.8119H64.3476ZM61.3741 90.8119C61.9694 90.8119 62.3364 90.6151 62.4751 90.2216C62.7785 90.6151 63.1874 90.8119 63.7017 90.8119H63.9358V90.0543H63.7581C63.4084 90.0543 63.1267 89.9706 62.9128 89.8032C62.7279 89.6681 62.5502 89.4303 62.3797 89.0897L61.4175 87.1737L60.8496 87.5393L61.8119 89.4332C61.8812 89.5624 61.9159 89.6667 61.9159 89.746C61.9159 89.9515 61.7397 90.0543 61.3871 90.0543H59.9351C59.7039 90.0543 59.4785 89.928 59.2589 89.6755L58.8515 90.1159C58.9555 90.345 59.1332 90.5212 59.3846 90.6445C59.6187 90.7561 59.8643 90.8119 60.1215 90.8119H61.3741ZM56.7146 90.8119C57.0989 90.8119 57.4225 90.7311 57.6855 90.5696C58.0178 90.3523 58.184 90.0425 58.184 89.6403C58.184 89.2321 57.9369 88.8401 57.4428 88.4642C56.9891 88.1207 56.5701 87.9489 56.1858 87.9489C55.8737 87.9489 55.6223 88.0943 55.4316 88.385C55.2726 88.6375 55.1932 88.9311 55.1932 89.2659C55.1932 90.2965 55.7003 90.8119 56.7146 90.8119ZM56.6799 90.0543C56.4198 90.0543 56.2147 89.9956 56.0644 89.8781C55.8881 89.743 55.8 89.5507 55.8 89.3011C55.8 89.1367 55.8318 88.984 55.8954 88.843C55.9763 88.6727 56.0875 88.5876 56.2291 88.5876C56.4083 88.5876 56.6727 88.7021 57.0223 88.9311C57.3951 89.1895 57.5815 89.4171 57.5815 89.6138C57.5815 89.9075 57.2809 90.0543 56.6799 90.0543ZM110.011 96.6387V95.9692H109.344V96.6387H110.011ZM109.708 100.691C110.147 100.691 110.484 100.553 110.718 100.277C110.943 100.01 111.056 99.6528 111.056 99.2065C111.056 98.7191 110.934 98.2948 110.692 97.9336C110.423 97.5254 110.059 97.3214 109.599 97.3214C109.351 97.3214 109.138 97.4374 108.962 97.6693C108.797 97.8866 108.718 98.1303 108.724 98.4005C108.73 98.7205 108.833 98.9709 109.034 99.1514C109.235 99.332 109.497 99.4223 109.82 99.4223H110.423C110.38 99.7629 110.158 99.9333 109.76 99.9333H108.23V100.691H109.708ZM110.406 98.7264H109.742C109.401 98.7264 109.231 98.6192 109.231 98.4049C109.231 98.2845 109.268 98.1825 109.344 98.0988C109.419 98.0151 109.516 97.9732 109.634 97.9732C109.937 97.9732 110.195 98.2243 110.406 98.7264ZM107.02 97.7706V97.1011H106.353V97.7706H107.02ZM106.388 100.691C106.778 100.691 107.068 100.528 107.259 100.202C107.452 100.528 107.763 100.691 108.191 100.691H108.42V99.9333H108.238C107.941 99.9333 107.741 99.8804 107.64 99.7747C107.504 99.6484 107.436 99.4032 107.436 99.0391V98.3388H106.791V99.2461C106.791 99.5163 106.767 99.691 106.721 99.7703C106.655 99.8789 106.489 99.9333 106.223 99.9333H105.924V100.691H106.388ZM106.114 100.691V99.9333H105.642C105.376 99.9333 105.193 99.854 105.092 99.6954C105.005 99.5721 104.961 99.368 104.961 99.0832V95.7401H104.264V99.1404C104.264 100.174 104.684 100.691 105.525 100.691H106.114ZM100.25 102.726C102.322 101.71 103.358 100.691 103.358 99.669C103.358 99.0729 103.192 98.6134 102.859 98.2904C102.596 98.032 102.313 97.9028 102.01 97.9028C101.735 97.9028 101.499 98.0011 101.301 98.1979C101.103 98.3946 101.004 98.6295 101.004 98.9026C101.004 99.2784 101.105 99.5684 101.308 99.7725C101.51 99.9766 101.793 100.079 102.157 100.079H102.66C102.449 100.49 102 100.921 101.312 101.374C100.861 101.67 100.397 101.931 99.9205 102.158L100.25 102.726ZM102.708 99.3386H102.044C101.718 99.3386 101.555 99.205 101.555 98.9378C101.555 98.8321 101.607 98.744 101.711 98.6736C101.803 98.6031 101.903 98.5678 102.01 98.5678C102.137 98.5678 102.277 98.6369 102.43 98.7749C102.606 98.9334 102.699 99.1214 102.708 99.3386ZM96.2795 103.012C97.7561 102.231 98.7184 101.503 99.1663 100.827C99.383 100.498 99.4914 100.173 99.4914 99.8496C99.4914 99.6235 99.4394 99.4062 99.3353 99.1977L98.8369 98.2419L98.2647 98.6031L98.6852 99.3827C98.7805 99.5559 98.8282 99.7189 98.8282 99.8716C98.8282 100.03 98.769 100.2 98.6505 100.383C98.2286 100.999 97.3299 101.676 95.9545 102.413L96.2795 103.012ZM92.8553 102.867C93.6557 102.867 94.3709 102.616 95.0009 102.113C95.5615 101.676 95.8418 101.268 95.8418 100.889C95.8418 100.437 95.6149 100.192 95.1612 100.153L94.0039 100.074C93.8595 100.062 93.7872 99.9949 93.7872 99.8716C93.7872 99.7982 93.819 99.7233 93.8826 99.647C94.264 99.1948 94.6469 98.9687 95.0312 98.9687C95.2393 98.9687 95.456 99.0274 95.6814 99.1448L95.9545 98.6031C95.6568 98.4064 95.3245 98.308 94.9575 98.308C94.605 98.308 94.2149 98.4988 93.7872 98.8806C93.348 99.274 93.1284 99.6499 93.1284 100.008C93.1284 100.405 93.3697 100.657 93.8522 100.766C94.0169 100.807 94.4114 100.829 95.0356 100.832C95.1656 100.832 95.2306 100.87 95.2306 100.946C95.2306 101.005 95.206 101.071 95.1569 101.144C94.9286 101.491 94.5645 101.751 94.0646 101.924C93.6774 102.071 93.2873 102.144 92.8943 102.144C91.7905 102.144 91.2386 101.66 91.2386 100.691C91.2386 100.491 91.2834 100.231 91.3729 99.9112L90.8571 99.735C90.7271 100.084 90.6621 100.475 90.6621 100.907C90.6621 101.55 90.8716 102.043 91.2906 102.387C91.6865 102.707 92.208 102.867 92.8553 102.867ZM88.3301 100.691V95.7401H87.6323V100.691H88.3301ZM85.1053 100.691C85.5301 100.691 85.8913 100.573 86.1889 100.338C86.5501 100.051 86.7307 99.6426 86.7307 99.114C86.7307 98.7675 86.5992 98.4739 86.3363 98.2331C86.0936 98.0041 85.7945 97.8896 85.4391 97.8896C85.0432 97.8896 84.6227 98.0466 84.1777 98.3608C83.857 98.5869 83.5695 98.8585 83.3152 99.1757V95.7534H82.73V99.277C82.73 99.4884 82.7083 99.6426 82.665 99.7395C82.5956 99.8687 82.4671 99.9333 82.2792 99.9333H81.8588V100.686L85.1053 100.691ZM85.166 99.9333H83.2415C84.0275 99.02 84.7542 98.5634 85.4217 98.5634C85.6067 98.5634 85.7627 98.6185 85.8898 98.7286C86.017 98.8387 86.0806 98.9833 86.0806 99.1625C86.0806 99.3533 86.0141 99.5222 85.8812 99.669C85.7136 99.8452 85.4752 99.9333 85.166 99.9333ZM82.0495 100.691V99.9333H81.7287C81.3907 99.9333 81.0916 99.8011 80.8315 99.5368C80.9789 99.3254 81.0526 99.001 81.0526 98.5634V95.7446H80.4111V98.3344C80.4111 98.8718 80.2897 99.2564 80.047 99.4884L78.3262 96.0352L77.7844 96.3964L79.5485 99.7879C79.4965 99.8231 79.183 99.854 78.6079 99.8804C78.3219 99.9009 77.9708 99.9186 77.5547 99.9333V100.462C77.754 100.614 78.1022 100.691 78.5993 100.691C79.4257 100.691 80.0643 100.459 80.5151 99.9949C80.6307 100.209 80.807 100.379 81.0439 100.504C81.2809 100.628 81.5178 100.691 81.7548 100.691H82.0495ZM76.8828 100.691V99.9333H75.4524C74.8167 99.9333 74.4989 99.6558 74.4989 99.1008C74.4989 98.9041 74.5899 98.744 74.7719 98.6207C74.9482 98.5179 75.136 98.4665 75.3354 98.4665C75.6562 98.4665 76.0203 98.5796 76.4277 98.8057L76.7311 98.3212C76.2168 97.9835 75.7111 97.8147 75.2141 97.8147C74.7719 97.8147 74.4151 97.9527 74.1434 98.2287C73.9007 98.4754 73.7793 98.7616 73.7793 99.0876C73.7793 99.4165 73.8458 99.6983 73.9787 99.9333H73.2852V100.691H76.8828ZM73.4759 100.691V99.9333H73.0035C72.7376 99.9333 72.5541 99.854 72.453 99.6954C72.3663 99.5721 72.323 99.368 72.323 99.0832V95.7401H71.6251V99.1404C71.6251 100.174 72.0456 100.691 72.8864 100.691H73.4759ZM68.1836 98.6119V97.9468H67.5204V98.6119H68.1836ZM67.282 98.6119V97.9468H66.6101V98.6119H67.282ZM69.6269 100.691C69.9361 100.691 70.1919 100.601 70.3941 100.422C70.6109 100.225 70.7192 99.9744 70.7192 99.669C70.7192 99.4781 70.6585 99.255 70.5372 98.9995L70.1601 98.2023L69.6096 98.5634L69.9433 99.2197C70.0243 99.3988 70.0647 99.5383 70.0647 99.6381C70.0647 99.8349 69.8986 99.9333 69.5662 99.9333H65.8559C65.4138 99.9333 65.1928 99.7027 65.1928 99.2417V99.0964H64.5686V99.4047C64.5686 99.7776 64.6799 100.085 64.9024 100.327C65.1249 100.57 65.4196 100.691 65.7866 100.691H69.6269ZM58.8905 102.726C60.9623 101.71 61.9983 100.691 61.9983 99.669C61.9983 99.0729 61.8321 98.6134 61.4998 98.2904C61.2369 98.032 60.9537 97.9028 60.6503 97.9028C60.3757 97.9028 60.1395 98.0011 59.9416 98.1979C59.7436 98.3946 59.6447 98.6295 59.6447 98.9026C59.6447 99.2784 59.7458 99.5684 59.9481 99.7725C60.1504 99.9766 60.4335 100.079 60.7976 100.079H61.3004C61.0895 100.49 60.6401 100.921 59.9524 101.374C59.5016 101.67 59.0378 101.931 58.561 102.158L58.8905 102.726ZM61.3481 99.3386H60.6849C60.3584 99.3386 60.1951 99.205 60.1951 98.9378C60.1951 98.8321 60.2472 98.744 60.3512 98.6736C60.4437 98.6031 60.5433 98.5678 60.6503 98.5678C60.7774 98.5678 60.9176 98.6369 61.0707 98.7749C61.247 98.9334 61.3394 99.1214 61.3481 99.3386ZM56.2291 100.691V95.7401H55.5313V100.691H56.2291ZM51.4135 103.012C52.8901 102.231 53.8524 101.503 54.3003 100.827C54.517 100.498 54.6254 100.173 54.6254 99.8496C54.6254 99.6235 54.5733 99.4062 54.4693 99.1977L53.9709 98.2419L53.3987 98.6031L53.8191 99.3827C53.9145 99.5559 53.9622 99.7189 53.9622 99.8716C53.9622 100.03 53.9029 100.2 53.7845 100.383C53.3626 100.999 52.4639 101.676 51.0884 102.413L51.4135 103.012ZM50.837 97.7927V97.11H50.1695V97.7927H50.837ZM49.9268 97.7927V97.11H49.2593V97.7927H49.9268ZM49.9832 100.691C50.3559 100.691 50.6434 100.57 50.8457 100.33C51.0046 100.124 51.0841 99.8877 51.0841 99.6205C51.0841 99.4532 51.0205 99.2256 50.8934 98.9378C50.8414 98.8292 50.7056 98.5737 50.4859 98.1714L49.9528 98.559L50.3299 99.255C50.4021 99.3783 50.4383 99.4869 50.4383 99.5809C50.4383 99.8158 50.2822 99.9333 49.9701 99.9333H49.2896V100.691H49.9832ZM47.4475 100.691C47.8376 100.691 48.128 100.528 48.3187 100.202C48.5123 100.528 48.823 100.691 49.2506 100.691H49.4804V99.9333H49.2983C49.0007 99.9333 48.8013 99.8804 48.7001 99.7747C48.5643 99.6484 48.4964 99.4032 48.4964 99.0391V98.3388H47.8506V99.2461C47.8506 99.5163 47.8275 99.691 47.7812 99.7703C47.7148 99.8789 47.5486 99.9333 47.2828 99.9333H46.9837V100.691H47.4475ZM48.3361 102.118V101.457H47.6772V102.118H48.3361ZM47.1744 100.691V99.9333H46.702C46.4361 99.9333 46.2526 99.854 46.1515 99.6954C46.0648 99.5721 46.0215 99.368 46.0215 99.0832V95.7401H45.3236V99.1404C45.3236 100.174 45.744 100.691 46.5849 100.691H47.1744ZM42.7966 100.691C43.2214 100.691 43.5826 100.573 43.8802 100.338C44.2414 100.051 44.422 99.6426 44.422 99.114C44.422 98.7675 44.2906 98.4739 44.0276 98.2331C43.7849 98.0041 43.4858 97.8896 43.1304 97.8896C42.7345 97.8896 42.314 98.0466 41.869 98.3608C41.5483 98.5869 41.2608 98.8585 41.0065 99.1757V95.7534H40.4213V99.277C40.4213 99.4884 40.3997 99.6426 40.3563 99.7395C40.287 99.8687 40.1584 99.9333 39.9705 99.9333H39.5501V100.686L42.7966 100.691ZM42.8573 99.9333H40.9328C41.7188 99.02 42.4455 98.5634 43.113 98.5634C43.298 98.5634 43.454 98.6185 43.5811 98.7286C43.7083 98.8387 43.7719 98.9833 43.7719 99.1625C43.7719 99.3533 43.7054 99.5222 43.5725 99.669C43.4049 99.8452 43.1665 99.9333 42.8573 99.9333ZM39.7408 100.691V99.9333H39.2684C39.0025 99.9333 38.819 99.854 38.7179 99.6954C38.6312 99.5721 38.5878 99.368 38.5878 99.0832V95.7401H37.89V99.1404C37.89 100.174 38.3104 100.691 39.1513 100.691H39.7408ZM34.4484 98.6119V97.9468H33.7853V98.6119H34.4484ZM33.5469 98.6119V97.9468H32.875V98.6119H33.5469ZM35.8918 100.691C36.201 100.691 36.4567 100.601 36.659 100.422C36.8757 100.225 36.9841 99.9744 36.9841 99.669C36.9841 99.4781 36.9234 99.255 36.8021 98.9995L36.425 98.2023L35.8745 98.5634L36.2082 99.2197C36.2891 99.3988 36.3296 99.5383 36.3296 99.6381C36.3296 99.8349 36.1634 99.9333 35.8311 99.9333H32.1208C31.6787 99.9333 31.4577 99.7027 31.4577 99.2417V99.0964H30.8335V99.4047C30.8335 99.7776 30.9447 100.085 31.1672 100.327C31.3898 100.57 31.6845 100.691 32.0515 100.691H35.8918Z" fill="white"/>
<path fill-rule="evenodd" clip-rule="evenodd" d="M74.5522 43.8506L75.9304 43.2168C76.0098 43.1827 76.015 43.1041 76.0416 43.0159C75.5857 43.222 75.1253 43.4214 74.6805 43.6512C74.5975 43.6838 74.5819 43.7773 74.5522 43.8506Z" fill="white"/>
<path fill-rule="evenodd" clip-rule="evenodd" d="M76.811 44.1935L78.3279 44.2017C78.4139 44.2032 78.4517 44.135 78.5132 44.066C78.0128 44.0601 77.5116 44.0468 77.0119 44.0668C76.9215 44.0616 76.8681 44.1394 76.811 44.1935Z" fill="white"/>
<mask id="mask0_6008_43066" style="mask-type:alpha" maskUnits="userSpaceOnUse" x="68" y="42" width="2" height="2">
<path d="M68.4751 42.3804H69.7851V43.4754H68.4751V42.3804Z" fill="white"/>
</mask>
<g mask="url(#mask0_6008_43066)">
<path fill-rule="evenodd" clip-rule="evenodd" d="M68.4751 43.4751L69.7132 42.5974C69.7843 42.5492 69.7747 42.4713 69.7851 42.3794C69.3744 42.6663 68.9592 42.948 68.5641 43.2549C68.4884 43.3031 68.4907 43.398 68.4751 43.4751Z" fill="white"/>
</g>
<path fill-rule="evenodd" clip-rule="evenodd" d="M66.5786 44.1609L67.6966 43.3691C67.7611 43.3253 67.7529 43.2549 67.7618 43.1719C67.3912 43.4306 67.016 43.6842 66.6594 43.9622C66.5912 44.0052 66.5934 44.0912 66.5786 44.1609Z" fill="white"/>
<path fill-rule="evenodd" clip-rule="evenodd" d="M62.6349 46.2952L63.3184 45.5079C63.3585 45.4634 63.3414 45.3974 63.3355 45.3188C63.1086 45.5761 62.8766 45.8289 62.6623 46.104C62.6193 46.147 62.6342 46.2285 62.6349 46.2952Z" fill="white"/>
<path fill-rule="evenodd" clip-rule="evenodd" d="M66.4834 48.4425L67.0759 47.8991C67.11 47.8694 67.1056 47.8115 67.1108 47.7446C66.914 47.9221 66.715 48.0943 66.5265 48.2881C66.4908 48.3171 66.4916 48.3869 66.4834 48.4425Z" fill="white"/>
<path fill-rule="evenodd" clip-rule="evenodd" d="M69.332 47.4982L70.7762 46.6464C70.86 46.5997 70.8563 46.5129 70.8756 46.4128C70.3974 46.6909 69.914 46.9622 69.4506 47.2647C69.3624 47.3099 69.3558 47.4144 69.332 47.4982Z" fill="white"/>
<path fill-rule="evenodd" clip-rule="evenodd" d="M72.6953 47.9498L73.8948 47.6792C73.963 47.6658 73.9801 47.6043 74.0164 47.5391C73.6198 47.6258 73.2224 47.7059 72.831 47.8134C72.7591 47.8252 72.7309 47.8964 72.6953 47.9498Z" fill="white"/>
<path fill-rule="evenodd" clip-rule="evenodd" d="M74.3157 43.6161C74.4159 43.6109 74.4939 43.5226 74.5971 43.5241C74.6751 43.5122 74.7887 43.5419 74.828 43.4506C74.9134 43.2739 74.8154 43.0726 74.6669 42.965C74.7263 43.1432 74.7619 43.2494 74.7382 43.3266C74.7233 43.3629 74.6691 43.3964 74.6186 43.3236C74.5733 43.2471 74.5281 43.1699 74.4813 43.0949C74.4694 43.1966 74.4627 43.2984 74.4553 43.4001C74.439 43.4558 74.3491 43.4595 74.3209 43.3993C74.2385 43.2471 74.2882 43.0348 74.1427 42.9182C74.1293 43.1046 74.1702 43.288 74.2147 43.4676C74.234 43.5241 74.2407 43.6065 74.3157 43.6161Z" fill="white"/>
<path fill-rule="evenodd" clip-rule="evenodd" d="M77.2404 45.3727C77.3355 45.4053 77.4416 45.3526 77.5352 45.3927C77.6131 45.4113 77.7067 45.4811 77.778 45.4105C77.9228 45.2784 77.9064 45.0549 77.8099 44.8997C77.798 45.0876 77.7913 45.1989 77.7408 45.2628C77.7134 45.2903 77.6503 45.3006 77.631 45.2153C77.6176 45.1269 77.6042 45.0386 77.5886 44.9517C77.5396 45.0415 77.4958 45.1329 77.4513 45.2249C77.4149 45.2702 77.3295 45.2398 77.3258 45.1737C77.3065 45.0014 77.4327 44.824 77.3407 44.6606C77.259 44.8284 77.2278 45.0141 77.2026 45.1974C77.1988 45.2576 77.1751 45.3363 77.2404 45.3727Z" fill="white"/>
<path fill-rule="evenodd" clip-rule="evenodd" d="M73.1482 44.2189C73.1662 44.1433 73.1988 44.1195 73.2822 44.1195C73.3639 44.1195 73.3982 44.1677 73.3982 44.2344C73.3982 44.333 73.1253 44.3064 73.1482 44.2189ZM73.0215 44.3345C73.0665 44.405 73.1662 44.4235 73.2381 44.4657C73.0607 44.6303 72.8246 44.7349 72.6587 44.9098C72.9986 44.8097 73.3067 44.6066 73.493 44.3271C73.5527 44.233 73.5551 44.1062 73.5012 44.0091C73.4497 43.9186 73.3214 43.883 73.2217 43.9297C73.0681 44.0016 72.9864 44.1774 73.0215 44.3345Z" fill="white"/>
<path fill-rule="evenodd" clip-rule="evenodd" d="M76.2433 43.6154C76.2804 43.5412 76.3152 43.5249 76.3879 43.5478C76.4591 43.5706 76.4746 43.6317 76.4561 43.7017C76.4287 43.806 76.1981 43.7009 76.2433 43.6154ZM76.101 43.7026C76.1203 43.7889 76.2011 43.8362 76.2522 43.9014C76.0513 44.0252 75.8178 44.07 75.6235 44.2085C75.9475 44.1971 76.273 44.0692 76.5132 43.8256C76.5918 43.7433 76.6296 43.6105 76.6088 43.4932C76.5895 43.3832 76.488 43.3099 76.3879 43.331C76.2344 43.3636 76.1136 43.5266 76.101 43.7026Z" fill="white"/>
<path fill-rule="evenodd" clip-rule="evenodd" d="M81.1366 46.1244C81.1841 46.053 81.2211 46.0415 81.2901 46.0812C81.3568 46.1191 81.3635 46.186 81.3346 46.2574C81.2916 46.364 81.0803 46.2072 81.1366 46.1244ZM80.9831 46.1896C80.9898 46.2865 81.0625 46.3526 81.1032 46.431C80.8868 46.5244 80.6495 46.527 80.4375 46.6372C80.7585 46.6883 81.0988 46.6143 81.3724 46.401C81.4606 46.3288 81.5192 46.194 81.5162 46.0645C81.5132 45.9437 81.4235 45.8459 81.322 45.8495C81.1663 45.8539 81.0224 46.0045 80.9831 46.1896Z" fill="white"/>
<path fill-rule="evenodd" clip-rule="evenodd" d="M65.5302 44.3843C65.5621 44.4488 65.5681 44.5275 65.5866 44.5996C65.6854 44.4771 65.773 44.2127 65.5911 44.1333C65.3795 44.1637 65.2414 44.3791 65.2711 44.5862C65.3639 44.457 65.4656 44.3026 65.5302 44.3843Z" fill="white"/>
<path fill-rule="evenodd" clip-rule="evenodd" d="M71.8471 43.1792C71.8783 43.2438 71.8842 43.3225 71.9035 43.3945C72.0023 43.272 72.0899 43.0077 71.908 42.9282C71.6964 42.9594 71.5583 43.174 71.588 43.3811C71.6808 43.2519 71.7825 43.0975 71.8471 43.1792Z" fill="white"/>
<path fill-rule="evenodd" clip-rule="evenodd" d="M80.354 46.9905C80.6454 47.0076 80.936 47.0157 81.2281 47.0157C81.3274 47.0231 81.4142 46.9683 81.4972 46.9208C81.2043 46.9053 80.9123 46.903 80.6194 46.8949C80.5201 46.8867 80.4333 46.9386 80.354 46.9905Z" fill="white"/>
<path fill-rule="evenodd" clip-rule="evenodd" d="M66.0638 44.5794C66.4856 45.0709 66.883 45.5854 67.2337 46.131C67.1514 45.6929 66.9327 45.2859 66.6398 44.9515C66.4849 44.7432 66.3648 44.5097 66.2002 44.3088C66.1505 44.2494 66.0742 44.2198 65.9978 44.2331H65.9971C66.0015 44.3495 65.9748 44.4859 66.0638 44.5794Z" fill="white"/>
<path fill-rule="evenodd" clip-rule="evenodd" d="M75.9009 47.5389C76.1018 47.4944 76.3027 47.4499 76.5073 47.4262C76.603 47.4239 76.6689 47.3535 76.7334 47.2927C76.4502 47.3179 76.0944 47.2875 75.9009 47.5389Z" fill="white"/>
<path fill-rule="evenodd" clip-rule="evenodd" d="M72.5654 43.9325C72.7841 43.8872 72.9865 43.7775 73.1548 43.6322C73.2675 43.5351 73.3565 43.3942 73.3498 43.2408C73.3298 43.0532 73.0747 42.9383 72.9257 43.0599C72.8887 43.097 72.8679 43.1422 72.859 43.1904C72.8316 43.3349 72.9799 43.4543 73.1163 43.4002C73.1622 43.3816 73.2067 43.3601 73.2512 43.3379C73.1185 43.6307 72.7923 43.7323 72.5654 43.9325Z" fill="white"/>
<path fill-rule="evenodd" clip-rule="evenodd" d="M75.487 44.8813C75.4396 44.9043 75.3929 44.9295 75.3424 44.9466C75.272 44.9243 75.2135 44.8776 75.1541 44.8361C75.2661 44.8391 75.378 44.8539 75.487 44.8813ZM73.8805 44.9614C73.942 45.2676 73.9101 45.5827 73.9576 45.8911C73.7797 45.9326 73.5869 45.9548 73.4386 46.072C73.3193 46.155 73.2399 46.2788 73.1332 46.3752C73.0813 46.3922 73.0479 46.3737 73.0331 46.3218C72.9278 46.0949 72.933 45.8355 72.8478 45.6019C72.8151 45.5196 72.7076 45.5033 72.6305 45.5152C72.4066 45.5597 72.2094 45.6894 72.0426 45.8407C71.8595 46.0038 71.6631 46.1698 71.5682 46.4011C71.5215 46.5472 71.5274 46.7066 71.4525 46.843C71.3621 47.0016 71.4251 47.181 71.4488 47.3479C71.4866 47.5584 71.474 47.7734 71.4836 47.9869C71.6934 47.7059 71.6749 47.3523 71.6453 47.0202C71.6386 46.9401 71.6831 46.8637 71.7579 46.8348C71.907 46.7777 72.0738 46.7911 72.2339 46.78C72.3577 46.7711 72.4622 46.6851 72.4941 46.565C72.4941 46.5642 72.4949 46.5635 72.4949 46.562C72.509 46.5079 72.4897 46.4486 72.4437 46.4167C72.2799 46.304 72.0968 46.2239 71.9062 46.1676C72.0604 46.0416 72.2243 45.9178 72.4155 45.8547C72.5171 45.8177 72.6594 45.854 72.701 45.9622C72.7521 46.0831 72.7677 46.2136 72.8033 46.3396C72.8529 46.539 72.9627 46.7169 73.0716 46.8889C73.2318 47.1084 73.4231 47.336 73.7018 47.3983C73.7389 47.293 73.773 47.187 73.8034 47.0802C73.6366 46.9557 73.4535 46.843 73.3296 46.6717C73.2963 46.6176 73.2266 46.5509 73.2911 46.4916C73.4282 46.3381 73.6351 46.2647 73.8345 46.2373C74.1199 46.201 74.3831 46.3426 74.6559 46.3967C74.6975 46.2729 74.7249 46.1461 74.7338 46.0156C74.564 45.9504 74.3809 45.9148 74.2208 45.8251C74.1044 45.7606 74.0903 45.6212 74.0769 45.5026C74.266 45.5337 74.4573 45.6049 74.6508 45.5597C74.8598 45.5189 75.037 45.3951 75.2246 45.3039C75.3069 45.252 75.3862 45.3291 75.4611 45.3603C75.656 45.4722 75.8829 45.5819 76.1135 45.5204C76.3722 45.4589 76.4686 45.1542 76.4545 44.9169C76.4575 44.7464 76.3559 44.6018 76.2432 44.484C76.1883 44.5766 76.1201 44.673 76.1246 44.785C76.1743 44.9303 76.2551 45.0637 76.2988 45.2112C76.0653 45.2854 75.8191 45.2335 75.6219 45.0956C75.7065 45.0415 75.7999 44.9977 75.874 44.928C75.9348 44.8346 75.9563 44.7227 75.9889 44.6174C75.6182 44.4691 75.1934 44.4714 74.819 44.607C74.6085 44.6878 74.5507 44.9273 74.5025 45.1223C74.6656 45.1097 74.8339 45.0941 74.9896 45.1586C74.7583 45.292 74.4536 45.3299 74.2215 45.1786C74.0755 45.0815 74.0428 44.8954 74.025 44.7338C73.9724 44.1874 73.9175 43.6351 73.7485 43.1102C73.707 43.1058 73.7018 43.1058 73.6595 43.1021C73.5261 43.3697 73.6937 43.641 73.7255 43.9101C73.7722 44.2615 73.813 44.6137 73.8805 44.9614Z" fill="white"/>
<path fill-rule="evenodd" clip-rule="evenodd" d="M70.069 45.3195C70.3293 45.4292 70.6288 45.5152 70.783 45.7724C70.6629 45.8829 70.5168 45.9986 70.3411 45.9711C70.1921 45.9637 70.1031 45.8362 70.0186 45.7309C69.9682 45.8755 69.9519 46.1394 69.7399 46.1164C69.5516 46.135 69.4982 45.9192 69.4352 45.785C69.3447 45.5152 69.218 45.2594 69.1297 44.9888C69.4545 45.0629 69.7658 45.1845 70.069 45.3195ZM69.0022 44.6626L68.9711 44.6559C68.8013 44.3846 68.7383 44.0384 68.4951 43.8182C68.4951 43.9205 68.4936 44.0295 68.547 44.1222C68.7739 44.5692 68.9585 45.0363 69.1579 45.4959C69.2854 45.7925 69.3692 46.1172 69.5746 46.3722C69.6442 46.4701 69.7747 46.4693 69.8785 46.4367C69.9786 46.3737 70.0305 46.2603 70.0972 46.1661C70.3004 46.2499 70.5532 46.3396 70.7489 46.1854C70.9216 46.0571 70.8727 45.8251 70.8727 45.6397C71.1144 45.705 71.3627 45.8095 71.617 45.7517C71.723 45.7198 71.829 45.6612 71.8987 45.5723C71.9833 45.2802 71.8646 44.9836 71.7468 44.7197C71.5814 44.3468 71.4561 43.9561 71.2745 43.5906C71.1566 43.6032 71.0995 43.7663 71.1336 43.8693C71.3093 44.3794 71.6163 44.8324 71.7823 45.3469C71.5755 45.4996 71.3005 45.4737 71.0721 45.3906C70.5339 45.1868 70.009 44.9525 69.4782 44.7293C69.7821 44.4743 70.0943 44.2259 70.4264 44.0095C70.6325 43.8671 70.8749 43.7789 71.0603 43.6091C71.1574 43.5076 71.0758 43.3682 71.0261 43.2651C70.5887 43.5654 70.1424 43.8508 69.7073 44.1533C69.4797 44.3327 69.261 44.5284 69.0022 44.6626Z" fill="white"/>
<path fill-rule="evenodd" clip-rule="evenodd" d="M63.5689 48.3332C63.6038 48.1137 63.6586 47.8921 63.7617 47.6934C63.8284 47.6289 63.861 47.7134 63.8892 47.7668C63.8959 47.9959 63.7558 48.2094 63.5689 48.3332ZM63.1968 46.4746C63.1871 46.7148 63.4029 46.869 63.6008 46.9535C63.9062 47.0884 64.1472 47.3249 64.3904 47.5459C64.5727 47.7193 64.7707 47.878 64.9271 48.0759C64.5268 48.0552 64.2221 47.7697 63.9159 47.5444C63.8173 47.4784 63.7609 47.3724 63.7061 47.2715C63.6497 47.2849 63.5875 47.322 63.5356 47.2797C63.3828 47.1944 63.2368 47.0988 63.0767 47.0284C63.1063 47.1151 63.1248 47.2108 63.1842 47.2834C63.3006 47.3761 63.4399 47.4324 63.5674 47.508C63.5118 47.706 63.4384 47.898 63.3873 48.0967C63.3317 48.2813 63.4251 48.4718 63.5422 48.6112C63.586 48.6801 63.6786 48.6601 63.735 48.6179C63.9722 48.4525 64.1064 48.1545 64.0597 47.8676C64.3718 48.0522 64.661 48.3124 65.0346 48.3599C65.3934 48.4184 65.7196 48.2249 66.0429 48.0989C66.0095 47.9877 65.9613 47.8817 65.9013 47.7823C65.6833 47.8683 65.455 47.9744 65.2155 47.9336C64.9442 47.8891 64.7395 47.6808 64.5913 47.4628C64.81 47.5177 65.022 47.6267 65.2533 47.6111C65.5091 47.5918 65.7478 47.4517 65.9079 47.2538C66.1022 47.0158 66.2905 46.7726 66.4788 46.5294C66.5722 46.4079 66.7116 46.3374 66.8384 46.2574C66.8094 46.1706 66.779 46.0831 66.7472 45.9964C66.4173 46.1491 66.0888 46.3107 65.7448 46.4308C65.7471 46.2618 65.7522 46.0891 65.7048 45.9252C65.5906 45.5723 65.3393 45.2921 65.1243 44.9985C65.0643 44.9199 64.9768 44.8688 64.8937 44.8176C64.9041 44.9296 64.9078 45.0504 64.979 45.1431C65.1666 45.4137 65.3919 45.6576 65.5662 45.9378C65.6233 46.029 65.6596 46.1506 65.5906 46.2462C65.4298 46.4798 65.1881 46.6429 64.9516 46.7926C64.9746 46.8942 65.0027 46.9935 65.0339 47.0929C65.3423 46.9765 65.6373 46.826 65.9487 46.7177C65.8012 46.9587 65.5943 47.1848 65.3148 47.2664C65.0012 47.3657 64.6765 47.2397 64.3889 47.1159C64.079 46.9676 63.7758 46.8 63.4955 46.6006C63.6987 46.4331 63.8766 46.2388 64.0478 46.0401C64.3162 45.7918 64.6002 45.5545 64.83 45.2676C64.9234 45.1587 64.7966 44.9718 64.6654 44.977C64.2769 45.3492 63.9255 45.7644 63.494 46.0906C63.3754 46.1988 63.1871 46.2878 63.1968 46.4746Z" fill="white"/>
<path fill-rule="evenodd" clip-rule="evenodd" d="M78.1876 45.2968C78.4189 45.6978 78.6695 46.1034 78.7637 46.5638C78.5902 46.6134 78.3759 46.5964 78.261 46.4414C78.2106 46.2939 78.2506 46.1323 78.2388 45.9788C78.0364 46.0322 77.8822 46.1783 77.7139 46.2932C77.5723 46.3873 77.4878 46.5378 77.3758 46.6616C77.3262 46.4711 77.358 46.2739 77.3373 46.0811C77.3121 45.8899 77.0867 45.7913 76.914 45.8417C76.4439 45.9373 76.1022 46.3221 75.8671 46.7172C75.9902 46.6564 76.1237 46.6549 76.2304 46.7476C76.0955 46.7721 75.9517 46.7617 75.8227 46.8136C75.6054 46.9819 75.6114 47.2755 75.5669 47.5209C75.5358 47.7551 75.4535 47.9768 75.4053 48.2066C75.6655 47.8708 75.7129 47.4401 75.8256 47.0442C76.0251 47.0345 76.2252 47.0427 76.4239 47.0368C76.5625 47.0464 76.6649 46.9248 76.7093 46.8062C76.6915 46.5786 76.4254 46.5163 76.2749 46.3925C76.4476 46.2909 76.627 46.1923 76.822 46.1419C76.997 46.0952 77.1816 46.2516 77.192 46.4259C77.2187 46.7002 77.1897 46.9945 77.3299 47.2429C77.4196 47.4067 77.6049 47.4705 77.768 47.5364C77.8206 47.4541 77.8651 47.3659 77.8948 47.2718C77.7487 47.1784 77.6056 47.0634 77.5382 46.8981C77.4989 46.8106 77.4826 46.6883 77.5626 46.6179C77.7124 46.4815 77.8859 46.3606 78.0868 46.3161C78.1053 46.4778 78.0223 46.7098 78.201 46.8047C78.3707 46.9218 78.6243 46.8952 78.7585 46.735C78.8689 46.6045 78.9861 46.4414 78.949 46.2591C78.9119 45.8988 78.6599 45.6207 78.5464 45.2871C79.2292 45.3034 79.8979 45.4643 80.5644 45.5955C80.7053 45.6193 80.7779 45.468 80.835 45.3665C80.1893 45.2204 79.5384 45.087 78.8786 45.0291C78.7132 45.0165 78.5427 44.9861 78.3796 45.0239C78.2751 45.0729 78.2121 45.1885 78.1876 45.2968Z" fill="white"/>
<path fill-rule="evenodd" clip-rule="evenodd" d="M75.2902 45.8685C75.4221 45.85 75.5489 45.887 75.6253 46.0019C75.5015 46.0034 75.3272 46.0242 75.2902 45.8685ZM74.2708 46.7566C73.9928 46.744 73.7407 46.6195 73.479 46.5431C73.6332 46.7322 73.8719 46.813 74.0884 46.9064C74.4672 47.0339 74.9135 47.0806 75.2724 46.8693C75.5734 46.7122 75.7817 46.4178 75.8773 46.0968C75.9648 45.8529 75.7409 45.5571 75.4837 45.5771C75.3257 45.6142 75.2383 45.7714 75.1656 45.9026C75.1159 46.0086 75.0611 46.1658 75.1664 46.2555C75.2902 46.3652 75.4681 46.3422 75.6208 46.363C75.2961 46.7544 74.7415 46.793 74.2708 46.7566Z" fill="white"/>
<path fill-rule="evenodd" clip-rule="evenodd" d="M68.1293 46.8027C67.7645 46.9895 67.3545 47.1555 66.9372 47.074C66.7844 47.0495 66.7222 46.8901 66.6221 46.7915C66.6666 46.9576 66.6925 47.1481 66.82 47.2727C67.058 47.4454 67.3768 47.421 67.6459 47.3461C68.041 47.2193 68.4199 47.0303 68.7402 46.7641C68.9084 46.6314 69.0782 46.4668 69.1242 46.2489C69.116 46.108 69.0426 45.9834 68.9796 45.8604C68.9121 45.7188 68.7468 45.6758 68.6149 45.615C68.6341 45.7047 68.6393 45.7996 68.6838 45.8811C68.7654 45.9746 68.8729 46.042 68.9663 46.1228C68.7231 46.3875 68.4599 46.6492 68.1293 46.8027Z" fill="white"/>
<path fill-rule="evenodd" clip-rule="evenodd" d="M78.6709 47.5118C78.2187 47.7839 77.6026 47.7068 77.2038 47.3695C77.0926 47.2627 77.0303 47.1137 76.9072 47.0173C76.9198 47.1107 76.9339 47.2064 76.9799 47.2909C77.2497 47.8128 77.9414 48.0849 78.4863 47.8454C78.6828 47.7594 78.7844 47.5622 78.9171 47.4065C79.0609 47.4533 79.2158 47.5222 79.3686 47.471C79.5569 47.4043 79.7111 47.2494 79.7852 47.064C79.8378 46.9269 79.783 46.7838 79.7378 46.6533C79.6681 46.7074 79.5939 46.7601 79.548 46.8364C79.4612 46.9513 79.5443 47.0952 79.5532 47.2219C79.4256 47.2279 79.2855 47.2442 79.1721 47.1701C79.0253 47.0974 78.9608 46.9402 78.8896 46.8031C78.8333 46.8794 78.7636 46.9491 78.7288 47.0388C78.7258 47.1967 78.8414 47.4028 78.6709 47.5118Z" fill="white"/>
<path fill-rule="evenodd" clip-rule="evenodd" d="M80.0784 47.4218C80.2193 47.4077 80.3386 47.4833 80.3535 47.6301C80.2304 47.6064 80.0851 47.5738 80.0784 47.4218ZM79.5254 48.4886C80.0087 48.4508 80.4877 48.112 80.6018 47.6257C80.647 47.4552 80.5781 47.2253 80.3876 47.1838C80.2 47.1675 80.0599 47.321 79.9539 47.4552C79.8871 47.5404 79.8041 47.6768 79.9086 47.768C80.0391 47.8555 80.2022 47.8733 80.3475 47.9296C80.1666 48.1609 79.8523 48.2477 79.5698 48.2262C79.231 48.1876 78.9211 48.0312 78.6172 47.8866C78.8529 48.1609 79.1198 48.5212 79.5254 48.4886Z" fill="white"/>
<path fill-rule="evenodd" clip-rule="evenodd" d="M79.7459 60.0494C79.6659 59.9834 79.5962 59.8759 79.4879 59.8625C79.2551 60.0516 79.0683 60.2911 78.8556 60.5023C78.7992 60.572 78.6717 60.6684 78.7762 60.7552C79.0031 61.0117 79.2796 61.2185 79.5206 61.4609C79.7504 61.2348 79.9735 61.0013 80.1937 60.7648C80.2389 60.7107 80.3042 60.6536 80.2805 60.575C80.127 60.3763 79.9164 60.2325 79.7459 60.0494Z" fill="white"/>
<path fill-rule="evenodd" clip-rule="evenodd" d="M75.2058 64.0842C75.1828 64.0657 75.1627 64.0345 75.1323 64.0308C75.0662 64.0842 75.012 64.1533 74.9519 64.2134C74.9363 64.2335 74.8992 64.2609 74.9296 64.2854C74.9942 64.3589 75.0729 64.4176 75.142 64.4866C75.2073 64.422 75.2704 64.356 75.3335 64.2884C75.3461 64.2728 75.3654 64.2565 75.358 64.2342C75.3142 64.177 75.2541 64.1362 75.2058 64.0842Z" fill="white"/>
<path fill-rule="evenodd" clip-rule="evenodd" d="M73.5942 64.3288C73.5719 64.3103 73.5511 64.2798 73.5206 64.2754C73.4546 64.3296 73.4011 64.3979 73.3402 64.458C73.3246 64.4781 73.2883 64.5056 73.318 64.5301C73.3826 64.6036 73.4613 64.6622 73.5303 64.7313C73.5956 64.6674 73.6595 64.6006 73.7219 64.533C73.7345 64.5174 73.7538 64.5011 73.7464 64.4788C73.7026 64.4217 73.6424 64.3808 73.5942 64.3288Z" fill="white"/>
<path fill-rule="evenodd" clip-rule="evenodd" d="M74.1864 64.3288C74.1642 64.3103 74.1434 64.2798 74.1129 64.2754C74.0469 64.3296 73.9934 64.3979 73.9325 64.458C73.9169 64.4781 73.8805 64.5056 73.9102 64.5301C73.9748 64.6036 74.0535 64.6622 74.1226 64.7313C74.1879 64.6674 74.2518 64.6006 74.3141 64.533C74.3268 64.5174 74.3461 64.5011 74.3386 64.4788C74.2948 64.4217 74.2347 64.3808 74.1864 64.3288Z" fill="white"/>
<path fill-rule="evenodd" clip-rule="evenodd" d="M73.9054 63.9446C73.8824 63.926 73.8624 63.8948 73.8312 63.8911C73.7659 63.9446 73.7117 64.0136 73.6508 64.0738C73.6352 64.0938 73.5988 64.1213 73.6285 64.1458C73.6938 64.2193 73.7718 64.2779 73.8408 64.347C73.9062 64.2824 73.97 64.2156 74.0331 64.148C74.0458 64.1332 74.0643 64.1168 74.0576 64.0945C74.0138 64.0374 73.9537 63.9965 73.9054 63.9446Z" fill="white"/>
<path fill-rule="evenodd" clip-rule="evenodd" d="M72.1233 43.6062C72.1367 43.7129 72.1708 43.8152 72.199 43.9183C72.3243 44.4098 72.3843 44.9206 72.5696 45.3966C72.5986 45.3032 72.6319 45.206 72.6149 45.1067C72.5355 44.5685 72.4659 44.0265 72.3131 43.5031C72.2909 43.4349 72.259 43.3697 72.2286 43.3044C72.1752 43.3964 72.11 43.495 72.1233 43.6062Z" fill="white"/>
<path fill-rule="evenodd" clip-rule="evenodd" d="M67.6527 44.8323C67.729 44.6388 67.9418 44.6647 68.093 44.7507C67.9729 44.8545 67.798 44.9435 67.6527 44.8323ZM67.5941 44.4534C67.4695 44.6818 67.5533 44.985 67.7157 45.1711C67.9144 45.2645 68.1182 45.1162 68.2799 45.0109C68.2576 45.2274 68.2309 45.4617 68.0849 45.6344C67.964 45.7738 67.8172 45.8909 67.6601 45.9873C67.4777 46.0993 67.259 46.1341 67.0796 46.252C67.1693 46.2831 67.2657 46.3068 67.3606 46.2824C67.6986 46.2201 68.0552 46.103 68.2762 45.8242C68.4318 45.63 68.4452 45.3675 68.44 45.1288C68.4489 44.7848 68.1946 44.4838 67.8951 44.3437C67.7854 44.2874 67.646 44.3452 67.5941 44.4534Z" fill="white"/>
<path fill-rule="evenodd" clip-rule="evenodd" d="M81.0239 48.0472C80.8652 48.3794 80.5835 49.0592 80.5835 49.0592C80.8793 49.3513 81.25 49.5507 81.5614 49.825C81.935 50.1008 82.259 50.4396 82.6393 50.7043C83.2005 50.5968 83.7521 50.4389 84.3118 50.3188C83.9374 49.9985 83.1649 49.3743 82.3094 48.7723C82.3094 48.7723 82.8276 47.8308 82.9848 47.4712C82.3984 47.6395 81.7986 47.7603 81.2092 47.9197C81.1343 47.9405 81.0528 47.9679 81.0239 48.0472Z" fill="white"/>
<path fill-rule="evenodd" clip-rule="evenodd" d="M82.6431 48.6545L84.4891 50.0913L85.1222 49.1053C84.5921 48.5307 83.3822 47.5462 83.2139 47.5225L82.6431 48.6545Z" fill="white"/>
<path fill-rule="evenodd" clip-rule="evenodd" d="M84.8389 50.3877C84.9189 50.5041 86.028 51.6658 86.8724 52.9454C87.057 52.6014 87.2839 52.1937 87.4766 51.8541C87.4766 51.8541 86.8413 50.7035 85.429 49.3735L84.8389 50.3877Z" fill="white"/>
<path fill-rule="evenodd" clip-rule="evenodd" d="M84.6296 50.6494C84.4287 50.6724 83.3078 50.9689 82.9697 51.0653C83.1061 51.2299 83.9335 52.0921 84.789 53.2575C84.7609 53.259 86.5943 53.1189 86.5943 53.1189C85.7528 51.797 84.6296 50.6494 84.6296 50.6494Z" fill="white"/>
<path fill-rule="evenodd" clip-rule="evenodd" d="M72.4112 55.313C72.5113 55.0795 72.6062 54.7896 72.862 54.6873C72.9828 54.6614 73.1289 54.6614 73.2186 54.7592C73.3713 54.8964 73.3572 55.1218 73.3194 55.3049C73.2608 55.5488 73.1837 55.7905 73.0755 56.0166C73.0036 56.1701 72.8405 56.2731 72.6722 56.2746C72.5158 56.262 72.3541 56.1753 72.2993 56.0211C72.1948 55.7831 72.3341 55.5369 72.4112 55.313ZM81.7769 54.3144C81.5345 54.2522 81.2802 54.267 81.0341 54.2307C80.4506 54.1321 79.8983 53.9141 79.3334 53.7458C78.8774 53.6012 78.4185 53.4152 77.9307 53.4285C77.6216 53.43 77.2813 53.4708 77.0425 53.6872C76.6682 53.9934 76.5043 54.4709 76.3694 54.9179C76.316 55.078 76.3301 55.3205 76.5199 55.3753C76.5199 55.3753 76.8565 55.1544 77.0663 55.1255C77.7113 55.0454 78.3592 55.2841 78.8774 55.6593C78.9842 55.7223 79.0576 55.8854 78.9449 55.9781C78.5772 56.3102 78.0671 56.4147 77.5852 56.4169C77.0537 56.4147 76.5214 56.4088 75.9898 56.414C75.5546 56.4236 75.1209 56.3695 74.6939 56.2931C74.5063 56.2531 74.3195 56.3828 74.2528 56.5556C73.9896 57.1464 73.7561 57.7499 73.5047 58.346C73.444 58.4772 73.3832 58.6181 73.2638 58.7085C73.1267 58.8212 72.9272 58.8071 72.7671 58.7604C72.5551 58.6662 72.3749 58.515 72.197 58.3704C72.0747 58.2793 72.0643 58.0739 72.191 57.9834C72.2867 57.9449 72.3957 57.9671 72.4965 57.9605C72.7263 57.9708 72.988 57.9101 73.1289 57.7136C73.5248 57.1583 73.7879 56.5089 73.9051 55.8387C73.9155 55.858 73.9266 55.8787 73.9377 55.8987C73.9303 55.64 74.0289 55.3939 74.0319 55.1359C74.0341 54.8793 74.0697 54.6088 73.9666 54.3656C73.9095 54.2284 73.8384 54.0935 73.7279 53.9919C73.378 53.6287 72.6848 53.7399 72.4572 54.1877C72.2785 54.5287 72.1154 54.8816 72.0242 55.2574C71.9605 55.5006 71.9071 55.7512 71.7855 55.9743C71.7307 56.0752 71.6276 56.1515 71.5075 56.1412C70.586 56.1374 69.6637 56.136 68.7422 56.1419C68.4509 56.1441 68.1662 55.9054 68.1543 55.6089C68.141 54.9046 68.1691 54.201 68.1336 53.4982C68.1632 53.0956 68.1521 52.6931 68.1454 52.2898C68.1402 52.0785 68.1743 51.8635 68.1232 51.6552C68.098 51.5425 67.9601 51.4491 67.8548 51.5276C67.6101 51.6885 67.3596 51.839 67.1223 52.011C66.7383 52.2875 66.3328 52.5344 65.9562 52.8221C65.7567 52.9681 65.8034 53.3091 66.0229 53.4137C66.2312 53.5227 66.4106 53.7228 66.398 53.9719C66.3958 54.9357 66.4025 55.9002 66.3936 56.864C66.3965 57.0908 66.4796 57.3095 66.5863 57.5067C66.7969 57.8863 67.238 58.1021 67.665 58.0909C68.5865 58.0887 69.5073 58.0917 70.4281 58.0924C70.6023 58.0835 70.7758 58.1703 70.8647 58.3208C70.9782 58.5224 70.8633 58.7767 70.9863 58.9776C71.1858 59.2927 71.5045 59.5047 71.8092 59.7086C72.2392 60.0089 72.6626 60.318 73.0918 60.6197C73.1704 60.6813 73.3098 60.7332 73.3839 60.6375C73.547 60.4403 73.676 60.2157 73.825 60.0066C73.9192 59.8257 74.1312 59.6715 74.1104 59.4543C73.9733 59.2897 73.719 59.18 73.7257 58.9331C73.7538 58.733 73.8606 58.5491 73.9866 58.3934C74.1557 58.1836 74.4396 58.125 74.6961 58.1332C75.883 58.1347 77.07 58.1332 78.2569 58.131C78.4534 58.1302 78.6402 58.0539 78.8003 57.9427C79.2377 57.6439 79.6269 57.2821 80.0065 56.9137C80.2452 56.7046 80.4232 56.4236 80.7064 56.2694C81.0081 56.0848 81.3729 56.0707 81.7154 56.0552C81.8125 56.0633 81.877 55.961 81.8711 55.8728C81.8851 55.4836 81.8718 55.0943 81.8792 54.7059C81.8785 54.5709 81.897 54.4078 81.7769 54.3144Z" fill="white"/>
<path fill-rule="evenodd" clip-rule="evenodd" d="M88.2603 56.255L89.3019 55.3372C88.7726 53.8722 87.6413 52.1374 87.6257 52.1382C87.4559 52.5096 87.2031 52.9655 87.0215 53.3318C87.0215 53.3318 87.8081 54.7389 88.2603 56.255Z" fill="white"/>
<path fill-rule="evenodd" clip-rule="evenodd" d="M61.4954 57.294C61.5443 57.5475 61.7022 57.7662 61.8794 57.9486C62.1826 58.2311 62.6133 58.3104 63.0107 58.3489C63.6275 58.366 64.277 58.4127 64.853 58.1465C65.0421 58.0642 65.1525 57.8722 65.1963 57.6787C65.2978 57.2413 65.3275 56.7913 65.329 56.3443C65.329 55.8987 65.3475 55.4509 65.2837 55.0083C65.2126 54.287 65.0643 53.5449 64.6491 52.9355C64.3407 52.4929 63.7884 52.1704 63.2376 52.2771C63.0367 52.312 62.8365 52.3839 62.6875 52.5292C62.2797 52.9058 62.0269 53.4581 62.0358 54.0164C62.0373 54.1721 62.0203 54.3315 62.0573 54.4849C62.1055 54.6406 62.2953 54.7133 62.4436 54.668C62.6289 54.5954 62.7653 54.4241 62.9655 54.3848C63.1849 54.3522 63.4222 54.3678 63.6157 54.4842C63.7929 54.5761 63.9063 54.7444 64.0308 54.8927C64.228 55.127 64.4104 55.3738 64.6002 55.614C64.6781 55.7252 64.7796 55.8498 64.7537 55.9958C64.6951 56.1634 64.5327 56.2664 64.3711 56.3198C64.0523 56.4429 63.7024 56.4303 63.3681 56.3969C62.9218 56.325 62.4302 56.2145 62.1263 55.8498C62.0321 55.7586 61.9483 55.6155 61.8001 55.6222C61.703 55.617 61.5725 55.614 61.5384 55.7282C61.4998 55.8876 61.5206 56.0537 61.5161 56.2153C61.5302 56.5748 61.4479 56.9344 61.4954 57.294Z" fill="white"/>
<path fill-rule="evenodd" clip-rule="evenodd" d="M86.3217 56.4162L88.0032 56.3391C87.8482 55.8691 87.2818 54.2855 86.7621 53.4463C86.7621 53.4463 85.358 53.5553 84.9287 53.5745C85.0703 53.8303 85.8502 54.9683 86.3217 56.4162Z" fill="white"/>
<path fill-rule="evenodd" clip-rule="evenodd" d="M88.4004 56.7443L88.9127 60.0397L90.2657 59.0982C90.0455 57.9387 89.8505 56.9059 89.4969 55.7783L88.4004 56.7443Z" fill="white"/>
<path fill-rule="evenodd" clip-rule="evenodd" d="M87.1018 59.6341L88.6283 60.0381C88.6172 59.7097 88.4007 58.1187 88.1234 56.831C87.5807 56.8287 87.0373 56.828 86.4946 56.8317C86.6978 57.3136 86.9609 58.1017 87.1018 59.6341Z" fill="white"/>
<path fill-rule="evenodd" clip-rule="evenodd" d="M90.3332 59.5771L89.0069 60.5224C89.1107 61.5084 89.0521 62.5522 88.9824 63.5405L90.3829 63.0134C90.3829 63.0134 90.5059 61.5951 90.3332 59.5771Z" fill="white"/>
<path fill-rule="evenodd" clip-rule="evenodd" d="M88.6911 63.4999C88.8119 62.4353 88.7541 61.109 88.7297 60.6271L87.1913 60.229C87.1802 60.4358 87.2877 61.5953 87.0972 63.0847L88.6911 63.4999Z" fill="white"/>
<path fill-rule="evenodd" clip-rule="evenodd" d="M88.6753 68.8703C88.4543 69.3945 88.1963 69.9023 87.9458 70.4131C87.7233 70.835 87.5425 71.2783 87.3178 71.6994C87.0554 71.583 86.8189 71.4184 86.5661 71.2842C86.4578 71.2338 86.3466 71.1552 86.2228 71.1678C86.1324 71.2301 86.0649 71.3176 86.0004 71.4036C85.6053 71.9544 85.1916 72.4904 84.7927 73.0383C84.6748 73.2066 84.5244 73.3534 84.4339 73.5387C84.385 73.6306 84.4406 73.73 84.4925 73.8056C84.6348 74.0065 84.8031 74.1859 84.9521 74.3824C84.9907 74.4395 85.0381 74.501 85.0389 74.5751C84.9158 74.7523 84.7297 74.8724 84.577 75.0222C84.0039 75.579 83.4108 76.1135 82.834 76.6651C82.5078 76.3759 82.2343 76.0312 81.9155 75.7354C81.8265 75.639 81.6938 75.6976 81.6049 75.7584C81.0244 76.1342 80.4728 76.5538 79.9005 76.9423C79.8189 77.0098 79.7077 77.0706 79.6825 77.1796C79.6988 77.3397 79.7885 77.4798 79.8545 77.6229C79.9538 77.8275 80.051 78.0329 80.134 78.2449C79.7974 78.4466 79.4119 78.54 79.0538 78.6986C78.5423 78.927 78.0107 79.1108 77.494 79.328C77.3709 79.3658 77.2404 79.4778 77.11 79.4259C76.9039 79.0841 76.8216 78.6831 76.6436 78.3272C76.5954 78.219 76.4672 78.216 76.3664 78.2308C75.4782 78.3628 74.5982 78.5437 73.7108 78.689C73.6226 78.7045 73.5062 78.7446 73.5121 78.8565C73.4869 79.265 73.5714 79.6706 73.5922 80.079C73.0665 80.0961 72.5402 80.0909 72.0138 80.0887H72.0071H72.0005C71.4741 80.0909 70.9477 80.0961 70.4221 80.079C70.4421 79.6706 70.5274 79.265 70.5022 78.8565C70.5081 78.7446 70.3917 78.7045 70.3027 78.689C69.4161 78.5437 68.5361 78.3628 67.6479 78.2308C67.5471 78.216 67.4188 78.219 67.3714 78.3272C67.1927 78.6831 67.1104 79.0841 66.9043 79.4259C66.7738 79.4778 66.6434 79.3658 66.5203 79.328C66.0036 79.1108 65.472 78.927 64.9605 78.6986C64.6024 78.54 64.2169 78.4466 63.8795 78.2449C63.9626 78.0329 64.0597 77.8275 64.1605 77.6229C64.2258 77.4798 64.3162 77.3397 64.3318 77.1796C64.3066 77.0706 64.1946 77.0098 64.1138 76.9423C63.5422 76.5538 62.9899 76.1342 62.4094 75.7584C62.3197 75.6976 62.1877 75.639 62.0988 75.7354C61.7793 76.0312 61.5072 76.3759 61.1802 76.6651C60.6027 76.1135 60.0096 75.579 59.4373 75.0222C59.2838 74.8724 59.0985 74.7523 58.9747 74.5751C58.9762 74.501 59.0236 74.4395 59.0629 74.3824C59.2112 74.1859 59.3795 74.0065 59.5218 73.8056C59.5737 73.73 59.6293 73.6306 59.5804 73.5387C59.4892 73.3534 59.3402 73.2066 59.2215 73.0383C58.8227 72.4904 58.409 71.9544 58.0146 71.4036C57.9494 71.3176 57.8819 71.2301 57.7914 71.1678C57.6676 71.1552 57.5564 71.2338 57.4482 71.2842C57.1954 71.4184 56.9589 71.583 56.6965 71.6994C56.4718 71.2783 56.2909 70.835 56.0693 70.4131C55.8187 69.9023 55.5599 69.3945 55.339 68.8703C56.1857 68.4841 57.9271 67.828 57.9271 67.828C57.9271 67.828 58.6299 69.4301 59.0414 70.0232C59.3135 70.4139 59.5522 70.8275 59.8606 71.1916C60.086 71.5089 60.3343 71.8069 60.6027 72.0886C62.1329 73.7493 64.357 75.1267 64.6572 75.2743C64.9345 75.4114 65.2066 75.5582 65.4876 75.6879C66.5344 76.1446 67.619 76.5257 68.7355 76.7718C69.2448 76.8519 69.743 76.9957 70.259 77.0217C70.8365 77.0913 71.4192 77.1158 72.0005 77.1128H72.0071H72.0138C72.5958 77.1158 73.1778 77.0913 73.7553 77.0217C74.2713 76.9957 74.7695 76.8519 75.2788 76.7718C76.396 76.5257 77.4792 76.1446 78.5274 75.6879C78.8077 75.5582 79.0805 75.4114 79.3578 75.2743C79.6573 75.1267 81.8806 73.7493 83.4116 72.0886C83.6799 71.8069 83.929 71.5089 84.1537 71.1916C84.4613 70.8275 84.7015 70.4139 84.9729 70.0232C85.3851 69.4301 86.0872 67.828 86.0872 67.828C86.0872 67.828 87.8286 68.4841 88.6753 68.8703ZM62.6785 69.5724C63.0411 69.5724 63.2612 69.7852 63.3591 70.0647C63.5541 70.5495 63.7231 71.044 63.9255 71.5259C64.0048 71.7402 64.1331 71.944 64.1368 72.179C63.9418 72.099 63.7839 71.9537 63.6015 71.8491C63.3154 71.6838 63.0611 71.4703 62.7779 71.299C62.508 71.1367 62.2723 70.9061 61.9609 70.8216C61.3092 70.6466 60.6531 70.4917 59.9992 70.3227C59.7976 70.2693 59.5477 70.273 59.4076 70.0921C59.2786 69.9201 59.1682 69.7792 59.1 69.5724H62.6785ZM63.1382 73.9183C62.9113 73.753 61.9609 73.0894 61.6807 72.8218C61.2655 72.4163 60.854 72.0056 60.4863 71.5563C60.3366 71.3569 60.0652 71.1293 59.9829 70.8906C60.4878 71.0455 61.0794 71.2798 61.5783 71.454C61.8015 71.5259 61.9683 71.6949 62.144 71.8402C62.4324 72.0842 62.7245 72.3244 63.021 72.5579C63.0959 72.6328 63.2131 72.6987 63.2116 72.8174C63.2212 73.1932 63.2049 73.5484 63.1382 73.9183ZM64.3192 72.6758C64.3629 72.8641 64.3288 73.0605 64.3503 73.2518C64.3881 73.5372 64.3866 73.8264 64.4156 74.1133C64.4222 74.2504 64.4563 74.4328 64.3066 74.5092C64.1687 74.5492 64.0063 74.541 63.8921 74.4454C63.7098 74.3068 63.5326 74.1622 63.3472 74.0273C63.3339 73.6811 63.3539 73.3356 63.3813 72.9916C63.3851 72.8418 63.4095 72.6639 63.285 72.5527C62.9951 72.2799 62.6585 72.0619 62.3649 71.7921C62.1574 71.6201 61.969 71.4088 61.7081 71.3168C61.0905 71.09 60.4945 70.8668 59.8702 70.6592C59.8688 70.6259 59.8443 70.554 59.8428 70.5214C60.4559 70.6185 61.4538 70.8906 61.8008 71.007C62.0684 71.0974 62.2863 71.2672 62.5177 71.4162C62.9751 71.7038 63.4177 72.0152 63.8721 72.308C64.0345 72.4111 64.2272 72.4978 64.3192 72.6758ZM64.6365 72.8604C64.6357 72.6958 64.767 72.5779 64.8885 72.4845C67.2075 70.6978 70.5518 69.9868 70.775 70.0046C70.7713 70.0558 70.7661 70.1062 70.7602 70.1581C66.3987 71.6238 65.8279 72.5268 65.7226 72.8448C65.6447 73.0865 65.6729 73.3445 65.6699 73.5951C65.6685 74.1303 65.6707 74.6663 65.6648 75.2023L65.664 75.2468L65.3378 75.2476C65.2385 75.2431 65.1562 75.2335 65.0857 75.1519C64.787 74.848 64.738 74.4009 64.6869 73.9998C64.6328 73.6225 64.6283 73.2407 64.6365 72.8604ZM65.151 71.4903C65.2948 71.0855 65.4305 70.6785 65.5624 70.27C65.6232 70.078 65.6544 69.8193 65.8471 69.7096C65.9227 69.6636 66.0065 69.6673 66.2489 69.6569H70.5148C70.5985 69.6614 70.5711 69.7844 70.5185 69.8022C70.2227 69.8919 69.9224 69.9638 69.6214 70.0298C68.8778 70.2396 67.1252 70.763 66.4387 71.1878C66.1036 71.3954 65.77 71.6067 65.4475 71.8343C65.2918 71.9396 65.1451 72.0604 64.9686 72.1323C64.9834 71.907 65.0872 71.7031 65.151 71.4903ZM66.6738 74.0006V75.126H66.3779V74.0006H66.6738ZM67.2728 74.0006V75.126H66.9762V74.0006H67.2728ZM67.8525 74.0006V75.126H67.5567V74.0006H67.8525ZM68.4278 74.0006V75.126H68.1328V74.0006H68.4278ZM68.9861 74.0006V75.126H68.691V74.0006H68.9861ZM69.5443 74.0006V75.126H69.2493V74.0006H69.5443ZM71.07 73.4638L71.0715 76.7644C71.0715 76.8178 71.0278 76.8615 70.9744 76.8615C70.8128 76.86 70.4962 76.8586 70.3702 76.8623C70.2545 76.8623 70.1782 76.7192 70.1359 76.6072C70.0336 76.3648 69.8386 73.4757 69.8386 73.4757H66.0087V73.1213C66.0073 72.9834 66.0399 72.847 66.1059 72.7262C66.14 72.6632 66.1778 72.6016 66.2156 72.5631C66.4499 72.3377 67.1015 71.8269 68.2403 71.3584C68.3596 71.3065 68.4338 71.4154 68.5368 71.4851C69.3315 72.0716 70.1255 72.6609 70.9344 73.2288C71.0167 73.2829 71.0663 73.3148 71.07 73.4638ZM71.2065 69.8994L71.7558 69.8979L71.7573 76.7651C71.7573 76.8185 71.7136 76.8623 71.6602 76.8623H71.3028C71.2495 76.8623 71.2065 76.8185 71.2065 76.7651V69.8994ZM72.2585 69.8979L72.8086 69.8994V76.7651C72.8086 76.8185 72.7648 76.8623 72.7114 76.8623H72.3541C72.3007 76.8623 72.257 76.8185 72.257 76.7651L72.2585 69.8979ZM74.765 74.0006V75.126H74.47V74.0006H74.765ZM75.3233 74.0006V75.126H75.0282V74.0006H75.3233ZM75.8815 74.0006V75.126H75.5864V74.0006H75.8815ZM76.4583 74.0006V75.126H76.1617V74.0006H76.4583ZM77.038 74.0006V75.126H76.7415V74.0006H77.038ZM77.6363 74.0006V75.126H77.3405V74.0006H77.6363ZM72.9442 73.4638C72.9479 73.3148 72.9983 73.2829 73.0799 73.2288C73.8887 72.6609 74.6827 72.0716 75.4775 71.4851C75.5805 71.4154 75.6554 71.3065 75.7748 71.3584C76.9128 71.8269 77.5644 72.3377 77.7987 72.5631C77.8365 72.6016 77.875 72.6632 77.9091 72.7262C77.9736 72.847 78.007 72.9834 78.0048 73.1213L78.0055 73.4757H74.1756C74.1756 73.4757 73.9806 76.3648 73.8783 76.6072C73.8361 76.7192 73.759 76.8623 73.6448 76.8623C73.5188 76.8586 73.2007 76.86 73.0399 76.8615C72.9865 76.8615 72.9427 76.8178 72.9427 76.7644L72.9442 73.4638ZM79.1257 72.4845C79.2473 72.5779 79.3785 72.6958 79.377 72.8604C79.3859 73.2407 79.3815 73.6225 79.3281 73.9998C79.2762 74.4009 79.2273 74.848 78.9293 75.1519C78.8581 75.2335 78.7758 75.2431 78.6765 75.2476L78.3503 75.2468L78.3495 75.2023C78.3436 74.6663 78.3458 74.1303 78.3443 73.5951C78.3421 73.3445 78.3703 73.0865 78.2917 72.8448C78.1872 72.5268 77.6156 71.6238 73.2534 70.1581C73.2482 70.1062 73.2437 70.0558 73.2393 70.0046C73.4624 69.9868 76.8067 70.6978 79.1257 72.4845ZM73.4995 69.6569H77.7653C78.007 69.6673 78.0923 69.6636 78.1671 69.7096C78.3599 69.8193 78.391 70.078 78.4518 70.27C78.5838 70.6785 78.7195 71.0855 78.864 71.4903C78.9278 71.7031 79.0308 71.907 79.0457 72.1323C78.8692 72.0604 78.7224 71.9396 78.5667 71.8343C78.2442 71.6067 77.9106 71.3954 77.5755 71.1878C76.8898 70.763 75.1364 70.2396 74.3928 70.0298C74.0919 69.9638 73.7916 69.8919 73.4958 69.8022C73.4424 69.7844 73.4157 69.6614 73.4995 69.6569ZM84.0313 70.8906C83.949 71.1293 83.6777 71.3569 83.5287 71.5563C83.161 72.0056 82.7488 72.4163 82.3336 72.8218C82.0534 73.0894 81.1029 73.753 80.8761 73.9183C80.8101 73.5484 80.7931 73.1932 80.8027 72.8174C80.8012 72.6987 80.9183 72.6328 80.9932 72.5579C81.2898 72.3244 81.5826 72.0842 81.8703 71.8402C82.0467 71.6949 82.2128 71.5259 82.4359 71.454C82.9349 71.2798 83.5265 71.0455 84.0313 70.8906ZM79.598 74.1133C79.6276 73.8264 79.6261 73.5372 79.664 73.2518C79.6855 73.0605 79.6514 72.8641 79.6951 72.6758C79.787 72.4978 79.9798 72.4111 80.1421 72.308C80.5973 72.0152 81.0392 71.7038 81.4966 71.4162C81.7279 71.2672 81.9451 71.0974 82.2135 71.007C82.5605 70.8906 83.5591 70.6185 84.1715 70.5214C84.17 70.554 84.1455 70.6259 84.1448 70.6592C83.5198 70.8668 82.9237 71.09 82.3062 71.3168C82.046 71.4088 81.8569 71.6201 81.6486 71.7921C81.3558 72.0619 81.0192 72.2799 80.7293 72.5527C80.6048 72.6639 80.6292 72.8418 80.6329 72.9916C80.6604 73.3356 80.6804 73.6811 80.667 74.0273C80.4817 74.1622 80.3045 74.3068 80.1221 74.4454C80.0087 74.541 79.8456 74.5492 79.7077 74.5092C79.5572 74.4328 79.592 74.2504 79.598 74.1133ZM80.0888 71.5259C80.2912 71.044 80.4602 70.5495 80.6559 70.0647C80.753 69.7852 80.9732 69.5724 81.3365 69.5724H84.9143C84.8461 69.7792 84.7364 69.9201 84.6059 70.0921C84.4658 70.273 84.2167 70.2693 84.015 70.3227C83.3611 70.4917 82.705 70.6466 82.0534 70.8216C81.742 70.9061 81.5063 71.1367 81.2364 71.299C80.9532 71.4703 80.6989 71.6838 80.4127 71.8491C80.2304 71.9537 80.0725 72.099 79.8775 72.179C79.8819 71.944 80.0102 71.7402 80.0888 71.5259ZM90.3055 63.6704L88.822 64.1767C88.527 65.1086 88.0073 66.9717 87.5232 68.0496C87.4854 68.1475 87.2889 68.0882 87.2889 68.0882C87.2889 68.0882 88.2171 65.7633 88.5329 64.1426L87.022 63.6311C86.919 64.0277 86.7195 65.334 86.1479 66.7975C86.1198 66.885 86.0619 66.9954 86.1339 67.0785C86.2984 67.3046 86.7025 67.8561 86.7025 67.8561L85.953 67.5322C85.953 67.5322 85.3717 68.8066 85.1523 69.175C85.116 69.2321 85.0589 69.3448 84.9595 69.3448L81.1667 69.3463C80.9992 69.3374 80.845 69.4212 80.7286 69.5346C80.4676 69.7733 80.4038 70.1366 80.2674 70.448C80.0087 71.0626 79.7863 71.6905 79.5416 72.3103C79.36 72.2428 79.2896 72.0441 79.2236 71.8795C78.996 71.1849 78.7499 70.4961 78.5334 69.7985C78.4607 69.5813 78.2494 69.4293 78.0204 69.436L72.535 69.4397C72.3749 69.4308 72.1013 69.5554 72.1013 69.7059V76.8015C72.1013 76.8348 72.0739 76.8623 72.0405 76.8623H72.0138H72.0005H71.9738C71.9404 76.8623 71.9137 76.8348 71.9137 76.8015V69.7059C71.9137 69.5554 71.6394 69.4308 71.48 69.4397L65.9939 69.436C65.7648 69.4293 65.5543 69.5813 65.4809 69.7985C65.2644 70.4961 65.0183 71.1849 64.7907 71.8795C64.7247 72.0441 64.655 72.2428 64.4726 72.3103C64.228 71.6905 64.0063 71.0626 63.7468 70.448C63.6104 70.1366 63.5467 69.7733 63.2857 69.5346C63.1693 69.4212 63.0151 69.3374 62.8476 69.3463L59.0547 69.3448C58.9554 69.3448 58.8983 69.2321 58.862 69.175C58.6425 68.8066 58.0613 67.5322 58.0613 67.5322L57.3118 67.8561C57.3118 67.8561 57.7158 67.3046 57.8804 67.0785C57.9523 66.9954 57.8945 66.885 57.8663 66.7975C57.2947 65.334 57.0953 64.0277 56.993 63.6311L55.4821 64.1426C55.7972 65.7633 56.7254 68.0882 56.7254 68.0882C56.7254 68.0882 56.5296 68.1475 56.4911 68.0496C56.0077 66.9717 55.4873 65.1086 55.1922 64.1767L53.708 63.6704C53.9801 66.1265 54.714 67.7613 54.8912 68.2024C55.3108 68.2461 56.2857 68.2876 56.2857 68.2876C55.9506 68.3973 55.4991 68.5857 55.1663 68.708C55.1129 68.7354 55.015 68.7406 55.0106 68.8192C55.0202 68.9007 55.0714 68.9689 55.1084 69.0401C55.2693 69.3092 55.3761 69.6058 55.5214 69.8823C55.8179 70.4954 56.1278 71.1026 56.4036 71.7261C56.4592 71.8343 56.5089 71.9759 56.6409 72.0093C56.8151 71.9781 56.9633 71.8736 57.1138 71.7869C57.297 71.6749 57.4927 71.5852 57.6647 71.4555C57.8211 71.5711 57.9212 71.7416 58.0376 71.8929C58.3853 72.3392 58.7048 72.8062 59.0518 73.2533C59.1363 73.3771 59.249 73.4883 59.2994 73.6314C59.1029 73.9309 58.8486 74.1896 58.664 74.498C58.5966 74.5937 58.6959 74.6871 58.7552 74.7553C58.9406 74.9436 59.1504 75.1067 59.3357 75.2958C59.808 75.7724 60.3314 76.1973 60.8021 76.6754C60.9156 76.7822 61.0208 76.9075 61.1676 76.969C61.2284 76.9868 61.2788 76.9327 61.3263 76.9053C61.6636 76.6295 61.9171 76.2692 62.2374 75.9763C62.7586 76.2929 63.239 76.671 63.7468 77.0105C63.8543 77.0802 63.9552 77.1595 64.0464 77.2492C63.9099 77.5072 63.8084 77.7823 63.6705 78.0395C63.6104 78.1493 63.5697 78.2768 63.6038 78.4021C63.7691 78.5303 63.9811 78.5748 64.1679 78.6645C64.7121 78.9092 65.2703 79.1175 65.8279 79.3303C66.1978 79.4948 66.5811 79.6253 66.9525 79.7877C67.0363 79.7247 67.1238 79.6572 67.1549 79.5534C67.2542 79.2806 67.381 79.0189 67.4774 78.7446C67.5182 78.6564 67.5426 78.5437 67.636 78.497C67.7673 78.5014 67.8948 78.5333 68.023 78.5548C68.3811 78.6274 68.7444 78.666 69.1032 78.7364C69.4769 78.8054 69.8483 78.8877 70.2271 78.9284C70.2701 79.1783 70.2123 79.4281 70.2027 79.678C70.1975 79.864 70.1382 80.0472 70.1619 80.234C70.2056 80.3422 70.3383 80.3445 70.4362 80.3474C70.9581 80.3422 71.4793 80.343 72.0005 80.3452H72.0071H72.0138C72.535 80.343 73.0569 80.3422 73.5781 80.3474C73.6767 80.3445 73.8087 80.3422 73.8524 80.234C73.8761 80.0472 73.8168 79.864 73.8116 79.678C73.802 79.4281 73.7442 79.1783 73.7872 78.9284C74.166 78.8877 74.5374 78.8054 74.9118 78.7364C75.2699 78.666 75.6332 78.6274 75.992 78.5548C76.1195 78.5333 76.247 78.5014 76.3782 78.497C76.4716 78.5437 76.4961 78.6564 76.5369 78.7446C76.6333 79.0189 76.76 79.2806 76.8594 79.5534C76.8905 79.6572 76.9787 79.7247 77.0618 79.7877C77.4332 79.6253 77.8172 79.4948 78.1872 79.3303C78.7439 79.1175 79.3022 78.9092 79.8463 78.6645C80.0332 78.5748 80.2452 78.5303 80.4113 78.4021C80.4446 78.2768 80.4038 78.1493 80.3438 78.0395C80.2059 77.7823 80.1043 77.5072 79.9679 77.2492C80.0591 77.1595 80.1607 77.0802 80.2674 77.0105C80.7745 76.671 81.2557 76.2929 81.7769 75.9763C82.0971 76.2692 82.3507 76.6295 82.688 76.9053C82.7354 76.9327 82.7866 76.9868 82.8474 76.969C82.9934 76.9075 83.0994 76.7822 83.2121 76.6754C83.6836 76.1973 84.2063 75.7724 84.6786 75.2958C84.8639 75.1067 85.0744 74.9436 85.2598 74.7553C85.3184 74.6871 85.4177 74.5937 85.351 74.498C85.1664 74.1896 84.9113 73.9309 84.7149 73.6314C84.766 73.4883 84.878 73.3771 84.9625 73.2533C85.3095 72.8062 85.6297 72.3392 85.9759 71.8929C86.0938 71.7416 86.1932 71.5711 86.3496 71.4555C86.5216 71.5852 86.7173 71.6749 86.9004 71.7869C87.0517 71.8736 87.1992 71.9781 87.3734 72.0093C87.5054 71.9759 87.5551 71.8343 87.6107 71.7261C87.8872 71.1026 88.1963 70.4954 88.4929 69.8823C88.6382 69.6058 88.7449 69.3092 88.9066 69.0401C88.9429 68.9689 88.994 68.9007 89.0037 68.8192C88.9992 68.7406 88.9021 68.7354 88.848 68.708C88.5151 68.5857 88.0636 68.3973 87.7293 68.2876C87.7293 68.2876 88.7034 68.2461 89.123 68.2024C89.3002 67.7613 90.0342 66.1265 90.3055 63.6704Z" fill="white"/>
<path fill-rule="evenodd" clip-rule="evenodd" d="M59.7021 50.3188C60.2619 50.4389 60.8135 50.5968 61.3747 50.7043C61.755 50.4396 62.079 50.1008 62.4526 49.825C62.7632 49.5507 63.1347 49.3513 63.4297 49.0592C63.4297 49.0592 63.148 48.3794 62.9901 48.0472C62.9612 47.9679 62.8782 47.9405 62.804 47.9197C62.2154 47.7603 61.6156 47.6395 61.0292 47.4712C61.1856 47.8308 61.7038 48.7723 61.7038 48.7723C60.849 49.3743 60.0765 49.9985 59.7021 50.3188Z" fill="white"/>
<path fill-rule="evenodd" clip-rule="evenodd" d="M61.3705 48.6545L60.7996 47.5225C60.6314 47.5462 59.4214 48.5307 58.8906 49.1053L59.5245 50.0913L61.3705 48.6545Z" fill="white"/>
<path fill-rule="evenodd" clip-rule="evenodd" d="M59.1749 50.3877L58.5848 49.3735C57.1717 50.7035 56.5371 51.8541 56.5371 51.8541C56.7299 52.1937 56.956 52.6014 57.1413 52.9454C57.9857 51.6658 59.0948 50.5041 59.1749 50.3877Z" fill="white"/>
<path fill-rule="evenodd" clip-rule="evenodd" d="M61.0442 51.0653C60.7062 50.9689 59.5852 50.6724 59.3843 50.6494C59.3843 50.6494 58.2611 51.797 57.4189 53.1189C57.4189 53.1189 59.2531 53.2583 59.2249 53.2575C60.0804 52.0921 60.9071 51.2299 61.0442 51.0653Z" fill="white"/>
<path fill-rule="evenodd" clip-rule="evenodd" d="M56.9919 53.3318C56.8102 52.9655 56.5574 52.5096 56.3884 52.1382C56.3713 52.1374 55.2408 53.8722 54.7114 55.3379L55.753 56.255C56.2053 54.7389 56.9919 53.3318 56.9919 53.3318Z" fill="white"/>
<path fill-rule="evenodd" clip-rule="evenodd" d="M59.0835 53.5745C58.6542 53.5553 57.2493 53.4463 57.2493 53.4463C56.7304 54.2855 56.164 55.8691 56.0098 56.3391L57.6904 56.4162C58.162 54.9683 58.9426 53.8303 59.0835 53.5745Z" fill="white"/>
<path fill-rule="evenodd" clip-rule="evenodd" d="M55.6123 56.7443L54.5159 55.7783C54.1622 56.9059 53.9673 57.9387 53.7471 59.0982L55.1001 60.0397L55.6123 56.7443Z" fill="white"/>
<path fill-rule="evenodd" clip-rule="evenodd" d="M55.8901 56.8314C55.6129 58.1191 55.3964 59.7101 55.3853 60.0393L56.9117 59.6345C57.0526 58.1021 57.3158 57.314 57.5189 56.8321C56.9762 56.8292 56.4321 56.8299 55.8901 56.8314Z" fill="white"/>
<path fill-rule="evenodd" clip-rule="evenodd" d="M55.0064 60.5226L53.6801 59.5774C53.5073 61.5954 53.6304 63.0129 53.6304 63.0129L55.0308 63.54C54.9604 62.5518 54.9026 61.5086 55.0064 60.5226Z" fill="white"/>
<path fill-rule="evenodd" clip-rule="evenodd" d="M56.8222 60.2295L55.2839 60.6276C55.2594 61.1095 55.2009 62.4358 55.3217 63.5004L56.9164 63.0852C56.7251 61.5951 56.8334 60.4356 56.8222 60.2295Z" fill="white"/>
<path fill-rule="evenodd" clip-rule="evenodd" d="M76.7369 63.8044C76.5353 63.8971 76.3833 64.0632 76.2313 64.2189C76.1661 64.296 76.0778 64.3842 76.1082 64.4947C76.2009 65.0477 76.2513 65.6112 76.4122 66.1509C76.4285 66.2339 76.4945 66.2828 76.5708 66.3103C76.7895 65.8729 76.8162 65.3643 76.7799 64.8839C76.7221 64.5258 76.7725 64.1633 76.7369 63.8044Z" fill="white"/>
<path fill-rule="evenodd" clip-rule="evenodd" d="M70.1356 64.219C69.9384 64.2813 69.7582 64.3821 69.584 64.4896C69.5877 64.9515 69.5743 65.4141 69.6285 65.873C69.6559 66.1095 69.8828 66.3089 70.1237 66.2882C70.5129 66.283 70.9036 66.3015 71.2928 66.2778C71.5449 66.2533 71.7021 66.0398 71.8896 65.9012C72.0386 66.0361 72.1528 66.2429 72.3663 66.2807C72.6532 66.297 72.975 66.3415 73.2159 66.1466C73.3005 66.2051 73.3783 66.2919 73.488 66.2933C73.6259 66.3111 73.7468 66.234 73.8661 66.1784C73.964 66.2318 74.0618 66.3059 74.1797 66.2948C74.308 66.2963 74.4095 66.2073 74.5126 66.1443C74.6067 66.2111 74.7024 66.2926 74.824 66.2904C75.0123 66.2971 75.2021 66.2971 75.3889 66.2726C75.6446 66.2259 75.7877 65.9642 75.8322 65.7292C75.89 65.337 75.8344 64.8959 75.5572 64.5934C75.42 64.7335 75.2754 64.8759 75.1902 65.056C75.271 65.2502 75.5713 65.3548 75.4801 65.6016C75.2569 65.6365 75.0219 65.6587 74.8025 65.5935C74.6297 65.5053 74.6297 65.2695 74.4814 65.1553C74.3235 65.2406 74.3932 65.5334 74.1767 65.5468C73.9744 65.5772 73.981 65.317 73.9017 65.1939C73.878 65.1954 73.8313 65.1983 73.8075 65.1998C73.7393 65.3007 73.7171 65.423 73.6541 65.526C73.6178 65.5801 73.5399 65.6098 73.4799 65.5787C73.3071 65.5016 73.3612 65.2317 73.17 65.1783C73.0906 65.3184 73.0617 65.5127 72.9075 65.592C72.6443 65.6795 72.3337 65.6128 72.1358 65.4141C71.8963 65.182 71.6324 64.9656 71.4604 64.6742C71.725 64.586 71.9994 64.5319 72.2581 64.4295C72.2966 64.2464 72.3256 64.0611 72.3426 63.8743C71.9386 63.9603 71.5456 64.09 71.1446 64.1901C71.0593 64.2212 70.9525 64.2309 70.8932 64.3072C70.8436 64.4822 70.8362 64.666 70.7998 64.8432C70.9918 65.0716 71.2484 65.2517 71.384 65.5245C71.1208 65.6906 70.8028 65.5957 70.5129 65.6231C70.3861 65.6217 70.1771 65.6409 70.1445 65.4786C70.1178 65.0597 70.1556 64.6386 70.1356 64.219Z" fill="white"/>
<path fill-rule="evenodd" clip-rule="evenodd" d="M72.2767 63.7505C72.3442 63.7364 72.3865 63.683 72.4243 63.6304C72.0558 63.6786 71.7059 63.8172 71.3463 63.9062C71.2032 63.9566 71.0216 63.9566 70.9312 64.0989C71.0698 64.0922 71.2062 64.0626 71.3374 64.0196C71.6481 63.921 71.9654 63.8446 72.2767 63.7505Z" fill="white"/>
<path fill-rule="evenodd" clip-rule="evenodd" d="M77.5167 65.5917C77.3262 65.5679 77.3543 65.2677 77.1475 65.2818C77.0882 65.5138 77.043 65.7622 77.1082 65.9979C77.1653 66.1581 77.3232 66.2922 77.4997 66.2878C77.6687 66.293 77.8392 66.2952 78.0075 66.2811C78.2988 66.2492 78.5353 65.9883 78.5591 65.6999C78.5709 65.473 78.5887 65.2306 78.4805 65.0223C78.3752 64.8221 78.2203 64.6516 78.0572 64.4967C77.9845 64.4218 77.8844 64.3877 77.7843 64.3691C77.6857 64.5552 77.5923 64.7458 77.4804 64.9259C77.7399 65.1379 78.0572 65.2751 78.2818 65.5286C78.0535 65.6688 77.7688 65.6361 77.5167 65.5917Z" fill="white"/>
<path fill-rule="evenodd" clip-rule="evenodd" d="M68.2079 65.386C68.3072 65.4728 68.1997 65.6136 68.0908 65.6092C67.9744 65.6262 67.9113 65.5091 67.838 65.4424C67.9143 65.3141 68.1056 65.2533 68.2079 65.386ZM68.5356 65.5536C68.6586 65.6003 68.7528 65.6922 68.8329 65.7938C68.7899 65.8294 68.7469 65.8627 68.7002 65.8946C68.6112 65.8783 68.5267 65.8442 68.4407 65.8153C68.4703 65.7271 68.5022 65.6396 68.5356 65.5536ZM66.6718 66.0933C66.8668 66.1348 67.0284 66.2838 67.2345 66.2868C67.4072 66.2942 67.5807 66.2935 67.7549 66.2831C67.9099 66.2742 68.0463 66.1926 68.1834 66.1267C68.308 66.1919 68.4288 66.2809 68.5734 66.2898C68.6764 66.292 68.8032 66.3127 68.8781 66.223C69.1057 65.9947 69.1813 65.6003 68.9967 65.323C68.8017 65.0213 68.4763 64.8404 68.1656 64.678C68.0774 64.6358 67.9914 64.5772 67.8921 64.5728C67.7497 64.7588 67.6949 64.9901 67.637 65.2126C67.5926 65.3416 67.5525 65.4743 67.5392 65.6121C67.2122 65.6388 66.8838 65.6299 66.5561 65.6388C66.3182 65.65 66.0698 65.7048 65.8807 65.8583C65.7829 65.9361 65.6947 66.0451 65.6887 66.1748C65.6828 66.2964 65.7873 66.4054 65.9067 66.4113C66.1284 66.4277 66.3508 66.4054 66.5724 66.4314C66.5724 66.4662 66.5739 66.5359 66.5739 66.5715C66.264 66.6078 65.9519 66.5952 65.6405 66.5952C65.3825 66.6041 65.0919 66.5522 64.9288 66.332C64.7843 66.1548 64.8577 65.9176 64.8406 65.71C64.765 65.6455 64.6938 65.7337 64.6427 65.7864C64.5203 65.9458 64.4907 66.1548 64.4633 66.3483C64.4247 66.6338 64.5307 66.9592 64.7909 67.1075C65.0734 67.2728 65.4122 67.2365 65.7251 67.238C66.0527 67.238 66.4101 67.2068 66.6762 66.9963C66.8734 66.8354 66.9602 66.4692 66.7207 66.3068C66.485 66.1852 66.2062 66.2697 65.9534 66.2171C65.9541 66.1889 65.9549 66.1318 65.9564 66.1037C66.1906 66.054 66.436 66.0444 66.6718 66.0933Z" fill="white"/>
<path fill-rule="evenodd" clip-rule="evenodd" d="M79.7193 46.1598L79.4766 45.9163L79.7342 45.6594L79.977 45.9022L79.7193 46.1598Z" fill="white"/>
<path fill-rule="evenodd" clip-rule="evenodd" d="M68.6947 47.8025L68.3599 47.7238L68.4438 47.3696L68.7779 47.4483L68.6947 47.8025Z" fill="white"/>
<path fill-rule="evenodd" clip-rule="evenodd" d="M78.6174 48.6348L78.375 48.3916L78.2008 48.5658L78.0273 48.3916L77.77 48.6489L78.0132 48.892L78.1867 48.7178L78.3601 48.892L78.6174 48.6348Z" fill="white"/>
<path fill-rule="evenodd" clip-rule="evenodd" d="M77.2809 48.4382L77.1495 48.1205L76.9223 48.2147L76.828 47.9875L76.4917 48.1264L76.6231 48.4442L76.8503 48.3499L76.9446 48.5771L77.2809 48.4382Z" fill="white"/>
<path fill-rule="evenodd" clip-rule="evenodd" d="M74.972 47.8333L74.7763 47.5515L74.5746 47.6917L74.4338 47.4893L74.1357 47.6968L74.3315 47.9786L74.5331 47.8384L74.6732 48.0408L74.972 47.8333Z" fill="white"/>
<path fill-rule="evenodd" clip-rule="evenodd" d="M70.1046 43.2331L69.7779 43.1284L69.7022 43.3623L69.4683 43.2873L69.3569 43.6348L69.6851 43.7395L69.7593 43.5048L69.994 43.5798L70.1046 43.2331Z" fill="white"/>
<path fill-rule="evenodd" clip-rule="evenodd" d="M63.3897 47.8642L63.3288 47.5256L63.0867 47.5694L63.0429 47.3267L62.6851 47.3913L62.7459 47.7291L62.988 47.686L63.031 47.9281L63.3897 47.8642Z" fill="white"/>
<rect x="1.3877" y="1.44409" width="139" height="139" stroke="#4A4E57"/>
</svg>
