<svg width="53" height="57" viewBox="0 0 53 57" fill="none" xmlns="http://www.w3.org/2000/svg">
<path fill-rule="evenodd" clip-rule="evenodd" d="M20.3271 0.396484C20.2537 0.397414 20.1793 0.398343 20.105 0.400201C16.1309 0.494972 12.1541 0.425287 8.17908 0.425287H7.05664V39.1188H25.8714C25.9058 38.8828 25.9439 38.7453 25.9439 38.6087C25.9393 36.3778 26.0034 34.1433 25.9012 31.9152C25.7609 28.8501 23.4974 27.1061 20.499 27.8057C19.2204 28.103 17.9921 28.7014 16.8074 29.2933C14.9667 30.2149 13.1529 31.132 10.7891 30.6349C11.8595 31.8316 12.9764 32.3464 14.3544 32.3584C15.8856 32.3733 17.1205 31.683 18.3358 30.8616C19.2279 30.2577 20.1366 29.6389 21.1196 29.218C22.9743 28.4245 24.7369 29.2208 24.959 31.1868C25.2182 33.4762 25.0203 35.8157 25.0203 38.1673H7.97466V1.39901C8.39743 1.3795 8.75238 1.34884 9.10546 1.34884C13.0089 1.34605 16.9114 1.34048 20.8139 1.3507C23.6256 1.35813 25.2489 2.67006 25.8993 5.38032C25.9551 5.61539 26.2589 5.79378 26.4457 5.99819C26.611 5.80958 26.9037 5.63118 26.9205 5.42956C27.136 2.99897 29.4125 1.30796 31.9547 1.33583C34.614 1.36556 37.2742 1.35906 39.9335 1.35348C41.2492 1.3507 42.5649 1.34884 43.8806 1.34884C44.1919 1.34884 44.5032 1.39622 44.8405 1.4241V38.1571H27.6146C27.6146 36.1084 27.5978 34.134 27.6276 32.1605C27.635 31.7034 27.7576 31.2314 27.911 30.7947C28.4332 29.3072 29.7489 28.6048 31.2662 29.0591C31.912 29.2533 32.5252 29.5952 33.1087 29.9446C34.0361 30.5002 34.8974 31.1729 35.8386 31.7006C38.0705 32.9512 40.7177 32.4448 41.9851 30.5615C40.0478 31.1822 38.3613 30.4584 36.6907 29.6463C35.6212 29.126 34.5778 28.5388 33.4739 28.103C29.8483 26.6722 27.1407 28.3651 26.8982 32.2312C26.796 33.845 26.8694 35.4692 26.8638 37.0896C26.861 37.7539 26.8638 38.4182 26.8638 39.0835H45.7789V0.521916C45.6107 0.481964 45.5095 0.436437 45.4073 0.436437C40.7103 0.434579 36.0105 0.371398 31.3145 0.487539C30.2645 0.512625 29.1523 1.02736 28.2129 1.56625C27.4826 1.98529 26.9753 2.78991 26.3221 3.47282C25.0082 1.18903 22.9836 0.413209 20.4925 0.396484H20.3271Z" fill="white"/>
<path fill-rule="evenodd" clip-rule="evenodd" d="M24.9807 16.5464C25.4564 18.9938 25.8801 21.4522 26.3271 23.906C26.8279 22.045 27.1596 20.21 27.5712 18.3935C28.3796 14.8387 28.0358 11.4204 26.3977 7.96967C25.2046 10.8081 24.4009 13.5546 24.9807 16.5464Z" fill="white"/>
<path fill-rule="evenodd" clip-rule="evenodd" d="M27.4365 23.3517C28.6918 21.4944 30.1729 19.6259 31.2814 17.5605C32.2887 15.6855 32.9261 13.608 33.648 11.5918C33.819 11.1142 33.6731 10.5233 33.6731 9.82831C29.7232 13.7241 28.0934 18.4209 27.4365 23.3517Z" fill="white"/>
<path fill-rule="evenodd" clip-rule="evenodd" d="M18.9004 10.0035C19.1596 11.2476 19.3966 12.4972 19.6855 13.7339C20.5961 17.6316 24.1679 20.0315 25.3479 23.7843C24.7439 18.5226 23.1476 13.7098 19.2293 9.92914C19.1197 9.9533 19.01 9.97838 18.9004 10.0035Z" fill="white"/>
<path fill-rule="evenodd" clip-rule="evenodd" d="M28.3105 24.4876C29.6151 22.4974 31.4511 21.4995 33.3281 20.5518C35.638 19.3848 37.461 17.6771 38.8557 15.5178C39.18 15.0161 39.3714 14.4279 39.7328 13.6382C31.1427 18.1119 29.4107 20.759 28.3105 24.4876Z" fill="white"/>
<path fill-rule="evenodd" clip-rule="evenodd" d="M14.1628 15.8334C15.5974 17.9676 17.4957 19.5871 19.8066 20.7308C21.5962 21.6172 23.2975 22.616 24.5704 24.3126C24.5017 24.1203 24.4357 23.927 24.3642 23.7347C22.438 18.5232 17.847 16.2729 13.2764 13.9426C13.5068 14.6088 13.7772 15.2611 14.1628 15.8334Z" fill="white"/>
<path fill-rule="evenodd" clip-rule="evenodd" d="M16.2265 23.7262C19.2092 23.9929 22.1546 24.1304 24.5194 26.3213C22.9351 23.1065 20.1792 21.6143 16.8509 20.9537C14.4695 20.4817 12.0843 20.032 9.6582 19.5637C11.0901 22.0259 13.3675 23.4698 16.2265 23.7262Z" fill="white"/>
<path fill-rule="evenodd" clip-rule="evenodd" d="M35.9486 20.9555C32.6742 21.6189 29.9229 23.0665 28.3638 26.2348C30.4591 24.3849 32.9966 23.8609 35.6745 23.8181C37.4641 23.7893 39.0855 23.2588 40.5526 22.2962C41.611 21.6003 42.6061 20.7966 43.0419 19.6176C40.6483 20.0663 38.2929 20.4816 35.9486 20.9555Z" fill="white"/>
<path fill-rule="evenodd" clip-rule="evenodd" d="M27.5522 28.4173C28.2947 27.9146 28.7676 27.5318 29.2954 27.2475C31.1128 26.2673 32.8922 26.7486 34.7208 27.3312C36.1768 27.7957 37.6988 28.225 39.2106 28.2993C41.1033 28.3913 43.0638 26.8796 43.4978 25.3317C41.5465 26.4011 39.5859 26.2376 37.6049 25.5705C37.1283 25.4097 36.6368 25.2917 36.1471 25.1719C35.4641 25.0028 34.7849 24.9182 34.1187 24.9182C31.6146 24.9182 29.2879 26.1047 27.5522 28.4173Z" fill="white"/>
<path fill-rule="evenodd" clip-rule="evenodd" d="M17.6591 25.0119C16.8786 25.128 16.0916 25.286 15.3455 25.5359C13.2855 26.2272 11.2488 26.4158 9.06152 25.2042C10.5064 27.6942 12.7355 28.7525 15.2294 28.2461C16.1409 28.0603 17.0459 27.7732 17.9082 27.422C20.3686 26.4186 22.7213 26.2253 24.9262 28.078C23.3011 26.0952 21.3312 24.9189 18.8801 24.9189C18.4852 24.9189 18.0791 24.9487 17.6591 25.0119Z" fill="white"/>
<mask id="mask0_6008_42888" style="mask-type:alpha" maskUnits="userSpaceOnUse" x="0" y="45" width="7" height="12">
<path d="M5.56777 45.7734C5.45298 46.0675 5.29059 46.354 5.24299 46.6612C5.005 48.1858 4.64475 49.6626 3.98584 51.0589C3.66199 51.7463 3.80105 52.1012 4.41236 52.5404C4.82301 52.8363 4.865 53.1575 4.52155 53.5415C3.75345 54.4012 2.84723 54.8048 1.71048 54.4602C1.16077 54.2935 0.857453 53.8917 0.812655 53.3027C0.758525 52.6078 1.05251 52.0328 1.32317 51.4438C1.54622 50.9606 1.77301 50.4792 1.9914 49.9941C2.04647 49.8705 2.08286 49.7085 1.955 49.6261C1.79914 49.5231 1.71515 49.6991 1.66288 49.8012C1.2933 50.5223 0.793056 51.1619 0.538268 51.9598C0.379608 52.4542 0.41974 53.0358 0.015625 53.4347V54.8469C0.0716225 54.9266 0.152819 54.9977 0.178951 55.0858C0.556934 56.3903 1.54996 56.7031 2.76137 56.1964C4.64475 55.407 5.21592 53.638 5.57151 51.7612C5.6219 51.4944 5.48191 51.2359 5.27099 51.0505C5.13473 50.9306 4.99193 50.821 4.86034 50.6993C4.53649 50.3987 4.76421 50.1355 4.90327 49.8508C5.04513 49.5596 5.20939 49.5643 5.44271 49.7253C5.60417 49.8377 5.79643 49.8265 5.94202 49.7001C6.46466 49.244 6.80345 48.6699 6.87625 47.9498C6.89678 47.7522 6.82492 47.5668 6.63266 47.5012C6.44693 47.4385 6.38627 47.6323 6.32094 47.7512C6.15388 48.0565 5.99429 47.9198 5.90189 47.725C5.81229 47.5368 5.74136 47.2999 5.76563 47.0976C5.81509 46.6996 5.7759 46.2885 5.92149 45.9045C5.97935 45.75 6.00175 45.5861 5.81603 45.5308C5.79456 45.5243 5.7759 45.5215 5.75816 45.5215C5.63777 45.5215 5.6079 45.6676 5.56777 45.7734Z" fill="white"/>
</mask>
<g mask="url(#mask0_6008_42888)">
<path fill-rule="evenodd" clip-rule="evenodd" d="M-0.557617 57.2752H7.46682V44.9043H-0.557617V57.2752Z" fill="white"/>
</g>
<mask id="mask1_6008_42888" style="mask-type:alpha" maskUnits="userSpaceOnUse" x="47" y="47" width="6" height="8">
<path d="M48.0648 49.866C47.7867 51.0647 47.4237 52.2475 47.5021 53.5014C47.545 54.2038 48.021 54.6814 48.6453 54.7039C49.2034 54.7236 49.4106 54.3003 49.6794 53.9435C49.8829 53.6728 50.0518 53.346 50.4858 53.5885C50.6164 53.6597 50.7779 53.6157 50.8908 53.5061C51.42 52.9883 52.2413 52.7804 52.4905 51.9609C52.5054 51.9122 52.5876 51.8841 52.6389 51.8467V51.2586C52.5176 51.2136 52.4112 51.2324 52.3552 51.3588C52.1312 51.8607 51.4676 51.9076 51.2641 52.4404C51.2408 52.4994 51.0504 52.5387 50.9543 52.5153C50.4765 52.4058 50.1199 52.5931 49.7737 52.9068C49.5618 53.0988 49.3173 53.214 48.9897 53.0341C48.4353 52.7279 48.1918 52.1698 48.3597 51.4094C48.5595 50.5075 48.7713 49.6076 48.9449 48.7011C48.9981 48.4248 49.0821 48.1083 48.8535 47.817C48.4176 48.4585 48.2291 49.1543 48.0648 49.866Z" fill="white"/>
</mask>
<g mask="url(#mask1_6008_42888)">
<path fill-rule="evenodd" clip-rule="evenodd" d="M46.8511 55.2971H53.2087V47.2424H46.8511V55.2971Z" fill="white"/>
</g>
<mask id="mask2_6008_42888" style="mask-type:alpha" maskUnits="userSpaceOnUse" x="16" y="43" width="13" height="12">
<path d="M28.0271 43.4205C26.4238 44.3485 24.8157 45.27 23.2263 46.2215C22.4993 46.657 21.7414 47.0634 21.3009 47.8585C20.8165 48.7294 20.6262 49.6593 20.6327 50.6426C20.6364 51.0715 20.6345 51.4986 20.4395 51.8984C20.362 52.0548 20.2594 52.2459 20.0839 52.156C19.4745 51.8404 19.1795 52.3536 18.8156 52.6261C18.3349 52.9857 17.8571 53.0662 17.4119 52.7722C16.9966 52.4978 16.7577 51.8123 16.8762 51.33C17.0815 50.49 17.27 49.6443 17.4586 48.8006C17.4931 48.6479 17.5734 48.4428 17.3438 48.3876C17.1543 48.3417 17.1338 48.5365 17.0712 48.6713C16.4655 49.9843 16.2341 51.3862 16.0502 52.8059C15.9634 53.4764 16.1837 53.998 16.6811 54.4241C17.1086 54.7903 17.5351 54.8043 17.9597 54.4298C18.2547 54.1703 18.5085 53.8651 18.7848 53.585C18.9985 53.3668 19.2299 53.187 19.5473 53.2723C19.7302 53.3032 19.9047 53.3341 20.0382 53.2123C20.4376 52.8462 20.8296 52.4772 21.0359 51.949C21.4642 50.8449 21.5566 49.6865 21.6266 48.5252C21.6453 48.2293 21.7461 48.027 21.9934 47.8791C23.3131 47.0906 24.6216 46.2824 25.9534 45.5163C26.8055 45.0266 27.7173 44.6351 28.3491 43.8354C28.4751 43.6771 28.7402 43.5319 28.5461 43.3072C28.4957 43.2482 28.4443 43.2257 28.393 43.2257C28.267 43.2257 28.1401 43.3559 28.0271 43.4205Z" fill="white"/>
</mask>
<g mask="url(#mask2_6008_42888)">
<path fill-rule="evenodd" clip-rule="evenodd" d="M15.458 55.2774H29.1858V42.6509H15.458V55.2774Z" fill="white"/>
</g>
<mask id="mask3_6008_42888" style="mask-type:alpha" maskUnits="userSpaceOnUse" x="10" y="47" width="7" height="8">
<path d="M11.1588 49.1693C10.9507 49.9681 10.7043 50.7613 10.5512 51.5714C10.4486 52.1173 10.2852 52.6614 10.3132 53.228C10.3674 54.3621 11.0524 54.9071 12.1257 54.6355C12.6399 54.5054 13.0142 54.1411 13.3464 53.7412C13.8289 53.1578 14.1192 52.4554 14.5205 51.8223C14.6026 51.6931 14.6176 51.5433 14.5177 51.4168C14.4216 51.2942 14.2891 51.3466 14.1621 51.3738C13.758 51.4599 13.3558 51.5732 12.9237 51.4833C13.717 51.0526 14.4113 50.4691 15.2765 50.2078C15.8113 50.0458 16.2098 49.7274 16.4963 49.2592C16.57 49.1384 16.6689 49.0063 16.5383 48.8677C16.43 48.7544 16.2872 48.8059 16.178 48.8574C15.7161 49.0747 15.2709 49.3322 14.7986 49.5261C13.7683 49.9484 12.8779 50.5412 12.2526 51.4796C12.1126 51.6894 11.9176 51.9319 12.121 52.1763C12.3058 52.3955 12.569 52.4367 12.8686 52.3402C13.142 52.2522 13.4398 52.2372 13.7692 52.1838C13.4127 52.8103 12.6343 53.1718 12.0249 53.0407C11.3305 52.8909 11.0599 52.3468 11.1961 51.6313C11.408 50.5057 11.6618 49.3922 11.9474 48.2843C11.9848 48.1448 12.0202 47.9678 11.8289 47.817C11.5498 48.2487 11.2876 48.673 11.1588 49.1693Z" fill="white"/>
</mask>
<g mask="url(#mask3_6008_42888)">
<path fill-rule="evenodd" clip-rule="evenodd" d="M9.71436 55.4804H17.2413V47.2422H9.71436V55.4804Z" fill="white"/>
</g>
<mask id="mask4_6008_42888" style="mask-type:alpha" maskUnits="userSpaceOnUse" x="34" y="48" width="7" height="9">
<path d="M40.2339 49.2555C39.8484 50.1161 39.6235 51.0105 39.6898 51.9741C39.728 52.5351 39.4994 52.9883 39.1811 53.4219C38.4233 54.452 37.3929 54.6412 36.2693 54.4773C35.4592 54.3584 35.1493 53.893 35.1241 53.0445C35.1036 52.3084 35.4918 51.7185 35.686 51.0592C35.7326 50.9037 35.8932 50.7155 35.7084 50.6069C35.5338 50.5029 35.4312 50.7249 35.3518 50.8616C34.7517 51.8926 34.3822 53.0052 34.3355 53.7956C34.3112 55.5505 35.1269 56.5067 36.3355 56.4215C37.1746 56.3625 37.9716 56.0291 38.5885 55.3726C39.7915 54.0915 40.2871 52.477 40.4821 50.7342C40.5335 50.2791 40.4392 49.8118 40.5456 49.3576C40.5773 49.2209 40.7239 49.0457 40.5204 48.9746C40.5008 48.968 40.4821 48.9652 40.4653 48.9652C40.3431 48.9652 40.2899 49.13 40.2339 49.2555Z" fill="white"/>
</mask>
<g mask="url(#mask4_6008_42888)">
<path fill-rule="evenodd" clip-rule="evenodd" d="M33.7378 57.0788H41.2946V48.3442H33.7378V57.0788Z" fill="white"/>
</g>
<mask id="mask5_6008_42888" style="mask-type:alpha" maskUnits="userSpaceOnUse" x="28" y="47" width="7" height="8">
<path d="M29.2413 48.1832C28.9109 48.835 28.8176 49.557 28.5936 50.2406C28.2987 51.1462 28.266 52.0967 28.042 52.9414C28.0402 53.4284 28.1904 53.8086 28.4041 54.1476C28.8241 54.8116 29.5922 54.8893 30.1643 54.3424C30.3286 54.187 30.4471 53.9884 30.5815 53.8067C30.7411 53.5932 30.9548 53.4481 31.2171 53.5539C31.6175 53.7168 31.8779 53.5164 32.1429 53.2936C32.267 53.1887 32.3744 53.0791 32.5498 53.036C33.121 52.9012 33.5466 52.5528 33.8658 52.0902C34.0851 51.7718 34.2904 51.4374 34.3305 51.0413C34.3399 50.9505 34.3455 50.8325 34.2213 50.8053C34.1747 50.7941 34.0842 50.8409 34.0618 50.884C33.9068 51.1752 33.5951 51.3326 33.414 51.5929C33.0426 52.1276 32.3482 52.1754 31.8863 52.5678C31.8573 52.5921 31.778 52.594 31.7435 52.5734C31.2964 52.314 31.008 52.6024 30.6916 52.8394C30.1886 53.2139 29.8461 53.1821 29.371 52.7607C28.84 52.2868 28.9053 51.6828 29.0238 51.1003C29.2161 50.162 29.47 49.2367 29.6921 48.3049C29.7313 48.1392 29.8237 47.9004 29.6174 47.832C29.5857 47.8217 29.5577 47.817 29.5325 47.817C29.357 47.817 29.3132 48.0427 29.2413 48.1832Z" fill="white"/>
</mask>
<g mask="url(#mask5_6008_42888)">
<path fill-rule="evenodd" clip-rule="evenodd" d="M27.4653 55.4616H34.9139V47.1757H27.4653V55.4616Z" fill="white"/>
</g>
<mask id="mask6_6008_42888" style="mask-type:alpha" maskUnits="userSpaceOnUse" x="41" y="48" width="3" height="7">
<path d="M42.2026 48.9175C41.7406 49.7117 41.707 50.6219 41.5026 51.4826C41.3131 52.2748 41.0882 53.0764 41.2553 53.9155C41.3281 54.2826 41.4951 54.558 41.8488 54.6638C42.2054 54.7724 42.5264 54.6628 42.7616 54.3604C43.1125 53.9108 43.287 53.3789 43.4569 52.8526C43.5428 52.5867 43.4261 52.2711 43.161 52.1624C42.8456 52.0341 42.8008 52.375 42.6832 52.5623C42.6123 52.6747 42.5675 52.8273 42.3929 52.8039C42.2091 52.7786 42.1522 52.6297 42.1298 52.4734C42.113 52.3582 42.1074 52.2392 42.1064 52.1212C42.0906 51.27 42.3556 50.4655 42.5413 49.6471C42.6328 49.2406 42.7159 48.8426 42.5516 48.3912C42.3463 48.5514 42.3006 48.7508 42.2026 48.9175Z" fill="white"/>
</mask>
<g mask="url(#mask6_6008_42888)">
<path fill-rule="evenodd" clip-rule="evenodd" d="M40.5156 55.3445H44.1135V47.8162H40.5156V55.3445Z" fill="white"/>
</g>
<mask id="mask7_6008_42888" style="mask-type:alpha" maskUnits="userSpaceOnUse" x="21" y="51" width="4" height="5">
<path d="M22.6613 51.8844C22.5428 52.0839 22.4681 52.3096 22.3757 52.5241C22.2106 52.9108 22.3197 53.2227 22.6819 53.4231C22.9927 53.5944 22.9031 53.7284 22.7005 53.911C22.3067 54.2631 21.855 54.5309 21.4033 54.8006C21.2745 54.8765 21.1195 54.9776 21.2017 55.1593C21.2903 55.3597 21.4658 55.2548 21.6039 55.2202C23.0281 54.8681 23.981 53.6975 24.023 52.1991C24.0977 51.773 23.9017 51.3918 23.4332 51.2776C23.3865 51.2664 23.3426 51.2607 23.3016 51.2607C22.9647 51.2607 22.8191 51.6204 22.6613 51.8844Z" fill="white"/>
</mask>
<g mask="url(#mask7_6008_42888)">
<path fill-rule="evenodd" clip-rule="evenodd" d="M20.5469 55.9327H24.6683V50.5975H20.5469V55.9327Z" fill="white"/>
</g>
<mask id="mask8_6008_42888" style="mask-type:alpha" maskUnits="userSpaceOnUse" x="24" y="50" width="3" height="5">
<path d="M25.967 50.7015C25.5115 50.8598 25.2007 52.08 25.5311 52.4097C25.9959 52.8742 25.9726 53.1542 25.4089 53.5335C25.1335 53.7189 24.8302 53.8715 24.5465 54.0495C24.4 54.1422 24.2534 54.2443 24.1368 54.3651C23.9781 54.528 24.0015 54.6629 24.2749 54.6994C24.7294 54.7621 25.8914 54.2171 26.0603 53.8294C26.1826 53.5531 26.3524 53.3087 26.5353 53.068C26.778 52.7478 26.8891 52.3956 26.8937 51.9527C26.932 51.521 26.7276 51.1258 26.3001 50.8186C26.2217 50.7624 26.148 50.6875 26.0454 50.6875C26.0211 50.6875 25.995 50.6912 25.967 50.7015Z" fill="white"/>
</mask>
<g mask="url(#mask8_6008_42888)">
<path fill-rule="evenodd" clip-rule="evenodd" d="M23.4062 55.3343H27.5034V50.0751H23.4062V55.3343Z" fill="white"/>
</g>
<mask id="mask9_6008_42888" style="mask-type:alpha" maskUnits="userSpaceOnUse" x="18" y="44" width="4" height="3">
<path d="M20.1523 44.7957C20.0655 44.9642 19.9834 45.1394 19.8686 45.3707C19.8023 45.2667 19.7659 45.2096 19.7286 45.1515C19.3431 44.5391 19.1117 44.5363 18.7533 45.1609C18.6329 45.3716 18.547 45.6114 18.4425 45.8361C18.3613 46.0122 18.226 46.2182 18.4154 46.3718C18.6198 46.5385 18.8382 46.8044 19.1257 46.59C19.2787 46.4748 19.4141 46.3156 19.5438 46.1601C19.6409 46.0431 19.7155 46.0009 19.863 46.0684C20.5265 46.3718 20.8289 46.2116 21.1192 45.4409C21.2676 45.0467 21.1351 44.6533 20.7739 44.4408C20.6964 44.3949 20.6283 44.3743 20.5685 44.3743C20.3735 44.3743 20.2615 44.5868 20.1523 44.7957Z" fill="white"/>
</mask>
<g mask="url(#mask9_6008_42888)">
<path fill-rule="evenodd" clip-rule="evenodd" d="M17.6538 47.3774H21.8396V43.6689H17.6538V47.3774Z" fill="white"/>
</g>
<mask id="mask10_6008_42888" style="mask-type:alpha" maskUnits="userSpaceOnUse" x="6" y="52" width="4" height="3">
<path d="M8.75656 52.5209C8.56711 52.8459 8.31325 52.9499 7.9586 52.7869C7.90727 52.7635 7.82047 52.7832 7.76541 52.8113C7.09344 53.1615 6.5484 53.6344 6.32534 54.3902C6.25068 54.6383 6.41027 54.7722 6.61466 54.6702C6.93945 54.5063 7.2465 54.481 7.54142 54.5821C8.19752 54.5709 9.25494 53.2842 9.16068 52.6605C9.14668 52.5575 9.12801 52.4573 9.01415 52.4207C8.98895 52.4123 8.96375 52.4086 8.93949 52.4086C8.86296 52.4086 8.79856 52.4498 8.75656 52.5209Z" fill="white"/>
</mask>
<g mask="url(#mask10_6008_42888)">
<path fill-rule="evenodd" clip-rule="evenodd" d="M5.6792 55.3457H9.82488V51.8114H5.6792V55.3457Z" fill="white"/>
</g>
<mask id="mask11_6008_42888" style="mask-type:alpha" maskUnits="userSpaceOnUse" x="44" y="51" width="3" height="4">
<path d="M46.5243 51.4836C46.4506 51.6222 46.3694 51.7646 46.3311 51.9144C46.1323 52.6926 45.6703 53.2601 45.0208 53.6918C44.7342 53.8801 44.4627 54.0917 44.1911 54.3006C44.1024 54.368 44.0315 54.4607 44.0669 54.5862C44.0931 54.6742 44.1799 54.7238 44.2499 54.6976C44.7688 54.4972 45.4062 54.4804 45.7777 54.0515C46.3768 53.3594 46.7343 52.5081 46.9097 51.5923C46.9163 51.4621 46.9489 51.3132 46.7903 51.2682C46.7716 51.2636 46.7548 51.2607 46.739 51.2607C46.6223 51.2607 46.5747 51.389 46.5243 51.4836Z" fill="white"/>
</mask>
<g mask="url(#mask11_6008_42888)">
<path fill-rule="evenodd" clip-rule="evenodd" d="M43.4585 55.2974H47.522V50.6506H43.4585V55.2974Z" fill="white"/>
</g>
<mask id="mask12_6008_42888" style="mask-type:alpha" maskUnits="userSpaceOnUse" x="35" y="46" width="2" height="5">
<path d="M36.3091 46.3766C35.667 47.3712 35.7286 48.613 35.4924 49.7508C35.4644 49.8828 35.4626 50.0767 35.625 50.1095C35.7715 50.1385 35.8247 49.9765 35.8816 49.8435C36.3053 48.8593 36.4481 47.7832 36.5947 46.7082C36.5975 46.6435 36.6049 46.5789 36.6012 46.5134C36.5956 46.3748 36.6815 46.1828 36.5415 46.1135C36.5163 46.1013 36.4948 46.0957 36.4771 46.0957C36.3679 46.0957 36.3641 46.2905 36.3091 46.3766Z" fill="white"/>
</mask>
<g mask="url(#mask12_6008_42888)">
<path fill-rule="evenodd" clip-rule="evenodd" d="M34.8896 50.7125H37.2518V45.4523H34.8896V50.7125Z" fill="white"/>
</g>
<mask id="mask13_6008_42888" style="mask-type:alpha" maskUnits="userSpaceOnUse" x="36" y="50" width="3" height="3">
<path d="M36.9059 51.3674C36.8135 51.5509 36.7454 51.7457 36.6726 51.9377C36.4616 52.4884 36.9609 52.6241 37.2605 52.8732C37.562 53.1233 37.7412 52.8957 37.9176 52.6916C38.1724 52.3975 38.345 52.0744 38.3366 51.8216C38.3403 51.1482 38.0604 50.7465 37.5993 50.6931C37.5685 50.6894 37.5396 50.6875 37.5116 50.6875C37.0953 50.6875 37.0477 51.0864 36.9059 51.3674Z" fill="white"/>
</mask>
<g mask="url(#mask13_6008_42888)">
<path fill-rule="evenodd" clip-rule="evenodd" d="M35.8872 53.6966H38.9139V50.0593H35.8872V53.6966Z" fill="white"/>
</g>
<mask id="mask14_6008_42888" style="mask-type:alpha" maskUnits="userSpaceOnUse" x="13" y="55" width="3" height="2">
<path d="M14.2202 55.7106C14.1166 55.8174 14.0448 55.9475 13.9486 56.0609C13.7527 56.2912 13.6313 56.5328 13.8889 56.7791C14.1362 57.0151 14.476 57.0563 14.7849 56.9299C15.1787 56.767 15.3859 56.4523 15.4578 56.0852C15.4111 55.7162 15.1993 55.4372 14.8325 55.3079C14.7737 55.2873 14.7223 55.278 14.6775 55.278C14.4256 55.278 14.364 55.5617 14.2202 55.7106Z" fill="white"/>
</mask>
<g mask="url(#mask14_6008_42888)">
<path fill-rule="evenodd" clip-rule="evenodd" d="M13.0586 57.6292H16.0302V54.5969H13.0586V57.6292Z" fill="white"/>
</g>
<mask id="mask15_6008_42888" style="mask-type:alpha" maskUnits="userSpaceOnUse" x="45" y="46" width="2" height="3">
<path d="M45.535 46.9678C45.4267 47.1757 45.3502 47.4117 45.269 47.6412C45.1048 48.1132 45.2336 48.3595 45.7123 48.3838C45.9307 48.4306 46.1024 48.2574 46.2191 47.953C46.347 47.6187 46.4132 47.2731 46.2434 46.9472C46.1472 46.7618 46.0231 46.67 45.899 46.67C45.7693 46.67 45.6377 46.7693 45.535 46.9678Z" fill="white"/>
</mask>
<g mask="url(#mask15_6008_42888)">
<path fill-rule="evenodd" clip-rule="evenodd" d="M44.5312 49.0041H46.9849V45.9933H44.5312V49.0041Z" fill="white"/>
</g>
<mask id="mask16_6008_42888" style="mask-type:alpha" maskUnits="userSpaceOnUse" x="8" y="45" width="2" height="3">
<path d="M8.84246 45.9588C8.7538 46.1349 8.6922 46.3325 8.6278 46.5254C8.50927 46.8738 8.71367 47.2315 9.03192 47.2427C9.3987 47.2558 9.84948 46.5067 9.71322 46.0852C9.63202 45.8333 9.52843 45.5627 9.26711 45.5252C9.25124 45.5224 9.23631 45.5215 9.22231 45.5215C9.00579 45.5215 8.93579 45.7743 8.84246 45.9588Z" fill="white"/>
</mask>
<g mask="url(#mask16_6008_42888)">
<path fill-rule="evenodd" clip-rule="evenodd" d="M7.93799 47.8288H10.4205V44.9126H7.93799V47.8288Z" fill="white"/>
</g>
<mask id="mask17_6008_42888" style="mask-type:alpha" maskUnits="userSpaceOnUse" x="31" y="47" width="2" height="3">
<path d="M31.8877 47.9305C31.7011 48.2048 31.5331 48.4942 31.4808 48.8445C31.4388 49.1329 31.5863 49.3202 31.7841 49.4653C31.9279 49.573 32.0772 49.5646 32.2041 49.4269C32.4402 49.1675 32.5672 48.8435 32.6176 48.4792C32.6297 48.1786 32.4626 48.0166 32.2657 47.8827C32.2051 47.8415 32.1416 47.8171 32.0819 47.8171C32.01 47.8171 31.9428 47.8518 31.8877 47.9305Z" fill="white"/>
</mask>
<g mask="url(#mask17_6008_42888)">
<path fill-rule="evenodd" clip-rule="evenodd" d="M30.8657 50.1453H33.2008V47.2103H30.8657V50.1453Z" fill="white"/>
</g>
<mask id="mask18_6008_42888" style="mask-type:alpha" maskUnits="userSpaceOnUse" x="13" y="44" width="2" height="3">
<path d="M13.6279 45.3102C13.4468 45.5162 13.3041 45.7531 13.1977 45.9919C13.0661 46.286 13.444 46.6849 13.8034 46.669C14.2597 46.6475 14.9942 45.9329 14.8729 45.5808C14.7852 45.3223 14.6172 45.0573 14.2635 44.9665C14.2131 44.9534 14.1683 44.9478 14.1263 44.9478C13.8715 44.9478 13.7558 45.166 13.6279 45.3102Z" fill="white"/>
</mask>
<g mask="url(#mask18_6008_42888)">
<path fill-rule="evenodd" clip-rule="evenodd" d="M12.4917 47.2587H15.5641V44.2994H12.4917V47.2587Z" fill="white"/>
</g>
<mask id="mask19_6008_42888" style="mask-type:alpha" maskUnits="userSpaceOnUse" x="8" y="49" width="2" height="3">
<path d="M8.84816 49.6311C8.60737 49.7837 8.44777 50.0019 8.41417 50.3063C8.39831 50.4552 8.39178 50.5751 8.20978 50.6078C8.03059 50.6397 8.00073 50.8082 8.03806 50.9768C8.07632 51.1444 8.18459 51.2409 8.32365 51.2606C8.66896 51.2812 9.10761 50.7005 8.95828 50.4056C8.83602 50.1611 8.86495 50.031 9.06468 49.8905C9.15801 49.824 9.20841 49.6985 9.12721 49.5946C9.09641 49.5543 9.06375 49.5393 9.03108 49.5393C8.96855 49.5393 8.90602 49.5946 8.84816 49.6311Z" fill="white"/>
</mask>
<g mask="url(#mask19_6008_42888)">
<path fill-rule="evenodd" clip-rule="evenodd" d="M7.42773 51.8543H9.78056V48.9016H7.42773V51.8543Z" fill="white"/>
</g>
<mask id="mask20_6008_42888" style="mask-type:alpha" maskUnits="userSpaceOnUse" x="52" y="47" width="1" height="3">
<path d="M52.1802 47.5336C52.1205 47.6423 52.0953 47.7865 52.1429 47.8989C52.3463 48.3849 52.2642 48.8447 52.0944 49.3026C52.0673 49.3757 52.0412 49.4665 52.1056 49.5162C52.1886 49.5817 52.2455 49.4956 52.2763 49.4103C52.4462 48.9393 52.6842 48.4945 52.6291 47.9569C52.6291 47.8333 52.6347 47.7359 52.6273 47.6423C52.6161 47.4887 52.6385 47.2939 52.4826 47.2508C52.4658 47.2461 52.4499 47.2443 52.435 47.2443C52.3053 47.2443 52.2474 47.411 52.1802 47.5336Z" fill="white"/>
</mask>
<g mask="url(#mask20_6008_42888)">
<path fill-rule="evenodd" clip-rule="evenodd" d="M51.4688 50.154H53.2084V46.63H51.4688V50.154Z" fill="white"/>
</g>
</svg>
