<svg width="141" height="140" viewBox="0 0 141 140" fill="none" xmlns="http://www.w3.org/2000/svg">
<path fill-rule="evenodd" clip-rule="evenodd" d="M65.3271 45.3965C65.2537 45.3974 65.1793 45.3983 65.105 45.4002C61.1309 45.495 57.1541 45.4253 53.1791 45.4253H52.0566V84.1188H70.8714C70.9058 83.8828 70.9439 83.7453 70.9439 83.6087C70.9393 81.3778 71.0034 79.1433 70.9012 76.9152C70.7609 73.8501 68.4974 72.1061 65.499 72.8057C64.2204 73.103 62.9921 73.7014 61.8074 74.2933C59.9667 75.2149 58.1529 76.132 55.7891 75.6349C56.8595 76.8316 57.9764 77.3464 59.3544 77.3584C60.8856 77.3733 62.1205 76.683 63.3358 75.8616C64.2279 75.2577 65.1366 74.6389 66.1196 74.218C67.9743 73.4245 69.7369 74.2208 69.959 76.1868C70.2182 78.4762 70.0203 80.8157 70.0203 83.1673H52.9747V46.399C53.3974 46.3795 53.7524 46.3488 54.1055 46.3488C58.0089 46.3461 61.9114 46.3405 65.8139 46.3507C68.6256 46.3581 70.2489 47.6701 70.8993 50.3803C70.9551 50.6154 71.2589 50.7938 71.4457 50.9982C71.611 50.8096 71.9037 50.6312 71.9205 50.4296C72.136 47.999 74.4125 46.308 76.9547 46.3358C79.614 46.3656 82.2742 46.3591 84.9335 46.3535C86.2492 46.3507 87.5649 46.3488 88.8806 46.3488C89.1919 46.3488 89.5032 46.3962 89.8405 46.4241V83.1571H72.6146C72.6146 81.1084 72.5978 79.134 72.6276 77.1605C72.635 76.7034 72.7576 76.2314 72.911 75.7947C73.4332 74.3072 74.7489 73.6048 76.2662 74.0591C76.912 74.2533 77.5252 74.5952 78.1087 74.9446C79.0361 75.5002 79.8974 76.1729 80.8386 76.7006C83.0705 77.9512 85.7177 77.4448 86.9851 75.5615C85.0478 76.1822 83.3613 75.4584 81.6907 74.6463C80.6212 74.126 79.5778 73.5388 78.4739 73.103C74.8483 71.6722 72.1407 73.3651 71.8982 77.2312C71.796 78.845 71.8694 80.4692 71.8638 82.0896C71.861 82.7539 71.8638 83.4182 71.8638 84.0835H90.7789V45.5219C90.6107 45.482 90.5095 45.4364 90.4073 45.4364C85.7103 45.4346 81.0105 45.3714 76.3145 45.4875C75.2645 45.5126 74.1523 46.0274 73.2129 46.5663C72.4826 46.9853 71.9753 47.7899 71.3221 48.4728C70.0082 46.189 67.9836 45.4132 65.4925 45.3965H65.3271Z" fill="white"/>
<path fill-rule="evenodd" clip-rule="evenodd" d="M69.9807 61.5464C70.4564 63.9938 70.8801 66.4522 71.3271 68.906C71.8279 67.045 72.1596 65.21 72.5712 63.3935C73.3796 59.8387 73.0358 56.4204 71.3977 52.9697C70.2046 55.8081 69.4009 58.5546 69.9807 61.5464Z" fill="white"/>
<path fill-rule="evenodd" clip-rule="evenodd" d="M72.4365 68.3517C73.6918 66.4944 75.1729 64.6259 76.2814 62.5605C77.2887 60.6855 77.9261 58.608 78.648 56.5918C78.819 56.1142 78.6731 55.5233 78.6731 54.8283C74.7232 58.7241 73.0934 63.4209 72.4365 68.3517Z" fill="white"/>
<path fill-rule="evenodd" clip-rule="evenodd" d="M63.9004 55.0035C64.1596 56.2476 64.3966 57.4972 64.6855 58.7339C65.5961 62.6316 69.1679 65.0315 70.3479 68.7843C69.7439 63.5226 68.1476 58.7098 64.2293 54.9291C64.1197 54.9533 64.01 54.9784 63.9004 55.0035Z" fill="white"/>
<path fill-rule="evenodd" clip-rule="evenodd" d="M73.3105 69.4876C74.6151 67.4974 76.4511 66.4995 78.3281 65.5518C80.638 64.3848 82.461 62.6771 83.8557 60.5178C84.18 60.0161 84.3714 59.4279 84.7328 58.6382C76.1427 63.1119 74.4107 65.759 73.3105 69.4876Z" fill="white"/>
<path fill-rule="evenodd" clip-rule="evenodd" d="M59.1628 60.8334C60.5974 62.9676 62.4957 64.5871 64.8066 65.7308C66.5962 66.6172 68.2975 67.616 69.5704 69.3126C69.5017 69.1203 69.4357 68.927 69.3642 68.7347C67.438 63.5232 62.847 61.2729 58.2764 58.9426C58.5068 59.6088 58.7772 60.2611 59.1628 60.8334Z" fill="white"/>
<path fill-rule="evenodd" clip-rule="evenodd" d="M61.2265 68.7262C64.2092 68.9929 67.1546 69.1304 69.5194 71.3213C67.9351 68.1065 65.1792 66.6143 61.8509 65.9537C59.4695 65.4817 57.0843 65.032 54.6582 64.5637C56.0901 67.0259 58.3675 68.4698 61.2265 68.7262Z" fill="white"/>
<path fill-rule="evenodd" clip-rule="evenodd" d="M80.9486 65.9555C77.6742 66.6189 74.9229 68.0665 73.3638 71.2348C75.4591 69.3849 77.9966 68.8609 80.6745 68.8181C82.4641 68.7893 84.0855 68.2588 85.5526 67.2962C86.611 66.6003 87.6061 65.7966 88.0419 64.6176C85.6483 65.0663 83.2929 65.4816 80.9486 65.9555Z" fill="white"/>
<path fill-rule="evenodd" clip-rule="evenodd" d="M72.5522 73.4173C73.2947 72.9146 73.7676 72.5318 74.2954 72.2475C76.1128 71.2673 77.8922 71.7486 79.7208 72.3312C81.1768 72.7957 82.6988 73.225 84.2106 73.2993C86.1033 73.3913 88.0638 71.8796 88.4978 70.3317C86.5465 71.4011 84.5859 71.2376 82.6049 70.5705C82.1283 70.4097 81.6368 70.2917 81.1471 70.1719C80.4641 70.0028 79.7849 69.9182 79.1187 69.9182C76.6146 69.9182 74.2879 71.1047 72.5522 73.4173Z" fill="white"/>
<path fill-rule="evenodd" clip-rule="evenodd" d="M62.6591 70.0119C61.8786 70.128 61.0916 70.286 60.3455 70.5359C58.2855 71.2272 56.2488 71.4158 54.0615 70.2042C55.5064 72.6942 57.7355 73.7525 60.2294 73.2461C61.1409 73.0603 62.0459 72.7732 62.9082 72.422C65.3686 71.4186 67.7213 71.2253 69.9262 73.078C68.3011 71.0952 66.3312 69.9189 63.8801 69.9189C63.4852 69.9189 63.0791 69.9487 62.6591 70.0119Z" fill="white"/>
<mask id="mask0_6008_42887" style="mask-type:alpha" maskUnits="userSpaceOnUse" x="45" y="90" width="7" height="12">
<path d="M50.5678 90.7734C50.453 91.0675 50.2906 91.354 50.243 91.6612C50.005 93.1858 49.6447 94.6626 48.9858 96.0589C48.662 96.7463 48.8011 97.1012 49.4124 97.5404C49.823 97.8363 49.865 98.1575 49.5216 98.5415C48.7535 99.4012 47.8472 99.8048 46.7105 99.4602C46.1608 99.2935 45.8575 98.8917 45.8127 98.3027C45.7585 97.6078 46.0525 97.0328 46.3232 96.4438C46.5462 95.9606 46.773 95.4792 46.9914 94.9941C47.0465 94.8705 47.0829 94.7085 46.955 94.6261C46.7991 94.5231 46.7151 94.6991 46.6629 94.8012C46.2933 95.5223 45.7931 96.1619 45.5383 96.9598C45.3796 97.4542 45.4197 98.0358 45.0156 98.4347V99.8469C45.0716 99.9266 45.1528 99.9977 45.179 100.086C45.5569 101.39 46.55 101.703 47.7614 101.196C49.6447 100.407 50.2159 98.638 50.5715 96.7612C50.6219 96.4944 50.4819 96.2359 50.271 96.0505C50.1347 95.9306 49.9919 95.821 49.8603 95.6993C49.5365 95.3987 49.7642 95.1355 49.9033 94.8508C50.0451 94.5596 50.2094 94.5643 50.4427 94.7253C50.6042 94.8377 50.7964 94.8265 50.942 94.7001C51.4647 94.244 51.8034 93.6699 51.8762 92.9498C51.8968 92.7522 51.8249 92.5668 51.6327 92.5012C51.4469 92.4385 51.3863 92.6323 51.3209 92.7512C51.1539 93.0565 50.9943 92.9198 50.9019 92.725C50.8123 92.5368 50.7414 92.2999 50.7656 92.0976C50.8151 91.6996 50.7759 91.2885 50.9215 90.9045C50.9794 90.75 51.0018 90.5861 50.816 90.5308C50.7946 90.5243 50.7759 90.5215 50.7582 90.5215C50.6378 90.5215 50.6079 90.6676 50.5678 90.7734Z" fill="white"/>
</mask>
<g mask="url(#mask0_6008_42887)">
<path fill-rule="evenodd" clip-rule="evenodd" d="M44.4424 102.275H52.4668V89.9043H44.4424V102.275Z" fill="white"/>
</g>
<mask id="mask1_6008_42887" style="mask-type:alpha" maskUnits="userSpaceOnUse" x="92" y="92" width="6" height="8">
<path d="M93.0648 94.866C92.7867 96.0647 92.4237 97.2475 92.5021 98.5014C92.545 99.2038 93.021 99.6814 93.6453 99.7039C94.2034 99.7236 94.4106 99.3003 94.6794 98.9435C94.8829 98.6728 95.0518 98.346 95.4858 98.5885C95.6164 98.6597 95.7779 98.6157 95.8908 98.5061C96.42 97.9883 97.2413 97.7804 97.4905 96.9609C97.5054 96.9122 97.5876 96.8841 97.6389 96.8467V96.2586C97.5176 96.2136 97.4112 96.2324 97.3552 96.3588C97.1312 96.8607 96.4676 96.9076 96.2641 97.4404C96.2408 97.4994 96.0504 97.5387 95.9543 97.5153C95.4765 97.4058 95.1199 97.5931 94.7737 97.9068C94.5618 98.0988 94.3173 98.214 93.9897 98.0341C93.4353 97.7279 93.1918 97.1698 93.3597 96.4094C93.5595 95.5075 93.7713 94.6076 93.9449 93.7011C93.9981 93.4248 94.0821 93.1083 93.8535 92.817C93.4176 93.4585 93.2291 94.1543 93.0648 94.866Z" fill="white"/>
</mask>
<g mask="url(#mask1_6008_42887)">
<path fill-rule="evenodd" clip-rule="evenodd" d="M91.8511 100.297H98.2087V92.2424H91.8511V100.297Z" fill="white"/>
</g>
<mask id="mask2_6008_42887" style="mask-type:alpha" maskUnits="userSpaceOnUse" x="61" y="88" width="13" height="12">
<path d="M73.0271 88.4205C71.4238 89.3485 69.8157 90.27 68.2263 91.2215C67.4993 91.657 66.7414 92.0634 66.3009 92.8585C65.8165 93.7294 65.6262 94.6593 65.6327 95.6426C65.6364 96.0715 65.6345 96.4986 65.4395 96.8984C65.362 97.0548 65.2594 97.2459 65.0839 97.156C64.4745 96.8404 64.1795 97.3536 63.8156 97.6261C63.3349 97.9857 62.8571 98.0662 62.4119 97.7722C61.9966 97.4978 61.7577 96.8123 61.8762 96.33C62.0815 95.49 62.27 94.6443 62.4586 93.8006C62.4931 93.6479 62.5734 93.4428 62.3438 93.3876C62.1543 93.3417 62.1338 93.5365 62.0712 93.6713C61.4655 94.9843 61.2341 96.3862 61.0502 97.8059C60.9634 98.4764 61.1837 98.998 61.6811 99.4241C62.1086 99.7903 62.5351 99.8043 62.9597 99.4298C63.2547 99.1703 63.5085 98.8651 63.7848 98.585C63.9985 98.3668 64.2299 98.187 64.5473 98.2723C64.7302 98.3032 64.9047 98.3341 65.0382 98.2123C65.4376 97.8462 65.8296 97.4772 66.0359 96.949C66.4642 95.8449 66.5566 94.6865 66.6266 93.5252C66.6453 93.2293 66.7461 93.027 66.9934 92.8791C68.3131 92.0906 69.6216 91.2824 70.9534 90.5163C71.8055 90.0266 72.7173 89.6351 73.3491 88.8354C73.4751 88.6771 73.7402 88.5319 73.5461 88.3072C73.4957 88.2482 73.4443 88.2257 73.393 88.2257C73.267 88.2257 73.1401 88.3559 73.0271 88.4205Z" fill="white"/>
</mask>
<g mask="url(#mask2_6008_42887)">
<path fill-rule="evenodd" clip-rule="evenodd" d="M60.458 100.277H74.1858V87.6509H60.458V100.277Z" fill="white"/>
</g>
<mask id="mask3_6008_42887" style="mask-type:alpha" maskUnits="userSpaceOnUse" x="55" y="92" width="7" height="8">
<path d="M56.1588 94.1693C55.9507 94.9681 55.7043 95.7613 55.5512 96.5714C55.4486 97.1173 55.2852 97.6614 55.3132 98.228C55.3674 99.3621 56.0524 99.9071 57.1257 99.6355C57.6399 99.5054 58.0142 99.1411 58.3464 98.7412C58.8289 98.1578 59.1192 97.4554 59.5205 96.8223C59.6026 96.6931 59.6176 96.5433 59.5177 96.4168C59.4216 96.2942 59.2891 96.3466 59.1621 96.3738C58.758 96.4599 58.3558 96.5732 57.9237 96.4833C58.717 96.0526 59.4113 95.4691 60.2765 95.2078C60.8113 95.0458 61.2098 94.7274 61.4963 94.2592C61.57 94.1384 61.6689 94.0063 61.5383 93.8677C61.43 93.7544 61.2872 93.8059 61.178 93.8574C60.7161 94.0747 60.2709 94.3322 59.7986 94.5261C58.7683 94.9484 57.8779 95.5412 57.2526 96.4796C57.1126 96.6894 56.9176 96.9319 57.121 97.1763C57.3058 97.3955 57.569 97.4367 57.8686 97.3402C58.142 97.2522 58.4398 97.2372 58.7692 97.1838C58.4127 97.8103 57.6343 98.1718 57.0249 98.0407C56.3305 97.8909 56.0599 97.3468 56.1961 96.6313C56.408 95.5057 56.6618 94.3922 56.9474 93.2843C56.9848 93.1448 57.0202 92.9678 56.8289 92.817C56.5498 93.2487 56.2876 93.673 56.1588 94.1693Z" fill="white"/>
</mask>
<g mask="url(#mask3_6008_42887)">
<path fill-rule="evenodd" clip-rule="evenodd" d="M54.7144 100.48H62.2413V92.2422H54.7144V100.48Z" fill="white"/>
</g>
<mask id="mask4_6008_42887" style="mask-type:alpha" maskUnits="userSpaceOnUse" x="79" y="93" width="7" height="9">
<path d="M85.2339 94.2555C84.8484 95.1161 84.6235 96.0105 84.6898 96.9741C84.728 97.5351 84.4994 97.9883 84.1811 98.4219C83.4233 99.452 82.3929 99.6412 81.2693 99.4773C80.4592 99.3584 80.1493 98.893 80.1241 98.0445C80.1036 97.3084 80.4918 96.7185 80.686 96.0592C80.7326 95.9037 80.8932 95.7155 80.7084 95.6069C80.5338 95.5029 80.4312 95.7249 80.3518 95.8616C79.7517 96.8926 79.3822 98.0052 79.3355 98.7956C79.3112 100.551 80.1269 101.507 81.3355 101.421C82.1746 101.362 82.9716 101.029 83.5885 100.373C84.7915 99.0915 85.2871 97.477 85.4821 95.7342C85.5335 95.2791 85.4392 94.8118 85.5456 94.3576C85.5773 94.2209 85.7239 94.0457 85.5204 93.9746C85.5008 93.968 85.4821 93.9652 85.4653 93.9652C85.3431 93.9652 85.2899 94.13 85.2339 94.2555Z" fill="white"/>
</mask>
<g mask="url(#mask4_6008_42887)">
<path fill-rule="evenodd" clip-rule="evenodd" d="M78.7378 102.079H86.2946V93.3442H78.7378V102.079Z" fill="white"/>
</g>
<mask id="mask5_6008_42887" style="mask-type:alpha" maskUnits="userSpaceOnUse" x="73" y="92" width="7" height="8">
<path d="M74.2413 93.1832C73.9109 93.835 73.8176 94.557 73.5936 95.2406C73.2987 96.1462 73.266 97.0967 73.042 97.9414C73.0402 98.4284 73.1904 98.8086 73.4041 99.1476C73.8241 99.8116 74.5922 99.8893 75.1643 99.3424C75.3286 99.187 75.4471 98.9884 75.5815 98.8067C75.7411 98.5932 75.9548 98.4481 76.2171 98.5539C76.6175 98.7168 76.8779 98.5164 77.1429 98.2936C77.267 98.1887 77.3744 98.0791 77.5498 98.036C78.121 97.9012 78.5466 97.5528 78.8658 97.0902C79.0851 96.7718 79.2904 96.4374 79.3305 96.0413C79.3399 95.9505 79.3455 95.8325 79.2213 95.8053C79.1747 95.7941 79.0842 95.8409 79.0618 95.884C78.9068 96.1752 78.5951 96.3326 78.414 96.5929C78.0426 97.1276 77.3482 97.1754 76.8863 97.5678C76.8573 97.5921 76.778 97.594 76.7435 97.5734C76.2964 97.314 76.008 97.6024 75.6916 97.8394C75.1886 98.2139 74.8461 98.1821 74.371 97.7607C73.84 97.2868 73.9053 96.6828 74.0238 96.1003C74.2161 95.162 74.47 94.2367 74.6921 93.3049C74.7313 93.1392 74.8237 92.9004 74.6174 92.832C74.5857 92.8217 74.5577 92.817 74.5325 92.817C74.357 92.817 74.3132 93.0427 74.2413 93.1832Z" fill="white"/>
</mask>
<g mask="url(#mask5_6008_42887)">
<path fill-rule="evenodd" clip-rule="evenodd" d="M72.4653 100.462H79.9139V92.1757H72.4653V100.462Z" fill="white"/>
</g>
<mask id="mask6_6008_42887" style="mask-type:alpha" maskUnits="userSpaceOnUse" x="86" y="93" width="3" height="7">
<path d="M87.2026 93.9175C86.7406 94.7117 86.707 95.6219 86.5026 96.4826C86.3131 97.2748 86.0882 98.0764 86.2553 98.9155C86.3281 99.2826 86.4951 99.558 86.8488 99.6638C87.2054 99.7724 87.5264 99.6628 87.7616 99.3604C88.1125 98.9108 88.287 98.3789 88.4569 97.8526C88.5428 97.5867 88.4261 97.2711 88.161 97.1624C87.8456 97.0341 87.8008 97.375 87.6832 97.5623C87.6123 97.6747 87.5675 97.8273 87.3929 97.8039C87.2091 97.7786 87.1522 97.6297 87.1298 97.4734C87.113 97.3582 87.1074 97.2392 87.1064 97.1212C87.0906 96.27 87.3556 95.4655 87.5413 94.6471C87.6328 94.2406 87.7159 93.8426 87.5516 93.3912C87.3463 93.5514 87.3006 93.7508 87.2026 93.9175Z" fill="white"/>
</mask>
<g mask="url(#mask6_6008_42887)">
<path fill-rule="evenodd" clip-rule="evenodd" d="M85.5156 100.345H89.1135V92.8162H85.5156V100.345Z" fill="white"/>
</g>
<mask id="mask7_6008_42887" style="mask-type:alpha" maskUnits="userSpaceOnUse" x="66" y="96" width="4" height="5">
<path d="M67.6613 96.8844C67.5428 97.0839 67.4681 97.3096 67.3757 97.5241C67.2106 97.9108 67.3197 98.2227 67.6819 98.4231C67.9927 98.5944 67.9031 98.7284 67.7005 98.911C67.3067 99.2631 66.855 99.5309 66.4033 99.8006C66.2745 99.8765 66.1195 99.9776 66.2017 100.159C66.2903 100.36 66.4658 100.255 66.6039 100.22C68.0281 99.8681 68.981 98.6975 69.023 97.1991C69.0977 96.773 68.9017 96.3918 68.4332 96.2776C68.3865 96.2664 68.3426 96.2607 68.3016 96.2607C67.9647 96.2607 67.8191 96.6204 67.6613 96.8844Z" fill="white"/>
</mask>
<g mask="url(#mask7_6008_42887)">
<path fill-rule="evenodd" clip-rule="evenodd" d="M65.5469 100.933H69.6683V95.5975H65.5469V100.933Z" fill="white"/>
</g>
<mask id="mask8_6008_42887" style="mask-type:alpha" maskUnits="userSpaceOnUse" x="69" y="95" width="3" height="5">
<path d="M70.967 95.7015C70.5115 95.8598 70.2007 97.08 70.5311 97.4097C70.9959 97.8742 70.9726 98.1542 70.4089 98.5335C70.1335 98.7189 69.8302 98.8715 69.5465 99.0495C69.4 99.1422 69.2534 99.2443 69.1368 99.3651C68.9781 99.528 69.0015 99.6629 69.2749 99.6994C69.7294 99.7621 70.8914 99.2171 71.0603 98.8294C71.1826 98.5531 71.3524 98.3087 71.5353 98.068C71.778 97.7478 71.8891 97.3956 71.8937 96.9527C71.932 96.521 71.7276 96.1258 71.3001 95.8186C71.2217 95.7624 71.148 95.6875 71.0454 95.6875C71.0211 95.6875 70.995 95.6912 70.967 95.7015Z" fill="white"/>
</mask>
<g mask="url(#mask8_6008_42887)">
<path fill-rule="evenodd" clip-rule="evenodd" d="M68.4062 100.334H72.5034V95.0751H68.4062V100.334Z" fill="white"/>
</g>
<mask id="mask9_6008_42887" style="mask-type:alpha" maskUnits="userSpaceOnUse" x="63" y="89" width="4" height="3">
<path d="M65.1523 89.7957C65.0655 89.9642 64.9834 90.1394 64.8686 90.3707C64.8023 90.2667 64.7659 90.2096 64.7286 90.1515C64.3431 89.5391 64.1117 89.5363 63.7533 90.1609C63.6329 90.3716 63.547 90.6114 63.4425 90.8361C63.3613 91.0122 63.226 91.2182 63.4154 91.3718C63.6198 91.5385 63.8382 91.8044 64.1257 91.59C64.2787 91.4748 64.4141 91.3156 64.5438 91.1601C64.6409 91.0431 64.7155 91.0009 64.863 91.0684C65.5265 91.3718 65.8289 91.2116 66.1192 90.4409C66.2676 90.0467 66.1351 89.6533 65.7739 89.4408C65.6964 89.3949 65.6283 89.3743 65.5685 89.3743C65.3735 89.3743 65.2615 89.5868 65.1523 89.7957Z" fill="white"/>
</mask>
<g mask="url(#mask9_6008_42887)">
<path fill-rule="evenodd" clip-rule="evenodd" d="M62.6538 92.3774H66.8396V88.6689H62.6538V92.3774Z" fill="white"/>
</g>
<mask id="mask10_6008_42887" style="mask-type:alpha" maskUnits="userSpaceOnUse" x="51" y="97" width="4" height="3">
<path d="M53.7566 97.5209C53.5671 97.8459 53.3133 97.9499 52.9586 97.7869C52.9073 97.7635 52.8205 97.7832 52.7654 97.8113C52.0934 98.1615 51.5484 98.6344 51.3253 99.3902C51.2507 99.6383 51.4103 99.7722 51.6147 99.6702C51.9394 99.5063 52.2465 99.481 52.5414 99.5821C53.1975 99.5709 54.2549 98.2842 54.1607 97.6605C54.1467 97.5575 54.128 97.4573 54.0142 97.4207C53.989 97.4123 53.9638 97.4086 53.9395 97.4086C53.863 97.4086 53.7986 97.4498 53.7566 97.5209Z" fill="white"/>
</mask>
<g mask="url(#mask10_6008_42887)">
<path fill-rule="evenodd" clip-rule="evenodd" d="M50.6792 100.346H54.8249V96.8114H50.6792V100.346Z" fill="white"/>
</g>
<mask id="mask11_6008_42887" style="mask-type:alpha" maskUnits="userSpaceOnUse" x="89" y="96" width="3" height="4">
<path d="M91.5243 96.4836C91.4506 96.6222 91.3694 96.7646 91.3311 96.9144C91.1323 97.6926 90.6703 98.2601 90.0208 98.6918C89.7342 98.8801 89.4627 99.0917 89.1911 99.3006C89.1024 99.368 89.0315 99.4607 89.0669 99.5862C89.0931 99.6742 89.1799 99.7238 89.2499 99.6976C89.7688 99.4972 90.4062 99.4804 90.7777 99.0515C91.3768 98.3594 91.7343 97.5081 91.9097 96.5923C91.9163 96.4621 91.9489 96.3132 91.7903 96.2682C91.7716 96.2636 91.7548 96.2607 91.739 96.2607C91.6223 96.2607 91.5747 96.389 91.5243 96.4836Z" fill="white"/>
</mask>
<g mask="url(#mask11_6008_42887)">
<path fill-rule="evenodd" clip-rule="evenodd" d="M88.4585 100.297H92.522V95.6506H88.4585V100.297Z" fill="white"/>
</g>
<mask id="mask12_6008_42887" style="mask-type:alpha" maskUnits="userSpaceOnUse" x="80" y="91" width="2" height="5">
<path d="M81.3091 91.3766C80.667 92.3712 80.7286 93.613 80.4924 94.7508C80.4644 94.8828 80.4626 95.0767 80.625 95.1095C80.7715 95.1385 80.8247 94.9765 80.8816 94.8435C81.3053 93.8593 81.4481 92.7832 81.5947 91.7082C81.5975 91.6435 81.6049 91.5789 81.6012 91.5134C81.5956 91.3748 81.6815 91.1828 81.5415 91.1135C81.5163 91.1013 81.4948 91.0957 81.4771 91.0957C81.3679 91.0957 81.3641 91.2905 81.3091 91.3766Z" fill="white"/>
</mask>
<g mask="url(#mask12_6008_42887)">
<path fill-rule="evenodd" clip-rule="evenodd" d="M79.8896 95.7125H82.2518V90.4523H79.8896V95.7125Z" fill="white"/>
</g>
<mask id="mask13_6008_42887" style="mask-type:alpha" maskUnits="userSpaceOnUse" x="81" y="95" width="3" height="3">
<path d="M81.9059 96.3674C81.8135 96.5509 81.7454 96.7457 81.6726 96.9377C81.4616 97.4884 81.9609 97.6241 82.2605 97.8732C82.562 98.1233 82.7412 97.8957 82.9176 97.6916C83.1724 97.3975 83.345 97.0744 83.3366 96.8216C83.3403 96.1482 83.0604 95.7465 82.5993 95.6931C82.5685 95.6894 82.5396 95.6875 82.5116 95.6875C82.0953 95.6875 82.0477 96.0864 81.9059 96.3674Z" fill="white"/>
</mask>
<g mask="url(#mask13_6008_42887)">
<path fill-rule="evenodd" clip-rule="evenodd" d="M80.8872 98.6966H83.9139V95.0593H80.8872V98.6966Z" fill="white"/>
</g>
<mask id="mask14_6008_42887" style="mask-type:alpha" maskUnits="userSpaceOnUse" x="58" y="100" width="3" height="2">
<path d="M59.2202 100.711C59.1166 100.817 59.0448 100.948 58.9486 101.061C58.7527 101.291 58.6313 101.533 58.8889 101.779C59.1362 102.015 59.476 102.056 59.7849 101.93C60.1787 101.767 60.3859 101.452 60.4578 101.085C60.4111 100.716 60.1993 100.437 59.8325 100.308C59.7737 100.287 59.7223 100.278 59.6775 100.278C59.4256 100.278 59.364 100.562 59.2202 100.711Z" fill="white"/>
</mask>
<g mask="url(#mask14_6008_42887)">
<path fill-rule="evenodd" clip-rule="evenodd" d="M58.0586 102.629H61.0302V99.5969H58.0586V102.629Z" fill="white"/>
</g>
<mask id="mask15_6008_42887" style="mask-type:alpha" maskUnits="userSpaceOnUse" x="90" y="91" width="2" height="3">
<path d="M90.535 91.9678C90.4267 92.1757 90.3502 92.4117 90.269 92.6412C90.1048 93.1132 90.2336 93.3595 90.7123 93.3838C90.9307 93.4306 91.1024 93.2574 91.2191 92.953C91.347 92.6187 91.4132 92.2731 91.2434 91.9472C91.1472 91.7618 91.0231 91.67 90.899 91.67C90.7693 91.67 90.6377 91.7693 90.535 91.9678Z" fill="white"/>
</mask>
<g mask="url(#mask15_6008_42887)">
<path fill-rule="evenodd" clip-rule="evenodd" d="M89.5312 94.0041H91.9849V90.9933H89.5312V94.0041Z" fill="white"/>
</g>
<mask id="mask16_6008_42887" style="mask-type:alpha" maskUnits="userSpaceOnUse" x="53" y="90" width="2" height="3">
<path d="M53.8425 90.9588C53.7538 91.1349 53.6922 91.3325 53.6278 91.5254C53.5093 91.8738 53.7137 92.2315 54.0319 92.2427C54.3987 92.2558 54.8495 91.5067 54.7132 91.0852C54.632 90.8333 54.5284 90.5627 54.2671 90.5252C54.2512 90.5224 54.2363 90.5215 54.2223 90.5215C54.0058 90.5215 53.9358 90.7743 53.8425 90.9588Z" fill="white"/>
</mask>
<g mask="url(#mask16_6008_42887)">
<path fill-rule="evenodd" clip-rule="evenodd" d="M52.938 92.8288H55.4205V89.9126H52.938V92.8288Z" fill="white"/>
</g>
<mask id="mask17_6008_42887" style="mask-type:alpha" maskUnits="userSpaceOnUse" x="76" y="92" width="2" height="3">
<path d="M76.8877 92.9305C76.7011 93.2048 76.5331 93.4942 76.4808 93.8445C76.4388 94.1329 76.5863 94.3202 76.7841 94.4653C76.9279 94.573 77.0772 94.5646 77.2041 94.4269C77.4402 94.1675 77.5672 93.8435 77.6176 93.4792C77.6297 93.1786 77.4626 93.0166 77.2657 92.8827C77.2051 92.8415 77.1416 92.8171 77.0819 92.8171C77.01 92.8171 76.9428 92.8518 76.8877 92.9305Z" fill="white"/>
</mask>
<g mask="url(#mask17_6008_42887)">
<path fill-rule="evenodd" clip-rule="evenodd" d="M75.8657 95.1453H78.2008V92.2103H75.8657V95.1453Z" fill="white"/>
</g>
<mask id="mask18_6008_42887" style="mask-type:alpha" maskUnits="userSpaceOnUse" x="58" y="89" width="2" height="3">
<path d="M58.6279 90.3102C58.4468 90.5162 58.3041 90.7531 58.1977 90.9919C58.0661 91.286 58.444 91.6849 58.8034 91.669C59.2597 91.6475 59.9942 90.9329 59.8729 90.5808C59.7852 90.3223 59.6172 90.0573 59.2635 89.9665C59.2131 89.9534 59.1683 89.9478 59.1263 89.9478C58.8715 89.9478 58.7558 90.166 58.6279 90.3102Z" fill="white"/>
</mask>
<g mask="url(#mask18_6008_42887)">
<path fill-rule="evenodd" clip-rule="evenodd" d="M57.4917 92.2587H60.5641V89.2994H57.4917V92.2587Z" fill="white"/>
</g>
<mask id="mask19_6008_42887" style="mask-type:alpha" maskUnits="userSpaceOnUse" x="53" y="94" width="2" height="3">
<path d="M53.8482 94.6311C53.6074 94.7837 53.4478 95.0019 53.4142 95.3063C53.3983 95.4552 53.3918 95.5751 53.2098 95.6078C53.0306 95.6397 53.0007 95.8082 53.0381 95.9768C53.0763 96.1444 53.1846 96.2409 53.3236 96.2606C53.669 96.2812 54.1076 95.7005 53.9583 95.4056C53.836 95.1611 53.865 95.031 54.0647 94.8905C54.158 94.824 54.2084 94.6985 54.1272 94.5946C54.0964 94.5543 54.0637 94.5393 54.0311 94.5393C53.9685 94.5393 53.906 94.5946 53.8482 94.6311Z" fill="white"/>
</mask>
<g mask="url(#mask19_6008_42887)">
<path fill-rule="evenodd" clip-rule="evenodd" d="M52.4277 96.8543H54.7806V93.9016H52.4277V96.8543Z" fill="white"/>
</g>
<mask id="mask20_6008_42887" style="mask-type:alpha" maskUnits="userSpaceOnUse" x="97" y="92" width="1" height="3">
<path d="M97.1802 92.5336C97.1205 92.6423 97.0953 92.7865 97.1429 92.8989C97.3463 93.3849 97.2642 93.8447 97.0944 94.3026C97.0673 94.3757 97.0412 94.4665 97.1056 94.5162C97.1886 94.5817 97.2455 94.4956 97.2763 94.4103C97.4462 93.9393 97.6842 93.4945 97.6291 92.9569C97.6291 92.8333 97.6347 92.7359 97.6273 92.6423C97.6161 92.4887 97.6385 92.2939 97.4826 92.2508C97.4658 92.2461 97.4499 92.2443 97.435 92.2443C97.3053 92.2443 97.2474 92.411 97.1802 92.5336Z" fill="white"/>
</mask>
<g mask="url(#mask20_6008_42887)">
<path fill-rule="evenodd" clip-rule="evenodd" d="M96.4688 95.154H98.2084V91.63H96.4688V95.154Z" fill="white"/>
</g>
<rect x="1.27637" y="0.5" width="139" height="139" stroke="#4A4E57"/>
</svg>
