<svg width="64" height="23" viewBox="0 0 64 23" fill="none" xmlns="http://www.w3.org/2000/svg">
<path d="M49.1276 22.0106C48.2145 22.0048 47.3047 21.9003 46.4141 21.6987L45.2988 21.4464L45.8008 19.2168L46.9161 19.4691C48.5143 19.8298 50.6471 19.9031 51.8438 19.0242C52.4543 18.5767 52.7881 17.8986 52.8668 16.9465C51.6786 17.3354 50.4315 17.5135 49.1819 17.4727C47.5321 17.3968 46.604 16.8054 46.197 16.4583C45.2744 15.6689 44.7643 14.2883 44.7996 12.631C44.9217 6.99725 48.5985 6.99725 49.787 6.99725C52.9807 6.99725 54.7418 8.62472 55.024 11.8037C55.2167 14.0225 55.2574 15.97 55.1325 17.1445C54.9562 18.8181 54.3185 20.036 53.1843 20.866C52.1667 21.6255 50.7937 22.0106 49.1276 22.0106ZM49.7978 9.28113C47.5945 9.28113 47.1874 10.3661 47.068 12.9212C47.0328 13.6536 47.1929 14.2096 47.5429 14.5785C48.0666 15.121 48.9404 15.2024 49.6404 15.2051C50.7677 15.1983 51.8796 14.9426 52.8966 14.4565C52.8966 13.8272 52.8451 12.5795 52.7582 11.9909C52.4896 10.1952 51.9578 9.28113 49.7978 9.28113Z" fill="white"/>
<path d="M7.72736 21.8858C5.2011 21.8858 3.15513 21.0884 1.81466 19.5802C0.430784 18.0179 -0.160757 15.734 0.148581 13.149C0.314104 11.7657 0.495908 10.423 0.609875 9.54149L0.666858 9.21057L2.92448 9.54962L2.87835 9.88325C2.75625 10.7539 2.57716 12.0749 2.41706 13.4284C2.18641 15.357 2.57987 17.0061 3.52416 18.0694C4.46846 19.1327 5.8442 19.6101 7.72736 19.6101C11.5669 19.6101 13.7703 17.6815 13.7703 14.3181C13.7703 13.1246 13.7703 11.8932 13.4474 7.6482L13.423 7.31186L15.7077 7.10571L15.7267 7.45833C15.781 8.4972 15.9845 11.1418 16.0741 11.8932C16.3101 13.8488 16.6873 14.3805 19.0887 14.6626C21.9325 14.9962 35.2666 14.9826 42.479 14.6409L42.8182 14.6219L42.9213 16.9058H42.5821C35.3643 17.2231 23.8591 17.3126 18.9015 16.9356C17.6099 16.838 16.6358 16.583 15.8705 16.1409C15.1189 19.7484 12.0961 21.8858 7.72736 21.8858Z" fill="white"/>
<path d="M58.0845 21.9021C57.6366 21.9019 57.1894 21.8674 56.7468 21.799L55.6152 21.6308L55.9653 19.3714L57.0941 19.5395C57.9081 19.6643 59.4385 19.7457 60.4561 18.9265C61.1128 18.3976 61.4872 17.5242 61.5632 16.3307C61.7005 14.3595 61.6832 12.3806 61.5116 10.4122L61.4194 9.05594L63.6987 8.89862L63.791 10.2548C63.9672 12.3256 63.9817 14.4069 63.8344 16.4799C63.7123 18.3352 63.0556 19.7592 61.878 20.7059C60.9065 21.4898 59.5959 21.9021 58.0845 21.9021Z" fill="white"/>
<path d="M8.24018 13.4365C7.98837 13.4371 7.74205 13.3629 7.53241 13.2235C7.32277 13.084 7.15924 12.8855 7.0625 12.6531C6.96576 12.4207 6.94017 12.1648 6.98897 11.9179C7.03777 11.6709 7.15876 11.444 7.33663 11.2658C7.5145 11.0877 7.74125 10.9662 7.98819 10.9169C8.23513 10.8676 8.49115 10.8926 8.72385 10.9888C8.95655 11.0851 9.15547 11.2481 9.29543 11.4574C9.43539 11.6666 9.5101 11.9127 9.5101 12.1644C9.5101 12.5013 9.37639 12.8245 9.13831 13.063C8.90024 13.3015 8.57724 13.4358 8.24018 13.4365Z" fill="white"/>
<path d="M29.6066 3.85622C29.0937 3.8555 28.602 3.65152 28.2393 3.28898C27.8767 2.92645 27.6726 2.43495 27.6719 1.92225C27.6715 1.66986 27.7214 1.41992 27.8188 1.18706C27.9162 0.954188 28.059 0.743065 28.239 0.56603C28.5089 0.296383 28.8526 0.112548 29.2267 0.0376483C29.6009 -0.0372509 29.9889 0.000131603 30.3419 0.145093C30.6948 0.290055 30.997 0.536122 31.2105 0.85234C31.4239 1.16856 31.539 1.5408 31.5413 1.92225C31.5406 2.43495 31.3365 2.92645 30.9738 3.28898C30.6112 3.65152 30.1195 3.8555 29.6066 3.85622Z" fill="#F8BC45"/>
<path d="M24.1632 5.85256C23.7806 5.85256 23.4065 5.73914 23.0884 5.52663C22.7702 5.31412 22.5222 5.01208 22.3758 4.65869C22.2294 4.3053 22.191 3.91644 22.2657 3.54129C22.3403 3.16614 22.5246 2.82154 22.7952 2.55107C23.0658 2.2806 23.4105 2.0964 23.7858 2.02178C24.1611 1.94716 24.5501 1.98546 24.9036 2.13183C25.2571 2.27821 25.5593 2.52609 25.7719 2.84413C25.9845 3.16217 26.098 3.53609 26.098 3.91859C26.0972 4.43129 25.8932 4.92279 25.5305 5.28532C25.1678 5.64786 24.6761 5.85184 24.1632 5.85256Z" fill="#F8BC45"/>
<path d="M21.5041 10.6753C21.0553 10.6783 20.6194 10.5255 20.2708 10.2429C19.9222 9.96029 19.6826 9.56549 19.5928 9.12591C19.5031 8.68634 19.5688 8.22925 19.7788 7.83273C19.9887 7.43621 20.3299 7.12485 20.744 6.95183C21.158 6.7788 21.6194 6.75485 22.0492 6.88407C22.479 7.01329 22.8505 7.28765 23.1004 7.6603C23.3503 8.03295 23.4631 8.48077 23.4194 8.92727C23.3757 9.37378 23.1782 9.79126 22.8608 10.1084C22.683 10.2873 22.4716 10.4295 22.2389 10.5268C22.0061 10.624 21.7564 10.6745 21.5041 10.6753Z" fill="#F8BC45"/>
<path d="M37.7082 10.6753C37.3895 10.6772 37.0753 10.6004 36.7934 10.4517C36.5116 10.303 36.2708 10.0871 36.0926 9.82298C35.9144 9.55889 35.8041 9.25489 35.7717 8.93798C35.7393 8.62106 35.7858 8.30106 35.9069 8.00639C36.028 7.71173 36.22 7.45153 36.466 7.24892C36.7119 7.04631 37.0041 6.90757 37.3166 6.84502C37.629 6.78247 37.9521 6.79805 38.2571 6.89037C38.5622 6.9827 38.8396 7.14891 39.0649 7.37424C39.3347 7.64405 39.5186 7.98758 39.5935 8.36161C39.6684 8.73564 39.631 9.12346 39.486 9.4763C39.341 9.82914 39.0948 10.1312 38.7785 10.3446C38.4621 10.5579 38.0898 10.673 37.7082 10.6753Z" fill="#F8BC45"/>
<path d="M35.049 5.85256C34.6663 5.85256 34.2923 5.73914 33.9741 5.52663C33.6559 5.31412 33.408 5.01208 33.2615 4.65869C33.1151 4.3053 33.0768 3.91644 33.1514 3.54129C33.2261 3.16614 33.4103 2.82154 33.6809 2.55107C33.9515 2.2806 34.2962 2.0964 34.6715 2.02178C35.0468 1.94716 35.4358 1.98546 35.7894 2.13183C36.1429 2.27821 36.4451 2.52609 36.6576 2.84413C36.8702 3.16217 36.9837 3.53609 36.9837 3.91859C36.983 4.43129 36.7789 4.92279 36.4162 5.28532C36.0536 5.64786 35.5619 5.85184 35.049 5.85256Z" fill="#F8BC45"/>
</svg>
