<svg width="140" height="140" viewBox="0 0 140 140" fill="none" xmlns="http://www.w3.org/2000/svg">
<rect x="0.5" y="0.5" width="139" height="139" stroke="#4A4E57"/>
<path fill-rule="evenodd" clip-rule="evenodd" d="M62.3934 91.3752C62.424 91.567 62.3628 91.8315 62.2084 92.1693C62.0237 92.563 61.849 92.7603 61.6843 92.7603C61.5715 92.6589 61.4073 92.5182 61.1914 92.3378C60.9756 92.1579 60.868 92.0343 60.868 91.9668L60.8986 91.8991C60.9603 91.7525 61.0731 91.4824 61.2378 91.0885C61.2789 90.9983 61.3815 90.8013 61.5458 90.4974L61.6075 90.4131C61.6486 90.4578 61.7206 90.5142 61.8233 90.5819C62.0183 90.7396 62.1364 90.852 62.1775 90.9195C62.2907 91.0772 62.3628 91.2292 62.3934 91.3752ZM60.806 91.4768C60.837 91.6681 60.7752 91.9327 60.6214 92.2705C60.4363 92.6646 60.2618 92.8616 60.0976 92.8616C59.9843 92.7603 59.8199 92.6195 59.6042 92.4397C59.3886 92.2593 59.2806 92.1354 59.2806 92.0677L59.3116 92.0006C59.373 91.8538 59.4864 91.5838 59.6505 91.1897C59.6915 91.0997 59.7943 90.9026 59.9588 90.599L60.0203 90.5142C60.0614 90.5594 60.1333 90.6156 60.2359 90.6833C60.4311 90.8408 60.5494 90.9535 60.5906 91.0208C60.7034 91.1786 60.7752 91.3306 60.806 91.4768ZM59.6679 95.0502C61.4245 95.0502 62.8626 94.797 63.9825 94.2906C64.5575 94.0313 64.9378 93.7445 65.1227 93.4292C65.1332 93.4179 65.1767 93.3447 65.2536 93.2099C65.3308 93.0746 65.3846 93.0071 65.4155 93.0071C65.4461 93.0858 65.4618 93.1476 65.4618 93.1926C65.4002 93.7218 65.1895 94.2624 64.8298 94.8137C64.1928 95.7934 62.765 96.429 60.5461 96.7219C59.9504 96.801 59.401 96.8403 58.8973 96.8403C58.2707 96.8403 57.7981 96.8122 57.4798 96.7558C56.5142 96.5869 56.0316 96.1367 56.0316 95.4048C56.0316 95.1909 56.0928 94.7405 56.2162 94.0538C56.288 93.6486 56.3601 93.446 56.4323 93.446C56.4935 93.446 56.5399 93.6431 56.5707 94.0368C56.6116 94.7125 57.6442 95.0502 59.6679 95.0502ZM67.2962 90.4909C67.3169 90.4457 67.363 90.3613 67.435 90.2374C67.4451 90.215 67.4709 90.1811 67.5119 90.1363C67.5427 90.1925 67.5584 90.2374 67.5584 90.2715L67.4813 90.8456L67.3888 91.791L67.2193 93.2942C67.1473 93.9135 67.0241 94.4256 66.8496 94.8307L66.4949 95.6414C66.279 96.1255 66.1099 96.3676 65.9865 96.3676L65.9406 96.249C66.2588 95.0557 66.459 94.0765 66.5413 93.3108L66.6492 92.2469L66.8188 91.7237L67.2962 90.4909ZM71.2025 98.1909C71.2335 98.3823 71.1717 98.6468 71.0176 98.9844C70.8325 99.3789 70.658 99.5756 70.4939 99.5756C70.3808 99.474 70.2162 99.3335 70.0007 99.1533C69.7848 98.9734 69.6773 98.8494 69.6773 98.7817L69.7081 98.7143C69.7695 98.5682 69.8824 98.2979 70.047 97.9038C70.0877 97.814 70.1908 97.6166 70.3551 97.3127L70.4168 97.2284C70.4577 97.2734 70.5296 97.3299 70.6324 97.397C70.8276 97.5549 70.9459 97.6673 70.987 97.735C71.0999 97.8927 71.1717 98.0443 71.2025 98.1909ZM71.8742 91.7237C71.638 92.6919 71.3551 93.266 71.0266 93.446L70.4412 93.7668C70.1844 93.9018 69.9582 94.1945 69.7632 94.645C69.6195 95.0277 69.4805 95.4048 69.3472 95.7766C69.152 96.159 68.9055 96.4237 68.6075 96.5699C68.4123 96.6711 68.1143 96.7499 67.7136 96.8063C67.5699 96.8288 67.4519 96.8403 67.3594 96.8403C67.236 96.8403 67.1539 96.8063 67.1127 96.7392C67.1026 96.6603 67.2927 96.4797 67.6826 96.1985C67.7651 96.1423 67.9451 96.0128 68.2221 95.8101C68.4072 95.675 68.5306 95.585 68.592 95.5398C68.8898 95.3036 69.0929 95.1009 69.2007 94.932C69.3086 94.763 69.4396 94.4732 69.5939 94.0624C69.7475 93.6513 69.8606 93.3838 69.9327 93.2603C70.056 93.0574 70.251 92.8608 70.5183 92.6694C70.8368 92.5001 71.0473 92.3767 71.15 92.2978C71.2526 92.2187 71.3965 92.0446 71.5816 91.7744C71.7559 91.538 71.8483 91.4193 71.8589 91.4193C71.9202 91.4311 71.9256 91.5323 71.8742 91.7237ZM75.9161 86.884C75.9467 87.0758 75.8853 87.3403 75.7311 87.6778C75.5464 88.0718 75.3715 88.269 75.2071 88.269C75.0942 88.1676 74.93 88.0267 74.7139 87.8467C74.4983 87.6671 74.3905 87.5424 74.3905 87.4755L74.4212 87.4076C74.483 87.2614 74.5959 86.9916 74.7605 86.5971C74.8017 86.5071 74.9042 86.31 75.0684 86.0061L75.13 85.9216C75.1713 85.967 75.2433 86.023 75.3459 86.0905C75.541 86.248 75.6591 86.3607 75.7002 86.4286C75.8132 86.586 75.8853 86.738 75.9161 86.884ZM75.2816 93.4849C75.5178 93.2261 75.7184 93.057 75.8828 92.9787C76.0676 92.8208 76.6276 92.5506 77.5624 92.1678C77.9629 91.9989 78.2816 91.7009 78.5177 91.2728C78.6 91.1268 78.6409 90.9914 78.6409 90.8675C78.6409 90.5973 78.2661 90.3443 77.5161 90.1081C77.4855 90.085 77.2953 90.3047 76.946 90.7664C76.8538 90.8902 76.7304 91.1209 76.5761 91.4585C76.5761 91.5146 76.6635 91.605 76.8381 91.7287L76.2988 92.1171C75.9709 92.3531 75.6323 92.6397 75.2835 92.9767L75.2805 92.9733C74.8903 93.3335 74.6438 93.7218 74.5408 94.1381C74.5206 94.2284 74.6589 94.2734 74.9567 94.2734H75.2652C75.676 94.2734 75.9841 94.2507 76.1895 94.2059C76.1895 94.4202 75.974 94.6618 75.5424 94.932C75.2548 95.1119 74.931 95.2023 74.5717 95.2023C73.8376 95.2023 73.4682 94.7198 73.4623 93.7552L73.4626 93.7541C73.4626 93.3266 73.5087 92.7464 73.6011 92.0149L73.8635 89.9548L73.9249 89.5159C73.9454 89.3693 73.9508 89.2793 73.9406 89.2454L73.8784 89.2793C73.5401 90.0675 73.3339 90.6133 73.262 90.9174C72.9672 92.8908 72.8181 94.2685 72.8154 95.049L72.8148 95.0502C72.8148 95.5343 72.9073 95.9396 73.0926 96.2658C73.308 96.649 73.6215 96.8403 74.0322 96.8403C74.8645 96.8403 75.645 96.1644 76.3745 94.8137L76.7906 94.2231C76.9959 93.9299 77.0987 93.7445 77.0987 93.6658C77.0987 93.5415 77.0372 93.4797 76.9138 93.4797C76.8832 93.4797 76.7906 93.5024 76.6367 93.5472C76.3181 93.6374 76.0147 93.6826 75.7273 93.6826H75.3111C75.2088 93.6826 75.1518 93.6767 75.1419 93.6658L75.2805 93.4797L75.2816 93.4774V93.4849ZM85.745 91.3752C85.776 91.567 85.7142 91.8315 85.5603 92.1693C85.3753 92.563 85.2007 92.7603 85.0363 92.7603C84.9235 92.6589 84.7589 92.5182 84.5432 92.3378C84.3276 92.1579 84.2196 92.0343 84.2196 91.9668L84.2504 91.8991C84.3122 91.7525 84.4249 91.4824 84.5895 91.0885C84.6304 90.9983 84.7335 90.8013 84.8976 90.4974L84.9592 90.4131C85.0004 90.4578 85.0721 90.5142 85.1753 90.5819C85.3703 90.7396 85.4884 90.852 85.5293 90.9195C85.6424 91.0772 85.7142 91.2292 85.745 91.3752ZM84.158 91.4768C84.1888 91.6681 84.1269 91.9327 83.9731 92.2705C83.7881 92.6646 83.6135 92.8616 83.4491 92.8616C83.336 92.7603 83.1716 92.6195 82.956 92.4397C82.7405 92.2593 82.6326 92.1354 82.6326 92.0677L82.6634 92.0006C82.725 91.8538 82.8381 91.5838 83.0023 91.1897C83.0432 91.0997 83.146 90.9026 83.3104 90.599L83.3722 90.5142C83.4132 90.5594 83.4849 90.6156 83.5877 90.6833C83.7829 90.8408 83.9011 90.9535 83.9423 91.0208C84.0549 91.1786 84.1269 91.3306 84.158 91.4768ZM90.4741 93.7857V93.7832L90.2917 93.7668C89.9732 93.7329 89.6498 93.9806 89.3211 94.5098C89.1565 94.7688 89.0233 94.9602 88.9206 95.0839C88.6122 95.4446 88.2374 95.7255 87.7955 95.9285C87.0866 96.2547 86.0079 96.5079 84.5596 96.6881C83.7377 96.7894 83.034 96.8403 82.4485 96.8403H82.1865C81.6526 96.8403 81.2262 96.8122 80.9074 96.7558C79.9008 96.5758 79.3977 96.0692 79.3977 95.2362C79.3977 94.9432 79.4078 94.628 79.4286 94.2906C79.4589 93.7949 79.5156 93.5472 79.5979 93.5472C79.6494 93.5472 79.6851 93.6036 79.7058 93.7161C79.7775 94.065 79.8239 94.2624 79.8444 94.3072C80.1011 94.8137 81.3031 95.0673 83.4501 95.0673C84.4877 95.0673 85.6587 94.9659 86.9632 94.763C87.898 94.617 88.6329 94.3352 89.1666 93.9188C89.2388 93.8625 89.331 93.7727 89.4443 93.6486C89.5676 93.4576 89.763 93.2208 90.0299 92.9396C90.1941 92.8269 90.3431 92.7819 90.4767 92.8042L90.4777 92.8071L90.6745 92.8397C90.8389 92.8397 90.9468 92.8233 90.9981 92.7893C91.0492 92.7554 91.1059 92.6597 91.1677 92.5026C91.2702 92.2208 91.3217 91.8324 91.3217 91.3373L91.3064 89.0404L91.6608 87.8244L91.969 86.9634L92.0305 86.9296C92.0407 86.9634 92.0461 87.0366 92.0461 87.1493C92.0461 87.3519 92.0355 87.6167 92.0148 87.943C91.984 88.3483 91.969 88.607 91.969 88.7199L91.9073 90.3407C91.8866 90.9601 91.8507 91.4103 91.7996 91.6919C91.7171 92.1983 91.5837 92.6149 91.3986 92.9413C91.0802 93.5268 90.8236 93.8196 90.6282 93.8196C90.5463 93.8084 90.4948 93.7972 90.4741 93.7857ZM92.7243 85.6219C92.9708 85.3408 93.4484 84.8848 94.1573 84.2543L96.1297 82.5147C96.51 82.1774 96.9616 81.7439 97.4857 81.2148C97.6294 81.0684 98.0354 80.6405 98.7033 79.9317C99.4119 79.1768 99.7968 78.7608 99.8587 78.6819C99.8587 78.7381 99.8484 78.7888 99.8279 78.8338C99.6943 79.5095 99.1344 80.3871 98.1483 81.468C97.6962 81.9639 97.013 82.6276 96.0985 83.4606C96.0578 83.4943 95.2977 84.1477 93.8182 85.4198L92.7551 86.3315C92.324 86.7027 92.0978 86.872 92.0773 86.8379C92.2415 86.3426 92.457 85.9374 92.7243 85.6219ZM99.4559 83.9189C99.4866 84.1101 99.4248 84.3748 99.2712 84.7128C99.0859 85.1065 98.9114 85.3035 98.7472 85.3035C98.7162 85.3035 98.552 85.1683 98.2541 84.8981C98.0382 84.7069 97.9303 84.5776 97.9303 84.5098L97.9613 84.4427C98.0227 84.296 98.136 84.0259 98.3002 83.632C98.3413 83.5418 98.4439 83.3445 98.6085 83.0409L98.6699 82.9563C98.711 83.0013 98.7832 83.0577 98.8858 83.1254C99.0809 83.2831 99.1992 83.3954 99.2402 83.4629C99.3531 83.6207 99.4248 83.7727 99.4559 83.9189ZM100.257 86.0129C100.288 86.204 100.226 86.469 100.072 86.8063C99.8874 87.2005 99.7129 87.3973 99.5483 87.3973C99.4354 87.2961 99.2712 87.1553 99.0553 86.9756C98.8397 86.7952 98.7319 86.6713 98.7319 86.604L98.7625 86.5361C98.8241 86.39 98.9371 86.1199 99.1017 85.7256C99.1428 85.6356 99.2454 85.4387 99.4097 85.1347L99.4714 85.0501C99.5123 85.0953 99.5843 85.1515 99.6872 85.2192C99.8822 85.3765 100 85.4896 100.041 85.5567C100.154 85.7147 100.226 85.8665 100.257 86.0129ZM98.6699 86.1142C98.7011 86.3058 98.6391 86.5704 98.4855 86.9077C98.3002 87.302 98.1255 87.4985 97.9613 87.4985C97.8482 87.3973 97.6838 87.2566 97.4683 87.0766C97.2525 86.8966 97.1445 86.7725 97.1445 86.7054L97.1755 86.6375C97.237 86.4915 97.3501 86.2213 97.5145 85.8268C97.5553 85.7372 97.6584 85.5401 97.8227 85.236L97.8844 85.1515C97.9251 85.1969 97.9968 85.2531 98.1 85.3203C98.2952 85.4779 98.4133 85.5906 98.4544 85.6585C98.5671 85.8158 98.6391 85.9677 98.6699 86.1142ZM100.378 90.8787C100.265 91.0593 100.132 91.1662 99.9774 91.2002C99.7512 91.256 99.6077 91.3012 99.5459 91.3352C99.4126 91.4137 99.2787 91.5607 99.1452 91.7744L98.6212 92.6185C98.2412 93.2379 97.9998 93.5361 97.8971 93.5134L97.3731 93.4797C97.0443 93.4576 96.6902 93.5472 96.3101 93.7499C95.9298 93.9527 95.6321 94.2002 95.4162 94.4927C95.3753 94.5489 94.9901 95.1459 94.2603 96.283C93.706 97.1499 92.8584 97.9326 91.7183 98.6302C91.2255 98.9341 90.9066 99.0862 90.7627 99.0862C90.7321 99.0862 90.7114 99.075 90.7011 99.0523C90.6907 99.0298 91.1531 98.6361 92.088 97.8704C92.6322 97.4201 93.09 96.9583 93.4593 96.4854C93.634 96.2608 94.0089 95.6637 94.5839 94.6957C95.7452 92.7367 96.9523 91.7744 98.2052 91.8082C98.3079 91.8082 98.3696 91.8137 98.3902 91.8248H98.4827C98.5751 91.8248 98.7703 91.6053 99.0682 91.1662C99.2326 90.9298 99.3561 90.7611 99.4382 90.6597C99.5817 90.4909 99.7204 90.384 99.8542 90.339C99.9156 90.3163 100.08 90.2827 100.347 90.2374C100.44 90.0686 100.553 89.8942 100.686 89.714C100.738 89.7029 100.763 89.7422 100.763 89.8324C100.763 90.1249 100.635 90.474 100.378 90.8787ZM53.0411 90.5805C52.805 91.5487 52.5223 92.1232 52.1938 92.303L51.6081 92.624C51.3514 92.7588 51.1254 93.0519 50.9302 93.5018C50.7865 93.885 50.6475 94.2622 50.5141 94.6338C50.3189 95.0164 50.0725 95.2811 49.7743 95.4271C49.5795 95.5287 49.2816 95.6073 48.881 95.6635C48.7369 95.6862 48.619 95.6973 48.5264 95.6973C48.4032 95.6973 48.3209 95.6635 48.2799 95.596C48.2695 95.5171 48.4596 95.3371 48.8498 95.0555C48.9321 94.9993 49.112 94.8696 49.3892 94.6675C49.5743 94.5323 49.6974 94.4422 49.759 94.3973C50.0571 94.1605 50.2597 93.9581 50.3678 93.7893C50.4756 93.62 50.6065 93.3306 50.761 92.9195C50.9146 92.5087 51.0278 92.2412 51.0997 92.1171C51.2231 91.915 51.4181 91.7178 51.6851 91.5262C52.0039 91.3573 52.2144 91.2337 52.317 91.1548C52.4197 91.0761 52.5635 90.9014 52.7485 90.6314C52.9233 90.3948 53.0154 90.2764 53.026 90.2764C53.0876 90.2879 53.0926 90.3893 53.0411 90.5805ZM52.9327 100.314C52.9637 100.505 52.9019 100.77 52.748 101.108C52.5628 101.502 52.3882 101.699 52.2239 101.699C52.111 101.597 51.9466 101.457 51.7309 101.277C51.5153 101.097 51.4075 100.973 51.4075 100.905L51.4383 100.837C51.4998 100.691 51.6129 100.421 51.777 100.027C51.8182 99.9369 51.9209 99.7398 52.0855 99.4357L52.147 99.3514C52.1881 99.3966 52.2601 99.4531 52.3626 99.5204C52.5578 99.678 52.6761 99.7905 52.7172 99.858C52.8301 100.016 52.9019 100.167 52.9327 100.314ZM51.3457 100.416C51.3765 100.607 51.3149 100.871 51.1608 101.209C50.976 101.603 50.8015 101.8 50.6369 101.8C50.5235 101.699 50.3594 101.558 50.1439 101.378C49.928 101.198 49.8201 101.073 49.8201 101.007L49.8511 100.939C49.9127 100.793 50.0256 100.522 50.19 100.128C50.231 100.038 50.3339 99.8409 50.4983 99.5373L50.5599 99.4531C50.6009 99.4981 50.6728 99.5541 50.7758 99.6216C50.9706 99.7789 51.0889 99.892 51.13 99.9594C51.2431 100.117 51.3149 100.269 51.3457 100.416ZM48.4779 89.3481C48.4984 89.3031 48.5447 89.2185 48.6165 89.0947C48.6266 89.0722 48.6524 89.0383 48.6934 88.9935C48.7244 89.0497 48.7397 89.0947 48.7397 89.1285L48.6626 89.7027L48.5701 90.6482L48.4008 92.1514C48.3289 92.7703 48.2056 93.2826 48.0309 93.6879L47.6765 94.4984C47.4606 94.9827 47.2914 95.2244 47.168 95.2244L47.1219 95.106C47.4403 93.9133 47.6407 92.9337 47.7225 92.1678L47.8307 91.1043L48 90.5805L48.4779 89.3481ZM44.299 93.8061C44.3096 93.8513 44.3148 93.9133 44.3148 93.992C44.3148 94.1943 44.2529 94.3916 44.1297 94.5829C43.8832 94.9657 43.7033 95.1684 43.5902 95.1909C43.5698 95.1909 43.5235 95.1625 43.4517 95.106C43.2154 94.9262 43.0921 94.825 43.082 94.8025C42.9277 94.6896 42.8405 94.6338 42.8198 94.6338C42.7172 94.555 42.6608 94.4759 42.6504 94.3973L43.0047 93.5192C43.1177 93.3049 43.2154 93.1306 43.2974 92.9954L43.3901 92.8435C43.4618 92.8774 43.5698 92.9394 43.7137 93.0292C43.8882 93.1756 44.0115 93.2883 44.0832 93.367C44.2172 93.5131 44.289 93.6597 44.299 93.8061ZM46.2715 94.6841C46.1793 95.1344 46.1019 95.461 46.0405 95.6635C45.537 97.3524 44.7048 98.5457 43.5441 99.2435C43.0921 99.5141 42.5783 99.6489 42.0033 99.6489C41.3662 99.6489 40.8732 99.4321 40.524 98.9985C40.1748 98.565 40 97.9939 40 97.2847C40 96.1701 40.4367 94.7911 41.3099 93.1474C41.4127 92.956 41.4894 92.8658 41.5409 92.8774C41.5616 92.8885 41.5667 92.9504 41.5564 93.0629C41.5359 93.1756 41.5152 93.2711 41.4945 93.3499L40.9863 94.5657C40.7397 95.1516 40.6166 95.6582 40.6166 96.0858C40.6166 97.2675 41.2123 97.8586 42.4038 97.8586C43.6779 97.8586 44.6843 97.2284 45.4241 95.9674C45.6602 95.5737 45.7837 95.1177 45.7939 94.5994L45.8246 93.3836C45.8352 93.0465 45.9222 92.6465 46.0867 92.1851L46.3947 91.5262C46.477 91.3462 46.5434 91.228 46.5949 91.1718C46.6464 91.228 46.6668 91.301 46.6567 91.3912L46.5798 91.9823L46.5029 92.8265C46.5029 93.322 46.4258 93.9413 46.2715 94.6841ZM54.9331 89.3481C54.9535 89.3031 54.9997 89.2185 55.0719 89.0947C55.082 89.0722 55.1078 89.0383 55.1487 88.9935C55.1796 89.0497 55.1949 89.0947 55.1949 89.1285L55.1179 89.7027L55.0253 90.6482L54.856 92.1514C54.7842 92.7703 54.6612 93.2826 54.4863 93.6879L54.1316 94.4984C53.9159 94.9827 53.7466 95.2244 53.6232 95.2244L53.5771 95.106C53.8955 93.9133 54.0959 92.9337 54.178 92.1678L54.2857 91.1043L54.4554 90.5805L54.9331 89.3481Z" fill="white"/>
<path fill-rule="evenodd" clip-rule="evenodd" d="M58.4039 47.9601L60.1126 46.5616C66.5401 53.563 59.9862 62.6713 51.9223 60.4618L52.1663 58.0288C58.1395 59.7628 62.6278 53.8381 58.4039 47.9601ZM53.3869 54.3925L52.5734 56.3228C56.5614 58.1254 61.2057 53.5878 57.1298 49.1069L55.7193 50.6167C57.8097 53.3092 55.3553 55.5601 53.3869 54.3925ZM69.0446 44.0199L69.8708 46.1847C72.6803 46.2108 74.6801 47.924 74.6111 50.738H66.1331C65.6595 48.228 64.7519 46.3143 63.4108 44.9976L61.7853 45.9055C67.5992 54.2162 61.823 64.1385 51.8315 61.967V63.9503H61.0814L63.8305 58.3497L72.3358 58.5872L69.952 63.8803H74.9091L77.4279 58.3636L87.3412 58.5033C85.8789 49.3404 76.8712 43.6176 69.0446 44.0199Z" fill="white"/>
<path fill-rule="evenodd" clip-rule="evenodd" d="M81.1482 75.9286L79.4397 77.3271C73.0126 70.3257 79.5665 61.2172 87.6301 63.4269L87.386 65.8601C81.4129 64.1259 76.9247 70.051 81.1482 75.9286ZM86.1658 69.496L86.9795 67.5659C82.9915 65.763 78.3473 70.3011 82.4232 74.782L83.8335 73.2718C81.7427 70.5799 84.1973 68.3282 86.1658 69.496ZM70.5079 79.8686L69.6818 77.704C66.8726 77.6781 64.8724 75.9646 64.9418 73.1507H73.4197C73.8929 75.6611 74.8006 77.5748 76.1415 78.8911L77.7671 77.9833C71.9533 69.6729 77.7295 59.7502 87.7216 61.9218V59.9386H78.471L75.7219 65.5388L67.217 65.3018L69.6004 60.0082H64.644L62.1246 65.5253L52.2109 65.3852C53.6739 74.5484 62.6812 80.2711 70.5079 79.8686Z" fill="white"/>
</svg>
