<svg width="61" height="58" viewBox="0 0 61 58" fill="none" xmlns="http://www.w3.org/2000/svg">
<path fill-rule="evenodd" clip-rule="evenodd" d="M22.3934 47.3752C22.424 47.567 22.3628 47.8315 22.2084 48.1693C22.0237 48.563 21.849 48.7603 21.6843 48.7603C21.5715 48.6589 21.4073 48.5182 21.1914 48.3378C20.9756 48.1579 20.868 48.0343 20.868 47.9668L20.8986 47.8991C20.9603 47.7525 21.0731 47.4824 21.2378 47.0885C21.2789 46.9983 21.3815 46.8013 21.5458 46.4974L21.6075 46.4131C21.6486 46.4578 21.7206 46.5142 21.8233 46.5819C22.0183 46.7396 22.1364 46.852 22.1775 46.9195C22.2907 47.0772 22.3628 47.2292 22.3934 47.3752ZM20.806 47.4768C20.837 47.6681 20.7752 47.9327 20.6214 48.2705C20.4363 48.6646 20.2618 48.8616 20.0976 48.8616C19.9843 48.7603 19.8199 48.6195 19.6042 48.4397C19.3886 48.2593 19.2806 48.1354 19.2806 48.0677L19.3116 48.0006C19.373 47.8538 19.4864 47.5838 19.6505 47.1897C19.6915 47.0997 19.7943 46.9026 19.9588 46.599L20.0203 46.5142C20.0614 46.5594 20.1333 46.6156 20.2359 46.6833C20.4311 46.8408 20.5494 46.9535 20.5906 47.0208C20.7034 47.1786 20.7752 47.3306 20.806 47.4768ZM19.6679 51.0502C21.4245 51.0502 22.8626 50.797 23.9825 50.2906C24.5575 50.0313 24.9378 49.7445 25.1227 49.4292C25.1332 49.4179 25.1767 49.3447 25.2536 49.2099C25.3308 49.0746 25.3846 49.0071 25.4155 49.0071C25.4461 49.0858 25.4618 49.1476 25.4618 49.1926C25.4002 49.7218 25.1895 50.2624 24.8298 50.8137C24.1928 51.7934 22.765 52.429 20.5461 52.7219C19.9504 52.801 19.401 52.8403 18.8973 52.8403C18.2707 52.8403 17.7981 52.8122 17.4798 52.7558C16.5142 52.5869 16.0316 52.1367 16.0316 51.4048C16.0316 51.1909 16.0928 50.7405 16.2162 50.0538C16.288 49.6486 16.3601 49.446 16.4323 49.446C16.4935 49.446 16.5399 49.6431 16.5707 50.0368C16.6116 50.7125 17.6442 51.0502 19.6679 51.0502ZM27.2962 46.4909C27.3169 46.4457 27.363 46.3613 27.435 46.2374C27.4451 46.215 27.4709 46.1811 27.5119 46.1363C27.5427 46.1925 27.5584 46.2374 27.5584 46.2715L27.4813 46.8456L27.3888 47.791L27.2193 49.2942C27.1473 49.9135 27.0241 50.4256 26.8496 50.8307L26.4949 51.6414C26.279 52.1255 26.1099 52.3676 25.9865 52.3676L25.9406 52.249C26.2588 51.0557 26.459 50.0765 26.5413 49.3108L26.6492 48.2469L26.8188 47.7237L27.2962 46.4909ZM31.2025 54.1909C31.2335 54.3823 31.1717 54.6468 31.0176 54.9844C30.8325 55.3789 30.658 55.5756 30.4939 55.5756C30.3808 55.474 30.2162 55.3335 30.0007 55.1533C29.7848 54.9734 29.6773 54.8494 29.6773 54.7817L29.7081 54.7143C29.7695 54.5682 29.8824 54.2979 30.047 53.9038C30.0877 53.814 30.1908 53.6166 30.3551 53.3127L30.4168 53.2284C30.4577 53.2734 30.5296 53.3299 30.6324 53.397C30.8276 53.5549 30.9459 53.6673 30.987 53.735C31.0999 53.8927 31.1717 54.0443 31.2025 54.1909ZM31.8742 47.7237C31.638 48.6919 31.3551 49.266 31.0266 49.446L30.4412 49.7668C30.1844 49.9018 29.9582 50.1945 29.7632 50.645C29.6195 51.0277 29.4805 51.4048 29.3472 51.7766C29.152 52.159 28.9055 52.4237 28.6075 52.5699C28.4123 52.6711 28.1143 52.7499 27.7136 52.8063C27.5699 52.8288 27.4519 52.8403 27.3594 52.8403C27.236 52.8403 27.1539 52.8063 27.1127 52.7392C27.1026 52.6603 27.2927 52.4797 27.6826 52.1985C27.7651 52.1423 27.9451 52.0128 28.2221 51.8101C28.4072 51.675 28.5306 51.585 28.592 51.5398C28.8898 51.3036 29.0929 51.1009 29.2007 50.932C29.3086 50.763 29.4396 50.4732 29.5939 50.0624C29.7475 49.6513 29.8606 49.3838 29.9327 49.2603C30.056 49.0574 30.251 48.8608 30.5183 48.6694C30.8368 48.5001 31.0473 48.3767 31.15 48.2978C31.2526 48.2187 31.3965 48.0446 31.5816 47.7744C31.7559 47.538 31.8483 47.4193 31.8589 47.4193C31.9202 47.4311 31.9256 47.5323 31.8742 47.7237ZM35.9161 42.884C35.9467 43.0758 35.8853 43.3403 35.7311 43.6778C35.5464 44.0718 35.3715 44.269 35.2071 44.269C35.0942 44.1676 34.93 44.0267 34.7139 43.8467C34.4983 43.6671 34.3905 43.5424 34.3905 43.4755L34.4212 43.4076C34.483 43.2614 34.5959 42.9916 34.7605 42.5971C34.8017 42.5071 34.9042 42.31 35.0684 42.0061L35.13 41.9216C35.1713 41.967 35.2433 42.023 35.3459 42.0905C35.541 42.248 35.6591 42.3607 35.7002 42.4286C35.8132 42.586 35.8853 42.738 35.9161 42.884ZM35.2816 49.4849C35.5178 49.2261 35.7184 49.057 35.8828 48.9787C36.0676 48.8208 36.6276 48.5506 37.5624 48.1678C37.9629 47.9989 38.2816 47.7009 38.5177 47.2728C38.6 47.1268 38.6409 46.9914 38.6409 46.8675C38.6409 46.5973 38.2661 46.3443 37.5161 46.1081C37.4855 46.085 37.2953 46.3047 36.946 46.7664C36.8538 46.8902 36.7304 47.1209 36.5761 47.4585C36.5761 47.5146 36.6635 47.605 36.8381 47.7287L36.2988 48.1171C35.9709 48.3531 35.6323 48.6397 35.2835 48.9767L35.2805 48.9733C34.8903 49.3335 34.6438 49.7218 34.5408 50.1381C34.5206 50.2284 34.6589 50.2734 34.9567 50.2734H35.2652C35.676 50.2734 35.9841 50.2507 36.1895 50.2059C36.1895 50.4202 35.974 50.6618 35.5424 50.932C35.2548 51.1119 34.931 51.2023 34.5717 51.2023C33.8376 51.2023 33.4682 50.7198 33.4623 49.7552L33.4626 49.7541C33.4626 49.3266 33.5087 48.7464 33.6011 48.0149L33.8635 45.9548L33.9249 45.5159C33.9454 45.3693 33.9508 45.2793 33.9406 45.2454L33.8784 45.2793C33.5401 46.0675 33.3339 46.6133 33.262 46.9174C32.9672 48.8908 32.8181 50.2685 32.8154 51.049L32.8148 51.0502C32.8148 51.5343 32.9073 51.9396 33.0926 52.2658C33.308 52.649 33.6215 52.8403 34.0322 52.8403C34.8645 52.8403 35.645 52.1644 36.3745 50.8137L36.7906 50.2231C36.9959 49.9299 37.0987 49.7445 37.0987 49.6658C37.0987 49.5415 37.0372 49.4797 36.9138 49.4797C36.8832 49.4797 36.7906 49.5024 36.6367 49.5472C36.3181 49.6374 36.0147 49.6826 35.7273 49.6826H35.3111C35.2088 49.6826 35.1518 49.6767 35.1419 49.6658L35.2805 49.4797L35.2816 49.4774V49.4849ZM45.745 47.3752C45.776 47.567 45.7142 47.8315 45.5603 48.1693C45.3753 48.563 45.2007 48.7603 45.0363 48.7603C44.9235 48.6589 44.7589 48.5182 44.5432 48.3378C44.3276 48.1579 44.2196 48.0343 44.2196 47.9668L44.2504 47.8991C44.3122 47.7525 44.4249 47.4824 44.5895 47.0885C44.6304 46.9983 44.7335 46.8013 44.8976 46.4974L44.9592 46.4131C45.0004 46.4578 45.0721 46.5142 45.1753 46.5819C45.3703 46.7396 45.4884 46.852 45.5293 46.9195C45.6424 47.0772 45.7142 47.2292 45.745 47.3752ZM44.158 47.4768C44.1888 47.6681 44.1269 47.9327 43.9731 48.2705C43.7881 48.6646 43.6135 48.8616 43.4491 48.8616C43.336 48.7603 43.1716 48.6195 42.956 48.4397C42.7405 48.2593 42.6326 48.1354 42.6326 48.0677L42.6634 48.0006C42.725 47.8538 42.8381 47.5838 43.0023 47.1897C43.0432 47.0997 43.146 46.9026 43.3104 46.599L43.3722 46.5142C43.4132 46.5594 43.4849 46.6156 43.5877 46.6833C43.7829 46.8408 43.9011 46.9535 43.9423 47.0208C44.0549 47.1786 44.1269 47.3306 44.158 47.4768ZM50.4741 49.7857V49.7832L50.2917 49.7668C49.9732 49.7329 49.6498 49.9806 49.3211 50.5098C49.1565 50.7688 49.0233 50.9602 48.9206 51.0839C48.6122 51.4446 48.2374 51.7255 47.7955 51.9285C47.0866 52.2547 46.0079 52.5079 44.5596 52.6881C43.7377 52.7894 43.034 52.8403 42.4485 52.8403H42.1865C41.6526 52.8403 41.2262 52.8122 40.9074 52.7558C39.9008 52.5758 39.3977 52.0692 39.3977 51.2362C39.3977 50.9432 39.4078 50.628 39.4286 50.2906C39.4589 49.7949 39.5156 49.5472 39.5979 49.5472C39.6494 49.5472 39.6851 49.6036 39.7058 49.7161C39.7775 50.065 39.8239 50.2624 39.8444 50.3072C40.1011 50.8137 41.3031 51.0673 43.4501 51.0673C44.4877 51.0673 45.6587 50.9659 46.9632 50.763C47.898 50.617 48.6329 50.3352 49.1666 49.9188C49.2388 49.8625 49.331 49.7727 49.4443 49.6486C49.5676 49.4576 49.763 49.2208 50.0299 48.9396C50.1941 48.8269 50.3431 48.7819 50.4767 48.8042L50.4777 48.8071L50.6745 48.8397C50.8389 48.8397 50.9468 48.8233 50.9981 48.7893C51.0492 48.7554 51.1059 48.6597 51.1677 48.5026C51.2702 48.2208 51.3217 47.8324 51.3217 47.3373L51.3064 45.0404L51.6608 43.8244L51.969 42.9634L52.0305 42.9296C52.0407 42.9634 52.0461 43.0366 52.0461 43.1493C52.0461 43.3519 52.0355 43.6167 52.0148 43.943C51.984 44.3483 51.969 44.607 51.969 44.7199L51.9073 46.3407C51.8866 46.9601 51.8507 47.4103 51.7996 47.6919C51.7171 48.1983 51.5837 48.6149 51.3986 48.9413C51.0802 49.5268 50.8236 49.8196 50.6282 49.8196C50.5463 49.8084 50.4948 49.7972 50.4741 49.7857ZM52.7243 41.6219C52.9708 41.3408 53.4484 40.8848 54.1573 40.2543L56.1297 38.5147C56.51 38.1774 56.9616 37.7439 57.4857 37.2148C57.6294 37.0684 58.0354 36.6405 58.7033 35.9317C59.4119 35.1768 59.7968 34.7608 59.8587 34.6819C59.8587 34.7381 59.8484 34.7888 59.8279 34.8338C59.6943 35.5095 59.1344 36.3871 58.1483 37.468C57.6962 37.9639 57.013 38.6276 56.0985 39.4606C56.0578 39.4943 55.2977 40.1477 53.8182 41.4198L52.7551 42.3315C52.324 42.7027 52.0978 42.872 52.0773 42.8379C52.2415 42.3426 52.457 41.9374 52.7243 41.6219ZM59.4559 39.9189C59.4866 40.1101 59.4248 40.3748 59.2712 40.7128C59.0859 41.1065 58.9114 41.3035 58.7472 41.3035C58.7162 41.3035 58.552 41.1683 58.2541 40.8981C58.0382 40.7069 57.9303 40.5776 57.9303 40.5098L57.9613 40.4427C58.0227 40.296 58.136 40.0259 58.3002 39.632C58.3413 39.5418 58.4439 39.3445 58.6085 39.0409L58.6699 38.9563C58.711 39.0013 58.7832 39.0577 58.8858 39.1254C59.0809 39.2831 59.1992 39.3954 59.2402 39.4629C59.3531 39.6207 59.4248 39.7727 59.4559 39.9189ZM60.2573 42.0129C60.2879 42.204 60.2265 42.469 60.0723 42.8063C59.8874 43.2005 59.7129 43.3973 59.5483 43.3973C59.4354 43.2961 59.2712 43.1553 59.0553 42.9756C58.8397 42.7952 58.7319 42.6713 58.7319 42.604L58.7625 42.5361C58.8241 42.39 58.9371 42.1199 59.1017 41.7256C59.1428 41.6356 59.2454 41.4387 59.4097 41.1347L59.4714 41.0501C59.5123 41.0953 59.5843 41.1515 59.6872 41.2192C59.8822 41.3765 60.0005 41.4896 60.0414 41.5567C60.1545 41.7147 60.2265 41.8665 60.2573 42.0129ZM58.6699 42.1142C58.7011 42.3058 58.6391 42.5704 58.4855 42.9077C58.3002 43.302 58.1255 43.4985 57.9613 43.4985C57.8482 43.3973 57.6838 43.2566 57.4683 43.0766C57.2525 42.8966 57.1445 42.7725 57.1445 42.7054L57.1755 42.6375C57.237 42.4915 57.3501 42.2213 57.5145 41.8268C57.5553 41.7372 57.6584 41.5401 57.8227 41.236L57.8844 41.1515C57.9251 41.1969 57.9968 41.2531 58.1 41.3203C58.2952 41.4779 58.4133 41.5906 58.4544 41.6585C58.5671 41.8158 58.6391 41.9677 58.6699 42.1142ZM60.378 46.8787C60.2648 47.0593 60.1315 47.1662 59.9774 47.2002C59.7512 47.256 59.6077 47.3012 59.5459 47.3352C59.4126 47.4137 59.2787 47.5607 59.1452 47.7744L58.6212 48.6185C58.2412 49.2379 57.9998 49.5361 57.8971 49.5134L57.3731 49.4797C57.0443 49.4576 56.6902 49.5472 56.3101 49.7499C55.9298 49.9527 55.6321 50.2002 55.4162 50.4927C55.3753 50.5489 54.9901 51.1459 54.2603 52.283C53.706 53.1499 52.8584 53.9326 51.7183 54.6302C51.2255 54.9341 50.9066 55.0862 50.7627 55.0862C50.7321 55.0862 50.7114 55.075 50.7011 55.0523C50.6907 55.0298 51.1531 54.6361 52.088 53.8704C52.6322 53.4201 53.09 52.9583 53.4593 52.4854C53.634 52.2608 54.0089 51.6637 54.5839 50.6957C55.7452 48.7367 56.9523 47.7744 58.2052 47.8082C58.3079 47.8082 58.3696 47.8137 58.3902 47.8248H58.4827C58.5751 47.8248 58.7703 47.6053 59.0682 47.1662C59.2326 46.9298 59.3561 46.7611 59.4382 46.6597C59.5817 46.4909 59.7204 46.384 59.8542 46.339C59.9156 46.3163 60.08 46.2827 60.347 46.2374C60.4398 46.0686 60.5527 45.8942 60.6861 45.714C60.7376 45.7029 60.7632 45.7422 60.7632 45.8324C60.7632 46.1249 60.6348 46.474 60.378 46.8787ZM13.0411 46.5805C12.805 47.5487 12.5223 48.1232 12.1938 48.303L11.6081 48.624C11.3514 48.7588 11.1254 49.0519 10.9302 49.5018C10.7865 49.885 10.6475 50.2622 10.5141 50.6338C10.3189 51.0164 10.0725 51.2811 9.77435 51.4271C9.57949 51.5287 9.28165 51.6073 8.88098 51.6635C8.73693 51.6862 8.61897 51.6973 8.52641 51.6973C8.40324 51.6973 8.32095 51.6635 8.27989 51.596C8.26945 51.5171 8.45961 51.3371 8.84984 51.0555C8.93213 50.9993 9.11202 50.8696 9.38916 50.6675C9.57427 50.5323 9.69745 50.4422 9.75904 50.3973C10.0571 50.1605 10.2597 49.9581 10.3678 49.7893C10.4756 49.62 10.6065 49.3306 10.761 48.9195C10.9146 48.5087 11.0278 48.2412 11.0997 48.1171C11.2231 47.915 11.4181 47.7178 11.6851 47.5262C12.0039 47.3573 12.2144 47.2337 12.317 47.1548C12.4197 47.0761 12.5635 46.9014 12.7485 46.6314C12.9233 46.3948 13.0154 46.2764 13.026 46.2764C13.0876 46.2879 13.0926 46.3893 13.0411 46.5805ZM12.9327 56.3143C12.9637 56.5055 12.9019 56.7699 12.748 57.1076C12.5628 57.5019 12.3882 57.6986 12.2239 57.6986C12.111 57.5974 11.9466 57.4567 11.7309 57.2767C11.5153 57.0965 11.4075 56.9726 11.4075 56.9051L11.4383 56.8374C11.4998 56.6912 11.6129 56.4212 11.777 56.0269C11.8182 55.9369 11.9209 55.7398 12.0855 55.4357L12.147 55.3514C12.1881 55.3966 12.2601 55.4531 12.3626 55.5204C12.5578 55.678 12.6761 55.7905 12.7172 55.858C12.8301 56.0157 12.9019 56.1675 12.9327 56.3143ZM11.3457 56.4155C11.3765 56.6069 11.3149 56.8714 11.1608 57.209C10.976 57.6031 10.8015 57.8001 10.6369 57.8001C10.5235 57.6986 10.3594 57.5579 10.1439 57.3778C9.92797 57.198 9.8201 57.0735 9.8201 57.0065L9.85107 56.9389C9.91266 56.7928 10.0256 56.5225 10.19 56.1282C10.231 56.0384 10.3339 55.8409 10.4983 55.5373L10.5599 55.4531C10.6009 55.4981 10.6728 55.5541 10.7758 55.6216C10.9706 55.7789 11.0889 55.892 11.13 55.9594C11.2431 56.1171 11.3149 56.2689 11.3457 56.4155ZM8.47787 45.3481C8.4984 45.3031 8.54468 45.2185 8.61653 45.0947C8.62662 45.0722 8.65237 45.0383 8.69343 44.9935C8.7244 45.0497 8.73971 45.0947 8.73971 45.1285L8.66264 45.7027L8.57008 46.6482L8.4008 48.1514C8.32895 48.7703 8.2056 49.2826 8.03093 49.6879L7.67654 50.4984C7.46063 50.9827 7.29136 51.2244 7.16801 51.2244L7.1219 51.106C7.44028 49.9133 7.6407 48.9337 7.72247 48.1678L7.83068 47.1043L7.99996 46.5805L8.47787 45.3481ZM4.29896 49.8061C4.30957 49.8513 4.31479 49.9133 4.31479 49.992C4.31479 50.1943 4.25286 50.3916 4.12968 50.5829C3.88316 50.9657 3.70326 51.1684 3.59018 51.1909C3.56982 51.1909 3.52355 51.1625 3.45169 51.106C3.21543 50.9262 3.09208 50.825 3.08199 50.8025C2.92768 50.6896 2.84051 50.6338 2.81981 50.6338C2.71716 50.555 2.6608 50.4759 2.65036 50.3973L3.00475 49.5192C3.11766 49.3049 3.21543 49.1306 3.29738 48.9954L3.39011 48.8435C3.46178 48.8774 3.56982 48.9394 3.7137 49.0292C3.8882 49.1756 4.01155 49.2883 4.08323 49.367C4.21719 49.5131 4.28904 49.6597 4.29896 49.8061ZM6.2715 50.6841C6.1793 51.1344 6.10188 51.461 6.04046 51.6635C5.53698 53.3524 4.70485 54.5457 3.54408 55.2435C3.09208 55.5141 2.57833 55.6489 2.00334 55.6489C1.36624 55.6489 0.873188 55.4321 0.524017 54.9985C0.174846 54.565 0 53.9939 0 53.2847C0 52.1701 0.436681 50.7911 1.30987 49.1474C1.41269 48.956 1.48941 48.8658 1.54091 48.8774C1.56161 48.8885 1.56666 48.9504 1.55639 49.0629C1.53586 49.1756 1.51516 49.2711 1.49446 49.3499L0.986273 50.5657C0.739748 51.1516 0.616573 51.6582 0.616573 52.0858C0.616573 53.2675 1.21227 53.8586 2.40383 53.8586C3.67786 53.8586 4.68432 53.2284 5.42407 51.9674C5.66015 51.5737 5.78367 51.1177 5.79394 50.5994L5.82456 49.3836C5.83517 49.0465 5.92216 48.6465 6.08674 48.1851L6.39468 47.5262C6.47697 47.3462 6.54343 47.228 6.59493 47.1718C6.64642 47.228 6.66678 47.301 6.65669 47.3912L6.57979 47.9823L6.50289 48.8265C6.50289 49.322 6.42582 49.9413 6.2715 50.6841ZM14.9331 45.3481C14.9535 45.3031 14.9997 45.2185 15.0719 45.0947C15.082 45.0722 15.1078 45.0383 15.1487 44.9935C15.1796 45.0497 15.1949 45.0947 15.1949 45.1285L15.1179 45.7027L15.0253 46.6482L14.856 48.1514C14.7842 48.7703 14.6612 49.2826 14.4863 49.6879L14.1316 50.4984C13.9159 50.9827 13.7466 51.2244 13.6232 51.2244L13.5771 51.106C13.8955 49.9133 14.0959 48.9337 14.178 48.1678L14.2857 47.1043L14.4554 46.5805L14.9331 45.3481Z" fill="white"/>
<path fill-rule="evenodd" clip-rule="evenodd" d="M18.4039 3.96007L20.1126 2.56159C26.5401 9.56297 19.9862 18.6713 11.9223 16.4618L12.1663 14.0288C18.1395 15.7628 22.6278 9.8381 18.4039 3.96007ZM13.3869 10.3925L12.5734 12.3228C16.5614 14.1254 21.2057 9.58776 17.1298 5.10689L15.7193 6.61672C17.8097 9.30921 15.3553 11.5601 13.3869 10.3925ZM29.0446 0.0199126L29.8708 2.18466C32.6803 2.21078 34.6801 3.92404 34.6111 6.73798H26.1331C25.6595 4.22795 24.7519 2.3143 23.4108 0.997613L21.7853 1.90553C27.5992 10.2162 21.823 20.1385 11.8315 17.967V19.9503H21.0814L23.8305 14.3497L32.3358 14.5872L29.952 19.8803H34.9091L37.4279 14.3636L47.3412 14.5033C45.8789 5.34045 36.8712 -0.382378 29.0446 0.0199126Z" fill="white"/>
<path fill-rule="evenodd" clip-rule="evenodd" d="M41.1482 31.9286L39.4397 33.3271C33.0126 26.3257 39.5665 17.2172 47.6301 19.4269L47.386 21.8601C41.4129 20.1259 36.9247 26.051 41.1482 31.9286ZM46.1658 25.496L46.9795 23.5659C42.9915 21.763 38.3473 26.3011 42.4232 30.782L43.8335 29.2718C41.7427 26.5799 44.1973 24.3282 46.1658 25.496ZM30.5079 35.8686L29.6818 33.704C26.8726 33.6781 24.8724 31.9646 24.9418 29.1507H33.4197C33.8929 31.6611 34.8006 33.5748 36.1415 34.8911L37.7671 33.9833C31.9533 25.6729 37.7295 15.7502 47.7216 17.9218V15.9386H38.471L35.7219 21.5388L27.217 21.3018L29.6004 16.0082H24.644L22.1246 21.5253L12.2109 21.3852C13.6739 30.5484 22.6812 36.2711 30.5079 35.8686Z" fill="white"/>
</svg>
