<svg width="140" height="140" viewBox="0 0 140 140" fill="none" xmlns="http://www.w3.org/2000/svg">
<path d="M99.2735 89.1765C99.3154 89.1765 99.3809 89.0993 99.4698 88.945C99.5588 88.7906 99.6033 88.669 99.6033 88.5801C99.6033 88.4885 99.5549 88.3917 99.4581 88.2897C99.3638 88.1982 99.2775 88.1524 99.199 88.1524C99.1675 88.1524 99.0988 88.257 98.9928 88.4663C98.8868 88.6755 98.8338 88.7946 98.8338 88.8233C98.8338 88.8495 98.8574 88.8783 98.9045 88.9096C98.9516 88.941 99.0184 88.9934 99.1047 89.0666C99.1911 89.1398 99.2474 89.1765 99.2735 89.1765ZM98.8731 90.1377C98.9595 90.1377 99.0799 89.9886 99.2343 89.6904C99.2971 89.7323 99.3743 89.8003 99.4659 89.8945C99.534 89.9625 99.5863 89.9965 99.623 89.9965C99.6701 89.9965 99.7447 89.9246 99.8467 89.7807C99.9488 89.6342 99.9998 89.5126 99.9998 89.4158C99.9998 89.3295 99.9488 89.2353 99.8467 89.1333C99.7447 89.0417 99.6596 88.996 99.5915 88.996C99.5706 88.996 99.5196 89.0601 99.4384 89.1882C99.3809 89.2798 99.322 89.3739 99.2618 89.4707C99.2277 89.4001 99.1623 89.3262 99.0655 89.249C98.9686 89.1719 98.8967 89.1333 98.8495 89.1333C98.8234 89.1333 98.7501 89.2386 98.6297 89.4491C98.5093 89.6597 98.4491 89.782 98.4491 89.816C98.4491 89.8343 98.5145 89.8925 98.6454 89.9906C98.7763 90.0887 98.8522 90.1377 98.8731 90.1377ZM98.0369 93.0843C98.1782 93.0948 98.2901 93.0575 98.3725 92.9725C98.455 92.8875 98.6088 92.6554 98.8338 92.2761C98.9019 92.1819 98.9601 92.1178 99.0085 92.0838C99.057 92.0498 99.1073 92.0256 99.1597 92.0112C99.212 91.9969 99.2683 91.9884 99.3285 91.9857C99.4175 91.9805 99.5183 91.8393 99.6308 91.562C99.6674 91.4626 99.6858 91.3933 99.6858 91.354C99.6805 91.2991 99.6622 91.2795 99.6308 91.2952C99.6099 91.3057 99.5843 91.3364 99.5542 91.3874C99.5242 91.4384 99.4908 91.4914 99.4541 91.5463C99.3887 91.5463 99.3115 91.5568 99.2225 91.5777C99.1335 91.5986 99.0471 91.6601 98.9634 91.7621C98.8796 91.8641 98.8208 91.9387 98.7867 91.9857C98.7291 92.0668 98.6886 92.1231 98.665 92.1545C98.6074 92.2329 98.5512 92.2722 98.4962 92.2722L98.4777 92.2719C98.4544 92.2715 98.4102 92.271 98.3451 92.2702C98.2364 92.2689 98.1337 92.2774 98.0369 92.2957C97.9584 92.5599 97.9584 92.8228 98.0369 93.0843ZM94.5323 95.7881L94.5742 95.7759C94.5978 95.7681 94.6187 95.7602 94.637 95.7524C94.6527 95.7472 94.6658 95.7419 94.6763 95.7367C94.7967 95.687 94.9092 95.6314 95.0139 95.5699C95.1186 95.5085 95.2325 95.4333 95.3555 95.3443C95.4785 95.2554 95.6342 95.1187 95.8227 94.9343C96.0111 94.7499 96.1963 94.5302 96.3782 94.2752C96.5601 94.0201 96.7158 93.8102 96.8454 93.6454C96.9749 93.4806 97.1365 93.3446 97.3302 93.2374C97.4637 93.1746 97.5684 93.1327 97.6443 93.1118C97.7307 93.0883 97.8085 93.0765 97.8779 93.0765C97.9472 93.0765 98.0002 93.0791 98.0369 93.0843C98.0631 93.032 98.0873 92.9738 98.1095 92.9097C98.1318 92.8457 98.1455 92.7796 98.1507 92.7116C98.156 92.6436 98.1507 92.5743 98.135 92.5037C98.1193 92.433 98.0866 92.3637 98.0369 92.2957C98.0081 92.3009 97.98 92.3062 97.9525 92.3114C97.925 92.3166 97.8969 92.3258 97.8681 92.3389C97.7006 92.4016 97.5239 92.4984 97.3381 92.6292C97.1522 92.76 96.9599 92.9483 96.761 93.1942C96.6929 93.2753 96.5424 93.4846 96.3095 93.822C96.2467 93.924 96.1799 94.0221 96.1093 94.1163C95.9601 94.3517 95.8024 94.559 95.6362 94.7381C95.47 94.9173 95.3077 95.0703 95.1494 95.1972C94.991 95.3241 94.849 95.428 94.7234 95.5091C94.6135 95.5954 94.5389 95.6595 94.4996 95.7014C94.4682 95.738 94.4564 95.7629 94.4643 95.7759C94.4931 95.7942 94.5297 95.7942 94.5742 95.7759L94.5323 95.7881ZM95.8933 89.867C95.9038 89.8853 95.9457 89.8644 96.019 89.8042C96.053 89.7781 96.0896 89.75 96.1289 89.7199C96.1681 89.6898 96.2074 89.6577 96.2467 89.6237L96.8002 89.1921C97.007 89.0404 97.2216 88.877 97.4441 88.7017C97.6116 88.5735 97.7935 88.4257 97.9898 88.2583C98.1337 88.138 98.26 88.0308 98.3686 87.9366C98.4772 87.8424 98.5682 87.7627 98.6415 87.6973C98.8456 87.5142 98.9817 87.3886 99.0498 87.3206C99.0733 87.2971 99.1531 87.212 99.2892 87.0656C99.4044 86.9348 99.496 86.8236 99.5641 86.7321C99.6295 86.6484 99.7028 86.5372 99.7839 86.3985C99.8624 86.2573 99.9135 86.1448 99.937 86.0611C99.9475 86.0297 99.9527 86.0049 99.9527 85.9866C99.9527 85.9885 99.9401 86.0024 99.9149 86.0283L99.8016 86.1416C99.7008 86.241 99.5497 86.3881 99.3481 86.583C99.0524 86.8681 98.8404 87.0708 98.7121 87.1911C98.474 87.4108 98.2384 87.6175 98.0055 87.811C97.6312 88.1171 97.2883 88.3917 96.9769 88.635C96.5764 88.962 96.3252 89.1817 96.2231 89.2942C96.1551 89.3622 96.0935 89.4459 96.0386 89.5453C95.9784 89.6577 95.93 89.765 95.8933 89.867ZM95.1395 93.1864C95.1997 93.1864 95.2652 93.1432 95.3358 93.0569C95.4065 92.9732 95.4746 92.8777 95.54 92.7705C95.6054 92.6606 95.6565 92.5468 95.6931 92.4291C95.7297 92.314 95.7585 92.1728 95.7795 92.0054C95.7978 91.8563 95.8174 91.4417 95.8384 90.7616C95.8462 90.6439 95.8541 90.5144 95.8619 90.3731C95.8724 90.2476 95.8776 90.1286 95.8776 90.0161C95.8776 89.9559 95.875 89.9206 95.8698 89.9102C95.8514 89.8788 95.8331 89.884 95.8148 89.9259L95.6774 90.3378L95.4929 90.9146L95.5007 92.0054C95.5007 92.0786 95.4929 92.178 95.4772 92.3036C95.4615 92.4239 95.4432 92.5089 95.4222 92.5586C95.383 92.6658 95.33 92.709 95.2632 92.6881C95.1965 92.6671 95.1291 92.6567 95.061 92.6567C95.0296 92.743 95.0152 92.8287 95.0178 92.9137C95.0205 92.9987 95.0349 93.0843 95.061 93.1707C95.0741 93.1785 95.1003 93.1837 95.1395 93.1864ZM91.8457 92.6057C91.9295 92.6057 92.042 92.4631 92.1833 92.178C92.2409 92.2199 92.3077 92.2787 92.3836 92.3546C92.4595 92.4304 92.5118 92.4683 92.5406 92.4683C92.5851 92.4683 92.6544 92.4016 92.7487 92.2682C92.8455 92.1322 92.8939 92.0145 92.8939 91.9151C92.8887 91.8314 92.8409 91.7418 92.7506 91.6464C92.6603 91.5509 92.5825 91.5031 92.517 91.5031C92.4961 91.5031 92.4536 91.5568 92.3894 91.664L92.269 91.8645L92.2147 91.9544C92.1702 91.8916 92.1055 91.819 92.0204 91.7366C91.9353 91.6542 91.8706 91.6222 91.8261 91.6405C91.8025 91.6405 91.7371 91.7412 91.6298 91.9426C91.5225 92.144 91.4688 92.2617 91.4688 92.2957C91.4688 92.3114 91.5074 92.3506 91.5846 92.4134C91.6618 92.4762 91.7188 92.5233 91.7554 92.5547C91.7947 92.5887 91.8248 92.6057 91.8457 92.6057ZM91.3667 94.6302C91.9373 94.6302 92.4542 94.5792 92.9175 94.4772C93.386 94.3752 93.7445 94.2313 93.9932 94.0456C94.0953 93.9776 94.1829 93.8939 94.2562 93.7945C94.2876 93.7474 94.3197 93.701 94.3524 93.6552C94.3851 93.6095 94.4172 93.563 94.4486 93.5159C94.514 93.4218 94.5781 93.3485 94.641 93.2962C94.7064 93.2387 94.7692 93.2034 94.8294 93.1903C94.8948 93.1772 94.972 93.1707 95.061 93.1707C95.1055 93.1157 95.1422 93.032 95.171 92.9196C95.184 92.8019 95.1474 92.7142 95.061 92.6567C94.9354 92.6828 94.832 92.7391 94.7509 92.8254C94.7116 92.8646 94.6606 92.9268 94.5978 93.0118C94.535 93.0968 94.4996 93.1419 94.4918 93.1471C94.4211 93.2204 94.3243 93.289 94.2013 93.3531C94.0782 93.4172 93.9238 93.4767 93.738 93.5316C93.4553 93.618 93.2165 93.6742 93.0215 93.7004C92.8265 93.7265 92.5727 93.7468 92.2599 93.7612C91.9471 93.7756 91.6651 93.7801 91.4138 93.7749C91.1076 93.7723 90.874 93.7501 90.7131 93.7082C90.5521 93.6663 90.4356 93.6114 90.3637 93.5434C90.2917 93.4754 90.2492 93.3812 90.2361 93.2609C90.2178 93.1406 90.1981 93.0804 90.1772 93.0804C90.1432 93.0804 90.1131 93.1785 90.0869 93.3747C90.0581 93.5552 90.0437 93.733 90.0437 93.9083C90.0437 94.1803 90.1261 94.3674 90.291 94.4694C90.3931 94.5374 90.5515 94.5805 90.7661 94.5989C90.9545 94.6198 91.1547 94.6302 91.3667 94.6302ZM88.7678 92.8686C88.9667 92.8686 89.125 92.743 89.2428 92.4919C89.3266 92.3009 89.3684 92.1074 89.3684 91.9112C89.3632 91.8589 89.341 91.7909 89.3017 91.7072C89.2598 91.6287 89.2075 91.6012 89.1447 91.6248C89.1185 91.6509 89.0858 91.7268 89.0465 91.8523C89.0099 91.9805 88.9837 92.0459 88.968 92.0485C88.879 92.0485 88.8018 92.0041 88.7364 91.9151C88.6657 91.8288 88.6304 91.6993 88.6304 91.5267V91.3933C88.599 91.3828 88.563 91.3959 88.5224 91.4325C88.4818 91.4691 88.4445 91.5188 88.4105 91.5816C88.3765 91.6444 88.3484 91.715 88.3261 91.7935C88.3039 91.872 88.2927 91.9465 88.2927 92.0171C88.2927 92.1872 88.3032 92.3284 88.3242 92.4409C88.3451 92.5481 88.3961 92.6462 88.4773 92.7351C88.5584 92.8241 88.6552 92.8686 88.7678 92.8686ZM88.0533 92.898C88.0899 92.8967 88.1226 92.8869 88.1514 92.8686C88.1566 92.8215 88.2038 92.7234 88.2927 92.5743C88.3372 92.4984 88.37 92.4605 88.3909 92.4605C88.4197 92.4605 88.4472 92.4043 88.4733 92.2918C88.5021 92.195 88.5309 92.0511 88.5597 91.8602L88.6304 91.3972C88.6304 91.2978 88.6579 91.0715 88.7128 90.7184C88.7207 90.6609 88.7318 90.5896 88.7462 90.5046C88.7606 90.4196 88.7776 90.3326 88.7972 90.2437C88.8169 90.1547 88.8188 90.1063 88.8031 90.0985C88.79 90.0906 88.773 90.0946 88.7521 90.1103C88.6709 90.2489 88.6068 90.3745 88.5597 90.4869C88.5388 90.5392 88.5061 90.636 88.4616 90.7773C88.4328 90.895 88.4079 91.0075 88.387 91.1147C88.3608 91.2376 88.3385 91.3841 88.3202 91.5541L88.2927 91.97L88.2849 92.1466C88.2797 92.2042 88.2456 92.2931 88.1828 92.4134C88.175 92.4317 88.1279 92.522 88.0415 92.6841L87.9433 92.8686C87.98 92.8895 88.0166 92.8993 88.0533 92.898ZM86.7381 95.8858C86.882 95.8858 87.0168 95.8649 87.1424 95.823C87.2576 95.7838 87.3754 95.7262 87.4958 95.6504C87.8229 95.4123 88.0821 95.0932 88.2731 94.693C88.3935 94.4341 88.476 94.217 88.5204 94.0417C88.5649 93.8612 88.5872 93.6847 88.5872 93.512C88.5872 93.3943 88.5741 93.3054 88.5479 93.2452C88.5218 93.1903 88.4786 93.1412 88.4184 93.0981C88.3582 93.0549 88.2986 93.015 88.2397 92.9784C88.1809 92.9418 88.1514 92.9052 88.1514 92.8686C88.1488 92.8502 88.1383 92.8372 88.12 92.8293C88.1017 92.8215 88.0814 92.8175 88.0592 92.8175C88.0369 92.8175 88.0147 92.8215 87.9924 92.8293C87.9702 92.8372 87.9538 92.8502 87.9433 92.8686C87.8858 92.9732 87.8367 93.0837 87.7961 93.2001C87.7555 93.3165 87.7353 93.4205 87.7353 93.512C87.7353 93.6402 87.8308 93.7487 88.0219 93.8377C88.2103 93.924 88.3045 93.9894 88.3045 94.0339C88.3045 94.2562 88.1841 94.4681 87.9433 94.6695C87.6607 94.9049 87.31 95.0226 86.8912 95.0226C86.6583 95.0226 86.4685 94.9742 86.3219 94.8774C86.123 94.7388 86.0236 94.5086 86.0236 94.1869C86.0236 94.0169 86.0851 93.7762 86.2081 93.4649C86.2787 93.2949 86.407 92.9954 86.5928 92.5664C86.6138 92.5194 86.6308 92.4631 86.6439 92.3977C86.6569 92.3428 86.6491 92.3127 86.6203 92.3075C86.5994 92.3049 86.5693 92.3389 86.53 92.4095C86.5143 92.4461 86.494 92.488 86.4692 92.535C86.4443 92.5821 86.4162 92.6344 86.3847 92.692C86.3403 92.7862 86.3036 92.8627 86.2748 92.9215C86.246 92.9804 86.2238 93.0242 86.2081 93.053C86.1557 93.1733 86.0929 93.3211 86.0196 93.4963C85.9516 93.6663 85.8862 93.8678 85.8233 94.1006C85.7605 94.3412 85.7291 94.5361 85.7291 94.6852C85.7291 95.02 85.8063 95.2946 85.9607 95.5091C86.1413 95.7602 86.4005 95.8858 86.7381 95.8858ZM84.7123 94.5753C84.851 94.5675 84.9688 94.4955 85.0656 94.3595C85.1625 94.2235 85.239 94.0496 85.2953 93.8377C85.3516 93.6258 85.381 93.4728 85.3836 93.3786C85.3889 93.3237 85.3771 93.2962 85.3483 93.2962C85.3247 93.2962 85.2999 93.3348 85.2737 93.412C85.2475 93.4891 85.2155 93.5565 85.1775 93.614C85.1396 93.6716 85.0853 93.7082 85.0146 93.7239C84.9439 93.7396 84.8733 93.7239 84.8026 93.6768C84.6848 93.5905 84.6259 93.4375 84.6259 93.2178V93.0451C84.5841 93.0556 84.5297 93.1144 84.463 93.2217C84.3963 93.3289 84.3367 93.495 84.2844 93.72V93.7474C84.2791 93.9881 84.3119 94.1843 84.3825 94.336C84.461 94.4903 84.571 94.5701 84.7123 94.5753ZM84.5042 97.6318C84.5827 97.6318 84.6901 97.4853 84.8262 97.1923C84.8811 97.2342 84.9505 97.3009 85.0342 97.3925C85.0944 97.4578 85.1402 97.4905 85.1716 97.4905C85.2135 97.4905 85.2789 97.4212 85.3679 97.2826C85.4595 97.1387 85.5053 97.0184 85.5053 96.9216C85.5053 96.8379 85.4595 96.7451 85.3679 96.643C85.2789 96.5541 85.2044 96.5096 85.1442 96.5096C85.1258 96.5096 85.08 96.5737 85.0067 96.7019C84.957 96.7908 84.9047 96.8811 84.8497 96.9726C84.8209 96.9072 84.7633 96.836 84.677 96.7588C84.5906 96.6816 84.5265 96.643 84.4846 96.643C84.461 96.643 84.3963 96.747 84.2903 96.955C84.1843 97.1629 84.1313 97.2826 84.1313 97.314C84.1313 97.3323 84.1888 97.3898 84.304 97.4866C84.4192 97.5834 84.4859 97.6318 84.5042 97.6318ZM84.8536 98.4047C84.885 98.4047 84.9426 98.3407 85.0264 98.2125C85.1075 98.0791 85.1507 97.9666 85.1559 97.8751C85.1612 97.7914 85.1265 97.7037 85.0519 97.6122C84.9773 97.5206 84.9086 97.4722 84.8458 97.467C84.8222 97.4644 84.7594 97.554 84.6573 97.7358C84.5553 97.9176 84.5029 98.0215 84.5003 98.0477C84.5003 98.0712 84.518 98.0987 84.5533 98.1301C84.5886 98.1615 84.6233 98.1916 84.6573 98.2203C84.6992 98.2648 84.7398 98.3067 84.779 98.3459C84.8078 98.3825 84.8327 98.4021 84.8536 98.4047ZM84.2844 93.7239C84.342 93.7317 84.391 93.7219 84.4316 93.6945C84.4722 93.667 84.5055 93.6252 84.5317 93.5689C84.5579 93.5127 84.5788 93.4447 84.5945 93.3649C84.6102 93.2851 84.6207 93.1955 84.6259 93.0961C84.6259 93.0804 84.6325 92.9889 84.6456 92.8215C84.6586 92.6541 84.694 92.3454 84.7516 91.8955C84.8091 91.4456 84.8419 91.1409 84.8497 90.9813C84.8497 90.9604 84.8425 90.9473 84.8281 90.9421C84.8137 90.9368 84.8 90.9499 84.7869 90.9813C84.6586 91.3057 84.5736 91.5319 84.5317 91.6601C84.4506 92.1021 84.3897 92.5056 84.3492 92.8705C84.3086 93.2354 84.287 93.5199 84.2844 93.7239ZM82.7454 94.5753C82.8815 94.5779 83.0098 94.5269 83.1302 94.4223C83.2113 94.3491 83.3003 94.2392 83.3971 94.0927C83.4547 94.0038 83.5084 93.8952 83.5581 93.7671C83.5921 93.6807 83.6222 93.5983 83.6484 93.5199C83.6746 93.4414 83.7066 93.3328 83.7446 93.1942C83.7825 93.0556 83.8041 92.8829 83.8093 92.6763C83.812 92.6161 83.8159 92.5122 83.8211 92.3644C83.8264 92.2166 83.8303 92.0917 83.8329 91.9897C83.8512 91.5895 83.8813 91.2363 83.9232 90.9303C83.9363 90.8623 83.9468 90.7917 83.9546 90.7184C83.9677 90.6373 83.9677 90.5935 83.9546 90.587C83.9415 90.5804 83.9258 90.5903 83.9075 90.6164C83.7609 90.8728 83.6549 91.1095 83.5895 91.3266C83.5241 91.5437 83.4881 91.7346 83.4815 91.8994C83.475 92.0642 83.473 92.248 83.4756 92.4507C83.4783 92.6534 83.4769 92.8175 83.4717 92.9431V93.1864C83.4717 93.2675 83.4475 93.3825 83.3991 93.5316C83.3507 93.6807 83.2545 93.8135 83.1105 93.9299C82.9666 94.0463 82.8226 94.1019 82.6787 94.0966C82.6525 94.0966 82.6211 94.096 82.5845 94.0947C82.5478 94.0934 82.5269 94.0875 82.5216 94.077C82.6263 93.9253 82.7127 93.7435 82.7808 93.5316C82.8305 93.3878 82.8678 93.2387 82.8926 93.0843C82.9175 92.93 82.9496 92.5913 82.9888 92.0681C82.9995 91.9255 83.0088 91.8005 83.0166 91.6932L83.0302 91.5023C83.0419 91.335 83.0477 91.2385 83.0477 91.2128C83.0503 91.116 83.0425 91.0676 83.0242 91.0676C83.0189 91.0676 83.0124 91.0729 83.0045 91.0833C82.9967 91.0938 82.9901 91.1069 82.9849 91.1226C82.8645 91.4469 82.7781 91.7046 82.7258 91.8955C82.6473 92.178 82.6041 92.4396 82.5962 92.6802C82.5989 92.7744 82.5995 92.862 82.5982 92.9431C82.5969 93.0242 82.5949 93.1053 82.5923 93.1864C82.5897 93.2675 82.5831 93.3642 82.5727 93.4767C82.5622 93.5892 82.5465 93.6801 82.5256 93.7494C82.5046 93.8187 82.4811 93.8743 82.4549 93.9162C82.4287 93.958 82.4078 93.9894 82.3921 94.0103C82.3607 94.0522 82.3319 94.0901 82.3057 94.1241C82.2795 94.1581 82.2665 94.1882 82.2665 94.2143C82.2638 94.251 82.2822 94.2876 82.3214 94.3242C82.3319 94.3347 82.3568 94.3556 82.396 94.387C82.4457 94.4419 82.4981 94.4864 82.553 94.5204C82.608 94.5544 82.6721 94.5727 82.7454 94.5753ZM81.709 92.4173C81.8006 92.331 81.9 92.195 82.0073 92.0093C82.1094 91.8288 82.1631 91.6666 82.1683 91.5228C82.1735 91.3344 82.1762 91.2285 82.1762 91.2049C82.1762 91.1108 82.1775 91.0375 82.1801 90.9852C82.1827 90.9094 82.1788 90.8675 82.1683 90.8597C82.15 90.8518 82.1304 90.8662 82.1094 90.9028C82.0309 91.065 81.9694 91.1866 81.9249 91.2677C81.8568 91.3828 81.8228 91.4744 81.8228 91.5424V91.8798C81.8228 91.9138 81.8163 91.9504 81.8032 91.9897C81.7849 92.0289 81.7535 92.0616 81.709 92.0878C81.6854 92.1427 81.6763 92.1976 81.6815 92.2525C81.6867 92.3075 81.6959 92.3624 81.709 92.4173ZM81.1476 96.7333C81.2313 96.7333 81.3439 96.5907 81.4852 96.3056C81.5428 96.3475 81.6095 96.4063 81.6854 96.4822C81.7613 96.558 81.8137 96.596 81.8425 96.596C81.8869 96.596 81.9563 96.5293 82.0505 96.3959C82.1474 96.2598 82.1958 96.1421 82.1958 96.0427C82.1906 95.959 82.1428 95.8694 82.0525 95.774C81.9622 95.6785 81.8843 95.6308 81.8189 95.6308C81.798 95.6308 81.7554 95.6844 81.6913 95.7916C81.6272 95.8989 81.569 95.9957 81.5166 96.082C81.4721 96.0192 81.4073 95.9466 81.3223 95.8642C81.2372 95.7818 81.1724 95.7498 81.1279 95.7681C81.1044 95.7681 81.0389 95.8688 80.9316 96.0702C80.8243 96.2716 80.7707 96.3893 80.7707 96.4233C80.7707 96.439 80.8093 96.4783 80.8865 96.541C80.9637 96.6038 81.0206 96.6509 81.0573 96.6823C81.0965 96.7163 81.1266 96.7333 81.1476 96.7333ZM80.1033 89.9376C80.1425 89.9376 80.2034 89.8618 80.2858 89.7101C80.3683 89.5583 80.4095 89.4393 80.4095 89.353C80.4095 89.2615 80.365 89.166 80.276 89.0666C80.187 88.9777 80.1059 88.9332 80.0326 88.9332C80.0038 88.9332 79.9403 89.0359 79.8422 89.2412C79.744 89.4465 79.695 89.5623 79.695 89.5884C79.695 89.6146 79.7166 89.6434 79.7598 89.6747C79.8029 89.7061 79.8651 89.7578 79.9462 89.8297C80.0274 89.9017 80.0797 89.9376 80.1033 89.9376ZM79.7303 90.8793C79.8114 90.8793 79.924 90.7328 80.0679 90.4398C80.1255 90.4817 80.1975 90.5484 80.2839 90.64C80.3467 90.7053 80.3951 90.738 80.4291 90.738C80.471 90.738 80.5404 90.6687 80.6372 90.5301C80.7314 90.3862 80.7785 90.2659 80.7785 90.1691C80.7785 90.0854 80.7314 89.9939 80.6372 89.8945C80.5404 89.8055 80.4605 89.7611 80.3977 89.7611C80.3794 89.7611 80.3323 89.8238 80.2564 89.9494C80.204 90.0383 80.1491 90.1299 80.0915 90.2241C80.0601 90.156 79.9992 90.0841 79.9089 90.0083C79.8186 89.9324 79.7526 89.8945 79.7107 89.8945C79.6845 89.8945 79.6158 89.9978 79.5046 90.2044C79.3933 90.4111 79.3377 90.5301 79.3377 90.5615C79.3377 90.5798 79.3986 90.6373 79.5203 90.7341C79.642 90.8309 79.712 90.8793 79.7303 90.8793ZM78.3052 95.9211C78.8993 95.9159 79.4084 95.6268 79.8324 95.054C80.013 94.7977 80.1609 94.523 80.276 94.23C80.4252 93.8481 80.5273 93.4192 80.5822 92.9431C80.5927 92.9012 80.6006 92.8803 80.6058 92.8803C80.7105 92.8672 80.8001 92.843 80.8747 92.8077C80.9493 92.7724 81.0219 92.7273 81.0926 92.6724C81.1554 92.7064 81.2562 92.6763 81.3949 92.5821C81.4996 92.5743 81.6043 92.5207 81.709 92.4213C81.7142 92.4082 81.7247 92.386 81.7404 92.3546C81.7509 92.3336 81.7561 92.2996 81.7561 92.2525C81.7561 92.2081 81.7509 92.1754 81.7404 92.1545L81.709 92.0917C81.6854 92.11 81.6514 92.1231 81.6069 92.1309C81.5598 92.1335 81.5192 92.1257 81.4852 92.1074C81.4669 92.0917 81.4407 92.1159 81.4067 92.18C81.3727 92.244 81.3334 92.2761 81.2889 92.2761C81.2418 92.2761 81.2038 92.2617 81.175 92.2329C81.1463 92.2042 81.1227 92.1937 81.1044 92.2015C81.0206 92.3114 80.95 92.3781 80.8924 92.4016C80.8348 92.4252 80.7766 92.4278 80.7177 92.4095C80.6588 92.3912 80.6097 92.382 80.5705 92.382C80.4291 92.3846 80.3532 92.4683 80.3428 92.6331L80.343 93.0667C80.333 93.5516 80.236 93.9394 80.0522 94.23C79.9109 94.4628 79.7238 94.6577 79.4908 94.8147C79.1768 94.9951 78.8496 95.0854 78.5093 95.0854C78.2529 95.0801 78.0363 95.0121 77.8596 94.8814C77.6829 94.7506 77.5868 94.557 77.5711 94.3007C77.5763 93.9658 77.6954 93.5683 77.9283 93.1079C77.944 93.0608 77.9453 93.015 77.9322 92.9706C77.9192 92.9235 77.8786 92.9627 77.8105 93.0883C77.4572 93.7134 77.2818 94.2928 77.2844 94.8264C77.2949 95.1639 77.3905 95.4267 77.5711 95.6151C77.7516 95.806 77.9964 95.908 78.3052 95.9211ZM75.4668 94.5753C75.5008 94.5753 75.6087 94.5459 75.7906 94.487C75.9725 94.4282 76.108 94.3824 76.197 94.3497C76.286 94.317 76.3527 94.2863 76.3972 94.2575C76.4417 94.2287 76.5032 94.1542 76.5817 94.0339C76.6602 93.9135 76.7453 93.7265 76.8369 93.4728C76.8578 93.4152 76.8768 93.3531 76.8938 93.2864C76.9108 93.2197 76.9239 93.1648 76.9331 93.1216C76.9422 93.0785 76.9508 93.0248 76.9586 92.9608C76.9665 92.8967 76.9704 92.8319 76.9704 92.7665C76.9704 92.6384 76.9344 92.5285 76.8624 92.437C76.7904 92.3454 76.7008 92.2996 76.5935 92.2996C76.5307 92.2996 76.4672 92.3415 76.4031 92.4252C76.339 92.5089 76.2755 92.6148 76.2127 92.743C76.1499 92.8712 76.1086 92.9647 76.089 93.0235C76.0694 93.0824 76.0543 93.134 76.0439 93.1785C76.0334 93.2518 76.0609 93.3185 76.1263 93.3786C76.1917 93.4388 76.2729 93.4702 76.3697 93.4728C76.4064 93.4728 76.4437 93.463 76.4816 93.4434C76.5196 93.4237 76.5569 93.4165 76.5935 93.4218C76.5595 93.5421 76.5065 93.65 76.4345 93.7455C76.3625 93.8409 76.2919 93.9135 76.2225 93.9632C76.1531 94.0129 75.9994 94.1176 75.7612 94.2771C75.523 94.4367 75.4144 94.5308 75.4353 94.5596C75.4353 94.5701 75.4458 94.5753 75.4668 94.5753ZM73.1779 91.3266C73.3533 91.1566 73.6373 90.9774 74.0299 90.789C74.4225 90.6007 74.6305 90.4974 74.6541 90.4791C74.7064 90.4529 74.7562 90.4124 74.8033 90.3575C74.8347 90.3234 74.8923 90.2404 74.976 90.1083C75.0598 89.9762 75.1069 89.8958 75.1174 89.867C75.1252 89.8408 75.1147 89.8278 75.0859 89.8278L75.031 89.8474C74.8582 89.9232 74.6796 90.0154 74.4951 90.124C74.3106 90.2326 74.1339 90.3444 73.9651 90.4595C73.7963 90.5746 73.6432 90.6877 73.5058 90.7989C73.3684 90.91 73.2591 91.0048 73.1779 91.0833C73.1518 91.1435 73.142 91.1938 73.1485 91.2344C73.155 91.2749 73.1649 91.3057 73.1779 91.3266ZM74.5559 95.7171C74.6345 95.7171 74.7418 95.5706 74.8779 95.2776C74.9328 95.3195 75.0022 95.3862 75.0859 95.4777C75.1461 95.5431 75.1919 95.5758 75.2234 95.5758C75.2652 95.5758 75.3307 95.5065 75.4196 95.3679C75.5112 95.224 75.5571 95.1037 75.5571 95.0069C75.5571 94.9232 75.5112 94.8303 75.4196 94.7283C75.3307 94.6394 75.2561 94.5949 75.1959 94.5949C75.1775 94.5949 75.1317 94.659 75.0585 94.7872C75.0087 94.8761 74.9564 94.9664 74.9014 95.0579C74.8726 94.9925 74.8151 94.9212 74.7287 94.8441C74.6423 94.7669 74.5782 94.7283 74.5363 94.7283C74.5128 94.7283 74.448 94.8323 74.342 95.0403C74.236 95.2482 74.183 95.3679 74.183 95.3993C74.183 95.4176 74.2406 95.4751 74.3557 95.5719C74.4709 95.6687 74.5376 95.7171 74.5559 95.7171ZM74.9053 96.49C74.9368 96.49 74.9943 96.4259 75.0781 96.2978C75.1592 96.1644 75.2024 96.0519 75.2076 95.9603C75.2129 95.8766 75.1782 95.789 75.1036 95.6975C75.029 95.6059 74.9603 95.5575 74.8975 95.5523C74.8739 95.5497 74.8111 95.6393 74.7091 95.8211C74.607 96.0028 74.5546 96.1068 74.552 96.133C74.552 96.1565 74.5697 96.184 74.605 96.2154C74.6404 96.2468 74.675 96.2768 74.7091 96.3056C74.7509 96.3501 74.7915 96.3919 74.8308 96.4312C74.8595 96.4678 74.8844 96.4874 74.9053 96.49ZM73.6648 88.7252C73.7066 88.7252 73.7734 88.6468 73.865 88.4898C73.9566 88.3329 74.0024 88.2126 74.0024 88.1289C73.9945 88.0661 73.9356 87.9791 73.8257 87.8679C73.7158 87.7568 73.632 87.713 73.5745 87.7365C73.5457 87.7365 73.4822 87.8326 73.3841 88.0249C73.2859 88.2171 73.2368 88.342 73.2368 88.3996C73.2368 88.4284 73.2565 88.4558 73.2957 88.482C73.3402 88.5134 73.4089 88.5598 73.5018 88.6213L73.553 88.6549C73.6149 88.6955 73.6522 88.719 73.6648 88.7252ZM73.1779 92.4173C73.2722 92.3232 73.3703 92.2159 73.4724 92.0956C73.5274 92.0302 73.581 91.9635 73.6334 91.8955C73.6988 91.8118 73.7773 91.7425 73.8689 91.6876C73.8898 91.6771 73.916 91.6418 73.9474 91.5816C73.9814 91.5136 74.0024 91.4613 74.0102 91.4247C74.0181 91.3854 74.0155 91.3606 74.0024 91.3501C73.9893 91.3397 73.971 91.3397 73.9474 91.3501C73.8898 91.3763 73.8081 91.3952 73.7021 91.407C73.5961 91.4188 73.4802 91.426 73.3546 91.4286C73.229 91.4312 73.1387 91.4247 73.0837 91.409C73.1125 91.3802 73.1439 91.3527 73.1779 91.3266C73.2015 91.3083 73.2179 91.2847 73.227 91.256C73.2362 91.2272 73.2401 91.2004 73.2388 91.1755C73.2375 91.1507 73.2309 91.1291 73.2192 91.1108C73.2074 91.0925 73.1936 91.0833 73.1779 91.0833C73.0863 91.1696 73.0072 91.256 72.9404 91.3423C72.8737 91.4286 72.8259 91.5123 72.7971 91.5934C72.7867 91.6222 72.7919 91.6457 72.8128 91.664C72.8364 91.6849 72.8848 91.6954 72.9581 91.6954C72.9971 91.6949 73.034 91.6945 73.0689 91.6943L73.2536 91.6946C73.4403 91.697 73.5263 91.7064 73.5117 91.7229C73.441 91.8301 73.3782 91.9125 73.3232 91.97C73.2682 92.0276 73.2198 92.0668 73.1779 92.0878C73.1492 92.1165 73.1302 92.1492 73.121 92.1858C73.1119 92.2225 73.1086 92.2584 73.1112 92.2937C73.1138 92.3291 73.1217 92.3585 73.1348 92.382C73.1478 92.4056 73.1622 92.4173 73.1779 92.4173ZM71.5722 89.9376C71.6115 89.9376 71.6724 89.8618 71.7548 89.7101C71.8372 89.5583 71.8785 89.4393 71.8785 89.353C71.8785 89.2615 71.834 89.166 71.745 89.0666C71.656 88.9777 71.5749 88.9332 71.5016 88.9332C71.4728 88.9332 71.4093 89.0359 71.3112 89.2412C71.213 89.4465 71.1639 89.5623 71.1639 89.5884C71.1639 89.6146 71.1855 89.6434 71.2287 89.6747C71.2719 89.7061 71.3341 89.7578 71.4152 89.8297C71.4963 89.9017 71.5487 89.9376 71.5722 89.9376ZM71.1993 90.8793C71.2804 90.8793 71.393 90.7328 71.5369 90.4398C71.5945 90.4817 71.6665 90.5484 71.7528 90.64C71.8157 90.7053 71.8641 90.738 71.8981 90.738C71.94 90.738 72.0093 90.6687 72.1062 90.5301C72.2004 90.3862 72.2475 90.2659 72.2475 90.1691C72.2475 90.0854 72.2004 89.9939 72.1062 89.8945C72.0093 89.8055 71.9295 89.7611 71.8667 89.7611C71.8484 89.7611 71.8013 89.8238 71.7254 89.9494C71.673 90.0383 71.618 90.1299 71.5605 90.2241C71.5291 90.156 71.4682 90.0841 71.3779 90.0083C71.2876 89.9324 71.2215 89.8945 71.1796 89.8945C71.1535 89.8945 71.0848 89.9978 70.9735 90.2044C70.8623 90.4111 70.8067 90.5301 70.8067 90.5615C70.8067 90.5798 70.8675 90.6373 70.9892 90.7341C71.1109 90.8309 71.181 90.8793 71.1993 90.8793ZM69.7742 95.9211C70.3683 95.9159 70.8774 95.6268 71.3014 95.054C71.4819 94.7977 71.6298 94.523 71.745 94.23C71.8942 93.8481 71.9962 93.4192 72.0512 92.9431C72.0617 92.9012 72.0695 92.8803 72.0748 92.8803C72.1795 92.8672 72.2691 92.843 72.3437 92.8077C72.4183 92.7724 72.4909 92.7273 72.5616 92.6724C72.6244 92.7064 72.7252 92.6763 72.8639 92.5821C72.9686 92.5743 73.0733 92.5207 73.1779 92.4213C73.1832 92.4082 73.1936 92.386 73.2094 92.3546C73.2198 92.3336 73.2251 92.2996 73.2251 92.2525C73.2251 92.2081 73.2198 92.1754 73.2094 92.1545L73.1779 92.0917C73.1544 92.11 73.1204 92.1231 73.0759 92.1309C73.0288 92.1335 72.9882 92.1257 72.9542 92.1074C72.9358 92.0917 72.9097 92.1159 72.8756 92.18C72.8416 92.244 72.8024 92.2761 72.7579 92.2761C72.7108 92.2761 72.6728 92.2617 72.644 92.2329C72.6152 92.2042 72.5917 92.1937 72.5734 92.2015C72.4896 92.3114 72.4189 92.3781 72.3614 92.4016C72.3038 92.4252 72.2455 92.4278 72.1866 92.4095C72.1278 92.3912 72.0787 92.382 72.0394 92.382C71.8981 92.3846 71.8222 92.4683 71.8117 92.6331L71.812 93.0667C71.8019 93.5516 71.705 93.9394 71.5212 94.23C71.3799 94.4628 71.1927 94.6577 70.9598 94.8147C70.6457 94.9951 70.3186 95.0854 69.9783 95.0854C69.7218 95.0801 69.5052 95.0121 69.3286 94.8814C69.1519 94.7506 69.0557 94.557 69.04 94.3007C69.0453 93.9658 69.1643 93.5683 69.3973 93.1079C69.413 93.0608 69.4143 93.015 69.4012 92.9706C69.3881 92.9235 69.3476 92.9627 69.2795 93.0883C68.9262 93.7134 68.7508 94.2928 68.7534 94.8264C68.7639 95.1639 68.8594 95.4267 69.04 95.6151C69.2206 95.806 69.4653 95.908 69.7742 95.9211ZM68.1842 90.3182C68.226 90.3182 68.2928 90.2397 68.3844 90.0828C68.476 89.9259 68.5218 89.8055 68.5218 89.7218C68.514 89.6591 68.4551 89.5721 68.3451 89.4609C68.2352 89.3497 68.1515 89.3059 68.0939 89.3295C68.0651 89.3295 68.0016 89.4256 67.9035 89.6179C67.8053 89.8101 67.7562 89.935 67.7562 89.9926C67.7562 90.0213 67.7759 90.0488 67.8151 90.075C67.8596 90.1063 67.9283 90.1528 68.0212 90.2142C68.1142 90.2757 68.1685 90.3104 68.1842 90.3182ZM67.8622 93.6062C67.9643 93.5016 68.0487 93.4015 68.1155 93.306C68.1822 93.2106 68.2457 93.0837 68.3059 92.9254C68.3661 92.7672 68.3962 92.6031 68.3962 92.433C68.3962 92.2133 68.3451 92.0381 68.2431 91.9073C68.1436 91.7765 68.0206 91.7111 67.874 91.7111C67.8191 91.7111 67.7628 91.7634 67.7052 91.868C67.6476 91.9727 67.6071 92.0459 67.5835 92.0878C67.5469 92.1662 67.5102 92.246 67.4736 92.3271C67.4239 92.4396 67.399 92.5089 67.399 92.535C67.399 92.6109 67.4239 92.6698 67.4736 92.7116C67.5233 92.7561 67.5796 92.7783 67.6424 92.7783C67.6764 92.7783 67.7144 92.7757 67.7562 92.7705C67.7929 92.7626 67.8243 92.7508 67.8505 92.7351C67.8819 92.7351 67.9172 92.7639 67.9565 92.8215C67.9931 92.879 68.0114 92.9235 68.0114 92.9549C68.0114 92.9967 67.9617 93.053 67.8622 93.1236C67.8308 93.1681 67.8099 93.2158 67.7994 93.2668C67.789 93.3178 67.785 93.3662 67.7877 93.412C67.7903 93.4577 67.7981 93.4989 67.8112 93.5356C67.8243 93.5722 67.8413 93.5957 67.8622 93.6062ZM64.8511 95.9054C64.8799 95.9211 64.923 95.9146 64.9806 95.8858C65.0487 95.8544 65.1507 95.8047 65.2868 95.7367C65.3811 95.6896 65.4661 95.6438 65.542 95.5994C65.8718 95.3797 66.1689 95.1011 66.4332 94.7636C66.5615 94.6067 66.7139 94.4197 66.8906 94.2026C67.0672 93.9855 67.2249 93.8494 67.3637 93.7945C67.3977 93.7788 67.4854 93.7448 67.6267 93.6925L67.704 93.6639C67.7969 93.6296 67.8497 93.6104 67.8622 93.6062C67.891 93.5251 67.9067 93.4427 67.9094 93.359C67.912 93.2753 67.8963 93.1916 67.8622 93.1079C67.8335 93.1184 67.8034 93.1301 67.7719 93.1432C67.6018 93.2112 67.4984 93.2544 67.4618 93.2727C67.365 93.3171 67.2681 93.3734 67.1713 93.4414C67.0771 93.5173 66.9789 93.6127 66.8768 93.7278C66.8062 93.8141 66.712 93.9397 66.5942 94.1045C66.3874 94.4053 66.2513 94.5949 66.1859 94.6734C66.0943 94.7885 66.021 94.8696 65.966 94.9167C65.9163 94.9794 65.8312 95.0671 65.7108 95.1795C65.669 95.224 65.5407 95.3313 65.3261 95.5013L64.9963 95.7367C64.9702 95.7576 64.9466 95.7759 64.9257 95.7916C64.9047 95.8099 64.8864 95.8243 64.8707 95.8348C64.8445 95.8609 64.838 95.8845 64.8511 95.9054ZM64.5605 90.9264C64.5841 90.9421 64.6188 90.931 64.6646 90.893C64.7104 90.8551 64.7601 90.8178 64.8138 90.7812C64.8674 90.7446 64.9329 90.7145 65.0101 90.691C65.0873 90.6674 65.1763 90.6628 65.277 90.6772C65.3778 90.6916 65.4629 90.7093 65.5322 90.7302C65.6016 90.7511 65.6821 90.7655 65.7737 90.7734C66.0014 90.7812 66.1911 90.759 66.3429 90.7067C66.4947 90.6543 66.6661 90.5667 66.8572 90.4438C66.9802 90.3627 67.0869 90.2731 67.1772 90.175C67.2675 90.0769 67.3362 89.9847 67.3833 89.8984C67.4068 89.8618 67.4193 89.8297 67.4206 89.8023C67.4219 89.7748 67.4147 89.7611 67.399 89.7611C67.3807 89.7611 67.3578 89.7696 67.3303 89.7866C67.3028 89.8036 67.2485 89.8395 67.1674 89.8945C67.0862 89.9494 66.9972 89.9978 66.9004 90.0396C66.7355 90.1103 66.5562 90.1456 66.3625 90.1456C66.25 90.1456 66.1401 90.1364 66.0328 90.1181C65.8129 90.0763 65.6807 90.0553 65.6362 90.0553C65.5028 90.0553 65.3444 90.1142 65.1612 90.2319C65.0016 90.3339 64.8589 90.4608 64.7333 90.6125C64.6757 90.6779 64.6292 90.742 64.5939 90.8047C64.5586 90.8675 64.5475 90.9081 64.5605 90.9264ZM65.1651 94.3576C65.1808 94.3667 65.2031 94.3582 65.2319 94.3321C65.2554 94.3059 65.2862 94.264 65.3241 94.2065C65.3621 94.149 65.4138 94.0332 65.4792 93.8593C65.5446 93.6853 65.5878 93.4859 65.6088 93.2609C65.6219 93.1563 65.6297 93.0281 65.6323 92.8764C65.6349 92.7247 65.6389 92.5547 65.6441 92.3663C65.6441 92.3219 65.6461 92.2539 65.65 92.1623C65.6539 92.0708 65.6585 91.9772 65.6637 91.8818C65.669 91.7863 65.6749 91.7 65.6814 91.6228C65.6879 91.5456 65.6938 91.4966 65.6991 91.4757C65.7017 91.4548 65.6938 91.4404 65.6755 91.4325C65.6572 91.4247 65.6362 91.4391 65.6127 91.4757C65.5839 91.5332 65.5518 91.5993 65.5165 91.6738C65.4812 91.7484 65.4478 91.8275 65.4164 91.9112C65.385 91.9949 65.3569 92.0799 65.332 92.1662C65.3071 92.2525 65.2895 92.3363 65.279 92.4173C65.2607 92.556 65.2541 92.7567 65.2594 93.0196C65.2646 93.2825 65.2633 93.4859 65.2554 93.6297C65.2476 93.7736 65.228 93.922 65.1965 94.0751C65.1651 94.2281 65.1494 94.3072 65.1494 94.3124C65.1442 94.3334 65.1494 94.3484 65.1651 94.3576ZM62.7036 94.5753C62.7376 94.5753 62.8456 94.5459 63.0275 94.487C63.2094 94.4282 63.3448 94.3824 63.4338 94.3497C63.5228 94.317 63.5895 94.2863 63.634 94.2575C63.6785 94.2287 63.74 94.1542 63.8185 94.0339C63.8971 93.9135 63.9821 93.7265 64.0737 93.4728C64.0947 93.4152 64.1136 93.3531 64.1307 93.2864C64.1477 93.2197 64.1608 93.1648 64.1699 93.1216C64.1791 93.0785 64.1876 93.0248 64.1954 92.9608C64.2033 92.8967 64.2072 92.8319 64.2072 92.7665C64.2072 92.6384 64.1712 92.5285 64.0992 92.437C64.0273 92.3454 63.9376 92.2996 63.8303 92.2996C63.7675 92.2996 63.704 92.3415 63.6399 92.4252C63.5758 92.5089 63.5123 92.6148 63.4495 92.743C63.3867 92.8712 63.3455 92.9647 63.3258 93.0235C63.3062 93.0824 63.2912 93.134 63.2807 93.1785C63.2702 93.2518 63.2977 93.3185 63.3631 93.3786C63.4286 93.4388 63.5097 93.4702 63.6065 93.4728C63.6432 93.4728 63.6805 93.463 63.7184 93.4434C63.7564 93.4237 63.7937 93.4165 63.8303 93.4218C63.7963 93.5421 63.7433 93.65 63.6713 93.7455C63.5993 93.8409 63.5287 93.9135 63.4593 93.9632C63.39 94.0129 63.2362 94.1176 62.998 94.2771C62.7599 94.4367 62.6512 94.5308 62.6722 94.5596C62.6722 94.5701 62.6826 94.5753 62.7036 94.5753ZM61.0154 94.5714C61.0416 94.5714 61.1051 94.5629 61.2058 94.5459C61.3066 94.5289 61.4401 94.4962 61.6063 94.4478C61.7725 94.3994 61.8929 94.3458 61.9675 94.2869C62.0421 94.2281 62.1108 94.1424 62.1736 94.0299C62.2364 93.9175 62.309 93.7514 62.3915 93.5316C62.4739 93.3119 62.5407 93.1092 62.5917 92.9235C62.6427 92.7378 62.6696 92.6096 62.6722 92.539C62.6722 92.4919 62.6578 92.4657 62.629 92.4605C62.595 92.4579 62.5636 92.4867 62.5348 92.5468C62.506 92.607 62.4582 92.7195 62.3915 92.8842C62.3247 93.049 62.2501 93.2125 62.1677 93.3747C62.0853 93.5369 62.0113 93.6585 61.9459 93.7396C61.8804 93.8207 61.7705 93.9155 61.6161 94.024C61.4617 94.1326 61.3262 94.2228 61.2098 94.2948C61.0933 94.3667 61.0207 94.4249 60.9919 94.4694C60.9709 94.4981 60.9631 94.5217 60.9683 94.54C60.9736 94.5583 60.9893 94.5688 61.0154 94.5714ZM59.7003 94.5832C59.7238 94.5832 59.7552 94.5792 59.7945 94.5714C60.1164 94.4903 60.3624 94.3634 60.5325 94.1908C60.632 94.0914 60.7295 93.9456 60.825 93.7533C60.9206 93.5611 60.9749 93.3368 60.988 93.0804C60.988 92.7378 60.8191 92.4644 60.4815 92.2604C60.4213 92.2238 60.3821 92.2329 60.3637 92.2879C60.2433 92.5547 60.1439 92.7639 60.0654 92.9156C60.0444 92.981 60.0614 93.036 60.1164 93.0804C60.4148 93.3237 60.564 93.5133 60.564 93.6493C60.564 93.7017 60.4841 93.8076 60.3245 93.9672C60.1596 94.1346 59.9829 94.2837 59.7945 94.4144C59.7003 94.4825 59.6531 94.5308 59.6531 94.5596C59.6531 94.5753 59.6688 94.5832 59.7003 94.5832ZM58.6049 94.5753C58.7279 94.5753 58.8392 94.5282 58.9386 94.4341C59.0381 94.3399 59.1349 94.2026 59.2291 94.0221C59.2893 93.9096 59.3384 93.7834 59.3764 93.6435C59.4143 93.5035 59.4333 93.3773 59.4333 93.2648C59.4333 93.1105 59.4156 92.9967 59.3803 92.9235C59.345 92.8502 59.2841 92.7744 59.1977 92.6959C59.1611 92.6698 59.1159 92.6403 59.0623 92.6076C59.0086 92.5749 58.9687 92.5586 58.9426 92.5586C58.9085 92.5586 58.8784 92.5913 58.8523 92.6567L58.5735 93.2884C58.5343 93.3799 58.5172 93.4362 58.5225 93.4571C58.5277 93.4571 58.5343 93.4584 58.5421 93.461C58.55 93.4636 58.5709 93.4702 58.6049 93.4806C58.5709 93.5382 58.529 93.6088 58.4793 93.6925C58.4296 93.7762 58.3877 93.8665 58.3537 93.9632C58.3275 94.0548 58.3144 94.1411 58.3144 94.2222C58.3144 94.4576 58.4112 94.5753 58.6049 94.5753ZM58.7423 94.1084C58.601 94.1084 58.5303 94.0496 58.5303 93.9318C58.5303 93.8691 58.5598 93.7919 58.6187 93.7004C58.6776 93.6088 58.7188 93.563 58.7423 93.563C58.7737 93.5683 58.8137 93.5859 58.8621 93.616C58.9105 93.6461 58.9478 93.6742 58.974 93.7004C59.0263 93.7474 59.0525 93.8089 59.0525 93.8848C59.0525 93.9423 59.0165 93.994 58.9445 94.0397C58.8725 94.0855 58.8051 94.1084 58.7423 94.1084ZM56.96 94.5753C57.1275 94.5753 57.2753 94.4707 57.4036 94.2614C57.5161 94.0862 57.5724 93.9096 57.5724 93.7317C57.5724 93.6663 57.5567 93.6049 57.5253 93.5473C57.4756 93.461 57.4245 93.4179 57.3722 93.4179C57.3669 93.4179 57.3512 93.4506 57.3251 93.5159C57.2753 93.6389 57.2374 93.7004 57.2112 93.7004C57.185 93.7004 57.1569 93.6722 57.1268 93.616C57.0967 93.5598 57.0817 93.4885 57.0817 93.4022C57.0817 93.2086 57.1759 92.9784 57.3643 92.7116C57.38 92.6907 57.3931 92.6724 57.4036 92.6567C57.4638 92.5651 57.5253 92.4657 57.5881 92.3585C57.6745 92.1963 57.7294 92.0819 57.753 92.0152C57.7766 91.9485 57.7883 91.889 57.7883 91.8366C57.7883 91.8026 57.7752 91.7856 57.7491 91.7856H57.6627C57.4847 91.7699 57.3709 91.7183 57.3211 91.6307C57.2714 91.543 57.2479 91.4377 57.2505 91.3148C57.2583 91.1736 57.2773 91.0389 57.3074 90.9107C57.3375 90.7825 57.3617 90.6805 57.38 90.6046C57.4167 90.4765 57.4572 90.3457 57.5017 90.2123C57.5253 90.1338 57.5227 90.0933 57.4939 90.0906C57.4546 90.0906 57.3761 90.2247 57.2583 90.4928C57.1406 90.7609 57.0503 90.9944 56.9874 91.1932C56.9717 91.2455 56.9443 91.3475 56.905 91.4992C56.8527 91.7294 56.8265 91.9112 56.8265 92.0446C56.8265 92.2277 56.869 92.3683 56.9541 92.4664C57.0391 92.5645 57.1353 92.6358 57.2426 92.6802C57.0437 92.9418 56.8906 93.1798 56.7833 93.3943C56.6498 93.6611 56.5831 93.8939 56.5831 94.0927C56.5831 94.2157 56.6191 94.3268 56.691 94.4262C56.763 94.5256 56.8527 94.5753 56.96 94.5753ZM53.7603 96.0506C54.0535 96.0506 54.3126 95.976 54.5377 95.8269C54.6554 95.7511 54.7654 95.6595 54.8674 95.5523C54.9695 95.445 55.0585 95.3378 55.1344 95.2306C55.2836 95.0004 55.404 94.729 55.4956 94.4164C55.5872 94.1038 55.633 93.8259 55.633 93.5826C55.633 93.4074 55.5898 93.2897 55.5034 93.2295C55.4773 93.2086 55.4236 93.1824 55.3425 93.1511C55.2613 93.1197 55.2051 93.0922 55.1737 93.0687C55.137 93.0373 55.1187 92.9928 55.1187 92.9353C55.1187 92.896 55.1547 92.8254 55.2267 92.7234C55.2986 92.6214 55.3988 92.5115 55.527 92.3938C55.6552 92.2761 55.773 92.1904 55.8803 92.1368C55.9876 92.0832 56.074 92.0564 56.1394 92.0564C56.1551 92.0564 56.1722 92.0636 56.1905 92.0779C56.2088 92.0923 56.2297 92.1074 56.2533 92.1231C56.2847 92.1231 56.3213 92.0904 56.3632 92.025C56.3737 92.0093 56.4044 91.9465 56.4555 91.8366C56.5065 91.7268 56.5432 91.6411 56.5654 91.5797C56.5877 91.5182 56.604 91.4548 56.6145 91.3894C56.6197 91.3684 56.6171 91.3462 56.6066 91.3227C56.5962 91.2991 56.5765 91.2873 56.5477 91.2873C56.4797 91.2978 56.3868 91.337 56.269 91.4051C56.1722 91.46 56.0727 91.526 55.9706 91.6032C55.8686 91.6804 55.7848 91.749 55.7194 91.8092C55.5964 91.9269 55.4603 92.0799 55.3111 92.2682C55.1279 92.4984 54.9859 92.7325 54.8851 92.9706C54.7843 93.2086 54.734 93.4048 54.734 93.5591C54.734 93.6611 54.7549 93.7416 54.7968 93.8004C54.8387 93.8593 54.9002 93.9083 54.9813 93.9475C55.0232 93.9685 55.0605 93.9829 55.0932 93.9907C55.1259 93.9985 55.1796 94.0142 55.2541 94.0378C55.3287 94.0613 55.366 94.0979 55.366 94.1476C55.366 94.2287 55.3379 94.3196 55.2816 94.4203C55.2254 94.521 55.1436 94.6289 55.0363 94.744C54.9289 94.8591 54.7955 94.9572 54.6358 95.0383C54.4212 95.1455 54.1987 95.1992 53.9684 95.1992C53.691 95.1992 53.4757 95.1364 53.3226 95.0108C53.1695 94.8853 53.0929 94.7153 53.0929 94.5008C53.0929 94.2967 53.1701 93.9907 53.3246 93.5826C53.356 93.5094 53.3959 93.4165 53.4443 93.3041C53.4927 93.1916 53.5379 93.087 53.5797 92.9902C53.6216 92.8934 53.653 92.8195 53.674 92.7685C53.6949 92.7175 53.7198 92.6541 53.7486 92.5782C53.759 92.5573 53.7636 92.5259 53.7623 92.484C53.761 92.4422 53.7472 92.4213 53.7211 92.4213C53.7028 92.4213 53.6818 92.4422 53.6583 92.484C53.6347 92.5259 53.6125 92.5691 53.5915 92.6135L53.407 93.0059C53.3468 93.134 53.2683 93.3028 53.1714 93.512C53.0746 93.7213 52.9922 93.9384 52.9241 94.1633C52.8796 94.302 52.8469 94.4399 52.826 94.5773C52.805 94.7146 52.7946 94.8552 52.7946 94.9991C52.7946 95.1115 52.8096 95.2306 52.8397 95.3561C52.8698 95.4817 52.9241 95.6007 53.0026 95.7132C53.1754 95.9329 53.4279 96.0454 53.7603 96.0506ZM52.5237 88.4977C52.5655 88.4977 52.6323 88.4192 52.7239 88.2623C52.8155 88.1053 52.8613 87.985 52.8613 87.9013C52.8534 87.8385 52.7946 87.7515 52.6846 87.6404C52.5747 87.5292 52.491 87.4854 52.4334 87.5089C52.4046 87.5089 52.3411 87.6051 52.243 87.7973C52.1448 87.9896 52.0957 88.1145 52.0957 88.172C52.0957 88.2008 52.1154 88.2283 52.1546 88.2544C52.1991 88.2858 52.2678 88.3322 52.3607 88.3937L52.4119 88.4274C52.4738 88.468 52.5111 88.4914 52.5237 88.4977ZM51.7974 92.0054C51.9073 91.9138 52.0159 91.7804 52.1232 91.6052C52.1939 91.4901 52.2515 91.358 52.296 91.2089C52.3431 91.0598 52.3666 90.9264 52.3666 90.8087L52.3823 90.4712L52.3902 90.1927C52.3902 90.1377 52.385 90.1103 52.3745 90.1103C52.3509 90.1338 52.3378 90.1547 52.3352 90.173L52.1743 90.5615C52.135 90.6478 52.0971 90.7433 52.0604 90.8479C52.0395 90.9238 52.029 90.9931 52.029 91.0559V91.3148C52.029 91.3802 52.0054 91.4456 51.9583 91.511C51.9138 91.5764 51.8602 91.6313 51.7974 91.6758C51.7738 91.7281 51.7647 91.7817 51.7699 91.8366C51.7751 91.8916 51.7843 91.9478 51.7974 92.0054ZM50.6235 89.6983C50.6654 89.6983 50.7321 89.6198 50.8237 89.4629C50.9153 89.3059 50.9612 89.1856 50.9612 89.1019C50.9533 89.0391 50.8944 88.9522 50.7845 88.841C50.6746 88.7298 50.5908 88.686 50.5332 88.7095C50.5044 88.7095 50.441 88.8057 50.3428 88.9979C50.2447 89.1902 50.1956 89.3151 50.1956 89.3726C50.1956 89.4014 50.2152 89.4289 50.2545 89.455C50.299 89.4864 50.3677 89.5328 50.4606 89.5943C50.5535 89.6558 50.6078 89.6904 50.6235 89.6983ZM50.3409 92.5743C50.3644 92.5743 50.3886 92.5723 50.4135 92.5684C50.4383 92.5645 50.4678 92.5507 50.5018 92.5272L50.6549 92.4056C50.7727 92.314 50.8368 92.263 50.8473 92.2525C50.9258 92.2002 51.007 92.1741 51.0907 92.1741C51.1116 92.1741 51.1404 92.1767 51.1771 92.1819C51.2504 92.1872 51.2962 92.1898 51.3145 92.1898C51.3616 92.1898 51.4087 92.1858 51.4558 92.178C51.5055 92.1702 51.5579 92.1532 51.6129 92.127C51.6678 92.1061 51.7293 92.0655 51.7974 92.0054C51.8026 91.9871 51.8131 91.9596 51.8288 91.923C51.8392 91.8994 51.8445 91.8733 51.8445 91.8445C51.8445 91.8105 51.8392 91.7804 51.8288 91.7543C51.8105 91.7124 51.8 91.6862 51.7974 91.6758C51.6848 91.7333 51.5985 91.7621 51.5383 91.7621C51.533 91.7412 51.5304 91.7281 51.5304 91.7229C51.5356 91.7072 51.5455 91.6758 51.5599 91.6287C51.5742 91.5816 51.5945 91.5228 51.6207 91.4521C51.6259 91.4207 51.6286 91.3881 51.6286 91.354C51.6286 91.2468 51.6011 91.1579 51.5461 91.0872C51.4938 91.0192 51.427 90.9852 51.3459 90.9852C51.2621 90.9852 51.1718 91.0441 51.075 91.1618C51.0331 91.2036 50.9729 91.286 50.8944 91.409C50.8211 91.5319 50.7701 91.6287 50.7413 91.6993C50.702 91.7883 50.6759 91.855 50.6628 91.8994C50.6575 91.923 50.6575 91.9504 50.6628 91.9818C50.6628 91.9897 50.6759 92.008 50.702 92.0368C50.702 92.0603 50.685 92.0773 50.651 92.0878C50.617 92.0982 50.581 92.0982 50.543 92.0878C50.5051 92.0773 50.4691 92.0694 50.4351 92.0642C50.4011 92.059 50.3696 92.0577 50.3409 92.0603V92.5743ZM51.1692 91.7935C51.1038 91.7935 51.0449 91.7765 50.9926 91.7425C50.9402 91.7111 50.914 91.681 50.914 91.6522C50.935 91.5921 50.9585 91.5463 50.9847 91.5149C51.0475 91.4286 51.1273 91.3854 51.2242 91.3854C51.2922 91.3854 51.3459 91.4103 51.3852 91.46C51.4244 91.5149 51.444 91.5672 51.444 91.6169C51.444 91.6483 51.4139 91.6849 51.3537 91.7268C51.2962 91.7713 51.2347 91.7935 51.1692 91.7935ZM48.9786 90.7145C49.0623 90.7145 49.1749 90.5719 49.3162 90.2868C49.3738 90.3287 49.4405 90.3875 49.5164 90.4634C49.5923 90.5392 49.6447 90.5772 49.6734 90.5772C49.7179 90.5772 49.7873 90.5105 49.8815 90.3771C49.9784 90.2411 50.0268 90.1233 50.0268 90.0239C50.0215 89.9402 49.9738 89.8507 49.8835 89.7552C49.7932 89.6597 49.7153 89.612 49.6499 89.612C49.629 89.612 49.5864 89.6656 49.5223 89.7728C49.4582 89.8801 49.3999 89.9769 49.3476 90.0632C49.3031 90.0004 49.2383 89.9278 49.1533 89.8454C49.0682 89.763 49.0034 89.731 48.9589 89.7493C48.9354 89.7493 48.8699 89.85 48.7626 90.0514C48.6553 90.2528 48.6017 90.3705 48.6017 90.4045C48.6017 90.4202 48.6403 90.4595 48.7175 90.5222C48.7947 90.585 48.8516 90.6321 48.8883 90.6635C48.9275 90.6975 48.9576 90.7145 48.9786 90.7145ZM49.3152 92.9529L49.3515 92.949C49.3751 92.9451 49.3921 92.9366 49.4026 92.9235C49.4994 92.7665 49.61 92.6469 49.7343 92.5645C49.8586 92.4821 49.9849 92.454 50.1132 92.4801C50.1419 92.488 50.1786 92.5063 50.2231 92.535C50.244 92.5481 50.2636 92.5586 50.282 92.5664C50.3003 92.5743 50.3199 92.5769 50.3409 92.5743C50.3435 92.5638 50.3579 92.518 50.384 92.437C50.3971 92.3846 50.4037 92.3349 50.4037 92.2879C50.4037 92.246 50.3971 92.2055 50.384 92.1662L50.3409 92.0603C50.1498 92.0812 49.9941 92.1224 49.8737 92.1839C49.7533 92.2454 49.6296 92.3467 49.5027 92.488C49.3757 92.6292 49.2652 92.7744 49.1709 92.9235C49.1735 92.9287 49.1853 92.9346 49.2063 92.9411C49.2272 92.9477 49.2508 92.9516 49.2769 92.9529C49.3031 92.9542 49.328 92.9529 49.3515 92.949L49.3152 92.9529ZM47.9892 95.8858C48.1332 95.8858 48.268 95.8649 48.3936 95.823C48.5088 95.7838 48.6265 95.7262 48.7469 95.6504C49.0741 95.4123 49.3332 95.0932 49.5243 94.693C49.6447 94.4341 49.7271 94.217 49.7716 94.0417C49.8161 93.8612 49.8383 93.6847 49.8383 93.512C49.8383 93.3943 49.8253 93.3054 49.7991 93.2452C49.7729 93.1903 49.7297 93.1412 49.6695 93.0981C49.6093 93.0549 49.5498 93.015 49.4909 92.9784C49.432 92.9418 49.4026 92.9052 49.4026 92.8686C49.3999 92.8502 49.3895 92.8372 49.3712 92.8293C49.3528 92.8215 49.3325 92.8175 49.3103 92.8175C49.2881 92.8175 49.2658 92.8215 49.2436 92.8293C49.2213 92.8372 49.205 92.8502 49.1945 92.8686C49.1369 92.9732 49.0878 93.0837 49.0473 93.2001C49.0067 93.3165 48.9864 93.4205 48.9864 93.512C48.9864 93.6402 49.0819 93.7487 49.273 93.8377C49.4614 93.924 49.5557 93.9894 49.5557 94.0339C49.5557 94.2562 49.4353 94.4681 49.1945 94.6695C48.9118 94.9049 48.5611 95.0226 48.1423 95.0226C47.9094 95.0226 47.7196 94.9742 47.5731 94.8774C47.3742 94.7388 47.2747 94.5086 47.2747 94.1869C47.2747 94.0169 47.3362 93.7762 47.4592 93.4649C47.5299 93.2949 47.6581 92.9954 47.844 92.5664C47.8649 92.5194 47.8819 92.4631 47.895 92.3977C47.9081 92.3428 47.9002 92.3127 47.8715 92.3075C47.8505 92.3049 47.8204 92.3389 47.7812 92.4095C47.7655 92.4461 47.7452 92.488 47.7203 92.535C47.6954 92.5821 47.6673 92.6344 47.6359 92.692C47.5914 92.7862 47.5548 92.8627 47.526 92.9215C47.4972 92.9804 47.4749 93.0242 47.4592 93.053C47.4069 93.1733 47.3441 93.3211 47.2708 93.4963C47.2027 93.6663 47.1373 93.8678 47.0745 94.1006C47.0117 94.3412 46.9803 94.5361 46.9803 94.6852C46.9803 95.02 47.0575 95.2946 47.2119 95.5091C47.3925 95.7602 47.6516 95.8858 47.9892 95.8858ZM45.9203 94.3576C45.936 94.3667 45.9582 94.3582 45.987 94.3321C46.0106 94.3059 46.0413 94.264 46.0793 94.2065C46.1172 94.149 46.1689 94.0332 46.2343 93.8593C46.2998 93.6853 46.343 93.4859 46.3639 93.2609C46.377 93.1563 46.3848 93.0281 46.3875 92.8764C46.3901 92.7247 46.394 92.5547 46.3992 92.3663C46.3992 92.3219 46.4012 92.2539 46.4051 92.1623C46.409 92.0708 46.4136 91.9772 46.4189 91.8818C46.4241 91.7863 46.43 91.7 46.4365 91.6228C46.4431 91.5456 46.449 91.4966 46.4542 91.4757C46.4568 91.4548 46.449 91.4404 46.4306 91.4325C46.4123 91.4247 46.3914 91.4391 46.3678 91.4757C46.339 91.5332 46.307 91.5993 46.2716 91.6738C46.2363 91.7484 46.2029 91.8275 46.1715 91.9112C46.1401 91.9949 46.112 92.0799 46.0871 92.1662C46.0623 92.2525 46.0446 92.3363 46.0341 92.4173C46.0158 92.556 46.0093 92.7567 46.0145 93.0196C46.0197 93.2825 46.0184 93.4859 46.0106 93.6297C46.0027 93.7736 45.9831 93.922 45.9517 94.0751C45.9203 94.2281 45.9046 94.3072 45.9046 94.3124C45.8993 94.3334 45.9046 94.3484 45.9203 94.3576ZM43.2985 94.5729L43.3449 94.5714C43.4234 94.5714 43.532 94.557 43.6707 94.5282C43.8042 94.5047 43.9115 94.4772 43.9926 94.4458C44.1628 94.37 44.291 94.2418 44.3774 94.0613C44.4297 93.9436 44.4991 93.7749 44.5855 93.5552C44.6352 93.4401 44.6862 93.3459 44.7386 93.2727C44.7543 93.2518 44.787 93.2217 44.8367 93.1824C44.8864 93.1458 45.0252 93.0726 45.2529 92.9627C45.4151 92.8816 45.5617 92.6083 45.6926 92.1427C45.7109 92.0538 45.7083 92.0054 45.6847 91.9975C45.6612 91.9949 45.6206 92.0446 45.563 92.1466C45.5054 92.2512 45.4583 92.3192 45.4217 92.3506C45.3824 92.3846 45.3144 92.4252 45.2175 92.4723C45.1076 92.5298 45.0304 92.5704 44.9859 92.5939C44.8681 92.6698 44.7818 92.7443 44.7268 92.8175C44.6718 92.8882 44.5907 93.0425 44.4834 93.2805C44.3787 93.5186 44.3172 93.6493 44.2989 93.6729C44.2413 93.7514 44.1366 93.8455 43.9848 93.9554C43.9926 93.9502 43.9285 93.9933 43.7924 94.0849C43.6171 94.1947 43.4954 94.2752 43.4273 94.3262C43.3593 94.3772 43.3148 94.4105 43.2938 94.4262C43.2362 94.4681 43.2101 94.5008 43.2153 94.5243C43.2336 94.5635 43.2768 94.5792 43.3449 94.5714L43.2985 94.5729ZM44.7111 97.5298C44.7948 97.5298 44.9074 97.3872 45.0487 97.1021C45.1063 97.144 45.173 97.2028 45.2489 97.2787C45.3248 97.3545 45.3772 97.3925 45.406 97.3925C45.4505 97.3925 45.5198 97.3258 45.614 97.1923C45.7109 97.0563 45.7593 96.9386 45.7593 96.8392C45.7541 96.7555 45.7063 96.6659 45.616 96.5705C45.5257 96.475 45.4478 96.4272 45.3824 96.4272C45.3615 96.4272 45.3189 96.4809 45.2548 96.5881L45.1344 96.7887C45.1157 96.8198 45.0976 96.8497 45.0801 96.8785C45.0356 96.8157 44.9708 96.7431 44.8858 96.6607C44.8007 96.5783 44.7359 96.5463 44.6915 96.5646C44.6679 96.5646 44.6025 96.6653 44.4952 96.8667C44.3878 97.0681 44.3342 97.1858 44.3342 97.2198C44.3342 97.2355 44.3728 97.2747 44.45 97.3375C44.5272 97.4003 44.5841 97.4474 44.6208 97.4788C44.66 97.5128 44.6901 97.5298 44.7111 97.5298ZM42.6892 94.3576C42.7049 94.3667 42.7272 94.3582 42.756 94.3321C42.7795 94.3059 42.8103 94.264 42.8482 94.2065C42.8862 94.149 42.9379 94.0332 43.0033 93.8593C43.0687 93.6853 43.1119 93.4859 43.1329 93.2609C43.1459 93.1563 43.1538 93.0281 43.1564 92.8764C43.159 92.7247 43.163 92.5547 43.1682 92.3663C43.1682 92.3219 43.1702 92.2539 43.1741 92.1623C43.178 92.0708 43.1826 91.9772 43.1878 91.8818C43.1931 91.7863 43.1989 91.7 43.2055 91.6228C43.212 91.5456 43.2179 91.4966 43.2232 91.4757C43.2258 91.4548 43.2179 91.4404 43.1996 91.4325C43.1813 91.4247 43.1603 91.4391 43.1368 91.4757C43.108 91.5332 43.0759 91.5993 43.0406 91.6738C43.0053 91.7484 42.9719 91.8275 42.9405 91.9112C42.9091 91.9949 42.881 92.0799 42.8561 92.1662C42.8312 92.2525 42.8136 92.3363 42.8031 92.4173C42.7848 92.556 42.7782 92.7567 42.7835 93.0196C42.7887 93.2825 42.7874 93.4859 42.7795 93.6297C42.7717 93.7736 42.752 93.922 42.7206 94.0751C42.6892 94.2281 42.6735 94.3072 42.6735 94.3124C42.6683 94.3334 42.6735 94.3484 42.6892 94.3576ZM39.9646 95.9446C40.5588 95.9394 41.0678 95.6504 41.4918 95.0775C41.9211 94.4864 42.1592 93.7801 42.2063 92.9588C42.2116 92.6449 42.2168 92.4304 42.222 92.3153C42.2273 92.2002 42.2312 92.1224 42.2338 92.0819C42.2364 92.0413 42.2286 92.0211 42.2103 92.0211C42.1841 92.0211 42.152 92.0603 42.1141 92.1388C42.0761 92.2172 42.0284 92.3434 41.9708 92.5174C41.9132 92.6913 41.8792 92.8502 41.8687 92.9941C41.8687 93.0438 41.8694 93.1269 41.8707 93.2433C41.872 93.3597 41.8726 93.4558 41.8726 93.5316C41.8726 93.7304 41.8491 93.89 41.802 94.0103C41.679 94.3556 41.4617 94.6316 41.1503 94.8382C40.8362 95.0187 40.509 95.1089 40.1688 95.1089C39.8914 95.0985 39.6682 95.0278 39.4994 94.897C39.3306 94.7663 39.241 94.5753 39.2305 94.3242C39.2357 93.9894 39.3548 93.5918 39.5878 93.1314C39.6035 93.0843 39.6048 93.0379 39.5917 92.9921C39.5786 92.9464 39.538 92.9863 39.47 93.1118C39.1166 93.737 38.9413 94.3164 38.9439 94.85C38.9544 95.1874 39.0499 95.4509 39.2305 95.6406C39.4111 95.8302 39.6558 95.9316 39.9646 95.9446ZM40.6517 94.0025C40.6779 94.0025 40.7132 93.9815 40.7577 93.9397C40.8257 93.8743 40.88 93.803 40.9206 93.7259C40.9612 93.6487 40.9906 93.5787 41.0089 93.5159C41.0273 93.4532 41.0312 93.3956 41.0207 93.3433C41.0102 93.2779 40.986 93.2217 40.9481 93.1746C40.9101 93.1275 40.8565 93.0772 40.7871 93.0235C40.7178 92.9699 40.6595 92.9235 40.6124 92.8842C40.5313 93.0176 40.4717 93.1184 40.4338 93.1864C40.3958 93.2544 40.3507 93.3472 40.2983 93.4649C40.2826 93.5016 40.2578 93.5552 40.2238 93.6258C40.2238 93.6467 40.2401 93.6729 40.2728 93.7043C40.3055 93.7357 40.3448 93.7703 40.3906 93.8083C40.4364 93.8462 40.4874 93.888 40.5437 93.9338C40.6 93.9796 40.636 94.0025 40.6517 94.0025Z" fill="white"/>
<path fill-rule="evenodd" clip-rule="evenodd" d="M60.6615 66.8427C58.3734 66.845 56.2926 67.8159 55.0485 69.0337C54.8622 69.2161 54.7171 69.3022 54.5556 69.5025C54.4074 69.6856 54.2785 69.8525 54.1264 70.0357C53.8059 70.4144 53.6281 70.7753 53.3573 71.2131C53.2114 71.4467 52.2458 73.9024 52.519 74.188C52.526 74.1927 53.133 74.3712 53.2098 74.3929C53.2851 74.4177 53.7539 74.6467 53.8121 74.6863C54.197 74.9455 54.4997 75.131 54.7923 75.4919C55.3869 76.2277 55.6826 76.9976 55.6127 78.2293C55.5118 80.0168 53.4799 81.7406 51.4736 80.9706L51.5427 80.47C51.5706 80.4421 51.7142 80.4514 51.9269 80.46C52.5726 80.4871 53.861 80.5135 54.5292 79.489C54.8195 79.0412 55.0306 78.6717 55.0353 77.9957C55.0399 77.3771 54.8808 76.8152 54.6387 76.3883C54.1303 75.488 53.4675 74.9525 52.2753 74.708C51.67 74.5823 50.9621 74.6684 50.4444 74.8205C48.8697 74.9354 47.5673 77.2072 47.513 77.7512C47.4594 78.2953 47.4843 79.2461 47.513 79.6078C47.5611 80.193 47.7644 80.7696 48.005 81.2105C48.4816 82.0867 49.2678 82.7736 50.2108 83.1857C51.1794 83.6111 52.526 83.9207 53.7236 83.5218C54.506 83.2626 55.1626 82.9389 55.7361 82.3801C55.844 82.2769 56.2003 81.9105 56.2763 81.8578C56.4183 81.8492 57.6136 82.4344 57.8433 82.5353C59.3219 83.1857 60.8687 82.7076 61.8063 83.0685C62.5048 83.3379 62.2929 84.0131 62.2114 84.6922C63.4323 84.6231 64.6112 82.3266 63.3135 80.9994C63.0784 80.7595 63.2895 80.5601 63.3593 80.2613C63.4152 80.0207 63.4913 79.7149 63.4952 79.4184C63.5068 78.0353 63.1731 77.3461 62.4225 76.5637C62.0795 76.2075 61.6852 76.0158 61.2187 75.7876C61.0107 75.6852 59.7837 75.3701 59.512 75.5493C59.5415 75.5975 60.3045 75.8109 60.6366 76.5506C60.9083 77.1544 60.7732 77.7621 60.462 78.2223C60.2385 78.5545 59.6463 78.924 59.0456 78.9294C58.2461 78.9356 57.9186 78.7556 57.3986 78.4218C56.6993 77.9779 56.0163 76.6569 55.9635 75.6176C55.8774 73.959 55.9201 73.3855 56.7187 72.2352C57.2628 71.4498 58.1965 70.742 59.1868 70.4447C60.3014 70.1102 61.8482 70.1234 62.7741 70.6698C64.0307 71.4118 64.2193 71.5173 64.976 72.7234C65.1964 73.0711 65.458 73.8496 65.5038 74.3122C65.5325 74.6087 65.6194 74.8795 65.7242 75.1326C65.8368 75.4058 66.1371 75.6658 66.1689 75.7581C66.1464 75.8225 65.8616 76.0779 65.7692 76.2424C65.6885 76.3922 65.4898 76.6173 65.3913 76.778C65.2368 77.0318 64.9093 77.7311 64.8643 78.0438C64.7036 79.1491 64.7036 80.2807 65.1848 81.1383C66.0673 82.7076 67.3091 83.9114 69.6887 83.9114C71.7719 83.9114 73.4553 82.5353 74.0692 81.0126C74.5008 79.9376 74.6063 79.2577 74.3199 77.9841C73.9994 76.5622 73.0696 75.9017 72.9951 75.6852C73.5647 75.1326 73.4724 74.871 73.668 74.0491C73.8418 73.3187 73.9435 72.9508 74.3393 72.4021C74.9602 71.5484 75.852 70.6985 76.9991 70.4074C78.4156 70.0489 79.7692 70.1498 80.8348 70.8103C81.3323 71.1192 81.7693 71.4382 82.1185 71.8526C82.2869 72.0529 82.4569 72.2857 82.6052 72.5146C82.675 72.6233 83.0126 73.2722 83.0173 73.2768L83.2299 73.7068L83.2354 73.72C83.0398 73.4988 83.1477 73.8186 83.2082 74.0584C83.275 74.3254 83.2501 74.6661 83.2462 74.9719C83.2369 75.637 83.0825 76.0453 82.9459 76.6018C82.7177 77.5308 82.0269 78.4094 81.1802 78.7424C80.1339 79.1514 78.8409 78.8565 78.5002 77.9142C78.3372 77.4625 78.2425 76.7586 78.5902 76.379C78.7447 76.2122 78.8456 76.0228 79.0497 75.8776C79.1125 75.8334 79.6815 75.5602 79.6861 75.5315C79.3648 75.353 78.2006 75.6727 77.9825 75.7628C77.5075 75.963 77.1093 76.1788 76.7546 76.535C76.0266 77.2708 75.6347 78.0043 75.6417 79.3741C75.644 79.8468 76.0266 80.7945 75.8792 80.9613C75.5338 81.351 75.2761 81.6529 75.2715 82.3553C75.2699 83.0072 75.4197 83.4853 75.7154 83.8858C75.9141 84.1544 76.4908 84.6938 76.9231 84.6938C76.8113 83.989 76.6297 83.4162 77.329 83.0887C78.1579 82.7014 79.8825 83.1989 81.2655 82.554C81.472 82.4569 82.7262 81.8725 82.8434 81.8756C82.9653 81.9416 83.403 82.4034 83.5753 82.5431C83.878 82.7821 84.0682 82.9195 84.4042 83.1019C84.9871 83.4186 85.7307 83.6809 86.6092 83.6894C88.132 83.7073 89.7914 82.9498 90.5435 82.0518C91.3173 81.1313 92.0647 79.4665 91.554 77.8366C91.2544 76.8773 90.6871 75.9188 89.8737 75.3732C89.647 75.2218 89.1775 75.0317 88.9928 74.9222L90.091 75.6394L88.9462 74.8935C88.711 74.7103 87.8301 74.6622 87.4133 74.6638C86.513 74.67 85.4932 75.0806 84.9623 75.7302C84.828 75.8947 84.27 76.5816 84.3367 76.8501C84.1303 76.965 84.0596 78.0834 84.1466 78.3892C84.2948 78.9162 84.3639 79.2841 84.7271 79.6582C85.3767 80.3319 86.7101 80.4312 87.3062 80.4421C87.3124 80.4421 87.3194 80.4429 87.3264 80.4429L87.3504 80.4398L87.3264 80.4429C87.4118 80.4452 87.4995 80.4491 87.5864 80.46L87.6128 80.9683C86.6333 81.2415 85.6127 81.1445 84.7861 80.5127C84.1962 80.0626 83.5575 79.1778 83.5373 78.2115C83.5132 77.0442 83.7275 76.1392 84.3546 75.481C85.133 74.6661 85.4443 74.5605 86.6263 74.195L86.6783 74.1864L86.4144 72.843C85.8153 70.6946 84.7364 69.4978 83.1741 68.3072C82.3925 67.7104 81.5318 67.4348 80.5104 67.0871C79.4905 66.7418 78.0679 66.8256 76.9564 66.9769C76.3091 67.0646 74.4651 67.708 74.122 68.0294C73.8519 68.2824 73.2512 68.5509 72.9888 68.8459C72.6993 69.1703 72.3322 69.4536 72.0233 69.8308C70.4183 71.7789 70.4796 73.2854 70.201 73.8186C69.9479 74.3005 69.4124 74.5404 69.0593 74.0056C68.873 73.7239 68.7248 72.9229 68.5998 72.548C68.2389 71.4622 67.9246 70.9011 67.2462 70.0116C66.9032 69.5622 66.6548 69.3884 66.2986 69.0088C65.1685 67.8058 62.8867 66.8427 60.6685 66.8427C60.6661 66.8427 60.6638 66.8427 60.6615 66.8427ZM69.6452 81.0871C68.6464 81.0622 67.7096 80.2457 67.6971 79.2352C67.6669 76.6569 71.5165 76.6879 71.5212 79.1646L71.5196 79.1623C71.5165 79.7529 71.2728 80.1619 70.9569 80.5019C70.7575 80.7192 70.0442 81.0871 69.6592 81.0871C69.6546 81.0871 69.6499 81.0871 69.6452 81.0871Z" fill="white"/>
<path fill-rule="evenodd" clip-rule="evenodd" d="M65.6203 63.7379C64.2582 63.7379 64.335 65.2529 65.1205 65.5664C65.6156 65.7628 65.878 65.7201 66.3064 66.0826C67.0197 66.6864 67.4132 67.1032 67.9114 67.9166C67.9735 68.0182 68.2211 68.3737 68.2491 68.4389C68.343 68.664 68.4245 68.8386 68.5455 69.0086C68.7256 69.2639 68.9794 69.8616 69.1129 70.165C69.265 70.5104 69.4195 71.1841 69.5677 71.4542C69.6795 71.6599 69.785 71.0964 69.8316 70.9668C70.0474 70.394 70.3438 69.6893 70.6108 69.1498C71.0074 68.3403 71.4553 67.7474 71.9559 67.0473C72.3921 66.4357 73.1868 65.8094 73.935 65.6083C75.0115 65.3173 74.8027 63.7402 73.7394 63.7402L73.7371 63.7379H65.6203Z" fill="white"/>
<path fill-rule="evenodd" clip-rule="evenodd" d="M74.9023 60.6499H64.0504C63.944 60.6507 63.8424 60.6491 63.7446 60.6468C63.0251 60.6359 62.5354 60.6235 62.2948 61.3857C62.0247 62.2441 62.6262 62.9643 63.275 62.962V62.9589H75.8011C76.5702 62.9589 77.2307 62.2472 76.8776 61.3236C76.647 60.7229 76.2147 60.6336 75.6567 60.6336C75.4246 60.6336 75.1716 60.6491 74.9023 60.6499Z" fill="white"/>
<path fill-rule="evenodd" clip-rule="evenodd" d="M68.6714 46.5304C68.4121 47.3749 68.1343 48.2255 68.1366 49.2555L68.1389 49.2524C68.1389 50.0254 68.2173 50.9079 68.4672 51.5885C68.5441 51.795 69.1464 53.1897 69.1464 53.1912C68.6574 53.1035 67.6911 51.7321 67.4482 51.2214C66.9708 50.2054 67.1657 49.1895 67.1067 47.936C66.953 47.9733 66.3057 49.1833 66.1924 49.4417C65.9006 50.0991 65.8051 50.5454 65.6134 51.2726C65.3805 52.1582 65.5179 53.5521 65.826 54.4571C65.8827 54.6224 66.1489 55.2682 66.1567 55.3605C65.7671 55.2162 65.0654 54.2119 64.9133 53.7858C64.7806 53.4124 64.6898 53.1625 64.5578 52.7372C64.4911 52.516 64.4003 51.6553 64.3234 51.566C64.1581 51.5947 63.2927 53.3309 63.181 53.57C62.8907 54.1707 62.6144 55.3644 62.6167 56.1871C62.6191 57.349 63.0941 58.5644 63.8236 59.353C64.3033 59.8707 64.0293 59.8551 65.0654 59.8575H74.2588C74.8696 59.8575 75.6566 58.93 75.9802 58.4977C76.442 57.883 76.6733 57.0083 76.5577 56.0629C76.3629 54.4843 75.2165 53.0112 74.3123 52.1062L72.8167 50.5229C72.4341 50.0347 71.7192 49.2648 71.4654 48.7735C71.1193 48.0998 70.687 47.5705 70.3835 46.7509C70.2392 46.3613 70.1437 45.9895 70.0009 45.5758C69.8977 45.2716 69.8076 44.5443 69.7098 44.334C69.4739 44.3961 68.7862 46.1587 68.6714 46.5304Z" fill="white"/>
<rect x="0.5" y="0.5" width="139" height="139" stroke="#4A4E57"/>
</svg>
