<svg width="140" height="141" viewBox="0 0 140 141" fill="none" xmlns="http://www.w3.org/2000/svg">
<path fill-rule="evenodd" clip-rule="evenodd" d="M91.9999 84.3543C91.7535 84.6678 91.5142 84.9883 91.2576 85.2927C91.0627 85.5234 90.854 85.7436 90.6362 85.9512C90.4612 86.1179 90.3519 86.1114 90.1649 85.9606C90.0338 85.855 89.914 85.7345 89.784 85.6275C89.3977 85.3102 89.268 85.3172 88.9511 85.6953C88.7491 85.9366 88.5648 86.193 88.3711 86.4419C88.1218 86.7621 88.0878 86.772 87.7568 86.5688C87.4911 86.4065 87.2249 86.2439 86.9706 86.0635C86.6771 85.8553 86.6494 85.7354 86.8468 85.4208C87.1116 84.9991 87.4002 84.5932 87.678 84.1803C87.814 83.9792 87.9431 83.7727 88.0856 83.5765C88.2337 83.3721 88.3184 83.3508 88.5424 83.4592C88.8565 83.6116 89.1425 83.8025 89.3657 84.0879C89.5569 84.3321 89.5971 84.326 89.79 84.0718C90.0834 83.6859 90.3714 83.2952 90.6662 82.9104C90.8311 82.6946 90.8327 82.7019 91.0602 82.865C91.4145 83.1195 91.7294 83.4168 91.9999 83.7642V84.3543Z" fill="white"/>
<path fill-rule="evenodd" clip-rule="evenodd" d="M60.625 90.1671C59.1959 90.1833 57.9031 90.1465 56.6272 89.8893C55.5658 89.6756 54.5694 89.3198 53.721 88.6165C53.3414 88.3019 53.0291 88.3481 52.7226 88.7424C52.5291 88.9915 52.3669 89.2654 52.194 89.5307C51.9411 89.92 51.6296 90.2493 51.2209 90.4803C50.6741 90.7893 50.1481 90.7085 49.722 90.2493C49.2447 89.7341 49.1147 89.0985 49.1043 88.4295C49.0892 87.4423 49.2063 86.4667 49.4035 85.5004C49.664 84.2242 50.0579 82.9879 50.5503 81.7824C50.5853 81.6966 50.6248 81.6102 50.6761 81.5336C50.7173 81.4726 50.7878 81.4436 50.8624 81.4779C50.9315 81.5099 50.9786 81.5698 50.9677 81.6456C50.9526 81.749 50.9206 81.8504 50.8935 81.9524C50.6394 82.9012 50.3366 83.8386 50.1853 84.8124C50.0847 85.4603 49.9915 86.1109 50.1369 86.7663C50.2226 87.1544 50.4119 87.486 50.6937 87.7652C51.2041 88.271 51.8383 88.3167 52.4128 87.8795C52.5705 87.7594 52.7081 87.612 52.8484 87.4704C53.1291 87.1868 53.4053 86.8986 53.7201 86.6504C54.0843 86.3631 54.4728 86.2945 54.9061 86.4907C56.3944 87.165 57.9765 87.4412 59.5931 87.5518C61.1105 87.656 62.6287 87.6362 64.1422 87.481C66.6991 87.2191 69.1538 86.5659 71.5183 85.5628C74.2388 84.4081 76.7607 82.9163 79.1165 81.146C80.3359 80.2298 81.6563 79.4998 83.039 78.8684C83.0709 78.8536 83.1037 78.8408 83.1356 78.826C83.2124 78.7906 83.2914 78.7578 83.3665 78.8224C83.4572 78.9007 83.4149 78.9868 83.3788 79.0774C83.0214 79.9768 82.4395 80.6771 81.5264 81.0468C80.5429 81.4447 79.6851 82.031 78.8776 82.7006C77.3389 83.9765 75.7405 85.1696 74.0254 86.2037C71.4729 87.7429 68.7639 88.9071 65.8487 89.5728C64.5739 89.864 63.2797 90.0298 61.9733 90.103C61.48 90.1304 60.9872 90.1738 60.625 90.1671Z" fill="white"/>
<path fill-rule="evenodd" clip-rule="evenodd" d="M61.4222 82.7451C59.4857 82.735 57.3723 82.5046 55.3543 81.6902C54.7982 81.4657 54.2766 81.1867 53.8039 80.8121C53.2264 80.3552 53.0348 79.7441 53.0663 79.0378C53.071 78.9339 53.0982 78.8275 53.1349 78.7298C53.2264 78.4899 53.4383 78.3636 53.6918 78.403C53.8172 78.4225 53.9429 78.4625 54.0597 78.5139C55.4619 79.1283 56.9388 79.4657 58.4422 79.7008C59.7949 79.9125 61.1567 80.0162 62.5272 79.9952C65.8345 79.9455 69.0136 79.2576 72.0851 78.0452C74.5844 77.0588 76.8638 75.6989 78.9166 73.9562C79.8049 73.2018 80.5845 72.3472 81.2699 71.4049C81.8302 70.6349 82.131 69.7738 82.1455 68.815C82.1535 68.3051 82.2742 67.8157 82.4394 67.3373C82.627 66.7933 82.8812 66.2774 83.1314 65.7607C83.1714 65.6789 83.2042 65.561 83.321 65.5909C83.4325 65.62 83.4139 65.7381 83.4164 65.8308C83.4664 67.8227 83.1158 69.7291 82.2369 71.5283C81.4612 73.1158 80.3977 74.4902 79.1802 75.7548C77.1721 77.8402 74.7732 79.3263 72.1171 80.42C69.7849 81.3805 67.3751 82.0628 64.8813 82.4376C63.8064 82.5996 62.7237 82.6884 61.4222 82.7451Z" fill="white"/>
<mask id="mask0_6008_43143" style="mask-type:alpha" maskUnits="userSpaceOnUse" x="52" y="84" width="34" height="16">
<path d="M52.4028 84.0652H85.4007V99.9042H52.4028V84.0652Z" fill="white"/>
</mask>
<g mask="url(#mask0_6008_43143)">
<path fill-rule="evenodd" clip-rule="evenodd" d="M85.4007 84.0652C85.3478 84.6544 85.3319 85.1792 85.2123 85.6921C85.1432 85.9887 85.0545 86.2774 84.8942 86.5382C84.6077 87.0042 84.2014 87.1657 83.6752 87.0203C83.5532 86.9865 83.4317 86.9446 83.3166 86.8916C82.9477 86.7227 82.6164 86.807 82.3073 87.0356C82.0872 87.1984 81.9329 87.4175 81.831 87.6697C81.6944 88.0087 81.7666 88.283 82.0547 88.5074C82.1723 88.5993 82.3087 88.6681 82.4401 88.741C82.7323 88.9041 82.8714 89.1493 82.8552 89.4875C82.832 89.9571 82.6717 90.3763 82.3844 90.7416C82.1236 91.0736 81.7743 91.1474 81.3908 90.9732C80.462 90.5516 80.0281 90.6137 79.2959 91.3167C78.4883 92.0917 77.6096 92.7735 76.6824 93.3938C75.0323 94.4979 73.3454 95.5356 71.5053 96.2954C69.3619 97.1803 67.1412 97.7495 64.8369 97.9994C62.3087 98.2738 59.8241 98.0763 57.3818 97.3578C56.8766 97.2094 56.399 97.0094 56.0128 96.6349C55.8348 96.4616 55.6456 96.4724 55.4395 96.5742C55.12 96.732 54.8759 96.9781 54.6498 97.2463C53.9911 98.0289 53.3325 98.8117 52.6733 99.5939C52.6009 99.6802 52.5251 99.764 52.4028 99.9043C52.4147 99.5573 52.5568 99.3473 52.6973 99.1393C53.284 98.2719 53.8956 97.4225 54.549 96.6044C54.9335 96.1231 55.3211 95.6438 55.7078 95.1642C55.7588 95.1006 55.8117 95.0388 55.8665 94.9786C56.4064 94.3872 56.8802 94.2474 57.6082 94.5789C59.8464 95.5988 62.2019 95.8149 64.6058 95.6113C67.9323 95.3292 71.1114 94.4479 74.1385 93.0337C75.9615 92.1824 77.6327 91.0712 79.2513 89.8792C79.4747 89.7144 79.6741 89.5163 79.8835 89.3324C80.1193 89.1249 80.3573 88.9141 80.6548 88.8051C80.8446 88.7355 80.9148 88.6031 80.9655 88.4259C81.1473 87.7959 81.3972 87.1959 81.7633 86.6497C82.072 86.1895 82.4384 85.792 82.9469 85.5476C83.3122 85.372 83.6551 85.3054 84.0165 85.5914C84.2691 85.7914 84.5091 85.7218 84.7022 85.4516C84.882 85.1997 84.9705 84.9121 85.0016 84.605C85.0256 84.3662 85.147 84.2017 85.4007 84.0652Z" fill="white"/>
</g>
<path fill-rule="evenodd" clip-rule="evenodd" d="M88.6693 82.0848C88.1623 82.0905 87.7534 81.798 87.5683 81.2974C87.4406 80.952 87.3873 80.5913 87.3814 80.223C87.3654 79.1998 87.5434 78.2001 87.7626 77.2073C88.021 76.0367 88.3795 74.8938 88.7334 73.7498C88.7635 73.6536 88.7694 73.5139 88.8842 73.5061C89.024 73.4963 89.0362 73.6525 89.0714 73.7504C89.1423 73.9496 89.1244 74.157 89.0768 74.3592C88.8317 75.4042 88.6677 76.4645 88.5007 77.5236C88.4134 78.077 88.4569 78.6192 88.7775 79.1054C88.9272 79.3318 89.1179 79.5033 89.3972 79.5468C89.7681 79.6044 90.1007 79.4346 90.3071 79.0793C90.3585 78.991 90.3964 78.8948 90.447 78.8059C90.483 78.7434 90.5382 78.6994 90.6159 78.7309C90.6789 78.7562 90.6824 78.8163 90.6794 78.8747C90.6784 78.8975 90.6743 78.9201 90.67 78.9426C90.5344 79.6379 90.3886 80.3301 90.0474 80.9612C89.8774 81.2754 89.6626 81.554 89.3942 81.7888C89.1821 81.9747 88.9407 82.0916 88.6693 82.0848Z" fill="white"/>
<mask id="mask1_6008_43143" style="mask-type:alpha" maskUnits="userSpaceOnUse" x="47" y="94" width="7" height="5">
<path d="M47.7837 94.6244H53.7233V98.5841H47.7837V94.6244Z" fill="white"/>
</mask>
<g mask="url(#mask1_6008_43143)">
<path fill-rule="evenodd" clip-rule="evenodd" d="M53.7229 95.8334C53.7292 96.0249 53.6695 96.1978 53.5698 96.354C53.1861 96.9548 52.6759 97.4397 52.1771 97.9346C52.0649 98.0461 51.9766 98.0053 51.8706 97.9083C51.6924 97.7454 51.5055 97.5892 51.3076 97.4529C51.0445 97.2722 50.8702 97.2844 50.6168 97.4783C50.4148 97.6327 50.2346 97.8129 50.0678 98.0064C49.9966 98.0896 49.9269 98.174 49.8524 98.2534C49.4539 98.6794 49.3099 98.6928 48.8682 98.2998C48.6788 98.1314 48.4434 98.0797 48.2309 97.9705C48.1244 97.9159 48.0109 97.875 47.9018 97.8248C47.7764 97.7676 47.7553 97.6698 47.8175 97.5542C47.8578 97.4795 47.9092 97.4106 47.9604 97.3428C48.4117 96.7394 48.8634 96.1359 49.3165 95.5339C49.5153 95.2691 49.6044 95.2346 49.8984 95.3383C50.2489 95.4615 50.6088 95.5707 50.8959 95.8279C51.0376 95.9552 51.1507 95.9201 51.263 95.7867C51.5284 95.4705 51.8035 95.1622 52.0617 94.8402C52.2197 94.6423 52.4165 94.5862 52.6385 94.6487C53.129 94.7874 53.4798 95.1009 53.6829 95.5812C53.6972 95.6142 53.7052 95.651 53.7103 95.6872C53.7175 95.7353 53.7189 95.7847 53.7229 95.8334Z" fill="white"/>
</g>
<path fill-rule="evenodd" clip-rule="evenodd" d="M80.4155 84.7249C80.3631 84.7198 80.3017 84.7224 80.2453 84.7065C80.1261 84.6723 80.0811 84.5473 80.1638 84.4561C80.2263 84.3876 80.311 84.3372 80.3914 84.2876C81.4465 83.6372 82.4305 82.8863 83.4187 82.1428C84.2158 81.5431 84.7861 80.7622 85.1392 79.8232C85.315 79.3561 85.5118 78.8969 85.7004 78.4343C85.7318 78.3576 85.7664 78.2817 85.8049 78.208C85.8428 78.1361 85.9054 78.1089 85.9841 78.1352C86.0535 78.1585 86.0634 78.2211 86.0609 78.2805C86.0586 78.3392 86.0487 78.3998 86.0297 78.455C85.7145 79.3776 85.4849 80.3276 85.1267 81.2361C84.9342 81.7238 84.711 82.196 84.4279 82.6387C83.949 83.3868 83.2972 83.9143 82.4554 84.206C81.8599 84.4122 81.2616 84.6088 80.6358 84.704C80.5656 84.7147 80.4939 84.7179 80.4155 84.7249Z" fill="white"/>
<path fill-rule="evenodd" clip-rule="evenodd" d="M72.2005 72.432C72.1777 72.5092 72.1541 72.6313 72.1054 72.7438C71.9004 73.2182 71.5857 73.6199 71.1592 73.9431C71.0476 74.0277 70.9265 74.097 70.7864 74.1386C70.5945 74.1951 70.4319 74.1683 70.3058 74.0155C69.9988 73.6443 69.591 73.3968 69.1531 73.1813C68.8433 73.0293 68.8339 72.9701 69.0432 72.6952C69.4521 72.159 69.8621 71.6236 70.2739 71.0892C70.4766 70.826 70.5307 70.813 70.8363 70.96C71.2318 71.15 71.6091 71.3651 71.8956 71.6915C72.073 71.8937 72.2057 72.1152 72.2005 72.432Z" fill="white"/>
<path fill-rule="evenodd" clip-rule="evenodd" d="M86.7202 88.828C87.3242 88.1351 87.8972 87.479 88.468 86.822C88.5512 86.726 88.6478 86.6756 88.7923 86.7237C89.1233 86.8343 89.4522 86.9489 89.7224 87.149C90.0479 87.39 90.1181 87.634 89.8748 87.9322C89.4901 88.4027 89.0538 88.8425 88.5515 89.2337C88.4204 89.3358 88.2485 89.3852 88.0951 89.3055C87.6828 89.0911 87.217 88.9847 86.7202 88.828Z" fill="white"/>
<path fill-rule="evenodd" clip-rule="evenodd" d="M68.7473 48.0964V48.1036C68.5845 48.1036 68.4214 48.0959 68.2594 48.1058C68.0742 48.117 67.8895 48.1404 67.7053 48.1651C66.1018 48.3803 64.6614 48.9635 63.4369 50.0313C63.1348 50.2948 63.1262 50.3543 63.3643 50.695C63.7689 51.2747 64.107 51.89 64.385 52.5381C64.7865 53.4749 65.0363 54.4545 65.2213 55.4525C65.2899 55.8239 65.3445 55.8585 65.6726 55.7119C68.0803 54.6354 69.4255 52.7945 69.724 50.1907C69.7932 49.5858 69.6603 48.9976 69.6459 48.4006C69.6412 48.1966 69.5534 48.1159 69.3396 48.0995C69.1433 48.0846 68.9448 48.0964 68.7473 48.0964ZM62.2861 67.4144C62.3329 66.9096 62.3849 66.4054 62.4248 65.9004C62.4974 64.9795 62.6965 64.0767 62.8227 63.1638C62.9446 62.2841 63.0556 61.4033 63.1284 60.5192C63.2306 59.2771 63.2976 58.0335 63.2262 56.7857C63.1567 55.5804 62.9487 54.4018 62.4913 53.2808C61.5047 50.8607 59.6954 49.3695 57.1623 48.7203C56.0624 48.4387 54.9429 48.3298 53.8079 48.3781C53.2172 48.4033 53.1599 48.436 53.0636 49.0179C52.5923 51.8695 53.4437 54.244 55.7442 56.0421C57.1797 57.1642 58.8409 57.8507 60.6136 58.2725C60.7831 58.3129 60.9545 58.345 61.1239 58.3851C61.4271 58.4573 61.4609 58.513 61.3831 58.8182C61.3094 59.1086 61.23 59.3974 61.1569 59.688C61.1319 59.7885 61.1261 59.8936 61.1004 59.9938C61.0298 60.2661 60.8891 60.3663 60.6158 60.301C58.5127 59.7987 56.4913 59.1064 54.6959 57.8622C53.6118 57.1112 52.7814 56.1659 52.2101 54.9799C51.5301 53.5666 51.0831 52.0967 51.082 50.5245C51.0815 49.4826 51.2977 48.4648 51.5924 47.4643C51.6851 47.1498 51.8745 46.9807 52.2093 46.9505C53.1843 46.8632 54.1601 46.8237 55.1384 46.8618C56.7203 46.9239 58.2466 47.2618 59.735 47.7849C60.3851 48.0136 60.9965 48.3152 61.5589 48.7135C61.7702 48.8628 61.7893 48.8677 61.9723 48.6891C63.2768 47.4141 64.9006 46.8627 66.6706 46.6373C68.0014 46.4677 69.3344 46.3911 70.6751 46.4949C71.1569 46.5322 71.3092 46.6527 71.3987 47.1242C71.5313 47.82 71.5537 48.5219 71.4881 49.2257C71.4125 50.0406 71.327 50.8547 71.2478 51.6696C71.2389 51.7586 71.217 51.85 71.2594 51.9589C71.9206 51.6921 72.5943 51.4805 73.273 51.2834C74.7129 50.8657 76.1858 50.6917 77.6816 50.6714C77.8093 50.6697 77.9369 50.662 78.0646 50.6574C78.5868 50.6823 79.109 50.7073 79.631 50.7328C79.7124 50.7367 79.7941 50.7391 79.8747 50.7496C80.1031 50.7789 80.1239 50.7927 80.1197 51.0345C80.0846 53.2062 79.8896 55.3584 79.3142 57.4639C78.3091 61.1414 76.0695 63.8544 72.7641 65.7469C70.9853 66.7652 69.0854 67.4454 67.0757 67.8385C66.7343 67.9052 66.6634 67.8714 66.5044 67.559C66.4681 67.4874 66.4357 67.4133 66.4014 67.34C66.3471 67.1169 66.2851 66.8948 66.2403 66.6697C66.1528 66.2306 66.1973 66.1647 66.6332 66.098C68.0429 65.8817 69.3906 65.4782 70.6765 64.8565C73.6568 63.4147 75.866 61.2421 77.1624 58.1943C77.8796 56.5071 78.2387 54.7449 78.2554 52.9144C78.2578 52.621 78.2479 52.6056 77.9768 52.5211C77.8885 52.4934 77.7971 52.4752 77.7063 52.4555C77.1995 52.3462 76.6864 52.3753 76.1769 52.4052C74.196 52.5219 72.3756 53.1754 70.6917 54.1696C67.4606 56.0775 65.5419 58.9568 64.6198 62.5234C64.225 64.0504 64.1546 65.6193 64.1211 67.1882C64.1186 67.3027 64.1397 67.4174 64.1499 67.5319C64.1505 67.589 64.1444 67.6471 64.1527 67.7029C64.2286 68.2189 64.2629 68.2425 64.8006 68.2079C64.9745 68.1964 65.1495 68.1994 65.3237 68.198C66.8472 68.186 68.3705 68.1742 69.894 68.1623C69.9405 68.1621 69.987 68.1604 70.0335 68.1621C70.2877 68.1709 70.3321 68.1942 70.3356 68.4324C70.344 68.9512 70.3307 69.4697 70.3296 69.9885C70.3293 70.1243 70.2598 70.1704 70.1343 70.168C70.0529 70.1666 69.9715 70.1724 69.8901 70.1751C67.5414 70.2495 65.1922 70.1644 62.8435 70.1855C62.774 70.1864 62.7037 70.1861 62.6344 70.1784C62.332 70.1455 62.2265 70.0387 62.2313 69.7294C62.2398 69.1302 62.2603 68.5307 62.2781 67.9318C62.283 67.7594 62.3135 67.5873 62.2861 67.4144Z" fill="white"/>
<rect x="0.5" y="0.611816" width="139" height="139" stroke="#4A4E57"/>
</svg>
