<svg width="45" height="61" viewBox="0 0 45 61" fill="none" xmlns="http://www.w3.org/2000/svg">
<path fill-rule="evenodd" clip-rule="evenodd" d="M44.9999 45.3543C44.7535 45.6678 44.5142 45.9883 44.2576 46.2927C44.0627 46.5234 43.854 46.7436 43.6362 46.9512C43.4612 47.1179 43.3519 47.1114 43.1649 46.9606C43.0338 46.855 42.914 46.7345 42.784 46.6275C42.3977 46.3102 42.268 46.3172 41.9511 46.6953C41.7491 46.9366 41.5648 47.193 41.3711 47.4419C41.1218 47.7621 41.0878 47.772 40.7568 47.5688C40.4911 47.4065 40.2249 47.2439 39.9706 47.0635C39.6771 46.8553 39.6494 46.7354 39.8468 46.4208C40.1116 45.9991 40.4002 45.5932 40.678 45.1803C40.814 44.9792 40.9431 44.7727 41.0856 44.5765C41.2337 44.3721 41.3184 44.3508 41.5424 44.4592C41.8565 44.6116 42.1425 44.8025 42.3657 45.0879C42.5569 45.3321 42.5971 45.326 42.79 45.0718C43.0834 44.6859 43.3714 44.2952 43.6662 43.9104C43.8311 43.6946 43.8327 43.7019 44.0602 43.865C44.4145 44.1195 44.7294 44.4168 44.9999 44.7642V45.3543Z" fill="white"/>
<path fill-rule="evenodd" clip-rule="evenodd" d="M13.625 51.1671C12.1959 51.1833 10.9031 51.1465 9.6272 50.8893C8.56583 50.6756 7.56945 50.3198 6.72097 49.6165C6.34141 49.3019 6.02907 49.3481 5.72262 49.7424C5.52906 49.9915 5.36687 50.2654 5.19404 50.5307C4.94109 50.92 4.6296 51.2493 4.22091 51.4803C3.67412 51.7893 3.14806 51.7085 2.722 51.2493C2.24467 50.7341 2.1147 50.0985 2.10434 49.4295C2.08921 48.4423 2.2063 47.4667 2.4035 46.5004C2.66401 45.2242 3.05786 43.9879 3.55031 42.7824C3.58532 42.6966 3.62482 42.6102 3.67608 42.5336C3.71726 42.4726 3.78785 42.4436 3.86236 42.4779C3.93155 42.5099 3.97861 42.5698 3.96768 42.6456C3.95256 42.749 3.92062 42.8504 3.89345 42.9524C3.63938 43.9012 3.33658 44.8386 3.18531 45.8124C3.08475 46.4603 2.99147 47.1109 3.13685 47.7663C3.22257 48.1544 3.41193 48.486 3.69373 48.7652C4.2041 49.271 4.83829 49.3167 5.41281 48.8795C5.57052 48.7594 5.70806 48.612 5.8484 48.4704C6.12908 48.1868 6.40527 47.8986 6.72013 47.6504C7.08428 47.3631 7.4728 47.2945 7.90615 47.4907C9.39442 48.165 10.9765 48.4412 12.5931 48.5518C14.1105 48.656 15.6287 48.6362 17.1422 48.481C19.6991 48.2191 22.1538 47.5659 24.5183 46.5628C27.2388 45.4081 29.7607 43.9163 32.1165 42.146C33.3359 41.2298 34.6563 40.4998 36.039 39.8684C36.0709 39.8536 36.1037 39.8408 36.1356 39.826C36.2124 39.7906 36.2914 39.7578 36.3665 39.8224C36.4572 39.9007 36.4149 39.9868 36.3788 40.0774C36.0214 40.9768 35.4395 41.6771 34.5264 42.0468C33.5429 42.4447 32.6851 43.031 31.8776 43.7006C30.3389 44.9765 28.7405 46.1696 27.0254 47.2037C24.4729 48.7429 21.7639 49.9071 18.8487 50.5728C17.5739 50.864 16.2797 51.0298 14.9733 51.103C14.48 51.1304 13.9872 51.1738 13.625 51.1671Z" fill="white"/>
<path fill-rule="evenodd" clip-rule="evenodd" d="M14.4222 43.7451C12.4857 43.735 10.3723 43.5046 8.35425 42.6902C7.79817 42.4657 7.27657 42.1867 6.8039 41.8121C6.22641 41.3552 6.03483 40.7441 6.06625 40.0378C6.07098 39.9339 6.09823 39.8275 6.13493 39.7298C6.22641 39.4899 6.43827 39.3636 6.69185 39.403C6.81724 39.4225 6.94292 39.4625 7.05969 39.5139C8.46186 40.1283 9.93881 40.4657 11.4422 40.7008C12.7949 40.9125 14.1567 41.0162 15.5272 40.9952C18.8345 40.9455 22.0136 40.2576 25.0851 39.0452C27.5844 38.0588 29.8638 36.6989 31.9166 34.9562C32.8049 34.2018 33.5845 33.3472 34.2699 32.4049C34.8302 31.6349 35.131 30.7738 35.1455 29.815C35.1535 29.3051 35.2742 28.8157 35.4394 28.3373C35.627 27.7933 35.8812 27.2774 36.1314 26.7607C36.1714 26.6789 36.2042 26.561 36.321 26.5909C36.4325 26.62 36.4139 26.7381 36.4164 26.8308C36.4664 28.8227 36.1158 30.7291 35.2369 32.5283C34.4612 34.1158 33.3977 35.4902 32.1802 36.7548C30.1721 38.8402 27.7732 40.3263 25.1171 41.42C22.7849 42.3805 20.3751 43.0628 17.8813 43.4376C16.8064 43.5996 15.7237 43.6884 14.4222 43.7451Z" fill="white"/>
<mask id="mask0_6008_43144" style="mask-type:alpha" maskUnits="userSpaceOnUse" x="5" y="45" width="34" height="16">
<path d="M5.40283 45.0652H38.4007V60.9042H5.40283V45.0652Z" fill="white"/>
</mask>
<g mask="url(#mask0_6008_43144)">
<path fill-rule="evenodd" clip-rule="evenodd" d="M38.4007 45.0652C38.3478 45.6544 38.3319 46.1792 38.2123 46.6921C38.1432 46.9887 38.0545 47.2774 37.8942 47.5382C37.6077 48.0042 37.2014 48.1657 36.6752 48.0203C36.5532 47.9865 36.4317 47.9446 36.3166 47.8916C35.9477 47.7227 35.6164 47.807 35.3073 48.0356C35.0872 48.1984 34.9329 48.4175 34.831 48.6697C34.6944 49.0087 34.7666 49.283 35.0547 49.5074C35.1723 49.5993 35.3087 49.6681 35.4401 49.741C35.7323 49.9041 35.8714 50.1493 35.8552 50.4875C35.832 50.9571 35.6717 51.3763 35.3844 51.7416C35.1236 52.0736 34.7743 52.1474 34.3908 51.9732C33.462 51.5516 33.0281 51.6137 32.2959 52.3167C31.4883 53.0917 30.6096 53.7735 29.6824 54.3938C28.0323 55.4979 26.3454 56.5356 24.5053 57.2954C22.3619 58.1803 20.1412 58.7495 17.8369 58.9994C15.3087 59.2738 12.8241 59.0763 10.3818 58.3578C9.87662 58.2094 9.39896 58.0094 9.01277 57.6349C8.83482 57.4616 8.64557 57.4724 8.43953 57.5742C8.11999 57.732 7.87593 57.9781 7.64978 58.2463C6.99115 59.0289 6.33252 59.8117 5.67334 60.5939C5.60089 60.6802 5.52514 60.764 5.40283 60.9043C5.41468 60.5573 5.55682 60.3473 5.6973 60.1393C6.28404 59.2719 6.89556 58.4225 7.54896 57.6044C7.9335 57.1231 8.32108 56.6438 8.70783 56.1642C8.75879 56.1006 8.81168 56.0388 8.86649 55.9786C9.4064 55.3872 9.8802 55.2474 10.6082 55.5789C12.8464 56.5988 15.2019 56.8149 17.6058 56.6113C20.9323 56.3292 24.1114 55.4479 27.1385 54.0337C28.9615 53.1824 30.6327 52.0712 32.2513 50.8792C32.4747 50.7144 32.6741 50.5163 32.8835 50.3324C33.1193 50.1249 33.3573 49.9141 33.6548 49.8051C33.8446 49.7355 33.9148 49.6031 33.9655 49.4259C34.1473 48.7959 34.3972 48.1959 34.7633 47.6497C35.072 47.1895 35.4384 46.792 35.9469 46.5476C36.3122 46.372 36.6551 46.3054 37.0165 46.5914C37.2691 46.7914 37.5091 46.7218 37.7022 46.4516C37.882 46.1997 37.9705 45.9121 38.0016 45.605C38.0256 45.3662 38.147 45.2017 38.4007 45.0652Z" fill="white"/>
</g>
<path fill-rule="evenodd" clip-rule="evenodd" d="M41.6693 43.0848C41.1623 43.0905 40.7534 42.798 40.5683 42.2974C40.4406 41.952 40.3873 41.5913 40.3814 41.223C40.3654 40.1998 40.5434 39.2001 40.7626 38.2073C41.021 37.0367 41.3795 35.8938 41.7334 34.7498C41.7635 34.6536 41.7694 34.5139 41.8842 34.5061C42.024 34.4963 42.0362 34.6525 42.0714 34.7504C42.1423 34.9496 42.1244 35.157 42.0768 35.3592C41.8317 36.4042 41.6677 37.4645 41.5007 38.5236C41.4134 39.077 41.4569 39.6192 41.7775 40.1054C41.9272 40.3318 42.1179 40.5033 42.3972 40.5468C42.7681 40.6044 43.1007 40.4346 43.3071 40.0793C43.3585 39.991 43.3964 39.8948 43.447 39.8059C43.483 39.7434 43.5382 39.6994 43.6159 39.7309C43.6789 39.7562 43.6824 39.8163 43.6794 39.8747C43.6784 39.8975 43.6743 39.9201 43.67 39.9426C43.5344 40.6379 43.3886 41.3301 43.0474 41.9612C42.8774 42.2754 42.6626 42.554 42.3942 42.7888C42.1821 42.9747 41.9407 43.0916 41.6693 43.0848Z" fill="white"/>
<mask id="mask1_6008_43144" style="mask-type:alpha" maskUnits="userSpaceOnUse" x="0" y="55" width="7" height="5">
<path d="M0.783691 55.6244H6.72331V59.5841H0.783691V55.6244Z" fill="white"/>
</mask>
<g mask="url(#mask1_6008_43144)">
<path fill-rule="evenodd" clip-rule="evenodd" d="M6.72289 56.8334C6.72918 57.0249 6.66947 57.1978 6.56978 57.354C6.18612 57.9548 5.67592 58.4397 5.17714 58.9346C5.06487 59.0461 4.9766 59.0053 4.87062 58.9083C4.69236 58.7454 4.50553 58.5892 4.30756 58.4529C4.04446 58.2722 3.8702 58.2844 3.61682 58.4783C3.41485 58.6327 3.23459 58.8129 3.06776 59.0064C2.99663 59.0896 2.92693 59.174 2.85237 59.2534C2.45386 59.6794 2.30988 59.6928 1.86824 59.2998C1.67884 59.1314 1.44345 59.0797 1.23091 58.9705C1.12435 58.9159 1.01094 58.875 0.901819 58.8248C0.77641 58.7676 0.755271 58.6698 0.817546 58.5542C0.857826 58.4795 0.909246 58.4106 0.960381 58.3428C1.41174 57.7394 1.86338 57.1359 2.31645 56.5339C2.51528 56.2691 2.60441 56.2346 2.89836 56.3383C3.24887 56.4615 3.60882 56.5707 3.89591 56.8279C4.03761 56.9552 4.15073 56.9201 4.263 56.7867C4.52839 56.4705 4.80348 56.1622 5.06173 55.8402C5.2197 55.6423 5.41653 55.5862 5.63849 55.6487C6.12899 55.7874 6.47979 56.1009 6.6829 56.5812C6.69718 56.6142 6.70518 56.651 6.71032 56.6872C6.71747 56.7353 6.71889 56.7847 6.72289 56.8334Z" fill="white"/>
</g>
<path fill-rule="evenodd" clip-rule="evenodd" d="M33.4155 45.7249C33.3631 45.7198 33.3017 45.7224 33.2453 45.7065C33.1261 45.6723 33.0811 45.5473 33.1638 45.4561C33.2263 45.3876 33.311 45.3372 33.3914 45.2876C34.4465 44.6372 35.4305 43.8863 36.4187 43.1428C37.2158 42.5431 37.7861 41.7622 38.1392 40.8232C38.315 40.3561 38.5118 39.8969 38.7004 39.4343C38.7318 39.3576 38.7664 39.2817 38.8049 39.208C38.8428 39.1361 38.9054 39.1089 38.9841 39.1352C39.0535 39.1585 39.0634 39.2211 39.0609 39.2805C39.0586 39.3392 39.0487 39.3998 39.0297 39.455C38.7145 40.3776 38.4849 41.3276 38.1267 42.2361C37.9342 42.7238 37.711 43.196 37.4279 43.6387C36.949 44.3868 36.2972 44.9143 35.4554 45.206C34.8599 45.4122 34.2616 45.6088 33.6358 45.704C33.5656 45.7147 33.4939 45.7179 33.4155 45.7249Z" fill="white"/>
<path fill-rule="evenodd" clip-rule="evenodd" d="M25.2005 33.432C25.1777 33.5092 25.1541 33.6313 25.1054 33.7438C24.9004 34.2182 24.5857 34.6199 24.1592 34.9431C24.0476 35.0277 23.9265 35.097 23.7864 35.1386C23.5945 35.1951 23.4319 35.1683 23.3058 35.0155C22.9988 34.6443 22.591 34.3968 22.1531 34.1813C21.8433 34.0293 21.8339 33.9701 22.0432 33.6952C22.4521 33.159 22.8621 32.6236 23.2739 32.0892C23.4766 31.826 23.5307 31.813 23.8363 31.96C24.2318 32.15 24.6091 32.3651 24.8956 32.6915C25.073 32.8937 25.2057 33.1152 25.2005 33.432Z" fill="white"/>
<path fill-rule="evenodd" clip-rule="evenodd" d="M39.7202 49.828C40.3242 49.1351 40.8972 48.479 41.468 47.822C41.5512 47.726 41.6478 47.6756 41.7923 47.7237C42.1233 47.8343 42.4522 47.9489 42.7224 48.149C43.0479 48.39 43.1181 48.634 42.8748 48.9322C42.4901 49.4027 42.0538 49.8425 41.5515 50.2337C41.4204 50.3358 41.2485 50.3852 41.0951 50.3055C40.6828 50.0911 40.217 49.9847 39.7202 49.828Z" fill="white"/>
<path fill-rule="evenodd" clip-rule="evenodd" d="M21.7473 9.09645V9.10359C21.5845 9.10359 21.4214 9.0959 21.2594 9.10578C21.0742 9.11704 20.8895 9.14037 20.7053 9.16507C19.1018 9.38026 17.6614 9.96353 16.4369 11.0313C16.1348 11.2948 16.1262 11.3543 16.3643 11.695C16.7689 12.2747 17.107 12.89 17.385 13.5381C17.7865 14.4749 18.0363 15.4545 18.2213 16.4525C18.2899 16.8239 18.3445 16.8585 18.6726 16.7119C21.0803 15.6354 22.4255 13.7945 22.724 11.1907C22.7932 10.5858 22.6603 9.99757 22.6459 9.40057C22.6412 9.19663 22.5534 9.11594 22.3396 9.09947C22.1433 9.08465 21.9448 9.09645 21.7473 9.09645ZM15.2861 28.4144C15.3329 27.9096 15.3849 27.4054 15.4248 26.9004C15.4974 25.9795 15.6965 25.0767 15.8227 24.1638C15.9446 23.2841 16.0556 22.4033 16.1284 21.5192C16.2306 20.2771 16.2976 19.0335 16.2262 17.7857C16.1567 16.5804 15.9487 15.4018 15.4913 14.2808C14.5047 11.8607 12.6954 10.3695 10.1623 9.72034C9.06241 9.43873 7.94289 9.32976 6.80787 9.37807C6.21723 9.40332 6.15991 9.43598 6.06355 10.0179C5.59226 12.8695 6.44374 15.244 8.74425 17.0421C10.1797 18.1642 11.8409 18.8507 13.6136 19.2725C13.7831 19.3129 13.9545 19.345 14.1239 19.3851C14.4271 19.4573 14.4609 19.513 14.3831 19.8182C14.3094 20.1086 14.23 20.3974 14.1569 20.688C14.1319 20.7885 14.1261 20.8936 14.1004 20.9938C14.0298 21.2661 13.8891 21.3663 13.6158 21.301C11.5127 20.7987 9.49133 20.1064 7.69589 18.8622C6.61182 18.1112 5.78139 17.1659 5.21014 15.9799C4.53006 14.5666 4.08314 13.0967 4.08203 11.5245C4.08148 10.4826 4.29774 9.4648 4.59237 8.46432C4.68513 8.14977 4.87453 7.98069 5.20931 7.95049C6.18428 7.86321 7.16009 7.82368 8.13838 7.86184C9.72033 7.92387 11.2466 8.26175 12.735 8.78491C13.3851 9.01356 13.9965 9.31521 14.5589 9.71348C14.7702 9.8628 14.7893 9.86774 14.9723 9.68905C16.2768 8.41409 17.9006 7.86266 19.6706 7.63731C21.0014 7.46768 22.3344 7.3911 23.6751 7.49486C24.1569 7.53218 24.3092 7.65268 24.3987 8.12424C24.5313 8.82005 24.5537 9.52189 24.4881 10.2257C24.4125 11.0406 24.327 11.8547 24.2478 12.6696C24.2389 12.7586 24.217 12.85 24.2594 12.9589C24.9206 12.6921 25.5943 12.4805 26.273 12.2834C27.7129 11.8657 29.1858 11.6917 30.6816 11.6714C30.8093 11.6697 30.9369 11.662 31.0646 11.6574C31.5868 11.6823 32.109 11.7073 32.631 11.7328C32.7124 11.7367 32.7941 11.7391 32.8747 11.7496C33.1031 11.7789 33.1239 11.7927 33.1197 12.0345C33.0846 14.2062 32.8896 16.3584 32.3142 18.4639C31.3091 22.1414 29.0695 24.8544 25.7641 26.7469C23.9853 27.7652 22.0854 28.4454 20.0757 28.8385C19.7343 28.9052 19.6634 28.8714 19.5044 28.559C19.4681 28.4874 19.4357 28.4133 19.4014 28.34C19.3471 28.1169 19.2851 27.8948 19.2403 27.6697C19.1528 27.2306 19.1973 27.1647 19.6332 27.098C21.0429 26.8817 22.3906 26.4782 23.6765 25.8565C26.6568 24.4147 28.866 22.2421 30.1624 19.1943C30.8796 17.5071 31.2387 15.7449 31.2554 13.9144C31.2578 13.621 31.2479 13.6056 30.9768 13.5211C30.8885 13.4934 30.7971 13.4752 30.7063 13.4555C30.1995 13.3462 29.6864 13.3753 29.1769 13.4052C27.196 13.5219 25.3756 14.1754 23.6917 15.1696C20.4606 17.0775 18.5419 19.9568 17.6198 23.5234C17.225 25.0504 17.1546 26.6193 17.1211 28.1882C17.1186 28.3027 17.1397 28.4174 17.1499 28.5319C17.1505 28.589 17.1444 28.6471 17.1527 28.7029C17.2286 29.2189 17.2629 29.2425 17.8006 29.2079C17.9745 29.1964 18.1495 29.1994 18.3237 29.198C19.8472 29.186 21.3705 29.1742 22.894 29.1623C22.9405 29.1621 22.987 29.1604 23.0335 29.1621C23.2877 29.1709 23.3321 29.1942 23.3356 29.4324C23.344 29.9512 23.3307 30.4697 23.3296 30.9885C23.3293 31.1243 23.2598 31.1704 23.1343 31.168C23.0529 31.1666 22.9715 31.1724 22.8901 31.1751C20.5414 31.2495 18.1922 31.1644 15.8435 31.1855C15.774 31.1864 15.7037 31.1861 15.6344 31.1784C15.332 31.1455 15.2265 31.0387 15.2313 30.7294C15.2398 30.1302 15.2603 29.5307 15.2781 28.9318C15.283 28.7594 15.3135 28.5873 15.2861 28.4144Z" fill="white"/>
</svg>
