<svg width="45" height="54" viewBox="0 0 45 54" fill="none" xmlns="http://www.w3.org/2000/svg">
<path fill-rule="evenodd" clip-rule="evenodd" d="M34.4016 53.4568C33.9744 53.0848 33.4728 52.9506 32.9196 52.9515C30.6502 52.9553 28.3812 52.9539 26.1118 52.9501C25.9867 52.9501 25.824 53.0151 25.7487 52.8618C25.6762 52.7152 25.8101 52.608 25.8793 52.5003C26.2921 51.8569 26.486 51.1238 26.7226 50.4078C26.7747 50.2517 26.8239 50.0947 26.8811 49.9405C27.0275 49.5467 27.1944 49.4271 27.6119 49.4266C29.1566 49.4252 30.7009 49.4261 32.2456 49.4261C32.6919 49.4257 32.723 49.3896 32.6598 48.9464C32.4683 47.6018 31.3861 46.426 30.0812 46.1446C28.3659 45.7755 26.7291 46.7207 26.1629 48.4141C25.8561 49.3308 25.5586 50.2513 25.2569 51.1698C25.0761 51.7202 24.7911 52.208 24.415 52.6436C24.2347 52.8514 24.0273 52.961 23.7419 52.9572C22.789 52.9453 21.8355 52.9544 20.8821 52.9525C19.8864 52.9506 19.1203 52.2227 19.1156 51.2107C19.1017 48.1166 19.1091 45.0225 19.1119 41.9289C19.1124 41.5427 19.2667 41.3363 19.6237 41.2134C20.4447 40.9311 21.267 40.6526 22.0903 40.3759C22.4584 40.2521 22.6118 40.3579 22.617 40.7569C22.6267 41.4165 22.6207 42.076 22.6207 42.7355C22.6207 44.8303 22.6202 46.9252 22.6211 49.02C22.6211 49.4138 22.6337 49.4247 23.026 49.4257C23.37 49.4266 23.7131 49.4223 24.0562 49.4261C24.342 49.4295 24.5238 49.2933 24.6131 49.0205C24.7641 48.5612 24.9022 48.0971 25.0686 47.6435C25.9068 45.3551 27.5022 44.0138 29.898 43.7167C32.8011 43.3566 35.6842 45.4505 36.1165 48.6689C36.3466 50.3765 35.9124 51.9153 34.7977 53.2353C34.7298 53.3154 34.648 53.3833 34.5731 53.4568H34.4016Z" fill="white"/>
<path fill-rule="evenodd" clip-rule="evenodd" d="M44.0554 51.4142C43.8365 52.0939 43.4356 52.586 42.7324 52.7572C42.6129 52.7862 42.4865 52.7934 42.3633 52.7939C40.4211 52.7953 38.4788 52.7948 36.5366 52.7915C36.4186 52.7915 36.2688 52.8412 36.1983 52.6988C36.1297 52.5614 36.2454 52.4591 36.308 52.3535C36.7989 51.5348 37.1003 50.653 37.154 49.6868C37.1755 49.2961 37.2655 49.2112 37.6496 49.2107C38.4826 49.2088 39.3146 49.2107 40.1471 49.2097C40.5662 49.2088 40.5905 49.1846 40.5905 48.7611C40.5914 47.174 40.5905 45.587 40.5909 43.9999C40.5914 43.4973 40.7015 43.3347 41.1626 43.1745C41.9685 42.8948 42.7777 42.6222 43.5836 42.3415C43.7595 42.2797 43.9186 42.2599 44.0554 42.4196V51.4142Z" fill="white"/>
<path fill-rule="evenodd" clip-rule="evenodd" d="M9.29439 52.7971C7.04022 52.7971 4.78651 52.7975 2.5328 52.7966C1.46673 52.7961 0.729466 52.0642 0.728535 50.998C0.726206 47.9947 0.727073 44.9915 0.728069 41.9882C0.728069 41.5019 0.845435 41.3367 1.29627 41.1851C2.102 40.915 2.90726 40.6455 3.71345 40.3787C4.08325 40.2561 4.20387 40.345 4.20387 40.7419C4.20527 43.4391 4.2048 46.1362 4.2048 48.8334C4.2048 49.3019 4.22064 49.3178 4.68824 49.3178C8.85241 49.3183 13.0161 49.3178 17.1803 49.3183C17.7112 49.3183 17.8467 49.4676 17.7801 49.9955C17.673 50.8403 17.4117 51.6312 16.9674 52.3628C16.7853 52.6613 16.5594 52.8027 16.199 52.8008C13.8977 52.7901 11.5956 52.7957 9.29439 52.7957V52.7971Z" fill="white"/>
<path fill-rule="evenodd" clip-rule="evenodd" d="M10.1437 41.5643C10.4087 40.8403 10.92 40.4112 11.7048 40.3522C12.6232 40.2826 13.2805 40.6619 13.5973 41.4943C14.3298 40.4501 15.0018 40.1474 15.936 40.4239C16.6808 40.6444 17.1655 41.2813 17.1369 42.0013C17.1065 42.766 16.5319 43.3946 15.7077 43.5647C14.8396 43.7441 14.1552 43.3867 13.6059 42.4514C13.2253 43.2292 12.6094 43.6623 11.66 43.5853C10.9328 43.5262 10.5066 43.185 10.1338 42.3994C9.75134 43.4103 8.8329 43.7108 8.04193 43.5638C7.11873 43.3919 6.61219 42.7699 6.63502 41.8758C6.65404 41.1312 7.29472 40.4725 8.14039 40.3557C8.82387 40.2616 9.80652 40.4983 10.1437 41.5643Z" fill="white"/>
<path fill-rule="evenodd" clip-rule="evenodd" d="M37.1482 41.4942C37.8184 40.4852 38.5359 40.1555 39.4827 40.4074C40.2807 40.6194 40.7953 41.2564 40.7714 42.0023C40.7465 42.7661 40.1397 43.4022 39.2744 43.571C38.413 43.7388 37.673 43.3515 37.1477 42.4334C36.938 42.8811 36.6395 43.24 36.1566 43.4398C35.6703 43.6413 35.1718 43.6488 34.6698 43.4787C33.8514 43.202 33.4997 42.5007 33.5567 41.8611C33.6289 41.0557 34.2489 40.4743 35.0893 40.3558C36.0029 40.2272 36.7043 40.6085 37.1482 41.4942Z" fill="white"/>
<path fill-rule="evenodd" clip-rule="evenodd" d="M36.4357 16.7993C36.4357 17.9704 36.4163 19.1427 36.4418 20.3138C36.4613 21.1751 36.1174 21.7899 35.3737 22.2181C29.4391 25.6411 23.5058 29.0666 17.5772 32.4993C16.8846 32.9007 16.2285 32.9166 15.5334 32.5115C13.4252 31.2831 11.3073 30.0669 9.19178 28.8482C8.55263 28.4798 8.23792 27.9516 8.24626 27.1953C8.26586 25.3264 8.26343 23.4563 8.24764 21.5874C8.24156 20.8616 8.55263 20.3358 9.15654 19.9845C11.4604 18.6438 13.763 17.3007 16.0827 15.9881C17.2455 15.3306 18.2589 15.9186 18.3112 17.2446C18.3355 17.8423 18.2966 18.4425 18.333 19.0391C18.3792 19.8149 18.8264 20.0882 19.4825 19.7222C20.7876 18.9964 22.0841 18.2522 23.3624 17.4776C24.0222 17.0775 23.9979 16.4858 23.3381 16.0674C22.8131 15.7331 22.2518 15.455 21.7293 15.1171C20.7414 14.4803 20.7049 13.3483 21.705 12.7542C24.0805 11.3391 26.484 9.97037 28.8875 8.60288C29.4671 8.2735 30.088 8.304 30.6737 8.63825C32.2728 9.55439 33.8706 10.473 35.4649 11.3989C36.1259 11.7831 36.4369 12.3723 36.4357 13.1348C36.4333 14.3571 36.4345 15.5782 36.4357 16.7993Z" fill="white"/>
<path fill-rule="evenodd" clip-rule="evenodd" d="M8.25012 10.4014C8.25012 9.23925 8.26329 8.07586 8.24653 6.91368C8.23097 5.82664 8.62841 5.04984 9.62322 4.50814C11.4991 3.48411 13.3403 2.39465 15.1635 1.28094C16.0877 0.716215 16.9137 0.70652 17.8439 1.26761C19.946 2.54007 22.0865 3.7483 24.203 4.9953C25.4791 5.74787 25.4911 6.85673 24.1982 7.6202C20.8343 9.60644 17.4512 11.56 14.0741 13.5256C12.9069 14.2067 11.7385 14.8877 10.569 15.5628C9.35267 16.2632 8.40814 15.8221 8.30878 14.4066C8.2166 13.0772 8.28843 11.7369 8.28843 10.4014H8.25012Z" fill="white"/>
</svg>
