<svg width="140" height="141" viewBox="0 0 140 141" fill="none" xmlns="http://www.w3.org/2000/svg">
<path fill-rule="evenodd" clip-rule="evenodd" d="M82.4016 98.4568C81.9744 98.0848 81.4728 97.9506 80.9196 97.9515C78.6502 97.9553 76.3812 97.9539 74.1118 97.9501C73.9867 97.9501 73.824 98.0151 73.7487 97.8618C73.6762 97.7152 73.8101 97.608 73.8793 97.5003C74.2921 96.8569 74.486 96.1238 74.7226 95.4078C74.7747 95.2517 74.8239 95.0947 74.8811 94.9405C75.0275 94.5467 75.1944 94.4271 75.6119 94.4266C77.1566 94.4252 78.7009 94.4261 80.2456 94.4261C80.6919 94.4257 80.723 94.3896 80.6598 93.9464C80.4683 92.6018 79.3861 91.426 78.0812 91.1446C76.3659 90.7755 74.7291 91.7207 74.1629 93.4141C73.8561 94.3308 73.5586 95.2513 73.2569 96.1698C73.0761 96.7202 72.7911 97.208 72.415 97.6436C72.2347 97.8514 72.0273 97.961 71.7419 97.9572C70.789 97.9453 69.8355 97.9544 68.8821 97.9525C67.8864 97.9506 67.1203 97.2227 67.1156 96.2107C67.1017 93.1166 67.1091 90.0225 67.1119 86.9289C67.1124 86.5427 67.2667 86.3363 67.6237 86.2134C68.4447 85.9311 69.267 85.6526 70.0903 85.3759C70.4584 85.2521 70.6118 85.3579 70.617 85.7569C70.6267 86.4165 70.6207 87.076 70.6207 87.7355C70.6207 89.8303 70.6202 91.9252 70.6211 94.02C70.6211 94.4138 70.6337 94.4247 71.026 94.4257C71.37 94.4266 71.7131 94.4223 72.0562 94.4261C72.342 94.4295 72.5238 94.2933 72.6131 94.0205C72.7641 93.5612 72.9022 93.0971 73.0686 92.6435C73.9068 90.3551 75.5022 89.0138 77.898 88.7167C80.8011 88.3566 83.6842 90.4505 84.1165 93.6689C84.3466 95.3765 83.9124 96.9153 82.7977 98.2353C82.7298 98.3154 82.648 98.3833 82.5731 98.4568H82.4016Z" fill="white"/>
<path fill-rule="evenodd" clip-rule="evenodd" d="M92.0554 96.4142C91.8365 97.0939 91.4356 97.586 90.7324 97.7572C90.6129 97.7862 90.4865 97.7934 90.3633 97.7939C88.4211 97.7953 86.4788 97.7948 84.5366 97.7915C84.4186 97.7915 84.2688 97.8412 84.1983 97.6988C84.1297 97.5614 84.2454 97.4591 84.308 97.3535C84.7989 96.5348 85.1003 95.653 85.154 94.6868C85.1755 94.2961 85.2655 94.2112 85.6496 94.2107C86.4826 94.2088 87.3146 94.2107 88.1471 94.2097C88.5662 94.2088 88.5905 94.1846 88.5905 93.7611C88.5914 92.174 88.5905 90.587 88.5909 88.9999C88.5914 88.4973 88.7015 88.3347 89.1626 88.1745C89.9685 87.8948 90.7777 87.6222 91.5836 87.3415C91.7595 87.2797 91.9186 87.2599 92.0554 87.4196V96.4142Z" fill="white"/>
<path fill-rule="evenodd" clip-rule="evenodd" d="M57.2944 97.7971C55.0402 97.7971 52.7865 97.7975 50.5328 97.7966C49.4667 97.7961 48.7295 97.0642 48.7285 95.998C48.7262 92.9947 48.7271 89.9915 48.7281 86.9882C48.7281 86.5019 48.8454 86.3367 49.2963 86.1851C50.102 85.915 50.9073 85.6455 51.7135 85.3787C52.0832 85.2561 52.2039 85.345 52.2039 85.7419C52.2053 88.4391 52.2048 91.1362 52.2048 93.8334C52.2048 94.3019 52.2206 94.3178 52.6882 94.3178C56.8524 94.3183 61.0161 94.3178 65.1803 94.3183C65.7112 94.3183 65.8467 94.4676 65.7801 94.9955C65.673 95.8403 65.4117 96.6312 64.9674 97.3628C64.7853 97.6613 64.5594 97.8027 64.199 97.8008C61.8977 97.7901 59.5956 97.7957 57.2944 97.7957V97.7971Z" fill="white"/>
<path fill-rule="evenodd" clip-rule="evenodd" d="M58.1437 86.5643C58.4087 85.8403 58.92 85.4112 59.7048 85.3522C60.6232 85.2826 61.2805 85.6619 61.5973 86.4943C62.3298 85.4501 63.0018 85.1474 63.936 85.4239C64.6808 85.6444 65.1655 86.2813 65.1369 87.0013C65.1065 87.766 64.5319 88.3946 63.7077 88.5647C62.8396 88.7441 62.1552 88.3867 61.6059 87.4514C61.2253 88.2292 60.6094 88.6623 59.66 88.5853C58.9328 88.5262 58.5066 88.185 58.1338 87.3994C57.7513 88.4103 56.8329 88.7108 56.0419 88.5638C55.1187 88.3919 54.6122 87.7699 54.635 86.8758C54.654 86.1312 55.2947 85.4725 56.1404 85.3557C56.8239 85.2616 57.8065 85.4983 58.1437 86.5643Z" fill="white"/>
<path fill-rule="evenodd" clip-rule="evenodd" d="M85.1482 86.4942C85.8184 85.4852 86.5359 85.1555 87.4827 85.4074C88.2807 85.6194 88.7953 86.2564 88.7714 87.0023C88.7465 87.7661 88.1397 88.4022 87.2744 88.571C86.413 88.7388 85.673 88.3515 85.1477 87.4334C84.938 87.8811 84.6395 88.24 84.1566 88.4398C83.6703 88.6413 83.1718 88.6488 82.6698 88.4787C81.8514 88.202 81.4997 87.5007 81.5567 86.8611C81.6289 86.0557 82.2489 85.4743 83.0893 85.3558C84.0029 85.2272 84.7043 85.6085 85.1482 86.4942Z" fill="white"/>
<path fill-rule="evenodd" clip-rule="evenodd" d="M84.4357 61.7993C84.4357 62.9704 84.4163 64.1427 84.4418 65.3138C84.4613 66.1751 84.1174 66.7899 83.3737 67.2181C77.4391 70.6411 71.5058 74.0666 65.5772 77.4993C64.8846 77.9007 64.2285 77.9166 63.5334 77.5115C61.4252 76.2831 59.3073 75.0669 57.1918 73.8482C56.5526 73.4798 56.2379 72.9516 56.2463 72.1953C56.2659 70.3264 56.2634 68.4563 56.2476 66.5874C56.2416 65.8616 56.5526 65.3358 57.1565 64.9845C59.4604 63.6438 61.763 62.3007 64.0827 60.9881C65.2455 60.3306 66.2589 60.9186 66.3112 62.2446C66.3355 62.8423 66.2966 63.4425 66.333 64.0391C66.3792 64.8149 66.8264 65.0882 67.4825 64.7222C68.7876 63.9964 70.0841 63.2522 71.3624 62.4776C72.0222 62.0775 71.9979 61.4858 71.3381 61.0674C70.8131 60.7331 70.2518 60.455 69.7293 60.1171C68.7414 59.4803 68.7049 58.3483 69.705 57.7542C72.0805 56.3391 74.484 54.9704 76.8875 53.6029C77.4671 53.2735 78.088 53.304 78.6737 53.6383C80.2728 54.5544 81.8706 55.473 83.4649 56.3989C84.1259 56.7831 84.4369 57.3723 84.4357 58.1348C84.4333 59.3571 84.4345 60.5782 84.4357 61.7993Z" fill="white"/>
<path fill-rule="evenodd" clip-rule="evenodd" d="M56.2501 55.4014C56.2501 54.2393 56.2633 53.0759 56.2465 51.9137C56.231 50.8266 56.6284 50.0498 57.6232 49.5081C59.4991 48.4841 61.3403 47.3946 63.1635 46.2809C64.0877 45.7162 64.9137 45.7065 65.8439 46.2676C67.946 47.5401 70.0865 48.7483 72.203 49.9953C73.4791 50.7479 73.4911 51.8567 72.1982 52.6202C68.8343 54.6064 65.4512 56.56 62.0741 58.5256C60.9069 59.2067 59.7385 59.8877 58.569 60.5628C57.3527 61.2632 56.4081 60.8221 56.3088 59.4066C56.2166 58.0772 56.2884 56.7369 56.2884 55.4014H56.2501Z" fill="white"/>
<rect x="0.5" y="1.44409" width="139" height="139" stroke="#4A4E57"/>
</svg>
