<svg width="141" height="141" viewBox="0 0 141 141" fill="none" xmlns="http://www.w3.org/2000/svg">
<path d="M76.339 86.1476C75.8997 85.6873 76.4093 84.8403 76.9892 85.1717C77.4988 85.4479 77.2879 86.1476 76.7959 86.2949C76.6378 86.2397 76.4796 86.1844 76.339 86.1476ZM75.6888 86.3686C76.0754 85.8714 76.8662 86.479 76.6026 87.0314C76.4796 87.4181 76.0227 87.3997 75.724 87.2892C75.5834 87.013 75.3901 86.6079 75.6888 86.3686ZM77.0419 87.2156C76.5499 86.8105 77.1825 85.8898 77.6921 86.2765C77.9908 86.4054 77.9733 86.7736 78.0084 87.0498C77.7448 87.3076 77.3407 87.547 77.0419 87.2156ZM80.574 86.3501C80.8903 85.9635 81.5581 86.3501 81.4878 86.8289C81.4878 87.2524 80.9431 87.547 80.6267 87.2708C80.3104 87.1051 80.2753 86.5527 80.574 86.3501ZM59.4868 87.8416C59.8734 87.8416 60.26 87.8416 60.6291 87.8416C60.6818 89.7566 60.5061 91.69 60.7169 93.5865C60.9629 93.6233 61.209 93.6602 61.4374 93.5129C61.4198 91.6163 61.4374 89.7198 61.4374 87.8232C61.8416 87.8232 62.2282 87.8232 62.6323 87.86C62.5972 89.2962 62.6323 90.7325 62.6148 92.1687C62.6148 92.6659 62.5796 93.163 62.7554 93.6418C62.8784 93.6233 63.1068 93.6049 63.2122 93.5865C63.3704 92.9973 63.3177 92.3897 63.3177 91.8004C63.3177 90.4747 63.3177 89.1489 63.3177 87.8232C63.7043 87.8232 64.0909 87.8232 64.495 87.8232C64.495 89.462 64.495 91.0823 64.495 92.7211C64.495 93.0157 64.5653 93.3103 64.6181 93.6049C64.7938 93.5865 64.9519 93.5681 65.1277 93.5497C65.2155 91.6531 65.1628 89.7382 65.1628 87.8232C65.567 87.8048 65.9712 87.8048 66.3753 87.8048C66.3753 89.554 66.3753 91.3217 66.3753 93.0709C66.3578 93.7338 66.0414 94.4888 65.4088 94.7281C64.9168 94.9675 64.3545 94.8018 63.8624 94.6913C63.265 94.9491 62.6148 94.857 62.0525 94.5808C61.332 94.9859 60.26 95.0043 59.768 94.2126C59.1178 92.9052 59.9965 91.2296 59.0651 89.9959C58.4852 89.0569 57.1848 88.7439 56.271 89.3699C55.0761 90.1064 54.7949 92.0214 55.8142 92.9973C56.4995 93.7522 57.5714 93.697 58.5028 93.6786C58.5028 94.0837 58.5028 94.4703 58.5203 94.8754C57.7472 94.8754 56.9388 94.9491 56.2008 94.6545C54.8828 94.1573 53.9339 92.7395 54.0217 91.248C54.0042 89.4436 55.5857 87.768 57.3254 87.8416C58.1162 87.7864 58.8718 88.1178 59.4868 88.6334C59.4868 88.3572 59.4868 88.0994 59.4868 87.8416ZM68.6773 87.8784C69.0815 87.8416 69.4857 87.8416 69.8899 87.8416C69.8899 89.5909 69.8723 91.3401 69.8899 93.0894C69.8899 94.4151 71.1902 95.4831 72.4203 95.2253C73.4571 95.0596 74.2303 94.01 74.2479 92.9236C74.2479 91.2296 74.2479 89.5356 74.2479 87.8416C74.652 87.8416 75.0738 87.8416 75.478 87.8784C75.478 89.7934 75.4077 91.69 75.5131 93.6049C75.6888 93.5865 76.0579 93.7706 76.093 93.476C76.1457 91.5979 76.0579 89.7382 76.1281 87.86C76.5147 87.86 76.9189 87.86 77.3055 87.86C77.3055 89.554 77.3055 91.248 77.3055 92.9421C77.2704 93.2367 77.3758 93.4944 77.534 93.7338C77.657 93.697 77.8854 93.6049 78.0084 93.5681C78.026 91.6715 78.026 89.7566 78.0084 87.86C78.4126 87.8416 78.8168 87.8416 79.2209 87.86C79.1858 89.6093 79.2209 91.3769 79.2034 93.1262C79.1858 93.8075 78.8695 94.544 78.2193 94.7834C77.7273 95.0043 77.1649 94.8754 76.6729 94.7281C76.1106 94.9675 75.4955 94.9307 74.9332 94.7097C74.4236 95.6672 73.5098 96.3669 72.4555 96.4406C70.6631 96.7168 68.8531 95.1885 68.7301 93.2735C68.6598 91.4874 68.7301 89.6829 68.6773 87.8784ZM80.328 87.8232C80.7146 87.8416 81.1188 87.8416 81.523 87.8416C81.5054 90.2721 81.523 92.7027 81.523 95.1332C81.5405 96.0171 81.1188 96.8088 80.5565 97.4533C80.2401 97.1771 79.9414 96.9009 79.6602 96.6063C80.0293 96.2012 80.2929 95.6672 80.3104 95.0964C80.328 92.6843 80.2577 90.2537 80.328 87.8232ZM82.6827 87.8416C83.0869 87.8416 83.5087 87.8416 83.9128 87.8784C83.8777 90.2906 83.9128 92.7027 83.8953 95.1332C83.8953 95.9986 83.5087 96.8272 82.9463 97.4349C82.6125 97.1771 82.3137 96.9009 82.015 96.6247C82.4192 96.1828 82.7179 95.5935 82.7003 94.9491C82.6827 92.5738 82.6827 90.2169 82.6827 87.8416ZM86.496 88.1362C87.2868 87.7311 88.183 87.8416 89.0265 87.86C89.0089 90.3458 89.0265 92.8316 89.0089 95.2989C88.9913 96.1275 88.5872 96.8641 88.06 97.4533C87.7612 97.1771 87.4625 96.9009 87.1638 96.6247C87.5679 96.1459 87.8491 95.5383 87.8315 94.8938C86.0918 94.9307 84.563 93.2551 84.5806 91.469C84.5103 90.0696 85.3362 88.7623 86.496 88.1362ZM85.881 90.6404C85.3538 91.9846 86.4257 93.697 87.8315 93.6602C87.8315 92.1319 87.8315 90.6036 87.8315 89.0753C86.9178 89.0385 86.1973 89.8302 85.881 90.6404Z" fill="white"/>
<path d="M66.8458 49.2857C69.8434 46.8558 73.6566 45.411 77.536 45.3015C77.6021 46.7682 77.6903 48.213 77.7123 49.6797C75.7286 49.7235 73.7669 50.2708 72.0035 51.1246C70.4386 51.4748 68.8516 51.7594 67.3968 52.438C66.0743 53.0072 64.7738 53.7296 63.7158 54.6928C62.1068 56.1376 61.0047 58.1078 60.4316 60.1875C60.5198 59.3337 60.7402 58.5238 61.0047 57.7138C62.0848 54.4301 64.1346 51.4529 66.8458 49.2857Z" fill="white"/>
<path d="M58.5366 48.41C59.815 49.1762 61.1816 49.7454 62.4821 50.4678C61.2477 52.635 60.7849 55.2401 60.9832 57.7138C60.7187 58.5237 60.4983 59.3337 60.4102 60.1875C59.8591 62.7487 60.1016 65.5289 61.402 67.8494C62.0633 69.1847 63.1213 70.2355 64.1352 71.2863C62.9449 70.4982 61.931 69.4912 60.9612 68.4623C58.206 65.3319 56.5969 61.2601 56.5088 57.1008C56.4426 54.1017 57.1259 51.0808 58.5366 48.41Z" fill="white"/>
<path d="M72.0033 51.1463C76.2353 50.621 80.6657 51.4528 84.2585 53.7733C86.6169 55.2181 88.5566 57.2759 90.0554 59.5525C88.799 60.3187 87.5427 61.0849 86.2863 61.873C84.9638 59.8809 83.2225 58.1296 81.0844 57.0132C80.2689 56.0718 79.3652 55.1962 78.3513 54.4738C76.5218 52.9852 74.2295 52.022 71.849 51.8906C70.3281 51.7593 68.8293 52.1096 67.3745 52.4598C68.8293 51.7593 70.4383 51.4966 72.0033 51.1463Z" fill="white"/>
<path d="M67.3753 52.46C68.8301 52.1097 70.3289 51.7594 71.8498 51.8908C74.2303 52.0221 76.5226 52.9853 78.3521 54.4739C78.7709 54.9774 79.2337 55.4153 79.6746 55.875C81.8787 58.48 82.6502 62.1358 81.989 65.4414C81.7906 66.6454 81.4159 67.8056 81.0191 68.9659C79.8068 71.8555 77.8892 74.4824 75.3985 76.4307C72.2245 78.9482 68.1688 80.3492 64.0911 80.3054C64.0911 78.8606 64.047 77.3939 64.1132 75.9491C66.2732 75.9053 68.4554 75.4675 70.351 74.4386C70.7697 74.2197 71.1665 73.957 71.5632 73.7162C68.8742 73.8695 66.2292 72.9281 64.1132 71.3301C63.0772 70.2793 62.0192 69.2285 61.38 67.8932C60.0795 65.5727 59.8371 62.7926 60.3881 60.2313C60.9612 58.1516 62.0633 56.2033 63.6723 54.7366C64.7744 53.7515 66.0528 53.0291 67.3753 52.46ZM69.7338 56.4004C66.9786 57.0133 64.6862 59.487 64.5981 62.3328C64.2013 65.7479 67.0888 69.0315 70.4832 69.2942C73.1062 69.6007 75.8173 68.1121 77.0075 65.7697C77.8451 64.1936 77.9553 62.2453 77.3382 60.5816C76.3242 57.5606 72.8637 55.6561 69.7338 56.4004Z" fill="white"/>
<path d="M68.9588 59.5306C68.6502 59.6401 68.3637 59.7714 68.0771 59.9028C68.6943 62.0481 68.9147 64.3029 68.8706 66.5577H69.8405C69.8625 65.7696 69.8625 64.9815 69.7523 64.2153C70.4136 64.478 71.163 64.3905 71.5597 63.7556C72.0006 64.0621 72.4855 64.4561 73.0806 64.3686C73.9402 64.3029 74.5794 63.4273 74.5133 62.5954C74.4692 61.5227 74.0064 60.5376 73.5214 59.6182C73.1908 59.7496 72.8602 59.9028 72.5736 60.0998C73.0145 60.8003 73.3231 61.5665 73.4333 62.3765C73.4994 62.7705 73.3231 63.274 72.8602 63.2959C72.4414 63.2302 72.1769 62.8581 72.0667 62.4859C71.8022 61.5446 71.692 60.5595 71.4275 59.5963C71.1189 59.6839 70.8103 59.7933 70.5017 59.9028C70.5238 61.0411 71.4054 62.3108 70.6781 63.3616C70.2593 63.3178 69.7744 63.1865 69.7082 62.7049C69.5099 61.6322 69.3556 60.5595 68.9588 59.5306Z" fill="white"/>
<path d="M78.374 54.4739C79.3879 55.1963 80.2917 56.0719 81.1072 57.0132C83.62 59.8591 85.1629 63.5149 85.4715 67.2802C85.78 70.542 85.0747 73.8475 83.664 76.7809C82.3856 76.1461 81.1072 75.4894 79.8067 74.9202C79.8288 74.6575 79.8729 74.3948 79.9831 74.154C80.6884 72.5778 81.0852 70.8484 81.1072 69.119L81.0411 68.9658C81.4378 67.8056 81.8125 66.6453 82.0109 65.4413C82.6722 62.1358 81.9007 58.5018 79.6965 55.8749C79.2557 55.3933 78.7708 54.9555 78.374 54.4739Z" fill="white"/>
<path d="M52.4976 66.4483C53.6878 65.5507 55.0103 64.8283 56.2226 63.9965C57.4349 65.8353 59.066 67.3896 60.9836 68.4841C61.9534 69.513 62.9674 70.52 64.1576 71.3081C66.2736 72.9061 68.9186 73.8475 71.6077 73.6942C71.2109 73.9569 70.8142 74.1977 70.3954 74.4166C64.2899 75.3142 57.7655 72.9499 53.8421 68.1558C53.3572 67.6304 52.9604 67.0174 52.4976 66.4483Z" fill="white"/>
<rect x="1.44434" y="1.44409" width="139" height="139" stroke="#4A4E57"/>
</svg>
