<svg width="50" height="42" viewBox="0 0 50 42" fill="none" xmlns="http://www.w3.org/2000/svg">
<path d="M20.4426 35.5175L20.7705 35.8414C20.8689 35.9385 20.8689 36.0681 20.7705 36.1653L20.4426 36.4892C20.3443 36.5864 20.2131 36.5864 20.1148 36.4892L19.7869 36.1653C19.6885 36.0681 19.6885 35.9385 19.7869 35.8414L20.1148 35.5175C20.2131 35.4203 20.3443 35.4203 20.4426 35.5175Z" fill="#364C9E"/>
<path d="M12.2132 35.5175L12.541 35.8414C12.6394 35.9385 12.6394 36.0681 12.541 36.1653L12.2132 36.4892C12.1148 36.5864 11.9836 36.5864 11.8853 36.4892L11.5574 36.1653C11.4591 36.0681 11.4591 35.9385 11.5574 35.8414L11.8853 35.5175C11.9836 35.4203 12.1148 35.4203 12.2132 35.5175Z" fill="#364C9E"/>
<path d="M2.47536 35.5175L2.80323 35.8414C2.90159 35.9385 2.90159 36.0681 2.80323 36.1653L2.47536 36.4892C2.377 36.5864 2.24585 36.5864 2.14749 36.4892L1.81962 36.1653C1.72126 36.0681 1.72126 35.9385 1.81962 35.8414L2.14749 35.5175C2.24585 35.4203 2.377 35.4203 2.47536 35.5175Z" fill="#364C9E"/>
<path d="M48.6067 40.1171L48.9346 40.441C49.0329 40.5382 49.0329 40.6677 48.9346 40.7649L48.6067 41.0888C48.5083 41.186 48.3772 41.186 48.2788 41.0888L47.951 40.7649C47.8526 40.6677 47.8526 40.5382 47.951 40.441L48.2788 40.1171C48.3772 40.0199 48.5083 40.0199 48.6067 40.1171Z" fill="#364C9E"/>
<path d="M43.1641 40.1171L43.4919 40.441C43.5903 40.5382 43.5903 40.6677 43.4919 40.7649L43.1641 41.0888C43.0657 41.186 42.9346 41.186 42.8362 41.0888L42.5083 40.7649C42.41 40.6677 42.41 40.5382 42.5083 40.441L42.8362 40.1171C42.9346 40.0199 43.0657 40.0199 43.1641 40.1171Z" fill="#364C9E"/>
<path d="M42.0821 40.1171L42.41 40.441C42.5084 40.5382 42.5084 40.6677 42.41 40.7649L42.0821 41.0888C41.9838 41.186 41.8526 41.186 41.7543 41.0888L41.4264 40.7649C41.328 40.6677 41.328 40.5382 41.4264 40.441L41.7543 40.1171C41.8198 40.0199 41.9838 40.0199 42.0821 40.1171ZM6.93459 40.1171L7.26245 40.441C7.36082 40.5382 7.36082 40.6677 7.26245 40.7649L6.93459 41.0888C6.83623 41.186 6.70508 41.186 6.60672 41.0888L6.27885 40.7649C6.18049 40.6677 6.18049 40.5382 6.27885 40.441L6.60672 40.1171C6.70508 40.0199 6.86901 40.0199 6.93459 40.1171Z" fill="#364C9E"/>
<path d="M5.85252 40.1171L6.18039 40.441C6.27875 40.5381 6.27875 40.6677 6.18039 40.7649L5.85252 41.0888C5.75416 41.186 5.62301 41.186 5.52465 41.0888L5.19678 40.7649C5.09842 40.6677 5.09842 40.5381 5.19678 40.441L5.52465 40.1171C5.59022 40.0199 5.75416 40.0199 5.85252 40.1171ZM5.59022 39.2749C5.29514 39.3073 5.00006 39.1777 4.80334 38.951C4.83612 39.4692 4.67219 39.9875 4.34432 40.4086C4.01645 40.8297 3.52465 41.0888 2.96727 41.0564H1.88531C1.42629 41.0564 0.967272 40.8621 0.639403 40.5058C0.311535 40.1494 0.1476 39.696 0.180387 39.2425V37.0723H0.868912V39.3397C0.868912 39.6312 1.00006 39.9227 1.22957 40.0847C1.45908 40.279 1.75416 40.3762 2.04924 40.3762H2.93449C3.22957 40.3762 3.52465 40.279 3.72137 40.0847C3.95088 39.8903 4.04924 39.6312 4.04924 39.3397V37.0723H4.73776V38.0764C4.73776 38.4003 5.00006 38.5623 5.52465 38.5623L5.59022 39.2749Z" fill="#364C9E"/>
<path d="M7.65577 38.1089C7.65577 38.4004 7.55741 38.6919 7.39347 38.8863C7.22954 39.113 6.93445 39.2426 6.63937 39.2426H5.49183L5.09839 38.53H6.40986C6.5738 38.5624 6.70495 38.4976 6.83609 38.4004C6.93445 38.2708 6.96724 38.1413 6.93445 37.9793V37.0076H7.65577V38.1089ZM11.5902 39.275H11.1312C11.1312 39.7608 10.9672 40.2143 10.6066 40.5382C10.2459 40.8621 9.78691 41.0565 9.29511 41.0565H8.27872V40.3439H9.16396C9.45904 40.3439 9.78691 40.2467 10.0164 40.0524C10.2459 39.858 10.3771 39.5665 10.3771 39.275C9.91806 39.3074 9.49183 39.2102 9.0656 39.0482C8.67216 38.7891 8.47544 38.368 8.50822 37.9145C8.50822 37.3315 8.63937 36.9104 8.93445 36.6836C9.19675 36.5217 9.49183 36.4569 9.78691 36.4893C10.2787 36.4569 10.7377 36.716 10.9345 37.2019C11.0656 37.6554 11.1312 38.1413 11.1312 38.6271H11.5902V39.275ZM10.4099 38.5624V37.8821C10.4099 37.6878 10.3771 37.5258 10.2787 37.3639C10.1804 37.2019 10.0164 37.1371 9.8197 37.1371C9.62298 37.1047 9.45904 37.2019 9.36068 37.3639C9.29511 37.5258 9.26232 37.7202 9.26232 37.9145C9.22954 38.1737 9.39347 38.4004 9.65577 38.4976C9.88527 38.5624 10.1476 38.5624 10.4099 38.5624Z" fill="#364C9E"/>
<path d="M13.5574 38.1089C13.5574 38.4004 13.459 38.6919 13.2623 38.8863C13.0656 39.113 12.8033 39.2426 12.5082 39.2426H11.3279V38.53C11.7541 38.5624 12.1476 38.53 12.5738 38.4976C12.7377 38.4328 12.8033 38.2384 12.8033 37.8497V37.0076H13.5246L13.5574 38.1089Z" fill="#364C9E"/>
<path d="M19.9182 39.2748C19.6887 39.2748 19.4592 39.2424 19.2297 39.1452C19.1641 39.1128 18.9018 38.8861 18.4756 38.4974C18.3758 38.7571 18.1949 38.9788 17.9591 39.1302C17.7233 39.2816 17.4449 39.3549 17.1641 39.3396C16.4428 39.372 15.8198 38.7889 15.8198 38.0763V37.9791C15.8198 37.5581 16.0821 37.1046 16.6395 36.5539L16.4428 36.3272L16.9346 35.8413L19.0657 38.0763C19.1641 38.2059 19.2952 38.3031 19.4264 38.4002C19.5903 38.465 19.7542 38.4974 19.9182 38.4974V39.2748ZM17.8854 38.0439C17.8854 37.9144 17.8526 37.7524 17.7542 37.6552L17.1641 37.1046C17.0002 37.2341 16.869 37.3637 16.7379 37.5257C16.6058 37.679 16.5357 37.8751 16.5411 38.0763C16.5411 38.2383 16.6067 38.4002 16.7379 38.5298C16.869 38.6594 17.0329 38.6918 17.1969 38.6918C17.3608 38.6918 17.5575 38.627 17.6887 38.5298C17.8198 38.3678 17.8854 38.2059 17.8854 38.0439Z" fill="#364C9E"/>
<path d="M21.8526 38.1089C21.8526 38.4004 21.7542 38.6919 21.5575 38.8863C21.3608 39.113 21.0985 39.2426 20.8034 39.2426H19.623V38.53C20.0493 38.5624 20.4427 38.53 20.8689 38.4976C21.0329 38.4328 21.0985 38.2384 21.0985 37.8497V37.0076H21.8198L21.8526 38.1089Z" fill="#364C9E"/>
<path d="M24.1147 39.2749C23.6557 39.3073 23.1967 39.2101 22.836 38.9186C22.6393 38.7242 22.5737 38.4651 22.5737 38.1736V34.8696H23.295V37.882C23.295 38.206 23.3606 38.4003 23.459 38.4975C23.6557 38.5623 23.8852 38.5947 24.1147 38.5947V39.2749Z" fill="#364C9E"/>
<path d="M27.0657 37.9468C27.0657 38.3031 26.9673 38.6594 26.7706 38.951C26.5411 39.2425 26.2132 39.4044 25.8525 39.372C25.5575 39.372 25.2624 39.2749 25.0657 39.1129C24.705 39.2425 24.3443 39.3073 23.9837 39.2749L23.8525 38.5623C24.246 38.5623 24.5083 38.5299 24.5738 38.4327C24.6066 38.2707 24.6394 38.0764 24.6066 37.882C24.6394 36.9103 25.0657 36.4244 25.8853 36.4244C26.246 36.4244 26.6066 36.5864 26.8034 36.8779C26.9673 37.2342 27.0657 37.5905 27.0657 37.9468ZM26.4427 37.9144C26.4427 37.3962 26.246 37.137 25.8198 37.137C25.3935 37.137 25.1968 37.3962 25.1968 37.9144C25.1968 38.4327 25.3935 38.6594 25.8198 38.6594C26.246 38.6594 26.4427 38.4003 26.4427 37.9144ZM29.3279 39.2749C28.8689 39.3073 28.4099 39.2101 28.0493 38.9186C27.8525 38.7242 27.787 38.4651 27.787 38.1736V34.8696H28.5083V37.882C28.5083 38.2059 28.5738 38.4003 28.6722 38.4975C28.8689 38.5623 29.0984 38.5946 29.3279 38.5946V39.2749Z" fill="#364C9E"/>
<path d="M34.6721 38.1412C34.6721 38.4327 34.6066 38.7242 34.4426 38.9834C34.2459 39.2425 33.9508 39.3721 33.6557 39.3397C33.2951 39.3073 32.9344 39.1453 32.7049 38.8538C32.5082 39.1453 32.1803 39.3073 31.8197 39.3397C31.4262 39.3073 31.0656 39.1129 30.8361 38.789C30.6066 39.0805 30.2787 39.2749 29.918 39.2749H29V38.5623H29.8525C30.1803 38.5623 30.3443 38.4003 30.3443 38.044V37.0723H31.0328V38.1088C31.0328 38.2707 31.0984 38.4327 31.2295 38.5299C31.3607 38.6271 31.5246 38.6918 31.6557 38.6918C31.9836 38.6918 32.1475 38.5299 32.1475 38.2384V37.0723H32.8361V38.1088C32.8361 38.2707 32.9016 38.4003 33.0328 38.5299C33.1639 38.6271 33.2951 38.6918 33.459 38.6918C33.7869 38.6918 33.9508 38.5299 33.9508 38.2384V37.0723H34.6393L34.6721 38.1412ZM41.6557 39.2749H41.3279C40.9672 39.2425 40.6393 39.0481 40.4098 38.789C40.3137 38.9502 40.1734 39.0812 40.0052 39.1672C39.837 39.2531 39.6477 39.2905 39.459 39.2749H37.1639V38.5623H39.4262C39.6885 38.5623 39.8197 38.4651 39.8197 38.3031C39.8197 38.206 39.7869 38.1088 39.7213 38.044L38.1148 36.3597L38.6066 35.8738L40.7377 38.1088C40.8361 38.2384 40.9672 38.3679 41.1311 38.4651C41.2986 38.5285 41.4764 38.5614 41.6557 38.5623V39.2749Z" fill="#364C9E"/>
<path d="M43.8525 38.1089C43.8525 38.4004 43.7542 38.6919 43.5902 38.8863C43.4263 39.113 43.1312 39.2426 42.8361 39.2426H41.2952V38.53H42.6066C42.7378 38.5624 42.9017 38.4976 43.0329 38.4004C43.1312 38.2708 43.164 38.1413 43.164 37.9793V37.0076H43.8853L43.8525 38.1089ZM47.8853 39.275C47.5902 39.3074 47.2952 39.1778 47.1312 38.9511C47.164 39.4693 47.0001 39.9876 46.6722 40.4087C46.3443 40.8298 45.8525 41.0889 45.328 41.0565H44.2788V40.3439H45.2624C45.5575 40.3439 45.8198 40.2467 46.0493 40.0524C46.2788 39.858 46.4099 39.5989 46.4099 39.3074V37.04H47.1312V38.0441C47.1312 38.368 47.3935 38.53 47.9181 38.53V39.275H47.8853Z" fill="#364C9E"/>
<path d="M49.8198 38.1089C49.8198 38.4004 49.7214 38.6919 49.5247 38.8863C49.328 39.113 49.0657 39.2426 48.7706 39.2426H47.8526L47.623 38.53C48.0493 38.5624 48.4427 38.53 48.869 38.4976C49.0329 38.4328 49.0985 38.2384 49.0985 37.8497V37.0076H49.8198V38.1089Z" fill="#364C9E"/>
<path d="M9.38477 28.5904L12.6766 25.3383L15.9454 28.5678L12.6536 31.8199L9.38477 28.5904ZM33.7428 28.5872L37.0346 25.3351L40.3034 28.5645L37.0116 31.8166L33.7428 28.5872ZM9.38706 22.1076L12.6789 18.8555L15.9477 22.0849L12.6559 25.337L9.38706 22.1076ZM34.0166 12.8761C27.4264 13.5563 22.3116 18.8685 21.9838 25.4116L27.8198 31.1772C28.1477 24.6342 33.2625 19.2896 39.8526 18.6093L34.0166 12.8761ZM16.5739 20.067C23.1641 19.3867 28.2789 14.0745 28.6067 7.53147L22.7379 1.7334C22.41 8.30886 16.5739 12.9732 10.0166 13.6211L16.5739 20.067V20.067Z" stroke="#364C9E" stroke-width="2" stroke-linejoin="round"/>
</svg>
