<svg width="41" height="50" viewBox="0 0 41 50" fill="none" xmlns="http://www.w3.org/2000/svg">
<path d="M19.7689 11.942L14.9724 17.4942V11.9902L7.75876 20.6085L11.4487 19.4068C11.6184 21.4467 11.7824 23.4328 11.9533 25.4841C12.1299 25.3695 12.2709 25.2904 12.3993 25.194C14.8073 23.4041 17.2153 21.6176 19.6096 19.8127C19.9398 19.5639 20.1829 19.5157 20.5739 19.7199C22.3467 20.6544 24.2237 21.0351 26.227 20.7026C27.8323 20.4354 29.1452 19.5868 30.136 18.376C31.4512 16.7644 32.6798 15.084 33.8168 13.3421C33.9395 13.1552 34.0644 12.9683 34.2559 12.6782C34.583 13.8506 34.7238 15.0671 34.6733 16.2833C34.4256 22.9867 30.1325 28.305 23.655 29.9814C16.423 31.839 8.62564 27.4197 6.5066 20.2496C4.13874 12.2574 8.61188 4.20546 16.6913 2.091C20.934 0.981028 25.4174 1.94079 29.0524 4.40727C29.0524 4.40727 28.9572 4.81548 28.8471 5.20994C28.7244 5.65255 27.4814 10.1624 26.2327 12.5669C25.9825 13.0685 25.6746 13.5391 25.3154 13.9693C24.957 14.3754 24.457 14.6292 23.9177 14.6786C23.3784 14.7281 22.8405 14.5695 22.4143 14.2353C21.5635 13.5749 20.7883 12.8158 19.9765 12.1025C19.9249 12.0521 19.863 12.012 19.7689 11.942Z" fill="white"/>
<path d="M38.9229 2.57604C37.4621 2.53247 36.1709 2.79047 34.9452 3.4349C32.7665 4.58156 31.3389 6.42884 30.2622 8.55132C29.5489 9.95828 29.0926 11.4948 28.3885 12.9087C27.9023 13.8868 27.3015 14.858 26.5538 15.6469C25.1457 17.1444 23.537 17.219 21.8846 16.007C21.2127 15.5139 20.5981 14.9394 19.9123 14.3638L14.0036 20.0329C14.0036 19.0582 13.9669 14.8729 13.9669 14.8729L9.04883 19.8036L14.359 13.584C14.359 13.584 14.3178 17.5114 14.3178 19.2451C14.3625 19.26 18.1018 15.2158 20.0133 13.1598C20.2552 13.4499 20.4513 13.756 20.715 13.9854C21.3033 14.4956 21.8823 15.0392 22.544 15.4393C23.5255 16.0322 24.5208 15.8911 25.4335 15.1997C26.2855 14.5541 26.8096 13.6792 27.1822 12.6988C27.9849 10.5958 28.7016 8.45615 29.6132 6.40247C30.7713 3.79036 32.7539 1.9385 35.5047 1.08538C36.4622 0.786096 37.5469 0.626709 38.9229 0.626709V2.57604Z" fill="white"/>
<path d="M13.3752 16.2867L13.475 21.4822L19.8963 15.5677C20.5843 16.07 21.1909 16.5997 21.8743 16.9976C23.8626 18.1557 25.5666 17.8794 27.1169 16.1743C28.4332 14.7261 29.2187 12.9545 30.0432 11.2115C30.8676 9.4686 31.7127 7.77841 33.0497 6.3726C34.6722 4.67553 36.4003 3.95199 38.9229 4.06665V5.90132C36.4003 5.78665 34.9979 6.58932 33.8122 7.82084C32.419 9.26908 31.4237 10.9788 30.4743 12.7297C29.8379 13.9016 29.1453 15.046 28.4103 16.1537C28.0778 16.6513 27.6076 17.079 27.1329 17.4563C25.4129 18.8208 23.4922 18.8896 21.6025 17.6741C21.059 17.3301 20.5591 16.9059 19.9766 16.4724L13.2227 22.3617L13.0278 17.1387L9.04883 19.8127L13.3752 16.2867Z" fill="white"/>
<path d="M38.9229 7.73605V9.57071C38.9229 9.57071 37.9952 9.53861 37.5308 9.61085C36.1322 9.81895 34.8677 10.5582 34.0002 11.6748C33.1471 12.747 32.4339 13.9303 31.6106 15.0288C30.7552 16.1755 29.9559 17.3898 28.9308 18.3656C26.54 20.6418 23.4268 20.4411 20.6553 18.8541C20.1278 18.5526 19.8297 18.5766 19.3745 18.9332C17.2256 20.6154 15.047 22.2609 12.8763 23.919C12.8018 23.9763 12.7181 24.021 12.5323 24.1391C12.3557 22.2311 12.0496 18.814 12.0496 18.814L9.04761 19.807L12.4096 18.2269L12.7158 23.4706C13.3361 22.9856 13.8625 22.5831 14.3727 22.1726C16.1057 20.792 17.8353 19.408 19.5614 18.0205C19.8366 17.798 20.0304 17.7407 20.3492 17.9758C23.4452 20.2691 26.8164 19.4664 29.0248 16.6227C30.105 15.2272 30.9077 13.6196 31.8915 12.1438C32.5646 11.1302 33.256 10.1131 34.0702 9.21181C35.3304 7.80255 37.0882 7.62138 38.9229 7.73605Z" fill="white"/>
<path d="M6.45713 40.2812C6.37708 40.37 6.28121 40.4432 6.1744 40.497C6.06284 40.5359 5.94496 40.5534 5.82692 40.5488C5.75206 40.5496 5.67808 40.5326 5.61109 40.4992C5.56507 40.4773 5.51649 40.4614 5.46648 40.4517C5.33929 40.4658 5.21406 40.494 5.0931 40.5359C4.86954 40.6157 4.65298 40.7138 4.44562 40.8294C4.20602 40.9423 4.0076 41.1271 3.87799 41.3582C3.85775 41.383 3.83224 41.403 3.80331 41.4167C3.77438 41.4305 3.74275 41.4376 3.71072 41.4376C3.6787 41.4376 3.64707 41.4305 3.61814 41.4167C3.58921 41.403 3.5637 41.383 3.54346 41.3582C3.66579 41.1591 3.80363 40.97 3.95569 40.7927C4.13734 40.5671 4.35634 40.3744 4.60317 40.2229C4.75036 40.1476 4.88504 40.0501 5.00245 39.9337C4.97648 39.8562 4.94548 39.7805 4.90965 39.7071C4.86432 39.6099 4.75209 39.5625 4.5708 39.5625C4.46504 39.5625 4.41109 39.5625 4.40677 39.5258C4.40245 39.4891 4.40677 39.461 4.45641 39.4114C4.55352 39.2839 4.67004 39.1725 4.80173 39.0812C4.97288 38.9505 5.17625 38.8686 5.39021 38.8443C5.60418 38.82 5.82073 38.8541 6.01684 38.943C6.08793 38.9673 6.14984 39.0128 6.19423 39.0734C6.23862 39.134 6.26334 39.2068 6.26505 39.2819C6.2652 39.4055 6.22075 39.5251 6.13987 39.6186C6.11397 39.6574 6.08807 39.692 6.06433 39.7222C6.03975 39.7519 6.0167 39.7829 5.99526 39.815C5.99526 39.8776 6.03411 39.8992 6.11397 39.8776C6.23707 39.8585 6.35517 39.8152 6.46145 39.7502C6.48735 39.8171 6.50462 39.8581 6.51325 39.8754C6.53052 39.9179 6.53932 39.9634 6.53915 40.0092C6.53938 40.0521 6.53132 40.0946 6.51541 40.1344C6.51541 40.1063 6.5003 40.1538 6.45713 40.2812Z" fill="white"/>
<path d="M5.26343 43.0802C5.43393 42.7564 5.53969 42.5924 5.57638 42.5924C5.6476 42.5622 5.75336 42.614 5.89149 42.7456C6.00617 42.8525 6.11091 42.9695 6.20444 43.0953L6.48501 42.6269C6.58645 42.4521 6.65552 42.3658 6.68789 42.3658C6.83877 42.39 6.97426 42.472 7.06559 42.5946C7.19122 42.7069 7.27366 42.8596 7.29868 43.0262C7.28074 43.235 7.20026 43.4336 7.06775 43.596C6.91667 43.8118 6.8066 43.9197 6.73321 43.9197C6.65983 43.9197 6.60372 43.8593 6.4807 43.7363C6.37983 43.6343 6.27162 43.5398 6.15695 43.4535C5.93034 43.9154 5.7512 44.1442 5.61523 44.1464C5.5598 44.1344 5.50935 44.1058 5.47062 44.0643L5.19436 43.8377C5.06918 43.737 5.00659 43.6744 5.00659 43.65C5.067 43.4496 5.15335 43.2581 5.26343 43.0802ZM7.23178 39.5881C7.2059 39.5328 7.17169 39.4819 7.13034 39.437C7.0978 39.4086 7.05835 39.3892 7.01595 39.3809C6.97691 39.37 6.93728 39.3613 6.89724 39.355L6.8325 39.4197C6.77422 39.478 6.72027 39.532 6.67063 39.5773C6.60466 39.64 6.53233 39.6957 6.4548 39.7435C6.41105 39.8248 6.39087 39.9168 6.39652 40.0089C6.40424 40.0998 6.42458 40.1891 6.45696 40.2744L6.91235 39.873C7.00631 39.7714 7.13326 39.7063 7.27063 39.6895L7.23178 39.5881Z" fill="white"/>
<path d="M8.90682 39.372C8.78611 39.3811 8.66538 39.3548 8.55934 39.2965C8.47031 39.2365 8.39643 39.1568 8.34351 39.0634C8.32624 39.0634 8.28523 39.1195 8.21833 39.2296C8.15142 39.3396 8.09099 39.4281 8.01545 39.5339C7.94799 39.6561 7.83583 39.7473 7.7025 39.7886C7.65569 39.8011 7.60592 39.7966 7.56221 39.7756C7.46577 39.7408 7.36594 39.7162 7.26437 39.7022L6.89746 39.372L7.24279 38.9986C7.31833 38.9123 7.38523 38.8778 7.44351 38.8886C7.60021 38.9484 7.76107 38.9967 7.9248 39.0332C7.9766 39.0332 8.07588 38.9123 8.22049 38.6706C8.36509 38.4289 8.47085 38.3037 8.54207 38.3015L8.66509 38.349C8.7401 38.3805 8.82128 38.3945 8.9025 38.39C8.91545 38.4612 8.93056 38.5648 8.94782 38.6986C8.96509 38.8324 8.97588 38.9317 8.97588 38.9447C8.97507 39.0302 8.9664 39.1154 8.94998 39.1994C8.94028 39.258 8.92584 39.3157 8.90682 39.372ZM8.29603 42.7821C8.30007 42.8104 8.31105 42.8372 8.328 42.8602C8.34495 42.8831 8.36734 42.9016 8.39315 42.9138C8.46437 42.9656 8.57444 43.0389 8.72552 43.1296C8.8766 43.2202 8.96293 43.2828 8.98883 43.2958C9.05574 43.2958 9.16365 43.1684 9.31042 42.9138C9.42731 42.7392 9.50126 42.5396 9.52624 42.331C9.47261 42.1668 9.37298 42.0215 9.23919 41.9123C9.06221 41.7353 8.92624 41.6641 8.83344 41.6965C8.78883 41.6965 8.68739 41.8519 8.52912 42.1627C8.41643 42.3519 8.33755 42.5593 8.29603 42.7756V42.7821Z" fill="white"/>
<path d="M11.1103 37.1922C11.0972 37.367 11.0488 37.5373 10.9679 37.6929C10.8612 37.9181 10.7371 38.1346 10.5967 38.3404C10.4206 38.6161 10.2021 38.8623 9.94919 39.0699C9.68791 39.268 9.36846 39.3743 9.04055 39.372H8.90674V38.3857C8.94559 38.3857 9.01681 38.3102 9.12257 38.1699C9.25446 37.9331 9.36567 37.6855 9.45494 37.4296C9.48733 37.3244 9.51186 37.2169 9.52832 37.108C9.55854 36.9418 9.5866 36.7281 9.61465 36.4605C9.6276 36.3166 9.63839 36.1979 9.64703 36.1044C9.64703 36.0159 9.66429 35.9533 9.66861 35.9145C9.73353 35.6075 9.83197 35.3086 9.96214 35.0231L10.1931 34.5526C10.2319 34.4814 10.2686 34.4684 10.3075 34.5159C10.322 34.5355 10.331 34.5588 10.3332 34.5832C10.3355 34.6075 10.3311 34.632 10.3204 34.654L10.247 35.008L10.1499 35.8713C10.0549 36.3526 9.99451 36.6418 9.97077 36.7346C9.94703 36.8274 9.92329 36.8922 9.90386 36.9677L9.85206 37.1835L10.1542 36.9353C10.2795 36.8135 10.4422 36.7375 10.6161 36.7195C10.7437 36.7152 10.868 36.76 10.9636 36.8447C11.0118 36.8885 11.0499 36.9423 11.0752 37.0023C11.1006 37.0623 11.1126 37.1271 11.1103 37.1922ZM10.6571 37.6627C10.5248 37.5608 10.3622 37.5061 10.1952 37.5073C10.0295 37.523 9.8756 37.6 9.76358 37.7231C9.57805 37.9277 9.40575 38.144 9.24775 38.3706C9.45874 38.3732 9.66851 38.3381 9.86717 38.267C10.0565 38.1977 10.2335 38.0986 10.3916 37.9735C10.5686 37.8353 10.6571 37.7339 10.6571 37.6627Z" fill="white"/>
<path d="M15.4333 39.716C15.5556 39.7448 15.575 39.8289 15.4916 39.9685C15.3785 40.1324 15.241 40.278 15.0837 40.4002C14.9283 40.5225 14.7556 40.6498 14.5657 40.7822C14.4448 40.8707 14.3348 40.9548 14.2398 41.0347C13.7201 41.4762 13.2607 41.9841 12.8736 42.5455C12.5227 43.0089 12.3182 43.5665 12.2865 44.1469C12.2801 44.3488 12.3172 44.5497 12.3954 44.7359C12.4737 44.9222 12.5911 45.0893 12.7398 45.2261C13.0431 45.4999 13.4408 45.6453 13.8491 45.6318C15.0966 45.6318 16.2571 45.0347 17.3304 43.8404C17.3693 43.7887 17.406 43.7627 17.4448 43.7627C17.4837 43.7627 17.4945 43.7865 17.4966 43.8318C17.4959 43.8597 17.4869 43.8868 17.4707 43.9095C16.1355 45.9239 14.7909 46.9376 13.4369 46.9505C13.1854 46.9673 12.9334 46.9257 12.7005 46.8291C12.4677 46.7326 12.2603 46.5835 12.0945 46.3937C11.8084 46.0169 11.6633 45.5519 11.6844 45.0793C11.7107 44.2378 11.9602 43.4185 12.4074 42.7052C12.7106 42.1858 13.0822 41.7096 13.5124 41.2894C13.5801 41.2232 13.6945 41.1174 13.8556 40.9721C14.0175 40.8275 14.1535 40.7153 14.2614 40.6332C14.3693 40.5512 14.4642 40.4735 14.5398 40.4066C14.6153 40.3397 14.6714 40.2966 14.6714 40.2793C14.7376 40.1354 14.2909 40.093 13.3312 40.1519C13.2513 40.1649 13.2319 40.1282 13.2729 40.0397C13.3205 39.9429 13.3753 39.8499 13.4369 39.7613C13.5095 39.6529 13.5888 39.5491 13.6743 39.4505C13.7609 39.3469 13.8539 39.2489 13.9527 39.157C14.0369 39.2498 14.0369 39.3728 13.9527 39.5498L13.8383 39.6771C14.3698 39.6297 14.9048 39.6427 15.4333 39.716Z" fill="white"/>
<path d="M17.0155 37.1215C17.063 37.1215 17.0803 37.1431 17.0673 37.1841C16.9203 37.4607 16.7522 37.7255 16.5645 37.9762C16.4989 38.058 16.4174 38.1255 16.3249 38.1748C16.2882 38.205 15.9537 38.3712 15.3213 38.6776C14.8238 38.8972 14.363 39.192 13.9551 39.5517C13.9292 39.5057 13.9123 39.4552 13.9055 39.4028C13.897 39.3186 13.9136 39.2338 13.9529 39.1589C14.0824 39.0323 14.2573 38.8791 14.4774 38.6992C14.6932 38.5179 14.9436 38.3345 15.2155 38.1489C15.4875 37.9633 15.7702 37.7798 16.0659 37.6028C16.3451 37.4373 16.6333 37.2874 16.9292 37.1539L17.0155 37.1215ZM15.276 33.9618C15.319 33.7487 15.3978 33.5443 15.5091 33.3575C15.6659 33.0467 15.7673 32.8913 15.8134 32.8913C15.9062 32.8524 16.0422 32.9215 16.2191 33.1071C16.3534 33.2159 16.4531 33.3614 16.5062 33.5258C16.4826 33.7347 16.4085 33.9347 16.2904 34.1086C16.1436 34.3632 16.0357 34.4884 15.9688 34.4906C15.9429 34.4776 15.8565 34.4215 15.7055 34.3244C15.5544 34.2273 15.4443 34.1517 15.3731 34.1086C15.3451 34.0952 15.3212 34.0745 15.3041 34.0487C15.287 34.0228 15.2773 33.9928 15.276 33.9618Z" fill="white"/>
<path d="M17.3717 38.5871C17.3717 38.8914 17.3588 39.1655 17.3544 39.4094C17.3548 39.6164 17.3433 39.8232 17.3199 40.0288C17.295 40.3579 17.2268 40.6823 17.117 40.9936C17.0511 41.1876 16.9681 41.3754 16.8688 41.5547C16.8246 41.6256 16.7756 41.6934 16.7221 41.7576C16.6746 41.8008 16.6401 41.8137 16.6142 41.7986C16.6017 41.7921 16.5922 41.7812 16.5874 41.768C16.5826 41.7549 16.5829 41.7404 16.5883 41.7274C16.5883 41.7274 16.612 41.5914 16.6616 41.3432C16.7096 41.1069 16.7406 40.8674 16.7544 40.6267C16.7544 40.3936 16.7544 40.0655 16.7544 39.6425C16.7405 39.3186 16.7491 38.994 16.7803 38.6713C16.7989 38.5349 16.827 38.4001 16.8645 38.2677C16.9034 38.1274 16.9487 37.9893 16.9983 37.8554C17.048 37.7216 17.1019 37.5921 17.158 37.4713L17.3113 37.1518C17.348 37.0936 17.3825 37.0698 17.4127 37.0828C17.4263 37.0877 17.4376 37.0975 17.4444 37.1102C17.4511 37.123 17.4529 37.1378 17.4494 37.1518C17.4365 37.2305 17.4278 37.3097 17.4235 37.3893C17.4235 37.5123 17.4041 37.6526 17.3976 37.8058C17.3911 37.959 17.3825 38.1101 17.376 38.259C17.3695 38.408 17.3696 38.5094 17.3717 38.5871Z" fill="white"/>
<path d="M19.3788 42.258C19.2764 42.5738 19.1404 42.8778 18.973 43.1645C18.8962 43.3009 18.7961 43.4229 18.6774 43.5249C18.5758 43.5864 18.468 43.6371 18.3558 43.676C18.2112 43.7278 17.9932 43.8033 17.7083 43.8918C17.5388 43.9554 17.364 44.0038 17.186 44.0364C17.1536 44.0364 17.1364 44.0364 17.1364 44.0105C17.1018 43.9652 17.2766 43.812 17.6587 43.553C18.0407 43.294 18.2889 43.1213 18.3989 43.0436C18.5294 42.9438 18.6443 42.8253 18.74 42.6918C18.8551 42.5345 18.9407 42.3575 18.9925 42.1695C18.9306 42.1611 18.8676 42.1732 18.8133 42.2041C18.7585 42.2345 18.6969 42.2508 18.6342 42.2515C18.489 42.254 18.3485 42.2007 18.2414 42.1026C18.1935 42.0648 18.1559 42.0155 18.1321 41.9593C18.1084 41.903 18.0992 41.8417 18.1054 41.781C18.1227 41.7098 18.1464 41.6256 18.1788 41.5307C18.2343 41.3755 18.2999 41.2241 18.3752 41.0774C18.4591 40.8964 18.561 40.7243 18.6795 40.5638C18.7113 40.5084 18.7556 40.4613 18.8088 40.4261C18.862 40.3908 18.9227 40.3685 18.986 40.3609C19.0699 40.3598 19.1529 40.3789 19.228 40.4164C19.3031 40.454 19.3681 40.5089 19.4177 40.5767C19.5358 40.728 19.5976 40.9157 19.5925 41.1076C19.5943 41.2122 19.5885 41.3168 19.5752 41.4206C19.5752 41.5242 19.5493 41.6105 19.5364 41.6796C19.5234 41.7487 19.4997 41.8393 19.4738 41.9451C19.4486 42.0512 19.4169 42.1558 19.3788 42.258Z" fill="white"/>
<path d="M19.2124 41.612C19.2093 41.5247 19.2195 41.4373 19.2426 41.353C19.2577 41.2732 19.3268 41.2041 19.4584 41.1372C19.535 41.1058 19.6075 41.0652 19.6743 41.0163C19.7174 40.9904 19.8016 40.9322 19.9268 40.8372C20.0806 40.733 20.2024 40.588 20.2786 40.4185C20.3174 40.3171 20.3563 40.2588 20.3994 40.2415C20.4349 40.2486 20.4691 40.261 20.5009 40.2782C20.5238 40.2984 20.5517 40.312 20.5817 40.3177C20.6117 40.3234 20.6427 40.321 20.6714 40.3106C20.7284 40.2942 20.7816 40.2667 20.8279 40.2297C20.8742 40.1926 20.9127 40.1468 20.9412 40.0948C21.0149 39.9681 21.0756 39.8343 21.1225 39.6955C21.1225 39.6955 21.1656 39.7084 21.2369 39.7581C21.2613 39.7715 21.2895 39.7762 21.3169 39.7715C21.3444 39.7668 21.3694 39.7529 21.3879 39.7322C21.4212 39.6971 21.4489 39.657 21.4699 39.6135C21.4699 39.5962 21.5131 39.5056 21.5714 39.3394C21.6297 39.1732 21.6599 39.1235 21.716 39.1235C21.7721 39.1235 21.7656 39.1689 21.7656 39.2573C21.7641 39.4829 21.7202 39.7062 21.6361 39.9156C21.5683 40.1034 21.4706 40.279 21.3469 40.4358C21.2605 40.535 21.161 40.6221 21.0512 40.6948C20.9933 40.7257 20.9402 40.765 20.8937 40.8113C20.8019 40.9378 20.6896 41.048 20.5613 41.1372C20.4517 41.214 20.3298 41.2716 20.2009 41.3077C20.0766 41.4362 19.9391 41.5512 19.7908 41.6509C19.6724 41.7433 19.5484 41.8284 19.4196 41.9056C19.3557 41.9355 19.2962 41.974 19.2426 42.0199C19.1714 42.0696 19.1347 42.1149 19.1304 42.1516L19.2124 41.612Z" fill="white"/>
<path d="M24.3535 41.8996C24.3508 42.1062 24.321 42.3115 24.2651 42.5104C24.2101 42.7223 24.1312 42.9272 24.0298 43.1212C23.9125 43.3673 23.7558 43.5926 23.5658 43.7881C23.4239 43.9323 23.2307 44.0145 23.0284 44.0168C22.7176 44.0168 22.56 43.8291 22.5579 43.4514C22.5598 43.3096 22.5808 43.1688 22.6204 43.0327C22.6727 42.8824 22.74 42.7378 22.8212 42.601C22.8989 42.4658 22.9658 42.3514 23.0219 42.2578L22.9205 42.2255H22.8881C22.8959 42.1294 22.9239 42.036 22.9701 41.9514L23.4125 40.9327C23.4557 40.8269 23.5032 40.7729 23.5571 40.7729C23.6273 40.7825 23.694 40.8092 23.7514 40.8507C23.8377 40.9046 23.9111 40.9521 23.9672 40.9931C24.0884 41.0945 24.1888 41.2183 24.2629 41.3578C24.3311 41.53 24.362 41.7146 24.3535 41.8996ZM23.7449 42.901C23.7468 42.8454 23.7363 42.79 23.7143 42.7389C23.6923 42.6878 23.6593 42.6422 23.6176 42.6053C23.5626 42.5532 23.5017 42.5076 23.4363 42.4694C23.3778 42.4301 23.3127 42.4016 23.2442 42.3852C23.2053 42.3852 23.1384 42.4586 23.0456 42.601C22.964 42.7095 22.9154 42.8391 22.9053 42.9744C22.9053 43.1643 23.0197 43.2593 23.2464 43.2571C23.3636 43.2522 23.4768 43.2132 23.5723 43.1449C23.6196 43.1225 23.6603 43.0883 23.6906 43.0456C23.7208 43.0029 23.7395 42.9531 23.7449 42.901Z" fill="white"/>
<path d="M26.05 43.5616C25.9838 43.6485 25.9078 43.7275 25.8234 43.7969C25.7436 43.8529 25.6582 43.9006 25.5687 43.9393C25.4766 43.9779 25.3813 44.0082 25.2838 44.03L24.9773 44.1034L24.5608 44.2069C24.4598 44.2365 24.3531 44.2409 24.25 44.2199C24.25 44.1616 24.3191 44.0882 24.4658 44.0041L24.85 43.7602C24.9795 43.676 25.109 43.5962 25.2406 43.5141C25.5162 43.3328 25.766 43.115 25.9831 42.8667C26.0903 42.7356 26.189 42.5979 26.2788 42.4544C26.3241 42.3854 26.3932 42.271 26.4946 42.1048L26.7644 41.5479C26.8151 41.4369 26.8758 41.3307 26.9457 41.2307C26.9996 41.1508 27.0514 41.112 27.0968 41.1163C27.1421 41.1206 27.1529 41.1789 27.1356 41.2415C27.0903 41.3818 27.0601 41.4724 27.0471 41.5156C26.9951 41.667 26.9625 41.8243 26.95 41.9839C26.9241 42.0595 26.9068 42.1069 26.8982 42.1285C26.7989 42.3573 26.6953 42.5731 26.5853 42.776C26.4219 43.0478 26.2432 43.3101 26.05 43.5616Z" fill="white"/>
<path d="M28.8103 40.0714L28.7499 40.9757C28.7499 41.1398 28.7348 41.2909 28.7261 41.4268C28.7175 41.5628 28.7132 41.6837 28.7089 41.7851C28.6981 42.0009 28.6678 42.1002 28.616 42.1002C28.5642 42.1002 28.534 42.1822 28.4714 42.3419C28.4434 42.4218 28.4153 42.493 28.3916 42.5578C28.3678 42.6225 28.3463 42.6722 28.3355 42.7088C28.2215 43.0387 28.0609 43.3505 27.8585 43.6348C27.7812 43.7334 27.6832 43.8138 27.5712 43.8701C27.4593 43.9265 27.3363 43.9574 27.211 43.9607C27.0649 43.9629 26.9214 43.9216 26.7988 43.8419C26.6863 43.7848 26.5921 43.6973 26.5268 43.5894C26.4668 43.5007 26.4209 43.4031 26.3909 43.3002C26.3542 43.1988 26.3218 43.1491 26.2959 43.1491C26.3645 42.6947 26.5888 42.2781 26.9304 41.9707C26.9614 42.1249 27.0223 42.2715 27.1096 42.4024C27.1632 42.4741 27.2346 42.5305 27.3168 42.5661C27.3989 42.6017 27.4889 42.6152 27.5779 42.6053C27.6929 42.6077 27.8072 42.5879 27.9146 42.547C28.0016 42.5002 28.0757 42.4327 28.1304 42.3506C28.2024 42.2524 28.2444 42.1354 28.2513 42.0139C28.2621 41.8865 28.2664 41.7484 28.2664 41.5995C28.2664 41.4506 28.2664 41.3362 28.2664 41.2563C28.2664 41.1765 28.2664 41.0081 28.2664 40.7534C28.2664 40.4988 28.2794 40.1837 28.3074 39.8124C28.3153 39.5806 28.3456 39.35 28.3981 39.1239L28.8168 37.829C28.8491 37.7923 28.8794 37.7837 28.9053 37.8031C28.9281 37.8462 28.9392 37.8946 28.9376 37.9434C28.9376 37.9693 28.9161 38.2455 28.8772 38.7721C28.8384 39.2988 28.8081 39.7088 28.8103 40.0714ZM29.4146 36.834C29.7974 36.4557 30.2009 36.0991 30.6232 35.7657C30.8973 35.5498 31.1715 35.334 31.4456 35.1074L32.2743 34.4318C32.7189 34.0549 33.0945 33.7196 33.401 33.4261C33.6053 33.2318 33.9456 32.9038 34.4218 32.4419C35.0693 31.8203 35.3844 31.4988 35.3844 31.4836C35.3872 31.5228 35.3782 31.5619 35.3585 31.5959C35.3037 31.7875 35.2239 31.9711 35.1211 32.1419C35.0168 32.3319 34.8992 32.5144 34.7693 32.688C34.5858 32.9189 34.4391 33.1002 34.3376 33.2275C34.1758 33.4045 34.0463 33.5405 33.9556 33.6333C33.865 33.7261 33.6189 33.9592 33.3081 34.2441C33.1916 34.3498 33.0448 34.4793 32.8765 34.6304C32.7081 34.7815 32.501 34.9563 32.27 35.1527C31.9549 35.4232 31.6628 35.6628 31.3938 35.8714C31.1247 36.0801 30.7822 36.3448 30.3664 36.6657L29.4794 37.365C29.4103 37.4168 29.3477 37.4664 29.2873 37.5182C29.2268 37.57 29.1664 37.6153 29.106 37.6585C28.9894 37.7513 28.9247 37.7837 28.9117 37.7534C28.9744 37.5761 29.0516 37.4043 29.1427 37.2398C29.215 37.0917 29.3097 36.9556 29.4232 36.8362L29.4146 36.834Z" fill="white"/>
<path d="M32.4448 40.3695C32.2462 40.4817 32.1253 40.5465 32.0778 40.5681C32.0271 40.5926 31.98 40.6238 31.9376 40.6609C31.8758 40.7109 31.8174 40.765 31.7627 40.8227C31.7167 40.8524 31.6641 40.8702 31.6095 40.8745C31.5465 40.8801 31.4858 40.9008 31.4325 40.935C31.3506 40.9929 31.2727 41.0564 31.1994 41.1249C31.1278 41.1969 31.0428 41.2541 30.9491 41.2932C30.9003 41.2991 30.8511 41.2991 30.8023 41.2932L30.6145 41.2738C30.4678 41.2738 30.2735 41.4659 30.0318 41.8458C29.7901 42.2256 29.5073 42.4177 29.1685 42.4199C28.78 42.4199 28.5059 42.1932 28.3483 41.7335C28.3144 41.6269 28.2919 41.5169 28.2814 41.4055C28.2645 41.2882 28.2544 41.17 28.2512 41.0515C28.2528 40.8887 28.2761 40.7269 28.3203 40.5702C28.3572 40.4387 28.4079 40.3114 28.4714 40.1904C28.5098 40.1086 28.5694 40.0385 28.644 39.9875C28.7023 39.953 28.7541 39.9702 28.7973 40.0371C28.7864 40.2671 28.8371 40.4958 28.944 40.6997C29.0228 40.8319 29.1373 40.9392 29.2744 41.0091C29.4115 41.0789 29.5656 41.1086 29.7188 41.0947C29.8397 41.0838 29.9572 41.0487 30.0644 40.9916C30.1715 40.9345 30.2661 40.8566 30.3426 40.7623C30.5584 40.5465 30.6987 40.4472 30.7742 40.4774C30.8116 40.5114 30.8557 40.5371 30.9037 40.5527C30.9517 40.5683 31.0025 40.5736 31.0527 40.5681C31.1412 40.553 31.2296 40.4731 31.3225 40.3328C31.4153 40.1925 31.4908 40.1364 31.5491 40.1688C31.5782 40.1866 31.6106 40.1983 31.6444 40.2031C31.6781 40.2079 31.7125 40.2058 31.7455 40.1968C31.7973 40.1774 31.8685 40.0911 31.9613 39.9335C32.0541 39.776 32.1275 39.7177 32.1771 39.7501C32.191 39.775 32.2102 39.7966 32.2333 39.8134C32.2564 39.8302 32.2829 39.8417 32.3109 39.8472C32.352 39.8549 32.3945 39.8488 32.4318 39.8299C32.4547 39.8681 32.4735 39.9086 32.4879 39.9508C32.5052 39.997 32.514 40.046 32.5138 40.0954C32.5139 40.1369 32.5058 40.1779 32.4901 40.2163C32.4858 40.2659 32.4663 40.3155 32.4448 40.3695ZM29.775 33.9767C29.8397 33.7745 29.9289 33.581 30.0404 33.4004C30.2174 33.068 30.3275 32.8997 30.3706 32.8997C30.4924 32.928 30.6033 32.991 30.6901 33.081C30.8123 33.1744 30.9131 33.2929 30.9858 33.4285C31.0786 33.2752 31.1649 33.1285 31.2491 32.9839C31.3699 32.781 31.4419 32.6796 31.4649 32.6796C31.6147 32.7049 31.7511 32.7812 31.8512 32.8954C31.9814 33.0081 32.0633 33.1665 32.08 33.3378C32.0641 33.5485 31.9893 33.7504 31.8642 33.9206C31.7088 34.1364 31.5987 34.2551 31.5318 34.2573C31.4649 34.2594 31.398 34.2033 31.2965 34.0997C31.1894 33.9827 31.0724 33.8751 30.9469 33.7781C30.7181 34.2508 30.5368 34.4882 30.4073 34.4882C30.2828 34.4287 30.1678 34.3509 30.0663 34.2573C29.8721 34.0954 29.775 34.0026 29.775 33.9767ZM30.3426 32.4076C30.4024 32.2133 30.4812 32.0253 30.5778 31.8465C30.7332 31.5141 30.8347 31.3479 30.8822 31.3479C31.0359 31.3668 31.1765 31.4441 31.275 31.5637C31.401 31.6852 31.4778 31.8489 31.4908 32.0234C31.4721 32.2284 31.4047 32.426 31.2944 32.5997C31.1635 32.8457 31.0663 32.9688 31.003 32.9688C30.9642 32.9688 30.88 32.9105 30.7483 32.7961C30.6167 32.6817 30.5174 32.5975 30.4483 32.5479C30.3793 32.4983 30.3426 32.4443 30.3426 32.4033V32.4076Z" fill="white"/>
<path d="M32.4448 39.8386C32.5603 39.7638 32.65 39.6553 32.7016 39.5278C32.7361 39.4695 32.7663 39.4069 32.7966 39.3443L32.8894 39.1414C32.9452 39.0275 33.0179 38.9227 33.1052 38.8306C33.1347 38.7978 33.1706 38.7713 33.2107 38.7528C33.2507 38.7342 33.2942 38.724 33.3383 38.7227C33.4163 38.7234 33.4919 38.7491 33.5541 38.7961C33.5674 38.8093 33.5827 38.8202 33.5994 38.8285C33.6155 38.8368 33.6301 38.8477 33.6426 38.8609C33.6771 38.8609 33.716 38.8069 33.7635 38.7012C33.811 38.5954 33.8498 38.5371 33.8628 38.5371C33.9043 38.5366 33.9449 38.5499 33.9781 38.5749C34.0113 38.5999 34.0352 38.6352 34.0462 38.6753C34.0765 38.7517 34.094 38.8327 34.098 38.9148C34.0988 39.0909 34.0369 39.2616 33.9232 39.3961C33.885 39.4605 33.832 39.5149 33.7685 39.5547C33.7051 39.5945 33.6331 39.6185 33.5584 39.6249C33.483 39.6242 33.4089 39.6049 33.3426 39.5688C33.2931 39.5375 33.2369 39.5183 33.1786 39.5127C33.1398 39.5124 33.1016 39.5218 33.0674 39.5398C33.0331 39.5579 33.0039 39.5842 32.9822 39.6163C32.9145 39.7414 32.8628 39.8321 32.8268 39.8882C32.7304 40.068 32.6049 40.2306 32.4556 40.3695C32.4034 40.293 32.3742 40.2031 32.3714 40.1105C32.3647 40.0142 32.3906 39.9185 32.4448 39.8386ZM33.6491 41.9515C33.486 42.1901 33.3506 42.4464 33.2455 42.7155C33.118 42.9582 33.0402 43.2238 33.0167 43.4968C33.2886 43.6479 33.4225 43.8076 33.4246 43.976C33.4248 44.0994 33.3855 44.2197 33.3124 44.3192C33.2855 44.3661 33.247 44.4053 33.2004 44.4329C33.1539 44.4606 33.101 44.4756 33.0469 44.4767C32.9963 44.479 32.9463 44.466 32.9031 44.4394C32.86 44.4129 32.8259 44.374 32.8052 44.3278C32.7591 44.2177 32.7349 44.0997 32.734 43.9803C32.7741 43.5447 32.9042 43.1221 33.116 42.7393C33.3707 42.2069 33.5484 41.9479 33.6491 41.9623V41.9515Z" fill="white"/>
<path d="M36.4203 42.1779C36.3165 42.4929 36.1798 42.796 36.0124 43.0822C35.9355 43.2192 35.8355 43.3419 35.7167 43.4448C35.6151 43.5063 35.5073 43.557 35.3951 43.5959C35.2527 43.6477 35.0347 43.7232 34.7476 43.8117C34.5792 43.8763 34.4051 43.9247 34.2275 43.9563C34.193 43.9563 34.1757 43.9563 34.1757 43.9326C34.1433 43.8851 34.316 43.734 34.7002 43.475C35.0843 43.216 35.3282 43.0434 35.4405 42.9657C35.5701 42.8658 35.6843 42.7472 35.7793 42.6139C35.8964 42.4566 35.9828 42.2787 36.034 42.0894C35.9712 42.0828 35.9079 42.0956 35.8527 42.1261C35.7978 42.1566 35.7363 42.1729 35.6736 42.1736C35.5287 42.1745 35.3886 42.1214 35.2807 42.0247C35.2328 41.987 35.1953 41.9377 35.1718 41.8813C35.1484 41.825 35.1398 41.7637 35.1469 41.7031C35.162 41.6297 35.1879 41.5477 35.2182 41.4527C35.2746 41.2979 35.3402 41.1465 35.4146 40.9995C35.5001 40.8193 35.6019 40.6474 35.7189 40.4858C35.7516 40.4311 35.7961 40.3844 35.8491 40.3489C35.9021 40.3135 35.9623 40.2902 36.0253 40.2808C36.1092 40.2803 36.192 40.2995 36.267 40.337C36.342 40.3745 36.4071 40.4292 36.457 40.4966C36.5748 40.6482 36.6373 40.8356 36.634 41.0275C36.6337 41.1321 36.6279 41.2365 36.6167 41.3405C36.6038 41.4441 36.5908 41.5304 36.5757 41.5995C36.5606 41.6685 36.5412 41.757 36.5131 41.8649C36.4851 41.9729 36.4527 42.0873 36.4203 42.1779Z" fill="white"/>
<path d="M40.5448 40.0608C40.3376 40.8119 40.1038 41.2537 39.8434 41.386C39.6132 41.4909 39.3898 41.6098 39.1743 41.7421C39.1167 41.7853 39.0639 41.8345 39.0167 41.8889C38.9195 42.0324 38.8378 42.1858 38.7729 42.3465C38.6347 42.7004 38.5246 42.9724 38.4405 43.1623C38.3175 43.4384 38.0981 43.6602 37.8232 43.786C37.4859 43.8977 37.1368 43.9701 36.7829 44.0019C36.6728 44.0148 36.6016 43.9889 36.5671 43.9263C36.5326 43.8637 36.5995 43.8357 36.6923 43.7666L37.0398 43.5119C37.0592 43.4925 37.2103 43.3911 37.493 43.2141C37.7088 43.0652 37.8146 42.9983 37.8016 42.9983C37.9831 42.8617 38.1515 42.7086 38.3045 42.5407C38.4149 42.3356 38.5136 42.1245 38.6002 41.9083C38.7051 41.6467 38.8352 41.3959 38.9887 41.1594C39.1057 41.0163 39.2457 40.8938 39.4031 40.7968L39.7765 40.6004C39.8933 40.5475 40.0035 40.4809 40.1045 40.4019C40.1933 40.3045 40.2661 40.1938 40.3203 40.0738C40.4131 39.9076 40.4779 39.8278 40.5167 39.8321C40.5556 39.8364 40.575 39.9184 40.5448 40.0608ZM37.0527 38.2932C37.1186 38.0915 37.2077 37.8981 37.3182 37.717C37.4973 37.3846 37.6074 37.2162 37.6484 37.2162C37.7701 37.2446 37.8811 37.3075 37.9678 37.3975C38.0905 37.4904 38.1915 37.609 38.2635 37.745C38.3563 37.5918 38.4448 37.445 38.529 37.3004C38.6498 37.0975 38.7254 36.9961 38.7448 36.9961C38.8953 37.0212 39.0325 37.0974 39.1333 37.2119C39.2626 37.3253 39.3443 37.4833 39.3621 37.6544C39.3452 37.8648 39.2705 38.0664 39.1462 38.2371C38.9908 38.4529 38.8786 38.5716 38.8117 38.5738C38.7448 38.5759 38.68 38.5198 38.5764 38.4162C38.4713 38.2929 38.355 38.1794 38.229 38.0774C37.998 38.5501 37.8189 38.7875 37.6872 38.7875C37.5632 38.7282 37.4489 38.6503 37.3484 38.5565C37.152 38.4098 37.0527 38.317 37.0527 38.2932ZM37.6246 36.7177C37.6844 36.5233 37.7632 36.3354 37.8599 36.1565C38.0182 35.8241 38.1196 35.658 38.1642 35.658C38.3181 35.6765 38.4589 35.7538 38.557 35.8738C38.6827 35.9955 38.7594 36.1591 38.7729 36.3335C38.7528 36.5382 38.6855 36.7354 38.5764 36.9098C38.4448 37.1558 38.3477 37.2788 38.2829 37.2788C38.2182 37.2788 38.1599 37.2206 38.0304 37.1062C37.9009 36.9918 37.7973 36.9076 37.7282 36.858C37.6592 36.8083 37.6246 36.7587 37.6246 36.7177ZM38.0326 48.2364C38.0945 48.0339 38.1792 47.8392 38.2851 47.6558C38.4556 47.3213 38.5592 47.1529 38.5959 47.1529C38.6649 47.1529 38.7685 47.2134 38.9067 47.3364C39.0222 47.4309 39.1176 47.5476 39.1872 47.6796C39.2757 47.5328 39.3577 47.386 39.4376 47.2479C39.5541 47.0407 39.6261 46.9371 39.6534 46.9371C39.7968 46.9601 39.9259 47.0374 40.0139 47.1529C40.1378 47.2706 40.2146 47.4295 40.2297 47.5997C40.2108 47.8097 40.1363 48.0108 40.0139 48.1825C39.8714 48.3983 39.7657 48.5191 39.6988 48.5191C39.6318 48.5191 39.5736 48.4673 39.4829 48.3616C39.3798 48.2459 39.2671 48.1391 39.1462 48.0422C38.9304 48.5148 38.7577 48.7522 38.6304 48.7522C38.5115 48.691 38.4024 48.6125 38.3067 48.5191C38.1211 48.3573 38.0282 48.2645 38.0282 48.2364H38.0326ZM38.6326 49.4148C38.6997 49.2395 38.7835 49.0711 38.8829 48.912C39.0448 48.6184 39.1462 48.4803 39.1851 48.4803C39.2529 48.4951 39.3172 48.5231 39.3742 48.5627C39.4313 48.6023 39.4799 48.6528 39.5175 48.7112C39.6277 48.8277 39.6881 48.9826 39.6858 49.1429C39.6621 49.3387 39.5918 49.5259 39.4808 49.6889C39.347 49.9048 39.2541 49.9997 39.2045 49.9997C39.1539 49.984 39.1109 49.9502 39.0836 49.9048C39.0189 49.8422 38.9541 49.7753 38.8872 49.704L38.7189 49.5594C38.6563 49.4968 38.6282 49.4537 38.6282 49.4148H38.6326Z" fill="white"/>
<path d="M4.14544 43.2311C4.14544 43.1599 3.99221 43.0542 3.68789 42.9182C3.38357 42.7822 3.22386 42.6096 3.22386 42.3937C3.22868 42.2221 3.26074 42.0524 3.31882 41.8908C3.38217 41.7062 3.46086 41.5271 3.55408 41.3556C3.57255 41.326 3.60081 41.3039 3.63393 41.293C3.66775 41.2803 3.70356 41.2737 3.73969 41.2736C3.77354 41.2735 3.80714 41.2793 3.83897 41.2908C3.85243 41.296 3.86421 41.3047 3.87297 41.3162C3.88174 41.3276 3.88715 41.3413 3.88861 41.3556C3.88861 41.4139 3.93825 41.4721 4.03321 41.5304C4.12818 41.5887 4.22314 41.6534 4.32026 41.7225C4.41072 41.7817 4.48491 41.8626 4.53609 41.9578C4.58398 42.0964 4.60593 42.2428 4.60084 42.3894C4.60037 42.6803 4.56559 42.97 4.49724 43.2527C4.39717 43.6142 4.26499 43.9659 4.10228 44.3038C3.82317 44.9151 3.39405 45.446 2.85479 45.847C2.67671 45.9615 2.4863 46.0556 2.28717 46.1275C2.07846 46.1973 1.85972 46.2323 1.63968 46.2311C1.39635 46.2455 1.15336 46.198 0.933339 46.0931C0.713321 45.9881 0.523445 45.8292 0.381405 45.6311C0.116983 45.2403 -0.0160666 44.7754 0.00154849 44.3038C0.011514 43.9846 0.0608071 43.6678 0.148312 43.3606C0.234019 43.0326 0.338508 42.7098 0.461262 42.3937C0.577809 42.1088 0.67709 41.8714 0.761263 41.6772C0.785004 41.6297 0.821694 41.5606 0.867018 41.4613C0.912342 41.3621 0.972774 41.2455 1.04184 41.0923C1.09364 40.9995 1.1368 40.9131 1.17781 40.8376C1.21882 40.7621 1.24903 40.6952 1.27493 40.6347C1.33752 40.5203 1.38501 40.4664 1.41954 40.4707C1.45407 40.475 1.47781 40.5268 1.45839 40.6153C1.44129 40.7087 1.41378 40.7999 1.37637 40.8872C1.08141 41.5793 0.87709 42.0628 0.763421 42.3376C0.599619 42.7063 0.501035 43.1007 0.472053 43.5031C0.472053 44.0211 0.633924 44.3916 0.957666 44.6146C1.2341 44.7798 1.55329 44.8594 1.87493 44.8434C2.49006 44.862 3.09115 44.6573 3.56703 44.2671C3.95408 43.9362 4.14688 43.5909 4.14544 43.2311Z" fill="white"/>
</svg>
