<svg width="192" height="92" viewBox="0 0 192 92" fill="none" xmlns="http://www.w3.org/2000/svg">
<path d="M191 1H1V91H191V1Z" stroke="#55A2E7" stroke-opacity="0.595597"/>
<path fill-rule="evenodd" clip-rule="evenodd" d="M65.5356 46.0194C65.5356 48.944 62.2194 48.5003 62.2194 48.5003H48.9995C46.9373 48.5003 46.4626 46.9252 46.4626 45.4847V43.3614L42.9999 46.0302V46.7857C42.9999 50.4324 44.8739 51.7528 49.0683 51.7528H63.6521C66.4748 51.7528 68.9867 49.8821 68.9867 47.2068V40.2031L65.5356 43.4056V46.0194Z" fill="white"/>
<path fill-rule="evenodd" clip-rule="evenodd" d="M71.1522 52.4746H74.0396V36.5938L71.1522 39.8364V52.4746Z" fill="white"/>
<path fill-rule="evenodd" clip-rule="evenodd" d="M77.6467 49.4115C77.6467 51.5617 76.4049 52.7712 74.0397 52.7712L76.3531 56.0831C77.6683 56.0831 81.2582 55.188 81.2582 49.1249V39.4805L77.6467 42.9268V49.4115Z" fill="white"/>
<path fill-rule="evenodd" clip-rule="evenodd" d="M87.6288 52.4738H90.0472H90.9099H93.3526C94.8266 52.4738 95.9733 51.958 96.7914 50.9275C97.5042 50.0531 97.8608 48.9395 97.8608 47.5863V40.992L94.373 44.2838V46.5962C94.373 48.2548 93.7859 49.0838 92.6111 49.0838H86.8741C86.8741 49.0838 86.9116 47.3882 86.9116 46.4486V35.8711L83.4237 39.2084V48.2918C83.4237 51.0802 84.825 52.4738 87.6288 52.4738Z" fill="white"/>
<path fill-rule="evenodd" clip-rule="evenodd" d="M99.3027 52.4746H102.19V36.5938L99.3027 39.6178V52.4746Z" fill="white"/>
<path fill-rule="evenodd" clip-rule="evenodd" d="M100.696 30.8184C95.5993 30.8184 94.2517 34.4382 94.2517 35.7636L97.6784 38.0369C97.6784 35.6523 98.2506 34.4595 100.409 34.4595H103.786L107.245 30.8184H100.696Z" fill="white"/>
<path fill-rule="evenodd" clip-rule="evenodd" d="M54.9184 40.2031H46.6091V43.0905H58.1588L54.9184 40.2031Z" fill="white"/>
<path fill-rule="evenodd" clip-rule="evenodd" d="M94.2426 57.5274L97.139 54.8229C97.1085 54.7815 97.0823 54.7353 97.0501 54.6961C96.2394 53.696 95.104 53.1963 93.6444 53.1963C93.6444 53.1963 84.251 53.2023 84.1456 53.2061L87.6578 56.4838H92.5024C93.2077 56.4838 93.8469 56.9123 94.2426 57.5274Z" fill="white"/>
<path fill-rule="evenodd" clip-rule="evenodd" d="M90.6423 57.5273H92.3715C93.1325 57.5273 93.5298 58.3972 93.5298 58.3972L92.4751 59.6929L90.6423 57.5273Z" fill="white"/>
<mask id="mask0_454:3338" style="mask-type:alpha" maskUnits="userSpaceOnUse" x="116" y="26" width="13" height="8">
<path d="M116.629 26.4873H128.179V33.7059H116.629V26.4873Z" fill="white"/>
</mask>
<g mask="url(#mask0_454:3338)">
<path fill-rule="evenodd" clip-rule="evenodd" d="M128.179 27.5487L124.685 26.6741C121.551 25.8895 118.335 27.6486 117.503 30.603L116.629 33.7059C119.442 30.4215 123.527 28.1487 128.179 27.5487Z" fill="white"/>
</g>
<path fill-rule="evenodd" clip-rule="evenodd" d="M113.284 48.1426L112.484 51.4367C111.704 54.6429 113.451 57.9319 116.385 58.7834L119.517 59.6923C116.259 56.8926 113.968 52.8127 113.284 48.1426Z" fill="white"/>
<path fill-rule="evenodd" clip-rule="evenodd" d="M145.558 31.7705L141.894 30.8184C145.534 33.5673 148.044 37.6755 148.634 42.3681L149.64 38.6585C150.456 35.6525 148.628 32.5688 145.558 31.7705Z" fill="white"/>
<mask id="mask1_454:3338" style="mask-type:alpha" maskUnits="userSpaceOnUse" x="133" y="56" width="12" height="9">
<path d="M133.232 56.083H144.782V64.0234H133.232V56.083Z" fill="white"/>
</mask>
<g mask="url(#mask1_454:3338)">
<path fill-rule="evenodd" clip-rule="evenodd" d="M133.232 62.9057L136.744 63.8309C139.82 64.6405 142.976 62.8247 143.793 59.7744L144.782 56.083C142.048 59.6923 137.942 62.2193 133.232 62.9057Z" fill="white"/>
</g>
<path fill-rule="evenodd" clip-rule="evenodd" d="M136.833 44.4337C134.316 43.9491 132.669 41.5166 133.153 38.9996C133.638 36.4832 136.071 34.8358 138.587 35.3204C141.104 35.8051 142.751 38.2381 142.267 40.7545C141.782 43.2715 139.349 44.9189 136.833 44.4337ZM139.903 53.0328C139.418 55.5492 136.985 57.1961 134.469 56.712C131.952 56.2274 130.304 53.7943 130.789 51.2774C131.273 48.7615 133.706 47.1141 136.223 47.5981C138.74 48.0828 140.387 50.5164 139.903 53.0328ZM130.228 47.0346C129.109 46.8197 128.377 45.738 128.592 44.6196C128.808 43.5012 129.889 42.7687 131.007 42.9837C132.126 43.1997 132.858 44.2808 132.643 45.3997C132.427 46.5181 131.346 47.25 130.228 47.0346ZM128.257 50.7905C127.773 53.3069 125.34 54.9538 122.823 54.4697C120.306 53.9851 118.659 51.5515 119.143 49.0356C119.629 46.5187 122.061 44.8712 124.578 45.3559C127.095 45.8405 128.742 48.2736 128.257 50.7905ZM121.508 36.7573C121.993 34.2404 124.426 32.5929 126.942 33.0781C129.459 33.5628 131.107 35.9953 130.621 38.5122C130.137 41.0286 127.704 42.6761 125.187 42.1914C122.671 41.7068 121.023 39.2737 121.508 36.7573ZM130.705 28.6533C121.735 28.6533 114.464 35.9246 114.464 44.8948C114.464 53.865 121.735 61.1368 130.705 61.1368C139.676 61.1368 146.947 53.865 146.947 44.8948C146.947 35.9246 139.676 28.6533 130.705 28.6533Z" fill="#EC145A"/>
</svg>
