<svg width="92" height="92" viewBox="0 0 92 92" fill="none" xmlns="http://www.w3.org/2000/svg">
<path d="M91 1H1V91H91V1Z" stroke="#55A2E7" stroke-opacity="0.595597"/>
<path d="M42.2609 27.8775C40.4225 29.5487 38.9336 31.4523 38.0713 33.7794C37.5417 35.2065 37.9111 36.4687 38.9218 37.5673C39.6912 38.4039 40.6263 39.0281 41.6176 39.5719C43.5945 40.6554 45.7323 41.3291 47.8763 41.9883C48.0256 42.0419 48.1855 42.0594 48.343 42.0394C48.5004 42.0194 48.6508 41.9626 48.7816 41.8735C49.9547 41.1565 51.2117 40.5844 52.5248 40.17C52.654 40.123 52.7872 40.0876 52.9227 40.0641C53.053 40.0476 53.1778 39.9266 53.3608 40.0421C51.2854 40.6945 49.4422 41.7024 47.746 43.0539C47.8604 43.0979 47.9325 43.1288 48.0067 43.1529C49.4623 43.63 50.918 44.1263 52.2275 44.9437C52.4354 45.073 52.6392 45.04 52.8555 44.9932C53.2811 44.9011 53.7053 44.7952 54.1358 44.7361C55.0931 44.6041 56.0531 44.4921 57.0132 44.3848C57.3404 44.3484 57.5289 44.2267 57.6523 43.8912C58.202 42.3988 58.7877 40.92 59.3631 39.4372C59.5163 39.0412 59.5211 39.0364 59.1142 38.969C57.7785 38.7463 56.4489 38.4947 55.1263 38.2039C52.2261 37.5666 49.3771 36.7602 46.6154 35.6658C45.1043 35.0677 43.6902 34.3012 42.6594 33.0142C41.3667 31.3987 41.0582 29.9674 42.2047 28.1889C42.2491 28.1092 42.3468 28.0329 42.2609 27.8775ZM41.2211 40.9901C41.054 40.8155 40.8745 40.7653 40.713 40.6904C37.455 39.1698 35.4926 36.0707 36.2073 32.2195C36.5061 30.6115 37.2304 29.1878 38.1482 27.8521C38.7471 26.9838 39.4195 26.1719 40.1016 25.3676C40.1841 25.2748 40.3407 25.1572 40.2534 25.0562C40.1203 24.9015 40.0046 25.1084 39.9158 25.173C38.9818 25.8484 38.1601 26.6647 37.4807 27.5922C35.2708 30.6129 34.1915 33.9725 34.4619 37.7261C34.5774 39.3095 35.082 40.8408 35.9314 42.1863C36.0285 42.3424 36.1303 42.3981 36.3279 42.3493C36.8062 42.2317 37.2984 42.1685 37.7746 42.0433C38.9239 41.7443 40.0773 41.4521 41.2218 40.9901H41.2211ZM50.8244 32.5344C50.7323 32.5165 50.7011 32.5516 50.681 32.5928C50.1008 33.7615 49.4464 34.8772 48.5869 35.8672C48.487 35.9827 48.5487 36.0439 48.6784 36.0824C48.8884 36.1386 49.0943 36.2092 49.2946 36.2934C49.5192 36.3958 49.6356 36.358 49.7375 36.1188C50.0664 35.3579 50.3395 34.5744 50.5548 33.7746C50.6629 33.3655 50.7898 32.9585 50.8251 32.5351L50.8244 32.5344Z" fill="#FDFDFD"/>
<path d="M43.1448 58.0031C41.5609 57.6525 40.6078 56.4708 40.56 54.8614C40.517 53.4274 40.9703 52.1288 41.5526 50.8577C42.0482 49.777 42.7054 48.787 43.3549 47.795C43.488 47.5922 43.612 47.5317 43.854 47.6513C44.3752 47.9098 44.9104 48.1443 45.4483 48.3636C45.7158 48.4729 45.7387 48.5437 45.503 48.7272C44.1548 49.7818 42.9854 50.9993 42.0801 52.4574C41.7579 52.9812 41.4894 53.5358 41.2788 54.1128C41.2677 54.1692 41.2095 54.2283 41.2906 54.2778L41.3467 54.165C41.5658 53.7931 41.7467 53.4006 41.9879 53.039C42.1058 52.863 42.2007 52.8217 42.3997 52.9173C43.6328 53.5133 44.9436 53.6522 46.296 53.5649C47.5129 53.4986 48.7152 53.2695 49.8701 52.8836C50.0843 52.8101 50.1002 52.8458 50.1259 53.0514C50.1952 53.6109 50.2645 54.0282 50.1481 54.7501C50.1478 54.753 50.1484 54.7559 50.1499 54.7584C50.1514 54.7609 50.1537 54.7628 50.1564 54.764C50.1591 54.7651 50.1621 54.7654 50.165 54.7648C50.1678 54.7641 50.1704 54.7626 50.1723 54.7604C50.3803 54.4682 50.4413 54.1293 50.4683 53.7883C50.5952 52.2539 49.8375 51.123 48.7437 50.1606C47.9562 49.469 47.0648 48.9231 46.1463 48.4247C44.7177 47.6445 43.1982 47.0663 41.6933 46.4565C41.5769 46.4098 41.4618 46.3617 41.3467 46.3156C41.3467 46.1781 41.4542 46.1582 41.5228 46.1211C43.0145 45.3181 44.2955 44.2422 45.5114 43.0859C45.6313 42.9718 45.7457 42.9037 45.9072 42.9546C47.8231 43.5623 49.789 44.0339 51.5677 45.017C52.7094 45.6467 53.6369 46.4703 53.9841 47.7772C54.2753 48.8737 54.1498 49.9537 53.7339 50.9965C52.4903 54.1135 50.3463 56.3305 47.2124 57.6752C45.9709 58.2073 44.3073 58.2761 43.1448 58.0031Z" fill="white"/>
<path d="M60.9373 31.1947C59.8282 30.9507 58.7885 31.1604 57.7875 31.6347C57.0084 32.0032 56.2784 32.4597 55.527 32.8811C54.7756 33.3025 54.0409 33.7136 53.157 33.7486C52.9845 33.7627 52.8107 33.7474 52.6434 33.7033C51.9876 33.5039 51.761 33.0674 51.8996 32.2651C52.0258 31.5405 51.8421 31.2181 51.1468 30.9417C51.1149 30.9287 51.0775 30.9232 51.0484 30.9108C50.0384 30.5203 48.9758 30.4983 47.9166 30.4928C46.0609 30.4853 44.2427 30.7396 42.4959 31.3865C42.2186 31.4896 42.1195 31.4243 42.0516 31.1514C41.8623 30.3952 41.9517 29.6672 42.1618 28.9247C42.3455 28.2758 42.6941 27.8159 43.2632 27.4364C45.1501 26.1783 47.1984 25.4592 49.4832 25.5039C50.4834 25.5232 51.4442 25.7356 52.2843 26.3344C52.9657 26.8211 53.2174 27.4666 53.094 28.2751C53.0406 28.625 52.9872 28.9749 52.9311 29.3248C52.8021 30.1237 53.1529 30.5554 53.975 30.5657C54.612 30.5739 55.2227 30.3815 55.8466 30.2715C56.8864 30.0886 57.9261 29.859 58.995 30.0838C59.7575 30.2412 60.371 30.6338 60.9359 31.1287L60.9373 31.1947Z" fill="#EF1A17"/>
<path d="M32.5959 46.4617C33.0034 45.4622 33.3986 44.4571 33.7549 43.4369C33.8748 43.0932 34.0675 42.9818 34.3947 42.9474C36.5241 42.7233 38.5905 42.2139 40.625 41.567C41.3564 41.3392 42.072 41.0638 42.7669 40.7428C42.8439 40.7083 42.9275 40.6904 43.012 40.6904C43.0965 40.6904 43.18 40.7083 43.257 40.7428C44.119 41.1107 44.9996 41.4343 45.8953 41.7121C46.1136 41.7808 46.1413 41.8365 45.9778 42.0194C43.5357 44.7403 40.5411 46.569 37.0087 47.5548C35.4233 47.9968 33.7375 48.1873 32.0988 48.2938C32.0703 48.2956 32.0418 48.2902 32.016 48.278C31.9902 48.2659 31.9679 48.2474 31.9513 48.2244C31.9347 48.2014 31.9242 48.1745 31.9209 48.1464C31.9176 48.1182 31.9216 48.0897 31.9325 48.0635C32.1016 47.6566 32.433 46.8612 32.5959 46.4617ZM39.0847 42.7495C39.1471 42.4999 39.0106 42.5095 38.8394 42.5625C38.6681 42.6154 38.4713 43.1331 38.5718 43.2781C38.6113 43.3359 38.6633 43.3166 38.7215 43.3132C39.1097 43.2912 39.0577 42.9963 39.0847 42.7501V42.7495ZM36.5491 43.3063C36.5491 43.1276 36.5442 43.1186 36.391 43.1152C36.1373 43.1104 35.9897 43.3379 35.9751 43.7016C35.9689 43.8466 36.0278 43.8391 36.1325 43.8425C36.4333 43.8446 36.5449 43.7057 36.5491 43.307V43.3063ZM35.5239 43.2279C35.2819 43.2327 34.9977 43.6906 35.0955 43.9154C35.1026 43.9366 35.1174 43.9545 35.1369 43.9656C35.1565 43.9767 35.1794 43.9804 35.2015 43.9759C35.336 43.9635 35.5107 43.98 35.5696 43.8501C35.6393 43.6726 35.6807 43.4854 35.6923 43.2953C35.6999 43.2211 35.5946 43.2176 35.5239 43.2286V43.2279ZM36.8201 43.4974C36.8444 43.5799 36.7702 43.6968 36.938 43.6954C37.2152 43.6954 37.3816 43.474 37.3816 43.1076C37.3816 42.9825 37.3615 42.9275 37.2125 42.9371C36.8222 42.9633 36.879 43.2685 36.8201 43.4981V43.4974ZM39.3939 42.8608C39.3357 43.1358 39.4944 43.1152 39.667 43.0622C39.816 43.0162 39.9984 42.4793 39.9089 42.3617C39.8687 42.3081 39.8112 42.3184 39.7537 42.3212C39.3814 42.3397 39.4438 42.6395 39.3939 42.8615V42.8608ZM37.7233 43.3084C37.654 43.5586 37.8329 43.5228 38.0006 43.4878C38.1489 43.4555 38.3333 42.9275 38.2488 42.8003C38.2016 42.7275 38.1337 42.746 38.0665 42.755C37.74 42.7962 37.7365 43.0409 37.7233 43.309V43.3084ZM34.3697 44.0426C34.613 44.0481 34.9173 43.606 34.8168 43.4053C34.7828 43.3365 34.7225 43.3579 34.6692 43.3558C34.308 43.3393 34.3226 43.637 34.2283 43.8576C34.1541 44.0371 34.2332 44.0577 34.3697 44.0426Z" fill="white"/>
<path d="M42.2609 27.8779C42.3469 28.0333 42.2491 28.1096 42.1978 28.1893C41.0513 29.9678 41.3598 31.3991 42.6526 33.0146C43.6833 34.3016 45.0974 35.0681 46.6086 35.6662C49.3702 36.7592 52.2192 37.567 55.1195 38.2043C56.4421 38.4951 57.7716 38.7467 59.1073 38.9694C59.5142 39.0382 59.5094 39.0416 59.3562 39.4376C58.7809 40.9204 58.1951 42.3992 57.6454 43.8916C57.522 44.2271 57.3335 44.3488 57.0063 44.3852C56.0462 44.4925 55.0862 44.6045 54.1289 44.7365C53.6984 44.7957 53.2742 44.9015 52.8486 44.9936C52.6323 45.0404 52.4278 45.0734 52.2206 44.9442C50.9091 44.1268 49.4582 43.6304 47.9998 43.1533C47.9256 43.1293 47.8535 43.0983 47.7391 43.0543C49.4388 41.7028 51.282 40.695 53.3539 40.0426C53.1709 39.9284 53.0461 40.0481 52.9158 40.0646C52.7803 40.088 52.6471 40.1235 52.5179 40.1704C51.2049 40.5848 49.9478 41.1569 48.7748 41.874C48.6439 41.963 48.4935 42.0198 48.3361 42.0398C48.1787 42.0598 48.0187 42.0423 47.8695 41.9888C45.7254 41.3295 43.5877 40.6558 41.6107 39.5723C40.6195 39.0285 39.6843 38.4036 38.9149 37.5677C37.9043 36.4678 37.5348 35.207 38.0644 33.7798C38.9357 31.4507 40.4226 29.5491 42.2609 27.8779Z" fill="white"/>
<path d="M41.2219 40.99C40.0774 41.4519 38.924 41.7462 37.7747 42.0459C37.2985 42.171 36.8042 42.2343 36.328 42.3518C36.1305 42.4006 36.0286 42.3449 35.9315 42.1889C35.0816 40.8425 34.5771 39.3102 34.462 37.7259C34.1916 33.9724 35.2279 30.5811 37.4808 27.592C38.0296 26.8801 38.6441 26.2205 39.3163 25.6218C39.3974 25.5496 40.1204 24.9013 40.2535 25.056C40.3402 25.157 40.1842 25.2739 40.1052 25.3674C39.4231 26.1717 38.7507 26.9836 38.1518 27.8519C37.2312 29.1876 36.5069 30.6114 36.2109 32.2193C35.4962 36.0691 37.4586 39.1696 40.7166 40.6902C40.8746 40.7652 41.0548 40.8153 41.2219 40.99Z" fill="white"/>
<path d="M50.8252 32.5351C50.7898 32.9585 50.663 33.3655 50.5555 33.7725C50.3402 34.5724 50.0671 35.3558 49.7383 36.1167C49.6364 36.356 49.5199 36.3917 49.2953 36.2914C49.095 36.2071 48.8891 36.1366 48.6791 36.0803C48.5494 36.0418 48.4878 35.9806 48.5876 35.8651C49.4471 34.8752 50.1015 33.756 50.6817 32.5908C50.7018 32.5523 50.733 32.5172 50.8252 32.5351Z" fill="white"/>
<path d="M41.3509 54.1655L41.2947 54.2783C41.2164 54.2288 41.2718 54.1697 41.2829 54.1133L41.3509 54.1655Z" fill="#FDFDFD"/>
<path d="M39.0847 42.7491C39.0577 42.9959 39.1096 43.2908 38.7215 43.3135C38.6632 43.3169 38.6112 43.3362 38.5717 43.2784C38.4712 43.1334 38.6653 42.6157 38.8393 42.5628C39.0133 42.5098 39.1471 42.5002 39.0847 42.7491Z" fill="#FDFDFD"/>
<path d="M36.5491 43.3064C36.5449 43.7051 36.4333 43.844 36.1331 43.8426C36.0285 43.8426 35.9696 43.8468 35.9758 43.7017C35.9897 43.338 36.1373 43.1105 36.3917 43.1153C36.5442 43.1187 36.5511 43.1277 36.5491 43.3064Z" fill="#FDFDFD"/>
<path d="M35.5239 43.2287C35.5932 43.2191 35.7 43.2211 35.6923 43.294C35.6807 43.4841 35.6393 43.6713 35.5696 43.8488C35.5107 43.9787 35.336 43.9622 35.2016 43.9746C35.1795 43.9791 35.1565 43.9755 35.137 43.9643C35.1174 43.9532 35.1027 43.9353 35.0955 43.9141C34.9978 43.6914 35.2806 43.2335 35.5239 43.2287Z" fill="#FDFDFD"/>
<path d="M36.8202 43.4979C36.8791 43.2683 36.8202 42.963 37.2125 42.9376C37.3616 42.928 37.3824 42.983 37.3817 43.1081C37.3817 43.4745 37.2146 43.6945 36.938 43.6959C36.7703 43.6986 36.8445 43.5804 36.8202 43.4979Z" fill="#FDFDFD"/>
<path d="M39.3939 42.8614C39.4438 42.6393 39.3814 42.3396 39.7536 42.3217C39.8112 42.3217 39.8687 42.3087 39.9089 42.3623C39.9983 42.4798 39.816 43.0167 39.667 43.0628C39.4944 43.1157 39.3356 43.1357 39.3939 42.8614Z" fill="#FDFDFD"/>
<path d="M37.7233 43.3092C37.7365 43.0411 37.74 42.7963 38.0637 42.753C38.133 42.7441 38.1988 42.7255 38.246 42.7984C38.3305 42.9283 38.1462 43.4563 37.9978 43.4859C37.8328 43.5237 37.6533 43.5615 37.7233 43.3092Z" fill="#FDFDFD"/>
<path d="M34.3697 44.0424C34.231 44.0555 34.1541 44.0349 34.231 43.8575C34.3225 43.6368 34.3108 43.3392 34.6719 43.3557C34.7253 43.3557 34.7856 43.3378 34.8196 43.4052C34.9173 43.608 34.613 44.05 34.3697 44.0424Z" fill="#FDFDFD"/>
<path d="M15.4522 66.314C15.4522 67.2684 15.117 67.9078 14.4465 68.2324C14.2307 68.3391 13.9926 68.394 13.7514 68.3925C13.335 68.3883 12.9327 68.2424 12.6118 67.9791C12.2953 67.7367 12.137 67.5236 12.137 67.3396C12.1366 67.3231 12.1398 67.3067 12.1465 67.2916C12.1522 67.2775 12.1588 67.2643 12.1645 67.252C12.2042 67.2082 12.2528 67.1732 12.3072 67.1495C12.3616 67.1258 12.4204 67.1138 12.4798 67.1145C12.5163 67.1148 12.5528 67.117 12.589 67.1211C12.6431 67.1278 12.6967 67.1378 12.7495 67.1513C12.8455 67.1714 12.943 67.1837 13.0411 67.188C13.1054 67.188 13.1693 67.1788 13.231 67.1607C13.4201 67.1078 13.6036 67.0369 13.7789 66.9488C13.9222 66.8766 14.0522 66.7811 14.1635 66.6662C14.3707 66.4677 14.5155 66.2138 14.5804 65.9354C14.5804 65.8892 14.4418 65.715 14.154 65.4108C13.8663 65.1066 13.7229 64.8957 13.7409 64.7855C13.7599 64.6994 13.8729 64.5277 14.08 64.2703C14.287 64.0129 14.4339 63.8703 14.5206 63.8427C14.6564 63.7975 14.8359 64.016 15.0581 64.502C15.1667 64.7272 15.2545 64.9617 15.3202 65.2027C15.3789 65.4184 15.4171 65.6391 15.4341 65.8619C15.4398 65.9448 15.4446 66.0239 15.4474 66.0983C15.4503 66.1727 15.4522 66.2443 15.4522 66.314Z" fill="#EF1A17"/>
<path d="M17.2461 66.9902H16.059C15.833 66.9902 15.72 66.8678 15.72 66.6229V62.4611C15.7116 62.3349 15.734 62.2085 15.7855 62.0928C15.8159 62.0373 15.9536 61.9412 16.1977 61.8028C16.3288 61.7205 16.4671 61.6499 16.6108 61.5918V64.3833C16.6138 64.446 16.6382 64.5058 16.6801 64.5528C16.72 64.6084 16.7513 64.6357 16.775 64.6357H17.2499L17.2461 66.9902Z" fill="#EF1A17"/>
<path d="M20.4085 66.9905H19.889C19.829 66.9879 19.7703 66.9721 19.7171 66.9443C19.6641 66.9171 19.6058 66.9017 19.5462 66.8991C19.398 66.8991 19.2556 67.0027 19.1198 67.2118C18.984 67.4209 18.8539 67.5283 18.7399 67.5283C18.5542 67.5136 18.3761 67.4484 18.2252 67.3399L17.9983 67.1864C17.9242 67.1355 17.8482 67.0856 17.7713 67.0366C17.7102 67.0038 17.6413 66.9879 17.5719 66.9905H16.6802V64.636H17.306C17.3777 64.6015 17.4474 64.5631 17.5149 64.5211C17.6048 64.463 17.686 64.3926 17.7561 64.312C17.8741 64.1814 17.9841 64.044 18.0856 63.9004C18.2756 63.6367 18.4842 63.5049 18.7115 63.5049C18.8539 63.5049 19.0562 63.6618 19.3183 63.9758C19.4797 64.1641 19.6117 64.3195 19.7152 64.426C19.7829 64.5008 19.8566 64.5701 19.9355 64.6332C19.9821 64.6642 20.0172 64.6737 20.0419 64.6605C20.0687 64.6484 20.0967 64.6393 20.1255 64.6332H20.4104L20.4085 66.9905ZM19.0448 64.8159C19.0448 64.7116 18.9498 64.6134 18.7599 64.5211L18.7039 64.5032C18.6846 64.4966 18.6644 64.4935 18.644 64.4938C18.6123 64.4922 18.5807 64.4981 18.5517 64.5108C18.5226 64.5236 18.497 64.5429 18.4769 64.5672C18.4565 64.5836 18.4396 64.6039 18.4272 64.6269C18.4148 64.6498 18.4071 64.675 18.4047 64.701C18.4042 64.7101 18.4055 64.7192 18.4086 64.7278C18.4117 64.7363 18.4165 64.7442 18.4228 64.7509L18.8729 64.9072C18.8902 64.9146 18.9091 64.9179 18.928 64.9166C19.0068 64.9166 19.0448 64.8827 19.0448 64.8159Z" fill="#EF1A17"/>
<path d="M23.5802 64.7284C23.608 64.8113 23.5105 65.1946 23.2877 65.8784C23.0648 66.5621 22.904 66.9269 22.8053 66.9728C22.7232 66.99 22.6392 66.996 22.5555 66.9906H19.8424V64.6361H20.9972C21.1206 64.6361 21.1719 64.5674 21.1501 64.4289C21.144 64.4011 21.1408 64.3727 21.1406 64.3442V64.25C21.1406 63.9279 21.2355 63.6849 21.4188 63.505C21.6233 63.3117 21.9202 63.215 22.3096 63.215C22.5199 63.2124 22.7288 63.2485 22.9259 63.3214C23.1082 63.3949 23.2133 63.489 23.2412 63.6039C23.2659 63.7113 23.2848 63.8008 23.2972 63.8723C23.3075 63.9264 23.3135 63.9812 23.3152 64.0362C23.3152 64.1954 23.2583 64.2952 23.1443 64.3348C23.1073 64.3498 23.0379 64.3159 22.9354 64.2331C22.8466 64.1559 22.7333 64.1123 22.6154 64.1097C22.5437 64.1108 22.4729 64.1248 22.4064 64.1511C22.3393 64.1637 22.2789 64.1999 22.2363 64.2529C22.1938 64.306 22.1719 64.3725 22.1747 64.4403C22.1747 64.5721 22.226 64.638 22.3276 64.638H23.432C23.4635 64.6335 23.4956 64.6401 23.5226 64.6566C23.5497 64.6731 23.5701 64.6986 23.5802 64.7284Z" fill="#EF1A17"/>
<path d="M28.4479 66.99H27.9379C27.8887 66.9842 27.8437 66.9595 27.8126 66.9212C27.8005 66.9018 27.7843 66.8851 27.7651 66.8724C27.746 66.8597 27.7242 66.8513 27.7015 66.8478C27.6711 66.8478 27.5707 66.9643 27.4004 67.1972C27.2333 67.4298 27.0386 67.556 26.8164 67.5739C26.6398 67.5865 26.4248 67.4854 26.1716 67.2707C25.9184 67.0559 25.7405 66.9501 25.6379 66.9533C25.5923 66.9539 25.5478 66.9666 25.5088 66.99C25.4375 67.0267 25.4014 67.1708 25.4014 67.4223C25.4014 67.4929 25.4014 67.5777 25.4109 67.6775C25.4204 67.7773 25.4261 67.8932 25.4385 68.025C25.4508 68.1569 25.4641 68.2661 25.4689 68.3443C25.4736 68.4225 25.4765 68.4743 25.4765 68.4988C25.4765 68.5449 25.4765 68.5694 25.467 68.5722C25.2191 68.8849 25.014 69.0262 24.8497 68.9951C24.7699 68.9825 24.6664 68.4736 24.5392 67.4684C24.4803 67.017 24.4357 66.6246 24.4053 66.2912C24.3739 65.9568 24.3559 65.6781 24.3492 65.4539C24.3502 65.2377 24.429 65.029 24.5715 64.8653C24.7112 64.6751 24.9156 64.5413 25.1469 64.4886C25.3572 64.4378 25.5788 64.4622 25.7728 64.5573C25.7728 64.4946 25.8994 64.3275 26.1526 64.0563C26.4375 63.7424 26.674 63.5983 26.862 63.624C26.9875 63.6386 27.1077 63.6829 27.2124 63.753C27.3303 63.8342 27.4344 63.9334 27.521 64.0469C27.6223 64.1856 27.7049 64.3037 27.7689 64.401C27.8201 64.4766 27.8643 64.5567 27.9009 64.6402H28.4479V66.99ZM27.1592 64.9482C27.1782 64.8841 27.1317 64.7994 27.0206 64.6958C26.9381 64.6077 26.8252 64.5536 26.7043 64.5442C26.578 64.5442 26.5144 64.6101 26.5144 64.741C26.5191 64.7866 26.5355 64.8302 26.5621 64.8676C26.5887 64.9051 26.6246 64.9351 26.6664 64.9548C26.7578 65.013 26.8635 65.0455 26.9721 65.049C27.0776 65.049 27.1412 65.016 27.1592 64.9482Z" fill="white"/>
<path d="M30.8221 66.9908H27.8829V64.6457H28.9997C29.1203 64.6457 29.1896 64.5986 29.2086 64.5035C29.2238 64.4263 29.1687 64.1352 29.0415 63.6295C28.9782 63.3714 28.9351 63.1498 28.9123 62.9646C28.8885 62.8132 28.8837 62.6594 28.8981 62.5069C28.9076 62.3876 29.0621 62.219 29.3615 62.0011C29.661 61.7833 29.8699 61.6822 29.9883 61.6979C30.0516 61.7073 30.1288 61.8683 30.22 62.181C30.3112 62.4937 30.3482 62.6974 30.3311 62.7922C30.3237 62.8162 30.3135 62.8393 30.3007 62.861C30.2827 62.8905 30.2599 62.9169 30.2333 62.9392C30.1842 62.9806 30.1507 63.0374 30.1383 63.1002C30.1288 63.2048 30.1222 63.2613 30.1193 63.2707V63.2434C30.1203 63.2346 30.1226 63.2261 30.126 63.2179C30.126 63.2179 30.126 63.2179 30.126 63.2245L30.2694 64.6372H30.8164L30.8221 66.9908Z" fill="white"/>
<path d="M33.9845 66.9906H32.9883C32.816 66.9852 32.6498 66.9258 32.5135 66.8211C32.4333 66.7691 32.3613 66.7056 32.2998 66.6327C32.2401 66.559 32.1903 66.478 32.1517 66.3916C32.0969 66.5672 31.9842 66.7195 31.8317 66.8239C31.7059 66.924 31.552 66.9832 31.391 66.9934H30.2515V64.6389H31.391C31.552 64.6287 31.7059 64.5695 31.8317 64.4694C31.9842 64.365 32.0969 64.2127 32.1517 64.0371C32.1903 64.1235 32.2401 64.2045 32.2998 64.2782C32.3613 64.3511 32.4333 64.4146 32.5135 64.4666C32.6498 64.5713 32.816 64.6307 32.9883 64.6361H33.9845V66.9906ZM33.0671 67.8184C33.0671 67.8674 32.9788 67.9795 32.8022 68.1547C32.6256 68.3298 32.5145 68.4155 32.4689 68.4118C32.4125 68.4118 32.2501 68.2768 31.9817 68.0068C31.7126 68.2768 31.5458 68.4118 31.4812 68.4118C31.4319 68.4118 31.3198 68.3261 31.147 68.1547C30.9741 67.9833 30.8925 67.8721 30.8925 67.8184C30.8925 67.7648 30.9789 67.6687 31.1517 67.4963C31.3246 67.324 31.4366 67.2345 31.4812 67.2345C31.5705 67.2345 31.7405 67.3664 31.9912 67.6301C32.2324 67.3664 32.391 67.2345 32.466 67.2345C32.5154 67.2345 32.6265 67.3202 32.7993 67.4916C32.9722 67.663 33.0614 67.772 33.0671 67.8184Z" fill="white"/>
<path d="M36.4752 64.6363C36.4706 65.0475 36.427 65.4574 36.3451 65.8606C36.2616 66.3171 36.1736 66.6191 36.0811 66.7666C36.0388 66.837 35.978 66.8946 35.9053 66.9334C35.8326 66.9722 35.7506 66.9907 35.668 66.987H33.2294V64.6325H34.518C34.4828 64.553 34.4564 64.4699 34.4392 64.3848C34.4255 64.3056 34.4255 64.2247 34.4392 64.1456C34.4671 63.9183 34.6124 63.7004 34.8751 63.492C35.0596 63.3358 35.2817 63.2297 35.5199 63.184C35.9282 63.1256 36.2328 63.449 36.4335 64.1541C36.4686 64.3123 36.4826 64.4744 36.4752 64.6363ZM35.4306 62.4334C35.4306 62.4886 35.3331 62.6142 35.1381 62.8101C34.9482 62.9985 34.8219 63.0927 34.763 63.0927C34.7042 63.0927 34.5855 62.9985 34.3832 62.8101C34.1809 62.6218 34.0983 62.4899 34.0983 62.4334C34.0983 62.3769 34.1933 62.2573 34.3832 62.0567C34.5731 61.8561 34.7032 61.7666 34.763 61.7666C34.8229 61.7666 34.9463 61.8608 35.1381 62.0567C35.33 62.2526 35.4316 62.3788 35.4316 62.4334H35.4306ZM35.8295 64.5119C35.8214 64.4151 35.7766 64.3249 35.7041 64.2595C35.6534 64.1952 35.5884 64.1434 35.5142 64.1079C35.4922 64.103 35.4694 64.1033 35.4476 64.1089C35.4258 64.1144 35.4057 64.1251 35.3889 64.1399C35.3675 64.1579 35.3505 64.1805 35.3394 64.206C35.3282 64.2314 35.323 64.2591 35.3243 64.2869C35.3265 64.3738 35.3603 64.457 35.4192 64.5214C35.4469 64.5684 35.4859 64.6078 35.5329 64.6359C35.5798 64.664 35.6332 64.68 35.688 64.6824C35.783 64.6824 35.8304 64.6259 35.8304 64.5119H35.8295Z" fill="white"/>
<path d="M42.8228 66.9909L42.2055 67.0003C42.1438 67.0003 42.0811 66.9513 42.0156 66.8534C41.95 66.7554 41.9111 66.7102 41.8769 66.7102C41.7959 66.7102 41.6845 66.9143 41.5426 67.3224C41.416 67.6815 41.1071 67.9955 40.6158 68.2642C40.1496 68.529 39.6222 68.6698 39.085 68.6729C38.5532 68.6729 38.1189 68.5244 37.7821 68.2274C37.3655 67.8658 37.1569 67.4335 37.1562 66.9306C37.1562 66.4647 37.3262 65.9863 37.6662 65.4953C37.9695 65.0696 38.1983 64.8567 38.3528 64.8567C38.3898 64.8567 38.4079 64.8888 38.4079 64.9509C38.4079 64.9698 38.4079 65.0084 38.3965 65.0686C38.3851 65.1289 38.3775 65.2071 38.3623 65.305C38.3471 65.403 38.3348 65.5009 38.3272 65.5876C38.3196 65.6742 38.3158 65.7543 38.3158 65.8249C38.3044 66.0908 38.3703 66.3543 38.5057 66.584C38.6452 66.7917 38.8524 66.9456 39.0926 67.0201C39.1463 67.039 39.2027 67.0491 39.2597 67.0502C39.3338 67.0502 39.4268 67.0577 39.538 67.0577C39.9767 67.0577 40.2103 67.005 40.2378 66.9014C40.2657 66.8122 40.0758 66.6895 39.6681 66.5331C39.2445 66.3674 39.0229 66.26 39.0033 66.2111C38.9603 66.1037 39.0438 65.8309 39.254 65.3926C39.4642 64.9544 39.6282 64.7092 39.7459 64.6571C39.8776 64.638 40.0109 64.6317 40.1438 64.6382H42.8199L42.8228 66.9909Z" fill="white"/>
<path d="M45.5956 64.7275C45.5915 64.9555 45.5651 65.1826 45.5168 65.4056C45.4537 65.702 45.3732 65.9944 45.2756 66.2815C45.0128 67.0669 44.7207 67.4594 44.3991 67.4587C44.2891 67.4592 44.1794 67.4469 44.0724 67.422C43.9699 67.3981 43.872 67.3577 43.7827 67.3024C43.7144 67.26 43.6488 67.2148 43.5852 67.1668C43.5216 67.1187 43.458 67.0726 43.3953 67.0264C43.3181 66.9939 43.2338 66.9812 43.1503 66.9897H42.2595V64.6352H42.8853C42.957 64.6007 43.0268 64.5624 43.0943 64.5203C43.1836 64.4633 43.2647 64.3946 43.3355 64.3159C43.453 64.1899 43.5631 64.0572 43.665 63.9185C43.8549 63.6557 44.0676 63.5173 44.2908 63.505C44.4076 63.4994 44.6137 63.6538 44.9071 63.9693C45.0894 64.1627 45.2363 64.3153 45.3477 64.4271C45.4186 64.5034 45.4962 64.5733 45.5795 64.6361C45.589 64.638 45.5956 64.6719 45.5956 64.7275ZM44.6308 64.8151C44.6308 64.7109 44.5358 64.6126 44.3459 64.5203L44.2908 64.5024C44.2728 64.4961 44.2539 64.4929 44.2348 64.493C44.2025 64.4911 44.1702 64.4968 44.1405 64.5096C44.1108 64.5223 44.0846 64.5418 44.0638 64.5664C44.0438 64.583 44.0273 64.6034 44.0152 64.6263C44.0031 64.6493 43.9958 64.6744 43.9936 64.7002C43.9932 64.7093 43.9946 64.7185 43.9979 64.7271C44.0012 64.7357 44.0061 64.7435 44.0126 64.7501L44.4617 64.9064C44.4794 64.9138 44.4986 64.917 44.5178 64.9159C44.5918 64.9159 44.6308 64.882 44.6308 64.8151Z" fill="white"/>
<path d="M48.9829 66.5399C48.9829 66.6624 48.8471 66.7681 48.5755 66.8573C48.238 66.9538 47.8877 66.9986 47.5366 66.9901C47.0389 66.9901 46.654 66.8997 46.3818 66.7189C46.1919 66.5895 46.0969 66.4639 46.0969 66.3421V64.824C46.0949 64.751 46.1215 64.6802 46.171 64.6262C46.1906 64.6005 46.2172 64.5808 46.2476 64.5695C46.278 64.5582 46.311 64.5556 46.3429 64.5621C46.4695 64.5835 46.6024 64.5995 46.7417 64.6102C46.8804 64.6215 47.0266 64.6262 47.1918 64.6262C47.5565 64.6262 47.7388 64.5851 47.7388 64.5028C47.7474 64.3305 47.6353 64.1656 47.3998 64.0055C47.1643 63.8454 47.0446 63.7418 47.0475 63.6929C47.0475 63.5987 47.1358 63.4659 47.3029 63.2888C47.4701 63.1118 47.6315 63.0204 47.7778 63.0166C47.924 63.0129 48.1842 63.2333 48.5147 63.6929C48.8274 64.1292 48.9835 64.4118 48.9829 64.5405V66.5399Z" fill="white"/>
<path d="M53.4111 66.9903H52.6647C52.6647 67.4299 52.4748 67.8254 52.0949 68.177C51.7296 68.5085 51.357 68.6724 50.9772 68.6686C50.7014 68.6636 50.4322 68.5841 50.1985 68.4388C49.9641 68.2803 49.7531 68.0901 49.5717 67.8738C49.4267 67.7042 49.3542 67.5815 49.3542 67.5055C49.3542 67.417 49.4359 67.3718 49.6002 67.3718C49.6637 67.3732 49.7271 67.3779 49.7901 67.3859C49.8737 67.3953 49.9212 67.4 49.9335 67.4C50.29 67.412 50.6698 67.2892 51.0731 67.0318C51.4966 66.7587 51.7363 66.4551 51.792 66.1211C51.7986 66.0872 51.6666 65.9101 51.3979 65.588C51.1291 65.2659 50.9943 65.0728 50.9943 65.0088C50.9943 64.9165 51.0949 64.7281 51.2963 64.4437C51.4976 64.1593 51.6321 64.0199 51.6999 64.0256C51.7426 64.0256 51.8186 64.0971 51.9268 64.2412C52.0117 64.3711 52.1258 64.4797 52.2601 64.5586C52.3217 64.5937 52.3894 64.617 52.4596 64.6274H53.4149L53.4111 66.9903Z" fill="white"/>
<path d="M56.1841 64.7284C56.18 64.9565 56.1536 65.1836 56.1053 65.4065C56.0426 65.703 55.9621 65.9955 55.8641 66.2824C55.602 67.0679 55.3098 67.4603 54.9876 67.4597C54.8776 67.4601 54.768 67.4478 54.6609 67.4229C54.5584 67.3991 54.4605 67.3587 54.3712 67.3033C54.3029 67.2612 54.2373 67.216 54.1747 67.1677L53.9847 67.0274C53.9072 66.9948 53.8226 66.9822 53.7388 66.9906H52.848V64.6361H53.4748C53.4805 64.6361 53.5498 64.5985 53.6828 64.5212C53.7723 64.4645 53.8535 64.3957 53.924 64.3169C54.0418 64.1908 54.1519 64.0578 54.2535 63.9185C54.4434 63.6557 54.6571 63.5173 54.8793 63.505C54.9971 63.4994 55.2022 63.6538 55.4966 63.9693C55.6789 64.1627 55.8255 64.3153 55.9362 64.4271C56.0074 64.5035 56.0852 64.5734 56.1689 64.6361C56.1784 64.639 56.1841 64.6729 56.1841 64.7284ZM55.2193 64.816C55.2193 64.7115 55.1243 64.6135 54.9344 64.5212L54.8783 64.5033C54.8607 64.497 54.842 64.4938 54.8233 64.4939C54.7908 64.492 54.7584 64.4976 54.7285 64.5104C54.6987 64.5232 54.6723 64.5427 54.6514 64.5674C54.6315 64.584 54.6151 64.6044 54.6032 64.6274C54.5913 64.6503 54.5841 64.6754 54.5821 64.7011C54.5815 64.7102 54.5829 64.7193 54.586 64.7279C54.5891 64.7365 54.5939 64.7443 54.6001 64.751L55.0502 64.9074C55.0676 64.9148 55.0865 64.918 55.1053 64.9168C55.1813 64.9168 55.2193 64.8829 55.2193 64.816Z" fill="white"/>
<path d="M59.1443 65.6142C59.1488 65.9092 59.0612 66.1983 58.8936 66.442C58.7336 66.6878 58.4877 66.8662 58.2032 66.9431C58.0799 66.9794 57.952 66.9981 57.8233 66.9987C57.5717 67.0051 57.3252 66.9275 57.1234 66.7783C57.027 66.7104 56.9464 66.6227 56.8873 66.5211C56.8281 66.4195 56.7917 66.3064 56.7806 66.1896C56.7567 65.9578 56.7917 65.7237 56.8822 65.5087C56.9971 65.2139 57.1671 65.0162 57.3969 64.9154L57.244 64.7176C57.2592 64.6852 57.2763 64.6537 57.2953 64.6234C57.3229 64.5782 57.3627 64.5151 57.4159 64.4351C57.4873 64.3153 57.5763 64.2067 57.6799 64.113C57.6965 64.1076 57.7138 64.1047 57.7312 64.1045C57.904 64.1045 58.1573 64.2269 58.4909 64.4718C58.8638 64.7481 59.0768 65.0378 59.13 65.3411C59.1367 65.3844 59.1414 65.4287 59.1443 65.4748C59.1471 65.521 59.1443 65.569 59.1443 65.6142ZM58.3285 65.4993C58.3285 65.4654 58.2573 65.3985 58.1054 65.2968C57.9534 65.1951 57.8661 65.1574 57.8319 65.1725C57.8014 65.1852 57.7737 65.2037 57.7504 65.2269C57.7271 65.2502 57.7087 65.2778 57.6962 65.3082C57.6836 65.3385 57.6773 65.371 57.6774 65.4038C57.6776 65.4366 57.6842 65.4691 57.697 65.4993C57.7284 65.5935 57.83 65.6425 58.0037 65.6425C58.1946 65.6434 58.3029 65.5954 58.3314 65.5002L58.3285 65.4993Z" fill="white"/>
<path d="M63.1326 66.314C63.1326 67.2684 62.7974 67.9078 62.1269 68.2324C61.9122 68.3386 61.6755 68.3934 61.4356 68.3925C61.0192 68.3883 60.6169 68.2424 60.296 67.9791C59.9795 67.7367 59.8212 67.5236 59.8212 67.3396C59.8208 67.3231 59.824 67.3067 59.8307 67.2916C59.8364 67.2775 59.843 67.2643 59.8487 67.252C59.8884 67.2082 59.937 67.1732 59.9914 67.1495C60.0458 67.1258 60.1046 67.1138 60.164 67.1145C60.2005 67.1148 60.237 67.117 60.2732 67.1211C60.327 67.1277 60.3803 67.1378 60.4328 67.1513C60.5291 67.1714 60.6269 67.1837 60.7253 67.188C60.7896 67.1879 60.8535 67.1787 60.9152 67.1607C61.1041 67.108 61.2873 67.037 61.4622 66.9488C61.6059 66.8769 61.7362 66.7813 61.8477 66.6662C62.0549 66.4677 62.1997 66.2138 62.2646 65.9354C62.2646 65.8892 62.126 65.715 61.8382 65.4108C61.5505 65.1066 61.4071 64.8957 61.4251 64.7855C61.4441 64.6994 61.5571 64.5277 61.7642 64.2703C61.9712 64.0129 62.1181 63.8703 62.2048 63.8427C62.3406 63.7975 62.5201 64.016 62.7423 64.502C62.8509 64.7272 62.9387 64.9617 63.0044 65.2027C63.0626 65.4185 63.1008 65.6392 63.1183 65.8619C63.124 65.9448 63.1288 66.0239 63.1316 66.0983C63.1345 66.1727 63.1326 66.2443 63.1326 66.314Z" fill="white"/>
<path d="M65.1685 63.3438C65.1701 63.3711 65.1635 63.3983 65.1495 63.422C65.0771 63.4955 64.9927 63.5563 64.8997 63.6018C64.9396 63.6565 64.9596 63.9538 64.9596 64.4937C64.9596 65.6867 64.8963 66.3305 64.7696 66.4254C64.7506 66.4404 64.706 66.479 64.6348 66.5403C64.5636 66.6015 64.4648 66.6891 64.3385 66.8021C64.2756 66.8616 64.2061 66.9141 64.1315 66.9584C64.0865 66.9875 64.0349 67.005 63.9814 67.0093C63.9406 66.6165 63.9074 66.2276 63.8789 65.8405C63.8504 65.4534 63.8248 65.0654 63.8001 64.6727C63.7944 64.5653 63.7782 64.4203 63.7516 64.2357C63.725 64.0511 63.6937 63.8279 63.6567 63.5642C63.6093 63.2836 63.5776 63.0006 63.5617 62.7166C63.5597 62.6762 63.5646 62.6358 63.5759 62.5969C63.5826 62.563 63.6339 62.5178 63.7317 62.4613C63.8295 62.4048 63.97 62.3332 64.1552 62.2475C64.5269 62.0761 64.7294 62.0071 64.763 62.0403C64.8029 62.0808 64.8817 62.2749 64.9994 62.6252C65.0555 62.7994 65.0944 62.9464 65.1267 63.0641C65.1513 63.1554 65.1653 63.2493 65.1685 63.3438Z" fill="white"/>
<path d="M69.4382 66.9903H68.8124C68.8497 67.1931 68.6889 67.4844 68.33 67.8643C67.9184 68.2994 67.4778 68.5169 67.0081 68.5169C66.7803 68.5171 66.5559 68.4618 66.3547 68.3559C66.1894 68.2628 66.0419 68.1417 65.9188 67.998C65.7574 67.8285 65.6776 67.6938 65.6776 67.593C65.6776 67.4922 65.7441 67.4621 65.877 67.4687C66.0435 67.4749 66.2101 67.4686 66.3756 67.4499C66.5318 67.4312 66.6862 67.3997 66.8371 67.3557C67.0359 67.3007 67.2273 67.2219 67.4069 67.1212C67.4793 67.086 67.5464 67.041 67.6063 66.9874C67.5636 66.994 67.5209 66.9987 67.4791 67.0016C67.4373 67.0044 67.3946 67.0016 67.3518 67.0016C67.0195 67.0139 66.6932 66.9114 66.4288 66.7115C66.2154 66.5432 66.1088 66.2688 66.1088 65.8884C66.1088 65.6121 66.1876 65.1767 66.3452 64.5821C66.6079 63.5775 66.9944 63.0752 67.5047 63.0752C67.5452 63.0753 67.5856 63.079 67.6253 63.0865C67.6677 63.0945 67.7094 63.1062 67.7497 63.1213C67.9169 63.1841 68.1242 63.423 68.3717 63.8381C68.6193 64.2531 68.7288 64.5168 68.7003 64.6292H69.4382V66.9903ZM67.8618 64.6725C67.895 64.6329 67.8618 64.5331 67.7459 64.3739C67.6301 64.2148 67.5247 64.1253 67.4164 64.1253C67.3882 64.1272 67.3608 64.1352 67.336 64.1487C67.3113 64.1622 67.2898 64.1809 67.273 64.2035C67.2339 64.2449 67.2107 64.2985 67.2075 64.3551C67.2075 64.4493 67.2692 64.5303 67.3974 64.6037C67.5015 64.6695 67.6216 64.7059 67.745 64.7092C67.8058 64.7092 67.8456 64.697 67.8618 64.6725Z" fill="white"/>
<path d="M72.6006 66.9899H71.6034C71.4311 66.9845 71.2649 66.9252 71.1286 66.8204C71.0484 66.7684 70.9764 66.7049 70.9149 66.6321C70.8556 66.5581 70.8058 66.4772 70.7668 66.391C70.7124 66.5667 70.5996 66.7191 70.4468 66.8232C70.321 66.9234 70.1671 66.9826 70.0061 66.9928H68.8666V64.6383H70.0061C70.1671 64.6281 70.321 64.5689 70.4468 64.4688C70.5996 64.3646 70.7124 64.2122 70.7668 64.0365C70.8058 64.1227 70.8556 64.2037 70.9149 64.2776C70.9764 64.3504 71.0484 64.4139 71.1286 64.4659C71.2649 64.5707 71.4311 64.63 71.6034 64.6354H72.6006V66.9899ZM71.3109 63.0909C71.3109 63.1455 71.2138 63.2695 71.0194 63.4629C70.825 63.6563 70.7013 63.7505 70.6481 63.7454C70.5848 63.7454 70.4598 63.6513 70.273 63.4629C70.0862 63.2745 69.9887 63.1505 69.9805 63.0909C69.9805 63.0356 70.078 62.9101 70.273 62.7142C70.4629 62.5258 70.5892 62.4316 70.6481 62.4316C70.707 62.4316 70.8276 62.5258 71.0194 62.7142C71.2112 62.9025 71.3109 63.0353 71.3109 63.0909Z" fill="white"/>
<path d="M76.551 66.9902H75.8863C75.8069 66.9841 75.7311 66.9553 75.6679 66.9073C75.6072 66.8597 75.5359 66.8274 75.4599 66.8131C75.3641 66.8112 75.2705 66.8421 75.195 66.9007C75.1181 66.9535 75.0288 66.9859 74.9357 66.9949C74.8495 66.9882 74.7664 66.9597 74.6945 66.912C74.6204 66.8611 74.5337 66.8311 74.4438 66.8253C74.3596 66.8308 74.279 66.861 74.2121 66.912C74.1391 66.961 74.0541 66.9896 73.9661 66.9949C73.8821 66.9879 73.8018 66.9575 73.7344 66.9073C73.6698 66.848 73.585 66.815 73.497 66.815C73.409 66.815 73.3242 66.848 73.2596 66.9073C73.1894 66.959 73.1056 66.9894 73.0184 66.9949H72.0308V64.6404H72.9681C73.0325 64.6078 73.0917 64.5659 73.1437 64.5161C73.2206 64.4496 73.3159 64.4079 73.4172 64.3964C73.5064 64.4068 73.5879 64.4514 73.6442 64.5208C73.6697 64.556 73.7022 64.5857 73.7398 64.6079C73.7774 64.6301 73.8192 64.6444 73.8626 64.6498C73.912 64.6431 73.9593 64.6257 74.001 64.5986C74.0427 64.5716 74.0779 64.5356 74.1038 64.4934C74.1622 64.41 74.2472 64.3483 74.345 64.3183C74.44 64.306 74.5473 64.355 74.6736 64.4661C74.7576 64.555 74.8714 64.6106 74.9936 64.6225C75.0789 64.6047 75.1557 64.5593 75.2121 64.4934C75.2404 64.4604 75.275 64.4332 75.314 64.4135C75.3529 64.3938 75.3954 64.3819 75.439 64.3785C75.4827 64.3831 75.5248 64.397 75.5625 64.4192C75.6003 64.4415 75.6326 64.4717 75.6574 64.5076C75.6805 64.5432 75.7109 64.5735 75.7468 64.5964C75.7827 64.6194 75.8232 64.6343 75.8654 64.6404H76.5473L76.551 66.9902ZM73.9035 62.9301C73.9035 62.963 73.8351 63.0506 73.6993 63.1919C73.5635 63.3332 73.4771 63.3944 73.44 63.3944C73.403 63.3944 73.308 63.3266 73.1665 63.1919C73.025 63.0572 72.9624 62.963 72.9624 62.9301C72.9624 62.8971 73.0298 62.7982 73.1665 62.6626C73.3033 62.527 73.3992 62.461 73.44 62.461C73.4809 62.461 73.5635 62.5279 73.6993 62.6626C73.8351 62.7973 73.9035 62.883 73.9035 62.9301ZM74.4827 62.3273C74.4827 62.3612 74.4153 62.4488 74.2795 62.5891C74.1437 62.7295 74.0535 62.7888 74.0193 62.7888C73.9851 62.7888 73.8883 62.7219 73.7458 62.5863C73.6034 62.4507 73.5416 62.3584 73.5416 62.3245C73.5416 62.2906 73.61 62.1926 73.7458 62.058C73.8816 61.9233 73.9794 61.8555 74.0193 61.8555C74.0592 61.8555 74.1428 61.9233 74.2795 62.058C74.4163 62.1926 74.4827 62.284 74.4827 62.3273ZM75.081 62.9301C75.081 62.963 75.0136 63.0506 74.8768 63.1919C74.7401 63.3332 74.6546 63.3944 74.6176 63.3944C74.5805 63.3944 74.4865 63.3266 74.3441 63.1919C74.2016 63.0572 74.1399 62.963 74.1399 62.9301C74.1399 62.8971 74.2083 62.7982 74.3441 62.6626C74.4799 62.527 74.5777 62.461 74.6176 62.461C74.6575 62.461 74.741 62.5279 74.8768 62.6626C75.0126 62.7973 75.081 62.883 75.081 62.9301Z" fill="white"/>
<path d="M80.8261 64.9553L80.1908 66.6383C80.1763 66.6713 80.1584 66.7028 80.1376 66.7324C80.109 66.7683 80.0754 66.8 80.0379 66.8266C79.9293 66.9268 79.7874 66.9841 79.6391 66.9877H75.9849V64.6332H78.4539C78.126 64.3638 77.8509 64.2382 77.6287 64.2564C77.5191 64.2732 77.4146 64.3141 77.3229 64.376C77.2456 64.4276 77.1588 64.4634 77.0675 64.4815C76.9411 64.4815 76.8775 64.3873 76.8775 64.1915C76.8855 63.9445 76.9787 63.7078 77.1415 63.5209C77.2408 63.3916 77.3708 63.2886 77.5199 63.221C77.669 63.1535 77.8326 63.1235 77.9962 63.1338C78.2902 63.1591 78.5688 63.275 78.7929 63.4653C78.8734 63.5281 78.9655 63.61 79.0693 63.7111C79.1728 63.811 79.2858 63.9296 79.4102 64.0681C79.5185 64.1937 79.6087 64.2932 79.6809 64.3666C79.7301 64.4203 79.7855 64.4681 79.8461 64.5088C80.0268 64.6048 80.2301 64.651 80.4349 64.6426C80.6637 64.6482 80.7929 64.6642 80.8242 64.6887C80.8755 64.7377 80.8755 64.8262 80.8261 64.9553ZM78.9477 68.1282C78.9477 68.1834 78.8506 68.309 78.6562 68.5049C78.4577 68.6933 78.3333 68.7874 78.2763 68.7874C78.2194 68.7874 78.0988 68.6933 77.8965 68.5049C77.6942 68.3165 77.6116 68.1837 77.6116 68.1282C77.6116 68.0726 77.7066 67.9521 77.8965 67.7515C78.0864 67.5509 78.2165 67.4614 78.2763 67.4614C78.3362 67.4614 78.4577 67.5556 78.6562 67.7515C78.8547 67.9474 78.9477 68.0764 78.9477 68.131V68.1282Z" fill="white"/>
</svg>
