<svg width="44" height="44" viewBox="0 0 44 44" fill="none" xmlns="http://www.w3.org/2000/svg">
<path d="M38 14V8C38 6.89543 37.1046 6 36 6H8C6.89543 6 6 6.89543 6 8V14M38 30V36C38 37.1046 37.1046 38 36 38H8C6.89543 38 6 37.1046 6 36V30" stroke="white" stroke-width="2" stroke-linecap="round"/>
<path d="M22 14L22 30" stroke="#26FF7B" stroke-width="2" stroke-linecap="round"/>
<path d="M18 19L18 25" stroke="#26FF7B" stroke-width="2" stroke-linecap="round"/>
<path d="M26 18L26 26" stroke="#26FF7B" stroke-width="2" stroke-linecap="round"/>
<path d="M30 21L30 23" stroke="#26FF7B" stroke-width="2" stroke-linecap="round"/>
<path d="M34 19L34 25" stroke="#26FF7B" stroke-width="2" stroke-linecap="round"/>
<path d="M10 19L10 25" stroke="#26FF7B" stroke-width="2" stroke-linecap="round"/>
<path d="M38 21L38 23" stroke="#26FF7B" stroke-width="2" stroke-linecap="round"/>
<path d="M6 21L6 23" stroke="#26FF7B" stroke-width="2" stroke-linecap="round"/>
<path d="M42 21.5L42 22.5" stroke="#26FF7B" stroke-width="2" stroke-linecap="round"/>
<path d="M2 21.5L2 22.5" stroke="#26FF7B" stroke-width="2" stroke-linecap="round"/>
<path d="M14 21L14 23" stroke="#26FF7B" stroke-width="2" stroke-linecap="round"/>
</svg>
