<svg width="92" height="92" viewBox="0 0 92 92" fill="none" xmlns="http://www.w3.org/2000/svg">
<path d="M91 1H1V91H91V1Z" stroke="#55A2E7" stroke-opacity="0.595597"/>
<path d="M42.5723 35.9418L37.7758 41.4939V35.9899L30.5621 44.6083L34.2521 43.4066C34.4218 45.4465 34.5858 47.4325 34.7566 49.4839C34.9332 49.3692 35.0742 49.2901 35.2027 49.1938C37.6107 47.4039 40.0187 45.6173 42.4129 43.8125C42.7431 43.5637 42.9862 43.5155 43.3773 43.7196C45.15 44.6541 47.0271 45.0348 49.0303 44.7023C50.6357 44.4351 51.9486 43.5866 52.9393 42.3757C54.2545 40.7641 55.4832 39.0838 56.6201 37.3419C56.7428 37.1549 56.8678 36.968 57.0593 36.6779C57.3863 37.8504 57.5272 39.0669 57.4767 40.2831C57.229 46.9865 52.9359 52.3047 46.4583 53.9811C39.2263 55.8387 31.429 51.4195 29.3099 44.2494C26.9421 36.2571 31.4152 28.2052 39.4946 26.0908C43.7373 24.9808 48.2208 25.9405 51.8557 28.407C51.8557 28.407 51.7605 28.8152 51.6505 29.2097C51.5278 29.6523 50.2848 34.1621 49.0361 36.5667C48.7858 37.0682 48.478 37.5389 48.1187 37.9691C47.7604 38.3752 47.2604 38.6289 46.721 38.6784C46.1817 38.7279 45.6439 38.5693 45.2177 38.2351C44.3668 37.5746 43.5917 36.8155 42.7798 36.1023C42.7282 36.0519 42.6663 36.0117 42.5723 35.9418Z" fill="white"/>
<path d="M61.7263 26.5763C60.2654 26.5327 58.9743 26.7907 57.7485 27.4351C55.5698 28.5818 54.1422 30.4291 53.0655 32.5516C52.3523 33.9585 51.8959 35.4951 51.1919 36.9089C50.7057 37.887 50.1048 38.8582 49.3572 39.6471C47.9491 41.1447 46.3403 41.2192 44.688 40.0072C44.016 39.5141 43.4014 38.9396 42.7157 38.364L36.8069 44.0331C36.8069 43.0585 36.7702 38.8731 36.7702 38.8731L31.8522 43.8038L37.1624 37.5843C37.1624 37.5843 37.1211 41.5116 37.1211 43.2454C37.1658 43.2603 40.9051 39.216 42.8166 37.16C43.0585 37.4501 43.2546 37.7563 43.5184 37.9856C44.1066 38.4959 44.6857 39.0394 45.3473 39.4396C46.3288 40.0324 47.3241 39.8914 48.2369 39.1999C49.0889 38.5544 49.6129 37.6795 49.9856 36.6991C50.7882 34.5961 51.5049 32.4564 52.4165 30.4027C53.5746 27.7906 55.5572 25.9387 58.3081 25.0856C59.2655 24.7863 60.3503 24.627 61.7263 24.627V26.5763Z" fill="white"/>
<path d="M36.1785 40.2864L36.2783 45.482L42.6996 39.5675C43.3876 40.0697 43.9942 40.5995 44.6776 40.9974C46.666 42.1555 48.3699 41.8792 49.9202 40.1741C51.2366 38.7258 52.022 36.9542 52.8465 35.2113C53.6709 33.4684 54.516 31.7782 55.8531 30.3724C57.4756 28.6753 59.2036 27.9517 61.7263 28.0664V29.9011C59.2036 29.7864 57.8012 30.5891 56.6156 31.8206C55.2224 33.2688 54.2271 34.9785 53.2776 36.7295C52.6412 37.9014 51.9487 39.0457 51.2136 40.1534C50.8811 40.6511 50.411 41.0788 49.9363 41.456C48.2163 42.8206 46.2956 42.8894 44.4059 41.6739C43.8624 41.3299 43.3624 40.9056 42.7799 40.4722L36.026 46.3615L35.8311 41.1384L31.8522 43.8124L36.1785 40.2864Z" fill="white"/>
<path d="M61.7262 31.7365V33.5712C61.7262 33.5712 60.7986 33.5391 60.3342 33.6113C58.9356 33.8194 57.671 34.5587 56.8036 35.6753C55.9504 36.7475 55.2372 37.9308 54.4139 39.0293C53.5585 40.176 52.7593 41.3903 51.7342 42.3661C49.3434 44.6423 46.2302 44.4416 43.4587 42.8546C42.9312 42.553 42.6331 42.5771 42.1778 42.9337C40.029 44.6159 37.8503 46.2614 35.6797 47.9194C35.6051 47.9768 35.5214 48.0215 35.3357 48.1396C35.1591 46.2315 34.8529 42.8145 34.8529 42.8145L31.851 43.8075L35.213 42.2274L35.5191 47.4711C36.1395 46.9861 36.6658 46.5836 37.1761 46.1731C38.9091 44.7925 40.6386 43.4085 42.3647 42.021C42.6399 41.7985 42.8337 41.7412 43.1525 41.9763C46.2485 44.2696 49.6197 43.4669 51.8282 40.6232C52.9083 39.2277 53.711 37.6201 54.6948 36.1443C55.3679 35.1307 56.0594 34.1136 56.8735 33.2123C58.1337 31.803 59.8915 31.6219 61.7262 31.7365Z" fill="white"/>
<path d="M29.2604 64.2814C29.1803 64.3703 29.0844 64.4434 28.9776 64.4972C28.8661 64.5361 28.7482 64.5537 28.6301 64.549C28.5553 64.5498 28.4813 64.5328 28.4143 64.4994C28.3683 64.4776 28.3197 64.4616 28.2697 64.4519C28.1425 64.4661 28.0173 64.4943 27.8963 64.5361C27.6728 64.6159 27.4562 64.7141 27.2488 64.8296C27.0092 64.9425 26.8108 65.1274 26.6812 65.3584C26.661 65.3832 26.6355 65.4032 26.6065 65.417C26.5776 65.4307 26.546 65.4378 26.5139 65.4378C26.4819 65.4378 26.4503 65.4307 26.4214 65.417C26.3924 65.4032 26.3669 65.3832 26.3467 65.3584C26.469 65.1594 26.6069 64.9703 26.7589 64.7929C26.9406 64.5674 27.1596 64.3746 27.4064 64.2231C27.5536 64.1479 27.6883 64.0503 27.8057 63.9339C27.7797 63.8565 27.7487 63.7807 27.7129 63.7073C27.6675 63.6102 27.5553 63.5627 27.374 63.5627C27.2683 63.5627 27.2143 63.5627 27.21 63.526C27.2057 63.4893 27.21 63.4613 27.2596 63.4116C27.3567 63.2842 27.4733 63.1727 27.605 63.0814C27.7761 62.9507 27.9795 62.8689 28.1934 62.8445C28.4074 62.8202 28.624 62.8543 28.8201 62.9433C28.8911 62.9676 28.9531 63.0131 28.9975 63.0737C29.0418 63.1343 29.0666 63.207 29.0683 63.2821C29.0684 63.4058 29.024 63.5253 28.9431 63.6188C28.9172 63.6577 28.8913 63.6922 28.8675 63.7224C28.843 63.7522 28.8199 63.7831 28.7985 63.8152C28.7985 63.8778 28.8373 63.8994 28.9172 63.8778C29.0403 63.8587 29.1584 63.8155 29.2647 63.7505C29.2906 63.8174 29.3078 63.8584 29.3165 63.8757C29.3337 63.9181 29.3425 63.9636 29.3424 64.0095C29.3426 64.0523 29.3345 64.0948 29.3186 64.1347C29.3186 64.1066 29.3035 64.1541 29.2604 64.2814Z" fill="white"/>
<path d="M28.0665 67.0797C28.237 66.7559 28.3428 66.5919 28.3795 66.5919C28.4507 66.5617 28.5565 66.6135 28.6946 66.7451C28.8093 66.852 28.914 66.969 29.0075 67.0948L29.2881 66.6264C29.3896 66.4516 29.4586 66.3653 29.491 66.3653C29.6419 66.3895 29.7774 66.4716 29.8687 66.5941C29.9943 66.7064 30.0768 66.8591 30.1018 67.0257C30.0838 67.2345 30.0034 67.4331 29.8708 67.5955C29.7198 67.8113 29.6097 67.9193 29.5363 67.9193C29.4629 67.9193 29.4068 67.8588 29.2838 67.7358C29.1829 67.6338 29.0747 67.5393 28.9601 67.4531C28.7334 67.9149 28.5543 68.1437 28.4183 68.1459C28.3629 68.1339 28.3124 68.1053 28.2737 68.0639L27.9975 67.8372C27.8723 67.7365 27.8097 67.6739 27.8097 67.6495C27.8701 67.4492 27.9564 67.2576 28.0665 67.0797ZM30.0349 63.5876C30.009 63.5323 29.9748 63.4814 29.9334 63.4365C29.9009 63.4081 29.8614 63.3887 29.8191 63.3804C29.78 63.3695 29.7404 63.3608 29.7003 63.3545L29.6356 63.4192C29.5773 63.4775 29.5234 63.5315 29.4737 63.5768C29.4078 63.6396 29.3354 63.6952 29.2579 63.743C29.2142 63.8243 29.194 63.9163 29.1996 64.0085C29.2073 64.0993 29.2277 64.1887 29.2601 64.2739L29.7155 63.8725C29.8094 63.7709 29.9364 63.7059 30.0737 63.689L30.0349 63.5876Z" fill="white"/>
<path d="M31.7099 63.3723C31.5892 63.3813 31.4685 63.3551 31.3624 63.2967C31.2734 63.2368 31.1995 63.157 31.1466 63.0636C31.1293 63.0636 31.0883 63.1197 31.0214 63.2298C30.9545 63.3399 30.8941 63.4284 30.8185 63.5341C30.7511 63.6563 30.6389 63.7476 30.5056 63.7888C30.4588 63.8014 30.409 63.7968 30.3653 63.7759C30.2689 63.7411 30.169 63.7165 30.0675 63.7025L29.7006 63.3723L30.0459 62.9989C30.1214 62.9125 30.1883 62.878 30.2466 62.8888C30.4033 62.9486 30.5642 62.997 30.7279 63.0334C30.7797 63.0334 30.879 62.9125 31.0236 62.6708C31.1682 62.4291 31.2739 62.3039 31.3452 62.3018L31.4682 62.3492C31.5432 62.3807 31.6244 62.3947 31.7056 62.3902C31.7186 62.4615 31.7337 62.5651 31.7509 62.6989C31.7682 62.8327 31.779 62.932 31.779 62.9449C31.7782 63.0304 31.7695 63.1157 31.7531 63.1996C31.7434 63.2582 31.7289 63.316 31.7099 63.3723ZM31.0991 66.7823C31.1032 66.8106 31.1142 66.8374 31.1311 66.8604C31.1481 66.8834 31.1704 66.9018 31.1962 66.914C31.2675 66.9658 31.3775 67.0392 31.5286 67.1298C31.6797 67.2205 31.766 67.2831 31.7919 67.296C31.8588 67.296 31.9668 67.1687 32.1135 66.914C32.2304 66.7395 32.3044 66.5398 32.3293 66.3313C32.2757 66.1671 32.1761 66.0218 32.0423 65.9126C31.8653 65.7356 31.7293 65.6644 31.6365 65.6967C31.5919 65.6967 31.4905 65.8521 31.3322 66.1629C31.2195 66.3522 31.1407 66.5596 31.0991 66.7759V66.7823Z" fill="white"/>
<path d="M33.9134 61.1917C33.9003 61.3665 33.8519 61.5369 33.771 61.6924C33.6643 61.9176 33.5402 62.1341 33.3998 62.3399C33.2237 62.6156 33.0052 62.8618 32.7523 63.0694C32.491 63.2675 32.1716 63.3738 31.8437 63.3715H31.7098V62.3852C31.7487 62.3852 31.8199 62.3097 31.9257 62.1694C32.0576 61.9326 32.1688 61.685 32.258 61.4291C32.2904 61.3239 32.315 61.2164 32.3314 61.1075C32.3616 60.9413 32.3897 60.7277 32.4178 60.46C32.4307 60.3161 32.4415 60.1974 32.4501 60.1039C32.4501 60.0154 32.4674 59.9528 32.4717 59.914C32.5366 59.607 32.6351 59.3081 32.7652 59.0226L32.9962 58.5521C33.035 58.4809 33.0717 58.4679 33.1106 58.5154C33.1251 58.5351 33.1341 58.5583 33.1363 58.5827C33.1386 58.607 33.1342 58.6315 33.1235 58.6535L33.0501 59.0075L32.953 59.8708C32.858 60.3521 32.7976 60.6413 32.7739 60.7341C32.7501 60.8269 32.7264 60.8917 32.707 60.9672L32.6552 61.183L32.9573 60.9348C33.0826 60.813 33.2453 60.737 33.4192 60.719C33.5468 60.7147 33.6711 60.7595 33.7667 60.8442C33.8149 60.888 33.853 60.9418 33.8783 61.0018C33.9037 61.0618 33.9157 61.1266 33.9134 61.1917ZM33.4602 61.6622C33.3279 61.5603 33.1653 61.5056 32.9983 61.5068C32.8326 61.5225 32.6787 61.5995 32.5667 61.7226C32.3811 61.9273 32.2089 62.1435 32.0508 62.3701C32.2618 62.3727 32.4716 62.3376 32.6703 62.2665C32.8596 62.1972 33.0366 62.0981 33.1947 61.973C33.3717 61.8348 33.4602 61.7334 33.4602 61.6622Z" fill="white"/>
<path d="M38.2367 63.7152C38.359 63.744 38.3784 63.8282 38.2949 63.9678C38.1819 64.1317 38.0443 64.2773 37.887 64.3994C37.7316 64.5217 37.559 64.6491 37.369 64.7814C37.2482 64.8699 37.1381 64.9541 37.0431 65.034C36.5234 65.4754 36.0641 65.9834 35.6769 66.5448C35.326 67.0081 35.1216 67.5658 35.0899 68.1462C35.0834 68.3481 35.1206 68.549 35.1988 68.7352C35.277 68.9214 35.3945 69.0886 35.5431 69.2253C35.8464 69.4991 36.2441 69.6446 36.6525 69.6311C37.9 69.6311 39.0604 69.034 40.1338 67.8397C40.1726 67.7879 40.2093 67.762 40.2482 67.762C40.287 67.762 40.2978 67.7858 40.3 67.8311C40.2993 67.859 40.2902 67.886 40.2741 67.9088C38.9388 69.9232 37.5942 70.9368 36.2403 70.9498C35.9887 70.9665 35.7367 70.925 35.5039 70.8284C35.2711 70.7318 35.0636 70.5828 34.8978 70.393C34.6117 70.0162 34.4667 69.5512 34.4877 69.0786C34.514 68.2371 34.7635 67.4177 35.2108 66.7045C35.5139 66.1851 35.8856 65.7089 36.3158 65.2886C36.3834 65.2224 36.4978 65.1167 36.659 64.9714C36.8208 64.8268 36.9568 64.7145 37.0647 64.6325C37.1726 64.5505 37.2676 64.4728 37.3431 64.4059C37.4187 64.339 37.4748 64.2958 37.4748 64.2786C37.541 64.1347 37.0942 64.0922 36.1345 64.1512C36.0546 64.1642 36.0352 64.1275 36.0762 64.039C36.1239 63.9422 36.1787 63.8491 36.2403 63.7606C36.3128 63.6521 36.3921 63.5483 36.4777 63.4498C36.5642 63.3462 36.6572 63.2482 36.7561 63.1562C36.8403 63.2491 36.8403 63.3721 36.7561 63.5491L36.6417 63.6764C37.1731 63.629 37.7082 63.642 38.2367 63.7152Z" fill="white"/>
<path d="M39.8186 61.1215C39.8661 61.1215 39.8834 61.1431 39.8704 61.1841C39.7234 61.4607 39.5553 61.7255 39.3676 61.9762C39.302 62.058 39.2205 62.1255 39.128 62.1748C39.0913 62.205 38.7568 62.3712 38.1244 62.6776C37.6269 62.8972 37.1661 63.192 36.7582 63.5517C36.7323 63.5057 36.7154 63.4552 36.7086 63.4028C36.7001 63.3186 36.7167 63.2338 36.756 63.1589C36.8855 63.0323 37.0604 62.8791 37.2805 62.6992C37.4963 62.5179 37.7467 62.3345 38.0186 62.1489C38.2906 61.9633 38.5733 61.7798 38.869 61.6028C39.1482 61.4373 39.4364 61.2874 39.7323 61.1539L39.8186 61.1215ZM38.0791 57.9618C38.1221 57.7487 38.2009 57.5443 38.3122 57.3575C38.469 57.0467 38.5704 56.8913 38.6165 56.8913C38.7093 56.8524 38.8453 56.9215 39.0222 57.1071C39.1565 57.2159 39.2562 57.3614 39.3093 57.5258C39.2857 57.7347 39.2116 57.9347 39.0935 58.1086C38.9467 58.3632 38.8388 58.4884 38.7719 58.4906C38.746 58.4776 38.6596 58.4215 38.5086 58.3244C38.3575 58.2273 38.2474 58.1517 38.1762 58.1086C38.1482 58.0952 38.1243 58.0745 38.1072 58.0487C38.0901 58.0228 38.0804 57.9928 38.0791 57.9618Z" fill="white"/>
<path d="M40.1748 62.5869C40.1748 62.8912 40.1619 63.1653 40.1575 63.4092C40.1579 63.6161 40.1464 63.8229 40.123 64.0286C40.0981 64.3577 40.0299 64.6821 39.9201 64.9933C39.8542 65.1874 39.7712 65.3752 39.6719 65.5545C39.6277 65.6254 39.5787 65.6932 39.5252 65.7574C39.4777 65.8005 39.4432 65.8135 39.4173 65.7984C39.4048 65.7919 39.3953 65.781 39.3905 65.7678C39.3857 65.7546 39.386 65.7401 39.3914 65.7272C39.3914 65.7272 39.4151 65.5912 39.4647 65.343C39.5127 65.1067 39.5437 64.8672 39.5575 64.6264C39.5575 64.3933 39.5575 64.0653 39.5575 63.6423C39.5436 63.3183 39.5522 62.9938 39.5834 62.671C39.602 62.5347 39.6301 62.3998 39.6676 62.2674C39.7065 62.1271 39.7518 61.989 39.8014 61.8552C39.8511 61.7214 39.905 61.5919 39.9611 61.471L40.1144 61.1516C40.1511 61.0933 40.1856 61.0696 40.2158 61.0825C40.2294 61.0875 40.2407 61.0972 40.2475 61.11C40.2542 61.1228 40.256 61.1376 40.2525 61.1516C40.2396 61.2302 40.2309 61.3095 40.2266 61.389C40.2266 61.512 40.2072 61.6523 40.2007 61.8056C40.1942 61.9588 40.1856 62.1099 40.1791 62.2588C40.1727 62.4077 40.1727 62.5092 40.1748 62.5869Z" fill="white"/>
<path d="M42.182 66.2575C42.0797 66.5734 41.9436 66.8773 41.7763 67.164C41.6994 67.3004 41.5994 67.4224 41.4806 67.5244C41.379 67.5859 41.2712 67.6366 41.159 67.6755C41.0144 67.7273 40.7964 67.8028 40.5115 67.8913C40.3421 67.9549 40.1673 68.0033 39.9892 68.0359C39.9568 68.0359 39.9396 68.0359 39.9396 68.01C39.905 67.9647 40.0799 67.8115 40.4619 67.5525C40.8439 67.2935 41.0921 67.1208 41.2022 67.0431C41.3326 66.9433 41.4475 66.8248 41.5432 66.6913C41.6583 66.534 41.7439 66.357 41.7957 66.169C41.7338 66.1606 41.6709 66.1727 41.6166 66.2036C41.5617 66.234 41.5002 66.2503 41.4374 66.251C41.2923 66.2535 41.1517 66.2002 41.0446 66.1021C40.9967 66.0643 40.9591 66.015 40.9354 65.9588C40.9116 65.9026 40.9024 65.8413 40.9086 65.7805C40.9259 65.7093 40.9497 65.6251 40.982 65.5302C41.0375 65.375 41.1031 65.2236 41.1784 65.0769C41.2623 64.8959 41.3643 64.7238 41.4827 64.5633C41.5145 64.5079 41.5588 64.4608 41.612 64.4256C41.6652 64.3904 41.7259 64.368 41.7892 64.3604C41.8732 64.3594 41.9561 64.3784 42.0312 64.4159C42.1063 64.4535 42.1713 64.5084 42.2209 64.5762C42.339 64.7275 42.4008 64.9153 42.3957 65.1072C42.3975 65.2118 42.3918 65.3163 42.3784 65.4201C42.3784 65.5237 42.3525 65.61 42.3396 65.6791C42.3266 65.7482 42.3029 65.8388 42.277 65.9446C42.2519 66.0508 42.2201 66.1553 42.182 66.2575Z" fill="white"/>
<path d="M42.0156 65.6115C42.0125 65.5242 42.0227 65.4368 42.0458 65.3525C42.0609 65.2727 42.13 65.2036 42.2617 65.1367C42.3382 65.1053 42.4107 65.0647 42.4775 65.0159C42.5206 64.99 42.6048 64.9317 42.73 64.8367C42.8838 64.7325 43.0056 64.5875 43.0818 64.418C43.1206 64.3166 43.1595 64.2583 43.2027 64.241C43.2381 64.2481 43.2723 64.2605 43.3041 64.2777C43.327 64.2979 43.3549 64.3115 43.3849 64.3172C43.4149 64.3229 43.4459 64.3205 43.4746 64.3101C43.5316 64.2937 43.5848 64.2662 43.6311 64.2292C43.6774 64.1921 43.7159 64.1463 43.7444 64.0943C43.8181 63.9676 43.8788 63.8338 43.9257 63.695C43.9257 63.695 43.9689 63.7079 44.0401 63.7576C44.0645 63.771 44.0927 63.7757 44.1201 63.771C44.1476 63.7663 44.1726 63.7525 44.1912 63.7317C44.2245 63.6966 44.2521 63.6565 44.2732 63.613C44.2732 63.5957 44.3163 63.5051 44.3746 63.3389C44.4329 63.1727 44.4631 63.123 44.5192 63.123C44.5753 63.123 44.5689 63.1684 44.5689 63.2569C44.5673 63.4825 44.5234 63.7058 44.4394 63.9151C44.3715 64.1029 44.2738 64.2785 44.1501 64.4353C44.0637 64.5345 43.9642 64.6216 43.8545 64.6943C43.7965 64.7252 43.7434 64.7645 43.6969 64.8108C43.6052 64.9373 43.4928 65.0475 43.3645 65.1367C43.2549 65.2135 43.133 65.2712 43.0041 65.3072C42.8798 65.4357 42.7424 65.5507 42.594 65.6504C42.4756 65.7428 42.3517 65.8279 42.2228 65.9051C42.1589 65.9351 42.0994 65.9735 42.0458 66.0195C41.9746 66.0691 41.9379 66.1144 41.9336 66.1511L42.0156 65.6115Z" fill="white"/>
<path d="M47.1569 65.8991C47.1541 66.1057 47.1244 66.311 47.0684 66.5099C47.0135 66.7218 46.9345 66.9267 46.8332 67.1207C46.7159 67.3668 46.5591 67.5921 46.3691 67.7876C46.2272 67.9318 46.034 68.014 45.8317 68.0164C45.5209 68.0164 45.3634 67.8286 45.3612 67.4509C45.3631 67.3091 45.3842 67.1683 45.4238 67.0322C45.4761 66.8819 45.5433 66.7373 45.6245 66.6005C45.7022 66.4653 45.7691 66.3509 45.8252 66.2574L45.7238 66.225H45.6914C45.6993 66.1289 45.7272 66.0355 45.7734 65.9509L46.2159 64.9322C46.259 64.8264 46.3065 64.7725 46.3605 64.7725C46.4306 64.782 46.4973 64.8087 46.5547 64.8502C46.6411 64.9041 46.7144 64.9516 46.7706 64.9926C46.8917 65.094 46.9921 65.2179 47.0662 65.3574C47.1345 65.5295 47.1654 65.7141 47.1569 65.8991ZM46.5483 66.9005C46.5501 66.8449 46.5397 66.7896 46.5177 66.7384C46.4957 66.6873 46.4626 66.6417 46.4209 66.6048C46.3659 66.5527 46.3051 66.5071 46.2396 66.4689C46.1811 66.4296 46.1161 66.4011 46.0475 66.3847C46.0087 66.3847 45.9418 66.4581 45.849 66.6005C45.7674 66.709 45.7187 66.8386 45.7087 66.9739C45.7087 67.1638 45.8231 67.2588 46.0497 67.2566C46.1669 67.2517 46.2802 67.2127 46.3756 67.1444C46.4229 67.122 46.4637 67.0878 46.4939 67.0451C46.5242 67.0024 46.5429 66.9526 46.5483 66.9005Z" fill="white"/>
<path d="M48.8533 67.5609C48.7872 67.6478 48.7111 67.7268 48.6267 67.7961C48.5469 67.8522 48.4616 67.8999 48.3721 67.9386C48.2799 67.9771 48.1846 68.0075 48.0872 68.0292L47.7807 68.1026L47.3641 68.2062C47.2631 68.2357 47.1565 68.2402 47.0533 68.2192C47.0533 68.1609 47.1224 68.0875 47.2692 68.0033L47.6533 67.7594C47.7828 67.6753 47.9123 67.5954 48.044 67.5134C48.3196 67.3321 48.5693 67.1143 48.7864 66.8659C48.8936 66.7349 48.9924 66.5972 49.0821 66.4537C49.1274 66.3846 49.1965 66.2702 49.298 66.1041L49.5677 65.5472C49.6184 65.4362 49.6791 65.33 49.749 65.2299C49.803 65.1501 49.8548 65.1112 49.9001 65.1156C49.9454 65.1199 49.9562 65.1782 49.939 65.2407C49.8936 65.381 49.8634 65.4717 49.8505 65.5148C49.7984 65.6662 49.7658 65.8236 49.7534 65.9832C49.7275 66.0587 49.7102 66.1062 49.7016 66.1278C49.6023 66.3566 49.4987 66.5724 49.3886 66.7753C49.2252 67.0471 49.0465 67.3094 48.8533 67.5609Z" fill="white"/>
<path d="M51.6136 64.0712L51.5532 64.9755C51.5532 65.1395 51.5381 65.2906 51.5295 65.4266C51.5208 65.5626 51.5165 65.6834 51.5122 65.7849C51.5014 66.0007 51.4712 66.1 51.4194 66.1C51.3676 66.1 51.3374 66.182 51.2748 66.3417C51.2467 66.4216 51.2187 66.4928 51.1949 66.5575C51.1712 66.6223 51.1496 66.6719 51.1388 66.7086C51.0248 67.0384 50.8642 67.3502 50.6618 67.6345C50.5846 67.7332 50.4865 67.8136 50.3746 67.8699C50.2626 67.9262 50.1396 67.9572 50.0144 67.9604C49.8682 67.9627 49.7247 67.9213 49.6021 67.8417C49.4897 67.7846 49.3955 67.6971 49.3302 67.5892C49.2701 67.5004 49.2242 67.4029 49.1942 67.3C49.1575 67.1985 49.1251 67.1489 49.0992 67.1489C49.1678 66.6944 49.3921 66.2779 49.7338 65.9705C49.7648 66.1247 49.8256 66.2713 49.9129 66.4021C49.9665 66.4738 50.038 66.5303 50.1201 66.5659C50.2023 66.6014 50.2923 66.6149 50.3813 66.605C50.4962 66.6075 50.6105 66.5877 50.718 66.5467C50.8049 66.5 50.879 66.4325 50.9338 66.3503C51.0057 66.2521 51.0477 66.1352 51.0546 66.0136C51.0654 65.8863 51.0698 65.7482 51.0698 65.5993C51.0698 65.4503 51.0698 65.3359 51.0698 65.2561C51.0698 65.1762 51.0698 65.0079 51.0698 64.7532C51.0698 64.4985 51.0827 64.1834 51.1108 63.8122C51.1186 63.5803 51.149 63.3497 51.2014 63.1237L51.6201 61.8287C51.6525 61.792 51.6827 61.7834 51.7086 61.8028C51.7314 61.846 51.7426 61.8943 51.741 61.9431C51.741 61.969 51.7194 62.2453 51.6805 62.7719C51.6417 63.2985 51.6115 63.7086 51.6136 64.0712ZM52.218 60.8338C52.6007 60.4555 53.0042 60.0988 53.4266 59.7654C53.7007 59.5496 53.9748 59.3338 54.2489 59.1071L55.0777 58.4316C55.5223 58.0546 55.8978 57.7194 56.2043 57.4258C56.4086 57.2316 56.7489 56.9035 57.2252 56.4417C57.8726 55.8201 58.1878 55.4985 58.1878 55.4834C58.1905 55.5226 58.1815 55.5616 58.1619 55.5956C58.1071 55.7873 58.0272 55.9709 57.9244 56.1417C57.8201 56.3317 57.7026 56.5142 57.5726 56.6877C57.3892 56.9187 57.2424 57.0999 57.141 57.2273C56.9791 57.4043 56.8496 57.5402 56.759 57.633C56.6683 57.7258 56.4223 57.9589 56.1115 58.2438C55.9949 58.3496 55.8482 58.4791 55.6798 58.6302C55.5115 58.7812 55.3043 58.9561 55.0734 59.1525C54.7583 59.423 54.4662 59.6625 54.1971 59.8712C53.928 60.0798 53.5856 60.3446 53.1698 60.6654L52.2827 61.3647C52.2136 61.4165 52.151 61.4661 52.0906 61.5179C52.0302 61.5697 51.9698 61.6151 51.9093 61.6582C51.7928 61.751 51.728 61.7834 51.7151 61.7532C51.7778 61.5759 51.855 61.4041 51.946 61.2395C52.0184 61.0915 52.113 60.9553 52.2266 60.8359L52.218 60.8338Z" fill="white"/>
<path d="M55.248 64.3693C55.0494 64.4815 54.9286 64.5462 54.8811 64.5678C54.8304 64.5924 54.7832 64.6236 54.7408 64.6606C54.679 64.7106 54.6206 64.7647 54.566 64.8225C54.5199 64.8521 54.4673 64.8699 54.4127 64.8743C54.3497 64.8798 54.289 64.9005 54.2357 64.9347C54.1538 64.9927 54.0759 65.0561 54.0027 65.1247C53.9311 65.1967 53.846 65.2539 53.7523 65.293C53.7035 65.2988 53.6543 65.2988 53.6055 65.293L53.4178 65.2736C53.271 65.2736 53.0768 65.4657 52.835 65.8455C52.5933 66.2254 52.3106 66.4175 51.9717 66.4196C51.5832 66.4196 51.3091 66.193 51.1516 65.7333C51.1176 65.6266 51.0952 65.5167 51.0847 65.4052C51.0677 65.2879 51.0576 65.1697 51.0544 65.0513C51.0561 64.8885 51.0793 64.7266 51.1235 64.57C51.1605 64.4384 51.2111 64.3111 51.2746 64.1901C51.313 64.1083 51.3726 64.0383 51.4472 63.9872C51.5055 63.9527 51.5573 63.97 51.6005 64.0369C51.5896 64.2669 51.6403 64.4956 51.7472 64.6995C51.826 64.8317 51.9405 64.9389 52.0776 65.0088C52.2147 65.0787 52.3688 65.1084 52.5221 65.0944C52.643 65.0835 52.7605 65.0485 52.8676 64.9914C52.9747 64.9343 53.0693 64.8563 53.1458 64.7621C53.3616 64.5462 53.5019 64.447 53.5775 64.4772C53.6148 64.5112 53.6589 64.5368 53.7069 64.5524C53.7549 64.5681 53.8057 64.5733 53.8559 64.5678C53.9444 64.5527 54.0329 64.4729 54.1257 64.3326C54.2185 64.1923 54.294 64.1362 54.3523 64.1685C54.3814 64.1864 54.4138 64.198 54.4476 64.2029C54.4814 64.2077 54.5158 64.2056 54.5487 64.1966C54.6005 64.1772 54.6717 64.0908 54.7645 63.9333C54.8573 63.7757 54.9307 63.7175 54.9804 63.7498C54.9943 63.7748 55.0134 63.7964 55.0365 63.8132C55.0597 63.8299 55.0861 63.8415 55.1142 63.847C55.1553 63.8547 55.1977 63.8486 55.235 63.8297C55.2579 63.8679 55.2767 63.9084 55.2911 63.9506C55.3085 63.9968 55.3172 64.0458 55.317 64.0952C55.3171 64.1366 55.309 64.1777 55.2933 64.216C55.289 64.2657 55.2696 64.3153 55.248 64.3693ZM52.5782 57.9764C52.643 57.7743 52.7321 57.5808 52.8437 57.4002C53.0206 57.0678 53.1307 56.8995 53.1739 56.8995C53.2956 56.9278 53.4066 56.9908 53.4933 57.0808C53.6155 57.1742 53.7163 57.2927 53.789 57.4282C53.8818 57.275 53.9681 57.1282 54.0523 56.9836C54.1732 56.7808 54.2451 56.6793 54.2681 56.6793C54.4179 56.7047 54.5543 56.7809 54.6545 56.8951C54.7846 57.0078 54.8665 57.1662 54.8832 57.3376C54.8673 57.5482 54.7926 57.7501 54.6674 57.9203C54.512 58.1361 54.4019 58.2549 54.335 58.257C54.2681 58.2592 54.2012 58.2031 54.0998 58.0995C53.9926 57.9825 53.8757 57.8749 53.7501 57.7779C53.5214 58.2505 53.3401 58.4879 53.2106 58.4879C53.086 58.4285 52.971 58.3506 52.8696 58.257C52.6753 58.0951 52.5782 58.0023 52.5782 57.9764ZM53.1458 56.4074C53.2056 56.213 53.2844 56.0251 53.3811 55.8462C53.5365 55.5138 53.6379 55.3477 53.6854 55.3477C53.8391 55.3666 53.9798 55.4439 54.0782 55.5635C54.2042 55.685 54.281 55.8486 54.294 56.0232C54.2753 56.2282 54.2079 56.4257 54.0976 56.5995C53.9667 56.8455 53.8696 56.9685 53.8062 56.9685C53.7674 56.9685 53.6832 56.9102 53.5516 56.7959C53.4199 56.6815 53.3206 56.5973 53.2516 56.5477C53.1825 56.498 53.1458 56.4441 53.1458 56.4031V56.4074Z" fill="white"/>
<path d="M55.248 63.8386C55.3635 63.7638 55.4532 63.6553 55.5048 63.5278C55.5394 63.4695 55.5696 63.4069 55.5998 63.3443L55.6926 63.1414C55.7484 63.0275 55.8212 62.9227 55.9084 62.8306C55.9379 62.7978 55.9738 62.7713 56.0139 62.7528C56.054 62.7342 56.0974 62.724 56.1415 62.7227C56.2195 62.7234 56.2952 62.7491 56.3573 62.7961C56.3706 62.8093 56.3859 62.8202 56.4027 62.8285C56.4188 62.8368 56.4334 62.8477 56.4458 62.8609C56.4804 62.8609 56.5192 62.8069 56.5667 62.7012C56.6142 62.5954 56.653 62.5371 56.666 62.5371C56.7075 62.5366 56.7481 62.5499 56.7813 62.5749C56.8145 62.5999 56.8384 62.6352 56.8494 62.6753C56.8797 62.7517 56.8972 62.8327 56.9012 62.9148C56.9021 63.0909 56.8401 63.2616 56.7264 63.3961C56.6882 63.4605 56.6352 63.5149 56.5717 63.5547C56.5083 63.5945 56.4363 63.6185 56.3617 63.6249C56.2862 63.6242 56.2121 63.6049 56.1458 63.5688C56.0963 63.5375 56.0401 63.5183 55.9818 63.5127C55.9431 63.5124 55.9049 63.5218 55.8706 63.5398C55.8363 63.5579 55.8071 63.5842 55.7854 63.6163C55.7178 63.7414 55.666 63.8321 55.63 63.8882C55.5336 64.068 55.4082 64.2306 55.2588 64.3695C55.2066 64.293 55.1774 64.2031 55.1746 64.1105C55.168 64.0142 55.1938 63.9185 55.248 63.8386ZM56.4523 65.9515C56.2893 66.1901 56.1539 66.4464 56.0487 66.7155C55.9212 66.9582 55.8434 67.2238 55.8199 67.4968C56.0919 67.6479 56.2257 67.8076 56.2278 67.976C56.228 68.0994 56.1887 68.2197 56.1156 68.3192C56.0888 68.3661 56.0502 68.4053 56.0037 68.4329C55.9571 68.4606 55.9042 68.4756 55.8501 68.4767C55.7996 68.479 55.7495 68.466 55.7064 68.4394C55.6633 68.4129 55.6291 68.374 55.6084 68.3278C55.5623 68.2177 55.5381 68.0997 55.5372 67.9803C55.5774 67.5447 55.7074 67.1221 55.9192 66.7393C56.1739 66.2069 56.3516 65.9479 56.4523 65.9623V65.9515Z" fill="white"/>
<path d="M59.2237 66.1774C59.1199 66.4924 58.9832 66.7955 58.8157 67.0817C58.7388 67.2187 58.6388 67.3414 58.5201 67.4443C58.4185 67.5058 58.3107 67.5565 58.1985 67.5954C58.056 67.6472 57.838 67.7227 57.551 67.8112C57.3826 67.8758 57.2084 67.9242 57.0308 67.9558C56.9963 67.9558 56.9791 67.9558 56.9791 67.9321C56.9467 67.8846 57.1193 67.7335 57.5035 67.4745C57.8877 67.2155 58.1316 67.0429 58.2438 66.9652C58.3735 66.8653 58.4877 66.7467 58.5827 66.6134C58.6997 66.4561 58.7861 66.2782 58.8373 66.0889C58.7746 66.0823 58.7113 66.0951 58.656 66.1256C58.6012 66.1561 58.5396 66.1724 58.4769 66.1731C58.332 66.174 58.192 66.1209 58.0841 66.0242C58.0361 65.9865 57.9986 65.9372 57.9752 65.8809C57.9518 65.8246 57.9432 65.7632 57.9503 65.7026C57.9654 65.6292 57.9913 65.5472 58.0215 65.4522C58.078 65.2974 58.1435 65.1461 58.2179 64.999C58.3034 64.8188 58.4053 64.6469 58.5222 64.4853C58.555 64.4306 58.5995 64.3839 58.6525 64.3484C58.7055 64.313 58.7656 64.2897 58.8287 64.2803C58.9125 64.2798 58.9953 64.2991 59.0703 64.3366C59.1453 64.3741 59.2104 64.4287 59.2603 64.4961C59.3782 64.6477 59.4406 64.8351 59.4373 65.0271C59.437 65.1316 59.4313 65.2361 59.4201 65.34C59.4071 65.4436 59.3942 65.5299 59.3791 65.599C59.3639 65.6681 59.3445 65.7565 59.3165 65.8645C59.2884 65.9724 59.256 66.0868 59.2237 66.1774Z" fill="white"/>
<path d="M63.348 64.0611C63.1408 64.8122 62.907 65.2539 62.6466 65.3863C62.4165 65.4911 62.193 65.6101 61.9775 65.7424C61.9199 65.7856 61.8671 65.8348 61.82 65.8892C61.7228 66.0326 61.641 66.186 61.5761 66.3467C61.4379 66.7007 61.3279 66.9726 61.2437 67.1625C61.1208 67.4387 60.9013 67.6605 60.6264 67.7863C60.2891 67.8979 59.94 67.9703 59.5861 68.0021C59.4761 68.0151 59.4048 67.9892 59.3703 67.9266C59.3358 67.864 59.4027 67.8359 59.4955 67.7669L59.843 67.5122C59.8624 67.4928 60.0135 67.3913 60.2962 67.2143C60.512 67.0654 60.6178 66.9985 60.6049 66.9985C60.7864 66.862 60.9547 66.7088 61.1077 66.541C61.2181 66.3359 61.3168 66.1248 61.4034 65.9086C61.5083 65.6469 61.6384 65.3961 61.7919 65.1597C61.9089 65.0166 62.049 64.894 62.2063 64.7971L62.5797 64.6007C62.6965 64.5478 62.8067 64.4811 62.9077 64.4021C62.9965 64.3048 63.0693 64.1941 63.1236 64.074C63.2164 63.9079 63.2811 63.828 63.32 63.8323C63.3588 63.8366 63.3782 63.9186 63.348 64.0611ZM59.8559 62.2935C59.9218 62.0917 60.0109 61.8984 60.1214 61.7172C60.3005 61.3848 60.4106 61.2165 60.4516 61.2165C60.5734 61.2448 60.6843 61.3078 60.771 61.3978C60.8938 61.4907 60.9947 61.6093 61.0667 61.7453C61.1595 61.592 61.248 61.4453 61.3322 61.3007C61.4531 61.0978 61.5286 60.9963 61.548 60.9963C61.6985 61.0214 61.8357 61.0976 61.9365 61.2122C62.0658 61.3255 62.1475 61.4836 62.1653 61.6546C62.1484 61.865 62.0737 62.0667 61.9495 62.2373C61.7941 62.4532 61.6818 62.5719 61.6149 62.574C61.548 62.5762 61.4833 62.5201 61.3797 62.4165C61.2745 62.2931 61.1582 62.1797 61.0322 62.0776C60.8013 62.5503 60.6221 62.7877 60.4905 62.7877C60.3664 62.7285 60.2521 62.6506 60.1516 62.5568C59.9552 62.41 59.8559 62.3172 59.8559 62.2935ZM60.4279 60.7179C60.4877 60.5236 60.5664 60.3356 60.6631 60.1568C60.8214 59.8244 60.9228 59.6582 60.9674 59.6582C61.1213 59.6767 61.2621 59.754 61.3602 59.874C61.4859 59.9958 61.5627 60.1593 61.5761 60.3337C61.556 60.5384 61.4888 60.7357 61.3797 60.91C61.248 61.156 61.1509 61.2791 61.0861 61.2791C61.0214 61.2791 60.9631 61.2208 60.8336 61.1064C60.7041 60.992 60.6005 60.9078 60.5315 60.8582C60.4624 60.8086 60.4279 60.7589 60.4279 60.7179ZM60.8358 72.2367C60.8977 72.0342 60.9824 71.8394 61.0883 71.6561C61.2588 71.3215 61.3624 71.1532 61.3991 71.1532C61.4682 71.1532 61.5718 71.2136 61.7099 71.3366C61.8254 71.4312 61.9208 71.5478 61.9905 71.6798C62.079 71.533 62.161 71.3863 62.2408 71.2482C62.3574 71.041 62.4293 70.9374 62.4567 70.9374C62.6001 70.9604 62.7291 71.0376 62.8171 71.1532C62.9411 71.2708 63.0178 71.4297 63.0329 71.6C63.014 71.8099 62.9395 72.0111 62.8171 72.1827C62.6746 72.3985 62.5689 72.5194 62.502 72.5194C62.4351 72.5194 62.3768 72.4676 62.2861 72.3618C62.183 72.2462 62.0704 72.1393 61.9495 72.0424C61.7336 72.5151 61.561 72.7525 61.4336 72.7525C61.3148 72.6913 61.2057 72.6127 61.1099 72.5194C60.9243 72.3575 60.8315 72.2647 60.8315 72.2367H60.8358ZM61.4358 73.4151C61.5029 73.2398 61.5867 73.0714 61.6861 72.9122C61.848 72.6187 61.9495 72.4805 61.9883 72.4805C62.0562 72.4953 62.1204 72.5233 62.1775 72.5629C62.2345 72.6026 62.2832 72.653 62.3207 72.7115C62.4309 72.8279 62.4913 72.9828 62.489 73.1431C62.4654 73.3389 62.395 73.5262 62.284 73.6892C62.1502 73.905 62.0574 74 62.0077 74C61.9572 73.9842 61.9141 73.9504 61.8869 73.905C61.8221 73.8424 61.7574 73.7755 61.6905 73.7043L61.5221 73.5597C61.4595 73.4971 61.4315 73.4539 61.4315 73.4151H61.4358Z" fill="white"/>
<path d="M26.9487 67.2314C26.9487 67.1602 26.7954 67.0544 26.4911 66.9184C26.1868 66.7825 26.0271 66.6098 26.0271 66.394C26.0319 66.2224 26.064 66.0526 26.122 65.8911C26.1854 65.7064 26.2641 65.5274 26.3573 65.3558C26.3758 65.3263 26.404 65.3041 26.4372 65.2932C26.471 65.2805 26.5068 65.274 26.5429 65.2738C26.5768 65.2737 26.6104 65.2796 26.6422 65.2911C26.6557 65.2962 26.6674 65.305 26.6762 65.3164C26.685 65.3279 26.6904 65.3415 26.6918 65.3558C26.6918 65.4141 26.7415 65.4724 26.8364 65.5307C26.9314 65.5889 27.0264 65.6537 27.1235 65.7227C27.2139 65.7819 27.2881 65.8628 27.3393 65.958C27.3872 66.0967 27.4091 66.243 27.4041 66.3897C27.4036 66.6805 27.3688 66.9703 27.3005 67.253C27.2004 67.6144 27.0682 67.9662 26.9055 68.304C26.6264 68.9154 26.1973 69.4462 25.658 69.8472C25.4799 69.9617 25.2895 70.0559 25.0904 70.1278C24.8817 70.1975 24.6629 70.2325 24.4429 70.2314C24.1996 70.2457 23.9566 70.1982 23.7366 70.0933C23.5165 69.9884 23.3267 69.8295 23.1846 69.6314C22.9202 69.2405 22.7872 68.7756 22.8048 68.304C22.8147 67.9848 22.864 67.668 22.9515 67.3609C23.0372 67.0328 23.1417 66.71 23.2645 66.394C23.381 66.1091 23.4803 65.8717 23.5645 65.6774C23.5882 65.6299 23.6249 65.5609 23.6702 65.4616C23.7156 65.3623 23.776 65.2458 23.8451 65.0925C23.8969 64.9997 23.94 64.9134 23.981 64.8379C24.022 64.7623 24.0523 64.6954 24.0782 64.635C24.1407 64.5206 24.1882 64.4666 24.2228 64.4709C24.2573 64.4753 24.281 64.5271 24.2616 64.6156C24.2445 64.709 24.217 64.8002 24.1796 64.8875C23.8846 65.5796 23.6803 66.063 23.5666 66.3379C23.4028 66.7066 23.3043 67.1009 23.2753 67.5033C23.2753 68.0213 23.4371 68.3918 23.7609 68.6148C24.0373 68.7801 24.3565 68.8597 24.6782 68.8436C25.2933 68.8623 25.8944 68.6576 26.3702 68.2674C26.7573 67.9364 26.9501 67.5911 26.9487 67.2314Z" fill="white"/>
</svg>
