<svg width="92" height="92" viewBox="0 0 92 92" fill="none" xmlns="http://www.w3.org/2000/svg">
<path d="M91 1H1V91H91V1Z" stroke="#55A2E7" stroke-opacity="0.595597"/>
<path fill-rule="evenodd" clip-rule="evenodd" d="M40.0773 64.8376C40.1049 65.0104 40.0497 65.2487 39.9107 65.5531C39.7442 65.9078 39.5868 66.0856 39.4384 66.0856C39.3368 65.9942 39.1888 65.8675 38.9943 65.7049C38.7999 65.5428 38.7029 65.4314 38.7029 65.3706L38.7305 65.3097C38.7861 65.1775 38.8877 64.9341 39.0361 64.5792C39.0731 64.4979 39.1656 64.3205 39.3136 64.0466L39.3692 63.9707C39.4062 64.0109 39.4711 64.0618 39.5636 64.1227C39.7394 64.2648 39.8458 64.3662 39.8828 64.427C39.9848 64.5691 40.0497 64.706 40.0773 64.8376ZM38.6471 64.9291C38.675 65.1014 38.6193 65.3399 38.4807 65.6443C38.3139 65.9994 38.1567 66.1769 38.0087 66.1769C37.9067 66.0856 37.7585 65.9587 37.5642 65.7967C37.3699 65.6342 37.2726 65.5225 37.2726 65.4615L37.3005 65.401C37.3558 65.2688 37.458 65.0255 37.6059 64.6704C37.6429 64.5893 37.7355 64.4117 37.8836 64.1382L37.9391 64.0618C37.9761 64.1025 38.0409 64.1532 38.1334 64.2141C38.3092 64.356 38.4158 64.4576 38.453 64.5182C38.5546 64.6605 38.6193 64.7974 38.6471 64.9291ZM37.6215 68.1488C39.2043 68.1488 40.5001 67.9207 41.5092 67.4644C42.0273 67.2308 42.3699 66.9724 42.5366 66.6883C42.546 66.6781 42.5852 66.6122 42.6545 66.4907C42.7241 66.3687 42.7725 66.3079 42.8004 66.3079C42.828 66.3789 42.8421 66.4345 42.8421 66.4751C42.7866 66.952 42.5968 67.439 42.2726 67.9358C41.6987 68.8185 40.4122 69.3912 38.4129 69.6551C37.8761 69.7264 37.3811 69.7618 36.9272 69.7618C36.3626 69.7618 35.9368 69.7365 35.65 69.6857C34.78 69.5335 34.3451 69.1279 34.3451 68.4684C34.3451 68.2756 34.4003 67.8699 34.5114 67.2511C34.5762 66.886 34.6411 66.7034 34.7061 66.7034C34.7613 66.7034 34.8032 66.881 34.8309 67.2358C34.8677 67.8446 35.7981 68.1488 37.6215 68.1488ZM44.495 64.0408C44.5136 64.0001 44.5552 63.924 44.6201 63.8123C44.6292 63.7922 44.6524 63.7616 44.6894 63.7213C44.7171 63.7719 44.7312 63.8123 44.7312 63.8431L44.6618 64.3603L44.5784 65.2122L44.4257 66.5666C44.3608 67.1246 44.2498 67.5861 44.0926 67.9511L43.7729 68.6816C43.5784 69.1177 43.426 69.3359 43.3149 69.3359L43.2735 69.2291C43.5602 68.1538 43.7406 67.2715 43.8148 66.5816L43.912 65.623L44.0648 65.1516L44.495 64.0408ZM48.0147 70.9788C48.0426 71.1512 47.9869 71.3895 47.8481 71.6938C47.6813 72.0492 47.524 72.2265 47.3762 72.2265C47.2743 72.1349 47.126 72.0083 46.9318 71.846C46.7373 71.6838 46.6404 71.5721 46.6404 71.5111L46.6681 71.4503C46.7235 71.3187 46.8252 71.0751 46.9735 70.72C47.0102 70.6391 47.1031 70.4613 47.2511 70.1875L47.3068 70.1116C47.3436 70.1521 47.4083 70.203 47.501 70.2634C47.6769 70.4057 47.7835 70.507 47.8205 70.568C47.9222 70.7101 47.9869 70.8467 48.0147 70.9788ZM48.6199 65.1516C48.4071 66.024 48.1522 66.5412 47.8562 66.7034L47.3287 66.9925C47.0973 67.1141 46.8936 67.3778 46.7178 67.7838C46.5883 68.1286 46.4631 68.4684 46.343 68.8034C46.1671 69.148 45.945 69.3864 45.6765 69.5182C45.5006 69.6094 45.2321 69.6804 44.871 69.7312C44.7416 69.7515 44.6353 69.7618 44.5519 69.7618C44.4407 69.7618 44.3667 69.7312 44.3296 69.6707C44.3205 69.5996 44.4918 69.4369 44.8431 69.1835C44.9174 69.1329 45.0797 69.0162 45.3292 68.8336C45.496 68.7118 45.6072 68.6307 45.6625 68.59C45.9309 68.3772 46.1138 68.1945 46.211 68.0423C46.3082 67.8901 46.4263 67.629 46.5653 67.2588C46.7037 66.8884 46.8056 66.6474 46.8705 66.5361C46.9816 66.3533 47.1574 66.1762 47.3982 66.0037C47.6852 65.8511 47.8749 65.74 47.9674 65.6689C48.0598 65.5976 48.1895 65.4407 48.3563 65.1973C48.5133 64.9843 48.5966 64.8773 48.6061 64.8773C48.6613 64.8879 48.6662 64.9791 48.6199 65.1516ZM52.2618 60.7909C52.2894 60.9637 52.234 61.202 52.0951 61.506C51.9287 61.8611 51.7711 62.0387 51.623 62.0387C51.5212 61.9474 51.3733 61.8204 51.1786 61.6582C50.9843 61.4964 50.8872 61.384 50.8872 61.3237L50.9149 61.2626C50.9706 61.1308 51.0723 60.8877 51.2206 60.5323C51.2577 60.4512 51.3501 60.2736 51.498 59.9998L51.5535 59.9236C51.5907 59.9645 51.6556 60.015 51.7481 60.0759C51.9238 60.2178 52.0302 60.3193 52.0672 60.3804C52.1691 60.5223 52.234 60.6593 52.2618 60.7909ZM51.6901 66.7384C51.903 66.5053 52.0837 66.3529 52.2318 66.2823C52.3983 66.1401 52.9029 65.8967 53.7452 65.5517C54.1061 65.3995 54.3932 65.131 54.606 64.7453C54.6801 64.6137 54.7169 64.4918 54.7169 64.3801C54.7169 64.1367 54.3793 63.9087 53.7035 63.6958C53.6759 63.6751 53.5046 63.873 53.1898 64.289C53.1067 64.4005 52.9956 64.6084 52.8565 64.9126C52.8565 64.9631 52.9352 65.0446 53.0926 65.1561L52.6067 65.506C52.3112 65.7187 52.0061 65.9769 51.6918 66.2806L51.6891 66.2775C51.3375 66.602 51.1154 66.952 51.0226 67.327C51.0044 67.4084 51.129 67.449 51.3974 67.449H51.6753C52.0455 67.449 52.3231 67.4285 52.5082 67.3882C52.5082 67.5812 52.314 67.7989 51.9251 68.0423C51.6659 68.2045 51.3742 68.2859 51.0505 68.2859C50.389 68.2859 50.0562 67.8511 50.0508 66.982L50.0512 66.981C50.0512 66.5959 50.0927 66.0731 50.1759 65.4139L50.4123 63.5577L50.4677 63.1623C50.4862 63.0302 50.491 62.9491 50.4818 62.9185L50.4258 62.9491C50.1209 63.6593 49.9352 64.1511 49.8704 64.4251C49.6047 66.2031 49.4704 67.4445 49.468 68.1478L49.4674 68.1488C49.4674 68.585 49.5508 68.9503 49.7177 69.2442C49.9118 69.5895 50.1943 69.7618 50.5644 69.7618C51.3143 69.7618 52.0175 69.1528 52.6748 67.9358L53.0498 67.4036C53.2348 67.1394 53.3274 66.9724 53.3274 66.9015C53.3274 66.7895 53.2719 66.7338 53.1608 66.7338C53.1332 66.7338 53.0498 66.7542 52.9111 66.7946C52.6241 66.8759 52.3507 66.9166 52.0917 66.9166H51.7167C51.6246 66.9166 51.5731 66.9113 51.5642 66.9015L51.6891 66.7338L51.6901 66.7317V66.7384ZM61.1181 64.8376C61.146 65.0104 61.0903 65.2487 60.9516 65.5531C60.785 65.9078 60.6276 66.0856 60.4794 66.0856C60.3778 65.9942 60.2296 65.8675 60.0352 65.7049C59.841 65.5428 59.7436 65.4314 59.7436 65.3706L59.7713 65.3097C59.827 65.1775 59.9286 64.9341 60.0769 64.5792C60.1137 64.4979 60.2067 64.3205 60.3545 64.0466L60.41 63.9707C60.4471 64.0109 60.5117 64.0618 60.6047 64.1227C60.7804 64.2648 60.8868 64.3662 60.9237 64.427C61.0256 64.5691 61.0903 64.706 61.1181 64.8376ZM59.6881 64.9291C59.7159 65.1014 59.66 65.3399 59.5215 65.6443C59.3548 65.9994 59.1974 66.1769 59.0493 66.1769C58.9474 66.0856 58.7993 65.9587 58.6051 65.7967C58.4108 65.6342 58.3136 65.5225 58.3136 65.4615L58.3414 65.401C58.3969 65.2688 58.4988 65.0255 58.6468 64.6704C58.6836 64.5893 58.7762 64.4117 58.9244 64.1382L58.98 64.0618C59.017 64.1025 59.0816 64.1532 59.1743 64.2141C59.3501 64.356 59.4566 64.4576 59.4937 64.5182C59.5951 64.6605 59.66 64.7974 59.6881 64.9291ZM65.3791 67.0095V67.0073L65.2148 66.9925C64.9278 66.9619 64.6364 67.1851 64.3403 67.662C64.192 67.8953 64.0719 68.0678 63.9794 68.1793C63.7015 68.5043 63.3638 68.7573 62.9656 68.9403C62.3268 69.2342 61.3549 69.4624 60.0499 69.6247C59.3094 69.7159 58.6753 69.7618 58.1478 69.7618H57.9117C57.4306 69.7618 57.0464 69.7365 56.7592 69.6857C55.8522 69.5235 55.3989 69.0671 55.3989 68.3165C55.3989 68.0525 55.4079 67.7685 55.4268 67.4644C55.454 67.0178 55.5051 66.7946 55.5793 66.7946C55.6257 66.7946 55.6578 66.8455 55.6765 66.9468C55.7411 67.2612 55.7829 67.439 55.8014 67.4794C56.0326 67.9358 57.1157 68.1643 59.0503 68.1643C59.9852 68.1643 61.0403 68.0729 62.2157 67.8901C63.058 67.7585 63.7201 67.5046 64.2011 67.1294C64.2661 67.0788 64.3492 66.9978 64.4512 66.886C64.5624 66.7139 64.7384 66.5005 64.9789 66.2471C65.1269 66.1456 65.2611 66.105 65.3815 66.1251L65.3824 66.1277L65.5597 66.1571C65.7078 66.1571 65.805 66.1423 65.8513 66.1117C65.8974 66.0812 65.9485 65.9949 66.0041 65.8534C66.0964 65.5995 66.1428 65.2495 66.1428 64.8034L66.129 62.7338L66.4484 61.6381L66.7261 60.8623L66.7815 60.8319C66.7907 60.8623 66.7956 60.9283 66.7956 61.0298C66.7956 61.2124 66.786 61.451 66.7674 61.745C66.7396 62.1102 66.7261 62.3433 66.7261 62.445L66.6705 63.9054C66.6518 64.4636 66.6195 64.8692 66.5735 65.1229C66.4992 65.5792 66.3789 65.9546 66.2121 66.2487C65.9253 66.7762 65.694 67.0401 65.518 67.0401C65.4442 67.03 65.3978 67.0198 65.3791 67.0095ZM67.4066 59.6536C67.6288 59.4004 68.0591 58.9894 68.6979 58.4213L70.475 56.8539C70.8177 56.55 71.2247 56.1594 71.6968 55.6826C71.8263 55.5507 72.1922 55.1652 72.794 54.5265C73.4325 53.8464 73.7792 53.4715 73.835 53.4004C73.835 53.4511 73.8258 53.4968 73.8073 53.5373C73.6869 54.1461 73.1824 54.9369 72.2939 55.9108C71.8865 56.3576 71.2709 56.9556 70.447 57.7062C70.4103 57.7366 69.7254 58.3253 68.3923 59.4715L67.4344 60.293C67.0459 60.6275 66.8421 60.78 66.8236 60.7493C66.9716 60.303 67.1659 59.9379 67.4066 59.6536ZM73.4721 58.1192C73.4997 58.2915 73.4441 58.5299 73.3057 58.8345C73.1387 59.1892 72.9815 59.3667 72.8335 59.3667C72.8056 59.3667 72.6576 59.2449 72.3892 59.0015C72.1947 58.8292 72.0975 58.7127 72.0975 58.6515L72.1254 58.5911C72.1807 58.459 72.2828 58.2155 72.4308 57.8606C72.4678 57.7794 72.5603 57.6015 72.7086 57.3281L72.7639 57.2518C72.8009 57.2923 72.8659 57.3432 72.9584 57.4042C73.1342 57.5462 73.2408 57.6474 73.2778 57.7082C73.3795 57.8505 73.4441 57.9874 73.4721 58.1192ZM74.1942 60.0059C74.2218 60.1781 74.1664 60.4169 74.0275 60.7208C73.8609 61.076 73.7037 61.2533 73.5554 61.2533C73.4536 61.1621 73.3057 61.0353 73.1111 60.8733C72.9169 60.7108 72.8197 60.5991 72.8197 60.5385L72.8473 60.4773C72.9028 60.3457 73.0047 60.1023 73.153 59.747C73.19 59.666 73.2825 59.4885 73.4304 59.2147L73.4861 59.1384C73.5229 59.1791 73.5878 59.2298 73.6805 59.2908C73.8562 59.4325 73.9628 59.5344 73.9996 59.5948C74.1015 59.7373 74.1664 59.874 74.1942 60.0059ZM72.7639 60.0972C72.792 60.2698 72.7361 60.5083 72.5977 60.8122C72.4308 61.1674 72.2734 61.3445 72.1254 61.3445C72.0235 61.2533 71.8754 61.1265 71.6812 60.9644C71.4868 60.8022 71.3894 60.6904 71.3894 60.6299L71.4173 60.5687C71.4728 60.4371 71.5747 60.1937 71.7229 59.8383C71.7595 59.7575 71.8525 59.5799 72.0005 59.3059L72.0561 59.2298C72.0928 59.2707 72.1574 59.3213 72.2503 59.3818C72.4262 59.5239 72.5327 59.6254 72.5697 59.6866C72.6712 59.8283 72.7361 59.9652 72.7639 60.0972ZM74.303 64.3902C74.2009 64.5529 74.0808 64.6493 73.9419 64.6799C73.7382 64.7302 73.6088 64.7709 73.5532 64.8015C73.4331 64.8723 73.3124 65.0047 73.1922 65.1973L72.72 65.9578C72.3776 66.516 72.1601 66.7846 72.0676 66.7642L71.5954 66.7338C71.2991 66.7139 70.9801 66.7946 70.6376 66.9772C70.2949 67.16 70.0267 67.383 69.8322 67.6465C69.7953 67.6972 69.4483 68.2351 68.7907 69.2596C68.2912 70.0408 67.5275 70.746 66.5003 71.3746C66.0562 71.6484 65.7688 71.7855 65.6392 71.7855C65.6116 71.7855 65.5929 71.7754 65.5837 71.7549C65.5743 71.7346 65.9909 71.3799 66.8334 70.69C67.3237 70.2842 67.7361 69.8681 68.0689 69.4421C68.2263 69.2397 68.5641 68.7017 69.0822 67.8295C70.1286 66.0643 71.2162 65.1973 72.3452 65.2277C72.4377 65.2277 72.4933 65.2327 72.5118 65.2427H72.5952C72.6785 65.2427 72.8543 65.0449 73.1227 64.6493C73.2709 64.4363 73.3822 64.2842 73.4561 64.1928C73.5855 64.0408 73.7104 63.9444 73.831 63.9039C73.8863 63.8834 74.0344 63.8532 74.2751 63.8123C74.3586 63.6603 74.4603 63.5031 74.5806 63.3408C74.627 63.3308 74.65 63.3662 74.65 63.4474C74.65 63.711 74.5343 64.0255 74.303 64.3902ZM31.6506 64.1215C31.4378 64.9939 31.1831 65.5115 30.8871 65.6735L30.3593 65.9628C30.1281 66.0843 29.9245 66.3483 29.7486 66.7537C29.6191 67.099 29.4939 67.4388 29.3736 67.7737C29.1977 68.1184 28.9758 68.3569 28.7071 68.4885C28.5315 68.58 28.2631 68.6508 27.9021 68.7015C27.7723 68.7219 27.666 68.7319 27.5827 68.7319C27.4717 68.7319 27.3975 68.7015 27.3605 68.6407C27.3511 68.5696 27.5225 68.4074 27.8741 68.1537C27.9482 68.103 28.1103 67.9862 28.36 67.8041C28.5268 67.6823 28.6378 67.601 28.6933 67.5606C28.9618 67.3473 29.1444 67.1648 29.2418 67.0128C29.339 66.8602 29.4569 66.5995 29.5961 66.2291C29.7345 65.8589 29.8365 65.6178 29.9013 65.506C30.0124 65.3239 30.1882 65.1463 30.4288 64.9736C30.716 64.8214 30.9056 64.7101 30.9981 64.639C31.0906 64.568 31.2203 64.4107 31.3869 64.1674C31.5444 63.9542 31.6274 63.8475 31.6369 63.8475C31.6924 63.8578 31.697 63.9492 31.6506 64.1215ZM31.5529 72.892C31.5808 73.0643 31.5252 73.3026 31.3864 73.6068C31.2196 73.9621 31.0622 74.1394 30.9143 74.1394C30.8125 74.0482 30.6644 73.9214 30.47 73.7592C30.2758 73.5969 30.1786 73.4852 30.1786 73.4244L30.2063 73.3634C30.2618 73.2316 30.3637 72.9884 30.5115 72.6331C30.5487 72.552 30.6412 72.3744 30.7895 72.1004L30.845 72.0245C30.882 72.0652 30.9469 72.116 31.0392 72.1767C31.2151 72.3187 31.3217 72.4201 31.3587 72.4809C31.4604 72.623 31.5252 72.7597 31.5529 72.892ZM30.1229 72.9832C30.1507 73.1557 30.0952 73.394 29.9563 73.6982C29.7898 74.0533 29.6326 74.2308 29.4843 74.2308C29.3821 74.1394 29.2343 74.0126 29.04 73.8503C28.8455 73.6883 28.7483 73.5761 28.7483 73.5158L28.7762 73.4548C28.8317 73.3232 28.9335 73.0796 29.0816 72.7243C29.1186 72.6434 29.2112 72.4654 29.3594 72.192L29.4149 72.116C29.4519 72.1566 29.5166 72.2071 29.6094 72.2679C29.785 72.4096 29.8916 72.5115 29.9286 72.5723C30.0305 72.7144 30.0952 72.8511 30.1229 72.9832ZM27.5389 63.0111C27.5574 62.9705 27.5991 62.8943 27.6639 62.7828C27.6729 62.7625 27.6961 62.7319 27.7331 62.6916C27.761 62.7422 27.7748 62.7828 27.7748 62.8132L27.7054 63.3306L27.622 64.1825L27.4695 65.5369C27.4047 66.0946 27.2936 66.5562 27.1362 66.9214L26.8169 67.6517C26.6223 68.088 26.4698 68.3059 26.3587 68.3059L26.3171 68.1992C26.604 67.1245 26.7846 66.2418 26.8583 65.5517L26.9558 64.5935L27.1083 64.1215L27.5389 63.0111ZM23.7736 67.0279C23.7831 67.0686 23.7878 67.1245 23.7878 67.1954C23.7878 67.3777 23.732 67.5555 23.621 67.7278C23.3989 68.0727 23.2368 68.2554 23.1349 68.2756C23.1166 68.2756 23.0749 68.25 23.0101 68.1992C22.7973 68.0372 22.6861 67.946 22.677 67.9257C22.538 67.824 22.4594 67.7737 22.4408 67.7737C22.3483 67.7027 22.2975 67.6314 22.2881 67.5606L22.6074 66.7694C22.7092 66.5763 22.7973 66.4193 22.8711 66.2975L22.9546 66.1605C23.0192 66.1911 23.1166 66.2469 23.2462 66.3279C23.4034 66.4598 23.5146 66.5613 23.5792 66.6323C23.6999 66.7639 23.7646 66.896 23.7736 67.0279ZM25.5509 67.819C25.4678 68.2248 25.3981 68.5191 25.3427 68.7015C24.8891 70.2232 24.1393 71.2985 23.0934 71.9272C22.6861 72.171 22.2232 72.2925 21.7051 72.2925C21.1311 72.2925 20.6868 72.0971 20.3722 71.7065C20.0576 71.3158 19.9 70.8013 19.9 70.1622C19.9 69.1579 20.2935 67.9154 21.0803 66.4344C21.1729 66.2619 21.242 66.1806 21.2884 66.1911C21.3071 66.2011 21.3116 66.2569 21.3024 66.3583C21.2839 66.4598 21.2652 66.5459 21.2466 66.6168L20.7887 67.7123C20.5666 68.2402 20.4556 68.6967 20.4556 69.082C20.4556 70.1468 20.9923 70.6793 22.066 70.6793C23.2139 70.6793 24.1208 70.1116 24.7873 68.9753C25 68.6206 25.1113 68.2097 25.1206 67.7427L25.1482 66.6472C25.1577 66.3435 25.2361 65.9831 25.3844 65.5673L25.6619 64.9736C25.736 64.8115 25.7959 64.7049 25.8423 64.6543C25.8887 64.7049 25.9071 64.7707 25.898 64.852L25.8287 65.3846L25.7594 66.1452C25.7594 66.5917 25.6899 67.1497 25.5509 67.819ZM33.3553 63.0111C33.3737 62.9705 33.4154 62.8943 33.4804 62.7828C33.4895 62.7625 33.5127 62.7319 33.5496 62.6916C33.5775 62.7422 33.5912 62.7828 33.5912 62.8132L33.5218 63.3306L33.4384 64.1825L33.2859 65.5369C33.2211 66.0946 33.1103 66.5562 32.9528 66.9214L32.6331 67.6517C32.4388 68.088 32.2862 68.3059 32.1751 68.3059L32.1335 68.1992C32.4204 67.1245 32.601 66.2418 32.675 65.5517L32.772 64.5935L32.9249 64.1215L33.3553 63.0111Z" fill="#2C73DF"/>
<path fill-rule="evenodd" clip-rule="evenodd" d="M36.4824 25.7186L38.022 24.4585C43.8134 30.767 37.9081 38.974 30.6422 36.9831L30.8621 34.7909C36.2441 36.3533 40.2883 31.0149 36.4824 25.7186ZM31.9619 31.5145L31.2289 33.2537C34.8222 34.878 39.0069 30.7893 35.3343 26.7519L34.0634 28.1123C35.9469 30.5383 33.7355 32.5665 31.9619 31.5145ZM46.0701 22.1683L46.8145 24.1189C49.346 24.1424 51.1479 25.6861 51.0857 28.2216H43.4467C43.0199 25.9599 42.2022 24.2357 40.9938 23.0493L39.5291 23.8673C44.7677 31.3556 39.5631 40.2959 30.5604 38.3394V40.1264H38.8949L41.3719 35.08L49.0355 35.294L46.8876 40.0633H51.3542L53.6237 35.0925L62.556 35.2185C61.2384 26.9623 53.1221 21.8059 46.0701 22.1683Z" fill="#2C73DF"/>
<path fill-rule="evenodd" clip-rule="evenodd" d="M56.9755 50.9193L55.4361 52.1794C49.645 45.8709 55.5503 37.6638 62.8159 39.6548L62.596 41.8472C57.2139 40.2846 53.17 45.6234 56.9755 50.9193ZM61.4965 45.1233L62.2297 43.3842C58.6364 41.7598 54.4517 45.8487 58.1242 49.8862L59.395 48.5254C57.5111 46.0999 59.7228 44.0711 61.4965 45.1233ZM47.3881 54.4694L46.6438 52.5191C44.1126 52.4957 42.3103 50.9518 42.3729 48.4163H50.0117C50.4381 50.6783 51.256 52.4026 52.4642 53.5886L53.9289 52.7707C48.6905 45.2827 53.8951 36.342 62.8983 38.2987V36.5117H54.5632L52.0861 41.5577L44.4229 41.3442L46.5704 36.5744H42.1045L39.8345 41.5455L30.9019 41.4193C32.22 49.6757 40.3359 54.8321 47.3881 54.4694Z" fill="#2C73DF"/>
</svg>
