<svg width="140" height="140" viewBox="0 0 140 140" fill="none" xmlns="http://www.w3.org/2000/svg">
<path fill-rule="evenodd" clip-rule="evenodd" d="M63.8909 64.4019C63.8909 67.4854 63.8924 70.5682 63.8872 73.6511C63.8872 73.8597 63.9328 74.0182 64.0965 74.1617C64.5915 74.5917 65.0686 75.0411 65.5591 75.4747C65.6608 75.5652 65.7026 75.6594 65.7026 75.7918C65.7004 77.2902 65.6996 78.7886 65.7034 80.287C65.7034 80.4455 65.6488 80.5577 65.5307 80.6608C65.1463 80.9966 64.7545 81.3271 64.4046 81.7009C64.2805 81.8333 64.1803 81.8138 64.0577 81.7009C63.6651 81.3405 63.2688 80.9839 62.8718 80.6294C62.7828 80.5509 62.7514 80.4612 62.7514 80.3446C62.7537 78.7953 62.7529 77.2468 62.7537 75.6983C62.7537 75.637 62.7297 75.5577 62.8 75.5218C62.8733 75.4837 62.9197 75.5532 62.966 75.5929C63.2419 75.8351 63.5133 76.0826 63.7915 76.3219C63.8992 76.4153 63.9021 76.5312 63.9014 76.6561C63.9006 77.7149 63.9006 78.7736 63.9006 79.8324C63.9006 79.9483 63.8842 80.0724 63.9971 80.1472C64.0846 80.2062 64.128 80.3819 64.2648 80.3079C64.4046 80.2324 64.5332 80.1307 64.5317 79.9251C64.525 78.9456 64.5295 77.9661 64.5295 76.9866C64.5295 76.7847 64.5115 76.5813 64.5325 76.3817C64.5609 76.117 64.4584 75.9391 64.2618 75.7701C63.203 74.8579 62.1592 73.9307 61.0975 73.0222C60.8634 72.8218 60.7662 72.6132 60.77 72.3014C60.7872 70.9406 60.7782 69.5783 60.7775 68.2174C60.7775 67.9909 60.607 67.7045 60.4739 67.7045C60.3386 67.7045 60.1688 67.9886 60.1688 68.2174C60.1688 72.273 60.1651 76.3286 60.1748 80.3842C60.1756 80.7005 60.1023 80.9315 59.8481 81.1259C59.62 81.3001 59.4211 81.5117 59.208 81.7061C59.1676 81.7435 59.1273 81.8004 59.0615 81.7704C59.0002 81.7428 59.0009 81.6777 58.9987 81.6202C58.9964 81.5693 58.9972 81.5192 58.9972 81.4684C58.9972 76.9305 58.9987 72.3927 58.9927 67.8541C58.9927 67.6335 59.0495 67.475 59.22 67.3307C59.5811 67.0219 59.9251 66.6936 60.2787 66.3758C60.4799 66.1956 60.5023 66.2039 60.7019 66.3923C61.0429 66.7123 61.3846 67.0331 61.7375 67.3404C61.8923 67.475 61.9544 67.6193 61.9536 67.8256C61.9454 69.2306 61.9529 70.6348 61.9454 72.0397C61.9439 72.2386 62.0015 72.3822 62.1577 72.5026C62.2998 72.6125 62.4254 72.7433 62.5615 72.8615C62.5974 72.8921 62.6325 72.9475 62.6901 72.9161C62.7312 72.8921 62.7178 72.839 62.7185 72.7972C62.7208 72.7246 62.72 72.6529 62.72 72.5811V55.2708C62.72 55.1841 62.7238 55.0974 62.7193 55.0114C62.7081 54.8402 62.7709 54.7594 62.9548 54.7684C63.1918 54.7788 63.4303 54.7781 63.6674 54.7684C63.8423 54.7616 63.8999 54.8402 63.8924 55.0009C63.8864 55.131 63.8909 55.2604 63.8909 55.3905V64.4019Z" fill="white"/>
<path fill-rule="evenodd" clip-rule="evenodd" d="M68.21 78.0139C68.2108 77.258 68.2093 76.5013 68.2115 75.7453C68.2123 75.6631 68.1823 75.5524 68.281 75.5158C68.3648 75.4836 68.4171 75.5786 68.4747 75.6287C68.7237 75.847 68.9652 76.0743 69.2202 76.2852C69.3443 76.3884 69.3854 76.5028 69.3839 76.659C69.3794 77.7036 69.3817 78.7482 69.3817 79.792C69.3817 80.0409 69.5551 80.3198 69.7024 80.3116C69.846 80.3034 70.012 80.0312 70.012 79.8024C70.012 78.6136 70.009 77.4255 70.0142 76.2366C70.015 76.0788 69.9701 75.9652 69.8505 75.8612C69.3682 75.4395 68.8957 75.0074 68.4111 74.5871C68.2631 74.4593 68.1958 74.3239 68.1958 74.1236C68.2018 71.5813 68.1906 69.0384 68.2048 66.4962C68.2108 65.5526 68.2698 64.6127 68.7005 63.7364C68.9742 63.1801 69.4056 62.7613 69.8213 62.3232C70.492 61.6196 71.3556 61.2121 72.1856 60.7515C73.4515 60.0494 74.7196 59.3525 75.9832 58.6459C76.1268 58.5652 76.2382 58.5562 76.3773 58.6482C76.5201 58.7432 76.6793 58.8142 76.8311 58.8972C76.8812 58.9241 76.9545 58.9428 76.9582 59.0026C76.9642 59.0804 76.879 59.0961 76.8251 59.126C75.904 59.6322 74.9805 60.1346 74.0601 60.6431C73.0903 61.1784 72.1116 61.6944 71.2248 62.374C70.1713 63.1801 69.6052 64.2358 69.4348 65.5301C69.3817 65.9301 69.348 66.3309 69.348 66.7347C69.3495 69.0541 69.3503 71.3727 69.3465 73.6921C69.3458 73.8701 69.3884 73.9979 69.5312 74.1206C70.0382 74.5572 70.5294 75.0133 71.0319 75.456C71.1291 75.5412 71.1627 75.6309 71.1627 75.7551C71.1597 77.2677 71.1597 78.7803 71.1627 80.2929C71.1627 80.4245 71.1283 80.5262 71.0289 80.6167C70.6274 80.9778 70.2124 81.324 69.8393 81.7158C69.748 81.8123 69.6628 81.7966 69.5768 81.7196C69.1484 81.3345 68.7222 80.9479 68.2938 80.5621C68.201 80.4791 68.2108 80.3692 68.2108 80.2615C68.21 79.5123 68.21 78.7631 68.21 78.0139Z" fill="white"/>
<path fill-rule="evenodd" clip-rule="evenodd" d="M66.3495 73.8899C66.3495 71.4486 66.3435 69.0066 66.3532 66.5653C66.3555 66.0061 66.3637 65.4423 66.4661 64.8875C66.6725 63.7786 67.1047 62.7924 67.9511 62.0043C68.7586 61.2529 69.6581 60.6412 70.6286 60.1246C71.9566 59.4172 73.286 58.7136 74.6102 57.9981C74.8121 57.8889 74.9743 57.8777 75.1665 58.0078C75.3272 58.1162 75.5097 58.1902 75.6809 58.2822C75.7362 58.3121 75.8207 58.3271 75.8252 58.3988C75.8304 58.4781 75.7407 58.4856 75.6861 58.5147C74.7904 58.991 73.8931 59.4658 72.9959 59.9406C72.2063 60.3571 71.3935 60.7369 70.6331 61.1998C69.783 61.7157 68.959 62.2899 68.455 63.1894C67.9847 64.0306 67.7477 64.9488 67.664 65.9044C67.5959 66.6797 67.6213 67.4581 67.6213 68.2357C67.6206 72.2689 67.6191 76.302 67.6251 80.3344C67.6251 80.5408 67.569 80.6844 67.4105 80.8182C67.1084 81.0724 66.8228 81.3491 66.5297 81.6153C66.493 81.6482 66.4586 81.7035 66.4048 81.687C66.3353 81.6654 66.354 81.5928 66.3502 81.5383C66.3465 81.4882 66.3495 81.4373 66.3495 81.3872V73.8899Z" fill="white"/>
<path fill-rule="evenodd" clip-rule="evenodd" d="M82.077 69.9359C82.077 71.2317 82.0785 72.5282 82.074 73.8247C82.0733 73.9324 82.1137 73.9989 82.1869 74.0647C82.6984 74.5193 83.2046 74.9799 83.719 75.4308C83.8267 75.525 83.8723 75.6215 83.8715 75.7635C83.8685 77.2761 83.8685 78.7888 83.8708 80.3014C83.8715 80.4337 83.8334 80.5302 83.7347 80.6229C83.3451 80.9863 82.9219 81.3123 82.5608 81.7063C82.4666 81.8095 82.3776 81.802 82.2819 81.7153C81.855 81.3295 81.428 80.9429 81.0003 80.5571C80.9278 80.4921 80.9211 80.4076 80.9211 80.3201C80.9211 78.7858 80.9211 77.2515 80.9218 75.7172C80.9218 75.6469 80.9084 75.5594 80.9779 75.5198C81.0594 75.4749 81.108 75.5587 81.1581 75.6028C81.4295 75.8398 81.6935 76.0843 81.9671 76.3191C82.0793 76.4163 82.0935 76.5337 82.0935 76.6683C82.0927 77.7195 82.0927 78.7708 82.0935 79.8229C82.0935 79.9148 82.0688 80.0188 82.1398 80.092C82.2258 80.181 82.3013 80.3492 82.4382 80.2947C82.5825 80.2363 82.7223 80.1242 82.7223 79.9238C82.7201 78.6706 82.7193 77.4175 82.7231 76.1643C82.7238 76.0327 82.6587 75.9505 82.5705 75.8712C82.0823 75.4345 81.5985 74.9919 81.1035 74.5627C80.9652 74.4431 80.9069 74.3197 80.9069 74.1373C80.9106 71.5375 80.9173 68.9369 80.9061 66.3371C80.9009 65.0227 80.388 63.8996 79.4989 62.9508C79.0705 62.4947 78.6054 62.0722 78.1501 61.643C77.999 61.5002 78.0222 61.4277 78.1957 61.3305C78.6114 61.0964 78.6144 61.0822 78.9718 61.3948C79.8025 62.1216 80.5876 62.8939 81.179 63.8368C81.5708 64.4626 81.8744 65.1318 82.0299 65.8556C82.086 66.1203 82.083 66.4 82.0838 66.6729C82.0897 67.7608 82.0867 68.848 82.0867 69.9359H82.077Z" fill="white"/>
<path fill-rule="evenodd" clip-rule="evenodd" d="M76.6427 71.1675C76.6427 72.0243 76.6449 72.8812 76.6397 73.7381C76.639 73.8944 76.6838 74.0103 76.8035 74.1149C77.2857 74.5367 77.7583 74.9703 78.2435 75.389C78.3923 75.5169 78.4566 75.6537 78.4559 75.8526C78.4492 77.3002 78.4492 78.7478 78.4559 80.1953C78.4566 80.4077 78.3879 80.5535 78.2241 80.6948C77.848 81.0186 77.4667 81.3386 77.128 81.7035C77.0435 81.7939 76.965 81.8156 76.87 81.7296C76.4378 81.3393 76.0064 80.9468 75.5742 80.555C75.5077 80.4959 75.5032 80.4189 75.5032 80.3374C75.5039 78.7889 75.5032 77.2411 75.5047 75.6926C75.5047 75.6313 75.48 75.5513 75.5555 75.5191C75.6273 75.4885 75.6752 75.552 75.7223 75.5932C75.9922 75.8317 76.2569 76.0754 76.5305 76.3102C76.636 76.4014 76.6524 76.5106 76.6524 76.6385C76.6502 77.7047 76.6509 78.7702 76.6517 79.8364C76.6517 79.9351 76.6285 80.0465 76.7197 80.1191C76.8087 80.1908 76.87 80.3583 77.0091 80.291C77.1459 80.2245 77.2797 80.1206 77.2797 79.9314C77.2783 78.6707 77.2783 77.4109 77.2797 76.1502C77.2797 76.0313 77.2274 75.9498 77.1407 75.8728C76.6322 75.4257 76.1305 74.9718 75.6213 74.5277C75.4905 74.4133 75.4695 74.2779 75.4703 74.1217C75.4718 72.4214 75.471 70.7218 75.471 69.0223C75.471 68.9004 75.4875 68.7688 75.3686 68.6881C75.2901 68.6342 75.225 68.4884 75.1271 68.552C75.003 68.6312 74.8459 68.712 74.8504 68.9079C74.8534 69.044 74.8407 69.1808 74.84 69.3176C74.8392 70.4773 74.84 71.6363 74.84 72.796C74.84 72.8536 74.8407 72.9119 74.8385 72.9695C74.834 73.0891 74.7816 73.1399 74.6792 73.0517C74.3689 72.7833 74.0638 72.5096 73.758 72.2352C73.6877 72.1716 73.6907 72.0804 73.6907 71.9929C73.6907 70.8407 73.6922 69.6885 73.6885 68.5363C73.6877 68.4084 73.7341 68.3202 73.8268 68.2379C74.2134 67.8925 74.5977 67.5441 74.9775 67.1926C75.1159 67.064 75.2213 67.0401 75.3746 67.1919C75.7223 67.5358 76.0872 67.8633 76.4535 68.1871C76.5896 68.3067 76.6472 68.4361 76.6457 68.6178C76.6382 69.4679 76.642 70.3173 76.6427 71.1675Z" fill="white"/>
<path fill-rule="evenodd" clip-rule="evenodd" d="M71.7003 73.9323C71.7003 71.5337 71.6898 69.135 71.7055 66.7371C71.713 65.5527 72.0831 64.4768 72.7927 63.5205C73.4252 62.6681 74.2619 62.0736 75.1771 61.5644C76.1589 61.0186 77.1272 60.4489 78.1037 59.8941C78.2113 59.8327 78.3183 59.7094 78.4551 59.7737C78.6884 59.8836 78.9441 59.9696 79.1161 60.1715C79.2036 60.2739 79.069 60.3158 79.0039 60.3546C78.4342 60.6919 77.8622 61.0268 77.2909 61.3611C76.6688 61.7237 76.0355 62.0691 75.4261 62.4527C74.6313 62.9537 73.9277 63.5631 73.5097 64.4267C73.1807 65.1041 72.9751 65.8264 72.9744 66.5891C72.9714 71.1479 72.9706 75.7074 72.9781 80.2669C72.9781 80.5114 72.9146 80.6827 72.7209 80.8397C72.4315 81.076 72.1698 81.3459 71.8939 81.5993C71.8491 81.6405 71.8065 81.7175 71.7339 81.6771C71.6793 81.6465 71.701 81.5724 71.701 81.5171C71.7003 80.501 71.7003 79.4856 71.7003 78.4702V73.9323Z" fill="white"/>
<path fill-rule="evenodd" clip-rule="evenodd" d="M79.0111 73.6749C79.0111 71.1611 79.0171 68.6466 79.0089 66.1327C79.0051 65.1046 78.5924 64.2186 77.989 63.4096C77.6891 63.0096 77.3056 62.6903 76.9429 62.3508C76.8218 62.2372 76.8001 62.1796 76.9609 62.0899C77.6705 61.6906 77.42 61.6502 77.9942 62.199C78.5991 62.7778 79.1719 63.3894 79.5756 64.1311C79.8852 64.7009 80.1566 65.2908 80.268 65.9383C80.2807 66.0154 80.2815 66.0961 80.2815 66.1746C80.2822 70.8859 80.2807 75.5973 80.2867 80.3086C80.2867 80.5314 80.2216 80.6884 80.0549 80.8305C79.7648 81.078 79.4896 81.3434 79.2063 81.5991C79.1614 81.6388 79.1218 81.7173 79.047 81.6784C78.9879 81.6477 79.0096 81.5745 79.0096 81.5199C79.0081 81.1378 79.0089 80.7565 79.0089 80.3744V73.6749H79.0111Z" fill="white"/>
<path fill-rule="evenodd" clip-rule="evenodd" d="M64.5289 69.2654C64.5289 68.0122 64.5132 66.759 64.5327 65.5059C64.5559 63.9342 65.0867 62.5532 66.1537 61.3852C66.8842 60.5859 67.7695 60.005 68.7356 59.5369C70.219 58.8183 71.7092 58.1103 73.1829 57.373C73.4932 57.2182 73.7385 57.1943 74.0092 57.4112C74.1288 57.5076 74.3733 57.542 74.3703 57.6736C74.3673 57.8104 74.1303 57.8441 73.9935 57.9151C72.2962 58.8004 70.5764 59.6476 68.9001 60.571C67.7419 61.2088 66.8633 62.1464 66.304 63.3734C65.8285 64.4157 65.6901 65.5029 65.6969 66.6327C65.7103 69.1383 65.7013 71.6446 65.6984 74.1509C65.6984 74.2668 65.7544 74.4335 65.6311 74.4851C65.5249 74.53 65.4434 74.3797 65.3589 74.3072C65.1406 74.1195 64.9327 73.9191 64.7106 73.7367C64.5753 73.626 64.5245 73.5011 64.5252 73.3269C64.5312 71.9728 64.5289 70.6195 64.5289 69.2654Z" fill="white"/>
<path fill-rule="evenodd" clip-rule="evenodd" d="M82.7725 57.4867C81.8371 57.8613 80.9025 58.2382 79.9656 58.6105C79.665 58.7309 79.594 58.6875 79.5155 58.3982C79.4758 58.2524 79.5573 58.1836 79.6485 58.1103C80.2946 57.5921 80.9413 57.0747 81.5866 56.5566C82.2267 56.0436 82.8652 55.5307 83.5045 55.017C83.4708 54.9714 83.4439 55.0013 83.4252 55.0133C82.0853 55.8313 80.7469 56.6508 79.4063 57.4673C79.2769 57.5458 79.1431 57.7208 78.995 57.4822C78.853 57.2512 78.8672 57.1749 79.1199 57.0149C80.2579 56.2949 81.3967 55.5771 82.5355 54.8578C83.6309 54.1654 84.727 53.4738 85.8224 52.7799C86.1282 52.5855 86.1312 52.5832 86.3092 52.8883C86.3204 52.907 86.3323 52.9249 86.3428 52.9436C86.5155 53.224 86.511 53.2188 86.2673 53.4296C84.9797 54.5392 83.6952 55.6511 82.4106 56.7629C82.3941 56.7764 82.3829 56.7958 82.3261 56.8661C82.4599 56.8123 82.5392 56.7801 82.6177 56.7495C84.1169 56.1543 85.616 55.5591 87.1152 54.9654C87.3672 54.8652 87.4143 54.8937 87.504 55.1254C87.5571 55.2623 87.4905 55.3228 87.3926 55.3871C86.4251 56.0257 85.4575 56.6642 84.49 57.3043C83.9995 57.6295 83.509 57.9563 83.0319 58.3182C83.3542 58.2359 83.6765 58.1552 83.9995 58.0729C85.3169 57.7365 86.6359 57.3992 87.9549 57.0643C88.0401 57.0426 88.1538 56.976 88.2083 57.0867C88.2779 57.2317 88.3646 57.3895 88.322 57.5563C88.2973 57.6535 88.1702 57.6535 88.0827 57.6774C87.0539 57.9563 86.025 58.2314 84.9969 58.5111C83.4125 58.9425 81.8304 59.3784 80.2467 59.8099C79.9992 59.8779 79.9102 59.8181 79.8856 59.5983C79.8706 59.4726 79.9491 59.4173 80.0344 59.3597C80.9077 58.775 81.7818 58.1896 82.6551 57.6049C82.7014 57.5735 82.7486 57.5406 82.7942 57.5077C82.7874 57.5009 82.78 57.4934 82.7725 57.4867Z" fill="white"/>
<path fill-rule="evenodd" clip-rule="evenodd" d="M74.5326 50.4355C74.3001 51.3492 74.0705 52.2629 73.835 53.1766C73.8028 53.3014 73.8006 53.4644 73.5957 53.4443C73.3041 53.4158 73.2316 53.356 73.2204 53.1041C73.1732 52.0326 73.1291 50.9619 73.082 49.8904C73.0544 49.2937 73.0222 48.6978 72.9788 48.1011C72.8891 49.2167 72.8001 50.3315 72.7089 51.4471C72.6685 51.9421 72.6252 52.4363 72.5826 52.9306C72.5706 53.0562 72.5571 53.1796 72.3762 53.1691C72.1242 53.1541 72.0382 53.0973 72.0487 52.9014C72.0756 52.384 72.11 51.8673 72.1444 51.3499C72.1833 50.7615 72.2252 50.173 72.2678 49.5846C72.3343 48.6372 72.4046 47.6906 72.4689 46.7433C72.5078 46.1683 72.534 45.5933 72.5758 45.0191C72.5855 44.871 72.5272 44.6639 72.7972 44.6594C73.2039 44.6527 73.322 44.7155 73.3467 45.0019C73.4275 45.9485 73.5015 46.8958 73.5778 47.8424C73.6383 48.5954 73.6981 49.3483 73.7595 50.1012C73.7617 50.1356 73.7744 50.17 73.8208 50.2127C73.8484 50.1155 73.8776 50.0197 73.903 49.9218C74.2948 48.3875 74.6851 46.8524 75.0777 45.3181C75.1091 45.1985 75.1136 45.046 75.3139 45.0849C75.4897 45.1185 75.5712 45.2052 75.5614 45.3959C75.4919 46.8188 75.4261 48.2424 75.3663 49.6661C75.3528 50.0033 75.364 50.342 75.364 50.6643C75.5084 50.3031 75.6616 49.9188 75.8142 49.5337C76.28 48.3553 76.7443 47.1762 77.2124 45.9986C77.2475 45.9096 77.2662 45.7742 77.3963 45.7937C77.5489 45.8161 77.7178 45.8415 77.8292 45.9634C77.8958 46.0359 77.827 46.1287 77.7971 46.2064C77.4188 47.2106 77.0374 48.2133 76.6591 49.2167C76.12 50.6448 75.5839 52.0737 75.0463 53.5026C75.0261 53.5564 75.0014 53.6088 74.9782 53.6611C74.9341 53.7613 74.896 53.8727 74.7472 53.8211C74.6081 53.7725 74.4541 53.7583 74.4623 53.5385C74.5019 52.5605 74.5296 51.5817 74.561 50.603C74.5625 50.5461 74.561 50.4886 74.561 50.4317C74.5513 50.4332 74.5423 50.4347 74.5326 50.4355Z" fill="white"/>
<path fill-rule="evenodd" clip-rule="evenodd" d="M78.9834 52.6111C79.4679 52.0241 79.9539 51.4364 80.4392 50.8494C81.0359 50.1287 81.6333 49.4071 82.2307 48.6863C82.3152 48.5846 82.3825 48.4456 82.559 48.5704C82.7309 48.6923 82.7048 48.8164 82.6188 48.9779C81.803 50.5249 80.991 52.0749 80.176 53.6279C80.2231 53.6578 80.2411 53.6137 80.2598 53.5958C81.4524 52.478 82.6442 51.3594 83.8346 50.2393C84.0686 50.0195 84.3385 50.0838 84.4499 50.3911C84.4888 50.4995 84.4036 50.5504 84.3453 50.6072C83.7837 51.1553 83.2199 51.7011 82.6554 52.2477C81.7612 53.1143 80.8669 53.9816 79.9697 54.8467C79.4777 55.3215 78.9834 55.7941 78.4877 56.2659C78.4137 56.3361 78.3374 56.4573 78.22 56.3421C78.1191 56.2442 78.0189 56.141 78.1101 55.9668C78.46 55.3051 78.7987 54.6366 79.1427 53.9719C79.2952 53.678 79.45 53.3857 79.6182 53.0657C79.5285 53.0821 79.5031 53.1337 79.4709 53.1733C78.9229 53.841 78.3755 54.5095 77.826 55.1772C77.7848 55.2273 77.7467 55.2811 77.6966 55.3215C77.6054 55.3963 77.5493 55.5623 77.3811 55.4621C77.1792 55.3409 77.1261 55.2019 77.2121 54.9955C77.8125 53.5532 78.4144 52.1116 79.0156 50.6692C79.0515 50.584 79.0859 50.4973 79.0933 50.3971C78.9169 50.7021 78.7389 51.0065 78.5632 51.3123C77.9434 52.3852 77.3265 53.459 76.7044 54.5304C76.6476 54.6291 76.6177 54.8063 76.427 54.7017C76.1945 54.5738 76.1436 54.4519 76.2528 54.2568C76.9833 52.9415 77.7168 51.6278 78.4488 50.3126C78.9954 49.3308 79.539 48.3484 80.0878 47.3681C80.1476 47.2604 80.1805 47.0795 80.3323 47.1004C80.5215 47.1273 80.6994 47.2275 80.8377 47.3689C80.8946 47.4264 80.8475 47.5057 80.8228 47.573C80.4041 48.693 79.9868 49.8124 79.5674 50.9317C79.3618 51.4835 79.1539 52.0346 78.946 52.5864C78.9587 52.5946 78.9707 52.6028 78.9834 52.6111Z" fill="white"/>
<mask id="mask0_6008_43165" style="mask-type:alpha" maskUnits="userSpaceOnUse" x="53" y="61" width="10" height="6">
<path d="M53.9814 61.0856H62.4391V66.4498H53.9814V61.0856Z" fill="white"/>
</mask>
<g mask="url(#mask0_6008_43165)">
<path fill-rule="evenodd" clip-rule="evenodd" d="M57.7504 64.9735C58.3845 64.815 59.0185 64.6572 59.6518 64.4964C60.4818 64.2863 61.3117 64.0717 62.1417 63.8624C62.2397 63.8377 62.3585 63.7741 62.4154 63.9289C62.4774 64.0972 62.4079 64.3319 62.2741 64.379C62.1253 64.4314 61.9712 64.4718 61.8179 64.5129C59.4963 65.1372 57.1747 65.7623 54.853 66.3844C54.7394 66.4151 54.5913 66.507 54.5091 66.3979C54.3879 66.2386 54.3378 66.033 54.3386 65.8296C54.3393 65.7309 54.456 65.7145 54.5323 65.6808C55.7263 65.1582 56.9212 64.6378 58.1145 64.1159C58.5295 63.9342 58.943 63.7502 59.3886 63.5528C59.2518 63.5124 59.1501 63.5491 59.0484 63.5566C58.1086 63.6336 57.1702 63.7076 56.2303 63.7831C55.5992 63.834 54.9674 63.8833 54.3371 63.9394C54.1808 63.9536 54.0575 63.9618 54.0163 63.7577C53.9752 63.5551 54.0672 63.4975 54.2392 63.4474C55.8624 62.9696 57.4835 62.4851 59.1045 62.0013C59.1426 61.9901 59.192 61.9983 59.2204 61.9415C58.9475 61.9228 58.6783 61.8996 58.4099 61.8884C57.2375 61.8391 56.0651 61.7942 54.8934 61.7456C54.6556 61.7359 54.4193 61.7157 54.1831 61.7067C54.0014 61.7007 53.9692 61.5893 53.9834 61.4435C53.9969 61.2947 53.9431 61.0944 54.1868 61.0884C54.4822 61.0809 54.7775 61.0899 55.0728 61.0981C56.4838 61.1392 57.8932 61.1818 59.3041 61.2252C60.2388 61.2536 61.1742 61.2828 62.1096 61.3127C62.2449 61.3172 62.3937 61.3015 62.4124 61.5026C62.4311 61.691 62.3795 61.8122 62.1768 61.872C61.2519 62.1449 60.3293 62.429 59.4066 62.7094C59.3737 62.7191 59.3408 62.7303 59.2496 62.7595C59.5853 62.8051 59.8574 62.7378 60.1296 62.7214C60.739 62.684 61.3484 62.6212 61.957 62.5681C61.9645 62.5673 61.972 62.5644 61.9787 62.5658C62.1178 62.5898 62.3152 62.4552 62.3765 62.693C62.4423 62.9479 62.3533 63.1139 62.1178 63.2074C60.8519 63.7083 59.586 64.2071 58.3209 64.7073C58.128 64.7836 57.9351 64.8621 57.7422 64.9398C57.7452 64.951 57.7482 64.9623 57.7504 64.9735Z" fill="white"/>
</g>
<path fill-rule="evenodd" clip-rule="evenodd" d="M68.7443 50.245C68.8954 50.9239 69.0479 51.6029 69.1989 52.2818C69.2587 52.5495 69.3171 52.8164 69.3769 53.0833C69.409 53.2276 69.3739 53.3061 69.2079 53.3383C68.8557 53.4078 68.8602 53.4168 68.6681 53.0751C67.9495 51.795 67.2272 50.5164 66.5057 49.2371C66.4885 49.2064 66.4668 49.1788 66.4122 49.1638C66.5266 49.4487 66.641 49.7321 66.7569 50.0162C67.2055 51.1236 67.6557 52.2309 68.1058 53.3383C68.1611 53.4751 68.2329 53.6075 68.0153 53.6822C67.7663 53.7675 67.7013 53.7548 67.6078 53.5357C66.9528 51.9917 66.2986 50.4476 65.6436 48.9036C65.2921 48.0752 64.9347 47.2489 64.5856 46.4197C64.5407 46.3135 64.427 46.1857 64.5377 46.0825C64.6708 45.9576 64.8248 45.8358 65.0245 45.829C65.1366 45.826 65.1792 45.924 65.2278 46.0018C65.7348 46.8227 66.241 47.6437 66.7464 48.4662C67.1457 49.116 67.545 49.7672 67.9443 50.417C67.9577 50.4402 67.9779 50.4604 68.031 50.4701C67.9473 50.0895 67.8643 49.7082 67.779 49.3268C67.5054 48.0976 67.2287 46.8684 66.9588 45.6384C66.9341 45.524 66.8481 45.3871 67.0007 45.2854C67.2018 45.1509 67.3095 45.186 67.4141 45.4163C68.1043 46.9371 68.7952 48.458 69.4861 49.9781C69.504 50.0155 69.5264 50.0506 69.5653 50.1194C69.6184 49.8405 69.5541 49.602 69.5332 49.365C69.415 48.0385 69.2864 46.7136 69.1615 45.3879C69.1526 45.2952 69.1556 45.201 69.1429 45.1082C69.1227 44.9572 69.1735 44.8884 69.3343 44.8667C69.7335 44.8121 69.7373 44.8166 69.7792 45.2167C69.9085 46.4616 70.0461 47.7058 70.1799 48.9515C70.3078 50.1388 70.4334 51.3262 70.5605 52.5143C70.5747 52.6571 70.5889 52.7999 70.6076 52.9428C70.6211 53.0467 70.6443 53.1708 70.5052 53.1828C70.3571 53.1955 70.1717 53.3046 70.0715 53.0796C69.9317 52.7641 69.7874 52.45 69.6431 52.136C69.3515 51.5034 69.0606 50.8701 68.769 50.2375C68.7608 50.2398 68.7525 50.2428 68.7443 50.245Z" fill="white"/>
<path fill-rule="evenodd" clip-rule="evenodd" d="M60.1252 57.0618C60.8124 57.3257 61.4532 57.5814 62.1029 57.8155C62.3175 57.8925 62.39 58.0069 62.3833 58.2282C62.3661 58.7583 62.405 58.7105 61.9138 58.6776C60.6075 58.5901 59.3013 58.4877 57.995 58.3912C57.9315 58.3867 57.8671 58.3905 57.7445 58.3905C58.5977 58.5624 59.3932 58.7232 60.1903 58.8832C60.8468 59.0156 61.5033 59.1464 62.159 59.281C62.3564 59.3214 62.4087 59.4343 62.3699 59.678C62.3385 59.8762 62.2084 59.8403 62.076 59.8164C60.0101 59.4298 57.9434 59.0432 55.8767 58.6574C55.4603 58.5796 55.0408 58.5094 54.6243 58.4286C54.3679 58.3785 54.3484 58.3419 54.4038 58.0951C54.4957 57.6831 54.5443 57.6652 54.9571 57.6861C55.7339 57.7258 56.5115 57.74 57.2884 57.7676C58.2223 57.8005 59.1562 57.8357 60.0991 57.8446C59.6609 57.6757 59.222 57.5052 58.7831 57.3362C57.6271 56.8921 56.4704 56.4494 55.3145 56.0038C55.0842 55.9155 55.0617 55.8176 55.1963 55.612C55.2629 55.511 55.3444 55.5245 55.4416 55.5402C56.3156 55.6823 57.1897 55.8213 58.0645 55.9604C58.9244 56.0965 59.7835 56.2318 60.6546 56.344C60.1536 56.0733 59.6534 55.8026 59.1517 55.5335C58.176 55.0078 57.1994 54.4822 56.2199 53.961C56.0637 53.878 56.0308 53.7913 56.131 53.6373C56.3381 53.3187 56.3343 53.3135 56.6663 53.4862C58.5012 54.4373 60.3346 55.3907 62.171 56.3387C62.325 56.4188 62.4013 56.5167 62.3863 56.6924C62.3751 56.8435 62.3803 56.9952 62.3841 57.1463C62.3878 57.3205 62.328 57.3945 62.1366 57.3639C61.4838 57.2584 60.8281 57.1665 60.1252 57.0618Z" fill="white"/>
<path fill-rule="evenodd" clip-rule="evenodd" d="M70.0192 69.5683C70.0192 68.3376 70.005 67.1054 70.0245 65.8746C70.0364 65.0387 70.334 64.2887 70.8133 63.6046C71.4847 62.6445 72.3827 61.9551 73.3936 61.3891C74.6438 60.6892 75.8865 59.9767 77.1285 59.2634C77.2713 59.1811 77.3849 59.1669 77.5225 59.2611C77.6354 59.3381 77.7588 59.4002 77.8829 59.4578C78.0429 59.5318 78.0668 59.5871 77.8949 59.6888C77.3311 60.0223 76.7733 60.3662 76.2133 60.7064C75.3586 61.2254 74.5047 61.748 73.6471 62.2624C72.5517 62.9182 71.742 63.8065 71.3449 65.0409C71.2111 65.4574 71.1632 65.8851 71.1625 66.3173C71.1587 68.9245 71.1602 71.5311 71.1602 74.1376C71.1602 74.1809 71.164 74.2243 71.1602 74.2677C71.155 74.3357 71.1879 74.4247 71.1086 74.4628C71.0286 74.5025 70.9785 74.4224 70.9277 74.3776C70.663 74.1443 70.405 73.9035 70.1359 73.6755C70.0215 73.5775 70.0103 73.4609 70.0103 73.3271C70.0125 72.0746 70.0117 70.8215 70.0117 69.5683H70.0192Z" fill="white"/>
<path fill-rule="evenodd" clip-rule="evenodd" d="M83.8699 70.022C83.8699 71.4262 83.8707 72.8311 83.8684 74.2361C83.8684 74.3116 83.9051 74.4148 83.8266 74.4566C83.7316 74.5067 83.6748 74.4006 83.6142 74.349C83.3533 74.1232 83.1005 73.8869 82.8374 73.6626C82.7297 73.5699 82.7215 73.4577 82.7215 73.3321C82.723 71.0344 82.7043 68.7359 82.7282 66.4389C82.7454 64.72 82.0732 63.3434 80.7946 62.2323C80.3004 61.8024 79.8106 61.3665 79.3134 60.9403C79.1736 60.8199 79.1855 60.7519 79.3396 60.6569C79.7732 60.3877 79.768 60.3862 80.1628 60.7003C80.9815 61.3508 81.7808 62.0237 82.4575 62.8245C83.0579 63.5348 83.4983 64.3401 83.7712 65.2344C83.8677 65.5499 83.8684 65.8737 83.8692 66.1967C83.8714 67.4715 83.8699 68.7464 83.8699 70.022Z" fill="white"/>
<mask id="mask1_6008_43165" style="mask-type:alpha" maskUnits="userSpaceOnUse" x="81" y="59" width="8" height="5">
<path d="M81.5356 59.8711H88.9628V63.8287H81.5356V59.8711Z" fill="white"/>
</mask>
<g mask="url(#mask1_6008_43165)">
<path fill-rule="evenodd" clip-rule="evenodd" d="M86.2428 63.2044C87.0159 63.2762 87.789 63.3472 88.5629 63.4227C88.6706 63.4332 88.8059 63.4175 88.8336 63.5768C88.8628 63.7465 88.7813 63.8377 88.5824 63.828C87.9932 63.8003 87.404 63.7659 86.8148 63.7323C85.9168 63.6792 85.0195 63.6216 84.1215 63.5738C83.9548 63.5648 83.8374 63.5244 83.7641 63.3592C83.6729 63.1565 83.6759 63.1177 83.8987 63.0646C84.4587 62.933 85.021 62.8089 85.5826 62.681C85.6027 62.6765 85.6207 62.669 85.6379 62.6137C84.9829 62.6137 84.3264 62.5943 83.6722 62.6212C83.3147 62.6361 83.139 62.4073 82.9454 62.1935C82.8392 62.0769 82.9671 62.017 83.0643 61.9849C83.4127 61.8697 83.7634 61.7598 84.1126 61.6477C84.962 61.3762 85.8114 61.1033 86.6563 60.8005C86.3265 60.8349 85.9975 60.8686 85.6678 60.9037C84.5238 61.0271 83.3798 61.1512 82.2358 61.2731C82.0264 61.2955 81.6159 61.0114 81.5472 60.8072C81.5038 60.6786 81.5905 60.6555 81.681 60.645C81.8956 60.6181 82.1102 60.5979 82.3248 60.574C83.569 60.4349 84.8124 60.2951 86.0566 60.1552C86.8858 60.0625 87.715 59.9691 88.545 59.8801C88.8164 59.8517 88.8471 59.8786 88.8792 60.1395C88.9443 60.6764 89.0467 60.5725 88.4919 60.793C87.5416 61.1706 86.5882 61.5385 85.6356 61.9101C85.5908 61.9281 85.5452 61.9468 85.504 61.9954C85.7298 62.0088 85.9557 62.0268 86.1822 62.0365C86.9868 62.0701 87.792 62.1008 88.5973 62.1329C88.6332 62.1344 88.6691 62.1404 88.705 62.1449C88.8284 62.1621 88.9495 62.1726 88.9622 62.3445C88.9749 62.5187 88.853 62.5434 88.7327 62.5726C88.0612 62.7326 87.3883 62.8911 86.7161 63.0504C86.5568 63.0885 86.3976 63.1281 86.2383 63.1678C86.2398 63.1797 86.2413 63.1924 86.2428 63.2044Z" fill="white"/>
</g>
<path fill-rule="evenodd" clip-rule="evenodd" d="M78.4524 70.3292V74.1096C78.4524 74.1746 78.4547 74.2389 78.4502 74.304C78.4457 74.3668 78.4547 74.4438 78.3814 74.4715C78.3171 74.4954 78.279 74.4333 78.2371 74.3967C77.9881 74.1784 77.7459 73.9526 77.4909 73.741C77.3331 73.6109 77.2756 73.4621 77.2763 73.2557C77.283 71.0739 77.2711 68.8921 77.2838 66.7102C77.292 65.2836 76.7544 64.094 75.7839 63.0801C75.6448 62.935 75.6396 62.8678 75.8227 62.7698C76.3671 62.4774 76.1988 62.4012 76.6841 62.9119C77.3436 63.6065 77.8184 64.4118 78.1803 65.2918C78.3455 65.6948 78.4509 66.1113 78.4517 66.5487C78.4532 67.8086 78.4524 69.0685 78.4524 70.3292Z" fill="white"/>
<path fill-rule="evenodd" clip-rule="evenodd" d="M78.7431 56.9821C78.5928 56.9297 78.5435 56.7862 78.4777 56.6643C78.4171 56.5544 78.5091 56.4953 78.5831 56.437C79.2957 55.8762 80.0082 55.3154 80.7215 54.7547C82.119 53.657 83.5165 52.5579 84.917 51.4632C85.0059 51.3937 85.0919 51.2419 85.2243 51.3212C85.3596 51.4012 85.4329 51.5574 85.4882 51.7047C85.5233 51.796 85.4291 51.8416 85.3686 51.8887C84.6867 52.4181 84.004 52.9474 83.3213 53.4768C81.876 54.5954 80.4307 55.7147 78.9854 56.8325C78.9121 56.8894 78.844 56.9559 78.7431 56.9821Z" fill="white"/>
<path fill-rule="evenodd" clip-rule="evenodd" d="M79.3954 46.6115C79.3774 46.6549 79.3625 46.6953 79.3445 46.7341C78.4712 48.5742 77.5971 50.4151 76.7238 52.2552C76.4397 52.8541 76.1503 53.4501 75.8759 54.052C75.7817 54.2583 75.6658 54.2352 75.4968 54.1589C75.3189 54.0781 75.2867 53.9847 75.3697 53.806C76.4965 51.3924 77.6173 48.9758 78.7426 46.5614C78.7875 46.4642 78.8017 46.3064 78.9505 46.3199C79.109 46.3341 79.2496 46.4208 79.3662 46.533C79.3842 46.5502 79.3857 46.5846 79.3954 46.6115Z" fill="white"/>
<mask id="mask2_6008_43165" style="mask-type:alpha" maskUnits="userSpaceOnUse" x="70" y="44" width="2" height="10">
<path d="M70.7642 44.5828H71.7255V53.1444H70.7642V44.5828Z" fill="white"/>
</mask>
<g mask="url(#mask2_6008_43165)">
<path fill-rule="evenodd" clip-rule="evenodd" d="M71.7228 52.5736C71.7228 52.6746 71.7161 52.7763 71.7243 52.8757C71.737 53.0372 71.6989 53.1449 71.5089 53.1441C71.3347 53.1434 71.1777 53.1516 71.1725 52.8996C71.165 52.5475 71.1261 52.1968 71.1097 51.8446C71.0297 50.1346 70.9549 48.4246 70.8734 46.7146C70.8442 46.1104 70.8031 45.5085 70.7672 44.9051C70.753 44.6733 70.8091 44.5985 71.0102 44.5858C71.3101 44.5671 71.3908 44.6195 71.4013 44.8759C71.4267 45.4577 71.4409 46.0409 71.4656 46.6233C71.5306 48.1614 71.6039 49.6987 71.6645 51.2367C71.6817 51.6816 71.6675 52.128 71.6675 52.5736H71.7228Z" fill="white"/>
</g>
<path fill-rule="evenodd" clip-rule="evenodd" d="M62.1213 60.9381C60.9773 60.814 59.8475 60.6921 58.7185 60.5695C57.5819 60.4461 56.4454 60.3228 55.3097 60.1986C54.9732 60.162 54.6382 60.1209 54.3025 60.0872C54.1342 60.07 54.0475 60.0035 54.0976 59.8203C54.1118 59.7665 54.1073 59.7066 54.1081 59.6483C54.1103 59.498 54.1881 59.4472 54.3316 59.4644C55.1668 59.5631 56.002 59.6595 56.8387 59.7567C58.0448 59.8973 59.2516 60.0386 60.4576 60.1799C61.0364 60.248 61.6143 60.3153 62.1923 60.3878C62.4017 60.414 62.5243 60.7362 62.3912 60.8992C62.3097 60.9994 62.2006 60.9172 62.1213 60.9381Z" fill="white"/>
<path fill-rule="evenodd" clip-rule="evenodd" d="M80.9595 60.4562C80.8085 60.4614 80.3867 60.2191 80.3531 60.1152C80.3112 59.9821 80.4271 59.9784 80.5049 59.9642C80.9079 59.8902 81.3117 59.8206 81.7162 59.7533C83.3342 59.4849 84.9515 59.2165 86.5696 58.9503C87.1662 58.8523 87.7644 58.7656 88.3588 58.6602C88.5719 58.622 88.643 58.7088 88.6684 58.9009C88.7073 59.2112 88.7005 59.2404 88.4508 59.2793C86.3901 59.6023 84.3294 59.9223 82.2687 60.2446C81.8209 60.3141 81.3745 60.3889 80.9595 60.4562Z" fill="white"/>
<path fill-rule="evenodd" clip-rule="evenodd" d="M62.4673 64.9588C62.4972 65.1233 62.3971 65.2107 62.2355 65.2721C59.9954 66.1252 57.7568 66.9806 55.5181 67.8352C55.3835 67.8868 55.2482 67.9347 55.1136 67.987C54.9962 68.0319 54.9274 67.9982 54.8811 67.8771C54.7285 67.4793 54.7248 67.4778 55.1256 67.3283C57.4652 66.4527 59.804 65.5786 62.1443 64.7038C62.421 64.6006 62.4703 64.635 62.4673 64.9588Z" fill="white"/>
<path fill-rule="evenodd" clip-rule="evenodd" d="M61.2465 52.816C61.4462 52.9746 61.6451 53.1323 61.844 53.2923C61.9778 53.3993 62.063 53.821 61.9785 53.9668C61.9225 54.064 61.8462 54.0341 61.7774 53.984C61.6668 53.904 61.5606 53.8172 61.4522 53.7342C60.3493 52.8893 59.2472 52.0414 58.1405 51.2025C57.9746 51.0769 57.9618 50.9909 58.0942 50.8234C58.3783 50.4637 58.3394 50.4555 58.7888 50.7045C59.7399 51.2301 60.6925 51.755 61.6451 52.2784C62.0488 52.4998 62.0593 52.5237 62.0032 52.9708C61.9815 53.1323 61.9083 53.1518 61.7856 53.08C61.6144 52.9798 61.4477 52.8744 61.2779 52.7712C61.2675 52.7861 61.2578 52.8011 61.2465 52.816Z" fill="white"/>
<path fill-rule="evenodd" clip-rule="evenodd" d="M64.376 53.0261C64.376 53.3648 64.37 53.7028 64.3783 54.0408C64.3827 54.203 64.314 54.2568 64.1607 54.2546C63.5999 54.2464 63.0384 54.2374 62.4776 54.2426C62.2877 54.2449 62.2271 54.1813 62.2301 53.9936C62.2391 53.3461 62.2391 52.6986 62.2301 52.0503C62.2278 51.8642 62.2869 51.7797 62.4761 51.7991C62.5262 51.8043 62.5778 51.8036 62.6271 51.7991C62.7946 51.7849 62.8589 51.8589 62.8559 52.0264C62.8492 52.4504 62.8537 52.8751 62.8537 53.2998C62.8537 53.3573 62.8522 53.4157 62.8567 53.4725C62.8612 53.5286 62.8612 53.6033 62.9419 53.5936C63.0099 53.5854 62.9898 53.5174 62.9898 53.4688C62.989 53.0089 62.9853 52.5483 62.9853 52.0877C62.986 51.8126 63.0032 51.7999 63.3068 51.7999C63.6081 51.7999 63.6246 51.8141 63.6261 52.0907C63.6276 52.5296 63.6253 52.9685 63.6283 53.4074C63.6283 53.4673 63.6066 53.5689 63.6836 53.5719C63.7906 53.5764 63.7539 53.4665 63.7547 53.4045C63.7592 52.9872 63.7569 52.57 63.7577 52.152C63.7577 51.7984 63.7577 51.7984 64.0732 51.7999C64.3768 51.8006 64.3768 51.8006 64.3768 52.1408C64.3768 52.4362 64.3768 52.7308 64.376 53.0261Z" fill="white"/>
<path fill-rule="evenodd" clip-rule="evenodd" d="M62.3864 55.6101C62.3864 55.6714 62.3879 55.7006 62.3864 55.729C62.3819 55.7993 62.4028 55.8815 62.3318 55.9271C62.2466 55.9825 62.1815 55.9137 62.118 55.8726C61.5273 55.486 60.9381 55.0972 60.3466 54.7106C59.2752 54.0078 58.2015 53.3057 57.1307 52.6021C57.044 52.5452 56.9057 52.5056 56.9288 52.3755C56.9565 52.2177 57.0552 52.0779 57.1898 51.9927C57.2982 51.9231 57.3902 52.0338 57.4769 52.0914C58.5207 52.7853 59.5638 53.4806 60.6061 54.176C61.122 54.5199 61.6342 54.8676 62.1539 55.2041C62.3221 55.3125 62.4335 55.4299 62.3864 55.6101Z" fill="white"/>
<path fill-rule="evenodd" clip-rule="evenodd" d="M64.1957 48.9673C64.2054 48.8111 64.2121 48.6533 64.2241 48.4955C64.2293 48.4215 64.1979 48.3191 64.3063 48.2996C64.3938 48.2847 64.4215 48.3744 64.4559 48.4342C64.7542 48.9591 65.0518 49.4855 65.3487 50.0119C66.0298 51.2209 66.7117 52.4307 67.3921 53.6405C67.5447 53.9104 67.4392 54.1063 67.1289 54.1303C66.9959 54.1407 66.9689 54.0256 66.9211 53.9426C66.4044 53.0446 65.8915 52.1451 65.3756 51.2471C65.0137 50.6168 64.6518 49.9872 64.2869 49.3584C64.2151 49.2358 64.1755 49.1101 64.1957 48.9673Z" fill="white"/>
<path fill-rule="evenodd" clip-rule="evenodd" d="M64.6532 52.6667C64.6749 52.4005 64.6285 52.1366 64.6188 51.8711C64.6113 51.6745 64.5455 51.5025 64.319 51.4546C64.215 51.433 64.1851 51.3567 64.1844 51.2617C64.1836 51.1316 64.1836 51.0023 64.1829 50.8729C64.1821 50.8079 64.1784 50.7316 64.2494 50.7039C64.3354 50.671 64.378 50.7481 64.4192 50.8049C64.7429 51.2528 65.0659 51.7029 65.3882 52.1523C65.8368 52.7766 66.2862 53.4017 66.7318 54.0275C66.8006 54.124 66.9076 54.2234 66.7707 54.3445C66.6466 54.4552 66.527 54.5315 66.3542 54.4036C65.8353 54.0185 65.3075 53.6439 64.7818 53.2671C64.6921 53.2028 64.648 53.1228 64.6525 53.0114C64.6562 52.897 64.6532 52.7818 64.6532 52.6667Z" fill="white"/>
<path fill-rule="evenodd" clip-rule="evenodd" d="M63.8904 50.2281C63.8904 50.581 63.8867 50.9332 63.8926 51.2868C63.8949 51.4483 63.8396 51.5238 63.6661 51.5179C63.4216 51.5074 63.1763 51.5104 62.9318 51.5164C62.7868 51.5201 62.7195 51.4655 62.7202 51.3167C62.7225 50.5967 62.7225 49.8766 62.7202 49.1566C62.7202 49.0003 62.7905 48.9375 62.9445 48.9413C63.1756 48.948 63.4066 48.9517 63.6362 48.9398C63.8418 48.93 63.8986 49.0257 63.8941 49.2127C63.8859 49.5506 63.8919 49.8894 63.8919 50.2281H63.8904Z" fill="white"/>
<path fill-rule="evenodd" clip-rule="evenodd" d="M88.4174 64.9474C87.0491 64.8741 85.7129 64.8031 84.3768 64.7305C84.2826 64.7253 84.1801 64.7208 84.1465 64.6087C84.1046 64.4711 84.0702 64.3253 84.127 64.187C84.1569 64.1129 84.2482 64.1264 84.3207 64.1316C85.6568 64.2139 86.9923 64.2954 88.3277 64.3776C88.392 64.3814 88.4563 64.3896 88.5206 64.3978C88.8301 64.4359 88.8937 64.5511 88.7658 64.8405C88.6821 65.0289 88.5153 64.9242 88.4174 64.9474Z" fill="white"/>
<path fill-rule="evenodd" clip-rule="evenodd" d="M62.3749 50.9742C62.5035 51.3114 62.241 51.443 62.0519 51.6068C61.9606 51.686 61.8918 51.6015 61.8343 51.5395C61.3991 51.0609 60.9662 50.5809 60.5325 50.1009C60.3052 49.8504 60.0772 49.6022 59.8551 49.3479C59.7885 49.2724 59.6711 49.1857 59.7953 49.0773C59.9037 48.9823 60.0129 48.8657 60.1886 48.9958C60.8697 49.5012 61.5546 50.0014 62.2455 50.4927C62.4362 50.6288 62.3674 50.8112 62.3749 50.9742Z" fill="white"/>
<path fill-rule="evenodd" clip-rule="evenodd" d="M88.2845 66.2476C87.5719 66.1691 86.8646 66.0913 86.1565 66.0143C85.6495 65.9582 85.1411 65.9074 84.6349 65.8453C84.5011 65.8289 84.3448 65.8461 84.3149 65.6337C84.258 65.2404 84.282 65.2143 84.682 65.2629C85.8387 65.4019 86.9954 65.5335 88.1521 65.6696C88.209 65.6756 88.268 65.6793 88.3234 65.6913C88.4116 65.7108 88.535 65.6936 88.5566 65.8072C88.5828 65.941 88.5574 66.0816 88.4796 66.199C88.434 66.267 88.3503 66.2461 88.2845 66.2476Z" fill="white"/>
<path fill-rule="evenodd" clip-rule="evenodd" d="M58.8377 67.4806C58.8721 67.6459 58.7824 67.7506 58.6067 67.8336C57.6316 68.2927 56.6604 68.7607 55.6883 69.2288C55.559 69.2908 55.4565 69.3297 55.375 69.1548C55.2277 68.8318 55.2233 68.7697 55.4296 68.6717C56.4757 68.176 57.5225 67.6833 58.5708 67.1913C58.7839 67.0911 58.8377 67.1472 58.8377 67.4806Z" fill="white"/>
<path fill-rule="evenodd" clip-rule="evenodd" d="M84.2876 66.6491C84.2831 66.3844 84.3152 66.3552 84.547 66.3881C85.691 66.5526 86.835 66.7156 87.9798 66.8801C88.1091 66.8988 88.243 66.9055 88.2108 67.1067C88.1629 67.4125 88.13 67.4588 87.9057 67.4289C86.7879 67.2809 85.6716 67.1268 84.553 66.9825C84.3212 66.9526 84.2748 66.8158 84.2876 66.6491Z" fill="white"/>
<path fill-rule="evenodd" clip-rule="evenodd" d="M58.8376 68.6607C58.8713 68.8274 58.7755 68.9336 58.6088 69.0226C57.8103 69.4488 57.0154 69.8817 56.2244 70.3198C56.0554 70.4126 55.9559 70.3976 55.8662 70.2167C55.7234 69.9265 55.7159 69.8944 55.9275 69.7807C56.8136 69.3045 57.7003 68.8304 58.5879 68.3586C58.7845 68.2547 58.8384 68.3167 58.8376 68.6607Z" fill="white"/>
<path fill-rule="evenodd" clip-rule="evenodd" d="M84.2365 67.8791C84.2372 67.562 84.2612 67.5426 84.555 67.6002C85.536 67.7946 86.517 67.9882 87.498 68.1826C87.8165 68.2462 87.8726 68.3785 87.7111 68.6649C87.6453 68.783 87.5466 68.7561 87.4472 68.7367C86.6905 68.5931 85.9345 68.4488 85.1786 68.3045C84.952 68.2619 84.727 68.2095 84.4997 68.1796C84.2941 68.152 84.1976 68.06 84.2365 67.8791Z" fill="white"/>
<path fill-rule="evenodd" clip-rule="evenodd" d="M87.0137 69.931C86.7221 69.8584 86.4298 69.7852 86.1359 69.7119C85.5707 69.5713 85.0046 69.4322 84.4401 69.2887C84.2562 69.2423 84.1478 68.8625 84.2734 68.7249C84.3205 68.6726 84.3781 68.6853 84.4334 68.7002C85.3329 68.9298 86.2316 69.1593 87.1311 69.3904C87.247 69.4195 87.3143 69.4898 87.2635 69.6109C87.2111 69.7366 87.244 69.9362 87.0137 69.931Z" fill="white"/>
<path fill-rule="evenodd" clip-rule="evenodd" d="M58.8017 69.9701C58.8682 70.1667 58.7306 70.2699 58.5512 70.3731C57.9956 70.6916 57.4468 71.0236 56.8958 71.3511C56.7791 71.4206 56.6722 71.4894 56.575 71.3137C56.4075 71.0109 56.4008 70.9286 56.5862 70.8195C57.2068 70.4546 57.8281 70.0912 58.4517 69.7323C58.7807 69.5431 58.8047 69.5596 58.8017 69.9701Z" fill="white"/>
<path fill-rule="evenodd" clip-rule="evenodd" d="M84.2336 70.2059C84.2246 69.8912 84.259 69.8657 84.5229 69.9525C85.1563 70.1603 85.7911 70.366 86.4251 70.5753C86.5522 70.6172 86.7048 70.6419 86.6367 70.846C86.5358 71.1525 86.4939 71.1862 86.2427 71.1069C85.6677 70.9275 85.0949 70.7383 84.5177 70.5671C84.3061 70.5043 84.1842 70.4071 84.2336 70.2059Z" fill="white"/>
<path fill-rule="evenodd" clip-rule="evenodd" d="M58.8308 71.1886C58.8832 71.4025 58.7695 71.5214 58.5848 71.6238C58.1893 71.8436 57.802 72.0791 57.4139 72.3139C57.2704 72.4007 57.1746 72.3812 57.1148 72.2175C57.0902 72.1502 57.0528 72.0881 57.0184 72.0246C56.9638 71.9221 56.9915 71.8459 57.0887 71.789C57.6038 71.4885 58.1198 71.1879 58.6342 70.8858C58.7546 70.8155 58.8106 70.8731 58.8293 70.986C58.8398 71.0488 58.8308 71.1153 58.8308 71.1886Z" fill="white"/>
<path fill-rule="evenodd" clip-rule="evenodd" d="M63.2957 48.7008H63.1873C62.7245 48.7008 62.7245 48.7008 62.7192 48.4279C62.708 47.888 62.8949 47.6091 63.2808 47.5897C63.6 47.5733 63.8827 47.7998 63.8857 48.1056C63.8939 48.8264 63.9627 48.6851 63.2957 48.7008Z" fill="white"/>
<path fill-rule="evenodd" clip-rule="evenodd" d="M64.7348 53.7145C64.8059 53.7175 64.8418 53.7653 64.8791 53.8072C65.1692 54.1265 65.4586 54.4457 65.7472 54.765C65.8183 54.8428 65.893 54.9318 65.7898 55.0245C65.6747 55.1284 65.5723 55.3228 65.3801 55.2234C65.0877 55.0708 64.8126 54.8861 64.5315 54.7127C64.4746 54.6783 64.4081 54.605 64.4731 54.5571C64.7221 54.3784 64.6421 54.122 64.6556 53.8865C64.6586 53.8177 64.6421 53.7369 64.7348 53.7145Z" fill="white"/>
<path fill-rule="evenodd" clip-rule="evenodd" d="M84.2373 71.3891C84.2388 71.0594 84.2732 71.0339 84.5431 71.1431C84.9693 71.3158 85.3933 71.4915 85.8187 71.665C85.9518 71.7188 86.0759 71.7659 85.9952 71.9581C85.8763 72.237 85.8359 72.2699 85.6146 72.1824C85.234 72.0314 84.8579 71.8699 84.4743 71.7278C84.2904 71.6598 84.1969 71.5596 84.2373 71.3891Z" fill="white"/>
<path fill-rule="evenodd" clip-rule="evenodd" d="M58.8369 72.3385C58.8833 72.521 58.7741 72.6391 58.5946 72.7318C58.3898 72.8372 58.1991 72.9674 57.998 73.078C57.8223 73.176 57.6996 73.1079 57.5613 72.8739C57.4619 72.7071 57.5404 72.6316 57.6787 72.5539C57.9681 72.3924 58.2499 72.2211 58.5348 72.0536C58.7778 71.9108 58.8317 71.9407 58.8369 72.2196V72.3385Z" fill="white"/>
<path fill-rule="evenodd" clip-rule="evenodd" d="M62.4245 48.4113C62.4245 48.5594 62.4267 48.667 62.4238 48.7747C62.4223 48.827 62.4073 48.8771 62.3467 48.8906C62.2989 48.9003 62.2593 48.8771 62.2338 48.8412C62.002 48.513 61.7703 48.1833 61.5407 47.852C61.4914 47.781 61.5108 47.7137 61.5796 47.6643C61.6618 47.6068 61.7463 47.5514 61.8308 47.4969C61.9265 47.4348 62.0065 47.4542 62.0731 47.5447C62.2712 47.8161 62.5299 48.0636 62.4245 48.4113Z" fill="white"/>
<path fill-rule="evenodd" clip-rule="evenodd" d="M84.4001 72.2599C84.679 72.402 84.9721 72.5238 85.233 72.6951C85.3706 72.7855 85.2106 72.9104 85.165 73.0113C85.1231 73.1063 85.0573 73.1915 84.9324 73.1355C84.7365 73.048 84.5399 72.962 84.3507 72.861C84.2363 72.8005 84.2034 72.3967 84.2954 72.3092C84.3201 72.2868 84.3567 72.2793 84.4001 72.2599Z" fill="white"/>
<path fill-rule="evenodd" clip-rule="evenodd" d="M64.1471 55.5101C64.1471 55.46 64.1419 55.4091 64.1479 55.3598C64.1628 55.2387 64.2227 55.1848 64.3333 55.2656C64.5068 55.3919 64.6758 55.5243 64.8433 55.6581C64.9233 55.7217 64.9375 55.8121 64.8679 55.8839C64.7805 55.9737 64.7304 56.1434 64.5554 56.0925C64.3176 56.0237 64.1441 55.7688 64.1471 55.5101Z" fill="white"/>
<path fill-rule="evenodd" clip-rule="evenodd" d="M63.3907 47.3103C63.1417 47.3963 63.0363 47.2026 62.9383 47.0007C62.892 46.9058 62.9121 46.8325 63.0101 46.7884C63.1021 46.748 63.1963 46.7114 63.289 46.6732C63.3847 46.6336 63.4565 46.6642 63.5073 46.751C63.5679 46.8572 63.6329 46.9611 63.6883 47.0695C63.7937 47.2744 63.7615 47.3237 63.532 47.3185C63.4961 47.3177 63.4602 47.314 63.3907 47.3103Z" fill="white"/>
<path fill-rule="evenodd" clip-rule="evenodd" d="M58.8377 73.5136C58.8257 73.6115 58.8751 73.7431 58.7569 73.8187C58.6664 73.8762 58.57 73.9966 58.4519 73.9076C58.3218 73.8089 58.2208 73.6721 58.2059 73.4964C58.2014 73.4411 58.25 73.4097 58.2941 73.3835C58.3502 73.3513 58.407 73.3207 58.4623 73.2885C58.8055 73.0919 58.8377 73.1098 58.8377 73.5136Z" fill="white"/>
<path fill-rule="evenodd" clip-rule="evenodd" d="M63.9177 91.0751C63.9224 90.7919 63.9283 90.511 63.9694 90.229C64.0399 89.7448 64.2373 89.5792 64.7109 89.7037C65.4336 89.8929 66.1633 89.9082 66.9013 89.8906C69.0552 89.8353 71.0353 89.1867 72.9001 88.1373C74.0177 87.5098 75.067 86.7824 76.0788 85.9963C76.3126 85.8153 76.5547 85.6508 76.8344 85.5474C76.9178 85.5168 77.0142 85.4745 77.0917 85.5439C77.174 85.6179 77.134 85.7142 77.0929 85.7942C76.8955 86.1808 76.6769 86.545 76.2468 86.7272C75.7697 86.9293 75.416 87.3124 75.0106 87.6179C73.3678 88.8553 71.651 89.9669 69.6921 90.6461C68.0811 91.2055 66.4312 91.4981 64.7214 91.2149C64.4241 91.1655 64.3842 91.3347 64.3466 91.558C64.1433 92.7531 63.7097 93.8401 62.866 94.7425C62.2949 95.3536 61.6027 95.7461 60.7802 95.8448C60.1844 95.9176 59.3736 95.5487 59.0962 94.7296C58.8777 94.081 58.9364 93.437 59.1127 92.7919C59.2361 92.343 59.4018 91.9094 59.591 91.4863C59.6333 91.3923 59.6603 91.2055 59.7872 91.2572C59.9494 91.3218 59.8119 91.4746 59.7813 91.578C59.7038 91.8494 59.5851 92.1103 59.5205 92.3841C59.222 93.6332 59.9834 94.4582 61.269 94.3536C62.873 94.2231 63.8695 92.6215 63.9165 91.585C63.9247 91.4158 63.9177 91.2454 63.9177 91.0751Z" fill="white"/>
<path fill-rule="evenodd" clip-rule="evenodd" d="M82.1947 92.9626C81.6131 92.9826 81.0502 92.9415 80.492 92.8393C80.1101 92.7676 79.7529 92.6407 79.4262 92.4221C79.0701 92.1836 78.9221 92.2223 78.66 92.5702C78.4767 92.8134 78.3005 93.0649 78.096 93.2893C77.8563 93.5525 77.5507 93.7218 77.1853 93.6125C76.8187 93.5032 76.7246 93.1777 76.6718 92.8404C76.5637 92.133 76.707 91.4421 76.8116 90.7499C76.9538 89.8005 77.0549 88.8392 77.4614 87.9497C77.4896 87.8886 77.512 87.8239 77.539 87.7617C77.566 87.7017 77.5836 87.6171 77.6694 87.6347C77.7587 87.6535 77.7446 87.7417 77.7352 87.8051C77.6812 88.1859 77.6236 88.5654 77.5672 88.9462C77.4673 89.6066 77.3616 90.2658 77.2699 90.9262C77.2417 91.1271 77.2452 91.3328 77.2487 91.5361C77.2534 91.8651 77.4215 92.1048 77.72 92.2176C78.0408 92.3375 78.324 92.2282 78.5437 91.9732C78.7423 91.7429 78.9139 91.4891 79.1536 91.2928C79.3639 91.1189 79.5848 91.0543 79.8457 91.1506C81.901 91.9156 83.9574 91.5737 85.9962 91.1095C88.0796 90.6348 89.9316 89.6453 91.6543 88.3974C92.0197 88.133 92.4063 87.8956 92.7906 87.6547C92.8999 87.5866 93.0397 87.4691 93.1608 87.5772C93.2983 87.7017 93.1737 87.8533 93.1161 87.9802C92.9974 88.2411 92.8411 88.4996 92.5814 88.623C91.6402 89.0695 90.8869 89.7899 90.0244 90.3492C88.102 91.5948 86.0444 92.4973 83.7705 92.8616C83.2453 92.9462 82.7141 92.9873 82.1947 92.9626Z" fill="white"/>
<path fill-rule="evenodd" clip-rule="evenodd" d="M47.3975 92.6667C47.4433 91.4799 47.8569 90.4352 48.3998 89.4305C48.5126 89.2225 48.6348 89.018 48.7629 88.8183C48.8146 88.7384 48.8875 88.6208 49.0015 88.7008C49.0943 88.7654 49.0179 88.87 48.9803 88.9452C48.7277 89.4387 48.4868 89.937 48.2941 90.4587C48.1636 90.8101 48.0614 91.1673 48.0026 91.5374C47.8699 92.3612 48.3681 93.0134 49.1989 93.0557C50.1918 93.1062 50.9369 92.6432 51.4798 91.8371C51.6584 91.5727 51.609 91.3906 51.3023 91.3259C50.3787 91.132 50.3846 90.615 50.6372 89.8594C51.0168 88.7231 51.7312 87.8136 52.6748 87.085C52.8958 86.9134 53.1719 86.7007 53.4363 86.9405C53.7183 87.1966 53.4598 87.4634 53.3258 87.6972C53.1602 87.9851 52.9827 88.266 52.5608 88.1696C52.4692 88.1496 52.3435 88.2272 52.2518 88.2871C51.8288 88.5656 51.4974 88.9311 51.2295 89.36C51.0696 89.6138 51.1296 89.8218 51.3999 89.89C52.112 90.0697 52.1249 90.4281 52.025 91.1367C51.8605 92.2778 51.2941 93.2143 50.441 93.9817C50.3728 94.0416 50.3 94.0956 50.2224 94.1438C49.5784 94.5469 48.8957 94.6996 48.1989 94.3283C47.5326 93.9746 47.4233 93.3189 47.3975 92.6667Z" fill="white"/>
<path fill-rule="evenodd" clip-rule="evenodd" d="M75.2716 91.092C75.1494 90.4786 75.3833 89.8664 75.6536 89.2624C75.6935 89.1731 75.7382 89.0556 75.8627 89.0767C75.9556 89.0908 75.9532 89.1954 75.952 89.2741C75.9297 90.7395 75.8674 92.199 75.0448 93.4916C74.4867 94.3647 73.8298 95.1273 72.7934 95.4505C72.4056 95.5715 72.0096 95.5868 71.6183 95.5139C70.6852 95.34 70.1929 94.555 70.308 93.4563C70.395 92.6337 70.6852 91.8758 71.0765 91.1555C71.1259 91.065 71.1788 90.8958 71.3069 90.9686C71.4302 91.038 71.3092 91.1707 71.2704 91.2683C71.0859 91.7183 70.8956 92.1637 70.8392 92.6549C70.7616 93.3259 71.0871 93.8276 71.744 94.0086C72.9567 94.3435 74.4914 93.6678 75.0813 92.555C75.3175 92.1073 75.2669 91.6337 75.2716 91.092Z" fill="white"/>
<path fill-rule="evenodd" clip-rule="evenodd" d="M56.0629 91.1596C56.6564 91.1185 57.1017 90.9634 57.4672 90.6108C57.6458 90.4393 57.5659 90.3453 57.3661 90.283C57.2439 90.2454 57.144 90.2936 57.0442 90.3453C56.6869 90.5274 56.4166 90.8141 56.0629 91.1596ZM53.3849 93.0045C52.6834 93.0574 52.4284 92.7401 52.6411 92.1009C52.7022 91.9187 52.775 91.7389 52.8596 91.5674C52.9548 91.3747 53.0641 91.169 53.3214 91.1737C53.5753 91.1784 53.721 91.3547 53.8491 91.5509C53.9278 91.672 53.8914 91.9011 54.0488 91.9129C54.238 91.9258 54.3379 91.719 54.4542 91.5838C54.6082 91.4029 54.748 91.2102 54.8984 91.0257C55.0594 90.8259 55.2498 90.7742 55.4507 90.9622C55.6763 91.1725 55.8455 91.102 56.0124 90.8846C56.2192 90.6167 56.4307 90.3512 56.6517 90.0926C56.7986 89.9211 56.9537 89.7542 57.1217 89.605C57.345 89.4064 57.587 89.2054 57.9067 89.397C58.2146 89.5803 58.1969 89.8893 58.1546 90.1855C58.0312 91.0456 56.9748 92.1538 56.1287 92.3241C55.7245 92.4064 55.3579 92.3664 55.1146 91.9763C54.9877 91.773 54.8749 91.7965 54.7245 91.9716C54.3344 92.4229 53.909 92.8341 53.681 93.4146C53.4166 94.0833 52.7809 94.256 52.1581 94.4123C52.057 94.4381 51.9383 94.4628 51.8913 94.3418C51.842 94.2161 51.963 94.1632 52.0465 94.1138C52.4389 93.8847 52.7973 93.6085 53.1416 93.3148C53.2357 93.2348 53.3391 93.1632 53.3849 93.0045Z" fill="white"/>
<path fill-rule="evenodd" clip-rule="evenodd" d="M66.5713 94.1604C66.2505 94.7421 65.7546 94.9771 65.1647 95.05C65.0437 95.0653 64.885 95.1146 64.8369 94.9654C64.7969 94.8408 64.9426 94.7809 65.0319 94.7174C65.1788 94.6129 65.3292 94.5106 65.4808 94.4131C66.2164 93.943 66.7687 93.3191 67.0942 92.5024C67.1577 92.3449 67.2282 92.1898 67.301 92.037C67.3351 91.9665 67.3845 91.8843 67.4797 91.9313C67.5513 91.9654 67.5325 92.0488 67.5161 92.1146C67.4562 92.332 67.3892 92.5482 67.408 92.7797C67.4362 93.1287 67.6501 93.4013 67.9579 93.473C68.341 93.56 68.9062 93.399 69.0449 93.1546C69.1542 92.9618 69.0237 92.9031 68.871 92.9031C68.7382 92.9019 68.6042 92.9583 68.4714 92.9618C68.1154 92.9748 67.8874 92.6904 68.0002 92.359C68.1224 91.9947 68.2858 91.6434 68.5138 91.3308C68.7629 90.9912 69.0555 90.9877 69.3199 91.3226C69.8028 91.9336 69.7629 92.6011 69.4997 93.2803C69.3516 93.6622 69.1389 94.0089 68.8792 94.3273C68.1365 95.2415 67.2153 95.1945 66.5713 94.1604Z" fill="white"/>
<path fill-rule="evenodd" clip-rule="evenodd" d="M92.2981 86.9924C92.1383 86.9806 92.0573 86.9865 91.9809 86.9665C91.5766 86.8549 91.1971 86.8948 90.8504 87.1439C90.7964 87.1827 90.727 87.2356 90.6648 87.1921C90.5825 87.1357 90.6307 87.0499 90.6542 86.9759C90.8775 86.2603 91.626 85.782 92.3722 85.8584C93.2547 85.9477 94.0185 85.6492 94.6954 85.1016C94.7576 85.0511 94.8082 84.9876 94.8693 84.9383C94.9527 84.869 95.0385 84.7385 95.1548 84.8184C95.2935 84.9136 95.1901 85.0476 95.1325 85.1486C94.4932 86.2849 93.4885 86.8455 92.2981 86.9924Z" fill="white"/>
<path fill-rule="evenodd" clip-rule="evenodd" d="M81.0218 87.6727C80.956 88.0217 80.7739 88.3014 80.4789 88.4964C80.305 88.6116 80.1757 88.4624 80.07 88.3531C79.8702 88.1439 79.728 88.1533 79.5823 88.4154C79.4907 88.5787 79.372 88.7949 79.1546 88.7456C78.8914 88.6845 78.6845 88.4859 78.5177 88.2685C78.4566 88.1886 78.5188 88.0946 78.5635 88.0158C78.6693 87.829 78.7691 87.6374 78.8843 87.4565C79.0935 87.1263 79.2086 87.0934 79.4965 87.3566C79.7351 87.5752 79.8761 87.6069 80.043 87.2896C80.1276 87.1286 80.2298 86.8783 80.5012 87.0099C80.7727 87.1404 80.9948 87.3319 81.0218 87.6727Z" fill="white"/>
<path fill-rule="evenodd" clip-rule="evenodd" d="M70.5349 86.633C70.4926 86.9397 70.2963 87.2111 70.0108 87.4097C69.8251 87.5378 69.6888 87.3627 69.5748 87.2534C69.3762 87.0619 69.2458 87.0854 69.1083 87.3216C69.0096 87.492 68.8933 87.7152 68.65 87.6482C68.3985 87.5789 68.2046 87.3886 68.0401 87.1864C67.9849 87.1183 68.0331 87.0313 68.0707 86.9632C68.1753 86.7763 68.2775 86.5871 68.3938 86.4073C68.6289 86.0395 68.7499 86.0078 69.0777 86.3145C69.3034 86.526 69.4032 86.479 69.5478 86.2428C69.6441 86.0865 69.7158 85.8409 69.9908 85.9079C70.2587 85.9737 70.5337 86.3192 70.5349 86.633Z" fill="white"/>
<path fill-rule="evenodd" clip-rule="evenodd" d="M92.4843 89.2431C92.2646 90.3512 92.2845 91.5286 91.979 92.6591C91.9109 92.9106 91.8027 93.1479 91.6606 93.3677C91.6194 93.4299 91.583 93.5275 91.4855 93.4934C91.3879 93.4582 91.4232 93.3583 91.4314 93.2854C91.5113 92.5451 91.623 91.806 91.6723 91.0633C91.717 90.3911 91.9297 89.7836 92.2364 89.1984C92.2763 89.122 92.3022 89.0116 92.4185 89.0351C92.5066 89.0539 92.4773 89.1444 92.4843 89.2431Z" fill="white"/>
<path fill-rule="evenodd" clip-rule="evenodd" d="M56.1664 94.4667C56.0771 94.4714 55.9713 94.4855 55.929 94.3856C55.8844 94.2822 55.9678 94.2093 56.0453 94.1682C57.2063 93.556 57.8891 92.5677 58.2851 91.3491C58.3109 91.2669 58.3521 91.1482 58.4602 91.1787C58.6035 91.2175 58.5377 91.3444 58.5142 91.4361C58.3297 92.1729 58.0853 92.885 57.7269 93.5607C57.3897 94.1976 56.8385 94.4255 56.1664 94.4667Z" fill="white"/>
<path fill-rule="evenodd" clip-rule="evenodd" d="M73.9287 91.5916C73.8888 91.8795 73.7231 92.1544 73.4869 92.3895C73.3941 92.4811 73.2718 92.4553 73.172 92.3953C72.4951 91.9899 72.4023 92.0346 72.8018 91.2367C72.9052 91.0299 72.9875 90.7431 73.3318 90.836C73.6385 90.9194 73.924 91.2602 73.9287 91.5916Z" fill="white"/>
<path fill-rule="evenodd" clip-rule="evenodd" d="M57.3545 87.8914C57.3121 88.157 57.1559 88.4096 56.9255 88.62C56.828 88.7081 56.7175 88.6846 56.613 88.6223C56.4884 88.5471 56.3662 88.466 56.2405 88.3932C56.0477 88.2827 56.0007 88.1206 56.11 87.9384C56.2875 87.647 56.291 87.1934 56.7328 87.1382C56.9972 87.1065 57.3568 87.5577 57.3545 87.8914Z" fill="white"/>
<rect x="0.5" y="0.5" width="139" height="139" stroke="#4A4E57"/>
</svg>
