<svg width="49" height="52" viewBox="0 0 49 52" fill="none" xmlns="http://www.w3.org/2000/svg">
<path fill-rule="evenodd" clip-rule="evenodd" d="M16.8909 20.4019C16.8909 23.4854 16.8924 26.5682 16.8872 29.6511C16.8872 29.8597 16.9328 30.0182 17.0965 30.1617C17.5915 30.5917 18.0686 31.0411 18.5591 31.4747C18.6608 31.5652 18.7026 31.6594 18.7026 31.7918C18.7004 33.2902 18.6996 34.7886 18.7034 36.287C18.7034 36.4455 18.6488 36.5577 18.5307 36.6608C18.1463 36.9966 17.7545 37.3271 17.4046 37.7009C17.2805 37.8333 17.1803 37.8138 17.0577 37.7009C16.6651 37.3405 16.2688 36.9839 15.8718 36.6294C15.7828 36.5509 15.7514 36.4612 15.7514 36.3446C15.7537 34.7953 15.7529 33.2468 15.7537 31.6983C15.7537 31.637 15.7297 31.5577 15.8 31.5218C15.8733 31.4837 15.9197 31.5532 15.966 31.5929C16.2419 31.8351 16.5133 32.0826 16.7915 32.3219C16.8992 32.4153 16.9021 32.5312 16.9014 32.6561C16.9006 33.7149 16.9006 34.7736 16.9006 35.8324C16.9006 35.9483 16.8842 36.0724 16.9971 36.1472C17.0846 36.2062 17.128 36.3819 17.2648 36.3079C17.4046 36.2324 17.5332 36.1307 17.5317 35.9251C17.525 34.9456 17.5295 33.9661 17.5295 32.9866C17.5295 32.7847 17.5115 32.5813 17.5325 32.3817C17.5609 32.117 17.4584 31.9391 17.2618 31.7701C16.203 30.8579 15.1592 29.9307 14.0975 29.0222C13.8634 28.8218 13.7662 28.6132 13.77 28.3014C13.7872 26.9406 13.7782 25.5783 13.7775 24.2174C13.7775 23.9909 13.607 23.7045 13.4739 23.7045C13.3386 23.7045 13.1688 23.9886 13.1688 24.2174C13.1688 28.273 13.1651 32.3286 13.1748 36.3842C13.1756 36.7005 13.1023 36.9315 12.8481 37.1259C12.62 37.3001 12.4211 37.5117 12.208 37.7061C12.1676 37.7435 12.1273 37.8004 12.0615 37.7704C12.0002 37.7428 12.0009 37.6777 11.9987 37.6202C11.9964 37.5693 11.9972 37.5192 11.9972 37.4684C11.9972 32.9305 11.9987 28.3927 11.9927 23.8541C11.9927 23.6335 12.0495 23.475 12.22 23.3307C12.5811 23.0219 12.9251 22.6936 13.2787 22.3758C13.4799 22.1956 13.5023 22.2039 13.7019 22.3923C14.0429 22.7123 14.3846 23.0331 14.7375 23.3404C14.8923 23.475 14.9544 23.6193 14.9536 23.8256C14.9454 25.2306 14.9529 26.6348 14.9454 28.0397C14.9439 28.2386 15.0015 28.3822 15.1577 28.5026C15.2998 28.6125 15.4254 28.7433 15.5615 28.8615C15.5974 28.8921 15.6325 28.9475 15.6901 28.9161C15.7312 28.8921 15.7178 28.839 15.7185 28.7972C15.7208 28.7246 15.72 28.6529 15.72 28.5811V11.2708C15.72 11.1841 15.7238 11.0974 15.7193 11.0114C15.7081 10.8402 15.7709 10.7594 15.9548 10.7684C16.1918 10.7788 16.4303 10.7781 16.6674 10.7684C16.8423 10.7616 16.8999 10.8402 16.8924 11.0009C16.8864 11.131 16.8909 11.2604 16.8909 11.3905V20.4019Z" fill="white"/>
<path fill-rule="evenodd" clip-rule="evenodd" d="M21.21 34.0139C21.2108 33.258 21.2093 32.5013 21.2115 31.7453C21.2123 31.6631 21.1823 31.5524 21.281 31.5158C21.3648 31.4836 21.4171 31.5786 21.4747 31.6287C21.7237 31.847 21.9652 32.0743 22.2202 32.2852C22.3443 32.3884 22.3854 32.5028 22.3839 32.659C22.3794 33.7036 22.3817 34.7482 22.3817 35.792C22.3817 36.0409 22.5551 36.3198 22.7024 36.3116C22.846 36.3034 23.012 36.0312 23.012 35.8024C23.012 34.6136 23.009 33.4255 23.0142 32.2366C23.015 32.0788 22.9701 31.9652 22.8505 31.8612C22.3682 31.4395 21.8957 31.0074 21.4111 30.5871C21.2631 30.4593 21.1958 30.3239 21.1958 30.1236C21.2018 27.5813 21.1906 25.0384 21.2048 22.4962C21.2108 21.5526 21.2698 20.6127 21.7005 19.7364C21.9742 19.1801 22.4056 18.7613 22.8213 18.3232C23.492 17.6196 24.3556 17.2121 25.1856 16.7515C26.4515 16.0494 27.7196 15.3525 28.9832 14.6459C29.1268 14.5652 29.2382 14.5562 29.3773 14.6482C29.5201 14.7432 29.6793 14.8142 29.8311 14.8972C29.8812 14.9241 29.9545 14.9428 29.9582 15.0026C29.9642 15.0804 29.879 15.0961 29.8251 15.126C28.904 15.6322 27.9805 16.1346 27.0601 16.6431C26.0903 17.1784 25.1116 17.6944 24.2248 18.374C23.1713 19.1801 22.6052 20.2358 22.4348 21.5301C22.3817 21.9301 22.348 22.3309 22.348 22.7347C22.3495 25.0541 22.3503 27.3727 22.3465 29.6921C22.3458 29.8701 22.3884 29.9979 22.5312 30.1206C23.0382 30.5572 23.5294 31.0133 24.0319 31.456C24.1291 31.5412 24.1627 31.6309 24.1627 31.7551C24.1597 33.2677 24.1597 34.7803 24.1627 36.2929C24.1627 36.4245 24.1283 36.5262 24.0289 36.6167C23.6274 36.9778 23.2124 37.324 22.8393 37.7158C22.748 37.8123 22.6628 37.7966 22.5768 37.7196C22.1484 37.3345 21.7222 36.9479 21.2938 36.5621C21.201 36.4791 21.2108 36.3692 21.2108 36.2615C21.21 35.5123 21.21 34.7631 21.21 34.0139Z" fill="white"/>
<path fill-rule="evenodd" clip-rule="evenodd" d="M19.3495 29.8899C19.3495 27.4486 19.3435 25.0066 19.3532 22.5653C19.3555 22.0061 19.3637 21.4423 19.4661 20.8875C19.6725 19.7786 20.1047 18.7924 20.9511 18.0043C21.7586 17.2529 22.6581 16.6412 23.6286 16.1246C24.9566 15.4172 26.286 14.7136 27.6102 13.9981C27.8121 13.8889 27.9743 13.8777 28.1665 14.0078C28.3272 14.1162 28.5097 14.1902 28.6809 14.2822C28.7362 14.3121 28.8207 14.3271 28.8252 14.3988C28.8304 14.4781 28.7407 14.4856 28.6861 14.5147C27.7904 14.991 26.8931 15.4658 25.9959 15.9406C25.2063 16.3571 24.3935 16.7369 23.6331 17.1998C22.783 17.7157 21.959 18.2899 21.455 19.1894C20.9847 20.0306 20.7477 20.9488 20.664 21.9044C20.5959 22.6797 20.6213 23.4581 20.6213 24.2357C20.6206 28.2689 20.6191 32.302 20.6251 36.3344C20.6251 36.5408 20.569 36.6844 20.4105 36.8182C20.1084 37.0724 19.8228 37.3491 19.5297 37.6153C19.493 37.6482 19.4586 37.7035 19.4048 37.687C19.3353 37.6654 19.354 37.5928 19.3502 37.5383C19.3465 37.4882 19.3495 37.4373 19.3495 37.3872V29.8899Z" fill="white"/>
<path fill-rule="evenodd" clip-rule="evenodd" d="M35.077 25.9359C35.077 27.2317 35.0785 28.5282 35.074 29.8247C35.0733 29.9324 35.1137 29.9989 35.1869 30.0647C35.6984 30.5193 36.2046 30.9799 36.719 31.4308C36.8267 31.525 36.8723 31.6215 36.8715 31.7635C36.8685 33.2761 36.8685 34.7888 36.8708 36.3014C36.8715 36.4337 36.8334 36.5302 36.7347 36.6229C36.3451 36.9863 35.9219 37.3123 35.5608 37.7063C35.4666 37.8095 35.3776 37.802 35.2819 37.7153C34.855 37.3295 34.428 36.9429 34.0003 36.5571C33.9278 36.4921 33.9211 36.4076 33.9211 36.3201C33.9211 34.7858 33.9211 33.2515 33.9218 31.7172C33.9218 31.6469 33.9084 31.5594 33.9779 31.5198C34.0594 31.4749 34.108 31.5587 34.1581 31.6028C34.4295 31.8398 34.6935 32.0843 34.9671 32.3191C35.0793 32.4163 35.0935 32.5337 35.0935 32.6683C35.0927 33.7195 35.0927 34.7708 35.0935 35.8229C35.0935 35.9148 35.0688 36.0188 35.1398 36.092C35.2258 36.181 35.3013 36.3492 35.4382 36.2947C35.5825 36.2363 35.7223 36.1242 35.7223 35.9238C35.7201 34.6706 35.7193 33.4175 35.7231 32.1643C35.7238 32.0327 35.6587 31.9505 35.5705 31.8712C35.0823 31.4345 34.5985 30.9919 34.1035 30.5627C33.9652 30.4431 33.9069 30.3197 33.9069 30.1373C33.9106 27.5375 33.9173 24.9369 33.9061 22.3371C33.9009 21.0227 33.388 19.8996 32.4989 18.9508C32.0705 18.4947 31.6054 18.0722 31.1501 17.643C30.999 17.5002 31.0222 17.4277 31.1957 17.3305C31.6114 17.0964 31.6144 17.0822 31.9718 17.3948C32.8025 18.1216 33.5876 18.8939 34.179 19.8368C34.5708 20.4626 34.8744 21.1318 35.0299 21.8556C35.086 22.1203 35.083 22.4 35.0838 22.6729C35.0897 23.7608 35.0867 24.848 35.0867 25.9359H35.077Z" fill="white"/>
<path fill-rule="evenodd" clip-rule="evenodd" d="M29.6427 27.1675C29.6427 28.0243 29.6449 28.8812 29.6397 29.7381C29.639 29.8944 29.6838 30.0103 29.8035 30.1149C30.2857 30.5367 30.7583 30.9703 31.2435 31.389C31.3923 31.5169 31.4566 31.6537 31.4559 31.8526C31.4492 33.3002 31.4492 34.7478 31.4559 36.1953C31.4566 36.4077 31.3879 36.5535 31.2241 36.6948C30.848 37.0186 30.4667 37.3386 30.128 37.7035C30.0435 37.7939 29.965 37.8156 29.87 37.7296C29.4378 37.3393 29.0064 36.9468 28.5742 36.555C28.5077 36.4959 28.5032 36.4189 28.5032 36.3374C28.5039 34.7889 28.5032 33.2411 28.5047 31.6926C28.5047 31.6313 28.48 31.5513 28.5555 31.5191C28.6273 31.4885 28.6752 31.552 28.7223 31.5932C28.9922 31.8317 29.2569 32.0754 29.5305 32.3102C29.636 32.4014 29.6524 32.5106 29.6524 32.6385C29.6502 33.7047 29.6509 34.7702 29.6517 35.8364C29.6517 35.9351 29.6285 36.0465 29.7197 36.1191C29.8087 36.1908 29.87 36.3583 30.0091 36.291C30.1459 36.2245 30.2797 36.1206 30.2797 35.9314C30.2783 34.6707 30.2783 33.4109 30.2797 32.1502C30.2797 32.0313 30.2274 31.9498 30.1407 31.8728C29.6322 31.4257 29.1305 30.9718 28.6213 30.5277C28.4905 30.4133 28.4695 30.2779 28.4703 30.1217C28.4718 28.4214 28.471 26.7218 28.471 25.0223C28.471 24.9004 28.4875 24.7688 28.3686 24.6881C28.2901 24.6342 28.225 24.4884 28.1271 24.552C28.003 24.6312 27.8459 24.712 27.8504 24.9079C27.8534 25.044 27.8407 25.1808 27.84 25.3176C27.8392 26.4773 27.84 27.6363 27.84 28.796C27.84 28.8536 27.8407 28.9119 27.8385 28.9695C27.834 29.0891 27.7816 29.1399 27.6792 29.0517C27.3689 28.7833 27.0638 28.5096 26.758 28.2352C26.6877 28.1716 26.6907 28.0804 26.6907 27.9929C26.6907 26.8407 26.6922 25.6885 26.6885 24.5363C26.6877 24.4084 26.7341 24.3202 26.8268 24.2379C27.2134 23.8925 27.5977 23.5441 27.9775 23.1926C28.1159 23.064 28.2213 23.0401 28.3746 23.1919C28.7223 23.5358 29.0872 23.8633 29.4535 24.1871C29.5896 24.3067 29.6472 24.4361 29.6457 24.6178C29.6382 25.4679 29.642 26.3173 29.6427 27.1675Z" fill="white"/>
<path fill-rule="evenodd" clip-rule="evenodd" d="M24.7003 29.9323C24.7003 27.5337 24.6898 25.135 24.7055 22.7371C24.713 21.5527 25.0831 20.4768 25.7927 19.5205C26.4252 18.6681 27.2619 18.0736 28.1771 17.5644C29.1589 17.0186 30.1272 16.4489 31.1037 15.8941C31.2113 15.8327 31.3183 15.7094 31.4551 15.7737C31.6884 15.8836 31.9441 15.9696 32.1161 16.1715C32.2036 16.2739 32.069 16.3158 32.0039 16.3546C31.4342 16.6919 30.8622 17.0268 30.2909 17.3611C29.6688 17.7237 29.0355 18.0691 28.4261 18.4527C27.6313 18.9537 26.9277 19.5631 26.5097 20.4267C26.1807 21.1041 25.9751 21.8264 25.9744 22.5891C25.9714 27.1479 25.9706 31.7074 25.9781 36.2669C25.9781 36.5114 25.9146 36.6827 25.7209 36.8397C25.4315 37.076 25.1698 37.3459 24.8939 37.5993C24.8491 37.6405 24.8065 37.7175 24.7339 37.6771C24.6793 37.6465 24.701 37.5724 24.701 37.5171C24.7003 36.501 24.7003 35.4856 24.7003 34.4702V29.9323Z" fill="white"/>
<path fill-rule="evenodd" clip-rule="evenodd" d="M32.0111 29.6749C32.0111 27.1611 32.0171 24.6466 32.0089 22.1327C32.0051 21.1046 31.5924 20.2186 30.989 19.4096C30.6891 19.0096 30.3056 18.6903 29.9429 18.3508C29.8218 18.2372 29.8001 18.1796 29.9609 18.0899C30.6705 17.6906 30.42 17.6502 30.9942 18.199C31.5991 18.7778 32.1719 19.3894 32.5756 20.1311C32.8852 20.7009 33.1566 21.2908 33.268 21.9383C33.2807 22.0154 33.2815 22.0961 33.2815 22.1746C33.2822 26.8859 33.2807 31.5973 33.2867 36.3086C33.2867 36.5314 33.2216 36.6884 33.0549 36.8305C32.7648 37.078 32.4896 37.3434 32.2063 37.5991C32.1614 37.6388 32.1218 37.7173 32.047 37.6784C31.9879 37.6477 32.0096 37.5745 32.0096 37.5199C32.0081 37.1378 32.0089 36.7565 32.0089 36.3744V29.6749H32.0111Z" fill="white"/>
<path fill-rule="evenodd" clip-rule="evenodd" d="M17.5289 25.2654C17.5289 24.0122 17.5132 22.759 17.5327 21.5059C17.5559 19.9342 18.0867 18.5532 19.1537 17.3852C19.8842 16.5859 20.7695 16.005 21.7356 15.5369C23.219 14.8183 24.7092 14.1103 26.1829 13.373C26.4932 13.2182 26.7385 13.1943 27.0092 13.4112C27.1288 13.5076 27.3733 13.542 27.3703 13.6736C27.3673 13.8104 27.1303 13.8441 26.9935 13.9151C25.2962 14.8004 23.5764 15.6476 21.9001 16.571C20.7419 17.2088 19.8633 18.1464 19.304 19.3734C18.8285 20.4157 18.6901 21.5029 18.6969 22.6327C18.7103 25.1383 18.7013 27.6446 18.6984 30.1509C18.6984 30.2668 18.7544 30.4335 18.6311 30.4851C18.5249 30.53 18.4434 30.3797 18.3589 30.3072C18.1406 30.1195 17.9327 29.9191 17.7106 29.7367C17.5753 29.626 17.5245 29.5011 17.5252 29.3269C17.5312 27.9728 17.5289 26.6195 17.5289 25.2654Z" fill="white"/>
<path fill-rule="evenodd" clip-rule="evenodd" d="M35.7725 13.4867C34.8371 13.8613 33.9025 14.2382 32.9656 14.6105C32.665 14.7309 32.594 14.6875 32.5155 14.3982C32.4758 14.2524 32.5573 14.1836 32.6485 14.1103C33.2946 13.5921 33.9413 13.0747 34.5866 12.5566C35.2267 12.0436 35.8652 11.5307 36.5045 11.017C36.4708 10.9714 36.4439 11.0013 36.4252 11.0133C35.0853 11.8313 33.7469 12.6508 32.4063 13.4673C32.2769 13.5458 32.1431 13.7208 31.995 13.4822C31.853 13.2512 31.8672 13.1749 32.1199 13.0149C33.2579 12.2949 34.3967 11.5771 35.5355 10.8578C36.6309 10.1654 37.727 9.47376 38.8224 8.77988C39.1282 8.58547 39.1312 8.58323 39.3092 8.8883C39.3204 8.90699 39.3323 8.92494 39.3428 8.94363C39.5155 9.22402 39.511 9.21879 39.2673 9.42964C37.9797 10.5392 36.6952 11.6511 35.4106 12.7629C35.3941 12.7764 35.3829 12.7958 35.3261 12.8661C35.4599 12.8123 35.5392 12.7801 35.6177 12.7495C37.1169 12.1543 38.616 11.5591 40.1152 10.9654C40.3672 10.8652 40.4143 10.8937 40.504 11.1254C40.5571 11.2623 40.4905 11.3228 40.3926 11.3871C39.4251 12.0257 38.4575 12.6642 37.49 13.3043C36.9995 13.6295 36.509 13.9563 36.0319 14.3182C36.3542 14.2359 36.6765 14.1552 36.9995 14.0729C38.3169 13.7365 39.6359 13.3992 40.9549 13.0643C41.0401 13.0426 41.1538 12.976 41.2083 13.0867C41.2779 13.2317 41.3646 13.3895 41.322 13.5563C41.2973 13.6535 41.1702 13.6535 41.0827 13.6774C40.0539 13.9563 39.025 14.2314 37.9969 14.5111C36.4125 14.9425 34.8304 15.3784 33.2467 15.8099C32.9992 15.8779 32.9102 15.8181 32.8856 15.5983C32.8706 15.4726 32.9491 15.4173 33.0344 15.3597C33.9077 14.775 34.7818 14.1896 35.6551 13.6049C35.7014 13.5735 35.7486 13.5406 35.7942 13.5077C35.7874 13.5009 35.78 13.4934 35.7725 13.4867Z" fill="white"/>
<path fill-rule="evenodd" clip-rule="evenodd" d="M27.5326 6.43547C27.3001 7.34918 27.0705 8.26288 26.835 9.17658C26.8028 9.30145 26.8006 9.46445 26.5957 9.44426C26.3041 9.41585 26.2316 9.35603 26.2204 9.10405C26.1732 8.03258 26.1291 6.96186 26.082 5.89039C26.0544 5.29372 26.0222 4.69779 25.9788 4.10112C25.8891 5.2167 25.8001 6.33154 25.7089 7.44712C25.6685 7.94211 25.6252 8.43635 25.5826 8.93058C25.5706 9.0562 25.5571 9.17957 25.3762 9.1691C25.1242 9.15415 25.0382 9.09732 25.0487 8.90142C25.0756 8.38401 25.11 7.86734 25.1444 7.34992C25.1833 6.76147 25.2252 6.17303 25.2678 5.58458C25.3343 4.63723 25.4046 3.69063 25.4689 2.74328C25.5078 2.16829 25.534 1.5933 25.5758 1.01906C25.5855 0.87101 25.5272 0.663894 25.7972 0.659408C26.2039 0.652678 26.322 0.715486 26.3467 1.00186C26.4275 1.94846 26.5015 2.89581 26.5778 3.84241C26.6383 4.59536 26.6981 5.3483 26.7595 6.10125C26.7617 6.13564 26.7744 6.17004 26.8208 6.21266C26.8484 6.11545 26.8776 6.01975 26.903 5.9218C27.2948 4.38749 27.6851 2.85244 28.0777 1.31814C28.1091 1.19851 28.1136 1.04597 28.3139 1.08486C28.4897 1.1185 28.5712 1.20524 28.5614 1.3959C28.4919 2.8188 28.4261 4.24244 28.3663 5.66608C28.3528 6.0033 28.364 6.34201 28.364 6.66427C28.5084 6.30313 28.6616 5.9188 28.8142 5.53373C29.28 4.35534 29.7443 3.1762 30.2124 1.99856C30.2475 1.90958 30.2662 1.77424 30.3963 1.79368C30.5489 1.81612 30.7178 1.84154 30.8292 1.96342C30.8958 2.03594 30.827 2.12866 30.7971 2.20642C30.4188 3.2106 30.0374 4.21328 29.6591 5.2167C29.12 6.64483 28.5839 8.07371 28.0463 9.50258C28.0261 9.55642 28.0014 9.60876 27.9782 9.6611C27.9341 9.76129 27.896 9.8727 27.7472 9.82111C27.6081 9.7725 27.4541 9.7583 27.4623 9.53847C27.5019 8.56047 27.5296 7.58171 27.561 6.60296C27.5625 6.54613 27.561 6.48856 27.561 6.43173C27.5513 6.43323 27.5423 6.43473 27.5326 6.43547Z" fill="white"/>
<path fill-rule="evenodd" clip-rule="evenodd" d="M31.9834 8.61105C32.4679 8.0241 32.9539 7.4364 33.4392 6.84944C34.0359 6.12865 34.6333 5.40711 35.2307 4.68632C35.3152 4.58463 35.3825 4.44556 35.559 4.57042C35.7309 4.6923 35.7048 4.81642 35.6188 4.97793C34.803 6.52494 33.991 8.07494 33.176 9.62794C33.2231 9.65785 33.2411 9.61373 33.2598 9.59579C34.4524 8.47796 35.6442 7.35938 36.8346 6.23931C37.0686 6.01949 37.3385 6.08379 37.4499 6.3911C37.4888 6.49952 37.4036 6.55036 37.3453 6.60719C36.7837 7.15526 36.2199 7.70109 35.6554 8.24766C34.7612 9.11426 33.8669 9.98161 32.9697 10.8467C32.4777 11.3215 31.9834 11.7941 31.4877 12.2659C31.4137 12.3361 31.3374 12.4573 31.22 12.3421C31.1191 12.2442 31.0189 12.141 31.1101 11.9668C31.46 11.3051 31.7987 10.6366 32.1427 9.97189C32.2952 9.67803 32.45 9.38568 32.6182 9.06566C32.5285 9.08211 32.5031 9.1337 32.4709 9.17333C31.9229 9.84104 31.3755 10.5095 30.826 11.1772C30.7848 11.2273 30.7467 11.2811 30.6966 11.3215C30.6054 11.3963 30.5493 11.5623 30.3811 11.4621C30.1792 11.3409 30.1261 11.2019 30.2121 10.9955C30.8125 9.55317 31.4144 8.11158 32.0156 6.66925C32.0515 6.58401 32.0859 6.49727 32.0933 6.39708C31.9169 6.70215 31.7389 7.00646 31.5632 7.31228C30.9434 8.38524 30.3265 9.45896 29.7044 10.5304C29.6476 10.6291 29.6177 10.8063 29.427 10.7017C29.1945 10.5738 29.1436 10.4519 29.2528 10.2568C29.9833 8.94154 30.7168 7.62781 31.4488 6.31259C31.9954 5.33084 32.539 4.34835 33.0878 3.3681C33.1476 3.26043 33.1805 3.07949 33.3323 3.10042C33.5215 3.12734 33.6994 3.22753 33.8377 3.36885C33.8946 3.42643 33.8475 3.50568 33.8228 3.57298C33.4041 4.69305 32.9868 5.81237 32.5674 6.93169C32.3618 7.4835 32.1539 8.03457 31.946 8.58638C31.9587 8.5946 31.9707 8.60283 31.9834 8.61105Z" fill="white"/>
<mask id="mask0_6008_43166" style="mask-type:alpha" maskUnits="userSpaceOnUse" x="6" y="17" width="10" height="6">
<path d="M6.98145 17.0856H15.4391V22.4498H6.98145V17.0856Z" fill="white"/>
</mask>
<g mask="url(#mask0_6008_43166)">
<path fill-rule="evenodd" clip-rule="evenodd" d="M10.7504 20.9735C11.3845 20.815 12.0185 20.6572 12.6518 20.4964C13.4818 20.2863 14.3117 20.0717 15.1417 19.8624C15.2397 19.8377 15.3585 19.7741 15.4154 19.9289C15.4774 20.0972 15.4079 20.3319 15.2741 20.379C15.1253 20.4314 14.9712 20.4718 14.8179 20.5129C12.4963 21.1372 10.1747 21.7623 7.85302 22.3844C7.73937 22.4151 7.59132 22.507 7.50907 22.3979C7.38795 22.2386 7.33785 22.033 7.3386 21.8296C7.33934 21.7309 7.45599 21.7145 7.53225 21.6808C8.72635 21.1582 9.92119 20.6378 11.1145 20.1159C11.5295 19.9342 11.943 19.7502 12.3886 19.5528C12.2518 19.5124 12.1501 19.5491 12.0484 19.5566C11.1086 19.6336 10.1702 19.7076 9.2303 19.7831C8.59924 19.834 7.96742 19.8833 7.3371 19.9394C7.18083 19.9536 7.05746 19.9618 7.01633 19.7577C6.97521 19.5551 7.06718 19.4975 7.23915 19.4474C8.86243 18.9696 10.4835 18.4851 12.1045 18.0013C12.1426 17.9901 12.192 17.9983 12.2204 17.9415C11.9475 17.9228 11.6783 17.8996 11.4099 17.8884C10.2375 17.8391 9.06506 17.7942 7.8934 17.7456C7.65563 17.7359 7.41935 17.7157 7.18307 17.7067C7.00138 17.7007 6.96923 17.5893 6.98343 17.4435C6.99689 17.2947 6.94306 17.0944 7.18681 17.0884C7.48216 17.0809 7.7775 17.0899 8.07285 17.0981C9.48378 17.1392 10.8932 17.1818 12.3041 17.2252C13.2388 17.2536 14.1742 17.2828 15.1096 17.3127C15.2449 17.3172 15.3937 17.3015 15.4124 17.5026C15.4311 17.691 15.3795 17.8122 15.1768 17.872C14.2519 18.1449 13.3293 18.429 12.4066 18.7094C12.3737 18.7191 12.3408 18.7303 12.2496 18.7595C12.5853 18.8051 12.8574 18.7378 13.1296 18.7214C13.739 18.684 14.3484 18.6212 14.957 18.5681C14.9645 18.5673 14.972 18.5644 14.9787 18.5658C15.1178 18.5898 15.3152 18.4552 15.3765 18.693C15.4423 18.9479 15.3533 19.1139 15.1178 19.2074C13.8519 19.7083 12.586 20.2071 11.3209 20.7073C11.128 20.7836 10.9351 20.8621 10.7422 20.9398C10.7452 20.951 10.7482 20.9623 10.7504 20.9735Z" fill="white"/>
</g>
<path fill-rule="evenodd" clip-rule="evenodd" d="M21.7443 6.24501C21.8954 6.92393 22.0479 7.60286 22.1989 8.28178C22.2587 8.54946 22.3171 8.81639 22.3769 9.08332C22.409 9.22763 22.3739 9.30614 22.2079 9.33829C21.8557 9.40783 21.8602 9.4168 21.6681 9.0751C20.9495 7.79502 20.2272 6.51643 19.5057 5.2371C19.4885 5.20644 19.4668 5.17878 19.4122 5.16382C19.5266 5.4487 19.641 5.73208 19.7569 6.01621C20.2055 7.12357 20.6557 8.23093 21.1058 9.33829C21.1611 9.47512 21.2329 9.60747 21.0153 9.68224C20.7663 9.76748 20.7013 9.75477 20.6078 9.53569C19.9528 7.99166 19.2986 6.44764 18.6436 4.90362C18.2921 4.07516 17.9347 3.24894 17.5856 2.41972C17.5407 2.31355 17.427 2.18569 17.5377 2.08251C17.6708 1.95764 17.8248 1.83576 18.0245 1.82903C18.1366 1.82604 18.1792 1.92399 18.2278 2.00175C18.7348 2.82274 19.241 3.64373 19.7464 4.46621C20.1457 5.11597 20.545 5.76723 20.9443 6.41699C20.9577 6.44017 20.9779 6.46035 21.031 6.47007C20.9473 6.08949 20.8643 5.70816 20.779 5.32682C20.5054 4.09759 20.2287 2.86835 19.9588 1.63837C19.9341 1.52397 19.8481 1.38714 20.0007 1.28545C20.2018 1.15086 20.3095 1.186 20.4141 1.4163C21.1043 2.93714 21.7952 4.45798 22.4861 5.97808C22.504 6.01547 22.5264 6.05061 22.5653 6.1194C22.6184 5.8405 22.5541 5.60198 22.5332 5.36496C22.415 4.03852 22.2864 2.71357 22.1615 1.38788C22.1526 1.29517 22.1556 1.20096 22.1429 1.10824C22.1227 0.957202 22.1735 0.888413 22.3343 0.866729C22.7335 0.812146 22.7373 0.816632 22.7792 1.21666C22.9085 2.4616 23.0461 3.70579 23.1799 4.95147C23.3078 6.13884 23.4334 7.3262 23.5605 8.51432C23.5747 8.65713 23.5889 8.79994 23.6076 8.94275C23.6211 9.04669 23.6443 9.1708 23.5052 9.18277C23.3571 9.19548 23.1717 9.30464 23.0715 9.07958C22.9317 8.76405 22.7874 8.45001 22.6431 8.13597C22.3515 7.50341 22.0606 6.8701 21.769 6.23754C21.7608 6.23978 21.7525 6.24277 21.7443 6.24501Z" fill="white"/>
<path fill-rule="evenodd" clip-rule="evenodd" d="M13.1252 13.0618C13.8124 13.3257 14.4532 13.5814 15.1029 13.8155C15.3175 13.8925 15.39 14.0069 15.3833 14.2282C15.3661 14.7583 15.405 14.7105 14.9138 14.6776C13.6075 14.5901 12.3013 14.4877 10.995 14.3912C10.9315 14.3867 10.8671 14.3905 10.7445 14.3905C11.5977 14.5624 12.3932 14.7232 13.1903 14.8832C13.8468 15.0156 14.5033 15.1464 15.159 15.281C15.3564 15.3214 15.4087 15.4343 15.3699 15.678C15.3385 15.8762 15.2084 15.8403 15.076 15.8164C13.0101 15.4298 10.9434 15.0432 8.87674 14.6574C8.46027 14.5796 8.0408 14.5094 7.62433 14.4286C7.36786 14.3785 7.34842 14.3419 7.40375 14.0951C7.49572 13.6831 7.54432 13.6652 7.95706 13.6861C8.73393 13.7258 9.51155 13.74 10.2884 13.7676C11.2223 13.8005 12.1562 13.8357 13.0991 13.8446C12.6609 13.6757 12.222 13.5052 11.7831 13.3362C10.6271 12.8921 9.47042 12.4494 8.31446 12.0038C8.08417 11.9155 8.06174 11.8176 8.19632 11.612C8.26287 11.511 8.34437 11.5245 8.44157 11.5402C9.31565 11.6823 10.1897 11.8213 11.0645 11.9604C11.9244 12.0965 12.7835 12.2318 13.6546 12.344C13.1536 12.0733 12.6534 11.8026 12.1517 11.5335C11.176 11.0078 10.1994 10.4822 9.21994 9.96103C9.06367 9.87803 9.03077 9.7913 9.13096 9.63727C9.33808 9.31874 9.33434 9.31351 9.66632 9.48623C11.5012 10.4373 13.3346 11.3907 15.171 12.3387C15.325 12.4188 15.4013 12.5167 15.3863 12.6924C15.3751 12.8435 15.3803 12.9952 15.3841 13.1463C15.3878 13.3205 15.328 13.3945 15.1366 13.3639C14.4838 13.2584 13.8281 13.1665 13.1252 13.0618Z" fill="white"/>
<path fill-rule="evenodd" clip-rule="evenodd" d="M23.0192 25.5683C23.0192 24.3376 23.005 23.1054 23.0245 21.8746C23.0364 21.0387 23.334 20.2887 23.8133 19.6046C24.4847 18.6445 25.3827 17.9551 26.3936 17.3891C27.6438 16.6892 28.8865 15.9767 30.1285 15.2634C30.2713 15.1811 30.3849 15.1669 30.5225 15.2611C30.6354 15.3381 30.7588 15.4002 30.8829 15.4578C31.0429 15.5318 31.0668 15.5871 30.8949 15.6888C30.3311 16.0223 29.7733 16.3662 29.2133 16.7064C28.3586 17.2254 27.5047 17.748 26.6471 18.2624C25.5517 18.9182 24.742 19.8065 24.3449 21.0409C24.2111 21.4574 24.1632 21.8851 24.1625 22.3173C24.1587 24.9245 24.1602 27.5311 24.1602 30.1376C24.1602 30.1809 24.164 30.2243 24.1602 30.2677C24.155 30.3357 24.1879 30.4247 24.1086 30.4628C24.0286 30.5025 23.9785 30.4224 23.9277 30.3776C23.663 30.1443 23.405 29.9035 23.1359 29.6755C23.0215 29.5775 23.0103 29.4609 23.0103 29.3271C23.0125 28.0746 23.0117 26.8215 23.0117 25.5683H23.0192Z" fill="white"/>
<path fill-rule="evenodd" clip-rule="evenodd" d="M36.8699 26.022C36.8699 27.4262 36.8707 28.8311 36.8684 30.2361C36.8684 30.3116 36.9051 30.4148 36.8266 30.4566C36.7316 30.5067 36.6748 30.4006 36.6142 30.349C36.3533 30.1232 36.1005 29.8869 35.8374 29.6626C35.7297 29.5699 35.7215 29.4577 35.7215 29.3321C35.723 27.0344 35.7043 24.7359 35.7282 22.4389C35.7454 20.72 35.0732 19.3434 33.7946 18.2323C33.3004 17.8024 32.8106 17.3665 32.3134 16.9403C32.1736 16.8199 32.1855 16.7519 32.3396 16.6569C32.7732 16.3877 32.768 16.3862 33.1628 16.7003C33.9815 17.3508 34.7808 18.0237 35.4575 18.8245C36.0579 19.5348 36.4983 20.3401 36.7712 21.2344C36.8677 21.5499 36.8684 21.8737 36.8692 22.1967C36.8714 23.4715 36.8699 24.7464 36.8699 26.022Z" fill="white"/>
<mask id="mask1_6008_43166" style="mask-type:alpha" maskUnits="userSpaceOnUse" x="34" y="15" width="8" height="5">
<path d="M34.5356 15.8711H41.9628V19.8287H34.5356V15.8711Z" fill="white"/>
</mask>
<g mask="url(#mask1_6008_43166)">
<path fill-rule="evenodd" clip-rule="evenodd" d="M39.2428 19.2044C40.0159 19.2762 40.789 19.3472 41.5629 19.4227C41.6706 19.4332 41.8059 19.4175 41.8336 19.5768C41.8628 19.7465 41.7813 19.8377 41.5824 19.828C40.9932 19.8003 40.404 19.7659 39.8148 19.7323C38.9168 19.6792 38.0195 19.6216 37.1215 19.5738C36.9548 19.5648 36.8374 19.5244 36.7641 19.3592C36.6729 19.1565 36.6759 19.1177 36.8987 19.0646C37.4587 18.933 38.021 18.8089 38.5826 18.681C38.6027 18.6765 38.6207 18.669 38.6379 18.6137C37.9829 18.6137 37.3264 18.5943 36.6722 18.6212C36.3147 18.6361 36.139 18.4073 35.9454 18.1935C35.8392 18.0769 35.9671 18.017 36.0643 17.9849C36.4127 17.8697 36.7634 17.7598 37.1126 17.6477C37.962 17.3762 38.8114 17.1033 39.6563 16.8005C39.3265 16.8349 38.9975 16.8686 38.6678 16.9037C37.5238 17.0271 36.3798 17.1512 35.2358 17.2731C35.0264 17.2955 34.6159 17.0114 34.5472 16.8072C34.5038 16.6786 34.5905 16.6555 34.681 16.645C34.8956 16.6181 35.1102 16.5979 35.3248 16.574C36.569 16.4349 37.8124 16.2951 39.0566 16.1552C39.8858 16.0625 40.715 15.9691 41.545 15.8801C41.8164 15.8517 41.8471 15.8786 41.8792 16.1395C41.9443 16.6764 42.0467 16.5725 41.4919 16.793C40.5416 17.1706 39.5882 17.5385 38.6356 17.9101C38.5908 17.9281 38.5452 17.9468 38.504 17.9954C38.7298 18.0088 38.9557 18.0268 39.1822 18.0365C39.9868 18.0701 40.792 18.1008 41.5973 18.1329C41.6332 18.1344 41.6691 18.1404 41.705 18.1449C41.8284 18.1621 41.9495 18.1726 41.9622 18.3445C41.9749 18.5187 41.853 18.5434 41.7327 18.5726C41.0612 18.7326 40.3883 18.8911 39.7161 19.0504C39.5568 19.0885 39.3976 19.1281 39.2383 19.1678C39.2398 19.1797 39.2413 19.1924 39.2428 19.2044Z" fill="white"/>
</g>
<path fill-rule="evenodd" clip-rule="evenodd" d="M31.4524 26.3292V30.1096C31.4524 30.1746 31.4547 30.2389 31.4502 30.304C31.4457 30.3668 31.4547 30.4438 31.3814 30.4715C31.3171 30.4954 31.279 30.4333 31.2371 30.3967C30.9881 30.1784 30.7459 29.9526 30.4909 29.741C30.3331 29.6109 30.2756 29.4621 30.2763 29.2557C30.283 27.0739 30.2711 24.8921 30.2838 22.7102C30.292 21.2836 29.7544 20.094 28.7839 19.0801C28.6448 18.935 28.6396 18.8678 28.8227 18.7698C29.3671 18.4774 29.1988 18.4012 29.6841 18.9119C30.3436 19.6065 30.8184 20.4118 31.1803 21.2918C31.3455 21.6948 31.4509 22.1113 31.4517 22.5487C31.4532 23.8086 31.4524 25.0685 31.4524 26.3292Z" fill="white"/>
<path fill-rule="evenodd" clip-rule="evenodd" d="M31.7431 12.9821C31.5928 12.9297 31.5435 12.7862 31.4777 12.6643C31.4171 12.5544 31.5091 12.4953 31.5831 12.437C32.2957 11.8762 33.0082 11.3154 33.7215 10.7547C35.119 9.65701 36.5165 8.55788 37.917 7.46323C38.0059 7.39369 38.0919 7.24191 38.2243 7.32117C38.3596 7.40117 38.4329 7.55744 38.4882 7.70474C38.5233 7.79596 38.4291 7.84157 38.3686 7.88868C37.6867 8.41806 37.004 8.94744 36.3213 9.47681C34.876 10.5954 33.4307 11.7147 31.9854 12.8325C31.9121 12.8894 31.844 12.9559 31.7431 12.9821Z" fill="white"/>
<path fill-rule="evenodd" clip-rule="evenodd" d="M32.3954 2.61151C32.3774 2.65487 32.3625 2.69525 32.3445 2.73413C31.4712 4.57425 30.5971 6.41511 29.7238 8.25523C29.4397 8.85414 29.1503 9.45007 28.8759 10.052C28.7817 10.2583 28.6658 10.2352 28.4968 10.1589C28.3189 10.0781 28.2867 9.98468 28.3697 9.80598C29.4965 7.39237 30.6173 4.97577 31.7426 2.56141C31.7875 2.46421 31.8017 2.30644 31.9505 2.3199C32.109 2.33411 32.2496 2.42084 32.3662 2.533C32.3842 2.55019 32.3857 2.58459 32.3954 2.61151Z" fill="white"/>
<mask id="mask2_6008_43166" style="mask-type:alpha" maskUnits="userSpaceOnUse" x="23" y="0" width="2" height="10">
<path d="M23.7642 0.582764H24.7255V9.14435H23.7642V0.582764Z" fill="white"/>
</mask>
<g mask="url(#mask2_6008_43166)">
<path fill-rule="evenodd" clip-rule="evenodd" d="M24.7228 8.57362C24.7228 8.67456 24.7161 8.77625 24.7243 8.8757C24.737 9.0372 24.6989 9.14487 24.5089 9.14413C24.3347 9.14338 24.1777 9.1516 24.1725 8.89962C24.165 8.54745 24.1261 8.19678 24.1097 7.8446C24.0297 6.13459 23.9549 4.42458 23.8734 2.71456C23.8442 2.11041 23.8031 1.5085 23.7672 0.905101C23.753 0.673311 23.8091 0.59854 24.0102 0.585829C24.3101 0.567136 24.3908 0.619476 24.4013 0.875941C24.4267 1.45766 24.4409 2.04087 24.4656 2.62334C24.5306 4.16138 24.6039 5.69867 24.6645 7.23672C24.6817 7.6816 24.6675 8.12799 24.6675 8.57362H24.7228Z" fill="white"/>
</g>
<path fill-rule="evenodd" clip-rule="evenodd" d="M15.1213 16.9381C13.9773 16.814 12.8475 16.6921 11.7185 16.5695C10.5819 16.4461 9.44542 16.3228 8.30965 16.1986C7.97318 16.162 7.63821 16.1209 7.30248 16.0872C7.13425 16.07 7.04752 16.0035 7.09761 15.8203C7.11182 15.7665 7.10733 15.7066 7.10808 15.6483C7.11032 15.498 7.18808 15.4472 7.33165 15.4644C8.16684 15.5631 9.00203 15.6595 9.83872 15.7567C11.0448 15.8973 12.2516 16.0386 13.4576 16.1799C14.0364 16.248 14.6143 16.3153 15.1923 16.3878C15.4017 16.414 15.5243 16.7362 15.3912 16.8992C15.3097 16.9994 15.2006 16.9172 15.1213 16.9381Z" fill="white"/>
<path fill-rule="evenodd" clip-rule="evenodd" d="M33.9595 16.4562C33.8085 16.4614 33.3867 16.2191 33.3531 16.1152C33.3112 15.9821 33.4271 15.9784 33.5049 15.9642C33.9079 15.8902 34.3117 15.8206 34.7162 15.7533C36.3342 15.4849 37.9515 15.2165 39.5696 14.9503C40.1662 14.8523 40.7644 14.7656 41.3588 14.6602C41.5719 14.622 41.643 14.7088 41.6684 14.9009C41.7073 15.2112 41.7005 15.2404 41.4508 15.2793C39.3901 15.6023 37.3294 15.9223 35.2687 16.2446C34.8209 16.3141 34.3745 16.3889 33.9595 16.4562Z" fill="white"/>
<path fill-rule="evenodd" clip-rule="evenodd" d="M15.4673 20.9588C15.4972 21.1233 15.3971 21.2107 15.2355 21.2721C12.9954 22.1252 10.7568 22.9806 8.51811 23.8352C8.38352 23.8868 8.24819 23.9347 8.1136 23.987C7.99621 24.0319 7.92742 23.9982 7.88106 23.8771C7.72853 23.4793 7.72479 23.4778 8.12556 23.3283C10.4652 22.4527 12.804 21.5786 15.1443 20.7038C15.421 20.6006 15.4703 20.635 15.4673 20.9588Z" fill="white"/>
<path fill-rule="evenodd" clip-rule="evenodd" d="M14.2465 8.81604C14.4462 8.97455 14.6451 9.13232 14.844 9.29233C14.9778 9.39925 15.063 9.82096 14.9785 9.96676C14.9225 10.064 14.8462 10.0341 14.7774 9.98396C14.6668 9.90395 14.5606 9.81722 14.4522 9.73423C13.3493 8.88931 12.2472 8.04141 11.1405 7.20248C10.9746 7.07686 10.9618 6.99087 11.0942 6.82339C11.3783 6.46374 11.3394 6.45551 11.7888 6.7045C12.7399 7.23014 13.6925 7.75503 14.6451 8.27843C15.0488 8.49975 15.0593 8.52368 15.0032 8.97081C14.9815 9.13232 14.9083 9.15176 14.7856 9.07998C14.6144 8.97978 14.4477 8.87436 14.2779 8.77117C14.2675 8.78613 14.2578 8.80108 14.2465 8.81604Z" fill="white"/>
<path fill-rule="evenodd" clip-rule="evenodd" d="M17.376 9.02611C17.376 9.36482 17.37 9.70279 17.3783 10.0408C17.3827 10.203 17.314 10.2568 17.1607 10.2546C16.5999 10.2464 16.0384 10.2374 15.4776 10.2426C15.2877 10.2449 15.2271 10.1813 15.2301 9.99365C15.2391 9.34613 15.2391 8.69861 15.2301 8.05035C15.2278 7.86417 15.2869 7.77968 15.4761 7.79912C15.5262 7.80435 15.5778 7.8036 15.6271 7.79912C15.7946 7.78491 15.8589 7.85893 15.8559 8.02642C15.8492 8.45037 15.8537 8.87507 15.8537 9.29977C15.8537 9.35734 15.8522 9.41567 15.8567 9.47249C15.8612 9.52857 15.8612 9.60334 15.9419 9.59362C16.0099 9.5854 15.9898 9.51736 15.9898 9.46875C15.989 9.00891 15.9853 8.54832 15.9853 8.08773C15.986 7.81257 16.0032 7.79986 16.3068 7.79986C16.6081 7.79986 16.6246 7.81407 16.6261 8.09072C16.6276 8.52963 16.6253 8.96854 16.6283 9.40744C16.6283 9.46726 16.6066 9.56895 16.6836 9.57194C16.7906 9.57642 16.7539 9.46651 16.7547 9.40445C16.7592 8.98723 16.7569 8.57001 16.7577 8.15203C16.7577 7.79837 16.7577 7.79837 17.0732 7.79986C17.3768 7.80061 17.3768 7.80061 17.3768 8.14082C17.3768 8.43617 17.3768 8.73076 17.376 9.02611Z" fill="white"/>
<path fill-rule="evenodd" clip-rule="evenodd" d="M15.3864 11.6101C15.3864 11.6714 15.3879 11.7006 15.3864 11.729C15.3819 11.7993 15.4028 11.8815 15.3318 11.9271C15.2466 11.9825 15.1815 11.9137 15.118 11.8726C14.5273 11.486 13.9381 11.0972 13.3466 10.7106C12.2752 10.0078 11.2015 9.30567 10.1307 8.60207C10.044 8.54524 9.90567 8.50562 9.92885 8.37551C9.95651 8.21775 10.0552 8.07793 10.1898 7.99269C10.2982 7.92315 10.3902 8.03381 10.4769 8.09138C11.5207 8.78526 12.5638 9.48063 13.6061 10.176C14.122 10.5199 14.6342 10.8676 15.1539 11.2041C15.3221 11.3125 15.4335 11.4299 15.3864 11.6101Z" fill="white"/>
<path fill-rule="evenodd" clip-rule="evenodd" d="M17.1957 4.96733C17.2054 4.81106 17.2121 4.6533 17.2241 4.49553C17.2293 4.42151 17.1979 4.31907 17.3063 4.29963C17.3938 4.28467 17.4215 4.3744 17.4559 4.43422C17.7542 4.95911 18.0518 5.4855 18.3487 6.01189C19.0298 7.22093 19.7117 8.43073 20.3921 9.64053C20.5447 9.91045 20.4392 10.1063 20.1289 10.1303C19.9959 10.1407 19.9689 10.0256 19.9211 9.9426C19.4044 9.0446 18.8915 8.1451 18.3756 7.2471C18.0137 6.61678 17.6518 5.98721 17.2869 5.35839C17.2151 5.23576 17.1755 5.11015 17.1957 4.96733Z" fill="white"/>
<path fill-rule="evenodd" clip-rule="evenodd" d="M17.6532 8.66668C17.6749 8.40049 17.6285 8.13655 17.6188 7.87111C17.6113 7.67447 17.5455 7.50249 17.319 7.45464C17.215 7.43296 17.1851 7.35669 17.1844 7.26173C17.1836 7.13163 17.1836 7.00227 17.1829 6.87292C17.1821 6.80787 17.1784 6.7316 17.2494 6.70394C17.3354 6.67104 17.378 6.74805 17.4192 6.80488C17.7429 7.25276 18.0659 7.70288 18.3882 8.15225C18.8368 8.77659 19.2862 9.40168 19.7318 10.0275C19.8006 10.124 19.9076 10.2234 19.7707 10.3445C19.6466 10.4552 19.527 10.5315 19.3542 10.4036C18.8353 10.0185 18.3075 9.64394 17.7818 9.26709C17.6921 9.20279 17.648 9.12278 17.6525 9.01137C17.6562 8.89697 17.6532 8.78183 17.6532 8.66668Z" fill="white"/>
<path fill-rule="evenodd" clip-rule="evenodd" d="M16.8904 6.22807C16.8904 6.58099 16.8867 6.93316 16.8926 7.28682C16.8949 7.44833 16.8396 7.52385 16.6661 7.51787C16.4216 7.5074 16.1763 7.51039 15.9318 7.51637C15.7868 7.52011 15.7195 7.46553 15.7202 7.31673C15.7225 6.59669 15.7225 5.87664 15.7202 5.1566C15.7202 5.00032 15.7905 4.93752 15.9445 4.94126C16.1756 4.94799 16.4066 4.95172 16.6362 4.93976C16.8418 4.93004 16.8986 5.02575 16.8941 5.21267C16.8859 5.55064 16.8919 5.88935 16.8919 6.22807H16.8904Z" fill="white"/>
<path fill-rule="evenodd" clip-rule="evenodd" d="M41.4174 20.9474C40.0491 20.8741 38.7129 20.8031 37.3768 20.7305C37.2826 20.7253 37.1801 20.7208 37.1465 20.6087C37.1046 20.4711 37.0702 20.3253 37.127 20.187C37.1569 20.1129 37.2482 20.1264 37.3207 20.1316C38.6568 20.2139 39.9923 20.2954 41.3277 20.3776C41.392 20.3814 41.4563 20.3896 41.5206 20.3978C41.8301 20.4359 41.8937 20.5511 41.7658 20.8405C41.6821 21.0289 41.5153 20.9242 41.4174 20.9474Z" fill="white"/>
<path fill-rule="evenodd" clip-rule="evenodd" d="M15.3749 6.9742C15.5035 7.31142 15.241 7.44302 15.0519 7.60677C14.9606 7.68602 14.8918 7.60153 14.8343 7.53947C14.3991 7.06094 13.9662 6.58091 13.5325 6.10088C13.3052 5.85039 13.0772 5.60215 12.8551 5.34793C12.7885 5.27241 12.6711 5.18568 12.7953 5.07726C12.9037 4.9823 13.0129 4.86566 13.1886 4.99576C13.8697 5.50121 14.5546 6.00143 15.2455 6.49268C15.4362 6.62876 15.3674 6.8112 15.3749 6.9742Z" fill="white"/>
<path fill-rule="evenodd" clip-rule="evenodd" d="M41.2845 22.2476C40.5719 22.1691 39.8646 22.0913 39.1565 22.0143C38.6495 21.9582 38.1411 21.9074 37.6349 21.8453C37.5011 21.8289 37.3448 21.8461 37.3149 21.6337C37.258 21.2404 37.282 21.2143 37.682 21.2629C38.8387 21.4019 39.9954 21.5335 41.1521 21.6696C41.209 21.6756 41.268 21.6793 41.3234 21.6913C41.4116 21.7108 41.535 21.6936 41.5566 21.8072C41.5828 21.941 41.5574 22.0816 41.4796 22.199C41.434 22.267 41.3503 22.2461 41.2845 22.2476Z" fill="white"/>
<path fill-rule="evenodd" clip-rule="evenodd" d="M11.8377 23.4806C11.8721 23.6459 11.7824 23.7506 11.6067 23.8336C10.6316 24.2927 9.66036 24.7607 8.68834 25.2288C8.55898 25.2908 8.45655 25.3297 8.37505 25.1548C8.22775 24.8318 8.22326 24.7697 8.42963 24.6717C9.47568 24.176 10.5225 23.6833 11.5708 23.1913C11.7839 23.0911 11.8377 23.1472 11.8377 23.4806Z" fill="white"/>
<path fill-rule="evenodd" clip-rule="evenodd" d="M37.2876 22.6491C37.2831 22.3844 37.3152 22.3552 37.547 22.3881C38.691 22.5526 39.835 22.7156 40.9798 22.8801C41.1091 22.8988 41.243 22.9055 41.2108 23.1067C41.1629 23.4125 41.13 23.4588 40.9057 23.4289C39.7879 23.2809 38.6716 23.1268 37.553 22.9825C37.3212 22.9526 37.2748 22.8158 37.2876 22.6491Z" fill="white"/>
<path fill-rule="evenodd" clip-rule="evenodd" d="M11.8376 24.6607C11.8713 24.8274 11.7755 24.9336 11.6088 25.0226C10.8103 25.4488 10.0154 25.8817 9.22436 26.3198C9.05538 26.4126 8.95593 26.3976 8.8662 26.2167C8.72339 25.9265 8.71591 25.8944 8.92752 25.7807C9.81355 25.3045 10.7003 24.8304 11.5879 24.3586C11.7845 24.2547 11.8384 24.3167 11.8376 24.6607Z" fill="white"/>
<path fill-rule="evenodd" clip-rule="evenodd" d="M37.2365 23.8791C37.2372 23.562 37.2612 23.5426 37.555 23.6002C38.536 23.7946 39.517 23.9882 40.498 24.1826C40.8165 24.2462 40.8726 24.3785 40.7111 24.6649C40.6453 24.783 40.5466 24.7561 40.4472 24.7367C39.6905 24.5931 38.9345 24.4488 38.1786 24.3045C37.952 24.2619 37.727 24.2095 37.4997 24.1796C37.2941 24.152 37.1976 24.06 37.2365 23.8791Z" fill="white"/>
<path fill-rule="evenodd" clip-rule="evenodd" d="M40.0137 25.931C39.7221 25.8584 39.4298 25.7852 39.1359 25.7119C38.5707 25.5713 38.0046 25.4322 37.4401 25.2887C37.2562 25.2423 37.1478 24.8625 37.2734 24.7249C37.3205 24.6726 37.3781 24.6853 37.4334 24.7002C38.3329 24.9298 39.2316 25.1593 40.1311 25.3904C40.247 25.4195 40.3143 25.4898 40.2635 25.6109C40.2111 25.7366 40.244 25.9362 40.0137 25.931Z" fill="white"/>
<path fill-rule="evenodd" clip-rule="evenodd" d="M11.8017 25.9701C11.8682 26.1667 11.7306 26.2699 11.5512 26.3731C10.9956 26.6916 10.4468 27.0236 9.89575 27.3511C9.77911 27.4206 9.67219 27.4894 9.57498 27.3137C9.4075 27.0109 9.40077 26.9286 9.5862 26.8195C10.2068 26.4546 10.8281 26.0912 11.4517 25.7323C11.7807 25.5431 11.8047 25.5596 11.8017 25.9701Z" fill="white"/>
<path fill-rule="evenodd" clip-rule="evenodd" d="M37.2336 26.2059C37.2246 25.8912 37.259 25.8657 37.5229 25.9525C38.1563 26.1603 38.7911 26.366 39.4251 26.5753C39.5522 26.6172 39.7048 26.6419 39.6367 26.846C39.5358 27.1525 39.4939 27.1862 39.2427 27.1069C38.6677 26.9275 38.0949 26.7383 37.5177 26.5671C37.3061 26.5043 37.1842 26.4071 37.2336 26.2059Z" fill="white"/>
<path fill-rule="evenodd" clip-rule="evenodd" d="M11.8308 27.1886C11.8832 27.4025 11.7695 27.5214 11.5848 27.6238C11.1893 27.8436 10.802 28.0791 10.4139 28.3139C10.2704 28.4007 10.1746 28.3812 10.1148 28.2175C10.0902 28.1502 10.0528 28.0881 10.0184 28.0246C9.96379 27.9221 9.99146 27.8459 10.0887 27.789C10.6038 27.4885 11.1198 27.1879 11.6342 26.8858C11.7546 26.8155 11.8106 26.8731 11.8293 26.986C11.8398 27.0488 11.8308 27.1153 11.8308 27.1886Z" fill="white"/>
<path fill-rule="evenodd" clip-rule="evenodd" d="M16.2957 4.70081H16.1873C15.7245 4.70081 15.7245 4.70081 15.7192 4.42789C15.708 3.88805 15.8949 3.60915 16.2808 3.58971C16.6 3.57326 16.8827 3.79982 16.8857 4.10563C16.8939 4.82642 16.9627 4.6851 16.2957 4.70081Z" fill="white"/>
<path fill-rule="evenodd" clip-rule="evenodd" d="M17.7348 9.71448C17.8059 9.71747 17.8418 9.76532 17.8791 9.80719C18.1692 10.1265 18.4586 10.4457 18.7472 10.765C18.8183 10.8428 18.893 10.9318 18.7898 11.0245C18.6747 11.1284 18.5723 11.3228 18.3801 11.2234C18.0877 11.0708 17.8126 10.8861 17.5315 10.7127C17.4746 10.6783 17.4081 10.605 17.4731 10.5571C17.7221 10.3784 17.6421 10.122 17.6556 9.88645C17.6586 9.81766 17.6421 9.73691 17.7348 9.71448Z" fill="white"/>
<path fill-rule="evenodd" clip-rule="evenodd" d="M37.2373 27.3891C37.2388 27.0594 37.2732 27.0339 37.5431 27.1431C37.9693 27.3158 38.3933 27.4915 38.8187 27.665C38.9518 27.7188 39.0759 27.7659 38.9952 27.9581C38.8763 28.237 38.8359 28.2699 38.6146 28.1824C38.234 28.0314 37.8579 27.8699 37.4743 27.7278C37.2904 27.6598 37.1969 27.5596 37.2373 27.3891Z" fill="white"/>
<path fill-rule="evenodd" clip-rule="evenodd" d="M11.8369 28.3385C11.8833 28.521 11.7741 28.6391 11.5946 28.7318C11.3898 28.8372 11.1991 28.9674 10.998 29.078C10.8223 29.176 10.6996 29.1079 10.5613 28.8739C10.4619 28.7071 10.5404 28.6316 10.6787 28.5539C10.9681 28.3924 11.2499 28.2211 11.5348 28.0536C11.7778 27.9108 11.8317 27.9407 11.8369 28.2196V28.3385Z" fill="white"/>
<path fill-rule="evenodd" clip-rule="evenodd" d="M15.4245 4.41131C15.4245 4.55935 15.4267 4.66703 15.4238 4.7747C15.4223 4.82704 15.4073 4.87713 15.3467 4.89059C15.2989 4.90031 15.2593 4.87713 15.2338 4.84124C15.002 4.513 14.7703 4.18326 14.5407 3.85202C14.4914 3.78099 14.5108 3.71369 14.5796 3.66435C14.6618 3.60677 14.7463 3.55144 14.8308 3.49686C14.9265 3.4348 15.0065 3.45424 15.0731 3.54471C15.2712 3.81613 15.5299 4.06362 15.4245 4.41131Z" fill="white"/>
<path fill-rule="evenodd" clip-rule="evenodd" d="M37.4001 28.2599C37.679 28.402 37.9721 28.5238 38.233 28.6951C38.3706 28.7855 38.2106 28.9104 38.165 29.0113C38.1231 29.1063 38.0573 29.1915 37.9324 29.1355C37.7365 29.048 37.5399 28.962 37.3507 28.861C37.2363 28.8005 37.2034 28.3967 37.2954 28.3092C37.3201 28.2868 37.3567 28.2793 37.4001 28.2599Z" fill="white"/>
<path fill-rule="evenodd" clip-rule="evenodd" d="M17.1471 11.5101C17.1471 11.46 17.1419 11.4091 17.1479 11.3598C17.1628 11.2387 17.2227 11.1848 17.3333 11.2656C17.5068 11.3919 17.6758 11.5243 17.8433 11.6581C17.9233 11.7217 17.9375 11.8121 17.8679 11.8839C17.7805 11.9737 17.7304 12.1434 17.5554 12.0925C17.3176 12.0237 17.1441 11.7688 17.1471 11.5101Z" fill="white"/>
<path fill-rule="evenodd" clip-rule="evenodd" d="M16.3907 3.31027C16.1417 3.39625 16.0363 3.2026 15.9383 3.00072C15.892 2.90576 15.9121 2.83248 16.0101 2.78837C16.1021 2.74799 16.1963 2.71135 16.289 2.67322C16.3847 2.63359 16.4565 2.66425 16.5073 2.75098C16.5679 2.85716 16.6329 2.96109 16.6883 3.06951C16.7937 3.27438 16.7615 3.32373 16.532 3.31849C16.4961 3.31775 16.4602 3.31401 16.3907 3.31027Z" fill="white"/>
<path fill-rule="evenodd" clip-rule="evenodd" d="M11.8377 29.5136C11.8257 29.6115 11.8751 29.7431 11.7569 29.8187C11.6664 29.8762 11.57 29.9966 11.4519 29.9076C11.3218 29.8089 11.2208 29.6721 11.2059 29.4964C11.2014 29.4411 11.25 29.4097 11.2941 29.3835C11.3502 29.3513 11.407 29.3207 11.4623 29.2885C11.8055 29.0919 11.8377 29.1098 11.8377 29.5136Z" fill="white"/>
<path fill-rule="evenodd" clip-rule="evenodd" d="M16.9177 47.0751C16.9224 46.7919 16.9283 46.511 16.9694 46.229C17.0399 45.7448 17.2373 45.5792 17.7109 45.7037C18.4336 45.8929 19.1633 45.9082 19.9013 45.8906C22.0552 45.8353 24.0353 45.1867 25.9001 44.1373C27.0177 43.5098 28.067 42.7824 29.0788 41.9963C29.3126 41.8153 29.5547 41.6508 29.8344 41.5474C29.9178 41.5168 30.0142 41.4745 30.0917 41.5439C30.174 41.6179 30.134 41.7142 30.0929 41.7942C29.8955 42.1808 29.6769 42.545 29.2468 42.7272C28.7697 42.9293 28.416 43.3124 28.0106 43.6179C26.3678 44.8553 24.651 45.9669 22.6921 46.6461C21.0811 47.2055 19.4312 47.4981 17.7214 47.2149C17.4241 47.1655 17.3842 47.3347 17.3466 47.558C17.1433 48.7531 16.7097 49.8401 15.866 50.7425C15.2949 51.3536 14.6027 51.7461 13.7802 51.8448C13.1844 51.9176 12.3736 51.5487 12.0962 50.7296C11.8777 50.081 11.9364 49.437 12.1127 48.7919C12.2361 48.343 12.4018 47.9094 12.591 47.4863C12.6333 47.3923 12.6603 47.2055 12.7872 47.2572C12.9494 47.3218 12.8119 47.4746 12.7813 47.578C12.7038 47.8494 12.5851 48.1103 12.5205 48.3841C12.222 49.6332 12.9834 50.4582 14.269 50.3536C15.873 50.2231 16.8695 48.6215 16.9165 47.585C16.9247 47.4158 16.9177 47.2454 16.9177 47.0751Z" fill="white"/>
<path fill-rule="evenodd" clip-rule="evenodd" d="M35.1947 48.9626C34.6131 48.9826 34.0502 48.9415 33.492 48.8393C33.1101 48.7676 32.7529 48.6407 32.4262 48.4221C32.0701 48.1836 31.9221 48.2223 31.66 48.5702C31.4767 48.8134 31.3005 49.0649 31.096 49.2893C30.8563 49.5525 30.5507 49.7218 30.1853 49.6125C29.8187 49.5032 29.7246 49.1777 29.6718 48.8404C29.5637 48.133 29.707 47.4421 29.8116 46.7499C29.9538 45.8005 30.0549 44.8392 30.4614 43.9497C30.4896 43.8886 30.512 43.8239 30.539 43.7617C30.566 43.7017 30.5836 43.6171 30.6694 43.6347C30.7587 43.6535 30.7446 43.7417 30.7352 43.8051C30.6812 44.1859 30.6236 44.5654 30.5672 44.9462C30.4673 45.6066 30.3616 46.2658 30.2699 46.9262C30.2417 47.1271 30.2452 47.3328 30.2487 47.5361C30.2534 47.8651 30.4215 48.1048 30.72 48.2176C31.0408 48.3375 31.324 48.2282 31.5437 47.9732C31.7423 47.7429 31.9139 47.4891 32.1536 47.2928C32.3639 47.1189 32.5848 47.0543 32.8457 47.1506C34.901 47.9156 36.9574 47.5737 38.9962 47.1095C41.0796 46.6348 42.9316 45.6453 44.6543 44.3974C45.0197 44.133 45.4063 43.8956 45.7906 43.6547C45.8999 43.5866 46.0397 43.4691 46.1608 43.5772C46.2983 43.7017 46.1737 43.8533 46.1161 43.9802C45.9974 44.2411 45.8411 44.4996 45.5814 44.623C44.6402 45.0695 43.8869 45.7899 43.0244 46.3492C41.102 47.5948 39.0444 48.4973 36.7705 48.8616C36.2453 48.9462 35.7141 48.9873 35.1947 48.9626Z" fill="white"/>
<path fill-rule="evenodd" clip-rule="evenodd" d="M0.397461 48.6667C0.44329 47.4799 0.856925 46.4352 1.39982 45.4305C1.51263 45.2225 1.63484 45.018 1.76293 44.8183C1.81463 44.7384 1.88749 44.6208 2.00147 44.7008C2.0943 44.7654 2.01792 44.87 1.98032 44.9452C1.72767 45.4387 1.48678 45.937 1.29406 46.4587C1.16363 46.8101 1.06139 47.1673 1.00264 47.5374C0.869851 48.3612 1.36809 49.0134 2.19889 49.0557C3.19185 49.1062 3.93686 48.6432 4.47976 47.8371C4.65837 47.5727 4.60902 47.3906 4.30232 47.3259C3.37869 47.132 3.38456 46.615 3.63721 45.8594C4.01677 44.7231 4.73123 43.8136 5.67483 43.085C5.89575 42.9134 6.1719 42.7007 6.4363 42.9405C6.71832 43.1966 6.4598 43.4634 6.32584 43.6972C6.16015 43.9851 5.98271 44.266 5.56085 44.1696C5.46919 44.1496 5.34346 44.2272 5.2518 44.2871C4.82876 44.5656 4.49738 44.9311 4.22946 45.36C4.06965 45.6138 4.12958 45.8218 4.39985 45.89C5.11196 46.0697 5.12489 46.4281 5.025 47.1367C4.86049 48.2778 4.29409 49.2143 3.44097 49.9817C3.37281 50.0416 3.29996 50.0956 3.2224 50.1438C2.57845 50.5469 1.89571 50.6996 1.19888 50.3283C0.532597 49.9746 0.423313 49.3189 0.397461 48.6667Z" fill="white"/>
<path fill-rule="evenodd" clip-rule="evenodd" d="M28.2716 47.092C28.1494 46.4786 28.3833 45.8664 28.6536 45.2624C28.6935 45.1731 28.7382 45.0556 28.8627 45.0767C28.9556 45.0908 28.9532 45.1954 28.952 45.2741C28.9297 46.7395 28.8674 48.199 28.0448 49.4916C27.4867 50.3647 26.8298 51.1273 25.7934 51.4505C25.4056 51.5715 25.0096 51.5868 24.6183 51.5139C23.6852 51.34 23.1929 50.555 23.308 49.4563C23.395 48.6337 23.6852 47.8758 24.0765 47.1555C24.1259 47.065 24.1788 46.8958 24.3069 46.9686C24.4302 47.038 24.3092 47.1707 24.2704 47.2683C24.0859 47.7183 23.8956 48.1637 23.8392 48.6549C23.7616 49.3259 24.0871 49.8276 24.744 50.0086C25.9567 50.3435 27.4914 49.6678 28.0813 48.555C28.3175 48.1073 28.2669 47.6337 28.2716 47.092Z" fill="white"/>
<path fill-rule="evenodd" clip-rule="evenodd" d="M9.06294 47.1596C9.65637 47.1185 10.1017 46.9634 10.4672 46.6108C10.6458 46.4393 10.5659 46.3453 10.3661 46.283C10.2439 46.2454 10.144 46.2936 10.0442 46.3453C9.68692 46.5274 9.41665 46.8141 9.06294 47.1596ZM6.38489 49.0045C5.68336 49.0574 5.42836 48.7401 5.64105 48.1009C5.70216 47.9187 5.77501 47.7389 5.85962 47.5674C5.9548 47.3747 6.06409 47.169 6.32144 47.1737C6.57526 47.1784 6.72097 47.3547 6.84905 47.5509C6.92779 47.672 6.89136 47.9011 7.04882 47.9129C7.23801 47.9258 7.3379 47.719 7.45423 47.5838C7.60817 47.4029 7.74801 47.2102 7.89842 47.0257C8.05941 46.8259 8.24977 46.7742 8.45072 46.9622C8.67634 47.1725 8.84555 47.102 9.01241 46.8846C9.21923 46.6167 9.43075 46.3512 9.65167 46.0926C9.79856 45.9211 9.95367 45.7542 10.1217 45.605C10.345 45.4064 10.587 45.2054 10.9067 45.397C11.2146 45.5803 11.1969 45.8893 11.1546 46.1855C11.0312 47.0456 9.97482 48.1538 9.12875 48.3241C8.72451 48.4064 8.35788 48.3664 8.11464 47.9763C7.98773 47.773 7.87492 47.7965 7.7245 47.9716C7.33437 48.4229 6.90899 48.8341 6.68102 49.4146C6.41662 50.0833 5.78089 50.256 5.15809 50.4123C5.05703 50.4381 4.93834 50.4628 4.89134 50.3418C4.84198 50.2161 4.96302 50.1632 5.04645 50.1138C5.43894 49.8847 5.79734 49.6085 6.14164 49.3148C6.23565 49.2348 6.33906 49.1632 6.38489 49.0045Z" fill="white"/>
<path fill-rule="evenodd" clip-rule="evenodd" d="M19.5713 50.1604C19.2505 50.7421 18.7546 50.9771 18.1647 51.05C18.0437 51.0653 17.885 51.1146 17.8369 50.9654C17.7969 50.8408 17.9426 50.7809 18.0319 50.7174C18.1788 50.6129 18.3292 50.5106 18.4808 50.4131C19.2164 49.943 19.7687 49.3191 20.0942 48.5024C20.1577 48.3449 20.2282 48.1898 20.301 48.037C20.3351 47.9665 20.3845 47.8843 20.4797 47.9313C20.5513 47.9654 20.5325 48.0488 20.5161 48.1146C20.4562 48.332 20.3892 48.5482 20.408 48.7797C20.4362 49.1287 20.6501 49.4013 20.9579 49.473C21.341 49.56 21.9062 49.399 22.0449 49.1546C22.1542 48.9618 22.0237 48.9031 21.871 48.9031C21.7382 48.9019 21.6042 48.9583 21.4714 48.9618C21.1154 48.9748 20.8874 48.6904 21.0002 48.359C21.1224 47.9947 21.2858 47.6434 21.5138 47.3308C21.7629 46.9912 22.0555 46.9877 22.3199 47.3226C22.8028 47.9336 22.7629 48.6011 22.4997 49.2803C22.3516 49.6622 22.1389 50.0089 21.8792 50.3273C21.1365 51.2415 20.2153 51.1945 19.5713 50.1604Z" fill="white"/>
<path fill-rule="evenodd" clip-rule="evenodd" d="M45.2981 42.9924C45.1383 42.9806 45.0573 42.9865 44.9809 42.9665C44.5766 42.8549 44.1971 42.8948 43.8504 43.1439C43.7964 43.1827 43.727 43.2356 43.6648 43.1921C43.5825 43.1357 43.6307 43.0499 43.6542 42.9759C43.8775 42.2603 44.626 41.782 45.3722 41.8584C46.2547 41.9477 47.0185 41.6492 47.6954 41.1016C47.7576 41.0511 47.8082 40.9876 47.8693 40.9383C47.9527 40.869 48.0385 40.7385 48.1548 40.8184C48.2935 40.9136 48.1901 41.0476 48.1325 41.1486C47.4932 42.2849 46.4885 42.8455 45.2981 42.9924Z" fill="white"/>
<path fill-rule="evenodd" clip-rule="evenodd" d="M34.0218 43.6727C33.956 44.0217 33.7739 44.3014 33.4789 44.4964C33.305 44.6116 33.1757 44.4624 33.07 44.3531C32.8702 44.1439 32.728 44.1533 32.5823 44.4154C32.4907 44.5787 32.372 44.7949 32.1546 44.7456C31.8914 44.6845 31.6845 44.4859 31.5177 44.2685C31.4566 44.1886 31.5188 44.0946 31.5635 44.0158C31.6693 43.829 31.7691 43.6374 31.8843 43.4565C32.0935 43.1263 32.2086 43.0934 32.4965 43.3566C32.7351 43.5752 32.8761 43.6069 33.043 43.2896C33.1276 43.1286 33.2298 42.8783 33.5012 43.0099C33.7727 43.1404 33.9948 43.3319 34.0218 43.6727Z" fill="white"/>
<path fill-rule="evenodd" clip-rule="evenodd" d="M23.5349 42.633C23.4926 42.9397 23.2963 43.2111 23.0108 43.4097C22.8251 43.5378 22.6888 43.3627 22.5748 43.2534C22.3762 43.0619 22.2458 43.0854 22.1083 43.3216C22.0096 43.492 21.8933 43.7152 21.65 43.6482C21.3985 43.5789 21.2046 43.3886 21.0401 43.1864C20.9849 43.1183 21.0331 43.0313 21.0707 42.9632C21.1753 42.7763 21.2775 42.5871 21.3938 42.4073C21.6289 42.0395 21.7499 42.0078 22.0777 42.3145C22.3034 42.526 22.4032 42.479 22.5478 42.2428C22.6441 42.0865 22.7158 41.8409 22.9908 41.9079C23.2587 41.9737 23.5337 42.3192 23.5349 42.633Z" fill="white"/>
<path fill-rule="evenodd" clip-rule="evenodd" d="M45.4843 45.2431C45.2646 46.3512 45.2845 47.5286 44.979 48.6591C44.9109 48.9106 44.8027 49.1479 44.6606 49.3677C44.6194 49.4299 44.583 49.5275 44.4855 49.4934C44.3879 49.4582 44.4232 49.3583 44.4314 49.2854C44.5113 48.5451 44.623 47.806 44.6723 47.0633C44.717 46.3911 44.9297 45.7836 45.2364 45.1984C45.2763 45.122 45.3022 45.0116 45.4185 45.0351C45.5066 45.0539 45.4773 45.1444 45.4843 45.2431Z" fill="white"/>
<path fill-rule="evenodd" clip-rule="evenodd" d="M9.16638 50.4667C9.07707 50.4714 8.97131 50.4855 8.92901 50.3856C8.88435 50.2822 8.96779 50.2093 9.04534 50.1682C10.2063 49.556 10.8891 48.5677 11.2851 47.3491C11.3109 47.2669 11.3521 47.1482 11.4602 47.1787C11.6035 47.2175 11.5377 47.3444 11.5142 47.4361C11.3297 48.1729 11.0853 48.885 10.7269 49.5607C10.3897 50.1976 9.83854 50.4255 9.16638 50.4667Z" fill="white"/>
<path fill-rule="evenodd" clip-rule="evenodd" d="M26.9287 47.5916C26.8888 47.8795 26.7231 48.1544 26.4869 48.3895C26.3941 48.4811 26.2718 48.4553 26.172 48.3953C25.4951 47.9899 25.4023 48.0346 25.8018 47.2367C25.9052 47.0299 25.9875 46.7431 26.3318 46.836C26.6385 46.9194 26.924 47.2602 26.9287 47.5916Z" fill="white"/>
<path fill-rule="evenodd" clip-rule="evenodd" d="M10.3545 43.8914C10.3121 44.157 10.1559 44.4096 9.92554 44.62C9.82801 44.7081 9.71755 44.6846 9.61296 44.6223C9.4884 44.5471 9.36619 44.466 9.24045 44.3932C9.04774 44.2827 9.00073 44.1206 9.11002 43.9384C9.28746 43.647 9.29098 43.1934 9.73282 43.1382C9.99722 43.1065 10.3568 43.5577 10.3545 43.8914Z" fill="white"/>
</svg>
