<svg width="85" height="26" viewBox="0 0 85 26" fill="none" xmlns="http://www.w3.org/2000/svg">
<path d="M81.7544 12.6465L81.8323 12.7225C82.5931 13.6337 83.152 14.6883 83.4739 15.8201C83.7786 16.8839 83.8054 18.005 83.5519 19.0815C83.5203 19.2406 83.4451 19.3883 83.3344 19.5092C83.2147 19.6491 83.0873 19.7825 82.9527 19.9089C82.6243 20.1874 82.279 20.4463 81.9185 20.6843C80.909 21.3758 79.8666 22.0113 78.7995 22.6228C77.4329 23.4222 76.0499 24.1616 74.6259 24.8451C74.1129 25.0889 73.5999 25.3247 73.0664 25.5245C72.8475 25.6087 72.6226 25.6768 72.3933 25.7284C72.2206 25.7683 72.0407 25.7683 71.868 25.7284C71.492 25.637 71.1252 25.5126 70.7723 25.3567C69.9966 25.0289 69.2374 24.6612 68.4905 24.2735C66.6724 23.3382 64.8954 22.331 63.1554 21.2319L62.6137 20.8762L62.4741 20.7762C62.5096 20.7722 62.5454 20.7722 62.5808 20.7762C62.6998 20.8282 62.8147 20.8881 62.9338 20.9361C63.5731 21.1965 64.243 21.379 64.9283 21.4797C65.4328 21.5601 65.9438 21.5949 66.4549 21.5836C67.3742 21.5672 68.28 21.3644 69.1143 20.9881C69.8981 20.6323 70.6779 20.2686 71.4412 19.8809C72.9897 19.0815 74.5137 18.2542 76.013 17.3989C77.3221 16.6434 78.619 15.868 79.8748 15.0287C80.2086 14.8049 80.5369 14.573 80.8597 14.3332C81.0464 14.1945 81.2233 14.0436 81.3891 13.8816C81.6178 13.6702 81.7631 13.3873 81.7995 13.0822C81.8077 13.0025 81.8077 12.9221 81.7995 12.8424C81.8077 12.7944 81.7913 12.7465 81.7544 12.6465Z" fill="white"/>
<path d="M81.8517 12.7225L81.7737 12.6465C81.7813 12.7155 81.795 12.7837 81.8147 12.8504C81.823 12.9301 81.823 13.0105 81.8147 13.0902C81.7783 13.3953 81.6331 13.6782 81.4043 13.8896C81.2462 14.0517 81.0776 14.2039 80.8996 14.3452C80.5795 14.585 80.2511 14.8169 79.9146 15.0407C78.9953 15.6562 78.0514 16.2398 77.0952 16.8033C81.7573 16.0039 83.1608 17.9065 83.5835 19.1295V19.0935C83.837 18.017 83.8102 16.8959 83.5056 15.8321C83.1824 14.6948 82.6191 13.6357 81.8517 12.7225Z" fill="white"/>
<path d="M83.9427 17.291C83.8853 17.255 83.8894 17.2071 83.8894 17.1591C83.8759 16.8674 83.8374 16.5773 83.7745 16.2918C83.5275 15.0182 82.9638 13.8229 82.1329 12.8105C81.7628 12.3515 81.3259 11.9475 80.836 11.6114C80.2287 11.2117 79.6049 10.7921 78.9975 10.4123C77.4872 9.45309 75.9319 8.55779 74.3641 7.69046C73.0919 6.98701 71.8074 6.30754 70.49 5.69202C69.9853 5.44821 69.4764 5.21239 68.947 5.01654C68.7582 4.9446 68.5612 4.88065 68.3642 4.82469C68.1137 4.75285 67.8473 4.75285 67.5968 4.82469C67.4554 4.86586 67.3251 4.93682 67.2151 5.03253L67.1084 5.11647V5.03253C67.6383 3.61595 68.5618 2.37058 69.776 1.43533C70.4181 0.971266 71.1391 0.620859 71.9059 0.400132C72.1218 0.340256 72.3507 0.340256 72.5666 0.400132C72.8576 0.469277 73.1418 0.562889 73.4161 0.679914C74.1138 0.959697 74.7868 1.28345 75.4681 1.61918C77.5317 2.65424 79.536 3.7977 81.4722 5.04452C81.9359 5.34429 82.3955 5.65605 82.8347 5.99578C83.0326 6.14926 83.2204 6.3148 83.3969 6.4914C83.5276 6.62443 83.6233 6.78623 83.676 6.96303C83.7832 7.34381 83.856 7.73299 83.8935 8.12613C84.0419 9.59651 84.1145 11.0732 84.111 12.5507C84.111 13.5979 84.111 14.6451 84.0617 15.6922C84.0371 16.2078 84.0002 16.7194 83.9673 17.235C83.9509 17.243 83.9468 17.259 83.9427 17.291Z" fill="white"/>
<path d="M67.6086 4.83276C67.8591 4.76092 68.1255 4.76092 68.376 4.83276C68.573 4.88871 68.7864 4.95267 68.9588 5.02461C69.4841 5.22046 69.9929 5.46027 70.5018 5.70008C71.4457 6.15173 72.3732 6.62736 73.2925 7.12298C69.599 3.19403 71.573 0.847856 72.0613 0.384216H71.9218C71.162 0.613257 70.4495 0.970403 69.8165 1.4394C68.6023 2.37465 67.6788 3.62002 67.1489 5.0366V5.15251L67.2556 5.06857C67.3552 4.96695 67.4754 4.88664 67.6086 4.83276Z" fill="white"/>
<path d="M70.1563 1.01166C70.1358 1.0836 70.0783 1.09959 70.0373 1.12757C68.9313 1.85841 68.0232 2.83886 67.3903 3.98535C67.0366 4.62104 66.7952 5.31012 66.6762 6.02376C66.6433 6.21561 66.6228 6.42345 66.6064 6.60331C66.512 7.65849 66.4423 8.71367 66.4094 9.77285C66.352 11.4915 66.3315 13.2062 66.3766 14.9248C66.3766 15.5044 66.4012 16.0799 66.4258 16.6595C66.4546 17.4069 66.4956 18.1583 66.5695 18.9058C66.6008 19.3084 66.657 19.7088 66.7377 20.1048C66.7691 20.2909 66.8285 20.4714 66.9142 20.6404C66.9802 20.7615 67.0631 20.8731 67.1604 20.9721C67.2746 21.0868 67.4153 21.1732 67.5708 21.2239L67.735 21.2839C67.538 21.3119 67.3821 21.3439 67.2261 21.3558C66.9101 21.3798 66.5941 21.4078 66.2781 21.4118C65.4367 21.429 64.5976 21.3184 63.7911 21.0841C62.8569 20.8157 61.9941 20.3519 61.2631 19.7251L61.2221 19.6931C60.9807 19.5143 60.812 19.258 60.746 18.9697C60.6816 18.7374 60.6336 18.501 60.6024 18.2623C60.5039 17.5628 60.4546 16.8633 60.4177 16.1599C60.3274 14.4932 60.3233 12.8305 60.3602 11.1638C60.3602 10.4323 60.4136 9.7009 60.4669 8.96947C60.4964 8.47267 60.5526 7.97771 60.6352 7.48662C60.6762 7.26679 60.7296 7.05096 60.7912 6.83513C60.8431 6.67035 60.9362 6.52066 61.062 6.39947C61.2746 6.18556 61.5038 5.9878 61.7474 5.80793C62.3589 5.35228 62.9785 4.93261 63.6475 4.52892C65.5633 3.33498 67.5413 2.23837 69.5736 1.24348L70.0824 1.00366L70.1563 1.01166Z" fill="white"/>
<path d="M67.1907 20.9801C67.0933 20.881 67.0105 20.7694 66.9445 20.6483C66.8588 20.4793 66.7993 20.2988 66.768 20.1127C66.6872 19.7167 66.631 19.3163 66.5997 18.9137C66.53 18.1663 66.4848 17.4188 66.4561 16.6674C66.4356 16.1438 66.4233 15.6162 66.4109 15.0927C65.9472 16.4836 64.359 20.2526 61.1333 19.6171C61.1711 19.6525 61.2108 19.6859 61.2523 19.7171L61.2934 19.749C62.0244 20.3759 62.8872 20.8396 63.8214 21.108C64.6279 21.3423 65.4669 21.4529 66.3084 21.4357C66.6244 21.4357 66.9404 21.4037 67.2564 21.3798C67.4274 21.3667 67.5974 21.3427 67.7652 21.3078L67.6011 21.2479C67.4447 21.1911 67.3041 21.0994 67.1907 20.9801Z" fill="white"/>
<path d="M39.8895 16.4356C39.5151 16.8412 39.0624 17.1709 38.5571 17.4059C38.0518 17.6409 37.5039 17.7765 36.9447 17.8051C36.3856 17.8337 35.8261 17.7547 35.2983 17.5725C34.7706 17.3903 34.2849 17.1086 33.869 16.7434C33.7617 16.6523 33.6603 16.5548 33.5653 16.4516C33.1897 16.8578 32.7353 17.1877 32.2283 17.4224C31.7214 17.657 31.1718 17.7918 30.6112 17.8189C30.0506 17.846 29.49 17.765 28.9617 17.5804C28.4333 17.3958 27.9476 17.1114 27.5325 16.7434C27.4258 16.6475 27.3232 16.5476 27.2247 16.4436C26.4677 17.2546 25.4121 17.7413 24.2882 17.7974C23.1642 17.8536 22.0631 17.4747 21.2248 16.7434C21.1175 16.6509 21.0161 16.5521 20.9211 16.4476C20.1629 17.2629 19.1037 17.7519 17.9757 17.8073C16.8478 17.8628 15.7433 17.4801 14.9047 16.7434C14.7974 16.6509 14.696 16.5521 14.6011 16.4476C13.8435 17.2638 12.784 17.7535 11.6558 17.809C10.5275 17.8644 9.42282 17.4811 8.5847 16.7434C8.48347 16.6501 8.38497 16.5542 8.28921 16.4556L8.12095 16.6155L4.34944 20.2927C4.29595 20.3515 4.22788 20.3959 4.15172 20.4218C4.07557 20.4477 3.99387 20.4541 3.91443 20.4405C3.67138 20.407 3.43484 20.3383 3.21266 20.2367C2.89346 20.0889 2.59318 19.9051 2.318 19.6891C2.15384 19.5612 2.14974 19.4693 2.318 19.3254L6.46707 15.2885C6.69001 15.0871 6.87478 14.849 7.01289 14.5851C7.23959 14.0992 7.26158 13.5461 7.07414 13.0446C6.8867 12.5431 6.50478 12.1332 6.01042 11.9029C5.51605 11.6726 4.94868 11.6404 4.43017 11.8131C3.91166 11.9857 3.48336 12.3496 3.23728 12.8265C3.14026 13.0216 3.0765 13.2309 3.0485 13.446C3.00554 13.74 3.0304 14.0396 3.12127 14.3231C3.21214 14.6065 3.36673 14.8667 3.5738 15.0847C3.72565 15.2526 3.90622 15.3965 4.06627 15.5523L4.88706 16.3517C5.01428 16.4796 5.01428 16.5795 4.88706 16.6875C4.52303 16.9847 4.10559 17.2138 3.65588 17.3629C3.50552 17.4067 3.35182 17.4388 3.19624 17.4589C3.13982 17.4688 3.08175 17.4648 3.02729 17.4474C2.97283 17.4299 2.9237 17.3995 2.88434 17.3589C2.49776 17.0146 2.13319 16.6475 1.7927 16.2598C1.10051 15.4566 0.763975 14.4187 0.857001 13.374C0.937108 12.3744 1.38868 11.4375 2.12711 10.7389C2.86555 10.0403 3.8402 9.62782 4.86846 9.5788C5.89673 9.52978 6.90808 9.84757 7.71304 10.4726C8.51801 11.0977 9.06136 11.9871 9.24132 12.9743C9.27826 13.1862 9.29057 13.402 9.30699 13.6138C9.31984 13.9961 9.42531 14.37 9.61478 14.705C9.82909 15.0599 10.1487 15.3433 10.5316 15.5179C10.9145 15.6924 11.3427 15.7499 11.7598 15.6829C12.1769 15.6158 12.5634 15.4273 12.8684 15.1422C13.1734 14.857 13.3826 14.4886 13.4684 14.0855C13.4881 13.9827 13.4977 13.8783 13.4971 13.7737V12.175C13.4971 11.9991 13.5833 11.9192 13.7474 11.9391C14.1631 11.9755 14.5702 12.0753 14.954 12.2349C15.117 12.3113 15.2747 12.3981 15.4259 12.4947C15.5015 12.5356 15.5631 12.5971 15.6032 12.6717C15.6433 12.7463 15.6601 12.8306 15.6517 12.9144V13.7138C15.6464 13.9674 15.6942 14.2194 15.7923 14.4545C15.8904 14.6895 16.0366 14.9026 16.2221 15.0807C16.4793 15.3568 16.8125 15.5552 17.182 15.6523C17.5516 15.7494 17.942 15.741 18.3069 15.6283C18.6768 15.5382 19.0121 15.3457 19.2721 15.074C19.5321 14.8024 19.7057 14.4632 19.772 14.0975C19.8324 13.8397 19.8397 13.5727 19.7934 13.3122C19.7471 13.0516 19.6482 12.8026 19.5024 12.5795C19.3566 12.3565 19.1668 12.1638 18.9439 12.0127C18.7211 11.8616 18.4697 11.7551 18.2043 11.6993C18.1192 11.6802 18.0328 11.6668 17.9458 11.6594H13.8254C13.5587 11.6594 13.5094 11.6114 13.5381 11.3556C13.5753 10.9563 13.6807 10.5659 13.85 10.2005C13.9328 10.0441 14.026 9.89325 14.1291 9.74885C14.169 9.68777 14.2253 9.6384 14.2917 9.60601C14.3582 9.57363 14.4325 9.55945 14.5067 9.56499H17.7898C18.4057 9.56465 19.0135 9.70135 19.5668 9.96468C20.2052 10.2483 20.7598 10.6842 21.1794 11.2319C21.5991 11.7796 21.8701 12.4215 21.9676 13.0982C22.0005 13.3099 22.0169 13.5237 22.0168 13.7377C22.0275 14.2479 22.2341 14.7356 22.596 15.1045C22.9579 15.4735 23.4487 15.6968 23.9714 15.7305C24.4942 15.7641 25.0109 15.6056 25.4195 15.2862C25.8281 14.9669 26.0988 14.5099 26.1782 14.0055C26.1823 13.9443 26.1823 13.8829 26.1782 13.8217V9.91672C26.1782 9.64093 26.2275 9.59297 26.5065 9.62494C26.9014 9.66394 27.2877 9.76237 27.6515 9.91672C27.8087 9.99267 27.9608 10.0781 28.1071 10.1725C28.1815 10.2154 28.2418 10.278 28.2811 10.353C28.3203 10.428 28.3368 10.5124 28.3287 10.5962V13.6938C28.3162 13.9688 28.361 14.2434 28.4604 14.5011C28.5599 14.7588 28.7119 14.9942 28.9073 15.1931C29.1027 15.392 29.3374 15.5504 29.5973 15.6585C29.8573 15.7667 30.137 15.8224 30.4196 15.8224C30.7023 15.8224 30.982 15.7667 31.242 15.6585C31.5019 15.5504 31.7366 15.392 31.932 15.1931C32.1274 14.9942 32.2794 14.7588 32.3789 14.5011C32.4783 14.2434 32.5231 13.9688 32.5106 13.6938V4.80469C32.5106 4.65281 32.5845 4.57687 32.7363 4.58886C33.3425 4.62725 33.9275 4.82173 34.4312 5.15242C34.4995 5.19575 34.5555 5.25502 34.5942 5.32483C34.6329 5.39464 34.6531 5.47277 34.6528 5.55211V13.6698C34.6452 14.186 34.8389 14.6857 35.1949 15.0682C35.5509 15.4506 36.0426 15.6873 36.5708 15.7304C37.099 15.7736 37.6243 15.6199 38.0407 15.3005C38.4571 14.9811 38.7335 14.5197 38.8142 14.0095C38.8183 13.9483 38.8183 13.8869 38.8142 13.8257V9.82878C38.8142 9.65292 38.8881 9.58497 39.0728 9.60096C39.5574 9.63853 40.0299 9.76749 40.464 9.98067C40.5838 10.0464 40.6989 10.1199 40.8087 10.2005C40.8577 10.2329 40.8978 10.2763 40.9257 10.3272C40.9536 10.378 40.9684 10.4346 40.9688 10.4923V13.6898C40.9695 14.1247 41.1129 14.5481 41.3779 14.8982C41.6429 15.2483 42.0157 15.5069 42.4421 15.6363C42.6387 15.6964 42.8434 15.7274 43.0495 15.7282H49.2833C49.6222 15.7406 49.9593 15.6763 50.2683 15.5403C50.6366 15.3838 50.9497 15.1253 51.1685 14.7971C51.3874 14.4688 51.5025 14.0852 51.4995 13.6938C51.5111 13.4269 51.5002 13.1595 51.4666 12.8944C51.3877 12.4267 51.1436 12.0004 50.7764 11.6893C50.4092 11.3782 49.942 11.2017 49.4555 11.1903C48.9689 11.179 48.4936 11.3334 48.1115 11.627C47.7294 11.9206 47.4645 12.335 47.3627 12.7985C47.3299 12.9374 47.3134 13.0796 47.3135 13.2221V14.5251C47.3172 14.6079 47.2991 14.6903 47.2611 14.7644C47.223 14.8385 47.1662 14.902 47.0959 14.9488C46.7674 15.1736 46.3941 15.3288 46.0002 15.4045C45.8041 15.4484 45.6053 15.4804 45.4051 15.5004C45.2369 15.5004 45.163 15.4524 45.163 15.2925V13.0303C45.192 12.0861 45.5694 11.1836 46.2259 10.4883C46.9325 9.69646 47.9304 9.20693 49.0043 9.12533C50.0463 9.03514 51.0855 9.32559 51.9199 9.94021C52.7542 10.5548 53.3241 11.4497 53.5186 12.4507C53.5644 12.7151 53.5918 12.9822 53.6007 13.2501C53.6205 13.5931 53.6054 13.9372 53.5555 14.2773C53.4138 15.1904 52.9621 16.031 52.2725 16.6648C51.583 17.2987 50.6953 17.6894 49.7512 17.7746C49.5378 17.7946 49.3408 17.7746 49.1069 17.7746H43.1274C42.5376 17.7853 41.952 17.6748 41.409 17.4503C40.8659 17.2258 40.3775 16.8923 39.9756 16.4716L39.9346 16.4317L39.8895 16.4356ZM24.1632 19.7571C23.9904 19.5613 23.7684 19.4125 23.5189 19.3254C23.2644 19.2338 22.9887 19.213 22.7227 19.2654C22.372 19.3297 22.0561 19.5131 21.8313 19.7831C21.6065 20.053 21.4874 20.392 21.4953 20.7394C21.5032 21.0869 21.6375 21.4204 21.8743 21.6804C22.1112 21.9404 22.4351 22.1101 22.7884 22.1592C23.1792 22.2124 23.5761 22.1177 23.8974 21.8947C24.2188 21.6717 24.4402 21.3372 24.5161 20.9601C24.569 21.2233 24.6889 21.4694 24.865 21.6756C25.0385 21.8729 25.2638 22.0205 25.5167 22.1029C25.7697 22.1853 26.0409 22.1992 26.3013 22.1432C26.6521 22.079 26.968 21.8955 27.1928 21.6256C27.4176 21.3556 27.5367 21.0167 27.5288 20.6692C27.5209 20.3217 27.3866 19.9883 27.1497 19.7282C26.9129 19.4682 26.589 19.2985 26.2357 19.2495C25.8449 19.1963 25.448 19.2909 25.1267 19.5139C24.8053 19.737 24.5839 20.0714 24.5079 20.4485C24.4525 20.1942 24.3341 19.9568 24.1632 19.7571ZM39.1097 22.1552C39.4624 22.098 39.7828 21.9208 40.0139 21.6551C40.245 21.3894 40.3718 21.0525 40.3718 20.7043C40.3718 20.3561 40.245 20.0192 40.0139 19.7535C39.7828 19.4879 39.4624 19.3107 39.1097 19.2535C38.7173 19.196 38.3173 19.2888 37.9937 19.5124C37.67 19.7359 37.4478 20.0729 37.3737 20.4525C37.2997 20.0697 37.0751 19.7301 36.7478 19.5061C36.4205 19.2822 36.0163 19.1915 35.6214 19.2535C35.2687 19.3107 34.9483 19.4879 34.7172 19.7535C34.4861 20.0192 34.3592 20.3561 34.3592 20.7043C34.3592 21.0525 34.4861 21.3894 34.7172 21.6551C34.9483 21.9208 35.2687 22.098 35.6214 22.1552C36.0138 22.2126 36.4137 22.1198 36.7374 21.8963C37.061 21.6727 37.2832 21.3358 37.3573 20.9561C37.4324 21.3385 37.6572 21.6774 37.9842 21.9012C38.3113 22.125 38.7149 22.2161 39.1097 22.1552ZM49.1931 7.50659C49.4917 7.50738 49.784 7.42189 50.0328 7.26092C50.2816 7.09996 50.4758 6.87076 50.5909 6.6023C50.7059 6.33384 50.7367 6.03818 50.6792 5.75271C50.6217 5.46724 50.4786 5.20478 50.268 4.99852C50.0573 4.79225 49.7886 4.65146 49.4958 4.59393C49.203 4.5364 48.8993 4.56472 48.623 4.67532C48.3467 4.78591 48.1103 4.97381 47.9437 5.21525C47.7771 5.45669 47.6877 5.74083 47.6869 6.03174C47.6864 6.22489 47.7249 6.41626 47.8003 6.59491C47.8757 6.77357 47.9865 6.93601 48.1264 7.07296C48.2662 7.20991 48.4324 7.3187 48.6154 7.3931C48.7984 7.4675 48.9947 7.50606 49.1931 7.50659Z" fill="white"/>
</svg>
