<svg width="92" height="92" viewBox="0 0 92 92" fill="none" xmlns="http://www.w3.org/2000/svg">
<path d="M91 1H1V91H91V1Z" stroke="#55A2E7" stroke-opacity="0.595597"/>
<path fill-rule="evenodd" clip-rule="evenodd" d="M38.5312 66.6255C38.4618 66.1988 38.2874 65.7057 37.9195 65.3038C37.7677 65.1374 37.5586 65.0304 37.33 65.1243C37.076 65.2286 37.0038 65.4683 37.033 65.7151C37.0964 66.253 37.2958 66.7376 37.6983 67.1148C37.8594 67.2653 38.0458 67.4045 38.2837 67.2942C38.5192 67.1849 38.5344 66.9587 38.5312 66.6255ZM23.5 69.1454C23.7263 68.6449 23.773 68.0756 24.0825 67.6078C24.151 67.5045 24.2144 67.341 24.3588 67.3835C24.5596 67.4419 24.4657 67.6242 24.4453 67.7588C24.4185 67.9401 24.3722 68.1182 24.3389 68.299C24.1089 69.5557 24.6341 70.317 25.8954 70.4386C26.9721 70.5423 28.052 70.5026 29.1019 70.1815C29.3832 70.0955 29.6571 69.995 29.8926 69.8109C30.334 69.4651 30.4289 69.0823 30.1161 68.6117C29.8339 68.1859 29.5114 67.7812 29.1657 67.405C28.9154 67.133 28.8715 66.9087 29.0533 66.5778C29.6964 65.4062 29.6872 65.401 30.6366 66.3474C31.5232 67.2302 32.4851 66.9867 32.815 65.7969C32.8493 65.6735 32.8752 65.544 32.9344 65.4323C33.0552 65.2038 33.1995 65.1954 33.3314 65.4281C33.367 65.4912 33.3855 65.5641 33.4096 65.6338C33.802 66.7694 34.0592 66.9274 35.2585 66.8161C35.6986 66.775 35.929 66.5834 35.9072 66.1161C35.8966 65.8796 35.8906 65.63 35.9521 65.4052C36.1062 64.8393 36.4467 64.4341 37.0422 64.2831C37.6784 64.1214 38.1721 64.406 38.5502 64.8505C39.1244 65.5249 39.4302 66.3315 39.414 67.2311C39.4015 67.9228 39.1327 68.4944 38.4655 68.7748C37.7784 69.0631 37.2375 68.7225 36.8215 68.2257C36.5152 67.8597 36.3935 67.7873 36.0544 68.2243C35.3404 69.1449 33.9523 68.9402 33.1172 67.7817C32.6975 68.664 31.9549 68.8262 31.1044 68.7206C30.8763 68.6925 30.8879 68.8491 30.8685 68.9977C30.5473 71.4574 28.9584 72.7043 26.4784 72.4323C26.1166 72.3925 25.7561 72.3178 25.4026 72.2285C24.4092 71.9785 23.7994 71.3242 23.5 70.3577V69.1454Z" fill="#6899D3"/>
<path fill-rule="evenodd" clip-rule="evenodd" d="M63.8979 66.2166C64.0587 66.1638 64.393 66.307 64.4723 66.0253C64.5524 65.7407 64.2285 65.6117 64.0489 65.4394C64.0362 65.4271 64.0194 65.4175 64.0029 65.4095C63.7123 65.2638 63.4183 65.1739 63.121 65.3852C62.9504 65.507 62.8936 65.6898 62.9766 65.8754C63.122 66.2033 63.4384 66.1918 63.7301 66.2161C63.7662 66.219 63.8032 66.2166 63.8979 66.2166ZM62.8758 71.8884C62.3254 71.8251 61.7736 71.7694 61.2246 71.6924C61.0689 71.6705 60.8453 71.6581 60.8195 71.4611C60.7913 71.2536 61.0112 71.2183 61.1575 71.1503C61.9489 70.7843 62.7507 70.4364 63.4267 69.8654C63.6536 69.6745 63.882 69.4813 64.0831 69.2638C64.3452 68.9797 64.7601 68.6399 64.6378 68.2958C64.5229 67.9722 64.0067 68.1797 63.6719 68.1607C62.3976 68.0898 61.8763 67.4439 62.1266 66.1714C62.264 65.4718 62.5129 64.8051 62.8599 64.185C63.3072 63.3869 64.1267 63.3102 64.7442 63.9884C65.1586 64.4448 65.3635 65.0054 65.4822 65.596C65.5637 66.0015 65.7757 66.1671 66.1775 66.1362C66.5633 66.1071 66.9585 66.1818 67.3303 66.0253C67.735 65.8544 67.7842 65.6288 67.4968 65.2995C67.4602 65.2576 67.418 65.2205 67.3768 65.1829C66.5849 64.4553 66.5689 64.2839 67.1817 63.3964C67.3857 63.0999 67.5737 63.0342 67.8339 63.3436C68.6234 64.2858 68.7359 66.1823 68.0374 67.2012C67.6262 67.8004 67.0434 68.1031 66.3242 68.0412C65.7789 67.9946 65.5604 68.2163 65.4995 68.7451C65.4085 69.5355 65.1075 70.2527 64.6659 70.919C64.2331 71.5719 63.738 72.0536 62.8758 71.8884Z" fill="#6899D3"/>
<path fill-rule="evenodd" clip-rule="evenodd" d="M57.8654 66.3512C58.1038 66.2938 58.4604 66.4526 58.556 66.1398C58.6312 65.8908 58.3374 65.7353 58.1463 65.6038C57.8591 65.406 57.5363 65.3055 57.1951 65.5014C57.0103 65.608 56.9311 65.7813 57.0021 65.9702C57.1517 66.3667 57.5329 66.3089 57.8654 66.3512ZM59.7161 67.3945C59.7561 68.809 59.456 70.2028 58.4271 71.3899C58.1226 71.7408 57.779 71.9221 57.2969 71.9212C56.6286 71.9197 55.965 71.8732 55.3068 71.769C55.1089 71.7375 54.8179 71.7384 54.7837 71.512C54.7465 71.2616 55.0481 71.2362 55.2291 71.163C56.4717 70.6584 57.6367 70.0506 58.4609 68.9701C58.5178 68.8959 58.5753 68.8226 58.6284 68.746C58.8421 68.4369 58.8513 68.2457 58.3716 68.2579C57.9552 68.2683 57.5339 68.2903 57.1227 68.1715C56.3405 67.9455 55.9718 67.4664 56.0615 66.6941C56.1605 65.8415 56.4587 65.0354 56.9118 64.3058C57.4489 63.4414 58.4329 63.5006 59.0265 64.3927C59.5375 65.1598 59.7195 65.9279 59.7161 67.3945Z" fill="#6899D3"/>
<path fill-rule="evenodd" clip-rule="evenodd" d="M49.8327 67.1647C49.8296 69.4716 48.7561 70.5973 46.4342 70.7874C45.9078 70.8305 45.3746 70.8511 44.8499 70.7471C43.3576 70.4511 42.6639 69.5864 42.7095 68.076C42.7292 67.4127 42.9312 66.7956 43.2177 66.2041C43.2767 66.083 43.3446 65.9005 43.5073 65.948C43.7062 66.0063 43.5976 66.188 43.5587 66.3077C43.4411 66.6683 43.4443 67.0378 43.4568 67.4069C43.4805 68.1011 43.8219 68.6016 44.4865 68.7832C45.9002 69.1703 47.2892 69.029 48.618 68.4321C49.2334 68.1554 49.3214 67.7778 49.0122 67.1836C48.7646 66.7077 48.3851 66.3333 48.0401 65.935C47.8452 65.7095 47.8206 65.5135 47.9739 65.2722C48.087 65.0937 48.1934 64.9107 48.2962 64.726C48.6555 64.0793 48.8021 64.0685 49.1838 64.7291C49.632 65.505 49.8939 66.3396 49.8327 67.1647Z" fill="#6899D3"/>
<path fill-rule="evenodd" clip-rule="evenodd" d="M55.3238 67.9778C55.3387 69.2102 55.0258 70.2579 54.3496 71.1891C53.9902 71.6832 53.5641 71.9812 52.9344 71.9112C52.3661 71.8476 51.7925 71.8296 51.2383 71.6666C51.1145 71.6302 50.9311 71.6146 50.9394 71.4258C50.9451 71.2812 51.1031 71.2563 51.2133 71.2102C52.0018 70.8777 52.7909 70.5471 53.489 70.0267C53.6023 69.9429 53.7203 69.8655 53.8296 69.7766C54.8696 68.9274 54.8784 68.2624 53.8642 67.3773C53.1112 66.7206 53.1112 66.7206 53.6562 65.8654C54.103 65.1645 54.2526 65.1599 54.7072 65.8493C55.143 66.5106 55.3686 67.2391 55.3238 67.9778Z" fill="#6899D3"/>
<path fill-rule="evenodd" clip-rule="evenodd" d="M52.0171 62.5625C51.8776 64.1643 51.7051 66.1575 51.5292 68.1502C51.5125 68.3381 51.5361 68.6097 51.3084 68.6273C51.052 68.6472 51.085 68.3494 51.0627 68.1809C50.835 66.4788 50.6245 64.7739 50.4066 63.0704C50.3317 62.487 50.5072 62.06 51.0666 61.8576C51.162 61.8232 51.2489 61.7645 51.3396 61.7171C52.0689 61.3375 52.0689 61.3375 52.0171 62.5625Z" fill="#6899D3"/>
<path fill-rule="evenodd" clip-rule="evenodd" d="M61.9024 61.9026C61.7425 63.9855 61.5843 66.0689 61.4216 68.1513C61.4061 68.3419 61.4002 68.6155 61.1918 68.6277C60.9178 68.6435 60.9575 68.3405 60.9328 68.1441C60.7136 66.4233 60.5085 64.7007 60.2817 62.9813C60.2164 62.486 60.388 62.1536 60.7813 61.9347C61.0157 61.8042 61.2663 61.7075 61.5015 61.5779C61.8551 61.3838 61.9522 61.5414 61.9024 61.9026Z" fill="#6899D3"/>
<path fill-rule="evenodd" clip-rule="evenodd" d="M39.4299 63.0498C39.3645 62.299 39.4893 62.0887 40.2076 61.7582C41.128 61.3352 41.1114 61.3334 41.0199 62.4047C40.8618 64.2681 40.7276 66.1343 40.5798 67.999C40.561 68.2394 40.608 68.6128 40.3392 68.6278C40.0418 68.6442 40.0991 68.2622 40.0692 68.0323C39.8508 66.3724 39.6418 64.7106 39.4299 63.0498Z" fill="#6899D3"/>
<path fill-rule="evenodd" clip-rule="evenodd" d="M60.9463 60.3059C60.673 60.267 60.3782 60.2343 60.0857 60.1819C59.6998 60.1134 59.3322 60.0418 58.9641 60.3168C58.7214 60.4979 58.5843 60.3562 58.6312 60.0293C58.75 59.2084 59.3444 58.7134 60.0735 58.9111C61.0937 59.1887 62.0923 59.1202 63.0975 58.8452C63.2416 58.8057 63.4492 58.6418 63.5431 58.8644C63.6248 59.0574 63.4088 59.1736 63.297 59.2961C62.6534 59.9971 61.8383 60.2255 60.9463 60.3059Z" fill="#6899D3"/>
<path fill-rule="evenodd" clip-rule="evenodd" d="M34.4755 70.5506C34.2665 70.8883 34.025 71.1539 33.7185 71.3302C33.4783 71.4685 33.3212 71.2314 33.1903 71.0805C32.9163 70.7632 32.6973 70.7772 32.4066 71.0796C31.9971 71.5056 31.9588 71.4589 31.3908 70.9259C31.0216 70.5787 31.2071 70.3843 31.4608 70.1051C31.7836 69.7497 32.0545 69.6292 32.3953 70.0688C32.705 70.4681 32.9646 70.2492 33.221 69.9795C33.3627 69.83 33.5217 69.6169 33.76 69.7905C34.0431 69.9967 34.3008 70.2388 34.4755 70.5506Z" fill="#6899D3"/>
<path fill-rule="evenodd" clip-rule="evenodd" d="M26.5409 66.4335C26.3508 66.431 25.6788 65.7476 25.6955 65.5738C25.7098 65.4218 26.3594 64.7879 26.5009 64.7871C26.6828 64.7863 27.3532 65.4766 27.3414 65.6517C27.3287 65.8354 26.7142 66.4359 26.5409 66.4335Z" fill="#6899D3"/>
<path fill-rule="evenodd" clip-rule="evenodd" d="M67.1028 60.9454C67.2629 60.9367 67.9458 61.5907 67.9511 61.7589C67.9573 61.926 67.2958 62.5937 67.1262 62.5917C66.9882 62.59 66.325 61.9526 66.3053 61.8027C66.284 61.6423 66.9233 60.9554 67.1028 60.9454Z" fill="#6899D3"/>
<path fill-rule="evenodd" clip-rule="evenodd" d="M46.5487 64.5095C46.5377 64.6651 45.8468 65.345 45.709 65.3357C45.5574 65.3256 44.8948 64.617 44.9025 64.4736C44.9114 64.307 45.5578 63.6803 45.711 63.6896C45.9055 63.7009 46.5604 64.342 46.5487 64.5095Z" fill="#6899D3"/>
<path fill-rule="evenodd" clip-rule="evenodd" d="M37.0455 30.1195C37.0873 30.9572 36.6948 31.371 36.2866 31.7857C34.6853 33.4169 33.1237 35.0883 31.4775 36.6753C30.7822 37.3453 30.7927 37.7559 31.4858 38.4279C35.7657 42.5837 40.0112 46.7744 44.2441 50.9765C44.5886 51.3192 45.4665 51.6702 44.8725 52.2897C44.361 52.8228 43.6177 52.5305 43.1083 52.0314C39.2596 48.2533 35.3638 44.5206 31.6069 40.6561C29.7478 38.7429 29.849 36.0784 31.6048 34.0314C32.9608 32.4506 34.5642 31.1044 36.1018 29.6976C36.2803 29.5339 36.4578 29.3106 36.7334 29.4629C37.0747 29.6502 37.033 30.0084 37.0455 30.1195Z" fill="#6899D3"/>
<path fill-rule="evenodd" clip-rule="evenodd" d="M61.75 37.6611C61.685 38.7222 61.1768 39.7607 60.2998 40.6232C58.8989 42.0013 57.4865 43.3671 56.0699 44.7308C55.852 44.9418 55.6602 45.3319 55.2631 45.0797C54.953 44.8831 54.9812 44.5188 54.9812 44.1935C54.9812 43.5668 55.3888 43.1623 55.7943 42.7485C57.344 41.1748 58.8518 39.56 60.4455 38.0295C61.1978 37.307 61.1014 36.8429 60.3983 36.1522C56.1611 31.9983 51.9573 27.8104 47.7661 23.6112C47.4193 23.2623 46.5413 22.9175 47.1176 22.2959C47.6268 21.7462 48.376 22.0416 48.8852 22.5377C52.7232 26.2841 56.5728 30.0191 60.3585 33.8139C61.3351 34.7937 61.7227 36.109 61.75 37.6611Z" fill="#6899D3"/>
<path fill-rule="evenodd" clip-rule="evenodd" d="M47.8644 28.3756C47.852 27.4522 47.0543 26.6551 46.1271 26.6424C45.1853 26.6288 44.3856 27.4122 44.3866 28.3472C44.3876 29.3349 45.2164 30.0931 46.2514 30.052C47.1734 30.0141 47.8769 29.2833 47.8644 28.3756ZM46.7103 31.3061C43.8344 32.3412 42.2566 34.5661 42.2504 37.5597C42.2493 38.5169 42.3591 39.4541 42.5456 40.3923C42.9507 42.4256 42.3053 43.5028 40.3773 44.1703C39.7961 44.3715 39.5899 44.0861 39.5889 43.5975C39.5837 41.4895 39.3672 39.374 39.6987 37.2775C40.1317 34.5461 41.7717 32.7371 44.1763 31.6051C45.0237 31.2082 45.1128 30.9828 44.3773 30.3131C43.1724 29.2138 43.1817 27.5006 44.2643 26.4666C45.3874 25.3947 47.1051 25.4642 48.0975 26.6224C49.1574 27.8597 48.9647 29.4844 47.6376 30.5311C47.3185 30.7849 47.0108 31.0544 46.6969 31.3166L46.7103 31.3061Z" fill="#FEB82D"/>
<path fill-rule="evenodd" clip-rule="evenodd" d="M53.2136 48.8673C52.3264 48.6768 51.5951 48.1772 51.5597 47.0708C51.5254 46.0515 52.5721 45.051 53.5539 45.1721C54.6384 45.3073 55.1984 46.0292 55.2622 47.0567C55.3213 48.0102 54.3206 48.8967 53.2136 48.8673Z" fill="#95989A"/>
<path fill-rule="evenodd" clip-rule="evenodd" d="M50.1327 48.8672C50.9884 48.96 51.522 49.4102 51.557 50.2179C51.5921 51.0245 51.1188 51.6076 50.2609 51.6445C49.3559 51.6835 48.7905 51.1784 48.7795 50.2759C48.7697 49.4302 49.3252 49.0253 50.1327 48.8672Z" fill="#A9ACAE"/>
<mask id="mask0_472:4937" style="mask-type:alpha" maskUnits="userSpaceOnUse" x="46" y="51" width="3" height="3">
<path d="M46.9265 51.6465H48.7794V53.4994H46.9265V51.6465Z" fill="white"/>
</mask>
<g mask="url(#mask0_472:4937)">
<path fill-rule="evenodd" clip-rule="evenodd" d="M47.8289 51.6465C48.3984 51.708 48.7537 52.0082 48.7782 52.5471C48.8017 53.0851 48.4859 53.4739 47.9144 53.4983C47.311 53.5237 46.9341 53.1873 46.9266 52.586C46.919 52.0217 47.2903 51.7523 47.8289 51.6465Z" fill="#BFC1C3"/>
</g>
<path fill-rule="evenodd" clip-rule="evenodd" d="M46.2672 31.2749C47.1978 31.6467 47.8031 32.3904 48.4965 33.0309C49.061 33.5519 49.016 34.1863 48.7745 34.8217C48.4321 35.7257 48.0317 36.6124 47.7087 37.5236C46.8404 39.9661 47.42 42.1022 49.3229 43.9205C49.7576 44.3373 50.2492 44.7 50.6324 45.1617C48.2732 44.7919 45.7016 42.0337 45.2154 39.6791C44.8172 37.7586 45.3474 35.9402 45.7016 34.0964C45.883 33.1504 46.0869 32.2086 46.2812 31.2646L46.2672 31.2749Z" fill="#FEB82D"/>
</svg>
