<svg width="209" height="92" viewBox="0 0 209 92" fill="none" xmlns="http://www.w3.org/2000/svg">
<path d="M208 1H1V91H208V1Z" stroke="#55A2E7" stroke-opacity="0.6"/>
<path fill-rule="evenodd" clip-rule="evenodd" d="M75.2328 46.0192C75.2328 48.9438 71.9166 48.5 71.9166 48.5H58.6967C56.6345 48.5 56.1599 46.9249 56.1599 45.4845V43.3612L52.6971 46.03V46.7855C52.6971 50.4322 54.5712 51.7526 58.7656 51.7526H73.3494C76.1721 51.7526 78.6839 49.8818 78.6839 47.2066V40.2029L75.2328 43.4053V46.0192Z" fill="white"/>
<path fill-rule="evenodd" clip-rule="evenodd" d="M80.8495 52.4743H83.7369V36.5935L80.8495 39.8362V52.4743Z" fill="white"/>
<path fill-rule="evenodd" clip-rule="evenodd" d="M87.3439 49.412C87.3439 51.5622 86.1022 52.7717 83.7369 52.7717L86.0504 56.0836C87.3656 56.0836 90.9555 55.1884 90.9555 49.1253V39.481L87.3439 42.9273V49.412Z" fill="white"/>
<path fill-rule="evenodd" clip-rule="evenodd" d="M97.326 52.4743H99.7444H100.607H103.05C104.524 52.4743 105.671 51.9585 106.489 50.928C107.201 50.0535 107.558 48.94 107.558 47.5868V40.9925L104.07 44.2843V46.5967C104.07 48.2553 103.483 49.0842 102.308 49.0842H96.5713C96.5713 49.0842 96.6088 47.3887 96.6088 46.4491V35.8716L93.121 39.2088V48.2923C93.121 51.0806 94.5223 52.4743 97.326 52.4743Z" fill="white"/>
<path fill-rule="evenodd" clip-rule="evenodd" d="M109 52.4743H111.887V36.5935L109 39.6176V52.4743Z" fill="white"/>
<path fill-rule="evenodd" clip-rule="evenodd" d="M110.393 30.8186C105.297 30.8186 103.949 34.4385 103.949 35.7638L107.376 38.0372C107.376 35.6526 107.948 34.4597 110.106 34.4597H113.483L116.942 30.8186H110.393Z" fill="white"/>
<path fill-rule="evenodd" clip-rule="evenodd" d="M64.6157 40.2029H56.3064V43.0903H67.8561L64.6157 40.2029Z" fill="white"/>
<path fill-rule="evenodd" clip-rule="evenodd" d="M103.94 57.5274L106.836 54.8229C106.806 54.7815 106.78 54.7353 106.747 54.6961C105.937 53.696 104.801 53.1963 103.342 53.1963C103.342 53.1963 93.9482 53.2023 93.8429 53.2061L97.355 56.4838H102.2C102.905 56.4838 103.544 56.9123 103.94 57.5274Z" fill="white"/>
<path fill-rule="evenodd" clip-rule="evenodd" d="M100.34 57.5273H102.069C102.83 57.5273 103.227 58.3972 103.227 58.3972L102.172 59.6929L100.34 57.5273Z" fill="white"/>
<mask id="mask0_241_4768" style="mask-type:alpha" maskUnits="userSpaceOnUse" x="126" y="26" width="12" height="8">
<path d="M126.326 26.4875H137.876V33.7061H126.326V26.4875Z" fill="white"/>
</mask>
<g mask="url(#mask0_241_4768)">
<path fill-rule="evenodd" clip-rule="evenodd" d="M137.876 27.5489L134.382 26.6743C131.248 25.8897 128.032 27.6488 127.2 30.6032L126.326 33.7062C129.139 30.4217 133.224 28.1489 137.876 27.5489Z" fill="white"/>
</g>
<path fill-rule="evenodd" clip-rule="evenodd" d="M122.981 48.1433L122.181 51.4375C121.402 54.6436 123.148 57.9327 126.082 58.7842L129.214 59.693C125.956 56.8933 123.665 52.8135 122.981 48.1433Z" fill="white"/>
<path fill-rule="evenodd" clip-rule="evenodd" d="M155.255 31.7707L151.591 30.8186C155.231 33.5675 157.741 37.6757 158.331 42.3683L159.338 38.6587C160.153 35.6528 158.325 32.5691 155.255 31.7707Z" fill="white"/>
<mask id="mask1_241_4768" style="mask-type:alpha" maskUnits="userSpaceOnUse" x="142" y="56" width="13" height="9">
<path d="M142.929 56.0837H154.479V64.0242H142.929V56.0837Z" fill="white"/>
</mask>
<g mask="url(#mask1_241_4768)">
<path fill-rule="evenodd" clip-rule="evenodd" d="M142.929 62.9065L146.441 63.8316C149.517 64.6412 152.673 62.8255 153.49 59.7751L154.479 56.0837C151.746 59.693 147.639 62.22 142.929 62.9065Z" fill="white"/>
</g>
<path fill-rule="evenodd" clip-rule="evenodd" d="M146.53 44.4337C144.013 43.9491 142.366 41.5166 142.851 38.9996C143.335 36.4832 145.768 34.8358 148.285 35.3204C150.802 35.8051 152.449 38.2381 151.964 40.7545C151.479 43.2715 149.046 44.9189 146.53 44.4337ZM149.6 53.0328C149.115 55.5492 146.682 57.1961 144.166 56.712C141.649 56.2274 140.001 53.7943 140.487 51.2774C140.971 48.7615 143.404 47.1141 145.921 47.5981C148.437 48.0828 150.085 50.5164 149.6 53.0328ZM139.925 47.0346C138.807 46.8197 138.074 45.738 138.29 44.6196C138.505 43.5012 139.586 42.7687 140.705 42.9837C141.824 43.1997 142.556 44.2808 142.34 45.3997C142.125 46.5181 141.044 47.25 139.925 47.0346ZM137.955 50.7905C137.47 53.3069 135.037 54.9538 132.52 54.4697C130.004 53.9851 128.357 51.5515 128.841 49.0356C129.326 46.5187 131.758 44.8712 134.275 45.3559C136.792 45.8405 138.439 48.2736 137.955 50.7905ZM131.205 36.7573C131.69 34.2404 134.123 32.5929 136.639 33.0781C139.156 33.5628 140.804 35.9953 140.319 38.5122C139.835 41.0286 137.402 42.6761 134.885 42.1914C132.368 41.7068 130.721 39.2737 131.205 36.7573ZM140.403 28.6533C131.432 28.6533 124.161 35.9246 124.161 44.8948C124.161 53.865 131.432 61.1368 140.403 61.1368C149.373 61.1368 156.644 53.865 156.644 44.8948C156.644 35.9246 149.373 28.6533 140.403 28.6533Z" fill="#EC145A"/>
</svg>
