<svg width="92" height="92" viewBox="0 0 92 92" fill="none" xmlns="http://www.w3.org/2000/svg">
<path d="M91 1H1V91H91V1Z" stroke="#55A2E7" stroke-opacity="0.595597"/>
<path fill-rule="evenodd" clip-rule="evenodd" d="M38.1036 40.708C38.1036 43.852 38.1051 46.9953 38.0998 50.1386C38.0998 50.3513 38.1463 50.513 38.3133 50.6593C38.818 51.0977 39.3044 51.5559 39.8045 51.9981C39.9082 52.0903 39.9509 52.1864 39.9509 52.3213C39.9486 53.8491 39.9478 55.377 39.9516 56.9048C39.9516 57.0664 39.896 57.1808 39.7755 57.286C39.3837 57.6283 38.9842 57.9652 38.6274 58.3464C38.5008 58.4814 38.3987 58.4616 38.2736 58.3464C37.8734 57.979 37.4693 57.6153 37.0645 57.2539C36.9738 57.1739 36.9417 57.0824 36.9417 56.9635C36.944 55.3838 36.9433 53.8049 36.944 52.226C36.944 52.1635 36.9196 52.0827 36.9913 52.0461C37.066 52.0072 37.1133 52.0781 37.1605 52.1185C37.4419 52.3656 37.7186 52.6179 38.0022 52.8619C38.112 52.9572 38.1151 53.0753 38.1143 53.2026C38.1135 54.2822 38.1135 55.3617 38.1135 56.4412C38.1135 56.5594 38.0968 56.686 38.2119 56.7622C38.3011 56.8224 38.3453 57.0016 38.4848 56.9261C38.6274 56.8491 38.7585 56.7454 38.757 56.5358C38.7501 55.5371 38.7547 54.5383 38.7547 53.5396C38.7547 53.3338 38.7364 53.1264 38.7577 52.9229C38.7867 52.653 38.6823 52.4715 38.4818 52.2992C37.4022 51.3691 36.3379 50.4238 35.2554 49.4975C35.0167 49.2932 34.9176 49.0805 34.9214 48.7625C34.939 47.375 34.9298 45.9859 34.9291 44.5984C34.9291 44.3674 34.7552 44.0754 34.6195 44.0754C34.4815 44.0754 34.3085 44.3651 34.3085 44.5984C34.3085 48.7336 34.3047 52.8687 34.3146 57.0039C34.3153 57.3264 34.2406 57.5619 33.9814 57.7602C33.7489 57.9378 33.5461 58.1536 33.3288 58.3518C33.2877 58.3899 33.2465 58.4478 33.1794 58.4173C33.1169 58.3891 33.1176 58.3228 33.1154 58.2641C33.1131 58.2123 33.1138 58.1612 33.1138 58.1093C33.1138 53.4824 33.1154 48.8555 33.1093 44.2279C33.1093 44.003 33.1672 43.8414 33.341 43.6942C33.7092 43.3794 34.0599 43.0447 34.4205 42.7207C34.6256 42.5369 34.6485 42.5453 34.8521 42.7374C35.1997 43.0637 35.5481 43.3908 35.908 43.7041C36.0658 43.8414 36.129 43.9885 36.1283 44.1989C36.1199 45.6314 36.1275 47.0632 36.1199 48.4957C36.1184 48.6985 36.1771 48.8449 36.3364 48.9676C36.4813 49.0797 36.6093 49.2131 36.7481 49.3336C36.7847 49.3648 36.8205 49.4212 36.8792 49.3892C36.9212 49.3648 36.9074 49.3107 36.9082 49.268C36.9105 49.194 36.9097 49.1209 36.9097 49.0477V31.3978C36.9097 31.3093 36.9135 31.2209 36.909 31.1332C36.8975 30.9586 36.9616 30.8763 37.1491 30.8855C37.3908 30.8961 37.634 30.8954 37.8757 30.8855C38.0541 30.8786 38.1128 30.9586 38.1051 31.1226C38.099 31.2552 38.1036 31.3871 38.1036 31.5198V40.708Z" fill="#058105"/>
<path fill-rule="evenodd" clip-rule="evenodd" d="M42.5081 54.5873C42.5089 53.8165 42.5074 53.045 42.5097 52.2742C42.5104 52.1904 42.4799 52.0775 42.5806 52.0402C42.6659 52.0074 42.7193 52.1042 42.778 52.1553C43.0319 52.3779 43.2781 52.6097 43.5381 52.8247C43.6647 52.9299 43.7066 53.0465 43.7051 53.2059C43.7005 54.2709 43.7028 55.336 43.7028 56.4002C43.7028 56.6541 43.8797 56.9385 44.0299 56.9301C44.1762 56.9217 44.3455 56.6442 44.3455 56.4109C44.3455 55.1987 44.3424 53.9873 44.3478 52.7751C44.3485 52.6143 44.3028 52.4984 44.1808 52.3924C43.6891 51.9624 43.2072 51.5218 42.7132 51.0933C42.5623 50.9629 42.4937 50.825 42.4937 50.6206C42.4998 48.0285 42.4883 45.4357 42.5028 42.8436C42.5089 41.8815 42.5691 40.9231 43.0083 40.0296C43.2873 39.4624 43.7272 39.0355 44.1511 38.5887C44.8349 37.8713 45.7155 37.4558 46.5617 36.9862C47.8524 36.2703 49.1454 35.5598 50.4339 34.8393C50.5802 34.757 50.6938 34.7479 50.8356 34.8416C50.9812 34.9384 51.1436 35.0109 51.2984 35.0955C51.3495 35.1229 51.4242 35.142 51.428 35.203C51.4341 35.2823 51.3472 35.2983 51.2923 35.3288C50.353 35.8449 49.4115 36.3572 48.473 36.8757C47.4842 37.4215 46.4862 37.9476 45.5821 38.6406C44.5079 39.4624 43.9307 40.5389 43.7569 41.8586C43.7028 42.2665 43.6685 42.6751 43.6685 43.0868C43.67 45.4517 43.6708 47.8158 43.667 50.1807C43.6662 50.3622 43.7097 50.4926 43.8553 50.6176C44.3722 51.0628 44.873 51.5279 45.3854 51.9792C45.4845 52.0661 45.5188 52.1576 45.5188 52.2842C45.5157 53.8265 45.5157 55.3687 45.5188 56.911C45.5188 57.0452 45.4837 57.1489 45.3823 57.2412C44.9729 57.6094 44.5498 57.9624 44.1694 58.3619C44.0764 58.4602 43.9894 58.4442 43.9018 58.3657C43.4649 57.973 43.0304 57.5789 42.5935 57.1855C42.499 57.1009 42.5089 56.9888 42.5089 56.879C42.5081 56.1151 42.5081 55.3512 42.5081 54.5873Z" fill="#058105"/>
<path fill-rule="evenodd" clip-rule="evenodd" d="M40.6104 50.383C40.6104 47.8938 40.6043 45.4038 40.6142 42.9147C40.6165 42.3444 40.6249 41.7696 40.7293 41.2039C40.9397 40.0733 41.3804 39.0677 42.2434 38.2641C43.0668 37.498 43.9839 36.8743 44.9735 36.3475C46.3275 35.6263 47.683 34.9089 49.0332 34.1793C49.239 34.068 49.4044 34.0566 49.6004 34.1892C49.7643 34.2998 49.9503 34.3752 50.1249 34.469C50.1813 34.4995 50.2675 34.5148 50.272 34.5879C50.2774 34.6688 50.1859 34.6764 50.1302 34.7061C49.2169 35.1917 48.302 35.6759 47.3872 36.16C46.5821 36.5846 45.7534 36.9719 44.9781 37.4438C44.1112 37.9699 43.2711 38.5554 42.7572 39.4725C42.2777 40.3302 42.036 41.2664 41.9506 42.2407C41.8813 43.0313 41.9072 43.825 41.9072 44.6178C41.9064 48.7301 41.9049 52.8424 41.911 56.9539C41.911 57.1643 41.8538 57.3107 41.6922 57.4472C41.3842 57.7064 41.093 57.9885 40.7941 58.2599C40.7568 58.2934 40.7217 58.3498 40.6668 58.3331C40.5959 58.311 40.615 58.237 40.6111 58.1814C40.6073 58.1303 40.6104 58.0784 40.6104 58.0274V50.383Z" fill="#058105"/>
<path fill-rule="evenodd" clip-rule="evenodd" d="M56.648 46.3513C56.648 47.6725 56.6495 48.9945 56.6449 50.3164C56.6442 50.4262 56.6853 50.4941 56.7601 50.5612C57.2815 51.0247 57.7977 51.4943 58.3222 51.954C58.432 52.0501 58.4785 52.1484 58.4777 52.2933C58.4747 53.8356 58.4747 55.3779 58.4769 56.9202C58.4777 57.0551 58.4388 57.1535 58.3382 57.248C57.941 57.6185 57.5095 57.9509 57.1413 58.3527C57.0452 58.4579 56.9545 58.4503 56.8569 58.3618C56.4216 57.9685 55.9862 57.5743 55.5502 57.1809C55.4762 57.1146 55.4693 57.0284 55.4693 56.9392C55.4693 55.3748 55.4694 53.8104 55.4701 52.246C55.4701 52.1744 55.4564 52.0852 55.5273 52.0448C55.6104 51.999 55.6599 52.0844 55.711 52.1294C55.9878 52.371 56.2569 52.6203 56.5359 52.8597C56.6503 52.9588 56.6648 53.0785 56.6648 53.2158C56.664 54.2877 56.664 55.3596 56.6648 56.4323C56.6648 56.526 56.6396 56.632 56.712 56.7067C56.7997 56.7974 56.8767 56.969 57.0162 56.9133C57.1634 56.8539 57.3059 56.7395 57.3059 56.5352C57.3036 55.2574 57.3029 53.9797 57.3067 52.7019C57.3075 52.5677 57.2411 52.4839 57.1512 52.4031C56.6533 51.9578 56.1601 51.5065 55.6554 51.0689C55.5143 50.9469 55.4549 50.8211 55.4549 50.6351C55.4587 47.9843 55.4655 45.3327 55.4541 42.6819C55.4488 41.3417 54.9258 40.1966 54.0193 39.2291C53.5825 38.7641 53.1083 38.3333 52.644 37.8957C52.49 37.7501 52.5136 37.6761 52.6905 37.577C53.1144 37.3384 53.1174 37.3239 53.4818 37.6426C54.3288 38.3836 55.1293 39.1712 55.7324 40.1325C56.1319 40.7707 56.4414 41.453 56.6 42.191C56.6571 42.4609 56.6541 42.746 56.6549 43.0243C56.661 44.1335 56.6579 45.242 56.6579 46.3513H56.648Z" fill="#058105"/>
<path fill-rule="evenodd" clip-rule="evenodd" d="M51.1065 47.6069C51.1065 48.4806 51.1088 49.3543 51.1035 50.228C51.1027 50.3873 51.1485 50.5055 51.2705 50.6122C51.7622 51.0422 52.244 51.4844 52.7388 51.9113C52.8905 52.0417 52.9561 52.1812 52.9553 52.384C52.9485 53.86 52.9485 55.3359 52.9553 56.8119C52.9561 57.0284 52.8859 57.1771 52.719 57.3212C52.3355 57.6513 51.9467 57.9776 51.6013 58.3496C51.5152 58.4419 51.4351 58.464 51.3383 58.3763C50.8977 57.9783 50.4578 57.5781 50.0171 57.1786C49.9493 57.1184 49.9447 57.0399 49.9447 56.9568C49.9454 55.3779 49.9447 53.7997 49.9462 52.2208C49.9462 52.1583 49.921 52.0767 49.998 52.044C50.0712 52.0127 50.12 52.0775 50.1681 52.1194C50.4433 52.3626 50.7132 52.6112 50.9922 52.8506C51.0997 52.9436 51.1165 53.0549 51.1165 53.1853C51.1142 54.2724 51.1149 55.3588 51.1157 56.446C51.1157 56.5466 51.0921 56.6602 51.1851 56.7341C51.2758 56.8073 51.3383 56.9781 51.4801 56.9095C51.6196 56.8416 51.7561 56.7357 51.7561 56.5428C51.7546 55.2574 51.7546 53.9728 51.7561 52.6874C51.7561 52.5662 51.7027 52.4831 51.6143 52.4046C51.0959 51.9487 50.5843 51.4859 50.0651 51.0331C49.9317 50.9164 49.9104 50.7784 49.9111 50.6191C49.9127 48.8854 49.9119 47.1525 49.9119 45.4196C49.9119 45.2954 49.9287 45.1612 49.8074 45.0789C49.7274 45.024 49.6611 44.8753 49.5612 44.9401C49.4346 45.0209 49.2745 45.1032 49.2791 45.303C49.2822 45.4417 49.2692 45.5813 49.2684 45.7208C49.2677 46.9032 49.2684 48.0849 49.2684 49.2674C49.2684 49.3261 49.2692 49.3855 49.2669 49.4442C49.2623 49.5662 49.209 49.6181 49.1045 49.5281C48.7881 49.2544 48.4771 48.9754 48.1653 48.6956C48.0936 48.6308 48.0967 48.5378 48.0967 48.4486C48.0967 47.2737 48.0982 46.0989 48.0944 44.9241C48.0936 44.7937 48.1409 44.7038 48.2354 44.6199C48.6296 44.2677 49.0214 43.9124 49.4087 43.5541C49.5498 43.423 49.6573 43.3986 49.8135 43.5533C50.1681 43.904 50.5401 44.2379 50.9137 44.5681C51.0524 44.69 51.1111 44.8219 51.1096 45.0072C51.102 45.874 51.1058 46.7401 51.1065 47.6069Z" fill="#058105"/>
<path fill-rule="evenodd" clip-rule="evenodd" d="M46.0662 50.4256C46.0662 47.9799 46.0555 45.5341 46.0715 43.0892C46.0792 41.8816 46.4565 40.7845 47.18 39.8094C47.825 38.9403 48.6781 38.3342 49.6113 37.815C50.6123 37.2585 51.5996 36.6775 52.5952 36.1119C52.705 36.0493 52.814 35.9236 52.9535 35.9891C53.1914 36.1012 53.4521 36.1889 53.6275 36.3947C53.7167 36.4992 53.5795 36.5418 53.5131 36.5815C52.9322 36.9253 52.349 37.2669 51.7665 37.6077C51.1322 37.9774 50.4865 38.3296 49.8651 38.7207C49.0547 39.2315 48.3373 39.8529 47.9112 40.7334C47.5757 41.4241 47.3661 42.1606 47.3653 42.9382C47.3622 47.5865 47.3615 52.2355 47.3691 56.8845C47.3691 57.1338 47.3043 57.3084 47.1068 57.4685C46.8118 57.7094 46.545 57.9846 46.2637 58.243C46.2179 58.285 46.1745 58.3635 46.1005 58.3223C46.0448 58.2911 46.067 58.2156 46.067 58.1592C46.0662 57.1231 46.0662 56.0878 46.0662 55.0525V50.4256Z" fill="#058105"/>
<path fill-rule="evenodd" clip-rule="evenodd" d="M53.521 50.1636C53.521 47.6005 53.5271 45.0366 53.5187 42.4735C53.5149 41.4252 53.094 40.5218 52.4788 39.6969C52.1731 39.289 51.782 38.9635 51.4122 38.6174C51.2887 38.5015 51.2666 38.4428 51.4305 38.3513C52.154 37.9442 51.8986 37.903 52.4841 38.4626C53.1009 39.0527 53.6849 39.6763 54.0966 40.4326C54.4122 41.0135 54.689 41.615 54.8025 42.2753C54.8155 42.3538 54.8163 42.4361 54.8163 42.5162C54.817 47.3199 54.8155 52.1237 54.8216 56.9275C54.8216 57.1547 54.7553 57.3148 54.5853 57.4596C54.2895 57.712 54.0089 57.9826 53.72 58.2433C53.6742 58.2837 53.6338 58.3638 53.5576 58.3242C53.4974 58.2929 53.5195 58.2182 53.5195 58.1625C53.5179 57.773 53.5187 57.3841 53.5187 56.9946V50.1636H53.521Z" fill="#058105"/>
<path fill-rule="evenodd" clip-rule="evenodd" d="M38.7543 45.6673C38.7543 44.3896 38.7383 43.1118 38.7581 41.8341C38.7817 40.2315 39.323 38.8234 40.4109 37.6326C41.1558 36.8176 42.0584 36.2252 43.0434 35.748C44.556 35.0153 46.0754 34.2934 47.5781 33.5416C47.8945 33.3838 48.1445 33.3594 48.4205 33.5805C48.5425 33.6789 48.7918 33.7139 48.7888 33.8481C48.7857 33.9876 48.544 34.0219 48.4045 34.0944C46.6739 34.997 44.9204 35.8608 43.2112 36.8024C42.0302 37.4527 41.1344 38.4087 40.5642 39.6598C40.0793 40.7225 39.9383 41.831 39.9451 42.983C39.9588 45.5377 39.9497 48.0932 39.9466 50.6487C39.9466 50.7669 40.0038 50.9369 39.878 50.9895C39.7698 51.0353 39.6867 50.882 39.6005 50.8081C39.3779 50.6167 39.166 50.4124 38.9395 50.2264C38.8015 50.1135 38.7497 49.9862 38.7505 49.8086C38.7566 48.4279 38.7543 47.048 38.7543 45.6673Z" fill="#058105"/>
<path fill-rule="evenodd" clip-rule="evenodd" d="M57.3559 33.6578C56.4022 34.0397 55.4492 34.424 54.494 34.8036C54.1875 34.9264 54.1151 34.8822 54.035 34.5871C53.9946 34.4385 54.0777 34.3683 54.1707 34.2936C54.8294 33.7653 55.4889 33.2377 56.1468 32.7094C56.7994 32.1864 57.4505 31.6634 58.1023 31.1396C58.068 31.0931 58.0406 31.1236 58.0215 31.1358C56.6553 31.9699 55.2906 32.8054 53.9237 33.638C53.7918 33.718 53.6553 33.8964 53.5044 33.6532C53.3595 33.4176 53.374 33.3399 53.6317 33.1767C54.792 32.4425 55.9532 31.7107 57.1143 30.9772C58.2312 30.2713 59.3488 29.5661 60.4657 28.8586C60.7775 28.6604 60.7806 28.6581 60.962 28.9691C60.9734 28.9882 60.9856 29.0065 60.9963 29.0255C61.1724 29.3114 61.1678 29.3061 60.9193 29.5211C59.6065 30.6525 58.2967 31.7861 56.9869 32.9198C56.9702 32.9335 56.9587 32.9533 56.9008 33.025C57.0373 32.9701 57.1181 32.9373 57.1981 32.9061C58.7267 32.2992 60.2553 31.6924 61.7839 31.087C62.0408 30.9849 62.0888 31.0138 62.1803 31.2502C62.2344 31.3897 62.1666 31.4514 62.0667 31.517C61.0802 32.1681 60.0937 32.8192 59.1071 33.4718C58.607 33.8034 58.1069 34.1365 57.6205 34.5055C57.9491 34.4217 58.2777 34.3393 58.607 34.2555C59.9503 33.9124 61.2952 33.5686 62.64 33.227C62.7269 33.2049 62.8428 33.1371 62.8985 33.2499C62.9694 33.3978 63.0578 33.5587 63.0143 33.7287C62.9892 33.8278 62.8596 33.8278 62.7704 33.8522C61.7213 34.1365 60.6723 34.4171 59.624 34.7022C58.0085 35.1421 56.3953 35.5866 54.7806 36.0265C54.5283 36.0959 54.4375 36.0349 54.4124 35.8107C54.3971 35.6827 54.4772 35.6262 54.5641 35.5675C55.4546 34.9714 56.3458 34.3744 57.2362 33.7782C57.2835 33.7462 57.3315 33.7127 57.378 33.6791C57.3712 33.6723 57.3636 33.6646 57.3559 33.6578Z" fill="#058105"/>
<path fill-rule="evenodd" clip-rule="evenodd" d="M48.955 26.468C48.7179 27.3996 48.4838 28.3313 48.2437 29.2629C48.2109 29.3902 48.2086 29.5564 47.9997 29.5358C47.7024 29.5069 47.6285 29.4459 47.617 29.1889C47.569 28.0965 47.524 27.0047 47.476 25.9122C47.4478 25.3038 47.415 24.6962 47.3708 24.0878C47.2793 25.2253 47.1886 26.362 47.0955 27.4995C47.0544 28.0042 47.0102 28.5081 46.9667 29.0121C46.9545 29.1402 46.9408 29.2659 46.7563 29.2553C46.4994 29.24 46.4117 29.1821 46.4224 28.9823C46.4498 28.4548 46.4849 27.928 46.52 27.4004C46.5596 26.8004 46.6023 26.2004 46.6457 25.6004C46.7136 24.6345 46.7853 23.6693 46.8508 22.7034C46.8905 22.1171 46.9172 21.5308 46.9598 20.9453C46.9698 20.7944 46.9103 20.5832 47.1855 20.5786C47.6002 20.5717 47.7207 20.6358 47.7459 20.9278C47.8282 21.893 47.9037 22.8589 47.9814 23.8241C48.0432 24.5918 48.1042 25.3595 48.1667 26.1272C48.169 26.1623 48.1819 26.1974 48.2292 26.2408C48.2574 26.1417 48.2872 26.0441 48.3131 25.9442C48.7126 24.3798 49.1105 22.8147 49.5108 21.2503C49.5428 21.1283 49.5474 20.9728 49.7517 21.0124C49.9308 21.0467 50.0139 21.1351 50.004 21.3296C49.9331 22.7804 49.866 24.2319 49.8051 25.6835C49.7913 26.0273 49.8028 26.3727 49.8028 26.7013C49.9499 26.3331 50.1062 25.9412 50.2617 25.5486C50.7367 24.3471 51.2101 23.1448 51.6874 21.944C51.7232 21.8533 51.7423 21.7153 51.8749 21.7351C52.0304 21.758 52.2027 21.7839 52.3163 21.9082C52.3842 21.9822 52.3141 22.0767 52.2836 22.156C51.8978 23.1799 51.509 24.2022 51.1232 25.2253C50.5735 26.6815 50.0269 28.1384 49.4788 29.5953C49.4582 29.6502 49.433 29.7036 49.4094 29.7569C49.3644 29.8591 49.3255 29.9727 49.1738 29.9201C49.032 29.8705 48.8749 29.856 48.8833 29.6319C48.9237 28.6347 48.9519 27.6367 48.984 26.6388C48.9855 26.5808 48.984 26.5221 48.984 26.4642C48.9741 26.4657 48.9649 26.4672 48.955 26.468Z" fill="#058105"/>
<path fill-rule="evenodd" clip-rule="evenodd" d="M53.4913 28.6859C53.9853 28.0874 54.4809 27.4882 54.9757 26.8897C55.5841 26.1548 56.1932 25.4191 56.8023 24.6841C56.8885 24.5805 56.9571 24.4387 57.137 24.566C57.3124 24.6902 57.2857 24.8168 57.198 24.9815C56.3663 26.5588 55.5383 28.1393 54.7073 29.7227C54.7554 29.7532 54.7737 29.7082 54.7927 29.6899C56.0087 28.5502 57.2239 27.4097 58.4377 26.2676C58.6763 26.0435 58.9515 26.109 59.0651 26.4224C59.1047 26.5329 59.0178 26.5848 58.9584 26.6427C58.3858 27.2015 57.811 27.7581 57.2354 28.3154C56.3236 29.199 55.4118 30.0833 54.4969 30.9654C53.9953 31.4495 53.4913 31.9313 52.9859 32.4124C52.9104 32.4841 52.8326 32.6076 52.7129 32.4902C52.61 32.3903 52.5079 32.2851 52.6009 32.1075C52.9577 31.4327 53.303 30.7512 53.6537 30.0734C53.8092 29.7738 53.9671 29.4757 54.1386 29.1494C54.0471 29.1662 54.0212 29.2188 53.9884 29.2592C53.4296 29.94 52.8715 30.6216 52.3112 31.3024C52.2692 31.3535 52.2303 31.4083 52.1793 31.4495C52.0863 31.5258 52.0291 31.695 51.8575 31.5928C51.6517 31.4693 51.5976 31.3275 51.6852 31.1171C52.2974 29.6465 52.9112 28.1766 53.5241 26.706C53.5607 26.6191 53.5958 26.5306 53.6034 26.4285C53.4235 26.7395 53.242 27.0498 53.0629 27.3616C52.4309 28.4556 51.8019 29.5504 51.1676 30.6429C51.1096 30.7436 51.0791 30.9242 50.8847 30.8175C50.6476 30.6871 50.5958 30.5629 50.7071 30.3639C51.452 29.0229 52.1998 27.6834 52.9462 26.3423C53.5035 25.3413 54.0578 24.3395 54.6174 23.3401C54.6784 23.2303 54.7119 23.0458 54.8667 23.0671C55.0595 23.0946 55.241 23.1967 55.382 23.3408C55.44 23.3995 55.3919 23.4803 55.3668 23.549C54.9398 24.691 54.5144 25.8323 54.0867 26.9736C53.8771 27.5362 53.6651 28.0981 53.4532 28.6607C53.4662 28.6691 53.4784 28.6775 53.4913 28.6859Z" fill="#058105"/>
<mask id="mask0_447:2292" style="mask-type:alpha" maskUnits="userSpaceOnUse" x="28" y="37" width="9" height="6">
<path d="M28 37.3271H36.6236V42.7967H28V37.3271Z" fill="white"/>
</mask>
<g mask="url(#mask0_447:2292)">
<path fill-rule="evenodd" clip-rule="evenodd" d="M31.8437 41.2913C32.4902 41.1297 33.1367 40.9688 33.7824 40.8049C34.6286 40.5907 35.4749 40.3719 36.3211 40.1584C36.421 40.1333 36.5422 40.0685 36.6002 40.2263C36.6634 40.3978 36.5925 40.6372 36.4561 40.6852C36.3044 40.7386 36.1473 40.7798 35.991 40.8217C33.6238 41.4583 31.2566 42.0956 28.8894 42.73C28.7735 42.7612 28.6226 42.855 28.5387 42.7437C28.4152 42.5813 28.3641 42.3716 28.3649 42.1643C28.3657 42.0636 28.4846 42.0469 28.5624 42.0125C29.7799 41.4796 30.9982 40.949 32.2149 40.4169C32.6381 40.2316 33.0597 40.0441 33.514 39.8428C33.3745 39.8016 33.2708 39.839 33.1672 39.8466C32.2088 39.9251 31.2521 40.0006 30.2937 40.0776C29.6503 40.1295 29.0061 40.1798 28.3634 40.237C28.204 40.2514 28.0783 40.2598 28.0363 40.0517C27.9944 39.8451 28.0882 39.7864 28.2635 39.7353C29.9186 39.2482 31.5715 38.7541 33.2243 38.2609C33.2632 38.2494 33.3135 38.2578 33.3425 38.1999C33.0642 38.1808 32.7898 38.1572 32.5161 38.1458C31.3207 38.0954 30.1253 38.0497 28.9306 38.0001C28.6882 37.9902 28.4472 37.9696 28.2063 37.9605C28.0211 37.9544 27.9883 37.8408 28.0028 37.6921C28.0165 37.5404 27.9616 37.3361 28.2101 37.33C28.5113 37.3224 28.8124 37.3315 29.1136 37.3399C30.5522 37.3818 31.9893 37.4253 33.4279 37.4695C34.3809 37.4985 35.3346 37.5282 36.2883 37.5587C36.4263 37.5633 36.578 37.5473 36.5971 37.7524C36.6162 37.9445 36.5636 38.068 36.357 38.129C35.4139 38.4072 34.4731 38.697 33.5323 38.9828C33.4988 38.9928 33.4652 39.0042 33.3722 39.0339C33.7145 39.0804 33.992 39.0118 34.2696 38.995C34.8909 38.9569 35.5122 38.8929 36.1328 38.8388C36.1404 38.838 36.1481 38.8349 36.1549 38.8365C36.2967 38.8609 36.498 38.7236 36.5605 38.9661C36.6276 39.226 36.5369 39.3953 36.2967 39.4906C35.006 40.0014 33.7153 40.5099 32.4254 41.0199C32.2287 41.0977 32.032 41.1777 31.8353 41.257C31.8383 41.2685 31.8414 41.2799 31.8437 41.2913Z" fill="#058105"/>
</g>
<path fill-rule="evenodd" clip-rule="evenodd" d="M43.0532 26.2736C43.2072 26.9659 43.3628 27.6581 43.5168 28.3504C43.5778 28.6233 43.6372 28.8955 43.6982 29.1676C43.731 29.3148 43.6952 29.3948 43.5259 29.4276C43.1668 29.4985 43.1714 29.5077 42.9755 29.1592C42.2428 27.854 41.5064 26.5504 40.7707 25.2459C40.7531 25.2147 40.731 25.1865 40.6754 25.1712C40.792 25.4617 40.9087 25.7506 41.0268 26.0403C41.4843 27.1694 41.9432 28.2985 42.4022 29.4276C42.4586 29.5671 42.5318 29.7021 42.3099 29.7783C42.056 29.8652 41.9897 29.8523 41.8944 29.6289C41.2266 28.0546 40.5595 26.4802 39.8916 24.9059C39.5333 24.0612 39.1689 23.2188 38.8129 22.3733C38.7671 22.265 38.6513 22.1347 38.7641 22.0295C38.8998 21.9021 39.0568 21.7779 39.2604 21.771C39.3748 21.768 39.4182 21.8678 39.4678 21.9471C39.9847 22.7842 40.5008 23.6213 41.0162 24.4599C41.4233 25.1224 41.8304 25.7865 42.2375 26.449C42.2512 26.4726 42.2718 26.4932 42.3259 26.5031C42.2405 26.1151 42.1559 25.7262 42.069 25.3374C41.79 24.0841 41.5079 22.8307 41.2327 21.5766C41.2075 21.46 41.1198 21.3204 41.2754 21.2168C41.4805 21.0795 41.5902 21.1154 41.697 21.3502C42.4006 22.9009 43.1051 24.4515 43.8095 26.0015C43.8278 26.0396 43.8507 26.0754 43.8903 26.1456C43.9445 25.8612 43.8789 25.618 43.8576 25.3763C43.7371 24.0238 43.606 22.6729 43.4787 21.3212C43.4695 21.2267 43.4726 21.1306 43.4596 21.0361C43.439 20.8821 43.4909 20.8119 43.6548 20.7898C44.0619 20.7342 44.0657 20.7387 44.1084 21.1466C44.2403 22.416 44.3806 23.6846 44.517 24.9547C44.6474 26.1654 44.7755 27.376 44.9051 28.5875C44.9196 28.7331 44.934 28.8787 44.9531 29.0243C44.9668 29.1303 44.9905 29.2568 44.8487 29.269C44.6977 29.282 44.5086 29.3933 44.4065 29.1638C44.2639 28.8421 44.1168 28.5219 43.9696 28.2017C43.6723 27.5567 43.3757 26.911 43.0784 26.266C43.07 26.2683 43.0616 26.2713 43.0532 26.2736Z" fill="#058105"/>
<path fill-rule="evenodd" clip-rule="evenodd" d="M34.265 33.2243C34.9656 33.4934 35.619 33.7541 36.2815 33.9927C36.5003 34.0713 36.5742 34.1879 36.5674 34.4136C36.5498 34.9541 36.5895 34.9053 36.0886 34.8718C34.7567 34.7826 33.4248 34.6781 32.0929 34.5798C32.0281 34.5752 31.9626 34.579 31.8375 34.579C32.7074 34.7544 33.5186 34.9183 34.3313 35.0814C35.0007 35.2164 35.67 35.3498 36.3386 35.487C36.5399 35.5282 36.5933 35.6433 36.5536 35.8918C36.5216 36.0939 36.389 36.0573 36.254 36.0329C34.1476 35.6387 32.0403 35.2446 29.9331 34.8512C29.5085 34.7719 29.0808 34.7002 28.6561 34.6179C28.3946 34.5668 28.3748 34.5295 28.4312 34.2779C28.525 33.8578 28.5746 33.8395 28.9954 33.8608C29.7875 33.9012 30.5804 33.9157 31.3725 33.9439C32.3247 33.9775 33.2769 34.0133 34.2383 34.0225C33.7915 33.8502 33.344 33.6763 32.8965 33.504C31.7179 33.0512 30.5384 32.5999 29.3598 32.1455C29.125 32.0555 29.1021 31.9557 29.2394 31.746C29.3072 31.6431 29.3903 31.6568 29.4894 31.6728C30.3806 31.8177 31.2719 31.9595 32.1638 32.1013C33.0406 32.24 33.9166 32.378 34.8047 32.4924C34.2939 32.2164 33.7839 31.9404 33.2723 31.6659C32.2774 31.13 31.2818 30.594 30.2831 30.0627C30.1237 29.978 30.0902 29.8896 30.1923 29.7325C30.4035 29.4078 30.3997 29.4024 30.7382 29.5785C32.6091 30.5483 34.4784 31.5203 36.3508 32.487C36.5079 32.5686 36.5857 32.6685 36.5704 32.8476C36.559 33.0016 36.5643 33.1564 36.5681 33.3104C36.5719 33.488 36.5109 33.5635 36.3158 33.5323C35.6502 33.4248 34.9816 33.331 34.265 33.2243Z" fill="#058105"/>
<path fill-rule="evenodd" clip-rule="evenodd" d="M44.353 45.9763C44.353 44.7214 44.3385 43.465 44.3584 42.2101C44.3706 41.3578 44.674 40.5931 45.1627 39.8955C45.8473 38.9166 46.7629 38.2137 47.7936 37.6366C49.0684 36.923 50.3354 36.1965 51.6017 35.4692C51.7474 35.3853 51.8632 35.3708 52.0035 35.4669C52.1186 35.5454 52.2444 35.6087 52.371 35.6674C52.5341 35.7428 52.5585 35.7993 52.3832 35.9029C51.8084 36.243 51.2396 36.5937 50.6686 36.9405C49.7972 37.4696 48.9265 38.0025 48.0521 38.5271C46.9352 39.1957 46.1095 40.1014 45.7047 41.3601C45.5683 41.7847 45.5195 42.2208 45.5187 42.6615C45.5149 45.3199 45.5164 47.9775 45.5164 50.6352C45.5164 50.6794 45.5202 50.7236 45.5164 50.7679C45.5111 50.8372 45.5446 50.928 45.4638 50.9668C45.3822 51.0072 45.3312 50.9257 45.2793 50.8799C45.0094 50.6421 44.7464 50.3966 44.472 50.1641C44.3553 50.0642 44.3439 49.9453 44.3439 49.8088C44.3462 48.5318 44.3454 47.254 44.3454 45.9763H44.353Z" fill="#058105"/>
<path fill-rule="evenodd" clip-rule="evenodd" d="M58.4758 46.4385C58.4758 47.8702 58.4766 49.3028 58.4743 50.7353C58.4743 50.8123 58.5116 50.9175 58.4316 50.9602C58.3347 51.0112 58.2768 50.903 58.2151 50.8504C57.949 50.6201 57.6913 50.3792 57.4229 50.1505C57.3132 50.056 57.3048 49.9416 57.3048 49.8135C57.3063 47.4707 57.2872 45.1272 57.3116 42.7851C57.3292 41.0324 56.6438 39.6289 55.3401 38.496C54.8362 38.0576 54.3368 37.6132 53.8298 37.1786C53.6873 37.0559 53.6995 36.9865 53.8565 36.8897C54.2987 36.6152 54.2934 36.6137 54.6959 36.9339C55.5307 37.5971 56.3457 38.2833 57.0356 39.0998C57.6478 39.8241 58.0969 40.6451 58.3752 41.557C58.4735 41.8787 58.4743 42.2088 58.475 42.5381C58.4773 43.838 58.4758 45.1379 58.4758 46.4385Z" fill="#058105"/>
<mask id="mask1_447:2292" style="mask-type:alpha" maskUnits="userSpaceOnUse" x="56" y="36" width="8" height="5">
<path d="M56.0967 36.0889H63.6696V40.1241H56.0967V36.0889Z" fill="white"/>
</mask>
<g mask="url(#mask1_447:2292)">
<path fill-rule="evenodd" clip-rule="evenodd" d="M60.8962 39.4876C61.6845 39.5608 62.4728 39.6332 63.2618 39.7102C63.3716 39.7209 63.5096 39.7049 63.5378 39.8672C63.5676 40.0403 63.4845 40.1333 63.2817 40.1234C62.6809 40.0952 62.0802 40.0601 61.4794 40.0258C60.5638 39.9717 59.6489 39.913 58.7333 39.8642C58.5633 39.855 58.4436 39.8139 58.3689 39.6454C58.2759 39.4388 58.2789 39.3991 58.5061 39.345C59.0771 39.2108 59.6504 39.0843 60.223 38.9539C60.2436 38.9493 60.2619 38.9417 60.2794 38.8853C59.6116 38.8853 58.9422 38.8655 58.2751 38.8929C57.9107 38.9082 57.7315 38.6749 57.5341 38.4568C57.4258 38.3379 57.5562 38.2769 57.6553 38.2441C58.0106 38.1267 58.3681 38.0147 58.7241 37.9003C59.5902 37.6236 60.4563 37.3453 61.3178 37.0365C60.9816 37.0716 60.6461 37.1059 60.3099 37.1417C59.1435 37.2675 57.977 37.3941 56.8106 37.5183C56.5971 37.5412 56.1786 37.2515 56.1084 37.0434C56.0642 36.9123 56.1526 36.8886 56.2449 36.8779C56.4637 36.8505 56.6825 36.8299 56.9013 36.8055C58.1699 36.6637 59.4377 36.5211 60.7063 36.3786C61.5518 36.284 62.3973 36.1888 63.2435 36.098C63.5203 36.0691 63.5515 36.0965 63.5843 36.3626C63.6507 36.91 63.7551 36.804 63.1894 37.0289C62.2204 37.4139 61.2484 37.789 60.2771 38.1679C60.2314 38.1862 60.1849 38.2053 60.1429 38.2548C60.3732 38.2685 60.6034 38.2868 60.8344 38.2967C61.6547 38.331 62.4758 38.3623 63.2969 38.3951C63.3335 38.3966 63.3701 38.4027 63.4067 38.4073C63.5325 38.4248 63.656 38.4355 63.669 38.6108C63.6819 38.7885 63.5576 38.8136 63.4349 38.8434C62.7503 39.0065 62.0641 39.1681 61.3788 39.3305C61.2164 39.3694 61.054 39.4098 60.8916 39.4502C60.8931 39.4624 60.8946 39.4754 60.8962 39.4876Z" fill="#058105"/>
</g>
<path fill-rule="evenodd" clip-rule="evenodd" d="M52.9515 46.7514V50.606C52.9515 50.6723 52.9538 50.7379 52.9492 50.8042C52.9446 50.8683 52.9538 50.9468 52.8791 50.975C52.8135 50.9994 52.7746 50.9361 52.7319 50.8988C52.4781 50.6762 52.2311 50.4459 51.9711 50.2302C51.8102 50.0975 51.7515 49.9458 51.7523 49.7354C51.7591 47.5107 51.7469 45.2861 51.7599 43.0615C51.7683 41.6069 51.2201 40.3939 50.2306 39.3601C50.0888 39.2122 50.0834 39.1436 50.2702 39.0437C50.8252 38.7456 50.6537 38.6679 51.1485 39.1886C51.8209 39.8968 52.305 40.7179 52.674 41.6152C52.8425 42.0262 52.95 42.4508 52.9507 42.8968C52.9523 44.1814 52.9515 45.466 52.9515 46.7514Z" fill="#058105"/>
<path fill-rule="evenodd" clip-rule="evenodd" d="M53.2477 33.1434C53.0945 33.09 53.0442 32.9437 52.9771 32.8194C52.9153 32.7073 53.0091 32.6471 53.0846 32.5876C53.8111 32.0158 54.5377 31.4441 55.265 30.8723C56.6899 29.7531 58.1148 28.6324 59.5427 27.5163C59.6334 27.4454 59.7211 27.2906 59.856 27.3714C59.994 27.453 60.0688 27.6123 60.1252 27.7625C60.161 27.8555 60.0649 27.902 60.0032 27.9501C59.3079 28.4898 58.6118 29.0296 57.9158 29.5694C56.4421 30.7099 54.9684 31.8512 53.4947 32.9909C53.42 33.0489 53.3506 33.1167 53.2477 33.1434Z" fill="#058105"/>
<path fill-rule="evenodd" clip-rule="evenodd" d="M53.9126 22.5687C53.8943 22.6129 53.879 22.654 53.8608 22.6937C52.9703 24.5699 52.0791 26.4469 51.1886 28.3231C50.8989 28.9338 50.6039 29.5414 50.3241 30.1551C50.228 30.3655 50.1098 30.3419 49.9375 30.2641C49.7561 30.1818 49.7233 30.0865 49.8079 29.9043C50.9568 27.4433 52.0996 24.9793 53.247 22.5176C53.2928 22.4185 53.3073 22.2576 53.459 22.2713C53.6206 22.2858 53.7639 22.3743 53.8829 22.4886C53.9012 22.5061 53.9027 22.5412 53.9126 22.5687Z" fill="#058105"/>
<mask id="mask2_447:2292" style="mask-type:alpha" maskUnits="userSpaceOnUse" x="45" y="20" width="2" height="10">
<path d="M45.1128 20.5H46.093V29.2296H45.1128V20.5Z" fill="white"/>
</mask>
<g mask="url(#mask2_447:2292)">
<path fill-rule="evenodd" clip-rule="evenodd" d="M46.0892 28.648C46.0892 28.7509 46.0824 28.8546 46.0908 28.956C46.1037 29.1207 46.0648 29.2305 45.8712 29.2297C45.6936 29.229 45.5335 29.2373 45.5281 28.9804C45.5205 28.6213 45.4809 28.2638 45.4641 27.9047C45.3825 26.1611 45.3063 24.4176 45.2232 22.674C45.1934 22.058 45.1515 21.4443 45.1149 20.829C45.1004 20.5927 45.1576 20.5165 45.3627 20.5035C45.6684 20.4844 45.7507 20.5378 45.7614 20.7993C45.7873 21.3924 45.8018 21.9871 45.827 22.581C45.8933 24.1492 45.968 25.7167 46.0298 27.2849C46.0473 27.7385 46.0328 28.1936 46.0328 28.648H46.0892Z" fill="#058105"/>
</g>
<path fill-rule="evenodd" clip-rule="evenodd" d="M36.2998 37.1768C35.1333 37.0503 33.9814 36.926 32.8302 36.801C31.6713 36.6752 30.5125 36.5494 29.3545 36.4228C29.0114 36.3855 28.6698 36.3435 28.3275 36.3092C28.156 36.2917 28.0676 36.2238 28.1186 36.0371C28.1331 35.9822 28.1286 35.9212 28.1293 35.8617C28.1316 35.7085 28.2109 35.6566 28.3573 35.6742C29.2088 35.7748 30.0604 35.8731 30.9135 35.9723C32.1433 36.1156 33.3737 36.2597 34.6035 36.4038C35.1935 36.4731 35.7829 36.5418 36.3722 36.6157C36.5857 36.6424 36.7107 36.971 36.575 37.1372C36.4919 37.2393 36.3806 37.1555 36.2998 37.1768Z" fill="#058105"/>
<path fill-rule="evenodd" clip-rule="evenodd" d="M55.5075 36.6849C55.3535 36.6903 54.9235 36.4433 54.8892 36.3373C54.8465 36.2016 54.9646 36.1978 55.0439 36.1833C55.4548 36.1078 55.8665 36.0369 56.279 35.9683C57.9288 35.6946 59.5778 35.4209 61.2276 35.1495C61.836 35.0496 62.4459 34.9612 63.052 34.8537C63.2693 34.8148 63.3417 34.9033 63.3676 35.0992C63.4073 35.4156 63.4004 35.4453 63.1458 35.485C61.0446 35.8143 58.9435 36.1406 56.8424 36.4692C56.3857 36.5401 55.9306 36.6163 55.5075 36.6849Z" fill="#058105"/>
<path fill-rule="evenodd" clip-rule="evenodd" d="M36.6533 41.2767C36.6838 41.4444 36.5817 41.5336 36.417 41.5961C34.1329 42.466 31.8503 43.3382 29.5678 44.2096C29.4305 44.2622 29.2925 44.311 29.1553 44.3643C29.0356 44.4101 28.9655 44.3758 28.9182 44.2523C28.7627 43.8467 28.7589 43.8451 29.1675 43.6927C31.553 42.7999 33.9377 41.9087 36.324 41.0167C36.6061 40.9115 36.6564 40.9466 36.6533 41.2767Z" fill="#058105"/>
<path fill-rule="evenodd" clip-rule="evenodd" d="M35.4084 28.895C35.612 29.0566 35.8148 29.2175 36.0176 29.3806C36.154 29.4897 36.2409 29.9196 36.1548 30.0683C36.0976 30.1674 36.0198 30.1369 35.9497 30.0858C35.8369 30.0043 35.7286 29.9158 35.6181 29.8312C34.4936 28.9697 33.3698 28.1052 32.2415 27.2498C32.0722 27.1217 32.0593 27.034 32.1942 26.8633C32.4839 26.4966 32.4443 26.4882 32.9025 26.742C33.8722 27.278 34.8435 27.8132 35.8148 28.3469C36.2265 28.5725 36.2371 28.5969 36.1799 29.0528C36.1578 29.2175 36.0831 29.2373 35.9581 29.1641C35.7835 29.062 35.6135 28.9545 35.4404 28.8493C35.4298 28.8645 35.4199 28.8798 35.4084 28.895Z" fill="#058105"/>
<path fill-rule="evenodd" clip-rule="evenodd" d="M38.5988 29.1093C38.5988 29.4547 38.5927 29.7993 38.6011 30.1439C38.6056 30.3093 38.5355 30.3642 38.3792 30.3619C37.8074 30.3535 37.2349 30.3444 36.6631 30.3497C36.4695 30.352 36.4077 30.2872 36.4108 30.0958C36.4199 29.4356 36.4199 28.7754 36.4108 28.1144C36.4085 27.9246 36.4687 27.8384 36.6616 27.8583C36.7127 27.8636 36.7653 27.8628 36.8156 27.8583C36.9863 27.8438 37.0519 27.9192 37.0489 28.09C37.042 28.5223 37.0466 28.9553 37.0466 29.3884C37.0466 29.4471 37.0451 29.5065 37.0496 29.5645C37.0542 29.6216 37.0542 29.6979 37.1365 29.688C37.2059 29.6796 37.1853 29.6102 37.1853 29.5606C37.1846 29.0918 37.1808 28.6222 37.1808 28.1525C37.1815 27.872 37.1991 27.859 37.5086 27.859C37.8158 27.859 37.8326 27.8735 37.8341 28.1556C37.8356 28.6031 37.8334 29.0506 37.8364 29.4981C37.8364 29.5591 37.8143 29.6628 37.8928 29.6659C38.0018 29.6704 37.9645 29.5584 37.9652 29.4951C37.9698 29.0697 37.9675 28.6443 37.9683 28.2181C37.9683 27.8575 37.9683 27.8575 38.29 27.859C38.5995 27.8598 38.5995 27.8598 38.5995 28.2067C38.5995 28.5078 38.5995 28.8082 38.5988 29.1093Z" fill="#058105"/>
<path fill-rule="evenodd" clip-rule="evenodd" d="M36.5699 31.7443C36.5699 31.8068 36.5715 31.8365 36.5699 31.8655C36.5654 31.9372 36.5867 32.021 36.5143 32.0675C36.4274 32.1239 36.361 32.0538 36.2962 32.0119C35.694 31.6177 35.0932 31.2213 34.4902 30.8271C33.3977 30.1105 32.3029 29.3946 31.2112 28.6772C31.1227 28.6193 30.9817 28.5789 31.0053 28.4462C31.0335 28.2853 31.1342 28.1428 31.2714 28.0559C31.3819 27.985 31.4757 28.0978 31.5641 28.1565C32.6284 28.864 33.6919 29.573 34.7547 30.282C35.2808 30.6327 35.803 30.9872 36.3328 31.3303C36.5044 31.4408 36.618 31.5605 36.5699 31.7443Z" fill="#058105"/>
<path fill-rule="evenodd" clip-rule="evenodd" d="M38.4149 24.9706C38.4248 24.8112 38.4317 24.6504 38.4439 24.4895C38.4492 24.414 38.4172 24.3096 38.5277 24.2898C38.6169 24.2745 38.6451 24.366 38.6802 24.427C38.9844 24.9622 39.2878 25.4989 39.5905 26.0356C40.285 27.2684 40.9803 28.5019 41.6741 29.7355C41.8296 30.0107 41.7221 30.2104 41.4057 30.2348C41.27 30.2455 41.2426 30.1281 41.1938 30.0435C40.667 29.1278 40.144 28.2107 39.6179 27.2951C39.2489 26.6524 38.88 26.0105 38.5079 25.3693C38.4347 25.2443 38.3943 25.1162 38.4149 24.9706Z" fill="#058105"/>
<path fill-rule="evenodd" clip-rule="evenodd" d="M38.8809 28.7427C38.9031 28.4713 38.8558 28.2022 38.8459 27.9315C38.8383 27.731 38.7712 27.5557 38.5402 27.5069C38.4342 27.4848 38.4037 27.407 38.4029 27.3102C38.4022 27.1775 38.4022 27.0456 38.4014 26.9137C38.4006 26.8474 38.3968 26.7697 38.4693 26.7414C38.5569 26.7079 38.6004 26.7864 38.6423 26.8444C38.9724 27.301 39.3018 27.76 39.6304 28.2182C40.0878 28.8548 40.546 29.4921 41.0004 30.1302C41.0705 30.2286 41.1795 30.33 41.04 30.4535C40.9135 30.5663 40.7915 30.6441 40.6154 30.5137C40.0863 30.1211 39.548 29.7391 39.0121 29.3549C38.9206 29.2893 38.8756 29.2078 38.8802 29.0942C38.884 28.9775 38.8809 28.8601 38.8809 28.7427Z" fill="#058105"/>
<path fill-rule="evenodd" clip-rule="evenodd" d="M38.1029 26.2567C38.1029 26.6165 38.0991 26.9756 38.1052 27.3362C38.1075 27.5009 38.0511 27.5779 37.8742 27.5718C37.6249 27.5611 37.3749 27.5641 37.1256 27.5702C36.9777 27.574 36.909 27.5184 36.9098 27.3667C36.9121 26.6325 36.9121 25.8983 36.9098 25.1642C36.9098 25.0048 36.9815 24.9408 37.1385 24.9446C37.3741 24.9515 37.6097 24.9553 37.8437 24.9431C38.0534 24.9332 38.1113 25.0307 38.1067 25.2213C38.0984 25.5659 38.1045 25.9113 38.1045 26.2567H38.1029Z" fill="#058105"/>
<path fill-rule="evenodd" clip-rule="evenodd" d="M63.1125 41.264C61.7174 41.1893 60.355 41.1169 58.9926 41.0429C58.8965 41.0376 58.7921 41.033 58.7578 40.9187C58.7151 40.7784 58.68 40.6297 58.738 40.4887C58.7685 40.4132 58.8615 40.4269 58.9354 40.4323C60.2978 40.5161 61.6594 40.5992 63.021 40.6831C63.0866 40.6869 63.1522 40.6953 63.2177 40.7037C63.5333 40.7425 63.5982 40.8599 63.4678 41.155C63.3824 41.3471 63.2124 41.2404 63.1125 41.264Z" fill="#058105"/>
<path fill-rule="evenodd" clip-rule="evenodd" d="M36.5573 27.0167C36.6884 27.3606 36.4208 27.4947 36.2279 27.6617C36.1349 27.7425 36.0648 27.6564 36.0061 27.5931C35.5624 27.1052 35.121 26.6157 34.6788 26.1263C34.447 25.8709 34.2145 25.6178 33.9881 25.3585C33.9202 25.2815 33.8005 25.1931 33.9271 25.0826C34.0376 24.9857 34.1489 24.8668 34.3281 24.9995C35.0226 25.5148 35.721 26.0249 36.4254 26.5257C36.6198 26.6645 36.5497 26.8505 36.5573 27.0167Z" fill="#058105"/>
<path fill-rule="evenodd" clip-rule="evenodd" d="M62.9763 42.5899C62.2498 42.5099 61.5286 42.4306 60.8066 42.3521C60.2897 42.2949 59.7713 42.243 59.2551 42.1798C59.1187 42.163 58.9593 42.1805 58.9288 41.964C58.8709 41.563 58.8953 41.5363 59.3032 41.5859C60.4826 41.7277 61.662 41.8618 62.8414 42.0006C62.8993 42.0067 62.9596 42.0105 63.016 42.0227C63.1059 42.0425 63.2317 42.025 63.2538 42.1409C63.2805 42.2773 63.2546 42.4207 63.1753 42.5404C63.1288 42.6097 63.0434 42.5884 62.9763 42.5899Z" fill="#058105"/>
<path fill-rule="evenodd" clip-rule="evenodd" d="M32.9517 43.8475C32.9867 44.016 32.8952 44.1228 32.7161 44.2074C31.7219 44.6755 30.7316 45.1527 29.7405 45.63C29.6086 45.6933 29.5042 45.7329 29.4211 45.5545C29.2709 45.2252 29.2663 45.1619 29.4767 45.062C30.5433 44.5566 31.6106 44.0542 32.6795 43.5525C32.8968 43.4503 32.9517 43.5075 32.9517 43.8475Z" fill="#058105"/>
<path fill-rule="evenodd" clip-rule="evenodd" d="M58.9001 42.9999C58.8956 42.73 58.9284 42.7002 59.1647 42.7338C60.3311 42.9015 61.4976 43.0677 62.6648 43.2354C62.7967 43.2545 62.9331 43.2614 62.9004 43.4664C62.8516 43.7782 62.818 43.8255 62.5893 43.795C61.4496 43.6441 60.3113 43.487 59.1708 43.3399C58.9345 43.3094 58.8872 43.1699 58.9001 42.9999Z" fill="#058105"/>
<path fill-rule="evenodd" clip-rule="evenodd" d="M32.9516 45.0509C32.9859 45.2209 32.8884 45.3292 32.7184 45.4199C31.9041 45.8545 31.0937 46.2959 30.2871 46.7426C30.1148 46.8372 30.0134 46.8219 29.9219 46.6374C29.7763 46.3416 29.7687 46.3088 29.9845 46.193C30.8879 45.7073 31.7921 45.224 32.697 44.7429C32.8975 44.6369 32.9524 44.7002 32.9516 45.0509Z" fill="#058105"/>
<path fill-rule="evenodd" clip-rule="evenodd" d="M58.8487 44.2537C58.8495 43.9304 58.8739 43.9106 59.1735 43.9693C60.1737 44.1675 61.174 44.365 62.1742 44.5632C62.499 44.628 62.5562 44.7629 62.3915 45.0549C62.3244 45.1754 62.2238 45.1479 62.1224 45.1281C61.3508 44.9818 60.5801 44.8346 59.8093 44.6875C59.5783 44.644 59.3488 44.5906 59.1171 44.5602C58.9074 44.5319 58.8091 44.4382 58.8487 44.2537Z" fill="#058105"/>
<path fill-rule="evenodd" clip-rule="evenodd" d="M61.6815 46.3454C61.3842 46.2714 61.0861 46.1967 60.7865 46.122C60.2101 45.9787 59.633 45.8369 59.0574 45.6905C58.8698 45.6432 58.7593 45.2559 58.8874 45.1157C58.9354 45.0623 58.9941 45.0753 59.0505 45.0905C59.9677 45.3246 60.884 45.5586 61.8012 45.7942C61.9194 45.8239 61.988 45.8956 61.9361 46.0191C61.8828 46.1472 61.9163 46.3507 61.6815 46.3454Z" fill="#058105"/>
<path fill-rule="evenodd" clip-rule="evenodd" d="M32.9143 46.3855C32.9821 46.586 32.8418 46.6912 32.6589 46.7964C32.0924 47.1212 31.5328 47.4597 30.9709 47.7936C30.852 47.8645 30.743 47.9346 30.6439 47.7555C30.4731 47.4467 30.4662 47.3628 30.6553 47.2515C31.2881 46.8795 31.9216 46.509 32.5575 46.143C32.8929 45.9501 32.9173 45.9669 32.9143 46.3855Z" fill="#058105"/>
<path fill-rule="evenodd" clip-rule="evenodd" d="M58.8457 46.6266C58.8366 46.3056 58.8717 46.2797 59.1408 46.3681C59.7865 46.5801 60.4338 46.7897 61.0803 47.0032C61.2099 47.0459 61.3654 47.071 61.296 47.2792C61.1931 47.5917 61.1504 47.626 60.8943 47.5452C60.308 47.3623 59.724 47.1694 59.1354 46.9948C58.9197 46.9308 58.7954 46.8316 58.8457 46.6266Z" fill="#058105"/>
<path fill-rule="evenodd" clip-rule="evenodd" d="M32.9449 47.6281C32.9983 47.8462 32.8824 47.9674 32.6941 48.0719C32.2908 48.296 31.8959 48.5361 31.5002 48.7755C31.3538 48.864 31.2563 48.8441 31.1953 48.6772C31.1701 48.6086 31.132 48.5453 31.0969 48.4805C31.0413 48.376 31.0695 48.2983 31.1686 48.2403C31.6939 47.9339 32.2199 47.6274 32.7444 47.3194C32.8672 47.2477 32.9243 47.3064 32.9434 47.4215C32.9541 47.4856 32.9449 47.5534 32.9449 47.6281Z" fill="#058105"/>
<path fill-rule="evenodd" clip-rule="evenodd" d="M37.4976 24.6992H37.387C36.9151 24.6992 36.9151 24.6992 36.9098 24.4209C36.8984 23.8705 37.0889 23.5861 37.4823 23.5663C37.8079 23.5495 38.0961 23.7805 38.0991 24.0923C38.1075 24.8273 38.1776 24.6832 37.4976 24.6992Z" fill="#058105"/>
<path fill-rule="evenodd" clip-rule="evenodd" d="M38.9635 29.8105C39.0359 29.8136 39.0725 29.8624 39.1107 29.9051C39.4065 30.2306 39.7015 30.5562 39.9958 30.8817C40.0682 30.961 40.1444 31.0517 40.0392 31.1462C39.9218 31.2522 39.8174 31.4504 39.6214 31.349C39.3234 31.1935 39.0428 31.0052 38.7561 30.8283C38.6982 30.7933 38.6304 30.7185 38.6967 30.6698C38.9506 30.4875 38.869 30.226 38.8827 29.9859C38.8858 29.9158 38.869 29.8334 38.9635 29.8105Z" fill="#058105"/>
<path fill-rule="evenodd" clip-rule="evenodd" d="M58.8487 47.8324C58.8502 47.4962 58.8853 47.4703 59.1605 47.5816C59.5951 47.7577 60.0273 47.9369 60.4611 48.1138C60.5968 48.1687 60.7234 48.2167 60.6411 48.4126C60.5198 48.697 60.4787 48.7305 60.253 48.6413C59.865 48.4873 59.4815 48.3227 59.0904 48.1778C58.9028 48.1084 58.8075 48.0063 58.8487 47.8324Z" fill="#058105"/>
<path fill-rule="evenodd" clip-rule="evenodd" d="M32.9517 48.8007C32.9989 48.9867 32.8876 49.1072 32.7047 49.2017C32.4958 49.3092 32.3014 49.4419 32.0963 49.5547C31.9171 49.6546 31.7921 49.5852 31.651 49.3466C31.5496 49.1766 31.6297 49.0996 31.7707 49.0203C32.0658 48.8556 32.3532 48.681 32.6437 48.5102C32.8914 48.3646 32.9463 48.3951 32.9517 48.6795V48.8007Z" fill="#058105"/>
<path fill-rule="evenodd" clip-rule="evenodd" d="M36.6085 24.4037C36.6085 24.5547 36.6108 24.6644 36.6078 24.7742C36.6062 24.8276 36.591 24.8787 36.5292 24.8924C36.4804 24.9023 36.44 24.8787 36.4141 24.8421C36.1778 24.5074 35.9414 24.1712 35.7074 23.8335C35.6571 23.761 35.6769 23.6924 35.747 23.6421C35.8309 23.5834 35.917 23.527 36.0032 23.4713C36.1008 23.408 36.1824 23.4279 36.2502 23.5201C36.4522 23.7969 36.716 24.0492 36.6085 24.4037Z" fill="#058105"/>
<path fill-rule="evenodd" clip-rule="evenodd" d="M59.0147 48.7207C59.2991 48.8656 59.598 48.9898 59.864 49.1644C60.0043 49.2567 59.8412 49.384 59.7947 49.4869C59.752 49.5837 59.6849 49.6706 59.5576 49.6135C59.3578 49.5243 59.1573 49.4366 58.9644 49.3337C58.8478 49.2719 58.8142 48.8602 58.908 48.771C58.9332 48.7481 58.9705 48.7405 59.0147 48.7207Z" fill="#058105"/>
<path fill-rule="evenodd" clip-rule="evenodd" d="M38.3642 31.642C38.3642 31.5909 38.3589 31.539 38.365 31.4887C38.3802 31.3652 38.4412 31.3103 38.5541 31.3927C38.7309 31.5215 38.9032 31.6565 39.074 31.7929C39.1556 31.8577 39.1701 31.95 39.0992 32.0232C39.01 32.1146 38.9589 32.2877 38.7805 32.2359C38.538 32.1657 38.3612 31.9057 38.3642 31.642Z" fill="#058105"/>
<path fill-rule="evenodd" clip-rule="evenodd" d="M37.5928 23.2812C37.3389 23.3689 37.2314 23.1715 37.1315 22.9656C37.0843 22.8688 37.1048 22.7941 37.2047 22.7491C37.2985 22.7079 37.3946 22.6706 37.4891 22.6317C37.5867 22.5913 37.6599 22.6225 37.7117 22.711C37.7735 22.8192 37.8398 22.9252 37.8962 23.0357C38.0037 23.2446 37.9709 23.295 37.7369 23.2896C37.7003 23.2889 37.6637 23.285 37.5928 23.2812Z" fill="#058105"/>
<path fill-rule="evenodd" clip-rule="evenodd" d="M32.9524 49.9994C32.9402 50.0993 32.9905 50.2335 32.87 50.3105C32.7778 50.3692 32.6794 50.4919 32.559 50.4012C32.4263 50.3006 32.3234 50.161 32.3082 49.9819C32.3036 49.9255 32.3531 49.8934 32.3981 49.8668C32.4553 49.834 32.5132 49.8027 32.5697 49.7699C32.9196 49.5694 32.9524 49.5877 32.9524 49.9994Z" fill="#058105"/>
<path fill-rule="evenodd" clip-rule="evenodd" d="M38.1311 67.9045C38.1359 67.6158 38.1419 67.3294 38.1839 67.0419C38.2557 66.5482 38.457 66.3793 38.9399 66.5063C39.6768 66.6992 40.4208 66.7148 41.1733 66.6968C43.3695 66.6405 45.3884 65.9791 47.2898 64.9091C48.4293 64.2693 49.4992 63.5277 50.5309 62.7261C50.7693 62.5416 51.0161 62.3738 51.3013 62.2684C51.3863 62.2373 51.4846 62.1941 51.5637 62.2648C51.6475 62.3403 51.6068 62.4385 51.5649 62.52C51.3636 62.9142 51.1407 63.2856 50.7022 63.4714C50.2157 63.6774 49.8551 64.068 49.4417 64.3796C47.7667 65.6412 46.0162 66.7747 44.0189 67.4672C42.3762 68.0375 40.694 68.3359 38.9507 68.0471C38.6475 67.9968 38.6068 68.1693 38.5685 68.397C38.3612 69.6155 37.9191 70.7238 37.0588 71.644C36.4765 72.267 35.7708 72.6672 34.9321 72.7678C34.3246 72.8421 33.4979 72.4659 33.2151 71.6308C32.9922 70.9694 33.0522 70.3128 33.2319 69.655C33.3577 69.1973 33.5266 68.7552 33.7195 68.3239C33.7627 68.228 33.7902 68.0375 33.9196 68.0902C34.085 68.1561 33.9448 68.3119 33.9136 68.4173C33.8345 68.6941 33.7135 68.9601 33.6476 69.2393C33.3433 70.5129 34.1197 71.354 35.4305 71.2474C37.066 71.1144 38.082 69.4813 38.1299 68.4245C38.1383 68.252 38.1311 68.0783 38.1311 67.9045Z" fill="#058105"/>
<path fill-rule="evenodd" clip-rule="evenodd" d="M56.7669 69.8298C56.1738 69.8502 55.5999 69.8082 55.0307 69.704C54.6413 69.6309 54.2771 69.5015 53.944 69.2786C53.581 69.0354 53.43 69.075 53.1628 69.4296C52.9759 69.6776 52.7962 69.934 52.5877 70.1629C52.3433 70.4313 52.0318 70.6038 51.6591 70.4924C51.2853 70.3809 51.1895 70.0491 51.1355 69.7052C51.0253 68.9839 51.1715 68.2794 51.2781 67.5737C51.4231 66.6056 51.5261 65.6255 51.9407 64.7185C51.9695 64.6562 51.9922 64.5903 52.0198 64.5268C52.0473 64.4656 52.0653 64.3794 52.1528 64.3974C52.2438 64.4165 52.2295 64.5064 52.2199 64.5711C52.1648 64.9593 52.106 65.3463 52.0485 65.7345C51.9467 66.4079 51.8389 67.08 51.7454 67.7534C51.7166 67.9583 51.7202 68.168 51.7238 68.3752C51.7286 68.7107 51.9 68.9551 52.2043 69.0702C52.5314 69.1924 52.8201 69.0809 53.0442 68.8209C53.2467 68.5861 53.4216 68.3273 53.666 68.1272C53.8805 67.9499 54.1058 67.884 54.3718 67.9822C56.4673 68.7622 58.5641 68.4136 60.6429 67.9403C62.7672 67.4562 64.6555 66.4474 66.412 65.175C66.7847 64.9054 67.1788 64.6633 67.5706 64.4177C67.6821 64.3482 67.8247 64.2284 67.9481 64.3386C68.0882 64.4656 67.9612 64.6202 67.9025 64.7496C67.7815 65.0156 67.6222 65.2792 67.3574 65.405C66.3976 65.8603 65.6296 66.5948 64.7502 67.1651C62.79 68.4351 60.692 69.3553 58.3736 69.7268C57.838 69.813 57.2965 69.855 56.7669 69.8298Z" fill="#058105"/>
<path fill-rule="evenodd" clip-rule="evenodd" d="M21.2866 69.5281C21.3333 68.318 21.7551 67.2528 22.3086 66.2284C22.4237 66.0163 22.5483 65.8078 22.6789 65.6042C22.7316 65.5227 22.8059 65.4029 22.9221 65.4843C23.0168 65.5502 22.9389 65.6569 22.9005 65.7336C22.6429 66.2368 22.3973 66.7448 22.2008 67.2768C22.0678 67.635 21.9636 67.9993 21.9037 68.3767C21.7683 69.2166 22.2763 69.8816 23.1234 69.9247C24.1358 69.9762 24.8955 69.5042 25.449 68.6822C25.6311 68.4126 25.5808 68.2269 25.2681 68.161C24.3263 67.9633 24.3323 67.4361 24.5899 66.6657C24.9769 65.5071 25.7054 64.5797 26.6675 63.8369C26.8928 63.662 27.1744 63.4451 27.4439 63.6895C27.7315 63.9507 27.4679 64.2227 27.3313 64.4611C27.1624 64.7547 26.9815 65.041 26.5513 64.9428C26.4579 64.9224 26.3297 65.0015 26.2362 65.0626C25.8049 65.3466 25.467 65.7192 25.1938 66.1565C25.0309 66.4153 25.092 66.6274 25.3675 66.6969C26.0936 66.8802 26.1068 67.2456 26.005 67.9681C25.8372 69.1315 25.2597 70.0865 24.3898 70.8689C24.3204 70.93 24.2461 70.9851 24.167 71.0342C23.5104 71.4452 22.8143 71.6009 22.1038 71.2223C21.4244 70.8617 21.313 70.1931 21.2866 69.5281Z" fill="#058105"/>
<path fill-rule="evenodd" clip-rule="evenodd" d="M49.7077 67.9226C49.5831 67.2972 49.8216 66.6729 50.0971 66.0571C50.1379 65.966 50.1834 65.8462 50.3104 65.8678C50.4051 65.8822 50.4027 65.9888 50.4015 66.0691C50.3787 67.5632 50.3152 69.0513 49.4765 70.3693C48.9074 71.2595 48.2376 72.0371 47.1808 72.3666C46.7854 72.49 46.3817 72.5056 45.9827 72.4313C45.0313 72.254 44.5293 71.4536 44.6467 70.3333C44.7354 69.4946 45.0313 68.7218 45.4303 67.9873C45.4806 67.8951 45.5346 67.7225 45.6652 67.7968C45.791 67.8675 45.6676 68.0029 45.628 68.1023C45.4399 68.5612 45.2458 69.0153 45.1883 69.5162C45.1092 70.2003 45.4411 70.7119 46.1109 70.8964C47.3474 71.2379 48.9122 70.549 49.5136 69.4143C49.7545 68.9578 49.7029 68.475 49.7077 67.9226Z" fill="#058105"/>
<path fill-rule="evenodd" clip-rule="evenodd" d="M30.1219 67.9913C30.727 67.9493 31.1811 67.7912 31.5537 67.4317C31.7359 67.2568 31.6544 67.1609 31.4507 67.0974C31.3261 67.0591 31.2243 67.1082 31.1224 67.1609C30.7582 67.3466 30.4826 67.639 30.1219 67.9913ZM27.3913 69.8724C26.676 69.9263 26.416 69.6028 26.6329 68.951C26.6952 68.7653 26.7695 68.5819 26.8558 68.407C26.9528 68.2105 27.0643 68.0008 27.3266 68.0056C27.5855 68.0104 27.734 68.1901 27.8646 68.3902C27.9449 68.5137 27.9078 68.7473 28.0683 68.7593C28.2612 68.7725 28.3631 68.5616 28.4817 68.4238C28.6386 68.2393 28.7812 68.0428 28.9346 67.8547C29.0987 67.651 29.2928 67.5983 29.4977 67.79C29.7278 68.0044 29.9003 67.9325 30.0704 67.7109C30.2813 67.4377 30.497 67.1669 30.7222 66.9033C30.872 66.7284 31.0301 66.5583 31.2015 66.4061C31.4291 66.2036 31.676 65.9987 32.0019 66.194C32.3158 66.3809 32.2978 66.696 32.2547 66.998C32.1289 67.875 31.0517 69.0049 30.189 69.1786C29.7769 69.2625 29.4031 69.2218 29.155 68.824C29.0256 68.6167 28.9106 68.6407 28.7572 68.8192C28.3595 69.2793 27.9257 69.6986 27.6933 70.2905C27.4237 70.9723 26.7755 71.1484 26.1405 71.3078C26.0374 71.3341 25.9164 71.3593 25.8685 71.2359C25.8182 71.1077 25.9416 71.0537 26.0266 71.0034C26.4268 70.7698 26.7923 70.4882 27.1433 70.1887C27.2392 70.1072 27.3446 70.0341 27.3913 69.8724Z" fill="#058105"/>
<path fill-rule="evenodd" clip-rule="evenodd" d="M40.8374 71.0506C40.5103 71.6437 40.0047 71.8833 39.4032 71.9576C39.2798 71.9732 39.1181 72.0235 39.0689 71.8713C39.0282 71.7443 39.1768 71.6832 39.2678 71.6185C39.4176 71.5119 39.571 71.4076 39.7255 71.3082C40.4756 70.8289 41.0387 70.1927 41.3706 69.36C41.4353 69.1994 41.5072 69.0413 41.5815 68.8855C41.6162 68.8136 41.6665 68.7298 41.7636 68.7777C41.8367 68.8124 41.8175 68.8975 41.8007 68.9646C41.7396 69.1863 41.6713 69.4067 41.6905 69.6428C41.7193 69.9986 41.9373 70.2766 42.2512 70.3497C42.6418 70.4383 43.2181 70.2742 43.3595 70.025C43.471 69.8285 43.338 69.7686 43.1822 69.7686C43.0468 69.7674 42.9102 69.8249 42.7748 69.8285C42.4118 69.8417 42.1793 69.5517 42.2944 69.2138C42.419 68.8424 42.5855 68.4841 42.818 68.1654C43.072 67.8192 43.3703 67.8156 43.6399 68.157C44.1323 68.7801 44.0916 69.4606 43.8232 70.1532C43.6722 70.5426 43.4554 70.896 43.1906 71.2207C42.4334 72.1529 41.494 72.105 40.8374 71.0506Z" fill="#058105"/>
<path fill-rule="evenodd" clip-rule="evenodd" d="M67.0682 63.7422C66.9052 63.7302 66.8225 63.7362 66.7447 63.7158C66.3325 63.602 65.9455 63.6427 65.592 63.8967C65.5369 63.9363 65.4662 63.9902 65.4027 63.9459C65.3189 63.8883 65.368 63.8009 65.3919 63.7254C65.6196 62.9957 66.3828 62.5081 67.1436 62.5859C68.0435 62.677 68.8223 62.3727 69.5124 61.8143C69.5759 61.7628 69.6274 61.6981 69.6897 61.6478C69.7748 61.5771 69.8623 61.4441 69.9809 61.5256C70.1223 61.6226 70.0168 61.7592 69.9581 61.8623C69.3063 63.0209 68.2819 63.5924 67.0682 63.7422Z" fill="#058105"/>
<path fill-rule="evenodd" clip-rule="evenodd" d="M55.5699 64.4361C55.5028 64.7919 55.3171 65.0771 55.0163 65.276C54.839 65.3934 54.7072 65.2412 54.5994 65.1298C54.3957 64.9165 54.2507 64.9261 54.1021 65.1933C54.0087 65.3598 53.8876 65.5803 53.666 65.53C53.3976 65.4677 53.1867 65.2652 53.0166 65.0435C52.9543 64.9621 53.0178 64.8662 53.0633 64.7859C53.1711 64.5954 53.273 64.4001 53.3904 64.2156C53.6037 63.8789 53.7211 63.8454 54.0147 64.1138C54.2579 64.3366 54.4017 64.369 54.5718 64.0455C54.6581 63.8813 54.7623 63.6261 55.0391 63.7603C55.3158 63.8933 55.5423 64.0886 55.5699 64.4361Z" fill="#058105"/>
<path fill-rule="evenodd" clip-rule="evenodd" d="M44.8778 63.3758C44.8346 63.6885 44.6345 63.9653 44.3434 64.1678C44.1541 64.2984 44.0151 64.1199 43.8989 64.0084C43.6964 63.8131 43.5634 63.8371 43.4232 64.0779C43.3226 64.2517 43.2039 64.4793 42.9559 64.411C42.6995 64.3403 42.5018 64.1462 42.3341 63.9401C42.2778 63.8706 42.3269 63.782 42.3652 63.7125C42.4719 63.522 42.5761 63.3291 42.6947 63.1458C42.9344 62.7707 43.0578 62.7384 43.3921 63.0511C43.6221 63.2668 43.7239 63.2188 43.8713 62.978C43.9696 62.8187 44.0426 62.5682 44.323 62.6365C44.5962 62.7036 44.8766 63.0559 44.8778 63.3758Z" fill="#058105"/>
<path fill-rule="evenodd" clip-rule="evenodd" d="M67.2577 66.0366C67.0336 67.1665 67.054 68.3671 66.7425 69.5197C66.673 69.7761 66.5627 70.0181 66.4178 70.2422C66.3758 70.3057 66.3387 70.4051 66.2392 70.3704C66.1398 70.3344 66.1757 70.2326 66.1841 70.1583C66.2656 69.4035 66.3794 68.6498 66.4297 67.8926C66.4753 67.2072 66.6921 66.5878 67.0049 65.9911C67.0456 65.9132 67.0719 65.8006 67.1906 65.8246C67.2804 65.8437 67.2505 65.936 67.2577 66.0366Z" fill="#058105"/>
<path fill-rule="evenodd" clip-rule="evenodd" d="M30.2273 71.3633C30.1363 71.3681 30.0284 71.3825 29.9853 71.2806C29.9398 71.1752 30.0248 71.1009 30.1039 71.059C31.2877 70.4347 31.9838 69.4271 32.3876 68.1846C32.4139 68.1007 32.4559 67.9797 32.5661 68.0109C32.7123 68.0504 32.6452 68.1798 32.6212 68.2733C32.4331 69.0245 32.1839 69.7506 31.8185 70.4395C31.4746 71.0889 30.9127 71.3214 30.2273 71.3633Z" fill="#058105"/>
<path fill-rule="evenodd" clip-rule="evenodd" d="M48.3376 68.4313C48.2968 68.7249 48.1279 69.0052 47.8871 69.2449C47.7924 69.3383 47.6678 69.312 47.566 69.2509C46.8758 68.8375 46.7812 68.883 47.1885 68.0695C47.294 67.8586 47.3779 67.5663 47.7289 67.6609C48.0416 67.746 48.3328 68.0934 48.3376 68.4313Z" fill="#058105"/>
<path fill-rule="evenodd" clip-rule="evenodd" d="M31.4395 64.6593C31.3963 64.9301 31.237 65.1877 31.0021 65.4021C30.9027 65.492 30.79 65.468 30.6834 65.4045C30.5564 65.3279 30.4318 65.2452 30.3036 65.1709C30.1071 65.0583 30.0592 64.8929 30.1706 64.7072C30.3515 64.4101 30.3551 63.9476 30.8056 63.8913C31.0752 63.8589 31.4418 64.319 31.4395 64.6593Z" fill="#058105"/>
</svg>
