<svg width="92" height="92" viewBox="0 0 92 92" fill="none" xmlns="http://www.w3.org/2000/svg">
<path d="M91 1H1V91H91V1Z" stroke="#55A2E7" stroke-opacity="0.6"/>
<path fill-rule="evenodd" clip-rule="evenodd" d="M60.7362 38.4582L61.2153 38L67.5618 44.0776C68.2299 44.7204 68.6049 45.5904 68.6049 46.4973C68.6049 47.4042 68.2299 48.2742 67.5618 48.917L61.2153 54.9947L54.8687 48.917C54.201 48.274 53.8262 47.4041 53.8262 46.4973C53.8262 45.5905 54.201 44.7206 54.8687 44.0776L60.7362 38.4582Z" fill="#385E9D"/>
<path fill-rule="evenodd" clip-rule="evenodd" d="M68.1302 38.4582L68.6087 38L74.9552 44.0776C75.6229 44.7206 75.9977 45.5905 75.9977 46.4973C75.9977 47.4041 75.6229 48.274 74.9552 48.917L68.6087 54.9947L62.2621 48.917C61.5944 48.274 61.2196 47.4041 61.2196 46.4973C61.2196 45.5905 61.5944 44.7206 62.2621 44.0776L68.1302 38.4582Z" fill="#FFB81C"/>
<path d="M26.2563 45.7118C26.1168 48.5777 24.141 51.1036 20.9559 51.1777C17.1995 51.2659 17.4283 48.2538 18.2526 45.7472L18.9989 43.4878H17.71L16.7455 46.4712C15.7907 49.4145 14.919 54.8517 19.7716 54.8971C25.2241 54.8971 27.2173 50.2327 27.7271 46.3657C32.3252 47.0616 35.9114 45.1662 38.8754 43.5319C41.0493 42.3297 42.9324 41.2765 44.4018 41.4495L45.2917 38.7379C45.4661 38.2036 44.7477 38.1549 43.8132 38.414C42.4135 38.8047 40.414 39.8199 39.2583 40.3822C37.7442 41.1169 36.4373 41.732 35.1875 42.1935C32.4912 43.1953 29.4735 43.0617 26.3999 42.8026L26.2563 45.7118Z" fill="#385E9C"/>
<path d="M34.0207 54.5064C37.3858 52.2577 38.4968 48.8342 39.6301 45.416L38.2694 45.9156C36.823 49.7084 33.2494 52.7907 28.4839 53.6282L28.0856 54.5057L34.0207 54.5064Z" fill="#385E9C"/>
<path d="M44.6404 51.5656C42.2552 51.4868 41.8228 49.4451 42.924 46.055C43.4122 44.5502 43.611 44.0841 44.0992 42.582C43.5182 42.8251 42.9073 43.0215 42.3263 43.2639L40.8283 48.0218C39.6392 51.7906 40.453 54.9931 44.0364 54.9931C50.6536 54.9931 51.9654 43.9224 47.5689 43.3C45.9711 43.0743 45.3796 44.1615 44.9117 45.3884L44.4081 46.7242C43.77 48.4045 44.9968 49.8057 46.6908 49.4952C47.2801 49.389 47.9706 49.0791 48.442 48.7805C48.5139 50.3854 46.4851 51.6277 44.6404 51.5656Z" fill="#385E9C"/>
<path d="M47.9232 38L49.3181 39.116C50.4563 40.0237 50.3398 40.6221 49.3181 41.5905L48.1094 42.7365L45.5645 40.4411L47.9232 38Z" fill="#385E9C"/>
</svg>
