<svg width="92" height="92" viewBox="0 0 92 92" fill="none" xmlns="http://www.w3.org/2000/svg">
<path d="M91 1H1V91H91V1Z" stroke="#55A2E7" stroke-opacity="0.595597"/>
<path d="M66.6885 56.9229C66.7522 56.9272 66.8236 56.9163 66.9027 56.8899C67.0126 56.7976 67.2004 56.6844 67.4663 56.5504C67.7322 56.4164 67.9969 56.2988 68.2606 56.1978C68.5243 56.0967 68.7132 56.0132 68.8275 55.9473C69.1878 55.7231 69.368 55.499 69.368 55.2749C69.368 55.1782 69.3219 55.1035 69.2296 55.0508C69.1285 55.0024 69.0121 54.9607 68.8802 54.9255C68.7484 54.8904 68.5572 54.8486 68.3067 54.8003C68.0563 54.752 67.8497 54.7333 67.6871 54.7443C67.5245 54.7552 67.3839 54.8025 67.2652 54.886C67.1422 54.9695 67.0246 55.1013 66.9126 55.2815C66.8005 55.4617 66.7247 55.6023 66.6852 55.7034C66.6632 55.7781 66.6654 55.8198 66.6917 55.8286C66.7445 55.855 66.817 55.8044 66.9093 55.677C67.0235 55.5496 67.0917 55.4792 67.1136 55.4661C67.1883 55.4177 67.3136 55.3936 67.4894 55.3936C67.6739 55.3936 67.8772 55.4188 68.0991 55.4694C68.321 55.5199 68.432 55.5627 68.432 55.5979C68.432 55.6067 68.2342 55.7056 67.8387 55.8945C67.6366 55.9912 67.4344 56.1077 67.2323 56.2439C67.0389 56.3801 66.8884 56.5054 66.7807 56.6196C66.6731 56.7339 66.5973 56.824 66.5533 56.8899C66.5797 56.9075 66.6247 56.9185 66.6885 56.9229ZM67.0147 65.5647C67.0851 65.5647 67.1971 65.4329 67.3509 65.1692C67.5047 64.9055 67.5816 64.7034 67.5816 64.5627C67.5685 64.4573 67.4696 64.3112 67.285 64.1244C67.1004 63.9376 66.9598 63.864 66.8631 63.9036C66.8148 63.9036 66.7082 64.0651 66.5434 64.3881C66.3786 64.7111 66.2962 64.9209 66.2962 65.0176C66.2962 65.0659 66.3292 65.1121 66.3951 65.156C66.4698 65.2087 66.5852 65.2867 66.7412 65.39C66.8972 65.4933 66.9884 65.5515 67.0147 65.5647ZM65.202 59.2646L65.258 59.2596C65.2954 59.2531 65.3283 59.2432 65.3569 59.23C65.3855 59.2168 65.4063 59.2058 65.4195 59.197C65.525 58.9597 65.681 58.7598 65.8876 58.5972C66.0765 58.4434 66.2567 58.3665 66.4281 58.3665C66.4808 58.3665 66.5687 58.3818 66.6917 58.4126C66.8456 58.4434 66.9247 58.4587 66.9291 58.4587C67.0873 58.4587 67.2301 58.3687 67.3575 58.1885C67.4146 58.105 67.4564 58.0281 67.4828 57.9578C67.5091 57.8875 67.5223 57.8105 67.5223 57.7271C67.5223 57.626 67.4685 57.5106 67.3608 57.381C67.2532 57.2513 67.1004 57.0876 66.9027 56.8899C66.8675 56.8635 66.8148 56.847 66.7445 56.8405C66.6742 56.8339 66.6105 56.8503 66.5533 56.8899C66.5182 56.9382 66.4665 57.0063 66.3984 57.0942C66.3303 57.1821 66.2721 57.303 66.2237 57.4568C66.2105 57.4875 66.1798 57.5359 66.1314 57.6018C66.048 57.7073 65.9502 57.8259 65.8381 57.9578C65.7261 58.0896 65.6162 58.2302 65.5085 58.3796C65.4009 58.5291 65.2459 58.8015 65.0438 59.197C65.0746 59.2322 65.1086 59.2531 65.146 59.2596C65.1833 59.2662 65.2207 59.2662 65.258 59.2596L65.202 59.2646ZM64.7867 60.5154C64.8482 60.5286 64.8944 60.5 64.9251 60.4297C64.9471 60.3857 64.9757 60.3198 65.0108 60.2319L65.2547 59.5596L65.4195 59.197L65.4327 59.1311C65.4371 59.1091 65.4404 59.085 65.4426 59.0586C65.4448 59.0322 65.4459 58.9839 65.4459 58.9136C65.4459 58.8828 65.4349 58.8455 65.4129 58.8015C65.3866 58.7532 65.3558 58.6993 65.3207 58.64C65.2855 58.5807 65.2328 58.4961 65.1625 58.3862C65.0438 58.2412 64.8988 58.1687 64.7274 58.1687C64.534 58.1687 64.3517 58.2676 64.1803 58.4653C64.1144 58.5576 64.0473 58.6488 63.9792 58.7389C63.9111 58.829 63.8419 58.918 63.7716 59.0059C63.6881 59.1069 63.598 59.1904 63.5013 59.2563C63.4134 59.3267 63.3321 59.3651 63.2574 59.3717C63.1827 59.3783 63.1212 59.3772 63.0729 59.3684C62.9981 59.531 62.9531 59.6947 62.9377 59.8595C62.9223 60.0243 62.9256 60.1902 62.9476 60.3572L63.2311 60.1265C63.4815 59.9067 63.6969 59.6628 63.8771 59.3948C64.0309 59.1882 64.1803 59.0762 64.3253 59.0586C64.5055 59.0586 64.6439 59.1157 64.7406 59.23C64.8329 59.3442 64.879 59.4849 64.879 59.6519C64.879 59.687 64.868 59.7705 64.846 59.9023C64.8329 59.9683 64.8197 60.0375 64.8065 60.11C64.7933 60.1825 64.7779 60.2605 64.7604 60.344C64.7428 60.4495 64.7516 60.5066 64.7867 60.5154ZM60.7789 62.4995C60.836 62.4995 61.0173 62.4501 61.3227 62.3512C61.6282 62.2523 61.8556 62.1754 62.005 62.1205C62.1544 62.0656 62.2665 62.0139 62.3412 61.9656C62.4159 61.9172 62.5191 61.792 62.651 61.5898C62.7828 61.3877 62.9256 61.0735 63.0794 60.6472C63.1146 60.5505 63.1465 60.4462 63.175 60.3341C63.2036 60.222 63.2256 60.1298 63.2409 60.0573C63.2563 59.9847 63.2706 59.8947 63.2838 59.787C63.297 59.6793 63.3036 59.5706 63.3036 59.4607C63.3036 59.2454 63.2431 59.0608 63.1223 58.907C63.0014 58.7532 62.8509 58.6763 62.6708 58.6763C62.5653 58.6763 62.4587 58.7466 62.3511 58.8872C62.2434 59.0278 62.1368 59.2058 62.0313 59.4211C61.9259 59.6365 61.8567 59.7936 61.8237 59.8925C61.7907 59.9913 61.7655 60.0781 61.7479 60.1528C61.7303 60.2759 61.7765 60.3879 61.8863 60.489C61.9962 60.5901 62.1324 60.6428 62.295 60.6472C62.3565 60.6472 62.4192 60.6307 62.4829 60.5978C62.5466 60.5648 62.6092 60.5527 62.6708 60.5615C62.6136 60.7637 62.5246 60.9449 62.4038 61.1053C62.2829 61.2657 62.1643 61.3877 62.0478 61.4712C61.9314 61.5547 61.6732 61.7305 61.2733 61.9985C60.8734 62.2666 60.691 62.4248 60.7262 62.4731C60.7262 62.4907 60.7438 62.4995 60.7789 62.4995ZM58.0235 62.4929C58.0675 62.4929 58.174 62.4786 58.3432 62.4501C58.5124 62.4215 58.7365 62.3666 59.0156 62.2853C59.2947 62.204 59.4968 62.1139 59.622 62.015C59.7473 61.9161 59.8626 61.7722 59.9681 61.5833C60.0736 61.3943 60.1955 61.1152 60.334 60.7461C60.4724 60.377 60.5844 60.0364 60.6701 59.7244C60.7558 59.4124 60.8009 59.197 60.8053 59.0784C60.8053 58.9993 60.7811 58.9553 60.7328 58.9465C60.6756 58.9421 60.6229 58.9905 60.5746 59.0916C60.5262 59.1926 60.446 59.3816 60.334 59.6584C60.2219 59.9353 60.0967 60.21 59.9582 60.4824C59.8198 60.7549 59.6957 60.9592 59.5858 61.0955C59.4759 61.2317 59.2914 61.391 59.0321 61.5734C58.7728 61.7557 58.5454 61.9073 58.3498 62.0282C58.1543 62.149 58.0323 62.2468 57.984 62.3215C57.9488 62.3699 57.9356 62.4094 57.9444 62.4402C57.9532 62.4709 57.9796 62.4885 58.0235 62.4929ZM53.4752 64.978C53.9674 64.978 54.4024 64.8528 54.7804 64.6023C54.9781 64.4749 55.1627 64.321 55.3341 64.1409C55.5055 63.9607 55.6549 63.7805 55.7823 63.6003C56.0328 63.2136 56.235 62.7577 56.3888 62.2325C56.5426 61.7074 56.6195 61.2405 56.6195 60.8318C56.6195 60.5374 56.547 60.3396 56.402 60.2385C56.358 60.2034 56.2679 60.1594 56.1317 60.1067L56.055 60.0758C55.9593 60.0358 55.8904 59.9999 55.8482 59.9683C55.7867 59.9155 55.756 59.8408 55.756 59.7441C55.756 59.6782 55.8164 59.5596 55.9372 59.3882C56.0581 59.2168 56.2262 59.0322 56.4415 58.8345C56.6568 58.6367 56.8546 58.4928 57.0348 58.4027C57.2149 58.3126 57.36 58.2676 57.4698 58.2676C57.4962 58.2676 57.5248 58.2797 57.5555 58.3038C57.5863 58.328 57.6214 58.3533 57.661 58.3796C57.7137 58.3796 57.7752 58.3247 57.8456 58.2148C57.8631 58.1885 57.9148 58.083 58.0005 57.8984C58.0862 57.7139 58.1477 57.5699 58.185 57.4667C58.2224 57.3634 58.2499 57.2568 58.2674 57.147C58.2762 57.1118 58.2718 57.0745 58.2542 57.0349C58.2367 56.9954 58.2037 56.9756 58.1554 56.9756C58.0411 56.9932 57.8851 57.0591 57.6874 57.1733C57.5248 57.2656 57.3578 57.3766 57.1864 57.5062C57.015 57.6359 56.8744 57.7512 56.7645 57.8523C56.558 58.05 56.3294 58.3071 56.079 58.6235C55.7713 59.0103 55.5329 59.4036 55.3637 59.8035C55.1946 60.2034 55.11 60.533 55.11 60.7922C55.11 60.9636 55.1451 61.0988 55.2154 61.1976C55.2857 61.2965 55.389 61.3789 55.5252 61.4448C55.5956 61.48 55.6582 61.5041 55.7131 61.5173C55.768 61.5305 55.8581 61.5569 55.9834 61.5964C56.1086 61.636 56.1712 61.6975 56.1712 61.781C56.1712 61.9172 56.124 62.0699 56.0295 62.2391C55.935 62.4083 55.7977 62.5896 55.6175 62.783C55.4374 62.9763 55.2132 63.1411 54.9452 63.2773C54.5848 63.4575 54.2113 63.5476 53.8246 63.5476C53.3587 63.5476 52.9973 63.4421 52.7402 63.2312C52.4831 63.0203 52.3546 62.7346 52.3546 62.3743C52.3546 62.0315 52.4842 61.5173 52.7435 60.8318C52.7962 60.7087 52.8633 60.5527 52.9446 60.3638C53.0259 60.1748 53.1017 59.999 53.172 59.8364C53.2423 59.6738 53.295 59.5497 53.3302 59.464C53.3653 59.3783 53.4071 59.2717 53.4554 59.1443C53.473 59.1091 53.4807 59.0564 53.4785 58.9861C53.4763 58.9158 53.4532 58.8806 53.4093 58.8806C53.3785 58.8806 53.3434 58.9158 53.3038 58.9861C53.2643 59.0564 53.2269 59.1289 53.1917 59.2036L52.8819 59.8628C52.7809 60.0781 52.649 60.3616 52.4864 60.7131C52.3238 61.0647 52.1854 61.4294 52.0711 61.8074C51.9964 62.0403 51.9415 62.2721 51.9063 62.5028C51.8712 62.7335 51.8536 62.9697 51.8536 63.2114C51.8536 63.4004 51.8789 63.6003 51.9294 63.8113C51.98 64.0222 52.0711 64.2222 52.203 64.4111C52.493 64.7803 52.9171 64.9692 53.4752 64.978ZM50.0738 62.1337C50.1002 62.149 50.1376 62.1348 50.1859 62.0908C50.2254 62.0469 50.2771 61.9766 50.3408 61.8799C50.4045 61.7832 50.4913 61.5887 50.6012 61.2965C50.711 61.0043 50.7835 60.6692 50.8187 60.2913C50.8407 60.1155 50.8539 59.9001 50.8583 59.6453C50.8626 59.3904 50.8692 59.1047 50.878 58.7883C50.878 58.7136 50.8813 58.5994 50.8879 58.4456C50.8945 58.2917 50.9022 58.1346 50.911 57.9742C50.9198 57.8138 50.9297 57.6688 50.9407 57.5392C50.9516 57.4095 50.9615 57.3271 50.9703 57.292C50.9747 57.2568 50.9615 57.2327 50.9308 57.2195C50.9 57.2063 50.8648 57.2305 50.8253 57.292C50.777 57.3887 50.7231 57.4996 50.6638 57.6249C50.6045 57.7501 50.5484 57.8831 50.4957 58.0237C50.443 58.1643 50.3957 58.3071 50.354 58.4521C50.3122 58.5972 50.2826 58.7378 50.265 58.874C50.2342 59.1069 50.2232 59.4442 50.232 59.8859C50.2408 60.3275 50.2386 60.6692 50.2254 60.9109C50.2123 61.1526 50.1793 61.402 50.1266 61.6591C50.0738 61.9161 50.0475 62.0491 50.0475 62.0579C50.0387 62.093 50.0475 62.1183 50.0738 62.1337ZM46.3099 60.9834C46.5956 60.9834 46.8614 60.823 47.1075 60.5022C47.3536 60.177 47.5206 59.9968 47.6085 59.9617C47.6832 59.9265 47.7524 59.9089 47.8161 59.9089C47.8799 59.9089 47.9601 59.9177 48.0567 59.9353C48.1534 59.9353 48.2611 59.8672 48.3797 59.731C48.3973 59.7134 48.4654 59.6189 48.5841 59.4475C48.7687 59.4475 48.951 59.3069 49.1312 59.0256C49.3026 58.7444 49.3883 58.4543 49.3883 58.1555C49.3883 58.0764 49.3707 58.0369 49.3355 58.0369C49.3092 58.0369 49.274 58.1006 49.2301 58.228C49.1773 58.3774 49.14 58.4697 49.118 58.5049C49.0609 58.606 48.995 58.6565 48.9203 58.6565C48.8807 58.6565 48.8104 58.6389 48.7093 58.6038C48.6742 58.595 48.6434 58.5983 48.617 58.6136C48.5907 58.629 48.5423 58.7268 48.472 58.907C48.4017 59.0872 48.327 59.1772 48.2479 59.1772C48.1776 59.1816 48.1106 59.1772 48.0469 59.1641C47.9831 59.1509 47.9271 59.1553 47.8788 59.1772C47.8041 59.208 47.6612 59.3223 47.4503 59.52C47.2921 59.6694 47.0768 59.7441 46.8043 59.7441C46.6065 59.7441 46.4483 59.7002 46.3297 59.6123C46.2066 59.5244 46.1187 59.4124 46.066 59.2761C46.0177 59.1047 45.9935 58.9641 45.9935 58.8542C45.9891 58.7795 45.9869 58.6631 45.9869 58.5049C45.9562 58.4697 45.932 58.4521 45.9144 58.4521C45.8309 58.4521 45.7474 58.5576 45.6639 58.7686C45.576 58.9707 45.4947 59.2344 45.42 59.5596C45.42 59.9595 45.4881 60.2957 45.6244 60.5681C45.7694 60.845 45.9979 60.9834 46.3099 60.9834ZM44.1874 62.4929C44.4159 62.4973 44.6334 62.4116 44.8399 62.2358C44.9718 62.1128 45.1025 61.9524 45.2322 61.7546C45.3618 61.5569 45.4629 61.369 45.5354 61.191C45.6079 61.0131 45.6639 60.8582 45.7035 60.7263C45.7518 60.5901 45.8045 60.4055 45.8617 60.1726C45.9188 59.9397 45.954 59.6497 45.9671 59.3025C45.9715 59.2014 45.9803 59.0267 45.9935 58.7784C46.0067 58.5302 46.0155 58.3203 46.0199 58.1489C46.0638 57.4897 46.1067 56.9921 46.1484 56.6559C46.1902 56.3197 46.2 56.1472 46.1781 56.1384C46.1561 56.1296 46.1319 56.1472 46.1056 56.1912C45.9254 56.6174 45.7936 56.9646 45.7101 57.2327C45.6266 57.5007 45.5661 57.749 45.5288 57.9775C45.4914 58.2061 45.464 58.5038 45.4464 58.8707C45.4288 59.2377 45.4046 59.6694 45.3739 60.166C45.3695 60.3813 45.3343 60.5956 45.2684 60.8087C45.2025 61.0219 45.0487 61.224 44.807 61.4152C44.5653 61.6063 44.3236 61.6975 44.0819 61.6887L43.9171 61.6821C43.8556 61.6821 43.8204 61.6733 43.8116 61.6558C43.9918 61.4009 44.139 61.0955 44.2533 60.7395C44.3368 60.4978 44.4005 60.2495 44.4444 59.9946C44.484 59.731 44.5082 59.4958 44.5169 59.2893L44.662 57.5754C44.6664 57.5271 44.6751 57.4128 44.6883 57.2327C44.7015 57.0569 44.7103 56.9294 44.7147 56.8503C44.7191 56.6877 44.7059 56.6042 44.6751 56.5999C44.6664 56.5999 44.6554 56.6064 44.6422 56.6196C44.629 56.6328 44.6158 56.657 44.6026 56.6921C44.4005 57.2371 44.2533 57.6699 44.161 57.9907C44.0292 58.4653 43.9588 58.9048 43.95 59.3091C43.9544 59.4629 43.9544 59.6101 43.95 59.7507L43.9369 60.1594C43.9325 60.2957 43.9215 60.4583 43.9039 60.6472C43.8819 60.8362 43.8545 60.9889 43.8215 61.1053C43.7885 61.2218 43.7501 61.3152 43.7062 61.3855C43.6622 61.4558 43.6271 61.5085 43.6007 61.5437C43.5436 61.614 43.493 61.6777 43.4491 61.7349C43.4051 61.792 43.3832 61.8425 43.3832 61.8865C43.3832 61.948 43.4139 62.0073 43.4754 62.0645C43.493 62.082 43.537 62.1194 43.6073 62.1765C43.6864 62.2644 43.7721 62.3391 43.8644 62.4006C43.961 62.4578 44.0687 62.4885 44.1874 62.4929ZM39.9422 59.6321C40.0521 59.6848 40.1686 59.6848 40.2916 59.6321C40.3136 59.5618 40.3905 59.4508 40.5223 59.2992C40.6542 59.1476 40.7772 59.0234 40.8915 58.9268C41.0057 58.8301 41.1837 58.707 41.4254 58.5576C41.4913 58.5225 41.5748 58.4752 41.6759 58.4159C41.777 58.3566 41.9 58.2874 42.045 58.2083C42.212 58.1204 42.3724 57.9709 42.5262 57.76C42.68 57.5623 42.7569 57.3733 42.7569 57.1931C42.7569 57.0701 42.6734 56.9492 42.5064 56.8306C42.3438 56.7119 42.1175 56.6262 41.8275 56.5735C41.7396 56.5647 41.6495 56.6284 41.5572 56.7646C41.4957 56.8877 41.4276 57.0173 41.3529 57.1536L41.0892 57.7468C41.0716 57.8127 41.1024 57.8677 41.1815 57.9116C41.2606 57.9512 41.3001 57.9863 41.3001 58.0171C41.3001 58.0566 41.2782 58.1006 41.2342 58.1489C41.1903 58.2104 41.0958 58.2983 40.9508 58.4126C40.8146 58.5312 40.6805 58.6631 40.5487 58.8081C40.4168 58.9531 40.2949 59.1047 40.1828 59.2629C40.0708 59.4211 39.9906 59.5442 39.9422 59.6321ZM37.9186 64.7012C38.1603 64.7012 38.3866 64.666 38.5975 64.5957C38.7909 64.5298 38.9886 64.4331 39.1908 64.3057C39.7401 63.9058 40.1751 63.3696 40.4959 62.6973C40.6981 62.2622 40.8365 61.8975 40.9112 61.603C40.9859 61.2998 41.0233 61.0032 41.0233 60.7131C41.0233 60.5154 41.0013 60.366 40.9574 60.2649C40.9134 60.1726 40.8409 60.0902 40.7398 60.0177C40.6388 59.9452 40.5388 59.8782 40.4399 59.8166C40.341 59.7551 40.2916 59.6936 40.2916 59.6321C40.2872 59.6013 40.2696 59.5793 40.2389 59.5662C40.2081 59.553 40.174 59.5464 40.1367 59.5464C40.0993 59.5464 40.062 59.553 40.0246 59.5662C39.9873 59.5793 39.9598 59.6013 39.9422 59.6321C39.8456 59.8079 39.7632 59.9935 39.695 60.1891C39.6269 60.3846 39.5929 60.5593 39.5929 60.7131C39.5929 60.9285 39.7533 61.1108 40.0741 61.2603C40.3905 61.4053 40.5487 61.5151 40.5487 61.5898C40.5487 61.9634 40.3465 62.3193 39.9422 62.6577C39.4676 63.0532 38.8788 63.251 38.1756 63.251C37.7845 63.251 37.4659 63.1697 37.2198 63.0071C36.8858 62.7742 36.7188 62.3875 36.7188 61.8469C36.7188 61.5613 36.8221 61.157 37.0287 60.634C37.1473 60.3484 37.3626 59.8452 37.6747 59.1245C37.7098 59.0454 37.7384 58.9509 37.7604 58.8411C37.7823 58.7488 37.7691 58.6982 37.7208 58.6895C37.6856 58.6851 37.6351 58.7422 37.5692 58.8608C37.5428 58.9224 37.5088 58.9927 37.467 59.0718C37.4253 59.1509 37.378 59.2388 37.3253 59.3354C37.2506 59.4937 37.1891 59.6222 37.1407 59.7211L37.0505 59.9009L37.0287 59.9419C36.9408 60.144 36.8353 60.3923 36.7123 60.6868C36.598 60.9724 36.4881 61.3108 36.3827 61.7019C36.2772 62.1062 36.2245 62.4336 36.2245 62.6841C36.2245 63.2466 36.3541 63.708 36.6134 64.0684C36.9166 64.4902 37.3517 64.7012 37.9186 64.7012ZM34.4447 62.1337C34.471 62.149 34.5084 62.1348 34.5567 62.0908C34.5963 62.0469 34.6479 61.9766 34.7116 61.8799C34.7754 61.7832 34.8622 61.5887 34.972 61.2965C35.0819 61.0043 35.1544 60.6692 35.1896 60.2913C35.2115 60.1155 35.2247 59.9001 35.2291 59.6453C35.2335 59.3904 35.2401 59.1047 35.2489 58.7883C35.2489 58.7136 35.2522 58.5994 35.2588 58.4456C35.2654 58.2917 35.273 58.1346 35.2818 57.9742C35.2906 57.8138 35.3005 57.6688 35.3115 57.5392C35.3225 57.4095 35.3324 57.3271 35.3412 57.292C35.3456 57.2568 35.3324 57.2327 35.3016 57.2195C35.2708 57.2063 35.2357 57.2305 35.1961 57.292C35.1478 57.3887 35.094 57.4996 35.0346 57.6249C34.9753 57.7501 34.9193 57.8831 34.8666 58.0237C34.8138 58.1643 34.7666 58.3071 34.7248 58.4521C34.6831 58.5972 34.6534 58.7378 34.6358 58.874C34.6051 59.1069 34.5941 59.4442 34.6029 59.8859C34.6117 60.3275 34.6095 60.6692 34.5963 60.9109C34.5831 61.1526 34.5501 61.402 34.4974 61.6591C34.4447 61.9161 34.4183 62.0491 34.4183 62.0579C34.4095 62.093 34.4183 62.1183 34.4447 62.1337ZM30.0569 62.4961L30.1205 62.4929C30.2523 62.4929 30.4347 62.4687 30.6676 62.4204C30.8917 62.3809 31.0719 62.3347 31.2081 62.282C31.4937 62.1545 31.7091 61.9392 31.8541 61.636C31.942 61.4382 32.0584 61.1548 32.2035 60.7856C32.287 60.5923 32.3727 60.4341 32.4605 60.311C32.4869 60.2759 32.5418 60.2253 32.6253 60.1594C32.7088 60.0979 32.9417 59.9749 33.3241 59.7903C33.5965 59.6541 33.8426 59.1948 34.0624 58.4126C34.0931 58.2632 34.0887 58.1819 34.0492 58.1687C34.0096 58.1643 33.9415 58.2478 33.8448 58.4192C33.7481 58.595 33.669 58.7092 33.6075 58.762C33.5416 58.8191 33.4273 58.8872 33.2647 58.9663C33.0802 59.063 32.9505 59.1311 32.8758 59.1707C32.6781 59.2981 32.5331 59.4233 32.4408 59.5464C32.3485 59.665 32.2123 59.9243 32.0321 60.3242C31.8563 60.7241 31.753 60.9438 31.7223 60.9834C31.6256 61.1152 31.4498 61.2734 31.1949 61.458C31.2081 61.4492 31.1004 61.5217 30.8719 61.6755C30.5775 61.8601 30.3731 61.9952 30.2589 62.0809C30.1446 62.1666 30.0699 62.2227 30.0348 62.249C29.9381 62.3193 29.8941 62.3743 29.9029 62.4138C29.9337 62.4797 30.0062 62.5061 30.1205 62.4929L30.0569 62.4961ZM32.4144 67.4631C32.555 67.4631 32.744 67.2236 32.9813 66.7446C33.078 66.8149 33.19 66.9138 33.3175 67.0413C33.4449 67.1687 33.5328 67.2324 33.5812 67.2324C33.6559 67.2324 33.7723 67.1204 33.9305 66.8962C34.0931 66.6677 34.1744 66.47 34.1744 66.303C34.1656 66.1624 34.0854 66.0118 33.9338 65.8514C33.7822 65.691 33.6515 65.6108 33.5416 65.6108C33.5064 65.6108 33.435 65.7009 33.3274 65.8811C33.2197 66.0613 33.1219 66.2239 33.034 66.3689C32.9593 66.2634 32.8506 66.1415 32.7077 66.0031C32.5649 65.8646 32.4562 65.8108 32.3814 65.8416C32.3419 65.8416 32.232 66.0107 32.0519 66.3491C31.8717 66.6875 31.7816 66.8853 31.7816 66.9424C31.7816 66.9687 31.8464 67.0347 31.976 67.1401C32.1057 67.2456 32.2013 67.3247 32.2628 67.3774C32.3287 67.4346 32.3792 67.4631 32.4144 67.4631ZM29.0196 62.1337C29.046 62.149 29.0833 62.1348 29.1317 62.0908C29.1712 62.0469 29.2229 61.9766 29.2866 61.8799C29.3503 61.7832 29.4371 61.5887 29.547 61.2965C29.6568 61.0043 29.7293 60.6692 29.7645 60.2913C29.7865 60.1155 29.7997 59.9001 29.8041 59.6453C29.8084 59.3904 29.815 59.1047 29.8238 58.7883C29.8238 58.7136 29.8271 58.5994 29.8337 58.4456C29.8403 58.2917 29.848 58.1346 29.8568 57.9742C29.8656 57.8138 29.8755 57.6688 29.8864 57.5392C29.8974 57.4095 29.9073 57.3271 29.9161 57.292C29.9205 57.2568 29.9073 57.2327 29.8766 57.2195C29.8458 57.2063 29.8106 57.2305 29.7711 57.292C29.7228 57.3887 29.6689 57.4996 29.6096 57.6249C29.5503 57.7501 29.4942 57.8831 29.4415 58.0237C29.3888 58.1643 29.3415 58.3071 29.2998 58.4521C29.258 58.5972 29.2284 58.7378 29.2108 58.874C29.18 59.1069 29.169 59.4442 29.1778 59.8859L29.1809 60.069C29.1858 60.4231 29.1825 60.7037 29.1712 60.9109C29.1581 61.1526 29.1251 61.402 29.0724 61.6591C29.0658 61.6912 29.0596 61.7214 29.0538 61.7496L29.0242 61.8959C29.0036 61.9984 28.9933 62.0524 28.9933 62.0579C28.9845 62.093 28.9933 62.1183 29.0196 62.1337ZM24.4449 64.8C25.4425 64.7913 26.2972 64.3057 27.0091 63.3433C27.7298 62.3501 28.1297 61.1636 28.2088 59.7837C28.2176 59.2563 28.2264 58.896 28.2352 58.7026C28.2387 58.6253 28.2419 58.558 28.2447 58.5007L28.2521 58.3588L28.255 58.3104C28.2594 58.2423 28.2462 58.2083 28.2154 58.2083C28.1715 58.2083 28.1177 58.2742 28.0539 58.406C27.9902 58.5378 27.91 58.7499 27.8133 59.0421C27.7166 59.3344 27.6595 59.6013 27.6419 59.843C27.6419 59.9265 27.643 60.066 27.6452 60.2616C27.6474 60.4572 27.6485 60.6187 27.6485 60.7461C27.6485 61.0801 27.609 61.3481 27.5299 61.5503C27.3233 62.1304 26.9586 62.594 26.4356 62.9412C25.9083 63.2444 25.359 63.396 24.7877 63.396C24.3219 63.3784 23.9472 63.2598 23.6638 63.04C23.3803 62.8203 23.2298 62.4995 23.2123 62.0776C23.221 61.5151 23.421 60.8472 23.8121 60.0737C23.8385 59.9946 23.8407 59.9166 23.8187 59.8397C23.7967 59.7628 23.7286 59.8298 23.6144 60.0408C23.0211 61.0911 22.7267 62.0645 22.731 62.9609C22.7486 63.5278 22.909 63.9706 23.2123 64.2892C23.5155 64.6078 23.9264 64.7781 24.4449 64.8ZM25.5985 61.5371C25.6424 61.5371 25.7018 61.502 25.7765 61.4316C25.8907 61.3218 25.9819 61.202 26.05 61.0724C26.1181 60.9427 26.1676 60.8252 26.1983 60.7197C26.2291 60.6143 26.2357 60.5176 26.2181 60.4297C26.2005 60.3198 26.1599 60.2253 26.0962 60.1462C26.0324 60.0671 25.9424 59.9825 25.8259 59.8925C25.7094 59.8024 25.6117 59.7244 25.5326 59.6584C25.3963 59.8826 25.2964 60.0518 25.2326 60.166C25.1689 60.2803 25.0931 60.4363 25.0052 60.634C24.9789 60.6956 24.9371 60.7856 24.88 60.9043C24.88 60.9395 24.9074 60.9834 24.9624 61.0361C25.0173 61.0889 25.0832 61.1471 25.1601 61.2108C25.237 61.2745 25.3227 61.3448 25.4172 61.4218C25.5117 61.4987 25.5721 61.5371 25.5985 61.5371ZM57.5819 77.4995C57.639 77.4995 57.8203 77.4501 58.1257 77.3512C58.4311 77.2523 58.6585 77.1754 58.808 77.1205C58.9574 77.0655 59.0694 77.0139 59.1441 76.9656C59.2188 76.9172 59.3221 76.792 59.454 76.5898C59.5858 76.3877 59.7286 76.0735 59.8824 75.6472C59.9176 75.5505 59.9494 75.4462 59.978 75.3341C60.0066 75.222 60.0285 75.1298 60.0439 75.0572C60.0593 74.9847 60.0736 74.8947 60.0868 74.787C60.1 74.6793 60.1065 74.5706 60.1065 74.4607C60.1065 74.2454 60.0461 74.0608 59.9253 73.907C59.8044 73.7532 59.6539 73.6763 59.4737 73.6763C59.3683 73.6763 59.2617 73.7466 59.154 73.8872C59.0464 74.0278 58.9398 74.2058 58.8343 74.4211C58.7289 74.6365 58.6596 74.7936 58.6267 74.8925C58.5937 74.9913 58.5685 75.0781 58.5509 75.1528C58.5333 75.2759 58.5794 75.3879 58.6893 75.489C58.7992 75.5901 58.9354 75.6428 59.098 75.6472C59.1595 75.6472 59.2221 75.6307 59.2859 75.5978C59.3496 75.5648 59.4122 75.5527 59.4737 75.5615C59.4166 75.7637 59.3276 75.9449 59.2068 76.1053C59.0859 76.2657 58.9673 76.3877 58.8508 76.4712C58.7344 76.5547 58.4762 76.7305 58.0763 76.9985C57.6764 77.2666 57.494 77.4248 57.5292 77.4731C57.5292 77.4907 57.5467 77.4995 57.5819 77.4995ZM57.2984 71.824C57.3688 71.824 57.4808 71.6921 57.6346 71.4285C57.7884 71.1648 57.8653 70.9626 57.8653 70.822C57.8521 70.7166 57.7533 70.5704 57.5687 70.3837C57.3841 70.1969 57.2435 70.1233 57.1468 70.1628C57.0985 70.1628 56.9919 70.3243 56.8271 70.6473C56.6623 70.9703 56.5799 71.1802 56.5799 71.2769C56.5799 71.3252 56.6129 71.3713 56.6788 71.4153C56.7535 71.468 56.8689 71.546 57.0249 71.6493C57.1809 71.7526 57.2721 71.8108 57.2984 71.824ZM54.3519 77.4929C54.3959 77.4929 54.5024 77.4786 54.6716 77.4501C54.8408 77.4215 55.0649 77.3666 55.344 77.2853C55.623 77.204 55.8252 77.1139 55.9504 77.015C56.0757 76.9161 56.191 76.7722 56.2965 76.5833C56.402 76.3943 56.5239 76.1152 56.6623 75.7461C56.8008 75.377 56.9128 75.0364 56.9985 74.7244C57.0842 74.4124 57.1292 74.197 57.1336 74.0784C57.1336 73.9993 57.1095 73.9553 57.0611 73.9465C57.004 73.9421 56.9513 73.9905 56.9029 74.0916C56.8546 74.1926 56.7744 74.3816 56.6623 74.6584C56.5503 74.9353 56.425 75.21 56.2866 75.4824C56.1482 75.7549 56.024 75.9592 55.9142 76.0955C55.8043 76.2317 55.6197 76.391 55.3605 76.5734C55.1012 76.7557 54.8738 76.9073 54.6782 77.0282C54.4826 77.149 54.3607 77.2468 54.3124 77.3215C54.2772 77.3699 54.264 77.4094 54.2728 77.4402C54.2816 77.4709 54.308 77.4885 54.3519 77.4929ZM53.0929 77.1337C53.1192 77.149 53.1566 77.1348 53.2049 77.0908C53.2445 77.0469 53.2961 76.9766 53.3598 76.8799C53.4236 76.7832 53.5104 76.5887 53.6202 76.2965C53.7301 76.0043 53.8026 75.6692 53.8377 75.2913C53.8597 75.1155 53.8729 74.9001 53.8773 74.6453C53.8817 74.3904 53.8883 74.1047 53.8971 73.7883C53.8971 73.7136 53.9004 73.5994 53.907 73.4456C53.9136 73.2917 53.9212 73.1346 53.93 72.9742C53.9388 72.8138 53.9487 72.6688 53.9597 72.5392C53.9707 72.4095 53.9806 72.3271 53.9894 72.292C53.9938 72.2568 53.9806 72.2327 53.9498 72.2195C53.919 72.2063 53.8839 72.2305 53.8443 72.292C53.796 72.3887 53.7422 72.4996 53.6828 72.6249C53.6235 72.7501 53.5675 72.8831 53.5147 73.0237C53.462 73.1643 53.4148 73.3071 53.373 73.4521C53.3313 73.5972 53.3016 73.7378 53.284 73.874C53.2533 74.1069 53.2423 74.4442 53.2511 74.8859C53.2599 75.3275 53.2577 75.6692 53.2445 75.9109C53.2313 76.1526 53.1983 76.402 53.1456 76.6591C53.139 76.6912 53.1328 76.7214 53.1271 76.7496L53.0974 76.8959C53.0768 76.9984 53.0665 77.0524 53.0665 77.0579C53.0577 77.093 53.0665 77.1183 53.0929 77.1337ZM49.6783 77.4929C49.7223 77.4929 49.8288 77.4786 49.998 77.4501C50.1672 77.4215 50.3913 77.3666 50.6704 77.2853C50.9494 77.204 51.1516 77.1139 51.2768 77.015C51.4021 76.9161 51.5174 76.7722 51.6229 76.5833C51.7284 76.3943 51.8503 76.1152 51.9887 75.7461C52.1272 75.377 52.2392 75.0364 52.3249 74.7244C52.4106 74.4124 52.4557 74.197 52.4601 74.0784C52.4601 73.9993 52.4359 73.9553 52.3876 73.9465C52.3304 73.9421 52.2777 73.9905 52.2293 74.0916C52.181 74.1926 52.1008 74.3816 51.9887 74.6584C51.8767 74.9353 51.7514 75.21 51.613 75.4824C51.4746 75.7549 51.3504 75.9592 51.2406 76.0955C51.1307 76.2317 50.9461 76.391 50.6869 76.5734C50.4276 76.7557 50.2002 76.9073 50.0046 77.0282C49.8091 77.149 49.6871 77.2468 49.6388 77.3215C49.6036 77.3699 49.5904 77.4094 49.5992 77.4402C49.608 77.4709 49.6344 77.4885 49.6783 77.4929ZM44.6817 73.7883C44.8224 73.7883 45.0113 73.5488 45.2486 73.0698C45.3453 73.1401 45.4574 73.239 45.5848 73.3665C45.7123 73.4939 45.8001 73.5576 45.8485 73.5576C45.9232 73.5576 46.0396 73.4456 46.1979 73.2214C46.3604 72.9929 46.4417 72.7952 46.4417 72.6282C46.433 72.4875 46.3528 72.337 46.2011 72.1766C46.0495 72.0162 45.9188 71.936 45.8089 71.936C45.7738 71.936 45.7024 72.0261 45.5947 72.2063C45.487 72.3865 45.3893 72.5491 45.3014 72.6941C45.2267 72.5886 45.1179 72.4667 44.9751 72.3282C44.8323 72.1898 44.7235 72.136 44.6488 72.1667C44.6092 72.1667 44.4994 72.3359 44.3192 72.6743C44.139 73.0127 44.0489 73.2104 44.0489 73.2676C44.0489 73.2939 44.1137 73.3599 44.2434 73.4653C44.373 73.5708 44.4686 73.6499 44.5301 73.7026C44.596 73.7598 44.6466 73.7883 44.6817 73.7883ZM43.9369 77.4995C44.4027 77.4995 44.8839 77.4698 45.3805 77.4105C45.8771 77.3512 46.3802 77.2556 46.89 77.1238C47.224 77.0315 47.5316 76.9282 47.8128 76.814C48.1336 76.6689 48.4215 76.5107 48.6764 76.3394C48.8565 76.2119 49.0093 76.0581 49.1345 75.8779C49.2597 75.6978 49.3861 75.4561 49.5135 75.1528C49.6102 74.9155 49.6673 74.7266 49.6849 74.5859C49.6937 74.4849 49.6805 74.4343 49.6454 74.4343C49.619 74.4343 49.5619 74.509 49.474 74.6584C49.3861 74.8079 49.2696 74.943 49.1246 75.0638C48.9796 75.1847 48.7335 75.3176 48.3863 75.4626C48.0392 75.6077 47.6513 75.7274 47.2229 75.8219C46.7944 75.9164 46.3462 75.9812 45.8781 76.0164C45.4101 76.0515 44.9872 76.0691 44.6092 76.0691C43.5238 76.0603 42.7459 75.9438 42.2757 75.7197C42.034 75.5835 41.9066 75.4319 41.8934 75.2649C41.8802 75.0979 41.8681 74.976 41.8572 74.899C41.8462 74.8221 41.8187 74.7837 41.7748 74.7837C41.7308 74.7837 41.6979 74.8155 41.6759 74.8793C41.6539 74.943 41.622 75.0759 41.5803 75.2781C41.5385 75.4802 41.5023 75.6824 41.4715 75.8845C41.4408 76.0867 41.4254 76.2427 41.4254 76.3525C41.4254 76.6294 41.5155 76.8491 41.6957 77.0117C41.8934 77.2183 42.2274 77.3589 42.6976 77.4336C42.9833 77.4775 43.3963 77.4995 43.9369 77.4995ZM40.5421 69.1411C40.5597 69.1719 40.63 69.1389 40.753 69.0422C40.92 68.9104 41.0475 68.8093 41.1354 68.739L42.0714 68.0073C42.2472 67.8755 42.4251 67.7415 42.6053 67.6052C42.7855 67.469 42.9657 67.3284 43.1458 67.1833C43.4051 66.9856 43.7105 66.7395 44.0621 66.4451C44.3038 66.2385 44.5158 66.0562 44.6982 65.8979C44.8806 65.7397 45.0333 65.6079 45.1563 65.5024C45.4991 65.1948 45.7298 64.9817 45.8485 64.863C45.9627 64.7488 46.0946 64.6082 46.244 64.4412C46.4374 64.2214 46.5912 64.0347 46.7054 63.8809C46.8065 63.7534 46.9295 63.5645 47.0746 63.314C47.2196 63.0459 47.3053 62.8569 47.3316 62.7471C47.3492 62.7031 47.358 62.6636 47.358 62.6284C47.358 62.638 47.2981 62.7032 47.1782 62.8238L47.0608 62.9408C46.9067 63.0932 46.6926 63.3011 46.4187 63.5645C45.7925 64.1665 45.4134 64.5291 45.2816 64.6521C44.9256 64.9773 44.5301 65.3223 44.0951 65.687C43.805 65.9243 43.5161 66.1583 43.2282 66.389C42.9404 66.6198 42.6537 66.8494 42.368 67.0779C41.722 67.5964 41.2979 67.9656 41.0958 68.1853C40.9859 68.2952 40.8827 68.4336 40.786 68.6006C40.6805 68.8027 40.5992 68.9829 40.5421 69.1411ZM39.4808 74.0256C39.6742 73.8235 39.7862 73.7026 39.817 73.6631C39.9532 73.5005 40.0653 73.3093 40.1532 73.0896C40.2411 72.8743 40.3202 72.5732 40.3905 72.1865C40.4564 71.8042 40.4894 71.5142 40.4894 71.3164C40.4894 71.1978 40.4905 71.0747 40.4927 70.9473C40.4948 70.8198 40.4959 70.688 40.4959 70.5518C40.5003 70.2441 40.5179 69.9739 40.5487 69.741C40.5575 69.3982 40.5619 69.24 40.5619 69.2664C40.5619 69.218 40.5575 69.1807 40.5487 69.1543C40.5179 69.1235 40.4937 69.1345 40.4762 69.1873L39.995 70.387C39.9554 70.4617 39.9334 70.5803 39.9291 70.7429C39.9203 70.8484 39.9159 71.0308 39.9159 71.29L39.9291 72.1931C39.9291 72.5666 39.8829 72.8545 39.7906 73.0566C39.7511 73.1401 39.7005 73.228 39.639 73.3203C39.5731 73.3994 39.5204 73.4499 39.4808 73.4719C39.4457 73.5642 39.4259 73.6565 39.4215 73.7488C39.4171 73.8411 39.4369 73.9333 39.4808 74.0256ZM37.846 69.4114C37.912 69.4114 38.0141 69.2839 38.1526 69.0291C38.291 68.7742 38.3602 68.5742 38.3602 68.4292C38.3602 68.2754 38.2855 68.115 38.1361 67.948C37.9867 67.7986 37.8504 67.7239 37.7274 67.7239C37.6791 67.7239 37.5725 67.8964 37.4077 68.2413C37.2429 68.5863 37.1605 68.7808 37.1605 68.8247C37.1605 68.8687 37.1968 68.917 37.2693 68.9697C37.3418 69.0225 37.4461 69.1093 37.5824 69.2301C37.7186 69.351 37.8065 69.4114 37.846 69.4114ZM37.2198 70.9934C37.3561 70.9934 37.545 70.7473 37.7867 70.2551C37.8834 70.3254 38.0042 70.4375 38.1493 70.5913C38.2547 70.7012 38.336 70.7561 38.3932 70.7561C38.4635 70.7561 38.5799 70.6396 38.7425 70.4067C38.9007 70.165 38.9798 69.9629 38.9798 69.8003C38.9798 69.6597 38.9007 69.5059 38.7425 69.3389C38.5799 69.1895 38.4459 69.1147 38.3404 69.1147C38.3097 69.1147 38.2306 69.2202 38.1031 69.4312C38.0152 69.5806 37.9229 69.7344 37.8263 69.8926C37.7735 69.7783 37.6714 69.6575 37.5198 69.53C37.3681 69.4026 37.2572 69.3389 37.1869 69.3389C37.1429 69.3389 37.0276 69.5124 36.8408 69.8596C36.654 70.2068 36.5606 70.4067 36.5606 70.4595C36.5606 70.4902 36.6628 70.5869 36.8672 70.7495C37.0715 70.9121 37.1891 70.9934 37.2198 70.9934ZM36.9562 75.2517C36.9957 75.2473 37.055 75.2209 37.1341 75.1726C37.1869 75.1374 37.2132 75.1199 37.2132 75.1199C37.3583 75.0452 37.4769 74.988 37.5692 74.9485C37.6131 74.9265 37.6878 74.8979 37.7933 74.8628L37.9317 74.8232L38.1416 74.6983L38.1522 74.6964C38.1655 74.6936 38.1891 74.6885 38.2228 74.6811L38.2811 74.6683C38.391 74.6442 38.4657 74.6255 38.5052 74.6123C38.6019 74.5903 38.7755 74.4827 39.026 74.2893C39.1402 74.2629 39.2292 74.2278 39.2929 74.1838C39.3567 74.1399 39.4193 74.0872 39.4808 74.0256C39.5072 73.9773 39.5248 73.929 39.5335 73.8806C39.5423 73.8499 39.5467 73.7993 39.5467 73.729C39.5467 73.7158 39.5401 73.6785 39.527 73.6169C39.5094 73.5598 39.494 73.5115 39.4808 73.4719C39.4588 73.4851 39.4017 73.5027 39.3094 73.5247C39.2655 73.4983 39.2325 73.4807 39.2105 73.4719C39.1886 73.4631 39.1666 73.4587 39.1446 73.4587C38.9996 73.6741 38.8985 73.7949 38.8414 73.8213C38.7711 73.8652 38.6656 73.8345 38.525 73.729C38.503 73.729 38.4569 73.8026 38.3866 73.9498C38.3163 74.097 38.2042 74.1641 38.0504 74.1509C38.0196 74.1509 37.9867 74.1289 37.9515 74.085C37.9164 74.041 37.8856 74.0278 37.8592 74.0454C37.846 74.0498 37.8219 74.085 37.7867 74.1509C37.7516 74.2168 37.7109 74.2695 37.6648 74.3091C37.6186 74.3486 37.5549 74.3827 37.4736 74.4113C37.3923 74.4398 37.2967 74.4541 37.1869 74.4541C37.1605 74.4541 37.1341 74.4552 37.1078 74.4574C37.0814 74.4596 37.055 74.4607 37.0287 74.4607C36.9671 74.4695 36.9166 74.4849 36.8771 74.5068C36.8111 74.5859 36.7694 74.6606 36.7518 74.731C36.7342 74.8013 36.732 74.8661 36.7452 74.9254C36.7584 74.9847 36.7837 75.0408 36.821 75.0935C36.8584 75.1462 36.9034 75.199 36.9562 75.2517ZM34.5765 77.4995C34.6336 77.4995 34.8149 77.4501 35.1203 77.3512C35.4258 77.2523 35.6532 77.1754 35.8026 77.1205C35.952 77.0655 36.0641 77.0139 36.1388 76.9656C36.2135 76.9172 36.3167 76.792 36.4486 76.5898C36.5804 76.3877 36.7232 76.0735 36.8771 75.6472C36.9122 75.5505 36.9441 75.4462 36.9726 75.3341C37.0012 75.222 37.0232 75.1298 37.0385 75.0572C37.0539 74.9847 37.0682 74.8947 37.0814 74.787C37.0946 74.6793 37.1012 74.5706 37.1012 74.4607C37.1012 74.2454 37.0407 74.0608 36.9199 73.907C36.799 73.7532 36.6485 73.6763 36.4684 73.6763C36.3629 73.6763 36.2563 73.7466 36.1487 73.8872C36.041 74.0278 35.9344 74.2058 35.829 74.4211C35.7235 74.6365 35.6543 74.7936 35.6213 74.8925C35.5884 74.9913 35.5631 75.0781 35.5455 75.1528C35.5279 75.2759 35.5741 75.3879 35.6839 75.489C35.7938 75.5901 35.93 75.6428 36.0926 75.6472C36.1542 75.6472 36.2168 75.6307 36.2805 75.5978C36.3442 75.5648 36.4068 75.5527 36.4684 75.5615C36.4112 75.7637 36.3222 75.9449 36.2014 76.1053C36.0805 76.2657 35.9619 76.3877 35.8454 76.4712C35.729 76.5547 35.4708 76.7305 35.0709 76.9985C34.671 77.2666 34.4886 77.4248 34.5238 77.4731C34.5238 77.4907 34.5414 77.4995 34.5765 77.4995ZM31.8211 77.4929C31.8651 77.4929 31.9717 77.4786 32.1408 77.4501C32.31 77.4215 32.5342 77.3666 32.8132 77.2853C33.0923 77.204 33.2944 77.1139 33.4197 77.015C33.5449 76.9161 33.6603 76.7722 33.7657 76.5833C33.8712 76.3943 33.9931 76.1152 34.1316 75.7461C34.27 75.377 34.3821 75.0364 34.4677 74.7244C34.5534 74.4124 34.5985 74.197 34.6029 74.0784C34.6029 73.9993 34.5787 73.9553 34.5304 73.9465C34.4732 73.9421 34.4205 73.9905 34.3722 74.0916C34.3238 74.1926 34.2436 74.3816 34.1316 74.6584C34.0195 74.9353 33.8943 75.21 33.7558 75.4824C33.6174 75.7549 33.4933 75.9592 33.3834 76.0955C33.2735 76.2317 33.089 76.391 32.8297 76.5734C32.5704 76.7557 32.343 76.9073 32.1474 77.0282C31.9519 77.149 31.8299 77.2468 31.7816 77.3215C31.7464 77.3699 31.7333 77.4094 31.742 77.4402C31.7508 77.4709 31.7772 77.4885 31.8211 77.4929Z" fill="white"/>
<path fill-rule="evenodd" clip-rule="evenodd" d="M47.8991 22.9729C47.0828 22.9729 46.3685 22.565 46.002 21.962C45.6332 22.565 44.9207 22.9729 44.1021 22.9729C42.99 22.9729 42.0728 22.2196 41.9503 21.25C41.9001 21.446 41.875 21.6469 41.875 21.8477C41.875 23.1742 42.9398 24.25 44.256 24.25C44.944 24.25 45.5637 23.956 45.9992 23.4865C46.4318 23.956 47.0537 24.25 47.7412 24.25C49.0579 24.25 50.125 23.1742 50.125 21.8477C50.125 21.6469 50.1005 21.446 50.0503 21.25C49.9272 22.2196 49.0106 22.9729 47.8991 22.9729ZM44.0581 26.4602L44.4295 46.9802C41.5566 44.6873 39.4573 41.1511 38.8433 36.9728C38.2283 32.7935 39.2218 28.791 41.3104 25.7509C38.3581 28.1896 36.4044 31.9518 36.2587 36.2379C36.0674 41.8721 39.0546 46.8429 43.5073 49.1913C41.7638 49.766 39.9163 49.9236 38.1047 49.6506C38.0036 49.6357 37.9036 49.6186 37.8036 49.6015C39.5044 50.3407 41.3407 50.6868 43.1841 50.6147C43.6601 50.5965 44.1346 50.5506 44.6064 50.478L45.9985 52.75L47.3916 50.478C47.8619 50.5506 48.3369 50.5965 48.8134 50.6147C50.6573 50.6873 52.4946 50.3412 54.1965 49.6015C54.0959 49.6186 53.9954 49.6357 53.8944 49.6506C52.0827 49.9236 50.2362 49.7655 48.4923 49.1903C52.9455 46.8429 55.9322 41.8748 55.7414 36.2379C55.5957 31.9518 53.6415 28.1891 50.6896 25.7509C52.7782 28.791 53.7713 32.7941 53.1568 36.9728C52.5423 41.1511 50.4414 44.6873 47.5701 46.9786L47.9394 26.4602C47.1115 26.2263 46.4837 25.6292 45.9985 25C45.5164 25.6292 44.886 26.2263 44.0581 26.4602ZM58.8455 37.939C58.8455 41.6974 57.5163 45.0924 55.3848 47.5C59.3287 45.3864 61.7556 41.4769 61.75 37.2487C61.75 31.6576 57.5848 26.9737 52 25.75C56.0214 27.756 58.8455 32.4593 58.8455 37.939ZM30.25 37.2487C30.2438 41.4769 32.6714 45.3864 36.6152 47.5C34.4837 45.0924 33.1545 41.6974 33.1545 37.939C33.1545 32.4593 35.9781 27.756 40 25.75C34.4152 26.9737 30.25 31.6587 30.25 37.2487Z" fill="white"/>
</svg>
