<svg width="92" height="92" viewBox="0 0 92 92" fill="none" xmlns="http://www.w3.org/2000/svg">
<path d="M91 1H1V91H91V1Z" stroke="#55A2E7" stroke-opacity="0.595597" stroke-width="0.5"/>
<path fill-rule="evenodd" clip-rule="evenodd" d="M47.8991 22.9729C47.0828 22.9729 46.3686 22.565 46.0021 21.962C45.6333 22.565 44.9207 22.9729 44.1022 22.9729C42.99 22.9729 42.0729 22.2196 41.9503 21.25C41.9002 21.446 41.8751 21.6469 41.8751 21.8477C41.8751 23.1742 42.9399 24.25 44.2561 24.25C44.9441 24.25 45.5637 23.956 45.9992 23.4865C46.4319 23.956 47.0538 24.25 47.7412 24.25C49.058 24.25 50.1251 23.1742 50.1251 21.8477C50.1251 21.6469 50.1006 21.446 50.0504 21.25C49.9273 22.2196 49.0107 22.9729 47.8991 22.9729ZM44.0582 26.4602L44.4295 46.9802C41.5567 44.6873 39.4573 41.1511 38.8434 36.9728C38.2284 32.7935 39.2219 28.791 41.3105 25.7509C38.3581 28.1896 36.4044 31.9518 36.2588 36.2379C36.0674 41.8721 39.0547 46.8429 43.5073 49.1913C41.7639 49.766 39.9164 49.9236 38.1047 49.6506C38.0037 49.6357 37.9037 49.6186 37.8037 49.6015C39.5045 50.3407 41.3407 50.6868 43.1842 50.6147C43.6602 50.5965 44.1346 50.5506 44.6065 50.478L45.9986 52.75L47.3916 50.478C47.862 50.5506 48.337 50.5965 48.8134 50.6147C50.6574 50.6873 52.4947 50.3412 54.1965 49.6015C54.096 49.6186 53.9955 49.6357 53.8944 49.6506C52.0828 49.9236 50.2363 49.7655 48.4924 49.1903C52.9455 46.8429 55.9322 41.8748 55.7414 36.2379C55.5958 31.9518 53.6415 28.1891 50.6897 25.7509C52.7783 28.791 53.7713 32.7941 53.1568 36.9728C52.5424 41.1511 50.4415 44.6873 47.5701 46.9786L47.9394 26.4602C47.1116 26.2263 46.4838 25.6292 45.9986 25C45.5164 25.6292 44.886 26.2263 44.0582 26.4602ZM58.8456 37.939C58.8456 41.6974 57.5164 45.0924 55.3849 47.5C59.3287 45.3864 61.7557 41.4769 61.7501 37.2487C61.7501 31.6576 57.5849 26.9737 52.0001 25.75C56.0214 27.756 58.8456 32.4593 58.8456 37.939ZM30.2501 37.2487C30.2439 41.4769 32.6714 45.3864 36.6152 47.5C34.4838 45.0924 33.1546 41.6974 33.1546 37.939C33.1546 32.4593 35.9782 27.756 40.0001 25.75C34.4152 26.9737 30.2501 31.6587 30.2501 37.2487Z" fill="white"/>
<path d="M75.1293 64.8719C75.2304 64.8807 75.4413 64.7159 75.7621 64.3776C75.8412 64.3468 75.9269 64.3138 76.0192 64.2787C76.0983 64.2523 76.1862 64.1908 76.2828 64.0941C76.3751 64.0018 76.474 63.9095 76.5795 63.8173C76.6893 63.725 76.7816 63.5887 76.8563 63.4086C76.9442 63.2108 77.0057 63.0153 77.0409 62.8219C77.0541 62.7692 77.0563 62.723 77.0475 62.6835C77.0387 62.6439 77.0189 62.6263 76.9882 62.6307C76.975 62.6307 76.9431 62.6955 76.8926 62.8252C76.842 62.9548 76.7926 63.0504 76.7443 63.1119C76.7003 63.1778 76.6443 63.1998 76.5762 63.1778C76.5081 63.1559 76.4652 63.1471 76.4476 63.1515C76.3334 63.5206 76.2081 63.681 76.0719 63.6327C76.0499 63.6239 76.0016 63.5975 75.9269 63.5536C75.7819 63.7997 75.6687 63.9491 75.5874 64.0018C75.5061 64.0546 75.4303 64.0699 75.36 64.048L75.1293 64.0084C75.0897 64.0743 75.0645 64.1501 75.0535 64.2358C75.0425 64.3215 75.0403 64.405 75.0469 64.4863C75.0535 64.5676 75.0656 64.6434 75.0831 64.7137C75.1007 64.784 75.1161 64.8368 75.1293 64.8719ZM73.4418 59.559C73.5824 59.559 73.7714 59.3194 74.0087 58.8404C74.1054 58.9108 74.2174 59.0096 74.3449 59.1371C74.4723 59.2645 74.5602 59.3282 74.6085 59.3282C74.6832 59.3282 74.7997 59.2162 74.9579 58.9921C75.1205 58.7635 75.2018 58.5658 75.2018 58.3988C75.193 58.2582 75.1128 58.1077 74.9612 57.9473C74.8096 57.7869 74.6788 57.7067 74.569 57.7067C74.5338 57.7067 74.4624 57.7967 74.3547 57.9769C74.2471 58.1571 74.1493 58.3197 74.0614 58.4647C73.9867 58.3592 73.8779 58.2373 73.7351 58.0989C73.5923 57.9604 73.4835 57.9066 73.4088 57.9374C73.3693 57.9374 73.2594 58.1066 73.0792 58.4449C72.8991 58.7833 72.809 58.9811 72.809 59.0382C72.809 59.0646 72.8738 59.1305 73.0034 59.236C73.1331 59.3414 73.2286 59.4205 73.2902 59.4733C73.3561 59.5304 73.4066 59.559 73.4418 59.559ZM73.2572 66.2496C73.578 66.2496 73.868 66.0387 74.1273 65.6168C74.369 65.1949 74.6041 64.9466 74.8326 64.8719C74.8986 64.85 74.9974 64.85 75.1293 64.8719C75.1512 64.8104 75.1688 64.7533 75.182 64.7006C75.1996 64.6434 75.2084 64.5709 75.2084 64.483C75.2084 64.3995 75.1974 64.3039 75.1754 64.1963C75.1534 64.0886 75.1381 64.026 75.1293 64.0084C75.037 64.0084 74.9392 64.0502 74.8359 64.1337C74.7327 64.2172 74.6085 64.3556 74.4635 64.5489C74.2701 64.8126 74.0241 64.9444 73.7252 64.9444C73.5099 64.9444 73.3209 64.8719 73.1583 64.7269C72.943 64.5292 72.8353 64.2106 72.8353 63.7711C72.7123 63.8414 72.6046 63.97 72.5123 64.1567C72.42 64.3435 72.3366 64.5643 72.2618 64.8192C72.2662 65.2103 72.3519 65.5399 72.5189 65.808C72.6859 66.076 72.932 66.2233 73.2572 66.2496ZM72.2618 64.8192C72.3585 64.8324 72.4409 64.8159 72.509 64.7698C72.5772 64.7236 72.6332 64.6533 72.6771 64.5588C72.7211 64.4643 72.7562 64.3501 72.7826 64.2161C72.809 64.082 72.8265 63.9315 72.8353 63.7645C72.8353 63.7382 72.8463 63.5843 72.8683 63.3031C72.8903 63.0218 72.9496 62.5033 73.0463 61.7474C73.1429 60.9916 73.1979 60.4796 73.2111 60.2115C73.2111 60.1764 73.199 60.1544 73.1748 60.1456C73.1506 60.1368 73.1276 60.1588 73.1056 60.2115C72.8903 60.7565 72.7474 61.1366 72.6771 61.3519C72.5409 62.0946 72.4387 62.7725 72.3706 63.3855C72.3025 63.9985 72.2662 64.4764 72.2618 64.8192ZM69.5197 66.2628C69.5592 66.2628 69.6119 66.2562 69.6779 66.243C70.2184 66.1068 70.6315 65.8937 70.9171 65.6036C71.0841 65.4366 71.2478 65.1916 71.4082 64.8686C71.5686 64.5456 71.6598 64.1688 71.6818 63.7382C71.6818 63.1625 71.3983 62.7032 70.8314 62.3605C70.7304 62.2989 70.6644 62.3143 70.6337 62.4066C70.4315 62.8548 70.2645 63.2064 70.1327 63.4613C70.0975 63.5712 70.1261 63.6634 70.2184 63.7382C70.7194 64.1468 70.9699 64.4654 70.9699 64.694C70.9699 64.7819 70.8358 64.9598 70.5678 65.2279C70.2909 65.5091 69.9943 65.7596 69.6779 65.9794C69.5197 66.0936 69.4406 66.1749 69.4406 66.2233C69.4406 66.2496 69.4669 66.2628 69.5197 66.2628ZM67.7267 65.8838C67.7531 65.8992 67.7904 65.8849 67.8387 65.8409C67.8783 65.797 67.9299 65.7267 67.9937 65.63C68.0574 65.5333 68.1442 65.3389 68.254 65.0466C68.3639 64.7544 68.4364 64.4193 68.4716 64.0414C68.4935 63.8656 68.5067 63.6503 68.5111 63.3954C68.5155 63.1405 68.5221 62.8548 68.5309 62.5384C68.5309 62.4637 68.5342 62.3495 68.5408 62.1957C68.5474 62.0419 68.5551 61.8848 68.5638 61.7244C68.5726 61.564 68.5825 61.4189 68.5935 61.2893C68.6045 61.1597 68.6144 61.0773 68.6232 61.0421C68.6276 61.0069 68.6144 60.9828 68.5836 60.9696C68.5529 60.9564 68.5177 60.9806 68.4782 61.0421C68.4298 61.1388 68.376 61.2497 68.3167 61.375C68.2573 61.5002 68.2013 61.6332 68.1486 61.7738C68.0958 61.9144 68.0486 62.0572 68.0068 62.2023C67.9651 62.3473 67.9354 62.4879 67.9179 62.6241C67.8871 62.857 67.8761 63.1943 67.8849 63.636C67.8937 64.0776 67.8915 64.4193 67.8783 64.661C67.8651 64.9027 67.8322 65.1521 67.7794 65.4092C67.7267 65.6663 67.7003 65.7992 67.7003 65.808C67.6915 65.8431 67.7003 65.8684 67.7267 65.8838ZM65.347 63.7513C65.391 63.7074 65.4426 63.6514 65.502 63.5832C65.5613 63.5151 65.6217 63.4393 65.6832 63.3558C65.7448 63.2723 65.8052 63.1855 65.8645 63.0955C65.9238 63.0054 65.9799 62.9142 66.0326 62.8219C66.1161 62.6593 66.1842 62.5308 66.2369 62.4363C66.2897 62.3418 66.3413 62.2605 66.3918 62.1924C66.4424 62.1243 66.5028 62.0638 66.5731 62.0111C66.7006 61.9188 66.7775 61.8617 66.8038 61.8397C66.8302 61.8177 66.8654 61.7386 66.9093 61.6024C66.9181 61.576 66.9346 61.5244 66.9587 61.4475C66.9829 61.3706 67.0016 61.3036 67.0148 61.2465C67.028 61.1893 67.0126 61.1608 66.9686 61.1608C66.7709 61.3058 66.5709 61.3783 66.3688 61.3783C66.2721 61.3783 66.1556 61.3541 66.0194 61.3058C65.8041 61.2355 65.6239 61.2003 65.4789 61.2003C65.2811 61.2003 65.1108 61.2629 64.968 61.3882C64.8252 61.5134 64.6989 61.7035 64.589 61.9584C64.5626 62.0199 64.5429 62.0825 64.5297 62.1462C64.5165 62.21 64.5187 62.2462 64.5363 62.255C64.589 62.2638 64.6516 62.2143 64.7241 62.1067C64.7966 61.999 64.8779 61.9155 64.968 61.8562C65.0581 61.7969 65.1713 61.7716 65.3075 61.7804C65.4569 61.7892 65.6151 61.8254 65.7821 61.8892C65.9491 61.9529 66.0502 62.0023 66.0853 62.0375C65.7821 62.4945 65.5866 62.7626 65.4987 62.8417C65.4635 62.8724 65.413 62.9076 65.347 62.9471C65.3031 63.0834 65.2855 63.2174 65.2943 63.3492C65.3031 63.4811 65.3207 63.6151 65.347 63.7513ZM65.7426 68.7281C65.8129 68.7281 65.9249 68.5963 66.0787 68.3326C66.2325 68.069 66.3095 67.8668 66.3095 67.7262C66.2963 67.6207 66.1974 67.4746 66.0128 67.2878C65.8283 67.1011 65.6876 67.0275 65.5909 67.067C65.5426 67.067 65.436 67.2285 65.2712 67.5515C65.1064 67.8745 65.0241 68.0843 65.0241 68.181C65.0241 68.2294 65.057 68.2755 65.1229 68.3194C65.1976 68.3722 65.313 68.4502 65.469 68.5535C65.625 68.6567 65.7162 68.715 65.7426 68.7281ZM61.9325 66.2496C61.994 66.2496 62.0468 66.2452 62.0907 66.2364C62.6488 66.1705 63.0355 66.0607 63.2509 65.9069C63.4662 65.7574 63.6859 65.4564 63.91 65.0038C64.0331 64.7577 64.1408 64.5885 64.233 64.4962C64.3737 64.3512 64.6044 64.2018 64.9252 64.048C65.0746 63.9777 65.1954 63.8964 65.2877 63.8041C65.3668 63.7294 65.4437 63.6305 65.5184 63.5074C65.5448 63.4547 65.5931 63.369 65.6635 63.2504L65.8744 63.0592L65.347 62.934C65.2943 62.9691 65.0988 63.0812 64.7604 63.2701C64.5494 63.3756 64.3627 63.525 64.2001 63.7184C64.0551 63.8942 63.8727 64.2062 63.653 64.6544C63.587 64.7994 63.4486 64.9488 63.2377 65.1027C63.0883 65.2081 62.8554 65.3509 62.5389 65.5311C62.4335 65.5926 62.2753 65.6871 62.0643 65.8146C61.7963 65.986 61.6622 66.1222 61.6622 66.2233C61.6622 66.2408 61.7018 66.2496 61.7809 66.2496H61.9325ZM60.2845 65.8838C60.3109 65.8992 60.3483 65.8849 60.3966 65.8409C60.4362 65.797 60.4878 65.7267 60.5515 65.63C60.6152 65.5333 60.702 65.3389 60.8119 65.0466C60.9218 64.7544 60.9943 64.4193 61.0294 64.0414C61.0514 63.8656 61.0646 63.6503 61.069 63.3954C61.0734 63.1405 61.08 62.8548 61.0887 62.5384C61.0887 62.4637 61.092 62.3495 61.0986 62.1957C61.1052 62.0419 61.1129 61.8848 61.1217 61.7244C61.1305 61.564 61.1404 61.4189 61.1514 61.2893C61.1624 61.1597 61.1722 61.0773 61.181 61.0421C61.1854 61.0069 61.1722 60.9828 61.1415 60.9696C61.1107 60.9564 61.0756 60.9806 61.036 61.0421C60.9877 61.1388 60.9338 61.2497 60.8745 61.375C60.8152 61.5002 60.7592 61.6332 60.7064 61.7738C60.6537 61.9144 60.6064 62.0572 60.5647 62.2023C60.523 62.3473 60.4933 62.4879 60.4757 62.6241C60.445 62.857 60.434 63.1943 60.4428 63.636C60.4515 64.0776 60.4493 64.4193 60.4362 64.661C60.423 64.9027 60.39 65.1521 60.3373 65.4092C60.2845 65.6663 60.2582 65.7992 60.2582 65.808C60.2494 65.8431 60.2582 65.8684 60.2845 65.8838ZM58.3696 63.4745C58.407 63.4745 58.4432 63.4668 58.4784 63.4514C58.5136 63.436 58.5377 63.413 58.5509 63.3822C58.6476 63.1317 58.7454 62.8801 58.8442 62.6274C58.9431 62.3747 59.0431 62.1232 59.1442 61.8727C59.3156 61.4069 59.4012 61.0201 59.4012 60.7125C59.4012 60.4137 59.3353 60.1215 59.2035 59.8358C59.0629 59.5502 58.9179 59.3832 58.7684 59.3348C58.7069 59.4579 58.6168 59.6952 58.4982 60.0467C58.4718 60.1171 58.4432 60.2006 58.4125 60.2972C58.3817 60.3939 58.3466 60.5038 58.307 60.6268C58.2982 60.6708 58.3202 60.7323 58.3729 60.8114C58.3949 60.8553 58.4191 60.8993 58.4454 60.9432L58.5245 61.0751C58.5817 61.1893 58.641 61.3234 58.7025 61.4772C58.7553 61.6178 58.7816 61.7167 58.7816 61.7738C58.7816 61.9408 58.6827 62.255 58.485 62.7164C58.4454 62.8087 58.351 63.0306 58.2015 63.3822C58.2103 63.413 58.2312 63.436 58.2642 63.4514C58.2971 63.4668 58.3323 63.4745 58.3696 63.4745ZM57.7335 71.701C57.8741 71.701 58.0631 71.4615 58.3004 70.9825C58.3971 71.0528 58.5092 71.1517 58.6366 71.2792C58.764 71.4066 58.8519 71.4703 58.9003 71.4703C58.975 71.4703 59.0914 71.3583 59.2496 71.1341C59.4122 70.9056 59.4935 70.7079 59.4935 70.5409C59.4847 70.4003 59.4045 70.2497 59.2529 70.0893C59.1013 69.9289 58.9706 69.8487 58.8607 69.8487C58.8256 69.8487 58.7542 69.9388 58.6465 70.119C58.5388 70.2992 58.441 70.4618 58.3532 70.6068C58.2784 70.5013 58.1697 70.3794 58.0269 70.241C57.884 70.1025 57.7753 70.0487 57.7006 70.0795C57.661 70.0795 57.5512 70.2486 57.371 70.587C57.1908 70.9254 57.1007 71.1232 57.1007 71.1803C57.1007 71.2067 57.1655 71.2726 57.2952 71.378C57.4248 71.4835 57.5204 71.5626 57.5819 71.6153C57.6478 71.6725 57.6984 71.701 57.7335 71.701ZM56.1779 68.4513C56.4196 68.4513 56.6459 68.4161 56.8568 68.3458C57.0502 68.2799 57.2479 68.1832 57.4501 68.0558C57.9994 67.6559 58.4345 67.1197 58.7553 66.4474C58.9574 66.0123 59.0958 65.6476 59.1705 65.3531C59.2452 65.0499 59.2826 64.7533 59.2826 64.4632C59.2826 64.2655 59.2606 64.1161 59.2167 64.015C59.1727 63.9227 59.1002 63.8403 58.9991 63.7678C58.8981 63.6953 58.7981 63.6283 58.6992 63.5668C58.6003 63.5052 58.5509 63.4437 58.5509 63.3822C58.5465 63.3514 58.5289 63.3295 58.4982 63.3163C58.4674 63.3031 58.4334 63.2965 58.396 63.2965C58.3586 63.2965 58.3213 63.3031 58.2839 63.3163C58.2466 63.3295 58.2191 63.3514 58.2015 63.3822C58.1049 63.558 58.0225 63.7436 57.9543 63.9392C57.8862 64.1348 57.8522 64.3094 57.8522 64.4632C57.8522 64.6786 58.0126 64.861 58.3334 65.0104C58.6498 65.1554 58.808 65.2653 58.808 65.34C58.808 65.7135 58.6058 66.0694 58.2015 66.4078C57.7269 66.8033 57.1381 67.0011 56.4349 67.0011C56.0438 67.0011 55.7252 66.9198 55.4791 66.7572C55.1451 66.5243 54.9782 66.1376 54.9782 65.597C54.9782 65.3114 55.0814 64.9071 55.288 64.3841C55.4066 64.0985 55.622 63.5953 55.934 62.8746C55.9691 62.7955 55.9977 62.701 56.0197 62.5912C56.0416 62.4989 56.0284 62.4484 55.9801 62.4396C55.945 62.4352 55.8944 62.4923 55.8285 62.611C55.8021 62.6725 55.7681 62.7428 55.7263 62.8219C55.6846 62.901 55.6373 62.9889 55.5846 63.0856C55.5099 63.2438 55.4484 63.3723 55.4 63.4712L55.3358 63.6005C55.3171 63.6374 55.3012 63.6678 55.288 63.692C55.2001 63.8942 55.0946 64.1424 54.9716 64.4369C54.8573 64.7225 54.7474 65.0609 54.642 65.452C54.5365 65.8563 54.4838 66.1837 54.4838 66.4342C54.4838 66.9967 54.6134 67.4581 54.8727 67.8185C55.1759 68.2403 55.611 68.4513 56.1779 68.4513ZM53.5345 59.0975C53.6049 59.0975 53.7169 58.9657 53.8707 58.702C54.0245 58.4383 54.1014 58.2362 54.1014 58.0956C54.0883 57.9901 53.9894 57.844 53.8048 57.6572C53.6202 57.4705 53.4796 57.3968 53.3829 57.4364C53.3346 57.4364 53.228 57.5979 53.0632 57.9209C52.8984 58.2439 52.816 58.4537 52.816 58.5504C52.816 58.5987 52.849 58.6449 52.9149 58.6888C52.9896 58.7416 53.105 58.8196 53.261 58.9228C53.417 59.0261 53.5082 59.0843 53.5345 59.0975ZM52.994 64.6215C53.1654 64.4457 53.3071 64.2776 53.4192 64.1172C53.5313 63.9568 53.6378 63.7436 53.7389 63.4778C53.84 63.2119 53.8905 62.9361 53.8905 62.6505C53.8905 62.2814 53.8048 61.9869 53.6334 61.7672C53.4664 61.5475 53.2599 61.4376 53.0138 61.4376C52.9215 61.4376 52.827 61.5255 52.7304 61.7013C52.6337 61.8771 52.5656 62.0001 52.526 62.0704C52.4645 62.2023 52.403 62.3363 52.3414 62.4725C52.2579 62.6615 52.2162 62.7779 52.2162 62.8219C52.2162 62.9493 52.2579 63.0482 52.3414 63.1185C52.4249 63.1932 52.5194 63.2306 52.6249 63.2306C52.682 63.2306 52.7457 63.2262 52.816 63.2174C52.8776 63.2042 52.9303 63.1844 52.9742 63.1581C53.027 63.1581 53.0863 63.2064 53.1522 63.3031C53.2137 63.3998 53.2445 63.4745 53.2445 63.5272C53.2445 63.5975 53.161 63.692 52.994 63.8107C52.9413 63.8854 52.9061 63.9656 52.8886 64.0513C52.871 64.137 52.8644 64.2183 52.8688 64.2952C52.8732 64.3721 52.8864 64.4413 52.9083 64.5028C52.9303 64.5643 52.9589 64.6039 52.994 64.6215ZM47.9381 68.4842C47.9865 68.5106 48.059 68.4996 48.1556 68.4513C48.2699 68.3986 48.4413 68.3151 48.6698 68.2008C48.828 68.1217 48.9708 68.0448 49.0983 67.9701C49.652 67.6009 50.1508 67.1329 50.5946 66.566C50.8099 66.3024 51.0659 65.9882 51.3626 65.6234C51.6592 65.2587 51.924 65.0301 52.1569 64.9379C52.214 64.9115 52.3612 64.8544 52.5985 64.7665C52.8358 64.6786 52.9677 64.6302 52.994 64.6215C53.0424 64.4852 53.0687 64.3468 53.0731 64.2062C53.0775 64.0655 53.0512 63.9249 52.994 63.7843C52.9457 63.8019 52.8951 63.8216 52.8424 63.8436C52.5568 63.9579 52.3832 64.0304 52.3217 64.0611C52.1591 64.1359 51.9965 64.2303 51.8339 64.3446C51.6757 64.472 51.5109 64.6324 51.3395 64.8258C51.2208 64.9708 51.0626 65.1818 50.8649 65.4586C50.5177 65.964 50.2892 66.2826 50.1793 66.4144C50.0255 66.6078 49.9025 66.744 49.8102 66.8231C49.7267 66.9286 49.5839 67.0758 49.3817 67.2648C49.3114 67.3395 49.0961 67.5196 48.7357 67.8053L48.182 68.2008C48.1381 68.236 48.0985 68.2667 48.0634 68.2931C48.0282 68.3238 47.9974 68.348 47.9711 68.3656C47.9271 68.4095 47.9161 68.4491 47.9381 68.4842ZM48.7291 66.2496C49.0631 66.2496 49.329 66.0387 49.5267 65.6168C49.6674 65.296 49.7377 64.9708 49.7377 64.6412C49.7289 64.5533 49.6915 64.4391 49.6256 64.2985C49.5553 64.1666 49.4674 64.1205 49.3619 64.16C49.318 64.204 49.2631 64.3314 49.1971 64.5423C49.1356 64.7577 49.0917 64.8675 49.0653 64.8719C48.9159 64.8719 48.7863 64.7972 48.6764 64.6478C48.5577 64.5028 48.4984 64.2853 48.4984 63.9952V63.7711C48.4457 63.7535 48.3853 63.7755 48.3171 63.837C48.249 63.8986 48.1864 63.982 48.1293 64.0875C48.0721 64.193 48.0249 64.3116 47.9876 64.4435C47.9502 64.5753 47.9315 64.7006 47.9315 64.8192C47.9315 65.1049 47.9491 65.3422 47.9843 65.5311C48.0194 65.7113 48.1051 65.8761 48.2413 66.0255C48.3776 66.1749 48.5402 66.2496 48.7291 66.2496ZM47.9249 64.8192C48.0216 64.8324 48.104 64.8159 48.1721 64.7698C48.2402 64.7236 48.2963 64.6533 48.3402 64.5588C48.3842 64.4643 48.4193 64.3501 48.4457 64.2161C48.472 64.082 48.4896 63.9315 48.4984 63.7645C48.4984 63.7382 48.5094 63.5843 48.5314 63.3031C48.5533 63.0218 48.6127 62.5033 48.7094 61.7474C48.806 60.9916 48.861 60.4796 48.8741 60.2115C48.8741 60.1764 48.8621 60.1544 48.8379 60.1456C48.8137 60.1368 48.7907 60.1588 48.7687 60.2115C48.5533 60.7565 48.4105 61.1366 48.3402 61.3519C48.204 62.0946 48.1018 62.7725 48.0337 63.3855C47.9656 63.9985 47.9293 64.4764 47.9249 64.8192ZM43.515 68.5502C44.5126 68.5414 45.3673 68.0558 46.0792 67.0934C46.7999 66.1002 47.1998 64.9137 47.2789 63.5338C47.2877 63.0065 47.2965 62.6461 47.3053 62.4528C47.3141 62.2594 47.3207 62.1287 47.3251 62.0605C47.3295 61.9924 47.3163 61.9584 47.2855 61.9584C47.2416 61.9584 47.1877 62.0243 47.124 62.1561C47.0603 62.288 46.9801 62.5 46.8834 62.7922C46.7867 63.0845 46.7296 63.3514 46.712 63.5931L46.7126 63.7202C46.7131 63.7972 46.714 63.8944 46.7153 64.0117C46.7175 64.2073 46.7186 64.3688 46.7186 64.4962C46.7186 64.8302 46.6791 65.0983 46.6 65.3004C46.3934 65.8805 46.0287 66.3441 45.5057 66.6913C44.9784 66.9945 44.4291 67.1461 43.8578 67.1461C43.392 67.1285 43.0173 67.0099 42.7339 66.7902C42.4504 66.5704 42.2999 66.2496 42.2824 65.8278C42.2911 65.2653 42.4911 64.5973 42.8822 63.8238C42.9086 63.7447 42.9108 63.6667 42.8888 63.5898C42.8668 63.5129 42.7987 63.5799 42.6845 63.7909C42.0912 64.8412 41.7968 65.8146 41.8011 66.7111C41.8187 67.2779 41.9791 67.7207 42.2824 68.0393C42.5856 68.3579 42.9965 68.5282 43.515 68.5502ZM44.6686 65.2872C44.7125 65.2872 44.7719 65.2521 44.8466 65.1818C44.9608 65.0719 45.052 64.9521 45.1201 64.8225C45.1882 64.6929 45.2377 64.5753 45.2684 64.4698C45.2992 64.3644 45.3058 64.2677 45.2882 64.1798C45.2706 64.0699 45.23 63.9755 45.1663 63.8964C45.1025 63.8173 45.0125 63.7327 44.896 63.6426C44.7795 63.5525 44.6818 63.4745 44.6027 63.4086C44.4664 63.6327 44.3665 63.8019 44.3027 63.9161C44.239 64.0304 44.1632 64.1864 44.0753 64.3841C44.049 64.4457 44.0072 64.5358 43.9501 64.6544C43.9501 64.6896 43.9775 64.7335 44.0325 64.7862C44.0874 64.839 44.1533 64.8972 44.2302 64.9609C44.3071 65.0246 44.3928 65.095 44.4873 65.1719C44.5818 65.2488 44.6422 65.2872 44.6686 65.2872ZM37.8819 63.4173L37.9318 63.4152C38.0504 63.3976 38.191 63.358 38.3536 63.2965C38.4327 63.2701 38.502 63.246 38.5613 63.224C38.6206 63.202 38.67 63.1844 38.7096 63.1713C38.9161 63.0922 39.0282 63.046 39.0458 63.0328C39.1688 62.9801 39.3029 62.912 39.4479 62.8285C39.6061 62.7362 39.7885 62.6022 39.995 62.4264C40.1005 62.3385 40.2059 62.2484 40.3114 62.1561C40.4169 62.0638 40.5223 61.965 40.6278 61.8595L41.5309 60.9762C41.5748 60.9322 41.6407 60.8784 41.7286 60.8147C41.8165 60.751 41.8803 60.7059 41.9198 60.6796C41.9506 60.662 42.0121 60.5917 42.1044 60.4686C42.1879 60.3588 42.2538 60.2665 42.3021 60.1918C42.3461 60.1127 42.368 60.0358 42.368 59.9611C42.368 59.8776 42.3263 59.8468 42.2428 59.8688L42.2486 59.8686L42.2359 59.8748C42.2163 59.8845 42.1793 59.9019 42.125 59.9269L42.0648 59.9545C41.9769 59.994 41.8671 60.0138 41.7352 60.0138C41.599 60.0138 41.4364 59.9874 41.2474 59.9347C40.975 59.8556 40.7047 59.7699 40.4366 59.6776C40.34 59.66 40.2301 59.6886 40.1071 59.7633C39.9752 59.8512 39.8478 59.9852 39.7247 60.1654C39.6193 60.3148 39.5533 60.4225 39.527 60.4884C39.4918 60.5631 39.494 60.6027 39.5336 60.607C39.5599 60.6202 39.6368 60.5631 39.7643 60.4357C39.8566 60.3434 39.9478 60.2862 40.0378 60.2643C40.1279 60.2423 40.2389 60.2577 40.3707 60.3104L41.1947 60.6466C40.9222 60.9586 40.7157 61.1849 40.5751 61.3256C40.3729 61.5189 40.2191 61.6617 40.1136 61.754C39.9774 61.8771 39.795 62.0155 39.5665 62.1693C39.338 62.3231 39.1293 62.4462 38.9403 62.5384C38.1757 62.89 37.7933 63.1647 37.7933 63.3624C37.7933 63.4064 37.8395 63.4239 37.9318 63.4152L37.8819 63.4173ZM37.2726 58.9723C37.3429 58.9723 37.455 58.8404 37.6088 58.5768C37.7626 58.3131 37.8395 58.111 37.8395 57.9703C37.8263 57.8649 37.7274 57.7187 37.5428 57.532C37.3583 57.3452 37.2177 57.2716 37.121 57.3111C37.0726 57.3111 36.9661 57.4726 36.8013 57.7956C36.6365 58.1186 36.5541 58.3285 36.5541 58.4252C36.5541 58.4735 36.587 58.5196 36.653 58.5636C36.7277 58.6163 36.843 58.6943 36.999 58.7976C37.155 58.9009 37.2462 58.9591 37.2726 58.9723ZM36.765 63.7447C36.9584 63.7447 37.1517 63.725 37.3451 63.6854C37.5297 63.6459 37.7032 63.5756 37.8658 63.4745C38.3097 63.2064 38.6788 62.8548 38.9733 62.4198C39.3424 61.8881 39.527 61.4442 39.527 61.0882C39.527 60.9257 39.472 60.8048 39.3622 60.7257C39.2567 60.6422 39.1315 60.6005 38.9865 60.6005C38.8898 60.6005 38.7711 60.629 38.6305 60.6861C38.4943 60.7477 38.3712 60.8378 38.2614 60.9564C38.1515 61.0751 38.0109 61.253 37.8395 61.4903C37.7604 61.609 37.6681 61.7419 37.5626 61.8892C37.4572 62.0364 37.3429 62.1957 37.2199 62.3671C37.1056 62.3715 36.9913 62.3769 36.8771 62.3835C36.7628 62.3901 36.6486 62.4022 36.5343 62.4198C36.4728 62.6439 36.4519 62.8647 36.4717 63.0823C36.4915 63.2998 36.5123 63.5206 36.5343 63.7447H36.765ZM37.6455 62.3824L37.5033 62.3802C37.5692 62.2923 37.6362 62.2023 37.7043 62.11C37.7725 62.0177 37.8395 61.9232 37.9054 61.8265C38.1427 61.5145 38.3734 61.3585 38.5975 61.3585C38.7074 61.3453 38.8195 61.3651 38.9337 61.4178C39.0392 61.4662 39.0919 61.5079 39.0919 61.5431C39.0919 61.6354 39.0348 61.743 38.9205 61.8661C38.7535 62.0594 38.5206 62.2132 38.2218 62.3275C38.09 62.3715 37.8505 62.389 37.5033 62.3802L37.6455 62.3824ZM30.5358 68.2667C30.5841 68.2975 30.6456 68.2975 30.7203 68.2667C30.7599 68.2535 30.795 68.2403 30.8258 68.2272C30.8522 68.2184 30.8741 68.2096 30.8917 68.2008C31.0939 68.1173 31.2828 68.0239 31.4586 67.9206C31.6344 67.8174 31.8256 67.691 32.0321 67.5416C32.2386 67.3922 32.5001 67.1626 32.8165 66.8528C33.1329 66.543 33.4438 66.1738 33.7493 65.7454C34.0547 65.3169 34.3162 64.9642 34.5337 64.6874C34.7512 64.4105 35.0226 64.182 35.3478 64.0018C35.5719 63.8964 35.7477 63.826 35.8751 63.7909C36.0201 63.7513 36.1509 63.7316 36.2673 63.7316C36.3838 63.7316 36.4728 63.736 36.5343 63.7447C36.5782 63.6569 36.6189 63.5591 36.6563 63.4514C36.6936 63.3437 36.7167 63.2328 36.7255 63.1185C36.7343 63.0043 36.7255 62.8878 36.6991 62.7692C36.6727 62.6505 36.6178 62.534 36.5343 62.4198C36.486 62.4286 36.4387 62.4374 36.3926 62.4462C36.3464 62.4549 36.2992 62.4703 36.2509 62.4923C35.9696 62.5978 35.673 62.7604 35.361 62.9801C35.049 63.1998 34.726 63.5162 34.392 63.9293C34.2777 64.0655 34.025 64.4171 33.6339 64.984C33.5284 65.1554 33.4164 65.3202 33.2977 65.4784C33.0472 65.8739 32.7825 66.2222 32.5034 66.5232C32.2244 66.8242 31.9519 67.0813 31.686 67.2944C31.4202 67.5076 31.1818 67.6822 30.9708 67.8185C30.7863 67.9635 30.661 68.0712 30.5951 68.1415C30.5424 68.203 30.5226 68.2447 30.5358 68.2667ZM27.7145 62.5384C27.8551 62.5384 28.0441 62.2989 28.2814 61.8199C28.3781 61.8903 28.4901 61.9891 28.6176 62.1166C28.745 62.244 28.8329 62.3077 28.8812 62.3077C28.9559 62.3077 29.0724 62.1957 29.2306 61.9715C29.3932 61.743 29.4745 61.5453 29.4745 61.3783C29.4657 61.2377 29.3855 61.0871 29.2339 60.9267C29.0823 60.7663 28.9515 60.6861 28.8417 60.6861C28.8065 60.6861 28.7351 60.7762 28.6274 60.9564C28.5198 61.1366 28.422 61.2992 28.3341 61.4442C28.2594 61.3387 28.1506 61.2168 28.0078 61.0784C27.865 60.9399 27.7562 60.8861 27.6815 60.9169C27.642 60.9169 27.5321 61.0861 27.3519 61.4244C27.1718 61.7628 27.0817 61.9606 27.0817 62.0177C27.0817 62.0441 27.1465 62.11 27.2761 62.2154C27.4058 62.3209 27.5013 62.4 27.5629 62.4528C27.6288 62.5099 27.6793 62.5384 27.7145 62.5384ZM26.9696 66.2496C27.4354 66.2496 27.9166 66.22 28.4132 66.1606C28.9098 66.1013 29.413 66.0057 29.9227 65.8739C30.2567 65.7816 30.5643 65.6783 30.8456 65.5641C31.1664 65.4191 31.4542 65.2609 31.7091 65.0895C31.8893 64.962 32.042 64.8082 32.1672 64.628C32.2925 64.4479 32.4188 64.2062 32.5463 63.9029C32.6429 63.6656 32.7001 63.4767 32.7177 63.3361C32.7264 63.235 32.7133 63.1844 32.6781 63.1844C32.6517 63.1844 32.5946 63.2591 32.5067 63.4086C32.4188 63.558 32.3024 63.6931 32.1574 63.814C32.0123 63.9348 31.7662 64.0677 31.4191 64.2128C31.0719 64.3578 30.6841 64.4775 30.2556 64.572C29.8271 64.6665 29.3789 64.7313 28.9109 64.7665C28.4429 64.8016 28.0199 64.8192 27.642 64.8192C26.5565 64.8104 25.7787 64.694 25.3085 64.4698C25.0668 64.3336 24.9393 64.182 24.9261 64.015C24.913 63.848 24.9009 63.7261 24.8899 63.6492C24.8789 63.5723 24.8514 63.5338 24.8075 63.5338C24.7636 63.5338 24.7306 63.5657 24.7086 63.6294C24.6866 63.6931 24.6548 63.826 24.613 64.0282C24.5713 64.2303 24.535 64.4325 24.5043 64.6346C24.4735 64.8368 24.4581 64.9928 24.4581 65.1027C24.4581 65.3795 24.5482 65.5992 24.7284 65.7618C24.9261 65.9684 25.2601 66.109 25.7303 66.1837C26.016 66.2277 26.4291 66.2496 26.9696 66.2496ZM22.6256 65.8838C22.652 65.8992 22.6893 65.8849 22.7377 65.8409C22.7772 65.797 22.8289 65.7267 22.8926 65.63C22.9563 65.5333 23.0431 65.3389 23.153 65.0466C23.2628 64.7544 23.3353 64.4193 23.3705 64.0414C23.3925 63.8656 23.4056 63.6503 23.41 63.3954C23.4144 63.1405 23.421 62.8548 23.4298 62.5384C23.4298 62.4637 23.4331 62.3495 23.4397 62.1957C23.4463 62.0419 23.454 61.8848 23.4628 61.7244C23.4716 61.564 23.4814 61.4189 23.4924 61.2893C23.5034 61.1597 23.5133 61.0773 23.5221 61.0421C23.5265 61.0069 23.5133 60.9828 23.4825 60.9696C23.4518 60.9564 23.4166 60.9806 23.3771 61.0421C23.3287 61.1388 23.2749 61.2497 23.2156 61.375C23.1563 61.5002 23.1002 61.6332 23.0475 61.7738C22.9948 61.9144 22.9475 62.0572 22.9058 62.2023C22.864 62.3473 22.8344 62.4879 22.8168 62.6241C22.786 62.857 22.775 63.1943 22.7838 63.636C22.7926 64.0776 22.7904 64.4193 22.7772 64.661C22.764 64.9027 22.7311 65.1521 22.6783 65.4092C22.6718 65.4413 22.6656 65.4715 22.6598 65.4998L22.6301 65.646C22.6095 65.7485 22.5992 65.8025 22.5992 65.808C22.5905 65.8431 22.5992 65.8684 22.6256 65.8838ZM20.8986 66.2496C21.2325 66.2496 21.4984 66.0387 21.6962 65.6168C21.8368 65.296 21.9071 64.9708 21.9071 64.6412C21.8983 64.5533 21.861 64.4391 21.795 64.2985C21.7247 64.1666 21.6368 64.1205 21.5314 64.16C21.4874 64.204 21.4325 64.3314 21.3666 64.5423C21.3051 64.7577 21.2611 64.8675 21.2347 64.8719C21.0853 64.8719 20.9557 64.7972 20.8458 64.6478C20.7272 64.5028 20.6678 64.2853 20.6678 63.9952V63.7711C20.6151 63.7535 20.5547 63.7755 20.4866 63.837C20.4185 63.8986 20.3558 63.982 20.2987 64.0875C20.2416 64.193 20.1943 64.3116 20.157 64.4435C20.1196 64.5753 20.101 64.7006 20.101 64.8192C20.101 65.1049 20.1185 65.3422 20.1537 65.5311C20.1888 65.7113 20.2745 65.8761 20.4108 66.0255C20.547 66.1749 20.7096 66.2496 20.8986 66.2496ZM20.0944 64.8192C20.191 64.8324 20.2734 64.8159 20.3416 64.7698C20.4097 64.7236 20.4657 64.6533 20.5096 64.5588C20.5536 64.4643 20.5887 64.3501 20.6151 64.2161C20.6415 64.082 20.6591 63.9315 20.6678 63.7645C20.6678 63.7382 20.6788 63.5843 20.7008 63.3031C20.7228 63.0218 20.7821 62.5033 20.8788 61.7474C20.9755 60.9916 21.0304 60.4796 21.0436 60.2115C21.0436 60.1764 21.0315 60.1544 21.0073 60.1456C20.9832 60.1368 20.9601 60.1588 20.9381 60.2115C20.7228 60.7565 20.58 61.1366 20.5096 61.3519C20.3734 62.0946 20.2712 62.7725 20.2031 63.3855C20.135 63.9985 20.0988 64.4764 20.0944 64.8192ZM15.0582 73.0062C15.1198 73.0853 15.1593 72.8931 15.1769 72.4294C15.1945 71.9658 15.2142 71.4176 15.2362 70.7848C15.2582 70.152 15.3043 69.4741 15.3746 68.7512C15.4449 68.0283 15.5361 67.4164 15.6482 66.9154C15.7603 66.4144 15.891 66.0321 16.0404 65.7684C16.1898 65.5135 16.3777 65.2795 16.604 65.0664C16.8303 64.8533 17.049 64.7017 17.2599 64.6116C17.4708 64.5215 17.673 64.4545 17.8663 64.4105C18.0597 64.3666 18.2344 64.3193 18.3904 64.2688C18.5464 64.2183 18.6694 64.1666 18.7595 64.1139C18.8496 64.0611 18.9441 63.9809 19.043 63.8733C19.1418 63.7656 19.2253 63.6437 19.2935 63.5074C19.3616 63.3712 19.4066 63.2646 19.4286 63.1877C19.4506 63.1108 19.4615 63.0196 19.4615 62.9142C19.4615 62.7604 19.3759 62.6549 19.2045 62.5978C19.0331 62.5406 18.9078 62.5033 18.8287 62.4857C18.7496 62.4681 18.6332 62.444 18.4794 62.4132C18.3607 62.3956 18.2926 62.3956 18.275 62.4132C18.2135 62.4571 18.141 62.5648 18.0575 62.7362L17.6818 63.4943C17.6466 63.5206 17.5796 63.5602 17.4807 63.6129C17.3818 63.6656 17.2687 63.7349 17.1412 63.8205C17.0138 63.9062 16.8721 64.0238 16.7161 64.1732C16.5601 64.3226 16.4271 64.4654 16.3173 64.6017C16.0931 64.8873 15.8998 65.2015 15.7372 65.5443C15.6581 65.7245 15.5856 65.9047 15.5197 66.0848C15.3043 66.7528 15.1681 67.5306 15.111 68.4183C15.0538 69.306 15.0187 70.1443 15.0055 70.9331C14.9967 71.459 14.9918 71.9033 14.9908 72.2661L14.9912 72.6017L14.9923 72.7491C14.9923 72.8722 15.0143 72.9579 15.0582 73.0062Z" fill="white"/>
</svg>
