<svg width="106" height="119" viewBox="0 0 106 119" fill="none" xmlns="http://www.w3.org/2000/svg">
<path d="M30.416 20.249C31.4553 20.1927 32.9845 20.4726 34.5449 21.0176C36.1049 21.5624 37.4762 22.2955 38.2559 22.9873C40.6527 25.1144 41.3739 27.6233 43.0166 33.7666L48.9707 56.0352C49.4149 57.6964 49.771 59.0295 50.1465 60.082C50.5279 61.1511 50.9709 62.0557 51.6553 62.8174C52.7455 64.0307 54.1914 64.8673 55.7861 65.207C56.7875 65.4203 57.7921 65.353 58.9072 65.1494C60.005 64.9489 61.3355 64.5906 62.9932 64.1455L85.2158 58.1787C91.3469 56.5325 93.8732 55.904 96.9082 56.9199C97.8956 57.2504 99.2154 58.0735 100.467 59.1553C101.718 60.237 102.725 61.4252 103.196 62.3564C103.96 63.8655 104.259 65.0297 104.336 66.2744C104.417 67.5852 104.256 69.0203 104.01 71.165C103.595 74.7732 102.799 78.3455 101.622 81.8193C98.357 91.4577 92.3127 99.9088 84.2549 106.104C76.1972 112.3 66.4875 115.962 56.3535 116.628C46.2195 117.294 36.1159 114.932 27.3203 109.844C18.5246 104.755 11.432 97.1668 6.93945 88.0381C2.44703 78.9095 0.756248 68.6511 2.08203 58.5596C3.40789 48.4679 7.69072 38.9969 14.3877 31.3447C16.8012 28.587 19.489 26.1099 22.3994 23.9463C24.1302 22.6597 25.2903 21.8029 26.4629 21.2178C27.5759 20.6624 28.7307 20.3405 30.416 20.249Z" stroke="white" stroke-width="3" stroke-linejoin="round"/>
<path d="M60.2153 1.61426C61.523 1.53364 62.9552 1.69383 65.0962 1.94043C65.3719 1.97219 65.6479 2.00671 65.9233 2.04297C72.6097 2.92331 79.0574 5.1114 84.8979 8.4834C90.7386 11.8555 95.8577 16.3457 99.9634 21.6963C100.132 21.9167 100.3 22.1384 100.465 22.3613C101.749 24.092 102.604 25.2521 103.188 26.4248C103.742 27.538 104.064 28.6932 104.156 30.3789C104.212 31.4189 103.933 32.949 103.389 34.5098C102.845 36.0704 102.113 37.442 101.422 38.2217C99.3 40.6181 96.7976 41.3386 90.6665 42.9814L78.0522 46.3613C74.6645 47.2691 72.2105 47.9256 70.2378 48.2852C68.2823 48.6416 66.9292 48.6796 65.7397 48.4268C63.4807 47.9466 61.4317 46.7631 59.8862 45.0469C59.0726 44.1432 58.4284 42.9527 57.7593 41.0811C57.0843 39.1929 56.4258 36.7393 55.5181 33.3516L52.1382 20.7373C50.4953 14.606 49.8681 12.0783 50.8823 9.04199C51.2124 8.05422 52.0343 6.73464 53.1138 5.4834C54.1934 4.23202 55.3784 3.22517 56.3071 2.75391C57.8128 1.99003 58.974 1.6908 60.2153 1.61426Z" stroke="#88C4FF" stroke-width="3"/>
</svg>
