<svg width="124" height="152" viewBox="0 0 124 152" fill="none" xmlns="http://www.w3.org/2000/svg">
<path d="M92.5239 75.694L96.2466 77.5364C104.861 81.7997 109.168 83.9314 110.545 86.8233C111.743 89.3396 111.743 92.262 110.545 94.7782C109.168 97.6702 104.861 99.8018 96.2466 104.065L79.5067 112.35C73.0852 115.528 69.8744 117.117 66.5095 117.743C63.529 118.297 60.472 118.297 57.4915 117.743C54.1266 117.117 50.9158 115.528 44.4943 112.35L27.7544 104.065C19.1403 99.8018 14.8333 97.6702 13.4559 94.7782C12.2575 92.262 12.2575 89.3396 13.4559 86.8233C14.8333 83.9314 19.1403 81.7997 27.7544 77.5364L31.4771 75.694" stroke="white" stroke-width="3"/>
<path d="M27.7544 74.3112C19.1403 70.0479 14.8333 67.9163 13.4559 65.0243C12.2575 62.5081 12.2575 59.5857 13.4559 57.0694C14.8333 54.1775 19.1403 52.0458 27.7544 47.7825L44.4943 39.4976C50.9158 36.3194 54.1266 34.7303 57.4915 34.1047C60.472 33.5505 63.529 33.5505 66.5095 34.1047C69.8744 34.7303 73.0852 36.3194 79.5067 39.4976L96.2466 47.7825C104.861 52.0458 109.168 54.1775 110.545 57.0694C111.743 59.5857 111.743 62.5081 110.545 65.0243C109.168 67.9163 104.861 70.0479 96.2466 74.3112L79.5067 82.5962C73.0852 85.7743 69.8744 87.3634 66.5095 87.9891C63.529 88.5432 60.472 88.5432 57.4915 87.9891C54.1266 87.3634 50.9158 85.7743 44.4943 82.5962L27.7544 74.3112Z" stroke="#88C4FF" stroke-width="3"/>
</svg>
