<svg width="104" height="94" viewBox="0 0 104 94" fill="none" xmlns="http://www.w3.org/2000/svg">
<path d="M1.54541 34.5643C1.54541 23.2615 1.54541 17.61 3.7451 13.2929C5.68 9.49545 8.76742 6.40802 12.5649 4.47312C16.882 2.27344 22.5334 2.27344 33.8363 2.27344H70.1636C81.4665 2.27344 87.1179 2.27344 91.435 4.47312C95.2325 6.40802 98.3199 9.49545 100.255 13.2929C102.455 17.61 102.455 23.2615 102.455 34.5643V41.5363C102.455 52.8391 102.455 58.4906 100.255 62.8077C98.3199 66.6051 95.2325 69.6926 91.435 71.6275C87.1179 73.8272 81.4665 73.8272 70.1636 73.8272H52H37.6921C33.6418 73.8272 31.6167 73.8272 29.6739 74.2122C27.95 74.5539 26.2781 75.1192 24.7006 75.8939C22.9228 76.767 21.3133 77.9961 18.0943 80.4543L14.5176 83.1856C10.3486 86.3692 8.26405 87.961 6.5166 87.9353C4.99619 87.9129 3.56695 87.206 2.6264 86.0112C1.54541 84.638 1.54541 82.0152 1.54541 76.7697V73.8272V34.5643Z" stroke="white" stroke-width="3"/>
<circle cx="37" cy="38" r="4" fill="#88C4FF"/>
<circle cx="52" cy="38" r="4" fill="#88C4FF"/>
<circle cx="67" cy="38" r="4" fill="#88C4FF"/>
</svg>
