<svg width="250" height="250" viewBox="0 0 250 250" fill="none" xmlns="http://www.w3.org/2000/svg">
<g clip-path="url(#clip0_23412_15985)">
<path d="M20 45H213C223.493 45 232 53.5066 232 64V171C232 181.493 223.493 190 213 190H20C9.50659 190 1 181.493 1 171V64C1 53.5066 9.50659 45 20 45Z" stroke="white" stroke-width="2"/>
<path d="M116.5 216H87M116.5 216H146M116.5 216V190.5" stroke="white" stroke-width="2" stroke-linecap="round" stroke-linejoin="round"/>
<rect x="120" y="62" width="62" height="6" rx="2" stroke="white" stroke-width="2"/>
<rect x="154" y="74" width="28" height="6" rx="2" stroke="white" stroke-width="2"/>
<mask id="path-5-inside-1_23412_15985" fill="white">
<path d="M51 118C51 146.167 28.1665 169 0 169C-28.1665 169 -51 146.167 -51 118C-51 89.8335 -28.1665 67 0 67C28.1665 67 51 89.8335 51 118ZM-20.187 118C-20.187 129.149 -11.149 138.187 0 138.187C11.149 138.187 20.187 129.149 20.187 118C20.187 106.851 11.149 97.813 0 97.813C-11.149 97.813 -20.187 106.851 -20.187 118Z"/>
</mask>
<path d="M51 118C51 146.167 28.1665 169 0 169C-28.1665 169 -51 146.167 -51 118C-51 89.8335 -28.1665 67 0 67C28.1665 67 51 89.8335 51 118ZM-20.187 118C-20.187 129.149 -11.149 138.187 0 138.187C11.149 138.187 20.187 129.149 20.187 118C20.187 106.851 11.149 97.813 0 97.813C-11.149 97.813 -20.187 106.851 -20.187 118Z" stroke="white" stroke-width="4" mask="url(#path-5-inside-1_23412_15985)"/>
<mask id="path-6-outside-2_23412_15985" maskUnits="userSpaceOnUse" x="-2" y="65" width="55" height="55" fill="black">
<rect fill="white" x="-2" y="65" width="55" height="55"/>
<path d="M51 118C51 111.303 49.6808 104.671 47.1179 98.4831C44.5549 92.2955 40.7982 86.6733 36.0624 81.9376C31.3267 77.2018 25.7045 73.4451 19.5169 70.8821C13.3292 68.3192 6.69741 67 -3.8147e-06 67L0 97.813C2.65099 97.813 5.27603 98.3352 7.72523 99.3497C10.1744 100.364 12.3998 101.851 14.2744 103.726C16.1489 105.6 17.6359 107.826 18.6503 110.275C19.6648 112.724 20.187 115.349 20.187 118H51Z"/>
</mask>
<path d="M51 118C51 111.303 49.6808 104.671 47.1179 98.4831C44.5549 92.2955 40.7982 86.6733 36.0624 81.9376C31.3267 77.2018 25.7045 73.4451 19.5169 70.8821C13.3292 68.3192 6.69741 67 -3.8147e-06 67L0 97.813C2.65099 97.813 5.27603 98.3352 7.72523 99.3497C10.1744 100.364 12.3998 101.851 14.2744 103.726C16.1489 105.6 17.6359 107.826 18.6503 110.275C19.6648 112.724 20.187 115.349 20.187 118H51Z" fill="#88C4FF"/>
<path d="M51 118C51 111.303 49.6808 104.671 47.1179 98.4831C44.5549 92.2955 40.7982 86.6733 36.0624 81.9376C31.3267 77.2018 25.7045 73.4451 19.5169 70.8821C13.3292 68.3192 6.69741 67 -3.8147e-06 67L0 97.813C2.65099 97.813 5.27603 98.3352 7.72523 99.3497C10.1744 100.364 12.3998 101.851 14.2744 103.726C16.1489 105.6 17.6359 107.826 18.6503 110.275C19.6648 112.724 20.187 115.349 20.187 118H51Z" stroke="black" stroke-width="2.42857" mask="url(#path-6-outside-2_23412_15985)"/>
<rect x="120" y="130" width="18" height="34" rx="5" fill="#88C4FF" stroke="#88C4FF" stroke-width="2"/>
<rect x="152" y="142" width="18" height="22" rx="5" fill="#88C4FF" stroke="#88C4FF" stroke-width="2"/>
<rect x="184" y="106" width="18" height="58" rx="5" fill="#88C4FF" stroke="#88C4FF" stroke-width="2"/>
</g>
<mask id="path-10-inside-3_23412_15985" fill="white">
<rect x="197.484" y="51.9102" width="22.9433" height="11.4717" rx="1.91194"/>
</mask>
<rect x="197.484" y="51.9102" width="22.9433" height="11.4717" rx="1.91194" stroke="white" stroke-width="4.14741" mask="url(#path-10-inside-3_23412_15985)"/>
<path d="M236.043 15.0085L215.17 12.4397C213.073 12.1818 211.165 13.6718 210.907 15.7679L210.308 20.6344L230.392 31.507L233.616 28.5763L238.449 26.7657L239.372 19.2712C239.63 17.1752 238.139 15.2664 236.043 15.0085Z" fill="black" stroke="#88C4FF" stroke-width="2.07371"/>
<path d="M225.484 20.6351L204.469 21.4562C202.358 21.5386 200.715 23.3162 200.797 25.4264L201.148 34.4163L224.824 34.4163L229.793 32.9777L229.454 24.3068C229.372 22.1965 227.594 20.5527 225.484 20.6351Z" fill="black" stroke="#88C4FF" stroke-width="2.07371"/>
<path d="M248.27 61.3748V34.4681C248.27 30.2443 244.846 26.8203 240.622 26.8203H237.003C234.677 26.8203 232.478 27.8788 231.027 29.6964L229.85 31.1707C228.398 32.9883 226.199 34.0467 223.873 34.0467H199.648C195.424 34.0467 192 37.4708 192 41.6945V61.3748C192 65.5986 195.424 69.0226 199.648 69.0226H240.622C244.846 69.0226 248.27 65.5986 248.27 61.3748Z" fill="black" stroke="white" stroke-width="2.07371"/>
<defs>
<clipPath id="clip0_23412_15985">
<rect width="233" height="173" fill="white" transform="translate(0 44)"/>
</clipPath>
</defs>
</svg>
