<svg width="92" height="92" viewBox="0 0 92 92" fill="none" xmlns="http://www.w3.org/2000/svg">
<path d="M91 1H1V91H91V1Z" stroke="#55A2E7" stroke-opacity="0.595597"/>
<path d="M74.2982 65.0825C74.3386 65.0825 74.4019 65.0079 74.4879 64.8588C74.5738 64.7096 74.6168 64.5921 74.6168 64.5062C74.6168 64.4177 74.57 64.3242 74.4765 64.2256C74.3854 64.1371 74.302 64.0929 74.2261 64.0929C74.1957 64.0929 74.1293 64.194 74.0269 64.3962C73.9245 64.5984 73.8733 64.7134 73.8733 64.7412C73.8733 64.7665 73.896 64.7943 73.9416 64.8246C73.9871 64.855 74.0516 64.9055 74.135 64.9763C74.2185 65.0471 74.2729 65.0825 74.2982 65.0825ZM73.9112 66.0114C73.9947 66.0114 74.111 65.8673 74.2602 65.5791C74.3209 65.6196 74.3955 65.6853 74.4841 65.7763C74.5498 65.842 74.6004 65.8749 74.6358 65.8749C74.6813 65.8749 74.7534 65.8054 74.852 65.6664C74.9507 65.5248 75 65.4073 75 65.3137C75 65.2303 74.9507 65.1393 74.852 65.0408C74.7534 64.9523 74.6712 64.9081 74.6055 64.9081C74.5852 64.9081 74.5359 64.97 74.4575 65.0938C74.4019 65.1823 74.345 65.2733 74.2868 65.3668C74.2539 65.2986 74.1907 65.2272 74.0971 65.1526C74.0035 65.078 73.934 65.0408 73.8884 65.0408C73.8632 65.0408 73.7923 65.1425 73.676 65.346C73.5597 65.5494 73.5015 65.6676 73.5015 65.7005C73.5015 65.7182 73.5647 65.7744 73.6912 65.8692C73.8176 65.964 73.891 66.0114 73.9112 66.0114ZM73.1031 68.8588C73.2397 68.8689 73.3478 68.8329 73.4275 68.7507C73.5072 68.6686 73.6558 68.4442 73.8733 68.0777C73.939 67.9867 73.9953 67.9248 74.0421 67.8919C74.0889 67.8591 74.1376 67.8357 74.1881 67.8218C74.2387 67.8079 74.2931 67.7997 74.3513 67.7972C74.4373 67.7921 74.5346 67.6556 74.6434 67.3877C74.6788 67.2916 74.6965 67.2246 74.6965 67.1867C74.6914 67.1336 74.6737 67.1147 74.6434 67.1299C74.6232 67.14 74.5985 67.1697 74.5694 67.219C74.5403 67.2682 74.5081 67.3194 74.4727 67.3725C74.4094 67.3725 74.3348 67.3826 74.2488 67.4028C74.1629 67.4231 74.0794 67.4825 73.9985 67.581C73.9175 67.6796 73.8606 67.7517 73.8277 67.7972C73.7721 67.8755 73.7329 67.9299 73.7101 67.9602C73.6545 68.036 73.6001 68.0739 73.547 68.0739L73.5291 68.0736C73.5066 68.0733 73.4639 68.0728 73.4009 68.072C73.296 68.0708 73.1967 68.079 73.1031 68.0967C73.0273 68.352 73.0273 68.606 73.1031 68.8588ZM69.7166 71.4715L69.7571 71.4597C69.7798 71.4521 69.8001 71.4445 69.8178 71.437C69.833 71.4319 69.8456 71.4269 69.8557 71.4218C69.9721 71.3738 70.0808 71.3201 70.182 71.2607C70.2831 71.2013 70.3932 71.1286 70.512 71.0427C70.6309 70.9567 70.7814 70.8246 70.9635 70.6464C71.1456 70.4682 71.3245 70.2559 71.5003 70.0095C71.6761 69.763 71.8266 69.5602 71.9517 69.4009C72.0769 69.2417 72.2331 69.1103 72.4203 69.0066C72.5493 68.946 72.6504 68.9055 72.7238 68.8853C72.8072 68.8626 72.8825 68.8512 72.9495 68.8512C73.0165 68.8512 73.0677 68.8537 73.1031 68.8588C73.1284 68.8082 73.1518 68.752 73.1733 68.69C73.1948 68.6281 73.2081 68.5643 73.2132 68.4986C73.2182 68.4329 73.2132 68.3659 73.198 68.2976C73.1828 68.2294 73.1512 68.1624 73.1031 68.0967C73.0753 68.1017 73.0481 68.1068 73.0216 68.1118C72.995 68.1169 72.9678 68.1258 72.94 68.1384C72.7781 68.1991 72.6074 68.2926 72.4279 68.419C72.2483 68.5453 72.0624 68.7273 71.8702 68.9649C71.8044 69.0433 71.659 69.2455 71.4339 69.5716C71.3732 69.6701 71.3087 69.7649 71.2404 69.8559C71.0963 70.0834 70.9439 70.2837 70.7833 70.4569C70.6227 70.63 70.4659 70.7779 70.3129 70.9005C70.1598 71.0231 70.0226 71.1235 69.9012 71.2019C69.795 71.2853 69.7229 71.3472 69.685 71.3877C69.6546 71.4231 69.6433 71.4471 69.6509 71.4597C69.6787 71.4774 69.7141 71.4774 69.7571 71.4597L69.7166 71.4715ZM71.0318 65.7498C71.0419 65.7675 71.0824 65.7472 71.1532 65.6891C71.186 65.6638 71.2215 65.6367 71.2594 65.6076C71.2973 65.5785 71.3353 65.5476 71.3732 65.5147L71.9081 65.0976C72.1079 64.951 72.3153 64.793 72.5303 64.6237C72.6922 64.4998 72.8679 64.357 73.0576 64.1953C73.1967 64.079 73.3188 63.9754 73.4237 63.8844C73.5287 63.7934 73.6166 63.7163 73.6874 63.6531C73.8846 63.4761 74.0162 63.3548 74.0819 63.2891C74.1047 63.2664 74.1818 63.1842 74.3133 63.0427C74.4246 62.9163 74.5131 62.8088 74.5789 62.7204C74.6421 62.6395 74.7129 62.5321 74.7913 62.3981C74.8672 62.2616 74.9165 62.1529 74.9393 62.072C74.9494 62.0417 74.9545 62.0177 74.9545 62C74.9545 62.0019 74.9423 62.0153 74.918 62.0403L74.8084 62.1498C74.711 62.2458 74.565 62.388 74.3702 62.5763C74.0844 62.8518 73.8796 63.0477 73.7557 63.164C73.5255 63.3763 73.2979 63.576 73.0728 63.763C72.7111 64.0588 72.3798 64.3242 72.0788 64.5592C71.6919 64.8752 71.4491 65.0875 71.3504 65.1962C71.2847 65.2619 71.2253 65.3428 71.1721 65.4389C71.114 65.5476 71.0672 65.6512 71.0318 65.7498ZM70.3034 68.9573C70.3615 68.9573 70.4248 68.9156 70.4931 68.8322C70.5613 68.7513 70.6271 68.6591 70.6903 68.5555C70.7536 68.4493 70.8029 68.3393 70.8383 68.2256C70.8737 68.1144 70.9015 67.9779 70.9218 67.8161C70.9395 67.672 70.9584 67.2714 70.9787 66.6142C70.9862 66.5005 70.9938 66.3754 71.0014 66.2389C71.0115 66.1175 71.0166 66.0025 71.0166 65.8938C71.0166 65.8357 71.0141 65.8016 71.009 65.7915C70.9913 65.7611 70.9736 65.7662 70.9559 65.8066L70.8231 66.2047L70.6448 66.7621L70.6524 67.8161C70.6524 67.8869 70.6448 67.9829 70.6296 68.1043C70.6145 68.2205 70.5968 68.3027 70.5765 68.3507C70.5386 68.4543 70.4874 68.4961 70.4229 68.4758C70.3584 68.4556 70.2933 68.4455 70.2275 68.4455C70.1972 68.5289 70.1832 68.6117 70.1858 68.6938C70.1883 68.776 70.2022 68.8588 70.2275 68.9422C70.2401 68.9498 70.2654 68.9548 70.3034 68.9573ZM67.1204 68.3962C67.2014 68.3962 67.3101 68.2585 67.4467 67.9829C67.5023 68.0234 67.5668 68.0803 67.6402 68.1536C67.7135 68.2269 67.7641 68.2635 67.7919 68.2635C67.8349 68.2635 67.902 68.1991 67.993 68.0701C68.0866 67.9387 68.1334 67.825 68.1334 67.7289C68.1283 67.648 68.0822 67.5615 67.9949 67.4692C67.9076 67.3769 67.8324 67.3308 67.7692 67.3308C67.7489 67.3308 67.7078 67.3826 67.6459 67.4863L67.5295 67.68L67.4771 67.7668C67.4341 67.7062 67.3715 67.636 67.2893 67.5564C67.2071 67.4768 67.1445 67.4458 67.1015 67.4635C67.0787 67.4635 67.0155 67.5608 66.9118 67.7555C66.8081 67.9501 66.7562 68.0638 66.7562 68.0967C66.7562 68.1118 66.7936 68.1498 66.8682 68.2104C66.9428 68.2711 66.9978 68.3166 67.0332 68.3469C67.0711 68.3798 67.1002 68.3962 67.1204 68.3962ZM66.6576 70.3526C67.209 70.3526 67.7085 70.3033 68.1561 70.2047C68.6088 70.1062 68.9553 69.9671 69.1956 69.7877C69.2942 69.722 69.379 69.6411 69.4498 69.545C69.4801 69.4995 69.5111 69.4547 69.5427 69.4104C69.5743 69.3662 69.6053 69.3213 69.6357 69.2758C69.6989 69.1848 69.7609 69.1141 69.8216 69.0635C69.8848 69.0079 69.9455 68.9738 70.0037 68.9611C70.0669 68.9485 70.1415 68.9422 70.2275 68.9422C70.2705 68.8891 70.3059 68.8082 70.3337 68.6995C70.3464 68.5858 70.311 68.5011 70.2275 68.4455C70.1061 68.4708 70.0062 68.5251 69.9278 68.6085C69.8899 68.6464 69.8405 68.7065 69.7798 68.7886C69.7191 68.8708 69.685 68.9144 69.6774 68.9194C69.6091 68.9902 69.5155 69.0566 69.3967 69.1185C69.2778 69.1804 69.1286 69.2379 68.949 69.291C68.6759 69.3744 68.4451 69.4288 68.2567 69.454C68.0682 69.4793 67.8229 69.4989 67.5207 69.5128C67.2184 69.5267 66.9459 69.5311 66.7031 69.5261C66.4072 69.5235 66.1815 69.5021 66.026 69.4616C65.8704 69.4212 65.7579 69.3681 65.6883 69.3024C65.6188 69.2367 65.5777 69.1457 65.565 69.0294C65.5473 68.9131 65.5283 68.855 65.5081 68.855C65.4752 68.855 65.4462 68.9498 65.4209 69.1393C65.393 69.3137 65.3791 69.4856 65.3791 69.655C65.3791 69.9179 65.4588 70.0986 65.6181 70.1972C65.7168 70.2629 65.8698 70.3046 66.0772 70.3223C66.2593 70.3425 66.4527 70.3526 66.6576 70.3526ZM64.1462 68.6502C64.3384 68.6502 64.4914 68.5289 64.6052 68.2863C64.6861 68.1017 64.7266 67.9147 64.7266 67.7251C64.7215 67.6746 64.7001 67.6088 64.6621 67.528C64.6217 67.4521 64.5711 67.4256 64.5104 67.4483C64.4851 67.4736 64.4535 67.5469 64.4155 67.6682C64.3801 67.7921 64.3548 67.8553 64.3396 67.8578C64.2537 67.8578 64.179 67.8148 64.1158 67.7289C64.0475 67.6455 64.0134 67.5204 64.0134 67.3536V67.2246C63.983 67.2145 63.9483 67.2272 63.9091 67.2626C63.8699 67.2979 63.8338 67.346 63.8009 67.4066C63.7681 67.4673 63.7409 67.5355 63.7194 67.6114C63.6979 67.6872 63.6871 67.7592 63.6871 67.8275C63.6871 67.9918 63.6972 68.1283 63.7175 68.237C63.7377 68.3406 63.787 68.4354 63.8654 68.5213C63.9438 68.6073 64.0374 68.6502 64.1462 68.6502ZM63.4557 68.6787C63.4911 68.6774 63.5227 68.6679 63.5506 68.6502C63.5556 68.6047 63.6011 68.51 63.6871 68.3659C63.7301 68.2926 63.7617 68.2559 63.782 68.2559C63.8098 68.2559 63.8363 68.2016 63.8616 68.0929C63.8895 67.9994 63.9173 67.8603 63.9451 67.6758L64.0134 67.2284C64.0134 67.1324 64.0399 66.9137 64.0931 66.5725C64.1006 66.5169 64.1114 66.448 64.1253 66.3659C64.1392 66.2837 64.1557 66.1997 64.1746 66.1137C64.1936 66.0278 64.1955 65.981 64.1803 65.9735C64.1677 65.9659 64.1512 65.9697 64.131 65.9848C64.0526 66.1188 63.9906 66.2401 63.9451 66.3488C63.9249 66.3994 63.8933 66.4929 63.8503 66.6294C63.8224 66.7431 63.7984 66.8518 63.7782 66.9555C63.7529 67.0742 63.7314 67.2158 63.7137 67.3801L63.6871 67.782L63.6795 67.9526C63.6745 68.0082 63.6416 68.0942 63.5809 68.2104C63.5733 68.2281 63.5278 68.3153 63.4443 68.472L63.3495 68.6502C63.3849 68.6705 63.4203 68.6799 63.4557 68.6787ZM62.1848 71.5659C62.3239 71.5659 62.4542 71.5457 62.5756 71.5052C62.6869 71.4673 62.8007 71.4117 62.917 71.3384C63.2331 71.1084 63.4835 70.8 63.6682 70.4133C63.7845 70.163 63.8642 69.9532 63.9072 69.7839C63.9502 69.6095 63.9717 69.4389 63.9717 69.272C63.9717 69.1583 63.959 69.0724 63.9337 69.0142C63.9084 68.9611 63.8667 68.9137 63.8085 68.872C63.7504 68.8303 63.6928 68.7918 63.6359 68.7564C63.579 68.721 63.5506 68.6856 63.5506 68.6502C63.548 68.6325 63.5379 68.6199 63.5202 68.6123C63.5025 68.6047 63.4829 68.6009 63.4614 68.6009C63.4399 68.6009 63.4184 68.6047 63.3969 68.6123C63.3754 68.6199 63.3596 68.6325 63.3495 68.6502C63.2938 68.7513 63.2464 68.8581 63.2072 68.9706C63.168 69.0831 63.1484 69.1836 63.1484 69.272C63.1484 69.3959 63.2407 69.5008 63.4254 69.5867C63.6075 69.6701 63.6985 69.7333 63.6985 69.7763C63.6985 69.9912 63.5822 70.1959 63.3495 70.3905C63.0763 70.618 62.7374 70.7318 62.3328 70.7318C62.1077 70.7318 61.9243 70.685 61.7827 70.5915C61.5905 70.4575 61.4944 70.2351 61.4944 69.9242C61.4944 69.7599 61.5538 69.5273 61.6727 69.2265C61.741 69.0622 61.8649 68.7728 62.0444 68.3583C62.0647 68.3128 62.0811 68.2585 62.0938 68.1953C62.1064 68.1422 62.0988 68.1131 62.071 68.1081C62.0508 68.1055 62.0217 68.1384 61.9837 68.2066C61.9686 68.242 61.949 68.2825 61.9249 68.328C61.9009 68.3735 61.8737 68.424 61.8434 68.4796C61.8004 68.5706 61.765 68.6445 61.7372 68.7014C61.7093 68.7583 61.6878 68.8006 61.6727 68.8284C61.6221 68.9447 61.5614 69.0875 61.4906 69.2569C61.4248 69.4212 61.3616 69.6158 61.3009 69.8408C61.2402 70.0733 61.2098 70.2616 61.2098 70.4057C61.2098 70.7292 61.2844 70.9946 61.4337 71.2019C61.6082 71.4445 61.8586 71.5659 62.1848 71.5659ZM60.2273 70.2995C60.3613 70.2919 60.4751 70.2224 60.5687 70.091C60.6623 69.9596 60.7362 69.7915 60.7906 69.5867C60.845 69.382 60.8735 69.2341 60.876 69.1431C60.881 69.09 60.8697 69.0635 60.8418 69.0635C60.8191 69.0635 60.795 69.1008 60.7698 69.1754C60.7445 69.2499 60.7135 69.315 60.6768 69.3706C60.6401 69.4262 60.5877 69.4616 60.5194 69.4768C60.4511 69.4919 60.3828 69.4768 60.3145 69.4313C60.2007 69.3479 60.1438 69.2 60.1438 68.9877V68.8209C60.1033 68.831 60.0508 68.8878 59.9864 68.9915C59.9219 69.0951 59.8643 69.2556 59.8137 69.473V69.4995C59.8087 69.7321 59.8403 69.9216 59.9086 70.0682C59.9845 70.2174 60.0907 70.2945 60.2273 70.2995ZM60.0262 73.2531C60.1021 73.2531 60.2058 73.1115 60.3373 72.8284C60.3904 72.8689 60.4574 72.9333 60.5383 73.0218C60.5965 73.085 60.6408 73.1166 60.6711 73.1166C60.7116 73.1166 60.7748 73.0496 60.8608 72.9156C60.9493 72.7766 60.9936 72.6603 60.9936 72.5668C60.9936 72.4859 60.9493 72.3962 60.8608 72.2976C60.7748 72.2117 60.7027 72.1687 60.6446 72.1687C60.6269 72.1687 60.5826 72.2306 60.5118 72.3545C60.4637 72.4404 60.4131 72.5276 60.36 72.6161C60.3322 72.5529 60.2766 72.484 60.1931 72.4095C60.1096 72.3349 60.0477 72.2976 60.0072 72.2976C59.9845 72.2976 59.9219 72.3981 59.8194 72.5991C59.717 72.8 59.6658 72.9156 59.6658 72.946C59.6658 72.9637 59.7214 73.0193 59.8327 73.1128C59.944 73.2063 60.0085 73.2531 60.0262 73.2531ZM60.3638 74C60.3942 74 60.4498 73.9381 60.5308 73.8142C60.6092 73.6853 60.6509 73.5766 60.6559 73.4882C60.661 73.4073 60.6275 73.3226 60.5554 73.2341C60.4833 73.1457 60.4169 73.0989 60.3562 73.0938C60.3335 73.0913 60.2728 73.1779 60.1741 73.3536C60.0755 73.5292 60.0249 73.6297 60.0224 73.655C60.0224 73.6777 60.0395 73.7043 60.0736 73.7346C60.1078 73.7649 60.1413 73.794 60.1741 73.8218C60.2146 73.8648 60.2538 73.9052 60.2917 73.9431C60.3196 73.9785 60.3436 73.9975 60.3638 74ZM59.8137 69.4768C59.8694 69.4844 59.9168 69.4749 59.956 69.4483C59.9952 69.4218 60.0275 69.3814 60.0527 69.327C60.078 69.2727 60.0983 69.207 60.1134 69.1299C60.1286 69.0528 60.1387 68.9662 60.1438 68.8701C60.1438 68.855 60.1501 68.7665 60.1628 68.6047C60.1754 68.443 60.2096 68.1447 60.2652 67.71C60.3208 67.2752 60.3524 66.9807 60.36 66.8265C60.36 66.8063 60.3531 66.7937 60.3392 66.7886C60.3253 66.7836 60.312 66.7962 60.2993 66.8265C60.1754 67.14 60.0932 67.3586 60.0527 67.4825C59.9743 67.9096 59.9155 68.2995 59.8763 68.6521C59.8371 69.0047 59.8163 69.2796 59.8137 69.4768ZM58.3266 70.2995C58.4581 70.3021 58.582 70.2528 58.6984 70.1517C58.7768 70.0809 58.8628 69.9747 58.9564 69.8332C59.012 69.7472 59.0638 69.6423 59.1119 69.5185C59.1448 69.4351 59.1739 69.3555 59.1992 69.2796C59.2244 69.2038 59.2554 69.0989 59.2921 68.9649C59.3288 68.831 59.3496 68.6641 59.3547 68.4645C59.3572 68.4063 59.361 68.3058 59.3661 68.163C59.3711 68.0202 59.3749 67.8995 59.3775 67.8009C59.3952 67.4142 59.4243 67.073 59.4647 66.7773C59.4774 66.7115 59.4875 66.6433 59.4951 66.5725C59.5077 66.4942 59.5077 66.4518 59.4951 66.4455C59.4824 66.4392 59.4672 66.4487 59.4495 66.4739C59.3079 66.7216 59.2055 66.9504 59.1423 67.1602C59.079 67.37 59.0442 67.5545 59.0379 67.7137C59.0316 67.873 59.0297 68.0506 59.0322 68.2464C59.0348 68.4423 59.0335 68.6009 59.0284 68.7223V68.9573C59.0284 69.0357 59.005 69.1469 58.9583 69.291C58.9115 69.4351 58.8185 69.5633 58.6794 69.6758C58.5403 69.7883 58.4012 69.842 58.2621 69.837C58.2368 69.837 58.2065 69.8363 58.1711 69.8351C58.1357 69.8338 58.1154 69.8281 58.1104 69.818C58.2115 69.6714 58.295 69.4957 58.3607 69.291C58.4088 69.152 58.4448 69.0079 58.4689 68.8588C58.4929 68.7096 58.5239 68.3823 58.5618 67.8768C58.5722 67.7389 58.5811 67.6181 58.5886 67.5145L58.6018 67.33C58.6131 67.1683 58.6187 67.0751 58.6187 67.0502C58.6212 66.9567 58.6137 66.91 58.596 66.91C58.5909 66.91 58.5846 66.915 58.577 66.9251C58.5694 66.9352 58.5631 66.9479 58.558 66.963C58.4417 67.2765 58.3582 67.5254 58.3076 67.71C58.2318 67.9829 58.19 68.2357 58.1824 68.4682C58.185 68.5592 58.1856 68.6439 58.1843 68.7223C58.1831 68.8006 58.1812 68.879 58.1786 68.9573C58.1761 69.0357 58.1698 69.1292 58.1597 69.2379C58.1496 69.3466 58.1344 69.4344 58.1142 69.5014C58.0939 69.5684 58.0712 69.6221 58.0459 69.6626C58.0206 69.703 58.0003 69.7333 57.9852 69.7536C57.9548 69.794 57.927 69.8306 57.9017 69.8635C57.8764 69.8964 57.8638 69.9254 57.8638 69.9507C57.8612 69.9861 57.8789 70.0215 57.9169 70.0569C57.927 70.067 57.951 70.0872 57.989 70.1175C58.037 70.1706 58.0876 70.2136 58.1407 70.2464C58.1938 70.2793 58.2558 70.297 58.3266 70.2995ZM57.3251 68.2142C57.4136 68.1308 57.5097 67.9994 57.6134 67.8199C57.712 67.6455 57.7639 67.4888 57.7689 67.3498C57.774 67.1678 57.7765 67.0654 57.7765 67.0427C57.7765 66.9517 57.7778 66.8809 57.7803 66.8303C57.7828 66.757 57.779 66.7166 57.7689 66.709C57.7512 66.7014 57.7323 66.7153 57.712 66.7507C57.6361 66.9074 57.5767 67.025 57.5337 67.1033C57.468 67.2145 57.4351 67.303 57.4351 67.3687V67.6948C57.4351 67.7276 57.4288 67.763 57.4161 67.8009C57.3984 67.8389 57.3681 67.8705 57.3251 67.8957C57.3023 67.9488 57.2934 68.0019 57.2985 68.055C57.3036 68.1081 57.3124 68.1611 57.3251 68.2142ZM56.7826 72.3848C56.8635 72.3848 56.9722 72.2471 57.1088 71.9716C57.1645 72.012 57.229 72.0689 57.3023 72.1422C57.3756 72.2155 57.4262 72.2521 57.454 72.2521C57.497 72.2521 57.5641 72.1877 57.6551 72.0588C57.7487 71.9273 57.7955 71.8136 57.7955 71.7175C57.7904 71.6367 57.7443 71.5501 57.657 71.4578C57.5698 71.3656 57.4945 71.3194 57.4313 71.3194C57.411 71.3194 57.3699 71.3712 57.308 71.4749C57.246 71.5785 57.1898 71.672 57.1392 71.7555C57.0962 71.6948 57.0336 71.6246 56.9514 71.545C56.8692 71.4654 56.8066 71.4344 56.7636 71.4521C56.7408 71.4521 56.6776 71.5494 56.5739 71.7441C56.4702 71.9387 56.4184 72.0524 56.4184 72.0853C56.4184 72.1005 56.4557 72.1384 56.5303 72.1991C56.6049 72.2597 56.6599 72.3052 56.6953 72.3355C56.7332 72.3684 56.7623 72.3848 56.7826 72.3848ZM55.7734 65.818C55.8114 65.818 55.8702 65.7447 55.9498 65.5981C56.0295 65.4515 56.0693 65.3365 56.0693 65.2531C56.0693 65.1646 56.0263 65.0724 55.9403 64.9763C55.8544 64.8904 55.776 64.8474 55.7051 64.8474C55.6773 64.8474 55.616 64.9466 55.5211 65.145C55.4263 65.3434 55.3789 65.4553 55.3789 65.4806C55.3789 65.5058 55.3997 65.5336 55.4415 65.564C55.4832 65.5943 55.5433 65.6442 55.6217 65.7137C55.7001 65.7833 55.7507 65.818 55.7734 65.818ZM55.413 66.728C55.4914 66.728 55.6002 66.5864 55.7393 66.3033C55.7949 66.3438 55.8645 66.4082 55.9479 66.4967C56.0086 66.5599 56.0554 66.5915 56.0883 66.5915C56.1288 66.5915 56.1958 66.5245 56.2894 66.3905C56.3804 66.2515 56.4259 66.1352 56.4259 66.0417C56.4259 65.9608 56.3804 65.8724 56.2894 65.7763C56.1958 65.6904 56.1187 65.6474 56.058 65.6474C56.0403 65.6474 55.9947 65.7081 55.9214 65.8294C55.8708 65.9153 55.8177 66.0038 55.762 66.0948C55.7317 66.0291 55.6729 65.9596 55.5856 65.8863C55.4984 65.813 55.4345 65.7763 55.3941 65.7763C55.3688 65.7763 55.3024 65.8761 55.1949 66.0758C55.0874 66.2755 55.0337 66.3905 55.0337 66.4209C55.0337 66.4385 55.0925 66.4942 55.2101 66.5877C55.3277 66.6812 55.3953 66.728 55.413 66.728ZM54.0359 71.6C54.61 71.5949 55.1019 71.3156 55.5117 70.7621C55.6862 70.5144 55.8291 70.249 55.9403 69.9659C56.0845 69.5968 56.1831 69.1823 56.2363 68.7223C56.2464 68.6818 56.254 68.6616 56.259 68.6616C56.3602 68.649 56.4468 68.6256 56.5189 68.5915C56.591 68.5573 56.6612 68.5137 56.7294 68.4607C56.7901 68.4935 56.8875 68.4645 57.0216 68.3735C57.1227 68.3659 57.2239 68.3141 57.3251 68.218C57.3301 68.2054 57.3402 68.1839 57.3554 68.1536C57.3655 68.1333 57.3706 68.1005 57.3706 68.055C57.3706 68.012 57.3655 67.9804 57.3554 67.9602L57.3251 67.8995C57.3023 67.9172 57.2694 67.9299 57.2264 67.9374C57.1809 67.94 57.1417 67.9324 57.1088 67.9147C57.0911 67.8995 57.0658 67.9229 57.0329 67.9848C57.0001 68.0468 56.9621 68.0777 56.9191 68.0777C56.8736 68.0777 56.8369 68.0638 56.8091 68.036C56.7813 68.0082 56.7585 67.9981 56.7408 68.0057C56.6599 68.1118 56.5916 68.1763 56.536 68.1991C56.4803 68.2218 56.424 68.2243 56.3671 68.2066C56.3102 68.1889 56.2628 68.1801 56.2249 68.1801C56.0883 68.1826 56.015 68.2635 56.0048 68.4227L56.0051 68.8417C55.9954 69.3103 55.9017 69.685 55.7241 69.9659C55.5875 70.1908 55.4067 70.3791 55.1816 70.5308C54.8781 70.7052 54.562 70.7924 54.2332 70.7924C53.9853 70.7874 53.776 70.7216 53.6053 70.5953C53.4346 70.4689 53.3417 70.2818 53.3265 70.0341C53.3315 69.7106 53.4466 69.3264 53.6717 68.8815C53.6869 68.836 53.6881 68.7918 53.6755 68.7488C53.6629 68.7033 53.6237 68.7412 53.5579 68.8626C53.2165 69.4667 53.047 70.0265 53.0495 70.5422C53.0597 70.8682 53.152 71.1223 53.3265 71.3043C53.501 71.4888 53.7375 71.5874 54.0359 71.6ZM51.293 70.2995C51.3259 70.2995 51.4302 70.2711 51.606 70.2142C51.7818 70.1573 51.9127 70.1131 51.9987 70.0815C52.0847 70.0499 52.1492 70.0202 52.1922 69.9924C52.2351 69.9646 52.2946 69.8926 52.3705 69.7763C52.4463 69.66 52.5285 69.4793 52.6171 69.2341C52.6373 69.1785 52.6556 69.1185 52.6721 69.054C52.6885 68.9896 52.7011 68.9365 52.71 68.8948C52.7188 68.8531 52.7271 68.8013 52.7347 68.7393C52.7422 68.6774 52.746 68.6149 52.746 68.5517C52.746 68.4278 52.7113 68.3216 52.6417 68.2332C52.5722 68.1447 52.4855 68.1005 52.3818 68.1005C52.3211 68.1005 52.2598 68.1409 52.1978 68.2218C52.1359 68.3027 52.0746 68.4051 52.0139 68.5289C51.9532 68.6528 51.9133 68.7431 51.8943 68.8C51.8754 68.8569 51.8608 68.9068 51.8507 68.9498C51.8406 69.0205 51.8672 69.085 51.9304 69.1431C51.9936 69.2013 52.072 69.2316 52.1656 69.2341C52.201 69.2341 52.237 69.2246 52.2737 69.2057C52.3104 69.1867 52.3464 69.1798 52.3818 69.1848C52.349 69.3011 52.2977 69.4054 52.2282 69.4976C52.1586 69.5899 52.0904 69.66 52.0233 69.7081C51.9563 69.7561 51.8077 69.8572 51.5776 70.0114C51.3474 70.1656 51.2425 70.2566 51.2627 70.2844C51.2627 70.2945 51.2728 70.2995 51.293 70.2995ZM49.0813 67.1602C49.2508 66.9959 49.5252 66.8227 49.9045 66.6408C50.2839 66.4588 50.485 66.3589 50.5077 66.3412C50.5583 66.316 50.6064 66.2768 50.6519 66.2237C50.6823 66.1908 50.7379 66.1106 50.8188 65.9829C50.8998 65.8553 50.9453 65.7776 50.9554 65.7498C50.963 65.7245 50.9529 65.7118 50.9251 65.7118L50.8719 65.7308C50.705 65.8041 50.5324 65.8932 50.3541 65.9981C50.1758 66.103 50.0051 66.2111 49.8419 66.3223C49.6788 66.4335 49.5309 66.5428 49.3981 66.6502C49.2653 66.7577 49.1597 66.8493 49.0813 66.9251C49.056 66.9833 49.0465 67.0319 49.0528 67.0711C49.0592 67.1103 49.0687 67.14 49.0813 67.1602ZM50.4129 71.4028C50.4888 71.4028 50.5925 71.2613 50.724 70.9782C50.7771 71.0186 50.8441 71.0831 50.9251 71.1716C50.9832 71.2348 51.0275 71.2664 51.0578 71.2664C51.0983 71.2664 51.1615 71.1994 51.2475 71.0654C51.336 70.9264 51.3803 70.8101 51.3803 70.7166C51.3803 70.6357 51.336 70.546 51.2475 70.4474C51.1615 70.3615 51.0894 70.3185 51.0313 70.3185C51.0136 70.3185 50.9693 70.3804 50.8985 70.5043C50.8504 70.5902 50.7999 70.6774 50.7467 70.7659C50.7189 70.7027 50.6633 70.6338 50.5798 70.5592C50.4964 70.4847 50.4344 70.4474 50.3939 70.4474C50.3712 70.4474 50.3086 70.5479 50.2061 70.7488C50.1037 70.9498 50.0525 71.0654 50.0525 71.0957C50.0525 71.1134 50.1081 71.169 50.2194 71.2626C50.3307 71.3561 50.3952 71.4028 50.4129 71.4028ZM50.7505 72.1498C50.7809 72.1498 50.8365 72.0878 50.9175 71.964C50.9959 71.8351 51.0376 71.7264 51.0427 71.6379C51.0477 71.557 51.0142 71.4724 50.9421 71.3839C50.87 71.2954 50.8037 71.2487 50.743 71.2436C50.7202 71.2411 50.6595 71.3276 50.5609 71.5033C50.4622 71.679 50.4116 71.7795 50.4091 71.8047C50.4091 71.8275 50.4262 71.854 50.4603 71.8844C50.4945 71.9147 50.528 71.9438 50.5609 71.9716C50.6013 72.0145 50.6405 72.055 50.6785 72.0929C50.7063 72.1283 50.7303 72.1472 50.7505 72.1498ZM49.5517 64.6464C49.5922 64.6464 49.6567 64.5706 49.7452 64.419C49.8337 64.2673 49.878 64.151 49.878 64.0701C49.8704 64.0095 49.8135 63.9254 49.7073 63.818C49.601 63.7106 49.5201 63.6682 49.4645 63.691C49.4366 63.691 49.3753 63.7839 49.2805 63.9697C49.1856 64.1555 49.1382 64.2761 49.1382 64.3318C49.1382 64.3596 49.1572 64.3861 49.1951 64.4114C49.2381 64.4417 49.3045 64.4866 49.3943 64.546L49.4437 64.5785C49.5036 64.6177 49.5396 64.6404 49.5517 64.6464ZM49.0813 68.2142C49.1724 68.1232 49.2672 68.0196 49.3658 67.9033C49.4189 67.8401 49.4708 67.7757 49.5214 67.71C49.5846 67.6291 49.6605 67.5621 49.749 67.509C49.7692 67.4989 49.7945 67.4648 49.8249 67.4066C49.8577 67.3409 49.878 67.2904 49.8856 67.255C49.8932 67.2171 49.8906 67.193 49.878 67.1829C49.8653 67.1728 49.8476 67.1728 49.8249 67.1829C49.7692 67.2082 49.6902 67.2265 49.5878 67.2379C49.4853 67.2493 49.3734 67.2562 49.252 67.2588C49.1306 67.2613 49.0434 67.255 48.9903 67.2398C49.0181 67.212 49.0484 67.1855 49.0813 67.1602C49.1041 67.1425 49.1199 67.1197 49.1287 67.0919C49.1376 67.0641 49.1414 67.0382 49.1401 67.0142C49.1388 66.9902 49.1325 66.9694 49.1211 66.9517C49.1098 66.934 49.0965 66.9251 49.0813 66.9251C48.9928 67.0085 48.9163 67.0919 48.8518 67.1754C48.7873 67.2588 48.7411 67.3397 48.7133 67.418C48.7032 67.4458 48.7083 67.4686 48.7285 67.4863C48.7513 67.5065 48.798 67.5166 48.8689 67.5166C48.9065 67.5161 48.9422 67.5157 48.976 67.5155L49.1544 67.5158C49.3348 67.5181 49.4179 67.5272 49.4038 67.5431C49.3355 67.6468 49.2748 67.7264 49.2217 67.782C49.1686 67.8376 49.1218 67.8755 49.0813 67.8957C49.0535 67.9235 49.0351 67.9551 49.0263 67.9905C49.0174 68.0259 49.0143 68.0607 49.0168 68.0948C49.0193 68.1289 49.0269 68.1573 49.0396 68.1801C49.0522 68.2028 49.0661 68.2142 49.0813 68.2142ZM47.5297 65.818C47.5676 65.818 47.6264 65.7447 47.7061 65.5981C47.7857 65.4515 47.8256 65.3365 47.8256 65.2531C47.8256 65.1646 47.7826 65.0724 47.6966 64.9763C47.6106 64.8904 47.5322 64.8474 47.4614 64.8474C47.4336 64.8474 47.3722 64.9466 47.2774 65.145C47.1825 65.3434 47.1351 65.4553 47.1351 65.4806C47.1351 65.5058 47.156 65.5336 47.1977 65.564C47.2395 65.5943 47.2995 65.6442 47.3779 65.7137C47.4563 65.7833 47.5069 65.818 47.5297 65.818ZM47.1693 66.728C47.2477 66.728 47.3564 66.5864 47.4955 66.3033C47.5512 66.3438 47.6207 66.4082 47.7042 66.4967C47.7649 66.5599 47.8117 66.5915 47.8446 66.5915C47.885 66.5915 47.952 66.5245 48.0456 66.3905C48.1367 66.2515 48.1822 66.1352 48.1822 66.0417C48.1822 65.9608 48.1367 65.8724 48.0456 65.7763C47.952 65.6904 47.8749 65.6474 47.8142 65.6474C47.7965 65.6474 47.751 65.7081 47.6776 65.8294C47.627 65.9153 47.5739 66.0038 47.5183 66.0948C47.4879 66.0291 47.4291 65.9596 47.3419 65.8863C47.2546 65.813 47.1908 65.7763 47.1503 65.7763C47.125 65.7763 47.0586 65.8761 46.9511 66.0758C46.8436 66.2755 46.7899 66.3905 46.7899 66.4209C46.7899 66.4385 46.8487 66.4942 46.9663 66.5877C47.0839 66.6812 47.1516 66.728 47.1693 66.728ZM45.7921 71.6C46.3663 71.5949 46.8582 71.3156 47.2679 70.7621C47.4424 70.5144 47.5853 70.249 47.6966 69.9659C47.8408 69.5968 47.9394 69.1823 47.9925 68.7223C48.0026 68.6818 48.0102 68.6616 48.0153 68.6616C48.1164 68.649 48.2031 68.6256 48.2751 68.5915C48.3472 68.5573 48.4174 68.5137 48.4857 68.4607C48.5464 68.4935 48.6438 68.4645 48.7778 68.3735C48.879 68.3659 48.9801 68.3141 49.0813 68.218C49.0864 68.2054 49.0965 68.1839 49.1117 68.1536C49.1218 68.1333 49.1268 68.1005 49.1268 68.055C49.1268 68.012 49.1218 67.9804 49.1117 67.9602L49.0813 67.8995C49.0585 67.9172 49.0257 67.9299 48.9827 67.9374C48.9371 67.94 48.8979 67.9324 48.8651 67.9147C48.8474 67.8995 48.8221 67.9229 48.7892 67.9848C48.7563 68.0468 48.7184 68.0777 48.6754 68.0777C48.6299 68.0777 48.5932 68.0638 48.5654 68.036C48.5375 68.0082 48.5148 67.9981 48.4971 68.0057C48.4161 68.1118 48.3479 68.1763 48.2922 68.1991C48.2366 68.2218 48.1803 68.2243 48.1234 68.2066C48.0665 68.1889 48.0191 68.1801 47.9811 68.1801C47.8446 68.1826 47.7712 68.2635 47.7611 68.4227L47.7614 68.8417C47.7516 69.3103 47.658 69.685 47.4804 69.9659C47.3438 70.1908 47.1629 70.3791 46.9379 70.5308C46.6344 70.7052 46.3182 70.7924 45.9894 70.7924C45.7416 70.7874 45.5323 70.7216 45.3616 70.5953C45.1908 70.4689 45.0979 70.2818 45.0827 70.0341C45.0878 69.7106 45.2029 69.3264 45.4279 68.8815C45.4431 68.836 45.4444 68.7918 45.4317 68.7488C45.4191 68.7033 45.3799 68.7412 45.3141 68.8626C44.9727 69.4667 44.8033 70.0265 44.8058 70.5422C44.8159 70.8682 44.9082 71.1223 45.0827 71.3043C45.2572 71.4888 45.4937 71.5874 45.7921 71.6ZM44.2557 66.1858C44.2962 66.1858 44.3606 66.11 44.4492 65.9583C44.5377 65.8066 44.5819 65.6904 44.5819 65.6095C44.5744 65.5488 44.5175 65.4648 44.4112 65.3573C44.305 65.2499 44.2241 65.2076 44.1684 65.2303C44.1406 65.2303 44.0793 65.3232 43.9844 65.509C43.8896 65.6948 43.8422 65.8155 43.8422 65.8711C43.8422 65.8989 43.8611 65.9254 43.8991 65.9507C43.9421 65.981 44.0085 66.0259 44.0983 66.0853C44.188 66.1447 44.2405 66.1782 44.2557 66.1858ZM43.9446 69.363C44.0432 69.2619 44.1248 69.1652 44.1893 69.073C44.2538 68.9807 44.3151 68.8581 44.3733 68.7052C44.4315 68.5523 44.4606 68.3937 44.4606 68.2294C44.4606 68.0171 44.4112 67.8477 44.3126 67.7213C44.2165 67.5949 44.0976 67.5318 43.956 67.5318C43.9029 67.5318 43.8485 67.5823 43.7929 67.6834C43.7372 67.7845 43.698 67.8553 43.6753 67.8957C43.6398 67.9716 43.6044 68.0487 43.569 68.127C43.521 68.2357 43.4969 68.3027 43.4969 68.328C43.4969 68.4013 43.521 68.4581 43.569 68.4986C43.6171 68.5415 43.6715 68.563 43.7322 68.563C43.765 68.563 43.8017 68.5605 43.8422 68.5555C43.8776 68.5479 43.9079 68.5365 43.9332 68.5213C43.9636 68.5213 43.9977 68.5491 44.0357 68.6047C44.0711 68.6603 44.0888 68.7033 44.0888 68.7336C44.0888 68.7741 44.0407 68.8284 43.9446 68.8967C43.9143 68.9397 43.894 68.9858 43.8839 69.0351C43.8738 69.0844 43.87 69.1311 43.8725 69.1754C43.8751 69.2196 43.8826 69.2594 43.8953 69.2948C43.9079 69.3302 43.9244 69.3529 43.9446 69.363ZM41.0348 71.5848C41.0626 71.6 41.1044 71.5937 41.16 71.5659C41.2258 71.5355 41.3244 71.4875 41.4559 71.4218C41.547 71.3763 41.6292 71.3321 41.7025 71.2891C42.0212 71.0768 42.3082 70.8076 42.5637 70.4815C42.6876 70.3299 42.8349 70.1491 43.0057 69.9393C43.1764 69.7295 43.3288 69.5981 43.4628 69.545C43.4957 69.5299 43.5804 69.497 43.717 69.4464L43.7916 69.4188C43.8815 69.3857 43.9325 69.3671 43.9446 69.363C43.9724 69.2847 43.9876 69.2051 43.9901 69.1242C43.9927 69.0433 43.9775 68.9624 43.9446 68.8815C43.9168 68.8916 43.8877 68.903 43.8573 68.9156C43.693 68.9814 43.5931 69.0231 43.5576 69.0408C43.4641 69.0837 43.3705 69.1381 43.2769 69.2038C43.1859 69.2771 43.091 69.3694 42.9924 69.4806C42.9241 69.564 42.833 69.6853 42.7192 69.8445C42.5194 70.1352 42.3879 70.3185 42.3247 70.3943C42.2362 70.5055 42.1653 70.5839 42.1122 70.6294C42.0642 70.69 41.982 70.7747 41.8656 70.8834C41.8252 70.9264 41.7013 71.03 41.4939 71.1943L41.1752 71.4218C41.1499 71.442 41.1271 71.4597 41.1069 71.4749C41.0867 71.4926 41.069 71.5065 41.0538 71.5166C41.0285 71.5419 41.0222 71.5646 41.0348 71.5848ZM40.7541 66.7735C40.7768 66.7886 40.8104 66.7779 40.8546 66.7412C40.8989 66.7046 40.9469 66.6686 40.9988 66.6332C41.0506 66.5978 41.1139 66.5687 41.1885 66.546C41.2631 66.5232 41.3491 66.5188 41.4464 66.5327C41.5438 66.5466 41.626 66.5637 41.693 66.5839C41.7601 66.6041 41.8378 66.618 41.9263 66.6256C42.1464 66.6332 42.3297 66.6117 42.4764 66.5611C42.6231 66.5106 42.7888 66.4259 42.9734 66.3071C43.0923 66.2288 43.1953 66.1422 43.2826 66.0474C43.3699 65.9526 43.4362 65.8635 43.4818 65.7801C43.5045 65.7447 43.5165 65.7137 43.5178 65.6872C43.5191 65.6607 43.5121 65.6474 43.4969 65.6474C43.4792 65.6474 43.4571 65.6556 43.4306 65.672C43.404 65.6885 43.3515 65.7232 43.2731 65.7763C43.1947 65.8294 43.1087 65.8761 43.0151 65.9166C42.8558 65.9848 42.6826 66.019 42.4954 66.019C42.3867 66.019 42.2804 66.0101 42.1767 65.9924C41.9643 65.952 41.8366 65.9318 41.7936 65.9318C41.6646 65.9318 41.5116 65.9886 41.3345 66.1024C41.1802 66.2009 41.0424 66.3235 40.921 66.4701C40.8654 66.5333 40.8205 66.5953 40.7863 66.6559C40.7522 66.7166 40.7414 66.7558 40.7541 66.7735ZM41.3383 70.0891C41.3535 70.0979 41.375 70.0897 41.4028 70.0645C41.4256 70.0392 41.4553 69.9987 41.492 69.9431C41.5286 69.8875 41.5786 69.7757 41.6418 69.6076C41.705 69.4395 41.7468 69.2468 41.767 69.0294C41.7797 68.9283 41.7872 68.8044 41.7898 68.6578C41.7923 68.5112 41.7961 68.3469 41.8012 68.1649C41.8012 68.122 41.803 68.0562 41.8068 67.9678C41.8106 67.8793 41.8151 67.7889 41.8201 67.6967C41.8252 67.6044 41.8309 67.521 41.8372 67.4464C41.8435 67.3719 41.8492 67.3245 41.8543 67.3043C41.8568 67.284 41.8492 67.2701 41.8315 67.2626C41.8138 67.255 41.7936 67.2689 41.7708 67.3043C41.743 67.3599 41.712 67.4237 41.6779 67.4957C41.6437 67.5678 41.6115 67.6442 41.5811 67.7251C41.5508 67.806 41.5236 67.8882 41.4996 67.9716C41.4755 68.055 41.4585 68.1359 41.4483 68.2142C41.4306 68.3482 41.4243 68.5422 41.4294 68.7962C41.4344 69.0502 41.4332 69.2468 41.4256 69.3858C41.418 69.5248 41.399 69.6682 41.3687 69.8161C41.3383 69.964 41.3231 70.0404 41.3231 70.0455C41.3181 70.0657 41.3231 70.0803 41.3383 70.0891ZM38.9597 70.2995C38.9925 70.2995 39.0969 70.2711 39.2726 70.2142C39.4484 70.1573 39.5793 70.1131 39.6653 70.0815C39.7513 70.0499 39.8158 70.0202 39.8588 69.9924C39.9018 69.9646 39.9612 69.8926 40.0371 69.7763C40.1129 69.66 40.1951 69.4793 40.2837 69.2341C40.3039 69.1785 40.3222 69.1185 40.3387 69.054C40.3551 68.9896 40.3678 68.9365 40.3766 68.8948C40.3855 68.8531 40.3937 68.8013 40.4013 68.7393C40.4089 68.6774 40.4126 68.6149 40.4126 68.5517C40.4126 68.4278 40.3779 68.3216 40.3083 68.2332C40.2388 68.1447 40.1521 68.1005 40.0485 68.1005C39.9878 68.1005 39.9264 68.1409 39.8645 68.2218C39.8025 68.3027 39.7412 68.4051 39.6805 68.5289C39.6198 68.6528 39.5799 68.7431 39.561 68.8C39.542 68.8569 39.5274 68.9068 39.5173 68.9498C39.5072 69.0205 39.5338 69.085 39.597 69.1431C39.6602 69.2013 39.7386 69.2316 39.8322 69.2341C39.8676 69.2341 39.9037 69.2246 39.9403 69.2057C39.977 69.1867 40.013 69.1798 40.0485 69.1848C40.0156 69.3011 39.9644 69.4054 39.8948 69.4976C39.8253 69.5899 39.757 69.66 39.6899 69.7081C39.6229 69.7561 39.4743 69.8572 39.2442 70.0114C39.014 70.1656 38.9091 70.2566 38.9293 70.2844C38.9293 70.2945 38.9394 70.2995 38.9597 70.2995ZM37.3284 70.2957C37.3536 70.2957 37.415 70.2875 37.5124 70.2711C37.6097 70.2547 37.7387 70.2231 37.8993 70.1763C38.0599 70.1295 38.1763 70.0777 38.2483 70.0209C38.3204 69.964 38.3868 69.8812 38.4475 69.7725C38.5082 69.6638 38.5784 69.5033 38.6581 69.291C38.7377 69.0787 38.8022 68.8828 38.8515 68.7033C38.9009 68.5239 38.9268 68.4 38.9293 68.3318C38.9293 68.2863 38.9154 68.261 38.8876 68.2559C38.8547 68.2534 38.8243 68.2812 38.7965 68.3393C38.7687 68.3975 38.7225 68.5062 38.6581 68.6654C38.5936 68.8246 38.5215 68.9826 38.4418 69.1393C38.3621 69.2961 38.2907 69.4136 38.2275 69.4919C38.1642 69.5703 38.058 69.6619 37.9088 69.7668C37.7596 69.8717 37.6287 69.9589 37.5161 70.0284C37.4036 70.0979 37.3334 70.1542 37.3056 70.1972C37.2854 70.225 37.2778 70.2477 37.2828 70.2654C37.2879 70.2831 37.3031 70.2932 37.3284 70.2957ZM36.0575 70.3071C36.0802 70.3071 36.1106 70.3033 36.1485 70.2957C36.4596 70.2174 36.6973 70.0948 36.8617 69.928C36.9578 69.8319 37.052 69.691 37.1444 69.5052C37.2367 69.3194 37.2892 69.1027 37.3018 68.855C37.3018 68.5239 37.1387 68.2597 36.8124 68.0626C36.7542 68.0272 36.7163 68.036 36.6986 68.0891C36.5823 68.3469 36.4861 68.5491 36.4103 68.6957C36.39 68.7589 36.4065 68.812 36.4596 68.855C36.7479 69.09 36.8921 69.2733 36.8921 69.4047C36.8921 69.4553 36.8149 69.5577 36.6607 69.7118C36.5013 69.8736 36.3306 70.0177 36.1485 70.1441C36.0575 70.2098 36.0119 70.2566 36.0119 70.2844C36.0119 70.2995 36.0271 70.3071 36.0575 70.3071ZM34.999 70.2995C35.1179 70.2995 35.2254 70.254 35.3215 70.163C35.4176 70.072 35.5112 69.9393 35.6022 69.7649C35.6604 69.6562 35.7078 69.5343 35.7445 69.3991C35.7811 69.2638 35.7995 69.1419 35.7995 69.0332C35.7995 68.884 35.7824 68.7741 35.7483 68.7033C35.7141 68.6325 35.6553 68.5592 35.5719 68.4834C35.5365 68.4581 35.4928 68.4297 35.441 68.3981C35.3891 68.3665 35.3506 68.3507 35.3253 68.3507C35.2924 68.3507 35.2633 68.3823 35.238 68.4455L34.9687 69.0559C34.9307 69.1444 34.9143 69.1987 34.9193 69.219C34.9244 69.219 34.9307 69.2202 34.9383 69.2227C34.9459 69.2253 34.9661 69.2316 34.999 69.2417C34.9661 69.2973 34.9257 69.3656 34.8776 69.4464C34.8296 69.5273 34.7891 69.6145 34.7562 69.7081C34.7309 69.7965 34.7183 69.8799 34.7183 69.9583C34.7183 70.1858 34.8119 70.2995 34.999 70.2995ZM35.1318 69.8483C34.9952 69.8483 34.9269 69.7915 34.9269 69.6777C34.9269 69.6171 34.9554 69.5425 35.0123 69.454C35.0692 69.3656 35.109 69.3213 35.1318 69.3213C35.1621 69.3264 35.2007 69.3434 35.2475 69.3725C35.2943 69.4016 35.3303 69.4288 35.3556 69.454C35.4062 69.4995 35.4315 69.5589 35.4315 69.6322C35.4315 69.6878 35.3967 69.7378 35.3272 69.782C35.2576 69.8262 35.1925 69.8483 35.1318 69.8483ZM33.4094 70.2995C33.5713 70.2995 33.7142 70.1984 33.8381 69.9962C33.9469 69.8269 34.0013 69.6562 34.0013 69.4844C34.0013 69.4212 33.9861 69.3618 33.9557 69.3062C33.9077 69.2227 33.8584 69.181 33.8078 69.181C33.8027 69.181 33.7875 69.2126 33.7623 69.2758C33.7142 69.3946 33.6775 69.454 33.6522 69.454C33.6269 69.454 33.5998 69.4269 33.5707 69.3725C33.5416 69.3182 33.527 69.2493 33.527 69.1659C33.527 68.9788 33.6181 68.7564 33.8002 68.4986C33.8154 68.4784 33.828 68.4607 33.8381 68.4455C33.8963 68.357 33.9557 68.261 34.0164 68.1573C34.0999 68.0006 34.153 67.89 34.1758 67.8256C34.1985 67.7611 34.2099 67.7036 34.2099 67.6531C34.2099 67.6202 34.1973 67.6038 34.172 67.6038H34.0885C33.9165 67.5886 33.8065 67.5387 33.7585 67.454C33.7104 67.3694 33.6876 67.2676 33.6902 67.1488C33.6978 67.0123 33.7161 66.8821 33.7452 66.7583C33.7743 66.6344 33.7977 66.5359 33.8154 66.4626C33.8508 66.3387 33.89 66.2123 33.933 66.0834C33.9557 66.0076 33.9532 65.9684 33.9254 65.9659C33.8874 65.9659 33.8116 66.0954 33.6978 66.3545C33.584 66.6136 33.4967 66.8392 33.436 67.0313C33.4208 67.0818 33.3943 67.1804 33.3563 67.327C33.3057 67.5494 33.2805 67.7251 33.2805 67.854C33.2805 68.031 33.3216 68.1668 33.4037 68.2616C33.4859 68.3564 33.5789 68.4253 33.6826 68.4682C33.4904 68.721 33.3424 68.951 33.2387 69.1583C33.1097 69.4161 33.0452 69.6411 33.0452 69.8332C33.0452 69.952 33.08 70.0594 33.1496 70.1554C33.2191 70.2515 33.3057 70.2995 33.4094 70.2995ZM30.3176 71.7251C30.6008 71.7251 30.8512 71.6531 31.0687 71.509C31.1825 71.4357 31.2888 71.3472 31.3874 71.2436C31.486 71.14 31.572 71.0363 31.6454 70.9327C31.7895 70.7103 31.9059 70.448 31.9944 70.146C32.0829 69.8439 32.1272 69.5754 32.1272 69.3403C32.1272 69.1709 32.0854 69.0572 32.002 68.9991C31.9767 68.9788 31.9248 68.9536 31.8464 68.9232C31.768 68.8929 31.7136 68.8664 31.6833 68.8436C31.6479 68.8133 31.6302 68.7703 31.6302 68.7147C31.6302 68.6768 31.665 68.6085 31.7345 68.51C31.8041 68.4114 31.9008 68.3052 32.0247 68.1915C32.1487 68.0777 32.2625 67.9949 32.3662 67.9431C32.4699 67.8913 32.5533 67.8654 32.6166 67.8654C32.6317 67.8654 32.6482 67.8724 32.6659 67.8863C32.6836 67.9002 32.7038 67.9147 32.7266 67.9299C32.7569 67.9299 32.7923 67.8983 32.8328 67.8351C32.8429 67.8199 32.8726 67.7592 32.9219 67.6531C32.9713 67.5469 33.0067 67.4641 33.0282 67.4047C33.0497 67.3453 33.0655 67.284 33.0756 67.2209C33.0807 67.2006 33.0781 67.1791 33.068 67.1564C33.0579 67.1336 33.0389 67.1223 33.0111 67.1223C32.9453 67.1324 32.8556 67.1703 32.7417 67.236C32.6482 67.2891 32.5521 67.3529 32.4534 67.4275C32.3548 67.5021 32.2739 67.5684 32.2106 67.6265C32.0918 67.7403 31.9602 67.8882 31.8161 68.0701C31.639 68.2926 31.5018 68.5188 31.4045 68.7488C31.3071 68.9788 31.2584 69.1684 31.2584 69.3175C31.2584 69.4161 31.2786 69.4938 31.3191 69.5507C31.3596 69.6076 31.419 69.655 31.4974 69.6929C31.5379 69.7131 31.5739 69.727 31.6055 69.7346C31.6371 69.7422 31.689 69.7573 31.7611 69.7801C31.8331 69.8028 31.8692 69.8382 31.8692 69.8863C31.8692 69.9646 31.842 70.0524 31.7876 70.1498C31.7332 70.2471 31.6542 70.3513 31.5505 70.4626C31.4468 70.5738 31.3178 70.6686 31.1636 70.7469C30.9562 70.8506 30.7412 70.9024 30.5186 70.9024C30.2505 70.9024 30.0425 70.8417 29.8946 70.7204C29.7466 70.5991 29.6726 70.4348 29.6726 70.2275C29.6726 70.0303 29.7472 69.7346 29.8965 69.3403C29.9268 69.2695 29.9654 69.1798 30.0122 69.0711C30.059 68.9624 30.1026 68.8613 30.143 68.7678C30.1835 68.6742 30.2139 68.6028 30.2341 68.5536C30.2543 68.5043 30.2784 68.443 30.3062 68.3697C30.3163 68.3494 30.3207 68.3191 30.3195 68.2787C30.3182 68.2382 30.3049 68.218 30.2796 68.218C30.2619 68.218 30.2417 68.2382 30.2189 68.2787C30.1962 68.3191 30.1747 68.3608 30.1544 68.4038L29.9761 68.7829C29.918 68.9068 29.8421 69.0698 29.7485 69.272C29.6549 69.4742 29.5753 69.684 29.5095 69.9014C29.4665 70.0354 29.4349 70.1687 29.4147 70.3014C29.3944 70.4341 29.3843 70.57 29.3843 70.709C29.3843 70.8177 29.3988 70.9327 29.4279 71.054C29.457 71.1754 29.5095 71.2904 29.5854 71.3991C29.7523 71.6114 29.9964 71.7201 30.3176 71.7251ZM29.1225 64.4265C29.163 64.4265 29.2275 64.3507 29.316 64.1991C29.4045 64.0474 29.4488 63.9311 29.4488 63.8502C29.4412 63.7896 29.3843 63.7055 29.2781 63.5981C29.1719 63.4907 29.0909 63.4483 29.0353 63.4711C29.0075 63.4711 28.9461 63.564 28.8513 63.7498C28.7564 63.9355 28.709 64.0562 28.709 64.1118C28.709 64.1397 28.728 64.1662 28.7659 64.1915C28.8089 64.2218 28.8753 64.2667 28.9651 64.3261L29.0145 64.3586C29.0744 64.3978 29.1104 64.4205 29.1225 64.4265ZM28.4207 67.8161C28.5269 67.7276 28.6319 67.5987 28.7356 67.4294C28.8039 67.3182 28.8595 67.1905 28.9025 67.0464C28.948 66.9024 28.9708 66.7735 28.9708 66.6597L28.986 66.3336L28.9935 66.0645C28.9935 66.0114 28.9885 65.9848 28.9784 65.9848C28.9556 66.0076 28.943 66.0278 28.9404 66.0455L28.7849 66.4209C28.747 66.5043 28.7103 66.5965 28.6749 66.6976C28.6546 66.7709 28.6445 66.8379 28.6445 66.8986V67.1488C28.6445 67.212 28.6218 67.2752 28.5762 67.3384C28.5332 67.4016 28.4814 67.4547 28.4207 67.4976C28.3979 67.5482 28.3891 67.6 28.3941 67.6531C28.3992 67.7062 28.4081 67.7605 28.4207 67.8161ZM27.2864 65.5867C27.3268 65.5867 27.3913 65.5109 27.4799 65.3592C27.5684 65.2076 27.6126 65.0913 27.6126 65.0104C27.605 64.9498 27.5481 64.8657 27.4419 64.7583C27.3357 64.6509 27.2548 64.6085 27.1991 64.6313C27.1713 64.6313 27.11 64.7242 27.0151 64.91C26.9203 65.0957 26.8729 65.2164 26.8729 65.272C26.8729 65.2998 26.8918 65.3264 26.9298 65.3517C26.9728 65.382 27.0392 65.4269 27.1289 65.4863C27.2187 65.5457 27.2712 65.5791 27.2864 65.5867ZM27.0132 68.3659C27.036 68.3659 27.0594 68.364 27.0834 68.3602C27.1074 68.3564 27.1359 68.3431 27.1688 68.3204L27.3167 68.2028C27.4305 68.1144 27.4925 68.0651 27.5026 68.055C27.5785 68.0044 27.6569 67.9791 27.7378 67.9791C27.7581 67.9791 27.7859 67.9817 27.8213 67.9867C27.8921 67.9918 27.9364 67.9943 27.9541 67.9943C27.9996 67.9943 28.0451 67.9905 28.0906 67.9829C28.1387 67.9754 28.1893 67.9589 28.2424 67.9336C28.2955 67.9134 28.3549 67.8742 28.4207 67.8161C28.4258 67.7984 28.4359 67.7719 28.451 67.7365C28.4612 67.7137 28.4662 67.6885 28.4662 67.6607C28.4662 67.6278 28.4612 67.5987 28.451 67.5735C28.4333 67.533 28.4232 67.5077 28.4207 67.4976C28.3119 67.5532 28.2285 67.581 28.1703 67.581C28.1653 67.5608 28.1627 67.5482 28.1627 67.5431C28.1678 67.528 28.1773 67.4976 28.1912 67.4521C28.2051 67.4066 28.2247 67.3498 28.25 67.2815C28.255 67.2512 28.2576 67.2196 28.2576 67.1867C28.2576 67.0831 28.231 66.9972 28.1779 66.9289C28.1273 66.8632 28.0628 66.8303 27.9844 66.8303C27.9035 66.8303 27.8162 66.8872 27.7227 67.0009C27.6822 67.0414 27.624 67.121 27.5481 67.2398C27.4773 67.3586 27.428 67.4521 27.4002 67.5204C27.3622 67.6063 27.337 67.6708 27.3243 67.7137C27.3193 67.7365 27.3193 67.763 27.3243 67.7934C27.3243 67.8009 27.337 67.8186 27.3622 67.8464C27.3622 67.8692 27.3458 67.8856 27.3129 67.8957C27.2801 67.9058 27.2453 67.9058 27.2086 67.8957C27.1719 67.8856 27.1372 67.878 27.1043 67.873C27.0714 67.8679 27.041 67.8667 27.0132 67.8692V68.3659ZM27.8137 67.6114C27.7505 67.6114 27.6936 67.5949 27.643 67.5621C27.5924 67.5318 27.5671 67.5027 27.5671 67.4749C27.5873 67.4167 27.6101 67.3725 27.6354 67.3422C27.6961 67.2588 27.7732 67.2171 27.8668 67.2171C27.9326 67.2171 27.9844 67.2411 28.0224 67.2891C28.0603 67.3422 28.0793 67.3927 28.0793 67.4408C28.0793 67.4711 28.0502 67.5065 27.992 67.5469C27.9364 67.5899 27.8769 67.6114 27.8137 67.6114ZM25.6968 66.5687C25.7777 66.5687 25.8865 66.431 26.0231 66.1555C26.0787 66.1959 26.1432 66.2528 26.2165 66.3261C26.2899 66.3994 26.3405 66.436 26.3683 66.436C26.4113 66.436 26.4783 66.3716 26.5694 66.2427C26.6629 66.1112 26.7097 65.9975 26.7097 65.9014C26.7047 65.8205 26.6585 65.734 26.5713 65.6417C26.484 65.5494 26.4088 65.5033 26.3455 65.5033C26.3253 65.5033 26.2842 65.5551 26.2222 65.6588C26.1603 65.7624 26.104 65.8559 26.0534 65.9393C26.0104 65.8787 25.9478 65.8085 25.8656 65.7289C25.7834 65.6493 25.7208 65.6183 25.6778 65.636C25.6551 65.636 25.5918 65.7333 25.4882 65.928C25.3845 66.1226 25.3326 66.2363 25.3326 66.2692C25.3326 66.2844 25.3699 66.3223 25.4445 66.3829C25.5191 66.4436 25.5741 66.4891 25.6096 66.5194C25.6475 66.5523 25.6766 66.5687 25.6968 66.5687ZM26.0221 68.7318L26.0572 68.728C26.08 68.7242 26.0964 68.716 26.1065 68.7033C26.2001 68.5517 26.307 68.436 26.4271 68.3564C26.5472 68.2768 26.6693 68.2496 26.7932 68.2749C26.821 68.2825 26.8564 68.3002 26.8994 68.328C26.9196 68.3406 26.9386 68.3507 26.9563 68.3583C26.974 68.3659 26.993 68.3684 27.0132 68.3659C27.0158 68.3558 27.0297 68.3115 27.055 68.2332C27.0676 68.1826 27.0739 68.1346 27.0739 68.0891C27.0739 68.0487 27.0676 68.0095 27.055 67.9716L27.0132 67.8692C26.8286 67.8894 26.6781 67.9292 26.5618 67.9886C26.4454 68.048 26.3259 68.146 26.2033 68.2825C26.0806 68.419 25.9737 68.5592 25.8827 68.7033C25.8852 68.7084 25.8966 68.7141 25.9168 68.7204C25.9371 68.7267 25.9598 68.7305 25.9851 68.7318C26.0104 68.733 26.0344 68.7318 26.0572 68.728L26.0221 68.7318ZM24.7408 71.5659C24.8799 71.5659 25.0101 71.5457 25.1315 71.5052C25.2428 71.4673 25.3566 71.4117 25.473 71.3384C25.7891 71.1084 26.0395 70.8 26.2241 70.4133C26.3405 70.163 26.4201 69.9532 26.4631 69.7839C26.5061 69.6095 26.5276 69.4389 26.5276 69.272C26.5276 69.1583 26.515 69.0724 26.4897 69.0142C26.4644 68.9611 26.4227 68.9137 26.3645 68.872C26.3063 68.8303 26.2488 68.7918 26.1919 68.7564C26.135 68.721 26.1065 68.6856 26.1065 68.6502C26.104 68.6325 26.0939 68.6199 26.0762 68.6123C26.0585 68.6047 26.0389 68.6009 26.0174 68.6009C25.9959 68.6009 25.9744 68.6047 25.9529 68.6123C25.9314 68.6199 25.9156 68.6325 25.9055 68.6502C25.8498 68.7513 25.8024 68.8581 25.7632 68.9706C25.724 69.0831 25.7044 69.1836 25.7044 69.272C25.7044 69.3959 25.7967 69.5008 25.9813 69.5867C26.1634 69.6701 26.2545 69.7333 26.2545 69.7763C26.2545 69.9912 26.1381 70.1959 25.9055 70.3905C25.6323 70.618 25.2934 70.7318 24.8887 70.7318C24.6636 70.7318 24.4803 70.685 24.3387 70.5915C24.1464 70.4575 24.0503 70.2351 24.0503 69.9242C24.0503 69.7599 24.1098 69.5273 24.2286 69.2265C24.2969 69.0622 24.4209 68.7728 24.6004 68.3583C24.6207 68.3128 24.6371 68.2585 24.6497 68.1953C24.6624 68.1422 24.6548 68.1131 24.627 68.1081C24.6067 68.1055 24.5777 68.1384 24.5397 68.2066C24.5245 68.242 24.5049 68.2825 24.4809 68.328C24.4569 68.3735 24.4297 68.424 24.3994 68.4796C24.3564 68.5706 24.3209 68.6445 24.2931 68.7014C24.2653 68.7583 24.2438 68.8006 24.2286 68.8284C24.1781 68.9447 24.1174 69.0875 24.0465 69.2569C23.9808 69.4212 23.9176 69.6158 23.8569 69.8408C23.7962 70.0733 23.7658 70.2616 23.7658 70.4057C23.7658 70.7292 23.8404 70.9946 23.9896 71.2019C24.1641 71.4445 24.4145 71.5659 24.7408 71.5659ZM22.7415 70.0891C22.7567 70.0979 22.7782 70.0897 22.806 70.0645C22.8288 70.0392 22.8585 69.9987 22.8951 69.9431C22.9318 69.8875 22.9818 69.7757 23.045 69.6076C23.1082 69.4395 23.15 69.2468 23.1702 69.0294C23.1828 68.9283 23.1904 68.8044 23.1929 68.6578C23.1955 68.5112 23.1993 68.3469 23.2043 68.1649C23.2043 68.122 23.2062 68.0562 23.21 67.9678C23.2138 67.8793 23.2182 67.7889 23.2233 67.6967C23.2284 67.6044 23.234 67.521 23.2404 67.4464C23.2467 67.3719 23.2524 67.3245 23.2574 67.3043C23.26 67.284 23.2524 67.2701 23.2347 67.2626C23.217 67.255 23.1967 67.2689 23.174 67.3043C23.1462 67.3599 23.1152 67.4237 23.081 67.4957C23.0469 67.5678 23.0146 67.6442 22.9843 67.7251C22.9539 67.806 22.9268 67.8882 22.9027 67.9716C22.8787 68.055 22.8616 68.1359 22.8515 68.2142C22.8338 68.3482 22.8275 68.5422 22.8325 68.7962C22.8376 69.0502 22.8363 69.2468 22.8288 69.3858C22.8212 69.5248 22.8022 69.6682 22.7718 69.8161C22.7415 69.964 22.7263 70.0404 22.7263 70.0455C22.7213 70.0657 22.7263 70.0803 22.7415 70.0891ZM20.208 70.2972L20.2528 70.2957C20.3287 70.2957 20.4337 70.2818 20.5677 70.254C20.6967 70.2313 20.8004 70.2047 20.8788 70.1744C21.0432 70.1011 21.1671 69.9773 21.2506 69.8028C21.3011 69.6891 21.3682 69.5261 21.4516 69.3137C21.4997 69.2025 21.549 69.1115 21.5996 69.0408C21.6148 69.0205 21.6464 68.9915 21.6944 68.9536C21.7425 68.9182 21.8765 68.8474 22.0966 68.7412C22.2534 68.6629 22.395 68.3987 22.5215 67.9488C22.5392 67.8629 22.5366 67.8161 22.5139 67.8085C22.4911 67.806 22.4519 67.854 22.3963 67.9526C22.3406 68.0537 22.2951 68.1194 22.2597 68.1498C22.2218 68.1826 22.156 68.2218 22.0624 68.2673C21.9562 68.3229 21.8816 68.3621 21.8386 68.3848C21.7248 68.4581 21.6413 68.5302 21.5882 68.6009C21.5351 68.6692 21.4567 68.8183 21.353 69.0483C21.2518 69.2784 21.1924 69.4047 21.1747 69.4275C21.119 69.5033 21.0179 69.5943 20.8712 69.7005C20.8788 69.6954 20.8168 69.7371 20.6853 69.8256C20.5158 69.9318 20.3982 70.0095 20.3325 70.0588C20.2667 70.1081 20.2237 70.1403 20.2035 70.1554C20.1479 70.1959 20.1226 70.2275 20.1276 70.2502C20.1453 70.2882 20.1871 70.3033 20.2528 70.2957L20.208 70.2972ZM21.573 73.1545C21.654 73.1545 21.7627 73.0167 21.8993 72.7412C21.9549 72.7817 22.0194 72.8385 22.0928 72.9118C22.1661 72.9852 22.2167 73.0218 22.2445 73.0218C22.2875 73.0218 22.3545 72.9573 22.4456 72.8284C22.5392 72.697 22.586 72.5833 22.586 72.4872C22.5809 72.4063 22.5347 72.3197 22.4475 72.2275C22.3602 72.1352 22.285 72.0891 22.2218 72.0891C22.2015 72.0891 22.1604 72.1409 22.0985 72.2445L21.9821 72.4383C21.964 72.4684 21.9465 72.4973 21.9296 72.5251C21.8866 72.4645 21.824 72.3943 21.7419 72.3147C21.6597 72.2351 21.5971 72.2041 21.5541 72.2218C21.5313 72.2218 21.4681 72.3191 21.3644 72.5137C21.2607 72.7084 21.2088 72.8221 21.2088 72.855C21.2088 72.8701 21.2461 72.9081 21.3207 72.9687C21.3954 73.0294 21.4504 73.0749 21.4858 73.1052C21.5237 73.1381 21.5528 73.1545 21.573 73.1545ZM19.6193 70.0891C19.6344 70.0979 19.6559 70.0897 19.6838 70.0645C19.7065 70.0392 19.7362 69.9987 19.7729 69.9431C19.8096 69.8875 19.8595 69.7757 19.9228 69.6076C19.986 69.4395 20.0277 69.2468 20.048 69.0294C20.0606 68.9283 20.0682 68.8044 20.0707 68.6578C20.0732 68.5112 20.077 68.3469 20.0821 68.1649C20.0821 68.122 20.084 68.0562 20.0878 67.9678C20.0916 67.8793 20.096 67.7889 20.1011 67.6967C20.1061 67.6044 20.1118 67.521 20.1181 67.4464C20.1245 67.3719 20.1302 67.3245 20.1352 67.3043C20.1377 67.284 20.1302 67.2701 20.1124 67.2626C20.0947 67.255 20.0745 67.2689 20.0517 67.3043C20.0239 67.3599 19.9929 67.4237 19.9588 67.4957C19.9247 67.5678 19.8924 67.6442 19.8621 67.7251C19.8317 67.806 19.8045 67.8882 19.7805 67.9716C19.7565 68.055 19.7394 68.1359 19.7293 68.2142C19.7116 68.3482 19.7053 68.5422 19.7103 68.7962C19.7154 69.0502 19.7141 69.2468 19.7065 69.3858C19.6989 69.5248 19.68 69.6682 19.6496 69.8161C19.6193 69.964 19.6041 70.0404 19.6041 70.0455C19.599 70.0657 19.6041 70.0803 19.6193 70.0891ZM16.9864 71.6227C17.5605 71.6177 18.0525 71.3384 18.4622 70.7848C18.877 70.2136 19.1071 69.5311 19.1526 68.7374C19.1577 68.4341 19.1628 68.2269 19.1678 68.1156C19.1729 68.0044 19.1767 67.9292 19.1792 67.89C19.1817 67.8509 19.1741 67.8313 19.1564 67.8313C19.1311 67.8313 19.1002 67.8692 19.0635 67.945C19.0268 68.0209 18.9807 68.1428 18.925 68.3109C18.8694 68.479 18.8365 68.6325 18.8264 68.7716C18.8264 68.8196 18.827 68.8998 18.8283 69.0123C18.8295 69.1248 18.8302 69.2177 18.8302 69.291C18.8302 69.4831 18.8074 69.6373 18.7619 69.7536C18.643 70.0872 18.4331 70.3539 18.1321 70.5536C17.8286 70.728 17.5125 70.8152 17.1837 70.8152C16.9156 70.8051 16.7 70.7368 16.5369 70.6104C16.3737 70.484 16.2871 70.2995 16.277 70.0569C16.2821 69.7333 16.3971 69.3491 16.6222 68.9043C16.6374 68.8588 16.6387 68.8139 16.626 68.7697C16.6134 68.7254 16.5742 68.764 16.5084 68.8853C16.167 69.4894 15.9975 70.0493 16 70.5649C16.0102 70.891 16.1025 71.1457 16.277 71.3289C16.4515 71.5122 16.688 71.6101 16.9864 71.6227ZM17.6503 69.746C17.6756 69.746 17.7098 69.7258 17.7528 69.6853C17.8185 69.6221 17.871 69.5532 17.9102 69.4787C17.9494 69.4041 17.9778 69.3365 17.9956 69.2758C18.0133 69.2152 18.0171 69.1596 18.0069 69.109C17.9968 69.0458 17.9734 68.9915 17.9367 68.946C17.9001 68.9005 17.8482 68.8518 17.7812 68.8C17.7142 68.7482 17.6579 68.7033 17.6124 68.6654C17.534 68.7943 17.4764 68.8916 17.4398 68.9573C17.4031 69.0231 17.3595 69.1128 17.3089 69.2265C17.2937 69.2619 17.2697 69.3137 17.2368 69.382C17.2368 69.4022 17.2526 69.4275 17.2842 69.4578C17.3158 69.4882 17.3538 69.5216 17.398 69.5583C17.4423 69.5949 17.4916 69.6354 17.546 69.6796C17.6004 69.7239 17.6351 69.746 17.6503 69.746Z" fill="#4B57CC"/>
<path fill-rule="evenodd" clip-rule="evenodd" d="M36.9857 43.501C34.7747 43.5032 32.764 44.4415 31.5617 45.6182C31.3817 45.7945 31.2415 45.8777 31.0855 46.0712C30.9422 46.2482 30.8177 46.4095 30.6707 46.5865C30.361 46.9525 30.1892 47.3012 29.9275 47.7242C29.7865 47.95 28.8535 50.323 29.1175 50.599C29.1242 50.6035 29.7107 50.776 29.785 50.797C29.8577 50.821 30.3107 51.0422 30.367 51.0805C30.739 51.331 31.0315 51.5102 31.3142 51.859C31.8887 52.57 32.1745 53.314 32.107 54.5042C32.0095 56.2315 30.046 57.8972 28.1072 57.1532L28.174 56.6695C28.201 56.6425 28.3397 56.6515 28.5452 56.6597C29.1692 56.686 30.4142 56.7115 31.06 55.7215C31.3405 55.2887 31.5445 54.9317 31.549 54.2785C31.5535 53.6807 31.3997 53.1377 31.1657 52.7252C30.6745 51.8552 30.034 51.3377 28.882 51.1015C28.297 50.98 27.613 51.0632 27.1127 51.2102C25.591 51.3212 24.3325 53.5165 24.28 54.0422C24.2282 54.568 24.2522 55.4867 24.28 55.8362C24.3265 56.4017 24.523 56.959 24.7555 57.385C25.216 58.2317 25.9757 58.8955 26.887 59.2937C27.823 59.7047 29.1242 60.004 30.2815 59.6185C31.0375 59.368 31.672 59.0552 32.2262 58.5152C32.3305 58.4155 32.6747 58.0615 32.7482 58.0105C32.8855 58.0022 34.0405 58.5677 34.2625 58.6652C35.6912 59.2937 37.186 58.8317 38.092 59.1805C38.767 59.4407 38.5622 60.0932 38.4835 60.7495C39.6632 60.6827 40.8025 58.4635 39.5485 57.181C39.3212 56.9492 39.5252 56.7565 39.5927 56.4677C39.6467 56.2352 39.7202 55.9397 39.724 55.6532C39.7352 54.3167 39.4127 53.6507 38.6875 52.8947C38.356 52.5505 37.975 52.3652 37.5242 52.1447C37.3232 52.0457 36.1375 51.7412 35.875 51.9145C35.9035 51.961 36.6407 52.1672 36.9617 52.882C37.2242 53.4655 37.0937 54.0527 36.793 54.4975C36.577 54.8185 36.0047 55.1755 35.4242 55.1807C34.6517 55.1867 34.3352 55.0127 33.8327 54.6902C33.157 54.2612 32.497 52.9847 32.446 51.9805C32.3627 50.3777 32.404 49.8235 33.1757 48.712C33.7015 47.953 34.6037 47.269 35.5607 46.9817C36.6377 46.6585 38.1325 46.6712 39.0272 47.1992C40.2415 47.9162 40.4237 48.0182 41.155 49.1837C41.368 49.5197 41.6207 50.272 41.665 50.719C41.6927 51.0055 41.7767 51.2672 41.878 51.5117C41.9867 51.7757 42.277 52.027 42.3077 52.1162C42.286 52.1785 42.0107 52.4252 41.9215 52.5842C41.8435 52.729 41.6515 52.9465 41.5562 53.1017C41.407 53.347 41.0905 54.0227 41.047 54.325C40.8917 55.393 40.8917 56.4865 41.3567 57.3152C42.2095 58.8317 43.4095 59.995 45.709 59.995C47.722 59.995 49.3487 58.6652 49.942 57.1937C50.359 56.155 50.461 55.498 50.1842 54.2672C49.8745 52.8932 48.976 52.255 48.904 52.0457C49.4545 51.5117 49.3652 51.259 49.5542 50.4647C49.7222 49.759 49.8205 49.4035 50.203 48.8732C50.803 48.0482 51.6647 47.227 52.7732 46.9457C54.142 46.5992 55.45 46.6967 56.4797 47.335C56.9605 47.6335 57.3827 47.9417 57.7202 48.3422C57.883 48.5357 58.0472 48.7607 58.1905 48.982C58.258 49.087 58.5842 49.714 58.5887 49.7185L58.7942 50.134L58.7995 50.1467C58.6105 49.933 58.7147 50.242 58.7732 50.4737C58.8377 50.7317 58.8137 51.061 58.81 51.3565C58.801 51.9992 58.6517 52.3937 58.5197 52.9315C58.2992 53.8292 57.6317 54.6782 56.8135 55C55.8025 55.3952 54.553 55.1102 54.2237 54.1997C54.0662 53.7632 53.9747 53.083 54.3107 52.7162C54.46 52.555 54.5575 52.372 54.7547 52.2317C54.8155 52.189 55.3652 51.925 55.3697 51.8972C55.0592 51.7247 53.9342 52.0337 53.7235 52.1207C53.2645 52.3142 52.8797 52.5227 52.537 52.867C51.8335 53.578 51.4547 54.2867 51.4615 55.6105C51.4637 56.0672 51.8335 56.983 51.691 57.1442C51.3572 57.5207 51.1082 57.8125 51.1037 58.4912C51.1022 59.1212 51.247 59.5832 51.5327 59.9702C51.7247 60.2297 52.282 60.751 52.6997 60.751C52.5917 60.07 52.4162 59.5165 53.092 59.2C53.893 58.8257 55.5595 59.3065 56.896 58.6832C57.0955 58.5895 58.3075 58.0247 58.4207 58.0277C58.5385 58.0915 58.9615 58.5377 59.128 58.6727C59.4205 58.9037 59.6042 59.0365 59.929 59.2127C60.4922 59.5187 61.2107 59.7722 62.0597 59.7805C63.5312 59.7977 65.1347 59.0657 65.8615 58.198C66.6092 57.3085 67.3315 55.6997 66.838 54.1247C66.5485 53.1977 66.0002 52.2715 65.2142 51.7442C64.9952 51.598 64.5415 51.4142 64.363 51.3085L65.4242 52.0015L64.318 51.2807C64.0907 51.1037 63.2395 51.0572 62.8367 51.0587C61.9667 51.0647 60.9812 51.4615 60.4682 52.0892C60.3385 52.2482 59.7992 52.912 59.8637 53.1715C59.6642 53.2825 59.596 54.3632 59.68 54.6587C59.8232 55.168 59.89 55.5235 60.241 55.885C60.8687 56.536 62.1572 56.632 62.7332 56.6425C62.7392 56.6425 62.746 56.6432 62.7527 56.6432L62.776 56.6402L62.7527 56.6432C62.8352 56.6455 62.92 56.6492 63.004 56.6597L63.0295 57.151C62.083 57.415 61.0967 57.3212 60.298 56.7107C59.728 56.2757 59.1107 55.4207 59.0912 54.487C59.068 53.359 59.275 52.4845 59.881 51.8485C60.6332 51.061 60.934 50.959 62.0762 50.6057L62.1265 50.5975L61.8715 49.2992C61.2925 47.2232 60.25 46.0667 58.7402 44.9162C57.985 44.3395 57.1532 44.0732 56.1662 43.7372C55.1807 43.4035 53.806 43.4845 52.732 43.6307C52.1065 43.7155 50.3245 44.3372 49.993 44.6477C49.732 44.8922 49.1515 45.1517 48.898 45.4367C48.6182 45.7502 48.2635 46.024 47.965 46.3885C46.414 48.271 46.4732 49.7267 46.204 50.242C45.9595 50.7077 45.442 50.9395 45.1007 50.4227C44.9207 50.1505 44.7775 49.3765 44.6567 49.0142C44.308 47.965 44.0042 47.4227 43.3487 46.5632C43.0172 46.129 42.7772 45.961 42.433 45.5942C41.341 44.4317 39.136 43.501 36.9925 43.501C36.9902 43.501 36.988 43.501 36.9857 43.501ZM45.667 57.2657C44.7017 57.2417 43.7965 56.4527 43.7845 55.4762C43.7552 52.9847 47.4752 53.0147 47.4797 55.408L47.4782 55.4057C47.4752 55.9765 47.2397 56.3717 46.9345 56.7002C46.7417 56.9102 46.0525 57.2657 45.6805 57.2657C45.676 57.2657 45.6715 57.2657 45.667 57.2657Z" fill="#4B57CC"/>
<path fill-rule="evenodd" clip-rule="evenodd" d="M41.7776 40.5C40.4613 40.5 40.5356 41.964 41.2946 42.267C41.7731 42.4568 42.0266 42.4155 42.4406 42.7657C43.1298 43.3492 43.5101 43.752 43.9916 44.538C44.0516 44.6363 44.2908 44.9798 44.3178 45.0428C44.4086 45.2603 44.4873 45.429 44.6043 45.5933C44.7783 45.84 45.0236 46.4175 45.1526 46.7108C45.2996 47.0445 45.4488 47.6955 45.5921 47.9565C45.7001 48.1553 45.8021 47.6107 45.8471 47.4855C46.0556 46.932 46.3421 46.251 46.6001 45.7298C46.9833 44.9475 47.4161 44.3745 47.8998 43.698C48.3213 43.107 49.0893 42.5017 49.8123 42.3075C50.8526 42.0262 50.6508 40.5023 49.6233 40.5023L49.6211 40.5H41.7776Z" fill="#4B57CC"/>
<path fill-rule="evenodd" clip-rule="evenodd" d="M50.7468 37.5167H40.2603C40.1575 37.5175 40.0593 37.516 39.9648 37.5137C39.2695 37.5032 38.7963 37.4912 38.5638 38.2277C38.3028 39.0572 38.884 39.7532 39.511 39.751V39.748H51.6153C52.3585 39.748 52.9968 39.0602 52.6555 38.1677C52.4328 37.5872 52.015 37.501 51.4758 37.501C51.2515 37.501 51.007 37.516 50.7468 37.5167Z" fill="#4B57CC"/>
<path fill-rule="evenodd" clip-rule="evenodd" d="M44.7258 23.8725C44.4753 24.6885 44.2068 25.5105 44.209 26.5057L44.2113 26.5027C44.2113 27.2497 44.287 28.1025 44.5285 28.7602C44.6028 28.9597 45.1848 30.3075 45.1848 30.309C44.7123 30.2242 43.7785 28.899 43.5438 28.4055C43.0825 27.4237 43.2708 26.442 43.2138 25.2307C43.0653 25.2667 42.4398 26.436 42.3303 26.6857C42.0483 27.321 41.956 27.7522 41.7708 28.455C41.5458 29.3107 41.6785 30.6577 41.9763 31.5322C42.031 31.692 42.2883 32.316 42.2958 32.4052C41.9193 32.2657 41.2413 31.2952 41.0943 30.8835C40.966 30.5227 40.8783 30.2812 40.7508 29.8702C40.6863 29.6565 40.5985 28.8247 40.5243 28.7385C40.3645 28.7662 39.5283 30.444 39.4203 30.675C39.1398 31.2555 38.8728 32.409 38.875 33.204C38.8773 34.3267 39.3363 35.5012 40.0413 36.2632C40.5048 36.7635 40.24 36.7485 41.2413 36.7507H50.125C50.7153 36.7507 51.4758 35.8545 51.7885 35.4367C52.2348 34.8427 52.4583 33.9975 52.3465 33.084C52.1583 31.5585 51.0505 30.135 50.1768 29.2605L48.7315 27.7305C48.3618 27.2587 47.671 26.5147 47.4258 26.04C47.0913 25.389 46.6735 24.8775 46.3803 24.0855C46.2408 23.709 46.1485 23.3497 46.0105 22.95C45.9108 22.656 45.8238 21.9532 45.7293 21.75C45.5013 21.81 44.8368 23.5132 44.7258 23.8725Z" fill="#E21E25"/>
</svg>
