<svg width="41" height="15" viewBox="0 0 41 15" fill="none" xmlns="http://www.w3.org/2000/svg">
<path d="M30.787 14.3843C30.2139 14.3807 29.643 14.3142 29.0841 14.1861L28.3842 14.0258L28.6993 12.6088L29.3991 12.7691C30.4021 12.9984 31.7406 13.0449 32.4915 12.4864C32.8747 12.202 33.0841 11.771 33.1335 11.1659C32.3879 11.4131 31.6052 11.5263 30.821 11.5004C29.7857 11.4521 29.2033 11.0763 28.9479 10.8557C28.3689 10.354 28.0488 9.4766 28.0709 8.42334C28.1475 4.84296 30.4549 4.84296 31.2008 4.84296C33.205 4.84296 34.3102 5.87725 34.4873 7.89757C34.6082 9.30766 34.6337 10.5454 34.5554 11.2918C34.4447 12.3554 34.0446 13.1294 33.3328 13.6569C32.6942 14.1395 31.8325 14.3843 30.787 14.3843ZM31.2076 6.29442C29.8249 6.29442 29.5694 6.98395 29.4945 8.60779C29.4724 9.07322 29.5728 9.42661 29.7925 9.66105C30.1212 10.0058 30.6695 10.0575 31.1088 10.0592C31.8163 10.0549 32.514 9.89245 33.1523 9.58347C33.1523 9.18355 33.1199 8.39059 33.0654 8.01652C32.8968 6.87535 32.5631 6.29442 31.2076 6.29442Z" fill="white"/>
<path d="M4.80645 14.305C3.22108 14.305 1.93712 13.7982 1.0959 12.8398C0.227442 11.8469 -0.143783 10.3954 0.0503437 8.75261C0.154219 7.87346 0.268311 7.02016 0.339831 6.45992L0.375591 6.24961L1.79238 6.46509L1.76343 6.67712C1.6868 7.23047 1.57441 8.06997 1.47394 8.93016C1.3292 10.1558 1.57611 11.2039 2.16871 11.8796C2.76131 12.5554 3.62466 12.8588 4.80645 12.8588C7.21601 12.8588 8.59874 11.6331 8.59874 9.49558C8.59874 8.73709 8.59874 7.95448 8.3961 5.25669L8.38077 5.04294L9.81458 4.91193L9.8265 5.13602C9.86056 5.79625 9.98828 7.47698 10.0445 7.95448C10.1926 9.19735 10.4293 9.53522 11.9364 9.7145C13.721 9.92653 22.0889 9.91791 26.6151 9.70071L26.8279 9.68864L26.8926 11.1401H26.6798C22.1502 11.3418 14.93 11.3987 11.8189 11.1591C11.0083 11.097 10.397 10.935 9.91676 10.654C9.44506 12.9467 7.54807 14.305 4.80645 14.305Z" fill="white"/>
<path d="M36.4083 14.3154C36.1272 14.3153 35.8465 14.2934 35.5687 14.2499L34.8586 14.143L35.0783 12.7071L35.7867 12.814C36.2976 12.8933 37.258 12.945 37.8966 12.4244C38.3087 12.0882 38.5436 11.5332 38.5913 10.7747C38.6775 9.52194 38.6667 8.26431 38.559 7.01329L38.5011 6.15137L39.9315 6.05139L39.9894 6.9133C40.1 8.22931 40.1091 9.55204 40.0166 10.8695C39.94 12.0486 39.5279 12.9536 38.7889 13.5552C38.1792 14.0534 37.3567 14.3154 36.4083 14.3154Z" fill="white"/>
<path d="M5.12847 8.93534C4.97044 8.93568 4.81587 8.88855 4.68431 8.79992C4.55275 8.71129 4.45012 8.58515 4.38941 8.43745C4.3287 8.28975 4.31264 8.12714 4.34326 7.9702C4.37389 7.81325 4.44982 7.66904 4.56144 7.5558C4.67307 7.44256 4.81537 7.36539 4.97033 7.33405C5.1253 7.30272 5.28597 7.31863 5.432 7.37977C5.57804 7.44091 5.70287 7.54453 5.7907 7.67752C5.87853 7.81051 5.92541 7.96689 5.92541 8.12686C5.92542 8.34098 5.84151 8.54636 5.6921 8.69793C5.54269 8.8495 5.33999 8.93488 5.12847 8.93534Z" fill="white"/>
<path d="M18.5367 2.84678C18.2148 2.84633 17.9062 2.71669 17.6786 2.48629C17.451 2.25589 17.323 1.94353 17.3225 1.6177C17.3223 1.45729 17.3536 1.29845 17.4147 1.15046C17.4758 1.00247 17.5655 0.868293 17.6784 0.755783C17.8478 0.584416 18.0635 0.467584 18.2983 0.419984C18.5331 0.372383 18.7766 0.396141 18.9981 0.488268C19.2196 0.580394 19.4092 0.736776 19.5432 0.93774C19.6771 1.1387 19.7493 1.37528 19.7508 1.6177C19.7503 1.94353 19.6223 2.25589 19.3947 2.48629C19.1671 2.71669 18.8585 2.84633 18.5367 2.84678Z" fill="#F8BC45"/>
<path d="M15.1206 4.11552C14.8805 4.11552 14.6458 4.04344 14.4461 3.90838C14.2464 3.77333 14.0908 3.58137 13.9989 3.35679C13.907 3.1322 13.883 2.88507 13.9298 2.64665C13.9767 2.40823 14.0923 2.18923 14.2621 2.01734C14.4319 1.84545 14.6483 1.72839 14.8838 1.68097C15.1193 1.63354 15.3634 1.65788 15.5853 1.75091C15.8071 1.84393 15.9968 2.00147 16.1302 2.20359C16.2636 2.40571 16.3348 2.64335 16.3348 2.88644C16.3343 3.21227 16.2063 3.52463 15.9787 3.75503C15.7511 3.98543 15.4425 4.11507 15.1206 4.11552Z" fill="#F8BC45"/>
<path d="M13.452 7.18047C13.1703 7.18237 12.8968 7.08523 12.678 6.90563C12.4593 6.72604 12.3089 6.47514 12.2526 6.19578C12.1963 5.91641 12.2375 5.62593 12.3693 5.37393C12.501 5.12193 12.7151 4.92405 12.975 4.81409C13.2348 4.70413 13.5243 4.68891 13.7941 4.77103C14.0638 4.85315 14.297 5.02751 14.4538 5.26434C14.6106 5.50117 14.6814 5.78577 14.6539 6.06954C14.6265 6.3533 14.5026 6.61862 14.3034 6.82019C14.1918 6.9339 14.0592 7.02424 13.9131 7.08606C13.767 7.14787 13.6103 7.17996 13.452 7.18047Z" fill="#F8BC45"/>
<path d="M23.6214 7.18047C23.4214 7.1817 23.2242 7.1329 23.0473 7.0384C22.8705 6.9439 22.7194 6.80664 22.6075 6.63881C22.4957 6.47098 22.4265 6.27778 22.4062 6.07637C22.3859 5.87496 22.415 5.67159 22.491 5.48433C22.567 5.29706 22.6875 5.1317 22.8419 5.00294C22.9962 4.87417 23.1795 4.786 23.3757 4.74625C23.5718 4.70649 23.7745 4.7164 23.9659 4.77507C24.1573 4.83374 24.3315 4.93938 24.4728 5.08258C24.6421 5.25405 24.7575 5.47237 24.8046 5.71007C24.8516 5.94778 24.8281 6.19425 24.7371 6.41849C24.6461 6.64273 24.4916 6.83471 24.2931 6.97029C24.0946 7.10588 23.8609 7.179 23.6214 7.18047Z" fill="#F8BC45"/>
<path d="M21.9527 4.11552C21.7125 4.11552 21.4778 4.04344 21.2781 3.90838C21.0785 3.77333 20.9228 3.58137 20.8309 3.35679C20.7391 3.1322 20.715 2.88507 20.7619 2.64665C20.8087 2.40823 20.9243 2.18923 21.0941 2.01734C21.2639 1.84545 21.4803 1.72839 21.7158 1.68097C21.9513 1.63354 22.1954 1.65788 22.4173 1.75091C22.6392 1.84393 22.8288 2.00147 22.9622 2.20359C23.0956 2.40571 23.1668 2.64335 23.1668 2.88644C23.1664 3.21227 23.0383 3.52463 22.8107 3.75503C22.5831 3.98543 22.2745 4.11507 21.9527 4.11552Z" fill="#F8BC45"/>
</svg>
