<svg width="204" height="236" viewBox="0 0 204 236" fill="none" xmlns="http://www.w3.org/2000/svg">
<path d="M113.194 182.485C112.498 182.607 112.157 183.135 111.484 183.465C108.224 185.074 104.728 185.452 101.172 185.494C99.7105 185.51 98.1591 185.33 96.839 185.903C92.9419 187.598 88.8825 187.695 84.6471 186.431C83.0451 185.955 81.8942 186.366 80.765 187.95C78.6519 190.909 75.5828 190.827 72.6682 190.879C68.2815 190.961 63.8648 190.777 59.4606 190.706C59.3678 190.703 59.259 190.652 59.1873 190.703C56.8742 192.447 54.2227 192.878 51.6355 193.618C49.4708 194.238 47.5056 195.885 45.3064 196.191C38.6713 197.114 31.9618 197.596 24.8393 198.295C23.8293 193.52 22.8552 189.272 22.0398 184.998C18.515 166.386 5.84877 96.4562 2.36906 77.829C2.11886 76.4441 1.95127 75.0463 1.86789 73.647C1.70443 71.0566 2.60795 69.4564 4.10871 69.0034C9.22646 67.4428 14.337 65.8955 19.6182 64.986C22.974 64.4098 26.4442 65.9087 29.7152 64.8978C34.1643 63.5097 38.8356 63.4403 43.5755 63.9739C49.5691 63.1056 55.4626 61.1422 61.5471 61.3176C68.369 61.5126 74.2715 57.6062 80.9812 57.4509C84.295 57.3744 87.4186 55.9761 90.4847 54.4052L113.194 182.485Z" fill="#FF6200"/>
<path d="M159.42 43.0382L180.431 39.3476L184.146 60.3312M199.228 145.538L202.942 166.521L181.931 170.212" stroke="#FF6200"/>
<path d="M81.6394 1L123.008 234.983" stroke="#FF6200" stroke-width="2"/>
<path d="M167.711 83.3184L168.44 82.2779L167.385 81.5397L166.678 82.5869L167.711 83.3184ZM165.527 83.7067L166.251 82.6671L165.196 81.9289L164.494 82.9752L165.527 83.7067ZM167.239 90.2672C167.614 90.2013 167.966 90.103 168.294 89.9721C168.622 89.8412 168.902 89.6613 169.136 89.4325C169.37 89.2036 169.542 88.9175 169.653 88.5741C169.764 88.2308 169.791 87.8137 169.732 87.3229L169.685 86.9339C169.639 86.6951 169.58 86.4593 169.509 86.2267C169.437 85.9942 169.349 85.7742 169.246 85.5668C169.143 85.3594 169.022 85.1704 168.882 84.9999C168.743 84.8293 168.581 84.6867 168.398 84.5721C168.215 84.4576 168.008 84.3756 167.779 84.3264C167.55 84.2771 167.296 84.2716 167.016 84.3099L166.911 84.3282C166.637 84.3764 166.393 84.4674 166.18 84.6014C165.936 84.7588 165.734 84.9507 165.575 85.1772C165.417 85.4036 165.306 85.6556 165.244 85.9331C165.182 86.2106 165.177 86.4951 165.229 86.7866C165.294 87.1545 165.419 87.4584 165.603 87.6981C165.787 87.9378 166.022 88.114 166.307 88.2269C166.592 88.3397 166.872 88.3909 167.146 88.3804C167.42 88.3699 167.651 88.3482 167.839 88.3153C168.061 88.2762 168.296 88.2171 168.544 88.1379C168.528 88.2088 168.494 88.2818 168.443 88.3569C168.392 88.4321 168.309 88.5066 168.195 88.5803C168.081 88.654 167.927 88.7247 167.735 88.7924C167.543 88.8601 167.301 88.9196 167.009 88.9708L164.881 89.3438L165.111 90.6402L167.239 90.2672ZM167.715 87.1344C167.437 87.1832 167.199 87.1838 167.001 87.1363C166.657 87.0604 166.459 86.8716 166.406 86.5696C166.382 86.4342 166.387 86.3106 166.423 86.1988C166.459 86.0869 166.515 85.9885 166.591 85.9036C166.668 85.8186 166.755 85.7541 166.853 85.7101C166.951 85.6661 167.045 85.6362 167.135 85.6203C167.166 85.6148 167.2 85.6108 167.235 85.6082C167.437 85.5942 167.604 85.6284 167.737 85.7107C167.87 85.793 167.979 85.9018 168.064 86.0372C168.149 86.1726 168.215 86.3221 168.262 86.4857C168.308 86.6492 168.349 86.805 168.382 86.9531C168.139 87.0386 167.917 87.099 167.715 87.1344ZM165.32 90.6036L165.09 89.3072L163.964 89.5047C163.99 89.3678 164.002 89.2224 164.002 89.0686C164.002 88.9148 163.986 88.7493 163.954 88.5723C163.877 88.135 163.748 87.7782 163.568 87.5019C163.389 87.2257 163.178 87.0139 162.937 86.8665C162.696 86.7191 162.436 86.6287 162.158 86.5952C161.879 86.5617 161.603 86.569 161.328 86.6171C161.134 86.6513 160.95 86.7093 160.779 86.7914C160.607 86.8734 160.445 86.9733 160.294 87.0911C160.143 87.2088 160.002 87.341 159.87 87.4876C159.738 87.6341 159.615 87.7907 159.502 87.9574L158.801 84.0058L157.508 84.2326L158.49 89.7721L158.171 90.5205L157.134 90.7025L157.363 91.9989L165.32 90.6036ZM161.904 89.8659L159.496 90.2883C159.61 90.0034 159.743 89.7259 159.896 89.4557C160.049 89.1856 160.215 88.9417 160.396 88.724C160.576 88.5063 160.764 88.3248 160.96 88.1794C161.157 88.034 161.356 87.9437 161.557 87.9083C161.703 87.8827 161.849 87.8759 161.994 87.888C162.14 87.9001 162.274 87.9383 162.397 88.0027C162.519 88.0671 162.625 88.1603 162.715 88.2824C162.805 88.4044 162.867 88.5626 162.901 88.757C162.925 88.8924 162.923 89.0126 162.895 89.1177C162.867 89.2228 162.824 89.3155 162.764 89.3957C162.705 89.4758 162.635 89.5436 162.553 89.5991C162.472 89.6546 162.39 89.701 162.309 89.7385C162.228 89.776 162.151 89.8048 162.077 89.8249C162.004 89.8449 161.946 89.8586 161.904 89.8659ZM157.572 91.9623L157.342 90.6659C157.05 90.7171 156.819 90.7424 156.649 90.7419C156.478 90.7413 156.344 90.7022 156.246 90.6246C156.148 90.5469 156.075 90.4265 156.026 90.2632C155.978 90.1 155.929 89.8795 155.879 89.6018L155.005 84.6714L153.707 84.8991L154.581 89.8295C154.633 90.1211 154.69 90.3858 154.752 90.6237C154.813 90.8615 154.891 91.0707 154.984 91.2513C155.077 91.4318 155.192 91.5833 155.33 91.7058C155.469 91.8283 155.64 91.9191 155.844 91.9782C156.048 92.0372 156.291 92.0661 156.574 92.0648C156.857 92.0635 157.19 92.0293 157.572 91.9623ZM150.987 95.9997C151.477 95.9138 151.904 95.7638 152.268 95.5498C152.631 95.3357 152.926 95.0701 153.153 94.753C153.38 94.4358 153.538 94.0718 153.626 93.6608C153.715 93.2498 153.727 92.803 153.663 92.3204L153.081 89.0404L151.783 89.2681L152.345 92.4387C152.407 92.7893 152.422 93.0936 152.389 93.3517C152.356 93.6098 152.274 93.829 152.145 94.0091C152.016 94.1893 151.836 94.3354 151.605 94.4475C151.374 94.5596 151.091 94.6449 150.757 94.7034L150.111 94.8167L150.341 96.1131L150.987 95.9997ZM137.963 95.401C138.21 95.3578 138.442 95.2758 138.661 95.1551C138.88 95.0344 139.069 94.8688 139.229 94.6583C139.659 94.9228 140.192 94.9993 140.829 94.8878C141.072 94.8451 141.302 94.7644 141.519 94.6458C141.737 94.5272 141.925 94.3626 142.085 94.1521C142.521 94.4264 143.062 94.5068 143.708 94.3935C143.948 94.3479 144.178 94.2611 144.399 94.1328C144.62 94.0046 144.808 93.8364 144.965 93.6282C145.122 93.42 145.235 93.1729 145.304 92.887C145.373 92.6011 145.377 92.2811 145.314 91.927C145.294 91.8125 145.261 91.6813 145.217 91.5333C145.173 91.3854 145.124 91.2347 145.07 91.0814C145.016 90.928 144.959 90.776 144.9 90.6253C144.841 90.4746 144.786 90.3376 144.733 90.2144C144.681 90.0911 144.637 89.988 144.601 89.9048C144.564 89.8217 144.541 89.7686 144.529 89.7456L143.375 90.3613C143.398 90.4109 143.429 90.4789 143.468 90.5652C143.506 90.6515 143.548 90.748 143.592 90.8548C143.636 90.9616 143.681 91.0745 143.727 91.1934C143.773 91.3124 143.816 91.43 143.857 91.5464C143.897 91.6628 143.933 91.7738 143.964 91.8792C143.995 91.9847 144.018 92.0756 144.031 92.152C144.064 92.3359 144.062 92.4866 144.025 92.6039C143.989 92.7213 143.938 92.8153 143.871 92.886C143.805 92.9567 143.734 93.0084 143.66 93.0412C143.585 93.074 143.525 93.0944 143.479 93.1023C143.17 93.1565 142.935 93.1289 142.774 93.0193C142.613 92.9098 142.507 92.7127 142.457 92.4281L142.195 90.9495L140.902 91.1762L141.164 92.6548C141.196 92.8388 141.193 92.9906 141.153 93.1103C141.113 93.23 141.059 93.3245 140.991 93.3937C140.923 93.463 140.851 93.5123 140.775 93.5416C140.7 93.5709 140.641 93.5893 140.6 93.5966C140.294 93.6502 140.062 93.6237 139.905 93.517C139.749 93.4103 139.645 93.2147 139.594 92.93L139.332 91.4514L138.034 91.6791L138.3 93.1785C138.333 93.366 138.33 93.5178 138.289 93.634C138.249 93.7502 138.194 93.8421 138.126 93.9096C138.057 93.9771 137.985 94.0247 137.909 94.0523C137.833 94.0799 137.775 94.0973 137.733 94.1047L136.56 94.3104L136.79 95.6068L137.963 95.401ZM132.807 99.188C133.168 99.1246 133.49 99.053 133.771 98.9732C134.053 98.8934 134.304 98.8019 134.526 98.6985C134.748 98.5952 134.945 98.4811 135.116 98.3562C135.287 98.2313 135.442 98.0924 135.58 97.9394C135.842 97.6428 136.022 97.3178 136.119 96.9644C136.216 96.611 136.229 96.1953 136.159 95.7174L137.05 95.561L136.82 94.2647L135.934 94.4201L135.809 93.712C135.743 93.3441 135.643 93.0101 135.507 92.71C135.372 92.4099 135.197 92.1604 134.985 91.9615C134.772 91.7626 134.52 91.6217 134.227 91.5388C133.935 91.4559 133.599 91.4476 133.22 91.5141C132.914 91.5677 132.639 91.6741 132.395 91.8332C132.151 91.9923 131.943 92.1943 131.771 92.4391C131.713 92.5318 131.653 92.638 131.591 92.7579C131.53 92.8778 131.48 93.0145 131.441 93.1681C131.402 93.3217 131.378 93.495 131.369 93.688C131.36 93.881 131.377 94.0973 131.42 94.3367C131.469 94.6144 131.545 94.8552 131.647 95.0591C131.75 95.2631 131.87 95.4344 132.007 95.5731C132.145 95.7118 132.297 95.822 132.464 95.9037C132.63 95.9854 132.803 96.0455 132.982 96.0839C133.161 96.1223 133.343 96.1396 133.529 96.1356C133.714 96.1317 133.894 96.1145 134.068 96.084L134.871 95.9432C134.904 96.2095 134.897 96.4272 134.85 96.5965C134.803 96.7658 134.717 96.9223 134.592 97.0659C134.512 97.1622 134.414 97.2501 134.297 97.3296C134.18 97.4091 134.041 97.4819 133.879 97.5479C133.717 97.6139 133.529 97.6755 133.315 97.7327C133.101 97.7898 132.855 97.8428 132.577 97.8916L132.807 99.188ZM134.641 94.6469L133.838 94.7877C133.72 94.8084 133.599 94.8135 133.475 94.803C133.352 94.7925 133.236 94.7617 133.128 94.7108C133.021 94.6599 132.927 94.586 132.847 94.489C132.767 94.3921 132.714 94.2673 132.687 94.1146C132.618 93.7258 132.654 93.4242 132.795 93.2098C132.936 92.9954 133.155 92.8622 133.45 92.8104C133.485 92.8043 133.531 92.8008 133.588 92.7997C133.645 92.7986 133.706 92.8066 133.772 92.8237C133.838 92.8408 133.908 92.8715 133.982 92.9158C134.056 92.96 134.127 93.0246 134.194 93.1095C134.261 93.1943 134.322 93.3043 134.379 93.4394C134.435 93.5745 134.48 93.7409 134.516 93.9388L134.641 94.6469ZM126.1 93.3209L126.83 92.2804L125.774 91.5422L125.067 92.5895L126.1 93.3209ZM123.916 93.7092L124.641 92.6696L123.585 91.9314L122.884 92.9778L123.916 93.7092ZM128.797 97.0084C129.037 96.9663 129.268 96.8828 129.492 96.7577C129.715 96.6327 129.907 96.4684 130.068 96.2648C130.229 96.0612 130.345 95.818 130.417 95.5352C130.489 95.2524 130.493 94.9323 130.43 94.5748C130.409 94.4602 130.378 94.328 130.335 94.178C130.292 94.028 130.244 93.8746 130.189 93.7178C130.134 93.561 130.078 93.4053 130.02 93.2508C129.962 93.0964 129.908 92.9556 129.857 92.8286C129.851 92.8153 129.844 92.8003 129.838 92.7836L128.665 93.3221C128.679 93.3626 128.695 93.4044 128.714 93.4477C128.759 93.5615 128.806 93.6811 128.855 93.8067C128.905 93.9323 128.951 94.0557 128.994 94.177C129.037 94.2983 129.074 94.4126 129.106 94.5198C129.137 94.627 129.16 94.7188 129.173 94.7951C129.206 94.9791 129.202 95.1292 129.162 95.2454C129.121 95.3616 129.067 95.4526 128.998 95.5184C128.929 95.5842 128.856 95.63 128.78 95.6559C128.704 95.6817 128.645 95.6983 128.603 95.7056L122.389 96.7955C122.298 96.8113 122.219 96.8181 122.15 96.8158C122.082 96.8135 122.009 96.7914 121.931 96.7495C121.854 96.7076 121.783 96.6395 121.718 96.5454C121.653 96.4512 121.606 96.3208 121.576 96.1542C121.559 96.0605 121.55 95.9476 121.548 95.8155C121.546 95.6835 121.549 95.5461 121.556 95.4035C121.563 95.2609 121.572 95.1215 121.584 94.9853C121.595 94.849 121.609 94.7313 121.623 94.6321L120.974 94.5473L120.318 94.4583C120.313 94.4914 120.304 94.5772 120.289 94.7158C120.274 94.8544 120.261 95.0178 120.249 95.2059C120.238 95.394 120.233 95.5926 120.234 95.8017C120.235 96.0109 120.251 96.2022 120.282 96.3758C120.318 96.5771 120.369 96.7551 120.436 96.9098C120.503 97.0645 120.577 97.2008 120.659 97.3189C120.741 97.437 120.827 97.5363 120.919 97.6169C121.01 97.6975 121.096 97.7647 121.178 97.8185C121.384 97.954 121.61 98.045 121.855 98.0915C122.1 98.1381 122.351 98.1388 122.608 98.0937L128.797 97.0084ZM113.437 99.702C113.77 99.6435 114.048 99.5589 114.271 99.4484C114.493 99.3378 114.673 99.2186 114.81 99.0909C114.946 98.9631 115.048 98.8326 115.114 98.6993C115.18 98.5661 115.225 98.4489 115.25 98.3479C115.269 98.2695 115.282 98.176 115.289 98.0673C115.297 97.9586 115.288 97.8348 115.264 97.696C115.244 97.5849 115.21 97.4638 115.162 97.3327C115.113 97.2016 115.047 97.0684 114.962 96.933C114.866 96.7779 114.743 96.6171 114.591 96.4504C114.44 96.2837 114.271 96.1155 114.085 95.9459C113.899 95.7763 113.703 95.6086 113.496 95.4426C113.289 95.2767 113.083 95.1179 112.877 94.9661C112.671 94.8144 112.471 94.6714 112.277 94.5372C112.082 94.4031 111.908 94.2833 111.753 94.1781L115.272 91.8272L114.596 90.7754L110.427 93.643L110.532 94.8379C110.661 94.9011 110.836 94.9992 111.057 95.1323C111.278 95.2653 111.516 95.4213 111.771 95.6001C112.027 95.779 112.287 95.9714 112.551 96.1774C112.815 96.3834 113.057 96.5906 113.277 96.799C113.497 97.0074 113.682 97.2075 113.832 97.3995C113.983 97.5914 114.071 97.762 114.098 97.9112C114.111 97.9876 114.088 98.0534 114.028 98.1086C113.968 98.1639 113.893 98.2111 113.803 98.2501C113.713 98.2891 113.62 98.3197 113.524 98.342C113.427 98.3643 113.351 98.3803 113.296 98.3901L110.245 98.9249L110.475 100.221L113.437 99.702ZM104.662 94.6324L105.349 93.6531L104.379 92.975L103.693 93.9543L104.662 94.6324ZM106.042 95.9579L106.761 94.9193L105.713 94.1905L104.975 95.2433L106.042 95.9579ZM103.801 96.3833L104.528 95.3323L103.485 94.6027L102.757 95.6536L103.801 96.3833ZM101.262 101.837C101.947 101.717 102.464 101.46 102.814 101.066C103.022 101.187 103.255 101.268 103.513 101.311C103.771 101.353 104.057 101.347 104.37 101.292L104.406 101.286C104.635 101.242 104.854 101.157 105.063 101.031C105.272 100.905 105.452 100.746 105.605 100.555C105.827 100.698 106.068 100.788 106.327 100.825C106.587 100.862 106.88 100.852 107.206 100.795C107.453 100.751 107.688 100.666 107.911 100.539C108.134 100.413 108.32 100.252 108.468 100.058C108.691 100.201 108.941 100.289 109.219 100.321C109.497 100.353 109.815 100.337 110.173 100.274L110.684 100.185L110.454 98.8884L109.943 98.978C109.62 99.0347 109.369 99.0168 109.192 98.9245C109.014 98.8322 108.898 98.653 108.844 98.387L108.571 96.8459L107.272 97.0736L107.545 98.6094C107.563 98.753 107.56 98.877 107.535 98.9815C107.511 99.086 107.471 99.1744 107.416 99.2467C107.36 99.319 107.294 99.3754 107.217 99.4157C107.14 99.4561 107.06 99.4836 106.976 99.4982C106.671 99.5519 106.438 99.5263 106.28 99.4217C106.122 99.317 106.017 99.1224 105.967 98.8378L105.703 97.3488L104.41 97.5755L104.678 99.0906C104.709 99.2641 104.709 99.4065 104.676 99.5177C104.644 99.629 104.597 99.7177 104.535 99.784C104.474 99.8503 104.407 99.8987 104.335 99.9292C104.264 99.9596 104.202 99.9812 104.15 99.9938C103.858 100.042 103.632 100.013 103.474 99.9084C103.316 99.8037 103.212 99.6108 103.162 99.3297L102.898 97.8407L101.6 98.0683L101.868 99.5834C101.89 99.7083 101.898 99.8216 101.891 99.923C101.884 100.024 101.851 100.115 101.791 100.195C101.732 100.276 101.642 100.344 101.521 100.401C101.401 100.458 101.238 100.505 101.033 100.541L100.36 100.658L100.59 101.955L101.262 101.837ZM100.705 101.935C100.774 101.923 100.824 101.898 100.855 101.86C100.886 101.822 100.895 101.765 100.881 101.689L100.724 100.799C100.713 100.74 100.686 100.695 100.643 100.665C100.6 100.635 100.544 100.626 100.475 100.638L98.2953 101.021C98.2189 101.034 98.1682 101.062 98.1434 101.104C98.1186 101.145 98.1114 101.196 98.1219 101.255L98.2797 102.145C98.2932 102.222 98.3184 102.273 98.3553 102.298C98.3921 102.324 98.4487 102.33 98.5252 102.317L100.705 101.935ZM171.466 110.171C171.762 110.12 172.027 110.037 172.261 109.925C172.496 109.812 172.697 109.676 172.866 109.518C173.036 109.359 173.172 109.182 173.275 108.985C173.378 108.788 173.445 108.579 173.478 108.358C173.512 108.127 173.51 107.902 173.471 107.683C173.45 107.562 173.418 107.442 173.375 107.324C173.249 106.996 173.053 106.706 172.786 106.456C172.662 106.342 172.533 106.221 172.399 106.094C172.266 105.967 172.129 105.84 171.99 105.712C171.851 105.585 171.714 105.459 171.579 105.336C171.445 105.213 171.317 105.094 171.196 104.979C170.909 104.715 170.626 104.453 170.347 104.194L169.497 105.1L170.159 105.677C170.477 105.954 170.769 106.209 171.037 106.443C171.304 106.677 171.531 106.894 171.719 107.094C171.907 107.294 172.041 107.462 172.123 107.598C172.204 107.734 172.253 107.848 172.27 107.942C172.279 107.994 172.281 108.046 172.276 108.097C172.258 108.239 172.216 108.36 172.149 108.457C172.082 108.555 172 108.636 171.902 108.702C171.804 108.767 171.698 108.818 171.582 108.855C171.467 108.891 171.355 108.919 171.248 108.937C171.14 108.956 171.026 108.961 170.906 108.952C170.786 108.942 170.669 108.93 170.555 108.914C170.644 108.787 170.722 108.661 170.789 108.535C170.856 108.408 170.909 108.278 170.946 108.145C170.983 108.011 171.006 107.872 171.014 107.728C171.023 107.583 171.012 107.427 170.983 107.261C170.946 107.056 170.861 106.844 170.727 106.624C170.593 106.404 170.419 106.208 170.204 106.036C169.989 105.865 169.738 105.735 169.452 105.648C169.166 105.56 168.854 105.546 168.517 105.605C168.218 105.657 167.948 105.754 167.706 105.895C167.464 106.036 167.261 106.208 167.098 106.412C166.936 106.616 166.821 106.847 166.754 107.106C166.687 107.364 166.678 107.636 166.729 107.921C166.755 108.07 166.793 108.204 166.84 108.323C166.888 108.441 166.947 108.551 167.017 108.651C167.087 108.752 167.166 108.845 167.255 108.932C167.344 109.018 167.443 109.105 167.551 109.194C167.47 109.219 167.395 109.239 167.328 109.254C167.261 109.27 167.194 109.283 167.128 109.295C167.059 109.307 166.987 109.319 166.912 109.33C166.837 109.341 166.75 109.356 166.653 109.373L166.064 109.476L166.294 110.772L166.883 110.669C167.373 110.583 167.816 110.481 168.213 110.363C168.61 110.246 168.966 110.107 169.282 109.948C169.324 109.962 169.375 109.977 169.435 109.993C169.495 110.01 169.554 110.025 169.61 110.041C169.674 110.058 169.74 110.075 169.807 110.092C170.11 110.182 170.4 110.229 170.676 110.232C170.953 110.235 171.216 110.215 171.466 110.171ZM169.12 108.64C168.944 108.581 168.79 108.523 168.656 108.466C168.522 108.409 168.407 108.346 168.311 108.277C168.214 108.208 168.137 108.127 168.08 108.035C168.022 107.944 167.982 107.833 167.959 107.705C167.941 107.601 167.948 107.498 167.98 107.395C168.012 107.293 168.063 107.199 168.134 107.113C168.205 107.028 168.291 106.954 168.393 106.893C168.496 106.833 168.606 106.792 168.724 106.771C168.804 106.757 168.898 106.758 169.007 106.775C169.116 106.792 169.221 106.829 169.325 106.886C169.428 106.943 169.521 107.021 169.603 107.121C169.685 107.222 169.739 107.344 169.765 107.49C169.787 107.612 169.784 107.727 169.757 107.835C169.729 107.944 169.685 108.046 169.625 108.14C169.565 108.235 169.49 108.324 169.401 108.408C169.312 108.491 169.218 108.569 169.12 108.64ZM163.778 111.471C163.861 111.457 163.96 111.434 164.072 111.404C164.185 111.373 164.301 111.326 164.418 111.262C164.536 111.199 164.65 111.113 164.76 111.006C164.87 110.899 164.964 110.764 165.043 110.6C165.233 110.681 165.438 110.739 165.657 110.774C165.876 110.809 166.109 110.805 166.356 110.761L166.502 110.736L166.272 109.439L166.126 109.465C166.092 109.471 166.026 109.476 165.93 109.481C165.834 109.485 165.733 109.47 165.626 109.435C165.52 109.4 165.419 109.334 165.323 109.238C165.227 109.142 165.162 108.997 165.127 108.803C165.064 108.488 164.961 108.195 164.818 107.923C164.675 107.651 164.494 107.422 164.274 107.235C164.055 107.048 163.8 106.913 163.512 106.831C163.223 106.75 162.9 106.74 162.542 106.803C162.177 106.867 161.883 106.991 161.662 107.175C161.44 107.359 161.267 107.574 161.144 107.821C161.022 108.068 160.935 108.333 160.885 108.615C160.835 108.898 160.797 109.17 160.772 109.432C160.755 109.582 160.737 109.719 160.718 109.842C160.698 109.965 160.673 110.072 160.64 110.161C160.608 110.251 160.567 110.324 160.517 110.379C160.468 110.434 160.405 110.468 160.329 110.482L159.677 110.596L159.917 111.891L160.558 111.778C160.798 111.736 161.001 111.664 161.168 111.561C161.334 111.459 161.481 111.31 161.608 111.116C161.833 111.192 162.04 111.258 162.229 111.316C162.419 111.374 162.6 111.419 162.772 111.452C162.944 111.484 163.112 111.503 163.274 111.509C163.436 111.514 163.604 111.502 163.778 111.471ZM163.611 110.228C163.518 110.245 163.406 110.245 163.275 110.228C163.145 110.212 163.005 110.186 162.856 110.151C162.706 110.117 162.553 110.075 162.395 110.025C162.238 109.976 162.088 109.926 161.947 109.876C161.982 109.712 162.011 109.533 162.032 109.338C162.053 109.143 162.088 108.958 162.138 108.785C162.188 108.612 162.261 108.461 162.356 108.333C162.452 108.206 162.59 108.126 162.771 108.094C162.979 108.058 163.161 108.075 163.315 108.146C163.469 108.218 163.599 108.313 163.704 108.432C163.81 108.552 163.891 108.679 163.949 108.813C164.007 108.948 164.044 109.061 164.06 109.151C164.102 109.387 164.108 109.575 164.077 109.714C164.046 109.854 164.001 109.961 163.943 110.036C163.884 110.111 163.822 110.16 163.757 110.184C163.691 110.208 163.643 110.223 163.611 110.228ZM160.115 111.856L159.885 110.56L159.739 110.585C159.625 110.605 159.488 110.616 159.328 110.617C159.169 110.618 159.009 110.594 158.848 110.545C158.687 110.497 158.532 110.415 158.383 110.3C158.233 110.185 158.111 110.019 158.015 109.803L156.412 106.283L155.193 106.803L155.407 107.281C155.096 107.45 154.8 107.637 154.52 107.842C154.239 108.047 153.999 108.277 153.801 108.532C153.602 108.787 153.457 109.069 153.365 109.379C153.273 109.688 153.26 110.03 153.326 110.405C153.384 110.728 153.49 111.008 153.645 111.246C153.8 111.484 153.987 111.675 154.206 111.821C154.426 111.967 154.668 112.067 154.934 112.12C155.2 112.174 155.472 112.176 155.75 112.128C155.899 112.101 156.053 112.057 156.21 111.996C156.368 111.934 156.517 111.857 156.658 111.764C156.8 111.671 156.927 111.564 157.04 111.442C157.152 111.321 157.239 111.188 157.3 111.045C157.443 111.246 157.611 111.411 157.804 111.542C157.998 111.672 158.21 111.77 158.44 111.836C158.67 111.901 158.915 111.937 159.174 111.943C159.433 111.95 159.698 111.929 159.969 111.881L160.115 111.856ZM155.481 110.822C155.408 110.835 155.333 110.837 155.256 110.829C155.137 110.821 155.025 110.793 154.921 110.743C154.817 110.693 154.728 110.623 154.653 110.532C154.577 110.442 154.528 110.332 154.506 110.204C154.447 109.874 154.541 109.572 154.788 109.298C155.036 109.024 155.421 108.749 155.946 108.475C156.02 108.627 156.088 108.763 156.151 108.885C156.213 109.006 156.267 109.12 156.311 109.227C156.355 109.334 156.385 109.417 156.401 109.477C156.417 109.537 156.427 109.579 156.431 109.603C156.445 109.679 156.449 109.756 156.445 109.832C156.441 110.093 156.363 110.298 156.209 110.445C156.056 110.591 155.853 110.707 155.599 110.791C155.558 110.805 155.519 110.815 155.481 110.822ZM143.542 107.343L147.521 104.708L147.146 104.172L143.479 106.592L143.542 107.343ZM146.69 114.21C147.023 114.152 147.301 114.067 147.524 113.957C147.746 113.846 147.926 113.727 148.062 113.599C148.199 113.471 148.301 113.341 148.367 113.208C148.433 113.074 148.478 112.957 148.503 112.856C148.522 112.778 148.535 112.684 148.542 112.576C148.55 112.467 148.541 112.343 148.517 112.204C148.497 112.093 148.463 111.972 148.415 111.841C148.366 111.71 148.3 111.577 148.215 111.441C148.119 111.286 147.996 111.125 147.844 110.959C147.693 110.792 147.524 110.624 147.338 110.454C147.152 110.285 146.956 110.117 146.749 109.951C146.542 109.785 146.336 109.626 146.13 109.474C145.923 109.323 145.723 109.18 145.529 109.046C145.335 108.911 145.161 108.792 145.006 108.686L148.524 106.335L147.849 105.284L143.68 108.151L143.784 109.346C143.914 109.409 144.089 109.507 144.31 109.641C144.53 109.774 144.769 109.93 145.024 110.108C145.28 110.287 145.54 110.48 145.804 110.686C146.068 110.892 146.31 111.099 146.53 111.307C146.749 111.516 146.935 111.716 147.085 111.908C147.236 112.1 147.324 112.27 147.351 112.419C147.364 112.496 147.341 112.562 147.281 112.617C147.221 112.672 147.146 112.719 147.056 112.758C146.966 112.797 146.873 112.828 146.776 112.85C146.68 112.873 146.604 112.889 146.548 112.898L143.498 113.433L143.728 114.73L146.69 114.21ZM139.745 118.311C140.107 118.247 140.428 118.176 140.71 118.096C140.991 118.016 141.243 117.925 141.465 117.821C141.687 117.718 141.883 117.604 142.055 117.479C142.226 117.354 142.38 117.215 142.518 117.062C142.781 116.766 142.961 116.441 143.058 116.087C143.154 115.734 143.168 115.318 143.097 114.84L143.989 114.684L143.759 113.387L142.873 113.543L142.747 112.835C142.682 112.467 142.581 112.133 142.446 111.833C142.31 111.533 142.136 111.283 141.923 111.084C141.711 110.885 141.458 110.745 141.166 110.662C140.873 110.579 140.538 110.57 140.159 110.637C139.853 110.691 139.578 110.797 139.334 110.956C139.089 111.115 138.882 111.317 138.71 111.562C138.651 111.655 138.591 111.761 138.53 111.881C138.469 112.001 138.419 112.137 138.379 112.291C138.34 112.445 138.316 112.618 138.308 112.811C138.299 113.004 138.316 113.22 138.358 113.46C138.407 113.737 138.483 113.978 138.586 114.182C138.688 114.386 138.808 114.557 138.946 114.696C139.083 114.835 139.235 114.945 139.402 115.027C139.569 115.108 139.742 115.168 139.921 115.207C140.099 115.245 140.282 115.262 140.467 115.258C140.653 115.255 140.833 115.237 141.007 115.207L141.809 115.066C141.842 115.332 141.835 115.55 141.788 115.719C141.741 115.889 141.655 116.045 141.53 116.189C141.45 116.285 141.352 116.373 141.235 116.452C141.119 116.532 140.979 116.605 140.817 116.671C140.655 116.737 140.467 116.798 140.253 116.855C140.039 116.913 139.793 116.966 139.515 117.014L139.745 118.311ZM141.58 113.77L140.777 113.91C140.659 113.931 140.538 113.936 140.414 113.926C140.29 113.915 140.174 113.885 140.067 113.834C139.959 113.783 139.866 113.709 139.786 113.612C139.706 113.515 139.652 113.39 139.625 113.237C139.556 112.849 139.592 112.547 139.734 112.333C139.875 112.118 140.093 111.985 140.389 111.933C140.423 111.927 140.469 111.924 140.526 111.922C140.584 111.921 140.645 111.929 140.711 111.947C140.776 111.964 140.846 111.994 140.921 112.039C140.995 112.083 141.065 112.147 141.132 112.232C141.199 112.317 141.261 112.427 141.317 112.562C141.373 112.697 141.419 112.864 141.454 113.062L141.58 113.77ZM132.983 109.855L133.67 108.876L132.7 108.198L132.013 109.177L132.983 109.855ZM134.363 111.181L135.082 110.142L134.034 109.413L133.296 110.466L134.363 111.181ZM132.121 111.606L132.849 110.555L131.806 109.826L131.078 110.876L132.121 111.606ZM129.849 117.163C130.096 117.12 130.328 117.038 130.547 116.918C130.766 116.797 130.955 116.631 131.115 116.421C131.545 116.685 132.079 116.762 132.715 116.65C132.958 116.608 133.188 116.527 133.406 116.408C133.623 116.29 133.811 116.125 133.971 115.914C134.407 116.189 134.948 116.269 135.595 116.156C135.834 116.11 136.064 116.024 136.285 115.895C136.506 115.767 136.695 115.599 136.851 115.391C137.008 115.182 137.121 114.935 137.19 114.649C137.26 114.364 137.263 114.044 137.2 113.689C137.18 113.575 137.148 113.444 137.103 113.296C137.059 113.148 137.01 112.997 136.956 112.844C136.902 112.69 136.846 112.538 136.787 112.388C136.728 112.237 136.672 112.1 136.62 111.977C136.567 111.854 136.523 111.75 136.487 111.667C136.451 111.584 136.427 111.531 136.416 111.508L135.261 112.124C135.285 112.173 135.315 112.241 135.354 112.328C135.393 112.414 135.434 112.51 135.478 112.617C135.522 112.724 135.567 112.837 135.613 112.956C135.659 113.075 135.703 113.192 135.743 113.309C135.783 113.425 135.819 113.536 135.85 113.642C135.882 113.747 135.904 113.838 135.918 113.914C135.95 114.098 135.948 114.249 135.912 114.366C135.875 114.484 135.824 114.578 135.757 114.648C135.691 114.719 135.62 114.771 135.546 114.804C135.471 114.836 135.411 114.857 135.366 114.865C135.056 114.919 134.821 114.891 134.66 114.782C134.499 114.672 134.393 114.475 134.343 114.191L134.081 112.712L132.788 112.939L133.05 114.417C133.083 114.601 133.079 114.753 133.039 114.873C133 114.992 132.946 115.087 132.877 115.156C132.809 115.225 132.737 115.275 132.661 115.304C132.586 115.333 132.527 115.352 132.486 115.359C132.18 115.413 131.948 115.386 131.792 115.279C131.635 115.173 131.531 114.977 131.481 114.692L131.218 113.214L129.92 113.442L130.186 114.941C130.219 115.128 130.216 115.28 130.175 115.396C130.135 115.513 130.081 115.605 130.012 115.672C129.943 115.74 129.871 115.787 129.795 115.815C129.72 115.842 129.661 115.86 129.619 115.867L128.446 116.073L128.676 117.369L129.849 117.163ZM122.863 111.78L123.549 110.801L122.58 110.123L121.893 111.102L122.863 111.78ZM124.243 113.106L124.962 112.067L123.913 111.338L123.175 112.391L124.243 113.106ZM122.001 113.531L122.729 112.48L121.685 111.751L120.958 112.802L122.001 113.531ZM119.463 118.985C120.148 118.865 120.665 118.608 121.014 118.214C121.222 118.335 121.455 118.416 121.714 118.459C121.972 118.501 122.258 118.495 122.57 118.44L122.607 118.433C122.836 118.39 123.054 118.305 123.263 118.179C123.472 118.053 123.653 117.894 123.805 117.703C124.028 117.846 124.269 117.936 124.528 117.973C124.787 118.01 125.08 118 125.407 117.942C125.653 117.899 125.888 117.814 126.111 117.687C126.334 117.561 126.52 117.4 126.668 117.206C126.891 117.349 127.141 117.437 127.419 117.469C127.697 117.501 128.015 117.485 128.373 117.422L128.884 117.333L128.654 116.036L128.144 116.126C127.82 116.183 127.57 116.165 127.392 116.072C127.215 115.98 127.099 115.801 127.044 115.535L126.771 113.994L125.473 114.221L125.745 115.757C125.763 115.901 125.76 116.025 125.736 116.129C125.711 116.234 125.671 116.322 125.616 116.395C125.561 116.467 125.495 116.523 125.418 116.564C125.341 116.604 125.26 116.631 125.177 116.646C124.871 116.7 124.639 116.674 124.481 116.57C124.322 116.465 124.218 116.27 124.167 115.986L123.903 114.497L122.61 114.723L122.879 116.238C122.91 116.412 122.909 116.554 122.877 116.666C122.844 116.777 122.797 116.866 122.736 116.932C122.674 116.998 122.607 117.047 122.536 117.077C122.464 117.108 122.402 117.129 122.351 117.142C122.058 117.189 121.833 117.161 121.675 117.056C121.516 116.952 121.412 116.759 121.362 116.478L121.098 114.989L119.8 115.216L120.069 116.731C120.091 116.856 120.098 116.969 120.091 117.071C120.084 117.172 120.051 117.263 119.992 117.343C119.932 117.424 119.842 117.492 119.722 117.549C119.601 117.606 119.438 117.652 119.233 117.688L118.56 117.806L118.79 119.103L119.463 118.985ZM118.999 119.066L118.769 117.77C118.477 117.821 118.246 117.846 118.076 117.846C117.905 117.845 117.771 117.806 117.673 117.728C117.575 117.651 117.502 117.53 117.453 117.367C117.404 117.204 117.356 116.983 117.306 116.706L116.432 111.775L115.134 112.003L116.008 116.933C116.06 117.225 116.117 117.49 116.178 117.728C116.24 117.965 116.318 118.175 116.411 118.355C116.504 118.536 116.619 118.687 116.757 118.81C116.896 118.932 117.067 119.023 117.271 119.082C117.475 119.141 117.718 119.17 118.001 119.169C118.284 119.167 118.617 119.133 118.999 119.066ZM111.112 117.304L111.893 116.19L110.763 115.4L109.993 116.512L111.112 117.304ZM112.363 123.118C113.385 122.939 114.109 122.563 114.537 121.991C114.964 121.418 115.091 120.648 114.92 119.68L114.299 116.176L113 116.403L113.622 119.907C113.664 120.147 113.679 120.369 113.667 120.576C113.656 120.782 113.598 120.966 113.494 121.129C113.39 121.292 113.23 121.432 113.012 121.549C112.795 121.666 112.502 121.757 112.133 121.822L111.075 122.007C110.744 122.065 110.43 122.044 110.131 121.945C109.832 121.845 109.577 121.686 109.367 121.469C109.231 121.314 109.115 121.133 109.018 120.927C108.92 120.72 108.85 120.499 108.809 120.263C108.777 120.082 108.757 119.908 108.751 119.739C108.744 119.57 108.751 119.392 108.771 119.204C108.792 119.016 108.826 118.814 108.874 118.598C108.921 118.382 108.985 118.136 109.065 117.861L107.794 117.51C107.703 117.83 107.631 118.122 107.575 118.385C107.52 118.649 107.482 118.899 107.461 119.135C107.44 119.372 107.435 119.6 107.445 119.82C107.456 120.04 107.481 120.265 107.522 120.494C107.586 120.855 107.692 121.193 107.841 121.509C107.99 121.824 108.172 122.103 108.387 122.344C108.569 122.541 108.772 122.712 108.997 122.855C109.221 122.998 109.458 123.11 109.707 123.192C109.956 123.273 110.215 123.325 110.484 123.345C110.753 123.366 111.026 123.352 111.305 123.304L112.363 123.118ZM175.466 129.761C175.553 129.746 175.656 129.722 175.776 129.688C175.895 129.655 176.016 129.603 176.138 129.533C176.26 129.464 176.378 129.37 176.491 129.251C176.605 129.133 176.698 128.981 176.771 128.797C176.844 128.612 176.889 128.388 176.907 128.123C176.925 127.859 176.902 127.546 176.838 127.186C176.78 126.859 176.68 126.555 176.538 126.272C176.397 125.989 176.216 125.749 175.997 125.553C175.778 125.357 175.52 125.216 175.223 125.128C174.926 125.041 174.595 125.029 174.23 125.093C173.865 125.157 173.572 125.281 173.35 125.465C173.128 125.648 172.956 125.864 172.833 126.111C172.71 126.358 172.623 126.623 172.573 126.905C172.523 127.188 172.485 127.46 172.46 127.722C172.443 127.872 172.426 128.008 172.406 128.132C172.387 128.255 172.361 128.362 172.328 128.451C172.296 128.541 172.255 128.614 172.206 128.669C172.156 128.724 172.093 128.758 172.017 128.772L171.365 128.886L171.606 130.181L172.247 130.068C172.487 130.026 172.69 129.954 172.856 129.851C173.023 129.749 173.169 129.6 173.296 129.406C173.521 129.481 173.728 129.548 173.917 129.606C174.107 129.664 174.288 129.709 174.46 129.742C174.633 129.774 174.8 129.793 174.962 129.799C175.125 129.804 175.293 129.792 175.466 129.761ZM175.3 128.518C175.206 128.535 175.094 128.534 174.964 128.518C174.834 128.501 174.694 128.476 174.544 128.441C174.395 128.407 174.241 128.365 174.084 128.315C173.926 128.266 173.777 128.216 173.635 128.166C173.671 128.002 173.699 127.823 173.72 127.628C173.741 127.432 173.776 127.248 173.826 127.075C173.876 126.901 173.949 126.751 174.044 126.623C174.14 126.495 174.278 126.416 174.459 126.384C174.668 126.347 174.849 126.365 175.003 126.436C175.157 126.508 175.287 126.603 175.393 126.722C175.498 126.842 175.58 126.969 175.638 127.103C175.696 127.238 175.733 127.351 175.749 127.441C175.79 127.677 175.796 127.865 175.765 128.004C175.734 128.144 175.69 128.251 175.631 128.326C175.573 128.4 175.511 128.45 175.445 128.474C175.379 128.498 175.331 128.513 175.3 128.518ZM166.783 127.902L167.563 126.788L166.434 125.998L165.664 127.11L166.783 127.902ZM168.035 133.695C169.057 133.515 169.782 133.14 170.209 132.567C170.636 131.995 170.764 131.225 170.592 130.256L170.585 130.215C170.711 130.239 170.845 130.251 170.986 130.251C171.128 130.252 171.265 130.24 171.397 130.217L171.814 130.144L171.584 128.848L171.167 128.921C170.938 128.961 170.741 128.937 170.577 128.85C170.412 128.762 170.306 128.605 170.259 128.377L169.971 126.752L168.673 126.98L169.294 130.484C169.336 130.723 169.352 130.946 169.34 131.152C169.328 131.358 169.27 131.543 169.167 131.706C169.063 131.869 168.902 132.009 168.685 132.126C168.467 132.243 168.174 132.334 167.805 132.398L166.747 132.584C166.417 132.642 166.102 132.621 165.803 132.521C165.504 132.422 165.249 132.263 165.039 132.046C164.904 131.891 164.788 131.71 164.69 131.503C164.592 131.297 164.523 131.075 164.481 130.839C164.449 130.659 164.43 130.484 164.423 130.315C164.416 130.147 164.423 129.968 164.444 129.78C164.464 129.592 164.498 129.391 164.546 129.175C164.594 128.959 164.658 128.713 164.738 128.438L163.466 128.086C163.376 128.406 163.303 128.698 163.248 128.962C163.192 129.226 163.154 129.476 163.133 129.712C163.112 129.948 163.107 130.177 163.118 130.397C163.128 130.617 163.153 130.841 163.194 131.07C163.258 131.431 163.365 131.77 163.514 132.085C163.663 132.401 163.845 132.679 164.06 132.921C164.242 133.118 164.445 133.288 164.669 133.431C164.893 133.575 165.13 133.687 165.379 133.769C165.628 133.85 165.888 133.901 166.156 133.922C166.425 133.943 166.699 133.929 166.977 133.88L168.035 133.695ZM156.212 126.014L156.941 124.973L155.886 124.235L155.179 125.283L156.212 126.014ZM154.028 126.402L154.753 125.363L153.697 124.624L152.995 125.671L154.028 126.402ZM155.74 132.963C156.115 132.897 156.467 132.799 156.795 132.668C157.123 132.537 157.404 132.357 157.637 132.128C157.871 131.899 158.043 131.613 158.154 131.27C158.266 130.926 158.292 130.509 158.234 130.018L158.186 129.63C158.14 129.391 158.081 129.155 158.01 128.922C157.938 128.69 157.851 128.47 157.748 128.262C157.645 128.055 157.523 127.866 157.384 127.695C157.244 127.525 157.083 127.382 156.899 127.268C156.716 127.153 156.51 127.071 156.28 127.022C156.051 126.973 155.797 126.967 155.517 127.006L155.413 127.024C155.138 127.072 154.894 127.163 154.682 127.297C154.437 127.454 154.235 127.646 154.077 127.873C153.918 128.099 153.808 128.351 153.746 128.629C153.684 128.906 153.679 129.191 153.73 129.482C153.796 129.85 153.92 130.154 154.104 130.394C154.288 130.633 154.523 130.81 154.808 130.922C155.093 131.035 155.373 131.086 155.647 131.076C155.921 131.065 156.152 131.044 156.34 131.011C156.562 130.972 156.797 130.913 157.045 130.834C157.029 130.904 156.995 130.977 156.944 131.053C156.893 131.128 156.81 131.202 156.696 131.276C156.582 131.35 156.429 131.42 156.236 131.488C156.044 131.556 155.802 131.615 155.51 131.666L153.383 132.039L153.613 133.336L155.74 132.963ZM156.217 129.83C155.938 129.879 155.7 129.879 155.502 129.832C155.159 129.756 154.96 129.567 154.907 129.265C154.883 129.13 154.889 129.006 154.924 128.894C154.96 128.783 155.016 128.684 155.092 128.599C155.169 128.514 155.256 128.45 155.354 128.406C155.452 128.362 155.546 128.332 155.636 128.316C155.668 128.31 155.701 128.306 155.736 128.304C155.938 128.29 156.105 128.324 156.238 128.406C156.371 128.489 156.48 128.597 156.565 128.733C156.65 128.868 156.716 129.018 156.763 129.181C156.81 129.345 156.85 129.501 156.883 129.649C156.64 129.734 156.418 129.795 156.217 129.83ZM153.795 133.304L153.565 132.007L153.44 132.029C153.185 132.045 152.974 131.982 152.807 131.84C152.64 131.697 152.536 131.511 152.496 131.282L151.552 125.956L150.258 126.183L151.203 131.509C151.219 131.603 151.227 131.703 151.227 131.811C151.226 131.918 151.189 132.023 151.116 132.126C151.043 132.228 150.919 132.324 150.745 132.413C150.571 132.503 150.317 132.577 149.983 132.636L150.213 133.932C150.474 133.886 150.707 133.835 150.911 133.777C151.116 133.72 151.297 133.653 151.454 133.577C151.611 133.502 151.744 133.414 151.853 133.314C151.963 133.214 152.053 133.101 152.124 132.974C152.251 133.066 152.371 133.142 152.484 133.201C152.596 133.26 152.711 133.303 152.827 133.331C152.943 133.359 153.068 133.372 153.202 133.37C153.336 133.368 153.49 133.354 153.665 133.327L153.795 133.304ZM147.038 134.489C147.379 134.429 147.675 134.338 147.927 134.215C148.18 134.092 148.389 133.932 148.555 133.734C148.749 133.861 148.975 133.943 149.233 133.98C149.49 134.018 149.766 134.01 150.062 133.958L150.39 133.901L150.161 132.604L149.832 132.662C149.801 132.668 149.741 132.674 149.652 132.68C149.564 132.687 149.472 132.676 149.375 132.648C149.279 132.62 149.188 132.568 149.103 132.492C149.018 132.416 148.961 132.299 148.934 132.143L148.641 130.493L147.348 130.72L147.647 132.406C147.659 132.476 147.662 132.549 147.656 132.625C147.65 132.701 147.62 132.774 147.566 132.845C147.512 132.915 147.426 132.981 147.306 133.043C147.186 133.106 147.02 133.155 146.808 133.192L145.885 133.354L146.115 134.651L147.038 134.489ZM148.676 137.116L149.457 136.003L148.327 135.213L147.557 136.325L148.676 137.116ZM140.824 139.041C140.685 138.26 140.545 137.478 140.403 136.696C140.261 135.914 140.12 135.131 139.981 134.347C140.071 134.37 140.156 134.394 140.235 134.417C140.315 134.441 140.393 134.465 140.471 134.489C140.549 134.513 140.628 134.537 140.71 134.562C140.791 134.587 140.88 134.615 140.975 134.645C141.229 134.725 141.482 134.805 141.734 134.882C141.986 134.959 142.226 135.025 142.452 135.078C142.678 135.132 142.889 135.17 143.085 135.193C143.281 135.216 143.452 135.214 143.598 135.189C143.674 135.175 143.762 135.154 143.86 135.124C143.959 135.094 144.062 135.051 144.168 134.995C144.275 134.938 144.378 134.866 144.479 134.776C144.58 134.687 144.67 134.575 144.75 134.439C144.923 134.57 145.125 134.65 145.354 134.679C145.583 134.709 145.856 134.696 146.172 134.641L146.318 134.615L146.089 133.319L145.943 133.344C145.894 133.353 145.822 133.354 145.728 133.349C145.634 133.345 145.538 133.324 145.438 133.288C145.338 133.251 145.246 133.194 145.16 133.116C145.075 133.038 145.016 132.929 144.984 132.788C144.98 132.749 144.975 132.708 144.967 132.664L144.944 132.532C144.886 132.205 144.784 131.903 144.638 131.624C144.492 131.346 144.308 131.111 144.086 130.921C143.864 130.731 143.607 130.594 143.317 130.511C143.026 130.428 142.705 130.417 142.354 130.479L142.297 130.489C141.96 130.548 141.685 130.659 141.474 130.821C141.25 130.993 141.076 131.202 140.951 131.449C140.826 131.697 140.741 131.97 140.693 132.27C140.646 132.57 140.62 132.876 140.614 133.189L139.695 132.915L138.606 133.868L139.567 139.261L140.824 139.041ZM143.369 133.897C143.292 133.911 143.195 133.911 143.076 133.898C142.957 133.885 142.828 133.862 142.687 133.829C142.547 133.796 142.4 133.758 142.245 133.713C142.09 133.669 141.938 133.622 141.79 133.573C141.785 133.306 141.794 133.077 141.816 132.887C141.838 132.697 141.869 132.538 141.909 132.409C141.949 132.28 141.996 132.176 142.05 132.097C142.104 132.018 142.162 131.956 142.224 131.911C142.286 131.866 142.349 131.834 142.414 131.816C142.479 131.797 142.542 131.782 142.605 131.771C142.744 131.747 142.868 131.749 142.977 131.779C143.086 131.808 143.184 131.852 143.27 131.913C143.355 131.973 143.429 132.043 143.49 132.124C143.551 132.204 143.602 132.285 143.643 132.365C143.684 132.446 143.715 132.52 143.736 132.588C143.757 132.656 143.77 132.705 143.776 132.736C143.825 133.014 143.837 133.23 143.813 133.385C143.788 133.539 143.748 133.654 143.691 133.728C143.634 133.803 143.574 133.848 143.511 133.865C143.447 133.881 143.4 133.892 143.369 133.897ZM131.605 140.078C132.095 139.992 132.522 139.842 132.886 139.628C133.249 139.414 133.544 139.148 133.771 138.831C133.998 138.514 134.156 138.15 134.244 137.739C134.333 137.328 134.345 136.881 134.281 136.398L133.699 133.118L132.401 133.346L132.963 136.517C133.025 136.867 133.04 137.172 133.007 137.43C132.974 137.688 132.892 137.907 132.763 138.087C132.634 138.267 132.453 138.413 132.222 138.526C131.991 138.638 131.709 138.723 131.375 138.781L130.729 138.895L130.959 140.191L131.605 140.078ZM129.498 137.565L128.167 130.057L126.869 130.285L128.2 137.792L129.498 137.565ZM122.349 138.738L122.054 137.071L120.34 137.372L120.635 139.038L122.349 138.738ZM118.524 139.409L118.228 137.742L116.514 138.042L116.81 139.709L118.524 139.409ZM126.169 138.068L125.873 136.401L124.16 136.702L124.455 138.368L126.169 138.068Z" fill="#FF6200"/>
<path d="M98.0177 102.302C98.0971 102.288 98.1613 102.276 98.2103 102.266C98.3409 102.24 98.5802 102.185 98.9281 102.101C99.276 102.017 99.5747 101.946 99.8371 101.867L99.68 101.029C99.3092 101.114 99.0007 101.179 98.7416 101.244C98.4825 101.309 98.2516 101.362 98.0489 101.404C97.8462 101.446 97.7181 101.47 97.6645 101.476C97.6262 101.481 97.5432 101.494 97.4154 101.516L97.2407 101.546C97.0117 101.586 96.7306 101.632 96.3972 101.684C96.0639 101.736 95.651 101.786 95.1585 101.833L95.3006 102.635C95.6312 102.584 95.9927 102.544 96.3853 102.518C96.7778 102.491 97.1474 102.449 97.4942 102.391C97.6242 102.37 97.739 102.35 97.8387 102.333L98.0177 102.302ZM95.3476 102.627L95.1921 101.75C95.0566 101.786 94.8939 101.779 94.7041 101.728C94.5143 101.677 94.3813 101.61 94.3051 101.526C94.2289 101.442 94.1558 101.33 94.0858 101.19C94.0158 101.05 93.9625 100.886 93.9259 100.698C93.8893 100.51 93.8262 100.354 93.7365 100.23C93.6468 100.106 93.5235 100.066 93.3666 100.11C93.2098 100.154 93.1028 100.242 93.0457 100.375C92.9886 100.509 92.9487 100.675 92.9258 100.873C92.9028 101.072 92.8751 101.261 92.8426 101.442C92.8101 101.623 92.7001 101.812 92.5125 102.01C92.3249 102.209 92.0917 102.322 91.8129 102.352L91.9668 103.22C92.4149 103.089 92.7121 102.972 92.8583 102.869C93.0046 102.765 93.1363 102.643 93.2534 102.503C93.3705 102.362 93.451 102.215 93.4948 102.062C93.5386 101.908 93.6078 101.925 93.7024 102.113C93.7969 102.301 93.9666 102.448 94.2114 102.554C94.4562 102.66 94.8349 102.684 95.3476 102.627ZM91.7002 106.359C91.7315 106.353 91.7654 106.344 91.8019 106.331C91.8383 106.319 91.8768 106.299 91.9173 106.272L92.0174 106.163C92.2152 105.954 92.3983 105.81 92.5668 105.73C92.7674 105.624 92.9796 105.546 93.2033 105.497C93.427 105.448 93.6416 105.403 93.8471 105.36C94.2157 105.218 94.3854 105.065 94.3564 104.901C94.3364 104.788 94.1771 104.709 93.8787 104.664L93.7859 104.651C93.7202 104.644 93.6468 104.643 93.5656 104.646C93.4439 104.651 93.3079 104.667 93.1576 104.693C92.4939 104.81 91.935 105.079 91.4807 105.503C91.2758 105.694 91.1872 105.869 91.2151 106.026C91.253 106.24 91.4147 106.351 91.7002 106.359ZM87.5701 104.419C87.2087 105.111 87.4427 105.284 88.2721 104.937C88.6936 104.766 89.0451 104.4 89.3264 103.838C89.6582 103.307 89.9025 102.755 90.0593 102.183C90.0402 102.439 90.1877 102.707 90.5018 102.985C90.8159 103.264 91.3455 103.338 92.0905 103.208L91.94 102.359C91.4195 102.372 91.062 102.258 90.8675 102.017C90.673 101.775 90.5558 101.506 90.5159 101.208C90.4761 100.91 90.4544 100.697 90.4509 100.568C90.3417 100.244 90.181 100.084 89.9688 100.088C89.7567 100.093 89.5828 100.26 89.4474 100.588L89.3923 100.715C89.1278 101.662 88.8993 102.367 88.7068 102.829C88.5143 103.29 88.1354 103.82 87.5701 104.419ZM80.6551 107.635C81.7378 106.933 82.4317 106.359 82.7368 105.913C83.0419 105.467 83.2467 105.057 83.3513 104.682C83.4559 104.307 83.5507 103.94 83.6356 103.582C83.7194 103.217 83.736 102.919 83.6853 102.688C83.6347 102.457 83.5632 102.226 83.4707 101.996C83.3783 101.766 83.2187 101.613 82.992 101.536C82.7654 101.459 82.5561 101.444 82.3642 101.49C82.1724 101.537 82.0347 101.616 81.9513 101.728C81.8678 101.84 81.784 102.013 81.6998 102.249C81.6156 102.484 81.5367 102.794 81.4631 103.18C81.3894 103.566 81.7167 103.828 82.4448 103.966C82.2821 104.759 82.0426 105.292 81.7262 105.565C81.4098 105.838 80.9419 106.284 80.3225 106.905C79.7433 107.571 79.8542 107.814 80.6551 107.635ZM74.1294 106.328C75.3049 106.077 75.97 105.241 76.1248 103.819C76.1589 103.211 76.0085 102.799 75.6737 102.586C75.1461 102.523 74.9446 102.788 75.0693 103.382C75.324 104.673 74.9611 105.375 73.9806 105.489L74.1294 106.328ZM76.1741 109.15C76.2155 109.11 76.2453 109.06 76.2634 108.998C76.2815 108.937 76.2817 108.883 76.264 108.838C76.2462 108.792 76.2189 108.756 76.182 108.73C76.1452 108.704 76.1024 108.663 76.0537 108.607C76.0123 108.556 75.9996 108.493 76.0155 108.419C76.0314 108.345 76.0482 108.276 76.0658 108.211C76.0833 108.146 76.0947 108.083 76.0997 108.02C76.1048 107.958 76.0924 107.897 76.0624 107.837C76.0325 107.778 75.9936 107.731 75.9456 107.697C75.8977 107.663 75.831 107.633 75.7454 107.606C75.6599 107.579 75.5687 107.574 75.4716 107.591C75.3746 107.608 75.285 107.64 75.2029 107.686C75.1209 107.733 75.0557 107.793 75.0073 107.867C74.959 107.94 74.9182 108.028 74.8848 108.131C74.8514 108.234 74.8387 108.335 74.8466 108.435C74.8545 108.534 74.8703 108.623 74.8942 108.703C74.9181 108.783 74.9663 108.864 75.0388 108.945C75.1113 109.027 75.1862 109.085 75.2634 109.12C75.3407 109.155 75.4411 109.184 75.5647 109.208C75.6883 109.232 75.8105 109.238 75.9311 109.227C76.0517 109.215 76.1327 109.19 76.1741 109.15ZM70.4157 110.014C69.8355 110.783 69.9985 111.011 70.9047 110.696C72.1433 109.818 72.8598 109.071 73.0543 108.457C73.2488 107.843 73.3972 107.342 73.4996 106.954C73.602 106.567 73.8318 106.361 74.1891 106.337L74.0453 105.526C73.7746 105.528 73.5353 105.562 73.3274 105.628C73.1195 105.693 72.9519 105.822 72.8243 106.013C72.606 106.31 72.4269 106.739 72.2872 107.298C72.1476 107.858 71.9153 108.313 71.5903 108.665C71.2654 109.017 70.8739 109.467 70.4157 110.014ZM68.4957 107.268L68.8386 107.071C69.2774 106.67 69.5987 106.061 69.8025 105.244C70.0063 104.427 69.9467 102.981 69.6237 100.904L69.5719 100.612C69.4916 100.159 69.2211 99.944 68.7603 99.9665L68.6476 99.9862L68.5174 100.126C68.6715 101.395 68.7658 102.274 68.8005 102.76C68.8749 103.726 68.8632 104.516 68.7654 105.13C68.7074 105.749 68.533 106.386 68.2423 107.04L68.2607 107.144L68.2895 107.197L68.4957 107.268ZM64.4343 107.79C64.8321 107.886 65.26 107.842 65.718 107.658C66.7158 107.133 67.1848 106.519 67.1248 105.816C66.9723 104.883 66.6059 104.291 66.0255 104.039C65.4451 103.788 65.0531 103.635 64.8497 103.58C64.5803 103.517 64.3702 103.587 64.2193 103.792C64.0684 103.997 64.1604 104.261 64.4954 104.585C63.8558 105.747 63.5863 106.548 63.6868 106.988C63.7873 107.427 64.0364 107.695 64.4343 107.79ZM65.0372 106.931C64.7492 106.981 64.5859 106.916 64.5473 106.735C64.5139 106.546 64.6016 106.231 64.8105 105.789C65.0195 105.347 65.29 105.062 65.6221 104.932C65.8913 104.885 66.097 105.098 66.2392 105.573C66.344 106.164 65.9433 106.616 65.0372 106.931ZM57.5455 109.188L57.8884 108.992C58.3272 108.591 58.6485 107.982 58.8523 107.165C59.0561 106.348 58.9965 104.901 58.6735 102.825L58.6217 102.532C58.5414 102.079 58.2709 101.864 57.8101 101.887L57.6974 101.907L57.5672 102.046C57.7213 103.316 57.8156 104.194 57.8503 104.681C57.9247 105.647 57.913 106.436 57.8152 107.05C57.7572 107.67 57.5829 108.306 57.2921 108.96L57.3105 109.064L57.3393 109.117L57.5455 109.188ZM54.3119 102.009C54.4136 101.982 54.4851 101.948 54.5265 101.908C54.5678 101.869 54.5976 101.818 54.6157 101.757C54.6339 101.695 54.6436 101.65 54.6448 101.62C54.6461 101.591 54.6282 101.563 54.5914 101.537C54.5545 101.511 54.5237 101.465 54.4989 101.398C54.4803 101.33 54.4674 101.266 54.4599 101.205C54.4524 101.145 54.4575 101.082 54.4751 101.018C54.4927 100.953 54.504 100.89 54.5091 100.827C54.5141 100.765 54.5017 100.704 54.4717 100.644C54.4418 100.584 54.4029 100.538 54.3549 100.504C54.307 100.47 54.2403 100.44 54.1548 100.413C54.0693 100.386 53.978 100.38 53.8809 100.397C53.7839 100.414 53.6943 100.446 53.6123 100.493C53.5302 100.54 53.4619 100.601 53.4073 100.675C53.3527 100.749 53.3118 100.838 53.2847 100.94C53.2576 101.042 53.2446 101.141 53.2457 101.238C53.2467 101.335 53.2626 101.425 53.2933 101.507C53.324 101.589 53.3756 101.671 53.4481 101.752C53.5207 101.834 53.5955 101.892 53.6728 101.927C53.75 101.962 53.8504 101.991 53.974 102.015C54.0977 102.039 54.2103 102.037 54.3119 102.009ZM53.8759 109.9C54.2913 109.84 54.7577 109.612 55.275 109.217C55.7924 108.821 56.0945 108.413 56.1813 107.993C56.2682 107.572 56.2768 107.148 56.2073 106.719C56.0633 106.271 55.8909 105.972 55.6901 105.823C55.4893 105.673 55.2345 105.611 54.9259 105.636C54.6172 105.661 54.3718 105.806 54.1897 106.071C54.0075 106.337 53.902 106.579 53.873 106.798C53.8441 107.017 53.8664 107.289 53.94 107.613C54.0137 107.937 54.2934 108.177 54.7791 108.331C54.5386 108.613 54.3446 108.793 54.197 108.871C54.0494 108.949 53.8885 109.006 53.7143 109.043L53.8759 109.9ZM49.8738 103.93C49.9114 103.924 49.95 103.914 49.9895 103.9C50.0291 103.887 50.0692 103.867 50.1096 103.84L50.2192 103.724C50.4351 103.502 50.6323 103.347 50.8105 103.26C51.0288 103.144 51.2592 103.06 51.5017 103.008C51.7442 102.955 51.9744 102.907 52.1925 102.862C52.6086 102.77 52.8016 102.639 52.7715 102.469C52.7503 102.35 52.5806 102.266 52.2622 102.218L52.157 102.201C52.0839 102.193 52.0046 102.191 51.9193 102.195C51.7913 102.202 51.6459 102.219 51.4831 102.248C50.7631 102.374 50.1589 102.661 49.6703 103.11C49.4489 103.317 49.3526 103.503 49.3816 103.666C49.4218 103.893 49.5858 103.981 49.8738 103.93ZM53.9322 109.89L53.7767 109.013C53.6412 109.049 53.4785 109.042 53.2887 108.991C53.0989 108.94 52.9659 108.873 52.8897 108.789C52.8135 108.705 52.7404 108.593 52.6704 108.453C52.6004 108.313 52.5471 108.149 52.5105 107.961C52.4739 107.773 52.4108 107.617 52.3211 107.493C52.2314 107.37 52.1081 107.33 51.9512 107.373C51.7944 107.417 51.6874 107.505 51.6303 107.639C51.5732 107.772 51.5333 107.938 51.5104 108.136C51.4874 108.335 51.4597 108.524 51.4272 108.705C51.3947 108.886 51.2847 109.075 51.0971 109.274C50.9095 109.472 50.6763 109.586 50.3975 109.615L50.5514 110.483C50.9995 110.352 51.2967 110.235 51.4429 110.132C51.5892 110.028 51.7209 109.907 51.838 109.766C51.9551 109.626 52.0356 109.479 52.0794 109.325C52.1232 109.171 52.1924 109.188 52.287 109.376C52.3815 109.564 52.5512 109.711 52.796 109.817C53.0408 109.923 53.4195 109.947 53.9322 109.89ZM50.6077 110.473L50.4589 109.633C50.2154 109.644 50.0496 109.637 49.9615 109.614C49.8735 109.59 49.7875 109.542 49.7035 109.469C49.6196 109.397 49.5585 109.307 49.5202 109.2C49.4819 109.093 49.4531 108.967 49.4337 108.821C49.4143 108.676 49.3976 108.345 49.3836 107.828C49.3695 107.312 49.3559 106.908 49.3428 106.615C49.3296 106.322 49.3196 106.057 49.3128 105.818C49.306 105.579 49.2825 105.201 49.2423 104.683C49.1751 104.377 49.0483 104.253 48.8618 104.312C48.6753 104.371 48.5521 104.522 48.492 104.766C48.3366 105.273 48.2673 105.646 48.284 105.887C48.3008 106.127 48.3205 106.42 48.3431 106.766C48.3657 107.112 48.3809 107.443 48.3886 107.76C48.3962 108.076 48.4093 108.387 48.4278 108.691C48.4464 108.996 48.4774 109.253 48.521 109.463C48.5646 109.672 48.6338 109.853 48.7285 110.005C48.8232 110.157 48.9361 110.275 49.0672 110.359C49.1983 110.443 49.361 110.505 49.5554 110.546C49.7498 110.586 50.1006 110.562 50.6077 110.473ZM44.2097 112.071C43.8673 112.689 44.0301 112.897 44.698 112.696C45.2611 112.377 45.7335 112.028 46.1151 111.65C46.4968 111.272 46.7985 110.852 47.0203 110.392C47.2421 109.932 47.3244 109.504 47.2672 109.109C47.2101 108.714 47.0762 108.332 46.8657 107.964C46.6552 107.595 46.3992 107.308 46.098 107.101L45.8746 107.043C45.658 107.023 45.5157 107.113 45.4479 107.313L45.473 107.454C45.523 107.627 45.6653 107.874 45.8999 108.196C46.1345 108.518 46.2417 108.877 46.2215 109.273C46.2013 109.669 46.0184 110.085 45.673 110.521C45.3276 110.958 44.8398 111.475 44.2097 112.071ZM40.8528 107.72L41.0383 107.619C41.5141 107.536 41.5937 106.601 41.2771 104.815C41.0932 103.778 40.8512 102.859 40.5513 102.059C40.2513 101.259 39.9171 100.84 39.5486 100.801C39.1853 100.754 39.0386 101.055 39.1085 101.704C39.3202 102.134 39.6329 103.133 40.0464 104.701L40.4978 107.247C40.5268 107.411 40.6451 107.568 40.8528 107.72ZM41.4312 111.966C41.6065 111.935 41.7587 111.847 41.8877 111.701C41.9775 111.588 42.0397 111.447 42.0744 111.279C42.1092 111.111 42.1076 110.92 42.0697 110.706C42.0128 110.385 41.904 110.19 41.7433 110.121C41.6047 110.068 41.4791 110.051 41.3664 110.071C40.9219 110.149 40.689 110.455 40.6677 110.991C40.6616 111.102 40.668 111.211 40.687 111.318C40.7761 111.821 41.0242 112.037 41.4312 111.966ZM97.9585 124.47C97.3784 125.239 97.5414 125.467 98.4475 125.152C99.6861 124.274 100.425 123.506 100.663 122.848C100.902 122.19 101.084 121.683 101.212 121.327C101.339 120.971 101.392 120.659 101.37 120.39C101.287 120.139 101.161 120.013 100.993 120.014C100.826 120.014 100.661 120.122 100.499 120.339C100.281 120.636 100.08 121.086 99.896 121.689C99.7124 122.292 99.4581 122.769 99.1332 123.121C98.8082 123.473 98.4167 123.923 97.9585 124.47ZM95.9406 123.083L96.2834 122.887C96.7223 122.486 97.0436 121.877 97.2474 121.06C97.4511 120.243 97.3916 118.796 97.0686 116.719L97.0168 116.427C96.9365 115.974 96.666 115.759 96.2052 115.782L96.0925 115.801L95.9623 115.941C96.1164 117.211 96.2107 118.089 96.2454 118.575C96.3198 119.541 96.3081 120.331 96.2103 120.945C96.1523 121.564 95.9779 122.201 95.6872 122.855L95.7056 122.959L95.7344 123.012L95.9406 123.083ZM88.6821 118.274C88.6759 118.396 88.7205 118.437 88.8158 118.399C90.1735 116.486 91.4711 114.73 92.7085 113.13C93.9459 111.53 94.8136 110.382 95.3116 109.688C95.8097 108.993 96.2156 108.382 96.5296 107.856C96.8435 107.33 97.0924 106.912 97.2763 106.603C97.4602 106.294 97.644 105.925 97.8277 105.498C97.8142 105.038 97.6551 104.987 97.3505 105.344C97.3109 105.396 97.2676 105.453 97.2204 105.516L97.0678 105.72C96.7124 106.198 96.1976 106.906 95.5232 107.845C94.6413 109.072 93.7038 110.307 92.7106 111.55C91.7174 112.793 90.7594 114.094 89.8364 115.452C88.9133 116.81 88.5286 117.751 88.6821 118.274ZM88.6397 115.386C89.3028 114.473 89.8974 113.668 90.4236 112.969C90.9498 112.271 91.5864 111.427 92.3333 110.439C92.4944 109.906 92.3627 109.789 91.9382 110.087C91.2705 110.885 90.528 111.793 89.7105 112.812C88.8931 113.83 88.4038 114.609 88.2427 115.149C87.8785 116.061 88.0108 116.14 88.6397 115.386ZM88.1576 124.516C88.6584 124.428 89.0331 124.293 89.2814 124.11C89.5298 123.927 89.7228 123.723 89.8604 123.498C89.998 123.273 90.1078 123.054 90.1896 122.842C90.2714 122.63 90.3343 122.411 90.3784 122.186C90.4224 121.961 90.4499 121.652 90.4607 121.258C90.4715 120.864 90.3945 120.256 90.2297 119.436C90.0505 118.826 89.809 118.683 89.5052 119.009C89.2014 119.334 89.1391 119.893 89.3182 120.685C89.4031 121.273 89.4428 121.679 89.4375 121.904C89.4321 122.129 89.3801 122.363 89.2813 122.607C89.1826 122.852 89.0345 123.072 88.837 123.269C88.6395 123.465 88.3651 123.611 88.0138 123.705L88.1576 124.516ZM84.478 128.176C83.8979 128.946 84.0609 129.173 84.967 128.859C86.2056 127.98 86.9222 127.234 87.1167 126.619C87.3112 126.005 87.4596 125.504 87.562 125.116C87.6644 124.729 87.8942 124.523 88.2515 124.5L88.1077 123.688C87.8369 123.69 87.5976 123.724 87.3898 123.79C87.1819 123.856 87.0142 123.984 86.8867 124.175C86.6683 124.472 86.4893 124.901 86.3496 125.46C86.2099 126.02 85.9776 126.475 85.6527 126.827C85.3278 127.179 84.9362 127.629 84.478 128.176ZM82.3297 117.724C82.4313 117.696 82.5028 117.663 82.5442 117.623C82.5856 117.583 82.6153 117.533 82.6335 117.471C82.6516 117.41 82.6613 117.364 82.6626 117.335C82.6638 117.306 82.646 117.278 82.6091 117.252C82.5722 117.226 82.5414 117.179 82.5166 117.113C82.4981 117.044 82.4851 116.98 82.4776 116.92C82.4702 116.86 82.4752 116.797 82.4928 116.733C82.5104 116.668 82.5217 116.604 82.5268 116.542C82.5319 116.479 82.5194 116.418 82.4895 116.359C82.4596 116.299 82.4206 116.252 82.3727 116.219C82.3247 116.185 82.258 116.155 82.1725 116.127C82.087 116.1 81.9957 116.095 81.8987 116.112C81.8017 116.129 81.7121 116.161 81.63 116.208C81.5479 116.255 81.4796 116.315 81.425 116.39C81.3704 116.464 81.3296 116.552 81.3025 116.654C81.2754 116.756 81.2623 116.856 81.2634 116.953C81.2645 117.05 81.2804 117.14 81.3111 117.222C81.3418 117.304 81.3934 117.386 81.4659 117.467C81.5384 117.548 81.6133 117.606 81.6905 117.642C81.7677 117.677 81.8682 117.706 81.9918 117.73C82.1154 117.753 82.228 117.751 82.3297 117.724ZM81.8936 125.615C82.309 125.555 82.7754 125.327 83.2928 124.932C83.8101 124.536 84.1122 124.128 84.1991 123.708C84.2859 123.287 84.2946 122.863 84.225 122.434C84.081 121.986 83.9086 121.687 83.7078 121.538C83.507 121.388 83.2523 121.326 82.9436 121.351C82.6349 121.376 82.3895 121.521 82.2074 121.786C82.0253 122.051 81.9197 122.294 81.8908 122.513C81.8618 122.732 81.8842 123.003 81.9578 123.328C82.0314 123.652 82.3111 123.891 82.7969 124.046C82.5564 124.328 82.3623 124.508 82.2147 124.586C82.0671 124.663 81.9062 124.721 81.732 124.758L81.8936 125.615ZM77.8916 119.645C77.9291 119.638 77.9677 119.628 78.0073 119.615C78.0469 119.602 78.0869 119.582 78.1274 119.555L78.2369 119.438C78.4529 119.216 78.65 119.062 78.8283 118.975C79.0465 118.859 79.2769 118.775 79.5194 118.722C79.7619 118.67 79.9922 118.622 80.2102 118.577C80.6263 118.485 80.8194 118.353 80.7893 118.184C80.7681 118.064 80.5983 117.981 80.2799 117.933L80.1748 117.916C80.1016 117.908 80.0224 117.906 79.937 117.91C79.809 117.916 79.6636 117.934 79.5009 117.962C78.7809 118.089 78.1766 118.376 77.6881 118.825C77.4666 119.032 77.3704 119.218 77.3994 119.381C77.4395 119.608 77.6036 119.695 77.8916 119.645ZM81.95 125.605L81.7944 124.727C81.6589 124.764 81.4963 124.757 81.3065 124.706C81.1167 124.655 80.9837 124.588 80.9075 124.504C80.8313 124.42 80.7582 124.308 80.6882 124.168C80.6181 124.028 80.5648 123.864 80.5283 123.676C80.4917 123.487 80.4286 123.332 80.3388 123.208C80.2491 123.084 80.1259 123.044 79.969 123.088C79.8121 123.132 79.7052 123.22 79.6481 123.353C79.591 123.487 79.551 123.652 79.5281 123.851C79.5052 124.049 79.4775 124.239 79.445 124.42C79.4125 124.601 79.3024 124.79 79.1149 124.988C78.9273 125.187 78.6941 125.3 78.4153 125.33L78.5691 126.198C79.0172 126.067 79.3144 125.95 79.4607 125.847C79.607 125.743 79.7387 125.621 79.8558 125.481C79.9729 125.34 80.0533 125.193 80.0971 125.04C80.1409 124.886 80.2101 124.903 80.3047 125.091C80.3993 125.278 80.569 125.425 80.8137 125.532C81.0585 125.638 81.4372 125.662 81.95 125.605ZM75.9207 120.462C76.0223 120.435 76.0938 120.401 76.1352 120.361C76.1766 120.322 76.2064 120.271 76.2245 120.21C76.2426 120.148 76.2523 120.103 76.2536 120.073C76.2548 120.044 76.237 120.016 76.2001 119.99C76.1632 119.964 76.1324 119.918 76.1076 119.851C76.0891 119.783 76.0761 119.719 76.0687 119.658C76.0612 119.598 76.0663 119.536 76.0838 119.471C76.1014 119.406 76.1127 119.343 76.1178 119.28C76.1229 119.218 76.1104 119.157 76.0805 119.097C76.0506 119.037 76.0116 118.991 75.9637 118.957C75.9158 118.923 75.849 118.893 75.7635 118.866C75.678 118.839 75.5867 118.834 75.4897 118.851C75.3927 118.868 75.3031 118.899 75.221 118.946C75.1389 118.993 75.0706 119.054 75.016 119.128C74.9614 119.203 74.9206 119.291 74.8935 119.393C74.8664 119.495 74.8534 119.594 74.8544 119.691C74.8555 119.788 74.8714 119.878 74.9021 119.96C74.9328 120.042 74.9844 120.124 75.0569 120.205C75.1294 120.287 75.2043 120.345 75.2815 120.38C75.3587 120.415 75.4592 120.444 75.5828 120.468C75.7064 120.492 75.8191 120.49 75.9207 120.462ZM78.7663 126.163L78.6108 125.286C78.4753 125.323 78.3126 125.315 78.1229 125.264C77.9331 125.213 77.8001 125.146 77.7239 125.062C77.6477 124.978 77.5745 124.866 77.5045 124.726C77.4345 124.586 77.3812 124.422 77.3446 124.234C77.3081 124.046 77.2449 123.89 77.1552 123.766C77.0655 123.643 76.9422 123.603 76.7854 123.646C76.6285 123.69 76.5215 123.779 76.4644 123.912C76.4074 124.045 76.3674 124.211 76.3445 124.409C76.3216 124.608 76.2939 124.797 76.2613 124.978C76.2288 125.159 76.1188 125.348 75.9312 125.547C75.7436 125.745 75.5105 125.859 75.2316 125.888L75.3855 126.756C75.8336 126.625 76.1308 126.508 76.2771 126.405C76.4233 126.302 76.555 126.18 76.6721 126.039C76.7893 125.899 76.8697 125.752 76.9135 125.598C76.9573 125.444 77.0265 125.462 77.1211 125.649C77.2157 125.837 77.3853 125.984 77.6301 126.09C77.8749 126.196 78.2536 126.22 78.7663 126.163ZM70.9325 127.965C70.571 128.657 70.805 128.83 71.6345 128.483C72.056 128.312 72.4074 127.946 72.6888 127.384C73.0206 126.853 73.2649 126.301 73.4217 125.729C73.4026 125.985 73.5501 126.253 73.8642 126.532C74.1783 126.81 74.7078 126.884 75.4529 126.754L75.3024 125.905C74.7819 125.918 74.4244 125.804 74.2299 125.563C74.0354 125.322 73.9182 125.052 73.8783 124.754C73.8384 124.457 73.8167 124.243 73.8132 124.114C73.7041 123.79 73.5434 123.63 73.3312 123.635C73.119 123.639 72.9452 123.806 72.8098 124.134L72.7547 124.261C72.4902 125.208 72.2617 125.913 72.0692 126.375C71.8766 126.836 71.4978 127.366 70.9325 127.965ZM67.4036 124.801C67.6238 124.859 67.8354 124.824 68.0383 124.694C68.2413 124.564 68.3411 124.372 68.3378 124.116C68.3344 123.861 68.263 123.685 68.1234 123.59C67.9838 123.494 67.8543 123.438 67.7349 123.42C67.6156 123.402 67.5396 123.365 67.5071 123.309C67.4746 123.253 67.4607 123.175 67.4653 123.073C67.4699 122.972 67.5062 122.867 67.574 122.758C67.6418 122.648 67.7104 122.544 67.7799 122.444C67.8493 122.345 67.8687 122.226 67.8379 122.089C67.8256 122.02 67.7834 121.982 67.7112 121.975C67.4891 122.033 67.2885 122.185 67.1093 122.431C66.9301 122.676 66.7994 122.913 66.7172 123.141C66.6351 123.37 66.6101 123.593 66.6423 123.811C66.6745 124.029 66.7544 124.234 66.8819 124.425C67.0095 124.617 67.1834 124.742 67.4036 124.801ZM67.5929 127.753C67.9512 128.099 68.2791 128.164 68.5768 127.95L68.6718 127.885C69.1109 127.412 69.2051 126.997 68.9544 126.639C68.5258 126.26 68.1564 126.179 67.8461 126.396C67.4278 126.949 67.3301 127.381 67.5531 127.692L67.5929 127.753Z" fill="black" stroke="black" stroke-width="0.6"/>
</svg>
