<svg width="69" height="44" viewBox="0 0 69 44" fill="none" xmlns="http://www.w3.org/2000/svg">
<path d="M30.261 2.87751C28.4227 4.54873 26.9337 6.45231 26.0714 8.77937C25.5418 10.2065 25.9113 11.4687 26.9219 12.5673C27.6914 13.4039 28.6265 14.0281 29.6177 14.5719C31.5947 15.6554 33.7324 16.3291 35.8765 16.9883C36.0257 17.0419 36.1857 17.0594 36.3431 17.0394C36.5005 17.0194 36.6509 16.9626 36.7818 16.8735C37.9548 16.1565 39.2119 15.5844 40.525 15.17C40.6541 15.123 40.7873 15.0876 40.9228 15.0641C41.0532 15.0476 41.1779 14.9266 41.3609 15.0421C39.2855 15.6945 37.4424 16.7024 35.7461 18.0539C35.8605 18.0979 35.9326 18.1288 36.0068 18.1529C37.4625 18.63 38.9182 19.1263 40.2276 19.9437C40.4355 20.073 40.6393 20.04 40.8556 19.9932C41.2812 19.9011 41.7054 19.7952 42.1359 19.7361C43.0932 19.6041 44.0533 19.4921 45.0133 19.3848C45.3405 19.3484 45.529 19.2267 45.6524 18.8912C46.2021 17.3988 46.7879 15.92 47.3632 14.4372C47.5164 14.0412 47.5213 14.0364 47.1144 13.969C45.7786 13.7463 44.4491 13.4947 43.1265 13.2039C40.2262 12.5666 37.3772 11.7602 34.6156 10.6658C33.1044 10.0677 31.6903 9.30115 30.6596 8.01422C29.3668 6.39869 29.0583 4.9674 30.2048 3.18893C30.2492 3.10919 30.3469 3.03288 30.261 2.87751ZM29.2212 15.9901C29.0542 15.8155 28.8746 15.7653 28.7131 15.6904C25.4551 14.1698 23.4927 11.0707 24.2074 7.21952C24.5062 5.61155 25.2306 4.18782 26.1483 2.85208C26.7472 1.98382 27.4196 1.17192 28.1017 0.367594C28.1842 0.274787 28.3409 0.157231 28.2535 0.0561744C28.1204 -0.0985044 28.0047 0.108421 27.9159 0.173043C26.9819 0.848448 26.1602 1.66472 25.4808 2.59222C23.2709 5.61292 22.1916 8.97254 22.462 12.7261C22.5776 14.3095 23.0821 15.8408 23.9315 17.1863C24.0286 17.3424 24.1305 17.3981 24.328 17.3493C24.8063 17.2317 25.2985 17.1685 25.7747 17.0433C26.924 16.7443 28.0775 16.4521 29.2219 15.9901H29.2212ZM38.8246 7.53438C38.7324 7.5165 38.7012 7.55156 38.6811 7.59281C38.1009 8.76149 37.4465 9.87724 36.587 10.8672C36.4872 10.9827 36.5489 11.0439 36.6785 11.0824C36.8885 11.1386 37.0944 11.2092 37.2947 11.2934C37.5193 11.3958 37.6358 11.358 37.7377 11.1188C38.0665 10.3579 38.3396 9.57442 38.5549 8.77456C38.6631 8.36552 38.7899 7.95854 38.8253 7.53506L38.8246 7.53438Z" fill="#FDFDFD"/>
<path d="M31.1448 33.0034C29.5609 32.6528 28.6078 31.471 28.56 29.8617C28.517 28.4276 28.9703 27.129 29.5526 25.8579C30.0482 24.7772 30.7054 23.7873 31.3549 22.7953C31.488 22.5925 31.612 22.532 31.854 22.6516C32.3752 22.9101 32.9104 23.1445 33.4483 23.3638C33.7158 23.4731 33.7387 23.5439 33.503 23.7275C32.1548 24.782 30.9854 25.9995 30.0801 27.4576C29.7579 27.9815 29.4894 28.5361 29.2788 29.113C29.2677 29.1694 29.2095 29.2285 29.2906 29.278L29.3467 29.1653C29.5658 28.7934 29.7467 28.4008 29.9879 28.0392C30.1058 27.8632 30.2007 27.822 30.3997 27.9175C31.6328 28.5136 32.9436 28.6524 34.296 28.5651C35.5129 28.4989 36.7152 28.2697 37.8701 27.8839C38.0843 27.8103 38.1002 27.846 38.1259 28.0516C38.1952 28.6112 38.2645 29.0285 38.1481 29.7503C38.1478 29.7532 38.1484 29.7561 38.1499 29.7586C38.1514 29.7611 38.1537 29.7631 38.1564 29.7642C38.1591 29.7654 38.1621 29.7656 38.165 29.765C38.1678 29.7644 38.1704 29.7628 38.1723 29.7606C38.3803 29.4685 38.4413 29.1295 38.4683 28.7886C38.5952 27.2541 37.8375 26.1233 36.7437 25.1608C35.9562 24.4692 35.0648 23.9234 34.1463 23.425C32.7177 22.6447 31.1982 22.0666 29.6933 21.4568C29.5769 21.41 29.4618 21.3619 29.3467 21.3159C29.3467 21.1784 29.4542 21.1584 29.5228 21.1213C31.0145 20.3183 32.2955 19.2425 33.5114 18.0862C33.6313 17.972 33.7457 17.904 33.9072 17.9549C35.8231 18.5626 37.789 19.0342 39.5677 20.0172C40.7094 20.647 41.6369 21.4705 41.9841 22.7774C42.2753 23.8739 42.1498 24.9539 41.7339 25.9968C40.4903 29.1137 38.3463 31.3308 35.2124 32.6755C33.9709 33.2076 32.3073 33.2763 31.1448 33.0034Z" fill="white"/>
<path d="M48.9374 6.19423C47.8284 5.95019 46.7886 6.15986 45.7876 6.63421C45.0085 7.00269 44.2786 7.45916 43.5272 7.88058C42.7757 8.30199 42.041 8.71309 41.1572 8.74815C40.9846 8.76225 40.8109 8.7469 40.6435 8.70278C39.9878 8.50342 39.7611 8.06688 39.8997 7.26461C40.0259 6.54003 39.8422 6.21761 39.1469 5.94125C39.1151 5.92819 39.0776 5.92269 39.0485 5.91031C38.0385 5.51984 36.9759 5.49784 35.9167 5.49234C34.0611 5.48478 32.2428 5.73914 30.496 6.38604C30.2187 6.48916 30.1196 6.42385 30.0517 6.15093C29.8624 5.39472 29.9519 4.6667 30.1619 3.92424C30.3456 3.27527 30.6943 2.81536 31.2634 2.43588C33.1502 1.17783 35.1986 0.458746 37.4833 0.503431C38.4836 0.52268 39.4443 0.735106 40.2844 1.33388C40.9658 1.82061 41.2175 2.46613 41.0941 3.27459C41.0407 3.62451 40.9873 3.97442 40.9312 4.32434C40.8023 5.12317 41.153 5.5549 41.9751 5.56521C42.6122 5.57346 43.2228 5.38097 43.8467 5.27097C44.8865 5.08811 45.9263 4.8585 46.9951 5.0833C47.7576 5.24073 48.3711 5.63327 48.9361 6.12824L48.9374 6.19423Z" fill="#EF1A17"/>
<path d="M20.596 21.4617C21.0036 20.4622 21.3987 19.4571 21.755 18.4369C21.8749 18.0932 22.0676 17.9818 22.3948 17.9474C24.5242 17.7233 26.5906 17.2139 28.6251 16.567C29.3566 16.3392 30.0721 16.0638 30.7671 15.7428C30.8441 15.7083 30.9276 15.6904 31.0121 15.6904C31.0966 15.6904 31.1801 15.7083 31.2571 15.7428C32.1191 16.1107 32.9997 16.4343 33.8954 16.7121C34.1137 16.7808 34.1415 16.8365 33.9779 17.0194C31.5358 19.7403 28.5412 21.569 25.0088 22.5548C23.4235 22.9968 21.7376 23.1873 20.099 23.2938C20.0705 23.2956 20.042 23.2902 20.0161 23.278C19.9903 23.2659 19.9681 23.2474 19.9514 23.2244C19.9348 23.2014 19.9243 23.1745 19.921 23.1464C19.9178 23.1182 19.9217 23.0897 19.9326 23.0635C20.1017 22.6566 20.4331 21.8612 20.596 21.4617ZM27.0849 17.7495C27.1472 17.4999 27.0107 17.5095 26.8395 17.5625C26.6683 17.6154 26.4714 18.1331 26.5719 18.2781C26.6114 18.3359 26.6634 18.3166 26.7216 18.3132C27.1098 18.2912 27.0578 17.9963 27.0849 17.7501V17.7495ZM24.5492 18.3063C24.5492 18.1276 24.5443 18.1186 24.3912 18.1152C24.1374 18.1104 23.9898 18.3379 23.9752 18.7016C23.969 18.8466 24.0279 18.8391 24.1326 18.8425C24.4334 18.8446 24.545 18.7057 24.5492 18.307V18.3063ZM23.524 18.2279C23.2821 18.2327 22.9979 18.6906 23.0956 18.9154C23.1028 18.9366 23.1175 18.9545 23.137 18.9656C23.1566 18.9767 23.1796 18.9804 23.2016 18.9759C23.3361 18.9635 23.5108 18.98 23.5697 18.8501C23.6394 18.6726 23.6808 18.4854 23.6924 18.2953C23.7 18.2211 23.5947 18.2176 23.524 18.2286V18.2279ZM24.8202 18.4974C24.8445 18.5799 24.7703 18.6968 24.9381 18.6954C25.2153 18.6954 25.3817 18.474 25.3817 18.1076C25.3817 17.9825 25.3616 17.9275 25.2126 17.9371C24.8223 17.9633 24.8792 18.2685 24.8202 18.4981V18.4974ZM27.394 17.8608C27.3358 18.1358 27.4945 18.1152 27.6671 18.0622C27.8162 18.0162 27.9985 17.4793 27.9091 17.3617C27.8689 17.3081 27.8113 17.3184 27.7538 17.3212C27.3815 17.3397 27.4439 17.6395 27.394 17.8615V17.8608ZM25.7235 18.3084C25.6541 18.5586 25.833 18.5228 26.0007 18.4878C26.1491 18.4555 26.3335 17.9275 26.2489 17.8003C26.2017 17.7275 26.1338 17.746 26.0666 17.755C25.7401 17.7962 25.7366 18.0409 25.7235 18.309V18.3084ZM22.3698 19.0426C22.6131 19.0481 22.9174 18.606 22.8169 18.4053C22.783 18.3365 22.7227 18.3579 22.6693 18.3558C22.3081 18.3393 22.3227 18.637 22.2284 18.8576C22.1543 19.0371 22.2333 19.0577 22.3698 19.0426Z" fill="white"/>
<path d="M30.261 2.87769C30.347 3.03305 30.2492 3.10936 30.198 3.18911C29.0514 4.96757 29.3599 6.39886 30.6527 8.0144C31.6834 9.30132 33.0975 10.0678 34.6087 10.6659C37.3703 11.759 40.2193 12.5668 43.1196 13.204C44.4422 13.4948 45.7717 13.7464 47.1075 13.9692C47.5144 14.0379 47.5095 14.0414 47.3563 14.4373C46.781 15.9202 46.1952 17.3989 45.6455 18.8914C45.5222 19.2269 45.3336 19.3486 45.0064 19.385C44.0464 19.4922 43.0863 19.6043 42.129 19.7363C41.6986 19.7954 41.2743 19.9013 40.8487 19.9934C40.6324 20.0402 40.4279 20.0731 40.2207 19.9439C38.9092 19.1265 37.4584 18.6302 35.9999 18.1531C35.9257 18.129 35.8536 18.0981 35.7393 18.0541C37.4389 16.7025 39.2821 15.6947 41.354 15.0423C41.171 14.9282 41.0463 15.0478 40.9159 15.0643C40.7804 15.0878 40.6473 15.1232 40.5181 15.1702C39.205 15.5846 37.9479 16.1567 36.7749 16.8737C36.644 16.9627 36.4936 17.0196 36.3362 17.0396C36.1788 17.0595 36.0188 17.042 35.8696 16.9885C33.7256 16.3292 31.5878 15.6555 29.6108 14.5721C28.6196 14.0283 27.6845 13.4034 26.915 12.5674C25.9044 11.4675 25.5349 10.2067 26.0645 8.77954C26.9358 6.45042 28.4227 4.5489 30.261 2.87769Z" fill="white"/>
<path d="M29.2219 15.9902C28.0774 16.4522 26.924 16.7464 25.7747 17.0462C25.2985 17.1713 24.8042 17.2345 24.328 17.3521C24.1305 17.4009 24.0286 17.3452 23.9315 17.1891C23.0816 15.8428 22.5771 14.3105 22.462 12.7261C22.1916 8.97261 23.2279 5.58136 25.4808 2.59228C26.0296 1.88038 26.6441 1.22077 27.3163 0.622016C27.3974 0.549832 28.1204 -0.0984437 28.2535 0.056235C28.3402 0.157292 28.1842 0.27416 28.1052 0.367655C27.4231 1.17198 26.7507 1.98388 26.1518 2.85214C25.2312 4.18788 24.5069 5.61161 24.2109 7.21958C23.4962 11.0694 25.4586 14.1698 28.7166 15.6905C28.8746 15.7654 29.0548 15.8156 29.2219 15.9902Z" fill="white"/>
<path d="M38.8254 7.53507C38.7901 7.95855 38.6632 8.36552 38.5558 8.7725C38.3405 9.57236 38.0673 10.3558 37.7385 11.1167C37.6366 11.356 37.5201 11.3917 37.2956 11.2914C37.0953 11.2071 36.8894 11.1366 36.6793 11.0803C36.5497 11.0418 36.488 10.9806 36.5878 10.8651C37.4474 9.87519 38.1017 8.756 38.6819 7.59076C38.702 7.55226 38.7332 7.5172 38.8254 7.53507Z" fill="white"/>
<path d="M29.351 29.1655L29.2948 29.2783C29.2165 29.2288 29.272 29.1697 29.2831 29.1133L29.351 29.1655Z" fill="#FDFDFD"/>
<path d="M27.0849 17.7493C27.0579 17.9961 27.1099 18.291 26.7217 18.3137C26.6635 18.3171 26.6115 18.3364 26.572 18.2787C26.4715 18.1336 26.6656 17.6159 26.8395 17.563C27.0135 17.5101 27.1473 17.5004 27.0849 17.7493Z" fill="#FDFDFD"/>
<path d="M24.5491 18.3069C24.5449 18.7056 24.4333 18.8445 24.1331 18.8431C24.0285 18.8431 23.9696 18.8473 23.9758 18.7022C23.9897 18.3385 24.1373 18.111 24.3917 18.1158C24.5442 18.1192 24.5511 18.1282 24.5491 18.3069Z" fill="#FDFDFD"/>
<path d="M23.5241 18.2287C23.5935 18.2191 23.7002 18.2211 23.6926 18.294C23.6809 18.4841 23.6395 18.6713 23.5699 18.8488C23.511 18.9787 23.3363 18.9622 23.2018 18.9746C23.1797 18.9791 23.1567 18.9755 23.1372 18.9643C23.1177 18.9532 23.1029 18.9353 23.0958 18.9141C22.998 18.6914 23.2808 18.2335 23.5241 18.2287Z" fill="#FDFDFD"/>
<path d="M24.8203 18.4979C24.8792 18.2683 24.8203 17.963 25.2127 17.9376C25.3617 17.928 25.3825 17.983 25.3818 18.1081C25.3818 18.4745 25.2147 18.6945 24.9382 18.6959C24.7704 18.6986 24.8446 18.5804 24.8203 18.4979Z" fill="#FDFDFD"/>
<path d="M27.3941 17.8616C27.444 17.6396 27.3816 17.3398 27.7539 17.322C27.8114 17.322 27.8689 17.3089 27.9091 17.3625C27.9986 17.4801 27.8162 18.017 27.6672 18.063C27.4946 18.116 27.3359 18.1359 27.3941 17.8616Z" fill="#FDFDFD"/>
<path d="M25.7236 18.3087C25.7367 18.0406 25.7402 17.7958 26.0639 17.7525C26.1332 17.7436 26.1991 17.725 26.2462 17.7979C26.3308 17.9278 26.1464 18.4558 25.9981 18.4854C25.8331 18.5232 25.6536 18.561 25.7236 18.3087Z" fill="#FDFDFD"/>
<path d="M22.3698 19.0424C22.2312 19.0555 22.1542 19.0349 22.2312 18.8575C22.3227 18.6368 22.3109 18.3392 22.672 18.3557C22.7254 18.3557 22.7857 18.3378 22.8197 18.4052C22.9174 18.608 22.6131 19.05 22.3698 19.0424Z" fill="#FDFDFD"/>
<path d="M3.45219 41.3147C3.45219 42.2691 3.11697 42.9086 2.44652 43.2332C2.23068 43.3399 1.99256 43.3947 1.75139 43.3933C1.33498 43.3891 0.932668 43.2431 0.611822 42.9798C0.295276 42.7375 0.137003 42.5243 0.137003 42.3404C0.136561 42.3238 0.139804 42.3074 0.146499 42.2923C0.152197 42.2782 0.158844 42.265 0.164542 42.2528C0.204183 42.2089 0.25282 42.1739 0.307195 42.1502C0.361569 42.1265 0.420426 42.1146 0.479822 42.1153C0.516316 42.1156 0.552769 42.1178 0.589031 42.1219C0.64312 42.1285 0.696726 42.1386 0.74952 42.152C0.845513 42.1722 0.943025 42.1845 1.04106 42.1887C1.10536 42.1887 1.16933 42.1795 1.23099 42.1614C1.42014 42.1086 1.60365 42.0376 1.77893 41.9495C1.92219 41.8774 2.05221 41.7819 2.16353 41.667C2.37074 41.4684 2.51554 41.2146 2.58042 40.9361C2.58042 40.89 2.44178 40.7158 2.15404 40.4116C1.86629 40.1074 1.7229 39.8964 1.74094 39.7862C1.75994 39.7002 1.87294 39.5285 2.07996 39.271C2.28698 39.0136 2.43386 38.8711 2.5206 38.8435C2.65639 38.7983 2.83588 39.0167 3.05809 39.5027C3.16672 39.7279 3.25445 39.9624 3.32019 40.2034C3.3789 40.4191 3.41705 40.6399 3.43415 40.8627C3.43985 40.9455 3.44459 41.0247 3.44744 41.0991C3.45029 41.1735 3.45219 41.245 3.45219 41.3147Z" fill="#EF1A17"/>
<path d="M5.24607 41.9907H4.05902C3.833 41.9907 3.72 41.8682 3.72 41.6234V37.4616C3.71155 37.3354 3.73403 37.209 3.78552 37.0933C3.81591 37.0378 3.95361 36.9417 4.19766 36.8033C4.32883 36.721 4.46707 36.6504 4.61076 36.5923V39.3838C4.61376 39.4465 4.63821 39.5063 4.68008 39.5533C4.71997 39.6089 4.7513 39.6362 4.77504 39.6362H5.24986L5.24607 41.9907Z" fill="#EF1A17"/>
<path d="M8.40846 41.991H7.88901C7.82898 41.9883 7.77029 41.9726 7.71712 41.9448C7.66413 41.9176 7.6058 41.9022 7.54619 41.8996C7.39804 41.8996 7.2556 42.0032 7.1198 42.2123C6.984 42.4214 6.8539 42.5287 6.73994 42.5287C6.55419 42.514 6.3761 42.4489 6.22524 42.3404L5.99828 42.1869C5.9242 42.136 5.84823 42.0861 5.77131 42.0371C5.71021 42.0043 5.64133 41.9883 5.57189 41.991H4.68018V39.6365H5.30599C5.3777 39.602 5.44744 39.5636 5.51491 39.5216C5.60484 39.4635 5.68604 39.3931 5.75612 39.3125C5.87409 39.1819 5.98413 39.0445 6.08564 38.9009C6.27557 38.6372 6.48417 38.5054 6.71145 38.5054C6.8539 38.5054 7.05617 38.6623 7.31827 38.9763C7.47971 39.1646 7.61171 39.32 7.71522 39.4265C7.78295 39.5013 7.85662 39.5706 7.93554 39.6337C7.98207 39.6647 8.01721 39.6741 8.0419 39.661C8.06869 39.6489 8.09671 39.6398 8.12547 39.6337H8.41036L8.40846 41.991ZM7.04478 39.8164C7.04478 39.7121 6.94981 39.6139 6.75989 39.5216L6.70386 39.5037C6.68462 39.4971 6.66437 39.4939 6.64403 39.4943C6.61232 39.4927 6.58069 39.4985 6.55166 39.5113C6.52264 39.5241 6.49703 39.5434 6.47689 39.5677C6.45646 39.5841 6.43955 39.6044 6.42715 39.6273C6.41476 39.6503 6.40713 39.6755 6.40472 39.7015C6.40419 39.7106 6.40552 39.7197 6.40862 39.7282C6.41172 39.7368 6.41653 39.7447 6.42276 39.7514L6.87289 39.9077C6.89025 39.9151 6.90912 39.9184 6.92797 39.9171C7.00679 39.9171 7.04478 39.8832 7.04478 39.8164Z" fill="#EF1A17"/>
<path d="M11.5801 39.7287C11.6079 39.8116 11.5104 40.1949 11.2876 40.8786C11.0647 41.5624 10.9039 41.9272 10.8052 41.973C10.7231 41.9902 10.6391 41.9962 10.5554 41.9909H7.84229V39.6364H8.99705C9.1205 39.6364 9.17178 39.5676 9.14994 39.4292C9.14386 39.4013 9.14068 39.3729 9.14044 39.3444V39.2503C9.14044 38.9282 9.2354 38.6852 9.41868 38.5053C9.62317 38.3119 9.92009 38.2152 10.3094 38.2152C10.5197 38.2126 10.7287 38.2487 10.9258 38.3216C11.1081 38.3951 11.2132 38.4893 11.241 38.6042C11.2657 38.7115 11.2847 38.801 11.2971 38.8726C11.3074 38.9267 11.3134 38.9815 11.3151 39.0365C11.3151 39.1956 11.2581 39.2955 11.1442 39.335C11.1071 39.3501 11.0378 39.3162 10.9353 39.2333C10.8465 39.1562 10.7332 39.1125 10.6152 39.1099C10.5436 39.111 10.4728 39.125 10.4063 39.1514C10.3391 39.164 10.2788 39.2001 10.2362 39.2532C10.1937 39.3063 10.1718 39.3728 10.1746 39.4405C10.1746 39.5724 10.2259 39.6383 10.3275 39.6383H11.4319C11.4634 39.6338 11.4954 39.6404 11.5225 39.6569C11.5496 39.6734 11.5699 39.6988 11.5801 39.7287Z" fill="#EF1A17"/>
<path d="M16.448 41.9907H15.938C15.8888 41.9849 15.8438 41.9602 15.8127 41.922C15.8006 41.9025 15.7844 41.8858 15.7653 41.8732C15.7461 41.8605 15.7244 41.8521 15.7016 41.8485C15.6712 41.8485 15.5709 41.965 15.4006 42.1979C15.2334 42.4305 15.0387 42.5567 14.8165 42.5746C14.6399 42.5872 14.425 42.4861 14.1717 42.2714C13.9185 42.0567 13.7406 41.9509 13.638 41.954C13.5925 41.9547 13.5479 41.9674 13.5089 41.9907C13.4377 42.0275 13.4016 42.1716 13.4016 42.423C13.4016 42.4936 13.4016 42.5784 13.4111 42.6782C13.4206 42.7781 13.4263 42.8939 13.4386 43.0258C13.4509 43.1576 13.4642 43.2669 13.469 43.345C13.4737 43.4232 13.4766 43.475 13.4766 43.4995C13.4766 43.5456 13.4766 43.5701 13.4671 43.5729C13.2192 43.8856 13.0141 44.0269 12.8498 43.9958C12.7701 43.9833 12.6665 43.4744 12.5393 42.4692C12.4804 42.0177 12.4358 41.6253 12.4054 41.2919C12.3741 40.9576 12.356 40.6788 12.3494 40.4547C12.3503 40.2385 12.4291 40.0297 12.5716 39.866C12.7114 39.6758 12.9157 39.542 13.1471 39.4893C13.3573 39.4385 13.5789 39.4629 13.7729 39.5581C13.7729 39.4953 13.8995 39.3283 14.1527 39.057C14.4376 38.7431 14.6741 38.599 14.8621 38.6248C14.9876 38.6393 15.1078 38.6836 15.2125 38.7538C15.3304 38.835 15.4346 38.9341 15.5212 39.0476C15.6225 39.1864 15.7051 39.3044 15.769 39.4017C15.8202 39.4773 15.8644 39.5574 15.901 39.6409H16.448V41.9907ZM15.1593 39.9489C15.1783 39.8849 15.1318 39.8001 15.0207 39.6965C14.9382 39.6084 14.8253 39.5543 14.7045 39.5449C14.5782 39.5449 14.5145 39.6108 14.5145 39.7417C14.5192 39.7873 14.5356 39.8309 14.5623 39.8684C14.5889 39.9058 14.6248 39.9358 14.6665 39.9555C14.758 40.0137 14.8636 40.0462 14.9723 40.0497C15.0777 40.0497 15.1413 40.0167 15.1593 39.9489Z" fill="white"/>
<path d="M18.8219 41.991H15.8828V39.6459H16.9996C17.1202 39.6459 17.1895 39.5989 17.2085 39.5037C17.2237 39.4265 17.1686 39.1355 17.0414 38.6297C16.9781 38.3717 16.935 38.1501 16.9122 37.9648C16.8884 37.8134 16.8836 37.6597 16.898 37.5071C16.9075 37.3878 17.0619 37.2192 17.3614 37.0014C17.6609 36.7835 17.8698 36.6824 17.9882 36.6981C18.0515 36.7075 18.1287 36.8686 18.2199 37.1813C18.311 37.4939 18.3481 37.6977 18.331 37.7925C18.3236 37.8165 18.3134 37.8396 18.3006 37.8612C18.2825 37.8907 18.2598 37.9172 18.2332 37.9394C18.184 37.9809 18.1506 38.0377 18.1382 38.1005C18.1287 38.205 18.1221 38.2615 18.1192 38.2709V38.2436C18.1202 38.2349 18.1225 38.2263 18.1259 38.2182C18.1259 38.2182 18.1259 38.2182 18.1259 38.2248L18.2693 39.6375H18.8162L18.8219 41.991Z" fill="white"/>
<path d="M21.9845 41.9906H20.9883C20.816 41.9852 20.6498 41.9258 20.5135 41.8211C20.4333 41.7691 20.3613 41.7056 20.2998 41.6327C20.2401 41.559 20.1903 41.478 20.1517 41.3916C20.0969 41.5672 19.9842 41.7195 19.8317 41.8239C19.7059 41.924 19.552 41.9832 19.391 41.9934H18.2515V39.6389H19.391C19.552 39.6287 19.7059 39.5695 19.8317 39.4694C19.9842 39.365 20.0969 39.2127 20.1517 39.0371C20.1903 39.1235 20.2401 39.2045 20.2998 39.2782C20.3613 39.3511 20.4333 39.4146 20.5135 39.4666C20.6498 39.5713 20.816 39.6307 20.9883 39.6361H21.9845V41.9906ZM21.0671 42.8184C21.0671 42.8674 20.9788 42.9795 20.8022 43.1547C20.6256 43.3298 20.5145 43.4155 20.4689 43.4118C20.4125 43.4118 20.2501 43.2768 19.9817 43.0068C19.7126 43.2768 19.5458 43.4118 19.4812 43.4118C19.4319 43.4118 19.3198 43.3261 19.147 43.1547C18.9741 42.9833 18.8925 42.8721 18.8925 42.8184C18.8925 42.7648 18.9789 42.6687 19.1517 42.4963C19.3246 42.324 19.4366 42.2345 19.4812 42.2345C19.5705 42.2345 19.7405 42.3664 19.9912 42.6301C20.2324 42.3664 20.391 42.2345 20.466 42.2345C20.5154 42.2345 20.6265 42.3202 20.7993 42.4916C20.9722 42.663 21.0614 42.772 21.0671 42.8184Z" fill="white"/>
<path d="M24.4751 39.6365C24.4705 40.0478 24.4269 40.4577 24.345 40.8608C24.2614 41.3173 24.1734 41.6193 24.081 41.7669C24.0387 41.8372 23.9779 41.8948 23.9052 41.9337C23.8324 41.9725 23.7504 41.991 23.6679 41.9872H21.2292V39.6327H22.5179C22.4827 39.5532 22.4563 39.4702 22.4391 39.385C22.4253 39.3059 22.4253 39.225 22.4391 39.1458C22.4669 38.9185 22.6122 38.7007 22.875 38.4922C23.0595 38.336 23.2816 38.2299 23.5198 38.1843C23.9281 38.1259 24.2326 38.4492 24.4333 39.1543C24.4685 39.3125 24.4825 39.4747 24.4751 39.6365ZM23.4305 37.4336C23.4305 37.4889 23.333 37.6145 23.138 37.8104C22.9481 37.9987 22.8218 38.0929 22.7629 38.0929C22.704 38.0929 22.5853 37.9987 22.3831 37.8104C22.1808 37.622 22.0982 37.4901 22.0982 37.4336C22.0982 37.3771 22.1931 37.2575 22.3831 37.0569C22.573 36.8563 22.7031 36.7668 22.7629 36.7668C22.8227 36.7668 22.9462 36.861 23.138 37.0569C23.3299 37.2528 23.4315 37.379 23.4315 37.4336H23.4305ZM23.8294 39.5122C23.8213 39.4154 23.7765 39.3252 23.704 39.2598C23.6532 39.1955 23.5883 39.1436 23.5141 39.1082C23.4921 39.1032 23.4693 39.1035 23.4475 39.1091C23.4257 39.1147 23.4055 39.1253 23.3887 39.1402C23.3674 39.1581 23.3504 39.1807 23.3392 39.2062C23.328 39.2317 23.3229 39.2593 23.3242 39.2871C23.3264 39.374 23.3601 39.4573 23.4191 39.5216C23.4467 39.5686 23.4858 39.608 23.5328 39.6361C23.5797 39.6643 23.6331 39.6803 23.6879 39.6827C23.7828 39.6827 23.8303 39.6261 23.8303 39.5122H23.8294Z" fill="white"/>
<path d="M30.8228 41.9911L30.2055 42.0005C30.1438 42.0005 30.0811 41.9516 30.0156 41.8536C29.95 41.7557 29.9111 41.7104 29.8769 41.7104C29.7959 41.7104 29.6845 41.9145 29.5426 42.3226C29.416 42.6818 29.1071 42.9957 28.6158 43.2644C28.1496 43.5292 27.6222 43.67 27.085 43.6732C26.5532 43.6732 26.1189 43.5247 25.7821 43.2277C25.3655 42.866 25.1569 42.4338 25.1562 41.9308C25.1562 41.4649 25.3262 40.9865 25.6662 40.4955C25.9695 40.0698 26.1983 39.857 26.3528 39.857C26.3898 39.857 26.4079 39.889 26.4079 39.9512C26.4079 39.97 26.4079 40.0086 26.3965 40.0689C26.3851 40.1292 26.3775 40.2073 26.3623 40.3053C26.3471 40.4032 26.3348 40.5012 26.3272 40.5878C26.3196 40.6745 26.3158 40.7545 26.3158 40.8252C26.3044 41.091 26.3703 41.3545 26.5057 41.5842C26.6452 41.7919 26.8524 41.9458 27.0926 42.0203C27.1463 42.0392 27.2027 42.0494 27.2597 42.0504C27.3338 42.0504 27.4268 42.058 27.538 42.058C27.9767 42.058 28.2103 42.0052 28.2378 41.9016C28.2657 41.8125 28.0758 41.6897 27.6681 41.5334C27.2445 41.3676 27.0229 41.2603 27.0033 41.2113C26.9603 41.1039 27.0438 40.8311 27.254 40.3929C27.4642 39.9546 27.6282 39.7094 27.7459 39.6573C27.8776 39.6383 28.0109 39.6319 28.1438 39.6385H30.8199L30.8228 41.9911Z" fill="white"/>
<path d="M33.5956 39.7285C33.5915 39.9565 33.5651 40.1836 33.5168 40.4066C33.4537 40.7029 33.3732 40.9954 33.2756 41.2824C33.0128 42.0679 32.7207 42.4603 32.3991 42.4597C32.2891 42.4602 32.1794 42.4478 32.0724 42.423C31.9699 42.3991 31.872 42.3587 31.7827 42.3034C31.7144 42.261 31.6488 42.2158 31.5852 42.1677C31.5216 42.1197 31.458 42.0736 31.3953 42.0274C31.3181 41.9948 31.2338 41.9822 31.1503 41.9907H30.2595V39.6362H30.8853C30.957 39.6017 31.0268 39.5633 31.0943 39.5213C31.1836 39.4643 31.2647 39.3955 31.3355 39.3169C31.453 39.1909 31.5631 39.0582 31.665 38.9195C31.8549 38.6567 32.0676 38.5183 32.2908 38.506C32.4076 38.5004 32.6137 38.6548 32.9071 38.9703C33.0894 39.1637 33.2363 39.3163 33.3477 39.428C33.4186 39.5044 33.4962 39.5743 33.5795 39.6371C33.589 39.639 33.5956 39.6729 33.5956 39.7285ZM32.6308 39.8161C32.6308 39.7118 32.5358 39.6136 32.3459 39.5213L32.2908 39.5034C32.2728 39.4971 32.2539 39.4939 32.2348 39.494C32.2025 39.4921 32.1702 39.4978 32.1405 39.5105C32.1108 39.5233 32.0846 39.5428 32.0638 39.5674C32.0438 39.584 32.0273 39.6044 32.0152 39.6273C32.0031 39.6503 31.9958 39.6754 31.9936 39.7012C31.9932 39.7103 31.9946 39.7195 31.9979 39.728C32.0012 39.7366 32.0061 39.7445 32.0126 39.7511L32.4617 39.9074C32.4794 39.9148 32.4986 39.918 32.5178 39.9168C32.5918 39.9168 32.6308 39.8829 32.6308 39.8161Z" fill="white"/>
<path d="M36.983 41.5406C36.983 41.6631 36.8472 41.7689 36.5756 41.858C36.2381 41.9545 35.8878 41.9993 35.5367 41.9908C35.0391 41.9908 34.6541 41.9004 34.3819 41.7196C34.192 41.5902 34.097 41.4647 34.097 41.3429V39.8247C34.095 39.7518 34.1216 39.6809 34.1711 39.6269C34.1907 39.6012 34.2173 39.5816 34.2477 39.5702C34.2781 39.5589 34.3112 39.5563 34.343 39.5629C34.4696 39.5842 34.6026 39.6002 34.7418 39.6109C34.8805 39.6222 35.0267 39.6269 35.192 39.6269C35.5566 39.6269 35.739 39.5858 35.739 39.5035C35.7475 39.3312 35.6354 39.1664 35.3999 39.0063C35.1644 38.8462 35.0448 38.7426 35.0476 38.6936C35.0476 38.5994 35.1359 38.4666 35.3031 38.2896C35.4702 38.1125 35.6316 38.0211 35.7779 38.0174C35.9241 38.0136 36.1843 38.234 36.5148 38.6936C36.8276 39.13 36.9836 39.4125 36.983 39.5412V41.5406Z" fill="white"/>
<path d="M41.4111 41.9906H40.6647C40.6647 42.4301 40.4748 42.8257 40.0949 43.1773C39.7296 43.5088 39.357 43.6726 38.9772 43.6689C38.7014 43.6638 38.4322 43.5844 38.1985 43.4391C37.9641 43.2805 37.7531 43.0903 37.5717 42.874C37.4267 42.7045 37.3542 42.5817 37.3542 42.5058C37.3542 42.4172 37.4359 42.372 37.6002 42.372C37.6637 42.3735 37.7271 42.3782 37.7901 42.3861C37.8737 42.3956 37.9212 42.4003 37.9335 42.4003C38.29 42.4122 38.6698 42.2895 39.0731 42.032C39.4966 41.7589 39.7363 41.4553 39.792 41.1213C39.7986 41.0874 39.6666 40.9103 39.3979 40.5882C39.1291 40.2661 38.9943 40.0731 38.9943 40.009C38.9943 39.9167 39.0949 39.7284 39.2963 39.444C39.4976 39.1595 39.6321 39.0201 39.6999 39.0258C39.7426 39.0258 39.8186 39.0974 39.9268 39.2415C40.0117 39.3714 40.1258 39.48 40.2601 39.5589C40.3217 39.5939 40.3894 39.6172 40.4596 39.6276H41.4149L41.4111 41.9906Z" fill="white"/>
<path d="M44.1842 39.7287C44.1801 39.9567 44.1537 40.1838 44.1054 40.4068C44.0428 40.7033 43.9622 40.9957 43.8642 41.2827C43.6021 42.0681 43.3099 42.4605 42.9877 42.4599C42.8777 42.4604 42.7681 42.448 42.661 42.4232C42.5585 42.3993 42.4606 42.3589 42.3714 42.3036C42.303 42.2615 42.2375 42.2163 42.1748 42.1679L41.9849 42.0276C41.9073 41.9951 41.8227 41.9824 41.7389 41.9909H40.8481V39.6364H41.4749C41.4806 39.6364 41.5499 39.5987 41.6829 39.5215C41.7724 39.4647 41.8536 39.396 41.9241 39.3171C42.042 39.1911 42.152 39.058 42.2536 38.9187C42.4435 38.656 42.6572 38.5175 42.8794 38.5053C42.9972 38.4996 43.2023 38.6541 43.4967 38.9696C43.679 39.163 43.8256 39.3155 43.9364 39.4273C44.0075 39.5037 44.0854 39.5737 44.169 39.6364C44.1785 39.6392 44.1842 39.6731 44.1842 39.7287ZM43.2194 39.8163C43.2194 39.7117 43.1244 39.6138 42.9345 39.5215L42.8785 39.5036C42.8608 39.4973 42.8422 39.4941 42.8234 39.4942C42.7909 39.4922 42.7585 39.4979 42.7286 39.5106C42.6988 39.5234 42.6724 39.5429 42.6515 39.5676C42.6316 39.5843 42.6152 39.6046 42.6033 39.6276C42.5914 39.6506 42.5842 39.6756 42.5822 39.7014C42.5817 39.7105 42.583 39.7196 42.5861 39.7281C42.5892 39.7367 42.594 39.7446 42.6002 39.7513L43.0504 39.9076C43.0677 39.915 43.0866 39.9183 43.1054 39.917C43.1814 39.917 43.2194 39.8831 43.2194 39.8163Z" fill="white"/>
<path d="M47.1441 40.6149C47.1486 40.9099 47.0611 41.1991 46.8934 41.4428C46.7335 41.6885 46.4876 41.867 46.203 41.9438C46.0797 41.9801 45.9518 41.9989 45.8232 41.9994C45.5716 42.0058 45.3251 41.9282 45.1233 41.779C45.0269 41.7111 44.9463 41.6234 44.8871 41.5218C44.828 41.4202 44.7916 41.3072 44.7805 41.1904C44.7566 40.9586 44.7915 40.7245 44.8821 40.5095C44.997 40.2147 45.167 40.0169 45.3968 39.9161L45.2439 39.7183C45.259 39.6859 45.2762 39.6545 45.2952 39.6242C45.3227 39.579 45.3626 39.5159 45.4158 39.4358C45.4872 39.316 45.5762 39.2075 45.6798 39.1137C45.6964 39.1083 45.7137 39.1054 45.7311 39.1052C45.9039 39.1052 46.1572 39.2277 46.4908 39.4725C46.8637 39.7488 47.0767 40.0386 47.1299 40.3418C47.1365 40.3851 47.1413 40.4294 47.1441 40.4756C47.147 40.5217 47.1441 40.5697 47.1441 40.6149ZM46.3284 40.5C46.3284 40.4661 46.2572 40.3993 46.1052 40.2976C45.9533 40.1958 45.8659 40.1582 45.8317 40.1732C45.8012 40.1859 45.7736 40.2044 45.7503 40.2277C45.727 40.251 45.7086 40.2786 45.696 40.3089C45.6835 40.3393 45.6771 40.3718 45.6773 40.4046C45.6774 40.4374 45.6841 40.4698 45.6969 40.5C45.7282 40.5942 45.8298 40.6432 46.0036 40.6432C46.1945 40.6441 46.3028 40.5961 46.3313 40.501L46.3284 40.5Z" fill="white"/>
<path d="M51.1325 41.3147C51.1325 42.2691 50.7972 42.9086 50.1268 43.2332C49.9121 43.3393 49.6754 43.3941 49.4355 43.3933C49.0191 43.3891 48.6167 43.2431 48.2959 42.9798C47.9794 42.7375 47.8211 42.5243 47.8211 42.3404C47.8206 42.3238 47.8239 42.3074 47.8306 42.2923C47.8363 42.2782 47.8429 42.265 47.8486 42.2528C47.8883 42.2089 47.9369 42.1739 47.9913 42.1502C48.0457 42.1265 48.1045 42.1146 48.1639 42.1153C48.2004 42.1156 48.2369 42.1178 48.2731 42.1219C48.3269 42.1284 48.3802 42.1385 48.4327 42.152C48.529 42.1721 48.6268 42.1844 48.7251 42.1887C48.7894 42.1886 48.8534 42.1794 48.9151 42.1614C49.104 42.1088 49.2872 42.0378 49.4621 41.9495C49.6057 41.8776 49.7361 41.7821 49.8476 41.667C50.0548 41.4684 50.1996 41.2146 50.2645 40.9361C50.2645 40.89 50.1259 40.7158 49.8381 40.4116C49.5504 40.1074 49.407 39.8964 49.425 39.7862C49.444 39.7002 49.557 39.5285 49.764 39.271C49.9711 39.0136 50.1179 38.8711 50.2047 38.8435C50.3405 38.7983 50.52 39.0167 50.7422 39.5027C50.8508 39.7279 50.9385 39.9624 51.0043 40.2034C51.0625 40.4192 51.1007 40.6399 51.1182 40.8627C51.1239 40.9455 51.1287 41.0247 51.1315 41.0991C51.1344 41.1735 51.1325 41.245 51.1325 41.3147Z" fill="white"/>
<path d="M53.1685 38.344C53.1701 38.3714 53.1635 38.3986 53.1495 38.4222C53.0771 38.4958 52.9927 38.5566 52.8997 38.6021C52.9396 38.6567 52.9596 38.954 52.9596 39.494C52.9596 40.6869 52.8963 41.3308 52.7696 41.4256C52.7506 41.4407 52.706 41.4793 52.6348 41.5405C52.5636 41.6017 52.4648 41.6893 52.3385 41.8023C52.2756 41.8619 52.2061 41.9143 52.1315 41.9587C52.0865 41.9878 52.0349 42.0052 51.9814 42.0095C51.9406 41.6168 51.9074 41.2278 51.8789 40.8407C51.8504 40.4537 51.8248 40.0656 51.8001 39.6729C51.7944 39.5655 51.7782 39.4205 51.7516 39.2359C51.725 39.0513 51.6937 38.8281 51.6567 38.5644C51.6093 38.2838 51.5776 38.0009 51.5617 37.7168C51.5597 37.6764 51.5646 37.636 51.5759 37.5972C51.5826 37.5633 51.6339 37.5181 51.7317 37.4616C51.8295 37.4051 51.97 37.3335 52.1552 37.2478C52.5269 37.0764 52.7294 37.0073 52.763 37.0406C52.8029 37.0811 52.8817 37.2751 52.9994 37.6254C53.0555 37.7997 53.0944 37.9466 53.1267 38.0643C53.1513 38.1557 53.1653 38.2495 53.1685 38.344Z" fill="white"/>
<path d="M57.4381 41.991H56.8123C56.8496 42.1938 56.6888 42.4851 56.3298 42.865C55.9183 43.3001 55.4777 43.5177 55.0079 43.5177C54.7801 43.5179 54.5558 43.4626 54.3546 43.3566C54.1893 43.2636 54.0417 43.1424 53.9187 42.9987C53.7573 42.8292 53.6775 42.6945 53.6775 42.5937C53.6775 42.493 53.744 42.4628 53.8769 42.4694C54.0433 42.4756 54.21 42.4693 54.3755 42.4506C54.5317 42.4319 54.6861 42.4004 54.837 42.3564C55.0358 42.3014 55.2271 42.2227 55.4068 42.1219C55.4792 42.0867 55.5463 42.0417 55.6062 41.9882C55.5635 41.9948 55.5207 41.9995 55.479 42.0023C55.4372 42.0051 55.3944 42.0023 55.3517 42.0023C55.0194 42.0147 54.6931 41.9121 54.4287 41.7122C54.2153 41.544 54.1086 41.2696 54.1086 40.8891C54.1086 40.6128 54.1874 40.1774 54.3451 39.5828C54.6078 38.5782 54.9943 38.0759 55.5046 38.0759C55.5451 38.076 55.5854 38.0798 55.6252 38.0872C55.6676 38.0953 55.7092 38.1069 55.7496 38.1221C55.9167 38.1849 56.1241 38.4238 56.3716 38.8388C56.6192 39.2538 56.7287 39.5175 56.7002 39.6299H57.4381V41.991ZM55.8617 39.6732C55.8949 39.6337 55.8617 39.5338 55.7458 39.3747C55.63 39.2155 55.5245 39.126 55.4163 39.126C55.3881 39.128 55.3607 39.136 55.3359 39.1495C55.3111 39.163 55.2896 39.1816 55.2729 39.2042C55.2338 39.2456 55.2106 39.2992 55.2074 39.3558C55.2074 39.45 55.2691 39.531 55.3973 39.6045C55.5014 39.6702 55.6215 39.7067 55.7449 39.71C55.8056 39.71 55.8455 39.6977 55.8617 39.6732Z" fill="white"/>
<path d="M60.6004 41.9907H59.6033C59.431 41.9852 59.2648 41.9259 59.1285 41.8212C59.0483 41.7691 58.9763 41.7057 58.9148 41.6328C58.8555 41.5589 58.8057 41.4779 58.7667 41.3917C58.7123 41.5675 58.5995 41.7198 58.4467 41.824C58.3209 41.9241 58.167 41.9833 58.006 41.9935H56.8665V39.639H58.006C58.167 39.6288 58.3209 39.5696 58.4467 39.4695C58.5995 39.3653 58.7123 39.213 58.7667 39.0372C58.8057 39.1234 58.8555 39.2044 58.9148 39.2783C58.9763 39.3512 59.0483 39.4147 59.1285 39.4667C59.2648 39.5714 59.431 39.6307 59.6033 39.6362H60.6004V41.9907ZM59.3108 38.0916C59.3108 38.1463 59.2136 38.2703 59.0193 38.4636C58.8249 38.657 58.7012 38.7512 58.648 38.7462C58.5847 38.7462 58.4596 38.652 58.2729 38.4636C58.0861 38.2753 57.9886 38.1513 57.9804 38.0916C57.9804 38.0364 58.0779 37.9108 58.2729 37.7149C58.4628 37.5266 58.5891 37.4324 58.648 37.4324C58.7069 37.4324 58.8275 37.5266 59.0193 37.7149C59.2111 37.9033 59.3108 38.0361 59.3108 38.0916Z" fill="white"/>
<path d="M64.551 41.9909H63.8863C63.8069 41.9848 63.7311 41.956 63.6679 41.908C63.6072 41.8604 63.5359 41.8281 63.4599 41.8138C63.3641 41.8119 63.2705 41.8429 63.195 41.9014C63.1181 41.9542 63.0288 41.9867 62.9357 41.9956C62.8495 41.9889 62.7664 41.9604 62.6945 41.9127C62.6204 41.8618 62.5337 41.8319 62.4438 41.8261C62.3596 41.8316 62.279 41.8617 62.2121 41.9127C62.1391 41.9617 62.0541 41.9903 61.9661 41.9956C61.8821 41.9886 61.8018 41.9583 61.7344 41.908C61.6698 41.8487 61.585 41.8158 61.497 41.8158C61.409 41.8158 61.3242 41.8487 61.2596 41.908C61.1894 41.9597 61.1056 41.9901 61.0184 41.9956H60.0308V39.6411H60.9681C61.0325 39.6086 61.0917 39.5667 61.1437 39.5168C61.2206 39.4503 61.3159 39.4086 61.4172 39.3972C61.5064 39.4075 61.5879 39.4522 61.6442 39.5215C61.6697 39.5568 61.7022 39.5864 61.7398 39.6087C61.7774 39.6309 61.8192 39.6451 61.8626 39.6505C61.912 39.6439 61.9593 39.6264 62.001 39.5994C62.0427 39.5723 62.0779 39.5364 62.1038 39.4942C62.1622 39.4107 62.2472 39.349 62.345 39.319C62.44 39.3068 62.5473 39.3557 62.6736 39.4669C62.7576 39.5558 62.8714 39.6113 62.9936 39.6232C63.0789 39.6054 63.1557 39.56 63.2121 39.4942C63.2404 39.4611 63.275 39.4339 63.314 39.4142C63.3529 39.3945 63.3954 39.3826 63.439 39.3793C63.4827 39.3838 63.5248 39.3977 63.5625 39.42C63.6003 39.4422 63.6326 39.4724 63.6574 39.5083C63.6805 39.5439 63.7109 39.5743 63.7468 39.5972C63.7827 39.6201 63.8232 39.6351 63.8654 39.6411H64.5473L64.551 41.9909ZM61.9035 37.9308C61.9035 37.9638 61.8351 38.0513 61.6993 38.1926C61.5635 38.3339 61.4771 38.3951 61.44 38.3951C61.403 38.3951 61.308 38.3273 61.1665 38.1926C61.025 38.0579 60.9624 37.9638 60.9624 37.9308C60.9624 37.8978 61.0298 37.7989 61.1665 37.6633C61.3033 37.5277 61.3992 37.4618 61.44 37.4618C61.4809 37.4618 61.5635 37.5286 61.6993 37.6633C61.8351 37.798 61.9035 37.8837 61.9035 37.9308ZM62.4827 37.328C62.4827 37.3619 62.4153 37.4495 62.2795 37.5899C62.1437 37.7302 62.0535 37.7895 62.0193 37.7895C61.9851 37.7895 61.8883 37.7227 61.7458 37.587C61.6034 37.4514 61.5416 37.3591 61.5416 37.3252C61.5416 37.2913 61.61 37.1934 61.7458 37.0587C61.8816 36.924 61.9794 36.8562 62.0193 36.8562C62.0592 36.8562 62.1428 36.924 62.2795 37.0587C62.4163 37.1934 62.4827 37.2847 62.4827 37.328ZM63.081 37.9308C63.081 37.9638 63.0136 38.0513 62.8768 38.1926C62.7401 38.3339 62.6546 38.3951 62.6176 38.3951C62.5805 38.3951 62.4865 38.3273 62.3441 38.1926C62.2016 38.0579 62.1399 37.9638 62.1399 37.9308C62.1399 37.8978 62.2083 37.7989 62.3441 37.6633C62.4799 37.5277 62.5777 37.4618 62.6176 37.4618C62.6575 37.4618 62.741 37.5286 62.8768 37.6633C63.0126 37.798 63.081 37.8837 63.081 37.9308Z" fill="white"/>
<path d="M68.8261 39.9555L68.1908 41.6385C68.1763 41.6715 68.1584 41.7031 68.1376 41.7327C68.109 41.7685 68.0754 41.8002 68.0379 41.8269C67.9293 41.927 67.7874 41.9843 67.6391 41.9879H63.9849V39.6334H66.4539C66.126 39.364 65.8509 39.2385 65.6287 39.2567C65.5191 39.2735 65.4146 39.3143 65.3229 39.3763C65.2456 39.4278 65.1588 39.4637 65.0675 39.4818C64.9411 39.4818 64.8775 39.3876 64.8775 39.1917C64.8855 38.9448 64.9787 38.7081 65.1415 38.5211C65.2408 38.3918 65.3708 38.2888 65.5199 38.2213C65.669 38.1537 65.8326 38.1238 65.9962 38.1341C66.2902 38.1593 66.5688 38.2753 66.7929 38.4656C66.8734 38.5284 66.9655 38.6103 67.0693 38.7114C67.1728 38.8112 67.2858 38.9299 67.4102 39.0683C67.5185 39.1939 67.6087 39.2934 67.6809 39.3669C67.7301 39.4206 67.7855 39.4683 67.8461 39.5091C68.0268 39.6051 68.2301 39.6512 68.4349 39.6428C68.6637 39.6485 68.7929 39.6645 68.8242 39.689C68.8755 39.7379 68.8755 39.8265 68.8261 39.9555ZM66.9477 43.1284C66.9477 43.1837 66.8506 43.3093 66.6562 43.5051C66.4577 43.6935 66.3333 43.7877 66.2763 43.7877C66.2194 43.7877 66.0988 43.6935 65.8965 43.5051C65.6942 43.3168 65.6116 43.184 65.6116 43.1284C65.6116 43.0729 65.7066 42.9523 65.8965 42.7517C66.0864 42.5511 66.2165 42.4616 66.2763 42.4616C66.3362 42.4616 66.4577 42.5558 66.6562 42.7517C66.8547 42.9476 66.9477 43.0766 66.9477 43.1312V43.1284Z" fill="white"/>
</svg>
