<svg width="33" height="54" viewBox="0 0 33 54" fill="none" xmlns="http://www.w3.org/2000/svg">
<path fill-rule="evenodd" clip-rule="evenodd" d="M11.2249 46.5719C11.2249 48.0286 9.57308 47.8076 9.57308 47.8076H2.98836C1.96118 47.8076 1.72477 47.023 1.72477 46.3055V45.2479L0 46.5772V46.9535C0 48.7699 0.933447 49.4276 3.02264 49.4276H10.2867C11.6927 49.4276 12.9438 48.4958 12.9438 47.1633V43.6748L11.2249 45.2699V46.5719Z" fill="white"/>
<path fill-rule="evenodd" clip-rule="evenodd" d="M14.0223 49.7871H15.4605V41.877L14.0223 43.4921V49.7871Z" fill="white"/>
<path fill-rule="evenodd" clip-rule="evenodd" d="M17.2573 48.261C17.2573 49.332 16.6388 49.9345 15.4607 49.9345L16.613 51.5841C17.2681 51.5841 19.0562 51.1382 19.0562 48.1183V43.3145L17.2573 45.0311V48.261Z" fill="white"/>
<path fill-rule="evenodd" clip-rule="evenodd" d="M22.2294 49.7863H23.434H23.8637H25.0804C25.8146 49.7863 26.3857 49.5294 26.7932 49.0161C27.1483 48.5805 27.3259 48.0259 27.3259 47.3519V44.0673L25.5886 45.7069V46.8587C25.5886 47.6848 25.2962 48.0977 24.7111 48.0977H21.8535C21.8535 48.0977 21.8722 47.2532 21.8722 46.7852V41.5166L20.1349 43.1789V47.7033C20.1349 49.0921 20.8329 49.7863 22.2294 49.7863Z" fill="white"/>
<path fill-rule="evenodd" clip-rule="evenodd" d="M28.0441 49.7871H29.4823V41.877L28.0441 43.3832V49.7871Z" fill="white"/>
<path fill-rule="evenodd" clip-rule="evenodd" d="M28.738 39C26.1993 39 25.5281 40.803 25.5281 41.4632L27.2349 42.5955C27.2349 41.4078 27.5199 40.8136 28.5947 40.8136H30.2769L32 39H28.738Z" fill="white"/>
<path fill-rule="evenodd" clip-rule="evenodd" d="M5.93651 43.6748H1.79773V45.113H7.55054L5.93651 43.6748Z" fill="white"/>
<path fill-rule="evenodd" clip-rule="evenodd" d="M25.5236 52.3038L26.9663 50.9567C26.9511 50.9361 26.938 50.913 26.922 50.8935C26.5182 50.3954 25.9527 50.1465 25.2256 50.1465C25.2256 50.1465 20.5469 50.1495 20.4944 50.1514L22.2438 51.784H24.6568C25.0081 51.784 25.3265 51.9974 25.5236 52.3038Z" fill="white"/>
<path fill-rule="evenodd" clip-rule="evenodd" d="M23.7302 52.3027H24.5915C24.9706 52.3027 25.1684 52.736 25.1684 52.736L24.6431 53.3814L23.7302 52.3027Z" fill="white"/>
<path fill-rule="evenodd" clip-rule="evenodd" d="M13.9619 0.933128L10.8901 0.16422C8.13497 -0.52559 5.30764 1.02096 4.57629 3.61833L3.80786 6.3463C6.28098 3.45875 9.87236 1.4606 13.9619 0.933128Z" fill="white"/>
<path fill-rule="evenodd" clip-rule="evenodd" d="M0.866876 19.0381L0.163115 21.9342C-0.521921 24.7529 1.01347 27.6445 3.59286 28.3931L6.34625 29.1921C3.48234 26.7307 1.46834 23.1439 0.866876 19.0381Z" fill="white"/>
<path fill-rule="evenodd" clip-rule="evenodd" d="M29.2405 4.6447L26.0197 3.80762C29.22 6.22435 31.4266 9.8361 31.9452 13.9616L32.8299 10.7003C33.5468 8.0576 31.9395 5.34656 29.2405 4.6447Z" fill="white"/>
<path fill-rule="evenodd" clip-rule="evenodd" d="M18.4042 32.0178L21.4918 32.8311C24.1963 33.5429 26.9708 31.9466 27.6891 29.2648L28.5582 26.0195C26.1553 29.1927 22.5453 31.4143 18.4042 32.0178Z" fill="white"/>
<path fill-rule="evenodd" clip-rule="evenodd" d="M21.5698 15.7778C19.3574 15.3517 17.909 13.2131 18.3351 11.0003C18.7612 8.78802 20.9003 7.33965 23.1126 7.76572C25.3255 8.1918 26.7734 10.3309 26.3473 12.5432C25.9212 14.756 23.7821 16.2043 21.5698 15.7778ZM24.2689 23.3377C23.8428 25.55 21.7038 26.9979 19.4914 26.5723C17.2786 26.1462 15.8302 24.0072 16.2567 21.7944C16.6823 19.5826 18.8214 18.1342 21.0343 18.5598C23.2466 18.9859 24.695 21.1254 24.2689 23.3377ZM15.7632 18.0643C14.7799 17.8754 14.136 16.9244 14.3254 15.9412C14.5148 14.9579 15.4653 14.314 16.4486 14.5029C17.4323 14.6928 18.0758 15.6433 17.8864 16.627C17.6969 17.6103 16.7464 18.2537 15.7632 18.0643ZM14.0309 21.3664C13.6048 23.5787 11.4657 25.0266 9.25289 24.601C7.04054 24.1749 5.59263 22.0354 6.01823 19.8236C6.4448 17.6108 8.5834 16.1624 10.7958 16.5885C13.0086 17.0145 14.457 19.1536 14.0309 21.3664ZM8.09707 9.02901C8.52315 6.81621 10.6622 5.36785 12.8746 5.7944C15.0874 6.22048 16.5358 8.35905 16.1093 10.5718C15.6837 12.7842 13.5446 14.2325 11.3317 13.8064C9.11938 13.3804 7.67099 11.2413 8.09707 9.02901ZM16.183 1.9043C8.29661 1.9043 1.90393 8.29687 1.90393 16.1831C1.90393 24.0694 8.29661 30.4624 16.183 30.4624C24.0694 30.4624 30.4621 24.0694 30.4621 16.1831C30.4621 8.29687 24.0694 1.9043 16.183 1.9043Z" fill="#EC145A"/>
</svg>
