<svg width="202" height="202" viewBox="0 0 202 202" fill="none" xmlns="http://www.w3.org/2000/svg">
<rect x="1" y="1" width="200" height="200" stroke="#55A2E7" stroke-opacity="0.6"/>
<path fill-rule="evenodd" clip-rule="evenodd" d="M60.3668 102.239C60.3668 106.098 55.9904 105.513 55.9904 105.513H38.5442C35.8227 105.513 35.1964 103.434 35.1964 101.533V98.731L30.6266 102.253V103.25C30.6266 108.063 33.0998 109.805 38.6351 109.805H57.8812C61.6063 109.805 64.9212 107.336 64.9212 103.806V94.563L60.3668 98.7892V102.239Z" fill="white"/>
<path fill-rule="evenodd" clip-rule="evenodd" d="M67.7792 110.758H71.5897V89.7998L67.7792 94.0792V110.758Z" fill="white"/>
<path fill-rule="evenodd" clip-rule="evenodd" d="M76.3497 106.716C76.3497 109.554 74.711 111.15 71.5896 111.15L74.6427 115.521C76.3783 115.521 81.1159 114.339 81.1159 106.338V93.6104L76.3497 98.1585V106.716Z" fill="white"/>
<path fill-rule="evenodd" clip-rule="evenodd" d="M89.5231 110.758H92.7147H93.8532H97.0768C99.0222 110.758 100.535 110.077 101.615 108.717C102.556 107.563 103.026 106.094 103.026 104.308V95.6055L98.4234 99.9497V103.001C98.4234 105.19 97.6486 106.284 96.0983 106.284H88.5272C88.5272 106.284 88.5767 104.046 88.5767 102.807V88.8474L83.9738 93.2516V105.239C83.9738 108.919 85.8231 110.758 89.5231 110.758Z" fill="white"/>
<path fill-rule="evenodd" clip-rule="evenodd" d="M104.929 110.758H108.74V89.7998L104.929 93.7907V110.758Z" fill="white"/>
<path fill-rule="evenodd" clip-rule="evenodd" d="M106.768 82.1787C100.042 82.1787 98.2632 86.9559 98.2632 88.7049L102.785 91.705C102.785 88.5581 103.54 86.9839 106.388 86.9839H110.845L115.411 82.1787H106.768Z" fill="white"/>
<path fill-rule="evenodd" clip-rule="evenodd" d="M46.3555 94.563H35.3898V98.3735H50.6318L46.3555 94.563Z" fill="white"/>
<path fill-rule="evenodd" clip-rule="evenodd" d="M98.2513 117.426L102.074 113.857C102.033 113.803 101.999 113.742 101.956 113.69C100.887 112.37 99.3881 111.711 97.4618 111.711C97.4618 111.711 85.0654 111.719 84.9264 111.724L89.5613 116.049H95.9548C96.8855 116.049 97.7291 116.615 98.2513 117.426Z" fill="white"/>
<path fill-rule="evenodd" clip-rule="evenodd" d="M93.5001 117.426H95.7821C96.7864 117.426 97.3106 118.574 97.3106 118.574L95.9189 120.284L93.5001 117.426Z" fill="white"/>
<path fill-rule="evenodd" clip-rule="evenodd" d="M143.037 77.8641L138.426 76.7099C134.29 75.6744 130.046 77.9959 128.948 81.8948L127.795 85.9897C131.507 81.6553 136.898 78.6559 143.037 77.8641Z" fill="white"/>
<path fill-rule="evenodd" clip-rule="evenodd" d="M123.38 105.042L122.324 109.389C121.296 113.62 123.6 117.961 127.472 119.085L131.605 120.284C127.306 116.589 124.283 111.205 123.38 105.042Z" fill="white"/>
<path fill-rule="evenodd" clip-rule="evenodd" d="M165.972 83.4352L161.137 82.1787C165.941 85.8064 169.253 91.228 170.031 97.4208L171.359 92.5253C172.436 88.5583 170.023 84.4888 165.972 83.4352Z" fill="white"/>
<path fill-rule="evenodd" clip-rule="evenodd" d="M149.705 124.525L154.34 125.746C158.4 126.814 162.564 124.418 163.643 120.393L164.947 115.521C161.34 120.284 155.921 123.619 149.705 124.525Z" fill="white"/>
<path fill-rule="evenodd" clip-rule="evenodd" d="M154.457 100.147C151.136 99.507 148.962 96.2968 149.601 92.9752C150.241 89.6544 153.452 87.4802 156.773 88.1198C160.095 88.7594 162.268 91.9703 161.628 95.2912C160.989 98.6128 157.778 100.787 154.457 100.147ZM158.509 111.495C157.869 114.816 154.658 116.989 151.337 116.35C148.015 115.711 145.841 112.5 146.482 109.178C147.12 105.858 150.331 103.684 153.653 104.323C156.974 104.962 159.148 108.174 158.509 111.495ZM145.741 103.579C144.265 103.295 143.298 101.868 143.582 100.392C143.867 98.9159 145.294 97.9493 146.77 98.2329C148.246 98.518 149.212 99.9448 148.928 101.421C148.643 102.897 147.217 103.863 145.741 103.579ZM143.14 108.536C142.501 111.857 139.29 114.03 135.968 113.391C132.647 112.751 130.474 109.54 131.113 106.22C131.753 102.898 134.963 100.724 138.284 101.364C141.606 102.003 143.78 105.214 143.14 108.536ZM134.233 90.0161C134.873 86.6945 138.084 84.5204 141.405 85.1607C144.726 85.8003 146.901 89.0104 146.26 92.332C145.621 95.6529 142.41 97.8271 139.089 97.1875C135.768 96.5479 133.594 93.337 134.233 90.0161ZM146.371 79.3213C134.533 79.3213 124.937 88.9171 124.937 100.755C124.937 112.593 134.533 122.19 146.371 122.19C158.209 122.19 167.805 112.593 167.805 100.755C167.805 88.9171 158.209 79.3213 146.371 79.3213Z" fill="#EC145A"/>
</svg>
