<svg width="92" height="92" viewBox="0 0 92 92" fill="none" xmlns="http://www.w3.org/2000/svg">
<path d="M91 1H1V91H91V1Z" stroke="#55A2E7" stroke-opacity="0.595597"/>
<path fill-rule="evenodd" clip-rule="evenodd" d="M41.2249 69.5719C41.2249 71.0286 39.5731 70.8076 39.5731 70.8076H32.9884C31.9612 70.8076 31.7248 70.023 31.7248 69.3055V68.2479L30 69.5772V69.9535C30 71.7699 30.9334 72.4276 33.0226 72.4276H40.2867C41.6927 72.4276 42.9438 71.4958 42.9438 70.1633V66.6748L41.2249 68.2699V69.5719Z" fill="white"/>
<path fill-rule="evenodd" clip-rule="evenodd" d="M44.0223 72.7871H45.4605V64.877L44.0223 66.4921V72.7871Z" fill="white"/>
<path fill-rule="evenodd" clip-rule="evenodd" d="M47.2573 71.261C47.2573 72.332 46.6388 72.9345 45.4607 72.9345L46.613 74.5841C47.2681 74.5841 49.0562 74.1382 49.0562 71.1183V66.3145L47.2573 68.0311V71.261Z" fill="white"/>
<path fill-rule="evenodd" clip-rule="evenodd" d="M52.2294 72.7863H53.434H53.8637H55.0804C55.8146 72.7863 56.3857 72.5294 56.7932 72.0161C57.1483 71.5805 57.3259 71.0259 57.3259 70.3519V67.0673L55.5886 68.7069V69.8587C55.5886 70.6848 55.2962 71.0977 54.7111 71.0977H51.8535C51.8535 71.0977 51.8722 70.2532 51.8722 69.7852V64.5166L50.1349 66.1789V70.7033C50.1349 72.0921 50.8329 72.7863 52.2294 72.7863Z" fill="white"/>
<path fill-rule="evenodd" clip-rule="evenodd" d="M58.0441 72.7871H59.4823V64.877L58.0441 66.3832V72.7871Z" fill="white"/>
<path fill-rule="evenodd" clip-rule="evenodd" d="M58.738 62C56.1993 62 55.5281 63.803 55.5281 64.4632L57.2349 65.5955C57.2349 64.4078 57.5199 63.8136 58.5947 63.8136H60.2769L62 62H58.738Z" fill="white"/>
<path fill-rule="evenodd" clip-rule="evenodd" d="M35.9365 66.6748H31.7977V68.113H37.5505L35.9365 66.6748Z" fill="white"/>
<path fill-rule="evenodd" clip-rule="evenodd" d="M55.5236 75.3038L56.9663 73.9567C56.9511 73.9361 56.938 73.913 56.922 73.8935C56.5182 73.3954 55.9527 73.1465 55.2256 73.1465C55.2256 73.1465 50.5469 73.1495 50.4944 73.1514L52.2438 74.784H54.6568C55.0081 74.784 55.3265 74.9974 55.5236 75.3038Z" fill="white"/>
<path fill-rule="evenodd" clip-rule="evenodd" d="M53.7302 75.3027H54.5915C54.9706 75.3027 55.1684 75.736 55.1684 75.736L54.6431 76.3814L53.7302 75.3027Z" fill="white"/>
<path fill-rule="evenodd" clip-rule="evenodd" d="M43.9619 23.9331L40.8901 23.1642C38.135 22.4744 35.3076 24.021 34.5763 26.6183L33.8079 29.3463C36.281 26.4588 39.8724 24.4606 43.9619 23.9331Z" fill="white"/>
<path fill-rule="evenodd" clip-rule="evenodd" d="M30.8669 42.0381L30.1631 44.9342C29.4781 47.7529 31.0135 50.6445 33.5929 51.3931L36.3463 52.1921C33.4823 49.7307 31.4683 46.1439 30.8669 42.0381Z" fill="white"/>
<path fill-rule="evenodd" clip-rule="evenodd" d="M59.2405 27.6447L56.0197 26.8076C59.22 29.2243 61.4266 32.8361 61.9452 36.9616L62.8299 33.7003C63.5468 31.0576 61.9395 28.3466 59.2405 27.6447Z" fill="white"/>
<path fill-rule="evenodd" clip-rule="evenodd" d="M48.4042 55.0178L51.4918 55.8311C54.1963 56.5429 56.9708 54.9466 57.6891 52.2648L58.5582 49.0195C56.1553 52.1927 52.5453 54.4143 48.4042 55.0178Z" fill="white"/>
<path fill-rule="evenodd" clip-rule="evenodd" d="M51.5698 38.7778C49.3574 38.3517 47.909 36.2131 48.3351 34.0003C48.7612 31.788 50.9003 30.3396 53.1126 30.7657C55.3255 31.1918 56.7734 33.3309 56.3473 35.5432C55.9212 37.756 53.7821 39.2043 51.5698 38.7778ZM54.2689 46.3377C53.8428 48.55 51.7038 49.9979 49.4914 49.5723C47.2786 49.1462 45.8302 47.0072 46.2567 44.7944C46.6823 42.5826 48.8214 41.1342 51.0343 41.5598C53.2466 41.9859 54.695 44.1254 54.2689 46.3377ZM45.7632 41.0643C44.7799 40.8754 44.136 39.9244 44.3254 38.9412C44.5148 37.9579 45.4653 37.314 46.4486 37.5029C47.4323 37.6928 48.0758 38.6433 47.8864 39.627C47.6969 40.6103 46.7464 41.2537 45.7632 41.0643ZM44.0309 44.3664C43.6048 46.5787 41.4657 48.0266 39.2529 47.601C37.0405 47.1749 35.5926 45.0354 36.0182 42.8236C36.4448 40.6108 38.5834 39.1624 40.7958 39.5885C43.0086 40.0145 44.457 42.1536 44.0309 44.3664ZM38.0971 32.029C38.5232 29.8162 40.6622 28.3678 42.8746 28.7944C45.0874 29.2205 46.5358 31.359 46.1093 33.5718C45.6837 35.7842 43.5446 37.2325 41.3317 36.8064C39.1194 36.3804 37.671 34.2413 38.0971 32.029ZM46.183 24.9043C38.2966 24.9043 31.9039 31.2969 31.9039 39.1831C31.9039 47.0694 38.2966 53.4624 46.183 53.4624C54.0694 53.4624 60.4621 47.0694 60.4621 39.1831C60.4621 31.2969 54.0694 24.9043 46.183 24.9043Z" fill="#EC145A"/>
</svg>
