<svg width="142" height="50" viewBox="0 0 142 50" fill="none" xmlns="http://www.w3.org/2000/svg">
<path fill-rule="evenodd" clip-rule="evenodd" d="M30.3668 26.2387C30.3668 30.0983 25.9904 29.5127 25.9904 29.5127H8.54423C5.82272 29.5127 5.19637 27.4341 5.19637 25.5331V22.731L0.626587 26.253V27.25C0.626587 32.0625 3.09975 33.805 8.63507 33.805H27.8812C31.6063 33.805 34.9212 31.3362 34.9212 27.8057V18.563L30.3668 22.7892V26.2387Z" fill="white"/>
<path fill-rule="evenodd" clip-rule="evenodd" d="M37.7792 34.7576H41.5897V13.7998L37.7792 18.0792V34.7576Z" fill="white"/>
<path fill-rule="evenodd" clip-rule="evenodd" d="M46.3497 30.7163C46.3497 33.5539 44.711 35.15 41.5896 35.15L44.6427 39.5208C46.3783 39.5208 51.1159 38.3394 51.1159 30.338V17.6104L46.3497 22.1585V30.7163Z" fill="white"/>
<path fill-rule="evenodd" clip-rule="evenodd" d="M59.5231 34.7579H62.7147H63.8532H67.0768C69.0222 34.7579 70.5354 34.0772 71.615 32.7173C72.5556 31.5633 73.0263 30.0937 73.0263 28.3079V19.6055L68.4234 23.9497V27.0013C68.4234 29.1901 67.6486 30.2841 66.0983 30.2841H58.5272C58.5272 30.2841 58.5767 28.0464 58.5767 26.8065V12.8474L53.9738 17.2516V29.239C53.9738 32.9187 55.8231 34.7579 59.5231 34.7579Z" fill="white"/>
<path fill-rule="evenodd" clip-rule="evenodd" d="M74.9292 34.7576H78.7397V13.7998L74.9292 17.7907V34.7576Z" fill="white"/>
<path fill-rule="evenodd" clip-rule="evenodd" d="M76.7679 6.17871C70.0416 6.17871 68.2632 10.9559 68.2632 12.7049L72.7854 15.705C72.7854 12.5581 73.5404 10.9839 76.3883 10.9839H80.8452L85.4105 6.17871H76.7679Z" fill="white"/>
<path fill-rule="evenodd" clip-rule="evenodd" d="M16.3555 18.563H5.38977V22.3735H20.6318L16.3555 18.563Z" fill="white"/>
<path fill-rule="evenodd" clip-rule="evenodd" d="M68.2513 41.4265L72.0737 37.8573C72.0334 37.8027 71.9988 37.7417 71.9563 37.69C70.8865 36.3702 69.3881 35.7107 67.4618 35.7107C67.4618 35.7107 55.0654 35.7186 54.9264 35.7236L59.5613 40.0492H65.9548C66.8855 40.0492 67.7291 40.6146 68.2513 41.4265Z" fill="white"/>
<path fill-rule="evenodd" clip-rule="evenodd" d="M63.5001 41.426H65.7821C66.7864 41.426 67.3106 42.5739 67.3106 42.5739L65.9189 44.2839L63.5001 41.426Z" fill="white"/>
<path fill-rule="evenodd" clip-rule="evenodd" d="M113.037 1.86409L108.426 0.709887C104.29 -0.325579 100.046 1.99594 98.9483 5.89481L97.7948 9.98973C101.507 5.65527 106.898 2.65587 113.037 1.86409Z" fill="white"/>
<path fill-rule="evenodd" clip-rule="evenodd" d="M93.3802 29.042L92.3238 33.3893C91.2955 37.6204 93.6003 41.961 97.4722 43.0847L101.605 44.2841C97.3063 40.5893 94.2831 35.2052 93.3802 29.042Z" fill="white"/>
<path fill-rule="evenodd" clip-rule="evenodd" d="M135.972 7.43524L131.137 6.17871C135.941 9.80644 139.253 15.228 140.031 21.4208L141.359 16.5253C142.436 12.5583 140.023 8.4888 135.972 7.43524Z" fill="white"/>
<path fill-rule="evenodd" clip-rule="evenodd" d="M119.705 48.5249L124.34 49.7458C128.4 50.8142 132.564 48.418 133.643 44.3925L134.947 39.521C131.34 44.2842 125.921 47.619 119.705 48.5249Z" fill="white"/>
<path fill-rule="evenodd" clip-rule="evenodd" d="M124.457 24.1466C121.136 23.507 118.962 20.2968 119.601 16.9752C120.241 13.6544 123.452 11.4802 126.773 12.1198C130.095 12.7594 132.268 15.9703 131.628 19.2912C130.989 22.6128 127.778 24.7869 124.457 24.1466ZM128.509 35.4948C127.869 38.8156 124.658 40.989 121.337 40.3502C118.015 39.7106 115.841 36.4997 116.482 33.1781C117.12 29.8579 120.331 27.6838 123.653 28.3227C126.974 28.9622 129.148 32.1739 128.509 35.4948ZM115.741 27.5789C114.265 27.2953 113.298 25.8678 113.582 24.3919C113.867 22.9159 115.294 21.9493 116.77 22.2329C118.246 22.518 119.212 23.9448 118.928 25.4214C118.643 26.8974 117.217 27.8632 115.741 27.5789ZM113.14 32.5356C112.501 35.8565 109.29 38.0299 105.968 37.3911C102.647 36.7515 100.474 33.5399 101.113 30.2197C101.753 26.8981 104.963 24.724 108.284 25.3635C111.606 26.0031 113.78 29.214 113.14 32.5356ZM104.233 14.0161C104.873 10.6945 108.084 8.52038 111.405 9.16069C114.726 9.80026 116.901 13.0104 116.26 16.332C115.621 19.6529 112.41 21.8271 109.089 21.1875C105.768 20.5479 103.594 17.337 104.233 14.0161ZM116.371 3.32129C104.533 3.32129 94.9368 12.9171 94.9368 24.7551C94.9368 36.593 104.533 46.1896 116.371 46.1896C128.209 46.1896 137.805 36.593 137.805 24.7551C137.805 12.9171 128.209 3.32129 116.371 3.32129Z" fill="#EC145A"/>
</svg>
