<svg width="56" height="43" viewBox="0 0 56 43" fill="none" xmlns="http://www.w3.org/2000/svg">
<path d="M12 27.8265C14.7668 26.6535 16.6869 24.5641 18.4944 22.341C20.2286 20.2101 21.9987 18.116 23.7172 15.9666C24.6952 14.766 25.4201 13.412 25.6185 11.8675C25.7653 10.7299 25.306 9.77493 24.353 9.08714C23.1423 8.20897 21.8049 7.65475 20.2755 7.61176C20.0126 7.58735 19.7516 7.5458 19.4943 7.4874L19.499 7.28935H29.1477C29.8664 4.23112 31.5755 2.02036 34.4501 0.764517C35.488 0.295499 36.6113 0.0366557 37.7531 0.00342122C38.8949 -0.0298133 40.0318 0.163242 41.0961 0.571075C45.6627 2.24911 48.0592 7.08977 46.5407 11.5313C45.6471 14.1412 43.9114 16.0004 41.293 17.0198C38.6746 18.0392 36.1374 17.7752 33.5487 16.527C32.5144 17.9655 31.4536 19.3457 30.5069 20.7981C29.8829 21.716 29.5777 22.8076 29.6367 23.91C29.6577 24.3299 29.7724 24.7401 29.9728 25.1116C30.1731 25.483 30.4541 25.8066 30.7959 26.0594C32.1473 27.1156 33.719 27.5348 35.4016 27.6515C35.4768 27.6515 35.5511 27.6679 35.6192 27.6995C35.6873 27.7311 35.7474 27.7771 35.7952 27.8341C35.6283 27.8726 35.4585 27.8982 35.2875 27.9109C31.9546 27.9109 28.6217 27.9068 25.2888 27.8986C25.1591 27.904 25.0292 27.9009 24.8998 27.8894C23.7516 27.7359 23.4657 27.2108 24.1609 26.3035C25.3873 24.7176 26.6855 23.19 27.9588 21.6471C29.4164 19.8892 30.8975 18.1482 32.3473 16.3827C32.4769 16.2291 32.4426 15.9359 32.4832 15.7072L32.216 15.6258C31.1558 16.9041 30.0934 18.181 29.029 19.4563C27.3245 21.5104 25.631 23.5723 23.9203 25.6234C22.7283 27.0512 21.0988 27.6683 19.299 27.8341C17.524 27.9937 15.7402 28.0389 13.9591 27.9692C14.8965 27.4227 15.962 27.0097 16.7494 26.3004C18.2331 24.9525 19.6319 23.5169 20.9379 22.0017C23.2235 19.3626 25.4154 16.6467 27.6557 13.9646C28.1822 13.3337 28.7384 12.7242 29.2352 12.0717C29.3914 11.8644 29.3914 11.5466 29.4742 11.2795L29.2633 11.1797C28.6571 11.8859 28.0447 12.586 27.4495 13.2999C24.9363 16.3182 22.4267 19.3375 19.9208 22.3579C18.4616 24.1296 16.9712 25.8567 14.9059 26.9898C14.0013 27.481 13.103 27.9907 12 27.8265ZM32.7472 15.004L32.8269 15.2926C33.0128 15.2251 33.2612 15.2097 33.3753 15.0808C34.0564 14.3131 34.7126 13.5225 35.3672 12.7318C36.8779 10.9049 38.4418 9.13166 40.6102 8.01707C41.4429 7.59026 42.285 7.14811 43.4833 7.30317C39.1089 9.07332 36.9388 12.8424 34.1267 15.9989C36.4889 17.6078 40.6883 17.2747 43.0943 15.3587C46.2048 12.8854 47.2437 8.96432 45.6549 5.50539C44.191 2.31513 40.7305 0.0552292 36.5826 0.746094C33.1706 1.31414 30.4178 3.94557 29.8992 7.22641C30.052 7.23181 30.2044 7.24668 30.3554 7.27093C31.5286 7.52271 31.7099 7.98329 31.0178 8.97353C30.7256 9.39266 30.36 9.76419 30.0804 10.1925C29.9523 10.3921 29.9617 10.6746 29.9085 10.9202L30.107 10.9832C30.3507 10.6899 30.6038 10.4029 30.835 10.1019C31.8552 8.77855 33.1175 7.80981 34.8266 7.54267C35.9718 7.36305 37.1263 7.20184 38.2824 7.11894C39.2588 7.04832 40.2447 7.10512 41.2273 7.10512L41.2695 7.3001C37.3732 8.75092 35.2188 12.0471 32.7472 15.004Z" fill="#F59200"/>
<path d="M32.9597 18.2773C33.2019 18.2196 33.4486 18.1816 33.6971 18.1637C36.5874 18.1545 39.4776 18.1391 42.3678 18.1729C43.0633 18.2035 43.7535 18.3064 44.4269 18.48C44.9191 18.5905 45.1253 18.9559 44.8331 19.4103C44.4538 20.0446 44.0238 20.6483 43.5474 21.2158C41.9163 23.0381 40.2666 24.8497 38.5746 26.6107C38.0684 27.1342 37.3654 27.475 36.753 27.8987L36.5405 27.6546C36.9061 27.1941 37.3216 26.755 37.6247 26.2545C38.0934 25.4761 38.598 24.6885 38.898 23.8411C39.5323 22.051 38.9261 20.4635 37.1388 19.6268C35.8406 19.0158 34.3861 18.7302 32.9597 18.2773Z" fill="#F59200"/>
<path d="M7.6118 39.0477C7.40817 39.0477 7.2268 39.0191 7.06771 38.9618C6.90862 38.9024 6.77393 38.8186 6.66362 38.7105C6.60211 38.7741 6.53635 38.8282 6.46635 38.8727C6.39635 38.9152 6.32317 38.9502 6.2468 38.9777C6.17256 39.0032 6.09726 39.0212 6.0209 39.0318C5.94453 39.0424 5.87029 39.0477 5.79817 39.0477C5.73665 39.0477 5.67726 39.0456 5.61999 39.0414C5.56271 39.0371 5.50756 39.0286 5.45453 39.0159C5.4015 39.0032 5.35059 38.9841 5.3018 38.9586C5.25302 38.9332 5.20529 38.8992 5.15862 38.8568V39.0891C5.15862 39.6576 5.00483 40.0776 4.69726 40.3491C4.3918 40.6206 3.9368 40.7564 3.33226 40.7564H2.7118C2.43393 40.7564 2.17938 40.7108 1.94817 40.6195C1.71696 40.5283 1.5165 40.3979 1.3468 40.2282C1.17923 40.0606 1.04877 39.857 0.95544 39.6173C0.862107 39.3797 0.81544 39.1114 0.81544 38.8123C0.81544 38.5344 0.856804 38.2459 0.939531 37.9468C1.02438 37.6456 1.14953 37.3211 1.31499 36.9732L1.9418 37.2786C1.79544 37.5777 1.67983 37.8503 1.59499 38.0964C1.51014 38.3424 1.46771 38.5779 1.46771 38.8027C1.46771 38.9788 1.49741 39.1432 1.5568 39.2959C1.61832 39.4486 1.70423 39.5812 1.81453 39.6936C1.92483 39.8082 2.05635 39.8983 2.20908 39.9641C2.35544 40.0277 2.51771 40.0595 2.69589 40.0595H3.33226C3.56771 40.0595 3.75862 40.0373 3.90499 39.9927C4.05347 39.9503 4.16802 39.8877 4.24862 39.805C4.33135 39.7223 4.38756 39.6205 4.41726 39.4995C4.44696 39.3786 4.4618 39.2418 4.4618 39.0891V36.8491H5.15862V37.4695C5.15862 37.6626 5.17665 37.8174 5.21271 37.9341C5.24877 38.0486 5.2965 38.1377 5.35589 38.2014C5.41741 38.2629 5.48635 38.3042 5.56271 38.3255C5.63908 38.3445 5.71756 38.3541 5.79817 38.3541C5.84696 38.3541 5.90211 38.3456 5.96362 38.3286C6.02726 38.3117 6.08665 38.282 6.1418 38.2395C6.19696 38.1971 6.24256 38.1409 6.27862 38.0709C6.3168 38.0009 6.33589 37.9129 6.33589 37.8068V36.8491H7.02953V37.8386C7.03377 38.0168 7.0815 38.1473 7.17271 38.23C7.26393 38.3127 7.40817 38.3541 7.60544 38.3541C7.63938 38.352 7.68286 38.3445 7.73589 38.3318C7.79105 38.3191 7.84408 38.2936 7.89499 38.2555C7.94802 38.2173 7.99256 38.1632 8.02862 38.0932C8.0668 38.0211 8.0859 37.9256 8.0859 37.8068C8.0859 37.7602 8.08165 37.7029 8.07317 37.635C8.06468 37.5671 8.05408 37.4939 8.04135 37.4155C8.02862 37.337 8.01377 37.2574 7.9968 37.1768C7.98196 37.0941 7.96605 37.0167 7.94908 36.9445C7.93423 36.8703 7.91938 36.8045 7.90453 36.7473C7.88968 36.6879 7.87802 36.6423 7.86953 36.6105L8.53135 36.41C8.53559 36.4227 8.54408 36.4567 8.5568 36.5118C8.57165 36.5648 8.58756 36.6317 8.60453 36.7123C8.6215 36.7908 8.63953 36.8788 8.65862 36.9764C8.67771 37.0739 8.69468 37.1726 8.70953 37.2723C8.7265 37.372 8.74029 37.4685 8.75089 37.5618C8.7615 37.6552 8.7668 37.7368 8.7668 37.8068C8.7668 38.0147 8.73286 38.1961 8.66499 38.3509C8.59711 38.5058 8.50802 38.6341 8.39771 38.7359C8.28953 38.8377 8.1665 38.9152 8.02862 38.9682C7.89074 39.0191 7.7518 39.0456 7.6118 39.0477ZM6.5618 35.4714L6.05271 35.9868L5.54362 35.4777L6.05271 34.9623L6.5618 35.4714ZM7.9268 35.4586L7.42408 35.9677L6.89908 35.465L7.41453 34.9495L7.9268 35.4586ZM7.22362 34.5614L6.74635 35.0386L6.27544 34.5677L6.75271 34.0905L7.22362 34.5614ZM10.8443 38.8982C10.8316 39.1824 10.7785 39.4391 10.6852 39.6682C10.594 39.8973 10.4657 40.0924 10.3002 40.2536C10.1369 40.4148 9.93961 40.5389 9.7084 40.6259C9.47719 40.7129 9.21522 40.7564 8.92249 40.7564H8.4834V40.0595H8.92249C9.13461 40.0595 9.31703 40.0373 9.46976 39.9927C9.62461 39.9482 9.75188 39.8771 9.85158 39.7795C9.95128 39.6841 10.0255 39.5579 10.0743 39.4009C10.1231 39.2461 10.1475 39.0573 10.1475 38.8345V36.8491H10.8443V38.8982ZM9.95022 35.4714L10.4784 34.9368L11.0193 35.4777L10.4848 36.0123L9.95022 35.4714ZM12.3346 39.0477H11.6377V34.4595H12.3346V39.0477ZM14.7318 39.0764C14.6024 39.0764 14.4762 39.07 14.3532 39.0573C14.2916 39.0509 14.2248 39.0424 14.1527 39.0318C14.0806 39.0212 14.0063 39.0064 13.93 38.9873C13.8557 38.9682 13.7804 38.9448 13.7041 38.9173C13.6298 38.8876 13.5588 38.8536 13.4909 38.8155L13.1886 38.6436L13.5354 38.0391L13.8377 38.2109C13.9098 38.2533 13.9979 38.2873 14.1018 38.3127C14.2079 38.3382 14.3203 38.3562 14.4391 38.3668C14.5366 38.3753 14.6353 38.3795 14.735 38.3795C14.7562 38.3795 14.8018 38.3795 14.8718 38.3795C14.9418 38.3774 15.0277 38.3689 15.1295 38.3541C15.2653 38.3329 15.366 38.3064 15.4318 38.2745C15.4997 38.2406 15.5389 38.2088 15.5495 38.1791C15.5559 38.1664 15.5591 38.1505 15.5591 38.1314C15.5591 38.1038 15.5516 38.0624 15.5368 38.0073C15.5219 37.9521 15.4763 37.8673 15.4 37.7527C15.1963 37.4452 15.0309 37.1959 14.9036 37.005C14.7763 36.812 14.6766 36.6614 14.6045 36.5532C14.5324 36.445 14.4836 36.3708 14.4582 36.3305C14.4327 36.2902 14.4189 36.2689 14.4168 36.2668L14.2259 35.9741L14.8082 35.5923L14.9991 35.885L15.0404 35.9455C15.0659 35.9858 15.1147 36.06 15.1868 36.1682C15.2589 36.2764 15.3586 36.427 15.4859 36.62C15.6132 36.813 15.7786 37.0623 15.9822 37.3677C16.1032 37.5502 16.1848 37.7262 16.2272 37.8959C16.2463 37.9765 16.2559 38.055 16.2559 38.1314C16.2559 38.248 16.2326 38.3583 16.1859 38.4623C16.1116 38.632 15.9854 38.7656 15.8072 38.8632C15.6524 38.9502 15.4604 39.0095 15.2313 39.0414C15.1507 39.0541 15.0691 39.0626 14.9863 39.0668C14.9036 39.0732 14.8188 39.0764 14.7318 39.0764ZM18.8231 39.0477H18.7562C18.6629 39.0477 18.5749 39.0403 18.4922 39.0255C18.4094 39.0106 18.3256 38.9682 18.2408 38.8982C18.2281 39.1824 18.175 39.4391 18.0817 39.6682C17.9905 39.8973 17.8622 40.0924 17.6967 40.2536C17.5334 40.4148 17.3361 40.5389 17.1049 40.6259C16.8737 40.7129 16.6117 40.7564 16.319 40.7564H15.8799V40.0595H16.319C16.5311 40.0595 16.7135 40.0373 16.8662 39.9927C17.0211 39.9482 17.1484 39.8771 17.2481 39.7795C17.3478 39.6841 17.422 39.5579 17.4708 39.4009C17.5196 39.2461 17.544 39.0573 17.544 38.8345V36.8491H18.2408V37.8482C18.2408 37.9564 18.2631 38.0433 18.3076 38.1091C18.3543 38.1748 18.4073 38.2258 18.4667 38.2618C18.5261 38.2979 18.5834 38.3223 18.6385 38.335C18.6958 38.3456 18.735 38.3509 18.7562 38.3509H18.8231V39.0477ZM21.0724 36.3973C21.0767 36.41 21.0851 36.445 21.0979 36.5023C21.1106 36.5574 21.1254 36.6264 21.1424 36.7091C21.1615 36.7918 21.1795 36.883 21.1965 36.9827C21.2156 37.0824 21.2326 37.1832 21.2474 37.285C21.2644 37.3847 21.2782 37.4823 21.2888 37.5777C21.2994 37.6711 21.3047 37.7527 21.3047 37.8227C21.3047 38.0327 21.2697 38.2152 21.1997 38.37C21.1297 38.5248 21.0385 38.6521 20.926 38.7518C20.8157 38.8515 20.6906 38.9258 20.5506 38.9745C20.4106 39.0233 20.2706 39.0477 20.1306 39.0477H18.7147V38.3509H20.1529C20.1804 38.3509 20.2207 38.3467 20.2738 38.3382C20.3289 38.3297 20.383 38.3085 20.436 38.2745C20.4891 38.2385 20.5347 38.1855 20.5729 38.1155C20.6132 38.0455 20.6333 37.9479 20.6333 37.8227C20.6333 37.7761 20.6291 37.7177 20.6206 37.6477C20.6121 37.5777 20.6015 37.5024 20.5888 37.4218C20.576 37.3412 20.5612 37.2585 20.5442 37.1736C20.5273 37.0888 20.5103 37.0092 20.4933 36.935C20.4785 36.8608 20.4636 36.7939 20.4488 36.7345C20.4339 36.6752 20.4223 36.6295 20.4138 36.5977L21.0724 36.3973ZM18.9724 40.0945L19.4815 39.5855L19.9906 40.1009L19.4815 40.61L18.9724 40.0945ZM20.2992 40.1009L20.8147 39.5918L21.3238 40.1073L20.8147 40.6164L20.2992 40.1009ZM19.666 40.9918L20.137 40.5209L20.6142 40.9982L20.1433 41.4691L19.666 40.9918ZM26.7733 39.0477H26.7064C26.6131 39.0477 26.5251 39.0403 26.4424 39.0255C26.3596 39.0106 26.2758 38.9682 26.191 38.8982C26.1783 39.1824 26.1252 39.4391 26.0319 39.6682C25.9407 39.8973 25.8124 40.0924 25.6469 40.2536C25.4836 40.4148 25.2863 40.5389 25.0551 40.6259C24.8239 40.7129 24.5619 40.7564 24.2692 40.7564H23.8301V40.0595H24.2692C24.4813 40.0595 24.6637 40.0373 24.8164 39.9927C24.9713 39.9482 25.0986 39.8771 25.1983 39.7795C25.298 39.6841 25.3722 39.5579 25.421 39.4009C25.4698 39.2461 25.4942 39.0573 25.4942 38.8345V36.8491H26.191V37.8482C26.191 37.9564 26.2133 38.0433 26.2578 38.1091C26.3045 38.1748 26.3575 38.2258 26.4169 38.2618C26.4763 38.2979 26.5336 38.3223 26.5887 38.335C26.646 38.3456 26.6852 38.3509 26.7064 38.3509H26.7733V39.0477ZM28.7999 38.2618C28.8868 38.1197 28.9781 37.9712 29.0735 37.8164C29.169 37.6615 29.2687 37.5109 29.3726 37.3645C29.4787 37.2161 29.5911 37.0761 29.7099 36.9445C29.8287 36.8109 29.9549 36.6942 30.0885 36.5945C30.2222 36.4927 30.3643 36.4132 30.5149 36.3559C30.6655 36.2965 30.8278 36.2668 31.0017 36.2668C31.1629 36.2668 31.3209 36.2944 31.4758 36.3495C31.6306 36.4026 31.7685 36.4874 31.8894 36.6041C32.0103 36.7186 32.1079 36.8682 32.1822 37.0527C32.2564 37.2352 32.2935 37.4568 32.2935 37.7177C32.2935 37.845 32.2818 37.9606 32.2585 38.0645C32.2373 38.1685 32.2065 38.2639 32.1662 38.3509H32.8567V39.0477H29.1435C29.0672 39.0477 28.9844 39.0414 28.8953 39.0286C28.8062 39.0159 28.7172 38.9979 28.6281 38.9745C28.5411 38.9491 28.4584 38.9205 28.3799 38.8886C28.3014 38.8547 28.2356 38.8176 28.1826 38.7773L28.1349 38.7391C28.0203 38.8452 27.8846 38.9226 27.7276 38.9714C27.5728 39.018 27.3893 39.0435 27.1772 39.0477H26.6617V38.3509H27.1549C27.2949 38.3509 27.4052 38.3382 27.4858 38.3127C27.5685 38.2852 27.6311 38.2512 27.6735 38.2109C27.7181 38.1685 27.7467 38.1229 27.7594 38.0741C27.7743 38.0232 27.7817 37.9744 27.7817 37.9277V36.8491H28.4753V37.9023C28.4753 37.9511 28.4849 37.9967 28.504 38.0391C28.5231 38.0815 28.5485 38.1197 28.5803 38.1536C28.6122 38.1876 28.6472 38.2141 28.6853 38.2332C28.7235 38.2523 28.7617 38.2618 28.7999 38.2618ZM31.0017 36.9605C30.8638 36.9605 30.7281 37.0018 30.5944 37.0845C30.4608 37.1673 30.3303 37.2755 30.2031 37.4091C30.0758 37.5406 29.9538 37.6891 29.8372 37.8545C29.7205 38.02 29.6112 38.1855 29.5094 38.3509H30.9635C30.9826 38.3509 31.0081 38.3498 31.0399 38.3477C31.0717 38.3456 31.1056 38.3414 31.1417 38.335C31.1799 38.3265 31.2191 38.3148 31.2594 38.3C31.2997 38.2852 31.339 38.2661 31.3772 38.2427V38.2459C31.4153 38.2205 31.4514 38.1908 31.4853 38.1568C31.5214 38.1229 31.5522 38.0847 31.5776 38.0423C31.6052 37.9977 31.6275 37.9489 31.6444 37.8959C31.6614 37.8408 31.6699 37.7814 31.6699 37.7177C31.6699 37.5905 31.6518 37.4802 31.6158 37.3868C31.5818 37.2914 31.5341 37.2118 31.4726 37.1482C31.4132 37.0845 31.3432 37.0379 31.2626 37.0082C31.182 36.9764 31.095 36.9605 31.0017 36.9605ZM32.7525 39.0477V38.3509H33.7452C33.6816 38.2745 33.6307 38.1982 33.5925 38.1218C33.5565 38.0455 33.5289 37.9723 33.5098 37.9023C33.4928 37.8323 33.4822 37.7665 33.478 37.705C33.4737 37.6435 33.4716 37.5883 33.4716 37.5395C33.4716 37.3592 33.5066 37.1917 33.5766 37.0368C33.6466 36.8798 33.741 36.7441 33.8598 36.6295C33.9786 36.515 34.1175 36.4248 34.2766 36.3591C34.4357 36.2933 34.6043 36.2605 34.7825 36.2605C34.8843 36.2605 34.9819 36.2721 35.0752 36.2955C35.1686 36.3167 35.263 36.3485 35.3584 36.3909C35.456 36.4333 35.5568 36.4853 35.6607 36.5468C35.7668 36.6062 35.8834 36.673 36.0107 36.7473L35.6639 37.3423C35.6109 37.3083 35.5472 37.2691 35.473 37.2245C35.4009 37.18 35.3245 37.1376 35.2439 37.0973C35.1654 37.057 35.0859 37.0241 35.0052 36.9986C34.9246 36.9711 34.8504 36.9573 34.7825 36.9573C34.7062 36.9573 34.6287 36.97 34.5502 36.9955C34.4718 37.0188 34.3996 37.0559 34.3339 37.1068C34.2702 37.1556 34.2183 37.2161 34.178 37.2882C34.1377 37.3603 34.1175 37.4441 34.1175 37.5395C34.1175 37.5671 34.1207 37.6 34.1271 37.6382C34.1355 37.6742 34.1504 37.7145 34.1716 37.7591C34.1928 37.8036 34.2215 37.8503 34.2575 37.8991C34.2957 37.9479 34.3445 37.9967 34.4039 38.0455H34.4007C34.5343 38.1536 34.7104 38.2321 34.9289 38.2809C35.1495 38.3276 35.4062 38.3509 35.6989 38.3509H36.0966V39.0477H32.7525ZM40.5785 39.0764C40.4491 39.0764 40.3229 39.07 40.1998 39.0573C40.1383 39.0509 40.0715 39.0424 39.9994 39.0318C39.9273 39.0212 39.853 39.0064 39.7767 38.9873C39.7024 38.9682 39.6271 38.9448 39.5507 38.9173C39.4765 38.8876 39.4054 38.8536 39.3376 38.8155L39.0353 38.6436L39.3821 38.0391L39.6844 38.2109C39.7565 38.2533 39.8445 38.2873 39.9485 38.3127C40.0545 38.3382 40.167 38.3562 40.2857 38.3668C40.3833 38.3753 40.482 38.3795 40.5817 38.3795C40.6029 38.3795 40.6485 38.3795 40.7185 38.3795C40.7885 38.3774 40.8744 38.3689 40.9762 38.3541C41.112 38.3329 41.2127 38.3064 41.2785 38.2745C41.3464 38.2406 41.3856 38.2088 41.3962 38.1791C41.4026 38.1664 41.4057 38.1505 41.4057 38.1314C41.4057 38.1038 41.3983 38.0624 41.3835 38.0073C41.3686 37.9521 41.323 37.8673 41.2467 37.7527C41.043 37.4452 40.8776 37.1959 40.7503 37.005C40.623 36.812 40.5233 36.6614 40.4512 36.5532C40.3791 36.445 40.3303 36.3708 40.3048 36.3305C40.2794 36.2902 40.2656 36.2689 40.2635 36.2668L40.0726 35.9741L40.6548 35.5923L40.8457 35.885L40.8871 35.9455C40.9126 35.9858 40.9614 36.06 41.0335 36.1682C41.1056 36.2764 41.2053 36.427 41.3326 36.62C41.4598 36.813 41.6253 37.0623 41.8289 37.3677C41.9498 37.5502 42.0315 37.7262 42.0739 37.8959C42.093 37.9765 42.1026 38.055 42.1026 38.1314C42.1026 38.248 42.0792 38.3583 42.0326 38.4623C41.9583 38.632 41.8321 38.7656 41.6539 38.8632C41.4991 38.9502 41.3071 39.0095 41.078 39.0414C40.9974 39.0541 40.9157 39.0626 40.833 39.0668C40.7503 39.0732 40.6654 39.0764 40.5785 39.0764ZM43.6295 39.0477H42.9327V34.4595H43.6295V39.0477ZM48.2413 38.3509V39.0477H48.1617C47.8499 39.0477 47.5593 38.9226 47.2899 38.6723C47.222 38.7529 47.1372 38.8218 47.0354 38.8791C46.8805 38.9661 46.6875 39.0255 46.4563 39.0573C46.3778 39.07 46.2961 39.0785 46.2113 39.0827C46.1285 39.0891 46.0437 39.0923 45.9567 39.0923C45.8273 39.0923 45.7011 39.0859 45.5781 39.0732C45.5166 39.0668 45.4497 39.0583 45.3776 39.0477C45.3076 39.0371 45.2344 39.0223 45.1581 39.0032C45.0817 38.9841 45.0054 38.9608 44.929 38.9332C44.8547 38.9035 44.7837 38.8695 44.7158 38.8314L44.4135 38.6595L44.7604 38.055L45.0626 38.2268C45.1135 38.2565 45.1729 38.282 45.2408 38.3032C45.3087 38.3244 45.3819 38.3424 45.4604 38.3573C45.5388 38.37 45.6205 38.3795 45.7054 38.3859C45.7902 38.3923 45.875 38.3955 45.9599 38.3955C46.1126 38.3955 46.2494 38.3891 46.3704 38.3764C46.4934 38.3615 46.5899 38.335 46.6599 38.2968C46.7299 38.2586 46.7691 38.2045 46.7776 38.1345V38.1123C46.7776 38.0444 46.7458 37.9595 46.6822 37.8577C46.5125 37.5968 46.3608 37.3645 46.2272 37.1609C46.0935 36.9573 45.9811 36.7886 45.8899 36.655C45.7987 36.5192 45.7319 36.4195 45.6894 36.3559C45.6555 36.3071 45.6385 36.2817 45.6385 36.2795L45.6417 36.2827L45.4508 35.99L46.0331 35.6082L46.2272 35.9009L46.3035 36.0155C46.3523 36.0918 46.4202 36.1968 46.5072 36.3305C46.5941 36.462 46.697 36.6179 46.8158 36.7982C46.9367 36.9785 47.0672 37.1736 47.2072 37.3836C47.2687 37.4748 47.3376 37.5767 47.414 37.6891C47.4904 37.8015 47.5699 37.9065 47.6526 38.0041C47.7375 38.1017 47.8234 38.1844 47.9104 38.2523C47.9973 38.318 48.0811 38.3509 48.1617 38.3509H48.2413ZM50.521 38.5036C50.5422 38.5036 50.5741 38.5015 50.6165 38.4973C50.661 38.4909 50.7056 38.4676 50.7501 38.4273C50.7947 38.3848 50.8339 38.317 50.8679 38.2236C50.9018 38.1282 50.9188 37.9903 50.9188 37.81C50.9188 37.7888 50.9156 37.7548 50.9092 37.7082C50.9029 37.6594 50.8912 37.6074 50.8742 37.5523C50.8572 37.495 50.8339 37.4367 50.8042 37.3773C50.7745 37.3158 50.7363 37.2606 50.6897 37.2118C50.643 37.1609 50.5857 37.1195 50.5179 37.0877C50.45 37.0559 50.3704 37.04 50.2792 37.04C50.1944 37.04 50.1212 37.058 50.0597 37.0941C49.9982 37.128 49.9441 37.1747 49.8974 37.2341C49.8507 37.2914 49.8104 37.3582 49.7765 37.4345C49.7447 37.5088 49.715 37.5862 49.6874 37.6668C49.6619 37.7474 49.6375 37.828 49.6142 37.9086C49.593 37.9892 49.5707 38.0635 49.5474 38.1314C49.6301 38.178 49.716 38.2236 49.8051 38.2682C49.8942 38.3127 49.9812 38.353 50.066 38.3891C50.153 38.423 50.2347 38.4506 50.311 38.4718C50.3895 38.493 50.4595 38.5036 50.521 38.5036ZM50.2792 36.3464C50.4956 36.3464 50.6833 36.3867 50.8424 36.4673C51.0015 36.5458 51.1341 36.6529 51.2401 36.7886C51.3462 36.9223 51.4247 37.0782 51.4756 37.2564C51.5286 37.4324 51.5551 37.617 51.5551 37.81C51.5551 38.0242 51.536 38.2077 51.4979 38.3605C51.4618 38.5111 51.4141 38.6383 51.3547 38.7423C51.2953 38.8441 51.2274 38.9258 51.151 38.9873C51.0768 39.0467 51.0015 39.0923 50.9251 39.1241C50.8488 39.1559 50.7745 39.1761 50.7024 39.1845C50.6324 39.1952 50.5719 39.2005 50.521 39.2005C50.4171 39.2005 50.3174 39.1898 50.2219 39.1686C50.1265 39.1495 50.0289 39.1198 49.9292 39.0795C49.8316 39.0414 49.7288 38.9947 49.6206 38.9395C49.5124 38.8844 49.3936 38.8218 49.2642 38.7518C49.173 38.8536 49.0722 38.9289 48.9619 38.9777C48.8516 39.0244 48.7339 39.0477 48.6088 39.0477H48.1188L48.1124 38.3509H48.5833C48.6385 38.3509 48.6862 38.3339 48.7265 38.3C48.7668 38.2639 48.8029 38.2162 48.8347 38.1568C48.8665 38.0974 48.8951 38.0274 48.9206 37.9468C48.9482 37.8662 48.9747 37.7792 49.0001 37.6859C49.0277 37.5862 49.0585 37.4844 49.0924 37.3805C49.1263 37.2765 49.1666 37.1747 49.2133 37.075C49.26 36.9753 49.3151 36.882 49.3788 36.795C49.4424 36.7059 49.5166 36.6285 49.6015 36.5627C49.6863 36.4948 49.7839 36.4418 49.8942 36.4036C50.0066 36.3655 50.135 36.3464 50.2792 36.3464ZM53.8992 39.0477C53.6786 39.0477 53.4898 39.0339 53.3328 39.0064C53.1759 38.9788 53.0433 38.9374 52.9351 38.8823C52.8291 38.8271 52.7431 38.7582 52.6774 38.6755C52.6138 38.5906 52.565 38.492 52.531 38.3795C52.4971 38.265 52.4748 38.1367 52.4642 37.9945C52.4536 37.8524 52.4483 37.6944 52.4483 37.5205V34.4595H53.1451V37.5205C53.1451 37.6986 53.1504 37.8429 53.161 37.9532C53.1737 38.0614 53.2045 38.1452 53.2533 38.2045C53.3042 38.2639 53.3795 38.3032 53.4792 38.3223C53.581 38.3414 53.721 38.3509 53.8992 38.3509V39.0477ZM55.5612 36.3973C55.5654 36.41 55.5739 36.445 55.5867 36.5023C55.5994 36.5574 55.6142 36.6264 55.6312 36.7091C55.6503 36.7918 55.6683 36.883 55.6853 36.9827C55.7044 37.0824 55.7214 37.1832 55.7362 37.285C55.7532 37.3847 55.767 37.4823 55.7776 37.5777C55.7882 37.6711 55.7935 37.7527 55.7935 37.8227C55.7935 38.0327 55.7585 38.2152 55.6885 38.37C55.6185 38.5248 55.5273 38.6521 55.4148 38.7518C55.3045 38.8515 55.1794 38.9258 55.0394 38.9745C54.8994 39.0233 54.7594 39.0477 54.6194 39.0477H53.7603V38.3509H54.6417C54.6692 38.3509 54.7095 38.3467 54.7626 38.3382C54.8177 38.3297 54.8718 38.3085 54.9248 38.2745C54.9779 38.2385 55.0235 38.1855 55.0617 38.1155C55.102 38.0455 55.1221 37.9479 55.1221 37.8227C55.1221 37.7761 55.1179 37.7177 55.1094 37.6477C55.1009 37.5777 55.0903 37.5024 55.0776 37.4218C55.0648 37.3412 55.05 37.2585 55.033 37.1736C55.0161 37.0888 54.9991 37.0092 54.9821 36.935C54.9673 36.8608 54.9524 36.7939 54.9376 36.7345C54.9227 36.6752 54.9111 36.6295 54.9026 36.5977L55.5612 36.3973ZM54.4317 40.155L54.9598 39.6205L55.5008 40.1614L54.9662 40.6959L54.4317 40.155Z" fill="#F59200"/>
</svg>
