<svg width="48" height="66" viewBox="0 0 48 66" fill="none" xmlns="http://www.w3.org/2000/svg">
<g clip-path="url(#clip0_13096_202)">
<path d="M22.1942 36.1505C21.2171 38.3777 19.6228 39.6406 17.2336 39.7324C14.6341 39.8312 12.9556 38.4741 11.9387 36.1826C11.705 36.2974 11.705 36.5293 11.6302 36.6969C10.6951 38.6578 9.14052 39.7163 6.91035 39.7531C6.34463 39.7531 5.77657 39.7416 5.21084 39.7531C4.29213 39.776 3.84796 40.2307 3.82459 41.1422C3.81173 41.3502 3.81173 41.5588 3.82459 41.7668C3.86199 42.1457 3.67731 42.2398 3.32432 42.226C2.38924 42.2099 1.44013 42.2054 0.495702 42.226C0.12167 42.226 0.0281617 42.1043 0.0117978 41.7484C-0.091061 39.861 0.469987 38.2445 2.03625 37.0459C2.13918 36.9929 2.21729 36.9029 2.25431 36.7947C2.29133 36.6864 2.28439 36.5683 2.23495 36.465C1.11052 33.3652 3.18406 30.8418 5.25526 30.1415C7.9366 29.2368 10.7863 30.5846 11.6746 33.0645C11.698 33.1287 11.74 33.1884 11.8219 33.3423C12.3175 31.611 13.4583 30.4216 14.3933 29.099C14.6879 28.6742 14.6832 28.4286 14.377 28.0336C13.6944 27.1473 13.0866 26.2105 12.4273 25.3081C12.2146 25.0188 12.1328 24.8351 12.5091 24.5963C13.3203 24.082 14.1081 23.5309 14.8866 22.973C15.1671 22.7709 15.3004 22.8099 15.4897 23.0901C15.9783 23.8202 16.5066 24.5251 17.0443 25.2714C17.1962 25.0762 17.3131 24.9361 17.4207 24.7892C18.1477 23.7973 18.1477 23.7973 19.1318 24.4861C19.6882 24.8764 20.2282 25.2898 20.8033 25.6502C21.1867 25.8799 21.168 26.0957 20.9155 26.4172C20.483 26.9682 20.109 27.5652 19.6765 28.1071C19.4217 28.4309 19.4054 28.6559 19.6765 29.0072C20.483 30.0841 21.2405 31.2 22.1171 32.4514C22.1171 31.8682 22.1335 31.4043 22.1171 30.9428C22.1031 30.6099 22.1662 30.4331 22.5706 30.4446C23.5353 30.4691 24.5015 30.4691 25.4694 30.4446C25.8668 30.4331 25.9369 30.5984 25.9369 30.9359C25.9229 32.2562 25.9369 33.5765 25.9369 34.8968C25.9369 35.643 26.2712 36.0265 26.872 36.0242C27.4728 36.0219 27.8071 35.6384 27.8071 34.8876C27.8071 33.5903 27.8258 32.293 27.8071 30.9979C27.8071 30.58 27.9076 30.4262 28.3564 30.4423C29.2728 30.4744 30.1938 30.4721 31.1126 30.4423C31.5287 30.4285 31.6269 30.5731 31.6198 30.9566C31.5988 32.2539 31.6198 33.5489 31.6198 34.8462C31.6198 35.6361 31.9565 36.0334 32.5877 36.0219C33.1838 36.0104 33.4947 35.6315 33.5017 34.8738C33.5017 33.5995 33.5157 32.3251 33.5017 31.053C33.5017 30.6351 33.5648 30.4216 34.0721 30.4446C34.9885 30.4859 35.9095 30.4721 36.8306 30.4446C37.2093 30.4331 37.2981 30.5663 37.2981 30.9199C37.2794 32.4032 37.3262 33.8865 37.2747 35.3675C37.1579 38.6831 33.4012 40.8024 30.43 39.2227C30.2239 39.0891 29.9825 39.0178 29.7357 39.0178C29.4888 39.0178 29.2474 39.0891 29.0414 39.2227C28.4495 39.5381 27.7953 39.7242 27.1234 39.7683C26.4516 39.8124 25.778 39.7134 25.1487 39.4781C24.5194 39.2429 23.9492 38.8769 23.4772 38.4052C23.0052 37.9335 22.6426 37.3672 22.414 36.7452C22.3485 36.5706 22.2877 36.4007 22.1942 36.1505ZM17.0513 31.7878C16.5838 32.4353 16.1466 33.0048 15.7562 33.6086C15.5292 33.9246 15.4347 34.3142 15.4921 34.6968C15.5496 35.0793 15.7546 35.4255 16.0648 35.6637C16.3478 35.8948 16.705 36.02 17.073 36.0171C17.441 36.0142 17.7961 35.8833 18.0752 35.6476C18.3711 35.3957 18.5613 35.0448 18.6088 34.663C18.6563 34.2811 18.5578 33.8956 18.3324 33.5811C17.956 33.0002 17.5352 32.4445 17.0677 31.7924L17.0513 31.7878ZM6.95009 36.0196C7.28136 36.0221 7.60047 35.8971 7.83905 35.6714C8.07763 35.4456 8.21671 35.1371 8.22648 34.8118C8.23248 34.5665 8.16413 34.325 8.0301 34.118C7.89607 33.911 7.70242 33.7477 7.47374 33.649C7.24506 33.5503 6.99168 33.5206 6.74576 33.5636C6.49985 33.6067 6.27251 33.7206 6.09263 33.8908C5.91274 34.061 5.78841 34.2799 5.73545 34.5196C5.68249 34.7594 5.70327 35.0092 5.79516 35.2374C5.88706 35.4655 6.04591 35.6617 6.25155 35.8009C6.45719 35.9402 6.70033 36.0163 6.95009 36.0196Z" fill="#FC5B38"/>
<path d="M38.5161 30.3552C38.5161 28.7135 38.5278 27.0717 38.5161 25.43C38.5161 25.019 38.6003 24.856 39.0561 24.8743C39.9257 24.9111 40.8 24.9157 41.6697 24.8743C42.1933 24.8491 42.3453 24.9914 42.3406 25.5219C42.3125 28.5964 42.3266 31.6732 42.3406 34.75C42.3196 34.9813 42.3402 35.2145 42.4014 35.4388C42.4825 35.6365 42.6311 35.8004 42.8217 35.9022C43.0123 36.0041 43.233 36.0377 43.4461 35.9973C43.6591 35.9568 43.8512 35.8449 43.9895 35.6806C44.1277 35.5163 44.2035 35.3099 44.2037 35.0967C44.2037 33.7787 44.2318 32.4585 44.2037 31.1428C44.1897 30.6239 44.2926 30.3988 44.8863 30.4356C45.777 30.4907 46.677 30.4608 47.57 30.4356C47.8973 30.4356 48.0259 30.5159 48.0212 30.8581C48.0025 32.385 48.068 33.9142 47.9885 35.4388C47.8622 37.8567 45.7022 39.7716 43.2289 39.7487C42.013 39.7411 40.8472 39.2717 39.9757 38.4388C39.1042 37.6059 38.5945 36.4741 38.5535 35.2804C38.5044 33.641 38.5535 31.9969 38.5535 30.3529L38.5161 30.3552Z" fill="#FC5B38"/>
<path d="M42.0203 42.2421C42.0212 42.0809 42.0546 41.9215 42.1185 41.773C42.1825 41.6246 42.2757 41.49 42.3928 41.3771C42.51 41.2642 42.6487 41.1751 42.801 41.1151C42.9533 41.0551 43.1162 41.0253 43.2803 41.0274C43.6123 41.0422 43.9257 41.1823 44.1552 41.4184C44.3847 41.6545 44.5126 41.9685 44.5123 42.2949C44.5013 42.6212 44.361 42.9303 44.1212 43.1564C43.8815 43.3825 43.5612 43.5076 43.2289 43.505C43.0642 43.503 42.9015 43.4684 42.7507 43.4033C42.5999 43.3382 42.464 43.2439 42.3512 43.126C42.2384 43.0081 42.1509 42.869 42.0941 42.7172C42.0372 42.5653 42.0121 42.4037 42.0203 42.2421Z" fill="#F75937"/>
</g>
<defs>
<clipPath id="clip0_13096_202">
<rect width="48" height="66" fill="white"/>
</clipPath>
</defs>
</svg>
