<svg width="68" height="47" viewBox="0 0 68 47" fill="none" xmlns="http://www.w3.org/2000/svg">
<path d="M44.7694 10.8926H44.5403C42.226 10.8926 39.9118 10.9031 37.5979 10.8926C35.572 10.8926 34.4154 13.0905 34.3124 13.6315C34.2105 13.0888 33.1687 10.8997 31.0263 10.8997C28.6951 10.8997 26.3637 10.8977 24.0323 10.8936H23.7917V30.6924H20.6006V7.7138H31.1532C33.4342 7.7138 34.2844 10.2299 34.3124 10.3133C34.3409 10.2299 35.1623 7.71143 37.4981 7.71143C40.9377 7.71516 48 7.71143 48 7.71143V30.708L44.7649 30.7131C44.7649 30.7131 44.769 17.5965 44.769 11.1423L44.7694 10.8926Z" fill="white"/>
<path d="M38.5907 25.3344V16.9433C38.5907 16.9433 37.8851 16.9399 37.6483 16.9433C35.6006 16.9433 34.3639 19.4872 34.3064 19.6541C34.2572 19.4903 33.2413 16.944 30.8369 16.944C30.6002 16.944 29.9306 16.9532 29.9306 16.9532C29.9351 19.0938 29.9337 21.4158 29.9337 23.5564V25.5372H26.7314V25.3585C26.7314 21.5688 26.7314 13.7584 26.7314 13.7584C28.1456 13.7584 29.7971 13.7415 31.2109 13.7659C31.9561 13.7788 32.6226 14.0491 33.1994 14.5267C33.687 14.9303 34.0056 15.437 34.2118 16.0191C34.2537 16.1378 34.2745 16.2633 34.3119 16.4135C34.4062 16.1391 34.469 15.8881 34.5757 15.6565C34.9289 14.8899 35.5011 14.3374 36.3004 14.0125C36.751 13.8296 37.2165 13.756 37.7007 13.7574C38.999 13.7608 41.8325 13.753 41.8325 13.753C41.8325 17.5427 41.8325 21.5664 41.8366 25.3561C41.8366 25.4402 41.8366 25.5562 41.8366 25.5562C41.8366 25.5562 41.7088 25.5562 41.6349 25.5562C40.6825 25.5501 39.5408 25.5535 38.5887 25.5528C38.5887 25.5548 38.5907 25.3961 38.5907 25.3344Z" fill="white"/>
<path d="M44.2376 3.51314C44.2376 4.55341 44.2376 5.55841 44.2376 6.56375C44.2376 6.62175 44.2376 6.69671 44.2376 6.69671C44.2376 6.69671 42.8383 6.69671 42.2207 6.69671C40.6857 6.69671 39.1506 6.69761 37.6154 6.69942C34.941 6.69942 34.4107 8.89834 34.3106 9.42882C34.1913 8.9058 33.599 6.70824 31.4626 6.70824C29.2476 6.7001 27.0317 6.69603 24.8151 6.69603H24.5829V3.51348C24.5829 3.51348 29.0915 3.49008 31.2612 3.52162C32.8185 3.52162 34.1404 5.36135 34.3113 6.13333C34.4693 5.36881 35.4623 3.51551 37.4532 3.51551C39.5193 3.51077 41.932 3.51314 43.9981 3.51314H44.2376Z" fill="white"/>
<path d="M35.8075 2.02762C35.8581 2.87897 35.0907 3.51527 34.3285 3.51154C33.4904 3.50781 32.8135 2.85658 32.8184 2.03983C32.8232 1.15965 33.5043 0.563031 34.3119 0.556926C35.1125 0.55116 35.8314 1.14914 35.8075 2.02762Z" fill="white"/>
<path d="M4.42749 44.5814H4.12996C3.94272 44.576 3.75605 44.5583 3.57121 44.5286C3.38631 44.4994 3.19967 44.482 3.01246 44.4766C2.91176 44.4755 2.81147 44.4892 2.71494 44.5173C2.57857 44.558 2.51127 44.6178 2.51127 44.6967C2.51127 44.7435 2.60956 44.7833 2.80791 44.8119L3.16831 44.8457C3.3566 44.8601 3.5418 44.901 3.7182 44.967C3.77941 44.9918 3.8314 45.0343 3.86718 45.0888C3.90296 45.1433 3.92081 45.2073 3.91833 45.2721C3.91833 45.7435 3.66006 46.0843 3.14352 46.2946C2.78105 46.4413 2.31764 46.5144 1.75329 46.5138C0.584429 46.5138 0 46.0953 0 45.2582C0.0160832 44.9693 0.0935933 44.6868 0.227573 44.4289C0.372795 44.1175 0.487024 43.9618 0.570261 43.9618C0.678291 43.9618 0.733193 44.0095 0.733193 44.1039C0.706922 44.207 0.673793 44.3084 0.634017 44.4072C0.576988 44.5505 0.543803 44.7017 0.535726 44.8552C0.535726 45.225 0.724928 45.4722 1.10333 45.597C1.33946 45.6733 1.71698 45.7117 2.23588 45.7123C2.47191 45.706 2.70704 45.6811 2.93897 45.6377C3.29317 45.5788 3.46584 45.5104 3.46584 45.4306C3.46584 45.3925 3.34541 45.3648 3.10544 45.344C2.87971 45.3358 2.65528 45.3067 2.43512 45.2573C2.19249 45.1897 2.07118 45.0742 2.07118 44.9107C2.07118 44.6617 2.19249 44.4179 2.43512 44.1793C2.75331 43.8633 3.19133 43.7053 3.7492 43.7053H4.42749V44.5814Z" fill="white"/>
<path d="M6.90369 44.582H6.57517C6.39456 44.5812 6.21739 44.5336 6.06158 44.4442C5.90351 44.3587 5.77173 44.2334 5.67993 44.0812C5.59485 44.2372 5.46681 44.3669 5.31031 44.4554C5.15381 44.5439 4.9751 44.5878 4.79443 44.582H4.24719V43.7155H4.65541C4.99308 43.7155 5.22596 43.6418 5.35406 43.4945C5.44076 43.3728 5.49439 43.2314 5.50991 43.0838C5.53825 42.9365 5.59403 42.8628 5.67993 42.8628C5.76582 42.8628 5.81718 42.9365 5.84197 43.0838C5.85775 43.2279 5.9026 43.3675 5.97391 43.4945C6.07929 43.6418 6.27144 43.7155 6.54772 43.7155H6.90191L6.90369 44.582ZM5.834 41.5552L5.36469 42.0145L4.89538 41.5552L5.36469 41.0959L5.834 41.5552Z" fill="white"/>
<path d="M9.37726 44.5816H9.04697C8.86636 44.5807 8.68919 44.5332 8.53338 44.4438C8.37531 44.3583 8.24353 44.2329 8.15173 44.0807C8.06665 44.2368 7.93861 44.3664 7.78211 44.455C7.62561 44.5435 7.4469 44.5873 7.26623 44.5816H6.71899V43.715H7.12721C7.46488 43.715 7.69776 43.6414 7.82587 43.4941C7.91407 43.3716 7.96865 43.2289 7.98437 43.0799C8.01212 42.9325 8.06879 42.8589 8.15439 42.8589C8.23674 42.8589 8.29164 42.9325 8.31643 43.0799C8.33221 43.224 8.37706 43.3636 8.44837 43.4906C8.55375 43.6379 8.7459 43.7116 9.02217 43.7116H9.37637L9.37726 44.5816ZM7.90733 45.5946L7.48583 46.0097L7.05991 45.5937L7.48406 45.1804L7.90733 45.5946ZM8.85127 45.5946L8.42712 46.0097L8.0012 45.5937L8.42712 45.1769L8.85127 45.5946Z" fill="white"/>
<path d="M12.5174 44.582H12.1924C12.0598 44.58 11.9323 44.5318 11.8329 44.4459C11.7282 44.3633 11.648 44.2547 11.6009 44.1314C11.4675 44.478 11.2346 44.6513 10.9022 44.6513C10.6071 44.6513 10.3535 44.4878 10.1416 44.1609C9.99343 44.441 9.77648 44.5808 9.49076 44.5803H9.19324V43.7137H9.48899C9.68734 43.7137 9.8122 43.6964 9.86267 43.6626C9.91314 43.6288 9.92023 43.5759 9.91137 43.4754C9.89464 43.2421 9.96866 43.0112 10.1186 42.829C10.1898 42.726 10.2857 42.6418 10.3979 42.5836C10.5102 42.5255 10.6353 42.4951 10.7623 42.4954C11.1077 42.4954 11.3671 42.6843 11.5407 43.0621L11.7585 43.5404C11.7957 43.597 11.8476 43.6429 11.9089 43.6734C11.9702 43.7039 12.0388 43.7178 12.1074 43.7137H12.5156L12.5174 44.582ZM11.2998 43.6747C11.2918 43.5118 11.2418 43.3536 11.1546 43.2146C11.0442 43.0205 10.9262 42.9234 10.8004 42.9234C10.6434 42.9234 10.5649 43.026 10.5649 43.2311C10.5684 43.4008 10.6111 43.5676 10.6897 43.7189C10.7907 43.9243 10.9111 44.0265 11.0492 44.0265C11.2175 44.0265 11.2998 43.9096 11.2998 43.6747Z" fill="white"/>
<path d="M16.2809 42.9985L15.8381 43.6259C15.4999 43.6347 15.1685 43.7208 14.8703 43.8772C14.6932 43.9655 14.3759 44.1192 13.9184 44.3382C13.5134 44.5126 13.074 44.5973 12.6317 44.586H12.3519V43.7194H12.7256C13.1257 43.7259 13.5253 43.6878 13.9166 43.6059C14.2086 43.5318 14.4909 43.4248 14.7578 43.287L14.207 43.0791C13.9166 42.971 13.71 42.9167 13.5872 42.9161C13.4362 42.9275 13.2935 42.9886 13.1825 43.0895C13.1096 43.1538 13.0311 43.2118 12.9479 43.2628C12.8549 43.2628 12.8088 43.2116 12.8088 43.1103C12.8194 43.0113 12.8541 42.9162 12.9098 42.833C13.163 42.3928 13.4467 42.1727 13.7608 42.1727C13.9178 42.1727 14.2796 42.2974 14.8464 42.547C15.4131 42.7966 15.8387 42.9213 16.1232 42.9213C16.2428 42.9213 16.3003 42.9326 16.3003 42.9551C16.2971 42.9708 16.2905 42.9856 16.2809 42.9985ZM15.0004 41.0236L14.5311 41.4829L14.0609 41.0236L14.5311 40.5635L15.0004 41.0236Z" fill="white"/>
<path d="M19.678 43.4106C19.6726 43.6117 19.6193 43.8087 19.5222 43.986C19.3796 44.2659 19.1795 44.4063 18.9236 44.4063C18.715 44.3978 18.5075 44.3711 18.3037 44.3266C18.1 44.282 17.8925 44.2553 17.6839 44.2468C17.5245 44.2468 17.4448 44.2954 17.4448 44.3924C17.4448 44.408 17.4448 44.428 17.4448 44.4505C17.518 45.1437 17.5422 45.5995 17.5174 45.8179C17.4873 45.9204 17.4407 46.0175 17.3793 46.1056C17.3465 46.155 17.2907 46.2442 17.2102 46.3725C17.18 46.4227 17.157 46.447 17.1402 46.447C17.1234 46.447 17.1074 46.4054 17.1021 46.3222C17.0844 45.99 17.0511 45.5646 17.0021 45.0458C16.9607 44.6016 16.9401 44.3387 16.9401 44.2572C16.9357 44.1551 16.9545 44.0532 16.995 43.959C17.0356 43.8648 17.097 43.7805 17.1747 43.7122C17.3363 43.5771 17.5442 43.5069 17.7565 43.5155C17.7565 43.4912 17.7468 43.4427 17.7353 43.3708C17.7276 43.3214 17.7232 43.2716 17.722 43.2217C17.722 43.0701 17.8008 42.8942 17.9602 42.6931C18.1373 42.4696 18.3197 42.3586 18.5136 42.3586C18.7421 42.3586 18.9947 42.4915 19.2716 42.7573C19.5426 43.0126 19.678 43.2304 19.678 43.4106ZM19.1467 43.6073C19.0417 43.4798 18.9182 43.368 18.7801 43.2754C18.65 43.1717 18.4913 43.1081 18.3241 43.0926C18.3001 43.0893 18.2756 43.0915 18.2525 43.099C18.2295 43.1065 18.2086 43.1192 18.1914 43.136C18.1742 43.1528 18.1613 43.1733 18.1536 43.1959C18.1459 43.2184 18.1436 43.2424 18.147 43.2659C18.1549 43.3437 18.1549 43.4221 18.147 43.4999C18.1478 43.5171 18.155 43.5335 18.1672 43.5459C18.1794 43.5584 18.1959 43.566 18.2134 43.5675C18.3834 43.6039 18.6721 43.6593 19.0777 43.733C19.1538 43.7469 19.1919 43.733 19.1919 43.6931C19.1858 43.6597 19.1679 43.6293 19.1414 43.6073H19.1467Z" fill="white"/>
<path d="M21.5791 44.5816H21.1709C20.9535 44.5859 20.7432 44.5055 20.5864 44.358C20.371 44.1599 20.2635 43.856 20.2641 43.4464C20.2641 43.1691 20.247 42.7503 20.2127 42.1899C20.1729 41.5617 20.1348 41.1501 20.0985 40.9499C20.087 40.8849 20.0914 40.8416 20.1118 40.8217L20.6776 40.3676C20.7126 40.3342 20.753 40.3066 20.7972 40.2861C20.8105 40.2861 20.8175 40.3199 20.8175 40.3806V43.2307C20.8175 43.5513 21.0008 43.7116 21.3674 43.7116H21.5755L21.5791 44.5816Z" fill="white"/>
<path d="M23.9271 43.8675C23.9315 43.9713 23.9146 44.0749 23.8775 44.1722C23.8404 44.2695 23.7838 44.3586 23.7111 44.4342C23.6364 44.5076 23.5468 44.565 23.4482 44.6026C23.3495 44.6402 23.2439 44.6572 23.1382 44.6526C22.8229 44.6526 22.5582 44.4888 22.3465 44.1621C22.1984 44.4423 21.9814 44.5821 21.6957 44.5815H21.399V43.715H21.6957C21.894 43.715 22.0189 43.6977 22.0694 43.6639C22.1198 43.6301 22.1269 43.5772 22.1181 43.4776C22.1019 43.2456 22.1773 43.0163 22.3288 42.8372C22.4028 42.7358 22.5004 42.6533 22.6137 42.5965C22.7269 42.5396 22.8524 42.5101 22.9797 42.5105C23.302 42.5105 23.5487 42.6642 23.7199 42.9715C23.8641 43.2487 23.9353 43.5566 23.9271 43.8675ZM23.5048 43.6743C23.4967 43.5114 23.4467 43.3531 23.3595 43.2141C23.2488 43.02 23.132 42.923 23.0053 42.923C22.8483 42.923 22.7698 43.0255 22.7698 43.2306C22.7733 43.4003 22.816 43.5671 22.8946 43.7185C22.9956 43.9238 23.116 44.0261 23.2542 44.0261C23.4224 44.0261 23.5048 43.9091 23.5048 43.6743Z" fill="white"/>
<path d="M25.0846 43.8132C25.0846 43.9738 24.9961 44.2355 24.819 44.5983C24.7729 44.6936 24.7402 44.7413 24.7225 44.7413C24.7047 44.7413 24.6675 44.6355 24.6498 44.4258L24.3204 40.8513L24.9571 40.3314C24.9812 40.3066 25.0119 40.2889 25.0457 40.2803C25.0687 40.2803 25.0802 40.3037 25.0802 40.3513L25.0846 43.8132Z" fill="white"/>
<path d="M30.1659 44.5814H29.8684C29.6811 44.576 29.4945 44.5583 29.3096 44.5286C29.1247 44.4994 28.9381 44.482 28.7509 44.4766C28.6502 44.4755 28.5499 44.4892 28.4533 44.5173C28.317 44.558 28.2497 44.6178 28.2497 44.6967C28.2497 44.7435 28.3489 44.7833 28.5472 44.8119L28.9067 44.8457C29.095 44.8601 29.2802 44.901 29.4566 44.967C29.5179 44.9917 29.57 45.0342 29.6059 45.0887C29.6419 45.1432 29.6599 45.2072 29.6576 45.2721C29.6576 45.7435 29.3993 46.0843 28.8828 46.2946C28.5209 46.4413 28.0572 46.5144 27.4917 46.5138C26.3228 46.5138 25.7384 46.0953 25.7384 45.2582C25.7544 44.9692 25.8322 44.6866 25.9669 44.4289C26.1121 44.1175 26.226 43.9618 26.3087 43.9618C26.4176 43.9618 26.4716 44.0095 26.4716 44.1039C26.4454 44.207 26.4126 44.3083 26.3733 44.4072C26.3156 44.5503 26.2821 44.7016 26.2741 44.8552C26.2741 45.225 26.4636 45.4722 26.8426 45.597C27.0752 45.6733 27.4524 45.7117 27.9743 45.7123C28.2103 45.7061 28.4455 45.6811 28.6774 45.6377C29.0316 45.5788 29.2042 45.5104 29.2042 45.4306C29.2042 45.3925 29.0838 45.3648 28.8447 45.344C28.6187 45.3358 28.394 45.3068 28.1735 45.2573C27.9309 45.1897 27.8105 45.0745 27.8105 44.9107C27.8105 44.6617 27.9315 44.4179 28.1735 44.1793C28.4911 43.8633 28.9291 43.7053 29.4876 43.7053H30.1659V44.5814Z" fill="white"/>
<path d="M31.3484 43.2566C31.3578 43.5521 31.2898 43.845 31.1509 44.1075C31.074 44.2564 30.9548 44.3805 30.8076 44.4647C30.6604 44.5489 30.4915 44.5898 30.3212 44.5824H29.9891V43.7158H30.3726C30.7049 43.7158 30.8711 43.6549 30.8711 43.533C30.8711 43.4261 30.7418 43.2337 30.4832 42.9559C30.4687 42.9414 30.4605 42.922 30.4605 42.9017C30.4605 42.8814 30.4687 42.862 30.4832 42.8476L30.8879 42.2947C30.9224 42.247 30.957 42.241 30.9915 42.2774C31.1105 42.4112 31.199 42.5684 31.251 42.7384C31.3121 42.9048 31.345 43.0798 31.3484 43.2566ZM31.3227 41.2496L30.8578 41.7115L30.3876 41.2522L30.8569 40.793L31.3227 41.2496Z" fill="white"/>
<path d="M33.2462 44.5816H32.838C32.6203 44.5857 32.4099 44.5053 32.2527 44.358C32.0384 44.1599 31.9312 43.856 31.9312 43.4464C31.9312 43.1691 31.9141 42.7503 31.8799 42.1899C31.84 41.5617 31.8019 41.1501 31.7656 40.9499C31.7541 40.8849 31.7586 40.8416 31.7789 40.8217L32.3448 40.3676C32.3797 40.3342 32.4201 40.3066 32.4643 40.2861C32.4776 40.2861 32.4847 40.3199 32.4847 40.3806V43.2306C32.4847 43.5513 32.668 43.7116 33.0346 43.7116H33.2427L33.2462 44.5816Z" fill="white"/>
<path d="M35.7194 44.5815H35.39C35.2095 44.5805 35.0323 44.533 34.8765 44.4437C34.7184 44.3582 34.5866 44.2328 34.4948 44.0806C34.4097 44.2367 34.2817 44.3663 34.1252 44.4549C33.9687 44.5434 33.79 44.5872 33.6093 44.5815H33.063V43.7149H33.4712C33.8077 43.7149 34.0406 43.6413 34.1698 43.494C34.2558 43.3719 34.3091 43.2307 34.3248 43.0832C34.3531 42.9359 34.4089 42.8622 34.4948 42.8622C34.5807 42.8622 34.6321 42.9359 34.6569 43.0832C34.6726 43.2273 34.7175 43.3669 34.7888 43.494C34.8951 43.6413 35.0863 43.7149 35.3626 43.7149H35.7168L35.7194 44.5815ZM34.2407 41.9056L33.8121 42.3172L33.3897 41.9021L33.813 41.4888L34.2407 41.9056ZM35.1846 41.9056L34.7569 42.3172L34.3345 41.9021L34.7578 41.4888L35.1846 41.9056Z" fill="white"/>
<path d="M39.8534 43.2874C39.8589 43.5776 39.7924 43.8649 39.6595 44.1245C39.4972 44.4295 39.2643 44.582 38.9609 44.582C38.6745 44.582 38.4384 44.4263 38.2524 44.1149C38.0753 44.4257 37.8492 44.5814 37.5742 44.582C37.279 44.582 37.0429 44.4263 36.8658 44.1149C36.7845 44.2623 36.6626 44.3842 36.5138 44.4668C36.365 44.5495 36.1954 44.5894 36.0245 44.582H35.5437V43.7155H36.1113C36.3167 43.7155 36.4643 43.6473 36.5541 43.5109C36.6123 43.3902 36.6542 43.2627 36.6789 43.1314C36.7134 42.9954 36.7675 42.9269 36.848 42.9269C36.9286 42.9269 36.9924 42.9945 37.0251 43.1305C37.0507 43.2605 37.0877 43.3881 37.1358 43.5118C37.212 43.6479 37.351 43.7155 37.5511 43.7155C37.6339 43.7227 37.717 43.7076 37.7915 43.6716C37.866 43.6357 37.929 43.5804 37.9735 43.5118C38.0266 43.3887 38.0681 43.261 38.0975 43.1305C38.1347 42.9945 38.1967 42.9269 38.2843 42.9269C38.372 42.9269 38.4136 42.9962 38.4437 43.134C38.4635 43.2668 38.4995 43.3969 38.5509 43.5213C38.6311 43.66 38.7752 43.7293 38.983 43.7293C39.2717 43.7293 39.416 43.6343 39.416 43.4442C39.416 43.3489 39.3177 43.1843 39.122 42.9382L39.4364 42.4598C39.4552 42.4253 39.4784 42.3933 39.5054 42.3645C39.5325 42.3844 39.5559 42.4087 39.5745 42.4364C39.6488 42.5361 39.7085 42.6455 39.7516 42.7614C39.819 42.9289 39.8536 43.1073 39.8534 43.2874Z" fill="white"/>
<path d="M42.2996 44.3454C42.3068 44.6469 42.2524 44.9468 42.1396 45.2275C42.0267 45.5081 41.8578 45.7639 41.6425 45.9797C41.5071 46.1175 41.4238 46.1868 41.3937 46.1868C40.7733 46.1868 40.3131 46.1291 40.0132 46.0135C39.9486 45.9893 39.9468 45.9667 40.007 45.9459C40.4407 45.7927 40.8468 45.5734 41.2104 45.296C41.6419 44.9714 41.8574 44.679 41.8568 44.4191C41.8568 44.3111 41.7786 44.16 41.6222 43.9659C41.5108 43.8234 41.3817 43.695 41.2379 43.5837L41.5735 42.8905C41.5947 42.8472 41.6222 42.8428 41.6567 42.8766C41.8605 43.0657 42.0226 43.2935 42.1332 43.5461C42.2437 43.7986 42.3003 44.0707 42.2996 44.3454Z" fill="white"/>
<path d="M44.201 44.5816H43.7928C43.5754 44.5859 43.3652 44.5055 43.2083 44.358C42.994 44.1599 42.8869 43.856 42.8869 43.4464C42.8869 43.1691 42.8695 42.7503 42.8347 42.1899C42.7957 41.5617 42.7576 41.1501 42.7204 40.9499C42.7089 40.8849 42.7133 40.8416 42.7346 40.8217L43.2995 40.3676C43.335 40.3343 43.3756 40.3068 43.42 40.2861C43.4341 40.2861 43.4412 40.3199 43.4412 40.3806V43.2307C43.4412 43.5513 43.6245 43.7116 43.9911 43.7116H44.201V44.5816Z" fill="white"/>
<path d="M47.3381 44.582H47.0131C46.8805 44.58 46.753 44.5318 46.6536 44.4459C46.5489 44.3633 46.4687 44.2547 46.4216 44.1314C46.2882 44.478 46.0553 44.6513 45.7229 44.6513C45.4278 44.6513 45.1739 44.4878 44.9614 44.1609C44.8144 44.441 44.5978 44.5808 44.3114 44.5803H44.0139V43.7137H44.3114C44.5098 43.7137 44.6346 43.6964 44.6851 43.6626C44.7356 43.6288 44.7427 43.5759 44.7338 43.4754C44.7171 43.2421 44.7911 43.0112 44.941 42.829C45.0122 42.726 45.1082 42.6418 45.2204 42.5836C45.3326 42.5255 45.4578 42.4951 45.5848 42.4954C45.9301 42.4954 46.1896 42.6843 46.3631 43.0621L46.581 43.5404C46.6181 43.597 46.6701 43.6429 46.7314 43.6734C46.7927 43.7039 46.8612 43.7178 46.9299 43.7137H47.3381V44.582ZM46.1205 43.6747C46.112 43.5119 46.0621 43.3537 45.9753 43.2146C45.8649 43.0205 45.7468 42.9234 45.6211 42.9234C45.4635 42.9234 45.3856 43.0257 45.3856 43.2311C45.3891 43.4008 45.4317 43.5676 45.5104 43.7189C45.6114 43.9243 45.7318 44.0265 45.8699 44.0265C46.0364 44.0265 46.1199 43.9093 46.1205 43.6747Z" fill="white"/>
<path d="M49.8149 44.582H49.4864C49.306 44.5791 49.1293 44.5317 48.9727 44.4441C48.816 44.3566 48.6845 44.2317 48.5903 44.0812C48.5053 44.2373 48.3773 44.367 48.2208 44.4555C48.0642 44.5441 47.8855 44.5879 47.7048 44.582H47.1584V43.7155H47.5658C47.9023 43.7155 48.1351 43.6418 48.2644 43.4945C48.3504 43.3724 48.4039 43.2312 48.4203 43.0838C48.4477 42.9365 48.5088 42.8628 48.5894 42.8628C48.67 42.8628 48.7267 42.9365 48.7523 43.0838C48.7679 43.2278 48.8125 43.3674 48.8834 43.4945C48.9897 43.6418 49.1812 43.7155 49.4581 43.7155H49.8123L49.8149 44.582ZM48.3441 45.595L47.92 46.0101L47.4949 45.5941L47.92 45.1773L48.3441 45.595ZM49.289 45.595L48.8675 46.0101L48.4415 45.5941L48.8657 45.1808L49.289 45.595Z" fill="white"/>
<path d="M50.9945 43.2561C51.0039 43.5516 50.936 43.8445 50.797 44.107C50.7201 44.256 50.6009 44.38 50.4538 44.4642C50.3066 44.5485 50.1377 44.5893 49.9673 44.5819H49.6353V43.7154H50.0187C50.351 43.7154 50.5172 43.6544 50.5172 43.5325C50.5172 43.4256 50.3879 43.2333 50.1294 42.9554C50.1152 42.9407 50.1074 42.9214 50.1074 42.9012C50.1074 42.8811 50.1152 42.8617 50.1294 42.8471L50.534 42.2942C50.5695 42.2466 50.604 42.2405 50.6385 42.2769C50.7569 42.4112 50.8453 42.5682 50.898 42.7379C50.9584 42.9044 50.991 43.0794 50.9945 43.2561ZM50.8626 45.6322L50.3924 46.0914L49.923 45.6322L50.3924 45.1729L50.8626 45.6322Z" fill="white"/>
<path d="M55.3622 44.5822H55.1692C54.567 44.5822 54.003 44.2662 53.477 43.6342C52.778 44.0039 52.4288 44.4236 52.4294 44.8933C52.4294 45.2503 52.6065 45.5155 52.9607 45.6888C53.2777 45.8336 53.625 45.9034 53.9746 45.8924C54.3297 45.8936 54.6837 45.8537 55.0292 45.7737C55.0627 45.7617 55.0981 45.7559 55.1337 45.7564C55.1257 45.7792 55.115 45.801 55.1019 45.8214C54.874 46.2183 54.338 46.4167 53.4938 46.4167C52.9932 46.4167 52.5782 46.3196 52.2488 46.1255C52.0604 46.0235 51.9047 45.8722 51.799 45.6886C51.6933 45.505 51.6418 45.2962 51.6502 45.0857C51.6502 44.4502 52.1714 43.8803 53.214 43.376C53.1323 43.2775 53.0435 43.1848 52.9483 43.0987C52.9342 43.0848 52.8545 43.0346 52.7092 42.9462C52.5986 42.8786 52.5436 42.8266 52.5436 42.7911C52.5581 42.6663 52.6182 42.5509 52.7128 42.4661C52.8999 42.2651 53.1836 42.1645 53.5637 42.1645C53.782 42.1605 53.9979 42.2081 54.1933 42.3032C54.4103 42.4124 54.5183 42.5545 54.5183 42.7313C54.5183 42.9439 54.3179 43.1654 53.9171 43.3959C54.1632 43.6062 54.5517 43.7113 55.0824 43.7113H55.3657L55.3622 44.5822Z" fill="white"/>
<path d="M58.507 44.582H58.182C58.0494 44.58 57.9219 44.5318 57.8225 44.4459C57.7177 44.3633 57.6376 44.2547 57.5905 44.1314C57.4571 44.478 57.2242 44.6513 56.8918 44.6513C56.5966 44.6513 56.3428 44.4878 56.1303 44.1609C55.9833 44.441 55.7666 44.5808 55.4803 44.5803H55.181V43.7137H55.4786C55.6769 43.7137 55.8018 43.6964 55.8522 43.6626C55.9027 43.6288 55.9098 43.5759 55.9009 43.4754C55.8842 43.2421 55.9582 43.0112 56.1081 42.829C56.1793 42.726 56.2753 42.6418 56.3875 42.5836C56.4998 42.5255 56.6249 42.4951 56.7519 42.4954C57.0972 42.4954 57.3564 42.6843 57.5294 43.0621L57.7481 43.5404C57.7853 43.597 57.8372 43.6429 57.8985 43.6734C57.9598 43.7039 58.0283 43.7178 58.097 43.7137H58.5052L58.507 44.582ZM57.2894 43.6747C57.2809 43.5119 57.231 43.3537 57.1442 43.2146C57.0338 43.0205 56.9157 42.9234 56.79 42.9234C56.6324 42.9234 56.5544 43.0257 56.5544 43.2311C56.558 43.4008 56.6006 43.5676 56.6793 43.7189C56.7802 43.9243 56.9007 44.0265 57.0388 44.0265C57.2059 44.0265 57.2894 43.9093 57.2894 43.6747Z" fill="white"/>
<path d="M60.9839 44.5815H60.6554C60.475 44.5786 60.2983 44.5311 60.1416 44.4436C59.985 44.356 59.8534 44.2312 59.7592 44.0806C59.6742 44.2368 59.5462 44.3665 59.3897 44.455C59.2332 44.5435 59.0544 44.5873 58.8737 44.5815H58.3274V43.7149H58.7356C59.0721 43.7149 59.305 43.6413 59.4343 43.494C59.5202 43.3718 59.5738 43.2307 59.5901 43.0832C59.6176 42.9359 59.6787 42.8622 59.7592 42.8622C59.8398 42.8622 59.8965 42.9359 59.9222 43.0832C59.9377 43.2273 59.9823 43.3668 60.0532 43.494C60.1595 43.6413 60.351 43.7149 60.6279 43.7149H60.9821L60.9839 44.5815ZM59.5051 41.9056L59.0774 42.3172L58.655 41.9021L59.0783 41.4888L59.5051 41.9056ZM60.4499 41.9056L60.0213 42.3172L59.599 41.9021L60.0222 41.4888L60.4499 41.9056Z" fill="white"/>
<path d="M65.2449 44.5825H64.5604C63.8041 44.5825 63.426 44.2338 63.426 43.5366C62.6586 44.2344 61.8767 44.5831 61.0804 44.5825H60.8005V43.7159H61.1742C61.5416 43.7241 61.9077 43.6701 62.2563 43.5565C62.5936 43.4185 62.9193 43.2548 63.2303 43.0669C62.6931 42.8838 62.2953 42.7922 62.0367 42.7922C61.9127 42.7922 61.7772 42.8589 61.632 42.9932C61.5603 43.0672 61.4818 43.1345 61.3974 43.1943C61.3088 43.1943 61.2654 43.1553 61.2654 43.0764C61.265 42.9918 61.2853 42.9083 61.3248 42.8329C61.5922 42.3043 61.9012 42.04 62.2519 42.04C62.4331 42.04 62.7773 42.1198 63.2844 42.2792C63.7915 42.4386 64.1852 42.5181 64.4656 42.5175C64.6427 42.5175 64.7383 42.5253 64.7383 42.5418L64.7144 42.5955L64.4205 43.2151C64.2035 43.2083 63.9872 43.2431 63.7838 43.3173C63.7838 43.4906 63.8865 43.6062 64.0919 43.6639C64.2662 43.7023 64.4448 43.7183 64.6232 43.7116H65.2431L65.2449 44.5825ZM63.3977 45.4837L62.9275 45.943L62.4626 45.4845L62.9266 45.0244L63.3977 45.4837Z" fill="white"/>
<path d="M67.6009 43.8679C67.6051 43.9717 67.5881 44.0753 67.5509 44.1727C67.5136 44.27 67.4569 44.359 67.3839 44.4346C67.3094 44.508 67.22 44.5653 67.1215 44.6029C67.023 44.6405 66.9175 44.6576 66.8119 44.653C66.4955 44.653 66.2298 44.4895 66.015 44.1625C65.868 44.4427 65.6513 44.5825 65.365 44.5819H65.0719V43.7154H65.3694C65.5678 43.7154 65.6926 43.698 65.7431 43.6642C65.7936 43.6304 65.8007 43.5776 65.7918 43.4779C65.7749 43.2456 65.8504 43.0158 66.0026 42.8367C66.0764 42.7355 66.174 42.653 66.287 42.5962C66.4001 42.5393 66.5254 42.5098 66.6525 42.51C66.976 42.51 67.2228 42.6637 67.3928 42.971C67.5374 43.2484 67.6089 43.5566 67.6009 43.8679ZM67.1785 43.6746C67.17 43.5118 67.1201 43.3536 67.0333 43.2145C66.9229 43.0204 66.8048 42.9234 66.6791 42.9234C66.5215 42.9234 66.4435 43.0256 66.4435 43.231C66.4471 43.4007 66.4897 43.5675 66.5684 43.7188C66.6693 43.9242 66.7898 44.0264 66.9279 44.0264C67.0944 44.0264 67.1779 43.9092 67.1785 43.6746Z" fill="white"/>
</svg>
