<svg width="92" height="92" viewBox="0 0 92 92" fill="none" xmlns="http://www.w3.org/2000/svg">
<path d="M91 1H1V91H91V1Z" stroke="#55A2E7" stroke-opacity="0.595597"/>
<path d="M56.7694 33.8921H56.5403C54.226 33.8921 51.9118 33.9026 49.5979 33.8921C47.572 33.8921 46.4154 36.09 46.3124 36.631C46.2105 36.0883 45.1687 33.8992 43.0263 33.8992C40.6951 33.8992 38.3637 33.8972 36.0323 33.8931H35.7917V53.6919H32.6006V30.7133H43.1532C45.4342 30.7133 46.2844 33.2294 46.3124 33.3128C46.3409 33.2294 47.1623 30.7109 49.4981 30.7109C52.9377 30.7147 60 30.7109 60 30.7109V53.7075L56.7649 53.7126C56.7649 53.7126 56.769 40.5961 56.769 34.1418L56.7694 33.8921Z" fill="white"/>
<path d="M50.5907 48.3336V39.9426C50.5907 39.9426 49.8851 39.9392 49.6483 39.9426C47.6006 39.9426 46.3639 42.4865 46.3064 42.6534C46.2572 42.4895 45.2413 39.9433 42.8369 39.9433C42.6002 39.9433 41.9306 39.9524 41.9306 39.9524C41.9351 42.093 41.9337 44.4151 41.9337 46.5556V48.5365H38.7314V48.3577C38.7314 44.568 38.7314 36.7577 38.7314 36.7577C40.1456 36.7577 41.7971 36.7407 43.2109 36.7651C43.9561 36.778 44.6226 37.0484 45.1994 37.5259C45.687 37.9296 46.0056 38.4363 46.2118 39.0183C46.2537 39.137 46.2745 39.2625 46.3119 39.4128C46.4062 39.1384 46.469 38.8874 46.5757 38.6558C46.9289 37.8892 47.5011 37.3367 48.3004 37.0117C48.751 36.8289 49.2165 36.7553 49.7007 36.7567C50.999 36.7601 53.8325 36.7523 53.8325 36.7523C53.8325 40.5419 53.8325 44.5657 53.8366 48.3553C53.8366 48.4395 53.8366 48.5555 53.8366 48.5555C53.8366 48.5555 53.7088 48.5555 53.6349 48.5555C52.6825 48.5494 51.5408 48.5528 50.5887 48.5521C50.5887 48.5541 50.5907 48.3954 50.5907 48.3336Z" fill="white"/>
<path d="M56.2376 26.5129C56.2376 27.5532 56.2376 28.5582 56.2376 29.5635C56.2376 29.6215 56.2376 29.6965 56.2376 29.6965C56.2376 29.6965 54.8383 29.6965 54.2207 29.6965C52.6857 29.6965 51.1506 29.6974 49.6154 29.6992C46.941 29.6992 46.4107 31.8981 46.3106 32.4286C46.1913 31.9056 45.599 29.708 43.4626 29.708C41.2476 29.6999 39.0317 29.6958 36.8151 29.6958H36.5829V26.5132C36.5829 26.5132 41.0915 26.4898 43.2612 26.5214C44.8185 26.5214 46.1404 28.3611 46.3113 29.1331C46.4693 28.3686 47.4623 26.5153 49.4532 26.5153C51.5193 26.5105 53.932 26.5129 55.9981 26.5129H56.2376Z" fill="white"/>
<path d="M47.8075 25.0274C47.8581 25.8787 47.0907 26.515 46.3285 26.5113C45.4904 26.5076 44.8135 25.8563 44.8184 25.0396C44.8232 24.1594 45.5043 23.5628 46.3119 23.5567C47.1125 23.5509 47.8314 24.1489 47.8075 25.0274Z" fill="white"/>
<path d="M16.4275 67.5812H16.13C15.9427 67.5757 15.7561 67.5581 15.5712 67.5283C15.3863 67.4992 15.1997 67.4818 15.0125 67.4763C14.9118 67.4752 14.8115 67.489 14.7149 67.517C14.5786 67.5578 14.5113 67.6176 14.5113 67.6964C14.5113 67.7432 14.6096 67.7831 14.8079 67.8117L15.1683 67.8455C15.3566 67.8599 15.5418 67.9007 15.7182 67.9668C15.7794 67.9915 15.8314 68.034 15.8672 68.0886C15.903 68.1431 15.9208 68.207 15.9183 68.2718C15.9183 68.7432 15.6601 69.0841 15.1435 69.2943C14.7811 69.4411 14.3176 69.5142 13.7533 69.5136C12.5844 69.5136 12 69.095 12 68.2579C12.0161 67.969 12.0936 67.6866 12.2276 67.4287C12.3728 67.1173 12.487 66.9616 12.5703 66.9616C12.6783 66.9616 12.7332 67.0092 12.7332 67.1037C12.7069 67.2068 12.6738 67.3081 12.634 67.407C12.577 67.5502 12.5438 67.7015 12.5357 67.855C12.5357 68.2247 12.7249 68.472 13.1033 68.5968C13.3395 68.673 13.717 68.7114 14.2359 68.712C14.4719 68.7058 14.707 68.6809 14.939 68.6375C15.2932 68.5786 15.4658 68.5101 15.4658 68.4304C15.4658 68.3923 15.3454 68.3645 15.1054 68.3437C14.8797 68.3355 14.6553 68.3065 14.4351 68.2571C14.1925 68.1895 14.0712 68.0739 14.0712 67.9105C14.0712 67.6615 14.1925 67.4177 14.4351 67.1791C14.7533 66.8631 15.1913 66.7051 15.7492 66.7051H16.4275V67.5812Z" fill="white"/>
<path d="M18.9037 67.5818H18.5752C18.3946 67.5809 18.2174 67.5334 18.0616 67.444C17.9035 67.3585 17.7717 67.2331 17.6799 67.0809C17.5949 67.237 17.4668 67.3666 17.3103 67.4552C17.1538 67.5437 16.9751 67.5875 16.7944 67.5818H16.2472V66.7152H16.6554C16.9931 66.7152 17.226 66.6416 17.3541 66.4943C17.4408 66.3725 17.4944 66.2312 17.5099 66.0835C17.5382 65.9362 17.594 65.8626 17.6799 65.8626C17.7658 65.8626 17.8172 65.9362 17.842 66.0835C17.8578 66.2276 17.9026 66.3673 17.9739 66.4943C18.0793 66.6416 18.2714 66.7152 18.5477 66.7152H18.9019L18.9037 67.5818ZM17.834 64.555L17.3647 65.0142L16.8954 64.555L17.3647 64.0957L17.834 64.555Z" fill="white"/>
<path d="M21.3773 67.5821H21.047C20.8664 67.5812 20.6892 67.5337 20.5334 67.4443C20.3753 67.3588 20.2435 67.2334 20.1517 67.0812C20.0667 67.2373 19.9386 67.3669 19.7821 67.4555C19.6256 67.544 19.4469 67.5878 19.2662 67.5821H18.719V66.7155H19.1272C19.4649 66.7155 19.6978 66.6419 19.8259 66.4946C19.9141 66.372 19.9686 66.2294 19.9844 66.0803C20.0121 65.933 20.0688 65.8594 20.1544 65.8594C20.2367 65.8594 20.2916 65.933 20.3164 66.0803C20.3322 66.2245 20.3771 66.3641 20.4484 66.4911C20.5537 66.6384 20.7459 66.7121 21.0222 66.7121H21.3764L21.3773 67.5821ZM19.9073 68.5951L19.4858 69.0101L19.0599 68.5942L19.4841 68.1809L19.9073 68.5951ZM20.8513 68.5951L20.4271 69.0101L20.0012 68.5942L20.4271 68.1774L20.8513 68.5951Z" fill="white"/>
<path d="M24.5174 67.5817H24.1924C24.0598 67.5798 23.9323 67.5315 23.8329 67.4457C23.7282 67.3631 23.648 67.2544 23.6009 67.1311C23.4675 67.4778 23.2346 67.6511 22.9022 67.6511C22.6071 67.6511 22.3535 67.4876 22.1416 67.1606C21.9934 67.4408 21.7765 67.5806 21.4908 67.58H21.1932V66.7135H21.489C21.6873 66.7135 21.8122 66.6961 21.8627 66.6623C21.9131 66.6286 21.9202 66.5757 21.9114 66.4752C21.8946 66.2418 21.9687 66.0109 22.1186 65.8287C22.1898 65.7258 22.2857 65.6415 22.3979 65.5834C22.5102 65.5252 22.6353 65.4949 22.7623 65.4951C23.1077 65.4951 23.3671 65.684 23.5407 66.0618L23.7585 66.5402C23.7957 66.5968 23.8476 66.6427 23.9089 66.6731C23.9702 66.7036 24.0388 66.7175 24.1074 66.7135H24.5156L24.5174 67.5817ZM23.2998 66.6745C23.2918 66.5116 23.2418 66.3533 23.1546 66.2143C23.0442 66.0202 22.9262 65.9232 22.8004 65.9232C22.6434 65.9232 22.5649 66.0257 22.5649 66.2308C22.5684 66.4006 22.6111 66.5673 22.6897 66.7187C22.7907 66.924 22.9111 67.0263 23.0492 67.0263C23.2175 67.0263 23.2998 66.9093 23.2998 66.6745Z" fill="white"/>
<path d="M28.2809 65.9985L27.8381 66.6259C27.4999 66.6347 27.1685 66.7208 26.8703 66.8772C26.6932 66.9655 26.3759 67.1192 25.9184 67.3382C25.5134 67.5126 25.074 67.5973 24.6317 67.586H24.3519V66.7194H24.7256C25.1257 66.7259 25.5253 66.6878 25.9166 66.6059C26.2086 66.5318 26.4909 66.4248 26.7578 66.287L26.207 66.0791C25.9166 65.971 25.71 65.9167 25.5872 65.9161C25.4362 65.9275 25.2935 65.9886 25.1825 66.0895C25.1096 66.1538 25.0311 66.2118 24.9479 66.2628C24.8549 66.2628 24.8088 66.2116 24.8088 66.1103C24.8194 66.0113 24.8541 65.9162 24.9098 65.833C25.163 65.3928 25.4467 65.1727 25.7608 65.1727C25.9178 65.1727 26.2796 65.2974 26.8464 65.547C27.4131 65.7966 27.8387 65.9213 28.1232 65.9213C28.2428 65.9213 28.3003 65.9326 28.3003 65.9551C28.2971 65.9708 28.2905 65.9856 28.2809 65.9985ZM27.0004 64.0236L26.5311 64.4829L26.0609 64.0236L26.5311 63.5635L27.0004 64.0236Z" fill="white"/>
<path d="M31.678 66.4104C31.6726 66.6114 31.6193 66.8085 31.5222 66.9858C31.3796 67.2657 31.1795 67.406 30.9236 67.406C30.715 67.3976 30.5075 67.3709 30.3037 67.3263C30.1 67.2818 29.8925 67.2551 29.6839 67.2466C29.5245 67.2466 29.4448 67.2951 29.4448 67.3922C29.4448 67.4078 29.4448 67.4277 29.4448 67.4502C29.518 68.1435 29.5422 68.5993 29.5174 68.8177C29.4873 68.9201 29.4407 69.0172 29.3793 69.1053C29.3465 69.1547 29.2907 69.244 29.2102 69.3722C29.18 69.4225 29.157 69.4468 29.1402 69.4468C29.1234 69.4468 29.1074 69.4052 29.1021 69.322C29.0844 68.9898 29.0511 68.5643 29.0021 68.0456C28.9607 67.6013 28.9401 67.3385 28.9401 67.257C28.9357 67.1548 28.9545 67.053 28.995 66.9588C29.0356 66.8645 29.097 66.7802 29.1747 66.7119C29.3363 66.5769 29.5442 66.5066 29.7565 66.5152C29.7565 66.491 29.7468 66.4425 29.7353 66.3705C29.7276 66.3212 29.7232 66.2714 29.722 66.2215C29.722 66.0698 29.8008 65.8939 29.9602 65.6929C30.1373 65.4693 30.3197 65.3584 30.5136 65.3584C30.7421 65.3584 30.9947 65.4913 31.2716 65.757C31.5426 66.0124 31.678 66.2301 31.678 66.4104ZM31.1467 66.6071C31.0417 66.4796 30.9182 66.3678 30.7801 66.2752C30.65 66.1714 30.4913 66.1078 30.3241 66.0924C30.3001 66.089 30.2756 66.0912 30.2525 66.0988C30.2295 66.1063 30.2086 66.119 30.1914 66.1358C30.1742 66.1526 30.1613 66.1731 30.1536 66.1956C30.1459 66.2182 30.1436 66.2421 30.147 66.2657C30.1549 66.3435 30.1549 66.4218 30.147 66.4996C30.1478 66.5169 30.155 66.5332 30.1672 66.5457C30.1794 66.5581 30.1959 66.5658 30.2134 66.5672C30.3834 66.6036 30.6721 66.6591 31.0777 66.7327C31.1538 66.7466 31.1919 66.7327 31.1919 66.6929C31.1858 66.6594 31.1679 66.6291 31.1414 66.6071H31.1467Z" fill="white"/>
<path d="M33.5791 67.5816H33.1709C32.9535 67.5859 32.7432 67.5055 32.5864 67.358C32.371 67.1599 32.2635 66.856 32.2641 66.4464C32.2641 66.1691 32.247 65.7503 32.2127 65.1899C32.1729 64.5617 32.1348 64.1501 32.0985 63.9499C32.087 63.8849 32.0914 63.8416 32.1118 63.8217L32.6776 63.3676C32.7126 63.3342 32.753 63.3066 32.7972 63.2861C32.8105 63.2861 32.8175 63.3199 32.8175 63.3806V66.2307C32.8175 66.5513 33.0008 66.7116 33.3674 66.7116H33.5755L33.5791 67.5816Z" fill="white"/>
<path d="M35.9271 66.8678C35.9315 66.9715 35.9146 67.0751 35.8775 67.1724C35.8404 67.2698 35.7838 67.3588 35.7111 67.4345C35.6364 67.5079 35.5468 67.5652 35.4482 67.6028C35.3495 67.6404 35.2439 67.6575 35.1382 67.6528C34.8229 67.6528 34.5582 67.4891 34.3465 67.1624C34.1984 67.4426 33.9814 67.5824 33.6957 67.5818H33.399V66.7152H33.6957C33.894 66.7152 34.0189 66.6979 34.0694 66.6641C34.1198 66.6303 34.1269 66.5775 34.1181 66.4778C34.1019 66.2458 34.1773 66.0166 34.3288 65.8374C34.4028 65.7361 34.5004 65.6535 34.6137 65.5967C34.7269 65.5399 34.8524 65.5104 34.9797 65.5107C35.302 65.5107 35.5487 65.6644 35.7199 65.9717C35.8641 66.2489 35.9353 66.5569 35.9271 66.8678ZM35.5048 66.6745C35.4967 66.5116 35.4467 66.3533 35.3595 66.2144C35.2488 66.0203 35.132 65.9232 35.0053 65.9232C34.8483 65.9232 34.7698 66.0258 34.7698 66.2308C34.7733 66.4006 34.816 66.5674 34.8946 66.7187C34.9956 66.9241 35.116 67.0263 35.2542 67.0263C35.4224 67.0263 35.5048 66.9093 35.5048 66.6745Z" fill="white"/>
<path d="M37.0846 66.8132C37.0846 66.9738 36.9961 67.2355 36.819 67.5983C36.7729 67.6936 36.7402 67.7413 36.7225 67.7413C36.7047 67.7413 36.6675 67.6355 36.6498 67.4258L36.3204 63.8513L36.9571 63.3314C36.9812 63.3066 37.0119 63.2889 37.0457 63.2803C37.0687 63.2803 37.0802 63.3037 37.0802 63.3513L37.0846 66.8132Z" fill="white"/>
<path d="M42.1659 67.5812H41.8684C41.6811 67.5757 41.4945 67.5581 41.3096 67.5283C41.1247 67.4992 40.9381 67.4818 40.7509 67.4763C40.6502 67.4752 40.5499 67.489 40.4533 67.517C40.317 67.5578 40.2497 67.6176 40.2497 67.6964C40.2497 67.7432 40.3489 67.7831 40.5472 67.8117L40.9067 67.8455C41.095 67.8599 41.2802 67.9007 41.4566 67.9668C41.5179 67.9915 41.57 68.034 41.6059 68.0885C41.6419 68.143 41.6599 68.207 41.6576 68.2718C41.6576 68.7432 41.3993 69.0841 40.8828 69.2943C40.5209 69.4411 40.0572 69.5142 39.4917 69.5136C38.3228 69.5136 37.7384 69.095 37.7384 68.2579C37.7544 67.9689 37.8322 67.6864 37.9669 67.4287C38.1121 67.1173 38.226 66.9616 38.3087 66.9616C38.4176 66.9616 38.4716 67.0092 38.4716 67.1037C38.4454 67.2067 38.4126 67.308 38.3733 67.407C38.3156 67.5501 38.2821 67.7014 38.2741 67.855C38.2741 68.2247 38.4636 68.472 38.8426 68.5968C39.0752 68.673 39.4524 68.7114 39.9743 68.712C40.2103 68.7058 40.4455 68.6809 40.6774 68.6375C41.0316 68.5786 41.2042 68.5101 41.2042 68.4304C41.2042 68.3923 41.0838 68.3645 40.8447 68.3437C40.6187 68.3356 40.394 68.3065 40.1735 68.2571C39.9309 68.1895 39.8105 68.0742 39.8105 67.9105C39.8105 67.6615 39.9315 67.4177 40.1735 67.1791C40.4911 66.8631 40.9291 66.7051 41.4876 66.7051H42.1659V67.5812Z" fill="white"/>
<path d="M43.3484 66.2566C43.3578 66.5521 43.2898 66.845 43.1509 67.1075C43.074 67.2564 42.9548 67.3805 42.8076 67.4647C42.6604 67.5489 42.4915 67.5898 42.3212 67.5824H41.9891V66.7158H42.3726C42.7049 66.7158 42.8711 66.6549 42.8711 66.533C42.8711 66.4261 42.7418 66.2337 42.4832 65.9559C42.4687 65.9414 42.4605 65.922 42.4605 65.9017C42.4605 65.8814 42.4687 65.862 42.4832 65.8476L42.8879 65.2947C42.9224 65.247 42.957 65.241 42.9915 65.2774C43.1105 65.4112 43.199 65.5684 43.251 65.7384C43.3121 65.9048 43.345 66.0798 43.3484 66.2566ZM43.3227 64.2496L42.8578 64.7115L42.3876 64.2522L42.8569 63.793L43.3227 64.2496Z" fill="white"/>
<path d="M45.2462 67.5816H44.838C44.6203 67.5857 44.4099 67.5053 44.2527 67.358C44.0384 67.1599 43.9312 66.856 43.9312 66.4464C43.9312 66.1691 43.9141 65.7503 43.8799 65.1899C43.84 64.5617 43.8019 64.1501 43.7656 63.9499C43.7541 63.8849 43.7586 63.8416 43.7789 63.8217L44.3448 63.3676C44.3797 63.3342 44.4201 63.3066 44.4643 63.2861C44.4776 63.2861 44.4847 63.3199 44.4847 63.3806V66.2306C44.4847 66.5513 44.668 66.7116 45.0346 66.7116H45.2427L45.2462 67.5816Z" fill="white"/>
<path d="M47.7194 67.581H47.39C47.2095 67.58 47.0323 67.5325 46.8765 67.4432C46.7184 67.3577 46.5866 67.2323 46.4948 67.0801C46.4097 67.2362 46.2817 67.3658 46.1252 67.4544C45.9687 67.5429 45.79 67.5868 45.6093 67.581H45.063V66.7144H45.4712C45.8077 66.7144 46.0406 66.6408 46.1698 66.4935C46.2558 66.3714 46.3091 66.2302 46.3248 66.0827C46.3531 65.9354 46.4089 65.8618 46.4948 65.8618C46.5807 65.8618 46.6321 65.9354 46.6569 66.0827C46.6726 66.2268 46.7175 66.3664 46.7888 66.4935C46.8951 66.6408 47.0863 66.7144 47.3626 66.7144H47.7168L47.7194 67.581ZM46.2407 64.9051L45.8121 65.3167L45.3897 64.9016L45.813 64.4883L46.2407 64.9051ZM47.1846 64.9051L46.7569 65.3167L46.3345 64.9016L46.7578 64.4883L47.1846 64.9051Z" fill="white"/>
<path d="M51.8534 66.2871C51.8589 66.5774 51.7924 66.8646 51.6595 67.1242C51.4972 67.4292 51.2643 67.5818 50.9609 67.5818C50.6745 67.5818 50.4384 67.4261 50.2524 67.1147C50.0753 67.4255 49.8492 67.5812 49.5742 67.5818C49.279 67.5818 49.0429 67.4261 48.8658 67.1147C48.7845 67.262 48.6626 67.384 48.5138 67.4666C48.365 67.5492 48.1954 67.5891 48.0245 67.5818H47.5437V66.7152H48.1113C48.3167 66.7152 48.4643 66.647 48.5541 66.5107C48.6123 66.39 48.6542 66.2624 48.6789 66.1312C48.7134 65.9951 48.7675 65.9267 48.848 65.9267C48.9286 65.9267 48.9924 65.9942 49.0251 66.1303C49.0507 66.2603 49.0877 66.3878 49.1358 66.5116C49.212 66.6476 49.351 66.7152 49.5511 66.7152C49.6339 66.7225 49.717 66.7073 49.7915 66.6714C49.866 66.6355 49.929 66.5802 49.9735 66.5116C50.0266 66.3884 50.0681 66.2608 50.0975 66.1303C50.1347 65.9942 50.1967 65.9267 50.2843 65.9267C50.372 65.9267 50.4136 65.996 50.4437 66.1338C50.4635 66.2666 50.4995 66.3966 50.5509 66.5211C50.6311 66.6598 50.7752 66.7291 50.983 66.7291C51.2717 66.7291 51.416 66.634 51.416 66.444C51.416 66.3487 51.3177 66.184 51.122 65.9379L51.4364 65.4596C51.4552 65.4251 51.4784 65.393 51.5054 65.3643C51.5325 65.3842 51.5559 65.4085 51.5745 65.4362C51.6488 65.5358 51.7085 65.6452 51.7516 65.7611C51.819 65.9286 51.8536 66.1071 51.8534 66.2871Z" fill="white"/>
<path d="M54.2996 67.3457C54.3068 67.6472 54.2524 67.9471 54.1396 68.2277C54.0267 68.5083 53.8578 68.7641 53.6425 68.98C53.5071 69.1178 53.4238 69.1871 53.3937 69.1871C52.7733 69.1871 52.3131 69.1293 52.0132 69.0138C51.9486 68.9895 51.9468 68.967 52.007 68.9462C52.4407 68.793 52.8468 68.5736 53.2104 68.2963C53.6419 67.9716 53.8574 67.6793 53.8568 67.4193C53.8568 67.3113 53.7786 67.1602 53.6222 66.9661C53.5108 66.8236 53.3817 66.6952 53.2379 66.584L53.5735 65.8907C53.5947 65.8474 53.6222 65.8431 53.6567 65.8769C53.8605 66.0659 54.0226 66.2937 54.1332 66.5463C54.2437 66.7989 54.3003 67.0709 54.2996 67.3457Z" fill="white"/>
<path d="M56.201 67.5816H55.7928C55.5754 67.5859 55.3652 67.5055 55.2083 67.358C54.994 67.1599 54.8869 66.856 54.8869 66.4464C54.8869 66.1691 54.8695 65.7503 54.8347 65.1899C54.7957 64.5617 54.7576 64.1501 54.7204 63.9499C54.7089 63.8849 54.7133 63.8416 54.7346 63.8217L55.2995 63.3676C55.335 63.3343 55.3756 63.3068 55.42 63.2861C55.4341 63.2861 55.4412 63.3199 55.4412 63.3806V66.2307C55.4412 66.5513 55.6245 66.7116 55.9911 66.7116H56.201V67.5816Z" fill="white"/>
<path d="M59.3381 67.5817H59.0131C58.8805 67.5798 58.753 67.5315 58.6536 67.4457C58.5489 67.3631 58.4687 67.2544 58.4216 67.1311C58.2882 67.4778 58.0553 67.6511 57.7229 67.6511C57.4278 67.6511 57.1739 67.4876 56.9614 67.1606C56.8144 67.4408 56.5978 67.5806 56.3114 67.58H56.0139V66.7135H56.3114C56.5098 66.7135 56.6346 66.6961 56.6851 66.6623C56.7356 66.6286 56.7427 66.5757 56.7338 66.4752C56.7171 66.2418 56.7911 66.0109 56.941 65.8287C57.0122 65.7258 57.1082 65.6415 57.2204 65.5834C57.3326 65.5252 57.4578 65.4949 57.5848 65.4951C57.9301 65.4951 58.1896 65.684 58.3631 66.0618L58.581 66.5402C58.6181 66.5968 58.6701 66.6427 58.7314 66.6731C58.7927 66.7036 58.8612 66.7175 58.9299 66.7135H59.3381V67.5817ZM58.1205 66.6745C58.112 66.5117 58.0621 66.3535 57.9753 66.2143C57.8649 66.0202 57.7468 65.9232 57.6211 65.9232C57.4635 65.9232 57.3856 66.0254 57.3856 66.2308C57.3891 66.4006 57.4317 66.5673 57.5104 66.7187C57.6114 66.924 57.7318 67.0263 57.8699 67.0263C58.0364 67.0263 58.1199 66.909 58.1205 66.6745Z" fill="white"/>
<path d="M61.8149 67.5825H61.4864C61.306 67.5796 61.1293 67.5322 60.9727 67.4446C60.816 67.3571 60.6845 67.2322 60.5903 67.0816C60.5053 67.2378 60.3773 67.3675 60.2208 67.456C60.0642 67.5446 59.8855 67.5884 59.7048 67.5825H59.1584V66.716H59.5658C59.9023 66.716 60.1351 66.6423 60.2644 66.495C60.3504 66.3728 60.4039 66.2317 60.4203 66.0843C60.4477 65.9369 60.5088 65.8633 60.5894 65.8633C60.67 65.8633 60.7267 65.9369 60.7523 66.0843C60.7679 66.2283 60.8125 66.3679 60.8834 66.495C60.9897 66.6423 61.1812 66.716 61.4581 66.716H61.8123L61.8149 67.5825ZM60.3441 68.5955L59.92 69.0106L59.4949 68.5946L59.92 68.1778L60.3441 68.5955ZM61.289 68.5955L60.8675 69.0106L60.4415 68.5946L60.8657 68.1813L61.289 68.5955Z" fill="white"/>
<path d="M62.9945 66.2566C63.0039 66.5521 62.936 66.845 62.797 67.1075C62.7201 67.2564 62.6009 67.3805 62.4538 67.4647C62.3066 67.5489 62.1377 67.5898 61.9673 67.5824H61.6353V66.7158H62.0187C62.351 66.7158 62.5172 66.6549 62.5172 66.533C62.5172 66.4261 62.3879 66.2337 62.1294 65.9559C62.1152 65.9412 62.1074 65.9219 62.1074 65.9017C62.1074 65.8816 62.1152 65.8622 62.1294 65.8476L62.534 65.2947C62.5695 65.247 62.604 65.241 62.6385 65.2774C62.7569 65.4117 62.8453 65.5687 62.898 65.7384C62.9584 65.9049 62.991 66.0799 62.9945 66.2566ZM62.8626 68.6326L62.3924 69.0919L61.923 68.6326L62.3924 68.1734L62.8626 68.6326Z" fill="white"/>
<path d="M67.3622 67.582H67.1692C66.567 67.582 66.003 67.266 65.477 66.634C64.778 67.0037 64.4288 67.4234 64.4294 67.8931C64.4294 68.2501 64.6065 68.5152 64.9607 68.6886C65.2777 68.8333 65.625 68.9031 65.9746 68.8922C66.3297 68.8933 66.6837 68.8535 67.0292 68.7735C67.0627 68.7615 67.0981 68.7556 67.1337 68.7561C67.1257 68.7789 67.115 68.8007 67.1019 68.8211C66.874 69.218 66.338 69.4164 65.4938 69.4164C64.9932 69.4164 64.5782 69.3194 64.2488 69.1253C64.0604 69.0232 63.9047 68.8719 63.799 68.6883C63.6933 68.5047 63.6418 68.296 63.6502 68.0854C63.6502 67.45 64.1714 66.8801 65.214 66.3757C65.1323 66.2772 65.0435 66.1845 64.9483 66.0984C64.9342 66.0846 64.8545 66.0343 64.7092 65.9459C64.5986 65.8783 64.5436 65.8263 64.5436 65.7908C64.5581 65.6661 64.6182 65.5506 64.7128 65.4659C64.8999 65.2648 65.1836 65.1643 65.5637 65.1643C65.782 65.1603 65.9979 65.2078 66.1933 65.3029C66.4103 65.4121 66.5183 65.5542 66.5183 65.731C66.5183 65.9436 66.3179 66.1652 65.9171 66.3957C66.1632 66.6059 66.5517 66.7111 67.0824 66.7111H67.3657L67.3622 67.582Z" fill="white"/>
<path d="M70.507 67.5817H70.182C70.0494 67.5798 69.9219 67.5315 69.8225 67.4457C69.7177 67.3631 69.6376 67.2544 69.5905 67.1311C69.4571 67.4778 69.2242 67.6511 68.8918 67.6511C68.5966 67.6511 68.3428 67.4876 68.1303 67.1606C67.9833 67.4408 67.7666 67.5806 67.4803 67.58H67.181V66.7135H67.4786C67.6769 66.7135 67.8018 66.6961 67.8522 66.6623C67.9027 66.6286 67.9098 66.5757 67.9009 66.4752C67.8842 66.2418 67.9582 66.0109 68.1081 65.8287C68.1793 65.7258 68.2753 65.6415 68.3875 65.5834C68.4998 65.5252 68.6249 65.4949 68.7519 65.4951C69.0972 65.4951 69.3564 65.684 69.5294 66.0618L69.7481 66.5402C69.7853 66.5968 69.8372 66.6427 69.8985 66.6731C69.9598 66.7036 70.0283 66.7175 70.097 66.7135H70.5052L70.507 67.5817ZM69.2894 66.6745C69.2809 66.5117 69.231 66.3535 69.1442 66.2143C69.0338 66.0202 68.9157 65.9232 68.79 65.9232C68.6324 65.9232 68.5544 66.0254 68.5544 66.2308C68.558 66.4006 68.6006 66.5673 68.6793 66.7187C68.7802 66.924 68.9007 67.0263 69.0388 67.0263C69.2059 67.0263 69.2894 66.909 69.2894 66.6745Z" fill="white"/>
<path d="M72.9839 67.581H72.6554C72.475 67.5781 72.2983 67.5307 72.1416 67.4431C71.985 67.3555 71.8534 67.2307 71.7592 67.0801C71.6742 67.2363 71.5462 67.366 71.3897 67.4545C71.2332 67.543 71.0544 67.5869 70.8737 67.581H70.3274V66.7144H70.7356C71.0721 66.7144 71.305 66.6408 71.4343 66.4935C71.5202 66.3713 71.5738 66.2302 71.5901 66.0827C71.6176 65.9354 71.6787 65.8618 71.7592 65.8618C71.8398 65.8618 71.8965 65.9354 71.9222 66.0827C71.9377 66.2268 71.9823 66.3664 72.0532 66.4935C72.1595 66.6408 72.351 66.7144 72.6279 66.7144H72.9821L72.9839 67.581ZM71.5051 64.9051L71.0774 65.3167L70.655 64.9016L71.0783 64.4883L71.5051 64.9051ZM72.4499 64.9051L72.0213 65.3167L71.599 64.9016L72.0222 64.4883L72.4499 64.9051Z" fill="white"/>
<path d="M77.2449 67.5825H76.5604C75.8041 67.5825 75.426 67.2338 75.426 66.5366C74.6586 67.2344 73.8767 67.5831 73.0804 67.5825H72.8005V66.7159H73.1742C73.5416 66.7241 73.9077 66.6701 74.2563 66.5565C74.5936 66.4185 74.9193 66.2548 75.2303 66.0669C74.6931 65.8838 74.2953 65.7922 74.0367 65.7922C73.9127 65.7922 73.7772 65.8589 73.632 65.9932C73.5603 66.0672 73.4818 66.1345 73.3974 66.1943C73.3088 66.1943 73.2654 66.1553 73.2654 66.0764C73.265 65.9918 73.2853 65.9083 73.3248 65.8329C73.5922 65.3043 73.9012 65.04 74.2519 65.04C74.4331 65.04 74.7773 65.1198 75.2844 65.2792C75.7915 65.4386 76.1852 65.5181 76.4656 65.5175C76.6427 65.5175 76.7383 65.5253 76.7383 65.5418L76.7144 65.5955L76.4205 66.2151C76.2035 66.2083 75.9872 66.2431 75.7838 66.3173C75.7838 66.4906 75.8865 66.6062 76.0919 66.6639C76.2662 66.7023 76.4448 66.7183 76.6232 66.7116H77.2431L77.2449 67.5825ZM75.3977 68.4837L74.9275 68.943L74.4626 68.4845L74.9266 68.0244L75.3977 68.4837Z" fill="white"/>
<path d="M79.6009 66.8676C79.6051 66.9715 79.5881 67.0751 79.5509 67.1724C79.5136 67.2697 79.4569 67.3588 79.3839 67.4343C79.3094 67.5077 79.22 67.5651 79.1215 67.6027C79.023 67.6403 78.9175 67.6573 78.8119 67.6527C78.4955 67.6527 78.2298 67.4892 78.015 67.1623C77.868 67.4424 77.6513 67.5822 77.365 67.5817H77.0719V66.7151H77.3694C77.5678 66.7151 77.6926 66.6978 77.7431 66.664C77.7936 66.6302 77.8007 66.5773 77.7918 66.4777C77.7749 66.2453 77.8504 66.0156 78.0026 65.8365C78.0764 65.7352 78.174 65.6528 78.287 65.5959C78.4001 65.5391 78.5254 65.5096 78.6525 65.5098C78.976 65.5098 79.2228 65.6634 79.3928 65.9708C79.5374 66.2481 79.6089 66.5564 79.6009 66.8676ZM79.1785 66.6744C79.17 66.5116 79.1201 66.3534 79.0333 66.2143C78.9229 66.0202 78.8048 65.9231 78.6791 65.9231C78.5215 65.9231 78.4435 66.0254 78.4435 66.2307C78.4471 66.4005 78.4897 66.5673 78.5684 66.7186C78.6693 66.924 78.7898 67.0262 78.9279 67.0262C79.0944 67.0262 79.1779 66.9089 79.1785 66.6744Z" fill="white"/>
</svg>
