<svg width="40" height="56" viewBox="0 0 40 56" fill="none" xmlns="http://www.w3.org/2000/svg">
<path fill-rule="evenodd" clip-rule="evenodd" d="M39.7178 41.1631C39.4964 41.4447 39.2815 41.7326 39.051 42.006C38.876 42.2132 38.6885 42.411 38.4928 42.5975C38.3356 42.7472 38.2374 42.7414 38.0695 42.6059C37.9517 42.5111 37.8441 42.4029 37.7274 42.3067C37.3804 42.0218 37.2639 42.0281 36.9792 42.3677C36.7978 42.5844 36.6322 42.8147 36.4582 43.0382C36.2343 43.3259 36.2038 43.3348 35.9064 43.1522C35.6678 43.0065 35.4287 42.8604 35.2002 42.6984C34.9367 42.5113 34.9117 42.4037 35.089 42.121C35.3269 41.7423 35.5861 41.3777 35.8357 41.0068C35.9578 40.8261 36.0738 40.6407 36.2018 40.4644C36.3348 40.2808 36.4109 40.2617 36.6121 40.3591C36.8942 40.496 37.1512 40.6675 37.3516 40.9238C37.5233 41.1432 37.5595 41.1376 37.7327 40.9094C37.9963 40.5627 38.255 40.2118 38.5198 39.8661C38.6679 39.6723 38.6694 39.6788 38.8737 39.8254C39.1919 40.0539 39.4748 40.321 39.7178 40.6331V41.1631Z" fill="#1A57A7"/>
<path fill-rule="evenodd" clip-rule="evenodd" d="M14.8456 26.0834C14.8366 25.9804 14.8181 25.8772 14.8202 25.7742C14.8498 24.3626 14.9117 22.951 15.2592 21.5771C16.0714 18.3683 17.7612 15.7777 20.6073 14.0608C22.0901 13.1663 23.6934 12.5783 25.4384 12.4736C25.8869 12.4467 26.339 12.4205 26.7853 12.5188C26.8651 12.5363 26.9455 12.5526 27.0236 12.5776C27.2621 12.6539 27.2709 12.6675 27.2687 12.9315C27.2543 14.5787 26.938 16.164 26.3061 17.682C25.1645 20.4243 23.2188 22.379 20.5937 23.6763C19.4613 24.2359 18.2743 24.5987 17.0327 24.7933C16.6489 24.8536 16.6094 24.9128 16.6867 25.3077C16.7262 25.5105 16.7808 25.71 16.8286 25.911C16.1718 26.0197 15.5102 26.0674 14.8456 26.0834Z" fill="#F3B01C"/>
<path fill-rule="evenodd" clip-rule="evenodd" d="M11.5352 46.3846C10.2515 46.3991 9.0903 46.3661 7.94419 46.135C6.99083 45.9431 6.09584 45.6234 5.3337 44.9917C4.99276 44.7091 4.71221 44.7507 4.43694 45.1048C4.26308 45.3286 4.11739 45.5746 3.96215 45.8129C3.73494 46.1626 3.45515 46.4584 3.08804 46.6659C2.59689 46.9435 2.12436 46.8709 1.74165 46.4584C1.3129 45.9956 1.19615 45.4247 1.18684 44.8238C1.17326 43.937 1.27843 43.0607 1.45557 42.1927C1.68957 41.0464 2.04334 39.9359 2.48568 38.8531C2.51713 38.776 2.55261 38.6984 2.59865 38.6296C2.63564 38.5748 2.69904 38.5487 2.76597 38.5795C2.82812 38.6083 2.87039 38.6621 2.86058 38.7302C2.84699 38.8231 2.81831 38.9142 2.7939 39.0058C2.56569 39.858 2.29369 40.7 2.15782 41.5747C2.06749 42.1567 1.98371 42.7411 2.11429 43.3298C2.19129 43.6784 2.36138 43.9763 2.6145 44.2271C3.07294 44.6814 3.6426 44.7224 4.15866 44.3297C4.30032 44.2218 4.42386 44.0894 4.54992 43.9623C4.80204 43.7075 5.05013 43.4487 5.33294 43.2257C5.66004 42.9676 6.00903 42.906 6.39828 43.0822C7.7351 43.688 9.15622 43.936 10.6083 44.0354C11.9713 44.129 13.335 44.1112 14.6945 43.9718C16.9912 43.7365 19.1961 43.1498 21.32 42.2488C23.7637 41.2116 26.029 39.8715 28.145 38.2814C29.2403 37.4585 30.4264 36.8027 31.6684 36.2356C31.6971 36.2223 31.7265 36.2108 31.7552 36.1975C31.8241 36.1657 31.8951 36.1362 31.9625 36.1943C32.0441 36.2646 32.0061 36.3419 31.9736 36.4233C31.6525 37.2312 31.1299 37.8602 30.3097 38.1923C29.4263 38.5497 28.6558 39.0764 27.9304 39.6778C26.5483 40.8239 25.1126 41.8956 23.572 42.8245C21.2792 44.2071 18.8459 45.2528 16.2273 45.8507C15.0822 46.1123 13.9198 46.2612 12.7463 46.327C12.3032 46.3515 11.8606 46.3906 11.5352 46.3846Z" fill="#1A57A7"/>
<path fill-rule="evenodd" clip-rule="evenodd" d="M12.2512 39.7178C10.5117 39.7088 8.61334 39.5018 6.80067 38.7703C6.30117 38.5686 5.83264 38.3179 5.40807 37.9815C4.88934 37.5711 4.71727 37.0222 4.74549 36.3878C4.74973 36.2944 4.77421 36.1989 4.80717 36.111C4.88934 35.8956 5.07965 35.7822 5.30742 35.8175C5.42006 35.8351 5.53294 35.871 5.63784 35.9171C6.89732 36.469 8.22398 36.7721 9.57437 36.9833C10.7894 37.1735 12.0127 37.2666 13.2437 37.2477C16.2144 37.2031 19.0701 36.5852 21.829 35.4962C24.074 34.6101 26.1214 33.3886 27.9653 31.8232C28.7633 31.1456 29.4636 30.378 30.0792 29.5315C30.5825 28.8399 30.8527 28.0665 30.8657 27.2052C30.8729 26.7471 30.9813 26.3076 31.1297 25.8779C31.2982 25.3892 31.5265 24.9258 31.7513 24.4617C31.7872 24.3882 31.8167 24.2823 31.9216 24.3092C32.0218 24.3353 32.005 24.4414 32.0073 24.5247C32.0522 26.3139 31.7373 28.0263 30.9478 29.6424C30.251 31.0683 29.2957 32.3029 28.2021 33.4388C26.3984 35.312 24.2436 36.6469 21.8577 37.6293C19.7629 38.492 17.5983 39.1049 15.3583 39.4416C14.3928 39.5871 13.4202 39.6669 12.2512 39.7178Z" fill="#1A57A7"/>
<mask id="mask0_4471_5849" style="mask-type:alpha" maskUnits="userSpaceOnUse" x="4" y="40" width="30" height="16">
<path d="M4.14966 40.9033H33.7898V55.1306H4.14966V40.9033Z" fill="white"/>
</mask>
<g mask="url(#mask0_4471_5849)">
<path fill-rule="evenodd" clip-rule="evenodd" d="M33.7898 40.9033C33.7423 41.4326 33.7279 41.904 33.6205 42.3647C33.5584 42.6311 33.4787 42.8905 33.3347 43.1247C33.0774 43.5433 32.7124 43.6883 32.2399 43.5577C32.1302 43.5273 32.0211 43.4897 31.9177 43.4421C31.5864 43.2904 31.2887 43.3661 31.0111 43.5714C30.8134 43.7177 30.6748 43.9145 30.5833 44.141C30.4606 44.4455 30.5254 44.692 30.7842 44.8935C30.8899 44.976 31.0123 45.0378 31.1304 45.1033C31.3929 45.2499 31.5178 45.4701 31.5032 45.7739C31.4825 46.1957 31.3385 46.5722 31.0804 46.9004C30.8461 47.1986 30.5323 47.2649 30.1879 47.1084C29.3536 46.7297 28.9639 46.7855 28.3062 47.4169C27.5807 48.1131 26.7914 48.7255 25.9585 49.2827C24.4764 50.2744 22.9612 51.2065 21.3083 51.889C19.383 52.6839 17.3883 53.1952 15.3185 53.4197C13.0476 53.6661 10.8157 53.4887 8.62199 52.8433C8.1682 52.71 7.73915 52.5304 7.39225 52.194C7.23241 52.0383 7.06243 52.048 6.87735 52.1394C6.59033 52.2812 6.3711 52.5022 6.16796 52.7432C5.57635 53.4461 4.98474 54.1492 4.39264 54.8519C4.32756 54.9294 4.25952 55.0046 4.14966 55.1307C4.1603 54.819 4.28797 54.6304 4.41416 54.4435C4.94119 53.6644 5.49049 52.9014 6.0774 52.1666C6.42281 51.7343 6.77095 51.3037 7.11835 50.8729C7.16412 50.8158 7.21163 50.7603 7.26087 50.7062C7.74583 50.175 8.17142 50.0494 8.82538 50.3471C10.8358 51.2633 12.9516 51.4574 15.1109 51.2746C18.0989 51.0211 20.9545 50.2295 23.6735 48.9593C25.311 48.1946 26.8122 47.1964 28.2661 46.1257C28.4668 45.9777 28.6459 45.7998 28.834 45.6346C29.0458 45.4482 29.2595 45.2588 29.5268 45.1609C29.6972 45.0984 29.7603 44.9795 29.8059 44.8203C29.9692 44.2544 30.1936 43.7155 30.5224 43.2248C30.7998 42.8115 31.1289 42.4544 31.5856 42.2349C31.9137 42.0772 32.2218 42.0174 32.5464 42.2743C32.7733 42.4539 32.9888 42.3914 33.1623 42.1487C33.3239 41.9224 33.4033 41.664 33.4312 41.3882C33.4528 41.1737 33.5619 41.0259 33.7898 40.9033Z" fill="#1A57A7"/>
</g>
<path fill-rule="evenodd" clip-rule="evenodd" d="M36.7259 39.1246C36.2704 39.1298 35.9032 38.8671 35.737 38.4174C35.6222 38.1071 35.5744 37.7831 35.569 37.4523C35.5547 36.5332 35.7146 35.6353 35.9115 34.7434C36.1436 33.692 36.4656 32.6654 36.7835 31.6378C36.8105 31.5514 36.8158 31.4259 36.9189 31.4189C37.0445 31.4101 37.0555 31.5504 37.0871 31.6383C37.1507 31.8173 37.1347 32.0035 37.0919 32.1852C36.8717 33.1239 36.7244 34.0762 36.5745 35.0276C36.496 35.5247 36.5351 36.0117 36.8231 36.4485C36.9575 36.6518 37.1289 36.8059 37.3797 36.8449C37.7129 36.8967 38.0116 36.7441 38.197 36.425C38.2432 36.3457 38.2773 36.2593 38.3227 36.1794C38.355 36.1233 38.4046 36.0837 38.4744 36.112C38.531 36.1347 38.5341 36.1887 38.5315 36.2412C38.5305 36.2617 38.5269 36.282 38.523 36.3022C38.4012 36.9267 38.2702 37.5485 37.9637 38.1154C37.8111 38.3976 37.6181 38.6478 37.377 38.8588C37.1865 39.0258 36.9697 39.1307 36.7259 39.1246Z" fill="#1A57A7"/>
<mask id="mask1_4471_5849" style="mask-type:alpha" maskUnits="userSpaceOnUse" x="0" y="50" width="6" height="4">
<path d="M0 50.3882H5.33522V53.945H0V50.3882Z" fill="white"/>
</mask>
<g mask="url(#mask1_4471_5849)">
<path fill-rule="evenodd" clip-rule="evenodd" d="M5.33484 51.4742C5.34049 51.6462 5.28686 51.8015 5.1973 51.9418C4.85269 52.4815 4.3944 52.9171 3.94638 53.3616C3.84554 53.4617 3.76625 53.425 3.67105 53.338C3.51093 53.1916 3.34311 53.0513 3.16529 52.9289C2.92896 52.7665 2.77244 52.7775 2.54483 52.9517C2.36342 53.0904 2.2015 53.2522 2.05165 53.4261C1.98775 53.5008 1.92514 53.5766 1.85817 53.6479C1.50021 54.0305 1.37089 54.0426 0.974184 53.6896C0.804059 53.5383 0.59262 53.4919 0.40171 53.3938C0.305998 53.3448 0.204128 53.3081 0.106107 53.263C-0.00654039 53.2116 -0.0255288 53.1237 0.03041 53.0199C0.0665906 52.9527 0.112779 52.8908 0.15871 52.83C0.564138 52.2879 0.969822 51.7459 1.37679 51.2051C1.55538 50.9673 1.63544 50.9363 1.89948 51.0294C2.21433 51.1401 2.53765 51.2382 2.79553 51.4692C2.9228 51.5835 3.02442 51.5521 3.12526 51.4322C3.36364 51.1482 3.61075 50.8713 3.84271 50.582C3.98461 50.4042 4.16141 50.3539 4.36079 50.41C4.80137 50.5346 5.11648 50.8162 5.29892 51.2476C5.31175 51.2772 5.31893 51.3103 5.32355 51.3428C5.32997 51.3861 5.33125 51.4304 5.33484 51.4742Z" fill="#1A57A7"/>
</g>
<path fill-rule="evenodd" clip-rule="evenodd" d="M29.3112 41.4961C29.2642 41.4916 29.209 41.4938 29.1584 41.4796C29.0513 41.4488 29.0109 41.3366 29.0851 41.2547C29.1413 41.1931 29.2174 41.1478 29.2896 41.1033C30.2373 40.5191 31.1212 39.8446 32.0088 39.1767C32.7248 38.6381 33.2371 37.9366 33.5542 37.0931C33.7122 36.6736 33.889 36.2611 34.0584 35.8457C34.0866 35.7767 34.1176 35.7085 34.1522 35.6424C34.1863 35.5777 34.2425 35.5533 34.3132 35.577C34.3755 35.5978 34.3844 35.6541 34.3821 35.7075C34.3801 35.7602 34.3712 35.8146 34.3542 35.8642C34.0711 36.6929 33.8648 37.5463 33.5431 38.3623C33.3701 38.8004 33.1697 39.2245 32.9153 39.6222C32.4852 40.2942 31.8997 40.7679 31.1436 41.03C30.6087 41.2152 30.0712 41.3918 29.5091 41.4773C29.446 41.487 29.3817 41.4898 29.3112 41.4961Z" fill="#1A57A7"/>
<path fill-rule="evenodd" clip-rule="evenodd" d="M21.9336 30.454C21.9131 30.5233 21.8919 30.6329 21.8482 30.734C21.664 31.1601 21.3814 31.5209 20.9982 31.8112C20.898 31.8873 20.7893 31.9495 20.6634 31.9869C20.491 32.0376 20.345 32.0136 20.2317 31.8763C19.9559 31.5429 19.5897 31.3205 19.1963 31.127C18.918 30.9904 18.9095 30.9373 19.0975 30.6904C19.4648 30.2087 19.8332 29.7278 20.203 29.2478C20.3851 29.0114 20.4337 28.9997 20.7082 29.1317C21.0635 29.3024 21.4024 29.4956 21.6597 29.7888C21.819 29.9704 21.9382 30.1694 21.9336 30.454Z" fill="#1A57A7"/>
<path fill-rule="evenodd" clip-rule="evenodd" d="M34.9753 45.1814C35.5178 44.559 36.0325 43.9698 36.5453 43.3796C36.62 43.2933 36.7068 43.248 36.8366 43.2913C37.1339 43.3906 37.4293 43.4936 37.672 43.6733C37.9644 43.8898 38.0274 44.109 37.809 44.3768C37.4634 44.7994 37.0714 45.1945 36.6203 45.5459C36.5025 45.6376 36.3481 45.682 36.2104 45.6103C35.84 45.4177 35.4216 45.3222 34.9753 45.1814Z" fill="#1A57A7"/>
<path fill-rule="evenodd" clip-rule="evenodd" d="M19.0791 8.30353C19.2727 8.30353 19.4675 8.29172 19.6601 8.30655C19.8698 8.32303 19.9559 8.40379 19.9605 8.60789C19.9746 9.20533 20.105 9.79399 20.0371 10.3994C19.7443 13.0051 18.4247 14.8475 16.063 15.9248C15.7411 16.0715 15.6876 16.0369 15.6203 15.6652C15.4388 14.6664 15.1938 13.6861 14.8 12.7486C14.5273 12.1 14.1956 11.4842 13.7988 10.904C13.5652 10.5631 13.5736 10.5035 13.8699 10.2398C15.0711 9.17127 16.484 8.58756 18.057 8.3722C18.2376 8.34748 18.4188 8.32413 18.6005 8.31287C18.7594 8.30298 18.9194 8.31067 19.0791 8.31067V8.30353Z" fill="#F3B01C"/>
<path d="M14.8201 26.0833C22.0228 26.0833 27.8617 20.2444 27.8617 13.0416C27.8617 5.83894 22.0228 0 14.8201 0C7.61739 0 1.77844 5.83894 1.77844 13.0416C1.77844 20.2444 7.61739 26.0833 14.8201 26.0833Z" fill="#F4B11C"/>
<path fill-rule="evenodd" clip-rule="evenodd" d="M18.8318 8.5947V8.60111C18.6856 8.60111 18.5391 8.5942 18.3936 8.60308C18.2272 8.61319 18.0613 8.63415 17.8959 8.65633C16.4555 8.84963 15.1616 9.37355 14.0618 10.3326C13.7904 10.5693 13.7827 10.6228 13.9966 10.9288C14.36 11.4495 14.6637 12.0023 14.9134 12.5844C15.2741 13.4258 15.4984 14.3058 15.6646 15.2022C15.7262 15.5358 15.7752 15.5669 16.07 15.4352C18.2327 14.4683 19.441 12.8146 19.7091 10.4759C19.7713 9.93248 19.6519 9.40412 19.6389 8.86787C19.6347 8.68469 19.5559 8.6122 19.3639 8.59741C19.1875 8.5841 19.0092 8.5947 18.8318 8.5947ZM13.0281 25.9469C13.0701 25.4935 13.1169 25.0406 13.1527 24.5869C13.2178 23.7597 13.3967 22.9488 13.5101 22.1288C13.6195 21.3386 13.7193 20.5474 13.7847 19.7533C13.8765 18.6377 13.9367 17.5205 13.8725 16.3997C13.8101 15.3171 13.6233 14.2584 13.2124 13.2515C12.3262 11.0777 10.701 9.7382 8.42564 9.15511C7.4377 8.90215 6.4321 8.80426 5.41257 8.84766C4.88204 8.87034 4.83055 8.89968 4.744 9.42237C4.32066 11.9838 5.0855 14.1167 7.15191 15.7318C8.44131 16.7397 9.93341 17.3563 11.5258 17.7353C11.678 17.7715 11.8319 17.8004 11.9842 17.8364C12.2565 17.9012 12.2869 17.9513 12.217 18.2254C12.1508 18.4863 12.0794 18.7457 12.0138 19.0068C11.9914 19.097 11.9861 19.1914 11.963 19.2814C11.8996 19.526 11.7732 19.616 11.5277 19.5573C9.63867 19.1061 7.82297 18.4843 6.21024 17.3667C5.23647 16.6921 4.49054 15.843 3.97742 14.7777C3.36655 13.5082 2.96511 12.1879 2.96411 10.7757C2.96362 9.83977 3.15787 8.92557 3.42252 8.02689C3.50584 7.74435 3.67597 7.59247 3.97668 7.56535C4.85244 7.48695 5.72895 7.45144 6.6077 7.48572C8.02867 7.54144 9.39965 7.84494 10.7365 8.31486C11.3206 8.52024 11.8697 8.7912 12.3749 9.14894C12.5647 9.28306 12.5818 9.2875 12.7463 9.127C13.918 7.98177 15.3765 7.48645 16.9664 7.28404C18.1618 7.13167 19.3591 7.06288 20.5635 7.15608C20.9962 7.18961 21.133 7.29784 21.2134 7.72142C21.3325 8.34642 21.3527 8.97685 21.2937 9.609C21.2258 10.341 21.149 11.0723 21.0778 11.8043C21.0699 11.8842 21.0502 11.9663 21.0883 12.0641C21.6822 11.8245 22.2874 11.6344 22.897 11.4574C24.1904 11.0821 25.5134 10.9258 26.857 10.9076C26.9716 10.9061 27.0863 10.8992 27.201 10.895C27.6701 10.9174 28.1392 10.9399 28.608 10.9628C28.6811 10.9663 28.7545 10.9685 28.8269 10.9778C29.0321 11.0042 29.0507 11.0166 29.047 11.2338C29.0154 13.1845 28.8403 15.1177 28.3235 17.009C27.4206 20.3122 25.4089 22.7491 22.4399 24.4491C20.842 25.3638 19.1355 25.9747 17.3303 26.3278C17.0236 26.3877 16.9599 26.3574 16.8172 26.0768C16.7846 26.0125 16.7555 25.9459 16.7246 25.8801C16.6759 25.6796 16.6202 25.4802 16.5799 25.278C16.5013 24.8835 16.5413 24.8243 16.9328 24.7644C18.1991 24.5702 19.4096 24.2077 20.5647 23.6493C23.2417 22.3542 25.2261 20.4027 26.3906 17.665C27.0348 16.1495 27.3574 14.5666 27.3723 12.9224C27.3746 12.6588 27.3656 12.645 27.1221 12.5691C27.0428 12.5442 26.9607 12.5279 26.8791 12.5102C26.4239 12.412 25.9631 12.4382 25.5054 12.465C23.726 12.5698 22.0909 13.1569 20.5784 14.0499C17.676 15.7636 15.9526 18.3499 15.1243 21.5536C14.7696 22.9252 14.7065 24.3344 14.6764 25.7437C14.6741 25.8465 14.693 25.9496 14.7022 26.0524C14.7027 26.1037 14.6973 26.156 14.7047 26.206C14.7729 26.6695 14.8037 26.6907 15.2867 26.6597C15.4429 26.6493 15.6001 26.652 15.7566 26.6508C17.1251 26.6399 18.4933 26.6293 19.8618 26.6187C19.9036 26.6185 19.9454 26.617 19.9872 26.6185C20.2155 26.6264 20.2553 26.6473 20.2585 26.8613C20.266 27.3273 20.254 27.7931 20.2531 28.259C20.2528 28.3811 20.1904 28.4225 20.0777 28.4203C20.0046 28.419 19.9314 28.4242 19.8583 28.4267C17.7486 28.4935 15.6384 28.4171 13.5287 28.4361C13.4663 28.4368 13.4031 28.4365 13.341 28.4296C13.0694 28.4001 12.9746 28.3042 12.9788 28.0263C12.9865 27.4881 13.0049 26.9496 13.0208 26.4116C13.0253 26.2568 13.0527 26.1022 13.0281 25.9469Z" fill="#1A57A7"/>
</svg>
