<svg width="60" height="17" viewBox="0 0 60 17" fill="none" xmlns="http://www.w3.org/2000/svg">
<g clip-path="url(#clip0_13096_172)">
<path d="M52.8894 15.0955C53.1651 14.7886 53.4118 14.4581 53.6265 14.1079C53.8534 13.7381 54.033 13.3424 54.1613 12.9299C54.2496 12.6401 54.3077 12.3423 54.3347 12.0411H47.9611C47.593 12.0422 47.2263 11.9972 46.8699 11.9071C46.7747 11.8859 46.6806 11.86 46.5881 11.8295C46.1233 11.6909 45.677 11.4991 45.2584 11.2581C44.2323 10.6656 43.3001 9.76269 42.5847 8.64111V13.5577C42.5883 14.4677 42.9603 15.3394 43.6195 15.9829C44.2787 16.6264 45.1717 16.9895 46.1039 16.993H46.8627L49.1896 17C49.3847 17 49.5509 16.993 49.7026 16.9859C50.288 16.9577 50.6565 16.8307 51.2924 16.4357C51.8811 16.0573 52.4178 15.6069 52.8894 15.0955Z" fill="#B61918"/>
<path d="M45.5547 10.7784C45.9304 10.9993 46.3335 11.1723 46.7542 11.2934C46.7917 11.3083 46.8304 11.3201 46.8699 11.3286C47.134 11.4012 47.4053 11.4461 47.6792 11.4627V5.64315C47.6792 4.99419 47.6864 4.57801 47.8888 3.90788C48.0294 3.45373 48.2259 3.0179 48.4741 2.60996C48.8152 2.05311 49.2307 1.54309 49.7098 1.09336C50.1521 0.68171 50.6363 0.315346 51.1551 0L46.1183 0C45.1861 0.0035297 44.2931 0.366592 43.6339 1.01007C42.9747 1.65354 42.6027 2.52527 42.5991 3.43527V6.36265C42.5991 7.2444 42.6136 7.60415 43.105 8.36597C43.7553 9.4029 44.6153 10.2353 45.5547 10.7784Z" fill="#B61918"/>
<path d="M56.4807 0.00708008H53.5179C53.2939 0.00708008 53.0843 0.014134 52.8964 0.0282419C52.3984 0.0539819 51.9155 0.204609 51.4945 0.465586C50.8329 0.860382 50.234 1.34756 49.7168 1.91164C49.4412 2.21847 49.1945 2.549 48.9798 2.8992C48.7552 3.26681 48.578 3.66011 48.4522 4.07015C48.3632 4.36219 48.3051 4.66238 48.2788 4.966H54.1177C54.8403 4.966 55.2811 4.95895 56.0037 5.17762C56.469 5.31489 56.9155 5.50675 57.3334 5.74899C58.3595 6.34152 59.2917 7.23737 59.9999 8.35895V3.44235C59.9987 2.5316 59.6276 1.65848 58.9679 1.01448C58.3081 0.370489 57.4137 0.00820008 56.4807 0.00708008Z" fill="#B61918"/>
<path d="M57.0371 6.22867C56.6614 6.00782 56.2582 5.83477 55.8375 5.71373C55.5392 5.62342 55.2313 5.56663 54.9198 5.54443V11.2229C54.9198 11.9494 54.9342 12.3585 54.7102 13.0922C54.5696 13.5463 54.3731 13.9821 54.1249 14.3901C53.7855 14.9459 53.3697 15.4538 52.8892 15.8996C52.4497 16.3135 51.9678 16.6822 51.4512 17H56.4807C57.4123 16.9945 58.3041 16.6308 58.9629 15.9877C59.6216 15.3447 59.9942 14.4741 59.9999 13.5648V10.7502C59.9999 9.70626 59.9493 9.29008 59.3351 8.40128C58.745 7.51858 57.9598 6.77619 57.0371 6.22867Z" fill="#B61918"/>
<path d="M28.1391 3.92188H19.3086V4.97291H28.1391V3.92188Z" fill="#f0f0f0"/>
<path d="M28.1391 2.27832H19.3086V3.31525H28.1391V2.27832Z" fill="#f0f0f0"/>
<path fill-rule="evenodd" clip-rule="evenodd" d="M38.8558 6.03102C37.7935 5.48081 33.3638 5.45259 32.3304 6.04513C31.8318 6.32023 31.5861 6.64471 31.5861 7.02562V10.1928H33.436V7.13143C33.436 6.63766 37.779 6.63766 37.779 7.13143V10.5526C37.779 10.7854 37.5767 10.8982 37.1792 10.8982H31.4054C31.0297 10.8982 30.8273 10.7854 30.8273 10.5526V2.27832H28.9846V10.5596C28.9846 10.9053 29.2231 11.2298 29.6783 11.5049C30.1408 11.7941 30.7189 11.9281 31.3982 11.9281H37.2515C37.9091 11.9281 38.4655 11.78 38.928 11.4908C39.3905 11.2016 39.6217 10.87 39.6217 10.5244V6.97625C39.6362 6.60944 39.376 6.29907 38.8558 6.03102Z" fill="#f0f0f0"/>
<path fill-rule="evenodd" clip-rule="evenodd" d="M26.3687 11.9354C26.3687 12.6125 26.0002 13.1486 25.2559 13.5366L26.6505 14.2138C27.6911 13.6636 28.2186 12.9723 28.2186 12.154V5.69263H26.3687V11.9354Z" fill="#f0f0f0"/>
<path fill-rule="evenodd" clip-rule="evenodd" d="M23.8179 6.65898C22.7701 6.04529 21.5127 5.73491 20.0675 5.73491H19.3087V6.78595H20.0675C21.0358 6.78595 21.874 6.99052 22.5605 7.4067C23.247 7.82288 23.6084 8.30255 23.6084 8.85981C23.6084 9.41707 23.2543 9.91085 22.5316 10.32C21.8235 10.7221 21.0069 10.9337 20.0675 10.9337H18.6439V5.73491H16.8662C16.264 5.72989 15.6631 5.78902 15.0741 5.91126C14.3803 6.05781 13.7146 6.31015 13.1013 6.65898C12.0535 7.27267 11.5332 8.00628 11.5332 8.85981C11.5332 9.71334 12.0607 10.4469 13.1158 11.0606C13.7227 11.4118 14.3841 11.6644 15.0741 11.8084C15.6394 11.9261 16.2159 11.9852 16.794 11.9847C16.794 12.6196 16.4182 13.1345 15.6811 13.5295L17.0613 14.2349C18.1091 13.6565 18.6294 12.9582 18.6294 12.1258V11.9847H20.053C21.5416 11.9847 22.8038 11.6767 23.8396 11.0606C24.8657 10.4399 25.386 9.71334 25.386 8.85981C25.4005 8.00628 24.8802 7.26562 23.8179 6.65898ZM16.794 10.9337C16.2091 10.9422 15.6272 10.8515 15.0741 10.6656C14.8182 10.5777 14.5734 10.4617 14.3442 10.32C13.6866 9.9179 13.3542 9.42413 13.3542 8.85981C13.3542 8.31666 13.73 7.83699 14.496 7.4067C14.6811 7.29639 14.8743 7.19972 15.0741 7.11749C15.6177 6.89211 16.2034 6.77922 16.794 6.78595V10.9337Z" fill="#f0f0f0"/>
<path fill-rule="evenodd" clip-rule="evenodd" d="M8.92449 10.207C8.92449 10.8983 8.59208 11.4415 7.93448 11.8435C7.27689 12.2456 6.42418 12.4572 5.3836 12.4572C4.40082 12.4572 3.57702 12.2527 2.8833 11.8224C2.1968 11.4062 1.85716 10.9265 1.85716 10.3693V5.7207H0V10.3622C0 11.2228 0.541973 11.9776 1.61869 12.5983C2.69541 13.219 3.95279 13.5294 5.3836 13.5294C6.76382 13.5294 7.99229 13.2543 9.04011 12.6971C10.1819 12.0622 10.76 11.3004 10.76 10.4186V5.7207H8.91726V10.207H8.92449Z" fill="#f0f0f0"/>
<path fill-rule="evenodd" clip-rule="evenodd" d="M37.1722 12.4643C36.9081 12.466 36.6529 12.558 36.4509 12.7242C36.249 12.8904 36.113 13.1204 36.0666 13.3742C36.0222 13.1194 35.8868 12.8881 35.6844 12.7214C35.4821 12.5546 35.2258 12.4631 34.961 12.4631C34.6961 12.4631 34.4399 12.5546 34.2375 12.7214C34.0352 12.8881 33.8998 13.1194 33.8553 13.3742C33.8082 13.1039 33.6588 12.8607 33.4367 12.6929C33.2146 12.525 32.9361 12.4446 32.6562 12.4677C32.3763 12.4907 32.1154 12.6155 31.9253 12.8174C31.7352 13.0193 31.6297 13.2834 31.6296 13.5576C31.63 13.8312 31.7352 14.0947 31.9247 14.2963C32.1141 14.4979 32.374 14.623 32.6532 14.6469C32.9324 14.6708 33.2106 14.5918 33.4331 14.4254C33.6556 14.2591 33.8062 14.0174 33.8553 13.7481C33.9015 14.0016 34.0376 14.2311 34.2398 14.3964C34.4419 14.5618 34.6972 14.6524 34.961 14.6524C35.2247 14.6524 35.48 14.5618 35.6822 14.3964C35.8843 14.2311 36.0204 14.0016 36.0666 13.7481C36.1157 14.0174 36.2663 14.2591 36.4888 14.4254C36.7113 14.5918 36.9895 14.6708 37.2687 14.6469C37.5479 14.623 37.8078 14.4979 37.9973 14.2963C38.1867 14.0947 38.292 13.8312 38.2923 13.5576C38.2897 13.2685 38.1708 12.9918 37.9613 12.7874C37.7518 12.5829 37.4685 12.4668 37.1722 12.4643Z" fill="#f0f0f0"/>
<path fill-rule="evenodd" clip-rule="evenodd" d="M5.38351 9.75557C5.60504 9.75557 5.8216 9.69145 6.00579 9.57131C6.18999 9.45116 6.33355 9.28041 6.41833 9.08062C6.5031 8.88083 6.52528 8.661 6.48207 8.4489C6.43885 8.23681 6.33217 8.042 6.17552 7.88909C6.01888 7.73618 5.8193 7.63204 5.60203 7.58986C5.38475 7.54767 5.15954 7.56932 4.95488 7.65208C4.75021 7.73483 4.57528 7.87497 4.4522 8.05477C4.32912 8.23457 4.26343 8.44596 4.26343 8.66221C4.26296 8.80592 4.2916 8.94831 4.34772 9.08117C4.40384 9.21403 4.48633 9.33475 4.59043 9.43637C4.69454 9.53799 4.8182 9.61851 4.95431 9.67329C5.09042 9.72807 5.23629 9.75604 5.38351 9.75557Z" fill="#f0f0f0"/>
</g>
<defs>
<clipPath id="clip0_13096_172">
<rect width="60" height="17" fill="white"/>
</clipPath>
</defs>
</svg>
