<svg width="41" height="38" viewBox="0 0 41 38" fill="none" xmlns="http://www.w3.org/2000/svg">
<mask id="mask0_4471_6468" style="mask-type:alpha" maskUnits="userSpaceOnUse" x="14" y="0" width="27" height="30">
<path d="M14.7643 0.25H40.9851V29.0112H14.7643V0.25Z" fill="white"/>
</mask>
<g mask="url(#mask0_4471_6468)">
<path fill-rule="evenodd" clip-rule="evenodd" d="M30.2679 19.2819C29.251 19.2819 28.2348 19.2858 27.2179 19.2786C26.9738 19.2766 26.8648 19.3367 26.7852 19.6062C26.4517 20.7386 26.1325 21.8795 25.3663 22.8311C24.9571 23.3408 24.416 23.6319 23.8482 23.8793C23.2666 24.1319 22.6453 24.2063 22.0063 24.2617C21.1089 24.3401 20.2285 24.2787 19.3891 24.0294C18.4147 23.7409 17.5629 23.2266 16.8581 22.429C15.6571 21.0695 15.2388 19.4352 14.994 17.7233C14.7644 16.121 14.7225 14.5089 14.8002 12.8909C14.8635 11.549 15.0201 10.2208 15.4411 8.94485C15.8314 7.76286 16.5533 6.8191 17.6132 6.12531C18.476 5.5614 19.4126 5.36168 20.4197 5.31469C21.1063 5.28205 21.791 5.20439 22.473 5.32252C23.2438 5.45567 23.9748 5.66909 24.632 6.14684C25.4348 6.73099 26.0927 7.41172 26.5091 8.31633C26.6468 8.61525 26.7473 8.92788 26.7904 9.25095C26.8217 9.48722 26.9151 9.58447 27.154 9.58447C29.2503 9.5799 31.3474 9.5812 33.4438 9.58316C33.6383 9.58381 33.727 9.55118 33.6898 9.311C33.4418 7.68519 33.0071 6.1364 32.1143 4.72271C31.4903 3.73522 30.8207 2.80517 29.9676 2.00173C29.5081 1.5677 29.1289 1.05013 28.6244 0.658529C28.5344 0.58804 28.5233 0.503193 28.5683 0.405945C28.6172 0.300212 28.6936 0.227765 28.817 0.25583C28.9717 0.291074 29.1276 0.326319 29.2745 0.383754C30.2404 0.762303 31.1914 1.18719 32.0829 1.70868C33.2369 2.38223 34.3542 3.11975 35.3789 3.99107C35.8371 4.38071 36.2868 4.78733 36.7104 5.20504C37.2926 5.77874 37.7873 6.44316 38.2755 7.10693C39.3074 8.50886 40.099 10.025 40.5527 11.7089C40.8836 12.9385 41.0467 14.1976 40.9645 15.4657C40.8313 17.5144 40.1604 19.3967 39.0561 21.1283C38.344 22.2443 37.5262 23.2801 36.5857 24.203C35.9396 24.8361 35.234 25.4124 34.5089 25.9646C33.2493 26.9233 31.8741 27.6746 30.4545 28.354C29.9898 28.5766 29.5036 28.7547 29.0239 28.9434C28.8829 28.9988 28.7106 29.0922 28.6179 28.8722C28.5259 28.6555 28.6962 28.6164 28.8424 28.5387C29.6752 28.0936 30.4167 27.5512 31.0256 26.8032C31.5902 26.1101 32.0607 25.3732 32.4537 24.5783C32.966 23.5405 33.2238 22.4225 33.4836 21.3051C33.6095 20.7582 33.6174 20.1989 33.6794 19.6454C33.71 19.3706 33.5978 19.2734 33.3178 19.2773C32.3009 19.2897 31.2847 19.2819 30.2679 19.2819Z" fill="#1E5AA0"/>
</g>
<mask id="mask1_4471_6468" style="mask-type:alpha" maskUnits="userSpaceOnUse" x="0" y="0" width="16" height="30">
<path d="M0.75 0.253418H15.1109V29.0306H0.75V0.253418Z" fill="white"/>
</mask>
<g mask="url(#mask1_4471_6468)">
<path fill-rule="evenodd" clip-rule="evenodd" d="M14.881 0.253418C14.9848 0.253418 15.0703 0.27104 15.0977 0.369594C15.1251 0.466842 15.1166 0.558868 15.0057 0.609777C14.8921 0.66199 14.7805 0.721384 14.6656 0.772292C13.2323 1.40865 12.0947 2.43726 11.0707 3.584C10.1524 4.61131 9.41748 5.77894 8.92276 7.07318C8.48351 8.22123 8.13172 9.39147 7.9072 10.6126C7.57956 12.3892 7.48362 14.1723 7.54758 15.9632C7.59718 17.3495 7.79168 18.7247 8.15195 20.0757C8.56118 21.6088 9.13357 23.0676 10.031 24.3762C10.6576 25.2906 11.3801 26.1247 12.2488 26.8413C13.094 27.5397 13.9921 28.1395 14.9463 28.6668C15.0383 28.7184 15.1362 28.7543 15.0768 28.9044C15.022 29.0415 14.9228 29.0441 14.8203 29.0173C13.9562 28.7921 13.0783 28.6146 12.2462 28.2798C11.5224 27.9894 10.7809 27.7518 10.0819 27.3935C8.69889 26.6834 7.38245 25.8708 6.13716 24.9433C5.83432 24.7175 5.5739 24.4342 5.28999 24.1823C4.67387 23.6367 4.11192 23.0362 3.59565 22.4005C3.1055 21.7962 2.65515 21.1604 2.28509 20.4627C1.93852 19.8088 1.61545 19.1463 1.34263 18.461C1.14422 17.9637 1.06133 17.4285 0.942543 16.905C0.700402 15.8399 0.742172 14.761 0.776111 13.6874C0.79765 12.9942 0.987577 12.3135 1.1514 11.6373C1.49405 10.223 2.15586 8.95223 2.98345 7.77154C3.42008 7.14759 3.91546 6.56475 4.42781 5.99236C5.74425 4.52189 7.34003 3.42214 9.02197 2.44901C9.94941 1.91186 10.9565 1.50655 11.9649 1.12212C12.8819 0.772292 13.7989 0.438124 14.7713 0.28083C14.8131 0.274303 14.8529 0.260597 14.881 0.253418Z" fill="#1E5AA0"/>
</g>
<path fill-rule="evenodd" clip-rule="evenodd" d="M37.3223 32.8333C37.2968 32.8346 37.272 32.8366 37.2472 32.8386C36.9985 33.52 36.7531 34.2026 36.5012 34.8827C36.4163 35.1112 36.5417 35.1418 36.7166 35.1262C37.1167 35.0896 37.5161 35.0727 37.9162 35.117C38.082 35.1347 38.1688 35.074 38.1028 34.899C37.845 34.2092 37.5827 33.5219 37.3223 32.8333ZM39.9636 37.8348C39.1151 37.8126 39.294 37.9836 38.9618 37.1501C38.5552 36.1293 38.8573 36.3323 37.7517 36.3108C37.3079 36.3016 36.8615 36.3336 36.419 36.3023C36.077 36.2781 35.9184 36.4146 35.8348 36.7285C35.7611 37.0039 35.6351 37.2643 35.5548 37.5378C35.4863 37.7728 35.3492 37.8517 35.1117 37.838C34.8271 37.8224 34.5399 37.8237 34.2554 37.8374C33.9962 37.8491 33.9395 37.7623 34.0328 37.5221C34.412 36.5451 34.7794 35.5648 35.1528 34.5858C35.5568 33.5284 35.9667 32.4731 36.3628 31.4125C36.4509 31.1775 36.5691 31.0679 36.8406 31.0489C38.0389 30.9667 38.0226 30.9621 38.452 32.0599C39.1497 33.843 39.869 35.6183 40.5791 37.3962C40.7534 37.8335 40.7527 37.8335 40.2808 37.8348C40.1751 37.8348 40.0693 37.8348 39.9636 37.8348Z" fill="#1E5AA0"/>
<path fill-rule="evenodd" clip-rule="evenodd" d="M0.826242 34.4698C0.812536 33.6024 0.971787 32.7814 1.50959 32.0752C2.09373 31.3076 2.88216 30.95 3.84289 30.9284C4.60652 30.9115 5.31662 31.0401 5.92557 31.5387C6.29106 31.837 6.51493 32.2253 6.67418 32.6593C6.74467 32.8512 6.69572 32.9569 6.48621 32.9987C6.19577 33.0555 5.90664 33.124 5.62142 33.201C5.44781 33.2474 5.3349 33.2148 5.27616 33.0353C5.04707 32.3304 4.28671 32.0752 3.79002 32.1333C3.03097 32.2233 2.5382 32.6704 2.37242 33.4249C2.221 34.1174 2.22688 34.8112 2.38874 35.5024C2.54995 36.1955 3.11386 36.6981 3.75347 36.7274C4.51449 36.7633 5.05099 36.4174 5.27812 35.6616C5.38385 35.3098 5.532 35.2948 5.81787 35.4123C6.05218 35.5089 6.30085 35.5696 6.5443 35.642C6.70681 35.6903 6.75446 35.7778 6.70747 35.9508C6.38766 37.1301 5.37732 37.9244 4.14442 37.9545C2.16422 38.0028 0.839948 36.7137 0.826242 34.7244C0.825589 34.6395 0.826242 34.5547 0.826242 34.4698Z" fill="#1E5AA0"/>
<path fill-rule="evenodd" clip-rule="evenodd" d="M30.7739 30.9359C32.0956 30.9353 32.9375 31.4568 33.3898 32.5552C33.5276 32.89 33.5099 32.9292 33.1705 33.0127C32.9036 33.078 32.6334 33.1315 32.3671 33.2027C32.1968 33.2483 32.0936 33.219 32.0245 33.0375C31.7843 32.4057 31.298 32.1186 30.6408 32.1284C29.9614 32.1388 29.4177 32.535 29.2056 33.187C28.9262 34.0492 28.9451 34.9225 29.2375 35.7768C29.4464 36.3851 30.024 36.7375 30.7048 36.729C31.3235 36.7212 31.798 36.3505 32.0369 35.69C32.1811 35.2879 32.1811 35.2886 32.5786 35.4159C32.7998 35.487 33.0204 35.5647 33.2456 35.6228C33.4558 35.6763 33.5086 35.7775 33.446 35.9909C33.1007 37.167 32.1589 37.9058 30.9221 37.9535C28.9706 38.0292 27.6046 36.729 27.5824 34.7736C27.5778 34.3396 27.5745 33.9069 27.6574 33.4761C27.9759 31.8177 29.2761 30.8459 30.7739 30.9359Z" fill="#1E5AA0"/>
<path fill-rule="evenodd" clip-rule="evenodd" d="M13.0421 35.8288C13.1511 35.6983 13.174 35.539 13.2229 35.3922C13.6589 34.0882 14.1034 32.7861 14.5178 31.4742C14.6236 31.1387 14.7815 31.0147 15.1261 31.0558C15.3657 31.0846 15.6124 31.0611 15.8552 31.0434C16.0849 31.0271 16.1717 31.08 16.0823 31.3287C15.3409 33.3898 14.6053 35.4522 13.8756 37.5173C13.7921 37.7542 13.6654 37.8704 13.4109 37.8364C13.3385 37.8267 13.2634 37.8345 13.1896 37.8345C12.2198 37.8351 12.223 37.8338 11.9065 36.9325C11.2604 35.0959 10.609 33.2619 9.96284 31.4253C9.83622 31.0643 9.84144 31.065 10.2109 31.0611C10.4745 31.0585 10.7402 31.0611 11.0025 31.0363C11.2714 31.0102 11.402 31.1185 11.4862 31.3724C11.9411 32.7489 12.4097 34.1201 12.8777 35.4921C12.9168 35.6056 12.9227 35.7414 13.0421 35.8288Z" fill="#1E5AA0"/>
<path fill-rule="evenodd" clip-rule="evenodd" d="M20.8775 33.8908C20.8775 34.706 20.8853 35.5212 20.8729 36.3364C20.869 36.5877 20.9591 36.6666 21.2051 36.664C22.1149 36.6536 23.0261 36.6686 23.9365 36.6542C24.1846 36.651 24.2635 36.7378 24.2831 36.974C24.353 37.8356 24.3595 37.8349 23.4993 37.8349C22.2814 37.8343 21.0641 37.8271 19.8469 37.8402C19.5584 37.8427 19.4553 37.7527 19.4566 37.4603C19.4657 35.4598 19.4657 33.4594 19.4559 31.4583C19.4547 31.1633 19.5617 31.0589 19.8469 31.0785C20.0786 31.0948 20.3129 31.0902 20.5453 31.0791C20.7887 31.0674 20.884 31.1653 20.8807 31.4139C20.8703 32.2396 20.8768 33.0652 20.8775 33.8908Z" fill="#1E5AA0"/>
<path fill-rule="evenodd" clip-rule="evenodd" d="M9.23902 34.4521C9.23902 35.4579 9.2325 36.4637 9.24359 37.4688C9.24685 37.7403 9.16201 37.8591 8.8794 37.8376C8.63726 37.8199 8.39185 37.8225 8.14971 37.8376C7.89452 37.8519 7.82077 37.737 7.82142 37.4982C7.82664 35.4664 7.82664 33.434 7.82142 31.4022C7.82077 31.1646 7.8906 31.0478 8.1471 31.0596C8.41013 31.072 8.67577 31.0622 8.93879 31.0485C9.17767 31.0367 9.24555 31.1457 9.24359 31.3722C9.23445 32.3988 9.23968 33.4255 9.23902 34.4521Z" fill="#1E5AA0"/>
<path fill-rule="evenodd" clip-rule="evenodd" d="M16.7842 34.4513C16.7835 33.4664 16.7835 32.4816 16.7835 31.4973C16.7842 31.0587 16.7848 31.0594 17.2065 31.062C17.4186 31.0633 17.6327 31.0809 17.8415 31.0568C18.1176 31.0254 18.2201 31.1136 18.2077 31.402C18.1861 31.8772 18.2018 32.3543 18.2018 32.8307C18.2018 34.3658 18.1953 35.9016 18.207 37.4366C18.209 37.7356 18.1215 37.8661 17.8102 37.8387C17.5791 37.8185 17.3435 37.8237 17.1118 37.8367C16.8599 37.8524 16.779 37.7421 16.7809 37.5006C16.7888 36.4844 16.7842 35.4675 16.7842 34.4513Z" fill="#1E5AA0"/>
<path fill-rule="evenodd" clip-rule="evenodd" d="M26.5902 34.4511C26.5902 35.4575 26.5836 36.4633 26.5954 37.4697C26.598 37.7425 26.5125 37.8587 26.2299 37.8385C25.978 37.8202 25.7221 37.8261 25.4682 37.8365C25.2444 37.8456 25.1713 37.7432 25.1713 37.5317C25.1752 35.4771 25.1752 33.4218 25.1719 31.3672C25.1719 31.1564 25.2496 31.0546 25.4708 31.0618C25.7345 31.0696 26.0008 31.0703 26.2645 31.0572C26.5171 31.0455 26.5947 31.1623 26.5934 31.4012C26.5863 32.4174 26.5902 33.4342 26.5902 34.4511Z" fill="#1E5AA0"/>
</svg>
