<svg width="44" height="46" viewBox="0 0 44 46" fill="none" xmlns="http://www.w3.org/2000/svg">
<path fill-rule="evenodd" clip-rule="evenodd" d="M19.9435 0.822801C19.6519 1.03572 18.9131 2.12852 19.0084 2.53872C19.0909 2.89176 19.9165 4.04484 20.2549 3.67927C20.6602 3.19393 20.9951 2.64205 21.2476 2.04242C21.2995 1.72616 20.5031 1.08582 20.3011 0.886209C20.2201 0.804797 20.1717 0.75 20.1056 0.75C20.0636 0.75 20.0139 0.771919 19.9435 0.822801Z" fill="#5B7B39"/>
<path fill-rule="evenodd" clip-rule="evenodd" d="M22.2212 3.33837C22.4217 3.64382 22.6769 3.91119 22.9731 4.12676C22.6785 5.20004 22.6299 5.47351 23.3224 6.38606C24.0466 6.80806 24.578 7.12494 25.4124 6.75931C25.8844 6.61077 26.2184 6.19258 26.2569 5.70355C26.2639 5.55349 26.1343 4.84431 25.8459 5.03703C25.6276 5.18176 25.5613 5.39657 25.2898 5.47808C25.1294 5.52835 24.9559 5.50626 24.814 5.41866C24.6713 5.33106 24.5741 5.18633 24.5487 5.02256C24.3235 3.43282 27.2464 3.08776 27.6536 5.32192C28.0485 7.49057 25.5212 8.21651 24.2626 9.39034C22.4348 11.0936 21.8926 13.9958 22.1749 16.38C22.2836 17.6688 23.135 18.7787 24.359 19.2289L24.3597 19.2228C25.7178 19.721 27.3012 19.4871 28.64 18.9996C32.8817 17.4548 38.6519 12.5668 40.2969 8.346C40.6416 7.45782 40.8853 5.33944 40.6671 4.42993C40.5977 4.12905 40.4319 3.85787 40.1943 3.65753C38.8069 2.42581 38.2177 5.05379 38.23 5.98082C38.6511 6.86138 39.2565 6.37007 39.9013 6.14764C40.5321 5.92826 39.6838 7.73966 39.5272 7.93619C37.4141 10.5779 34.1156 13.9158 31.1534 15.5657C29.9842 16.2535 28.6971 16.7213 27.3559 16.9475C26.7621 17.045 26.159 17.0716 25.5582 17.0259C24.777 16.93 23.8762 16.6474 23.4312 15.9549C22.3322 14.2525 23.3155 9.94183 25.4849 9.65161C26.5338 9.50993 27.2672 11.0311 26.4312 11.5765C26.3009 11.6595 26.1551 11.7151 26.0024 11.741C25.7734 11.7487 25.4564 11.4881 25.2806 11.3609C24.6366 11.4615 24.7716 13.199 26.4227 13.0474C26.4829 14.1131 26.9772 15.1696 28.0546 15.5314C28.3832 15.6419 29.1544 15.9191 29.4451 15.6617C29.4953 15.2206 28.9377 14.986 28.7102 14.6836C28.0623 13.8206 28.212 13.2097 28.2212 12.2232C28.2305 11.1218 27.9598 10.7546 27.5055 9.8131C27.45 9.69808 27.5209 9.74302 27.5958 9.65847C27.8942 9.59067 28.1888 9.50764 28.4796 9.4109C29.2739 8.99347 28.8066 8.20203 28.2767 7.80669L28.2467 7.73281C28.3107 7.25139 28.7557 6.83625 28.8181 6.25733C28.9762 4.78414 28.1541 3.16622 26.6734 2.71832C26.0657 2.57511 25.441 2.5256 24.8194 2.57283C24.2857 2.35726 23.6494 2.1752 23.3363 1.65265C23.1798 1.39138 23.1227 1.09583 22.9446 0.843693L22.7857 0.75C21.8726 1.0128 21.8595 2.6589 22.2212 3.33837Z" fill="#5B7B39"/>
<path fill-rule="evenodd" clip-rule="evenodd" d="M38.0144 12.7636C36.3059 15.262 33.5549 17.8997 31.1705 19.7694C30.3546 20.3816 29.4883 20.9245 28.5821 21.3936C28.0161 21.6526 27.4335 21.8755 26.8389 22.0608C26.0562 22.319 25.2373 22.4448 24.4146 22.432C22.6971 22.3522 21.6569 21.7935 21.3144 20.0104C21.0502 18.6399 22.2334 16.4028 22.1356 15.9419C22.1213 15.8689 22.0693 15.7657 21.976 15.7718C21.7901 15.7838 21.5711 16.1934 21.5071 16.332C21.3784 16.6114 21.2858 16.9351 21.182 17.2265C20.5527 18.7604 20.354 20.4373 20.6069 22.0758C20.771 23.5344 22.1747 24.5773 23.5498 24.7234C24.7827 24.8235 26.0215 24.6405 27.1731 24.1872C28.071 23.8273 28.9419 23.4041 29.7811 22.9199C32.7247 21.0457 35.3161 18.664 37.4341 15.884C37.5643 15.7168 38.4577 14.5994 38.4788 14.5338C38.5352 13.9872 38.4803 13.436 38.3147 12.9126C38.2959 12.8524 38.253 12.802 38.1958 12.7741C38.1642 12.7583 38.128 12.75 38.0927 12.75C38.0663 12.75 38.04 12.7545 38.0144 12.7636Z" fill="#5B7B39"/>
<path fill-rule="evenodd" clip-rule="evenodd" d="M22.9968 24.8205C22.59 25.3066 22.2556 25.8584 22.0024 26.4573C21.9505 26.7735 22.7479 27.4123 22.9492 27.6143C23.0822 27.7466 23.1263 27.8084 23.3062 27.6777C23.5986 27.4647 24.3369 26.3704 24.2416 25.9618C24.1712 25.6549 23.5424 24.75 23.1561 24.75C23.0957 24.75 23.0416 24.7719 22.9968 24.8205Z" fill="#5B7B39"/>
<path fill-rule="evenodd" clip-rule="evenodd" d="M14.6113 9.50114C10.3684 11.0449 4.59825 15.9321 2.95384 20.153C2.60829 21.041 2.36456 23.159 2.58361 24.0669C2.6538 24.3685 2.81886 24.6396 3.05642 24.8407C4.44476 26.0714 5.03403 23.4446 5.02092 22.5178C4.59979 21.6373 3.99509 22.1278 3.34951 22.351C2.71782 22.5703 3.56702 20.7577 3.72437 20.5627C5.83619 17.9207 9.13581 14.5841 12.0953 12.9345C13.2654 12.246 14.5534 11.7776 15.894 11.5521C16.4886 11.4547 17.0918 11.428 17.6919 11.4745C18.4732 11.5704 19.3748 11.8522 19.8206 12.5453C20.919 14.2475 19.9356 18.5566 17.7651 18.8476C16.7177 18.9885 15.9827 17.4675 16.8203 16.923C16.9499 16.84 17.0956 16.7844 17.2476 16.7593C17.4759 16.7509 17.7952 17.0113 17.9695 17.1378C18.6136 17.038 18.4794 15.3008 16.8288 15.4516C16.7678 14.3868 16.2727 13.3297 15.1952 12.968C14.8666 12.8575 14.0953 12.5803 13.8045 12.8385C13.7559 13.2787 14.3136 13.514 14.5395 13.8172C15.1874 14.6793 15.0394 15.2893 15.0301 16.2787C15.0185 17.38 15.29 17.7471 15.7443 18.6884C15.8006 18.8034 15.7304 18.7585 15.6541 18.8438C15.3556 18.9108 15.0602 18.9938 14.7702 19.0913C13.975 19.5079 14.4424 20.3 14.9738 20.6952L15.0039 20.7684C14.9391 21.2497 14.494 21.6648 14.4316 22.2443C14.2734 23.7173 15.0941 25.3342 16.5773 25.782C17.1836 25.9244 17.8099 25.9739 18.4323 25.9275C18.9645 26.143 19.6016 26.325 19.914 26.8483C20.0713 27.1087 20.1284 27.405 20.3058 27.6563L20.4647 27.75C21.3771 27.4872 21.391 25.8414 21.0293 25.1628C20.8287 24.8567 20.5742 24.5893 20.2773 24.3738C20.5711 23.3007 20.6205 23.028 19.9279 22.1149C19.2036 21.6922 18.673 21.3761 17.8376 21.7432C17.3656 21.891 17.0316 22.3083 16.9938 22.798C16.9877 22.9473 17.1165 23.6571 17.4049 23.4644C17.6224 23.3197 17.6895 23.105 17.9618 23.0235C18.1215 22.9732 18.2942 22.9953 18.4369 23.0829C18.5796 23.1697 18.676 23.3144 18.7023 23.4789C18.9275 25.0676 16.0042 25.4134 15.597 23.1788C15.2013 21.0113 17.7296 20.2855 18.9892 19.1119C20.8156 17.4089 21.3578 14.5079 21.0779 12.1234C20.9668 10.8347 20.1168 9.72581 18.8928 9.2757V9.27646C18.3637 9.08302 17.7998 9 17.2306 9C16.3375 9 15.4289 9.20335 14.6113 9.50114Z" fill="#5B7B39"/>
<path fill-rule="evenodd" clip-rule="evenodd" d="M16.8279 4.31242C15.9293 4.67231 15.0577 5.09695 14.2193 5.58032C11.2758 7.4543 8.68523 9.83574 6.56658 12.6155C6.43712 12.7826 5.543 13.8999 5.52268 13.9662C5.46398 14.5113 5.52118 15.0639 5.686 15.5872C5.70557 15.6474 5.74772 15.6971 5.80416 15.725C5.86136 15.7536 5.92684 15.7581 5.98555 15.7363C7.69326 13.2366 10.4456 10.6007 12.83 8.73047C13.645 8.11911 14.5106 7.57552 15.4152 7.10721C15.9812 6.8467 16.5645 6.6246 17.1598 6.44013C17.9418 6.18113 18.7622 6.05465 19.5863 6.06745C21.3023 6.14801 22.3439 6.70666 22.6856 8.48954C22.9513 9.86059 21.7674 12.0967 21.8645 12.5575C21.8803 12.6313 21.9315 12.7337 22.0248 12.7277C22.21 12.7156 22.4297 12.3053 22.4929 12.1667C22.6224 11.8882 22.715 11.5637 22.8188 11.273C23.448 9.74012 23.6467 8.06265 23.3931 6.42432C23.229 4.96594 21.8254 3.92317 20.4518 3.7771C20.2321 3.75903 20.013 3.75 19.794 3.75C18.781 3.75 17.7747 3.93973 16.8279 4.31242Z" fill="#5B7B39"/>
<path fill-rule="evenodd" clip-rule="evenodd" d="M3.53484 37.1855C3.39778 37.3612 3.3013 37.5552 3.25 37.7593C3.25689 37.8106 3.29441 37.8557 3.35107 37.8798L3.62366 38.0275C3.76531 38.12 3.92228 38.1948 4.09074 38.25C4.18874 38.2494 4.32351 38.146 4.49426 37.9394C4.63668 37.791 4.7255 37.6128 4.75 37.4252C4.68951 37.0708 4.34418 36.7931 3.9085 36.75C3.84877 36.75 3.72473 36.8945 3.53484 37.1855Z" fill="#5B7B39"/>
<path fill-rule="evenodd" clip-rule="evenodd" d="M4.25037 27.8396C4.08781 28.0919 3.96899 28.2807 3.89473 28.4065C3.82129 28.5323 3.74373 28.6537 3.66204 28.7684C3.60263 28.8291 3.56054 28.9016 3.53909 28.9794V29.1385C3.53909 29.2332 3.54157 29.3257 3.54569 29.416C3.54982 29.5026 3.54239 29.59 3.52094 29.6751C3.50196 29.7528 3.46978 29.8283 3.42357 29.8964C3.36828 29.9689 3.29567 30.0281 3.20821 30.0696C2.7651 30.2864 2.3385 30.5322 1.93418 30.8038C1.61628 31.0185 1.31951 31.2343 1.0565 31.5164C0.918766 31.6641 0.798681 31.8705 0.671631 32.0173C0.954527 32.1756 1.13008 32.2646 1.19829 32.2843C1.22593 32.1154 1.26033 31.9015 1.3248 31.7661C1.38927 31.6306 1.70396 31.424 1.9416 31.2886C2.18832 31.1442 2.44412 31.0118 2.70652 30.8919C2.96891 30.7742 3.18923 30.6683 3.36828 30.5751C3.58035 30.4678 3.76105 30.3183 3.89473 30.1384C4.04408 29.946 4.15135 29.7313 4.21489 29.5049C4.24624 29.3753 4.27182 29.2488 4.2875 29.1259C4.30318 29.0038 4.31555 28.8787 4.32381 28.7529C4.33206 28.6263 4.33866 28.4924 4.34196 28.3473C4.34691 28.2037 4.35681 28.0379 4.37249 27.8507C4.37992 27.7833 4.37249 27.75 4.35021 27.75C4.34609 27.75 4.34196 27.7507 4.33701 27.753C4.2974 27.7729 4.2677 27.8033 4.25037 27.8396Z" fill="#5B7B39"/>
<path fill-rule="evenodd" clip-rule="evenodd" d="M0.781278 31.8497C0.677431 31.9968 0.599673 32.1124 0.548004 32.1967C0.4705 32.3231 0.399763 32.4603 0.34396 32.5892C0.291257 32.7049 0.261031 32.828 0.25173 32.9553C0.241655 33.1137 0.275757 33.2713 0.349385 33.4108C0.424564 33.5479 0.526094 33.6677 0.64855 33.7613C0.784957 33.868 0.93454 33.9542 1.0911 34.0198C1.26238 34.0929 1.43986 34.1487 1.622 34.1881C2.39936 34.3629 3.19068 34.459 3.98664 34.4754C4.78106 34.4918 5.58477 34.5 6.39934 34.5C8.10907 34.5 9.79711 34.4196 11.4572 34.2595C13.1189 34.1003 14.786 33.8795 16.4601 33.6004C17.8947 33.3607 19.0728 33.1342 19.9943 32.9224C20.915 32.7115 21.6203 32.5252 22.1117 32.3651C22.3109 32.3175 22.4969 32.2256 22.6581 32.0951C22.7457 32.004 22.7705 31.9219 22.7333 31.8497C22.6682 31.7602 22.5736 31.7019 22.4674 31.688C22.3124 31.6502 22.1528 31.6412 21.9962 31.6576C20.898 31.77 19.8184 31.9079 18.755 32.0713C17.6924 32.2354 16.6159 32.3733 15.5262 32.485C14.1528 32.6294 12.7888 32.7287 11.434 32.7854C10.0784 32.8412 8.67253 32.8576 7.21468 32.833C5.47859 32.8477 3.74328 32.6959 2.03354 32.3774C1.98007 32.3618 1.91109 32.3421 1.82738 32.3183C1.74213 32.2945 1.65998 32.2658 1.57937 32.2305C1.50187 32.196 1.43289 32.1476 1.37244 32.086C1.31508 32.0294 1.28796 31.9482 1.29648 31.8661C1.31043 31.7635 1.29958 31.6576 1.26393 31.5599C1.24301 31.5205 1.20658 31.5 1.1531 31.5C1.1252 31.5 1.09265 31.5057 1.05622 31.5164C0.963492 31.609 0.873508 31.729 0.781278 31.8497Z" fill="#5B7B39"/>
<path fill-rule="evenodd" clip-rule="evenodd" d="M6.23033 35.2516C6.20703 35.265 6.18269 35.3211 6.15784 35.4207C6.09104 35.6902 6.02476 35.9581 5.96108 36.2253C5.89687 36.4916 5.83681 36.7603 5.78037 37.029C5.76173 37.1041 5.74775 37.1815 5.73843 37.2606C5.73014 37.3404 5.726 37.421 5.726 37.5024C5.73687 38.0533 5.72393 38.6049 5.6882 39.1534C5.65196 39.7003 5.6007 40.2385 5.53442 40.7704C5.52303 40.87 5.51371 40.964 5.50646 41.0525C5.49817 41.1118 5.49817 41.1727 5.50646 41.2319C5.51371 41.262 5.52976 41.2549 5.55617 41.2082C5.60432 41.1094 5.64781 41.0051 5.68717 40.8968C5.75707 40.6866 5.82024 40.4717 5.87512 40.2512C5.92897 40.0354 5.98179 39.8165 6.03305 39.5928C6.08897 39.3462 6.12832 39.0902 6.14852 38.8302C6.16871 38.5686 6.18372 38.3078 6.1946 38.0462C6.20495 37.6067 6.20858 37.176 6.20599 36.7524C6.20288 36.3304 6.21479 35.8989 6.24068 35.4602C6.25466 35.3259 6.25363 35.25 6.2355 35.25C6.23395 35.25 6.2324 35.2508 6.23033 35.2516Z" fill="#5B7B39"/>
<path fill-rule="evenodd" clip-rule="evenodd" d="M8.43273 37.5C8.37643 37.504 8.31784 37.583 8.25773 37.7364C8.13599 38.0565 8.03403 38.3845 7.95262 38.7181C7.86892 39.0612 7.73881 39.3916 7.56838 39.6999C7.42533 39.9631 7.25566 40.2105 7.06087 40.4358C6.84098 40.6903 6.59521 40.9188 6.32662 41.118C6.13108 41.2713 5.96901 41.4041 5.84118 41.5156C5.71183 41.6278 5.61749 41.7148 5.55814 41.7757C5.51629 41.8183 5.49575 41.8776 5.50107 41.9369C5.50868 41.9915 5.56499 42.0104 5.67075 41.9946C6.08999 41.899 6.49934 41.7591 6.89119 41.5796C7.03576 41.518 7.17272 41.4381 7.29826 41.3425C7.4162 41.2492 7.51664 41.1362 7.59729 41.0073C7.69316 40.8556 7.77305 40.6927 7.83544 40.5228C7.90621 40.3346 7.97925 40.1133 8.05458 39.8596C8.19077 39.3434 8.29425 38.9126 8.36654 38.5656C8.4236 38.3031 8.46697 38.0375 8.49665 37.7696L8.49589 37.7711C8.50958 37.5901 8.49132 37.5 8.43654 37.5C8.43578 37.5 8.43426 37.5 8.43273 37.5Z" fill="#5B7B39"/>
<path fill-rule="evenodd" clip-rule="evenodd" d="M9.94399 34.5075C9.90979 34.5322 9.88061 34.5615 9.86149 34.5945L9.77195 34.7257C9.65323 34.9011 9.5486 35.0675 9.45906 35.2234C9.36851 35.3809 9.29406 35.5181 9.23369 35.635C9.1361 35.8329 9.06668 36.0391 9.02543 36.2483C8.86445 37.1006 8.73668 37.8098 8.64311 38.3758C8.5596 38.8316 8.51131 39.2904 8.50024 39.75C8.59381 39.7403 8.67832 39.7028 8.73265 39.6458C8.83024 39.5618 8.91677 39.4704 8.9872 39.3722C9.07875 39.247 9.15622 39.1173 9.2186 38.9831C9.28701 38.8414 9.33732 38.6945 9.36851 38.5453C9.3997 37.9628 9.46509 37.3413 9.5657 36.6808C9.6653 36.0203 9.79912 35.3689 9.96814 34.7264C9.9943 34.6627 10.0034 34.596 9.99933 34.5292C9.99128 34.5097 9.98021 34.5 9.96613 34.5C9.96009 34.5 9.95204 34.5022 9.94399 34.5075Z" fill="#5B7B39"/>
<path fill-rule="evenodd" clip-rule="evenodd" d="M11.0361 34.9381C10.9022 35.1122 10.8058 35.3042 10.7523 35.5064L10.75 35.507C10.7576 35.5606 10.7951 35.6091 10.8525 35.6371C10.9428 35.6862 11.0338 35.7328 11.1248 35.7768C11.2656 35.8699 11.4231 35.9445 11.5906 36C11.6901 36 11.8247 35.898 11.9938 35.692C12.1368 35.5453 12.2263 35.368 12.25 35.1805C12.1896 34.8227 11.8446 34.5434 11.4094 34.5C11.3497 34.5006 11.2258 34.646 11.0361 34.9381Z" fill="#5B7B39"/>
<path fill-rule="evenodd" clip-rule="evenodd" d="M10.8085 37.1025C10.7106 37.2562 10.6277 37.4179 10.5608 37.5866L10.4421 37.8397C10.4031 37.9241 10.3624 38.0171 10.3242 38.1157C10.2852 38.2056 10.2756 38.3033 10.2939 38.398C10.3123 38.4823 10.3529 38.5604 10.4126 38.6227C10.4716 38.6842 10.5481 38.7283 10.6317 38.7496C10.7249 38.7725 10.8221 38.7725 10.9161 38.7496C11.0212 38.7315 11.1224 38.6921 11.2116 38.6345C11.2522 38.6045 11.308 38.599 11.3526 38.6227C11.5111 38.6842 11.5876 38.7685 11.5844 38.8758C11.5757 38.9956 11.5279 39.1084 11.4482 39.1991C11.2937 39.3662 11.0921 39.4845 10.8683 39.5365C10.6452 39.5996 10.4126 39.6217 10.1824 39.5996C10.043 39.5878 9.906 39.5594 9.77456 39.5153C9.65348 39.475 9.54594 39.4017 9.46548 39.3047C9.37467 39.188 9.30776 39.0548 9.27112 38.9128C9.21854 38.7134 9.19385 38.5083 9.20022 38.3025L8.50161 39.5697C8.49284 39.8456 8.5263 40.1216 8.60277 40.3873C8.65455 40.5592 8.74138 40.7201 8.85609 40.8596C8.97558 41.0008 9.13012 41.1096 9.30696 41.1742C9.47186 41.231 9.64551 41.257 9.82076 41.2484C9.99681 41.2405 10.1713 41.2034 10.3354 41.1388C10.4979 41.0757 10.65 40.9882 10.7854 40.8801C11.1662 40.5781 11.4841 40.2068 11.7206 39.7857C11.9596 39.3702 12.1269 38.9184 12.2177 38.45C12.2559 38.2355 12.2615 38.0155 12.2289 37.7995C12.1938 37.5716 12.1094 37.354 11.9811 37.16C11.8616 36.9416 11.645 36.7894 11.3948 36.7516C11.3813 36.7508 11.3677 36.75 11.3542 36.75C11.1176 36.75 10.9025 36.888 10.8085 37.1025Z" fill="#5B7B39"/>
<path fill-rule="evenodd" clip-rule="evenodd" d="M19.4134 42.3897C19.2929 42.5671 19.1794 42.7494 19.0734 42.9368C18.9766 42.7653 18.8455 42.6195 18.6885 42.5105C18.5704 42.3989 18.4255 42.3231 18.2701 42.2914C18.2167 42.2914 18.0757 42.4963 17.8455 42.906C17.7015 43.1267 17.5856 43.3657 17.5002 43.6196C17.5048 43.6538 17.6336 43.7712 17.8852 43.9702C17.9606 44.0268 18.0315 44.0876 18.1001 44.1526C18.1595 44.2034 18.2297 44.2375 18.3044 44.25C18.4698 44.25 18.7091 43.9619 19.0178 43.3865C19.1816 43.5031 19.3364 43.633 19.482 43.7754C19.61 43.9053 19.7045 43.9702 19.7647 43.9702C19.8547 43.9702 19.9987 43.8328 20.1946 43.5563C20.3669 43.3607 20.4736 43.1075 20.5002 42.8385C20.4728 42.6154 20.363 42.413 20.1946 42.2798C20.0681 42.1266 19.8958 42.0275 19.7083 42C19.6702 42 19.5719 42.1299 19.4134 42.3897Z" fill="#5B7B39"/>
<path fill-rule="evenodd" clip-rule="evenodd" d="M17.4547 33.7561C17.408 33.8181 17.3718 33.8854 17.3468 33.9573C17.2365 34.2412 17.1053 34.61 16.9547 35.0637C16.9346 35.1241 16.9201 35.1853 16.9105 35.2481C16.9129 35.3131 16.9314 35.3766 16.9644 35.4325C16.9845 35.4852 17.0111 35.5365 17.0425 35.5839C17.0779 35.6398 17.1157 35.7048 17.1552 35.779C17.3315 36.0193 17.4466 36.2947 17.4909 36.5832C17.5038 36.7079 17.4869 36.8341 17.4434 36.9527C17.3951 37.1011 17.3243 37.284 17.2277 37.4998C17.1399 37.6918 17.0538 37.8838 16.9708 38.0736C16.8871 38.2633 16.7977 38.4485 16.7019 38.6275C16.6222 38.7836 16.5514 38.9382 16.4934 39.0904C16.4347 39.2297 16.4049 39.3781 16.4024 39.5265C16.4033 39.665 16.4403 39.8012 16.5103 39.9228C16.6037 40.0705 16.7358 40.1937 16.8927 40.2801C16.9757 40.3192 17.0546 40.3628 17.1319 40.4094C17.2124 40.4576 17.2961 40.5074 17.383 40.5602C17.5102 40.6344 17.5803 40.7109 17.5932 40.7889C17.6012 40.8937 17.5859 40.9978 17.5489 41.0965C17.4788 41.339 17.3444 41.5609 17.156 41.7392C16.962 41.9236 16.7382 42.0781 16.4934 42.1975C16.235 42.323 15.9613 42.4194 15.6795 42.4844C15.4033 42.5494 15.1208 42.5869 14.8358 42.5953C14.4727 42.6229 14.1088 42.5609 13.7779 42.4171C13.5154 42.2939 13.2981 42.0988 13.1564 41.8585C13.0106 41.5976 12.9326 41.3084 12.9285 41.0146C12.9205 40.6673 12.9712 40.3215 13.0783 39.9902C13.1934 39.5801 13.3415 39.1784 13.5211 38.789C13.7038 38.3903 13.8753 38.0231 14.0355 37.6887C14.1144 37.525 14.1386 37.4225 14.1064 37.3812C14.075 37.3399 14.0387 37.349 13.9993 37.4095C13.8359 37.6382 13.6885 37.8777 13.5565 38.1241C13.422 38.3773 13.2908 38.6306 13.1636 38.8838C13.0292 39.144 12.8987 39.4163 12.7756 39.6994C12.6524 39.9817 12.5461 40.271 12.4584 40.5648C12.3706 40.8586 12.3094 41.1569 12.2732 41.4592C12.237 41.7591 12.2434 42.0621 12.2909 42.3604C12.3392 42.8241 12.5445 43.2617 12.877 43.6068C13.1701 43.8991 13.5484 44.1026 13.9647 44.1929C14.3922 44.2816 14.8374 44.2671 15.256 44.1485C15.7061 44.0276 16.1158 43.8057 16.4524 43.5004C16.6883 43.2855 16.9 43.0498 17.086 42.7958C17.284 42.5288 17.4603 42.2464 17.6125 41.9527C17.7622 41.6611 17.8862 41.3582 17.9828 41.0468C18.0754 40.7537 18.135 40.4531 18.1615 40.1478C18.1962 39.8808 18.1841 39.6114 18.1261 39.349C18.0343 39.082 17.8258 38.8639 17.5521 38.7507C17.3685 38.6543 17.2776 38.5678 17.2776 38.4936C17.2888 38.3781 17.3202 38.2641 17.3726 38.1585C17.6036 37.6222 17.7968 37.147 17.953 36.7339C18.0955 36.3712 18.1897 35.994 18.2332 35.6107C18.2718 35.3016 18.2437 34.9872 18.1503 34.6888C18.0657 34.3827 17.8967 34.1035 17.66 33.8778C17.5682 33.7928 17.5054 33.75 17.4724 33.75C17.4652 33.75 17.4587 33.7523 17.4547 33.7561Z" fill="#5B7B39"/>
<path fill-rule="evenodd" clip-rule="evenodd" d="M20.4437 34.5075C20.4095 34.5322 20.3814 34.5615 20.3613 34.5945L20.2717 34.7257C20.153 34.9011 20.0484 35.0675 19.9588 35.2234C19.8683 35.3809 19.7938 35.5181 19.7345 35.635C19.6359 35.8329 19.5664 36.0391 19.5252 36.2483C19.3652 37.1006 19.2374 37.8098 19.1439 38.3758C19.0594 38.8316 19.0111 39.2904 19 39.75C19.0936 39.7403 19.1791 39.7028 19.2324 39.6458C19.331 39.5618 19.4165 39.4704 19.487 39.3722C19.5785 39.247 19.656 39.1173 19.7184 38.9831C19.7868 38.8414 19.8381 38.6945 19.8683 38.5453L19.8713 38.5475C19.9005 37.9635 19.9659 37.3413 20.0665 36.6808C20.1651 36.0203 20.2999 35.3689 20.4679 34.7264C20.4941 34.6627 20.5031 34.596 20.4991 34.5292C20.491 34.5097 20.48 34.5 20.4659 34.5C20.4598 34.5 20.4518 34.5022 20.4437 34.5075Z" fill="#5B7B39"/>
<path fill-rule="evenodd" clip-rule="evenodd" d="M19.0043 39.4996C18.9969 39.6722 18.9991 39.8441 19.0101 40.0167C19.0197 40.2111 19.0527 40.4039 19.1077 40.5898C19.1583 40.764 19.2456 40.9226 19.3638 41.0556C19.49 41.1885 19.6646 41.2585 19.8436 41.2492C20.0226 41.2515 20.1979 41.2002 20.3498 41.1014C20.5017 40.9996 20.6345 40.872 20.7423 40.7204C20.8568 40.5618 20.9521 40.3884 21.0262 40.2041C21.1003 40.019 21.1649 39.8293 21.217 39.6364C21.2375 39.5525 21.2478 39.4669 21.25 39.3806C21.2493 39.3013 21.1869 39.2539 21.0644 39.2383C21.0064 39.2313 20.9433 39.2259 20.8788 39.2212C20.8164 39.2181 20.7548 39.2088 20.6939 39.1932C20.5926 39.1722 20.5259 39.0727 20.5413 38.9662C20.4261 38.9428 20.3073 38.9607 20.2031 39.0167C20.0901 39.0781 19.9976 39.1753 19.9412 39.2943C19.8612 39.4382 19.793 39.4312 19.7343 39.2718C19.658 38.9374 19.6279 38.5937 19.647 38.25L19.0043 39.4996Z" fill="#5B7B39"/>
<path fill-rule="evenodd" clip-rule="evenodd" d="M20.7852 33.438C20.6489 33.6113 20.5531 33.8039 20.5002 34.0053C20.5071 34.0589 20.5439 34.1079 20.6006 34.1366C20.6918 34.1857 20.7822 34.2329 20.8741 34.2762C21.0151 34.3687 21.1721 34.4445 21.3399 34.5C21.4387 34.5 21.5728 34.3974 21.7444 34.1921C21.8876 34.0455 21.9765 33.8676 22.0002 33.6802C21.9397 33.3226 21.5942 33.0433 21.1575 33C21.0986 33 20.9737 33.146 20.7852 33.438Z" fill="#5B7B39"/>
<path fill-rule="evenodd" clip-rule="evenodd" d="M20.4259 38.6211C20.0939 38.9289 19.8628 39.2901 19.75 39.6752L20.4923 39.3858C20.5169 39.2696 20.5888 39.1615 20.6961 39.076C20.7935 39.0137 20.9181 38.9816 21.0482 38.9857C21.1082 38.9871 21.1701 38.9939 21.2292 39.0062C21.2975 39.0192 21.6124 39.0824 21.6906 39.0988C21.767 39.1159 22.044 39.1488 22.0995 39.1502C22.145 39.1502 22.0864 38.2201 22 38.1592C21.8854 38.1257 21.4063 38.1028 21.0482 38.2463C20.8062 38.3366 20.5942 38.4645 20.4259 38.6211Z" fill="#5B7B39"/>
<path fill-rule="evenodd" clip-rule="evenodd" d="M24.6639 40.1397C24.5427 40.3171 24.4291 40.5003 24.3232 40.6868C24.2264 40.5153 24.0953 40.3695 23.9383 40.2605C23.8201 40.1489 23.6753 40.0731 23.5198 40.0423C23.4665 40.0423 23.3255 40.2463 23.0953 40.656C22.9512 40.8767 22.8346 41.1165 22.75 41.3696C22.75 41.4021 22.878 41.5187 23.1357 41.7202C23.2111 41.7768 23.282 41.8376 23.3506 41.9026C23.4101 41.9534 23.4802 41.9867 23.5541 42C23.7203 42 23.9588 41.7119 24.2683 41.1365C24.4314 41.2531 24.5869 41.383 24.7325 41.5254C24.8598 41.6553 24.9535 41.7202 25.0152 41.7202C25.1044 41.7202 25.2492 41.5828 25.4451 41.3063C25.6174 41.1107 25.7241 40.8575 25.75 40.5894C25.7233 40.3654 25.6136 40.163 25.4451 40.0298C25.3186 39.8766 25.1456 39.7775 24.9581 39.75C24.92 39.75 24.8224 39.8799 24.6639 40.1397Z" fill="#5B7B39"/>
<path fill-rule="evenodd" clip-rule="evenodd" d="M23.2196 37.4021C23.2045 37.4232 23.1781 37.4626 23.1412 37.5188C23.105 37.5765 23.0621 37.6371 23.0123 37.7006C22.9641 37.7626 22.909 37.8283 22.8495 37.8954C22.793 37.9604 22.7281 38.0195 22.6588 38.0713C22.5804 38.1509 22.4794 38.2064 22.3678 38.2275C22.2412 38.2326 22.1161 38.2086 22 38.1589V39.1187C22.1033 39.1603 22.2209 39.1603 22.3249 39.1187C22.4259 39.0727 22.5163 39.0092 22.5932 38.9311C22.6784 38.8465 22.7545 38.7552 22.8224 38.6582C22.8932 38.5582 22.9588 38.4698 23.0191 38.3918C23.1005 38.2852 23.1593 38.237 23.1925 38.2472C23.255 38.2735 23.3131 38.3085 23.3658 38.3487C23.601 38.5282 23.8746 38.6552 24.1671 38.7217C24.5085 38.8092 24.8568 38.8698 25.2088 38.9034C25.5714 38.9384 25.8399 38.9803 26.2109 38.9999C26.582 39.0195 27.0322 38.9999 27.25 38.9999C27.3193 38.9072 27.25 37.5619 27.25 37.4383C26.7955 37.4375 26.1729 37.3736 25.7221 37.3167C25.2683 37.2619 24.8229 37.1539 24.3955 36.9977C24.2628 36.9327 24.1166 36.8999 23.9704 36.8999C23.8859 36.8999 23.8008 36.9109 23.7178 36.9335C23.506 37.0371 23.3312 37.2006 23.2196 37.4021Z" fill="#5B7B39"/>
<path fill-rule="evenodd" clip-rule="evenodd" d="M38.82 33.0698C38.6169 33.1521 38.419 33.2488 38.2293 33.3565C38.0449 33.4635 37.8583 33.577 37.6739 33.6963C37.0495 34.0936 36.4393 34.4879 35.8419 34.8816C35.2318 35.2825 34.5976 35.6492 33.9432 35.9817C33.468 36.2218 32.977 36.4423 32.4688 36.6438C31.9606 36.8454 31.4374 37.0105 30.9044 37.1386C30.3123 37.2783 29.7089 37.3678 29.1002 37.4042C28.499 37.4398 27.8829 37.4507 27.2502 37.4384V38.9998C29.1212 39.01 30.9689 38.6069 32.6502 37.8211C33.0527 37.6363 33.444 37.4318 33.8255 37.2099C34.2086 36.9865 34.5879 36.7544 34.9627 36.5136C35.3374 36.2728 35.7062 36.0261 36.0698 35.7729C36.4341 35.5204 36.7976 35.2738 37.1612 35.0322C37.473 34.827 37.7286 34.6604 37.9295 34.5331C38.0719 34.4363 38.2256 34.3541 38.3867 34.2886C38.4504 34.2653 38.5119 34.2347 38.5704 34.1984C38.6236 34.1613 38.6708 34.1161 38.7091 34.0652C38.8005 33.9553 38.8815 33.8382 38.9527 33.7152C39.0269 33.5872 39.0981 33.4635 39.1648 33.3427C39.2607 33.1863 39.2765 33.0829 39.209 33.0313C39.182 33.0102 39.1453 33 39.0981 33C39.0276 33 38.9347 33.0233 38.82 33.0698Z" fill="#5B7B39"/>
<path fill-rule="evenodd" clip-rule="evenodd" d="M35.2636 36.9184C35.1701 37.1103 35.082 37.2991 35.0021 37.4834C34.9228 37.6639 34.853 37.8482 34.7907 38.0378C34.7703 38.094 34.7541 38.1425 34.7398 38.1751C34.7283 38.2009 34.7229 38.2282 34.7249 38.2563C34.731 38.2828 34.7439 38.3056 34.7615 38.3238C34.7818 38.345 34.8157 38.3784 34.8625 38.4231C35.0265 38.5657 35.1728 38.7333 35.2955 38.9214C35.4012 39.0701 35.4595 39.2529 35.4615 39.4425C35.4344 39.6268 35.351 39.7944 35.2257 39.9188C35.0563 40.1107 34.8848 40.2904 34.7114 40.4558C34.5365 40.6219 34.3516 40.8009 34.1571 40.9927C34.1002 41.039 34.0507 41.0951 34.01 41.1588C33.9938 41.196 33.9972 41.2218 34.0209 41.2362C34.0595 41.2521 34.1015 41.2544 34.1408 41.2423C34.2059 41.2286 34.2682 41.2081 34.3278 41.1808C34.563 41.0777 34.7703 40.9738 34.9519 40.8706C35.1213 40.7751 35.2833 40.6643 35.4357 40.5384C35.5347 40.4588 35.6187 40.3564 35.6817 40.2389C35.7461 40.1213 35.8044 39.9992 35.8586 39.874C35.9609 39.6321 36.0517 39.3833 36.1289 39.1308C36.2082 38.8759 36.2496 38.6082 36.2496 38.3382C36.2563 38.0614 36.1859 37.7883 36.0483 37.557C35.9026 37.3241 35.738 37.1065 35.555 36.907C35.5062 36.8471 35.4506 36.7955 35.3897 36.7523C35.3863 36.7508 35.3829 36.75 35.3795 36.75C35.3504 36.75 35.3117 36.8061 35.2636 36.9184Z" fill="#5B7B39"/>
<path fill-rule="evenodd" clip-rule="evenodd" d="M38.4438 34.5075C38.4096 34.5322 38.3814 34.5615 38.3623 34.5945L38.2728 34.7257C38.153 34.9011 38.0474 35.0675 37.9578 35.2234C37.8683 35.3809 37.7938 35.5181 37.7345 35.635C37.6359 35.8329 37.5665 36.0391 37.5242 36.2483C37.3652 37.1006 37.2374 37.8098 37.1429 38.3758C37.0594 38.8316 37.0111 39.2904 37 39.75C37.0946 39.7403 37.1781 39.7028 37.2324 39.6458C37.331 39.5618 37.4155 39.4704 37.486 39.3722C37.5775 39.247 37.656 39.1173 37.7184 38.9831C37.7868 38.8414 37.8381 38.6945 37.8673 38.5453C37.9005 37.9628 37.9659 37.3413 38.0655 36.6808C38.1651 36.0203 38.2999 35.3689 38.468 34.7264C38.4931 34.6627 38.5032 34.596 38.4991 34.5292C38.4911 34.5097 38.48 34.5 38.4659 34.5C38.4589 34.5 38.4519 34.5022 38.4438 34.5075Z" fill="#5B7B39"/>
<path fill-rule="evenodd" clip-rule="evenodd" d="M38.9126 43.8889C38.7922 44.0671 38.6795 44.2503 38.5735 44.4368C38.4768 44.2653 38.3442 44.1195 38.1887 44.0113C38.0691 43.8989 37.9251 43.8223 37.7696 43.7914C37.717 43.7914 37.5753 43.9963 37.3452 44.406C37.2012 44.6267 37.0846 44.8665 37 45.1196C37 45.1521 37.128 45.2687 37.3848 45.4702C37.4595 45.5268 37.5319 45.5868 37.5997 45.6526C37.6584 45.7034 37.7292 45.7375 37.8039 45.75C37.97 45.75 38.2078 45.4619 38.5164 44.8865C38.6802 45.0022 38.8364 45.133 38.9804 45.2754C39.1092 45.4053 39.2037 45.4702 39.2639 45.4702C39.3546 45.4702 39.4978 45.332 39.6944 45.0563C39.8659 44.8598 39.9741 44.6075 40 44.3385C39.9733 44.1154 39.8621 43.913 39.6944 43.7798C39.5679 43.6266 39.3957 43.5275 39.2068 43.5C39.1694 43.5 39.0711 43.6299 38.9126 43.8889Z" fill="#5B7B39"/>
<path fill-rule="evenodd" clip-rule="evenodd" d="M37.0018 39.532C36.994 39.7394 37.012 39.9468 37.0535 40.1494C37.0927 40.3497 37.1655 40.5403 37.269 40.715C37.3669 40.8786 37.5024 41.0166 37.6646 41.1171C37.8448 41.2216 38.0524 41.2663 38.2593 41.2447C38.423 41.2312 38.5821 41.1881 38.731 41.1171C38.8759 41.0453 39.0099 40.9511 39.1266 40.8371C39.2551 40.711 39.3695 40.5738 39.4698 40.4238C39.5787 40.2651 39.6868 40.092 39.7957 39.9053C39.8639 39.7649 39.9759 39.6524 40.1162 39.5846C40.2682 39.5487 40.4256 39.5511 40.5761 39.591C40.6364 39.5208 40.6811 39.4394 40.7077 39.3509C40.7351 39.2639 40.7484 39.1738 40.75 39.0828C40.75 38.9967 40.7351 38.9121 40.703 38.8323C40.6764 38.7614 40.6317 38.6967 40.5753 38.6465C40.4131 38.6018 40.2399 38.6225 40.0927 38.7039C39.9485 38.8068 39.8278 38.9377 39.7377 39.0884C39.6429 39.2368 39.5231 39.3652 39.382 39.4681C39.2535 39.5623 39.107 39.6285 38.9511 39.666C38.6322 39.741 38.2953 39.6468 38.0603 39.4155C37.7814 39.0956 37.6466 38.6736 37.6881 38.25L37.0018 39.532Z" fill="#5B7B39"/>
<path fill-rule="evenodd" clip-rule="evenodd" d="M40.2842 34.9375C40.1494 35.1116 40.0529 35.3042 40 35.5057C40.0077 35.5593 40.0437 35.6078 40.1004 35.6365C40.1915 35.6862 40.2819 35.7328 40.3738 35.7761C40.5148 35.8693 40.6719 35.9445 40.8404 36C40.9392 36 41.0733 35.8967 41.2441 35.692C41.3882 35.5453 41.477 35.3673 41.5 35.1792C41.4395 34.8227 41.094 34.5427 40.6581 34.5C40.5983 34.5 40.4742 34.6454 40.2842 34.9375Z" fill="#5B7B39"/>
<path fill-rule="evenodd" clip-rule="evenodd" d="M41.2823 36.9464C41.2042 37.0638 41.1406 37.1881 41.0933 37.3163C41.0379 37.4621 41.0006 37.6125 40.9797 37.7644C40.9561 37.9171 40.9543 38.0713 40.9715 38.224C40.9852 38.3614 41.0315 38.4949 41.1069 38.6169C41.057 38.768 40.897 38.8762 40.7098 38.8854C40.4717 38.8885 40.2336 38.8701 40 38.8294L39.8696 39.7842C40.0081 39.6159 40.3208 39.7517 40.4726 39.7095C40.6044 39.6696 40.727 39.6128 40.837 39.5407C40.9433 39.4716 41.0415 39.3926 41.1269 39.3059C41.2133 39.2192 41.296 39.1432 41.3778 39.0757C41.4732 39.0051 41.5968 39.01 41.7336 38.983C41.8247 38.965 41.9386 38.9325 42.0754 38.8854C42.3562 38.3729 42.3202 37.8956 42.0394 37.383C41.953 37.3163 41.8803 37.2388 41.824 37.1536C41.7595 37.0646 41.7004 36.9733 41.6486 36.8789C41.6041 36.793 41.5577 36.75 41.5104 36.75C41.4995 36.75 41.4895 36.7515 41.4795 36.7554C41.3941 36.8029 41.3251 36.8689 41.2823 36.9464Z" fill="#5B7B39"/>
<path fill-rule="evenodd" clip-rule="evenodd" d="M42.5358 42.4351C42.398 42.6108 42.3023 42.8055 42.2502 43.0097C42.2571 43.0611 42.2954 43.1061 42.3513 43.1296L42.6247 43.278C42.7648 43.3706 42.9225 43.4455 43.0902 43.5C43.189 43.5 43.323 43.3966 43.4945 43.1899C43.6369 43.0421 43.7257 42.8632 43.7502 42.6761C43.689 42.3203 43.3437 42.0425 42.9087 42C42.8483 42 42.7242 42.1446 42.5358 42.4351Z" fill="#5B7B39"/>
<mask id="mask0_4471_6332" style="mask-type:alpha" maskUnits="userSpaceOnUse" x="41" y="36" width="2" height="3">
<path d="M42.8429 36.8374C42.7789 36.9698 42.6774 37.0866 42.5485 37.1783C42.443 37.2502 42.3191 37.3004 42.1872 37.3246C42.0644 37.3454 41.9385 37.3428 41.8177 37.3177C41.6989 37.2934 41.5903 37.2467 41.5 37.1783V38.999C41.7182 39.0077 41.9344 38.9592 42.1171 38.8597C42.3201 38.7489 42.4876 38.5992 42.6084 38.4236C42.7525 38.215 42.8571 37.9892 42.918 37.7538C42.989 37.4821 43.0134 37.2034 42.9931 36.9257C42.9961 36.872 42.984 36.8175 42.9555 36.7682C42.9474 36.7561 42.9383 36.75 42.9281 36.75C42.9058 36.75 42.8774 36.7794 42.8429 36.8374Z" fill="white"/>
</mask>
<g mask="url(#mask0_4471_6332)">
<path d="M42.8429 36.8374C42.7789 36.9698 42.6774 37.0866 42.5485 37.1783C42.443 37.2502 42.3191 37.3004 42.1872 37.3246C42.0644 37.3454 41.9385 37.3428 41.8177 37.3177C41.6989 37.2934 41.5903 37.2467 41.5 37.1783V38.999C41.7182 39.0077 41.9344 38.9592 42.1171 38.8597C42.3201 38.7489 42.4876 38.5992 42.6084 38.4236C42.7525 38.215 42.8571 37.9892 42.918 37.7538C42.989 37.4821 43.0134 37.2034 42.9931 36.9257C42.9961 36.872 42.984 36.8175 42.9555 36.7682C42.9474 36.7561 42.9383 36.75 42.9281 36.75C42.9058 36.75 42.8774 36.7794 42.8429 36.8374Z" fill="#5B7B39"/>
</g>
</svg>
