<svg width="92" height="92" viewBox="0 0 92 92" fill="none" xmlns="http://www.w3.org/2000/svg">
<path d="M91 1H1V91H91V1Z" stroke="#55A2E7" stroke-opacity="0.6"/>
<path d="M73.8381 45.7102L73.8934 45.764C74.4324 46.4097 74.8285 47.1571 75.0566 47.9591C75.2725 48.713 75.2915 49.5075 75.1119 50.2703C75.0895 50.383 75.0362 50.4877 74.9578 50.5734C74.873 50.6725 74.7827 50.7671 74.6873 50.8566C74.4546 51.054 74.2099 51.2375 73.9544 51.4061C73.239 51.8961 72.5003 52.3464 71.7442 52.7798C70.7758 53.3463 69.7957 53.8703 68.7865 54.3546C68.423 54.5274 68.0595 54.6945 67.6814 54.8361C67.5263 54.8957 67.3669 54.944 67.2045 54.9806C67.0821 55.0089 66.9546 55.0089 66.8322 54.9806C66.5657 54.9158 66.3058 54.8276 66.0557 54.7171C65.5061 54.4849 64.968 54.2243 64.4387 53.9496C63.1504 53.2868 61.8911 52.573 60.6581 51.7941L60.2742 51.5421L60.1753 51.4712C60.2004 51.4684 60.2258 51.4684 60.2509 51.4712C60.3352 51.5081 60.4167 51.5506 60.501 51.5845C60.9541 51.769 61.4288 51.8984 61.9144 51.9697C62.2719 52.0268 62.6341 52.0514 62.9963 52.0434C63.6477 52.0318 64.2896 51.8881 64.8808 51.6214C65.4363 51.3693 65.9888 51.1115 66.5297 50.8368C67.6271 50.2703 68.707 49.684 69.7695 49.0779C70.6972 48.5426 71.6162 47.9931 72.5061 47.3983C72.7427 47.2397 72.9753 47.0754 73.2041 46.9055C73.3364 46.8071 73.4618 46.7002 73.5793 46.5854C73.7413 46.4356 73.8443 46.2351 73.8701 46.0189C73.8759 45.9624 73.8759 45.9055 73.8701 45.849C73.8759 45.815 73.8643 45.781 73.8381 45.7102Z" fill="#F5853F"/>
<path d="M73.908 45.764L73.8527 45.7102C73.8581 45.7591 73.8678 45.8074 73.8818 45.8547C73.8876 45.9112 73.8876 45.9681 73.8818 46.0246C73.856 46.2408 73.7531 46.4413 73.591 46.5911C73.4789 46.706 73.3594 46.8138 73.2333 46.914C73.0064 47.0839 72.7738 47.2482 72.5353 47.4068C71.8839 47.843 71.215 48.2565 70.5374 48.6559C73.8411 48.0894 74.8357 49.4376 75.1353 50.3043V50.2788C75.3149 49.516 75.2959 48.7215 75.08 47.9676C74.851 47.1617 74.4518 46.4111 73.908 45.764V45.764Z" fill="#F47633"/>
<path d="M75.3883 49.0014C75.3475 48.9759 75.3505 48.9419 75.3505 48.9079C75.3409 48.7012 75.3136 48.4956 75.269 48.2933C75.094 47.3908 74.6946 46.5438 74.1057 45.8263C73.8435 45.501 73.5339 45.2148 73.1867 44.9766C72.7563 44.6934 72.3143 44.396 71.8839 44.1269C70.8136 43.4471 69.7114 42.8127 68.6005 42.1981C67.6989 41.6996 66.7887 41.2181 65.8551 40.7819C65.4974 40.6091 65.1368 40.442 64.7616 40.3032C64.6278 40.2522 64.4882 40.2069 64.3487 40.1673C64.1711 40.1163 63.9823 40.1163 63.8048 40.1673C63.7047 40.1964 63.6123 40.2467 63.5344 40.3145L63.4587 40.374V40.3145C63.8342 39.3107 64.4887 38.4282 65.3491 37.7654C65.8041 37.4366 66.315 37.1882 66.8584 37.0318C67.0115 36.9894 67.1736 36.9894 67.3267 37.0318C67.5329 37.0808 67.7343 37.1472 67.9287 37.2301C68.4231 37.4284 68.9 37.6578 69.3828 37.8957C70.8451 38.6292 72.2654 39.4395 73.6375 40.323C73.9661 40.5355 74.2919 40.7564 74.603 40.9971C74.7433 41.1059 74.8764 41.2232 75.0015 41.3484C75.0941 41.4426 75.1619 41.5573 75.1992 41.6826C75.2752 41.9524 75.3268 42.2282 75.3534 42.5068C75.4585 43.5488 75.51 44.5952 75.5075 45.6422C75.5075 46.3843 75.5075 47.1264 75.4726 47.8685C75.4551 48.2338 75.429 48.5964 75.4057 48.9618C75.3941 48.9674 75.3912 48.9788 75.3883 49.0014Z" fill="#F99F3F"/>
<path d="M63.8135 40.1729C63.991 40.122 64.1798 40.122 64.3573 40.1729C64.4969 40.2126 64.6482 40.2579 64.7703 40.3089C65.1426 40.4477 65.5032 40.6176 65.8638 40.7876C66.5327 41.1076 67.19 41.4447 67.8414 41.7959C65.224 39.0117 66.6229 37.3491 66.9689 37.0205H66.8701C66.3317 37.1828 65.8267 37.4359 65.3781 37.7683C64.5177 38.431 63.8633 39.3135 63.4878 40.3174V40.3995L63.5634 40.34C63.634 40.268 63.7191 40.2111 63.8135 40.1729V40.1729Z" fill="#F78E34"/>
<path d="M65.6195 37.4651C65.605 37.5161 65.5643 37.5274 65.5352 37.5473C64.7514 38.0652 64.1079 38.76 63.6594 39.5724C63.4088 40.0229 63.2377 40.5112 63.1533 41.0169C63.1301 41.1529 63.1155 41.3002 63.1039 41.4276C63.037 42.1754 62.9876 42.9231 62.9643 43.6737C62.9236 44.8916 62.9091 46.1067 62.941 47.3246C62.941 47.7353 62.9585 48.1432 62.9759 48.5539C62.9963 49.0835 63.0254 49.616 63.0777 50.1457C63.0999 50.431 63.1397 50.7147 63.197 50.9954C63.2192 51.1272 63.2613 51.2551 63.322 51.3749C63.3688 51.4607 63.4275 51.5398 63.4965 51.61C63.5774 51.6913 63.6771 51.7524 63.7873 51.7884L63.9037 51.8309C63.7641 51.8507 63.6536 51.8734 63.543 51.8819C63.3191 51.8989 63.0952 51.9187 62.8712 51.9216C62.275 51.9337 61.6804 51.8554 61.1089 51.6893C60.4469 51.4991 59.8355 51.1705 59.3174 50.7263L59.2883 50.7036C59.1173 50.5769 58.9977 50.3953 58.951 50.191C58.9053 50.0263 58.8713 49.8588 58.8492 49.6896C58.7794 49.194 58.7445 48.6983 58.7183 48.1998C58.6543 47.0187 58.6514 45.8405 58.6776 44.6594C58.6776 44.141 58.7154 43.6227 58.7532 43.1044C58.7741 42.7523 58.8139 42.4016 58.8724 42.0536C58.9015 41.8978 58.9393 41.7448 58.983 41.5919C59.0198 41.4751 59.0857 41.3691 59.1749 41.2832C59.3256 41.1316 59.488 40.9914 59.6606 40.864C60.0939 40.5411 60.533 40.2437 61.0071 39.9576C62.3647 39.1115 63.7664 38.3344 65.2065 37.6294L65.5672 37.4595L65.6195 37.4651Z" fill="#FEC23B"/>
<path d="M63.5169 51.6157C63.4479 51.5455 63.3892 51.4664 63.3424 51.3806C63.2817 51.2608 63.2395 51.1329 63.2173 51.0011C63.1601 50.7204 63.1203 50.4367 63.0981 50.1513C63.0487 49.6217 63.0167 49.092 62.9963 48.5596C62.9818 48.1885 62.9731 47.8146 62.9643 47.4436C62.6357 48.4293 61.5102 51.1002 59.2244 50.6498C59.2511 50.6749 59.2793 50.6986 59.3087 50.7207L59.3378 50.7433C59.8558 51.1875 60.4672 51.5162 61.1292 51.7063C61.7008 51.8724 62.2953 51.9507 62.8916 51.9386C63.1156 51.9386 63.3395 51.9159 63.5634 51.8989C63.6847 51.8897 63.8051 51.8726 63.924 51.8479L63.8077 51.8055C63.6969 51.7652 63.5973 51.7002 63.5169 51.6157V51.6157Z" fill="#FBAD30"/>
<path d="M44.1708 48.3953C43.9056 48.6827 43.5847 48.9163 43.2267 49.0828C42.8686 49.2494 42.4803 49.3455 42.0841 49.3658C41.6878 49.386 41.2914 49.33 40.9174 49.2009C40.5434 49.0718 40.1992 48.8721 39.9045 48.6134C39.8285 48.5488 39.7566 48.4798 39.6893 48.4066C39.4231 48.6945 39.1011 48.9283 38.7419 49.0945C38.3826 49.2608 37.9931 49.3563 37.5959 49.3755C37.1986 49.3947 36.8013 49.3373 36.4269 49.2065C36.0525 49.0757 35.7084 48.8741 35.4142 48.6134C35.3386 48.5454 35.2659 48.4746 35.1961 48.401C34.6596 48.9757 33.9116 49.3205 33.1151 49.3603C32.3186 49.4001 31.5383 49.1316 30.9443 48.6134C30.8682 48.5478 30.7964 48.4778 30.7291 48.4038C30.1918 48.9815 29.4411 49.328 28.6418 49.3673C27.8425 49.4066 27.0599 49.1355 26.4656 48.6134C26.3896 48.5478 26.3177 48.4778 26.2504 48.4038C25.7135 48.9822 24.9628 49.3292 24.1632 49.3685C23.3637 49.4078 22.5809 49.1362 21.9869 48.6134C21.9152 48.5473 21.8454 48.4793 21.7776 48.4094L21.6583 48.5227L18.9857 51.1285C18.9478 51.1702 18.8995 51.2017 18.8456 51.2201C18.7916 51.2384 18.7337 51.243 18.6774 51.2333C18.5052 51.2096 18.3375 51.1609 18.1801 51.0889C17.9539 50.9841 17.7411 50.8539 17.5461 50.7008C17.4298 50.6102 17.4269 50.5451 17.5461 50.4431L20.4863 47.5824C20.6443 47.4396 20.7752 47.2709 20.8731 47.0839C21.0337 46.7396 21.0493 46.3476 20.9165 45.9922C20.7837 45.6368 20.513 45.3464 20.1627 45.1832C19.8124 45.02 19.4103 44.9972 19.0429 45.1195C18.6754 45.2419 18.3719 45.4997 18.1975 45.8377C18.1288 45.976 18.0836 46.1242 18.0638 46.2767C18.0333 46.485 18.0509 46.6973 18.1153 46.8982C18.1797 47.0991 18.2893 47.2835 18.436 47.4379C18.5436 47.5569 18.6716 47.6589 18.785 47.7693L19.3666 48.3358C19.4568 48.4264 19.4568 48.4973 19.3666 48.5737C19.1087 48.7844 18.8129 48.9467 18.4942 49.0524C18.3876 49.0834 18.2787 49.1062 18.1685 49.1204C18.1285 49.1274 18.0873 49.1246 18.0487 49.1122C18.0101 49.0999 17.9753 49.0783 17.9474 49.0496C17.6735 48.8056 17.4151 48.5454 17.1738 48.2707C16.6833 47.7015 16.4449 46.966 16.5108 46.2257C16.5675 45.5173 16.8875 44.8534 17.4108 44.3583C17.9341 43.8633 18.6248 43.571 19.3535 43.5362C20.0821 43.5015 20.7988 43.7267 21.3693 44.1696C21.9397 44.6126 22.3247 45.2429 22.4523 45.9425C22.4784 46.0926 22.4872 46.2455 22.4988 46.3956C22.5079 46.6665 22.5826 46.9315 22.7169 47.1689C22.8688 47.4204 23.0953 47.6212 23.3666 47.7449C23.638 47.8686 23.9414 47.9094 24.237 47.8619C24.5326 47.8143 24.8064 47.6807 25.0226 47.4787C25.2387 47.2766 25.3869 47.0156 25.4477 46.7299C25.4617 46.657 25.4685 46.583 25.4681 46.5089V45.376C25.4681 45.2514 25.5292 45.1947 25.6455 45.2089C25.94 45.2347 26.2285 45.3054 26.5005 45.4185C26.616 45.4726 26.7278 45.5341 26.8349 45.6026C26.8885 45.6316 26.9321 45.6752 26.9606 45.728C26.989 45.7808 27.0009 45.8406 26.9949 45.9V46.4664C26.9912 46.6462 27.0251 46.8248 27.0946 46.9913C27.1641 47.1579 27.2677 47.3089 27.3991 47.4351C27.5814 47.6308 27.8175 47.7714 28.0794 47.8402C28.3413 47.909 28.618 47.903 28.8765 47.8231C29.1387 47.7593 29.3762 47.6229 29.5605 47.4304C29.7447 47.2379 29.8678 46.9975 29.9148 46.7384C29.9576 46.5557 29.9627 46.3665 29.9299 46.1819C29.8971 45.9972 29.827 45.8207 29.7237 45.6627C29.6204 45.5046 29.4859 45.3681 29.3279 45.261C29.17 45.1539 28.9919 45.0785 28.8038 45.0389C28.7435 45.0254 28.6823 45.0159 28.6206 45.0106H25.7007C25.5117 45.0106 25.4768 44.9766 25.4972 44.7953C25.5235 44.5124 25.5982 44.2357 25.7182 43.9768C25.7768 43.866 25.8429 43.7591 25.916 43.6567C25.9442 43.6135 25.9841 43.5785 26.0312 43.5555C26.0783 43.5326 26.131 43.5225 26.1835 43.5264H28.5101C28.9465 43.5262 29.3772 43.6231 29.7693 43.8097C30.2217 44.0107 30.6148 44.3195 30.9121 44.7077C31.2095 45.0958 31.4016 45.5507 31.4706 46.0303C31.4939 46.1803 31.5056 46.3317 31.5055 46.4834C31.5131 46.8449 31.6595 47.1905 31.916 47.452C32.1724 47.7135 32.5202 47.8717 32.8906 47.8956C33.2611 47.9194 33.6273 47.8071 33.9168 47.5808C34.2063 47.3544 34.3982 47.0306 34.4545 46.6732C34.4574 46.6298 34.4574 46.5863 34.4545 46.5429V43.7757C34.4545 43.5803 34.4894 43.5463 34.6871 43.5689C34.967 43.5966 35.2407 43.6663 35.4985 43.7757C35.6099 43.8295 35.7177 43.8901 35.8213 43.957C35.8741 43.9873 35.9168 44.0317 35.9446 44.0849C35.9725 44.138 35.9842 44.1978 35.9784 44.2572V46.4523C35.9695 46.6472 36.0013 46.8418 36.0717 47.0244C36.1422 47.207 36.2499 47.3738 36.3884 47.5148C36.5269 47.6557 36.6932 47.7679 36.8774 47.8446C37.0616 47.9212 37.2598 47.9607 37.4601 47.9607C37.6604 47.9607 37.8587 47.9212 38.0429 47.8446C38.227 47.7679 38.3934 47.6557 38.5319 47.5148C38.6703 47.3738 38.778 47.207 38.8485 47.0244C38.919 46.8418 38.9507 46.6472 38.9419 46.4523V40.1531C38.9419 40.0455 38.9942 39.9916 39.1018 40.0001C39.5314 40.0274 39.9459 40.1652 40.3029 40.3995C40.3513 40.4302 40.391 40.4722 40.4184 40.5217C40.4458 40.5712 40.4601 40.6265 40.46 40.6827V46.4353C40.4545 46.8011 40.5918 47.1552 40.8441 47.4262C41.0964 47.6973 41.4448 47.865 41.8191 47.8955C42.1934 47.9261 42.5656 47.8172 42.8607 47.5909C43.1558 47.3645 43.3517 47.0376 43.4089 46.676C43.4118 46.6327 43.4118 46.5891 43.4089 46.5458V43.7134C43.4089 43.5888 43.4612 43.5406 43.5921 43.5519C43.9355 43.5786 44.2704 43.6699 44.578 43.821C44.6629 43.8676 44.7445 43.9197 44.8223 43.9768C44.857 43.9997 44.8854 44.0305 44.9052 44.0666C44.9249 44.1026 44.9354 44.1427 44.9357 44.1836V46.4495C44.9362 46.7577 45.0378 47.0577 45.2256 47.3058C45.4134 47.5539 45.6776 47.7371 45.9798 47.8288C46.119 47.8715 46.2641 47.8934 46.4102 47.894H50.8277C51.0678 47.9028 51.3068 47.8572 51.5257 47.7608C51.7867 47.6499 52.0086 47.4668 52.1637 47.2341C52.3188 47.0015 52.4003 46.7296 52.3982 46.4523C52.4065 46.2632 52.3987 46.0737 52.3749 45.8858C52.319 45.5544 52.146 45.2523 51.8858 45.0318C51.6256 44.8114 51.2945 44.6863 50.9497 44.6782C50.6049 44.6702 50.2681 44.7796 49.9973 44.9877C49.7265 45.1958 49.5389 45.4894 49.4667 45.8178C49.4435 45.9163 49.4317 46.017 49.4318 46.1181V47.0414C49.4344 47.1001 49.4217 47.1585 49.3947 47.211C49.3677 47.2635 49.3274 47.3085 49.2777 47.3416C49.0448 47.5009 48.7803 47.6109 48.5012 47.6645C48.3622 47.6957 48.2214 47.7184 48.0795 47.7325C47.9602 47.7325 47.9079 47.6985 47.9079 47.5852V45.9821C47.9285 45.313 48.1959 44.6735 48.6611 44.1807C49.1618 43.6196 49.869 43.2727 50.63 43.2149C51.3684 43.151 52.1049 43.3568 52.6961 43.7923C53.2874 44.2279 53.6912 44.862 53.829 45.5714C53.8615 45.7587 53.8809 45.948 53.8872 46.1379C53.9013 46.381 53.8906 46.6248 53.8552 46.8658C53.7547 47.5129 53.4347 48.1085 52.946 48.5577C52.4574 49.0069 51.8284 49.2838 51.1593 49.3441C51.0081 49.3583 50.8685 49.3441 50.7027 49.3441H46.4654C46.0474 49.3517 45.6325 49.2734 45.2476 49.1143C44.8628 48.9552 44.5167 48.7189 44.2319 48.4208L44.2028 48.3925L44.1708 48.3953ZM33.0265 50.749C32.9041 50.6102 32.7468 50.5048 32.57 50.4431C32.3896 50.3782 32.1942 50.3635 32.0058 50.4006C31.7572 50.4461 31.5333 50.5761 31.374 50.7674C31.2147 50.9587 31.1304 51.1989 31.136 51.4451C31.1415 51.6914 31.2367 51.9277 31.4046 52.112C31.5724 52.2962 31.8019 52.4165 32.0523 52.4512C32.3292 52.4889 32.6105 52.4219 32.8382 52.2638C33.0659 52.1058 33.2228 51.8688 33.2767 51.6015C33.3141 51.788 33.3991 51.9624 33.5239 52.1085C33.6468 52.2483 33.8065 52.353 33.9857 52.4113C34.165 52.4697 34.3572 52.4796 34.5417 52.4399C34.7903 52.3944 35.0141 52.2644 35.1734 52.0731C35.3327 51.8818 35.4171 51.6416 35.4115 51.3954C35.4059 51.1491 35.3108 50.9128 35.1429 50.7286C34.9751 50.5443 34.7456 50.4241 34.4952 50.3893C34.2183 50.3516 33.937 50.4187 33.7093 50.5767C33.4816 50.7347 33.3247 50.9717 33.2708 51.239C33.2315 51.0587 33.1477 50.8905 33.0265 50.749V50.749ZM43.6183 52.4484C43.8682 52.4079 44.0952 52.2823 44.259 52.094C44.4228 51.9058 44.5127 51.667 44.5127 51.4203C44.5127 51.1735 44.4228 50.9348 44.259 50.7465C44.0952 50.5582 43.8682 50.4326 43.6183 50.3921C43.3402 50.3514 43.0568 50.4172 42.8274 50.5756C42.5981 50.734 42.4406 50.9728 42.3881 51.2418C42.3356 50.9705 42.1765 50.7299 41.9445 50.5712C41.7126 50.4125 41.4262 50.3482 41.1463 50.3921C40.8964 50.4326 40.6693 50.5582 40.5055 50.7465C40.3418 50.9348 40.2519 51.1735 40.2519 51.4203C40.2519 51.667 40.3418 51.9058 40.5055 52.094C40.6693 52.2823 40.8964 52.4079 41.1463 52.4484C41.4244 52.4891 41.7078 52.4233 41.9371 52.2649C42.1665 52.1065 42.324 51.8677 42.3765 51.5987C42.4296 51.8697 42.589 52.1098 42.8207 52.2684C43.0525 52.427 43.3385 52.4916 43.6183 52.4484V52.4484ZM50.7638 42.0678C50.9754 42.0683 51.1825 42.0078 51.3588 41.8937C51.5352 41.7796 51.6728 41.6172 51.7543 41.427C51.8358 41.2367 51.8576 41.0272 51.8169 40.8249C51.7762 40.6226 51.6748 40.4366 51.5255 40.2904C51.3762 40.1443 51.1858 40.0445 50.9783 40.0037C50.7708 39.963 50.5556 39.983 50.3598 40.0614C50.164 40.1398 49.9965 40.2729 49.8784 40.444C49.7604 40.6151 49.697 40.8165 49.6965 41.0226V41.0226C49.6961 41.1595 49.7234 41.2951 49.7768 41.4217C49.8302 41.5483 49.9087 41.6634 50.0079 41.7605C50.107 41.8575 50.2247 41.9346 50.3544 41.9874C50.4841 42.0401 50.6232 42.0674 50.7638 42.0678Z" fill="white"/>
</svg>
