<svg width="60" height="19" viewBox="0 0 60 19" fill="none" xmlns="http://www.w3.org/2000/svg">
<path d="M57.8381 8.71021L57.8934 8.76402C58.4324 9.40974 58.8285 10.1571 59.0566 10.9591C59.2725 11.713 59.2915 12.5075 59.1119 13.2703C59.0895 13.383 59.0362 13.4877 58.9578 13.5734C58.873 13.6725 58.7827 13.7671 58.6873 13.8566C58.4546 14.054 58.2099 14.2375 57.9544 14.4061C57.239 14.8961 56.5003 15.3464 55.7442 15.7798C54.7758 16.3463 53.7957 16.8703 52.7865 17.3546C52.423 17.5274 52.0595 17.6945 51.6814 17.8361C51.5263 17.8957 51.3669 17.944 51.2045 17.9806C51.0821 18.0089 50.9546 18.0089 50.8322 17.9806C50.5657 17.9158 50.3058 17.8276 50.0557 17.7171C49.5061 17.4849 48.968 17.2243 48.4387 16.9496C47.1504 16.2868 45.8911 15.573 44.6581 14.7941L44.2742 14.5421L44.1753 14.4712C44.2004 14.4684 44.2258 14.4684 44.2509 14.4712C44.3352 14.5081 44.4167 14.5506 44.501 14.5845C44.9541 14.769 45.4288 14.8984 45.9144 14.9697C46.2719 15.0268 46.6341 15.0514 46.9963 15.0434C47.6477 15.0318 48.2896 14.8881 48.8808 14.6214C49.4363 14.3693 49.9888 14.1115 50.5297 13.8368C51.6271 13.2703 52.707 12.684 53.7695 12.0779C54.6972 11.5426 55.6162 10.9931 56.5061 10.3983C56.7427 10.2397 56.9753 10.0754 57.2041 9.90547C57.3364 9.80712 57.4618 9.70019 57.5793 9.58541C57.7413 9.43559 57.8443 9.2351 57.8701 9.01893C57.8759 8.96243 57.8759 8.9055 57.8701 8.84899C57.8759 8.815 57.8643 8.78101 57.8381 8.71021Z" fill="#F5853F"/>
<path d="M57.908 8.76402L57.8527 8.71021C57.8581 8.75908 57.8678 8.80742 57.8818 8.85466C57.8876 8.91116 57.8876 8.96809 57.8818 9.0246C57.856 9.24077 57.7531 9.44125 57.591 9.59107C57.4789 9.70599 57.3594 9.81384 57.2333 9.91396C57.0064 10.0839 56.7738 10.2482 56.5353 10.4068C55.8839 10.843 55.215 11.2565 54.5374 11.6559C57.8411 11.0894 58.8357 12.4376 59.1353 13.3043V13.2788C59.3149 12.516 59.2959 11.7215 59.08 10.9676C58.851 10.1617 58.4518 9.41114 57.908 8.76402V8.76402Z" fill="#F47633"/>
<path d="M59.3883 12.0014C59.3475 11.9759 59.3505 11.9419 59.3505 11.9079C59.3409 11.7012 59.3136 11.4956 59.269 11.2933C59.094 10.3908 58.6946 9.54377 58.1057 8.82633C57.8435 8.50104 57.5339 8.21478 57.1867 7.97662C56.7563 7.69338 56.3143 7.39598 55.8839 7.12691C54.8136 6.44714 53.7114 5.81269 52.6005 5.19806C51.6989 4.69957 50.7887 4.21807 49.8551 3.78188C49.4974 3.60911 49.1368 3.442 48.7616 3.30321C48.6278 3.25223 48.4882 3.20691 48.3487 3.16726C48.1711 3.11635 47.9823 3.11635 47.8048 3.16726C47.7047 3.19643 47.6123 3.24672 47.5344 3.31454L47.4587 3.37402V3.31454C47.8342 2.31069 48.4887 1.42817 49.3491 0.765407C49.8041 0.436553 50.315 0.18824 50.8584 0.0318231C51.0115 -0.0106077 51.1736 -0.0106077 51.3267 0.0318231C51.5329 0.0808223 51.7343 0.14716 51.9287 0.230089C52.4231 0.428355 52.9 0.657777 53.3828 0.895696C54.8451 1.62918 56.2654 2.43949 57.6375 3.32304C57.9661 3.53546 58.2919 3.75639 58.603 3.99714C58.7433 4.1059 58.8764 4.22321 59.0015 4.34835C59.0941 4.44263 59.1619 4.55728 59.1992 4.68257C59.2752 4.95241 59.3268 5.2282 59.3534 5.50679C59.4585 6.54877 59.51 7.59523 59.5075 8.64223C59.5075 9.38431 59.5075 10.1264 59.4726 10.8685C59.4551 11.2338 59.429 11.5964 59.4057 11.9618C59.3941 11.9674 59.3912 11.9788 59.3883 12.0014Z" fill="#F99F3F"/>
<path d="M47.8135 3.17293C47.991 3.12203 48.1798 3.12203 48.3573 3.17293C48.4969 3.21259 48.6482 3.25791 48.7703 3.30889C49.1426 3.44767 49.5032 3.61762 49.8638 3.78756C50.5327 4.10762 51.19 4.44467 51.8414 4.79588C49.224 2.01166 50.6229 0.349063 50.9689 0.0205078H50.8701C50.3317 0.182816 49.8267 0.435905 49.3781 0.768253C48.5177 1.43102 47.8633 2.31354 47.4878 3.31739V3.39952L47.5634 3.34004C47.634 3.26803 47.7191 3.21112 47.8135 3.17293V3.17293Z" fill="#F78E34"/>
<path d="M49.6195 0.465137C49.605 0.51612 49.5643 0.52745 49.5352 0.547276C48.7514 1.06519 48.1079 1.75997 47.6594 2.57242C47.4088 3.0229 47.2377 3.51121 47.1533 4.01693C47.1301 4.15288 47.1155 4.30017 47.1039 4.42762C47.037 5.17537 46.9876 5.92311 46.9643 6.67369C46.9236 7.89161 46.9091 9.1067 46.941 10.3246C46.941 10.7353 46.9585 11.1432 46.9759 11.5539C46.9963 12.0835 47.0254 12.616 47.0777 13.1457C47.0999 13.431 47.1397 13.7147 47.197 13.9954C47.2192 14.1272 47.2613 14.2551 47.322 14.3749C47.3688 14.4607 47.4275 14.5398 47.4965 14.61C47.5774 14.6913 47.6771 14.7524 47.7873 14.7884L47.9037 14.8309C47.7641 14.8507 47.6536 14.8734 47.543 14.8819C47.3191 14.8989 47.0952 14.9187 46.8712 14.9216C46.275 14.9337 45.6804 14.8554 45.1089 14.6893C44.4469 14.4991 43.8355 14.1705 43.3174 13.7263L43.2883 13.7036C43.1173 13.5769 42.9977 13.3953 42.951 13.191C42.9053 13.0263 42.8713 12.8588 42.8492 12.6896C42.7794 12.194 42.7445 11.6983 42.7183 11.1998C42.6543 10.0187 42.6514 8.84045 42.6776 7.65936C42.6776 7.14103 42.7154 6.62271 42.7532 6.10439C42.7741 5.75233 42.8139 5.40158 42.8724 5.05358C42.9015 4.8978 42.9393 4.74485 42.983 4.5919C43.0198 4.47513 43.0857 4.36906 43.1749 4.28317C43.3256 4.13159 43.488 3.99145 43.6606 3.86398C44.0939 3.54109 44.533 3.24369 45.0071 2.95762C46.3647 2.11154 47.7664 1.33444 49.2065 0.629415L49.5672 0.459473L49.6195 0.465137Z" fill="#FEC23B"/>
<path d="M47.5169 14.6157C47.4479 14.5455 47.3892 14.4664 47.3424 14.3806C47.2817 14.2608 47.2395 14.1329 47.2173 14.0011C47.1601 13.7204 47.1203 13.4367 47.0981 13.1513C47.0487 12.6217 47.0167 12.092 46.9963 11.5596C46.9818 11.1885 46.9731 10.8146 46.9643 10.4436C46.6357 11.4293 45.5102 14.1002 43.2244 13.6498C43.2511 13.6749 43.2793 13.6986 43.3087 13.7207L43.3378 13.7433C43.8558 14.1875 44.4672 14.5162 45.1292 14.7063C45.7008 14.8724 46.2953 14.9507 46.8916 14.9386C47.1156 14.9386 47.3395 14.9159 47.5634 14.8989C47.6847 14.8897 47.8051 14.8726 47.924 14.8479L47.8077 14.8055C47.6969 14.7652 47.5973 14.7002 47.5169 14.6157V14.6157Z" fill="#FBAD30"/>
<path d="M28.1708 11.3953C27.9056 11.6827 27.5847 11.9163 27.2267 12.0828C26.8686 12.2494 26.4803 12.3455 26.0841 12.3658C25.6878 12.386 25.2914 12.33 24.9174 12.2009C24.5434 12.0718 24.1992 11.8721 23.9045 11.6134C23.8285 11.5488 23.7566 11.4798 23.6893 11.4066C23.4231 11.6945 23.1011 11.9283 22.7419 12.0945C22.3826 12.2608 21.9931 12.3563 21.5959 12.3755C21.1986 12.3947 20.8013 12.3373 20.4269 12.2065C20.0525 12.0757 19.7084 11.8741 19.4142 11.6134C19.3386 11.5454 19.2659 11.4746 19.1961 11.401C18.6596 11.9757 17.9116 12.3205 17.1151 12.3603C16.3186 12.4001 15.5383 12.1316 14.9443 11.6134C14.8682 11.5478 14.7964 11.4778 14.7291 11.4038C14.1918 11.9815 13.4411 12.328 12.6418 12.3673C11.8425 12.4066 11.0599 12.1355 10.4656 11.6134C10.3896 11.5478 10.3177 11.4778 10.2504 11.4038C9.71354 11.9822 8.96278 12.3292 8.16324 12.3685C7.3637 12.4078 6.58088 12.1362 5.98695 11.6134C5.91521 11.5473 5.84542 11.4793 5.77756 11.4094L5.65832 11.5227L2.98567 14.1285C2.94776 14.1702 2.89952 14.2017 2.84556 14.2201C2.79159 14.2384 2.73369 14.243 2.6774 14.2333C2.50516 14.2096 2.33754 14.1609 2.18009 14.0889C1.95389 13.9841 1.74111 13.8539 1.5461 13.7008C1.42977 13.6102 1.42686 13.5451 1.5461 13.4431L4.48631 10.5824C4.6443 10.4396 4.77523 10.2709 4.8731 10.0839C5.03375 9.73958 5.04933 9.34763 4.9165 8.99224C4.78367 8.63685 4.51303 8.34637 4.1627 8.18319C3.81238 8.02001 3.41032 7.99716 3.04287 8.11953C2.67543 8.2419 2.37193 8.49973 2.19754 8.83766C2.12879 8.97596 2.08361 9.12424 2.06376 9.27668C2.03332 9.48502 2.05094 9.69735 2.11533 9.89822C2.17972 10.0991 2.28927 10.2835 2.43601 10.4379C2.54362 10.5569 2.67158 10.6589 2.785 10.7693L3.36664 11.3358C3.4568 11.4264 3.4568 11.4973 3.36664 11.5737C3.10868 11.7844 2.81286 11.9467 2.49418 12.0524C2.38763 12.0834 2.27871 12.1062 2.16846 12.1204C2.12848 12.1274 2.08733 12.1246 2.04873 12.1122C2.01014 12.0999 1.97532 12.0783 1.94743 12.0496C1.67348 11.8056 1.41514 11.5454 1.17385 11.2707C0.683339 10.7015 0.444852 9.96599 0.510774 9.22569C0.567541 8.51733 0.887542 7.85342 1.41083 7.35834C1.93412 6.86326 2.62479 6.57097 3.35347 6.53623C4.08214 6.5015 4.79883 6.72669 5.36926 7.16964C5.93969 7.61258 6.32474 8.24288 6.45226 8.94246C6.47844 9.09257 6.48716 9.24552 6.4988 9.39563C6.5079 9.66652 6.58264 9.93147 6.71691 10.1689C6.86878 10.4204 7.09529 10.6212 7.36662 10.7449C7.63795 10.8686 7.94139 10.9094 8.23698 10.8619C8.53257 10.8143 8.80645 10.6807 9.02257 10.4787C9.23869 10.2766 9.38691 10.0156 9.44773 9.72985C9.46172 9.65701 9.46854 9.58303 9.46809 9.50893V8.37598C9.46809 8.25136 9.52916 8.19471 9.64549 8.20887C9.94001 8.23466 10.2285 8.30539 10.5005 8.41847C10.616 8.47259 10.7278 8.53409 10.8349 8.60257C10.8885 8.63156 10.9321 8.67515 10.9606 8.72799C10.989 8.78083 11.0009 8.84061 10.9949 8.89997V9.46644C10.9912 9.64619 11.0251 9.82479 11.0946 9.99133C11.1641 10.1579 11.2677 10.3089 11.3991 10.4351C11.5814 10.6308 11.8175 10.7714 12.0794 10.8402C12.3413 10.909 12.618 10.903 12.8765 10.8231C13.1387 10.7593 13.3762 10.6229 13.5605 10.4304C13.7447 10.2379 13.8678 9.99752 13.9148 9.73835C13.9576 9.55566 13.9627 9.36651 13.9299 9.18187C13.8971 8.99722 13.827 8.82075 13.7237 8.66268C13.6204 8.50461 13.4859 8.36808 13.3279 8.26101C13.17 8.15394 12.9919 8.07846 12.8038 8.03893C12.7435 8.02535 12.6823 8.01589 12.6206 8.01061H9.70074C9.51171 8.01061 9.47681 7.97662 9.49717 7.79535C9.52349 7.51241 9.5982 7.23574 9.71819 6.97679C9.77681 6.86598 9.84287 6.75907 9.91595 6.65673C9.94425 6.61345 9.98409 6.57847 10.0312 6.55552C10.0783 6.53257 10.131 6.52252 10.1835 6.52645H12.5101C12.9465 6.5262 13.3772 6.62308 13.7693 6.80968C14.2217 7.0107 14.6148 7.31955 14.9121 7.70767C15.2095 8.0958 15.4016 8.55068 15.4706 9.03026C15.4939 9.18025 15.5056 9.33174 15.5055 9.48344C15.5131 9.84494 15.6595 10.1905 15.916 10.452C16.1724 10.7135 16.5202 10.8717 16.8906 10.8956C17.2611 10.9194 17.6273 10.8071 17.9168 10.5808C18.2063 10.3544 18.3982 10.0306 18.4545 9.67321C18.4574 9.62982 18.4574 9.5863 18.4545 9.54292V6.77569C18.4545 6.58026 18.4894 6.54627 18.6871 6.56893C18.967 6.59657 19.2407 6.66632 19.4985 6.77569C19.6099 6.82952 19.7177 6.89006 19.8213 6.95697C19.8741 6.98734 19.9168 7.0317 19.9446 7.08486C19.9725 7.13802 19.9842 7.1978 19.9784 7.2572V9.45228C19.9695 9.64717 20.0013 9.84179 20.0717 10.0244C20.1422 10.207 20.2499 10.3738 20.3884 10.5148C20.5269 10.6557 20.6932 10.7679 20.8774 10.8446C21.0616 10.9212 21.2598 10.9607 21.4601 10.9607C21.6604 10.9607 21.8587 10.9212 22.0429 10.8446C22.227 10.7679 22.3934 10.6557 22.5319 10.5148C22.6703 10.3738 22.778 10.207 22.8485 10.0244C22.919 9.84179 22.9507 9.64717 22.9419 9.45228V3.15309C22.9419 3.04546 22.9942 2.99165 23.1018 3.00015C23.5314 3.02735 23.9459 3.16517 24.3029 3.39951C24.3513 3.43022 24.391 3.47222 24.4184 3.52169C24.4458 3.57116 24.4601 3.62652 24.46 3.68275V9.43529C24.4545 9.80106 24.5918 10.1552 24.8441 10.4262C25.0964 10.6973 25.4448 10.865 25.8191 10.8955C26.1934 10.9261 26.5656 10.8172 26.8607 10.5909C27.1558 10.3645 27.3517 10.0376 27.4089 9.67604C27.4118 9.63266 27.4118 9.58913 27.4089 9.54575V6.71338C27.4089 6.58876 27.4612 6.54061 27.5921 6.55194C27.9355 6.57856 28.2704 6.66994 28.578 6.82101C28.6629 6.86762 28.7445 6.91966 28.8223 6.97679C28.857 6.99973 28.8854 7.03053 28.9052 7.06655C28.9249 7.10257 28.9354 7.14272 28.9357 7.18356V9.44945C28.9362 9.75768 29.0378 10.0577 29.2256 10.3058C29.4134 10.5539 29.6776 10.7371 29.9798 10.8288C30.119 10.8715 30.2641 10.8934 30.4102 10.894H34.8277C35.0678 10.9028 35.3068 10.8572 35.5257 10.7608C35.7867 10.6499 36.0086 10.4668 36.1637 10.2341C36.3188 10.0015 36.4003 9.72964 36.3982 9.45228C36.4065 9.26316 36.3987 9.07369 36.3749 8.88581C36.319 8.55435 36.146 8.25231 35.8858 8.03184C35.6256 7.81136 35.2945 7.6863 34.9497 7.67824C34.6049 7.67018 34.2681 7.77963 33.9973 7.9877C33.7265 8.19576 33.5389 8.48937 33.4667 8.81783C33.4435 8.9163 33.4317 9.01702 33.4318 9.11806V10.0414C33.4344 10.1001 33.4217 10.1585 33.3947 10.211C33.3677 10.2635 33.3274 10.3085 33.2777 10.3416C33.0448 10.5009 32.7803 10.6109 32.5012 10.6645C32.3622 10.6957 32.2214 10.7184 32.0795 10.7325C31.9602 10.7325 31.9079 10.6985 31.9079 10.5852V8.98211C31.9285 8.31298 32.1959 7.67347 32.6611 7.18072C33.1618 6.61961 33.869 6.27271 34.63 6.21488C35.3684 6.15097 36.1049 6.3568 36.6961 6.79234C37.2874 7.22788 37.6912 7.86201 37.829 8.57142C37.8615 8.75875 37.8809 8.948 37.8872 9.13789C37.9013 9.38096 37.8906 9.6248 37.8552 9.86581C37.7547 10.5129 37.4347 11.1085 36.946 11.5577C36.4574 12.0069 35.8284 12.2838 35.1593 12.3441C35.0081 12.3583 34.8685 12.3441 34.7027 12.3441H30.4654C30.0474 12.3517 29.6325 12.2734 29.2476 12.1143C28.8628 11.9552 28.5167 11.7189 28.2319 11.4208L28.2028 11.3925L28.1708 11.3953ZM17.0265 13.749C16.9041 13.6102 16.7468 13.5048 16.57 13.4431C16.3896 13.3782 16.1942 13.3635 16.0058 13.4006C15.7572 13.4461 15.5333 13.5761 15.374 13.7674C15.2147 13.9587 15.1304 14.1989 15.136 14.4451C15.1415 14.6914 15.2367 14.9277 15.4046 15.112C15.5724 15.2962 15.8019 15.4165 16.0523 15.4512C16.3292 15.4889 16.6105 15.4219 16.8382 15.2638C17.0659 15.1058 17.2228 14.8688 17.2767 14.6015C17.3141 14.788 17.3991 14.9624 17.5239 15.1085C17.6468 15.2483 17.8065 15.353 17.9857 15.4113C18.165 15.4697 18.3572 15.4796 18.5417 15.4399C18.7903 15.3944 19.0141 15.2644 19.1734 15.0731C19.3327 14.8818 19.4171 14.6416 19.4115 14.3954C19.4059 14.1491 19.3108 13.9128 19.1429 13.7286C18.9751 13.5443 18.7456 13.4241 18.4952 13.3893C18.2183 13.3516 17.937 13.4187 17.7093 13.5767C17.4816 13.7347 17.3247 13.9717 17.2708 14.239C17.2315 14.0587 17.1477 13.8905 17.0265 13.749V13.749ZM27.6183 15.4484C27.8682 15.4079 28.0952 15.2823 28.259 15.094C28.4228 14.9058 28.5127 14.667 28.5127 14.4203C28.5127 14.1735 28.4228 13.9348 28.259 13.7465C28.0952 13.5582 27.8682 13.4326 27.6183 13.3921C27.3402 13.3514 27.0568 13.4172 26.8274 13.5756C26.5981 13.734 26.4406 13.9728 26.3881 14.2418C26.3356 13.9705 26.1765 13.7299 25.9445 13.5712C25.7126 13.4125 25.4262 13.3482 25.1463 13.3921C24.8964 13.4326 24.6693 13.5582 24.5055 13.7465C24.3418 13.9348 24.2519 14.1735 24.2519 14.4203C24.2519 14.667 24.3418 14.9058 24.5055 15.094C24.6693 15.2823 24.8964 15.4079 25.1463 15.4484C25.4244 15.4891 25.7078 15.4233 25.9371 15.2649C26.1665 15.1065 26.324 14.8677 26.3765 14.5987C26.4296 14.8697 26.589 15.1098 26.8207 15.2684C27.0525 15.427 27.3385 15.4916 27.6183 15.4484V15.4484ZM34.7638 5.06777C34.9754 5.06833 35.1825 5.00775 35.3588 4.89369C35.5352 4.77962 35.6728 4.6172 35.7543 4.42696C35.8358 4.23671 35.8576 4.0272 35.8169 3.8249C35.7762 3.6226 35.6748 3.43661 35.5255 3.29045C35.3762 3.14428 35.1858 3.04451 34.9783 3.00374C34.7708 2.96297 34.5556 2.98304 34.3598 3.06141C34.164 3.13979 33.9965 3.27294 33.8784 3.44403C33.7604 3.61513 33.697 3.81648 33.6965 4.02263V4.02263C33.6961 4.15951 33.7234 4.29512 33.7768 4.42172C33.8302 4.54832 33.9087 4.66344 34.0079 4.76049C34.107 4.85754 34.2247 4.93463 34.3544 4.98735C34.4841 5.04008 34.6232 5.0674 34.7638 5.06777Z" fill="white"/>
</svg>
