<svg width="59" height="18" viewBox="0 0 59 18" fill="none" xmlns="http://www.w3.org/2000/svg">
<path d="M59 3.54883H55.4327V14.0321H59V3.54883Z" fill="white"/>
<path d="M44.2315 3.54883H40.6642V14.0321H44.2315V3.54883Z" fill="white"/>
<path d="M21.9759 3.54883H18.4086V14.0321H21.9759V3.54883Z" fill="white"/>
<path d="M14.5559 3.54883H10.9886V14.0321H14.5559V3.54883Z" fill="white"/>
<path d="M36.8115 0.194092H33.2443V3.68852H36.8115V0.194092Z" fill="white"/>
<path d="M10.7018 0.194092H7.13452V3.68852H10.7018V0.194092Z" fill="white"/>
<path d="M7.13454 10.5376H3.56726V14.032H7.13454V10.5376Z" fill="white"/>
<path d="M36.8114 14.032H33.2442L29.6769 10.5376H40.3787L36.8114 14.032Z" fill="white"/>
<path d="M40.3788 7.04321H36.8115V10.5376H40.3788V7.04321Z" fill="white"/>
<path d="M33.2484 7.04321H29.6812V10.5376H33.2484V7.04321Z" fill="white"/>
<path d="M48.0127 14.3117V17.8062H55.1473V14.3117H48.0127Z" fill="white"/>
<path d="M10.9886 14.3117V17.8062H18.1232V14.3117H10.9886Z" fill="white"/>
<path d="M0 7.04316L0 10.5376H7.13457V7.04316H0Z" fill="white"/>
<path d="M48.0128 7.04316V10.5376H55.1474V7.04316H48.0128Z" fill="white"/>
<path d="M51.58 10.5376L48.0127 14.032H44.4454L48.0127 10.5376H51.58Z" fill="white"/>
<path d="M25.8285 7.04316V10.5376H29.3958V7.04316H25.8285Z" fill="white"/>
<path d="M18.1232 10.5376L14.5559 14.032V10.5376H18.1232Z" fill="white"/>
<path d="M10.7018 10.5376L7.13452 14.032V10.5376H10.7018Z" fill="white"/>
<path d="M29.3958 10.5376L25.8285 14.032H22.2612L25.8285 10.5376H29.3958Z" fill="white"/>
</svg>
