<svg width="66" height="59" viewBox="0 0 66 59" fill="none" xmlns="http://www.w3.org/2000/svg">
<mask id="mask0_4471_6488" style="mask-type:alpha" maskUnits="userSpaceOnUse" x="17" y="0" width="25" height="24">
<path d="M17.4388 0H41.2108V23.857H17.4388V0Z" fill="white"/>
</mask>
<g mask="url(#mask0_4471_6488)">
<path fill-rule="evenodd" clip-rule="evenodd" d="M24.6808 7.05308C24.7445 7.08833 24.815 7.07071 24.8822 7.07071C30.2311 7.07071 35.5791 7.07071 40.928 7.07071C41.2108 7.07071 41.2108 7.07071 41.2108 7.35691C41.2108 8.35568 41.2108 9.35361 41.21 10.3524C41.21 10.5555 41.2041 10.563 41.0018 10.563H24.732C24.5272 10.563 24.5154 10.5496 24.5154 10.3398V7.40475V7.23353C24.502 7.2285 24.4886 7.2243 24.4768 7.22011C24.3165 7.393 24.1528 7.56254 23.9992 7.74047C23.0911 8.7854 22.3886 9.95539 21.8926 11.2462C21.6786 11.8019 21.5157 12.3734 21.3831 12.9567C21.1548 13.9664 21.0919 14.987 21.1255 16.0168C21.1574 17.008 21.3294 17.9774 21.6165 18.9267C22.0311 20.3015 22.679 21.5545 23.5494 22.6943C23.8213 23.0502 24.1142 23.3867 24.4239 23.709C24.4533 23.7401 24.5053 23.7669 24.4869 23.8173C24.4676 23.871 24.4105 23.8542 24.3685 23.8542C22.914 23.8551 21.4578 23.8542 20.0033 23.8559C19.9076 23.8559 19.8464 23.8207 19.7969 23.7401C19.0541 22.5449 18.4708 21.2793 18.0704 19.9271C17.6432 18.4852 17.42 17.019 17.4401 15.5116C17.451 14.731 17.4611 13.9521 17.587 13.1817C17.759 12.1325 18.0133 11.1044 18.3877 10.1056C18.8014 8.99859 19.331 7.95282 19.9798 6.9658C20.6714 5.91583 21.4797 4.96406 22.402 4.11133C23.4915 3.10501 24.6984 2.26822 26.027 1.60434C27.0308 1.10411 28.0741 0.712158 29.1601 0.443582C30.2554 0.172487 31.3658 0.00043017 32.4989 -0.000594235C33.3784 -0.00124843 34.2572 -0.00460564 35.1284 0.132201C35.9526 0.261453 36.765 0.436028 37.5615 0.687818C38.5972 1.01431 39.5868 1.44403 40.536 1.97195C40.6468 2.03406 40.6703 2.08442 40.6149 2.20192C40.1063 3.29049 39.2594 3.97201 38.102 4.25821C37.4935 4.41012 36.8884 4.34214 36.2841 4.15414C35.7318 3.98208 35.162 3.87045 34.5862 3.7882C33.9047 3.69084 33.2223 3.66482 32.5366 3.67993C31.6503 3.70007 30.78 3.83268 29.9222 4.05678C28.7463 4.36312 27.6468 4.84572 26.6179 5.49114C25.9506 5.90912 25.3388 6.39759 24.7647 6.93474C24.7353 6.96244 24.7093 6.99182 24.6841 7.02203C24.6791 7.0279 24.6816 7.03965 24.6808 7.05308Z" fill="#006BB8"/>
</g>
<path fill-rule="evenodd" clip-rule="evenodd" d="M32.8626 30.9764C32.051 31.0208 31.1764 30.9403 30.3103 30.7867C29.1008 30.5727 27.9258 30.2344 26.797 29.7392C26.2657 29.5059 25.747 29.244 25.2392 28.9629C25.0235 28.8429 25.0202 28.8361 25.1393 28.6263C25.564 27.8768 26.1373 27.2834 26.9304 26.9192C27.5817 26.6196 28.2666 26.5449 28.9666 26.6632C29.3073 26.7211 29.6338 26.8512 29.9704 26.9402C30.6569 27.1206 31.3552 27.2364 32.0661 27.2809C32.8601 27.3296 33.6532 27.3212 34.4438 27.2205C35.6776 27.0627 36.8602 26.7194 37.9849 26.1881C39.0743 25.6745 40.0571 25.0022 40.9467 24.1889C41.781 23.4243 42.4835 22.554 43.0685 21.5913C43.5763 20.757 43.9632 19.8665 44.2486 18.9307C44.6497 17.6222 44.8025 16.2827 44.7412 14.9197C44.7077 14.1559 44.5952 13.4022 44.4114 12.6569C44.126 11.5004 43.6787 10.4135 43.0677 9.3954C42.6698 8.72983 42.2091 8.10623 41.6811 7.53634C41.5628 7.40877 41.4411 7.28539 41.3194 7.16118C41.2942 7.136 41.269 7.10914 41.2816 7.07137C41.2976 7.02353 41.3395 7.02353 41.3798 7.02353C42.7999 7.02101 44.2192 7.02269 45.6393 7.01175C45.8491 7.0101 45.9717 7.07641 46.0816 7.25686C46.7421 8.33704 47.2868 9.47093 47.6788 10.6745C47.8483 11.1974 47.9801 11.732 48.1043 12.2692C48.4367 13.696 48.482 15.1421 48.4065 16.5907C48.3469 17.7062 48.1253 18.8006 47.8097 19.8766C47.3968 21.2833 46.7933 22.6001 46.0069 23.8322C45.2641 24.9972 44.3778 26.0446 43.3522 26.9729C42.4684 27.7728 41.5124 28.4702 40.4692 29.0468C39.4771 29.5966 38.4406 30.0389 37.3495 30.3595C35.9059 30.7825 34.4405 31.0234 32.8626 30.9764Z" fill="#006BB8"/>
<path fill-rule="evenodd" clip-rule="evenodd" d="M32.8917 19.4386H24.8017C24.7472 19.4386 24.6926 19.4386 24.638 19.4369C24.5617 19.4336 24.5172 19.3966 24.5163 19.3169C24.5155 19.2817 24.5155 19.2472 24.5155 19.2128V16.1737C24.5155 15.9639 24.5264 15.9521 24.732 15.9521H41.0464C41.2545 15.9521 41.2663 15.9631 41.2663 16.1704V19.1801C41.2663 19.4386 41.2663 19.4386 41.012 19.4386H32.8917Z" fill="#006BB8"/>
<path fill-rule="evenodd" clip-rule="evenodd" d="M32.9231 23.8542H24.8499C24.7953 23.8542 24.7408 23.8533 24.6862 23.8525C24.6065 23.8508 24.5696 23.8089 24.5696 23.7308C24.5696 23.6259 24.5687 23.5218 24.5687 23.4177V20.617C24.5687 20.3644 24.5696 20.3635 24.8289 20.3635H41.0199C41.2608 20.3635 41.2658 20.3686 41.2658 20.6019V23.6108C41.2658 23.8491 41.2616 23.8542 41.0258 23.8542H32.9231Z" fill="#006BB8"/>
<path fill-rule="evenodd" clip-rule="evenodd" d="M32.9102 14.9735H24.8344C24.5692 14.9735 24.5692 14.9735 24.5692 14.7016V11.7069C24.5692 11.4988 24.581 11.4854 24.7866 11.4854C30.2043 11.4854 35.6228 11.4854 41.0414 11.4854C41.2512 11.4854 41.2663 11.5021 41.2663 11.7178V14.7427C41.2663 14.9676 41.2596 14.9735 41.0296 14.9735H32.9102Z" fill="#006BB8"/>
<path fill-rule="evenodd" clip-rule="evenodd" d="M55.5263 40.9745C55.3826 40.9812 55.2265 40.9458 55.124 41.0942C55.0254 41.2398 55.0493 41.5683 55.1719 41.7407C55.2801 41.892 55.4784 41.9456 55.691 41.8843C55.9266 41.8163 56.0789 41.6593 56.1717 41.439C56.2426 41.2695 56.1919 41.1431 56.0233 41.0665C55.8662 40.9946 55.6986 40.9707 55.5263 40.9745ZM55.1326 40.2888C55.237 40.2562 55.2744 40.1959 55.3213 40.1499C56.256 39.2344 57.2041 38.3332 58.0603 37.341C58.1513 37.2337 58.2337 37.1179 58.3247 37.0087C58.3601 36.9646 58.385 36.8756 58.4626 36.9206C58.5334 36.9608 58.4875 37.0365 58.4693 37.091C58.3476 37.455 58.1714 37.7892 57.9196 38.0794C57.5413 38.5161 57.1381 38.9298 56.733 39.3416C56.4035 39.6768 56.0798 40.0168 55.7494 40.3511C55.6603 40.4411 55.6575 40.4708 55.7944 40.4957C56.0721 40.5483 56.3422 40.6374 56.6238 40.6642C56.8632 40.6872 57.0682 40.6288 57.2377 40.4459C57.4187 40.2505 57.6102 40.0657 57.7989 39.8789C57.8956 39.7841 57.9914 39.7104 58.1427 39.7908C58.248 39.8463 58.34 39.7879 58.4061 39.696C58.4836 39.5859 58.5603 39.4958 58.724 39.5293C58.8294 39.5514 58.8677 39.4365 58.9175 39.3646C58.9864 39.2641 59.0429 39.1587 59.1971 39.2535C59.269 39.2966 59.337 39.2382 59.3868 39.1788C59.4682 39.0821 59.517 38.9662 59.5716 38.8551C59.6233 38.7469 59.676 38.6406 59.7516 38.5477C59.8503 38.4299 59.9719 38.3801 60.1117 38.4606C60.2085 38.5151 60.2535 38.4874 60.2946 38.3993C60.3176 38.3495 60.3425 38.2872 60.4144 38.2977C60.4824 38.3083 60.5207 38.361 60.5437 38.4203C60.6337 38.6502 60.5523 38.8427 60.4077 39.017C60.2793 39.1693 60.1184 39.1769 59.946 39.1003C59.8407 39.0534 59.7564 39.0764 59.7028 39.1807C59.5419 39.4968 59.3044 39.719 58.9922 39.9048C58.7547 40.0455 58.4731 40.1289 58.2806 40.3472C58.2251 40.4104 58.1369 40.4133 58.0575 40.4028C57.8765 40.3779 57.7567 40.4641 57.6514 40.5962C57.5451 40.7303 57.4646 40.8797 57.3488 41.0061C57.1793 41.191 56.9762 41.2867 56.7272 41.2475C56.5778 41.2235 56.5251 41.2886 56.4926 41.417C56.3959 41.7924 56.256 42.1515 56.0645 42.4877C55.9045 42.7721 55.6728 42.9723 55.3271 42.9866C54.9899 43.0001 54.785 42.865 54.6557 42.5509C54.5609 42.321 54.5303 42.0787 54.5552 41.8336C54.6346 41.0636 54.7247 40.2945 54.8654 39.5322C54.922 39.2191 55.0675 38.9327 55.1796 38.6368C55.1939 38.5965 55.2083 38.5381 55.2667 38.5525C55.3223 38.5659 55.3184 38.6243 55.3136 38.6674C55.2878 38.9432 55.26 39.2191 55.2284 39.4939C55.1997 39.7515 55.1671 40.0082 55.1326 40.2888Z" fill="#006BB8"/>
<path fill-rule="evenodd" clip-rule="evenodd" d="M23.6886 40.8584C24.0927 40.8393 24.4241 40.7511 24.7057 40.5242C24.7842 40.461 24.9154 40.3997 24.8656 40.2752C24.8177 40.1555 24.6875 40.1315 24.563 40.1286C24.4873 40.1267 24.4174 40.143 24.3513 40.1813C24.0832 40.3412 23.9146 40.596 23.6886 40.8584ZM24.0736 40.0003C24.1952 39.8796 24.291 39.7839 24.3868 39.6891C24.4557 39.6211 24.5352 39.5674 24.6224 39.5234C24.8081 39.4314 24.9834 39.4506 25.1491 39.5713C25.3138 39.691 25.3167 39.8624 25.2745 40.0319C25.1319 40.6075 24.7861 41.0576 24.3619 41.4541C24.1435 41.6581 23.8878 41.8037 23.5909 41.8649C23.2586 41.9339 22.9368 41.9205 22.6543 41.7002C22.5566 41.6246 22.5547 41.7108 22.5384 41.7634C22.4369 42.0728 22.2971 42.362 22.0921 42.6167C21.9159 42.8361 21.7129 43.0123 21.4054 42.9864C21.1421 42.9634 20.9888 42.7767 20.8452 42.5861C20.7935 42.5162 20.849 42.4396 20.8979 42.3869C21.1727 42.09 21.234 41.7194 21.2216 41.343C21.1938 40.4849 21.3432 39.6642 21.6707 38.8731C21.6765 38.8578 21.6803 38.8415 21.688 38.8262C21.7129 38.7783 21.7176 38.694 21.7866 38.7074C21.8613 38.7227 21.8517 38.8061 21.8469 38.8654C21.7971 39.4621 21.733 40.0587 21.6975 40.6563C21.664 41.2195 21.5395 41.7529 21.2675 42.248C21.2062 42.3582 21.2761 42.3543 21.3528 42.3572C21.7627 42.3744 22.1908 41.9875 22.2425 41.5307C22.2798 41.2051 22.3066 40.8766 22.3114 40.5491C22.321 39.8375 22.4627 39.1566 22.7539 38.5072C22.7702 38.4709 22.7864 38.4345 22.8085 38.4029C22.82 38.3866 22.8458 38.3713 22.865 38.3722C22.8995 38.3741 22.909 38.4057 22.9081 38.4345C22.9062 38.5025 22.9023 38.5705 22.8947 38.6375C22.8343 39.1776 22.7749 39.7168 22.7759 40.2608C22.7769 40.6027 22.9607 40.7952 23.2998 40.8364C23.3544 40.8421 23.3955 40.8431 23.4338 40.7942C23.6541 40.5117 23.8131 40.21 23.815 39.8365C23.816 39.3567 23.8006 38.8731 23.9137 38.4009C23.9884 38.0926 24.1071 37.7976 24.2287 37.5045C24.2489 37.4567 24.267 37.3791 24.3408 37.404C24.3992 37.4241 24.3781 37.495 24.3686 37.54C24.2661 38.0552 24.3197 38.5791 24.2709 39.0972C24.2479 39.3452 24.1904 39.5875 24.1234 39.8279C24.11 39.8748 24.0966 39.9208 24.0736 40.0003Z" fill="#006BB8"/>
<path fill-rule="evenodd" clip-rule="evenodd" d="M28.9895 44.7973C28.2837 44.7897 27.8508 44.3884 27.7857 43.695C27.7282 43.0658 27.8881 42.4807 28.1276 41.9137C28.3287 41.4396 28.5576 40.9771 28.775 40.5097C28.796 40.4647 28.8228 40.4206 28.8516 40.3785C28.8717 40.3498 28.9042 40.3306 28.9406 40.344C28.9751 40.3565 28.9895 40.3881 28.9943 40.4245C29.0039 40.4953 28.978 40.5586 28.9521 40.6218C28.7683 41.0661 28.5786 41.5086 28.4005 41.9558C28.3076 42.1866 28.2473 42.4289 28.2023 42.6751C28.1113 43.1683 28.343 43.5418 28.8238 43.6663C29.6005 43.8674 30.5276 43.4163 30.8465 42.6818C30.947 42.45 30.9154 42.3801 30.677 42.3092C30.6549 42.3035 30.6329 42.2987 30.6109 42.292C30.2067 42.1713 30.0679 41.9348 30.1569 41.5182C30.2862 40.9129 30.6109 40.4149 31.0026 39.9485C31.3119 39.5788 31.672 39.2733 32.0963 39.0473C32.1968 38.9937 32.3204 38.8941 32.4248 38.9879C32.5253 39.0779 32.4554 39.2149 32.4123 39.3222C32.3395 39.506 32.2543 39.6861 32.1671 39.8633C32.1164 39.9686 32.0426 40.0452 31.9133 39.9571C31.8415 39.9073 31.7678 39.9389 31.7017 39.9677C31.2688 40.1506 30.9509 40.4666 30.7028 40.8564C30.6099 41.0029 30.6559 41.1035 30.8206 41.1801C31.2516 41.3803 31.3081 41.4454 31.2707 41.9156C31.2104 42.6502 31.0064 43.3435 30.5505 43.9364C30.2297 44.353 29.8399 44.6853 29.2921 44.7686C29.1925 44.7839 29.09 44.7878 28.9895 44.7973Z" fill="#006BB8"/>
<path fill-rule="evenodd" clip-rule="evenodd" d="M13.0425 42.9868C12.6106 42.9906 12.2247 43.0021 11.8492 42.8872C11.7238 42.8489 11.6041 42.8019 11.4958 42.7263C11.2957 42.5874 11.1894 42.4007 11.1932 42.1517C11.197 41.8098 11.2727 41.4784 11.3493 41.148C11.3646 41.0857 11.3761 40.9976 11.4671 41.0072C11.5571 41.0168 11.5543 41.103 11.5533 41.1691C11.5504 41.4803 11.7305 41.6364 12.0034 41.7284C12.3683 41.8509 12.7456 41.8912 13.1239 41.9046C14.0998 41.9381 15.0709 41.8854 16.0085 41.5665C16.2815 41.4736 16.5516 41.3673 16.7804 41.1844C16.9069 41.0838 17.0007 40.9564 17.0831 40.8195C17.1051 40.7831 17.1338 40.7333 17.1894 40.7572C17.2411 40.7802 17.2354 40.8358 17.2248 40.8779C17.0859 41.4008 16.8935 41.8902 16.4098 42.2034C15.8716 42.552 15.2701 42.7282 14.6496 42.846C14.1027 42.9494 13.553 43.0107 13.0425 42.9868Z" fill="#006BB8"/>
<path fill-rule="evenodd" clip-rule="evenodd" d="M47.9902 41.6108C47.8781 41.6415 47.7613 41.675 47.6358 41.6261C47.4251 41.5438 47.337 41.3877 47.4002 41.1712C47.4797 40.8973 47.6071 40.6435 47.767 40.4089C47.9873 40.0833 48.3168 40.1158 48.4853 40.474C48.5064 40.519 48.5236 40.566 48.5495 40.6273C48.7123 40.4654 48.7851 40.2729 48.8301 40.0708C48.9182 39.6772 48.9488 39.2759 48.968 38.8756C48.9919 38.3882 49.126 37.9419 49.3856 37.531C49.4057 37.5004 49.4172 37.4448 49.466 37.4601C49.5225 37.4774 49.5053 37.5377 49.4995 37.5779C49.4631 37.8403 49.4133 38.1018 49.3827 38.3652C49.3367 38.7626 49.2783 39.1601 49.33 39.5642C49.3664 39.8496 49.4583 39.9607 49.7026 40.0239C49.8146 40.0536 49.8721 40.0201 49.9094 39.9166C49.9966 39.6715 50.0952 39.4301 50.2149 39.1984C50.304 39.026 50.4151 38.8708 50.5769 38.7559C50.7302 38.6458 50.9016 38.6276 51.0797 38.6582C51.2291 38.6831 51.3278 38.8172 51.2895 38.935C51.2435 39.0787 51.1449 39.1141 50.9964 39.0806C50.6899 39.0116 50.5003 39.1036 50.3615 39.3602C50.2944 39.4847 50.2992 39.6016 50.394 39.7059C50.4917 39.8151 50.6105 39.8678 50.7589 39.8103C50.9093 39.7529 51.0098 39.6399 51.0931 39.5096C51.1554 39.4139 51.209 39.3152 51.2703 39.2185C51.301 39.1706 51.3402 39.116 51.4044 39.1399C51.4772 39.1668 51.4542 39.2367 51.4389 39.2874C51.4092 39.3794 51.3757 39.4704 51.3354 39.5565C51.1372 39.9856 50.9054 40.3917 50.5587 40.723C50.2657 41.0027 49.9228 41.1243 49.5206 41.0803C49.3271 41.0592 49.1806 40.9586 49.0666 40.8092C49.0073 40.7326 48.968 40.7278 48.9259 40.8178C48.9182 40.8332 48.9077 40.8475 48.8952 40.859C48.5581 41.1789 48.3857 41.5907 48.2325 42.0188C48.0898 42.4182 47.8302 42.7064 47.3878 42.7965C47.2058 42.8338 47.0315 42.9075 46.8534 42.9631C46.7892 42.9832 46.7011 43.0206 46.6647 42.9554C46.6178 42.8721 46.7155 42.8261 46.7701 42.7878C47.0267 42.602 47.2901 42.4249 47.5506 42.2448C47.7508 42.105 47.8973 41.9221 47.995 41.6989C48.0065 41.6731 48.0208 41.6472 47.9902 41.6108Z" fill="#006BB8"/>
<mask id="mask1_4471_6488" style="mask-type:alpha" maskUnits="userSpaceOnUse" x="0" y="39" width="5" height="6">
<path d="M0.630249 39.8608H4.68276V44.6621H0.630249V39.8608Z" fill="white"/>
</mask>
<g mask="url(#mask1_4471_6488)">
<path fill-rule="evenodd" clip-rule="evenodd" d="M4.17702 41.4584C4.13871 40.969 4.27183 40.515 4.45858 40.0726C4.48444 40.0103 4.51892 39.9509 4.55723 39.8954C4.57064 39.8762 4.60416 39.86 4.62906 39.8609C4.66928 39.8628 4.67694 39.9011 4.68077 39.9366C4.68173 39.9423 4.68269 39.9471 4.68269 39.9529C4.66066 41.0475 4.63959 42.1422 4.07455 43.1334C3.76904 43.6678 3.39937 44.1399 2.84199 44.4349C2.48093 44.6274 2.09402 44.6963 1.69083 44.6465C1.14494 44.5786 0.734086 44.1505 0.654597 43.5845C0.560742 42.9141 0.747494 42.2954 1.01182 41.693C1.10089 41.4919 1.21198 41.2994 1.31733 41.105C1.33935 41.0628 1.37 41.0006 1.43033 41.0274C1.48971 41.0542 1.48684 41.1222 1.4696 41.1787C1.44853 41.2419 1.41788 41.3032 1.39107 41.3655C1.2273 41.7275 1.0779 42.0924 1.04151 42.4956C0.986919 43.0951 1.28476 43.4782 1.88907 43.5749C2.83432 43.7262 3.76329 43.1908 4.10328 42.2964C4.1368 42.2073 4.1684 42.1125 4.17415 42.0177C4.18564 41.8319 4.17702 41.6451 4.17702 41.4584Z" fill="#006BB8"/>
</g>
<path fill-rule="evenodd" clip-rule="evenodd" d="M36.5602 41.8563C36.609 41.0365 36.7 40.2215 36.8734 39.419C36.9318 39.1508 37.0592 38.898 37.1568 38.6384C37.1722 38.5982 37.1856 38.5398 37.244 38.5513C37.2986 38.5628 37.2967 38.6221 37.2928 38.6652C37.266 38.9411 37.2382 39.2159 37.2076 39.4917C37.1473 40.0367 37.0831 40.5806 37.0256 41.1265C37.0084 41.297 37.039 41.4665 37.1042 41.6255C37.2718 42.0363 37.7659 42.1359 38.0791 41.819C38.1902 41.7069 38.2879 41.5805 38.3952 41.4646C38.4986 41.3516 38.624 41.3066 38.7782 41.3554C38.8367 41.3736 38.9027 41.3746 38.964 41.3698C39.1038 41.3583 39.1757 41.2673 39.1383 41.139C39.1048 41.0241 39.0502 40.9245 38.8951 40.9867C38.8501 41.0049 38.7964 41.0097 38.7457 41.0107C38.3616 41.0164 38.2343 40.8383 38.3789 40.4858C38.4746 40.256 38.5742 40.0261 38.7083 39.8154C38.8366 39.6143 38.9343 39.5885 39.1469 39.6996C39.5013 39.8815 39.6746 40.302 39.5952 40.7664C39.5262 41.1754 39.3404 41.5259 39.078 41.8391C38.9889 41.9463 38.8826 42.0373 38.7284 42.0047C38.4555 41.9473 38.2697 42.0747 38.1222 42.2825C38.0226 42.4204 37.9393 42.5707 37.8349 42.7029C37.4978 43.1291 36.9672 43.0764 36.7134 42.5966C36.5908 42.3648 36.5535 42.1158 36.5602 41.8563Z" fill="#006BB8"/>
<path fill-rule="evenodd" clip-rule="evenodd" d="M18.5005 42.9882C18.0963 42.9882 17.8406 42.7861 17.7286 42.3848C17.6385 42.0554 17.6692 41.7211 17.697 41.3907C17.7525 40.7539 17.8349 40.1199 17.9603 39.4926C18.0216 39.1861 18.1653 38.9065 18.2716 38.6144C18.285 38.577 18.307 38.531 18.3549 38.5473C18.4076 38.5646 18.3989 38.6182 18.397 38.6642C18.3798 39.0654 18.3147 39.4619 18.2687 39.8613C18.2084 40.3832 18.1183 40.9033 18.1509 41.4319C18.1691 41.7355 18.2831 41.8734 18.5407 41.9318C18.647 41.9567 18.6968 41.9213 18.7313 41.8246C18.8299 41.5526 18.9305 41.2816 19.078 41.0316C19.2446 40.7462 19.4582 40.5202 19.8326 40.5527C19.8891 40.5566 19.9447 40.5671 19.9945 40.5968C20.0883 40.6562 20.1487 40.7376 20.1065 40.8525C20.0653 40.9665 19.9878 41.0153 19.8537 40.9904C19.4984 40.9215 19.3365 40.9942 19.1871 41.2653C19.1191 41.3888 19.1191 41.5028 19.2159 41.6091C19.3097 41.7125 19.4208 41.7662 19.5635 41.7211C19.7148 41.6733 19.8096 41.5631 19.8949 41.4405C19.9753 41.3247 20.0471 41.2021 20.1266 41.0862C20.1525 41.0479 20.1937 41.0191 20.2435 41.0498C20.2837 41.0737 20.2847 41.1159 20.2732 41.1551C20.2483 41.2308 20.2262 41.3074 20.1937 41.3792C19.9686 41.8772 19.7167 42.358 19.2819 42.7124C19.0396 42.9116 18.8108 42.9882 18.5005 42.9882Z" fill="#006BB8"/>
<path fill-rule="evenodd" clip-rule="evenodd" d="M43.2252 46.2458C43.2338 45.3005 43.2529 44.3552 43.365 43.4157C43.4655 42.5643 43.705 41.7637 44.2863 41.1019C44.4903 40.8702 44.7211 40.671 44.994 40.5244C45.1204 40.4574 45.2076 40.3664 45.266 40.2362C45.3407 40.0715 45.4269 39.9115 45.5112 39.7506C45.5658 39.6443 45.6472 39.5983 45.7765 39.6252C45.9422 39.6606 46.1098 39.6912 46.2706 39.7458C46.466 39.8129 46.5445 39.9211 46.5024 40.1184C46.4162 40.5168 46.2122 40.8328 45.8138 40.9803C45.6232 41.0512 45.4231 41.0962 45.2268 41.1498C44.5908 41.326 44.1637 41.7398 43.9185 42.3383C43.7165 42.8287 43.6485 43.3535 43.5862 43.8764C43.4665 44.8782 43.432 45.8847 43.4081 46.8912C43.4052 47.009 43.388 47.1278 43.3755 47.2456C43.3707 47.2858 43.3602 47.3337 43.3161 47.3385C43.2577 47.3452 43.2424 47.2925 43.2347 47.2475C43.2261 47.1987 43.2252 47.146 43.2252 47.0962C43.2242 46.8127 43.2252 46.5292 43.2252 46.2458Z" fill="#006BB8"/>
<path fill-rule="evenodd" clip-rule="evenodd" d="M41.8716 41.6016C41.6772 41.6772 41.5 41.6772 41.3468 41.5298C41.2529 41.4407 41.2127 41.3401 41.252 41.2089C41.3478 40.8919 41.4895 40.597 41.6868 40.3317C41.8295 40.1401 42.0373 40.1286 42.2145 40.2915C42.3687 40.4313 42.4309 40.6152 42.4166 40.8124C42.3763 41.3928 42.1953 41.9291 41.8774 42.4176C41.8151 42.5124 41.7423 42.5986 41.6332 42.6474C41.3229 42.7863 40.9972 42.8811 40.6716 42.9768C40.6237 42.9903 40.5596 43.0046 40.5308 42.9558C40.4935 42.8935 40.5519 42.8495 40.596 42.8179C40.8584 42.6311 41.1208 42.4434 41.388 42.2634C41.5671 42.1436 41.7031 41.9895 41.8084 41.8046C41.84 41.7472 41.8755 41.6887 41.8716 41.6016Z" fill="#006BB8"/>
<path fill-rule="evenodd" clip-rule="evenodd" d="M35.6364 41.5866C35.4257 41.6805 35.259 41.6738 35.1096 41.5464C35.0052 41.4583 34.9583 41.3501 34.9985 41.2151C35.0943 40.8866 35.236 40.5791 35.4506 40.31C35.5779 40.1501 35.7676 40.1367 35.9304 40.266C36.1028 40.4048 36.1746 40.5964 36.1612 40.8071C36.1238 41.3941 35.9361 41.9333 35.6163 42.4275C35.5291 42.5616 35.4084 42.6497 35.259 42.7004C34.9976 42.7895 34.7342 42.8757 34.4708 42.9609C34.4038 42.982 34.3109 43.0261 34.2736 42.9456C34.2362 42.8652 34.332 42.8211 34.3875 42.7799C34.6365 42.6037 34.8894 42.4313 35.1393 42.257C35.3692 42.099 35.5415 41.8989 35.6364 41.5866Z" fill="#006BB8"/>
<path fill-rule="evenodd" clip-rule="evenodd" d="M62.5968 40.8273C62.5432 41.4287 62.3632 41.987 62.0088 42.4831C61.959 42.553 61.8968 42.6115 61.8173 42.6469C61.5051 42.7848 61.1804 42.8825 60.8538 42.9754C60.8078 42.9878 60.7456 43.0051 60.7197 42.9438C60.6948 42.8863 60.7418 42.848 60.7801 42.8164C61.0243 42.6134 61.2972 42.4496 61.5587 42.2715C61.7598 42.1345 61.9197 41.9631 62.0203 41.7409C62.0366 41.7064 62.073 41.6681 62.0481 41.6308C62.0184 41.5848 61.9762 41.6241 61.9418 41.6346C61.778 41.6863 61.6401 41.6308 61.5204 41.5254C61.3959 41.4153 61.4064 41.2764 61.4562 41.1337C61.5482 40.8646 61.6707 40.6099 61.8364 40.3781C62.0289 40.1071 62.3143 40.1195 62.4944 40.403C62.5758 40.5323 62.6055 40.674 62.5968 40.8273Z" fill="#006BB8"/>
<path fill-rule="evenodd" clip-rule="evenodd" d="M52.99 42.385C53.1758 42.3802 53.3616 42.2308 53.3549 42.1034C53.3482 41.9818 53.1356 41.7768 53.0226 41.7826C52.9364 41.7864 52.763 42.0661 52.7707 42.1944C52.7793 42.3409 52.8856 42.3725 52.99 42.385ZM52.8511 42.9874C52.5696 42.9864 52.4317 42.8016 52.4585 42.4874C52.4805 42.249 52.5715 42.0392 52.6902 41.8372C52.7333 41.7634 52.8004 41.6945 52.7295 41.593C52.696 41.547 52.7391 41.4838 52.7621 41.4321C52.876 41.1677 52.9948 40.9044 53.1078 40.6391C53.1691 40.4983 53.2524 40.4705 53.3894 40.5452C53.7217 40.7234 53.8941 40.9953 53.8721 41.3727C53.8404 41.9281 53.648 42.4204 53.2505 42.8217C53.1385 42.9347 53.0044 42.9989 52.8511 42.9874Z" fill="#006BB8"/>
<path fill-rule="evenodd" clip-rule="evenodd" d="M6.30976 42.9861C6.259 42.9861 6.21974 42.9871 6.17951 42.9861C6.13259 42.9842 6.08853 42.9727 6.07129 42.921C6.05501 42.8703 6.08279 42.831 6.11918 42.8032C6.22644 42.7199 6.33466 42.6375 6.44671 42.56C6.69667 42.3847 6.96579 42.2363 7.19947 42.0361C7.30577 41.9461 7.38622 41.8407 7.44464 41.7153C7.54903 41.4892 7.65533 41.2642 7.76068 41.0382C7.8756 40.7911 8.06044 40.611 8.30178 40.4952C8.5776 40.3639 8.83522 40.2193 8.96355 39.9196C8.98366 39.8736 9.02101 39.8066 9.08997 39.841C9.1436 39.8679 9.12732 39.9292 9.11678 39.9799C9.04879 40.2806 8.94152 40.566 8.7768 40.8275C8.70593 40.9386 8.60633 41.0238 8.47991 41.0707C8.08055 41.2163 7.81527 41.4892 7.69843 41.9011C7.68215 41.9604 7.65054 42.016 7.62947 42.0744C7.37472 42.762 7.13051 42.9009 6.30976 42.9861Z" fill="#006BB8"/>
<path fill-rule="evenodd" clip-rule="evenodd" d="M56.4524 36.9918C56.5433 36.8462 56.6286 36.7141 56.71 36.58C56.7809 36.4612 56.8709 36.4574 56.982 36.5206C57.2932 36.6978 57.3804 36.9794 57.2176 37.2964C57.1601 37.4074 57.0883 37.508 57.0078 37.6038C56.9015 37.7302 56.801 37.7168 56.6927 37.6114C56.6133 37.5339 56.5472 37.3921 56.4409 37.4065C56.3355 37.4199 56.3144 37.5789 56.2512 37.6689C56.0817 37.9083 56.0281 37.9198 55.7944 37.7426C55.465 37.4898 55.464 37.4898 55.6613 37.1173C55.7303 36.988 55.804 36.8616 55.8787 36.7342C55.9409 36.6298 56.0262 36.6241 56.1229 36.6853C56.2474 36.7639 56.3451 36.8731 56.4524 36.9918Z" fill="#006BB8"/>
<path fill-rule="evenodd" clip-rule="evenodd" d="M63.9343 38.2139C64.0224 38.0731 64.1067 37.941 64.1881 37.8069C64.258 37.6901 64.3461 37.6795 64.4601 37.7427C64.7713 37.9161 64.8613 38.2005 64.7005 38.5165C64.643 38.6286 64.5712 38.7282 64.4907 38.8249C64.3873 38.9494 64.2858 38.9446 64.1766 38.8374C64.0961 38.7598 64.0291 38.62 63.9247 38.6296C63.8165 38.6391 63.7973 38.8 63.7341 38.89C63.5637 39.1304 63.5081 39.1438 63.2783 38.9686C62.945 38.7138 62.944 38.7138 63.1394 38.3442C63.2026 38.2244 63.2668 38.1047 63.3396 37.9908C63.4325 37.8433 63.4995 37.8327 63.6422 37.9352C63.6968 37.9754 63.7466 38.0224 63.7954 38.0693C63.8395 38.1114 63.8807 38.1574 63.9343 38.2139Z" fill="#006BB8"/>
<path fill-rule="evenodd" clip-rule="evenodd" d="M14.8794 39.4687C14.8276 39.7206 14.6984 39.9294 14.5039 40.096C14.4158 40.1727 14.3383 40.1047 14.2636 40.0462C14.1774 39.9763 14.1189 39.8298 14.0079 39.8451C13.9063 39.8585 13.8881 40.0098 13.8259 40.096C13.6545 40.3374 13.5826 40.3489 13.3547 40.1612C13.0463 39.9074 13.0463 39.9064 13.2426 39.5511C13.3106 39.4276 13.3815 39.304 13.4524 39.1824C13.5175 39.0694 13.6066 39.0617 13.71 39.1297C13.7962 39.1862 13.8699 39.2561 13.9312 39.3385C13.9916 39.4209 14.0395 39.4247 14.0921 39.3299C14.1486 39.2255 14.2147 39.1268 14.277 39.0244C14.3478 38.9075 14.4436 38.896 14.549 38.9717C14.7194 39.0943 14.8516 39.2456 14.8794 39.4687Z" fill="#006BB8"/>
<path fill-rule="evenodd" clip-rule="evenodd" d="M9.19567 43.911C9.15257 44.1753 9.01754 44.387 8.81833 44.5555C8.73884 44.6235 8.66031 44.568 8.59327 44.5096C8.50804 44.4358 8.44292 44.2979 8.33565 44.3046C8.22073 44.3123 8.20636 44.4722 8.14028 44.5603C7.96885 44.7911 7.89894 44.8045 7.6825 44.6245C7.37987 44.3736 7.34539 44.4272 7.56279 44.002C7.61929 43.8909 7.67963 43.7817 7.74475 43.6764C7.84435 43.5155 7.93438 43.503 8.0742 43.6247C8.12975 43.6716 8.18529 43.7214 8.23031 43.7798C8.32033 43.8976 8.37588 43.8622 8.43334 43.7501C8.48314 43.6543 8.54443 43.5662 8.60094 43.4753C8.66223 43.3747 8.74363 43.3527 8.84419 43.4159C9.02807 43.5327 9.15832 43.6888 9.19567 43.911Z" fill="#006BB8"/>
<path fill-rule="evenodd" clip-rule="evenodd" d="M10.1273 39.394C10.0622 40.0912 10.1005 40.7999 10.022 41.5038C9.9789 41.8955 9.85631 42.2652 9.64371 42.6004C9.60731 42.6588 9.56613 42.7498 9.47898 42.7105C9.39853 42.6741 9.44163 42.5899 9.45695 42.5276C9.58912 41.9875 9.57858 41.4378 9.55943 40.8899C9.54123 40.3192 9.6868 39.7934 9.94634 39.2925C9.97794 39.2322 9.99231 39.1239 10.0823 39.145C10.1838 39.169 10.1149 39.2705 10.1264 39.3366C10.1302 39.3528 10.1273 39.3701 10.1273 39.394Z" fill="#006BB8"/>
<path fill-rule="evenodd" clip-rule="evenodd" d="M5.97942 39.3753C5.93728 39.9739 5.92388 40.5725 5.90472 41.171C5.89131 41.5982 5.7965 42.0119 5.60879 42.3998C5.56761 42.4859 5.51207 42.5654 5.45939 42.6459C5.43162 42.688 5.39331 42.7378 5.33681 42.7177C5.26881 42.6928 5.27934 42.6267 5.29371 42.5712C5.44407 42.0052 5.42779 41.4267 5.41055 40.8502C5.39427 40.2765 5.55612 39.7565 5.81183 39.2566C5.8396 39.2039 5.86067 39.1206 5.93728 39.1436C6.01773 39.1675 5.97464 39.2499 5.97942 39.3073C5.98134 39.3303 5.97942 39.3523 5.97942 39.3753Z" fill="#006BB8"/>
<path fill-rule="evenodd" clip-rule="evenodd" d="M25.9546 41.0512C25.8876 40.4919 26.0207 39.8923 26.3099 39.3235C26.3252 39.2928 26.3386 39.2612 26.3549 39.2315C26.3789 39.1865 26.4076 39.131 26.4651 39.1444C26.5302 39.1587 26.5168 39.2258 26.5149 39.2737C26.5005 39.6127 26.4928 39.9527 26.4641 40.2907C26.4449 40.5168 26.4536 40.7428 26.4488 40.9697C26.4373 41.4486 26.3693 41.916 26.1615 42.3546C26.1184 42.4465 26.0666 42.5346 26.013 42.6208C25.9795 42.6716 25.9374 42.7396 25.8665 42.7118C25.7918 42.6831 25.8215 42.6074 25.832 42.5471C25.8607 42.3804 25.8914 42.2138 25.9192 42.0462C25.9709 41.7426 25.9469 41.4361 25.9546 41.0512Z" fill="#006BB8"/>
<path fill-rule="evenodd" clip-rule="evenodd" d="M34.1699 40.595C34.1057 40.9714 33.9659 41.3717 33.8165 41.7682C33.7198 42.022 33.624 42.2757 33.4564 42.4951C33.375 42.6023 33.2763 42.6837 33.1547 42.7364C32.8684 42.8599 32.5657 42.9318 32.2583 42.9816C32.1941 42.9911 32.1108 43.0103 32.0783 42.9299C32.0486 42.8542 32.1137 42.8006 32.1654 42.7613C32.2813 42.6713 32.3972 42.5774 32.5265 42.5094C33.1365 42.1867 33.5024 41.6686 33.7389 41.0384C33.8079 40.8536 33.8893 40.6726 33.9688 40.4925C33.9937 40.435 34.0339 40.3747 34.1095 40.3948C34.19 40.4159 34.1747 40.4887 34.1699 40.595Z" fill="#006BB8"/>
<path fill-rule="evenodd" clip-rule="evenodd" d="M3.2194 41.5609C3.16864 41.8223 3.06042 42.0598 2.84877 42.2418C2.77981 42.3012 2.70703 42.305 2.63424 42.2466C2.62466 42.2399 2.61509 42.2341 2.60551 42.2265C2.08356 41.7888 2.12953 41.9478 2.40056 41.3617C2.45898 41.2333 2.53847 41.1155 2.60743 40.991C2.65339 40.9077 2.70798 40.8924 2.78173 40.9594C2.87941 41.0466 2.98189 41.1261 3.07766 41.2151C3.17343 41.3052 3.20407 41.4258 3.2194 41.5609Z" fill="#006BB8"/>
<path fill-rule="evenodd" clip-rule="evenodd" d="M37.6069 39.1791C37.6854 38.9052 37.8023 38.6495 37.9795 38.4245C38.0369 38.3517 38.125 38.368 38.1959 38.4149C38.3453 38.5126 38.4669 38.6371 38.5502 38.797C38.5838 38.8602 38.5847 38.9244 38.5646 38.9943C38.5043 39.1916 38.4028 39.3678 38.2783 39.5306C38.2141 39.6168 38.1384 39.6388 38.0446 39.5747C37.9277 39.4942 37.8099 39.4176 37.6931 39.3372C37.6385 39.2998 37.5993 39.2538 37.6069 39.1791Z" fill="#006BB8"/>
<path fill-rule="evenodd" clip-rule="evenodd" d="M40.0816 37.2395C40.0299 37.4694 39.9083 37.6954 39.7263 37.8888C39.6861 37.931 39.6325 37.9224 39.5846 37.8927C39.5271 37.8582 39.4687 37.8218 39.4132 37.7844C39.0492 37.5431 39.0464 37.5374 39.2437 37.137C39.304 37.0154 39.371 36.8976 39.4381 36.7798C39.4764 36.7118 39.5329 36.6687 39.62 36.6821C39.778 36.708 40.0797 37.0489 40.0816 37.2395Z" fill="#006BB8"/>
<path fill-rule="evenodd" clip-rule="evenodd" d="M64.332 37.2277C64.3176 37.4844 64.1864 37.6941 64.0341 37.8943C63.9786 37.969 63.9068 37.9546 63.8407 37.9019C63.7219 37.8052 63.6051 37.7066 63.4883 37.6089C63.4289 37.5591 63.4174 37.4978 63.4452 37.426C63.5333 37.2038 63.6377 36.9902 63.7555 36.7833C63.81 36.6885 63.8857 36.6627 63.9843 36.7153C64.1855 36.8255 64.3205 36.9797 64.332 37.2277Z" fill="#006BB8"/>
<path fill-rule="evenodd" clip-rule="evenodd" d="M56.8508 36.0016C56.8384 36.2573 56.7062 36.467 56.5558 36.6681C56.5012 36.7419 56.4294 36.7333 56.3624 36.6796C56.2436 36.5829 56.1268 36.4843 56.009 36.3866C55.9506 36.3377 55.9362 36.2764 55.964 36.2036C56.0502 35.9815 56.1565 35.7698 56.2733 35.562C56.3327 35.4557 56.4151 35.4404 56.5156 35.4978C56.7091 35.608 56.8403 35.7602 56.8508 36.0016Z" fill="#006BB8"/>
<path fill-rule="evenodd" clip-rule="evenodd" d="M65.2464 45.1073C65.2301 45.3075 65.1085 45.5067 64.9428 45.6819C64.8892 45.7384 64.8336 45.7308 64.781 45.679C64.6756 45.5756 64.5722 45.4722 64.4678 45.3697C64.4094 45.3132 64.4122 45.2519 64.4448 45.1849C64.5367 44.9962 64.6392 44.8152 64.7522 44.6399C64.8154 44.5423 64.893 44.5308 64.9811 44.594C65.1382 44.7079 65.2512 44.8497 65.2464 45.1073Z" fill="#006BB8"/>
<path fill-rule="evenodd" clip-rule="evenodd" d="M60.2178 40.4714C60.1259 40.6553 60.0397 40.8181 59.9621 40.9848C59.9065 41.1026 59.8587 41.2242 59.8108 41.3449C59.7485 41.5067 59.7198 41.6475 59.9171 41.7595C60.0598 41.8419 60.0732 42.0057 60.0272 42.156C59.986 42.2911 59.9065 42.405 59.7428 42.406C59.5752 42.4069 59.534 42.2796 59.4986 42.1484C59.465 42.0229 59.4852 41.8994 59.5158 41.7787C59.6202 41.3506 59.8041 40.9579 60.0464 40.5911C60.0789 40.5413 60.1134 40.4839 60.2178 40.4714Z" fill="#006BB8"/>
<path fill-rule="evenodd" clip-rule="evenodd" d="M56.7732 38.4618C56.7521 38.3373 56.8182 38.2435 56.8842 38.1563C57.1802 37.7694 57.5384 37.439 57.8582 37.0741C57.886 37.0425 57.9214 36.9918 57.9693 37.0272C58.0162 37.0607 57.977 37.1115 57.9645 37.1508C57.9147 37.3116 57.8113 37.4381 57.7031 37.5616C57.457 37.8422 57.2012 38.1132 56.934 38.3728C56.8919 38.413 56.8526 38.4676 56.7732 38.4618Z" fill="#006BB8"/>
<path fill-rule="evenodd" clip-rule="evenodd" d="M65.6775 40.0527C65.5923 40.2863 65.5262 40.5277 65.4056 40.7479C65.3146 40.9108 65.2006 41.0496 65.0196 41.1138C64.6164 41.2594 64.3626 41.54 64.2496 41.9518C64.2343 42.0064 64.2065 42.0571 64.1864 42.1098C63.9288 42.8013 63.6664 42.9516 62.8025 43.0206C62.7374 43.0254 62.655 43.0349 62.6263 42.9545C62.5976 42.8731 62.6732 42.8367 62.725 42.7955C63.0563 42.5283 63.4423 42.3396 63.7621 42.0571C63.8761 41.9566 63.9623 41.8445 64.0226 41.7066C64.1165 41.494 64.2151 41.2843 64.3138 41.0736C64.4316 40.8226 64.6193 40.6378 64.8683 40.5219C65.1403 40.3955 65.3912 40.2509 65.5176 39.9569C65.5444 39.8946 65.599 39.8477 65.6775 39.8486V40.0527Z" fill="#006BB8"/>
<path fill-rule="evenodd" clip-rule="evenodd" d="M65.6775 44.0308C65.6009 44.2022 65.5185 44.3679 65.3978 44.5134C65.2982 44.6341 65.2053 44.6293 65.0971 44.5288C65.0167 44.4531 64.9554 44.3056 64.8481 44.3229C64.7571 44.3382 64.7332 44.4914 64.6748 44.5805C64.5139 44.8257 64.4564 44.8352 64.2256 44.6475C63.9239 44.4014 63.923 44.4014 64.0973 44.0509C64.1576 43.9293 64.2199 43.8076 64.2888 43.6908C64.3922 43.5146 64.442 43.5079 64.6068 43.6381C64.6719 43.6908 64.7361 43.7502 64.7887 43.8143C64.8491 43.8862 64.8864 43.8737 64.9276 43.8009C64.986 43.6975 65.0502 43.5969 65.1076 43.4925C65.1814 43.3585 65.2743 43.3642 65.3873 43.4437C65.5166 43.5337 65.5999 43.6611 65.6775 43.7923V44.0308Z" fill="#006BB8"/>
<path fill-rule="evenodd" clip-rule="evenodd" d="M36.6555 58.1588C36.6239 58.1272 36.5969 58.0927 36.5623 58.0656C36.0632 57.6537 36.0977 57.7589 36.3894 57.162C36.418 57.1079 36.448 57.0538 36.4796 56.9997C36.672 56.6629 36.7923 56.6358 37.0509 56.938C37.2178 57.132 37.2794 57.0688 37.3802 56.8959C37.4598 56.7576 37.508 56.5441 37.7154 56.5652C37.9214 56.5862 38.0492 56.7591 38.1469 56.9305C38.3018 57.1951 38.0462 57.8296 37.7515 57.9288C37.6042 57.9784 37.5125 57.8686 37.4358 57.783C37.2779 57.6116 37.1667 57.5785 37.0614 57.8281C37.0013 57.9679 36.893 58.0761 36.7623 58.1588H36.6555Z" fill="#006BB8"/>
<path fill-rule="evenodd" clip-rule="evenodd" d="M25.5778 56.791C25.4666 56.7955 25.2531 56.7835 25.0456 56.7279C24.6667 56.6226 24.4668 56.3911 24.4577 56.0032C24.4487 55.6018 24.5134 55.2064 24.6081 54.817C24.6261 54.7433 24.6412 54.6381 24.7419 54.6426C24.8652 54.6501 24.8201 54.7599 24.8246 54.832C24.8456 55.1868 24.9704 55.3793 25.2982 55.4544C25.9161 55.5973 26.534 55.5988 27.1264 55.3357C27.6766 55.0936 27.9427 54.6606 27.9968 54.0668C28.0495 53.5075 28.0675 52.9467 28.0419 52.3889C28.0044 51.6372 28.2945 50.9953 28.5862 50.3307C28.9245 49.5595 29.5033 49.0393 30.1377 48.5431C31.5585 47.4276 32.9522 46.282 34.1865 44.9544C34.2346 44.9033 34.2872 44.7936 34.3744 44.8597C34.4481 44.9169 34.3819 45.0116 34.3564 45.0807C34.0963 45.7468 33.6182 46.2504 33.1206 46.736C32.0546 47.7734 30.8669 48.6679 29.6882 49.573C29.4973 49.7188 29.3259 49.8947 29.1199 50.0135C28.8177 50.1849 28.741 50.4495 28.7185 50.7622C28.6854 51.2238 28.6629 51.6838 28.6568 52.1469C28.6463 52.9572 28.5666 53.7601 28.3381 54.5419C28.1908 55.0455 27.9547 55.5041 27.6225 55.904C27.1233 56.5084 26.4678 56.8 25.5778 56.791Z" fill="#006BB8"/>
<path fill-rule="evenodd" clip-rule="evenodd" d="M22.4523 54.3959C22.5094 53.3825 22.9078 52.5542 23.7212 51.9423C23.7918 51.8896 23.873 51.813 23.9572 51.8866C24.0489 51.9648 23.9662 52.052 23.9241 52.1242C23.7437 52.4203 23.5814 52.7255 23.443 53.0458C23.0311 54.0035 23.0792 54.9491 23.5212 55.8828C23.646 56.1474 23.7963 56.3999 23.9301 56.66C23.9662 56.7277 24.0384 56.8044 23.9617 56.8765C23.8775 56.9577 23.7948 56.8886 23.7257 56.8359C23.0431 56.3158 22.6327 55.6317 22.4974 54.7853C22.4763 54.6545 22.4673 54.5206 22.4523 54.3959Z" fill="#006BB8"/>
<path fill-rule="evenodd" clip-rule="evenodd" d="M41.4255 54.4041C41.3864 55.3948 40.982 56.1992 40.1972 56.8096C40.122 56.8667 40.0363 56.9674 39.9416 56.8817C39.8439 56.7945 39.9416 56.6998 39.9867 56.6216C40.325 56.0323 40.6151 55.4294 40.7113 54.7438C40.8211 53.9726 40.573 53.2885 40.2483 52.618C40.1671 52.4511 40.0634 52.2932 39.9732 52.1309C39.9326 52.0557 39.8544 51.9685 39.9416 51.8918C40.0258 51.8151 40.11 51.8963 40.1776 51.9474C40.797 52.4285 41.206 53.0465 41.3683 53.8192C41.4074 54.0117 41.433 54.2056 41.4255 54.4041Z" fill="#006BB8"/>
<path fill-rule="evenodd" clip-rule="evenodd" d="M32.051 56.6807C31.7518 56.6897 31.615 56.5018 31.5113 56.2898C31.4361 56.1394 31.3895 56.0838 31.2738 56.2597C31.0512 56.6025 30.6874 56.6972 30.3191 56.7784C30.1522 56.8145 29.9898 56.8551 29.8244 56.8851C29.7658 56.8957 29.6906 56.9092 29.6621 56.831C29.6365 56.7589 29.6921 56.7122 29.7418 56.6777C29.865 56.5905 29.9868 56.4988 30.1206 56.4296C30.8829 56.0237 31.4091 55.4088 31.7428 54.618C31.7939 54.4962 31.8646 54.3819 31.9353 54.2677C31.9744 54.2015 32.024 54.1143 32.1202 54.1549C32.2209 54.1955 32.1788 54.2887 32.1578 54.3639C32.1247 54.4917 32.0826 54.6195 32.051 54.7488C32.0014 54.9547 32.018 55.1577 32.1097 55.3471C32.236 55.6057 32.4464 55.6253 32.6268 55.4058C32.6795 55.3426 32.7095 55.2193 32.8253 55.2825C32.9065 55.3276 32.8779 55.4253 32.8584 55.502C32.7787 55.8327 32.678 56.153 32.475 56.4326C32.3652 56.583 32.2299 56.6912 32.051 56.6807Z" fill="#006BB8"/>
<path fill-rule="evenodd" clip-rule="evenodd" d="M34.8525 56.6812C34.7638 56.6631 34.6255 56.7278 34.5864 56.588C34.5548 56.4767 34.6676 56.4196 34.7442 56.3655C35.0209 56.173 35.3005 55.9806 35.5847 55.7987C35.8944 55.6002 36.1244 55.3431 36.2477 54.9913C36.4657 54.3704 36.8145 53.8683 37.464 53.6307C37.6699 53.5555 37.7586 53.3556 37.8669 53.1827C37.9015 53.1241 37.9466 53.0429 38.0262 53.0744C38.1119 53.1075 38.0879 53.1932 38.0698 53.2609C37.918 53.8156 37.7692 54.3674 37.1392 54.5959C36.828 54.7087 36.6401 54.9537 36.5243 55.2574C36.4747 55.3912 36.4146 55.5205 36.3664 55.6543C36.0898 56.4076 35.7906 56.591 34.8525 56.6812Z" fill="#006BB8"/>
<path fill-rule="evenodd" clip-rule="evenodd" d="M39.2424 52.4617C39.2214 53.1097 39.1973 53.7577 39.1808 54.4042C39.1673 54.9063 39.0906 55.3949 38.8966 55.861C38.844 55.9828 38.7794 56.1 38.7102 56.2143C38.6651 56.2865 38.6125 56.3887 38.5073 56.3421C38.417 56.3015 38.4486 56.1963 38.4667 56.1256C38.632 55.4957 38.5614 54.8522 38.5719 54.2147C38.5824 53.5788 38.7403 52.9849 39.0319 52.4256C39.0695 52.355 39.1011 52.2618 39.2003 52.2828C39.292 52.3039 39.268 52.3926 39.2424 52.4617Z" fill="#006BB8"/>
<path fill-rule="evenodd" clip-rule="evenodd" d="M31.2231 50.9182C31.1149 51.7917 31.2277 52.6667 31.0668 53.5251C30.9991 53.8859 30.8879 54.2302 30.6954 54.5444C30.6458 54.6256 30.5887 54.7414 30.4789 54.7068C30.3466 54.6617 30.4173 54.5399 30.4399 54.4527C30.5962 53.8243 30.5646 53.1838 30.5496 52.5464C30.5361 51.942 30.7075 51.3932 30.9585 50.858C31.0021 50.7693 31.0337 50.6205 31.1675 50.6641C31.2758 50.7002 31.2051 50.837 31.2231 50.9182Z" fill="#006BB8"/>
<path fill-rule="evenodd" clip-rule="evenodd" d="M34.4707 52.4741C34.3866 53.3897 34.4557 54.2722 34.3189 55.1412C34.2603 55.5215 34.131 55.8809 33.9295 56.2086C33.8844 56.2823 33.8318 56.3845 33.7295 56.3529C33.6063 56.3154 33.6649 56.2056 33.6844 56.1259C33.8408 55.4524 33.8198 54.7698 33.8077 54.0873C33.7942 53.5009 33.9746 52.9717 34.2332 52.459C34.2708 52.3839 34.3009 52.2696 34.4151 52.3072C34.5098 52.3373 34.4662 52.4425 34.4707 52.4741Z" fill="#006BB8"/>
<path fill-rule="evenodd" clip-rule="evenodd" d="M33.6663 52.5402C33.6032 52.8078 33.4708 53.0544 33.2889 53.2754C33.2724 53.2949 33.2483 53.3175 33.2258 53.3205C32.9762 53.34 32.8409 53.1326 32.6575 53.0258C32.5477 52.9612 32.5132 52.8529 32.5598 52.7266C32.6455 52.4741 32.7642 52.238 32.9131 52.017C32.9582 51.9464 33.0198 51.9013 33.1115 51.9088C33.307 51.9223 33.6738 52.3282 33.6663 52.5402Z" fill="#006BB8"/>
<path fill-rule="evenodd" clip-rule="evenodd" d="M26.2915 54.2044C26.1922 54.1923 26.0627 54.1743 26.0476 54.0312C26.0341 53.8912 26.1621 53.8897 26.2554 53.8882C26.4526 53.8837 26.5099 53.7858 26.5038 53.5991C26.4948 53.3552 26.6454 53.1941 26.8547 53.185C26.939 53.182 27.0218 53.1911 27.0459 53.2889C27.0685 53.3838 27.0143 53.4515 26.9269 53.4651C26.7357 53.4937 26.6815 53.572 26.7267 53.7722C26.7824 54.0116 26.5761 54.2029 26.2915 54.2044Z" fill="#006BB8"/>
</svg>
