<svg width="92" height="92" viewBox="0 0 92 92" fill="none" xmlns="http://www.w3.org/2000/svg">
<path d="M91 1H1V91H91V1Z" stroke="#55A2E7" stroke-opacity="0.595597"/>
<path d="M57.7838 63.3544C58.109 63.3544 58.3599 63.2494 58.5364 63.0393C58.6751 62.8599 58.7444 62.6537 58.7444 62.4205C58.7444 62.2745 58.689 62.0759 58.578 61.8248C58.5326 61.73 58.4141 61.5071 58.2225 61.1561L57.7573 61.4943L58.0864 62.1015C58.1494 62.2091 58.1809 62.3039 58.1809 62.3859C58.1809 62.5909 58.0448 62.6934 57.7724 62.6934H57.1786V63.3544H57.7838ZM58.7407 64.592V64.0078H58.1582V64.592H58.7407ZM57.954 64.592V64.0078H57.3677V64.592H57.954ZM58.3435 65.3491V64.7649H57.7573V65.3491H58.3435ZM55.5939 60.1069V59.515H55.0115V60.1069H55.5939ZM55.9835 60.8563V60.2721H55.4048V60.8563H55.9835ZM55.193 60.8563V60.2721H54.6106V60.8563H55.193ZM53.4608 65.3798C54.7543 64.6957 55.5939 64.0616 55.9797 63.4774C56.1032 63.2955 56.1776 63.129 56.2028 62.9778C56.4096 63.2289 56.6794 63.3544 57.0122 63.3544H57.3451V62.6934H57.0425C56.6466 62.6934 56.3415 62.4794 56.1272 62.0516L55.6923 61.2137L55.193 61.5366L55.5599 62.2207C55.6431 62.3693 55.6847 62.5102 55.6847 62.6434C55.6847 62.7792 55.633 62.9278 55.5296 63.0892C55.1665 63.6222 54.3824 64.2128 53.1771 64.861L53.4608 65.3798ZM50.4653 65.13C52.2732 64.2435 53.1771 63.3544 53.1771 62.4628C53.1771 61.9427 53.0321 61.5417 52.7422 61.2598C52.5127 61.0344 52.2656 60.9216 52.0009 60.9216C51.7613 60.9216 51.5552 61.0075 51.3825 61.1791C51.2098 61.3508 51.1234 61.5558 51.1234 61.7941C51.1234 62.122 51.2117 62.375 51.3882 62.5531C51.5647 62.7312 51.8118 62.8202 52.1295 62.8202H52.5682C52.3841 63.1789 51.9921 63.5556 51.392 63.9501C50.9986 64.2089 50.5939 64.437 50.1779 64.6342L50.4653 65.13ZM52.6098 62.1745H52.0311C51.7462 62.1745 51.6038 62.058 51.6038 61.8248C51.6038 61.7326 51.6491 61.6557 51.7399 61.5942C51.8206 61.5327 51.9076 61.502 52.0009 61.502C52.1118 61.502 52.2341 61.5622 52.3677 61.6826C52.5216 61.821 52.6022 61.9849 52.6098 62.1745ZM48.9941 63.7119C49.216 63.7119 49.4057 63.635 49.5633 63.4813C49.7209 63.3275 49.7997 63.1418 49.7997 62.924C49.7997 62.4628 49.4542 61.8299 48.7634 61.0254C48.3851 60.6001 48.0183 60.2298 47.6628 59.9147L47.2165 60.2875L47.5606 60.6257C47.2908 60.6718 47.0702 60.8076 46.8988 61.0331C46.7525 61.2278 46.6794 61.4264 46.6794 61.6288C46.6794 62.0541 46.8105 62.4051 47.0727 62.6819C47.0335 62.6878 46.8921 62.6915 46.6485 62.6928L46.1688 62.6934V63.3544H46.5659C46.9391 63.3544 47.2694 63.2853 47.5569 63.1469C47.7107 63.2545 47.9149 63.366 48.1696 63.4813C48.515 63.635 48.7898 63.7119 48.9941 63.7119ZM47.6665 62.482C47.5178 62.4103 47.3986 62.2963 47.3091 62.14C47.2196 61.9837 47.1749 61.821 47.1749 61.6519C47.1749 61.5186 47.2303 61.4033 47.3413 61.306C47.4522 61.2086 47.5758 61.1599 47.7119 61.1599C47.8607 61.1599 47.9918 61.2048 48.1053 61.2944C48.2263 61.3944 48.2868 61.5135 48.2868 61.6519C48.2868 62.0388 48.0801 62.3155 47.6665 62.482ZM48.9979 63.1546C48.7734 63.1546 48.4784 63.0329 48.1128 62.7895C48.2364 62.7254 48.3587 62.6127 48.4797 62.4513C48.6209 62.254 48.6877 62.0554 48.6802 61.8556C48.7987 61.976 48.9247 62.1348 49.0584 62.3321C49.2147 62.5653 49.2929 62.7344 49.2929 62.8394C49.2929 63.0495 49.1945 63.1546 48.9979 63.1546ZM44.1264 59.8993V59.3151H43.5402V59.8993H44.1264ZM44.5084 60.6526V60.0646H43.9298V60.6526H44.5084ZM43.7293 60.6526V60.0646H43.1431V60.6526H43.7293ZM43.2528 63.3929C43.5226 63.3929 43.7445 63.2366 43.9184 62.924C44.0722 63.234 44.3067 63.389 44.6219 63.389C44.9194 63.389 45.1552 63.2327 45.3292 62.9201C45.3947 63.0534 45.5082 63.1597 45.6696 63.2391C45.8209 63.316 45.9747 63.3544 46.131 63.3544H46.339V62.6934H46.0402C45.6595 62.6934 45.4691 62.4461 45.4691 61.9516V61.3329H44.9434V62.336C44.9434 62.5973 44.8451 62.728 44.6484 62.728C44.2475 62.728 44.047 62.359 44.047 61.6211V61.3367H43.5137V62.336C43.5137 62.5973 43.423 62.728 43.2414 62.728C42.8607 62.728 42.6703 62.359 42.6703 61.6211V61.3367H42.137V62.336C42.137 62.5743 42.0097 62.6934 41.755 62.6934H41.3806V63.3544H41.7853C42.1131 63.3544 42.3501 63.211 42.4963 62.924C42.6527 63.2366 42.9048 63.3929 43.2528 63.3929ZM39.2437 63.3544C39.7732 63.3544 40.1161 63.1789 40.2724 62.8279C40.3733 62.9791 40.5221 63.1046 40.7187 63.2045C40.9154 63.3045 41.1058 63.3544 41.2898 63.3544H41.547V62.6934H41.3768C41.1297 62.6934 40.9305 62.6498 40.7792 62.5627C40.5674 62.4372 40.3632 62.181 40.1665 61.7941L39.5387 60.5719C39.4731 60.4387 39.4404 60.34 39.4404 60.276C39.4404 60.194 39.5198 60.1299 39.6786 60.0838L41.6643 59.5035L41.46 59L39.4631 59.6034C39.0722 59.7161 38.8768 59.9365 38.8768 60.2644C38.8768 60.3951 38.9172 60.536 38.9979 60.6872L39.6408 61.9516C39.7341 62.1387 39.7808 62.286 39.7808 62.3936C39.7808 62.5935 39.6106 62.6934 39.2702 62.6934H38.718V63.3544H39.2437ZM36.6491 63.3544C37.1686 63.3544 37.4888 63.1828 37.6098 62.8394C37.8746 63.1828 38.2313 63.3544 38.6802 63.3544H38.8844V62.6934H38.7293C38.4242 62.6934 38.1784 62.6204 37.9918 62.4743C37.8304 62.3565 37.6754 62.1489 37.5266 61.8517L36.687 60.1799L36.1915 60.4989L37.0311 62.1515C37.0917 62.2642 37.1219 62.3552 37.1219 62.4244C37.1219 62.6037 36.9681 62.6934 36.6605 62.6934H35.3935C35.1918 62.6934 34.9951 62.5832 34.8035 62.3629L34.4479 62.7472C34.5387 62.947 34.6938 63.1008 34.9131 63.2084C35.1174 63.3058 35.3317 63.3544 35.5561 63.3544H36.6491ZM32.5833 63.3544C32.9187 63.3544 33.2011 63.284 33.4305 63.1431C33.7205 62.9535 33.8655 62.6831 33.8655 62.3321C33.8655 61.976 33.6499 61.6339 33.2187 61.306C32.8229 61.0062 32.4573 60.8563 32.1219 60.8563C31.8496 60.8563 31.6302 60.9831 31.4638 61.2368C31.3251 61.4571 31.2558 61.7134 31.2558 62.0054C31.2558 62.9048 31.6983 63.3544 32.5833 63.3544ZM32.5531 62.6934C32.3261 62.6934 32.1471 62.6421 32.016 62.5397C31.8622 62.4218 31.7853 62.254 31.7853 62.0362C31.7853 61.8927 31.813 61.7595 31.8685 61.6365C31.9391 61.4879 32.0362 61.4136 32.1597 61.4136C32.3161 61.4136 32.5468 61.5135 32.8519 61.7134C33.1771 61.9388 33.3398 62.1374 33.3398 62.3091C33.3398 62.5653 33.0775 62.6934 32.5531 62.6934ZM79.0886 68.4388V67.8546H78.5062V68.4388H79.0886ZM78.8239 71.9746C79.2071 71.9746 79.5009 71.8542 79.7051 71.6133C79.9018 71.3802 80.0001 71.0689 80.0001 70.6794C80.0001 70.2541 79.8942 69.8838 79.6824 69.5687C79.4479 69.2126 79.1302 69.0345 78.7293 69.0345C78.5125 69.0345 78.3272 69.1357 78.1733 69.3381C78.0296 69.5277 77.9603 69.7404 77.9653 69.9761C77.9704 70.2554 78.0605 70.4738 78.2357 70.6314C78.411 70.7889 78.6398 70.8677 78.9222 70.8677H79.4479C79.4101 71.1649 79.2172 71.3135 78.8693 71.3135H77.5342V71.9746H78.8239ZM79.4328 70.2605H78.8541C78.5566 70.2605 78.4078 70.167 78.4078 69.9799C78.4078 69.8749 78.4406 69.7858 78.5062 69.7128C78.5717 69.6398 78.6562 69.6033 78.7596 69.6033C79.0243 69.6033 79.2487 69.8224 79.4328 70.2605ZM76.4789 69.4265V68.8423H75.8965V69.4265H76.4789ZM75.9268 71.9746C76.2671 71.9746 76.5205 71.8324 76.687 71.548C76.8559 71.8324 77.127 71.9746 77.5001 71.9746H77.7006V71.3135H77.5417C77.282 71.3135 77.108 71.2674 77.0198 71.1752C76.9013 71.065 76.842 70.8511 76.842 70.5334V69.9223H76.2785V70.714C76.2785 70.9497 76.2583 71.1022 76.218 71.1713C76.16 71.2661 76.015 71.3135 75.783 71.3135H75.5221V71.9746H75.9268ZM75.6885 71.9746V71.3135H75.2762C75.0443 71.3135 74.8841 71.2444 74.7959 71.106C74.7202 70.9984 74.6824 70.8203 74.6824 70.5718V67.6547H74.0735V70.6218C74.0735 71.5236 74.4404 71.9746 75.1741 71.9746H75.6885ZM70.5712 73.7502C72.3791 72.8637 73.283 71.9746 73.283 71.083C73.283 70.5628 73.138 70.1618 72.8481 69.88C72.6186 69.6545 72.3715 69.5418 72.1068 69.5418C71.8672 69.5418 71.6611 69.6276 71.4884 69.7993C71.3157 69.971 71.2293 70.1759 71.2293 70.4142C71.2293 70.7422 71.3176 70.9952 71.4941 71.1733C71.6706 71.3513 71.9177 71.4404 72.2354 71.4404H72.6741C72.49 71.7991 72.098 72.1757 71.4979 72.5703C71.1045 72.8291 70.6998 73.0571 70.2838 73.2544L70.5712 73.7502ZM72.7157 70.7947H72.137C71.8521 70.7947 71.7097 70.6781 71.7097 70.445C71.7097 70.3527 71.755 70.2759 71.8458 70.2144C71.9265 70.1529 72.0135 70.1221 72.1068 70.1221C72.2177 70.1221 72.34 70.1823 72.4736 70.3028C72.6275 70.4411 72.7081 70.6051 72.7157 70.7947ZM67.1068 74C68.3952 73.3185 69.2349 72.683 69.6257 72.0937C69.8148 71.8068 69.9094 71.5224 69.9094 71.2405C69.9094 71.0432 69.864 70.8536 69.7732 70.6717L69.3382 69.8377L68.839 70.1529L69.2059 70.8331C69.2891 70.9843 69.3307 71.1265 69.3307 71.2597C69.3307 71.3981 69.279 71.5467 69.1756 71.7056C68.8075 72.2436 68.0233 72.8342 66.8231 73.4773L67.1068 74ZM64.1189 73.8732C64.8173 73.8732 65.4414 73.6541 65.991 73.216C66.4802 72.8342 66.7248 72.4781 66.7248 72.1475C66.7248 71.753 66.5269 71.539 66.131 71.5057L65.1212 71.4365C64.9951 71.4263 64.932 71.3674 64.932 71.2597C64.932 71.1957 64.9598 71.1304 65.0153 71.0637C65.3481 70.6692 65.6822 70.4719 66.0175 70.4719C66.1991 70.4719 66.3882 70.5231 66.5848 70.6256L66.8231 70.1529C66.5634 69.9812 66.2734 69.8954 65.9532 69.8954C65.6456 69.8954 65.3052 70.0619 64.932 70.395C64.5488 70.7383 64.3572 71.0663 64.3572 71.3789C64.3572 71.7248 64.5677 71.9451 64.9888 72.0399C65.1325 72.0758 65.4767 72.095 66.0213 72.0976C66.1348 72.0976 66.1915 72.1309 66.1915 72.1975C66.1915 72.2487 66.1701 72.3064 66.1272 72.3705C65.928 72.6728 65.6103 72.8995 65.1741 73.0507C64.8362 73.1788 64.4958 73.2429 64.1529 73.2429C63.1897 73.2429 62.7081 72.8201 62.7081 71.9746C62.7081 71.8004 62.7472 71.5736 62.8254 71.2943L62.3753 71.1406C62.2618 71.4455 62.2051 71.7863 62.2051 72.1629C62.2051 72.724 62.3879 73.1545 62.7535 73.4543C63.099 73.7335 63.5541 73.8732 64.1189 73.8732ZM60.1703 71.9746V67.6547H59.5614V71.9746H60.1703ZM57.3564 71.9746C57.7271 71.9746 58.0422 71.8721 58.3019 71.6671C58.6171 71.416 58.7747 71.0599 58.7747 70.5987C58.7747 70.2964 58.66 70.0401 58.4305 69.83C58.2187 69.6302 57.9578 69.5303 57.6476 69.5303C57.3022 69.5303 56.9353 69.6673 56.547 69.9415C56.2671 70.1388 56.0163 70.3758 55.7944 70.6525V67.6663H55.2838V70.7409C55.2838 70.9254 55.2649 71.0599 55.2271 71.1444C55.1665 71.2572 55.0543 71.3135 54.8904 71.3135H54.5236V71.9707L57.3564 71.9746ZM57.4094 71.3135H55.7301C56.4159 70.5167 57.05 70.1183 57.6325 70.1183C57.7939 70.1183 57.93 70.1663 58.041 70.2624C58.1519 70.3585 58.2074 70.4847 58.2074 70.641C58.2074 70.8075 58.1494 70.9548 58.0334 71.083C57.8872 71.2367 57.6791 71.3135 57.4094 71.3135ZM54.69 71.9746V71.3135H54.4101C54.1151 71.3135 53.8541 71.1982 53.6272 70.9677C53.7558 70.7832 53.8201 70.5001 53.8201 70.1183V67.6586H53.2603V69.9184C53.2603 70.3873 53.1544 70.723 52.9426 70.9254L51.4411 67.9122L50.9684 68.2274L52.5077 71.1867C52.4623 71.2175 52.1887 71.2444 51.687 71.2674C51.4373 71.2854 51.131 71.3007 50.7679 71.3135V71.7747C50.9419 71.908 51.2457 71.9746 51.6794 71.9746C52.4005 71.9746 52.9578 71.7722 53.3511 71.3674C53.452 71.5544 53.6058 71.7024 53.8125 71.8113C54.0193 71.9201 54.226 71.9746 54.4328 71.9746H54.69ZM50.1817 71.9746V71.3135H48.9336C48.3788 71.3135 48.1015 71.0714 48.1015 70.5872C48.1015 70.4155 48.1809 70.2759 48.3398 70.1683C48.4936 70.0786 48.6575 70.0337 48.8314 70.0337C49.1113 70.0337 49.429 70.1324 49.7845 70.3297L50.0493 69.9069C49.6005 69.6123 49.1592 69.4649 48.7255 69.4649C48.3398 69.4649 48.0284 69.5854 47.7913 69.8262C47.5795 70.0414 47.4736 70.2912 47.4736 70.5756C47.4736 70.8626 47.5316 71.1086 47.6476 71.3135H47.0425V71.9746H50.1817ZM47.2089 71.9746V71.3135H46.7966C46.5647 71.3135 46.4046 71.2444 46.3163 71.106C46.2407 70.9984 46.2028 70.8203 46.2028 70.5718V67.6547H45.5939V70.6218C45.5939 71.5236 45.9608 71.9746 46.6945 71.9746H47.2089ZM42.5909 70.1606V69.5802H42.0122V70.1606H42.5909ZM41.8042 70.1606V69.5802H41.218V70.1606H41.8042ZM43.8503 71.9746C44.1201 71.9746 44.3433 71.8964 44.5198 71.7402C44.7089 71.5685 44.8035 71.3494 44.8035 71.083C44.8035 70.9164 44.7505 70.7217 44.6446 70.4988L44.3156 69.8031L43.8352 70.1183L44.1264 70.6909C44.197 70.8472 44.2323 70.9689 44.2323 71.056C44.2323 71.2277 44.0874 71.3135 43.7974 71.3135H40.5599C40.1741 71.3135 39.9812 71.1124 39.9812 70.7102V70.5833H39.4366V70.8524C39.4366 71.1778 39.5337 71.4461 39.7278 71.6575C39.922 71.8689 40.1791 71.9746 40.4994 71.9746H43.8503ZM34.482 73.7502C36.2898 72.8637 37.1938 71.9746 37.1938 71.083C37.1938 70.5628 37.0488 70.1618 36.7588 69.88C36.5294 69.6545 36.2823 69.5418 36.0175 69.5418C35.778 69.5418 35.5719 69.6276 35.3991 69.7993C35.2264 69.971 35.1401 70.1759 35.1401 70.4142C35.1401 70.7422 35.2283 70.9952 35.4048 71.1733C35.5813 71.3513 35.8284 71.4404 36.1461 71.4404H36.5848C36.4008 71.7991 36.0087 72.1757 35.4086 72.5703C35.0153 72.8291 34.6106 73.0571 34.1945 73.2544L34.482 73.7502ZM36.6264 70.7947H36.0478C35.7629 70.7947 35.6204 70.6781 35.6204 70.445C35.6204 70.3527 35.6658 70.2759 35.7566 70.2144C35.8372 70.1529 35.9242 70.1221 36.0175 70.1221C36.1285 70.1221 36.2508 70.1823 36.3844 70.3028C36.5382 70.4411 36.6189 70.6051 36.6264 70.7947ZM32.1597 71.9746V67.6547H31.5508V71.9746H32.1597ZM27.9578 74C29.2462 73.3185 30.0859 72.683 30.4767 72.0937C30.6658 71.8068 30.7603 71.5224 30.7603 71.2405C30.7603 71.0432 30.7149 70.8536 30.6242 70.6717L30.1892 69.8377L29.69 70.1529L30.0569 70.8331C30.1401 70.9843 30.1817 71.1265 30.1817 71.2597C30.1817 71.3981 30.13 71.5467 30.0266 71.7056C29.6585 72.2436 28.8743 72.8342 27.6741 73.4773L27.9578 74ZM27.4547 69.4457V68.85H26.8723V69.4457H27.4547ZM26.6605 69.4457V68.85H26.078V69.4457H26.6605ZM26.7097 71.9746C27.0349 71.9746 27.2858 71.8695 27.4623 71.6594C27.601 71.4801 27.6703 71.2738 27.6703 71.0407C27.6703 70.8946 27.6148 70.6961 27.5039 70.445C27.4585 70.3502 27.34 70.1273 27.1484 69.7762L26.6832 70.1144L27.0122 70.7217C27.0753 70.8293 27.1068 70.9241 27.1068 71.0061C27.1068 71.2111 26.9706 71.3135 26.6983 71.3135H26.1045V71.9746H26.7097ZM24.4971 71.9746C24.8375 71.9746 25.0909 71.8324 25.2573 71.548C25.4262 71.8324 25.6973 71.9746 26.0705 71.9746H26.2709V71.3135H26.1121C25.8524 71.3135 25.6784 71.2674 25.5901 71.1752C25.4716 71.065 25.4124 70.8511 25.4124 70.5334V69.9223H24.8488V70.714C24.8488 70.9497 24.8287 71.1022 24.7883 71.1713C24.7303 71.2661 24.5853 71.3135 24.3534 71.3135H24.0924V71.9746H24.4971ZM25.2724 73.2198V72.6433H24.6976V73.2198H25.2724ZM24.2588 71.9746V71.3135H23.8466C23.6146 71.3135 23.4545 71.2444 23.3662 71.106C23.2906 70.9984 23.2528 70.8203 23.2528 70.5718V67.6547H22.6438V70.6218C22.6438 71.5236 23.0107 71.9746 23.7444 71.9746H24.2588ZM20.4389 71.9746C20.8095 71.9746 21.1247 71.8721 21.3844 71.6671C21.6996 71.416 21.8572 71.0599 21.8572 70.5987C21.8572 70.2964 21.7424 70.0401 21.513 69.83C21.3012 69.6302 21.0402 69.5303 20.7301 69.5303C20.3846 69.5303 20.0178 69.6673 19.6295 69.9415C19.3496 70.1388 19.0987 70.3758 18.8768 70.6525V67.6663H18.3662V70.7409C18.3662 70.9254 18.3473 71.0599 18.3095 71.1444C18.249 71.2572 18.1368 71.3135 17.9729 71.3135H17.606V71.9707L20.4389 71.9746ZM20.4918 71.3135H18.8125C19.4984 70.5167 20.1325 70.1183 20.7149 70.1183C20.8763 70.1183 21.0125 70.1663 21.1234 70.2624C21.2344 70.3585 21.2898 70.4847 21.2898 70.641C21.2898 70.8075 21.2318 70.9548 21.1159 71.083C20.9696 71.2367 20.7616 71.3135 20.4918 71.3135ZM17.7724 71.9746V71.3135H17.3602C17.1282 71.3135 16.9681 71.2444 16.8798 71.106C16.8042 70.9984 16.7664 70.8203 16.7664 70.5718V67.6547H16.1575V70.6218C16.1575 71.5236 16.5243 71.9746 17.2581 71.9746H17.7724ZM13.1544 70.1606V69.5802H12.5758V70.1606H13.1544ZM12.3677 70.1606V69.5802H11.7815V70.1606H12.3677ZM14.4139 71.9746C14.6837 71.9746 14.9068 71.8964 15.0833 71.7402C15.2724 71.5685 15.367 71.3494 15.367 71.083C15.367 70.9164 15.314 70.7217 15.2081 70.4988L14.8791 69.8031L14.3988 70.1183L14.69 70.6909C14.7606 70.8472 14.7959 70.9689 14.7959 71.056C14.7959 71.2277 14.6509 71.3135 14.3609 71.3135H11.1234C10.7376 71.3135 10.5448 71.1124 10.5448 70.7102V70.5833H10.0001V70.8524C10.0001 71.1778 10.0972 71.4461 10.2913 71.6575C10.4855 71.8689 10.7427 71.9746 11.0629 71.9746H14.4139Z" fill="white"/>
<path fill-rule="evenodd" clip-rule="evenodd" d="M48.1503 22.3778L49.3529 21.8247C49.4221 21.795 49.4267 21.7264 49.4499 21.6494C49.0521 21.8293 48.6504 22.0033 48.2622 22.2038C48.1898 22.2323 48.1762 22.3138 48.1503 22.3778Z" fill="white"/>
<path fill-rule="evenodd" clip-rule="evenodd" d="M50.1198 22.6765L51.4434 22.6836C51.5184 22.6849 51.5514 22.6254 51.6051 22.5653C51.1684 22.5601 50.7311 22.5484 50.2951 22.5659C50.2162 22.5614 50.1696 22.6293 50.1198 22.6765Z" fill="white"/>
<mask id="mask0_472:4799" style="mask-type:alpha" maskUnits="userSpaceOnUse" x="42" y="21" width="2" height="2">
<path d="M42.8458 21.0947H43.9889V22.0502H42.8458V21.0947Z" fill="white"/>
</mask>
<g mask="url(#mask0_472:4799)">
<path fill-rule="evenodd" clip-rule="evenodd" d="M42.8458 22.0499L43.9261 21.2839C43.9882 21.2419 43.9798 21.174 43.9889 21.0938C43.6305 21.3441 43.2682 21.5899 42.9235 21.8577C42.8575 21.8998 42.8594 21.9826 42.8458 22.0499Z" fill="white"/>
</g>
<path fill-rule="evenodd" clip-rule="evenodd" d="M41.1916 22.6481L42.1671 21.9572C42.2234 21.9191 42.2163 21.8576 42.224 21.7852C41.9006 22.0109 41.5733 22.2322 41.2621 22.4747C41.2026 22.5123 41.2045 22.5873 41.1916 22.6481Z" fill="white"/>
<path fill-rule="evenodd" clip-rule="evenodd" d="M37.7501 24.5102L38.3465 23.8232C38.3815 23.7843 38.3666 23.7268 38.3614 23.6582C38.1635 23.8827 37.961 24.1033 37.774 24.3433C37.7365 24.3808 37.7495 24.4519 37.7501 24.5102Z" fill="white"/>
<path fill-rule="evenodd" clip-rule="evenodd" d="M41.1078 26.3844L41.6248 25.9101C41.6546 25.8842 41.6507 25.8337 41.6552 25.7754C41.4835 25.9302 41.3099 26.0805 41.1454 26.2496C41.1143 26.2749 41.1149 26.3358 41.1078 26.3844Z" fill="white"/>
<path fill-rule="evenodd" clip-rule="evenodd" d="M43.5942 25.5603L44.8544 24.8171C44.9275 24.7763 44.9243 24.7006 44.9411 24.6133C44.5238 24.8559 44.1021 25.0926 43.6977 25.3566C43.6208 25.396 43.6149 25.4872 43.5942 25.5603Z" fill="white"/>
<path fill-rule="evenodd" clip-rule="evenodd" d="M46.5284 25.9541L47.5751 25.718C47.6346 25.7063 47.6495 25.6526 47.6812 25.5957C47.3351 25.6714 46.9884 25.7413 46.6468 25.8351C46.5841 25.8454 46.5595 25.9075 46.5284 25.9541Z" fill="white"/>
<path fill-rule="evenodd" clip-rule="evenodd" d="M47.9426 22.1725C48.0301 22.1679 48.0981 22.0908 48.1882 22.0921C48.2562 22.0818 48.3553 22.1077 48.3896 22.028C48.4642 21.8738 48.3786 21.6982 48.2491 21.6043C48.3009 21.7598 48.332 21.8524 48.3113 21.9198C48.2983 21.9515 48.251 21.9807 48.207 21.9172C48.1674 21.8505 48.1279 21.7831 48.0871 21.7177C48.0767 21.8064 48.0709 21.8952 48.0644 21.9839C48.0502 22.0325 47.9718 22.0358 47.9472 21.9833C47.8752 21.8505 47.9187 21.6652 47.7917 21.5635C47.78 21.7261 47.8156 21.8861 47.8545 22.0429C47.8714 22.0921 47.8772 22.164 47.9426 22.1725Z" fill="white"/>
<path fill-rule="evenodd" clip-rule="evenodd" d="M50.4946 23.7053C50.5776 23.7338 50.6702 23.6878 50.7518 23.7228C50.8199 23.739 50.9015 23.7999 50.9637 23.7383C51.09 23.623 51.0758 23.428 50.9915 23.2926C50.9812 23.4565 50.9753 23.5537 50.9313 23.6094C50.9073 23.6334 50.8522 23.6424 50.8354 23.5679C50.8237 23.4908 50.8121 23.4137 50.7985 23.3379C50.7557 23.4163 50.7175 23.496 50.6786 23.5764C50.6469 23.6159 50.5724 23.5893 50.5691 23.5317C50.5523 23.3814 50.6624 23.2265 50.5821 23.084C50.5108 23.2304 50.4836 23.3924 50.4616 23.5524C50.4583 23.6049 50.4376 23.6735 50.4946 23.7053Z" fill="white"/>
<path fill-rule="evenodd" clip-rule="evenodd" d="M46.9238 22.6989C46.9395 22.633 46.968 22.6123 47.0408 22.6123C47.1121 22.6123 47.142 22.6543 47.142 22.7125C47.142 22.7986 46.9039 22.7753 46.9238 22.6989ZM46.8133 22.7999C46.8525 22.8613 46.9395 22.8775 47.0023 22.9144C46.8475 23.058 46.6415 23.1492 46.4967 23.3018C46.7933 23.2145 47.0622 23.0373 47.2247 22.7934C47.2768 22.7112 47.2789 22.6006 47.2319 22.5159C47.1869 22.4369 47.075 22.4059 46.988 22.4466C46.8539 22.5094 46.7826 22.6627 46.8133 22.7999Z" fill="white"/>
<path fill-rule="evenodd" clip-rule="evenodd" d="M49.6254 22.1722C49.6577 22.1075 49.6882 22.0933 49.7515 22.1132C49.8136 22.1331 49.8272 22.1864 49.8111 22.2475C49.7871 22.3385 49.5859 22.2468 49.6254 22.1722ZM49.5012 22.2483C49.518 22.3236 49.5885 22.3649 49.6332 22.4217C49.4579 22.5298 49.2541 22.5689 49.0846 22.6897C49.3673 22.6798 49.6513 22.5682 49.8609 22.3556C49.9294 22.2838 49.9624 22.1679 49.9443 22.0656C49.9275 21.9696 49.8389 21.9056 49.7515 21.9241C49.6176 21.9525 49.5122 22.0947 49.5012 22.2483Z" fill="white"/>
<path fill-rule="evenodd" clip-rule="evenodd" d="M53.8946 24.362C53.936 24.2998 53.9683 24.2898 54.0285 24.3244C54.0867 24.3574 54.0925 24.4158 54.0673 24.4781C54.0298 24.5712 53.8454 24.4343 53.8946 24.362ZM53.7607 24.4189C53.7665 24.5035 53.8299 24.5612 53.8655 24.6296C53.6766 24.7111 53.4696 24.7134 53.2845 24.8095C53.5647 24.8541 53.8616 24.7895 54.1003 24.6034C54.1773 24.5404 54.2284 24.4228 54.2258 24.3097C54.2232 24.2044 54.1449 24.1191 54.0563 24.1222C53.9204 24.126 53.7949 24.2575 53.7607 24.4189Z" fill="white"/>
<path fill-rule="evenodd" clip-rule="evenodd" d="M40.2768 22.843C40.3046 22.8994 40.3098 22.968 40.326 23.0309C40.4122 22.924 40.4886 22.6933 40.3299 22.624C40.1453 22.6506 40.0248 22.8385 40.0507 23.0192C40.1317 22.9065 40.2204 22.7717 40.2768 22.843Z" fill="white"/>
<path fill-rule="evenodd" clip-rule="evenodd" d="M45.7886 21.7912C45.8158 21.8476 45.821 21.9163 45.8378 21.9791C45.924 21.8722 46.0004 21.6416 45.8417 21.5723C45.657 21.5995 45.5365 21.7867 45.5625 21.9675C45.6434 21.8547 45.7322 21.72 45.7886 21.7912Z" fill="white"/>
<path fill-rule="evenodd" clip-rule="evenodd" d="M53.2109 25.1174C53.4652 25.1323 53.7188 25.1394 53.9736 25.1394C54.0603 25.1459 54.136 25.098 54.2085 25.0566C53.9529 25.043 53.6981 25.0411 53.4425 25.0339C53.3558 25.0268 53.2802 25.0721 53.2109 25.1174Z" fill="white"/>
<path fill-rule="evenodd" clip-rule="evenodd" d="M40.7424 23.0138C41.1105 23.4427 41.4573 23.8917 41.7632 24.3678C41.6914 23.9855 41.5006 23.6303 41.2451 23.3386C41.1099 23.1568 41.0051 22.953 40.8615 22.7777C40.8181 22.726 40.7515 22.7001 40.6849 22.7117H40.6842C40.6881 22.8133 40.6648 22.9323 40.7424 23.0138Z" fill="white"/>
<path fill-rule="evenodd" clip-rule="evenodd" d="M49.3258 25.5956C49.5011 25.5568 49.6764 25.518 49.855 25.4973C49.9384 25.4954 49.996 25.4339 50.0523 25.3809C49.8052 25.4029 49.4946 25.3763 49.3258 25.5956Z" fill="white"/>
<path fill-rule="evenodd" clip-rule="evenodd" d="M46.4153 22.4487C46.6061 22.4092 46.7827 22.3135 46.9296 22.1867C47.0279 22.1019 47.1055 21.979 47.0997 21.8451C47.0822 21.6815 46.8597 21.5812 46.7297 21.6873C46.6973 21.7196 46.6792 21.7591 46.6715 21.8011C46.6475 21.9273 46.7769 22.0314 46.8959 21.9842C46.936 21.968 46.9748 21.9493 47.0137 21.9299C46.8979 22.1854 46.6132 22.274 46.4153 22.4487Z" fill="white"/>
<path fill-rule="evenodd" clip-rule="evenodd" d="M48.9651 23.2772C48.9237 23.2972 48.883 23.3192 48.839 23.3341C48.7775 23.3147 48.7264 23.2739 48.6747 23.2377C48.7724 23.2403 48.87 23.2532 48.9651 23.2772ZM47.5633 23.347C47.617 23.6142 47.5892 23.8891 47.6306 24.1582C47.4753 24.1945 47.3071 24.2139 47.1778 24.3161C47.0736 24.3885 47.0044 24.4966 46.9112 24.5807C46.866 24.5955 46.8368 24.5794 46.8239 24.5341C46.732 24.3361 46.7366 24.1097 46.6622 23.9059C46.6337 23.8341 46.5399 23.8199 46.4726 23.8303C46.2773 23.8691 46.1052 23.9823 45.9596 24.1143C45.7999 24.2566 45.6284 24.4015 45.5456 24.6033C45.5049 24.7307 45.5101 24.8698 45.4447 24.9889C45.3658 25.1273 45.4208 25.2838 45.4415 25.4294C45.4745 25.6131 45.4635 25.8007 45.4719 25.987C45.655 25.7418 45.6388 25.4333 45.6129 25.1435C45.6071 25.0736 45.6459 25.007 45.7112 24.9817C45.8413 24.9319 45.9868 24.9436 46.1265 24.9339C46.2346 24.9261 46.3258 24.8511 46.3536 24.7463C46.3536 24.7456 46.3543 24.745 46.3543 24.7437C46.3665 24.6965 46.3497 24.6447 46.3096 24.6169C46.1667 24.5186 46.0069 24.4487 45.8406 24.3995C45.9752 24.2896 46.1181 24.1815 46.285 24.1265C46.3737 24.0942 46.4979 24.1259 46.5341 24.2203C46.5787 24.3258 46.5923 24.4396 46.6234 24.5496C46.6667 24.7236 46.7624 24.8789 46.8575 25.029C46.9973 25.2204 47.1642 25.419 47.4074 25.4734C47.4397 25.3815 47.4695 25.289 47.496 25.1959C47.3505 25.0872 47.1907 24.9889 47.0827 24.8394C47.0536 24.7922 46.9927 24.734 47.049 24.6822C47.1687 24.5483 47.3492 24.4843 47.5232 24.4603C47.7723 24.4286 48.0019 24.5522 48.24 24.5994C48.2762 24.4914 48.3001 24.3808 48.3079 24.2669C48.1597 24.21 48 24.1789 47.8602 24.1007C47.7587 24.0444 47.7464 23.9228 47.7347 23.8193C47.8997 23.8464 48.0666 23.9085 48.2354 23.8691C48.4179 23.8335 48.5725 23.7255 48.7361 23.6459C48.8079 23.6006 48.8772 23.6679 48.9425 23.6951C49.1126 23.7927 49.3106 23.8885 49.5118 23.8348C49.7375 23.7811 49.8216 23.5152 49.8093 23.3082C49.8119 23.1594 49.7233 23.0333 49.625 22.9304C49.5771 23.0113 49.5176 23.0954 49.5215 23.1931C49.5648 23.3199 49.6353 23.4363 49.6735 23.565C49.4697 23.6297 49.2549 23.5844 49.0829 23.4641C49.1566 23.4169 49.2381 23.3787 49.3028 23.3179C49.3559 23.2364 49.3746 23.1387 49.4031 23.0469C49.0796 22.9175 48.709 22.9194 48.3823 23.0378C48.1986 23.1083 48.1481 23.3173 48.1061 23.4874C48.2484 23.4764 48.3952 23.4628 48.5311 23.5191C48.3292 23.6355 48.0634 23.6685 47.8609 23.5366C47.7334 23.4518 47.705 23.2895 47.6895 23.1484C47.6435 22.6717 47.5957 22.1897 47.4482 21.7317C47.4119 21.7278 47.4074 21.7278 47.3705 21.7246C47.2541 21.9581 47.4003 22.1949 47.4281 22.4297C47.4689 22.7364 47.5044 23.0436 47.5633 23.347Z" fill="white"/>
<path fill-rule="evenodd" clip-rule="evenodd" d="M44.237 23.6588C44.4641 23.7545 44.7254 23.8295 44.86 24.054C44.7552 24.1504 44.6277 24.2513 44.4744 24.2274C44.3444 24.2209 44.2668 24.1097 44.193 24.0178C44.149 24.1439 44.1348 24.3742 43.9498 24.3542C43.7855 24.3704 43.7389 24.1821 43.6839 24.065C43.605 23.8295 43.4944 23.6064 43.4174 23.3702C43.7007 23.4349 43.9724 23.541 44.237 23.6588ZM43.3061 23.0856L43.279 23.0798C43.1308 22.843 43.0758 22.5409 42.8637 22.3488C42.8637 22.4381 42.8624 22.5332 42.9089 22.614C43.1069 23.0041 43.268 23.4117 43.442 23.8127C43.5532 24.0715 43.6263 24.3548 43.8055 24.5774C43.8663 24.6628 43.9802 24.6621 44.0708 24.6336C44.1581 24.5787 44.2034 24.4797 44.2616 24.3975C44.4389 24.4706 44.6594 24.5489 44.8302 24.4143C44.981 24.3024 44.9383 24.0999 44.9383 23.9382C45.1491 23.9952 45.3659 24.0864 45.5877 24.0359C45.6802 24.0081 45.7728 23.957 45.8336 23.8794C45.9073 23.6245 45.8038 23.3657 45.7009 23.1354C45.5567 22.81 45.4474 22.4691 45.2889 22.1502C45.186 22.1612 45.1362 22.3035 45.166 22.3934C45.3193 22.8385 45.5871 23.2338 45.732 23.6827C45.5515 23.816 45.3115 23.7933 45.1123 23.7209C44.6426 23.543 44.1846 23.3386 43.7214 23.1438C43.9867 22.9213 44.259 22.7046 44.5488 22.5157C44.7287 22.3915 44.9402 22.3145 45.1019 22.1664C45.1867 22.0777 45.1155 21.9561 45.0722 21.8662C44.6905 22.1282 44.3011 22.3773 43.9213 22.6412C43.7227 22.7977 43.5319 22.9685 43.3061 23.0856Z" fill="white"/>
<path fill-rule="evenodd" clip-rule="evenodd" d="M38.5656 26.2893C38.596 26.0978 38.6439 25.9044 38.7338 25.731C38.792 25.6747 38.8205 25.7485 38.845 25.795C38.8509 25.9949 38.7286 26.1812 38.5656 26.2893ZM38.2408 24.6675C38.2324 24.8771 38.4207 25.0116 38.5934 25.0854C38.8599 25.2031 39.0702 25.4095 39.2824 25.6023C39.4415 25.7536 39.6142 25.8921 39.7507 26.0648C39.4014 26.0467 39.1355 25.7976 38.8683 25.601C38.7823 25.5434 38.7331 25.4509 38.6853 25.3629C38.6361 25.3746 38.5818 25.4069 38.5365 25.37C38.4032 25.2956 38.2758 25.2122 38.136 25.1507C38.1619 25.2264 38.1781 25.3099 38.2298 25.3733C38.3314 25.4541 38.453 25.5033 38.5643 25.5693C38.5158 25.742 38.4517 25.9095 38.4071 26.0829C38.3586 26.244 38.4401 26.4102 38.5423 26.5319C38.5805 26.592 38.6613 26.5746 38.7105 26.5377C38.9175 26.3934 39.0346 26.1334 38.9938 25.883C39.2662 26.0441 39.5185 26.2712 39.8445 26.3126C40.1576 26.3637 40.4422 26.1948 40.7243 26.0849C40.6952 25.9878 40.6531 25.8953 40.6007 25.8086C40.4105 25.8837 40.2113 25.9762 40.0023 25.9406C39.7656 25.9018 39.587 25.72 39.4577 25.5298C39.6485 25.5777 39.8335 25.6728 40.0353 25.6592C40.2585 25.6424 40.4668 25.5201 40.6066 25.3474C40.776 25.1397 40.9404 24.9275 41.1047 24.7154C41.1862 24.6093 41.3078 24.5478 41.4184 24.478C41.3932 24.4023 41.3667 24.3259 41.3388 24.2502C41.051 24.3835 40.7644 24.5245 40.4642 24.6293C40.4662 24.4818 40.4707 24.3311 40.4293 24.1881C40.3297 23.8802 40.1104 23.6357 39.9228 23.3795C39.8704 23.311 39.794 23.2663 39.7216 23.2217C39.7307 23.3194 39.7339 23.4248 39.796 23.5057C39.9597 23.7418 40.1563 23.9546 40.3083 24.1991C40.3581 24.2787 40.3898 24.3848 40.3297 24.4683C40.1893 24.672 39.9784 24.8143 39.7721 24.945C39.7921 25.0336 39.8167 25.1203 39.8439 25.207C40.113 25.1054 40.3704 24.9741 40.6421 24.8797C40.5134 25.0899 40.3329 25.2872 40.089 25.3584C39.8154 25.4451 39.5321 25.3351 39.2811 25.2271C39.0107 25.0977 38.7461 24.9515 38.5015 24.7775C38.6788 24.6313 38.8341 24.4618 38.9835 24.2884C39.2177 24.0717 39.4654 23.8647 39.666 23.6143C39.7475 23.5193 39.6369 23.3562 39.5223 23.3608C39.1834 23.6855 38.8767 24.0478 38.5003 24.3324C38.3967 24.4269 38.2324 24.5045 38.2408 24.6675Z" fill="white"/>
<path fill-rule="evenodd" clip-rule="evenodd" d="M51.3213 23.6398C51.5231 23.9898 51.7418 24.3436 51.8239 24.7453C51.6726 24.7887 51.4856 24.7738 51.3853 24.6386C51.3414 24.5099 51.3763 24.3688 51.3659 24.2349C51.1893 24.2815 51.0548 24.409 50.9079 24.5092C50.7844 24.5914 50.7106 24.7227 50.6129 24.8307C50.5696 24.6645 50.5974 24.4924 50.5793 24.3242C50.5573 24.1573 50.3607 24.0713 50.2099 24.1153C49.7998 24.1987 49.5016 24.5345 49.2965 24.8793C49.4039 24.8262 49.5203 24.8249 49.6135 24.9058C49.4958 24.9271 49.3703 24.9181 49.2577 24.9633C49.0682 25.1102 49.0733 25.3664 49.0345 25.5805C49.0073 25.7849 48.9355 25.9783 48.8935 26.1789C49.1206 25.8858 49.162 25.51 49.2603 25.1645C49.4343 25.1561 49.609 25.1632 49.7823 25.1581C49.9033 25.1665 49.9926 25.0604 50.0314 24.9569C50.0159 24.7583 49.7836 24.7039 49.6523 24.5959C49.803 24.5073 49.9596 24.4212 50.1297 24.3773C50.2824 24.3365 50.4435 24.473 50.4525 24.625C50.4758 24.8644 50.4506 25.1212 50.5728 25.3379C50.6511 25.4809 50.8128 25.5365 50.9552 25.5941C51.0011 25.5223 51.0399 25.4453 51.0658 25.3631C50.9383 25.2816 50.8135 25.1814 50.7546 25.0371C50.7203 24.9608 50.7061 24.854 50.776 24.7926C50.9066 24.6735 51.058 24.5681 51.2333 24.5293C51.2495 24.6703 51.177 24.8728 51.3329 24.9556C51.4811 25.0578 51.7023 25.0345 51.8194 24.8948C51.9158 24.7809 52.018 24.6386 51.9857 24.4795C51.9533 24.1651 51.7334 23.9225 51.6344 23.6314C52.2302 23.6456 52.8137 23.786 53.3953 23.9005C53.5182 23.9212 53.5816 23.7892 53.6314 23.7006C53.0679 23.5732 52.4999 23.4567 51.9242 23.4063C51.78 23.3953 51.6312 23.3687 51.4888 23.4017C51.3976 23.4444 51.3426 23.5453 51.3213 23.6398Z" fill="white"/>
<path fill-rule="evenodd" clip-rule="evenodd" d="M48.792 24.1379C48.9072 24.1217 49.0178 24.1541 49.0844 24.2543C48.9764 24.2556 48.8244 24.2737 48.792 24.1379ZM47.9026 24.9129C47.66 24.9019 47.44 24.7932 47.2117 24.7266C47.3462 24.8915 47.5545 24.962 47.7434 25.0435C48.074 25.1548 48.4634 25.1956 48.7765 25.0112C49.0392 24.8741 49.2209 24.6172 49.3044 24.3371C49.3807 24.1243 49.1854 23.8662 48.9609 23.8837C48.8231 23.916 48.7468 24.0531 48.6834 24.1676C48.64 24.2601 48.5922 24.3973 48.684 24.4756C48.792 24.5713 48.9473 24.5513 49.0806 24.5694C48.7972 24.9109 48.3133 24.9446 47.9026 24.9129Z" fill="white"/>
<path fill-rule="evenodd" clip-rule="evenodd" d="M42.5448 24.9533C42.2265 25.1163 41.8688 25.2612 41.5045 25.1901C41.3713 25.1687 41.3169 25.0297 41.2296 24.9436C41.2684 25.0885 41.2911 25.2548 41.4023 25.3635C41.61 25.5142 41.8882 25.4928 42.123 25.4275C42.4678 25.3169 42.7983 25.1519 43.0778 24.9197C43.2246 24.8039 43.3728 24.6603 43.4129 24.4701C43.4058 24.3472 43.3417 24.2385 43.2867 24.1311C43.2279 24.0076 43.0836 23.97 42.9685 23.917C42.9853 23.9953 42.9898 24.0781 43.0286 24.1492C43.0998 24.2307 43.1936 24.2896 43.2751 24.3601C43.0629 24.5911 42.8333 24.8194 42.5448 24.9533Z" fill="white"/>
<path fill-rule="evenodd" clip-rule="evenodd" d="M51.7422 25.5723C51.3475 25.8098 50.81 25.7425 50.4619 25.4481C50.3649 25.355 50.3106 25.225 50.2032 25.1409C50.2142 25.2224 50.2265 25.3058 50.2666 25.3796C50.5021 25.835 51.1056 26.0724 51.5811 25.8635C51.7525 25.7884 51.8411 25.6163 51.9569 25.4805C52.0824 25.5212 52.2176 25.5814 52.3509 25.5368C52.5152 25.4785 52.6498 25.3433 52.7144 25.1816C52.7604 25.0619 52.7125 24.9371 52.673 24.8232C52.6122 24.8705 52.5475 24.9164 52.5074 24.983C52.4318 25.0833 52.5042 25.2088 52.512 25.3194C52.4007 25.3246 52.2784 25.3388 52.1795 25.2741C52.0514 25.2107 51.9951 25.0736 51.933 24.9539C51.8838 25.0205 51.823 25.0814 51.7926 25.1596C51.79 25.2974 51.8909 25.4773 51.7422 25.5723Z" fill="white"/>
<path fill-rule="evenodd" clip-rule="evenodd" d="M52.9709 25.4939C53.0938 25.4816 53.198 25.5475 53.2109 25.6756C53.1035 25.6549 52.9767 25.6265 52.9709 25.4939ZM52.4883 26.4247C52.9101 26.3917 53.328 26.0961 53.4276 25.6718C53.4671 25.523 53.4069 25.3224 53.2407 25.2862C53.077 25.272 52.9547 25.4059 52.8622 25.523C52.804 25.5974 52.7315 25.7164 52.8228 25.796C52.9366 25.8723 53.0789 25.8878 53.2057 25.937C53.0479 26.1388 52.7736 26.2145 52.5271 26.1957C52.2315 26.1621 51.9611 26.0256 51.6959 25.8995C51.9016 26.1388 52.1345 26.4532 52.4883 26.4247Z" fill="white"/>
<path fill-rule="evenodd" clip-rule="evenodd" d="M52.6811 36.5126C52.6112 36.4551 52.5504 36.3613 52.4559 36.3496C52.2528 36.5146 52.0898 36.7235 51.9041 36.9079C51.855 36.9687 51.7437 37.0528 51.8349 37.1285C52.0329 37.3523 52.2742 37.5328 52.4844 37.7443C52.6849 37.547 52.8797 37.3432 53.0718 37.1369C53.1113 37.0897 53.1682 37.0398 53.1475 36.9713C53.0136 36.7979 52.8299 36.6724 52.6811 36.5126Z" fill="white"/>
<path fill-rule="evenodd" clip-rule="evenodd" d="M48.7198 40.033C48.6997 40.0168 48.6822 39.9896 48.6556 39.9863C48.598 40.033 48.5507 40.0932 48.4982 40.1457C48.4846 40.1632 48.4522 40.1872 48.4788 40.2085C48.5351 40.2727 48.6038 40.3239 48.6641 40.3841C48.7211 40.3277 48.7761 40.2701 48.8312 40.2111C48.8422 40.1975 48.8591 40.1833 48.8526 40.1638C48.8144 40.114 48.7619 40.0783 48.7198 40.033Z" fill="white"/>
<path fill-rule="evenodd" clip-rule="evenodd" d="M47.3129 40.2459C47.2935 40.2297 47.2754 40.2031 47.2488 40.1992C47.1912 40.2465 47.1445 40.3061 47.0914 40.3586C47.0778 40.3761 47.046 40.4001 47.0719 40.4214C47.1283 40.4856 47.197 40.5368 47.2572 40.597C47.3142 40.5413 47.37 40.483 47.4244 40.424C47.4354 40.4104 47.4522 40.3962 47.4458 40.3767C47.4075 40.3268 47.3551 40.2912 47.3129 40.2459Z" fill="white"/>
<path fill-rule="evenodd" clip-rule="evenodd" d="M47.8302 40.2459C47.8107 40.2297 47.7926 40.2031 47.766 40.1992C47.7084 40.2465 47.6617 40.3061 47.6086 40.3586C47.595 40.3761 47.5632 40.4001 47.5892 40.4214C47.6455 40.4856 47.7142 40.5368 47.7744 40.597C47.8315 40.5413 47.8872 40.483 47.9416 40.424C47.9526 40.4104 47.9695 40.3962 47.963 40.3767C47.9247 40.3268 47.8723 40.2912 47.8302 40.2459Z" fill="white"/>
<path fill-rule="evenodd" clip-rule="evenodd" d="M47.585 39.9109C47.5649 39.8947 47.5474 39.8675 47.5202 39.8643C47.4632 39.9109 47.4159 39.9712 47.3628 40.0236C47.3492 40.0411 47.3175 40.0651 47.3434 40.0865C47.4004 40.1506 47.4684 40.2018 47.5287 40.262C47.5857 40.2057 47.6414 40.1474 47.6965 40.0884C47.7075 40.0755 47.7237 40.0612 47.7178 40.0418C47.6796 39.9919 47.6271 39.9563 47.585 39.9109Z" fill="white"/>
<path fill-rule="evenodd" clip-rule="evenodd" d="M46.0299 22.1647C46.0416 22.2578 46.0713 22.3471 46.0959 22.437C46.2052 22.8659 46.2576 23.3116 46.4193 23.7269C46.4446 23.6454 46.4737 23.5607 46.4588 23.474C46.3896 23.0043 46.3288 22.5314 46.1955 22.0747C46.1761 22.0152 46.1483 21.9583 46.1218 21.9014C46.0752 21.9816 46.0183 22.0676 46.0299 22.1647Z" fill="white"/>
<path fill-rule="evenodd" clip-rule="evenodd" d="M42.1287 23.2335C42.1953 23.0647 42.381 23.0873 42.513 23.1624C42.4082 23.2529 42.2555 23.3306 42.1287 23.2335ZM42.0776 22.903C41.9689 23.1022 42.042 23.3668 42.1837 23.5292C42.3571 23.6107 42.535 23.4813 42.676 23.3894C42.6566 23.5783 42.6333 23.7827 42.5059 23.9335C42.4004 24.0551 42.2723 24.1573 42.1352 24.2414C41.976 24.3391 41.7852 24.3695 41.6287 24.4723C41.7069 24.4995 41.791 24.5202 41.8738 24.4989C42.1688 24.4445 42.48 24.3423 42.6728 24.0991C42.8086 23.9296 42.8202 23.7006 42.8157 23.4923C42.8235 23.1921 42.6016 22.9295 42.3403 22.8072C42.2445 22.7581 42.1229 22.8085 42.0776 22.903Z" fill="white"/>
<path fill-rule="evenodd" clip-rule="evenodd" d="M53.7961 26.0388C53.6576 26.3286 53.4118 26.9218 53.4118 26.9218C53.6699 27.1767 53.9934 27.3507 54.2651 27.59C54.5911 27.8307 54.8738 28.1263 55.2057 28.3573C55.6954 28.2635 56.1766 28.1257 56.6651 28.0209C56.3384 27.7414 55.6643 27.1967 54.9178 26.6714C54.9178 26.6714 55.37 25.8499 55.5071 25.5361C54.9954 25.683 54.4721 25.7884 53.9578 25.9275C53.8924 25.9456 53.8213 25.9696 53.7961 26.0388Z" fill="white"/>
<path fill-rule="evenodd" clip-rule="evenodd" d="M55.2087 26.5689L56.8195 27.8226L57.3719 26.9622C56.9094 26.4608 55.8536 25.6018 55.7068 25.5811L55.2087 26.5689Z" fill="white"/>
<path fill-rule="evenodd" clip-rule="evenodd" d="M57.1254 28.0812C57.1953 28.1828 58.1631 29.1965 58.8999 30.313C59.0609 30.0129 59.2589 29.6571 59.4271 29.3608C59.4271 29.3608 58.8727 28.3568 57.6404 27.1963L57.1254 28.0812Z" fill="white"/>
<path fill-rule="evenodd" clip-rule="evenodd" d="M56.9419 28.3105C56.7666 28.3306 55.7885 28.5894 55.4935 28.6735C55.6126 28.8171 56.3345 29.5694 57.081 30.5863C57.0564 30.5876 58.6562 30.4654 58.6562 30.4654C57.922 29.3119 56.9419 28.3105 56.9419 28.3105Z" fill="white"/>
<path fill-rule="evenodd" clip-rule="evenodd" d="M46.2815 32.3792C46.3688 32.1755 46.4516 31.9225 46.6748 31.8333C46.7803 31.8106 46.9077 31.8106 46.986 31.896C47.1192 32.0157 47.1069 32.2123 47.0739 32.3721C47.0228 32.5849 46.9556 32.7958 46.8611 32.9931C46.7984 33.127 46.6561 33.217 46.5092 33.2183C46.3727 33.2073 46.2317 33.1316 46.1838 32.997C46.0926 32.7894 46.2142 32.5746 46.2815 32.3792ZM54.4538 31.5079C54.2422 31.4535 54.0203 31.4665 53.8056 31.4348C53.2965 31.3487 52.8145 31.1585 52.3216 31.0117C51.9237 30.8855 51.5233 30.7232 51.0977 30.7348C50.8279 30.7361 50.531 30.7717 50.3227 30.9606C49.996 31.2278 49.853 31.6444 49.7353 32.0344C49.6887 32.1742 49.701 32.3857 49.8666 32.4336C49.8666 32.4336 50.1603 32.2408 50.3434 32.2156C50.9062 32.1457 51.4716 32.354 51.9237 32.6813C52.0169 32.7363 52.0809 32.8786 51.9826 32.9595C51.6617 33.2493 51.2167 33.3405 50.7962 33.3425C50.3324 33.3405 49.8679 33.3354 49.4041 33.3399C49.0243 33.3483 48.6459 33.3011 48.2733 33.2344C48.1096 33.1995 47.9466 33.3127 47.8884 33.4634C47.6587 33.979 47.455 34.5056 47.2357 35.0257C47.1826 35.1402 47.1296 35.2631 47.0254 35.342C46.9058 35.4404 46.7317 35.4281 46.592 35.3873C46.407 35.3052 46.2498 35.1732 46.0945 35.047C45.9878 34.9675 45.9788 34.7883 46.0894 34.7094C46.1728 34.6757 46.2679 34.6951 46.3559 34.6893C46.5564 34.6984 46.7848 34.6453 46.9077 34.4739C47.2531 33.9894 47.4828 33.4227 47.585 32.8379C47.5941 32.8547 47.6038 32.8728 47.6135 32.8903C47.607 32.6645 47.693 32.4497 47.6956 32.2246C47.6976 32.0008 47.7286 31.7647 47.6387 31.5525C47.5889 31.4328 47.5268 31.3151 47.4304 31.2265C47.1251 30.9095 46.5202 31.0065 46.3216 31.3972C46.1657 31.6948 46.0234 32.0027 45.9438 32.3307C45.8882 32.5429 45.8416 32.7616 45.7355 32.9563C45.6876 33.0442 45.5977 33.1109 45.4929 33.1018C44.6888 33.0986 43.8841 33.0973 43.08 33.1025C42.8258 33.1044 42.5774 32.8961 42.567 32.6373C42.5554 32.0228 42.5799 31.4089 42.5489 30.7956C42.5748 30.4444 42.5651 30.0931 42.5592 29.7412C42.5547 29.5568 42.5845 29.3692 42.5398 29.1874C42.5178 29.0891 42.3975 29.0076 42.3057 29.0762C42.0922 29.2166 41.8735 29.3479 41.6665 29.498C41.3314 29.7392 40.9776 29.9547 40.649 30.2057C40.4749 30.3331 40.5157 30.6307 40.7072 30.7219C40.889 30.817 41.0455 30.9916 41.0345 31.209C41.0326 32.05 41.0384 32.8916 41.0306 33.7325C41.0332 33.9305 41.1057 34.1213 41.1988 34.2934C41.3825 34.6246 41.7674 34.8129 42.1401 34.8032C42.9442 34.8012 43.7476 34.8038 44.551 34.8045C44.7031 34.7967 44.8544 34.8724 44.9321 35.0037C45.031 35.1797 44.9308 35.4015 45.0382 35.5769C45.2122 35.8518 45.4903 36.0368 45.7562 36.2147C46.1314 36.4767 46.5008 36.7464 46.8754 37.0097C46.9439 37.0634 47.0655 37.1087 47.1302 37.0253C47.2725 36.8532 47.3851 36.6572 47.5151 36.4747C47.5973 36.3169 47.7823 36.1823 47.7642 35.9928C47.6445 35.8492 47.4226 35.7535 47.4284 35.538C47.453 35.3634 47.5462 35.2029 47.6562 35.0671C47.8036 34.884 48.0514 34.8329 48.2752 34.84C49.3109 34.8413 50.3466 34.84 51.3823 34.8381C51.5537 34.8374 51.7167 34.7708 51.8565 34.6738C52.2381 34.4131 52.5778 34.0974 52.909 33.7759C53.1173 33.5935 53.2725 33.3483 53.5196 33.2137C53.7829 33.0527 54.1012 33.0404 54.4001 33.0268C54.4848 33.0339 54.5411 32.9446 54.5359 32.8676C54.5482 32.528 54.5366 32.1884 54.543 31.8494C54.5424 31.7317 54.5586 31.5894 54.4538 31.5079Z" fill="white"/>
<path fill-rule="evenodd" clip-rule="evenodd" d="M60.1101 33.2016L61.019 32.4007C60.5571 31.1225 59.5699 29.6087 59.5563 29.6094C59.4082 29.9335 59.1876 30.3313 59.0291 30.6509C59.0291 30.6509 59.7155 31.8787 60.1101 33.2016Z" fill="white"/>
<path fill-rule="evenodd" clip-rule="evenodd" d="M36.7558 34.1074C36.7985 34.3286 36.9363 34.5195 37.0909 34.6786C37.3555 34.9251 37.7313 34.9943 38.0781 35.0279C38.6163 35.0428 39.183 35.0836 39.6856 34.8513C39.8506 34.7795 39.9469 34.612 39.9851 34.4431C40.0737 34.0615 40.0996 33.6688 40.1009 33.2787C40.1009 32.8899 40.1171 32.4992 40.0614 32.113C39.9993 31.4836 39.87 30.836 39.5077 30.3043C39.2386 29.9181 38.7567 29.6367 38.276 29.7298C38.1007 29.7603 37.926 29.823 37.796 29.9498C37.4402 30.2784 37.2196 30.7604 37.2274 31.2475C37.2287 31.3833 37.2138 31.5224 37.2461 31.6563C37.2882 31.7922 37.4538 31.8556 37.5832 31.8161C37.7449 31.7527 37.8639 31.6033 38.0386 31.569C38.2301 31.5405 38.4371 31.5541 38.6059 31.6557C38.7605 31.7359 38.8595 31.8827 38.9682 32.0121C39.1403 32.2165 39.2994 32.4319 39.465 32.6415C39.5329 32.7386 39.6216 32.8472 39.5989 32.9747C39.5478 33.1209 39.4061 33.2108 39.2651 33.2574C38.987 33.3648 38.6816 33.3538 38.3899 33.3247C38.0004 33.2619 37.5715 33.1655 37.3063 32.8472C37.2242 32.7677 37.1511 32.6428 37.0217 32.6487C36.9369 32.6441 36.8231 32.6415 36.7933 32.7412C36.7597 32.8802 36.7778 33.0251 36.7739 33.1662C36.7862 33.4799 36.7144 33.7937 36.7558 34.1074Z" fill="white"/>
<path fill-rule="evenodd" clip-rule="evenodd" d="M58.4191 33.3425L59.8862 33.2752C59.751 32.865 59.2568 31.4833 58.8033 30.751C58.8033 30.751 57.5781 30.8461 57.2036 30.8629C57.3271 31.0861 58.0076 32.0791 58.4191 33.3425Z" fill="white"/>
<path fill-rule="evenodd" clip-rule="evenodd" d="M60.2328 33.6281L60.6799 36.5035L61.8604 35.682C61.6683 34.6702 61.4982 33.7691 61.1896 32.7852L60.2328 33.6281Z" fill="white"/>
<path fill-rule="evenodd" clip-rule="evenodd" d="M59.0995 36.1497L60.4315 36.5022C60.4218 36.2157 60.2329 34.8274 59.9909 33.7038C59.5174 33.7018 59.0432 33.7012 58.5697 33.7044C58.747 34.1249 58.9766 34.8125 59.0995 36.1497Z" fill="white"/>
<path fill-rule="evenodd" clip-rule="evenodd" d="M61.9197 36.1006L60.7624 36.9254C60.853 37.7858 60.8019 38.6966 60.7411 39.5589L61.9631 39.099C61.9631 39.099 62.0705 37.8614 61.9197 36.1006Z" fill="white"/>
<path fill-rule="evenodd" clip-rule="evenodd" d="M60.4868 39.5231C60.5923 38.5941 60.5418 37.4368 60.5205 37.0163L59.1782 36.6689C59.1685 36.8494 59.2623 37.8612 59.096 39.1608L60.4868 39.5231Z" fill="white"/>
<path fill-rule="evenodd" clip-rule="evenodd" d="M60.4722 44.2093C60.2794 44.6667 60.0543 45.1098 59.8357 45.5555C59.6416 45.9236 59.4838 46.3104 59.2878 46.6779C59.0588 46.5763 58.8524 46.4327 58.6318 46.3156C58.5374 46.2716 58.4403 46.2031 58.3323 46.2141C58.2534 46.2684 58.1945 46.3447 58.1382 46.4198C57.7934 46.9004 57.4324 47.3681 57.0844 47.8462C56.9816 47.993 56.8502 48.1211 56.7713 48.2828C56.7286 48.3631 56.7771 48.4497 56.8224 48.5157C56.9466 48.691 57.0935 48.8476 57.2235 49.019C57.2571 49.0688 57.2985 49.1225 57.2992 49.1872C57.1918 49.3418 57.0294 49.4466 56.8962 49.5773C56.3961 50.0631 55.8786 50.5295 55.3753 51.0108C55.0907 50.7585 54.852 50.4577 54.5738 50.1996C54.4962 50.1155 54.3804 50.1666 54.3028 50.2197C53.7962 50.5476 53.3149 50.9138 52.8155 51.2527C52.7444 51.3116 52.6473 51.3647 52.6254 51.4598C52.6396 51.5995 52.7179 51.7218 52.7754 51.8466C52.8621 52.0251 52.9469 52.2043 53.0193 52.3893C52.7256 52.5653 52.3892 52.6468 52.0768 52.7853C51.6304 52.9845 51.1666 53.1449 50.7157 53.3345C50.6083 53.3675 50.4945 53.4651 50.3806 53.4199C50.2008 53.1216 50.129 52.7717 49.9737 52.4612C49.9317 52.3667 49.8198 52.3641 49.7318 52.3771C48.9568 52.4922 48.1889 52.65 47.4146 52.7768C47.3376 52.7904 47.236 52.8254 47.2412 52.923C47.2192 53.2795 47.293 53.6333 47.3111 53.9898C46.8524 54.0047 46.3931 54.0001 45.9338 53.9982H45.928H45.9222C45.4629 54.0001 45.0036 54.0047 44.5449 53.9898C44.5624 53.6333 44.6368 53.2795 44.6148 52.923C44.62 52.8254 44.5184 52.7904 44.4408 52.7768C43.6671 52.65 42.8992 52.4922 42.1243 52.3771C42.0363 52.3641 41.9244 52.3667 41.883 52.4612C41.7271 52.7717 41.6553 53.1216 41.4754 53.4199C41.3616 53.4651 41.2477 53.3675 41.1403 53.3345C40.6894 53.1449 40.2256 52.9845 39.7792 52.7853C39.4668 52.6468 39.1304 52.5653 38.8361 52.3893C38.9085 52.2043 38.9933 52.0251 39.0812 51.8466C39.1382 51.7218 39.2171 51.5995 39.2307 51.4598C39.2087 51.3647 39.111 51.3116 39.0405 51.2527C38.5417 50.9138 38.0598 50.5476 37.5533 50.2197C37.475 50.1666 37.3599 50.1155 37.2822 50.1996C37.0034 50.4577 36.766 50.7585 36.4807 51.0108C35.9768 50.5295 35.4593 50.0631 34.9599 49.5773C34.826 49.4466 34.6642 49.3418 34.5562 49.1872C34.5575 49.1225 34.5989 49.0688 34.6332 49.019C34.7626 48.8476 34.9094 48.691 35.0336 48.5157C35.0789 48.4497 35.1274 48.3631 35.0847 48.2828C35.0051 48.1211 34.8751 47.993 34.7716 47.8462C34.4236 47.3681 34.0626 46.9004 33.7185 46.4198C33.6615 46.3447 33.6027 46.2684 33.5237 46.2141C33.4157 46.2031 33.3187 46.2716 33.2242 46.3156C33.0036 46.4327 32.7973 46.5763 32.5683 46.6779C32.3723 46.3104 32.2144 45.9236 32.021 45.5555C31.8024 45.1098 31.5766 44.6667 31.3838 44.2093C32.1226 43.8723 33.6421 43.2998 33.6421 43.2998C33.6421 43.2998 34.2554 44.6977 34.6144 45.2152C34.8518 45.5562 35.0601 45.9171 35.3292 46.2348C35.5259 46.5116 35.7426 46.7717 35.9768 47.0175C37.312 48.4666 39.2527 49.6685 39.5147 49.7972C39.7566 49.9169 39.994 50.045 40.2392 50.1582C41.1526 50.5567 42.099 50.8892 43.0733 51.104C43.5177 51.1738 43.9524 51.2993 44.4026 51.322C44.9066 51.3828 45.415 51.4041 45.9222 51.4015H45.928H45.9338C46.4417 51.4041 46.9495 51.3828 47.4534 51.322C47.9036 51.2993 48.3384 51.1738 48.7828 51.104C49.7577 50.8892 50.7028 50.5567 51.6175 50.1582C51.862 50.045 52.1001 49.9169 52.342 49.7972C52.6034 49.6685 54.5434 48.4666 55.8792 47.0175C56.1134 46.7717 56.3308 46.5116 56.5268 46.2348C56.7953 45.9171 57.0048 45.5562 57.2416 45.2152C57.6013 44.6977 58.2139 43.2998 58.2139 43.2998C58.2139 43.2998 59.7335 43.8723 60.4722 44.2093ZM37.7881 44.8219C38.1044 44.8219 38.2966 45.0076 38.3819 45.2515C38.5521 45.6745 38.6996 46.106 38.8762 46.5265C38.9454 46.7135 39.0573 46.8914 39.0605 47.0964C38.8904 47.0266 38.7526 46.8998 38.5935 46.8086C38.3438 46.6643 38.1219 46.478 37.8748 46.3286C37.6393 46.1869 37.4336 45.9857 37.1619 45.912C36.5933 45.7593 36.0208 45.6241 35.4502 45.4766C35.2743 45.43 35.0562 45.4333 34.934 45.2754C34.8214 45.1253 34.725 45.0024 34.6655 44.8219H37.7881ZM38.1892 48.6141C37.9912 48.4698 37.1619 47.8908 36.9174 47.6573C36.5551 47.3034 36.1961 46.9451 35.8752 46.553C35.7445 46.379 35.5078 46.1804 35.436 45.9721C35.8765 46.1073 36.3927 46.3117 36.8281 46.4638C37.0228 46.5265 37.1684 46.674 37.3217 46.8008C37.5733 47.0136 37.8282 47.2232 38.087 47.427C38.1523 47.4923 38.2545 47.5499 38.2532 47.6534C38.2616 47.9814 38.2474 48.2912 38.1892 48.6141ZM39.2197 47.5299C39.2578 47.6942 39.2281 47.8656 39.2469 48.0325C39.2798 48.2815 39.2786 48.5338 39.3038 48.7842C39.3096 48.9039 39.3394 49.063 39.2087 49.1296C39.0884 49.1646 38.9467 49.1574 38.8471 49.074C38.6879 48.953 38.5333 48.8269 38.3716 48.7091C38.36 48.407 38.3774 48.1056 38.4014 47.8054C38.4046 47.6748 38.4259 47.5195 38.3173 47.4225C38.0643 47.1844 37.7706 46.9942 37.5145 46.7587C37.3333 46.6087 37.169 46.4243 36.9413 46.3441C36.4024 46.1461 35.8823 45.9514 35.3376 45.7703C35.3364 45.7412 35.315 45.6784 35.3137 45.65C35.8487 45.7347 36.7194 45.9721 37.0222 46.0737C37.2557 46.1526 37.4459 46.3007 37.6477 46.4308C38.0469 46.6818 38.4331 46.9535 38.8296 47.209C38.9713 47.2989 39.1395 47.3746 39.2197 47.5299ZM39.4966 47.6909C39.4959 47.5473 39.6104 47.4445 39.7165 47.363C41.74 45.8039 44.6582 45.1836 44.8529 45.1991C44.8496 45.2437 44.8451 45.2877 44.8399 45.333C41.0342 46.6119 40.5361 47.3998 40.4443 47.6773C40.3763 47.8882 40.4009 48.1134 40.3983 48.332C40.397 48.7991 40.399 49.2668 40.3938 49.7345L40.3932 49.7733L40.1085 49.7739C40.0218 49.7701 39.95 49.7616 39.8886 49.6905C39.6279 49.4253 39.5852 49.0352 39.5405 48.6852C39.4933 48.3559 39.4894 48.0228 39.4966 47.6909ZM39.9455 46.4955C40.071 46.1423 40.1894 45.7871 40.3045 45.4307C40.3576 45.2631 40.3847 45.0374 40.5529 44.9416C40.6189 44.9015 40.692 44.9047 40.9036 44.8957H44.6258C44.6989 44.8996 44.675 45.0069 44.629 45.0225C44.3709 45.1007 44.1089 45.1635 43.8463 45.2211C43.1975 45.4041 41.6682 45.8609 41.0692 46.2315C40.7768 46.4127 40.4857 46.597 40.2043 46.7956C40.0684 46.8875 39.9403 46.9929 39.7864 47.0557C39.7993 46.859 39.8899 46.6811 39.9455 46.4955ZM41.2742 48.6859V49.6678H41.0161V48.6859H41.2742ZM41.7969 48.6859V49.6678H41.5382V48.6859H41.7969ZM42.3028 48.6859V49.6678H42.0447V48.6859H42.3028ZM42.8048 48.6859V49.6678H42.5473V48.6859H42.8048ZM43.2919 48.6859V49.6678H43.0344V48.6859H43.2919ZM43.779 48.6859V49.6678H43.5216V48.6859H43.779ZM45.1103 48.2175L45.1116 51.0975C45.1116 51.1441 45.0735 51.1822 45.0269 51.1822C44.8859 51.1809 44.6096 51.1796 44.4997 51.1829C44.3987 51.1829 44.3321 51.058 44.2952 50.9604C44.206 50.7488 44.0358 48.2279 44.0358 48.2279H40.6939V47.9186C40.6927 47.7983 40.7211 47.6793 40.7787 47.5738C40.8085 47.5189 40.8415 47.4652 40.8744 47.4315C41.0789 47.2349 41.6475 46.7892 42.6411 46.3803C42.7453 46.335 42.81 46.4301 42.8999 46.4909C43.5934 47.0026 44.2862 47.5169 44.992 48.0124C45.0638 48.0597 45.1071 48.0875 45.1103 48.2175ZM45.2294 45.1072L45.7087 45.1059L45.71 51.0981C45.71 51.1447 45.6718 51.1829 45.6253 51.1829H45.3135C45.2669 51.1829 45.2294 51.1447 45.2294 51.0981V45.1072ZM46.1473 45.1059L46.6273 45.1072V51.0981C46.6273 51.1447 46.5891 51.1829 46.5426 51.1829H46.2308C46.1842 51.1829 46.146 51.1447 46.146 51.0981L46.1473 45.1059ZM48.3345 48.6859V49.6678H48.077V48.6859H48.3345ZM48.8216 48.6859V49.6678H48.5641V48.6859H48.8216ZM49.3087 48.6859V49.6678H49.0512V48.6859H49.3087ZM49.812 48.6859V49.6678H49.5532V48.6859H49.812ZM50.3179 48.6859V49.6678H50.0591V48.6859H50.3179ZM50.8399 48.6859V49.6678H50.5818V48.6859H50.8399ZM46.7457 48.2175C46.7489 48.0875 46.7929 48.0597 46.8641 48.0124C47.5698 47.5169 48.2627 47.0026 48.9561 46.4909C49.0461 46.4301 49.1114 46.335 49.2156 46.3803C50.2085 46.7892 50.7772 47.2349 50.9816 47.4315C51.0146 47.4652 51.0482 47.5189 51.078 47.5738C51.1343 47.6793 51.1634 47.7983 51.1614 47.9186L51.1621 48.2279H47.8202C47.8202 48.2279 47.6501 50.7488 47.5608 50.9604C47.5239 51.058 47.4566 51.1829 47.357 51.1829C47.247 51.1796 46.9695 51.1809 46.8291 51.1822C46.7826 51.1822 46.7444 51.1441 46.7444 51.0975L46.7457 48.2175ZM52.1395 47.363C52.2456 47.4445 52.3601 47.5473 52.3588 47.6909C52.3666 48.0228 52.3627 48.3559 52.3161 48.6852C52.2709 49.0352 52.2282 49.4253 51.9681 49.6905C51.906 49.7616 51.8342 49.7701 51.7475 49.7739L51.4629 49.7733L51.4622 49.7345C51.4571 49.2668 51.459 48.7991 51.4577 48.332C51.4558 48.1134 51.4803 47.8882 51.4118 47.6773C51.3206 47.3998 50.8218 46.6119 47.0155 45.333C47.0109 45.2877 47.007 45.2437 47.0032 45.1991C47.1979 45.1836 50.116 45.8039 52.1395 47.363ZM47.2302 44.8957H50.9525C51.1634 44.9047 51.2378 44.9015 51.3031 44.9416C51.4713 45.0374 51.4985 45.2631 51.5515 45.4307C51.6666 45.7871 51.785 46.1423 51.9112 46.4955C51.9668 46.6811 52.0567 46.859 52.0697 47.0557C51.9157 46.9929 51.7876 46.8875 51.6518 46.7956C51.3704 46.597 51.0793 46.4127 50.7869 46.2315C50.1885 45.8609 48.6586 45.4041 48.0097 45.2211C47.7471 45.1635 47.4851 45.1007 47.227 45.0225C47.1804 45.0069 47.1571 44.8996 47.2302 44.8957ZM56.4201 45.9721C56.3482 46.1804 56.1115 46.379 55.9815 46.553C55.6606 46.9451 55.3009 47.3034 54.9387 47.6573C54.6941 47.8908 53.8648 48.4698 53.6669 48.6141C53.6093 48.2912 53.5944 47.9814 53.6028 47.6534C53.6015 47.5499 53.7037 47.4923 53.7691 47.427C54.0278 47.2232 54.2833 47.0136 54.5343 46.8008C54.6883 46.674 54.8332 46.5265 55.0279 46.4638C55.4633 46.3117 55.9795 46.1073 56.4201 45.9721ZM52.5516 48.7842C52.5775 48.5338 52.5762 48.2815 52.6092 48.0325C52.6279 47.8656 52.5982 47.6942 52.6363 47.5299C52.7166 47.3746 52.8848 47.2989 53.0264 47.209C53.4236 46.9535 53.8092 46.6818 54.2083 46.4308C54.4101 46.3007 54.5997 46.1526 54.8339 46.0737C55.1366 45.9721 56.008 45.7347 56.5423 45.65C56.541 45.6784 56.5197 45.7412 56.519 45.7703C55.9737 45.9514 55.4536 46.1461 54.9147 46.3441C54.6877 46.4243 54.5227 46.6087 54.3409 46.7587C54.0854 46.9942 53.7917 47.1844 53.5388 47.4225C53.4301 47.5195 53.4514 47.6748 53.4547 47.8054C53.4786 48.1056 53.4961 48.407 53.4844 48.7091C53.3227 48.8269 53.1681 48.953 53.009 49.074C52.91 49.1574 52.7677 49.1646 52.6473 49.1296C52.516 49.063 52.5464 48.9039 52.5516 48.7842ZM52.9799 46.5265C53.1565 46.106 53.3039 45.6745 53.4747 45.2515C53.5595 45.0076 53.7516 44.8219 54.0686 44.8219H57.1905C57.131 45.0024 57.0353 45.1253 56.9214 45.2754C56.7991 45.4333 56.5818 45.43 56.4058 45.4766C55.8353 45.6241 55.2628 45.7593 54.6941 45.912C54.4224 45.9857 54.2167 46.1869 53.9812 46.3286C53.7341 46.478 53.5122 46.6643 53.2625 46.8086C53.1034 46.8998 52.9656 47.0266 52.7955 47.0964C52.7994 46.8914 52.9113 46.7135 52.9799 46.5265ZM61.8948 39.672L60.6003 40.1138C60.3428 40.927 59.8894 42.5526 59.4669 43.4932C59.434 43.5786 59.2625 43.5268 59.2625 43.5268C59.2625 43.5268 60.0724 41.4982 60.348 40.0841L59.0296 39.6377C58.9397 39.9838 58.7657 41.1236 58.2669 42.4006C58.2424 42.4769 58.1919 42.5733 58.2547 42.6458C58.3983 42.8431 58.7508 43.3244 58.7508 43.3244L58.0968 43.0417C58.0968 43.0417 57.5896 44.1537 57.3982 44.4752C57.3665 44.525 57.3167 44.6233 57.23 44.6233L53.9204 44.6246C53.7742 44.6169 53.6397 44.69 53.5381 44.7889C53.3104 44.9972 53.2548 45.3142 53.1358 45.5859C52.91 46.1222 52.7159 46.6701 52.5024 47.2109C52.344 47.1521 52.2825 46.9787 52.2249 46.8351C52.0263 46.2289 51.8116 45.628 51.6227 45.0192C51.5593 44.8297 51.3749 44.6971 51.175 44.7029L46.3886 44.7061C46.2489 44.6984 46.0102 44.8071 46.0102 44.9384V51.1298C46.0102 51.1589 45.9862 51.1829 45.9571 51.1829H45.9338H45.9222H45.8989C45.8698 51.1829 45.8465 51.1589 45.8465 51.1298V44.9384C45.8465 44.8071 45.6072 44.6984 45.4681 44.7061L40.681 44.7029C40.4811 44.6971 40.2974 44.8297 40.2334 45.0192C40.0445 45.628 39.8297 46.2289 39.6311 46.8351C39.5735 46.9787 39.5127 47.1521 39.3536 47.2109C39.1401 46.6701 38.9467 46.1222 38.7203 45.5859C38.6012 45.3142 38.5456 44.9972 38.3179 44.7889C38.2163 44.69 38.0818 44.6169 37.9356 44.6246L34.6261 44.6233C34.5394 44.6233 34.4896 44.525 34.4579 44.4752C34.2664 44.1537 33.7592 43.0417 33.7592 43.0417L33.1052 43.3244C33.1052 43.3244 33.4578 42.8431 33.6014 42.6458C33.6641 42.5733 33.6137 42.4769 33.5891 42.4006C33.0903 41.1236 32.9163 39.9838 32.827 39.6377L31.5087 40.0841C31.7836 41.4982 32.5935 43.5268 32.5935 43.5268C32.5935 43.5268 32.4227 43.5786 32.3891 43.4932C31.9673 42.5526 31.5132 40.927 31.2557 40.1138L29.9606 39.672C30.198 41.8152 30.8385 43.2416 30.9931 43.6265C31.3592 43.6646 32.2099 43.7009 32.2099 43.7009C31.9175 43.7966 31.5235 43.9609 31.2331 44.0677C31.1865 44.0916 31.1011 44.0961 31.0972 44.1647C31.1056 44.2358 31.1503 44.2954 31.1826 44.3575C31.323 44.5923 31.4162 44.851 31.5429 45.0923C31.8017 45.6273 32.0721 46.1571 32.3128 46.7012C32.3613 46.7956 32.4046 46.9192 32.5198 46.9483C32.6718 46.9211 32.8012 46.8299 32.9325 46.7542C33.0923 46.6565 33.263 46.5783 33.4131 46.4651C33.5496 46.566 33.637 46.7148 33.7385 46.8467C34.0419 47.2362 34.3207 47.6437 34.6235 48.0338C34.6972 48.1418 34.7955 48.2389 34.8395 48.3637C34.6681 48.625 34.4462 48.8508 34.2851 49.1199C34.2263 49.2034 34.313 49.2849 34.3647 49.3444C34.5264 49.5087 34.7095 49.651 34.8712 49.816C35.2833 50.2319 35.74 50.6026 36.1508 51.0199C36.2498 51.113 36.3416 51.2223 36.4697 51.276C36.5228 51.2916 36.5668 51.2443 36.6082 51.2204C36.9025 50.9798 37.1237 50.6654 37.4032 50.4098C37.858 50.6861 38.2772 51.016 38.7203 51.3123C38.8141 51.3731 38.9021 51.4423 38.9816 51.5206C38.8626 51.7457 38.774 51.9857 38.6536 52.2102C38.6012 52.3059 38.5657 52.4172 38.5954 52.5265C38.7397 52.6384 38.9247 52.6772 39.0877 52.7555C39.5625 52.969 40.0497 53.1507 40.5361 53.3364C40.8589 53.48 41.1934 53.5939 41.5175 53.7355C41.5906 53.6806 41.6669 53.6217 41.6941 53.5311C41.7808 53.2931 41.8914 53.0647 41.9755 52.8254C42.011 52.7484 42.0324 52.65 42.1139 52.6093C42.2284 52.6132 42.3397 52.641 42.4516 52.6598C42.764 52.7231 43.081 52.7568 43.3941 52.8182C43.7202 52.8784 44.0442 52.9502 44.3748 52.9858C44.4123 53.2038 44.3619 53.4218 44.3535 53.6398C44.3489 53.8022 44.2972 53.962 44.3179 54.125C44.3561 54.2194 44.4718 54.2214 44.5572 54.224C45.0127 54.2194 45.4674 54.2201 45.9222 54.222H45.928H45.9338C46.3886 54.2201 46.844 54.2194 47.2988 54.224C47.3848 54.2214 47.5 54.2194 47.5381 54.125C47.5588 53.962 47.5071 53.8022 47.5026 53.6398C47.4942 53.4218 47.4437 53.2038 47.4812 52.9858C47.8118 52.9502 48.1359 52.8784 48.4626 52.8182C48.775 52.7568 49.092 52.7231 49.4051 52.6598C49.5164 52.641 49.6276 52.6132 49.7421 52.6093C49.8236 52.65 49.845 52.7484 49.8806 52.8254C49.9647 53.0647 50.0753 53.2931 50.162 53.5311C50.1891 53.6217 50.2661 53.6806 50.3386 53.7355C50.6627 53.5939 50.9978 53.48 51.3206 53.3364C51.8064 53.1507 52.2935 52.969 52.7683 52.7555C52.9313 52.6772 53.1163 52.6384 53.2612 52.5265C53.2904 52.4172 53.2548 52.3059 53.2024 52.2102C53.0821 51.9857 52.9934 51.7457 52.8744 51.5206C52.954 51.4423 53.0426 51.3731 53.1358 51.3123C53.5782 51.016 53.9981 50.6861 54.4528 50.4098C54.7323 50.6654 54.9535 50.9798 55.2479 51.2204C55.2893 51.2443 55.3339 51.2916 55.387 51.276C55.5144 51.2223 55.6069 51.113 55.7052 51.0199C56.1167 50.6026 56.5727 50.2319 56.9848 49.816C57.1465 49.651 57.3302 49.5087 57.492 49.3444C57.5431 49.2849 57.6298 49.2034 57.5715 49.1199C57.4105 48.8508 57.1879 48.625 57.0165 48.3637C57.0611 48.2389 57.1588 48.1418 57.2326 48.0338C57.5353 47.6437 57.8148 47.2362 58.1169 46.8467C58.2197 46.7148 58.3064 46.566 58.4429 46.4651C58.593 46.5783 58.7638 46.6565 58.9235 46.7542C59.0555 46.8299 59.1842 46.9211 59.3363 46.9483C59.4514 46.9192 59.4948 46.7956 59.5433 46.7012C59.7846 46.1571 60.0543 45.6273 60.3131 45.0923C60.4399 44.851 60.533 44.5923 60.6741 44.3575C60.7058 44.2954 60.7504 44.2358 60.7588 44.1647C60.7549 44.0961 60.6702 44.0916 60.623 44.0677C60.3325 43.9609 59.9385 43.7966 59.6468 43.7009C59.6468 43.7009 60.4968 43.6646 60.8629 43.6265C61.0176 43.2416 61.658 41.8152 61.8948 39.672Z" fill="white"/>
<path fill-rule="evenodd" clip-rule="evenodd" d="M35.1913 28.0209C35.6797 28.1257 36.161 28.2635 36.6507 28.3573C36.9825 28.1263 37.2652 27.8307 37.5913 27.59C37.8623 27.3507 38.1864 27.1767 38.4439 26.9218C38.4439 26.9218 38.1981 26.3286 38.0603 26.0388C38.035 25.9696 37.9626 25.9456 37.8979 25.9275C37.3843 25.7884 36.8609 25.683 36.3492 25.5361C36.4857 25.8499 36.9379 26.6714 36.9379 26.6714C36.192 27.1967 35.518 27.7414 35.1913 28.0209Z" fill="white"/>
<path fill-rule="evenodd" clip-rule="evenodd" d="M36.6476 26.5689L36.1495 25.5811C36.0026 25.6018 34.9469 26.4608 34.4837 26.9622L35.0368 27.8226L36.6476 26.5689Z" fill="white"/>
<path fill-rule="evenodd" clip-rule="evenodd" d="M34.731 28.0812L34.2161 27.1963C32.9831 28.3568 32.4293 29.3608 32.4293 29.3608C32.5975 29.6571 32.7948 30.0129 32.9565 30.313C33.6934 29.1965 34.6611 28.1828 34.731 28.0812Z" fill="white"/>
<path fill-rule="evenodd" clip-rule="evenodd" d="M36.3627 28.6735C36.0677 28.5894 35.0896 28.3306 34.9143 28.3105C34.9143 28.3105 33.9343 29.3119 33.1994 30.4654C33.1994 30.4654 34.7998 30.587 34.7752 30.5863C35.5218 29.5694 36.2431 28.8171 36.3627 28.6735Z" fill="white"/>
<path fill-rule="evenodd" clip-rule="evenodd" d="M32.8268 30.6499C32.6683 30.3303 32.4477 29.9325 32.3002 29.6084C32.2853 29.6078 31.2988 31.1215 30.8369 32.4004L31.7458 33.2006C32.1404 31.8777 32.8268 30.6499 32.8268 30.6499Z" fill="white"/>
<path fill-rule="evenodd" clip-rule="evenodd" d="M34.6523 30.8629C34.2778 30.8461 33.0519 30.751 33.0519 30.751C32.5991 31.4833 32.1048 32.865 31.9703 33.2752L33.4368 33.3425C33.8482 32.0791 34.5294 31.0861 34.6523 30.8629Z" fill="white"/>
<path fill-rule="evenodd" clip-rule="evenodd" d="M31.6232 33.6281L30.6664 32.7852C30.3579 33.7691 30.1877 34.6702 29.9956 35.682L31.1762 36.5035L31.6232 33.6281Z" fill="white"/>
<path fill-rule="evenodd" clip-rule="evenodd" d="M31.8654 33.7043C31.6235 34.8279 31.4346 36.2162 31.4249 36.5034L32.7568 36.1502C32.8797 34.813 33.1094 34.1254 33.2866 33.7049C32.8131 33.7023 32.3383 33.703 31.8654 33.7043Z" fill="white"/>
<path fill-rule="evenodd" clip-rule="evenodd" d="M31.0939 36.9254L29.9366 36.1006C29.7859 37.8614 29.8933 39.0983 29.8933 39.0983L31.1153 39.5583C31.0538 38.6959 31.0034 37.7858 31.0939 36.9254Z" fill="white"/>
<path fill-rule="evenodd" clip-rule="evenodd" d="M32.6784 36.6689L31.3361 37.0163C31.3147 37.4368 31.2636 38.5941 31.3691 39.5231L32.7606 39.1608C32.5937 37.8605 32.6881 36.8488 32.6784 36.6689Z" fill="white"/>
<path fill-rule="evenodd" clip-rule="evenodd" d="M50.0559 39.7891C49.8799 39.8699 49.7473 40.0148 49.6147 40.1507C49.5577 40.218 49.4808 40.2949 49.5073 40.3913C49.5881 40.8739 49.6321 41.3656 49.7725 41.8365C49.7867 41.9089 49.8443 41.9516 49.9109 41.9756C50.1018 41.5939 50.1251 41.1501 50.0934 40.7309C50.0429 40.4185 50.0869 40.1022 50.0559 39.7891Z" fill="white"/>
<path fill-rule="evenodd" clip-rule="evenodd" d="M44.2953 40.1504C44.1232 40.2048 43.966 40.2927 43.814 40.3865C43.8172 40.7896 43.8056 41.1932 43.8528 41.5936C43.8767 41.8 44.0747 41.974 44.2849 41.9559C44.6245 41.9514 44.9654 41.9676 45.3051 41.9469C45.525 41.9255 45.6622 41.7392 45.8258 41.6182C45.9558 41.736 46.0555 41.9164 46.2418 41.9494C46.4921 41.9637 46.7729 42.0025 46.9831 41.8324C47.0569 41.8835 47.1248 41.9591 47.2205 41.9604C47.3409 41.976 47.4463 41.9087 47.5504 41.8602C47.6358 41.9067 47.7212 41.9714 47.8241 41.9617C47.936 41.963 48.0246 41.8854 48.1145 41.8304C48.1967 41.8886 48.2801 41.9598 48.3862 41.9578C48.5506 41.9637 48.7162 41.9637 48.8792 41.9423C49.1024 41.9016 49.2272 41.6732 49.266 41.4681C49.3165 41.1259 49.268 40.741 49.026 40.4771C48.9063 40.5994 48.7802 40.7236 48.7058 40.8808C48.7763 41.0503 49.0383 41.1415 48.9587 41.3569C48.764 41.3873 48.559 41.4067 48.3675 41.3498C48.2168 41.2728 48.2168 41.0671 48.0874 40.9674C47.9496 41.0418 48.0104 41.2974 47.8215 41.309C47.6449 41.3355 47.6507 41.1085 47.5815 41.0011C47.5608 41.0024 47.52 41.005 47.4993 41.0063C47.4398 41.0942 47.4204 41.201 47.3654 41.2909C47.3337 41.3381 47.2658 41.364 47.2134 41.3368C47.0627 41.2695 47.1099 41.0341 46.943 40.9875C46.8738 41.1098 46.8486 41.2793 46.714 41.3485C46.4844 41.4248 46.2133 41.3666 46.0406 41.1932C45.8316 40.9907 45.6013 40.8018 45.4513 40.5476C45.6822 40.4706 45.9216 40.4234 46.1473 40.3341C46.181 40.1744 46.2062 40.0126 46.2211 39.8496C45.8685 39.9246 45.5257 40.0379 45.1757 40.1252C45.1013 40.1524 45.0081 40.1608 44.9564 40.2274C44.913 40.3801 44.9066 40.5405 44.8749 40.6951C45.0424 40.8943 45.2663 41.0515 45.3846 41.2896C45.155 41.4345 44.8775 41.3517 44.6245 41.3756C44.5139 41.3743 44.3315 41.3912 44.303 41.2495C44.2797 40.884 44.3127 40.5166 44.2953 40.1504Z" fill="white"/>
<path fill-rule="evenodd" clip-rule="evenodd" d="M46.1634 39.7415C46.2222 39.7292 46.2591 39.6826 46.2921 39.6367C45.9706 39.6788 45.6653 39.7997 45.3515 39.8774C45.2267 39.9214 45.0682 39.9214 44.9893 40.0456C45.1102 40.0397 45.2293 40.0139 45.3438 39.9763C45.6148 39.8903 45.8917 39.8237 46.1634 39.7415Z" fill="white"/>
<path fill-rule="evenodd" clip-rule="evenodd" d="M50.7361 41.348C50.5698 41.3273 50.5944 41.0653 50.4139 41.0776C50.3622 41.2801 50.3227 41.4968 50.3796 41.7025C50.4295 41.8422 50.5672 41.9593 50.7212 41.9554C50.8687 41.96 51.0175 41.9619 51.1643 41.9496C51.4186 41.9218 51.6249 41.6941 51.6456 41.4424C51.656 41.2445 51.6715 41.0329 51.577 40.8512C51.4852 40.6765 51.35 40.5277 51.2077 40.3925C51.1443 40.3272 51.0569 40.2974 50.9696 40.2812C50.8836 40.4436 50.8021 40.6099 50.7044 40.7671C50.9308 40.9521 51.2077 41.0718 51.4037 41.293C51.2044 41.4153 50.956 41.3868 50.7361 41.348Z" fill="white"/>
<path fill-rule="evenodd" clip-rule="evenodd" d="M42.6138 41.1686C42.7005 41.2443 42.6067 41.3672 42.5116 41.3633C42.41 41.3782 42.355 41.276 42.291 41.2178C42.3576 41.1059 42.5245 41.0528 42.6138 41.1686ZM42.8997 41.3148C43.0071 41.3556 43.0893 41.4358 43.1591 41.5244C43.1216 41.5555 43.0841 41.5846 43.0433 41.6124C42.9657 41.5982 42.892 41.5684 42.8169 41.5432C42.8428 41.4662 42.8706 41.3899 42.8997 41.3148ZM41.2734 41.7858C41.4436 41.822 41.5846 41.952 41.7644 41.9546C41.9151 41.9611 42.0665 41.9604 42.2185 41.9514C42.3537 41.9436 42.4728 41.8725 42.5924 41.8149C42.7011 41.8718 42.8066 41.9494 42.9327 41.9572C43.0226 41.9591 43.1332 41.9773 43.1986 41.899C43.3972 41.6997 43.4632 41.3556 43.3021 41.1136C43.132 40.8504 42.848 40.6925 42.5769 40.5508C42.4999 40.514 42.4249 40.4629 42.3382 40.459C42.214 40.6214 42.1661 40.8232 42.1157 41.0173C42.0769 41.1298 42.0419 41.2456 42.0303 41.3659C41.745 41.3892 41.4584 41.3815 41.1725 41.3892C40.9648 41.3989 40.7481 41.4468 40.5832 41.5807C40.4978 41.6486 40.4208 41.7437 40.4156 41.8569C40.4105 41.963 40.5017 42.0581 40.6058 42.0633C40.7992 42.0775 40.9933 42.0581 41.1867 42.0808C41.1867 42.1112 41.188 42.172 41.188 42.203C40.9176 42.2347 40.6453 42.2237 40.3736 42.2237C40.1485 42.2315 39.8949 42.1862 39.7526 41.9941C39.6264 41.8395 39.6905 41.6325 39.6756 41.4513C39.6096 41.395 39.5475 41.472 39.5029 41.518C39.3961 41.657 39.3702 41.8395 39.3463 42.0083C39.3127 42.2574 39.4052 42.5413 39.6322 42.6707C39.8787 42.815 40.1743 42.7833 40.4473 42.7846C40.7333 42.7846 41.0451 42.7574 41.2773 42.5737C41.4494 42.4333 41.5251 42.1137 41.3161 41.9721C41.1104 41.866 40.8672 41.9397 40.6466 41.8938C40.6472 41.8692 40.6479 41.8194 40.6492 41.7948C40.8536 41.7515 41.0677 41.7431 41.2734 41.7858Z" fill="white"/>
<path fill-rule="evenodd" clip-rule="evenodd" d="M52.6579 24.3927L52.446 24.1802L52.6709 23.9561L52.8827 24.1679L52.6579 24.3927Z" fill="white"/>
<path fill-rule="evenodd" clip-rule="evenodd" d="M43.0379 25.8259L42.7457 25.7573L42.8189 25.4482L43.1105 25.5169L43.0379 25.8259Z" fill="white"/>
<path fill-rule="evenodd" clip-rule="evenodd" d="M51.696 26.552L51.4845 26.3398L51.3325 26.4919L51.1811 26.3398L50.9566 26.5643L51.1688 26.7765L51.3202 26.6245L51.4715 26.7765L51.696 26.552Z" fill="white"/>
<path fill-rule="evenodd" clip-rule="evenodd" d="M50.5303 26.3806L50.4157 26.1033L50.2174 26.1855L50.1352 25.9873L49.8417 26.1085L49.9563 26.3857L50.1546 26.3035L50.2369 26.5017L50.5303 26.3806Z" fill="white"/>
<path fill-rule="evenodd" clip-rule="evenodd" d="M48.5152 25.8529L48.3444 25.6071L48.1685 25.7293L48.0456 25.5527L47.7855 25.7339L47.9563 25.9797L48.1323 25.8574L48.2545 26.034L48.5152 25.8529Z" fill="white"/>
<path fill-rule="evenodd" clip-rule="evenodd" d="M44.2684 21.8384L43.9833 21.7471L43.9172 21.9511L43.7131 21.8857L43.616 22.1889L43.9023 22.2803L43.9671 22.0755L44.1718 22.141L44.2684 21.8384Z" fill="white"/>
<path fill-rule="evenodd" clip-rule="evenodd" d="M38.4085 25.8792L38.3554 25.5838L38.1442 25.622L38.106 25.4102L37.7937 25.4665L37.8468 25.7613L38.058 25.7237L38.0956 25.9349L38.4085 25.8792Z" fill="white"/>
</svg>
