<svg width="70" height="53" viewBox="0 0 70 53" fill="none" xmlns="http://www.w3.org/2000/svg">
<path d="M47.7837 42.3542C48.1089 42.3542 48.3598 42.2491 48.5363 42.039C48.675 41.8597 48.7443 41.6534 48.7443 41.4203C48.7443 41.2742 48.6889 41.0757 48.5779 40.8246C48.5325 40.7298 48.414 40.5069 48.2224 40.1558L47.7572 40.494L48.0862 41.1013C48.1493 41.2089 48.1808 41.3037 48.1808 41.3857C48.1808 41.5907 48.0446 41.6931 47.7723 41.6931H47.1785V42.3542H47.7837ZM48.7405 43.5917V43.0075H48.1581V43.5917H48.7405ZM47.9539 43.5917V43.0075H47.3676V43.5917H47.9539ZM48.3434 44.3489V43.7647H47.7572V44.3489H48.3434ZM45.5938 39.1066V38.5148H45.0113V39.1066H45.5938ZM45.9834 39.8561V39.2719H45.4047V39.8561H45.9834ZM45.1929 39.8561V39.2719H44.6104V39.8561H45.1929ZM43.4607 44.3796C44.7542 43.6955 45.5938 43.0614 45.9796 42.4772C46.1031 42.2953 46.1775 42.1287 46.2027 41.9776C46.4095 42.2286 46.6793 42.3542 47.0121 42.3542H47.3449V41.6931H47.0424C46.6465 41.6931 46.3414 41.4792 46.1271 41.0513L45.6921 40.2135L45.1929 40.5363L45.5598 41.2204C45.643 41.369 45.6846 41.51 45.6846 41.6432C45.6846 41.779 45.6329 41.9276 45.5295 42.089C45.1664 42.6219 44.3823 43.2125 43.177 43.8608L43.4607 44.3796ZM40.4652 44.1298C42.2731 43.2433 43.177 42.3542 43.177 41.4626C43.177 40.9424 43.032 40.5414 42.7421 40.2596C42.5126 40.0341 42.2655 39.9214 42.0008 39.9214C41.7612 39.9214 41.5551 40.0072 41.3824 40.1789C41.2097 40.3506 41.1233 40.5555 41.1233 40.7938C41.1233 41.1218 41.2116 41.3748 41.3881 41.5529C41.5646 41.7309 41.8116 41.82 42.1293 41.82H42.5681C42.384 42.1787 41.9919 42.5553 41.3918 42.9499C40.9985 43.2087 40.5938 43.4367 40.1778 43.634L40.4652 44.1298ZM42.6097 41.1743H42.031C41.7461 41.1743 41.6036 41.0577 41.6036 40.8246C41.6036 40.7323 41.649 40.6555 41.7398 40.594C41.8205 40.5325 41.9075 40.5017 42.0008 40.5017C42.1117 40.5017 42.234 40.5619 42.3676 40.6824C42.5214 40.8207 42.6021 40.9847 42.6097 41.1743ZM38.9939 42.7116C39.2158 42.7116 39.4056 42.6348 39.5632 42.481C39.7208 42.3273 39.7995 42.1415 39.7995 41.9237C39.7995 41.4626 39.4541 40.8297 38.7632 40.0252C38.385 39.5998 38.0182 39.2296 37.6626 38.9145L37.2163 39.2873L37.5605 39.6255C37.2907 39.6716 37.0701 39.8074 36.8986 40.0329C36.7524 40.2276 36.6793 40.4261 36.6793 40.6286C36.6793 41.0539 36.8104 41.4049 37.0726 41.6816C37.0334 41.6876 36.892 41.6912 36.6484 41.6926L36.1687 41.6931V42.3542H36.5658C36.939 42.3542 37.2693 42.285 37.5567 42.1467C37.7105 42.2543 37.9148 42.3657 38.1694 42.481C38.5149 42.6348 38.7897 42.7116 38.9939 42.7116ZM37.6664 41.4818C37.5177 41.41 37.3985 41.296 37.309 41.1397C37.2195 40.9834 37.1747 40.8207 37.1747 40.6516C37.1747 40.5184 37.2302 40.4031 37.3412 40.3057C37.4521 40.2084 37.5756 40.1597 37.7118 40.1597C37.8606 40.1597 37.9917 40.2045 38.1051 40.2942C38.2262 40.3941 38.2867 40.5133 38.2867 40.6516C38.2867 41.0385 38.0799 41.3152 37.6664 41.4818ZM38.9977 42.1543C38.7733 42.1543 38.4783 42.0326 38.1127 41.7892C38.2363 41.7252 38.3585 41.6124 38.4796 41.451C38.6208 41.2537 38.6876 41.0552 38.68 40.8553C38.7985 40.9757 38.9246 41.1346 39.0582 41.3319C39.2146 41.565 39.2927 41.7341 39.2927 41.8392C39.2927 42.0493 39.1944 42.1543 38.9977 42.1543ZM34.1263 38.8991V38.3149H33.5401V38.8991H34.1263ZM34.5083 39.6524V39.0643H33.9297V39.6524H34.5083ZM33.7292 39.6524V39.0643H33.143V39.6524H33.7292ZM33.2526 42.3926C33.5224 42.3926 33.7443 42.2363 33.9183 41.9237C34.0721 42.2338 34.3066 42.3888 34.6218 42.3888C34.9193 42.3888 35.1551 42.2325 35.329 41.9199C35.3946 42.0531 35.5081 42.1595 35.6694 42.2389C35.8207 42.3158 35.9745 42.3542 36.1309 42.3542H36.3389V41.6931H36.0401C35.6594 41.6931 35.469 41.4459 35.469 40.9514V40.3326H34.9433V41.3357C34.9433 41.5971 34.8449 41.7277 34.6483 41.7277C34.2474 41.7277 34.0469 41.3588 34.0469 40.6209V40.3365H33.5136V41.3357C33.5136 41.5971 33.4228 41.7277 33.2413 41.7277C32.8606 41.7277 32.6702 41.3588 32.6702 40.6209V40.3365H32.1369V41.3357C32.1369 41.574 32.0096 41.6931 31.7549 41.6931H31.3805V42.3542H31.7852C32.113 42.3542 32.35 42.2107 32.4962 41.9237C32.6525 42.2363 32.9047 42.3926 33.2526 42.3926ZM29.2436 42.3542C29.7731 42.3542 30.116 42.1787 30.2723 41.8277C30.3732 41.9788 30.5219 42.1044 30.7186 42.2043C30.9153 42.3042 31.1056 42.3542 31.2897 42.3542H31.5469V41.6931H31.3767C31.1296 41.6931 30.9304 41.6496 30.7791 41.5625C30.5673 41.4369 30.3631 41.1807 30.1664 40.7938L29.5386 39.5717C29.473 39.4384 29.4402 39.3398 29.4402 39.2757C29.4402 39.1937 29.5197 39.1297 29.6785 39.0836L31.6641 38.5032L31.4599 37.9998L29.4629 38.6032C29.0721 38.7159 28.8767 38.9362 28.8767 39.2642C28.8767 39.3949 28.917 39.5358 28.9977 39.687L29.6407 40.9514C29.734 41.1384 29.7806 41.2858 29.7806 41.3934C29.7806 41.5932 29.6104 41.6931 29.27 41.6931H28.7179V42.3542H29.2436ZM26.649 42.3542C27.1684 42.3542 27.4887 42.1825 27.6097 41.8392C27.8744 42.1825 28.2312 42.3542 28.68 42.3542H28.8843V41.6931H28.7292C28.4241 41.6931 28.1783 41.6201 27.9917 41.4741C27.8303 41.3562 27.6752 41.1487 27.5265 40.8515L26.6868 39.1796L26.1914 39.4986L27.031 41.1512C27.0915 41.264 27.1218 41.3549 27.1218 41.4241C27.1218 41.6035 26.968 41.6931 26.6604 41.6931H25.3933C25.1916 41.6931 24.995 41.583 24.8033 41.3626L24.4478 41.747C24.5386 41.9468 24.6936 42.1005 24.913 42.2081C25.1172 42.3055 25.3316 42.3542 25.556 42.3542H26.649ZM22.5832 42.3542C22.9186 42.3542 23.201 42.2837 23.4304 42.1428C23.7204 41.9532 23.8654 41.6829 23.8654 41.3319C23.8654 40.9757 23.6498 40.6337 23.2186 40.3057C22.8227 40.0059 22.4571 39.8561 22.1218 39.8561C21.8495 39.8561 21.6301 39.9829 21.4637 40.2365C21.325 40.4569 21.2557 40.7131 21.2557 41.0052C21.2557 41.9045 21.6982 42.3542 22.5832 42.3542ZM22.5529 41.6931C22.326 41.6931 22.147 41.6419 22.0159 41.5394C21.8621 41.4216 21.7852 41.2537 21.7852 41.0359C21.7852 40.8925 21.8129 40.7592 21.8684 40.6362C21.939 40.4876 22.0361 40.4133 22.1596 40.4133C22.3159 40.4133 22.5466 40.5133 22.8517 40.7131C23.177 40.9386 23.3396 41.1372 23.3396 41.3088C23.3396 41.565 23.0774 41.6931 22.5529 41.6931ZM69.0885 47.4385V46.8544H68.5061V47.4385H69.0885ZM68.8238 50.9743C69.207 50.9743 69.5008 50.8539 69.705 50.6131C69.9017 50.3799 70 50.0686 70 49.6792C70 49.2538 69.8941 48.8836 69.6823 48.5685C69.4478 48.2123 69.1301 48.0342 68.7292 48.0342C68.5124 48.0342 68.327 48.1354 68.1732 48.3379C68.0295 48.5275 67.9602 48.7401 67.9652 48.9758C67.9702 49.2551 68.0604 49.4735 68.2356 49.6311C68.4109 49.7887 68.6397 49.8675 68.9221 49.8675H69.4478C69.41 50.1647 69.2171 50.3133 68.8691 50.3133H67.534V50.9743H68.8238ZM69.4327 49.2602H68.854C68.5565 49.2602 68.4077 49.1667 68.4077 48.9797C68.4077 48.8746 68.4405 48.7856 68.5061 48.7126C68.5716 48.6396 68.6561 48.603 68.7595 48.603C69.0242 48.603 69.2486 48.8221 69.4327 49.2602ZM66.4788 48.4263V47.8421H65.8964V48.4263H66.4788ZM65.9266 50.9743C66.267 50.9743 66.5204 50.8321 66.6868 50.5477C66.8558 50.8321 67.1268 50.9743 67.5 50.9743H67.7005V50.3133H67.5416C67.2819 50.3133 67.1079 50.2672 67.0197 50.1749C66.9012 50.0648 66.8419 49.8508 66.8419 49.5331V48.922H66.2784V49.7138C66.2784 49.9495 66.2582 50.1019 66.2178 50.1711C66.1599 50.2659 66.0149 50.3133 65.7829 50.3133H65.5219V50.9743H65.9266ZM65.6884 50.9743V50.3133H65.2761C65.0441 50.3133 64.884 50.2441 64.7958 50.1058C64.7201 49.9982 64.6823 49.8201 64.6823 49.5716V46.6545H64.0734V49.6215C64.0734 50.5234 64.4402 50.9743 65.174 50.9743H65.6884ZM60.5711 52.7499C62.379 51.8634 63.2829 50.9743 63.2829 50.0827C63.2829 49.5626 63.1379 49.1616 62.848 48.8798C62.6185 48.6543 62.3714 48.5416 62.1067 48.5416C61.8671 48.5416 61.661 48.6274 61.4883 48.7991C61.3156 48.9707 61.2292 49.1757 61.2292 49.414C61.2292 49.7419 61.3175 49.995 61.4939 50.173C61.6704 50.3511 61.9176 50.4401 62.2353 50.4401H62.674C62.4899 50.7988 62.0978 51.1755 61.4977 51.5701C61.1044 51.8288 60.6997 52.0569 60.2837 52.2542L60.5711 52.7499ZM62.7156 49.7945H62.1369C61.852 49.7945 61.7095 49.6779 61.7095 49.4447C61.7095 49.3525 61.7549 49.2756 61.8457 49.2141C61.9264 49.1526 62.0134 49.1219 62.1067 49.1219C62.2176 49.1219 62.3399 49.1821 62.4735 49.3025C62.6273 49.4409 62.708 49.6049 62.7156 49.7945ZM57.1067 52.9998C58.3951 52.3182 59.2347 51.6828 59.6256 51.0935C59.8147 50.8065 59.9092 50.5221 59.9092 50.2403C59.9092 50.043 59.8638 49.8534 59.7731 49.6715L59.3381 48.8375L58.8389 49.1526L59.2057 49.8329C59.289 49.9841 59.3306 50.1263 59.3306 50.2595C59.3306 50.3979 59.2789 50.5465 59.1755 50.7053C58.8074 51.2434 58.0232 51.834 56.823 52.4771L57.1067 52.9998ZM54.1188 52.8729C54.8172 52.8729 55.4413 52.6539 55.9909 52.2157C56.4801 51.834 56.7247 51.4778 56.7247 51.1473C56.7247 50.7527 56.5267 50.5388 56.1309 50.5055L55.121 50.4363C54.995 50.426 54.9319 50.3671 54.9319 50.2595C54.9319 50.1954 54.9597 50.1301 55.0151 50.0635C55.348 49.6689 55.682 49.4716 56.0174 49.4716C56.1989 49.4716 56.3881 49.5229 56.5847 49.6254L56.823 49.1526C56.5633 48.981 56.2733 48.8951 55.9531 48.8951C55.6455 48.8951 55.3051 49.0617 54.9319 49.3948C54.5487 49.7381 54.357 50.0661 54.357 50.3786C54.357 50.7245 54.5676 50.9449 54.9887 51.0397C55.1324 51.0756 55.4766 51.0948 56.0212 51.0973C56.1346 51.0973 56.1914 51.1306 56.1914 51.1973C56.1914 51.2485 56.1699 51.3062 56.1271 51.3702C55.9279 51.6725 55.6102 51.8993 55.174 52.0505C54.8361 52.1786 54.4957 52.2426 54.1528 52.2426C53.1896 52.2426 52.708 51.8199 52.708 50.9743C52.708 50.8001 52.7471 50.5734 52.8253 50.2941L52.3752 50.1404C52.2617 50.4453 52.205 50.786 52.205 51.1627C52.205 51.7238 52.3878 52.1542 52.7534 52.454C53.0988 52.7333 53.554 52.8729 54.1188 52.8729ZM50.1702 50.9743V46.6545H49.5613V50.9743H50.1702ZM47.3563 50.9743C47.7269 50.9743 48.0421 50.8719 48.3018 50.6669C48.617 50.4158 48.7746 50.0596 48.7746 49.5985C48.7746 49.2961 48.6599 49.0399 48.4304 48.8298C48.2186 48.6299 47.9576 48.53 47.6475 48.53C47.3021 48.53 46.9352 48.6671 46.5469 48.9413C46.267 49.1385 46.0161 49.3755 45.7943 49.6523V46.666H45.2837V49.7407C45.2837 49.9251 45.2648 50.0596 45.2269 50.1442C45.1664 50.2569 45.0542 50.3133 44.8903 50.3133H44.5234V50.9705L47.3563 50.9743ZM47.4092 50.3133H45.73C46.4158 49.5165 47.0499 49.118 47.6324 49.118C47.7938 49.118 47.9299 49.1661 48.0408 49.2622C48.1518 49.3582 48.2073 49.4844 48.2073 49.6407C48.2073 49.8073 48.1493 49.9546 48.0333 50.0827C47.887 50.2364 47.679 50.3133 47.4092 50.3133ZM44.6899 50.9743V50.3133H44.41C44.115 50.3133 43.854 50.198 43.6271 49.9674C43.7557 49.7829 43.82 49.4998 43.82 49.118V46.6583H43.2602V48.9182C43.2602 49.3871 43.1543 49.7227 42.9425 49.9251L41.441 46.912L40.9682 47.2271L42.5076 50.1865C42.4622 50.2172 42.1886 50.2441 41.6868 50.2672C41.4372 50.2851 41.1309 50.3005 40.7678 50.3133V50.7745C40.9418 50.9077 41.2456 50.9743 41.6793 50.9743C42.4004 50.9743 42.9576 50.7719 43.351 50.3671C43.4518 50.5541 43.6057 50.7021 43.8124 50.811C44.0192 50.9199 44.2259 50.9743 44.4327 50.9743H44.6899ZM40.1815 50.9743V50.3133H38.9334C38.3787 50.3133 38.1014 50.0712 38.1014 49.5869C38.1014 49.4153 38.1808 49.2756 38.3396 49.168C38.4934 49.0783 38.6573 49.0335 38.8313 49.0335C39.1112 49.0335 39.4289 49.1321 39.7844 49.3294L40.0492 48.9067C39.6004 48.612 39.1591 48.4647 38.7254 48.4647C38.3396 48.4647 38.0282 48.5851 37.7912 48.826C37.5794 49.0412 37.4735 49.291 37.4735 49.5754C37.4735 49.8624 37.5315 50.1083 37.6475 50.3133H37.0424V50.9743H40.1815ZM37.2088 50.9743V50.3133H36.7965C36.5645 50.3133 36.4044 50.2441 36.3162 50.1058C36.2405 49.9982 36.2027 49.8201 36.2027 49.5716V46.6545H35.5938V49.6215C35.5938 50.5234 35.9607 50.9743 36.6944 50.9743H37.2088ZM32.5908 49.1603V48.58H32.0121V49.1603H32.5908ZM31.8041 49.1603V48.58H31.2179V49.1603H31.8041ZM33.8502 50.9743C34.12 50.9743 34.3432 50.8962 34.5197 50.7399C34.7088 50.5682 34.8033 50.3492 34.8033 50.0827C34.8033 49.9162 34.7504 49.7214 34.6445 49.4985L34.3154 48.8029L33.8351 49.118L34.1263 49.6907C34.1969 49.847 34.2322 49.9687 34.2322 50.0558C34.2322 50.2275 34.0872 50.3133 33.7973 50.3133H30.5598C30.174 50.3133 29.9811 50.1122 29.9811 49.7099V49.5831H29.4365V49.8521C29.4365 50.1775 29.5335 50.4459 29.7277 50.6573C29.9218 50.8687 30.179 50.9743 30.4992 50.9743H33.8502ZM24.4818 52.7499C26.2897 51.8634 27.1936 50.9743 27.1936 50.0827C27.1936 49.5626 27.0487 49.1616 26.7587 48.8798C26.5292 48.6543 26.2821 48.5416 26.0174 48.5416C25.7779 48.5416 25.5717 48.6274 25.399 48.7991C25.2263 48.9707 25.1399 49.1757 25.1399 49.414C25.1399 49.7419 25.2282 49.995 25.4047 50.173C25.5812 50.3511 25.8283 50.4401 26.146 50.4401H26.5847C26.4007 50.7988 26.0086 51.1755 25.4085 51.5701C25.0151 51.8288 24.6104 52.0569 24.1944 52.2542L24.4818 52.7499ZM26.6263 49.7945H26.0477C25.7627 49.7945 25.6203 49.6779 25.6203 49.4447C25.6203 49.3525 25.6657 49.2756 25.7564 49.2141C25.8371 49.1526 25.9241 49.1219 26.0174 49.1219C26.1283 49.1219 26.2506 49.1821 26.3843 49.3025C26.5381 49.4409 26.6188 49.6049 26.6263 49.7945ZM22.1596 50.9743V46.6545H21.5507V50.9743H22.1596ZM17.9576 52.9998C19.2461 52.3182 20.0857 51.6828 20.4766 51.0935C20.6657 50.8065 20.7602 50.5221 20.7602 50.2403C20.7602 50.043 20.7148 49.8534 20.6241 49.6715L20.1891 48.8375L19.6899 49.1526L20.0567 49.8329C20.1399 49.9841 20.1815 50.1263 20.1815 50.2595C20.1815 50.3979 20.1299 50.5465 20.0265 50.7053C19.6583 51.2434 18.8742 51.834 17.674 52.4771L17.9576 52.9998ZM17.4546 48.4455V47.8498H16.8722V48.4455H17.4546ZM16.6604 48.4455V47.8498H16.0779V48.4455H16.6604ZM16.7095 50.9743C17.0348 50.9743 17.2857 50.8693 17.4622 50.6592C17.6009 50.4798 17.6702 50.2736 17.6702 50.0404C17.6702 49.8944 17.6147 49.6958 17.5038 49.4447C17.4584 49.3499 17.3399 49.127 17.1483 48.776L16.6831 49.1142L17.0121 49.7214C17.0751 49.8291 17.1067 49.9239 17.1067 50.0058C17.1067 50.2108 16.9705 50.3133 16.6982 50.3133H16.1044V50.9743H16.7095ZM14.497 50.9743C14.8374 50.9743 15.0908 50.8321 15.2572 50.5477C15.4261 50.8321 15.6972 50.9743 16.0703 50.9743H16.2708V50.3133H16.112C15.8522 50.3133 15.6783 50.2672 15.59 50.1749C15.4715 50.0648 15.4123 49.8508 15.4123 49.5331V48.922H14.8487V49.7138C14.8487 49.9495 14.8285 50.1019 14.7882 50.1711C14.7302 50.2659 14.5852 50.3133 14.3533 50.3133H14.0923V50.9743H14.497ZM15.2723 52.2196V51.6431H14.6974V52.2196H15.2723ZM14.2587 50.9743V50.3133H13.8464C13.6145 50.3133 13.4544 50.2441 13.3661 50.1058C13.2905 49.9982 13.2526 49.8201 13.2526 49.5716V46.6545H12.6437V49.6215C12.6437 50.5234 13.0106 50.9743 13.7443 50.9743H14.2587ZM10.4387 50.9743C10.8094 50.9743 11.1246 50.8719 11.3843 50.6669C11.6994 50.4158 11.857 50.0596 11.857 49.5985C11.857 49.2961 11.7423 49.0399 11.5129 48.8298C11.3011 48.6299 11.0401 48.53 10.73 48.53C10.3845 48.53 10.0177 48.6671 9.62935 48.9413C9.34947 49.1385 9.09859 49.3755 8.8767 49.6523V46.666H8.36611V49.7407C8.36611 49.9251 8.3472 50.0596 8.30938 50.1442C8.24887 50.2569 8.13666 50.3133 7.97277 50.3133H7.6059V50.9705L10.4387 50.9743ZM10.4917 50.3133H8.81241C9.49823 49.5165 10.1324 49.118 10.7148 49.118C10.8762 49.118 11.0124 49.1661 11.1233 49.2622C11.2342 49.3582 11.2897 49.4844 11.2897 49.6407C11.2897 49.8073 11.2317 49.9546 11.1157 50.0827C10.9695 50.2364 10.7615 50.3133 10.4917 50.3133ZM7.77232 50.9743V50.3133H7.36006C7.12809 50.3133 6.96798 50.2441 6.87973 50.1058C6.80408 49.9982 6.76626 49.8201 6.76626 49.5716V46.6545H6.15734V49.6215C6.15734 50.5234 6.52421 50.9743 7.25794 50.9743H7.77232ZM3.15431 49.1603V48.58H2.57564V49.1603H3.15431ZM2.36762 49.1603V48.58H1.78139V49.1603H2.36762ZM4.41377 50.9743C4.68356 50.9743 4.90671 50.8962 5.08321 50.7399C5.27232 50.5682 5.36687 50.3492 5.36687 50.0827C5.36687 49.9162 5.31392 49.7214 5.20802 49.4985L4.87897 48.8029L4.39864 49.118L4.68986 49.6907C4.76046 49.847 4.79576 49.9687 4.79576 50.0558C4.79576 50.2275 4.65078 50.3133 4.36082 50.3133H1.1233C0.737519 50.3133 0.544629 50.1122 0.544629 49.7099V49.5831H0V49.8521C0 50.1775 0.0970751 50.4459 0.291225 50.6573C0.485376 50.8687 0.742562 50.9743 1.06278 50.9743H4.41377Z" fill="white"/>
<path fill-rule="evenodd" clip-rule="evenodd" d="M38.1504 1.37709L39.353 0.823991C39.4222 0.794234 39.4267 0.725662 39.45 0.648682C39.0522 0.828519 38.6504 1.00253 38.2623 1.20307C38.1899 1.23154 38.1763 1.31305 38.1504 1.37709Z" fill="white"/>
<path fill-rule="evenodd" clip-rule="evenodd" d="M40.1199 1.67652L41.4434 1.68364C41.5185 1.68493 41.5515 1.62542 41.6052 1.56526C41.1685 1.56008 40.7312 1.54844 40.2952 1.56591C40.2163 1.56138 40.1697 1.6293 40.1199 1.67652Z" fill="white"/>
<mask id="mask0_4471_6092" style="mask-type:alpha" maskUnits="userSpaceOnUse" x="32" y="0" width="2" height="2">
<path d="M32.8459 0.0944824H33.989V1.04995H32.8459V0.0944824Z" fill="white"/>
</mask>
<g mask="url(#mask0_4471_6092)">
<path fill-rule="evenodd" clip-rule="evenodd" d="M32.8459 1.04987L33.9263 0.283938C33.9884 0.24189 33.98 0.173965 33.989 0.09375C33.6306 0.3441 33.2684 0.589921 32.9236 0.857737C32.8576 0.899785 32.8595 0.982588 32.8459 1.04987Z" fill="white"/>
</g>
<path fill-rule="evenodd" clip-rule="evenodd" d="M31.1917 1.64812L32.1672 0.957231C32.2235 0.919064 32.2163 0.857609 32.2241 0.785156C31.9007 1.01092 31.5733 1.23216 31.2622 1.47475C31.2026 1.51227 31.2046 1.58731 31.1917 1.64812Z" fill="white"/>
<path fill-rule="evenodd" clip-rule="evenodd" d="M27.75 3.51017L28.3464 2.82316C28.3814 2.78435 28.3665 2.72677 28.3613 2.6582C28.1634 2.88268 27.9609 3.10327 27.7739 3.34327C27.7364 3.38079 27.7493 3.45195 27.75 3.51017Z" fill="white"/>
<path fill-rule="evenodd" clip-rule="evenodd" d="M31.1079 5.38389L31.6249 4.90966C31.6547 4.88374 31.6508 4.83321 31.6553 4.7749C31.4837 4.92974 31.31 5.08004 31.1455 5.24913C31.1144 5.2744 31.115 5.3353 31.1079 5.38389Z" fill="white"/>
<path fill-rule="evenodd" clip-rule="evenodd" d="M33.5942 4.55985L34.8544 3.81657C34.9275 3.77581 34.9243 3.70012 34.9411 3.61279C34.5238 3.85538 34.1021 4.09214 33.6977 4.35608C33.6208 4.39554 33.6149 4.48675 33.5942 4.55985Z" fill="white"/>
<path fill-rule="evenodd" clip-rule="evenodd" d="M36.5283 4.95408L37.575 4.71797C37.6345 4.70632 37.6494 4.65263 37.6811 4.5957C37.335 4.67139 36.9883 4.74126 36.6467 4.83506C36.584 4.84541 36.5594 4.90751 36.5283 4.95408Z" fill="white"/>
<path fill-rule="evenodd" clip-rule="evenodd" d="M37.9427 1.17271C38.0302 1.16817 38.0982 1.09108 38.1883 1.09237C38.2563 1.08201 38.3554 1.10792 38.3898 1.02823C38.4643 0.874044 38.3788 0.698475 38.2492 0.604536C38.301 0.760021 38.3321 0.852665 38.3114 0.920042C38.2984 0.951787 38.2511 0.98094 38.2071 0.91745C38.1676 0.850721 38.128 0.783344 38.0872 0.717911C38.0769 0.806667 38.071 0.895423 38.0645 0.98418C38.0503 1.03277 37.9719 1.03601 37.9473 0.983532C37.8754 0.850721 37.9188 0.665434 37.7918 0.563721C37.7801 0.726333 37.8158 0.886353 37.8546 1.04313C37.8715 1.09237 37.8773 1.16428 37.9427 1.17271Z" fill="white"/>
<path fill-rule="evenodd" clip-rule="evenodd" d="M40.4947 2.70552C40.5776 2.73403 40.6703 2.68803 40.7519 2.72301C40.8199 2.73921 40.9015 2.80011 40.9637 2.73856C41.0901 2.62325 41.0758 2.42824 40.9916 2.29284C40.9812 2.45675 40.9754 2.55392 40.9313 2.60964C40.9074 2.63361 40.8523 2.64268 40.8355 2.56818C40.8238 2.49108 40.8121 2.41399 40.7985 2.33819C40.7558 2.41658 40.7176 2.49627 40.6787 2.5766C40.6469 2.61612 40.5724 2.58956 40.5692 2.5319C40.5523 2.38159 40.6625 2.22676 40.5821 2.08423C40.5109 2.23064 40.4837 2.39261 40.4616 2.55263C40.4584 2.60511 40.4377 2.67378 40.4947 2.70552Z" fill="white"/>
<path fill-rule="evenodd" clip-rule="evenodd" d="M36.9239 1.6987C36.9396 1.63271 36.9682 1.61201 37.0409 1.61201C37.1122 1.61201 37.1421 1.65406 37.1421 1.71228C37.1421 1.79832 36.904 1.77503 36.9239 1.6987ZM36.8134 1.79961C36.8526 1.86107 36.9396 1.87724 37.0024 1.91411C36.8476 2.05772 36.6416 2.14894 36.4968 2.3016C36.7935 2.21427 37.0623 2.03702 37.2249 1.79314C37.2769 1.71099 37.279 1.60037 37.232 1.51562C37.1871 1.4367 37.0751 1.40565 36.9881 1.4464C36.8541 1.50915 36.7828 1.66247 36.8134 1.79961Z" fill="white"/>
<path fill-rule="evenodd" clip-rule="evenodd" d="M39.6253 1.17195C39.6576 1.10725 39.688 1.09304 39.7514 1.11294C39.8135 1.13285 39.8271 1.18617 39.8109 1.2473C39.787 1.3383 39.5858 1.24659 39.6253 1.17195ZM39.5011 1.24802C39.5179 1.32337 39.5884 1.36461 39.633 1.42148C39.4577 1.52954 39.254 1.56864 39.0845 1.6895C39.3672 1.67954 39.6512 1.56793 39.8607 1.35536C39.9293 1.28356 39.9623 1.16768 39.9442 1.06531C39.9274 0.969335 39.8388 0.905353 39.7514 0.923836C39.6175 0.952273 39.5121 1.09446 39.5011 1.24802Z" fill="white"/>
<path fill-rule="evenodd" clip-rule="evenodd" d="M43.8947 3.3613C43.9361 3.29902 43.9684 3.28903 44.0286 3.32362C44.0868 3.35668 44.0926 3.41512 44.0674 3.47739C44.0299 3.57042 43.8455 3.43357 43.8947 3.3613ZM43.7608 3.41819C43.7666 3.50276 43.83 3.56043 43.8656 3.62885C43.6767 3.71035 43.4697 3.71266 43.2847 3.80876C43.5648 3.85336 43.8617 3.78877 44.1004 3.60271C44.1774 3.53967 44.2285 3.42204 44.2259 3.30902C44.2233 3.20368 44.145 3.11834 44.0564 3.12142C43.9206 3.12526 43.7951 3.25673 43.7608 3.41819Z" fill="white"/>
<path fill-rule="evenodd" clip-rule="evenodd" d="M30.2767 1.84275C30.3046 1.89912 30.3098 1.96779 30.326 2.03063C30.4121 1.92374 30.4886 1.6931 30.3298 1.62378C30.1452 1.65034 30.0247 1.83822 30.0506 2.01897C30.1316 1.90624 30.2204 1.77149 30.2767 1.84275Z" fill="white"/>
<path fill-rule="evenodd" clip-rule="evenodd" d="M35.7887 0.791241C35.8159 0.847605 35.8211 0.916277 35.8379 0.979119C35.9241 0.872223 36.0005 0.641586 35.8418 0.572266C35.6572 0.599476 35.5367 0.786706 35.5626 0.967458C35.6436 0.854731 35.7323 0.719977 35.7887 0.791241Z" fill="white"/>
<path fill-rule="evenodd" clip-rule="evenodd" d="M43.2109 4.11691C43.4652 4.13179 43.7188 4.1389 43.9736 4.1389C44.0603 4.14537 44.136 4.0975 44.2085 4.0561C43.9529 4.04251 43.6981 4.04057 43.4425 4.03346C43.3558 4.02634 43.2802 4.07162 43.2109 4.11691Z" fill="white"/>
<path fill-rule="evenodd" clip-rule="evenodd" d="M30.7425 2.01311C31.1106 2.442 31.4573 2.89095 31.7633 3.36707C31.6915 2.98475 31.5007 2.6296 31.2451 2.33785C31.1099 2.15607 31.0051 1.9523 30.8615 1.77699C30.8182 1.72524 30.7515 1.69936 30.6849 1.71101H30.6843C30.6882 1.81257 30.6649 1.9316 30.7425 2.01311Z" fill="white"/>
<path fill-rule="evenodd" clip-rule="evenodd" d="M39.3257 4.59539C39.501 4.55657 39.6763 4.51776 39.8548 4.49706C39.9383 4.49512 39.9959 4.43366 40.0521 4.38062C39.805 4.40261 39.4945 4.37609 39.3257 4.59539Z" fill="white"/>
<path fill-rule="evenodd" clip-rule="evenodd" d="M36.4153 1.44869C36.6061 1.40923 36.7827 1.31348 36.9296 1.18669C37.0279 1.10195 37.1055 0.979038 37.0997 0.84513C37.0822 0.681465 36.8597 0.581196 36.7297 0.687287C36.6973 0.719632 36.6792 0.759093 36.6715 0.801141C36.6475 0.927287 36.7769 1.03144 36.8959 0.984214C36.936 0.968041 36.9748 0.949281 37.0137 0.929874C36.8979 1.1854 36.6132 1.27402 36.4153 1.44869Z" fill="white"/>
<path fill-rule="evenodd" clip-rule="evenodd" d="M38.9652 2.27668C38.9238 2.29673 38.883 2.31872 38.8391 2.3336C38.7776 2.3142 38.7265 2.27344 38.6747 2.23722C38.7724 2.2398 38.8701 2.25274 38.9652 2.27668ZM37.5634 2.34654C37.6171 2.61371 37.5892 2.88864 37.6306 3.15775C37.4754 3.19398 37.3072 3.21338 37.1778 3.31559C37.0737 3.38805 37.0044 3.49608 36.9113 3.58018C36.866 3.59505 36.8369 3.57888 36.824 3.5336C36.7321 3.33565 36.7366 3.10923 36.6622 2.90546C36.6338 2.83366 36.54 2.81942 36.4727 2.82977C36.2773 2.86859 36.1053 2.9818 35.9597 3.11376C35.7999 3.25608 35.6285 3.40099 35.5457 3.60282C35.5049 3.73026 35.5101 3.86934 35.4448 3.98837C35.3659 4.1268 35.4208 4.28335 35.4415 4.42891C35.4745 4.61263 35.4635 4.80023 35.4719 4.98653C35.655 4.74136 35.6388 4.43279 35.613 4.14298C35.6071 4.07311 35.646 4.00648 35.7113 3.98125C35.8413 3.93144 35.9869 3.94309 36.1266 3.93338C36.2346 3.92562 36.3259 3.85058 36.3537 3.74578C36.3537 3.74513 36.3543 3.74449 36.3543 3.74319C36.3666 3.69597 36.3498 3.64422 36.3097 3.6164C36.1667 3.51807 36.0069 3.44821 35.8407 3.39904C35.9752 3.28907 36.1182 3.18104 36.2851 3.12605C36.3737 3.09371 36.4979 3.12541 36.5342 3.21985C36.5788 3.3253 36.5924 3.43915 36.6234 3.54912C36.6668 3.72314 36.7625 3.8784 36.8576 4.02848C36.9973 4.21996 37.1642 4.41856 37.4075 4.47289C37.4398 4.38104 37.4696 4.28853 37.4961 4.19538C37.3505 4.0867 37.1908 3.98837 37.0827 3.83894C37.0536 3.79171 36.9928 3.73349 37.0491 3.68174C37.1688 3.54783 37.3492 3.48379 37.5233 3.45985C37.7723 3.42815 38.002 3.55171 38.24 3.59894C38.2762 3.4909 38.3002 3.38028 38.3079 3.26643C38.1598 3.2095 38 3.17845 37.8603 3.10018C37.7587 3.0439 37.7464 2.92228 37.7348 2.81878C37.8998 2.84595 38.0667 2.90805 38.2355 2.86859C38.4179 2.83301 38.5725 2.72498 38.7362 2.64541C38.808 2.60013 38.8772 2.6674 38.9426 2.69457C39.1127 2.79225 39.3106 2.888 39.5118 2.8343C39.7376 2.78061 39.8217 2.51473 39.8094 2.30773C39.812 2.15894 39.7234 2.0328 39.625 1.92994C39.5772 2.0108 39.5176 2.0949 39.5215 2.19258C39.5649 2.31937 39.6354 2.43581 39.6735 2.56455C39.4698 2.62924 39.255 2.58395 39.0829 2.46363C39.1567 2.41641 39.2382 2.37824 39.3029 2.31743C39.3559 2.23592 39.3747 2.13824 39.4031 2.04638C39.0797 1.917 38.709 1.91894 38.3823 2.03732C38.1986 2.10784 38.1482 2.31678 38.1061 2.48692C38.2484 2.47592 38.3953 2.46234 38.5311 2.51862C38.3293 2.63506 38.0634 2.66805 37.8609 2.53608C37.7335 2.45134 37.705 2.28897 37.6895 2.14794C37.6436 1.67118 37.5957 1.18924 37.4482 0.731237C37.412 0.727356 37.4075 0.727356 37.3706 0.724121C37.2542 0.957651 37.4003 1.19442 37.4282 1.42924C37.4689 1.73587 37.5045 2.04315 37.5634 2.34654Z" fill="white"/>
<path fill-rule="evenodd" clip-rule="evenodd" d="M34.2371 2.65901C34.4642 2.75475 34.7255 2.82979 34.8601 3.05426C34.7553 3.15065 34.6279 3.25157 34.4746 3.22763C34.3445 3.22116 34.2669 3.1099 34.1932 3.01804C34.1492 3.14418 34.1349 3.37448 33.9499 3.35442C33.7856 3.3706 33.739 3.18235 33.684 3.06526C33.6051 2.82979 33.4945 2.60661 33.4175 2.37049C33.7009 2.43518 33.9726 2.54127 34.2371 2.65901ZM33.3063 2.08586L33.2791 2.08004C33.1309 1.84327 33.076 1.54117 32.8638 1.34904C32.8638 1.43831 32.8625 1.53341 32.9091 1.61427C33.107 2.00435 33.2681 2.41189 33.4421 2.81297C33.5534 3.07173 33.6265 3.35507 33.8057 3.5776C33.8665 3.663 33.9803 3.66235 34.0709 3.63388C34.1582 3.5789 34.2035 3.47992 34.2617 3.39777C34.439 3.47087 34.6596 3.54914 34.8303 3.41459C34.9811 3.30267 34.9384 3.10019 34.9384 2.93847C35.1493 2.9954 35.366 3.08661 35.5879 3.03615C35.6804 3.00833 35.7729 2.95723 35.8337 2.8796C35.9074 2.62472 35.8039 2.36596 35.7011 2.13567C35.5568 1.81028 35.4475 1.46936 35.289 1.15044C35.1861 1.16144 35.1363 1.30376 35.1661 1.39368C35.3194 1.83874 35.5872 2.234 35.7321 2.68294C35.5516 2.81621 35.3116 2.79356 35.1124 2.72111C34.6427 2.54321 34.1847 2.33879 33.7216 2.14408C33.9868 1.92155 34.2591 1.70483 34.5489 1.51594C34.7288 1.39174 34.9403 1.31476 35.102 1.16662C35.1868 1.07799 35.1156 0.956374 35.0723 0.866455C34.6906 1.12845 34.3012 1.3775 33.9215 1.64144C33.7229 1.79799 33.532 1.96877 33.3063 2.08586Z" fill="white"/>
<path fill-rule="evenodd" clip-rule="evenodd" d="M28.5655 5.28854C28.5959 5.09706 28.6438 4.90363 28.7337 4.73026C28.7919 4.67398 28.8204 4.74773 28.845 4.79431C28.8508 4.9942 28.7285 5.18051 28.5655 5.28854ZM28.2408 3.66676C28.2324 3.87636 28.4206 4.01091 28.5933 4.08466C28.8599 4.2024 29.0701 4.40876 29.2823 4.60153C29.4414 4.75291 29.6141 4.89134 29.7506 5.06406C29.4013 5.04595 29.1354 4.7969 28.8683 4.60024C28.7822 4.54266 28.7331 4.45016 28.6852 4.36218C28.636 4.37382 28.5817 4.40617 28.5364 4.3693C28.4032 4.2949 28.2757 4.21145 28.136 4.15C28.1619 4.22568 28.178 4.30913 28.2298 4.37253C28.3314 4.45339 28.453 4.50256 28.5642 4.56854C28.5157 4.74126 28.4517 4.90881 28.407 5.08218C28.3585 5.24325 28.44 5.40951 28.5422 5.53112C28.5804 5.59129 28.6613 5.57382 28.7104 5.53695C28.9174 5.39269 29.0345 5.13264 28.9938 4.88229C29.2661 5.04336 29.5184 5.27042 29.8444 5.31183C30.1575 5.36293 30.4422 5.19409 30.7242 5.08412C30.6951 4.98708 30.6531 4.89458 30.6007 4.80789C30.4105 4.88293 30.2112 4.97544 30.0023 4.93986C29.7655 4.90105 29.587 4.71927 29.4576 4.52908C29.6484 4.57695 29.8334 4.67204 30.0353 4.65846C30.2585 4.64164 30.4668 4.51938 30.6065 4.34665C30.776 4.139 30.9403 3.92682 31.1046 3.71464C31.1861 3.60854 31.3077 3.54709 31.4183 3.47722C31.3931 3.40154 31.3666 3.3252 31.3388 3.24952C31.0509 3.38278 30.7643 3.5238 30.4642 3.6286C30.4661 3.4811 30.4706 3.33038 30.4292 3.18741C30.3296 2.87949 30.1103 2.63496 29.9227 2.37879C29.8703 2.31022 29.794 2.26558 29.7215 2.22095C29.7306 2.31863 29.7338 2.42407 29.7959 2.50494C29.9596 2.74105 30.1562 2.95388 30.3083 3.19841C30.3581 3.27798 30.3898 3.38407 30.3296 3.46752C30.1892 3.67129 29.9784 3.81361 29.772 3.94428C29.792 4.03291 29.8166 4.11959 29.8438 4.20628C30.1129 4.10471 30.3704 3.97339 30.6421 3.87895C30.5133 4.08919 30.3329 4.28649 30.089 4.35765C29.8153 4.44434 29.532 4.33436 29.281 4.22633C29.0106 4.09695 28.746 3.95075 28.5015 3.77674C28.6787 3.63054 28.834 3.46105 28.9834 3.28768C29.2176 3.07097 29.4654 2.86396 29.6659 2.61361C29.7474 2.51852 29.6368 2.3555 29.5223 2.36003C29.1833 2.68477 28.8767 3.04704 28.5002 3.33167C28.3967 3.42612 28.2324 3.50375 28.2408 3.66676Z" fill="white"/>
<path fill-rule="evenodd" clip-rule="evenodd" d="M41.3214 2.63906C41.5232 2.98903 41.7418 3.34289 41.824 3.74461C41.6726 3.78795 41.4857 3.77307 41.3854 3.63787C41.3414 3.50914 41.3763 3.36812 41.366 3.23421C41.1894 3.28078 41.0548 3.40822 40.908 3.50849C40.7844 3.59065 40.7107 3.72197 40.613 3.83C40.5697 3.66375 40.5975 3.49167 40.5794 3.32348C40.5574 3.15658 40.3607 3.07054 40.21 3.11453C39.7999 3.19798 39.5016 3.53372 39.2966 3.87852C39.404 3.82547 39.5204 3.82418 39.6136 3.90504C39.4958 3.92639 39.3703 3.91733 39.2578 3.96261C39.0682 4.10946 39.0734 4.36563 39.0346 4.57976C39.0074 4.78418 38.9356 4.9776 38.8936 5.17814C39.1206 4.88509 39.162 4.50924 39.2603 4.1638C39.4344 4.15539 39.609 4.16251 39.7824 4.15733C39.9034 4.16574 39.9926 4.05965 40.0314 3.95615C40.0159 3.75755 39.7837 3.70321 39.6524 3.59518C39.8031 3.50655 39.9596 3.42051 40.1298 3.37653C40.2824 3.33577 40.4435 3.47227 40.4526 3.62429C40.4759 3.86364 40.4506 4.12046 40.5729 4.33717C40.6512 4.48013 40.8129 4.53577 40.9552 4.59334C41.0011 4.52153 41.04 4.44455 41.0658 4.3624C40.9384 4.28089 40.8135 4.18062 40.7547 4.03636C40.7204 3.96003 40.7062 3.85329 40.776 3.79183C40.9067 3.6728 41.0581 3.56736 41.2334 3.52855C41.2496 3.66957 41.1771 3.87205 41.333 3.95485C41.4811 4.05706 41.7024 4.03377 41.8195 3.89404C41.9159 3.78019 42.0181 3.63787 41.9857 3.47873C41.9534 3.16434 41.7334 2.92176 41.6345 2.63065C42.2303 2.64488 42.8138 2.78526 43.3953 2.89976C43.5182 2.92046 43.5816 2.7885 43.6314 2.69987C43.068 2.57243 42.5 2.45599 41.9243 2.40553C41.78 2.39453 41.6312 2.36801 41.4889 2.401C41.3977 2.4437 41.3427 2.54461 41.3214 2.63906Z" fill="white"/>
<path fill-rule="evenodd" clip-rule="evenodd" d="M38.792 3.13788C38.9072 3.12171 39.0178 3.15406 39.0844 3.25433C38.9764 3.25562 38.8244 3.27373 38.792 3.13788ZM37.9026 3.91287C37.66 3.90187 37.44 3.79319 37.2117 3.72656C37.3462 3.89152 37.5545 3.96203 37.7434 4.04354C38.074 4.15481 38.4634 4.19556 38.7765 4.0112C39.0392 3.87405 39.2209 3.61724 39.3044 3.33713C39.3807 3.1243 39.1854 2.86619 38.9609 2.88365C38.8231 2.916 38.7468 3.05314 38.6834 3.16764C38.64 3.26015 38.5922 3.39729 38.684 3.47557C38.792 3.57131 38.9473 3.55125 39.0806 3.56937C38.7972 3.91093 38.3133 3.94457 37.9026 3.91287Z" fill="white"/>
<path fill-rule="evenodd" clip-rule="evenodd" d="M32.5446 3.95308C32.2264 4.1161 31.8686 4.261 31.5044 4.18984C31.3712 4.1685 31.3168 4.02941 31.2295 3.94337C31.2683 4.08828 31.2909 4.25453 31.4022 4.36321C31.6099 4.51394 31.888 4.49259 32.1229 4.42725C32.4677 4.31664 32.7982 4.15168 33.0777 3.91944C33.2245 3.80365 33.3727 3.66003 33.4128 3.46985C33.4057 3.34694 33.3416 3.23826 33.2866 3.13087C33.2278 3.00731 33.0835 2.96979 32.9684 2.91675C32.9852 2.99502 32.9897 3.07783 33.0285 3.14898C33.0997 3.23049 33.1935 3.28936 33.275 3.35987C33.0628 3.59082 32.8332 3.81917 32.5446 3.95308Z" fill="white"/>
<path fill-rule="evenodd" clip-rule="evenodd" d="M41.7421 4.57186C41.3475 4.80927 40.8099 4.742 40.4619 4.44766C40.3648 4.3545 40.3105 4.22448 40.2031 4.14038C40.2141 4.22189 40.2264 4.30534 40.2665 4.37909C40.502 4.8345 41.1055 5.07191 41.581 4.86297C41.7524 4.78793 41.8411 4.61585 41.9569 4.48C42.0824 4.52076 42.2176 4.58092 42.3508 4.53628C42.5151 4.47806 42.6497 4.34286 42.7144 4.18114C42.7603 4.06146 42.7124 3.93661 42.673 3.82275C42.6122 3.86998 42.5475 3.91591 42.5074 3.98254C42.4317 4.08281 42.5041 4.20831 42.5119 4.31892C42.4006 4.3241 42.2784 4.33833 42.1794 4.27364C42.0513 4.21025 41.995 4.0731 41.9329 3.95343C41.8838 4.02006 41.823 4.08087 41.7926 4.15914C41.79 4.29693 41.8909 4.47677 41.7421 4.57186Z" fill="white"/>
<path fill-rule="evenodd" clip-rule="evenodd" d="M42.9708 4.49312C43.0937 4.48083 43.1979 4.54681 43.2108 4.6749C43.1035 4.6542 42.9767 4.62574 42.9708 4.49312ZM42.4883 5.42401C42.91 5.39102 43.3279 5.09538 43.4275 4.67102C43.467 4.52223 43.4068 4.32169 43.2406 4.28547C43.0769 4.27124 42.9547 4.40514 42.8622 4.52223C42.8039 4.59663 42.7315 4.71566 42.8227 4.79522C42.9366 4.87156 43.0789 4.88708 43.2057 4.93625C43.0478 5.13808 42.7735 5.21377 42.5271 5.19501C42.2314 5.16137 41.961 5.02487 41.6958 4.89873C41.9015 5.13808 42.1344 5.45247 42.4883 5.42401Z" fill="white"/>
<path fill-rule="evenodd" clip-rule="evenodd" d="M42.681 15.5119C42.6111 15.4543 42.5503 15.3605 42.4559 15.3489C42.2528 15.5138 42.0897 15.7228 41.9041 15.9072C41.8549 15.968 41.7437 16.0521 41.8349 16.1277C42.0328 16.3516 42.2741 16.5321 42.4843 16.7436C42.6849 16.5463 42.8796 16.3425 43.0717 16.1362C43.1112 16.0889 43.1681 16.0391 43.1474 15.9705C43.0135 15.7972 42.8298 15.6717 42.681 15.5119Z" fill="white"/>
<path fill-rule="evenodd" clip-rule="evenodd" d="M38.7197 19.0327C38.6996 19.0165 38.6821 18.9893 38.6555 18.9861C38.5979 19.0327 38.5506 19.093 38.4981 19.1455C38.4845 19.1629 38.4521 19.1869 38.4787 19.2083C38.535 19.2724 38.6037 19.3236 38.6639 19.3839C38.721 19.3275 38.776 19.2698 38.8311 19.2109C38.8421 19.1973 38.859 19.183 38.8525 19.1636C38.8143 19.1137 38.7618 19.0781 38.7197 19.0327Z" fill="white"/>
<path fill-rule="evenodd" clip-rule="evenodd" d="M37.3129 19.2459C37.2935 19.2297 37.2753 19.2031 37.2488 19.1992C37.1911 19.2465 37.1444 19.3061 37.0913 19.3586C37.0777 19.3761 37.046 19.4001 37.0719 19.4214C37.1282 19.4856 37.1969 19.5368 37.2572 19.597C37.3142 19.5413 37.3699 19.483 37.4243 19.424C37.4353 19.4104 37.4522 19.3962 37.4457 19.3767C37.4075 19.3268 37.355 19.2912 37.3129 19.2459Z" fill="white"/>
<path fill-rule="evenodd" clip-rule="evenodd" d="M37.8302 19.2459C37.8108 19.2297 37.7926 19.2031 37.7661 19.1992C37.7084 19.2465 37.6618 19.3061 37.6087 19.3586C37.5951 19.3761 37.5633 19.4001 37.5892 19.4214C37.6456 19.4856 37.7143 19.5368 37.7745 19.597C37.8315 19.5413 37.8872 19.483 37.9417 19.424C37.9527 19.4104 37.9695 19.3962 37.963 19.3767C37.9248 19.3268 37.8723 19.2912 37.8302 19.2459Z" fill="white"/>
<path fill-rule="evenodd" clip-rule="evenodd" d="M37.585 18.9107C37.5649 18.8945 37.5474 18.8673 37.5202 18.864C37.4632 18.9107 37.4159 18.9709 37.3628 19.0234C37.3492 19.0409 37.3175 19.0648 37.3434 19.0862C37.4004 19.1504 37.4684 19.2015 37.5287 19.2618C37.5857 19.2054 37.6414 19.1471 37.6965 19.0882C37.7075 19.0752 37.7237 19.061 37.7178 19.0415C37.6796 18.9916 37.6271 18.956 37.585 18.9107Z" fill="white"/>
<path fill-rule="evenodd" clip-rule="evenodd" d="M36.0299 1.16392C36.0415 1.25708 36.0713 1.34635 36.0958 1.43627C36.2052 1.86516 36.2576 2.31087 36.4193 2.72618C36.4445 2.64467 36.4736 2.55993 36.4587 2.47324C36.3895 2.0036 36.3287 1.53071 36.1955 1.074C36.1761 1.01449 36.1482 0.957562 36.1217 0.900635C36.0751 0.98085 36.0182 1.06689 36.0299 1.16392Z" fill="white"/>
<path fill-rule="evenodd" clip-rule="evenodd" d="M32.1287 2.23377C32.1953 2.06493 32.381 2.08757 32.513 2.16261C32.4082 2.25317 32.2555 2.3308 32.1287 2.23377ZM32.0776 1.9032C31.9689 2.10245 32.042 2.36703 32.1837 2.5294C32.3571 2.61091 32.535 2.48153 32.676 2.38967C32.6566 2.57857 32.6333 2.78299 32.5059 2.93371C32.4004 3.05533 32.2723 3.15754 32.1352 3.24164C31.976 3.33932 31.7852 3.36972 31.6287 3.47258C31.7069 3.49975 31.791 3.52045 31.8738 3.4991C32.1688 3.44476 32.48 3.34255 32.6728 3.09932C32.8086 2.92983 32.8202 2.70083 32.8157 2.49253C32.8235 2.19237 32.6016 1.92973 32.3403 1.80746C32.2445 1.7583 32.1229 1.80876 32.0776 1.9032Z" fill="white"/>
<path fill-rule="evenodd" clip-rule="evenodd" d="M43.7961 5.03902C43.6577 5.32883 43.4119 5.92203 43.4119 5.92203C43.67 6.17691 43.9934 6.35093 44.2651 6.59028C44.5912 6.83092 44.8739 7.12656 45.2057 7.3575C45.6954 7.2637 46.1767 7.12591 46.6651 7.02111C46.3384 6.74165 45.6644 6.19696 44.9178 5.67168C44.9178 5.67168 45.37 4.85012 45.5072 4.53638C44.9955 4.68322 44.4721 4.78867 43.9578 4.92775C43.8925 4.94586 43.8214 4.9698 43.7961 5.03902Z" fill="white"/>
<path fill-rule="evenodd" clip-rule="evenodd" d="M45.2087 5.56887L46.8195 6.82256L47.372 5.96218C46.9094 5.46084 45.8537 4.60176 45.7068 4.58105L45.2087 5.56887Z" fill="white"/>
<path fill-rule="evenodd" clip-rule="evenodd" d="M47.1255 7.08149C47.1954 7.18305 48.1631 8.19674 48.8999 9.31329C49.061 9.01313 49.259 8.65733 49.4271 8.36105C49.4271 8.36105 48.8728 7.35707 47.6404 6.19653L47.1255 7.08149Z" fill="white"/>
<path fill-rule="evenodd" clip-rule="evenodd" d="M46.9418 7.30981C46.7665 7.32987 45.7884 7.58863 45.4934 7.67272C45.6124 7.81634 46.3344 8.56868 47.0809 9.58561C47.0563 9.58689 48.6561 9.46463 48.6561 9.46463C47.9219 8.31121 46.9418 7.30981 46.9418 7.30981Z" fill="white"/>
<path fill-rule="evenodd" clip-rule="evenodd" d="M36.2816 11.379C36.3689 11.1752 36.4517 10.9223 36.6749 10.833C36.7803 10.8104 36.9078 10.8104 36.986 10.8958C37.1193 11.0154 37.107 11.2121 37.074 11.3719C37.0229 11.5847 36.9556 11.7956 36.8612 11.9929C36.7984 12.1268 36.6561 12.2167 36.5093 12.218C36.3728 12.207 36.2317 12.1313 36.1839 11.9968C36.0927 11.7891 36.2143 11.5744 36.2816 11.379ZM44.4538 10.5076C44.2423 10.4533 44.0204 10.4662 43.8056 10.4345C43.2965 10.3485 42.8146 10.1583 42.3216 10.0114C41.9238 9.8853 41.5234 9.72293 41.0977 9.73458C40.828 9.73587 40.531 9.77145 40.3227 9.96034C39.996 10.2275 39.8531 10.6441 39.7353 11.0342C39.6888 11.1739 39.7011 11.3855 39.8667 11.4333C39.8667 11.4333 40.1604 11.2406 40.3434 11.2153C40.9062 11.1455 41.4716 11.3538 41.9238 11.6811C42.017 11.7361 42.081 11.8784 41.9827 11.9593C41.6618 12.2491 41.2167 12.3403 40.7963 12.3422C40.3324 12.3403 39.868 12.3351 39.4041 12.3396C39.0244 12.348 38.646 12.3008 38.2734 12.2342C38.1097 12.1993 37.9467 12.3125 37.8885 12.4632C37.6588 12.9788 37.455 13.5053 37.2357 14.0255C37.1827 14.14 37.1296 14.2629 37.0255 14.3418C36.9058 14.4401 36.7318 14.4278 36.5921 14.3871C36.4071 14.3049 36.2499 14.1729 36.0946 14.0468C35.9879 13.9672 35.9788 13.788 36.0894 13.7091C36.1729 13.6755 36.268 13.6949 36.356 13.6891C36.5565 13.6981 36.7848 13.6451 36.9078 13.4736C37.2532 12.9891 37.4828 12.4224 37.5851 11.8376C37.5941 11.8545 37.6038 11.8726 37.6135 11.89C37.6071 11.6643 37.6931 11.4495 37.6957 11.2244C37.6976 11.0006 37.7287 10.7644 37.6388 10.5523C37.5889 10.4326 37.5268 10.3148 37.4305 10.2262C37.1251 9.90924 36.5203 10.0063 36.3217 10.397C36.1658 10.6946 36.0234 11.0025 35.9439 11.3305C35.8882 11.5427 35.8417 11.7613 35.7356 11.956C35.6877 12.044 35.5978 12.1106 35.493 12.1016C34.6889 12.0983 33.8842 12.097 33.0801 12.1022C32.8258 12.1042 32.5774 11.8959 32.5671 11.6371C32.5554 11.0226 32.58 10.4086 32.549 9.79538C32.5748 9.44412 32.5651 9.09285 32.5593 8.74094C32.5548 8.55657 32.5845 8.36897 32.5399 8.1872C32.5179 8.08887 32.3976 8.00736 32.3057 8.07593C32.0922 8.21631 31.8736 8.34763 31.6666 8.49771C31.3315 8.739 30.9776 8.95442 30.649 9.20541C30.475 9.33285 30.5158 9.63043 30.7072 9.72164C30.889 9.81673 31.0456 9.99139 31.0346 10.2088C31.0326 11.0497 31.0385 11.8913 31.0307 12.7323C31.0333 12.9303 31.1057 13.1211 31.1989 13.2932C31.3826 13.6244 31.7675 13.8126 32.1401 13.8029C32.9442 13.801 33.7477 13.8036 34.5511 13.8042C34.7031 13.7964 34.8545 13.8721 34.9321 14.0035C35.0311 14.1794 34.9308 14.4013 35.0382 14.5766C35.2122 14.8515 35.4904 15.0366 35.7563 15.2144C36.1315 15.4764 36.5009 15.7462 36.8754 16.0095C36.944 16.0632 37.0656 16.1085 37.1303 16.025C37.2726 15.8529 37.3852 15.6569 37.5152 15.4745C37.5974 15.3167 37.7824 15.1821 37.7642 14.9926C37.6446 14.849 37.4227 14.7532 37.4285 14.5378C37.4531 14.3631 37.5462 14.2027 37.6562 14.0669C37.8037 13.8838 38.0515 13.8327 38.2753 13.8398C39.311 13.8411 40.3467 13.8398 41.3824 13.8378C41.5538 13.8372 41.7168 13.7706 41.8565 13.6735C42.2382 13.4128 42.5778 13.0972 42.909 12.7756C43.1173 12.5932 43.2726 12.348 43.5197 12.2135C43.783 12.0524 44.1013 12.0401 44.4001 12.0265C44.4849 12.0337 44.5412 11.9444 44.536 11.8674C44.5483 11.5278 44.5366 11.1882 44.5431 10.8492C44.5424 10.7314 44.5586 10.5891 44.4538 10.5076Z" fill="white"/>
<path fill-rule="evenodd" clip-rule="evenodd" d="M50.11 12.2011L51.0189 11.4003C50.557 10.122 49.5699 8.60824 49.5563 8.60889C49.4081 8.93298 49.1875 9.33083 49.0291 9.65039C49.0291 9.65039 49.7154 10.8782 50.11 12.2011Z" fill="white"/>
<path fill-rule="evenodd" clip-rule="evenodd" d="M26.7559 13.1074C26.7986 13.3286 26.9364 13.5195 27.091 13.6786C27.3556 13.9251 27.7314 13.9943 28.0782 14.0279C28.6164 14.0428 29.1831 14.0836 29.6857 13.8513C29.8507 13.7795 29.9471 13.612 29.9852 13.4431C30.0739 13.0615 30.0997 12.6688 30.101 12.2787C30.101 11.8899 30.1172 11.4992 30.0616 11.113C29.9995 10.4836 29.8701 9.83604 29.5078 9.30429C29.2387 8.91809 28.7568 8.63669 28.2761 8.72985C28.1008 8.76025 27.9262 8.823 27.7961 8.94979C27.4403 9.27842 27.2197 9.76036 27.2275 10.2475C27.2288 10.3833 27.2139 10.5224 27.2463 10.6563C27.2883 10.7922 27.4539 10.8556 27.5833 10.8161C27.745 10.7527 27.8641 10.6033 28.0387 10.569C28.2302 10.5405 28.4372 10.5541 28.6061 10.6557C28.7607 10.7359 28.8596 10.8827 28.9683 11.0121C29.1404 11.2165 29.2995 11.4319 29.4651 11.6415C29.5331 11.7386 29.6217 11.8472 29.599 11.9747C29.5479 12.1209 29.4063 12.2108 29.2652 12.2574C28.9871 12.3648 28.6817 12.3538 28.39 12.3247C28.0006 12.2619 27.5717 12.1655 27.3064 11.8472C27.2243 11.7677 27.1512 11.6428 27.0218 11.6487C26.9371 11.6441 26.8232 11.6415 26.7934 11.7412C26.7598 11.8802 26.7779 12.0251 26.774 12.1662C26.7863 12.4799 26.7145 12.7937 26.7559 13.1074Z" fill="white"/>
<path fill-rule="evenodd" clip-rule="evenodd" d="M48.4191 12.3417L49.8863 12.2744C49.7511 11.8643 49.2569 10.4825 48.8034 9.75024C48.8034 9.75024 47.5782 9.84534 47.2036 9.86216C47.3272 10.0853 48.0077 11.0783 48.4191 12.3417Z" fill="white"/>
<path fill-rule="evenodd" clip-rule="evenodd" d="M50.2329 12.6281L50.6799 15.5035L51.8605 14.682C51.6684 13.6702 51.4982 12.7691 51.1897 11.7852L50.2329 12.6281Z" fill="white"/>
<path fill-rule="evenodd" clip-rule="evenodd" d="M49.0994 15.1494L50.4314 15.502C50.4216 15.2154 50.2328 13.8272 49.9908 12.7035C49.5173 12.7016 49.0431 12.7009 48.5696 12.7042C48.7468 13.1247 48.9765 13.8123 49.0994 15.1494Z" fill="white"/>
<path fill-rule="evenodd" clip-rule="evenodd" d="M51.9199 15.0999L50.7626 15.9246C50.8531 16.785 50.802 17.6959 50.7412 18.5582L51.9632 18.0982C51.9632 18.0982 52.0706 16.8607 51.9199 15.0999Z" fill="white"/>
<path fill-rule="evenodd" clip-rule="evenodd" d="M50.4868 18.5228C50.5922 17.5939 50.5418 16.4366 50.5204 16.0161L49.1781 15.6687C49.1684 15.8492 49.2622 16.8609 49.0959 18.1606L50.4868 18.5228Z" fill="white"/>
<path fill-rule="evenodd" clip-rule="evenodd" d="M50.4723 23.2088C50.2795 23.6662 50.0544 24.1093 49.8357 24.555C49.6417 24.9231 49.4838 25.31 49.2878 25.6774C49.0588 25.5758 48.8525 25.4322 48.6319 25.3151C48.5374 25.2711 48.4404 25.2026 48.3323 25.2136C48.2534 25.2679 48.1946 25.3442 48.1383 25.4193C47.7935 25.8999 47.4325 26.3676 47.0845 26.8457C46.9816 26.9925 46.8503 27.1206 46.7714 27.2824C46.7287 27.3626 46.7772 27.4493 46.8225 27.5152C46.9467 27.6905 47.0935 27.8471 47.2236 28.0185C47.2572 28.0683 47.2986 28.122 47.2992 28.1867C47.1919 28.3413 47.0295 28.4461 46.8962 28.5768C46.3962 29.0626 45.8787 29.529 45.3754 30.0103C45.0907 29.758 44.852 29.4572 44.5739 29.1991C44.4962 29.115 44.3804 29.1661 44.3028 29.2192C43.7963 29.5471 43.315 29.9133 42.8156 30.2523C42.7444 30.3111 42.6474 30.3642 42.6254 30.4593C42.6396 30.599 42.7179 30.7213 42.7755 30.8461C42.8622 31.0247 42.9469 31.2038 43.0194 31.3889C42.7257 31.5648 42.3893 31.6463 42.0768 31.7848C41.6305 31.984 41.1667 32.1444 40.7158 32.334C40.6084 32.367 40.4945 32.4647 40.3807 32.4194C40.2008 32.1211 40.129 31.7712 39.9738 31.4607C39.9317 31.3662 39.8198 31.3636 39.7318 31.3766C38.9569 31.4917 38.189 31.6496 37.4146 31.7764C37.3377 31.7899 37.2361 31.8249 37.2413 31.9226C37.2193 32.279 37.293 32.6328 37.3111 32.9893C36.8525 33.0042 36.3932 32.9996 35.9339 32.9977H35.9281H35.9223C35.463 32.9996 35.0037 33.0042 34.545 32.9893C34.5625 32.6328 34.6369 32.279 34.6149 31.9226C34.62 31.8249 34.5185 31.7899 34.4409 31.7764C33.6672 31.6496 32.8993 31.4917 32.1243 31.3766C32.0363 31.3636 31.9244 31.3662 31.883 31.4607C31.7271 31.7712 31.6553 32.1211 31.4755 32.4194C31.3616 32.4647 31.2478 32.367 31.1404 32.334C30.6895 32.1444 30.2257 31.984 29.7793 31.7848C29.4669 31.6463 29.1305 31.5648 28.8361 31.3889C28.9086 31.2038 28.9933 31.0247 29.0813 30.8461C29.1382 30.7213 29.2172 30.599 29.2307 30.4593C29.2087 30.3642 29.1111 30.3111 29.0406 30.2523C28.5418 29.9133 28.0599 29.5471 27.5533 29.2192C27.4751 29.1661 27.3599 29.115 27.2823 29.1991C27.0035 29.4572 26.7661 29.758 26.4808 30.0103C25.9768 29.529 25.4593 29.0626 24.9599 28.5768C24.826 28.4461 24.6643 28.3413 24.5563 28.1867C24.5575 28.122 24.599 28.0683 24.6332 28.0185C24.7626 27.8471 24.9095 27.6905 25.0337 27.5152C25.0789 27.4493 25.1275 27.3626 25.0848 27.2824C25.0052 27.1206 24.8752 26.9925 24.7717 26.8457C24.4236 26.3676 24.0627 25.8999 23.7185 25.4193C23.6616 25.3442 23.6027 25.2679 23.5238 25.2136C23.4158 25.2026 23.3187 25.2711 23.2243 25.3151C23.0037 25.4322 22.7973 25.5758 22.5683 25.6774C22.3723 25.31 22.2145 24.9231 22.0211 24.555C21.8024 24.1093 21.5766 23.6662 21.3839 23.2088C22.1226 22.8718 23.6422 22.2993 23.6422 22.2993C23.6422 22.2993 24.2554 23.6972 24.6145 24.2148C24.8519 24.5557 25.0602 24.9166 25.3293 25.2343C25.526 25.5111 25.7427 25.7712 25.9768 26.017C27.312 27.4661 29.2527 28.668 29.5147 28.7967C29.7567 28.9164 29.9941 29.0445 30.2393 29.1577C31.1527 29.5562 32.0991 29.8887 33.0733 30.1035C33.5177 30.1733 33.9524 30.2988 34.4027 30.3215C34.9066 30.3823 35.4151 30.4036 35.9223 30.401H35.9281H35.9339C36.4417 30.4036 36.9495 30.3823 37.4535 30.3215C37.9037 30.2988 38.3384 30.1733 38.7828 30.1035C39.7577 29.8887 40.7028 29.5562 41.6175 29.1577C41.8621 29.0445 42.1001 28.9164 42.3421 28.7967C42.6034 28.668 44.5435 27.4661 45.8793 26.017C46.1135 25.7712 46.3308 25.5111 46.5269 25.2343C46.7953 24.9166 47.0049 24.5557 47.2417 24.2148C47.6013 23.6972 48.214 22.2993 48.214 22.2993C48.214 22.2993 49.7335 22.8718 50.4723 23.2088ZM27.7882 23.8214C28.1045 23.8214 28.2966 24.0071 28.382 24.251C28.5521 24.6741 28.6996 25.1055 28.8762 25.526C28.9455 25.713 29.0574 25.8909 29.0606 26.0959C28.8905 26.0261 28.7527 25.8993 28.5935 25.8081C28.3438 25.6638 28.122 25.4775 27.8748 25.3281C27.6394 25.1864 27.4337 24.9852 27.162 24.9115C26.5933 24.7588 26.0208 24.6236 25.4503 24.4761C25.2743 24.4295 25.0563 24.4328 24.934 24.2749C24.8215 24.1248 24.7251 24.0019 24.6656 23.8214H27.7882ZM28.1892 27.6136C27.9913 27.4693 27.162 26.8903 26.9174 26.6568C26.5552 26.3029 26.1961 25.9446 25.8753 25.5525C25.7446 25.3785 25.5078 25.1799 25.436 24.9716C25.8766 25.1068 26.3928 25.3113 26.8282 25.4633C27.0229 25.526 27.1684 25.6735 27.3217 25.8003C27.5734 26.0131 27.8283 26.2227 28.087 26.4265C28.1524 26.4918 28.2546 26.5494 28.2533 26.6529C28.2617 26.9809 28.2475 27.2908 28.1892 27.6136ZM29.2197 26.5294C29.2579 26.6937 29.2282 26.8651 29.2469 27.032C29.2799 27.2811 29.2786 27.5333 29.3038 27.7837C29.3097 27.9034 29.3394 28.0625 29.2087 28.1291C29.0884 28.1641 28.9468 28.157 28.8471 28.0735C28.688 27.9525 28.5334 27.8264 28.3717 27.7087C28.36 27.4066 28.3775 27.1051 28.4014 26.8049C28.4047 26.6743 28.426 26.519 28.3173 26.422C28.0644 26.1839 27.7707 25.9937 27.5145 25.7583C27.3334 25.6082 27.1691 25.4238 26.9414 25.3436C26.4025 25.1456 25.8824 24.9509 25.3377 24.7698C25.3364 24.7407 25.3151 24.6779 25.3138 24.6495C25.8488 24.7342 26.7195 24.9716 27.0222 25.0732C27.2558 25.1521 27.446 25.3003 27.6478 25.4303C28.0469 25.6813 28.4331 25.953 28.8297 26.2085C28.9713 26.2984 29.1395 26.3741 29.2197 26.5294ZM29.4966 26.6904C29.496 26.5468 29.6105 26.444 29.7166 26.3625C31.7401 24.8034 34.6582 24.1831 34.8529 24.1986C34.8497 24.2432 34.8452 24.2872 34.84 24.3325C31.0343 25.6114 30.5362 26.3993 30.4443 26.6769C30.3764 26.8877 30.401 27.1129 30.3984 27.3315C30.3971 27.7986 30.399 28.2663 30.3939 28.734L30.3932 28.7728L30.1086 28.7735C30.0219 28.7696 29.9501 28.7612 29.8886 28.69C29.6279 28.4248 29.5852 28.0347 29.5406 27.6847C29.4934 27.3555 29.4895 27.0223 29.4966 26.6904ZM29.9456 25.495C30.0711 25.1418 30.1894 24.7866 30.3046 24.4302C30.3576 24.2626 30.3848 24.0369 30.553 23.9411C30.619 23.901 30.6921 23.9043 30.9036 23.8952H34.6259C34.699 23.8991 34.675 24.0065 34.6291 24.022C34.371 24.1003 34.109 24.163 33.8464 24.2206C33.1975 24.4037 31.6683 24.8604 31.0692 25.231C30.7768 25.4122 30.4857 25.5965 30.2043 25.7951C30.0685 25.887 29.9404 25.9924 29.7864 26.0552C29.7994 25.8585 29.8899 25.6806 29.9456 25.495ZM31.2743 27.6854V28.6674H31.0162V27.6854H31.2743ZM31.797 27.6854V28.6674H31.5382V27.6854H31.797ZM32.3029 27.6854V28.6674H32.0447V27.6854H32.3029ZM32.8049 27.6854V28.6674H32.5474V27.6854H32.8049ZM33.292 27.6854V28.6674H33.0345V27.6854H33.292ZM33.7791 27.6854V28.6674H33.5216V27.6854H33.7791ZM35.1104 27.217L35.1117 30.097C35.1117 30.1436 35.0735 30.1817 35.0269 30.1817C34.8859 30.1805 34.6097 30.1792 34.4997 30.1824C34.3988 30.1824 34.3322 30.0575 34.2953 29.9599C34.206 29.7483 34.0359 27.2274 34.0359 27.2274H30.694V26.9181C30.6927 26.7978 30.7212 26.6788 30.7788 26.5734C30.8085 26.5184 30.8415 26.4647 30.8745 26.431C31.0789 26.2344 31.6476 25.7887 32.6412 25.3798C32.7453 25.3345 32.81 25.4296 32.8999 25.4904C33.5934 26.0021 34.2862 26.5164 34.992 27.0119C35.0638 27.0592 35.1072 27.087 35.1104 27.217ZM35.2294 24.1067L35.7088 24.1054L35.7101 30.0977C35.7101 30.1442 35.6719 30.1824 35.6253 30.1824H35.3135C35.2669 30.1824 35.2294 30.1442 35.2294 30.0977V24.1067ZM36.1474 24.1054L36.6274 24.1067V30.0977C36.6274 30.1442 36.5892 30.1824 36.5426 30.1824H36.2308C36.1842 30.1824 36.1461 30.1442 36.1461 30.0977L36.1474 24.1054ZM38.3345 27.6854V28.6674H38.0771V27.6854H38.3345ZM38.8217 27.6854V28.6674H38.5642V27.6854H38.8217ZM39.3088 27.6854V28.6674H39.0513V27.6854H39.3088ZM39.8121 27.6854V28.6674H39.5533V27.6854H39.8121ZM40.3179 27.6854V28.6674H40.0592V27.6854H40.3179ZM40.84 27.6854V28.6674H40.5819V27.6854H40.84ZM36.7458 27.217C36.749 27.087 36.793 27.0592 36.8641 27.0119C37.5699 26.5164 38.2627 26.0021 38.9562 25.4904C39.0461 25.4296 39.1115 25.3345 39.2156 25.3798C40.2086 25.7887 40.7772 26.2344 40.9816 26.431C41.0146 26.4647 41.0483 26.5184 41.078 26.5734C41.1343 26.6788 41.1634 26.7978 41.1615 26.9181L41.1621 27.2274H37.8203C37.8203 27.2274 37.6501 29.7483 37.5608 29.9599C37.524 30.0575 37.4567 30.1824 37.3571 30.1824C37.2471 30.1792 36.9696 30.1805 36.8292 30.1817C36.7826 30.1817 36.7445 30.1436 36.7445 30.097L36.7458 27.217ZM42.1396 26.3625C42.2457 26.444 42.3602 26.5468 42.3589 26.6904C42.3667 27.0223 42.3628 27.3555 42.3162 27.6847C42.2709 28.0347 42.2282 28.4248 41.9682 28.69C41.9061 28.7612 41.8343 28.7696 41.7476 28.7735L41.4629 28.7728L41.4623 28.734C41.4571 28.2663 41.4591 27.7986 41.4578 27.3315C41.4558 27.1129 41.4804 26.8877 41.4118 26.6769C41.3206 26.3993 40.8219 25.6114 37.0155 24.3325C37.011 24.2872 37.0071 24.2432 37.0032 24.1986C37.1979 24.1831 40.1161 24.8034 42.1396 26.3625ZM37.2303 23.8952H40.9525C41.1634 23.9043 41.2378 23.901 41.3032 23.9411C41.4713 24.0369 41.4985 24.2626 41.5516 24.4302C41.6667 24.7866 41.7851 25.1418 41.9112 25.495C41.9669 25.6806 42.0568 25.8585 42.0697 26.0552C41.9158 25.9924 41.7877 25.887 41.6518 25.7951C41.3704 25.5965 41.0793 25.4122 40.7869 25.231C40.1885 24.8604 38.6586 24.4037 38.0098 24.2206C37.7472 24.163 37.4852 24.1003 37.227 24.022C37.1805 24.0065 37.1572 23.8991 37.2303 23.8952ZM46.4201 24.9716C46.3483 25.1799 46.1115 25.3785 45.9815 25.5525C45.6607 25.9446 45.301 26.3029 44.9387 26.6568C44.6942 26.8903 43.8649 27.4693 43.6669 27.6136C43.6093 27.2908 43.5945 26.9809 43.6029 26.6529C43.6016 26.5494 43.7038 26.4918 43.7691 26.4265C44.0279 26.2227 44.2834 26.0131 44.5344 25.8003C44.6884 25.6735 44.8333 25.526 45.028 25.4633C45.4634 25.3113 45.9796 25.1068 46.4201 24.9716ZM42.5517 27.7837C42.5775 27.5333 42.5762 27.2811 42.6092 27.032C42.628 26.8651 42.5982 26.6937 42.6364 26.5294C42.7166 26.3741 42.8848 26.2984 43.0265 26.2085C43.4237 25.953 43.8092 25.6813 44.2084 25.4303C44.4102 25.3003 44.5997 25.1521 44.8339 25.0732C45.1367 24.9716 46.008 24.7342 46.5424 24.6495C46.5411 24.6779 46.5197 24.7407 46.5191 24.7698C45.9738 24.9509 45.4536 25.1456 44.9148 25.3436C44.6877 25.4238 44.5228 25.6082 44.341 25.7583C44.0855 25.9937 43.7918 26.1839 43.5388 26.422C43.4302 26.519 43.4515 26.6743 43.4547 26.8049C43.4787 27.1051 43.4961 27.4066 43.4845 27.7087C43.3228 27.8264 43.1682 27.9525 43.009 28.0735C42.91 28.157 42.7677 28.1641 42.6474 28.1291C42.5161 28.0625 42.5465 27.9034 42.5517 27.7837ZM42.9799 25.526C43.1565 25.1055 43.304 24.6741 43.4748 24.251C43.5595 24.0071 43.7517 23.8214 44.0686 23.8214H47.1906C47.1311 24.0019 47.0353 24.1248 46.9215 24.2749C46.7992 24.4328 46.5818 24.4295 46.4059 24.4761C45.8353 24.6236 45.2628 24.7588 44.6942 24.9115C44.4225 24.9852 44.2168 25.1864 43.9813 25.3281C43.7342 25.4775 43.5123 25.6638 43.2626 25.8081C43.1035 25.8993 42.9657 26.0261 42.7955 26.0959C42.7994 25.8909 42.9113 25.713 42.9799 25.526ZM51.8948 18.6715L50.6004 19.1133C50.3429 19.9265 49.8894 21.5521 49.467 22.4927C49.434 22.5781 49.2626 22.5264 49.2626 22.5264C49.2626 22.5264 50.0725 20.4977 50.3481 19.0836L49.0297 18.6372C48.9398 18.9833 48.7658 20.1231 48.267 21.4001C48.2424 21.4764 48.192 21.5728 48.2547 21.6453C48.3983 21.8426 48.7509 22.3239 48.7509 22.3239L48.0969 22.0412C48.0969 22.0412 47.5897 23.1532 47.3982 23.4747C47.3665 23.5245 47.3167 23.6228 47.23 23.6228L43.9205 23.6241C43.7743 23.6164 43.6397 23.6895 43.5382 23.7885C43.3105 23.9968 43.2548 24.3137 43.1358 24.5854C42.91 25.1217 42.716 25.6696 42.5025 26.2104C42.344 26.1516 42.2826 25.9782 42.225 25.8346C42.0264 25.2285 41.8116 24.6275 41.6227 24.0188C41.5593 23.8292 41.375 23.6966 41.1751 23.7024L36.3887 23.7057C36.2489 23.6979 36.0102 23.8066 36.0102 23.9379V30.1293C36.0102 30.1585 35.9863 30.1824 35.9572 30.1824H35.9339H35.9223H35.899C35.8699 30.1824 35.8466 30.1585 35.8466 30.1293V23.9379C35.8466 23.8066 35.6072 23.6979 35.4681 23.7057L30.6811 23.7024C30.4812 23.6966 30.2975 23.8292 30.2334 24.0188C30.0445 24.6275 29.8298 25.2285 29.6312 25.8346C29.5736 25.9782 29.5128 26.1516 29.3537 26.2104C29.1402 25.6696 28.9468 25.1217 28.7203 24.5854C28.6013 24.3137 28.5457 23.9968 28.318 23.7885C28.2164 23.6895 28.0819 23.6164 27.9357 23.6241L24.6261 23.6228C24.5394 23.6228 24.4896 23.5245 24.4579 23.4747C24.2664 23.1532 23.7593 22.0412 23.7593 22.0412L23.1053 22.3239C23.1053 22.3239 23.4578 21.8426 23.6014 21.6453C23.6642 21.5728 23.6137 21.4764 23.5891 21.4001C23.0904 20.1231 22.9164 18.9833 22.8271 18.6372L21.5087 19.0836C21.7837 20.4977 22.5936 22.5264 22.5936 22.5264C22.5936 22.5264 22.4228 22.5781 22.3891 22.4927C21.9674 21.5521 21.5132 19.9265 21.2558 19.1133L19.9607 18.6715C20.1981 20.8147 20.8385 22.2411 20.9931 22.626C21.3593 22.6641 22.21 22.7004 22.21 22.7004C21.9176 22.7961 21.5236 22.9604 21.2331 23.0672C21.1866 23.0911 21.1012 23.0956 21.0973 23.1642C21.1057 23.2354 21.1503 23.2949 21.1827 23.357C21.3231 23.5918 21.4162 23.8506 21.543 24.0919C21.8018 24.6268 22.0722 25.1566 22.3128 25.7007C22.3613 25.7951 22.4047 25.9187 22.5198 25.9478C22.6718 25.9206 22.8012 25.8294 22.9325 25.7537C23.0923 25.6561 23.2631 25.5778 23.4132 25.4646C23.5497 25.5655 23.637 25.7143 23.7386 25.8462C24.042 26.2357 24.3208 26.6432 24.6235 27.0333C24.6973 27.1413 24.7956 27.2384 24.8396 27.3632C24.6682 27.6246 24.4463 27.8503 24.2852 28.1194C24.2263 28.2029 24.313 28.2844 24.3648 28.3439C24.5265 28.5082 24.7096 28.6505 24.8713 28.8155C25.2834 29.2315 25.7401 29.6021 26.1509 30.0194C26.2498 30.1125 26.3417 30.2219 26.4698 30.2755C26.5228 30.2911 26.5668 30.2439 26.6082 30.2199C26.9026 29.9793 27.1238 29.6649 27.4033 29.4094C27.858 29.6856 28.2772 30.0155 28.7203 30.3118C28.8141 30.3726 28.9021 30.4418 28.9817 30.5201C28.8627 30.7452 28.774 30.9852 28.6537 31.2097C28.6013 31.3054 28.5657 31.4167 28.5955 31.526C28.7397 31.6379 28.9248 31.6767 29.0878 31.755C29.5626 31.9685 30.0497 32.1503 30.5362 32.3359C30.859 32.4795 31.1934 32.5934 31.5175 32.7351C31.5906 32.6801 31.667 32.6212 31.6941 32.5306C31.7808 32.2926 31.8914 32.0642 31.9755 31.8249C32.0111 31.7479 32.0325 31.6496 32.114 31.6088C32.2285 31.6127 32.3397 31.6405 32.4516 31.6593C32.7641 31.7227 33.0811 31.7563 33.3942 31.8178C33.7202 31.8779 34.0443 31.9497 34.3749 31.9853C34.4124 32.2033 34.3619 32.4213 34.3535 32.6393C34.349 32.8017 34.2972 32.9615 34.3179 33.1245C34.3561 33.2189 34.4719 33.2209 34.5573 33.2235C35.0127 33.2189 35.4675 33.2196 35.9223 33.2215H35.9281H35.9339C36.3887 33.2196 36.8441 33.2189 37.2989 33.2235C37.3849 33.2209 37.5 33.2189 37.5382 33.1245C37.5589 32.9615 37.5072 32.8017 37.5026 32.6393C37.4942 32.4213 37.4438 32.2033 37.4813 31.9853C37.8118 31.9497 38.1359 31.8779 38.4626 31.8178C38.7751 31.7563 39.0921 31.7227 39.4052 31.6593C39.5164 31.6405 39.6277 31.6127 39.7422 31.6088C39.8237 31.6496 39.845 31.7479 39.8806 31.8249C39.9647 32.0642 40.0753 32.2926 40.162 32.5306C40.1892 32.6212 40.2662 32.6801 40.3386 32.7351C40.6627 32.5934 40.9978 32.4795 41.3206 32.3359C41.8064 32.1503 42.2936 31.9685 42.7684 31.755C42.9314 31.6767 43.1164 31.6379 43.2613 31.526C43.2904 31.4167 43.2548 31.3054 43.2024 31.2097C43.0821 30.9852 42.9935 30.7452 42.8745 30.5201C42.954 30.4418 43.0427 30.3726 43.1358 30.3118C43.5783 30.0155 43.9981 29.6856 44.4529 29.4094C44.7324 29.6649 44.9536 29.9793 45.2479 30.2199C45.2893 30.2439 45.334 30.2911 45.387 30.2755C45.5145 30.2219 45.607 30.1125 45.7053 30.0194C46.1167 29.6021 46.5728 29.2315 46.9849 28.8155C47.1466 28.6505 47.3303 28.5082 47.492 28.3439C47.5431 28.2844 47.6298 28.2029 47.5716 28.1194C47.4105 27.8503 47.188 27.6246 47.0166 27.3632C47.0612 27.2384 47.1589 27.1413 47.2326 27.0333C47.5354 26.6432 47.8148 26.2357 48.1169 25.8462C48.2198 25.7143 48.3065 25.5655 48.443 25.4646C48.593 25.5778 48.7638 25.6561 48.9236 25.7537C49.0556 25.8294 49.1843 25.9206 49.3363 25.9478C49.4515 25.9187 49.4948 25.7951 49.5433 25.7007C49.7846 25.1566 50.0544 24.6268 50.3131 24.0919C50.4399 23.8506 50.5331 23.5918 50.6741 23.357C50.7058 23.2949 50.7505 23.2354 50.7589 23.1642C50.755 23.0956 50.6702 23.0911 50.623 23.0672C50.3326 22.9604 49.9386 22.7961 49.6468 22.7004C49.6468 22.7004 50.4969 22.6641 50.863 22.626C51.0176 22.2411 51.658 20.8147 51.8948 18.6715Z" fill="white"/>
<path fill-rule="evenodd" clip-rule="evenodd" d="M25.1912 7.02111C25.6796 7.12591 26.1609 7.2637 26.6506 7.3575C26.9824 7.12656 27.2651 6.83092 27.5912 6.59028C27.8622 6.35093 28.1863 6.17691 28.4438 5.92203C28.4438 5.92203 28.1979 5.32883 28.0602 5.03902C28.0349 4.9698 27.9625 4.94586 27.8978 4.92775C27.3841 4.78867 26.8608 4.68322 26.3491 4.53638C26.4856 4.85012 26.9378 5.67168 26.9378 5.67168C26.1919 6.19696 25.5178 6.74165 25.1912 7.02111Z" fill="white"/>
<path fill-rule="evenodd" clip-rule="evenodd" d="M26.6475 5.56887L26.1494 4.58105C26.0026 4.60176 24.9468 5.46084 24.4836 5.96218L25.0367 6.82256L26.6475 5.56887Z" fill="white"/>
<path fill-rule="evenodd" clip-rule="evenodd" d="M24.7309 7.08149L24.2159 6.19653C22.9829 7.35707 22.4292 8.36105 22.4292 8.36105C22.5974 8.65733 22.7947 9.01313 22.9564 9.31329C23.6932 8.19674 24.661 7.18305 24.7309 7.08149Z" fill="white"/>
<path fill-rule="evenodd" clip-rule="evenodd" d="M26.3628 7.67272C26.0678 7.58863 25.0897 7.32987 24.9144 7.30981C24.9144 7.30981 23.9343 8.31121 23.1995 9.46463C23.1995 9.46463 24.7999 9.58625 24.7753 9.5856C25.5218 8.56868 26.2431 7.81634 26.3628 7.67272Z" fill="white"/>
<path fill-rule="evenodd" clip-rule="evenodd" d="M22.8268 9.65015C22.6683 9.33058 22.4477 8.93274 22.3002 8.60864C22.2853 8.608 21.2988 10.1217 20.8369 11.4007L21.7458 12.2009C22.1404 10.878 22.8268 9.65015 22.8268 9.65015Z" fill="white"/>
<path fill-rule="evenodd" clip-rule="evenodd" d="M24.6523 9.86216C24.2777 9.84534 23.0518 9.75024 23.0518 9.75024C22.599 10.4825 22.1048 11.8643 21.9702 12.2744L23.4367 12.3417C23.8482 11.0783 24.5293 10.0853 24.6523 9.86216Z" fill="white"/>
<path fill-rule="evenodd" clip-rule="evenodd" d="M21.6232 12.6281L20.6664 11.7852C20.3579 12.7691 20.1877 13.6702 19.9956 14.682L21.1762 15.5035L21.6232 12.6281Z" fill="white"/>
<path fill-rule="evenodd" clip-rule="evenodd" d="M21.8653 12.7038C21.6234 13.8274 21.4345 15.2157 21.4248 15.5029L22.7568 15.1497C22.8797 13.8126 23.1093 13.1249 23.2866 12.7044C22.813 12.7018 22.3382 12.7025 21.8653 12.7038Z" fill="white"/>
<path fill-rule="evenodd" clip-rule="evenodd" d="M21.0939 15.9249L19.9366 15.1001C19.7859 16.861 19.8933 18.0978 19.8933 18.0978L21.1153 18.5578C21.0538 17.6955 21.0034 16.7853 21.0939 15.9249Z" fill="white"/>
<path fill-rule="evenodd" clip-rule="evenodd" d="M22.6785 15.6689L21.3362 16.0163C21.3149 16.4368 21.2638 17.5941 21.3692 18.5231L22.7607 18.1608C22.5938 16.8605 22.6882 15.8488 22.6785 15.6689Z" fill="white"/>
<path fill-rule="evenodd" clip-rule="evenodd" d="M40.0559 18.7886C39.88 18.8694 39.7473 19.0143 39.6147 19.1502C39.5578 19.2175 39.4808 19.2944 39.5073 19.3908C39.5882 19.8734 39.6322 20.3651 39.7726 20.836C39.7868 20.9085 39.8444 20.9512 39.911 20.9751C40.1018 20.5934 40.1251 20.1496 40.0934 19.7305C40.043 19.418 40.087 19.1017 40.0559 18.7886Z" fill="white"/>
<path fill-rule="evenodd" clip-rule="evenodd" d="M34.2953 19.1502C34.1232 19.2045 33.966 19.2925 33.814 19.3863C33.8172 19.7893 33.8056 20.193 33.8528 20.5934C33.8767 20.7998 34.0747 20.9738 34.2849 20.9557C34.6245 20.9511 34.9654 20.9673 35.3051 20.9466C35.525 20.9253 35.6622 20.739 35.8258 20.618C35.9558 20.7357 36.0555 20.9162 36.2418 20.9492C36.4921 20.9634 36.7729 21.0022 36.9831 20.8321C37.0569 20.8832 37.1248 20.9589 37.2205 20.9602C37.3409 20.9757 37.4463 20.9084 37.5504 20.8599C37.6358 20.9065 37.7212 20.9712 37.8241 20.9615C37.936 20.9628 38.0246 20.8852 38.1145 20.8302C38.1967 20.8884 38.2801 20.9595 38.3862 20.9576C38.5506 20.9634 38.7162 20.9634 38.8792 20.9421C39.1024 20.9013 39.2272 20.673 39.266 20.4679C39.3165 20.1257 39.268 19.7408 39.026 19.4769C38.9063 19.5991 38.7802 19.7233 38.7058 19.8805C38.7763 20.05 39.0383 20.1412 38.9587 20.3566C38.764 20.387 38.559 20.4064 38.3675 20.3495C38.2168 20.2725 38.2168 20.0668 38.0874 19.9672C37.9496 20.0416 38.0104 20.2971 37.8215 20.3088C37.6449 20.3353 37.6507 20.1082 37.5815 20.0008C37.5608 20.0021 37.52 20.0047 37.4993 20.006C37.4398 20.094 37.4204 20.2007 37.3654 20.2907C37.3337 20.3379 37.2658 20.3638 37.2134 20.3366C37.0627 20.2693 37.1099 20.0338 36.943 19.9873C36.8738 20.1095 36.8486 20.279 36.714 20.3482C36.4844 20.4246 36.2133 20.3663 36.0406 20.193C35.8316 19.9905 35.6013 19.8016 35.4513 19.5474C35.6822 19.4704 35.9216 19.4232 36.1473 19.3339C36.181 19.1741 36.2062 19.0124 36.2211 18.8494C35.8685 18.9244 35.5257 19.0376 35.1757 19.1249C35.1013 19.1521 35.0081 19.1605 34.9564 19.2272C34.913 19.3798 34.9066 19.5403 34.8749 19.6949C35.0424 19.8941 35.2663 20.0513 35.3846 20.2894C35.155 20.4343 34.8775 20.3515 34.6245 20.3754C34.5139 20.3741 34.3315 20.3909 34.303 20.2493C34.2797 19.8838 34.3127 19.5163 34.2953 19.1502Z" fill="white"/>
<path fill-rule="evenodd" clip-rule="evenodd" d="M36.1634 18.7413C36.2222 18.729 36.2591 18.6824 36.2921 18.6365C35.9706 18.6785 35.6653 18.7995 35.3515 18.8771C35.2267 18.9211 35.0682 18.9211 34.9893 19.0453C35.1102 19.0395 35.2293 19.0136 35.3438 18.9761C35.6148 18.8901 35.8917 18.8234 36.1634 18.7413Z" fill="white"/>
<path fill-rule="evenodd" clip-rule="evenodd" d="M40.7362 20.348C40.57 20.3273 40.5945 20.0653 40.414 20.0776C40.3623 20.2801 40.3228 20.4968 40.3798 20.7025C40.4296 20.8422 40.5674 20.9593 40.7213 20.9554C40.8688 20.96 41.0176 20.9619 41.1645 20.9496C41.4187 20.9218 41.625 20.6941 41.6457 20.4424C41.6561 20.2445 41.6716 20.0329 41.5772 19.8512C41.4853 19.6765 41.3501 19.5277 41.2078 19.3925C41.1444 19.3272 41.0571 19.2974 40.9697 19.2812C40.8837 19.4436 40.8022 19.6099 40.7045 19.7671C40.9309 19.9521 41.2078 20.0718 41.4038 20.293C41.2046 20.4153 40.9561 20.3868 40.7362 20.348Z" fill="white"/>
<path fill-rule="evenodd" clip-rule="evenodd" d="M32.6138 20.1686C32.7005 20.2443 32.6067 20.3672 32.5116 20.3633C32.41 20.3782 32.355 20.276 32.291 20.2178C32.3576 20.1059 32.5245 20.0528 32.6138 20.1686ZM32.8997 20.3148C33.0071 20.3556 33.0893 20.4358 33.1591 20.5244C33.1216 20.5555 33.0841 20.5846 33.0433 20.6124C32.9657 20.5982 32.892 20.5684 32.8169 20.5432C32.8428 20.4662 32.8706 20.3899 32.8997 20.3148ZM31.2734 20.7858C31.4436 20.822 31.5846 20.952 31.7644 20.9546C31.9151 20.9611 32.0665 20.9604 32.2185 20.9514C32.3537 20.9436 32.4728 20.8725 32.5924 20.8149C32.7011 20.8718 32.8066 20.9494 32.9327 20.9572C33.0226 20.9591 33.1332 20.9773 33.1986 20.899C33.3972 20.6997 33.4632 20.3556 33.3021 20.1136C33.132 19.8504 32.848 19.6925 32.5769 19.5508C32.4999 19.514 32.4249 19.4629 32.3382 19.459C32.214 19.6214 32.1661 19.8232 32.1157 20.0173C32.0769 20.1298 32.0419 20.2456 32.0303 20.3659C31.745 20.3892 31.4584 20.3815 31.1725 20.3892C30.9648 20.3989 30.7481 20.4468 30.5832 20.5807C30.4978 20.6486 30.4208 20.7437 30.4156 20.8569C30.4105 20.963 30.5017 21.0581 30.6058 21.0633C30.7992 21.0775 30.9933 21.0581 31.1867 21.0808C31.1867 21.1112 31.188 21.172 31.188 21.203C30.9176 21.2347 30.6453 21.2237 30.3736 21.2237C30.1485 21.2315 29.8949 21.1862 29.7526 20.9941C29.6264 20.8395 29.6905 20.6325 29.6756 20.4513C29.6096 20.395 29.5475 20.472 29.5029 20.518C29.3961 20.657 29.3702 20.8395 29.3463 21.0083C29.3127 21.2574 29.4052 21.5413 29.6322 21.6707C29.8787 21.815 30.1743 21.7833 30.4473 21.7846C30.7333 21.7846 31.0451 21.7574 31.2773 21.5737C31.4494 21.4333 31.5251 21.1137 31.3161 20.9721C31.1104 20.866 30.8672 20.9397 30.6466 20.8938C30.6472 20.8692 30.6479 20.8194 30.6492 20.7948C30.8536 20.7515 31.0677 20.7431 31.2734 20.7858Z" fill="white"/>
<path fill-rule="evenodd" clip-rule="evenodd" d="M42.6579 3.39222L42.446 3.17972L42.6709 2.95557L42.8827 3.16742L42.6579 3.39222Z" fill="white"/>
<path fill-rule="evenodd" clip-rule="evenodd" d="M33.038 4.82545L32.7458 4.75678L32.8191 4.44775L33.1106 4.51643L33.038 4.82545Z" fill="white"/>
<path fill-rule="evenodd" clip-rule="evenodd" d="M41.6959 5.55154L41.4844 5.33936L41.3324 5.49138L41.181 5.33936L40.9565 5.56383L41.1687 5.77601L41.3201 5.62399L41.4715 5.77601L41.6959 5.55154Z" fill="white"/>
<path fill-rule="evenodd" clip-rule="evenodd" d="M40.5302 5.38007L40.4156 5.10278L40.2173 5.18506L40.135 4.98682L39.8416 5.10797L39.9562 5.38525L40.1545 5.30297L40.2367 5.50121L40.5302 5.38007Z" fill="white"/>
<path fill-rule="evenodd" clip-rule="evenodd" d="M38.5153 4.85241L38.3446 4.60659L38.1686 4.72885L38.0457 4.55225L37.7856 4.73338L37.9564 4.9792L38.1324 4.85693L38.2546 5.03354L38.5153 4.85241Z" fill="white"/>
<path fill-rule="evenodd" clip-rule="evenodd" d="M34.2684 0.838418L33.9833 0.74707L33.9172 0.951145L33.7131 0.885712L33.616 1.18891L33.9023 1.28026L33.9671 1.07553L34.1718 1.14097L34.2684 0.838418Z" fill="white"/>
<path fill-rule="evenodd" clip-rule="evenodd" d="M28.4085 4.8792L28.3554 4.58378L28.1442 4.62201L28.106 4.41016L27.7937 4.46652L27.8468 4.76129L28.058 4.72372L28.0956 4.93492L28.4085 4.8792Z" fill="white"/>
</svg>
