<svg width="48" height="57" viewBox="0 0 48 57" fill="none" xmlns="http://www.w3.org/2000/svg">
<path d="M44.6885 35.9233C44.7522 35.9277 44.8236 35.9167 44.9027 35.8904C45.0126 35.7981 45.2004 35.6849 45.4663 35.5509C45.7322 35.4169 45.9969 35.2993 46.2606 35.1982C46.5243 35.0972 46.7132 35.0137 46.8275 34.9478C47.1878 34.7236 47.368 34.4995 47.368 34.2754C47.368 34.1787 47.3219 34.104 47.2296 34.0513C47.1285 34.0029 47.0121 33.9612 46.8802 33.926C46.7484 33.8909 46.5572 33.8491 46.3067 33.8008C46.0563 33.7524 45.8497 33.7338 45.6871 33.7448C45.5245 33.7557 45.3839 33.803 45.2652 33.8865C45.1422 33.97 45.0246 34.1018 44.9126 34.282C44.8005 34.4622 44.7247 34.6028 44.6852 34.7039C44.6632 34.7786 44.6654 34.8203 44.6917 34.8291C44.7445 34.8555 44.817 34.8049 44.9093 34.6775C45.0235 34.55 45.0917 34.4797 45.1136 34.4666C45.1883 34.4182 45.3136 34.394 45.4894 34.394C45.6739 34.394 45.8772 34.4193 46.0991 34.4698C46.321 34.5204 46.432 34.5632 46.432 34.5984C46.432 34.6072 46.2342 34.7061 45.8387 34.895C45.6366 34.9917 45.4344 35.1082 45.2323 35.2444C45.0389 35.3806 44.8884 35.5059 44.7807 35.6201C44.6731 35.7344 44.5973 35.8245 44.5533 35.8904C44.5797 35.908 44.6247 35.9189 44.6885 35.9233ZM45.0147 44.5652C45.0851 44.5652 45.1971 44.4333 45.3509 44.1697C45.5047 43.906 45.5816 43.7039 45.5816 43.5632C45.5685 43.4578 45.4696 43.3116 45.285 43.1249C45.1004 42.9381 44.9598 42.8645 44.8631 42.9041C44.8148 42.9041 44.7082 43.0656 44.5434 43.3885C44.3786 43.7115 44.2962 43.9214 44.2962 44.0181C44.2962 44.0664 44.3292 44.1125 44.3951 44.1565C44.4698 44.2092 44.5852 44.2872 44.7412 44.3905C44.8972 44.4938 44.9884 44.552 45.0147 44.5652ZM43.202 38.2651L43.258 38.2601C43.2954 38.2535 43.3283 38.2437 43.3569 38.2305C43.3855 38.2173 43.4063 38.2063 43.4195 38.1975C43.525 37.9602 43.681 37.7603 43.8876 37.5977C44.0765 37.4438 44.2567 37.3669 44.4281 37.3669C44.4808 37.3669 44.5687 37.3823 44.6917 37.4131C44.8456 37.4438 44.9247 37.4592 44.9291 37.4592C45.0873 37.4592 45.2301 37.3691 45.3575 37.189C45.4146 37.1055 45.4564 37.0286 45.4828 36.9583C45.5091 36.8879 45.5223 36.811 45.5223 36.7275C45.5223 36.6265 45.4685 36.5111 45.3608 36.3815C45.2532 36.2518 45.1004 36.0881 44.9027 35.8904C44.8675 35.864 44.8148 35.8475 44.7445 35.8409C44.6742 35.8344 44.6105 35.8508 44.5533 35.8904C44.5182 35.9387 44.4665 36.0068 44.3984 36.0947C44.3303 36.1826 44.2721 36.3035 44.2237 36.4573C44.2105 36.488 44.1798 36.5364 44.1314 36.6023C44.048 36.7078 43.9502 36.8264 43.8381 36.9583C43.7261 37.0901 43.6162 37.2307 43.5085 37.3801C43.4009 37.5295 43.2459 37.802 43.0438 38.1975C43.0746 38.2327 43.1086 38.2535 43.146 38.2601C43.1833 38.2667 43.2207 38.2667 43.258 38.2601L43.202 38.2651ZM42.7867 39.5159C42.8482 39.5291 42.8944 39.5005 42.9251 39.4302C42.9471 39.3862 42.9757 39.3203 43.0108 39.2324L43.2547 38.5601L43.4195 38.1975L43.4327 38.1316C43.4371 38.1096 43.4404 38.0854 43.4426 38.0591C43.4448 38.0327 43.4459 37.9844 43.4459 37.9141C43.4459 37.8833 43.4349 37.8459 43.4129 37.802C43.3866 37.7537 43.3558 37.6998 43.3207 37.6405C43.2855 37.5812 43.2328 37.4966 43.1625 37.3867C43.0438 37.2417 42.8988 37.1692 42.7274 37.1692C42.534 37.1692 42.3517 37.2681 42.1803 37.4658C42.1144 37.5581 42.0473 37.6493 41.9792 37.7394C41.9111 37.8295 41.8419 37.9185 41.7716 38.0063C41.6881 38.1074 41.598 38.1909 41.5013 38.2568C41.4134 38.3271 41.3321 38.3656 41.2574 38.3722C41.1827 38.3788 41.1212 38.3777 41.0729 38.3689C40.9981 38.5315 40.9531 38.6952 40.9377 38.86C40.9223 39.0248 40.9256 39.1907 40.9476 39.3577L41.2311 39.127C41.4815 38.9072 41.6969 38.6633 41.8771 38.3953C42.0309 38.1887 42.1803 38.0767 42.3253 38.0591C42.5055 38.0591 42.6439 38.1162 42.7406 38.2305C42.8329 38.3447 42.879 38.4854 42.879 38.6523C42.879 38.6875 42.868 38.771 42.846 38.9028C42.8329 38.9687 42.8197 39.038 42.8065 39.1105C42.7933 39.183 42.7779 39.261 42.7604 39.3445C42.7428 39.45 42.7516 39.5071 42.7867 39.5159ZM38.7789 41.5C38.836 41.5 39.0173 41.4506 39.3227 41.3517C39.6282 41.2528 39.8556 41.1759 40.005 41.121C40.1544 41.066 40.2665 41.0144 40.3412 40.9661C40.4159 40.9177 40.5191 40.7925 40.651 40.5903C40.7828 40.3882 40.9256 40.074 41.0794 39.6477C41.1146 39.551 41.1465 39.4467 41.175 39.3346C41.2036 39.2225 41.2256 39.1302 41.2409 39.0577C41.2563 38.9852 41.2706 38.8951 41.2838 38.7875C41.297 38.6798 41.3036 38.571 41.3036 38.4612C41.3036 38.2458 41.2431 38.0613 41.1223 37.9075C41.0014 37.7537 40.8509 37.6768 40.6708 37.6768C40.5653 37.6768 40.4587 37.7471 40.3511 37.8877C40.2434 38.0283 40.1368 38.2063 40.0313 38.4216C39.9259 38.637 39.8567 38.7941 39.8237 38.8929C39.7907 38.9918 39.7655 39.0786 39.7479 39.1533C39.7303 39.2764 39.7765 39.3884 39.8863 39.4895C39.9962 39.5906 40.1324 39.6433 40.295 39.6477C40.3565 39.6477 40.4192 39.6312 40.4829 39.5983C40.5466 39.5653 40.6092 39.5532 40.6708 39.562C40.6136 39.7642 40.5246 39.9454 40.4038 40.1058C40.2829 40.2662 40.1643 40.3882 40.0478 40.4717C39.9314 40.5552 39.6732 40.731 39.2733 40.999C38.8734 41.2671 38.691 41.4253 38.7262 41.4736C38.7262 41.4912 38.7438 41.5 38.7789 41.5ZM36.0235 41.4934C36.0675 41.4934 36.174 41.4791 36.3432 41.4506C36.5124 41.422 36.7365 41.3671 37.0156 41.2858C37.2947 41.2045 37.4968 41.1144 37.622 41.0155C37.7473 40.9166 37.8626 40.7727 37.9681 40.5837C38.0736 40.3948 38.1955 40.1157 38.334 39.7466C38.4724 39.3774 38.5844 39.0369 38.6701 38.7249C38.7558 38.4128 38.8009 38.1975 38.8053 38.0789C38.8053 37.9998 38.7811 37.9558 38.7328 37.947C38.6756 37.9426 38.6229 37.991 38.5746 38.092C38.5262 38.1931 38.446 38.3821 38.334 38.6589C38.2219 38.9358 38.0967 39.2104 37.9582 39.4829C37.8198 39.7554 37.6957 39.9597 37.5858 40.0959C37.4759 40.2322 37.2914 40.3915 37.0321 40.5739C36.7728 40.7562 36.5454 40.9078 36.3498 41.0287C36.1543 41.1495 36.0323 41.2473 35.984 41.322C35.9488 41.3704 35.9356 41.4099 35.9444 41.4407C35.9532 41.4714 35.9796 41.489 36.0235 41.4934ZM31.4752 43.9785C31.9674 43.9785 32.4024 43.8533 32.7804 43.6028C32.9781 43.4753 33.1627 43.3215 33.3341 43.1414C33.5055 42.9612 33.6549 42.781 33.7823 42.6008C34.0328 42.2141 34.235 41.7582 34.3888 41.233C34.5426 40.7079 34.6195 40.241 34.6195 39.8323C34.6195 39.5378 34.547 39.3401 34.402 39.239C34.358 39.2039 34.2679 39.1599 34.1317 39.1072L34.055 39.0763C33.9593 39.0362 33.8904 39.0004 33.8482 38.9687C33.7867 38.916 33.756 38.8413 33.756 38.7446C33.756 38.6787 33.8164 38.5601 33.9372 38.3887C34.0581 38.2173 34.2262 38.0327 34.4415 37.835C34.6568 37.6372 34.8546 37.4933 35.0348 37.4032C35.2149 37.3131 35.36 37.2681 35.4698 37.2681C35.4962 37.2681 35.5248 37.2802 35.5555 37.3043C35.5863 37.3285 35.6214 37.3538 35.661 37.3801C35.7137 37.3801 35.7752 37.3252 35.8456 37.2153C35.8631 37.189 35.9148 37.0835 36.0005 36.8989C36.0862 36.7144 36.1477 36.5704 36.185 36.4672C36.2224 36.3639 36.2499 36.2573 36.2674 36.1475C36.2762 36.1123 36.2718 36.075 36.2542 36.0354C36.2367 35.9958 36.2037 35.9761 36.1554 35.9761C36.0411 35.9937 35.8851 36.0596 35.6874 36.1738C35.5248 36.2661 35.3578 36.3771 35.1864 36.5067C35.015 36.6364 34.8744 36.7517 34.7645 36.8528C34.558 37.0505 34.3294 37.3076 34.079 37.624C33.7713 38.0107 33.5329 38.4041 33.3637 38.804C33.1946 39.2039 33.11 39.5334 33.11 39.7927C33.11 39.9641 33.1451 40.0992 33.2154 40.1981C33.2857 40.297 33.389 40.3794 33.5252 40.4453C33.5956 40.4805 33.6582 40.5046 33.7131 40.5178C33.768 40.531 33.8581 40.5574 33.9834 40.5969C34.1086 40.6365 34.1712 40.698 34.1712 40.7815C34.1712 40.9177 34.124 41.0704 34.0295 41.2396C33.935 41.4088 33.7977 41.5901 33.6175 41.7834C33.4374 41.9768 33.2132 42.1416 32.9452 42.2778C32.5848 42.458 32.2113 42.5481 31.8246 42.5481C31.3587 42.5481 30.9973 42.4426 30.7402 42.2317C30.4831 42.0208 30.3546 41.7351 30.3546 41.3748C30.3546 41.032 30.4842 40.5178 30.7435 39.8323C30.7962 39.7092 30.8633 39.5532 30.9446 39.3643C31.0259 39.1753 31.1017 38.9995 31.172 38.8369C31.2423 38.6743 31.295 38.5502 31.3302 38.4645C31.3653 38.3788 31.4071 38.2722 31.4554 38.1448C31.473 38.1096 31.4807 38.0569 31.4785 37.9866C31.4763 37.9163 31.4532 37.8811 31.4093 37.8811C31.3785 37.8811 31.3434 37.9163 31.3038 37.9866C31.2643 38.0569 31.2269 38.1294 31.1917 38.2041L30.8819 38.8633C30.7809 39.0786 30.649 39.3621 30.4864 39.7136C30.3238 40.0652 30.1854 40.4299 30.0711 40.8079C29.9964 41.0408 29.9415 41.2726 29.9063 41.5033C29.8712 41.734 29.8536 41.9702 29.8536 42.2119C29.8536 42.4009 29.8789 42.6008 29.9294 42.8118C29.98 43.0227 30.0711 43.2227 30.203 43.4116C30.493 43.7808 30.9171 43.9697 31.4752 43.9785ZM28.0738 41.1342C28.1002 41.1495 28.1376 41.1353 28.1859 41.0913C28.2254 41.0474 28.2771 40.9771 28.3408 40.8804C28.4045 40.7837 28.4913 40.5892 28.6012 40.297C28.711 40.0048 28.7835 39.6697 28.8187 39.2917C28.8407 39.116 28.8539 38.9006 28.8583 38.6458C28.8626 38.3909 28.8692 38.1052 28.878 37.7888C28.878 37.7141 28.8813 37.5999 28.8879 37.446C28.8945 37.2922 28.9022 37.1351 28.911 36.9747C28.9198 36.8143 28.9297 36.6693 28.9407 36.5397C28.9516 36.41 28.9615 36.3276 28.9703 36.2925C28.9747 36.2573 28.9615 36.2332 28.9308 36.22C28.9 36.2068 28.8648 36.231 28.8253 36.2925C28.777 36.3892 28.7231 36.5001 28.6638 36.6254C28.6045 36.7506 28.5484 36.8835 28.4957 37.0242C28.443 37.1648 28.3957 37.3076 28.354 37.4526C28.3122 37.5977 28.2826 37.7383 28.265 37.8745C28.2342 38.1074 28.2232 38.4447 28.232 38.8864C28.2408 39.328 28.2386 39.6697 28.2254 39.9114C28.2123 40.1531 28.1793 40.4025 28.1266 40.6595C28.0738 40.9166 28.0475 41.0496 28.0475 41.0583C28.0387 41.0935 28.0475 41.1188 28.0738 41.1342ZM24.3099 39.9839C24.5956 39.9839 24.8614 39.8235 25.1075 39.5027C25.3536 39.1775 25.5206 38.9973 25.6085 38.9622C25.6832 38.927 25.7524 38.9094 25.8161 38.9094C25.8799 38.9094 25.9601 38.9182 26.0567 38.9358C26.1534 38.9358 26.2611 38.8677 26.3797 38.7314C26.3973 38.7139 26.4654 38.6194 26.5841 38.448C26.7687 38.448 26.951 38.3074 27.1312 38.0261C27.3026 37.7449 27.3883 37.4548 27.3883 37.156C27.3883 37.0769 27.3707 37.0374 27.3355 37.0374C27.3092 37.0374 27.274 37.1011 27.2301 37.2285C27.1773 37.3779 27.14 37.4702 27.118 37.5054C27.0609 37.6064 26.995 37.657 26.9203 37.657C26.8807 37.657 26.8104 37.6394 26.7093 37.6042C26.6742 37.5955 26.6434 37.5988 26.617 37.6141C26.5907 37.6295 26.5423 37.7273 26.472 37.9075C26.4017 38.0876 26.327 38.1777 26.2479 38.1777C26.1776 38.1821 26.1106 38.1777 26.0469 38.1646C25.9831 38.1514 25.9271 38.1558 25.8788 38.1777C25.8041 38.2085 25.6612 38.3228 25.4503 38.5205C25.2921 38.6699 25.0768 38.7446 24.8043 38.7446C24.6065 38.7446 24.4483 38.7007 24.3297 38.6128C24.2066 38.5249 24.1187 38.4128 24.066 38.2766C24.0177 38.1052 23.9935 37.9646 23.9935 37.8547C23.9891 37.78 23.9869 37.6636 23.9869 37.5054C23.9562 37.4702 23.932 37.4526 23.9144 37.4526C23.8309 37.4526 23.7474 37.5581 23.6639 37.769C23.576 37.9712 23.4947 38.2349 23.42 38.5601C23.42 38.96 23.4881 39.2961 23.6244 39.5686C23.7694 39.8455 23.9979 39.9839 24.3099 39.9839ZM22.1874 41.4934C22.4159 41.4978 22.6334 41.4121 22.8399 41.2363C22.9718 41.1133 23.1025 40.9529 23.2322 40.7551C23.3618 40.5574 23.4629 40.3695 23.5354 40.1915C23.6079 40.0135 23.6639 39.8586 23.7035 39.7268C23.7518 39.5906 23.8045 39.406 23.8617 39.1731C23.9188 38.9402 23.954 38.6501 23.9671 38.303C23.9715 38.2019 23.9803 38.0272 23.9935 37.7789C24.0067 37.5306 24.0155 37.3208 24.0199 37.1494C24.0638 36.4902 24.1067 35.9926 24.1484 35.6564C24.1902 35.3202 24.2 35.1477 24.1781 35.1389C24.1561 35.1301 24.1319 35.1477 24.1056 35.1917C23.9254 35.6179 23.7936 35.9651 23.7101 36.2332C23.6266 36.5012 23.5661 36.7495 23.5288 36.978C23.4914 37.2065 23.464 37.5043 23.4464 37.8712C23.4288 38.2382 23.4046 38.6699 23.3739 39.1665C23.3695 39.3818 23.3343 39.5961 23.2684 39.8092C23.2025 40.0223 23.0487 40.2245 22.807 40.4156C22.5653 40.6068 22.3236 40.698 22.0819 40.6892L21.9171 40.6826C21.8556 40.6826 21.8204 40.6738 21.8116 40.6562C21.9918 40.4014 22.139 40.0959 22.2533 39.74C22.3368 39.4983 22.4005 39.25 22.4444 38.9951C22.484 38.7314 22.5082 38.4963 22.5169 38.2898L22.662 36.5759C22.6664 36.5276 22.6751 36.4133 22.6883 36.2332C22.7015 36.0574 22.7103 35.9299 22.7147 35.8508C22.7191 35.6882 22.7059 35.6047 22.6751 35.6003C22.6664 35.6003 22.6554 35.6069 22.6422 35.6201C22.629 35.6333 22.6158 35.6575 22.6026 35.6926C22.4005 36.2375 22.2533 36.6704 22.161 36.9912C22.0292 37.4658 21.9588 37.9053 21.95 38.3096C21.9544 38.4634 21.9544 38.6106 21.95 38.7512L21.9369 39.1599C21.9325 39.2961 21.9215 39.4587 21.9039 39.6477C21.8819 39.8367 21.8545 39.9894 21.8215 40.1058C21.7885 40.2223 21.7501 40.3157 21.7062 40.386C21.6622 40.4563 21.6271 40.509 21.6007 40.5442C21.5436 40.6145 21.493 40.6782 21.4491 40.7354C21.4051 40.7925 21.3832 40.843 21.3832 40.887C21.3832 40.9485 21.4139 41.0078 21.4754 41.0649C21.493 41.0825 21.537 41.1199 21.6073 41.177C21.6864 41.2649 21.7721 41.3396 21.8644 41.4011C21.961 41.4583 22.0687 41.489 22.1874 41.4934ZM17.9422 38.6326C18.0521 38.6853 18.1686 38.6853 18.2916 38.6326C18.3136 38.5623 18.3905 38.4513 18.5223 38.2997C18.6542 38.1481 18.7772 38.0239 18.8915 37.9272C19.0057 37.8306 19.1837 37.7075 19.4254 37.5581C19.4913 37.5229 19.5748 37.4757 19.6759 37.4164C19.777 37.3571 19.9 37.2878 20.045 37.2087C20.212 37.1208 20.3724 36.9714 20.5262 36.7605C20.68 36.5627 20.7569 36.3738 20.7569 36.1936C20.7569 36.0706 20.6734 35.9497 20.5064 35.8311C20.3438 35.7124 20.1175 35.6267 19.8275 35.574C19.7396 35.5652 19.6495 35.6289 19.5572 35.7651C19.4957 35.8882 19.4276 36.0178 19.3529 36.1541L19.0892 36.7473C19.0716 36.8132 19.1024 36.8682 19.1815 36.9121C19.2606 36.9517 19.3001 36.9868 19.3001 37.0176C19.3001 37.0571 19.2782 37.1011 19.2342 37.1494C19.1903 37.2109 19.0958 37.2988 18.9508 37.4131C18.8146 37.5317 18.6805 37.6636 18.5487 37.8086C18.4168 37.9536 18.2949 38.1052 18.1828 38.2634C18.0708 38.4216 17.9906 38.5447 17.9422 38.6326ZM15.9186 43.7017C16.1603 43.7017 16.3866 43.6665 16.5975 43.5962C16.7909 43.5303 16.9886 43.4336 17.1908 43.3062C17.7401 42.9062 18.1751 42.3701 18.4959 41.6978C18.6981 41.2627 18.8365 40.8979 18.9112 40.6035C18.9859 40.3003 19.0233 40.0037 19.0233 39.7136C19.0233 39.5159 19.0013 39.3665 18.9574 39.2654C18.9134 39.1731 18.8409 39.0907 18.7398 39.0182C18.6388 38.9457 18.5388 38.8787 18.4399 38.8171C18.341 38.7556 18.2916 38.6941 18.2916 38.6326C18.2872 38.6018 18.2696 38.5798 18.2389 38.5666C18.2081 38.5535 18.174 38.5469 18.1367 38.5469C18.0993 38.5469 18.062 38.5535 18.0246 38.5666C17.9873 38.5798 17.9598 38.6018 17.9422 38.6326C17.8456 38.8083 17.7632 38.994 17.695 39.1896C17.6269 39.3851 17.5929 39.5598 17.5929 39.7136C17.5929 39.929 17.7533 40.1113 18.0741 40.2607C18.3905 40.4058 18.5487 40.5156 18.5487 40.5903C18.5487 40.9639 18.3465 41.3198 17.9422 41.6582C17.4676 42.0537 16.8788 42.2515 16.1756 42.2515C15.7845 42.2515 15.4659 42.1702 15.2198 42.0076C14.8858 41.7747 14.7188 41.3879 14.7188 40.8474C14.7188 40.5618 14.8221 40.1575 15.0287 39.6345C15.1473 39.3489 15.3626 38.8457 15.6747 38.125C15.7098 38.0459 15.7384 37.9514 15.7604 37.8416C15.7823 37.7493 15.7691 37.6987 15.7208 37.6899C15.6856 37.6855 15.6351 37.7427 15.5692 37.8613C15.5428 37.9229 15.5088 37.9932 15.467 38.0723C15.4253 38.1514 15.378 38.2393 15.3253 38.3359C15.2506 38.4941 15.1891 38.6227 15.1407 38.7216L15.0505 38.9014L15.0287 38.9424C14.9408 39.1445 14.8353 39.3928 14.7123 39.6873C14.598 39.9729 14.4881 40.3113 14.3827 40.7024C14.2772 41.1067 14.2245 41.4341 14.2245 41.6846C14.2245 42.2471 14.3541 42.7085 14.6134 43.0688C14.9166 43.4907 15.3517 43.7017 15.9186 43.7017ZM12.4447 41.1342C12.471 41.1495 12.5084 41.1353 12.5567 41.0913C12.5963 41.0474 12.6479 40.9771 12.7116 40.8804C12.7754 40.7837 12.8622 40.5892 12.972 40.297C13.0819 40.0048 13.1544 39.6697 13.1896 39.2917C13.2115 39.116 13.2247 38.9006 13.2291 38.6458C13.2335 38.3909 13.2401 38.1052 13.2489 37.7888C13.2489 37.7141 13.2522 37.5999 13.2588 37.446C13.2654 37.2922 13.273 37.1351 13.2818 36.9747C13.2906 36.8143 13.3005 36.6693 13.3115 36.5397C13.3225 36.41 13.3324 36.3276 13.3412 36.2925C13.3456 36.2573 13.3324 36.2332 13.3016 36.22C13.2708 36.2068 13.2357 36.231 13.1961 36.2925C13.1478 36.3892 13.094 36.5001 13.0346 36.6254C12.9753 36.7506 12.9193 36.8835 12.8666 37.0242C12.8138 37.1648 12.7666 37.3076 12.7248 37.4526C12.6831 37.5977 12.6534 37.7383 12.6358 37.8745C12.6051 38.1074 12.5941 38.4447 12.6029 38.8864C12.6117 39.328 12.6095 39.6697 12.5963 39.9114C12.5831 40.1531 12.5501 40.4025 12.4974 40.6595C12.4447 40.9166 12.4183 41.0496 12.4183 41.0583C12.4095 41.0935 12.4183 41.1188 12.4447 41.1342ZM8.05691 41.4966L8.12046 41.4934C8.25229 41.4934 8.43467 41.4692 8.66758 41.4209C8.8917 41.3813 9.07187 41.3352 9.2081 41.2825C9.49375 41.155 9.70908 40.9397 9.8541 40.6365C9.94199 40.4387 10.0584 40.1553 10.2035 39.7861C10.287 39.5928 10.3727 39.4346 10.4605 39.3115C10.4869 39.2764 10.5418 39.2258 10.6253 39.1599C10.7088 39.0984 10.9417 38.9753 11.3241 38.7908C11.5965 38.6545 11.8426 38.1953 12.0624 37.4131C12.0931 37.2637 12.0887 37.1824 12.0492 37.1692C12.0096 37.1648 11.9415 37.2483 11.8448 37.4197C11.7481 37.5955 11.669 37.7097 11.6075 37.7625C11.5416 37.8196 11.4273 37.8877 11.2647 37.9668C11.0802 38.0635 10.9505 38.1316 10.8758 38.1711C10.6781 38.2986 10.5331 38.4238 10.4408 38.5469C10.3485 38.6655 10.2123 38.9248 10.0321 39.3247C9.8563 39.7246 9.75303 39.9443 9.72226 39.9839C9.62558 40.1157 9.4498 40.2739 9.19492 40.4585C9.2081 40.4497 9.10044 40.5222 8.87192 40.676C8.57749 40.8606 8.37314 40.9957 8.25889 41.0814C8.14463 41.1671 8.06992 41.2231 8.03476 41.2495C7.93808 41.3198 7.89414 41.3748 7.90293 41.4143C7.93369 41.4802 8.0062 41.5066 8.12046 41.4934L8.05691 41.4966ZM10.4144 46.4636C10.555 46.4636 10.744 46.2241 10.9813 45.7451C11.078 45.8154 11.19 45.9143 11.3175 46.0417C11.4449 46.1692 11.5328 46.2329 11.5812 46.2329C11.6559 46.2329 11.7723 46.1208 11.9305 45.8967C12.0931 45.6682 12.1744 45.4705 12.1744 45.3035C12.1656 45.1628 12.0854 45.0123 11.9338 44.8519C11.7822 44.6915 11.6515 44.6113 11.5416 44.6113C11.5064 44.6113 11.435 44.7014 11.3274 44.8816C11.2197 45.0618 11.1219 45.2244 11.034 45.3694C10.9593 45.2639 10.8506 45.142 10.7077 45.0035C10.5649 44.8651 10.4562 44.8113 10.3814 44.842C10.3419 44.842 10.232 45.0112 10.0519 45.3496C9.87168 45.688 9.78159 45.8857 9.78159 45.9429C9.78159 45.9692 9.84641 46.0352 9.97605 46.1406C10.1057 46.2461 10.2013 46.3252 10.2628 46.3779C10.3287 46.4351 10.3792 46.4636 10.4144 46.4636ZM7.01963 41.1342C7.04599 41.1495 7.08335 41.1353 7.13169 41.0913C7.17124 41.0474 7.22287 40.9771 7.2866 40.8804C7.35032 40.7837 7.43711 40.5892 7.54697 40.297C7.65683 40.0048 7.72934 39.6697 7.7645 39.2917C7.78647 39.116 7.79966 38.9006 7.80405 38.6458C7.80845 38.3909 7.81504 38.1052 7.82383 37.7888C7.82383 37.7141 7.82712 37.5999 7.83371 37.446C7.84031 37.2922 7.848 37.1351 7.85679 36.9747C7.86557 36.8143 7.87546 36.6693 7.88645 36.5397C7.89744 36.41 7.90732 36.3276 7.91611 36.2925C7.92051 36.2573 7.90732 36.2332 7.87656 36.22C7.8458 36.2068 7.81064 36.231 7.77109 36.2925C7.72275 36.3892 7.66892 36.5001 7.60959 36.6254C7.55027 36.7506 7.49424 36.8835 7.4415 37.0242C7.38877 37.1648 7.34153 37.3076 7.29978 37.4526C7.25803 37.5977 7.22837 37.7383 7.21079 37.8745C7.18003 38.1074 7.16904 38.4447 7.17783 38.8864L7.18092 39.0695C7.18577 39.4236 7.18254 39.7042 7.17124 39.9114C7.15806 40.1531 7.1251 40.4025 7.07236 40.6595C7.06577 40.6917 7.05959 40.7219 7.05382 40.7501L7.02416 40.8964C7.00356 40.9989 6.99326 41.0529 6.99326 41.0583C6.98447 41.0935 6.99326 41.1188 7.01963 41.1342ZM2.44492 43.8005C3.44248 43.7917 4.29722 43.3062 5.00913 42.3438C5.72983 41.3506 6.12973 40.1641 6.20884 38.7842C6.21763 38.2568 6.22641 37.8965 6.2352 37.7031C6.23872 37.6258 6.24188 37.5585 6.2447 37.5012L6.25208 37.3593L6.25498 37.3109C6.25937 37.2428 6.24619 37.2087 6.21543 37.2087C6.17148 37.2087 6.11765 37.2747 6.05393 37.4065C5.99021 37.5383 5.91001 37.7504 5.81333 38.0426C5.71665 38.3348 5.65952 38.6018 5.64194 38.8435C5.64194 38.927 5.64304 39.0665 5.64524 39.2621C5.64744 39.4576 5.64853 39.6191 5.64853 39.7466C5.64853 40.0806 5.60898 40.3486 5.52988 40.5508C5.32334 41.1309 4.95859 41.5945 4.43564 41.9417C3.9083 42.2449 3.35898 42.3965 2.78769 42.3965C2.32187 42.3789 1.94724 42.2603 1.66379 42.0405C1.38034 41.8208 1.22983 41.5 1.21225 41.0781C1.22104 40.5156 1.42099 39.8477 1.81211 39.0742C1.83847 38.9951 1.84067 38.9171 1.8187 38.8402C1.79673 38.7633 1.72861 38.8303 1.61435 39.0413C1.02109 40.0916 0.726658 41.0649 0.731004 41.9614C0.748631 42.5283 0.909031 42.9711 1.21225 43.2897C1.51548 43.6083 1.92637 43.7786 2.44492 43.8005ZM3.59848 40.5376C3.64243 40.5376 3.70176 40.5024 3.77646 40.4321C3.89072 40.3223 3.98191 40.2025 4.05002 40.0729C4.11814 39.9432 4.16758 39.8257 4.19834 39.7202C4.2291 39.6147 4.23569 39.5181 4.21811 39.4302C4.20054 39.3203 4.15989 39.2258 4.09617 39.1467C4.03244 39.0676 3.94236 38.983 3.8259 38.8929C3.70945 38.8029 3.61167 38.7249 3.53257 38.6589C3.39634 38.8831 3.29636 39.0522 3.23264 39.1665C3.16892 39.2808 3.09311 39.4368 3.00522 39.6345C2.97886 39.696 2.93711 39.7861 2.87998 39.9048C2.87998 39.9399 2.90744 39.9839 2.96238 40.0366C3.01731 40.0894 3.08323 40.1476 3.16013 40.2113C3.23703 40.275 3.32273 40.3453 3.41721 40.4222C3.51169 40.4991 3.57212 40.5376 3.59848 40.5376ZM35.5819 56.5C35.639 56.5 35.8203 56.4506 36.1257 56.3517C36.4311 56.2528 36.6585 56.1759 36.808 56.121C36.9574 56.066 37.0694 56.0144 37.1441 55.9661C37.2188 55.9177 37.3221 55.7925 37.454 55.5903C37.5858 55.3882 37.7286 55.074 37.8824 54.6477C37.9176 54.551 37.9494 54.4467 37.978 54.3346C38.0066 54.2225 38.0285 54.1302 38.0439 54.0577C38.0593 53.9852 38.0736 53.8951 38.0868 53.7875C38.1 53.6798 38.1065 53.571 38.1065 53.4612C38.1065 53.2458 38.0461 53.0613 37.9253 52.9075C37.8044 52.7537 37.6539 52.6768 37.4737 52.6768C37.3683 52.6768 37.2617 52.7471 37.154 52.8877C37.0464 53.0283 36.9398 53.2063 36.8343 53.4216C36.7289 53.637 36.6596 53.7941 36.6267 53.8929C36.5937 53.9918 36.5685 54.0786 36.5509 54.1533C36.5333 54.2764 36.5794 54.3884 36.6893 54.4895C36.7992 54.5906 36.9354 54.6433 37.098 54.6477C37.1595 54.6477 37.2221 54.6312 37.2859 54.5983C37.3496 54.5653 37.4122 54.5532 37.4737 54.562C37.4166 54.7642 37.3276 54.9454 37.2068 55.1058C37.0859 55.2662 36.9673 55.3882 36.8508 55.4717C36.7344 55.5552 36.4762 55.731 36.0763 55.999C35.6764 56.2671 35.494 56.4253 35.5292 56.4736C35.5292 56.4912 35.5467 56.5 35.5819 56.5ZM35.2984 50.8245C35.3688 50.8245 35.4808 50.6926 35.6346 50.429C35.7884 50.1653 35.8653 49.9631 35.8653 49.8225C35.8521 49.717 35.7533 49.5709 35.5687 49.3842C35.3841 49.1974 35.2435 49.1238 35.1468 49.1633C35.0985 49.1633 34.9919 49.3248 34.8271 49.6478C34.6623 49.9708 34.5799 50.1807 34.5799 50.2773C34.5799 50.3257 34.6129 50.3718 34.6788 50.4158C34.7535 50.4685 34.8689 50.5465 35.0249 50.6498C35.1809 50.753 35.2721 50.8113 35.2984 50.8245ZM32.3519 56.4934C32.3959 56.4934 32.5024 56.4791 32.6716 56.4506C32.8408 56.422 33.0649 56.3671 33.344 56.2858C33.623 56.2045 33.8252 56.1144 33.9504 56.0155C34.0757 55.9166 34.191 55.7727 34.2965 55.5837C34.402 55.3948 34.5239 55.1157 34.6623 54.7466C34.8008 54.3774 34.9128 54.0369 34.9985 53.7249C35.0842 53.4128 35.1292 53.1975 35.1336 53.0789C35.1336 52.9998 35.1095 52.9558 35.0611 52.947C35.004 52.9426 34.9513 52.991 34.9029 53.092C34.8546 53.1931 34.7744 53.3821 34.6623 53.6589C34.5503 53.9358 34.425 54.2104 34.2866 54.4829C34.1482 54.7554 34.024 54.9597 33.9142 55.0959C33.8043 55.2322 33.6197 55.3915 33.3605 55.5739C33.1012 55.7562 32.8738 55.9078 32.6782 56.0287C32.4826 56.1495 32.3607 56.2473 32.3124 56.322C32.2772 56.3704 32.264 56.4099 32.2728 56.4407C32.2816 56.4714 32.308 56.489 32.3519 56.4934ZM31.0929 56.1342C31.1192 56.1495 31.1566 56.1353 31.2049 56.0913C31.2445 56.0474 31.2961 55.977 31.3598 55.8804C31.4236 55.7837 31.5104 55.5892 31.6202 55.297C31.7301 55.0048 31.8026 54.6697 31.8377 54.2917C31.8597 54.116 31.8729 53.9006 31.8773 53.6458C31.8817 53.3909 31.8883 53.1052 31.8971 52.7888C31.8971 52.7141 31.9004 52.5999 31.907 52.446C31.9136 52.2922 31.9212 52.1351 31.93 51.9747C31.9388 51.8143 31.9487 51.6693 31.9597 51.5397C31.9707 51.41 31.9806 51.3276 31.9894 51.2925C31.9938 51.2573 31.9806 51.2332 31.9498 51.22C31.919 51.2068 31.8839 51.231 31.8443 51.2925C31.796 51.3892 31.7422 51.5001 31.6828 51.6254C31.6235 51.7506 31.5675 51.8835 31.5147 52.0242C31.462 52.1648 31.4148 52.3076 31.373 52.4526C31.3313 52.5977 31.3016 52.7383 31.284 52.8745C31.2533 53.1074 31.2423 53.4447 31.2511 53.8864C31.2599 54.328 31.2577 54.6697 31.2445 54.9114C31.2313 55.1531 31.1983 55.4025 31.1456 55.6595C31.139 55.6917 31.1328 55.7219 31.1271 55.7501L31.0974 55.8964C31.0768 55.9989 31.0665 56.0529 31.0665 56.0583C31.0577 56.0935 31.0665 56.1188 31.0929 56.1342ZM27.6783 56.4934C27.7223 56.4934 27.8288 56.4791 27.998 56.4506C28.1672 56.422 28.3913 56.3671 28.6704 56.2858C28.9494 56.2045 29.1516 56.1144 29.2768 56.0155C29.4021 55.9166 29.5174 55.7727 29.6229 55.5837C29.7284 55.3948 29.8503 55.1157 29.9887 54.7466C30.1272 54.3774 30.2392 54.0369 30.3249 53.7249C30.4106 53.4128 30.4557 53.1975 30.4601 53.0789C30.4601 52.9998 30.4359 52.9558 30.3876 52.947C30.3304 52.9426 30.2777 52.991 30.2293 53.092C30.181 53.1931 30.1008 53.3821 29.9887 53.6589C29.8767 53.9358 29.7514 54.2104 29.613 54.4829C29.4746 54.7554 29.3504 54.9597 29.2406 55.0959C29.1307 55.2322 28.9461 55.3915 28.6869 55.5739C28.4276 55.7562 28.2002 55.9078 28.0046 56.0287C27.8091 56.1495 27.6871 56.2473 27.6388 56.322C27.6036 56.3704 27.5904 56.4099 27.5992 56.4407C27.608 56.4714 27.6344 56.489 27.6783 56.4934ZM22.6817 52.7888C22.8224 52.7888 23.0113 52.5493 23.2486 52.0703C23.3453 52.1406 23.4574 52.2395 23.5848 52.3669C23.7123 52.4944 23.8001 52.5581 23.8485 52.5581C23.9232 52.5581 24.0396 52.446 24.1979 52.2219C24.3604 51.9934 24.4417 51.7957 24.4417 51.6287C24.433 51.488 24.3528 51.3375 24.2011 51.1771C24.0495 51.0167 23.9188 50.9365 23.8089 50.9365C23.7738 50.9365 23.7024 51.0266 23.5947 51.2068C23.487 51.387 23.3893 51.5496 23.3014 51.6946C23.2267 51.5891 23.1179 51.4672 22.9751 51.3287C22.8323 51.1903 22.7235 51.1365 22.6488 51.1672C22.6092 51.1672 22.4994 51.3364 22.3192 51.6748C22.139 52.0132 22.0489 52.2109 22.0489 52.2681C22.0489 52.2944 22.1137 52.3603 22.2434 52.4658C22.373 52.5713 22.4686 52.6504 22.5301 52.7031C22.596 52.7603 22.6466 52.7888 22.6817 52.7888ZM21.9369 56.5C22.4027 56.5 22.8839 56.4703 23.3805 56.411C23.8771 56.3517 24.3802 56.2561 24.89 56.1243C25.224 56.032 25.5316 55.9287 25.8128 55.8145C26.1336 55.6694 26.4215 55.5112 26.6764 55.3398C26.8565 55.2124 27.0093 55.0586 27.1345 54.8784C27.2597 54.6982 27.3861 54.4565 27.5135 54.1533C27.6102 53.916 27.6673 53.727 27.6849 53.5864C27.6937 53.4853 27.6805 53.4348 27.6454 53.4348C27.619 53.4348 27.5619 53.5095 27.474 53.6589C27.3861 53.8083 27.2696 53.9435 27.1246 54.0643C26.9796 54.1852 26.7335 54.3181 26.3863 54.4631C26.0392 54.6082 25.6513 54.7279 25.2229 54.8224C24.7944 54.9169 24.3462 54.9817 23.8781 55.0168C23.4101 55.052 22.9872 55.0696 22.6092 55.0696C21.5238 55.0608 20.7459 54.9443 20.2757 54.7202C20.034 54.584 19.9066 54.4324 19.8934 54.2654C19.8802 54.0984 19.8681 53.9764 19.8572 53.8995C19.8462 53.8226 19.8187 53.7842 19.7748 53.7842C19.7308 53.7842 19.6979 53.816 19.6759 53.8798C19.6539 53.9435 19.622 54.0764 19.5803 54.2786C19.5385 54.4807 19.5023 54.6829 19.4715 54.885C19.4408 55.0872 19.4254 55.2432 19.4254 55.353C19.4254 55.6299 19.5155 55.8496 19.6957 56.0122C19.8934 56.2187 20.2274 56.3594 20.6976 56.4341C20.9833 56.478 21.3963 56.5 21.9369 56.5ZM18.5421 48.1416C18.5597 48.1724 18.63 48.1394 18.753 48.0427C18.92 47.9109 19.0475 47.8098 19.1354 47.7395L20.0714 47.0078C20.2472 46.876 20.4251 46.7419 20.6053 46.6057C20.7855 46.4695 20.9657 46.3289 21.1458 46.1838C21.4051 45.9861 21.7105 45.74 22.0621 45.4456C22.3038 45.239 22.5158 45.0566 22.6982 44.8984C22.8806 44.7402 23.0333 44.6084 23.1563 44.5029C23.4991 44.1953 23.7298 43.9822 23.8485 43.8635C23.9627 43.7493 24.0946 43.6086 24.244 43.4416C24.4374 43.2219 24.5912 43.0352 24.7054 42.8813C24.8065 42.7539 24.9295 42.5649 25.0746 42.3145C25.2196 42.0464 25.3053 41.8574 25.3316 41.7476C25.3492 41.7036 25.358 41.6641 25.358 41.6289C25.358 41.6385 25.2981 41.7036 25.1782 41.8243L25.0608 41.9413C24.9067 42.0937 24.6926 42.3015 24.4187 42.5649C23.7925 43.167 23.4134 43.5295 23.2816 43.6526C22.9256 43.9778 22.5301 44.3228 22.0951 44.6875C21.805 44.9248 21.5161 45.1588 21.2282 45.3895C20.9404 45.6202 20.6537 45.8499 20.368 46.0784C19.722 46.5969 19.2979 46.9661 19.0958 47.1858C18.9859 47.2957 18.8827 47.4341 18.786 47.6011C18.6805 47.8032 18.5992 47.9834 18.5421 48.1416ZM17.4808 53.0261C17.6742 52.824 17.7862 52.7031 17.817 52.6636C17.9532 52.501 18.0653 52.3098 18.1532 52.0901C18.2411 51.8748 18.3202 51.5737 18.3905 51.187C18.4564 50.8047 18.4894 50.5146 18.4894 50.3169C18.4894 50.1982 18.4905 50.0752 18.4927 49.9478C18.4948 49.8203 18.4959 49.6885 18.4959 49.5522C18.5003 49.2446 18.5179 48.9744 18.5487 48.7415C18.5575 48.3987 18.5619 48.2405 18.5619 48.2668C18.5619 48.2185 18.5575 48.1812 18.5487 48.1548C18.5179 48.124 18.4937 48.135 18.4762 48.1877L17.995 49.3874C17.9554 49.4622 17.9334 49.5808 17.9291 49.7434C17.9203 49.8489 17.9159 50.0312 17.9159 50.2905L17.9291 51.1936C17.9291 51.5671 17.8829 51.855 17.7906 52.0571C17.7511 52.1406 17.7005 52.2285 17.639 52.3208C17.5731 52.3999 17.5204 52.4504 17.4808 52.4724C17.4457 52.5647 17.4259 52.657 17.4215 52.7493C17.4171 52.8416 17.4369 52.9338 17.4808 53.0261ZM15.846 48.4119C15.912 48.4119 16.0141 48.2844 16.1526 48.0295C16.291 47.7747 16.3602 47.5747 16.3602 47.4297C16.3602 47.2759 16.2855 47.1155 16.1361 46.9485C15.9867 46.7991 15.8504 46.7244 15.7274 46.7244C15.6791 46.7244 15.5725 46.8968 15.4077 47.2418C15.2429 47.5868 15.1605 47.7812 15.1605 47.8252C15.1605 47.8691 15.1968 47.9175 15.2693 47.9702C15.3418 48.0229 15.4461 48.1097 15.5824 48.2306C15.7186 48.3514 15.8065 48.4119 15.846 48.4119ZM15.2198 49.9939C15.3561 49.9939 15.545 49.7478 15.7867 49.2556C15.8834 49.3259 16.0042 49.438 16.1493 49.5918C16.2547 49.7017 16.336 49.7566 16.3932 49.7566C16.4635 49.7566 16.5799 49.6401 16.7425 49.4072C16.9007 49.1655 16.9798 48.9634 16.9798 48.8008C16.9798 48.6602 16.9007 48.5063 16.7425 48.3394C16.5799 48.1899 16.4459 48.1152 16.3404 48.1152C16.3097 48.1152 16.2306 48.2207 16.1031 48.4316C16.0152 48.5811 15.9229 48.7349 15.8263 48.8931C15.7735 48.7788 15.6714 48.658 15.5198 48.5305C15.3681 48.4031 15.2572 48.3394 15.1869 48.3394C15.1429 48.3394 15.0276 48.5129 14.8408 48.8601C14.654 49.2073 14.5606 49.4072 14.5606 49.46C14.5606 49.4907 14.6628 49.5874 14.8672 49.75C15.0715 49.9126 15.1891 49.9939 15.2198 49.9939ZM14.9562 54.2522C14.9957 54.2478 15.055 54.2214 15.1341 54.1731C15.1869 54.1379 15.2132 54.1204 15.2132 54.1204C15.3583 54.0457 15.4769 53.9885 15.5692 53.949C15.6131 53.927 15.6878 53.8984 15.7933 53.8633L15.9317 53.8237L16.1416 53.6987L16.1522 53.6969C16.1655 53.6941 16.1891 53.689 16.2228 53.6816L16.2811 53.6688C16.391 53.6447 16.4657 53.626 16.5052 53.6128C16.6019 53.5908 16.7755 53.4832 17.026 53.2898C17.1402 53.2634 17.2292 53.2283 17.2929 53.1843C17.3567 53.1404 17.4193 53.0876 17.4808 53.0261C17.5072 52.9778 17.5248 52.9294 17.5335 52.8811C17.5423 52.8503 17.5467 52.7998 17.5467 52.7295C17.5467 52.7163 17.5401 52.679 17.527 52.6174C17.5094 52.5603 17.494 52.512 17.4808 52.4724C17.4588 52.4856 17.4017 52.5032 17.3094 52.5251C17.2655 52.4988 17.2325 52.4812 17.2105 52.4724C17.1886 52.4636 17.1666 52.4592 17.1446 52.4592C16.9996 52.6746 16.8985 52.7954 16.8414 52.8218C16.7711 52.8657 16.6656 52.835 16.525 52.7295C16.503 52.7295 16.4569 52.8031 16.3866 52.9503C16.3163 53.0975 16.2042 53.1645 16.0504 53.1514C16.0196 53.1514 15.9867 53.1294 15.9515 53.0854C15.9164 53.0415 15.8856 53.0283 15.8592 53.0459C15.846 53.0503 15.8219 53.0854 15.7867 53.1514C15.7516 53.2173 15.7109 53.27 15.6648 53.3096C15.6186 53.3491 15.5549 53.3832 15.4736 53.4117C15.3923 53.4403 15.2967 53.4546 15.1869 53.4546C15.1605 53.4546 15.1341 53.4557 15.1078 53.4579C15.0814 53.4601 15.055 53.4612 15.0287 53.4612C14.9671 53.47 14.9166 53.4853 14.8771 53.5073C14.8111 53.5864 14.7694 53.6611 14.7518 53.7314C14.7342 53.8018 14.732 53.8666 14.7452 53.9259C14.7584 53.9852 14.7837 54.0413 14.821 54.094C14.8584 54.1467 14.9034 54.1995 14.9562 54.2522ZM12.5765 56.5C12.6336 56.5 12.8149 56.4506 13.1203 56.3517C13.4258 56.2528 13.6532 56.1759 13.8026 56.121C13.952 56.066 14.0641 56.0144 14.1388 55.9661C14.2135 55.9177 14.3167 55.7925 14.4486 55.5903C14.5804 55.3882 14.7232 55.074 14.8771 54.6477C14.9122 54.551 14.9441 54.4467 14.9726 54.3346C15.0012 54.2225 15.0232 54.1302 15.0385 54.0577C15.0539 53.9852 15.0682 53.8951 15.0814 53.7875C15.0946 53.6798 15.1012 53.571 15.1012 53.4612C15.1012 53.2458 15.0407 53.0613 14.9199 52.9075C14.799 52.7537 14.6485 52.6768 14.4684 52.6768C14.3629 52.6768 14.2563 52.7471 14.1487 52.8877C14.041 53.0283 13.9344 53.2063 13.829 53.4216C13.7235 53.637 13.6543 53.7941 13.6213 53.8929C13.5884 53.9918 13.5631 54.0786 13.5455 54.1533C13.5279 54.2764 13.5741 54.3884 13.6839 54.4895C13.7938 54.5906 13.93 54.6433 14.0926 54.6477C14.1542 54.6477 14.2168 54.6312 14.2805 54.5983C14.3442 54.5653 14.4068 54.5532 14.4684 54.562C14.4112 54.7642 14.3222 54.9454 14.2014 55.1058C14.0805 55.2662 13.9619 55.3882 13.8454 55.4717C13.729 55.5552 13.4708 55.731 13.0709 55.999C12.671 56.2671 12.4886 56.4253 12.5238 56.4736C12.5238 56.4912 12.5414 56.5 12.5765 56.5ZM9.82114 56.4934C9.86509 56.4934 9.97165 56.4791 10.1408 56.4506C10.31 56.422 10.5342 56.3671 10.8132 56.2858C11.0923 56.2045 11.2944 56.1144 11.4197 56.0155C11.5449 55.9166 11.6603 55.7727 11.7657 55.5837C11.8712 55.3948 11.9931 55.1157 12.1316 54.7466C12.27 54.3774 12.3821 54.0369 12.4677 53.7249C12.5534 53.4128 12.5985 53.1975 12.6029 53.0789C12.6029 52.9998 12.5787 52.9558 12.5304 52.947C12.4732 52.9426 12.4205 52.991 12.3722 53.092C12.3238 53.1931 12.2436 53.3821 12.1316 53.6589C12.0195 53.9358 11.8943 54.2104 11.7558 54.4829C11.6174 54.7554 11.4933 54.9597 11.3834 55.0959C11.2735 55.2322 11.089 55.3915 10.8297 55.5739C10.5704 55.7562 10.343 55.9078 10.1474 56.0287C9.95188 56.1495 9.82993 56.2473 9.78159 56.322C9.74643 56.3704 9.73325 56.4099 9.74204 56.4407C9.75083 56.4714 9.7772 56.489 9.82114 56.4934Z" fill="white"/>
<path fill-rule="evenodd" clip-rule="evenodd" d="M25.8991 1.97293C25.0828 1.97293 24.3685 1.56502 24.002 0.962044C23.6332 1.56502 22.9207 1.97293 22.1021 1.97293C20.99 1.97293 20.0728 1.21957 19.9503 0.25C19.9001 0.446028 19.875 0.646861 19.875 0.847694C19.875 2.17425 20.9398 3.25 22.256 3.25C22.944 3.25 23.5637 2.95596 23.9992 2.48655C24.4318 2.95596 25.0537 3.25 25.7412 3.25C27.0579 3.25 28.125 2.17425 28.125 0.847694C28.125 0.646861 28.1005 0.446028 28.0503 0.25C27.9272 1.21957 27.0106 1.97293 25.8991 1.97293ZM22.0581 5.46022L22.4295 25.9802C19.5566 23.6873 17.4573 20.1511 16.8433 15.9728C16.2283 11.7935 17.2218 7.79101 19.3104 4.75094C16.3581 7.18962 14.4044 10.9518 14.2587 15.2379C14.0674 20.8721 17.0546 25.8429 21.5073 28.1913C19.7638 28.766 17.9163 28.9236 16.1047 28.6506C16.0036 28.6357 15.9036 28.6186 15.8036 28.6015C17.5044 29.3407 19.3407 29.6868 21.1841 29.6147C21.6601 29.5965 22.1346 29.5506 22.6064 29.478L23.9985 31.75L25.3916 29.478C25.8619 29.5506 26.3369 29.5965 26.8134 29.6147C28.6573 29.6873 30.4946 29.3412 32.1965 28.6015C32.0959 28.6186 31.9954 28.6357 31.8944 28.6506C30.0827 28.9236 28.2362 28.7655 26.4923 28.1903C30.9455 25.8429 33.9322 20.8748 33.7414 15.2379C33.5957 10.9518 31.6415 7.18909 28.6896 4.75094C30.7782 7.79101 31.7713 11.7941 31.1568 15.9728C30.5423 20.1511 28.4414 23.6873 25.5701 25.9786L25.9394 5.46022C25.1115 5.22628 24.4837 4.62917 23.9985 4C23.5164 4.62917 22.886 5.22628 22.0581 5.46022ZM36.8455 16.939C36.8455 20.6974 35.5163 24.0924 33.3848 26.5C37.3287 24.3864 39.7556 20.4769 39.75 16.2487C39.75 10.6576 35.5848 5.97373 30 4.75C34.0214 6.75596 36.8455 11.4593 36.8455 16.939ZM8.25001 16.2487C8.24384 20.4769 10.6714 24.3864 14.6152 26.5C12.4837 24.0924 11.1545 20.6974 11.1545 16.939C11.1545 11.4593 13.9781 6.75596 18 4.75C12.4152 5.97373 8.25001 10.6587 8.25001 16.2487Z" fill="white"/>
</svg>
