<svg width="34" height="50" viewBox="0 0 34 50" fill="none" xmlns="http://www.w3.org/2000/svg">
<path d="M11.7298 44.8691C11.7134 45.2345 11.6452 45.5645 11.5252 45.8591C11.408 46.1536 11.243 46.4045 11.0302 46.6118C10.8202 46.8191 10.5666 46.9786 10.2693 47.0905C9.97206 47.2023 9.63525 47.2582 9.25888 47.2582H8.69434V46.3623H9.25888C9.53161 46.3623 9.76615 46.3336 9.96252 46.2764C10.1616 46.2191 10.3252 46.1277 10.4534 46.0023C10.5816 45.8795 10.6771 45.7173 10.7398 45.5155C10.8025 45.3164 10.8339 45.0736 10.8339 44.7873V42.2345H11.7298V44.8691ZM13.0175 46.3623C13.4403 46.3623 13.7866 46.3323 14.0566 46.2723C14.3266 46.2123 14.5394 46.1182 14.6948 45.99C14.7575 45.9382 14.8121 45.8823 14.8584 45.8223C14.9075 45.765 14.9471 45.6982 14.9771 45.6218C15.0098 45.5482 15.0344 45.465 15.0507 45.3723C15.0698 45.2823 15.0807 45.1786 15.0834 45.0614H14.3921C14.193 45.0614 13.9912 45.0341 13.7866 44.9795C13.5848 44.9223 13.4007 44.8282 13.2344 44.6973C13.0707 44.5664 12.9357 44.3932 12.8294 44.1777C12.7257 43.9623 12.6739 43.6964 12.6739 43.38C12.6739 43.1945 12.6889 43.0282 12.7189 42.8809C12.7516 42.7336 12.7925 42.6027 12.8416 42.4882C12.8907 42.3709 12.9453 42.27 13.0053 42.1855C13.0653 42.1009 13.1239 42.0273 13.1812 41.9645C13.3366 41.8091 13.5139 41.6891 13.713 41.6045C13.9148 41.5173 14.1316 41.4736 14.3634 41.4736C14.5653 41.4736 14.7534 41.505 14.928 41.5677C15.1053 41.6305 15.2634 41.7245 15.4025 41.85C15.5907 42.0273 15.7325 42.2509 15.828 42.5209C15.9262 42.7909 15.9753 43.1141 15.9753 43.4905V45C15.9753 45.1964 15.9603 45.3764 15.9303 45.54C15.9003 45.7064 15.8553 45.8577 15.7953 45.9941C15.738 46.1332 15.6644 46.2586 15.5744 46.3705C15.4844 46.485 15.378 46.5914 15.2553 46.6895C15.1325 46.785 14.9975 46.8682 14.8503 46.9391C14.703 47.0127 14.538 47.0727 14.3553 47.1191C14.1725 47.1655 13.9707 47.1995 13.7498 47.2214C13.5316 47.2459 13.2875 47.2582 13.0175 47.2582V46.3623ZM14.3634 42.3695C14.1125 42.3695 13.9175 42.4568 13.7784 42.6314C13.6394 42.8032 13.5698 43.0527 13.5698 43.38C13.5698 43.5436 13.5944 43.6759 13.6434 43.7768C13.6925 43.8777 13.7648 43.9595 13.8603 44.0223C13.9066 44.0523 13.9557 44.0768 14.0075 44.0959C14.0621 44.1123 14.1139 44.1259 14.163 44.1368C14.2121 44.1477 14.2557 44.1559 14.2939 44.1614C14.3348 44.1641 14.3675 44.1655 14.3921 44.1655H15.0834V43.4905C15.0834 43.2995 15.0698 43.14 15.0425 43.0118C15.0153 42.8809 14.9798 42.7745 14.9362 42.6927C14.8925 42.6109 14.8434 42.5482 14.7889 42.5045C14.7371 42.4582 14.6839 42.4255 14.6294 42.4064C14.5775 42.3873 14.5271 42.3764 14.478 42.3736C14.4316 42.3709 14.3934 42.3695 14.3634 42.3695ZM20.2743 45.0614H20.1884C20.0684 45.0614 19.9552 45.0518 19.8489 45.0327C19.7425 45.0136 19.6348 44.9591 19.5257 44.8691C19.5093 45.2345 19.4411 45.5645 19.3211 45.8591C19.2039 46.1536 19.0389 46.4045 18.8261 46.6118C18.6161 46.8191 18.3625 46.9786 18.0652 47.0905C17.768 47.2023 17.4311 47.2582 17.0548 47.2582H16.4902V46.3623H17.0548C17.3275 46.3623 17.5621 46.3336 17.7584 46.2764C17.9575 46.2191 18.1211 46.1277 18.2493 46.0023C18.3775 45.8795 18.473 45.7173 18.5357 45.5155C18.5984 45.3164 18.6298 45.0736 18.6298 44.7873V42.2345H19.5257V43.5191C19.5257 43.6582 19.5543 43.77 19.6116 43.8545C19.6716 43.9391 19.7398 44.0045 19.8161 44.0509C19.8925 44.0973 19.9661 44.1286 20.0371 44.145C20.1107 44.1586 20.1611 44.1655 20.1884 44.1655H20.2743V45.0614ZM18.3843 40.5777L19.0634 39.8905L19.7589 40.5859L19.0716 41.2732L18.3843 40.5777ZM23.5509 44.1655V45.0614H23.2523C23.0123 45.0614 22.7968 45.0286 22.6059 44.9632C22.415 44.895 22.2582 44.7955 22.1354 44.6645C21.9882 44.7927 21.8082 44.8909 21.5954 44.9591C21.3854 45.0273 21.1468 45.0614 20.8795 45.0614H20.1309V44.1655H20.8795C21.0595 44.1655 21.2027 44.1477 21.3091 44.1123C21.4182 44.0768 21.5 44.0332 21.5545 43.9814C21.6091 43.9268 21.6445 43.8682 21.6609 43.8055C21.6773 43.74 21.6854 43.6773 21.6854 43.6173V42.2305H22.5773V43.5886C22.5773 43.6814 22.5909 43.7605 22.6182 43.8259C22.6482 43.8886 22.685 43.9418 22.7286 43.9855C22.7723 44.0264 22.82 44.0591 22.8718 44.0836C22.9236 44.1082 22.9741 44.1273 23.0232 44.1409C23.075 44.1518 23.1213 44.1586 23.1623 44.1614C23.2032 44.1641 23.2332 44.1655 23.2523 44.1655H23.5509ZM21.1536 40.3486L21.8327 39.6614L22.5282 40.3568L21.8409 41.0441L21.1536 40.3486ZM23.4157 46.8205L25.4202 46.0718V46.575L23.4157 47.3277V46.8205ZM23.4039 44.1655C23.6657 44.1655 23.8716 44.1491 24.0216 44.1164C24.1716 44.0809 24.2821 44.0277 24.353 43.9568C24.4021 43.9105 24.4375 43.845 24.4594 43.7605C24.4839 43.6732 24.4962 43.5559 24.4962 43.4086V39.15H25.388V43.4086C25.388 43.5041 25.3825 43.6036 25.3716 43.7073C25.3634 43.8109 25.3444 43.9145 25.3144 44.0182C25.2871 44.1218 25.2462 44.2241 25.1916 44.325C25.1371 44.4259 25.0648 44.5214 24.9748 44.6114C24.8139 44.7641 24.6094 44.8773 24.3612 44.9509C24.113 45.0245 23.7939 45.0614 23.4039 45.0614V44.1655Z" fill="white"/>
<path opacity="0.85" d="M28.268 17.1776L28.3899 29.6513L16.2606 17.7553C16.1113 17.6083 16.009 17.4203 15.9664 17.2151C15.9239 17.01 15.9431 16.7968 16.0217 16.6026C16.1002 16.4083 16.2346 16.2417 16.4078 16.1238C16.5809 16.0059 16.7852 15.9419 16.9947 15.94L26.9324 15.8631C27.1064 15.8617 27.2789 15.8946 27.4402 15.9599C27.6015 16.0252 27.7484 16.1217 27.8724 16.2437C27.9964 16.3658 28.0952 16.5111 28.1631 16.6713C28.2309 16.8315 28.2666 17.0036 28.268 17.1776Z" fill="#D7E100"/>
<path opacity="0.85" d="M24.8415 25.0932L16.0963 34L15.9294 17.0132C15.9226 16.7988 15.9811 16.5873 16.097 16.4068C16.213 16.2263 16.381 16.0852 16.5789 16.0022C16.7767 15.9192 16.9951 15.8982 17.2052 15.942C17.4152 15.9858 17.607 16.0923 17.7553 16.2474L24.8256 23.2223C25.0753 23.4685 25.2172 23.8038 25.2202 24.1545C25.2231 24.5052 25.087 24.8427 24.8415 25.0932Z" fill="#009540"/>
<path opacity="0.85" d="M16.8225 28.2679L4.34872 28.3898L16.2421 16.2606C16.3891 16.1113 16.5771 16.0089 16.7822 15.9664C16.9874 15.9239 17.2005 15.9431 17.3948 16.0216C17.589 16.1002 17.7556 16.2345 17.8736 16.4077C17.9915 16.5809 18.0555 16.7852 18.0574 16.9947L18.1342 26.9323C18.137 27.2833 18.0005 27.621 17.7546 27.8714C17.5086 28.1218 17.1734 28.2644 16.8225 28.2679Z" fill="#0074BF"/>
<path opacity="0.85" d="M8.90678 24.8415L0 16.1069L16.9867 15.94C17.1992 15.935 17.4083 15.9939 17.5868 16.1092C17.7653 16.2245 17.9051 16.3908 17.9879 16.5865C18.0708 16.7822 18.0929 16.9982 18.0514 17.2067C18.0099 17.4151 17.9067 17.6062 17.7553 17.7553L10.7777 24.8256C10.5314 25.0753 10.1962 25.2172 9.84553 25.2202C9.49483 25.2231 9.15725 25.087 8.90678 24.8415Z" fill="#A11A63"/>
<path opacity="0.85" d="M5.73204 16.8224L5.61014 4.34869L17.7394 16.2421C17.8887 16.3891 17.991 16.577 18.0336 16.7822C18.0761 16.9874 18.0569 17.2005 17.9783 17.3948C17.8998 17.589 17.7654 17.7556 17.5923 17.8735C17.4191 17.9915 17.2148 18.0554 17.0053 18.0573L7.06766 18.1342C6.71669 18.137 6.37895 18.0005 6.12854 17.7545C5.87814 17.5086 5.73554 17.1734 5.73204 16.8224Z" fill="#EF008C"/>
<path opacity="0.85" d="M9.15853 8.90678L17.8931 0L18.06 16.9867C18.0628 17.197 18.003 17.4034 17.8883 17.5796C17.7735 17.7558 17.6089 17.8938 17.4154 17.9762C17.2219 18.0586 17.0083 18.0816 16.8017 18.0423C16.5952 18.0029 16.405 17.903 16.2553 17.7553L9.17443 10.7777C8.92471 10.5314 8.78281 10.1962 8.77983 9.84553C8.77685 9.49483 8.91303 9.15725 9.15853 8.90678Z" fill="#F4581B"/>
<path opacity="0.85" d="M17.1776 5.73201L29.6513 5.61011L17.7553 17.7393C17.6083 17.8886 17.4203 17.991 17.2151 18.0335C17.01 18.0761 16.7968 18.0569 16.6026 17.9783C16.4083 17.8998 16.2417 17.7654 16.1238 17.5922C16.0059 17.419 15.9419 17.2148 15.94 17.0053L15.8631 7.06763C15.8617 6.89362 15.8946 6.72105 15.9599 6.55975C16.0252 6.39846 16.1217 6.25161 16.2437 6.12758C16.3658 6.00356 16.5111 5.90479 16.6713 5.83692C16.8315 5.76904 17.0036 5.7334 17.1776 5.73201Z" fill="#F99500"/>
<path opacity="0.85" d="M25.0932 9.15853L34 17.9037L17.0133 18.0706C16.8032 18.0729 16.5972 18.0127 16.4214 17.8977C16.2457 17.7827 16.108 17.6181 16.0259 17.4248C15.9439 17.2314 15.9211 17.018 15.9606 16.8117C16 16.6054 16.0998 16.4154 16.2474 16.2659L23.2223 9.17443C23.4686 8.92471 23.8038 8.78281 24.1545 8.77983C24.5052 8.77685 24.8428 8.91303 25.0932 9.15853Z" fill="#FEB130"/>
</svg>
