<svg width="92" height="92" viewBox="0 0 92 92" fill="none" xmlns="http://www.w3.org/2000/svg">
<rect x="1" y="1" width="90" height="90" stroke="#55A2E7" stroke-opacity="0.6"/>
<path d="M40.7298 67.8691C40.7134 68.2345 40.6452 68.5645 40.5252 68.8591C40.408 69.1536 40.243 69.4045 40.0302 69.6118C39.8202 69.8191 39.5666 69.9786 39.2693 70.0905C38.9721 70.2023 38.6352 70.2582 38.2589 70.2582H37.6943V69.3623H38.2589C38.5316 69.3623 38.7662 69.3336 38.9625 69.2764C39.1616 69.2191 39.3252 69.1277 39.4534 69.0023C39.5816 68.8795 39.6771 68.7173 39.7398 68.5155C39.8025 68.3164 39.8339 68.0736 39.8339 67.7873V65.2345H40.7298V67.8691ZM42.0175 69.3623C42.4403 69.3623 42.7866 69.3323 43.0566 69.2723C43.3266 69.2123 43.5394 69.1182 43.6948 68.99C43.7575 68.9382 43.8121 68.8823 43.8584 68.8223C43.9075 68.765 43.9471 68.6982 43.9771 68.6218C44.0098 68.5482 44.0344 68.465 44.0507 68.3723C44.0698 68.2823 44.0807 68.1786 44.0834 68.0614H43.3921C43.193 68.0614 42.9912 68.0341 42.7866 67.9795C42.5848 67.9223 42.4007 67.8282 42.2344 67.6973C42.0707 67.5664 41.9357 67.3932 41.8294 67.1777C41.7257 66.9623 41.6739 66.6964 41.6739 66.38C41.6739 66.1945 41.6889 66.0282 41.7189 65.8809C41.7516 65.7336 41.7925 65.6027 41.8416 65.4882C41.8907 65.3709 41.9453 65.27 42.0053 65.1855C42.0653 65.1009 42.1239 65.0273 42.1812 64.9645C42.3366 64.8091 42.5139 64.6891 42.713 64.6045C42.9148 64.5173 43.1316 64.4736 43.3634 64.4736C43.5653 64.4736 43.7534 64.505 43.928 64.5677C44.1053 64.6305 44.2634 64.7245 44.4025 64.85C44.5907 65.0273 44.7325 65.2509 44.828 65.5209C44.9262 65.7909 44.9753 66.1141 44.9753 66.4905V68C44.9753 68.1964 44.9603 68.3764 44.9303 68.54C44.9003 68.7064 44.8553 68.8577 44.7953 68.9941C44.738 69.1332 44.6644 69.2586 44.5744 69.3705C44.4844 69.485 44.378 69.5914 44.2553 69.6895C44.1325 69.785 43.9975 69.8682 43.8503 69.9391C43.703 70.0127 43.538 70.0727 43.3553 70.1191C43.1725 70.1655 42.9707 70.1995 42.7498 70.2214C42.5316 70.2459 42.2875 70.2582 42.0175 70.2582V69.3623ZM43.3634 65.3695C43.1125 65.3695 42.9175 65.4568 42.7784 65.6314C42.6394 65.8032 42.5698 66.0527 42.5698 66.38C42.5698 66.5436 42.5944 66.6759 42.6434 66.7768C42.6925 66.8777 42.7648 66.9595 42.8603 67.0223C42.9066 67.0523 42.9557 67.0768 43.0075 67.0959C43.0621 67.1123 43.1139 67.1259 43.163 67.1368C43.2121 67.1477 43.2557 67.1559 43.2939 67.1614C43.3348 67.1641 43.3675 67.1655 43.3921 67.1655H44.0834V66.4905C44.0834 66.2995 44.0698 66.14 44.0425 66.0118C44.0153 65.8809 43.9798 65.7745 43.9362 65.6927C43.8925 65.6109 43.8434 65.5482 43.7889 65.5045C43.7371 65.4582 43.6839 65.4255 43.6294 65.4064C43.5775 65.3873 43.5271 65.3764 43.478 65.3736C43.4316 65.3709 43.3934 65.3695 43.3634 65.3695ZM49.2743 68.0614H49.1884C49.0684 68.0614 48.9552 68.0518 48.8489 68.0327C48.7425 68.0136 48.6348 67.9591 48.5257 67.8691C48.5093 68.2345 48.4411 68.5645 48.3211 68.8591C48.2039 69.1536 48.0389 69.4045 47.8261 69.6118C47.6161 69.8191 47.3625 69.9786 47.0652 70.0905C46.768 70.2023 46.4311 70.2582 46.0548 70.2582H45.4902V69.3623H46.0548C46.3275 69.3623 46.5621 69.3336 46.7584 69.2764C46.9575 69.2191 47.1211 69.1277 47.2493 69.0023C47.3775 68.8795 47.473 68.7173 47.5357 68.5155C47.5984 68.3164 47.6298 68.0736 47.6298 67.7873V65.2345H48.5257V66.5191C48.5257 66.6582 48.5543 66.77 48.6116 66.8545C48.6716 66.9391 48.7398 67.0045 48.8161 67.0509C48.8925 67.0973 48.9661 67.1286 49.0371 67.145C49.1107 67.1586 49.1611 67.1655 49.1884 67.1655H49.2743V68.0614ZM47.3843 63.5777L48.0634 62.8905L48.7589 63.5859L48.0716 64.2732L47.3843 63.5777ZM52.5509 67.1655V68.0614H52.2523C52.0123 68.0614 51.7968 68.0286 51.6059 67.9632C51.415 67.895 51.2582 67.7955 51.1354 67.6645C50.9882 67.7927 50.8082 67.8909 50.5954 67.9591C50.3854 68.0273 50.1468 68.0614 49.8795 68.0614H49.1309V67.1655H49.8795C50.0595 67.1655 50.2027 67.1477 50.3091 67.1123C50.4182 67.0768 50.5 67.0332 50.5545 66.9814C50.6091 66.9268 50.6445 66.8682 50.6609 66.8055C50.6773 66.74 50.6854 66.6773 50.6854 66.6173V65.2305H51.5773V66.5886C51.5773 66.6814 51.5909 66.7605 51.6182 66.8259C51.6482 66.8886 51.685 66.9418 51.7286 66.9855C51.7723 67.0264 51.82 67.0591 51.8718 67.0836C51.9236 67.1082 51.9741 67.1273 52.0232 67.1409C52.075 67.1518 52.1213 67.1586 52.1623 67.1614C52.2032 67.1641 52.2332 67.1655 52.2523 67.1655H52.5509ZM50.1536 63.3486L50.8327 62.6614L51.5282 63.3568L50.8409 64.0441L50.1536 63.3486ZM52.4157 69.8205L54.4202 69.0718V69.575L52.4157 70.3277V69.8205ZM52.4039 67.1655C52.6657 67.1655 52.8716 67.1491 53.0216 67.1164C53.1716 67.0809 53.2821 67.0277 53.353 66.9568C53.4021 66.9105 53.4375 66.845 53.4594 66.7605C53.4839 66.6732 53.4962 66.5559 53.4962 66.4086V62.15H54.388V66.4086C54.388 66.5041 54.3825 66.6036 54.3716 66.7073C54.3634 66.8109 54.3444 66.9145 54.3144 67.0182C54.2871 67.1218 54.2462 67.2241 54.1916 67.325C54.1371 67.4259 54.0648 67.5214 53.9748 67.6114C53.8139 67.7641 53.6094 67.8773 53.3612 67.9509C53.113 68.0245 52.7939 68.0614 52.4039 68.0614V67.1655Z" fill="white"/>
<path opacity="0.85" d="M57.2679 40.1775L57.3898 52.6512L45.2606 40.7552C45.1113 40.6082 45.0089 40.4202 44.9664 40.2151C44.9239 40.0099 44.9431 39.7968 45.0216 39.6025C45.1002 39.4083 45.2345 39.2417 45.4077 39.1237C45.5809 39.0058 45.7852 38.9418 45.9947 38.9399L55.9323 38.8631C56.1063 38.8617 56.2789 38.8946 56.4402 38.9599C56.6015 39.0252 56.7483 39.1216 56.8724 39.2437C56.9964 39.3657 57.0952 39.511 57.163 39.6712C57.2309 39.8315 57.2666 40.0035 57.2679 40.1775Z" fill="#D7E100"/>
<path opacity="0.85" d="M53.8414 48.0932L45.0963 57L44.9294 40.0132C44.9226 39.7988 44.981 39.5873 45.097 39.4068C45.213 39.2263 45.381 39.0852 45.5788 39.0022C45.7767 38.9192 45.9951 38.8982 46.2051 38.942C46.4152 38.9858 46.607 39.0923 46.7552 39.2474L53.8255 46.2223C54.0753 46.4685 54.2172 46.8038 54.2201 47.1545C54.2231 47.5052 54.0869 47.8427 53.8414 48.0932Z" fill="#009540"/>
<path opacity="0.85" d="M45.8225 51.2679L33.3488 51.3898L45.2421 39.2606C45.3891 39.1113 45.5771 39.0089 45.7823 38.9664C45.9874 38.9239 46.2006 38.9431 46.3948 39.0216C46.5891 39.1002 46.7557 39.2345 46.8736 39.4077C46.9915 39.5809 47.0555 39.7852 47.0574 39.9947L47.1343 49.9323C47.1371 50.2833 47.0005 50.621 46.7546 50.8714C46.5087 51.1218 46.1734 51.2644 45.8225 51.2679Z" fill="#0074BF"/>
<path opacity="0.85" d="M37.9068 47.8415L29 39.1069L45.9867 38.94C46.1992 38.935 46.4083 38.9939 46.5868 39.1092C46.7653 39.2245 46.9051 39.3908 46.9879 39.5865C47.0708 39.7822 47.0929 39.9982 47.0514 40.2067C47.0099 40.4151 46.9067 40.6062 46.7553 40.7553L39.7777 47.8256C39.5314 48.0753 39.1962 48.2172 38.8455 48.2202C38.4948 48.2231 38.1572 48.087 37.9068 47.8415Z" fill="#A11A63"/>
<path opacity="0.85" d="M34.732 39.8224L34.6101 27.3486L46.7393 39.242C46.8886 39.389 46.991 39.577 47.0335 39.7821C47.0761 39.9873 47.0569 40.2005 46.9783 40.3947C46.8998 40.5889 46.7654 40.7555 46.5922 40.8735C46.419 40.9914 46.2148 41.0554 46.0053 41.0573L36.0676 41.1341C35.7167 41.137 35.3789 41.0004 35.1285 40.7545C34.8781 40.5086 34.7355 40.1733 34.732 39.8224Z" fill="#EF008C"/>
<path opacity="0.85" d="M38.1585 31.9068L46.8931 23L47.06 39.9867C47.0628 40.197 47.003 40.4034 46.8883 40.5796C46.7735 40.7558 46.6089 40.8938 46.4154 40.9762C46.2219 41.0586 46.0083 41.0816 45.8017 41.0423C45.5952 41.0029 45.405 40.903 45.2553 40.7553L38.1744 33.7777C37.9247 33.5314 37.7828 33.1962 37.7798 32.8455C37.7769 32.4948 37.913 32.1572 38.1585 31.9068Z" fill="#F4581B"/>
<path opacity="0.85" d="M46.1775 28.732L58.6512 28.6101L46.7552 40.7393C46.6082 40.8886 46.4202 40.991 46.2151 41.0335C46.0099 41.0761 45.7968 41.0569 45.6025 40.9783C45.4083 40.8998 45.2417 40.7654 45.1237 40.5922C45.0058 40.419 44.9418 40.2148 44.9399 40.0053L44.8631 30.0676C44.8617 29.8936 44.8946 29.721 44.9599 29.5598C45.0252 29.3985 45.1216 29.2516 45.2437 29.1276C45.3657 29.0036 45.511 28.9048 45.6712 28.8369C45.8315 28.769 46.0035 28.7334 46.1775 28.732Z" fill="#F99500"/>
<path opacity="0.85" d="M54.0932 32.1585L62.9999 40.9037L46.0132 41.0706C45.8032 41.0729 45.5972 41.0127 45.4214 40.8977C45.2456 40.7827 45.1079 40.6181 45.0259 40.4248C44.9438 40.2314 44.9211 40.018 44.9605 39.8117C44.9999 39.6054 45.0998 39.4154 45.2473 39.2659L52.2222 32.1744C52.4685 31.9247 52.8037 31.7828 53.1544 31.7798C53.5051 31.7769 53.8427 31.913 54.0932 32.1585Z" fill="#FEB130"/>
</svg>
