<svg width="60" height="14" viewBox="0 0 60 14" fill="none" xmlns="http://www.w3.org/2000/svg">
<g clip-path="url(#clip0_13096_144)">
<path d="M9.74752 5.14502L6.4972 7.00553L3.25439 5.14502V7.00165L6.4972 8.85331L9.74752 7.00165V5.14502Z" fill="url(#paint0_linear_13096_144)"/>
<path fill-rule="evenodd" clip-rule="evenodd" d="M6.49428 0C6.94819 0.000116337 7.39363 0.117669 7.78354 0.340236L11.7542 2.60847C12.1329 2.82724 12.4463 3.13596 12.664 3.50474C12.8817 3.87352 12.9962 4.28988 12.9966 4.71351V9.28871C12.9957 9.71187 12.8809 10.1277 12.6633 10.4959C12.4456 10.8642 12.1325 11.1724 11.7542 11.391L7.78412 13.6592C7.39407 13.8822 6.94827 14 6.49399 14C6.03971 14 5.5939 13.8822 5.20385 13.6592L1.24132 11.391C0.863109 11.1724 0.550155 10.8641 0.332705 10.4958C0.115256 10.1275 0.000662619 9.71178 0 9.28871L0 4.7124C0.000946402 4.28931 0.115722 3.8736 0.333254 3.50537C0.550786 3.13713 0.863732 2.82881 1.2419 2.61013L5.20443 0.341895C5.59419 0.118319 6.03996 0.000160196 6.49428 0ZM6.49428 1.55513C6.34572 1.5551 6.19988 1.59332 6.07203 1.66577L2.02863 3.97827C1.90482 4.04981 1.80249 4.15086 1.73162 4.27158C1.66076 4.3923 1.62378 4.52855 1.62429 4.66704V9.33352C1.62378 9.47201 1.66076 9.60826 1.73162 9.72897C1.80249 9.84969 1.90482 9.95075 2.02863 10.0223L6.07203 12.3353C6.19965 12.4084 6.34557 12.4471 6.49428 12.4471C6.64298 12.4471 6.78891 12.4084 6.91652 12.3353L10.9657 10.0206C11.0895 9.94909 11.1918 9.84803 11.2627 9.72731C11.3336 9.6066 11.3706 9.47035 11.37 9.33186V4.66704C11.3706 4.52855 11.3336 4.3923 11.2627 4.27158C11.1918 4.15086 11.0895 4.04981 10.9657 3.97827L6.91652 1.66466C6.78867 1.59221 6.64284 1.55399 6.49428 1.55402V1.55513Z" fill="url(#paint1_linear_13096_144)"/>
<path d="M17.4265 11.6178H16.0674V1.63867H17.4265V11.6178Z" fill="white"/>
<path d="M20.1437 4.24097H18.7852V11.6177H20.1437V4.24097Z" fill="white"/>
<path d="M22.8613 11.6178H21.5027V4.30911C21.5027 2.36672 21.9896 1.63867 23.6671 1.63867C23.9593 1.63867 24.8333 1.63867 25.1256 1.69399L25.0811 2.54486C24.7305 2.48954 23.8946 2.48954 23.778 2.48954C23.0172 2.48954 22.8613 3.2364 22.8613 4.37605V5.08971H25.1267V5.95717H22.8624L22.8613 11.6178Z" fill="white"/>
<path d="M41.8838 4.24097H43.243L41.431 11.6177H39.6253L38.2638 5.54216L36.9018 11.6177H35.0903L33.2783 4.24097H34.6375L35.9961 10.29L37.3546 4.24097H39.1667L40.5252 10.2795L41.8838 4.24097Z" fill="white"/>
<path d="M19.74 1.63745H19.1889C19.0442 1.63745 18.9053 1.69253 18.8029 1.79058C18.7006 1.88862 18.6431 2.0216 18.6431 2.16025V2.68803C18.6437 2.8263 18.7015 2.95871 18.8038 3.05628C18.9061 3.15384 19.0446 3.20862 19.1889 3.20862H19.74C19.8848 3.20862 20.0236 3.15354 20.126 3.0555C20.2283 2.95745 20.2858 2.82447 20.2858 2.68582V2.16025C20.2858 2.0216 20.2283 1.88862 20.126 1.79058C20.0236 1.69253 19.8848 1.63745 19.74 1.63745Z" fill="white"/>
<path fill-rule="evenodd" clip-rule="evenodd" d="M59.1647 5.04213C59.4295 5.29576 59.6396 5.59686 59.7829 5.92823C59.9262 6.25961 59.9999 6.61478 59.9999 6.97345V8.8832C60.0002 9.24221 59.9267 9.59776 59.7834 9.92952C59.6402 10.2613 59.4301 10.5628 59.1652 10.8167C58.9002 11.0707 58.5856 11.2722 58.2393 11.4096C57.8931 11.5471 57.5219 11.6178 57.147 11.6178H55.1531C54.6261 11.6173 54.1097 11.4763 53.6616 11.2106V11.6178H52.3042V1.63867H53.6616V4.64713C54.1107 4.38172 54.6282 4.24148 55.156 4.24217H57.1499C57.9056 4.24296 58.6301 4.53063 59.1647 5.04213ZM58.6448 6.475C58.6449 6.29557 58.6081 6.1179 58.5364 5.95211C58.4648 5.78633 58.3598 5.63568 58.2273 5.50879C58.0949 5.38189 57.9376 5.28123 57.7646 5.21255C57.5915 5.14387 57.406 5.10852 57.2187 5.10852H55.0866C54.7089 5.10896 54.3468 5.25282 54.0797 5.50856C53.8126 5.76429 53.6622 6.11104 53.6616 6.47278V9.37945C53.6615 9.55893 53.6983 9.73669 53.7699 9.90254C53.8416 10.0684 53.9467 10.2191 54.0792 10.346C54.2117 10.4729 54.369 10.5736 54.5422 10.6422C54.7154 10.7108 54.901 10.7461 55.0884 10.7459H57.2175C57.5958 10.7458 57.9585 10.6017 58.226 10.3455C58.4934 10.0892 58.6437 9.74176 58.6437 9.37945L58.6448 6.475Z" fill="white"/>
<path fill-rule="evenodd" clip-rule="evenodd" d="M51.3921 9.01256C51.3578 9.71444 51.0426 10.3767 50.5119 10.8618C49.9811 11.3469 49.2757 11.6176 48.5421 11.6177H46.5487C45.7921 11.6177 45.0664 11.3298 44.5314 10.8174C43.9964 10.305 43.6958 9.61 43.6958 8.88532V6.97336C43.6958 6.24869 43.9964 5.55369 44.5314 5.04127C45.0664 4.52884 45.7921 4.24097 46.5487 4.24097H48.5421C49.2988 4.24097 50.0245 4.52883 50.5596 5.04123C51.0947 5.55364 51.3954 6.24864 51.3956 6.97336V8.14676H45.055V9.38046C45.0548 9.55995 45.0916 9.7377 45.1633 9.90356C45.2349 10.0694 45.34 10.2201 45.4725 10.347C45.605 10.4739 45.7624 10.5746 45.9355 10.6432C46.1087 10.7118 46.2943 10.7471 46.4817 10.7469H48.6108C48.9889 10.7468 49.3515 10.6029 49.6189 10.3469C49.8863 10.0909 50.0367 9.74369 50.037 9.38157V9.01256H51.3921ZM45.055 7.27764H50.0341V6.47269C50.0342 6.29327 49.9974 6.11559 49.9257 5.94981C49.8541 5.78402 49.749 5.63338 49.6166 5.50648C49.4842 5.37958 49.3269 5.27892 49.1539 5.21024C48.9808 5.14157 48.7953 5.10622 48.608 5.10622H46.4788C46.1009 5.10695 45.7388 5.25124 45.4718 5.50742C45.2049 5.76361 45.055 6.11076 45.055 6.47269V7.27764Z" fill="white"/>
<path fill-rule="evenodd" clip-rule="evenodd" d="M33.2748 9.17858C33.2405 9.88036 32.9254 10.5425 32.3948 11.0276C31.8642 11.5127 31.1589 11.7835 30.4254 11.7837H28.432C27.6754 11.7836 26.9499 11.4957 26.4149 10.9833C25.8799 10.4709 25.5793 9.77597 25.5791 9.05134V7.13938C25.5793 6.41475 25.8799 5.71984 26.4149 5.20744C26.9499 4.69505 27.6754 4.40713 28.432 4.40698H30.4254C31.182 4.40713 31.9076 4.69505 32.4425 5.20744C32.9775 5.71984 33.2782 6.41475 33.2783 7.13938V8.31277H26.9377V9.54647C26.9375 9.72596 26.9743 9.90372 27.046 10.0696C27.1176 10.2354 27.2227 10.3861 27.3552 10.513C27.4877 10.64 27.6451 10.7406 27.8183 10.8092C27.9914 10.8778 28.177 10.9131 28.3644 10.9129H30.4988C30.8765 10.9122 31.2384 10.7681 31.5053 10.5121C31.7723 10.2562 31.9223 9.90932 31.9226 9.54758V9.17858H33.2748ZM26.9377 7.44365H31.9226V6.63871C31.922 6.27716 31.7718 5.93058 31.5049 5.67487C31.2381 5.41916 30.8763 5.27518 30.4988 5.27444H28.3673C27.9889 5.27444 27.626 5.41841 27.3585 5.67468C27.0909 5.93094 26.9406 6.27851 26.9406 6.64092L26.9377 7.44365Z" fill="white"/>
</g>
<defs>
<linearGradient id="paint0_linear_13096_144" x1="3.25439" y1="7.00055" x2="9.74752" y2="7.00055" gradientUnits="userSpaceOnUse">
<stop stop-color="#00B2B9"/>
<stop offset="0.12" stop-color="#07B3B2"/>
<stop offset="0.31" stop-color="#1AB59D"/>
<stop offset="0.53" stop-color="#39B87C"/>
<stop offset="0.77" stop-color="#65BC4F"/>
<stop offset="1" stop-color="#92C01F"/>
</linearGradient>
<linearGradient id="paint1_linear_13096_144" x1="0.36044" y1="10.6336" x2="12.2549" y2="2.95798" gradientUnits="userSpaceOnUse">
<stop stop-color="#00B2B9"/>
<stop offset="0.36" stop-color="#60B787"/>
<stop offset="0.5" stop-color="#86BD4A"/>
<stop offset="0.75" stop-color="#75B969"/>
<stop offset="1" stop-color="#92C01F"/>
</linearGradient>
<clipPath id="clip0_13096_144">
<rect width="60" height="14" fill="white"/>
</clipPath>
</defs>
</svg>
