<svg width="60" height="59" viewBox="0 0 60 59" fill="none" xmlns="http://www.w3.org/2000/svg">
<path d="M39.1882 12.3169C38.9336 13.2072 39.4495 13.9177 40.2113 14.5909C41.0894 15.3628 41.8556 16.2509 42.7118 17.0469C43.107 17.4131 43.085 17.6236 42.7118 17.9854C41.6514 18.992 40.635 20.0401 39.6054 21.0774C39.2914 21.3931 38.9468 24.0092 39.2234 24.3074C39.5285 24.6407 39.983 24.4039 40.3628 24.4807C40.8392 24.5793 41.5922 24.1846 41.7502 24.6999C41.9698 25.4016 41.8161 26.2152 41.7876 26.9783C41.7876 27.1976 41.5197 27.1844 41.3485 27.1976C40.9833 27.2306 40.6159 27.2306 40.2508 27.1976C39.3222 27.0594 39.0477 27.4388 39.1202 28.3423C39.1597 28.8357 39.4583 29.6317 38.8831 29.8181C38.1894 30.0373 37.3595 29.9408 36.6065 29.8378C36.2026 29.783 36.387 29.2808 36.387 28.9804C36.3474 27.1713 36.354 27.1976 34.5231 27.1866C34.1808 27.1677 33.8387 27.2268 33.5227 27.3594C33.2066 27.492 32.9249 27.6946 32.6988 27.9519C31.8338 28.8905 30.8832 29.7523 30.0094 30.6842C29.6187 31.1009 29.3794 31.1096 28.9776 30.6842C28.0007 29.6492 26.9776 28.658 25.959 27.6625C25.5704 27.2809 23.105 26.9564 22.7121 27.2458C22.3652 27.5068 22.5979 27.919 22.543 28.2589C22.4574 28.7852 22.8196 29.5944 22.3608 29.7939C21.7373 30.0549 20.9338 29.8882 20.2071 29.8992C19.97 29.8992 19.9108 29.7303 19.8998 29.5352C19.8998 29.3882 19.8998 29.2413 19.8998 29.0966C19.8515 27.248 19.8515 27.2042 18.0403 27.2327C17.2785 27.2458 17.0612 26.9783 17.1622 26.292C17.1867 26.1468 17.1867 25.9985 17.1622 25.8534C16.9426 24.6846 17.4586 24.2965 18.5672 24.4763C19.509 24.632 19.8427 24.2943 19.8581 23.2702C19.8756 22.0444 19.599 21.1015 18.6419 20.2989C17.8054 19.5972 17.0897 18.7507 16.2906 18.003C15.9064 17.6456 15.8998 17.4043 16.2906 17.0359C17.2434 16.1325 18.1106 15.1325 19.1007 14.2708C20.2313 13.2906 19.7593 12.0538 19.7725 10.9025C19.7725 10.464 19.3202 10.6569 19.0699 10.6438C17.0502 10.5539 17.0788 10.5605 17.1578 8.5562C17.1819 7.94659 17.4146 7.85449 17.9481 7.84571C19.8142 7.81063 19.8339 7.79089 19.8932 5.87215C19.9108 5.36341 20.0205 5.11343 20.5628 5.19676C20.6716 5.20664 20.7811 5.20664 20.8899 5.19676C22.543 5.19676 22.5935 5.19676 22.5298 6.83262C22.4991 7.64617 22.7208 7.80624 23.5309 7.86764C24.9645 7.97509 26.0402 7.59354 26.9381 6.45765C27.5682 5.66164 28.3871 5.01475 29.083 4.2648C29.4057 3.91613 29.6011 3.90736 29.9304 4.2648C30.7295 5.11562 31.6867 5.84145 32.3716 6.77341C33.3661 8.13956 34.7229 7.80405 36.0269 7.8194C36.5889 7.8194 36.3716 7.36329 36.3826 7.08918C36.4594 5.09369 36.4528 5.11562 38.4726 5.18579C38.9797 5.20553 39.2409 5.31736 39.1597 5.859C39.1564 5.89547 39.1564 5.93216 39.1597 5.96864C39.2168 7.81282 39.2168 7.84572 40.9972 7.8501C41.6712 7.8501 41.9456 8.03869 41.8446 8.72724C41.8041 8.98 41.8041 9.23759 41.8446 9.49035C42.0203 10.4662 41.6251 10.7403 40.6657 10.6789C39.1882 10.567 39.1882 10.635 39.1882 12.3169ZM36.1806 13.1414C36.1592 12.8355 36.1592 12.5285 36.1806 12.2226C36.4001 11.0495 35.8776 10.6745 34.7778 10.8675C32.96 11.1854 31.522 10.5955 30.4727 9.06713C30.3914 8.94872 30.2531 8.87635 30.1653 8.75794C29.6823 8.02991 29.2235 8.13079 28.7559 8.77329C27.4628 10.5473 25.7373 11.2666 23.5639 10.8675C22.7889 10.7249 22.5979 11.1262 22.7186 11.7819C23.1094 13.9265 22.3542 15.5865 20.6067 16.8386C20.5782 16.8583 20.5584 16.8956 20.5277 16.9131C19.801 17.3802 19.8998 17.8276 20.5496 18.2749C22.3652 19.5292 23.105 21.2396 22.7142 23.4193C22.5672 24.2373 22.9755 24.45 23.6868 24.3206C25.7921 23.939 27.4453 24.6407 28.6681 26.384C28.7076 26.4411 28.7822 26.4783 28.8217 26.5375C29.2762 27.2349 29.6999 27.0879 30.1192 26.5025C31.3684 24.792 32.9732 23.871 35.1685 24.3228C36.0884 24.5114 36.3211 24.0355 36.1828 23.2439C35.8271 21.2221 36.4967 19.6345 38.174 18.4591C38.2025 18.4394 38.2223 18.4043 38.253 18.3845C39.0104 17.8802 38.9468 17.4723 38.2881 16.8298C37.1751 15.7575 35.5132 14.9089 36.1696 13.1414H36.1806Z" fill="white"/>
<path d="M30.9147 54.214C30.75 54.6974 30.5933 55.0549 30.5129 55.4304C30.4004 55.9438 30.2316 56.505 30.7761 56.8925C31.3206 57.28 31.9333 57.2261 32.4798 56.9305C33.3036 56.489 33.7074 55.77 33.7436 54.8232C33.8038 53.3112 33.8199 53.3232 35.3368 53.457C37.0021 53.6008 38.6777 53.3424 40.2209 52.704C41.551 52.1667 42.4792 51.2719 42.8931 49.8198C43.2647 50.2193 42.9332 50.457 42.9393 50.7206C42.9185 50.9828 42.8693 51.242 42.7926 51.4936C42.6098 52.4384 42.885 52.72 44.0262 52.6201C42.9875 52.1627 43.4436 51.7193 43.9579 51.3478C44.3236 51.065 44.614 50.6974 44.8037 50.2772C44.9223 50.0455 45.083 49.704 45.4868 49.8618C45.7259 49.9536 46.0896 49.9776 46.1137 50.2612C46.1378 50.5449 45.8967 50.8125 45.6295 50.9643C45.2076 51.202 44.7716 51.4097 44.3637 51.6195C44.3175 52.0848 45.093 51.6474 44.9383 52.2287C44.7836 52.8099 43.5762 53.9104 43.0578 53.8645C42.1959 53.7846 42.2662 53.0396 42.0753 52.3864C39.9417 54.1841 37.4685 54.7673 34.7803 54.5736C34.1554 54.5296 34.1996 54.993 34.1152 55.3525C33.8681 56.4131 33.4623 57.3839 32.522 58.021C31.5175 58.6961 30.3743 58.4205 30.0086 57.4697C29.6651 56.5669 30.0548 55.037 30.9147 54.214Z" fill="white"/>
<path d="M1.40479 37.7398C1.83674 37.3643 2.07784 37.1406 2.33902 36.9309C2.60021 36.7211 2.62432 36.5314 2.38724 36.2857C2.25866 36.1479 2.0698 35.9122 2.11199 35.7983C2.23656 35.4748 2.26268 34.9754 2.60623 34.8955C2.94979 34.8156 3.07436 35.269 3.25719 35.5327C3.53846 35.9422 3.32148 36.3656 3.15071 36.6652C2.36916 38.0274 2.76094 39.5734 2.38724 40.9935C2.34034 41.1751 2.36686 41.3678 2.46112 41.5302C2.55539 41.6926 2.70989 41.8118 2.89153 41.8624C3.27125 42.0042 3.43399 41.6327 3.56257 41.399C3.64706 41.1997 3.80404 41.0394 4.00218 40.9502C4.20032 40.861 4.42503 40.8493 4.63142 40.9176C8.06701 41.6906 11.0726 40.604 13.9075 38.7824C14.5102 38.3929 15.0989 37.9395 15.8845 37.9355C15.8888 38.0743 15.855 38.2116 15.7867 38.3327C15.7184 38.4538 15.6181 38.554 15.4967 38.6226C13.2003 40.0088 11.0767 41.7505 8.31413 42.1879C6.99816 42.3877 5.64803 42.4776 4.33608 42.108C3.8338 41.9662 3.53244 42.0361 3.31545 42.5255C3.14669 42.897 2.86742 43.2306 2.38121 43.0848C1.89501 42.9389 1.79656 42.5075 1.8046 42.0481C1.84852 40.8576 1.99777 39.6733 2.25062 38.5088C2.40131 37.7518 2.43747 37.7578 1.40479 37.7398Z" fill="white"/>
<path d="M30.2778 48.1422C29.9202 48.8692 29.2391 48.8692 28.7087 48.9891C25.2109 49.8076 21.655 50.3579 18.0724 50.6349C17.1726 50.7036 16.2677 50.656 15.3802 50.4931C14.4701 50.3193 14.2491 49.9598 14.7212 49.2248C15.3079 48.31 16.4008 47.8386 16.8911 46.8C17.0438 46.4804 17.4556 46.79 17.6746 46.9498C17.972 47.1655 17.9117 47.4651 17.6746 47.7227C17.327 48.1062 16.8449 48.27 16.3828 48.4418C15.9881 48.5536 15.6268 48.7593 15.33 49.041C15.8262 49.4265 16.3727 49.4944 16.9373 49.4984C20.5858 49.5164 24.1821 49.009 27.7704 48.4238C28.5781 48.294 29.3677 48.0583 30.2778 48.1422Z" fill="white"/>
<path d="M49.4526 40.1507L48.4702 39.9889C48.8961 38.9223 50.5215 37.7239 51.7892 37.5481C51.4135 38.7465 50.0072 38.6007 49.3462 39.4875L50.419 39.5894C50.5034 40.0248 50.1719 40.2126 49.9348 40.4143C47.3873 42.6114 44.5002 43.8418 41.0586 43.5003C39.7486 43.3704 39.0977 42.7273 39.1921 41.433C39.2825 40.2146 39.2865 38.9622 39.9656 37.5521C40.0011 38.3545 39.9472 39.1583 39.8049 39.9489C39.4874 41.5169 40.0058 42.17 41.6131 42.3258C44.468 42.5955 46.9674 41.6407 49.4526 40.1507Z" fill="white"/>
<path d="M51.3273 38.8682C51.5101 39.6452 51.3715 40.2883 51.2489 40.9295C51.2009 41.1055 51.2051 41.2916 51.261 41.4652C51.317 41.6389 51.4223 41.7927 51.5643 41.9082C51.9521 42.2258 52.1329 41.7724 52.4142 41.6805C53.3263 41.3809 53.4609 40.7138 53.4187 39.8829C53.3384 38.5666 53.8728 37.522 54.9195 36.7051C56.2817 35.6445 57.6339 34.5699 59.0001 33.0798C58.8233 34.1285 58.321 34.6378 57.7946 35.0892C56.7579 35.974 55.6991 36.8369 54.6061 37.6498C54.1561 37.9834 53.913 38.3229 53.9753 38.8822C53.9954 39.1808 53.9954 39.4804 53.9753 39.779C53.9491 41.279 53.1134 42.5594 51.7652 43.0647C51.2168 43.2644 50.7969 42.9908 50.7868 42.4175C50.7587 41.2531 50.6944 40.0706 51.3273 38.8682Z" fill="white"/>
<path d="M23.473 53.8729C23.6136 54.7138 23.1636 55.1072 23.033 55.6046C22.8823 56.1758 22.5448 56.803 23.1596 57.2304C23.8065 57.6898 24.4213 57.3483 24.9678 56.9069C25.1486 56.7591 25.3375 56.6193 25.5283 56.4694C24.5238 55.6266 24.4595 55.289 25.0883 54.2723C25.5484 53.5253 26.1471 52.9221 27.0653 52.6245C27.0653 53.2477 27.0653 53.6871 26.2757 53.8629C25.9402 53.9388 24.9216 54.1285 25.7413 55.1851C26.344 55.9581 25.685 57.0207 25.0984 57.7997C24.871 58.1312 24.5386 58.3775 24.1542 58.4995C23.7697 58.6215 23.3552 58.6121 22.9767 58.4728C22.4082 58.297 22.2756 57.8217 22.2675 57.2964C22.2555 56.0999 22.81 55.1013 23.473 53.8729Z" fill="white"/>
<path d="M24.154 33.5455C23.4709 34.8458 22.3458 35.5809 21.3413 36.4377C20.9871 36.7395 20.6118 37.0159 20.2182 37.2647C19.3583 37.8099 18.9364 38.509 19.0288 39.5776C19.1252 40.6941 18.854 41.6369 17.7851 42.3959C17.1824 42.8253 16.9956 43.844 15.9568 43.7801C15.792 43.7523 15.629 43.715 15.4686 43.6682C16.6239 43.101 17.1804 42.1602 17.9439 41.4252C18.3216 41.0617 18.5024 40.7461 18.4743 40.2507C18.3738 38.5749 19.1533 37.3525 20.4512 36.3578C21.4558 35.5889 22.39 34.736 23.3564 33.9231C23.5493 33.7613 23.6779 33.4896 24.154 33.5455Z" fill="white"/>
<path d="M18.5987 51.7412C18.5987 52.4383 18.5987 53.0235 18.5987 53.6068C18.5987 54.2958 18.9222 54.4177 19.4908 54.1341C19.9207 53.9203 20.3466 53.6966 20.8148 53.459C21.0157 53.9483 20.6942 54.2279 20.3928 54.3398C19.7258 54.5855 19.32 55.2546 18.5967 55.3704C18.1949 55.4324 18.2431 55.8059 18.0904 56.0376C17.8654 56.3791 17.6544 56.7007 17.1722 56.6847C16.8206 56.6707 16.4309 56.3711 16.5474 56.2013C17.3089 55.0688 16.4168 53.5768 17.4555 52.4722C17.4555 53.0834 17.4816 53.6447 17.4555 54.202C17.4294 54.7592 17.3269 55.3025 17.2426 55.9996C18.7715 54.8391 17.347 52.9716 18.5987 51.7412Z" fill="white"/>
<path d="M31.2159 43.6758L32.2205 42.9927C32.4636 42.825 32.7891 42.7131 32.3029 42.3935C31.8548 42.1019 32.2185 41.7324 32.3631 41.4348C32.5078 41.1372 32.6926 40.8096 33.1226 41.0813C33.4722 41.301 33.5746 41.0034 33.7253 40.8056C33.9041 40.5679 34.0548 40.3063 34.2497 40.0826C34.4124 39.8988 34.5169 39.5533 34.8404 39.6551C35.0674 39.725 35.1417 39.9947 35.188 40.2264C35.2543 40.552 35.1458 40.9474 34.8605 40.9674C33.7394 41.0473 33.5405 41.9661 33.1949 42.7091C32.7971 43.536 32.2064 43.7697 31.2159 43.6758Z" fill="white"/>
<path d="M35.3146 49.9639C34.9429 51.4719 32.54 53.6051 31.2964 53.6051L32.7892 52.5205C31.9996 52.2489 32.0759 51.8034 32.4235 51.2861C32.7409 50.8147 33.0262 50.7149 33.406 51.2422C33.6069 51.5138 33.8078 51.2542 33.9866 51.1124C34.3824 50.7748 34.7762 50.4293 35.3146 49.9639Z" fill="white"/>
<path d="M18.3154 44.4412C20.0151 43.2567 20.5777 41.1615 22.195 39.8232C22.414 40.033 22.8219 40.2467 22.7576 40.6422C22.7211 40.8724 22.607 41.0834 22.4339 41.2406C22.2609 41.3978 22.0392 41.4917 21.8053 41.507C21.1905 41.5969 20.9012 42.0923 20.5998 42.5856C20.0613 43.4505 19.4586 44.2714 18.3154 44.4412Z" fill="white"/>
<path d="M35.5798 48.9091C35.2644 49.0309 35.4533 49.9697 34.6818 49.4124C34.6054 49.3565 34.4407 49.2846 34.4266 49.3026C34.1072 49.712 33.7777 49.716 33.4843 49.3026C33.191 48.8891 33.6551 48.6674 33.7335 48.3438C33.7716 48.188 33.8661 48.0462 33.9123 47.8904C34.0208 47.5189 34.081 46.9756 34.4969 46.9736C35.0213 46.9736 34.9088 47.5209 34.945 47.9064C34.9811 48.2919 35.5638 48.4117 35.5798 48.9091Z" fill="white"/>
<path d="M28.0817 42.1839C28.0225 42.4516 27.9342 42.7121 27.8185 42.9608C27.5855 43.3603 27.2399 43.8377 26.7437 43.642C26.1972 43.4262 26.5749 42.9249 26.6673 42.5474C26.7157 42.3244 26.792 42.1084 26.8944 41.9042C27.047 41.6206 26.9707 41.0613 27.483 41.1672C27.9049 41.2571 27.9833 41.7185 28.0817 42.1839Z" fill="white"/>
<path d="M23.8284 42.21C23.2579 41.7845 23.2558 40.7958 23.8284 40.5661C24.401 40.3364 24.5115 40.8178 24.5437 41.2173C24.6361 42.3578 23.9751 43.0888 22.5205 43.4144C22.8681 42.8891 23.3583 42.6274 23.8284 42.21Z" fill="white"/>
<path d="M52.9326 35.2134C53.3083 35.7447 53.6016 35.6129 54.0296 35.2294C54.1742 35.0976 54.5077 35.6608 54.5117 35.9484C54.5117 36.282 54.3631 36.7474 53.8728 36.5896C53.5655 36.4937 53.3766 36.4478 53.0793 36.6415C52.7457 36.8592 52.4765 36.5197 52.4383 36.262C52.3741 35.8725 52.6292 35.543 52.9326 35.2134Z" fill="white"/>
<path d="M35.9012 43.8296C36.3734 42.6452 37.1067 42.2597 38.1936 42.3596C38.049 43.7497 36.8475 43.3762 35.9012 43.8296Z" fill="white"/>
<path d="M27.5836 53.8567C27.7062 51.8134 27.9111 51.1023 28.6143 50.2314C28.4134 51.4758 28.6183 52.7361 27.5836 53.8567Z" fill="white"/>
<path d="M28.7188 43.8996C29.5224 43.1326 30.2055 42.2877 30.537 41.2012C30.7419 42.861 30.2055 43.6679 28.7188 43.8996Z" fill="white"/>
<path d="M21.7874 54.4698C22.1028 53.1076 22.0947 51.8992 22.7136 50.8286C23.0772 52.021 22.7999 53.2634 21.7874 54.4698Z" fill="white"/>
<path d="M27.702 55.5005C28.5177 54.7335 29.2651 53.9345 29.4962 52.5703C29.89 54.302 29.239 55.3007 27.702 55.5005Z" fill="white"/>
<path d="M14.45 43.0948C14.5504 42.0702 14.5102 41.0116 15.1592 39.917C15.352 41.2233 15.2496 42.2439 14.45 43.0948Z" fill="white"/>
<path d="M46.6681 37.9954C46.4571 38.285 46.4209 38.7584 46.0653 38.7564C45.8484 38.7564 45.3883 38.5367 45.541 38.0893C45.6434 37.7916 45.7137 37.3283 46.0473 37.3223C46.3245 37.3243 46.5756 37.6718 46.6681 37.9954Z" fill="white"/>
<path d="M37.4904 39.4354C37.2594 39.2157 36.7973 39.1098 37.0002 38.7044C37.1328 38.4367 37.1187 37.8895 37.6029 37.9893C37.8762 38.0472 38.2057 38.3588 38.0731 38.7343C37.9666 39 37.8822 39.3635 37.4904 39.4354Z" fill="white"/>
<path d="M4.97711 38.5687C4.92487 38.8323 4.80031 39.1839 4.43264 39.1499C4.20762 39.1279 3.76361 38.9662 3.88415 38.6146C4.0047 38.2631 4.05493 37.7518 4.50095 37.7498C4.82241 37.7498 5.00122 38.1372 4.97711 38.5687Z" fill="white"/>
<path d="M49.1775 43.4202C49.073 43.6519 49.0931 44.0933 48.6491 44.0414C48.406 44.0114 48.0122 43.8416 48.1026 43.5001C48.193 43.1585 48.3035 42.7011 48.6712 42.6632C48.9645 42.6352 49.2036 42.9907 49.1775 43.4202Z" fill="white"/>
<path d="M31.3908 38.9721C31.2924 39.2976 31.2301 39.6851 30.7881 39.6532C30.7201 39.6555 30.6523 39.6429 30.5898 39.6161C30.5273 39.5893 30.4715 39.549 30.4265 39.4982C30.3816 39.4473 30.3485 39.3872 30.3297 39.3221C30.3109 39.2571 30.3069 39.1887 30.318 39.1219C30.3843 38.7823 30.4405 38.3049 30.8243 38.269C31.1578 38.239 31.3547 38.6205 31.3908 38.9721Z" fill="white"/>
<path d="M42.1758 56.8326C42.445 56.513 42.4229 55.9737 42.8167 55.9577C43.0919 55.9477 43.3973 56.3093 43.321 56.6788C43.2607 56.9684 43.1683 57.3779 42.7805 57.3479C42.6397 57.3313 42.507 57.2734 42.3993 57.1817C42.2916 57.0899 42.2138 56.9684 42.1758 56.8326Z" fill="white"/>
<path d="M17.6545 38.3792C17.4697 38.6668 17.3652 39.1002 17.0257 39.0842C16.7645 39.0702 16.4028 38.7666 16.5133 38.4031C16.6017 38.1135 16.7585 37.6821 17.1 37.6861C17.4074 37.6901 17.542 38.0855 17.6545 38.3792Z" fill="white"/>
<path d="M25.8717 41.9963C25.8074 42.4917 25.5502 42.8053 25.8074 43.1588C25.934 43.3326 25.7511 43.5842 25.5583 43.6102C25.3011 43.6442 25.279 43.3985 25.277 43.1988C25.279 42.7853 25.4056 42.4278 25.8717 41.9963Z" fill="white"/>
<path d="M35.2723 42.3176C35.2582 42.5171 35.2582 42.7173 35.2723 42.9168C35.3065 43.1465 35.3848 43.3802 35.21 43.576C35.1698 43.5982 35.1245 43.6098 35.0784 43.6098C35.0324 43.6098 34.9871 43.5982 34.9468 43.576C34.7158 43.3603 34.766 43.1106 34.8826 42.8469C34.9649 42.6732 34.9227 42.4435 35.2723 42.3176Z" fill="white"/>
</svg>
