<svg width="56" height="53" viewBox="0 0 56 53" fill="none" xmlns="http://www.w3.org/2000/svg">
<path fill-rule="evenodd" clip-rule="evenodd" d="M21.0773 42.8371C21.1049 43.0099 21.0497 43.2482 20.9107 43.5526C20.7442 43.9073 20.5868 44.0851 20.4384 44.0851C20.3368 43.9938 20.1888 43.867 19.9943 43.7045C19.7999 43.5423 19.7029 43.431 19.7029 43.3701L19.7305 43.3092C19.7861 43.1771 19.8877 42.9336 20.0361 42.5787C20.0731 42.4974 20.1656 42.32 20.3136 42.0462L20.3692 41.9702C20.4062 42.0104 20.4711 42.0613 20.5636 42.1223C20.7394 42.2643 20.8458 42.3657 20.8828 42.4265C20.9848 42.5686 21.0497 42.7055 21.0773 42.8371ZM19.6471 42.9286C19.675 43.101 19.6193 43.3394 19.4807 43.6438C19.3139 43.9989 19.1567 44.1764 19.0087 44.1764C18.9067 44.0851 18.7585 43.9582 18.5642 43.7962C18.3699 43.6337 18.2726 43.522 18.2726 43.461L18.3005 43.4006C18.3558 43.2683 18.458 43.025 18.6059 42.6699C18.6429 42.5888 18.7355 42.4112 18.8836 42.1377L18.9391 42.0613C18.9761 42.102 19.0409 42.1527 19.1334 42.2136C19.3092 42.3555 19.4158 42.4571 19.453 42.5177C19.5546 42.66 19.6193 42.7969 19.6471 42.9286ZM18.6215 46.1484C20.2043 46.1484 21.5001 45.9202 22.5092 45.4639C23.0273 45.2303 23.3699 44.9719 23.5366 44.6878C23.546 44.6777 23.5852 44.6117 23.6545 44.4902C23.7241 44.3683 23.7725 44.3074 23.8004 44.3074C23.828 44.3784 23.8421 44.4341 23.8421 44.4746C23.7866 44.9515 23.5968 45.4385 23.2726 45.9353C22.6987 46.818 21.4122 47.3907 19.4129 47.6546C18.8761 47.7259 18.3811 47.7613 17.9272 47.7613C17.3626 47.7613 16.9368 47.736 16.65 47.6852C15.78 47.533 15.3451 47.1274 15.3451 46.4679C15.3451 46.2751 15.4003 45.8694 15.5114 45.2506C15.5762 44.8855 15.6411 44.7029 15.7061 44.7029C15.7613 44.7029 15.8032 44.8805 15.8309 45.2353C15.8677 45.8441 16.7981 46.1484 18.6215 46.1484ZM25.495 42.0403C25.5136 41.9996 25.5552 41.9235 25.6201 41.8118C25.6292 41.7917 25.6524 41.7612 25.6894 41.7208C25.7171 41.7715 25.7312 41.8118 25.7312 41.8426L25.6618 42.3598L25.5784 43.2118L25.4257 44.5662C25.3608 45.1241 25.2498 45.5856 25.0926 45.9506L24.7729 46.6811C24.5784 47.1173 24.426 47.3354 24.3149 47.3354L24.2735 47.2286C24.5602 46.1533 24.7406 45.271 24.8148 44.5811L24.912 43.6225L25.0648 43.1511L25.495 42.0403ZM29.0147 48.9783C29.0426 49.1508 28.9869 49.389 28.8481 49.6933C28.6813 50.0487 28.524 50.226 28.3762 50.226C28.2743 50.1344 28.126 50.0078 27.9318 49.8455C27.7373 49.6833 27.6404 49.5716 27.6404 49.5107L27.6681 49.4498C27.7235 49.3183 27.8252 49.0746 27.9735 48.7196C28.0102 48.6386 28.1031 48.4608 28.2511 48.187L28.3068 48.1111C28.3436 48.1516 28.4083 48.2025 28.501 48.2629C28.6769 48.4052 28.7835 48.5065 28.8205 48.5675C28.9222 48.7096 28.9869 48.8462 29.0147 48.9783ZM29.6199 43.1511C29.4071 44.0235 29.1522 44.5407 28.8562 44.7029L28.3287 44.992C28.0973 45.1137 27.8936 45.3774 27.7178 45.7833C27.5883 46.1281 27.4631 46.4679 27.343 46.8029C27.1671 47.1475 26.945 47.3859 26.6765 47.5177C26.5006 47.6089 26.2321 47.6799 25.871 47.7307C25.7416 47.751 25.6353 47.7613 25.5519 47.7613C25.4407 47.7613 25.3667 47.7307 25.3296 47.6703C25.3205 47.5991 25.4918 47.4364 25.8431 47.1831C25.9174 47.1324 26.0797 47.0157 26.3292 46.8331C26.496 46.7113 26.6072 46.6302 26.6625 46.5895C26.9309 46.3767 27.1138 46.1941 27.211 46.0418C27.3082 45.8896 27.4263 45.6285 27.5653 45.2583C27.7037 44.8879 27.8056 44.6469 27.8705 44.5356C27.9816 44.3528 28.1574 44.1757 28.3982 44.0032C28.6852 43.8506 28.8749 43.7395 28.9674 43.6684C29.0598 43.5971 29.1895 43.4402 29.3563 43.1968C29.5133 42.9838 29.5966 42.8768 29.6061 42.8768C29.6613 42.8874 29.6662 42.9786 29.6199 43.1511ZM33.2618 38.7904C33.2894 38.9632 33.234 39.2015 33.0951 39.5055C32.9287 39.8606 32.7711 40.0383 32.623 40.0383C32.5212 39.9469 32.3733 39.8199 32.1786 39.6577C31.9843 39.4959 31.8872 39.3836 31.8872 39.3233L31.9149 39.2621C31.9706 39.1303 32.0723 38.8873 32.2206 38.5318C32.2577 38.4507 32.3501 38.2731 32.498 37.9993L32.5535 37.9232C32.5907 37.964 32.6556 38.0146 32.7481 38.0754C32.9238 38.2173 33.0302 38.3188 33.0672 38.38C33.1691 38.5219 33.234 38.6588 33.2618 38.7904ZM32.6901 44.738C32.903 44.5048 33.0837 44.3525 33.2318 44.2818C33.3983 44.1396 33.9029 43.8962 34.7452 43.5512C35.1061 43.399 35.3932 43.1305 35.606 42.7448C35.6801 42.6132 35.7169 42.4913 35.7169 42.3796C35.7169 42.1362 35.3793 41.9082 34.7035 41.6954C34.6759 41.6746 34.5046 41.8725 34.1898 42.2885C34.1067 42.4 33.9956 42.6079 33.8565 42.9122C33.8565 42.9627 33.9352 43.0441 34.0926 43.1556L33.6067 43.5055C33.3112 43.7182 33.0061 43.9764 32.6918 44.2801L32.6891 44.277C32.3375 44.6015 32.1154 44.9515 32.0226 45.3265C32.0044 45.4079 32.129 45.4485 32.3974 45.4485H32.6753C33.0455 45.4485 33.3231 45.428 33.5082 45.3877C33.5082 45.5808 33.314 45.7984 32.9251 46.0418C32.6659 46.204 32.3742 46.2854 32.0505 46.2854C31.389 46.2854 31.0562 45.8506 31.0508 44.9816L31.0512 44.9805C31.0512 44.5954 31.0927 44.0726 31.1759 43.4134L31.4123 41.5572L31.4677 41.1618C31.4862 41.0297 31.491 40.9486 31.4818 40.918L31.4258 40.9486C31.1209 41.6588 30.9352 42.1506 30.8704 42.4246C30.6047 44.2026 30.4704 45.444 30.468 46.1473L30.4674 46.1484C30.4674 46.5845 30.5508 46.9498 30.7177 47.2437C30.9118 47.589 31.1943 47.7613 31.5644 47.7613C32.3143 47.7613 33.0175 47.1523 33.6748 45.9353L34.0498 45.4031C34.2348 45.1389 34.3274 44.9719 34.3274 44.901C34.3274 44.789 34.2719 44.7333 34.1608 44.7333C34.1332 44.7333 34.0498 44.7538 33.9111 44.7941C33.6241 44.8754 33.3507 44.9161 33.0917 44.9161H32.7167C32.6246 44.9161 32.5731 44.9108 32.5642 44.901L32.6891 44.7333L32.6901 44.7313V44.738ZM42.1181 42.8371C42.146 43.0099 42.0903 43.2482 41.9516 43.5526C41.785 43.9073 41.6276 44.0851 41.4794 44.0851C41.3778 43.9938 41.2296 43.867 41.0352 43.7045C40.841 43.5423 40.7436 43.431 40.7436 43.3701L40.7713 43.3092C40.827 43.1771 40.9286 42.9336 41.0769 42.5787C41.1137 42.4974 41.2067 42.32 41.3545 42.0462L41.41 41.9702C41.4471 42.0104 41.5117 42.0613 41.6047 42.1223C41.7804 42.2643 41.8868 42.3657 41.9237 42.4265C42.0256 42.5686 42.0903 42.7055 42.1181 42.8371ZM40.6881 42.9286C40.7159 43.101 40.66 43.3394 40.5215 43.6438C40.3548 43.9989 40.1974 44.1764 40.0493 44.1764C39.9474 44.0851 39.7993 43.9582 39.6051 43.7962C39.4108 43.6337 39.3136 43.522 39.3136 43.461L39.3414 43.4006C39.3969 43.2683 39.4988 43.025 39.6468 42.6699C39.6836 42.5888 39.7762 42.4112 39.9244 42.1377L39.98 42.0613C40.017 42.102 40.0816 42.1527 40.1743 42.2136C40.3501 42.3555 40.4566 42.4571 40.4937 42.5177C40.5951 42.66 40.66 42.7969 40.6881 42.9286ZM46.3791 45.009V45.0068L46.2148 44.992C45.9278 44.9615 45.6364 45.1846 45.3403 45.6615C45.192 45.8948 45.0719 46.0673 44.9794 46.1788C44.7015 46.5038 44.3638 46.7568 43.9656 46.9398C43.3268 47.2337 42.3549 47.4619 41.0499 47.6242C40.3094 47.7154 39.6753 47.7613 39.1478 47.7613H38.9117C38.4306 47.7613 38.0464 47.736 37.7592 47.6852C36.8522 47.523 36.3989 47.0666 36.3989 46.316C36.3989 46.052 36.4079 45.768 36.4268 45.4639C36.454 45.0173 36.5051 44.7941 36.5793 44.7941C36.6257 44.7941 36.6578 44.845 36.6765 44.9463C36.7411 45.2607 36.7829 45.4385 36.8014 45.4789C37.0326 45.9353 38.1157 46.1638 40.0503 46.1638C40.9852 46.1638 42.0403 46.0724 43.2157 45.8896C44.058 45.758 44.7201 45.5041 45.2011 45.1289C45.2661 45.0783 45.3492 44.9974 45.4512 44.8855C45.5624 44.7134 45.7384 44.5 45.9789 44.2466C46.1269 44.1451 46.2611 44.1046 46.3815 44.1247L46.3824 44.1272L46.5597 44.1566C46.7078 44.1566 46.805 44.1418 46.8513 44.1113C46.8974 44.0807 46.9485 43.9944 47.0041 43.8529C47.0964 43.599 47.1428 43.249 47.1428 42.8029L47.129 40.7333L47.4484 39.6376L47.7261 38.8618L47.7815 38.8314C47.7907 38.8618 47.7956 38.9278 47.7956 39.0293C47.7956 39.2119 47.786 39.4506 47.7674 39.7445C47.7396 40.1097 47.7261 40.3428 47.7261 40.4445L47.6705 41.9049C47.6518 42.4631 47.6195 42.8687 47.5735 43.1224C47.4992 43.5787 47.3789 43.9541 47.2121 44.2482C46.9253 44.7757 46.694 45.0396 46.518 45.0396C46.4442 45.0295 46.3978 45.0193 46.3791 45.009ZM48.4066 37.6531C48.6288 37.3999 49.0591 36.989 49.6979 36.4208L51.475 34.8534C51.8177 34.5495 52.2247 34.1589 52.6968 33.6821C52.8263 33.5502 53.1922 33.1647 53.794 32.526C54.4325 31.8459 54.7792 31.471 54.835 31.3999C54.835 31.4506 54.8258 31.4963 54.8073 31.5368C54.6869 32.1456 54.1824 32.9364 53.2939 33.9103C52.8865 34.3571 52.2709 34.9551 51.447 35.7057C51.4103 35.7361 50.7254 36.3248 49.3923 37.471L48.4344 38.2925C48.0459 38.627 47.8421 38.7795 47.8236 38.7488C47.9716 38.3025 48.1659 37.9374 48.4066 37.6531ZM54.4721 36.1187C54.4997 36.291 54.4441 36.5294 54.3057 36.834C54.1387 37.1888 53.9815 37.3662 53.8335 37.3662C53.8056 37.3662 53.6576 37.2444 53.3892 37.001C53.1947 36.8287 53.0975 36.7122 53.0975 36.651L53.1254 36.5906C53.1807 36.4585 53.2828 36.215 53.4308 35.8601C53.4678 35.7789 53.5603 35.6011 53.7086 35.3276L53.7639 35.2513C53.8009 35.2918 53.8659 35.3427 53.9584 35.4037C54.1342 35.5457 54.2408 35.6469 54.2778 35.7077C54.3795 35.85 54.4441 35.9869 54.4721 36.1187ZM55.1942 38.0054C55.2218 38.1776 55.1664 38.4164 55.0275 38.7203C54.8609 39.0755 54.7037 39.2528 54.5554 39.2528C54.4536 39.1616 54.3057 39.0348 54.1111 38.8728C53.9169 38.7103 53.8197 38.5986 53.8197 38.538L53.8473 38.4768C53.9028 38.3453 54.0047 38.1018 54.153 37.7466C54.19 37.6655 54.2825 37.488 54.4304 37.2142L54.4861 37.1379C54.5229 37.1786 54.5878 37.2293 54.6805 37.2903C54.8562 37.432 54.9628 37.5339 54.9996 37.5944C55.1015 37.7368 55.1664 37.8735 55.1942 38.0054ZM53.7639 38.0967C53.792 38.2693 53.7361 38.5078 53.5977 38.8117C53.4308 39.1669 53.2734 39.344 53.1254 39.344C53.0235 39.2528 52.8754 39.126 52.6812 38.9639C52.4868 38.8017 52.3894 38.6899 52.3894 38.6294L52.4173 38.5682C52.4728 38.4366 52.5747 38.1932 52.7229 37.8378C52.7595 37.757 52.8525 37.5794 53.0005 37.3054L53.0561 37.2293C53.0928 37.2702 53.1574 37.3209 53.2503 37.3813C53.4262 37.5234 53.5327 37.6249 53.5697 37.6861C53.6712 37.8278 53.7361 37.9647 53.7639 38.0967ZM55.303 42.3897C55.2009 42.5524 55.0808 42.6488 54.9419 42.6794C54.7382 42.7297 54.6088 42.7704 54.5532 42.801C54.4331 42.8718 54.3124 43.0042 54.1922 43.1968L53.72 43.9573C53.3776 44.5155 53.1601 44.7842 53.0676 44.7637L52.5954 44.7333C52.2991 44.7134 51.9801 44.7941 51.6376 44.9767C51.2949 45.1595 51.0267 45.3825 50.8322 45.646C50.7953 45.6967 50.4483 46.2346 49.7907 47.2592C49.2912 48.0403 48.5275 48.7455 47.5003 49.3741C47.0562 49.6479 46.7688 49.785 46.6392 49.785C46.6116 49.785 46.5929 49.7749 46.5837 49.7544C46.5743 49.7342 46.9909 49.3794 47.8334 48.6895C48.3237 48.2837 48.7361 47.8676 49.0689 47.4416C49.2263 47.2392 49.5641 46.7012 50.0822 45.829C51.1286 44.0638 52.2162 43.1968 53.3452 43.2272C53.4377 43.2272 53.4933 43.2322 53.5118 43.2422H53.5952C53.6785 43.2422 53.8543 43.0444 54.1227 42.6488C54.2709 42.4358 54.3822 42.2837 54.4561 42.1923C54.5855 42.0403 54.7104 41.9439 54.831 41.9034C54.8863 41.8829 55.0344 41.8527 55.2751 41.8118C55.3586 41.6598 55.4603 41.5026 55.5806 41.3403C55.627 41.3303 55.65 41.3657 55.65 41.4469C55.65 41.7105 55.5343 42.025 55.303 42.3897ZM12.6506 42.1211C12.4378 42.9934 12.1831 43.511 11.8871 43.673L11.3593 43.9623C11.1281 44.0838 10.9245 44.3478 10.7486 44.7532C10.6191 45.0985 10.4939 45.4383 10.3736 45.7732C10.1977 46.1179 9.97578 46.3564 9.70709 46.488C9.53152 46.5796 9.26315 46.6503 8.90213 46.701C8.77233 46.7215 8.66605 46.7314 8.58265 46.7314C8.47167 46.7314 8.39752 46.701 8.36053 46.6402C8.35112 46.5691 8.52246 46.4069 8.87407 46.1532C8.94822 46.1025 9.11031 45.9857 9.36002 45.8036C9.52682 45.6818 9.6378 45.6005 9.69329 45.5601C9.96182 45.3468 10.1444 45.1643 10.2418 45.0123C10.339 44.8597 10.4569 44.599 10.5961 44.2286C10.7345 43.8584 10.8365 43.6174 10.9013 43.5055C11.0124 43.3234 11.1882 43.1458 11.4288 42.9731C11.716 42.8209 11.9056 42.7096 11.9981 42.6385C12.0906 42.5675 12.2203 42.4102 12.3869 42.1669C12.5444 41.9537 12.6274 41.847 12.6369 41.847C12.6924 41.8574 12.697 41.9487 12.6506 42.1211ZM12.5529 50.8915C12.5808 51.0638 12.5252 51.3021 12.3864 51.6063C12.2196 51.9616 12.0622 52.1389 11.9143 52.1389C11.8125 52.0477 11.6644 51.9209 11.47 51.7587C11.2758 51.5964 11.1786 51.4847 11.1786 51.4239L11.2063 51.3629C11.2618 51.2311 11.3637 50.9879 11.5115 50.6326C11.5487 50.5515 11.6412 50.3739 11.7895 50.0999L11.845 50.024C11.882 50.0647 11.9469 50.1155 12.0392 50.1762C12.2151 50.3182 12.3217 50.4196 12.3587 50.4804C12.4604 50.6225 12.5252 50.7592 12.5529 50.8915ZM11.1229 50.9827C11.1507 51.1552 11.0952 51.3935 10.9563 51.6977C10.7898 52.0528 10.6326 52.2303 10.4843 52.2303C10.3821 52.1389 10.2343 52.0121 10.04 51.8498C9.84551 51.6878 9.74832 51.5756 9.74832 51.5153L9.77622 51.4543C9.83171 51.3227 9.93345 51.0791 10.0816 50.7238C10.1186 50.6429 10.2112 50.465 10.3594 50.1915L10.4149 50.1155C10.4519 50.1561 10.5166 50.2066 10.6094 50.2674C10.785 50.4091 10.8916 50.511 10.9286 50.5718C11.0305 50.7139 11.0952 50.8506 11.1229 50.9827ZM8.53892 41.0106C8.55742 40.9701 8.59911 40.8938 8.66386 40.7823C8.67295 40.762 8.69615 40.7314 8.73314 40.6911C8.76105 40.7417 8.77484 40.7823 8.77484 40.8127L8.7054 41.3301L8.622 42.182L8.46947 43.5364C8.40473 44.0941 8.29359 44.5557 8.1362 44.9209L7.81688 45.6512C7.62234 46.0875 7.46982 46.3054 7.35868 46.3054L7.31713 46.1987C7.604 45.124 7.78459 44.2413 7.85827 43.5512L7.95577 42.593L8.1083 42.1211L8.53892 41.0106ZM4.77355 45.0274C4.78312 45.0681 4.78782 45.124 4.78782 45.1949C4.78782 45.3772 4.73201 45.555 4.62103 45.7273C4.3989 46.0723 4.23681 46.2549 4.13491 46.2751C4.11657 46.2751 4.07488 46.2495 4.01013 46.1987C3.79725 46.0367 3.68611 45.9455 3.67702 45.9252C3.53797 45.8235 3.45944 45.7732 3.44078 45.7732C3.3483 45.7022 3.29751 45.6309 3.2881 45.5601L3.60742 44.7689C3.70916 44.5758 3.79725 44.4188 3.87109 44.297L3.95464 44.16C4.01923 44.1906 4.11657 44.2465 4.24621 44.3274C4.40344 44.4593 4.51459 44.5608 4.57917 44.6318C4.69988 44.7634 4.76462 44.8955 4.77355 45.0274ZM6.55089 45.8185C6.46781 46.2243 6.39805 46.5186 6.34272 46.701C5.88905 48.2227 5.13927 49.298 4.09337 49.9267C3.68611 50.1705 3.2232 50.292 2.70511 50.292C2.13106 50.292 1.6868 50.0966 1.37218 49.706C1.05757 49.3153 0.900024 48.8008 0.900024 48.1617C0.900024 47.1575 1.29349 45.9149 2.08027 44.4339C2.17291 44.2614 2.24204 44.1801 2.28844 44.1906C2.3071 44.2006 2.31164 44.2564 2.3024 44.3578C2.2839 44.4593 2.26524 44.5454 2.24659 44.6163L1.78869 45.7118C1.56657 46.2397 1.45558 46.6962 1.45558 47.0815C1.45558 48.1463 1.99232 48.6788 3.06597 48.6788C4.21392 48.6788 5.12078 48.1111 5.78732 46.9748C6.00004 46.6201 6.11134 46.2092 6.12059 45.7422L6.14818 44.6467C6.15774 44.343 6.23612 43.9826 6.38441 43.5668L6.66188 42.9731C6.73603 42.811 6.79591 42.7045 6.84231 42.6538C6.88871 42.7045 6.90705 42.7703 6.89796 42.8515L6.82867 43.3841L6.75938 44.1448C6.75938 44.5912 6.68994 45.1492 6.55089 45.8185ZM14.3553 41.0106C14.3737 40.9701 14.4154 40.8938 14.4804 40.7823C14.4895 40.762 14.5127 40.7314 14.5496 40.6911C14.5775 40.7417 14.5912 40.7823 14.5912 40.8127L14.5218 41.3301L14.4384 42.182L14.2859 43.5364C14.2211 44.0941 14.1103 44.5557 13.9528 44.9209L13.6331 45.6512C13.4388 46.0875 13.2862 46.3054 13.1751 46.3054L13.1335 46.1987C13.4204 45.124 13.601 44.2413 13.675 43.5512L13.772 42.593L13.9249 42.1211L14.3553 41.0106Z" fill="#2C73DF"/>
<path fill-rule="evenodd" clip-rule="evenodd" d="M17.4824 3.71833L19.022 2.45824C24.8134 8.76676 18.9081 16.9737 11.6422 14.9829L11.8621 12.7906C17.2441 14.3531 21.2883 9.01465 17.4824 3.71833ZM12.9619 9.51422L12.2289 11.2534C15.8222 12.8777 20.0069 8.78909 16.3343 4.75165L15.0634 6.11207C16.9469 8.5381 14.7355 10.5663 12.9619 9.51422ZM27.0701 0.168089L27.8145 2.11861C30.346 2.14214 32.1479 3.68586 32.0857 6.22133H24.4467C24.0199 3.95969 23.2022 2.23542 21.9938 1.04903L20.5291 1.8671C25.7677 9.35532 20.5631 18.2957 11.5604 16.3391V18.1261H19.8949L22.3719 13.0798L30.0355 13.2938L27.8876 18.0631H32.3542L34.6237 13.0923L43.556 13.2182C42.2384 4.9621 34.1221 -0.194391 27.0701 0.168089Z" fill="#2C73DF"/>
<path fill-rule="evenodd" clip-rule="evenodd" d="M37.9755 28.9193L36.4361 30.1794C30.645 23.8709 36.5503 15.6638 43.8159 17.6548L43.596 19.8472C38.2139 18.2846 34.17 23.6234 37.9755 28.9193ZM42.4965 23.1233L43.2297 21.3842C39.6364 19.7598 35.4517 23.8487 39.1242 27.8862L40.395 26.5254C38.5111 24.0999 40.7228 22.0711 42.4965 23.1233ZM28.3881 32.4694L27.6438 30.5191C25.1126 30.4957 23.3103 28.9518 23.3729 26.4163H31.0117C31.4381 28.6783 32.256 30.4026 33.4642 31.5886L34.9289 30.7707C29.6905 23.2827 34.8951 14.342 43.8983 16.2987V14.5117H35.5632L33.0861 19.5577L25.4229 19.3442L27.5704 14.5744H23.1045L20.8345 19.5455L11.9019 19.4193C13.22 27.6757 21.3359 32.8321 28.3881 32.4694Z" fill="#2C73DF"/>
</svg>
