<svg width="59" height="53" viewBox="0 0 59 53" fill="none" xmlns="http://www.w3.org/2000/svg">
<path d="M58.2982 44.0825C58.3386 44.0825 58.4019 44.0079 58.4879 43.8588C58.5738 43.7096 58.6168 43.5921 58.6168 43.5062C58.6168 43.4177 58.57 43.3242 58.4765 43.2256C58.3854 43.1371 58.302 43.0929 58.2261 43.0929C58.1957 43.0929 58.1293 43.194 58.0269 43.3962C57.9245 43.5984 57.8733 43.7134 57.8733 43.7412C57.8733 43.7665 57.896 43.7943 57.9416 43.8246C57.9871 43.855 58.0516 43.9055 58.135 43.9763C58.2185 44.0471 58.2729 44.0825 58.2982 44.0825ZM57.9112 45.0114C57.9947 45.0114 58.111 44.8673 58.2602 44.5791C58.3209 44.6196 58.3955 44.6853 58.4841 44.7763C58.5498 44.842 58.6004 44.8749 58.6358 44.8749C58.6813 44.8749 58.7534 44.8054 58.852 44.6664C58.9507 44.5248 59 44.4073 59 44.3137C59 44.2303 58.9507 44.1393 58.852 44.0408C58.7534 43.9523 58.6712 43.9081 58.6055 43.9081C58.5852 43.9081 58.5359 43.97 58.4575 44.0938C58.4019 44.1823 58.345 44.2733 58.2868 44.3668C58.2539 44.2986 58.1907 44.2272 58.0971 44.1526C58.0035 44.078 57.934 44.0408 57.8884 44.0408C57.8632 44.0408 57.7923 44.1425 57.676 44.346C57.5597 44.5494 57.5015 44.6676 57.5015 44.7005C57.5015 44.7182 57.5647 44.7744 57.6912 44.8692C57.8176 44.964 57.891 45.0114 57.9112 45.0114ZM57.1031 47.8588C57.2397 47.8689 57.3478 47.8329 57.4275 47.7507C57.5072 47.6686 57.6558 47.4442 57.8733 47.0777C57.939 46.9867 57.9953 46.9248 58.0421 46.8919C58.0889 46.8591 58.1376 46.8357 58.1881 46.8218C58.2387 46.8079 58.2931 46.7997 58.3513 46.7972C58.4373 46.7921 58.5346 46.6556 58.6434 46.3877C58.6788 46.2916 58.6965 46.2246 58.6965 46.1867C58.6914 46.1336 58.6737 46.1147 58.6434 46.1299C58.6232 46.14 58.5985 46.1697 58.5694 46.219C58.5403 46.2682 58.5081 46.3194 58.4727 46.3725C58.4094 46.3725 58.3348 46.3826 58.2488 46.4028C58.1629 46.4231 58.0794 46.4825 57.9985 46.581C57.9175 46.6796 57.8606 46.7517 57.8277 46.7972C57.7721 46.8755 57.7329 46.9299 57.7101 46.9602C57.6545 47.036 57.6001 47.0739 57.547 47.0739L57.5291 47.0736C57.5066 47.0733 57.4639 47.0728 57.4009 47.072C57.296 47.0708 57.1967 47.079 57.1031 47.0967C57.0273 47.352 57.0273 47.606 57.1031 47.8588ZM53.7166 50.4715L53.7571 50.4597C53.7798 50.4521 53.8001 50.4445 53.8178 50.437C53.833 50.4319 53.8456 50.4269 53.8557 50.4218C53.9721 50.3738 54.0808 50.3201 54.182 50.2607C54.2831 50.2013 54.3932 50.1286 54.512 50.0427C54.6309 49.9567 54.7814 49.8246 54.9635 49.6464C55.1456 49.4682 55.3245 49.2559 55.5003 49.0095C55.6761 48.763 55.8266 48.5602 55.9517 48.4009C56.0769 48.2417 56.2331 48.1103 56.4203 48.0066C56.5493 47.946 56.6504 47.9055 56.7238 47.8853C56.8072 47.8626 56.8825 47.8512 56.9495 47.8512C57.0165 47.8512 57.0677 47.8537 57.1031 47.8588C57.1284 47.8082 57.1518 47.752 57.1733 47.69C57.1948 47.6281 57.2081 47.5643 57.2132 47.4986C57.2182 47.4329 57.2132 47.3659 57.198 47.2976C57.1828 47.2294 57.1512 47.1624 57.1031 47.0967C57.0753 47.1017 57.0481 47.1068 57.0216 47.1118C56.995 47.1169 56.9678 47.1258 56.94 47.1384C56.7781 47.1991 56.6074 47.2926 56.4279 47.419C56.2483 47.5453 56.0624 47.7273 55.8702 47.9649C55.8044 48.0433 55.659 48.2455 55.4339 48.5716C55.3732 48.6701 55.3087 48.7649 55.2404 48.8559C55.0963 49.0834 54.9439 49.2837 54.7833 49.4569C54.6227 49.63 54.4659 49.7779 54.3129 49.9005C54.1598 50.0231 54.0226 50.1235 53.9012 50.2019C53.795 50.2853 53.7229 50.3472 53.685 50.3877C53.6546 50.4231 53.6433 50.4471 53.6509 50.4597C53.6787 50.4774 53.7141 50.4774 53.7571 50.4597L53.7166 50.4715ZM55.0318 44.7498C55.0419 44.7675 55.0824 44.7472 55.1532 44.6891C55.186 44.6638 55.2215 44.6367 55.2594 44.6076C55.2973 44.5785 55.3353 44.5476 55.3732 44.5147L55.9081 44.0976C56.1079 43.951 56.3153 43.793 56.5303 43.6237C56.6922 43.4998 56.8679 43.357 57.0576 43.1953C57.1967 43.079 57.3188 42.9754 57.4237 42.8844C57.5287 42.7934 57.6166 42.7163 57.6874 42.6531C57.8846 42.4761 58.0162 42.3548 58.0819 42.2891C58.1047 42.2664 58.1818 42.1842 58.3133 42.0427C58.4246 41.9163 58.5131 41.8088 58.5789 41.7204C58.6421 41.6395 58.7129 41.5321 58.7913 41.3981C58.8672 41.2616 58.9165 41.1529 58.9393 41.072C58.9494 41.0417 58.9545 41.0177 58.9545 41C58.9545 41.0019 58.9423 41.0153 58.918 41.0403L58.8084 41.1498C58.711 41.2458 58.565 41.388 58.3702 41.5763C58.0844 41.8518 57.8796 42.0477 57.7557 42.164C57.5255 42.3763 57.2979 42.576 57.0728 42.763C56.7111 43.0588 56.3798 43.3242 56.0788 43.5592C55.6919 43.8752 55.4491 44.0875 55.3504 44.1962C55.2847 44.2619 55.2253 44.3428 55.1721 44.4389C55.114 44.5476 55.0672 44.6512 55.0318 44.7498ZM54.3034 47.9573C54.3615 47.9573 54.4248 47.9156 54.4931 47.8322C54.5613 47.7513 54.6271 47.6591 54.6903 47.5555C54.7536 47.4493 54.8029 47.3393 54.8383 47.2256C54.8737 47.1144 54.9015 46.9779 54.9218 46.8161C54.9395 46.672 54.9584 46.2714 54.9787 45.6142C54.9862 45.5005 54.9938 45.3754 55.0014 45.2389C55.0115 45.1175 55.0166 45.0025 55.0166 44.8938C55.0166 44.8357 55.0141 44.8016 55.009 44.7915C54.9913 44.7611 54.9736 44.7662 54.9559 44.8066L54.8231 45.2047L54.6448 45.7621L54.6524 46.8161C54.6524 46.8869 54.6448 46.9829 54.6296 47.1043C54.6145 47.2205 54.5968 47.3027 54.5765 47.3507C54.5386 47.4543 54.4874 47.4961 54.4229 47.4758C54.3584 47.4556 54.2933 47.4455 54.2275 47.4455C54.1972 47.5289 54.1832 47.6117 54.1858 47.6938C54.1883 47.776 54.2022 47.8588 54.2275 47.9422C54.2401 47.9498 54.2654 47.9548 54.3034 47.9573ZM51.1204 47.3962C51.2014 47.3962 51.3101 47.2585 51.4467 46.9829C51.5023 47.0234 51.5668 47.0803 51.6402 47.1536C51.7135 47.2269 51.7641 47.2635 51.7919 47.2635C51.8349 47.2635 51.902 47.1991 51.993 47.0701C52.0866 46.9387 52.1334 46.825 52.1334 46.7289C52.1283 46.648 52.0822 46.5615 51.9949 46.4692C51.9076 46.3769 51.8324 46.3308 51.7692 46.3308C51.7489 46.3308 51.7078 46.3826 51.6459 46.4863L51.5295 46.68L51.4771 46.7668C51.4341 46.7062 51.3715 46.636 51.2893 46.5564C51.2071 46.4768 51.1445 46.4458 51.1015 46.4635C51.0787 46.4635 51.0155 46.5608 50.9118 46.7555C50.8081 46.9501 50.7562 47.0638 50.7562 47.0967C50.7562 47.1118 50.7936 47.1498 50.8682 47.2104C50.9428 47.2711 50.9978 47.3166 51.0332 47.3469C51.0711 47.3798 51.1002 47.3962 51.1204 47.3962ZM50.6576 49.3526C51.209 49.3526 51.7085 49.3033 52.1561 49.2047C52.6088 49.1062 52.9553 48.9671 53.1956 48.7877C53.2942 48.722 53.379 48.6411 53.4498 48.545C53.4801 48.4995 53.5111 48.4547 53.5427 48.4104C53.5743 48.3662 53.6053 48.3213 53.6357 48.2758C53.6989 48.1848 53.7609 48.1141 53.8216 48.0635C53.8848 48.0079 53.9455 47.9738 54.0037 47.9611C54.0669 47.9485 54.1415 47.9422 54.2275 47.9422C54.2705 47.8891 54.3059 47.8082 54.3337 47.6995C54.3464 47.5858 54.311 47.5011 54.2275 47.4455C54.1061 47.4708 54.0062 47.5251 53.9278 47.6085C53.8899 47.6464 53.8405 47.7065 53.7798 47.7886C53.7191 47.8708 53.685 47.9144 53.6774 47.9194C53.6091 47.9902 53.5155 48.0566 53.3967 48.1185C53.2778 48.1804 53.1286 48.2379 52.949 48.291C52.6759 48.3744 52.4451 48.4288 52.2567 48.454C52.0682 48.4793 51.8229 48.4989 51.5207 48.5128C51.2184 48.5267 50.9459 48.5311 50.7031 48.5261C50.4072 48.5235 50.1815 48.5021 50.026 48.4616C49.8704 48.4212 49.7579 48.3681 49.6883 48.3024C49.6188 48.2367 49.5777 48.1457 49.565 48.0294C49.5473 47.9131 49.5283 47.855 49.5081 47.855C49.4752 47.855 49.4462 47.9498 49.4209 48.1393C49.393 48.3137 49.3791 48.4856 49.3791 48.655C49.3791 48.9179 49.4588 49.0986 49.6181 49.1972C49.7168 49.2629 49.8698 49.3046 50.0772 49.3223C50.2593 49.3425 50.4527 49.3526 50.6576 49.3526ZM48.1462 47.6502C48.3384 47.6502 48.4914 47.5289 48.6052 47.2863C48.6861 47.1017 48.7266 46.9147 48.7266 46.7251C48.7215 46.6746 48.7001 46.6088 48.6621 46.528C48.6217 46.4521 48.5711 46.4256 48.5104 46.4483C48.4851 46.4736 48.4535 46.5469 48.4155 46.6682C48.3801 46.7921 48.3548 46.8553 48.3396 46.8578C48.2537 46.8578 48.179 46.8148 48.1158 46.7289C48.0475 46.6455 48.0134 46.5204 48.0134 46.3536V46.2246C47.983 46.2145 47.9483 46.2272 47.9091 46.2626C47.8699 46.2979 47.8338 46.346 47.8009 46.4066C47.7681 46.4673 47.7409 46.5355 47.7194 46.6114C47.6979 46.6872 47.6871 46.7592 47.6871 46.8275C47.6871 46.9918 47.6972 47.1283 47.7175 47.237C47.7377 47.3406 47.787 47.4354 47.8654 47.5213C47.9438 47.6073 48.0374 47.6502 48.1462 47.6502ZM47.4557 47.6787C47.4911 47.6774 47.5227 47.6679 47.5506 47.6502C47.5556 47.6047 47.6011 47.51 47.6871 47.3659C47.7301 47.2926 47.7617 47.2559 47.782 47.2559C47.8098 47.2559 47.8363 47.2016 47.8616 47.0929C47.8895 46.9994 47.9173 46.8603 47.9451 46.6758L48.0134 46.2284C48.0134 46.1324 48.0399 45.9137 48.0931 45.5725C48.1006 45.5169 48.1114 45.448 48.1253 45.3659C48.1392 45.2837 48.1557 45.1997 48.1746 45.1137C48.1936 45.0278 48.1955 44.981 48.1803 44.9735C48.1677 44.9659 48.1512 44.9697 48.131 44.9848C48.0526 45.1188 47.9906 45.2401 47.9451 45.3488C47.9249 45.3994 47.8933 45.4929 47.8503 45.6294C47.8224 45.7431 47.7984 45.8518 47.7782 45.9555C47.7529 46.0742 47.7314 46.2158 47.7137 46.3801L47.6871 46.782L47.6795 46.9526C47.6745 47.0082 47.6416 47.0942 47.5809 47.2104C47.5733 47.2281 47.5278 47.3153 47.4443 47.472L47.3495 47.6502C47.3849 47.6705 47.4203 47.6799 47.4557 47.6787ZM46.1848 50.5659C46.3239 50.5659 46.4542 50.5457 46.5756 50.5052C46.6869 50.4673 46.8007 50.4117 46.917 50.3384C47.2331 50.1084 47.4835 49.8 47.6682 49.4133C47.7845 49.163 47.8642 48.9532 47.9072 48.7839C47.9502 48.6095 47.9717 48.4389 47.9717 48.272C47.9717 48.1583 47.959 48.0724 47.9337 48.0142C47.9084 47.9611 47.8667 47.9137 47.8085 47.872C47.7504 47.8303 47.6928 47.7918 47.6359 47.7564C47.579 47.721 47.5506 47.6856 47.5506 47.6502C47.548 47.6325 47.5379 47.6199 47.5202 47.6123C47.5025 47.6047 47.4829 47.6009 47.4614 47.6009C47.4399 47.6009 47.4184 47.6047 47.3969 47.6123C47.3754 47.6199 47.3596 47.6325 47.3495 47.6502C47.2938 47.7513 47.2464 47.8581 47.2072 47.9706C47.168 48.0831 47.1484 48.1836 47.1484 48.272C47.1484 48.3959 47.2407 48.5008 47.4254 48.5867C47.6075 48.6701 47.6985 48.7333 47.6985 48.7763C47.6985 48.9912 47.5822 49.1959 47.3495 49.3905C47.0763 49.618 46.7374 49.7318 46.3328 49.7318C46.1077 49.7318 45.9243 49.685 45.7827 49.5915C45.5905 49.4575 45.4944 49.2351 45.4944 48.9242C45.4944 48.7599 45.5538 48.5273 45.6727 48.2265C45.741 48.0622 45.8649 47.7728 46.0444 47.3583C46.0647 47.3128 46.0811 47.2585 46.0938 47.1953C46.1064 47.1422 46.0988 47.1131 46.071 47.1081C46.0508 47.1055 46.0217 47.1384 45.9837 47.2066C45.9686 47.242 45.949 47.2825 45.9249 47.328C45.9009 47.3735 45.8737 47.424 45.8434 47.4796C45.8004 47.5706 45.765 47.6445 45.7372 47.7014C45.7093 47.7583 45.6878 47.8006 45.6727 47.8284C45.6221 47.9447 45.5614 48.0875 45.4906 48.2569C45.4248 48.4212 45.3616 48.6158 45.3009 48.8408C45.2402 49.0733 45.2098 49.2616 45.2098 49.4057C45.2098 49.7292 45.2844 49.9946 45.4337 50.2019C45.6082 50.4445 45.8586 50.5659 46.1848 50.5659ZM44.2273 49.2995C44.3613 49.2919 44.4751 49.2224 44.5687 49.091C44.6623 48.9596 44.7362 48.7915 44.7906 48.5867C44.845 48.382 44.8735 48.2341 44.876 48.1431C44.881 48.09 44.8697 48.0635 44.8418 48.0635C44.8191 48.0635 44.795 48.1008 44.7698 48.1754C44.7445 48.2499 44.7135 48.315 44.6768 48.3706C44.6401 48.4262 44.5877 48.4616 44.5194 48.4768C44.4511 48.4919 44.3828 48.4768 44.3145 48.4313C44.2007 48.3479 44.1438 48.2 44.1438 47.9877V47.8209C44.1033 47.831 44.0508 47.8878 43.9864 47.9915C43.9219 48.0951 43.8643 48.2556 43.8137 48.473V48.4995C43.8087 48.7321 43.8403 48.9216 43.9086 49.0682C43.9845 49.2174 44.0907 49.2945 44.2273 49.2995ZM44.0262 52.2531C44.1021 52.2531 44.2058 52.1115 44.3373 51.8284C44.3904 51.8689 44.4574 51.9333 44.5383 52.0218C44.5965 52.085 44.6408 52.1166 44.6711 52.1166C44.7116 52.1166 44.7748 52.0496 44.8608 51.9156C44.9493 51.7766 44.9936 51.6603 44.9936 51.5668C44.9936 51.4859 44.9493 51.3962 44.8608 51.2976C44.7748 51.2117 44.7027 51.1687 44.6446 51.1687C44.6269 51.1687 44.5826 51.2306 44.5118 51.3545C44.4637 51.4404 44.4131 51.5276 44.36 51.6161C44.3322 51.5529 44.2766 51.484 44.1931 51.4095C44.1096 51.3349 44.0477 51.2976 44.0072 51.2976C43.9845 51.2976 43.9219 51.3981 43.8194 51.5991C43.717 51.8 43.6658 51.9156 43.6658 51.946C43.6658 51.9637 43.7214 52.0193 43.8327 52.1128C43.944 52.2063 44.0085 52.2531 44.0262 52.2531ZM44.3638 53C44.3942 53 44.4498 52.9381 44.5308 52.8142C44.6092 52.6853 44.6509 52.5766 44.6559 52.4882C44.661 52.4073 44.6275 52.3226 44.5554 52.2341C44.4833 52.1457 44.4169 52.0989 44.3562 52.0938C44.3335 52.0913 44.2728 52.1779 44.1741 52.3536C44.0755 52.5292 44.0249 52.6297 44.0224 52.655C44.0224 52.6777 44.0395 52.7043 44.0736 52.7346C44.1078 52.7649 44.1413 52.794 44.1741 52.8218C44.2146 52.8648 44.2538 52.9052 44.2917 52.9431C44.3196 52.9785 44.3436 52.9975 44.3638 53ZM43.8137 48.4768C43.8694 48.4844 43.9168 48.4749 43.956 48.4483C43.9952 48.4218 44.0275 48.3814 44.0527 48.327C44.078 48.2727 44.0983 48.207 44.1134 48.1299C44.1286 48.0528 44.1387 47.9662 44.1438 47.8701C44.1438 47.855 44.1501 47.7665 44.1628 47.6047C44.1754 47.443 44.2096 47.1447 44.2652 46.71C44.3208 46.2752 44.3524 45.9807 44.36 45.8265C44.36 45.8063 44.3531 45.7937 44.3392 45.7886C44.3253 45.7836 44.312 45.7962 44.2993 45.8265C44.1754 46.14 44.0932 46.3586 44.0527 46.4825C43.9743 46.9096 43.9155 47.2995 43.8763 47.6521C43.8371 48.0047 43.8163 48.2796 43.8137 48.4768ZM42.3266 49.2995C42.4581 49.3021 42.582 49.2528 42.6984 49.1517C42.7768 49.0809 42.8628 48.9747 42.9564 48.8332C43.012 48.7472 43.0638 48.6423 43.1119 48.5185C43.1448 48.4351 43.1739 48.3555 43.1992 48.2796C43.2244 48.2038 43.2554 48.0989 43.2921 47.9649C43.3288 47.831 43.3496 47.6641 43.3547 47.4645C43.3572 47.4063 43.361 47.3058 43.3661 47.163C43.3711 47.0202 43.3749 46.8995 43.3775 46.8009C43.3952 46.4142 43.4243 46.073 43.4647 45.7773C43.4774 45.7115 43.4875 45.6433 43.4951 45.5725C43.5077 45.4942 43.5077 45.4518 43.4951 45.4455C43.4824 45.4392 43.4672 45.4487 43.4495 45.4739C43.3079 45.7216 43.2055 45.9504 43.1423 46.1602C43.079 46.37 43.0442 46.5545 43.0379 46.7137C43.0316 46.873 43.0297 47.0506 43.0322 47.2464C43.0348 47.4423 43.0335 47.6009 43.0284 47.7223V47.9573C43.0284 48.0357 43.005 48.1469 42.9583 48.291C42.9115 48.4351 42.8185 48.5633 42.6794 48.6758C42.5403 48.7883 42.4012 48.842 42.2621 48.837C42.2368 48.837 42.2065 48.8363 42.1711 48.8351C42.1357 48.8338 42.1154 48.8281 42.1104 48.818C42.2115 48.6714 42.295 48.4957 42.3607 48.291C42.4088 48.152 42.4448 48.0079 42.4689 47.8588C42.4929 47.7096 42.5239 47.3823 42.5618 46.8768C42.5722 46.7389 42.5811 46.6181 42.5886 46.5145L42.6018 46.33C42.6131 46.1683 42.6187 46.0751 42.6187 46.0502C42.6212 45.9567 42.6137 45.91 42.596 45.91C42.5909 45.91 42.5846 45.915 42.577 45.9251C42.5694 45.9352 42.5631 45.9479 42.558 45.963C42.4417 46.2765 42.3582 46.5254 42.3076 46.71C42.2318 46.9829 42.19 47.2357 42.1824 47.4682C42.185 47.5592 42.1856 47.6439 42.1843 47.7223C42.1831 47.8006 42.1812 47.879 42.1786 47.9573C42.1761 48.0357 42.1698 48.1292 42.1597 48.2379C42.1496 48.3466 42.1344 48.4344 42.1142 48.5014C42.0939 48.5684 42.0712 48.6221 42.0459 48.6626C42.0206 48.703 42.0003 48.7333 41.9852 48.7536C41.9548 48.794 41.927 48.8306 41.9017 48.8635C41.8764 48.8964 41.8638 48.9254 41.8638 48.9507C41.8612 48.9861 41.8789 49.0215 41.9169 49.0569C41.927 49.067 41.951 49.0872 41.989 49.1175C42.037 49.1706 42.0876 49.2136 42.1407 49.2464C42.1938 49.2793 42.2558 49.297 42.3266 49.2995ZM41.3251 47.2142C41.4136 47.1308 41.5097 46.9994 41.6134 46.8199C41.712 46.6455 41.7639 46.4888 41.7689 46.3498C41.774 46.1678 41.7765 46.0654 41.7765 46.0427C41.7765 45.9517 41.7778 45.8809 41.7803 45.8303C41.7828 45.757 41.779 45.7166 41.7689 45.709C41.7512 45.7014 41.7323 45.7153 41.712 45.7507C41.6361 45.9074 41.5767 46.025 41.5337 46.1033C41.468 46.2145 41.4351 46.303 41.4351 46.3687V46.6948C41.4351 46.7276 41.4288 46.763 41.4161 46.8009C41.3984 46.8389 41.3681 46.8705 41.3251 46.8957C41.3023 46.9488 41.2934 47.0019 41.2985 47.055C41.3036 47.1081 41.3124 47.1611 41.3251 47.2142ZM40.7826 51.3848C40.8635 51.3848 40.9722 51.2471 41.1088 50.9716C41.1645 51.012 41.229 51.0689 41.3023 51.1422C41.3756 51.2155 41.4262 51.2521 41.454 51.2521C41.497 51.2521 41.5641 51.1877 41.6551 51.0588C41.7487 50.9273 41.7955 50.8136 41.7955 50.7175C41.7904 50.6367 41.7443 50.5501 41.657 50.4578C41.5698 50.3656 41.4945 50.3194 41.4313 50.3194C41.411 50.3194 41.3699 50.3712 41.308 50.4749C41.246 50.5785 41.1898 50.672 41.1392 50.7555C41.0962 50.6948 41.0336 50.6246 40.9514 50.545C40.8692 50.4654 40.8066 50.4344 40.7636 50.4521C40.7408 50.4521 40.6776 50.5494 40.5739 50.7441C40.4702 50.9387 40.4184 51.0524 40.4184 51.0853C40.4184 51.1005 40.4557 51.1384 40.5303 51.1991C40.6049 51.2597 40.6599 51.3052 40.6953 51.3355C40.7332 51.3684 40.7623 51.3848 40.7826 51.3848ZM39.7734 44.818C39.8114 44.818 39.8702 44.7447 39.9498 44.5981C40.0295 44.4515 40.0693 44.3365 40.0693 44.2531C40.0693 44.1646 40.0263 44.0724 39.9403 43.9763C39.8544 43.8904 39.776 43.8474 39.7051 43.8474C39.6773 43.8474 39.616 43.9466 39.5211 44.145C39.4263 44.3434 39.3789 44.4553 39.3789 44.4806C39.3789 44.5058 39.3997 44.5336 39.4415 44.564C39.4832 44.5943 39.5433 44.6442 39.6217 44.7137C39.7001 44.7833 39.7507 44.818 39.7734 44.818ZM39.413 45.728C39.4914 45.728 39.6002 45.5864 39.7393 45.3033C39.7949 45.3438 39.8645 45.4082 39.9479 45.4967C40.0086 45.5599 40.0554 45.5915 40.0883 45.5915C40.1288 45.5915 40.1958 45.5245 40.2894 45.3905C40.3804 45.2515 40.4259 45.1352 40.4259 45.0417C40.4259 44.9608 40.3804 44.8724 40.2894 44.7763C40.1958 44.6904 40.1187 44.6474 40.058 44.6474C40.0403 44.6474 39.9947 44.7081 39.9214 44.8294C39.8708 44.9153 39.8177 45.0038 39.762 45.0948C39.7317 45.0291 39.6729 44.9596 39.5856 44.8863C39.4984 44.813 39.4345 44.7763 39.3941 44.7763C39.3688 44.7763 39.3024 44.8761 39.1949 45.0758C39.0874 45.2755 39.0337 45.3905 39.0337 45.4209C39.0337 45.4385 39.0925 45.4942 39.2101 45.5877C39.3277 45.6812 39.3953 45.728 39.413 45.728ZM38.0359 50.6C38.61 50.5949 39.1019 50.3156 39.5117 49.7621C39.6862 49.5144 39.8291 49.249 39.9403 48.9659C40.0845 48.5968 40.1831 48.1823 40.2363 47.7223C40.2464 47.6818 40.254 47.6616 40.259 47.6616C40.3602 47.649 40.4468 47.6256 40.5189 47.5915C40.591 47.5573 40.6612 47.5137 40.7294 47.4607C40.7901 47.4935 40.8875 47.4645 41.0216 47.3735C41.1227 47.3659 41.2239 47.3141 41.3251 47.218C41.3301 47.2054 41.3402 47.1839 41.3554 47.1536C41.3655 47.1333 41.3706 47.1005 41.3706 47.055C41.3706 47.012 41.3655 46.9804 41.3554 46.9602L41.3251 46.8995C41.3023 46.9172 41.2694 46.9299 41.2264 46.9374C41.1809 46.94 41.1417 46.9324 41.1088 46.9147C41.0911 46.8995 41.0658 46.9229 41.0329 46.9848C41.0001 47.0468 40.9621 47.0777 40.9191 47.0777C40.8736 47.0777 40.8369 47.0638 40.8091 47.036C40.7813 47.0082 40.7585 46.9981 40.7408 47.0057C40.6599 47.1118 40.5916 47.1763 40.536 47.1991C40.4803 47.2218 40.424 47.2243 40.3671 47.2066C40.3102 47.1889 40.2628 47.1801 40.2249 47.1801C40.0883 47.1826 40.015 47.2635 40.0048 47.4227L40.0051 47.8417C39.9954 48.3103 39.9017 48.685 39.7241 48.9659C39.5875 49.1908 39.4067 49.3791 39.1816 49.5308C38.8781 49.7052 38.562 49.7924 38.2332 49.7924C37.9853 49.7874 37.776 49.7216 37.6053 49.5953C37.4346 49.4689 37.3417 49.2818 37.3265 49.0341C37.3315 48.7106 37.4466 48.3264 37.6717 47.8815C37.6869 47.836 37.6881 47.7918 37.6755 47.7488C37.6629 47.7033 37.6237 47.7412 37.5579 47.8626C37.2165 48.4667 37.047 49.0265 37.0495 49.5422C37.0597 49.8682 37.152 50.1223 37.3265 50.3043C37.501 50.4888 37.7375 50.5874 38.0359 50.6ZM35.293 49.2995C35.3259 49.2995 35.4302 49.2711 35.606 49.2142C35.7818 49.1573 35.9127 49.1131 35.9987 49.0815C36.0847 49.0499 36.1492 49.0202 36.1922 48.9924C36.2351 48.9646 36.2946 48.8926 36.3705 48.7763C36.4463 48.66 36.5285 48.4793 36.6171 48.2341C36.6373 48.1785 36.6556 48.1185 36.6721 48.054C36.6885 47.9896 36.7011 47.9365 36.71 47.8948C36.7188 47.8531 36.7271 47.8013 36.7347 47.7393C36.7422 47.6774 36.746 47.6149 36.746 47.5517C36.746 47.4278 36.7113 47.3216 36.6417 47.2332C36.5722 47.1447 36.4855 47.1005 36.3818 47.1005C36.3211 47.1005 36.2598 47.1409 36.1978 47.2218C36.1359 47.3027 36.0746 47.4051 36.0139 47.5289C35.9532 47.6528 35.9133 47.7431 35.8943 47.8C35.8754 47.8569 35.8608 47.9068 35.8507 47.9498C35.8406 48.0205 35.8672 48.085 35.9304 48.1431C35.9936 48.2013 36.072 48.2316 36.1656 48.2341C36.201 48.2341 36.237 48.2246 36.2737 48.2057C36.3104 48.1867 36.3464 48.1798 36.3818 48.1848C36.349 48.3011 36.2977 48.4054 36.2282 48.4976C36.1586 48.5899 36.0904 48.66 36.0233 48.7081C35.9563 48.7561 35.8077 48.8572 35.5776 49.0114C35.3474 49.1656 35.2425 49.2566 35.2627 49.2844C35.2627 49.2945 35.2728 49.2995 35.293 49.2995ZM33.0813 46.1602C33.2508 45.9959 33.5252 45.8227 33.9045 45.6408C34.2839 45.4588 34.485 45.3589 34.5077 45.3412C34.5583 45.316 34.6064 45.2768 34.6519 45.2237C34.6823 45.1908 34.7379 45.1106 34.8188 44.9829C34.8998 44.8553 34.9453 44.7776 34.9554 44.7498C34.963 44.7245 34.9529 44.7118 34.9251 44.7118L34.8719 44.7308C34.705 44.8041 34.5324 44.8932 34.3541 44.9981C34.1758 45.103 34.0051 45.2111 33.8419 45.3223C33.6788 45.4335 33.5309 45.5428 33.3981 45.6502C33.2653 45.7577 33.1597 45.8493 33.0813 45.9251C33.056 45.9833 33.0465 46.0319 33.0528 46.0711C33.0592 46.1103 33.0687 46.14 33.0813 46.1602ZM34.4129 50.4028C34.4888 50.4028 34.5925 50.2613 34.724 49.9782C34.7771 50.0186 34.8441 50.0831 34.9251 50.1716C34.9832 50.2348 35.0275 50.2664 35.0578 50.2664C35.0983 50.2664 35.1615 50.1994 35.2475 50.0654C35.336 49.9264 35.3803 49.8101 35.3803 49.7166C35.3803 49.6357 35.336 49.546 35.2475 49.4474C35.1615 49.3615 35.0894 49.3185 35.0313 49.3185C35.0136 49.3185 34.9693 49.3804 34.8985 49.5043C34.8504 49.5902 34.7999 49.6774 34.7467 49.7659C34.7189 49.7027 34.6633 49.6338 34.5798 49.5592C34.4964 49.4847 34.4344 49.4474 34.3939 49.4474C34.3712 49.4474 34.3086 49.5479 34.2061 49.7488C34.1037 49.9498 34.0525 50.0654 34.0525 50.0957C34.0525 50.1134 34.1081 50.169 34.2194 50.2626C34.3307 50.3561 34.3952 50.4028 34.4129 50.4028ZM34.7505 51.1498C34.7809 51.1498 34.8365 51.0878 34.9175 50.964C34.9959 50.8351 35.0376 50.7264 35.0427 50.6379C35.0477 50.557 35.0142 50.4724 34.9421 50.3839C34.87 50.2954 34.8037 50.2487 34.743 50.2436C34.7202 50.2411 34.6595 50.3276 34.5609 50.5033C34.4622 50.679 34.4116 50.7795 34.4091 50.8047C34.4091 50.8275 34.4262 50.854 34.4603 50.8844C34.4945 50.9147 34.528 50.9438 34.5609 50.9716C34.6013 51.0145 34.6405 51.055 34.6785 51.0929C34.7063 51.1283 34.7303 51.1472 34.7505 51.1498ZM33.5517 43.6464C33.5922 43.6464 33.6567 43.5706 33.7452 43.419C33.8337 43.2673 33.878 43.151 33.878 43.0701C33.8704 43.0095 33.8135 42.9254 33.7073 42.818C33.601 42.7106 33.5201 42.6682 33.4645 42.691C33.4366 42.691 33.3753 42.7839 33.2805 42.9697C33.1856 43.1555 33.1382 43.2761 33.1382 43.3318C33.1382 43.3596 33.1572 43.3861 33.1951 43.4114C33.2381 43.4417 33.3045 43.4866 33.3943 43.546L33.4437 43.5785C33.5036 43.6177 33.5396 43.6404 33.5517 43.6464ZM33.0813 47.2142C33.1724 47.1232 33.2672 47.0196 33.3658 46.9033C33.4189 46.8401 33.4708 46.7757 33.5214 46.71C33.5846 46.6291 33.6605 46.5621 33.749 46.509C33.7692 46.4989 33.7945 46.4648 33.8249 46.4066C33.8577 46.3409 33.878 46.2904 33.8856 46.255C33.8932 46.2171 33.8906 46.193 33.878 46.1829C33.8653 46.1728 33.8476 46.1728 33.8249 46.1829C33.7692 46.2082 33.6902 46.2265 33.5878 46.2379C33.4853 46.2493 33.3734 46.2562 33.252 46.2588C33.1306 46.2613 33.0434 46.255 32.9903 46.2398C33.0181 46.212 33.0484 46.1855 33.0813 46.1602C33.1041 46.1425 33.1199 46.1197 33.1287 46.0919C33.1376 46.0641 33.1414 46.0382 33.1401 46.0142C33.1388 45.9902 33.1325 45.9694 33.1211 45.9517C33.1098 45.934 33.0965 45.9251 33.0813 45.9251C32.9928 46.0085 32.9163 46.0919 32.8518 46.1754C32.7873 46.2588 32.7411 46.3397 32.7133 46.418C32.7032 46.4458 32.7083 46.4686 32.7285 46.4863C32.7513 46.5065 32.798 46.5166 32.8689 46.5166C32.9065 46.5161 32.9422 46.5157 32.976 46.5155L33.1544 46.5158C33.3348 46.5181 33.4179 46.5272 33.4038 46.5431C33.3355 46.6468 33.2748 46.7264 33.2217 46.782C33.1686 46.8376 33.1218 46.8755 33.0813 46.8957C33.0535 46.9235 33.0351 46.9551 33.0263 46.9905C33.0174 47.0259 33.0143 47.0607 33.0168 47.0948C33.0193 47.1289 33.0269 47.1573 33.0396 47.1801C33.0522 47.2028 33.0661 47.2142 33.0813 47.2142ZM31.5297 44.818C31.5676 44.818 31.6264 44.7447 31.7061 44.5981C31.7857 44.4515 31.8256 44.3365 31.8256 44.2531C31.8256 44.1646 31.7826 44.0724 31.6966 43.9763C31.6106 43.8904 31.5322 43.8474 31.4614 43.8474C31.4336 43.8474 31.3722 43.9466 31.2774 44.145C31.1825 44.3434 31.1351 44.4553 31.1351 44.4806C31.1351 44.5058 31.156 44.5336 31.1977 44.564C31.2395 44.5943 31.2995 44.6442 31.3779 44.7137C31.4563 44.7833 31.5069 44.818 31.5297 44.818ZM31.1693 45.728C31.2477 45.728 31.3564 45.5864 31.4955 45.3033C31.5512 45.3438 31.6207 45.4082 31.7042 45.4967C31.7649 45.5599 31.8117 45.5915 31.8446 45.5915C31.885 45.5915 31.952 45.5245 32.0456 45.3905C32.1367 45.2515 32.1822 45.1352 32.1822 45.0417C32.1822 44.9608 32.1367 44.8724 32.0456 44.7763C31.952 44.6904 31.8749 44.6474 31.8142 44.6474C31.7965 44.6474 31.751 44.7081 31.6776 44.8294C31.627 44.9153 31.5739 45.0038 31.5183 45.0948C31.4879 45.0291 31.4291 44.9596 31.3419 44.8863C31.2546 44.813 31.1908 44.7763 31.1503 44.7763C31.125 44.7763 31.0586 44.8761 30.9511 45.0758C30.8436 45.2755 30.7899 45.3905 30.7899 45.4209C30.7899 45.4385 30.8487 45.4942 30.9663 45.5877C31.0839 45.6812 31.1516 45.728 31.1693 45.728ZM29.7921 50.6C30.3663 50.5949 30.8582 50.3156 31.2679 49.7621C31.4424 49.5144 31.5853 49.249 31.6966 48.9659C31.8408 48.5968 31.9394 48.1823 31.9925 47.7223C32.0026 47.6818 32.0102 47.6616 32.0153 47.6616C32.1164 47.649 32.2031 47.6256 32.2751 47.5915C32.3472 47.5573 32.4174 47.5137 32.4857 47.4607C32.5464 47.4935 32.6438 47.4645 32.7778 47.3735C32.879 47.3659 32.9801 47.3141 33.0813 47.218C33.0864 47.2054 33.0965 47.1839 33.1117 47.1536C33.1218 47.1333 33.1268 47.1005 33.1268 47.055C33.1268 47.012 33.1218 46.9804 33.1117 46.9602L33.0813 46.8995C33.0585 46.9172 33.0257 46.9299 32.9827 46.9374C32.9371 46.94 32.8979 46.9324 32.8651 46.9147C32.8474 46.8995 32.8221 46.9229 32.7892 46.9848C32.7563 47.0468 32.7184 47.0777 32.6754 47.0777C32.6299 47.0777 32.5932 47.0638 32.5654 47.036C32.5375 47.0082 32.5148 46.9981 32.4971 47.0057C32.4161 47.1118 32.3479 47.1763 32.2922 47.1991C32.2366 47.2218 32.1803 47.2243 32.1234 47.2066C32.0665 47.1889 32.0191 47.1801 31.9811 47.1801C31.8446 47.1826 31.7712 47.2635 31.7611 47.4227L31.7614 47.8417C31.7516 48.3103 31.658 48.685 31.4804 48.9659C31.3438 49.1908 31.1629 49.3791 30.9379 49.5308C30.6344 49.7052 30.3182 49.7924 29.9894 49.7924C29.7416 49.7874 29.5323 49.7216 29.3616 49.5953C29.1908 49.4689 29.0979 49.2818 29.0827 49.0341C29.0878 48.7106 29.2029 48.3264 29.4279 47.8815C29.4431 47.836 29.4444 47.7918 29.4317 47.7488C29.4191 47.7033 29.3799 47.7412 29.3141 47.8626C28.9727 48.4667 28.8033 49.0265 28.8058 49.5422C28.8159 49.8682 28.9082 50.1223 29.0827 50.3043C29.2572 50.4888 29.4937 50.5874 29.7921 50.6ZM28.2557 45.1858C28.2962 45.1858 28.3606 45.11 28.4492 44.9583C28.5377 44.8066 28.5819 44.6904 28.5819 44.6095C28.5744 44.5488 28.5175 44.4648 28.4112 44.3573C28.305 44.2499 28.2241 44.2076 28.1684 44.2303C28.1406 44.2303 28.0793 44.3232 27.9844 44.509C27.8896 44.6948 27.8422 44.8155 27.8422 44.8711C27.8422 44.8989 27.8611 44.9254 27.8991 44.9507C27.9421 44.981 28.0085 45.0259 28.0983 45.0853C28.188 45.1447 28.2405 45.1782 28.2557 45.1858ZM27.9446 48.363C28.0432 48.2619 28.1248 48.1652 28.1893 48.073C28.2538 47.9807 28.3151 47.8581 28.3733 47.7052C28.4315 47.5523 28.4606 47.3937 28.4606 47.2294C28.4606 47.0171 28.4112 46.8477 28.3126 46.7213C28.2165 46.5949 28.0976 46.5318 27.956 46.5318C27.9029 46.5318 27.8485 46.5823 27.7929 46.6834C27.7372 46.7845 27.698 46.8553 27.6753 46.8957C27.6398 46.9716 27.6044 47.0487 27.569 47.127C27.521 47.2357 27.4969 47.3027 27.4969 47.328C27.4969 47.4013 27.521 47.4581 27.569 47.4986C27.6171 47.5415 27.6715 47.563 27.7322 47.563C27.765 47.563 27.8017 47.5605 27.8422 47.5555C27.8776 47.5479 27.9079 47.5365 27.9332 47.5213C27.9636 47.5213 27.9977 47.5491 28.0357 47.6047C28.0711 47.6603 28.0888 47.7033 28.0888 47.7336C28.0888 47.7741 28.0407 47.8284 27.9446 47.8967C27.9143 47.9397 27.894 47.9858 27.8839 48.0351C27.8738 48.0844 27.87 48.1311 27.8725 48.1754C27.8751 48.2196 27.8826 48.2594 27.8953 48.2948C27.9079 48.3302 27.9244 48.3529 27.9446 48.363ZM25.0348 50.5848C25.0626 50.6 25.1044 50.5937 25.16 50.5659C25.2258 50.5355 25.3244 50.4875 25.4559 50.4218C25.547 50.3763 25.6292 50.3321 25.7025 50.2891C26.0212 50.0768 26.3082 49.8076 26.5637 49.4815C26.6876 49.3299 26.8349 49.1491 27.0057 48.9393C27.1764 48.7295 27.3288 48.5981 27.4628 48.545C27.4957 48.5299 27.5804 48.497 27.717 48.4464L27.7916 48.4188C27.8815 48.3857 27.9325 48.3671 27.9446 48.363C27.9724 48.2847 27.9876 48.2051 27.9901 48.1242C27.9927 48.0433 27.9775 47.9624 27.9446 47.8815C27.9168 47.8916 27.8877 47.903 27.8573 47.9156C27.693 47.9814 27.5931 48.0231 27.5576 48.0408C27.4641 48.0837 27.3705 48.1381 27.2769 48.2038C27.1859 48.2771 27.091 48.3694 26.9924 48.4806C26.9241 48.564 26.833 48.6853 26.7192 48.8445C26.5194 49.1352 26.3879 49.3185 26.3247 49.3943C26.2362 49.5055 26.1653 49.5839 26.1122 49.6294C26.0642 49.69 25.982 49.7747 25.8656 49.8834C25.8252 49.9264 25.7013 50.03 25.4939 50.1943L25.1752 50.4218C25.1499 50.442 25.1271 50.4597 25.1069 50.4749C25.0867 50.4926 25.069 50.5065 25.0538 50.5166C25.0285 50.5419 25.0222 50.5646 25.0348 50.5848ZM24.7541 45.7735C24.7768 45.7886 24.8104 45.7779 24.8546 45.7412C24.8989 45.7046 24.9469 45.6686 24.9988 45.6332C25.0506 45.5978 25.1139 45.5687 25.1885 45.546C25.2631 45.5232 25.3491 45.5188 25.4464 45.5327C25.5438 45.5466 25.626 45.5637 25.693 45.5839C25.7601 45.6041 25.8378 45.618 25.9263 45.6256C26.1464 45.6332 26.3297 45.6117 26.4764 45.5611C26.6231 45.5106 26.7888 45.4259 26.9734 45.3071C27.0923 45.2288 27.1953 45.1422 27.2826 45.0474C27.3699 44.9526 27.4362 44.8635 27.4818 44.7801C27.5045 44.7447 27.5165 44.7137 27.5178 44.6872C27.5191 44.6607 27.5121 44.6474 27.4969 44.6474C27.4792 44.6474 27.4571 44.6556 27.4306 44.672C27.404 44.6885 27.3515 44.7232 27.2731 44.7763C27.1947 44.8294 27.1087 44.8761 27.0151 44.9166C26.8558 44.9848 26.6826 45.019 26.4954 45.019C26.3867 45.019 26.2804 45.0101 26.1767 44.9924C25.9643 44.952 25.8366 44.9318 25.7936 44.9318C25.6646 44.9318 25.5116 44.9886 25.3345 45.1024C25.1802 45.2009 25.0424 45.3235 24.921 45.4701C24.8654 45.5333 24.8205 45.5953 24.7863 45.6559C24.7522 45.7166 24.7414 45.7558 24.7541 45.7735ZM25.3383 49.0891C25.3535 49.0979 25.375 49.0897 25.4028 49.0645C25.4256 49.0392 25.4553 48.9987 25.492 48.9431C25.5286 48.8875 25.5786 48.7757 25.6418 48.6076C25.705 48.4395 25.7468 48.2468 25.767 48.0294C25.7797 47.9283 25.7872 47.8044 25.7898 47.6578C25.7923 47.5112 25.7961 47.3469 25.8012 47.1649C25.8012 47.122 25.803 47.0562 25.8068 46.9678C25.8106 46.8793 25.8151 46.7889 25.8201 46.6967C25.8252 46.6044 25.8309 46.521 25.8372 46.4464C25.8435 46.3719 25.8492 46.3245 25.8543 46.3043C25.8568 46.284 25.8492 46.2701 25.8315 46.2626C25.8138 46.255 25.7936 46.2689 25.7708 46.3043C25.743 46.3599 25.712 46.4237 25.6779 46.4957C25.6437 46.5678 25.6115 46.6442 25.5811 46.7251C25.5508 46.806 25.5236 46.8882 25.4996 46.9716C25.4755 47.055 25.4585 47.1359 25.4483 47.2142C25.4306 47.3482 25.4243 47.5422 25.4294 47.7962C25.4344 48.0502 25.4332 48.2468 25.4256 48.3858C25.418 48.5248 25.399 48.6682 25.3687 48.8161C25.3383 48.964 25.3231 49.0404 25.3231 49.0455C25.3181 49.0657 25.3231 49.0803 25.3383 49.0891ZM22.9597 49.2995C22.9925 49.2995 23.0969 49.2711 23.2726 49.2142C23.4484 49.1573 23.5793 49.1131 23.6653 49.0815C23.7513 49.0499 23.8158 49.0202 23.8588 48.9924C23.9018 48.9646 23.9612 48.8926 24.0371 48.7763C24.1129 48.66 24.1951 48.4793 24.2837 48.2341C24.3039 48.1785 24.3222 48.1185 24.3387 48.054C24.3551 47.9896 24.3678 47.9365 24.3766 47.8948C24.3855 47.8531 24.3937 47.8013 24.4013 47.7393C24.4089 47.6774 24.4126 47.6149 24.4126 47.5517C24.4126 47.4278 24.3779 47.3216 24.3083 47.2332C24.2388 47.1447 24.1521 47.1005 24.0485 47.1005C23.9878 47.1005 23.9264 47.1409 23.8645 47.2218C23.8025 47.3027 23.7412 47.4051 23.6805 47.5289C23.6198 47.6528 23.5799 47.7431 23.561 47.8C23.542 47.8569 23.5274 47.9068 23.5173 47.9498C23.5072 48.0205 23.5338 48.085 23.597 48.1431C23.6602 48.2013 23.7386 48.2316 23.8322 48.2341C23.8676 48.2341 23.9037 48.2246 23.9403 48.2057C23.977 48.1867 24.013 48.1798 24.0485 48.1848C24.0156 48.3011 23.9644 48.4054 23.8948 48.4976C23.8253 48.5899 23.757 48.66 23.6899 48.7081C23.6229 48.7561 23.4743 48.8572 23.2442 49.0114C23.014 49.1656 22.9091 49.2566 22.9293 49.2844C22.9293 49.2945 22.9394 49.2995 22.9597 49.2995ZM21.3284 49.2957C21.3536 49.2957 21.415 49.2875 21.5124 49.2711C21.6097 49.2547 21.7387 49.2231 21.8993 49.1763C22.0599 49.1295 22.1763 49.0777 22.2483 49.0209C22.3204 48.964 22.3868 48.8812 22.4475 48.7725C22.5082 48.6638 22.5784 48.5033 22.6581 48.291C22.7377 48.0787 22.8022 47.8828 22.8515 47.7033C22.9009 47.5239 22.9268 47.4 22.9293 47.3318C22.9293 47.2863 22.9154 47.261 22.8876 47.2559C22.8547 47.2534 22.8243 47.2812 22.7965 47.3393C22.7687 47.3975 22.7225 47.5062 22.6581 47.6654C22.5936 47.8246 22.5215 47.9826 22.4418 48.1393C22.3621 48.2961 22.2907 48.4136 22.2275 48.4919C22.1642 48.5703 22.058 48.6619 21.9088 48.7668C21.7596 48.8717 21.6287 48.9589 21.5161 49.0284C21.4036 49.0979 21.3334 49.1542 21.3056 49.1972C21.2854 49.225 21.2778 49.2477 21.2828 49.2654C21.2879 49.2831 21.3031 49.2932 21.3284 49.2957ZM20.0575 49.3071C20.0802 49.3071 20.1106 49.3033 20.1485 49.2957C20.4596 49.2174 20.6973 49.0948 20.8617 48.928C20.9578 48.8319 21.052 48.691 21.1444 48.5052C21.2367 48.3194 21.2892 48.1027 21.3018 47.855C21.3018 47.5239 21.1387 47.2597 20.8124 47.0626C20.7542 47.0272 20.7163 47.036 20.6986 47.0891C20.5823 47.3469 20.4861 47.5491 20.4103 47.6957C20.39 47.7589 20.4065 47.812 20.4596 47.855C20.7479 48.09 20.8921 48.2733 20.8921 48.4047C20.8921 48.4553 20.8149 48.5577 20.6607 48.7118C20.5013 48.8736 20.3306 49.0177 20.1485 49.1441C20.0575 49.2098 20.0119 49.2566 20.0119 49.2844C20.0119 49.2995 20.0271 49.3071 20.0575 49.3071ZM18.999 49.2995C19.1179 49.2995 19.2254 49.254 19.3215 49.163C19.4176 49.072 19.5112 48.9393 19.6022 48.7649C19.6604 48.6562 19.7078 48.5343 19.7445 48.3991C19.7811 48.2638 19.7995 48.1419 19.7995 48.0332C19.7995 47.884 19.7824 47.7741 19.7483 47.7033C19.7141 47.6325 19.6553 47.5592 19.5719 47.4834C19.5365 47.4581 19.4928 47.4297 19.441 47.3981C19.3891 47.3665 19.3506 47.3507 19.3253 47.3507C19.2924 47.3507 19.2633 47.3823 19.238 47.4455L18.9687 48.0559C18.9307 48.1444 18.9143 48.1987 18.9193 48.219C18.9244 48.219 18.9307 48.2202 18.9383 48.2227C18.9459 48.2253 18.9661 48.2316 18.999 48.2417C18.9661 48.2973 18.9257 48.3656 18.8776 48.4464C18.8296 48.5273 18.7891 48.6145 18.7562 48.7081C18.7309 48.7965 18.7183 48.8799 18.7183 48.9583C18.7183 49.1858 18.8119 49.2995 18.999 49.2995ZM19.1318 48.8483C18.9952 48.8483 18.9269 48.7915 18.9269 48.6777C18.9269 48.6171 18.9554 48.5425 19.0123 48.454C19.0692 48.3656 19.109 48.3213 19.1318 48.3213C19.1621 48.3264 19.2007 48.3434 19.2475 48.3725C19.2943 48.4016 19.3303 48.4288 19.3556 48.454C19.4062 48.4995 19.4315 48.5589 19.4315 48.6322C19.4315 48.6878 19.3967 48.7378 19.3272 48.782C19.2576 48.8262 19.1925 48.8483 19.1318 48.8483ZM17.4094 49.2995C17.5713 49.2995 17.7142 49.1984 17.8381 48.9962C17.9469 48.8269 18.0013 48.6562 18.0013 48.4844C18.0013 48.4212 17.9861 48.3618 17.9557 48.3062C17.9077 48.2227 17.8584 48.181 17.8078 48.181C17.8027 48.181 17.7875 48.2126 17.7623 48.2758C17.7142 48.3946 17.6775 48.454 17.6522 48.454C17.6269 48.454 17.5998 48.4269 17.5707 48.3725C17.5416 48.3182 17.527 48.2493 17.527 48.1659C17.527 47.9788 17.6181 47.7564 17.8002 47.4986C17.8154 47.4784 17.828 47.4607 17.8381 47.4455C17.8963 47.357 17.9557 47.261 18.0164 47.1573C18.0999 47.0006 18.153 46.89 18.1758 46.8256C18.1985 46.7611 18.2099 46.7036 18.2099 46.6531C18.2099 46.6202 18.1973 46.6038 18.172 46.6038H18.0885C17.9165 46.5886 17.8065 46.5387 17.7585 46.454C17.7104 46.3694 17.6876 46.2676 17.6902 46.1488C17.6978 46.0123 17.7161 45.8821 17.7452 45.7583C17.7743 45.6344 17.7977 45.5359 17.8154 45.4626C17.8508 45.3387 17.89 45.2123 17.933 45.0834C17.9557 45.0076 17.9532 44.9684 17.9254 44.9659C17.8874 44.9659 17.8116 45.0954 17.6978 45.3545C17.584 45.6136 17.4967 45.8392 17.436 46.0313C17.4208 46.0818 17.3943 46.1804 17.3563 46.327C17.3057 46.5494 17.2805 46.7251 17.2805 46.854C17.2805 47.031 17.3216 47.1668 17.4037 47.2616C17.4859 47.3564 17.5789 47.4253 17.6826 47.4682C17.4904 47.721 17.3424 47.951 17.2387 48.1583C17.1097 48.4161 17.0452 48.6411 17.0452 48.8332C17.0452 48.952 17.08 49.0594 17.1496 49.1554C17.2191 49.2515 17.3057 49.2995 17.4094 49.2995ZM14.3176 50.7251C14.6008 50.7251 14.8512 50.6531 15.0687 50.509C15.1825 50.4357 15.2888 50.3472 15.3874 50.2436C15.486 50.14 15.572 50.0363 15.6454 49.9327C15.7895 49.7103 15.9059 49.448 15.9944 49.146C16.0829 48.8439 16.1272 48.5754 16.1272 48.3403C16.1272 48.1709 16.0854 48.0572 16.002 47.9991C15.9767 47.9788 15.9248 47.9536 15.8464 47.9232C15.768 47.8929 15.7136 47.8664 15.6833 47.8436C15.6479 47.8133 15.6302 47.7703 15.6302 47.7147C15.6302 47.6768 15.665 47.6085 15.7345 47.51C15.8041 47.4114 15.9008 47.3052 16.0247 47.1915C16.1487 47.0777 16.2625 46.9949 16.3662 46.9431C16.4699 46.8913 16.5533 46.8654 16.6166 46.8654C16.6317 46.8654 16.6482 46.8724 16.6659 46.8863C16.6836 46.9002 16.7038 46.9147 16.7266 46.9299C16.7569 46.9299 16.7923 46.8983 16.8328 46.8351C16.8429 46.8199 16.8726 46.7592 16.9219 46.6531C16.9713 46.5469 17.0067 46.4641 17.0282 46.4047C17.0497 46.3453 17.0655 46.284 17.0756 46.2209C17.0807 46.2006 17.0781 46.1791 17.068 46.1564C17.0579 46.1336 17.0389 46.1223 17.0111 46.1223C16.9453 46.1324 16.8556 46.1703 16.7417 46.236C16.6482 46.2891 16.5521 46.3529 16.4534 46.4275C16.3548 46.5021 16.2739 46.5684 16.2106 46.6265C16.0918 46.7403 15.9602 46.8882 15.8161 47.0701C15.639 47.2926 15.5018 47.5188 15.4045 47.7488C15.3071 47.9788 15.2584 48.1684 15.2584 48.3175C15.2584 48.4161 15.2786 48.4938 15.3191 48.5507C15.3596 48.6076 15.419 48.655 15.4974 48.6929C15.5379 48.7131 15.5739 48.727 15.6055 48.7346C15.6371 48.7422 15.689 48.7573 15.7611 48.7801C15.8331 48.8028 15.8692 48.8382 15.8692 48.8863C15.8692 48.9646 15.842 49.0524 15.7876 49.1498C15.7332 49.2471 15.6542 49.3513 15.5505 49.4626C15.4468 49.5738 15.3178 49.6686 15.1636 49.7469C14.9562 49.8506 14.7412 49.9024 14.5186 49.9024C14.2505 49.9024 14.0425 49.8417 13.8946 49.7204C13.7466 49.5991 13.6726 49.4348 13.6726 49.2275C13.6726 49.0303 13.7472 48.7346 13.8965 48.3403C13.9268 48.2695 13.9654 48.1798 14.0122 48.0711C14.059 47.9624 14.1026 47.8613 14.143 47.7678C14.1835 47.6742 14.2139 47.6028 14.2341 47.5536C14.2543 47.5043 14.2784 47.443 14.3062 47.3697C14.3163 47.3494 14.3207 47.3191 14.3195 47.2787C14.3182 47.2382 14.3049 47.218 14.2796 47.218C14.2619 47.218 14.2417 47.2382 14.2189 47.2787C14.1962 47.3191 14.1747 47.3608 14.1544 47.4038L13.9761 47.7829C13.918 47.9068 13.8421 48.0698 13.7485 48.272C13.6549 48.4742 13.5753 48.684 13.5095 48.9014C13.4665 49.0354 13.4349 49.1687 13.4147 49.3014C13.3944 49.4341 13.3843 49.57 13.3843 49.709C13.3843 49.8177 13.3988 49.9327 13.4279 50.054C13.457 50.1754 13.5095 50.2904 13.5854 50.3991C13.7523 50.6114 13.9964 50.7201 14.3176 50.7251ZM13.1225 43.4265C13.163 43.4265 13.2275 43.3507 13.316 43.1991C13.4045 43.0474 13.4488 42.9311 13.4488 42.8502C13.4412 42.7896 13.3843 42.7055 13.2781 42.5981C13.1719 42.4907 13.0909 42.4483 13.0353 42.4711C13.0075 42.4711 12.9461 42.564 12.8513 42.7498C12.7564 42.9355 12.709 43.0562 12.709 43.1118C12.709 43.1397 12.728 43.1662 12.7659 43.1915C12.8089 43.2218 12.8753 43.2667 12.9651 43.3261L13.0145 43.3586C13.0744 43.3978 13.1104 43.4205 13.1225 43.4265ZM12.4207 46.8161C12.5269 46.7276 12.6319 46.5987 12.7356 46.4294C12.8039 46.3182 12.8595 46.1905 12.9025 46.0464C12.948 45.9024 12.9708 45.7735 12.9708 45.6597L12.986 45.3336L12.9935 45.0645C12.9935 45.0114 12.9885 44.9848 12.9784 44.9848C12.9556 45.0076 12.943 45.0278 12.9404 45.0455L12.7849 45.4209C12.747 45.5043 12.7103 45.5965 12.6749 45.6976C12.6546 45.7709 12.6445 45.8379 12.6445 45.8986V46.1488C12.6445 46.212 12.6218 46.2752 12.5762 46.3384C12.5332 46.4016 12.4814 46.4547 12.4207 46.4976C12.3979 46.5482 12.3891 46.6 12.3941 46.6531C12.3992 46.7062 12.4081 46.7605 12.4207 46.8161ZM11.2864 44.5867C11.3268 44.5867 11.3913 44.5109 11.4799 44.3592C11.5684 44.2076 11.6126 44.0913 11.6126 44.0104C11.605 43.9498 11.5481 43.8657 11.4419 43.7583C11.3357 43.6509 11.2548 43.6085 11.1991 43.6313C11.1713 43.6313 11.11 43.7242 11.0151 43.91C10.9203 44.0957 10.8729 44.2164 10.8729 44.272C10.8729 44.2998 10.8918 44.3264 10.9298 44.3517C10.9728 44.382 11.0392 44.4269 11.1289 44.4863C11.2187 44.5457 11.2712 44.5791 11.2864 44.5867ZM11.0132 47.3659C11.036 47.3659 11.0594 47.364 11.0834 47.3602C11.1074 47.3564 11.1359 47.3431 11.1688 47.3204L11.3167 47.2028C11.4305 47.1144 11.4925 47.0651 11.5026 47.055C11.5785 47.0044 11.6569 46.9791 11.7378 46.9791C11.7581 46.9791 11.7859 46.9817 11.8213 46.9867C11.8921 46.9918 11.9364 46.9943 11.9541 46.9943C11.9996 46.9943 12.0451 46.9905 12.0906 46.9829C12.1387 46.9754 12.1893 46.9589 12.2424 46.9336C12.2955 46.9134 12.3549 46.8742 12.4207 46.8161C12.4258 46.7984 12.4359 46.7719 12.451 46.7365C12.4612 46.7137 12.4662 46.6885 12.4662 46.6607C12.4662 46.6278 12.4612 46.5987 12.451 46.5735C12.4333 46.533 12.4232 46.5077 12.4207 46.4976C12.3119 46.5532 12.2285 46.581 12.1703 46.581C12.1653 46.5608 12.1627 46.5482 12.1627 46.5431C12.1678 46.528 12.1773 46.4976 12.1912 46.4521C12.2051 46.4066 12.2247 46.3498 12.25 46.2815C12.255 46.2512 12.2576 46.2196 12.2576 46.1867C12.2576 46.0831 12.231 45.9972 12.1779 45.9289C12.1273 45.8632 12.0628 45.8303 11.9844 45.8303C11.9035 45.8303 11.8162 45.8872 11.7227 46.0009C11.6822 46.0414 11.624 46.121 11.5481 46.2398C11.4773 46.3586 11.428 46.4521 11.4002 46.5204C11.3622 46.6063 11.337 46.6708 11.3243 46.7137C11.3193 46.7365 11.3193 46.763 11.3243 46.7934C11.3243 46.8009 11.337 46.8186 11.3622 46.8464C11.3622 46.8692 11.3458 46.8856 11.3129 46.8957C11.2801 46.9058 11.2453 46.9058 11.2086 46.8957C11.1719 46.8856 11.1372 46.878 11.1043 46.873C11.0714 46.8679 11.041 46.8667 11.0132 46.8692V47.3659ZM11.8137 46.6114C11.7505 46.6114 11.6936 46.5949 11.643 46.5621C11.5924 46.5318 11.5671 46.5027 11.5671 46.4749C11.5873 46.4167 11.6101 46.3725 11.6354 46.3422C11.6961 46.2588 11.7732 46.2171 11.8668 46.2171C11.9326 46.2171 11.9844 46.2411 12.0224 46.2891C12.0603 46.3422 12.0793 46.3927 12.0793 46.4408C12.0793 46.4711 12.0502 46.5065 11.992 46.5469C11.9364 46.5899 11.8769 46.6114 11.8137 46.6114ZM9.69681 45.5687C9.77774 45.5687 9.88649 45.431 10.0231 45.1555C10.0787 45.1959 10.1432 45.2528 10.2165 45.3261C10.2899 45.3994 10.3405 45.436 10.3683 45.436C10.4113 45.436 10.4783 45.3716 10.5694 45.2427C10.6629 45.1112 10.7097 44.9975 10.7097 44.9014C10.7047 44.8205 10.6585 44.734 10.5713 44.6417C10.484 44.5494 10.4088 44.5033 10.3455 44.5033C10.3253 44.5033 10.2842 44.5551 10.2222 44.6588C10.1603 44.7624 10.104 44.8559 10.0534 44.9393C10.0104 44.8787 9.94782 44.8085 9.86563 44.7289C9.78343 44.6493 9.72083 44.6183 9.67784 44.636C9.65508 44.636 9.59185 44.7333 9.48815 44.928C9.38446 45.1226 9.33261 45.2363 9.33261 45.2692C9.33261 45.2844 9.36991 45.3223 9.44452 45.3829C9.51913 45.4436 9.57414 45.4891 9.60955 45.5194C9.64749 45.5523 9.67657 45.5687 9.69681 45.5687ZM10.0221 47.7318L10.0572 47.728C10.08 47.7242 10.0964 47.716 10.1065 47.7033C10.2001 47.5517 10.307 47.436 10.4271 47.3564C10.5472 47.2768 10.6693 47.2496 10.7932 47.2749C10.821 47.2825 10.8564 47.3002 10.8994 47.328C10.9196 47.3406 10.9386 47.3507 10.9563 47.3583C10.974 47.3659 10.993 47.3684 11.0132 47.3659C11.0158 47.3558 11.0297 47.3115 11.055 47.2332C11.0676 47.1826 11.0739 47.1346 11.0739 47.0891C11.0739 47.0487 11.0676 47.0095 11.055 46.9716L11.0132 46.8692C10.8286 46.8894 10.6781 46.9292 10.5618 46.9886C10.4454 47.048 10.3259 47.146 10.2033 47.2825C10.0806 47.419 9.97375 47.5592 9.8827 47.7033C9.88523 47.7084 9.89661 47.7141 9.91684 47.7204C9.93707 47.7267 9.95984 47.7305 9.98513 47.7318C10.0104 47.733 10.0344 47.7318 10.0572 47.728L10.0221 47.7318ZM8.74079 50.5659C8.87989 50.5659 9.01014 50.5457 9.13154 50.5052C9.24282 50.4673 9.35664 50.4117 9.47298 50.3384C9.78912 50.1084 10.0395 49.8 10.2241 49.4133C10.3405 49.163 10.4201 48.9532 10.4631 48.7839C10.5061 48.6095 10.5276 48.4389 10.5276 48.272C10.5276 48.1583 10.515 48.0724 10.4897 48.0142C10.4644 47.9611 10.4227 47.9137 10.3645 47.872C10.3063 47.8303 10.2488 47.7918 10.1919 47.7564C10.135 47.721 10.1065 47.6856 10.1065 47.6502C10.104 47.6325 10.0939 47.6199 10.0762 47.6123C10.0585 47.6047 10.0389 47.6009 10.0174 47.6009C9.99588 47.6009 9.97438 47.6047 9.95288 47.6123C9.93138 47.6199 9.91558 47.6325 9.90546 47.6502C9.84982 47.7513 9.8024 47.8581 9.7632 47.9706C9.72399 48.0831 9.70439 48.1836 9.70439 48.272C9.70439 48.3959 9.79671 48.5008 9.98133 48.5867C10.1634 48.6701 10.2545 48.7333 10.2545 48.7763C10.2545 48.9912 10.1381 49.1959 9.90546 49.3905C9.63231 49.618 9.29341 49.7318 8.88874 49.7318C8.66365 49.7318 8.48029 49.685 8.33865 49.5915C8.14644 49.4575 8.05033 49.2351 8.05033 48.9242C8.05033 48.7599 8.10977 48.5273 8.22864 48.2265C8.29692 48.0622 8.42085 47.7728 8.60042 47.3583C8.62065 47.3128 8.63709 47.2585 8.64974 47.1953C8.66238 47.1422 8.6548 47.1131 8.62698 47.1081C8.60674 47.1055 8.57766 47.1384 8.53972 47.2066C8.52455 47.242 8.50494 47.2825 8.48092 47.328C8.45689 47.3735 8.4297 47.424 8.39935 47.4796C8.35636 47.5706 8.32095 47.6445 8.29313 47.7014C8.26531 47.7583 8.24381 47.8006 8.22864 47.8284C8.17805 47.9447 8.11735 48.0875 8.04654 48.2569C7.98078 48.4212 7.91755 48.6158 7.85685 48.8408C7.79615 49.0733 7.7658 49.2616 7.7658 49.4057C7.7658 49.7292 7.84041 49.9946 7.98963 50.2019C8.16414 50.4445 8.41453 50.5659 8.74079 50.5659ZM6.7415 49.0891C6.75667 49.0979 6.77817 49.0897 6.80599 49.0645C6.82875 49.0392 6.85847 48.9987 6.89514 48.9431C6.93182 48.8875 6.98177 48.7757 7.04499 48.6076C7.10822 48.4395 7.14995 48.2468 7.17019 48.0294C7.18283 47.9283 7.19042 47.8044 7.19295 47.6578C7.19548 47.5112 7.19927 47.3469 7.20433 47.1649C7.20433 47.122 7.20623 47.0562 7.21002 46.9678C7.21382 46.8793 7.21824 46.7889 7.2233 46.6967C7.22836 46.6044 7.23405 46.521 7.24037 46.4464C7.24669 46.3719 7.25238 46.3245 7.25744 46.3043C7.25997 46.284 7.25238 46.2701 7.23468 46.2626C7.21698 46.255 7.19674 46.2689 7.17398 46.3043C7.14616 46.3599 7.11518 46.4237 7.08104 46.4957C7.04689 46.5678 7.01465 46.6442 6.9843 46.7251C6.95395 46.806 6.92676 46.8882 6.90273 46.9716C6.8787 47.055 6.86163 47.1359 6.85151 47.2142C6.83381 47.3482 6.82749 47.5422 6.83255 47.7962C6.8376 48.0502 6.83634 48.2468 6.82875 48.3858C6.82117 48.5248 6.8022 48.6682 6.77185 48.8161C6.7415 48.964 6.72632 49.0404 6.72632 49.0455C6.72126 49.0657 6.72632 49.0803 6.7415 49.0891ZM4.208 49.2972L4.25282 49.2957C4.32869 49.2957 4.43365 49.2818 4.5677 49.254C4.69668 49.2313 4.80038 49.2047 4.87878 49.1744C5.04317 49.1011 5.1671 48.9773 5.25057 48.8028C5.30115 48.6891 5.36817 48.5261 5.45163 48.3137C5.49969 48.2025 5.549 48.1115 5.59959 48.0408C5.61476 48.0205 5.64638 47.9915 5.69443 47.9536C5.74248 47.9182 5.87653 47.8474 6.09656 47.7412C6.25337 47.6629 6.395 47.3987 6.52146 46.9488C6.53917 46.8629 6.53664 46.8161 6.51387 46.8085C6.49111 46.806 6.45191 46.854 6.39627 46.9526C6.34063 47.0537 6.2951 47.1194 6.25969 47.1498C6.22176 47.1826 6.156 47.2218 6.06242 47.2673C5.9562 47.3229 5.88159 47.3621 5.83859 47.3848C5.72478 47.4581 5.64132 47.5302 5.58821 47.6009C5.53509 47.6692 5.45669 47.8183 5.353 48.0483C5.25183 48.2784 5.19239 48.4047 5.17469 48.4275C5.11905 48.5033 5.01788 48.5943 4.87119 48.7005C4.87878 48.6954 4.81682 48.7371 4.6853 48.8256C4.51585 48.9318 4.39824 49.0095 4.33248 49.0588C4.26673 49.1081 4.22373 49.1403 4.2035 49.1554C4.14786 49.1959 4.12257 49.2275 4.12762 49.2502C4.14533 49.2882 4.18706 49.3033 4.25282 49.2957L4.208 49.2972ZM5.57303 52.1545C5.65396 52.1545 5.76272 52.0167 5.89929 51.7412C5.95493 51.7817 6.01943 51.8385 6.09277 51.9118C6.16612 51.9852 6.2167 52.0218 6.24452 52.0218C6.28752 52.0218 6.35454 51.9573 6.44559 51.8284C6.53917 51.697 6.58595 51.5833 6.58595 51.4872C6.5809 51.4063 6.53474 51.3197 6.44748 51.2275C6.36023 51.1352 6.28499 51.0891 6.22176 51.0891C6.20152 51.0891 6.16043 51.1409 6.09846 51.2445L5.98212 51.4383C5.96399 51.4684 5.9465 51.4973 5.92964 51.5251C5.88665 51.4645 5.82405 51.3943 5.74185 51.3147C5.65965 51.2351 5.59706 51.2041 5.55406 51.2218C5.5313 51.2218 5.46807 51.3191 5.36438 51.5137C5.26068 51.7084 5.20883 51.8221 5.20883 51.855C5.20883 51.8701 5.24614 51.9081 5.32075 51.9687C5.39536 52.0294 5.45037 52.0749 5.48578 52.1052C5.52371 52.1381 5.5528 52.1545 5.57303 52.1545ZM3.61927 49.0891C3.63444 49.0979 3.65594 49.0897 3.68376 49.0645C3.70652 49.0392 3.73624 48.9987 3.77291 48.9431C3.80958 48.8875 3.85953 48.7757 3.92276 48.6076C3.98599 48.4395 4.02772 48.2468 4.04796 48.0294C4.0606 47.9283 4.06819 47.8044 4.07072 47.6578C4.07325 47.5112 4.07704 47.3469 4.0821 47.1649C4.0821 47.122 4.084 47.0562 4.08779 46.9678C4.09158 46.8793 4.09601 46.7889 4.10107 46.6967C4.10613 46.6044 4.11182 46.521 4.11814 46.4464C4.12446 46.3719 4.13015 46.3245 4.13521 46.3043C4.13774 46.284 4.13015 46.2701 4.11245 46.2626C4.09474 46.255 4.07451 46.2689 4.05175 46.3043C4.02393 46.3599 3.99295 46.4237 3.9588 46.4957C3.92466 46.5678 3.89241 46.6442 3.86206 46.7251C3.83171 46.806 3.80453 46.8882 3.7805 46.9716C3.75647 47.055 3.7394 47.1359 3.72928 47.2142C3.71158 47.3482 3.70526 47.5422 3.71031 47.7962C3.71537 48.0502 3.71411 48.2468 3.70652 48.3858C3.69893 48.5248 3.67996 48.6682 3.64961 48.8161C3.61927 48.964 3.60409 49.0404 3.60409 49.0455C3.59903 49.0657 3.60409 49.0803 3.61927 49.0891ZM0.986423 50.6227C1.56054 50.6177 2.05246 50.3384 2.46218 49.7848C2.87696 49.2136 3.10711 48.5311 3.15264 47.7374C3.1577 47.4341 3.16275 47.2269 3.16781 47.1156C3.17287 47.0044 3.17666 46.9292 3.17919 46.89C3.18172 46.8509 3.17413 46.8313 3.15643 46.8313C3.13114 46.8313 3.10016 46.8692 3.06348 46.945C3.02681 47.0209 2.98066 47.1428 2.92501 47.3109C2.86937 47.479 2.83649 47.6325 2.82638 47.7716C2.82638 47.8196 2.82701 47.8998 2.82827 48.0123C2.82954 48.1248 2.83017 48.2177 2.83017 48.291C2.83017 48.4831 2.80741 48.6373 2.76188 48.7536C2.64301 49.0872 2.43309 49.3539 2.13213 49.5536C1.82863 49.728 1.51249 49.8152 1.1837 49.8152C0.915606 49.8051 0.699997 49.7368 0.536867 49.6104C0.373737 49.484 0.287113 49.2995 0.276997 49.0569C0.282055 48.7333 0.397131 48.3491 0.622225 47.9043C0.6374 47.8588 0.638665 47.8139 0.626019 47.7697C0.613373 47.7254 0.574172 47.764 0.508414 47.8853C0.166979 48.4894 -0.00247396 49.0493 2.72875e-05 49.5649C0.0101718 49.891 0.102486 50.1457 0.276997 50.3289C0.451508 50.5122 0.687983 50.6101 0.986423 50.6227ZM1.65032 48.746C1.67562 48.746 1.70976 48.7258 1.75275 48.6853C1.81851 48.6221 1.87099 48.5532 1.91019 48.4787C1.9494 48.4041 1.97785 48.3365 1.99555 48.2758C2.01326 48.2152 2.01705 48.1596 2.00693 48.109C1.99682 48.0458 1.97342 47.9915 1.93675 47.946C1.90008 47.9005 1.84823 47.8518 1.78121 47.8C1.71418 47.7482 1.65791 47.7033 1.61239 47.6654C1.53398 47.7943 1.47644 47.8916 1.43977 47.9573C1.4031 48.0231 1.35947 48.1128 1.30889 48.2265C1.29371 48.2619 1.26969 48.3137 1.23681 48.382C1.23681 48.4022 1.25262 48.4275 1.28423 48.4578C1.31584 48.4882 1.35378 48.5216 1.39804 48.5583C1.4423 48.5949 1.49162 48.6354 1.546 48.6796C1.60037 48.7239 1.63515 48.746 1.65032 48.746Z" fill="#4B57CC"/>
<path fill-rule="evenodd" clip-rule="evenodd" d="M20.9857 22.5007C18.7747 22.503 16.764 23.4412 15.5617 24.618C15.3817 24.7942 15.2415 24.8775 15.0855 25.071C14.9422 25.248 14.8177 25.4092 14.6707 25.5862C14.361 25.9522 14.1892 26.301 13.9275 26.724C13.7865 26.9497 12.8535 29.3227 13.1175 29.5987C13.1242 29.6032 13.7107 29.7757 13.785 29.7967C13.8577 29.8207 14.3107 30.042 14.367 30.0802C14.739 30.3307 15.0315 30.51 15.3142 30.8587C15.8887 31.5697 16.1745 32.3137 16.107 33.504C16.0095 35.2312 14.046 36.897 12.1072 36.153L12.174 35.6692C12.201 35.6422 12.3397 35.6512 12.5452 35.6595C13.1692 35.6857 14.4142 35.7112 15.06 34.7212C15.3405 34.2885 15.5445 33.9315 15.549 33.2782C15.5535 32.6805 15.3997 32.1375 15.1657 31.725C14.6745 30.855 14.034 30.3375 12.882 30.1012C12.297 29.9797 11.613 30.063 11.1127 30.21C9.59098 30.321 8.33248 32.5162 8.27998 33.042C8.22823 33.5677 8.25223 34.4865 8.27998 34.836C8.32648 35.4015 8.52298 35.9587 8.75548 36.3847C9.21598 37.2315 9.97573 37.8952 10.887 38.2935C11.823 38.7045 13.1242 39.0037 14.2815 38.6182C15.0375 38.3677 15.672 38.055 16.2262 37.515C16.3305 37.4152 16.6747 37.0612 16.7482 37.0102C16.8855 37.002 18.0405 37.5675 18.2625 37.665C19.6912 38.2935 21.186 37.8315 22.092 38.1802C22.767 38.4405 22.5622 39.093 22.4835 39.7492C23.6632 39.6825 24.8025 37.4632 23.5485 36.1807C23.3212 35.949 23.5252 35.7562 23.5927 35.4675C23.6467 35.235 23.7202 34.9395 23.724 34.653C23.7352 33.3165 23.4127 32.6505 22.6875 31.8945C22.356 31.5502 21.975 31.365 21.5242 31.1445C21.3232 31.0455 20.1375 30.741 19.875 30.9142C19.9035 30.9607 20.6407 31.167 20.9617 31.8817C21.2242 32.4652 21.0937 33.0525 20.793 33.4972C20.577 33.8182 20.0047 34.1752 19.4242 34.1805C18.6517 34.1865 18.3352 34.0125 17.8327 33.69C17.157 33.261 16.497 31.9845 16.446 30.9802C16.3627 29.3775 16.404 28.8232 17.1757 27.7117C17.7015 26.9527 18.6037 26.2687 19.5607 25.9815C20.6377 25.6582 22.1325 25.671 23.0272 26.199C24.2415 26.916 24.4237 27.018 25.155 28.1835C25.368 28.5195 25.6207 29.2717 25.665 29.7187C25.6927 30.0052 25.7767 30.267 25.878 30.5115C25.9867 30.7755 26.277 31.0267 26.3077 31.116C26.286 31.1782 26.0107 31.425 25.9215 31.584C25.8435 31.7287 25.6515 31.9462 25.5562 32.1015C25.407 32.3467 25.0905 33.0225 25.047 33.3247C24.8917 34.3927 24.8917 35.4862 25.3567 36.315C26.2095 37.8315 27.4095 38.9947 29.709 38.9947C31.722 38.9947 33.3487 37.665 33.942 36.1935C34.359 35.1547 34.461 34.4977 34.1842 33.267C33.8745 31.893 32.976 31.2547 32.904 31.0455C33.4545 30.5115 33.3652 30.2587 33.5542 29.4645C33.7222 28.7587 33.8205 28.4032 34.203 27.873C34.803 27.048 35.6647 26.2267 36.7732 25.9455C38.142 25.599 39.45 25.6965 40.4797 26.3347C40.9605 26.6332 41.3827 26.9415 41.7202 27.342C41.883 27.5355 42.0472 27.7605 42.1905 27.9817C42.258 28.0867 42.5842 28.7137 42.5887 28.7182L42.7942 29.1337L42.7995 29.1465C42.6105 28.9327 42.7147 29.2417 42.7732 29.4735C42.8377 29.7315 42.8137 30.0607 42.81 30.3562C42.801 30.999 42.6517 31.3935 42.5197 31.9312C42.2992 32.829 41.6317 33.678 40.8135 33.9997C39.8025 34.395 38.553 34.11 38.2237 33.1995C38.0662 32.763 37.9747 32.0827 38.3107 31.716C38.46 31.5547 38.5575 31.3717 38.7547 31.2315C38.8155 31.1887 39.3652 30.9247 39.3697 30.897C39.0592 30.7245 37.9342 31.0335 37.7235 31.1205C37.2645 31.314 36.8797 31.5225 36.537 31.8667C35.8335 32.5777 35.4547 33.2865 35.4615 34.6102C35.4637 35.067 35.8335 35.9827 35.691 36.144C35.3572 36.5205 35.1082 36.8122 35.1037 37.491C35.1022 38.121 35.247 38.583 35.5327 38.97C35.7247 39.2295 36.282 39.7507 36.6997 39.7507C36.5917 39.0697 36.4162 38.5162 37.092 38.1997C37.893 37.8255 39.5595 38.3062 40.896 37.683C41.0955 37.5892 42.3075 37.0245 42.4207 37.0275C42.5385 37.0912 42.9615 37.5375 43.128 37.6725C43.4205 37.9035 43.6042 38.0362 43.929 38.2125C44.4922 38.5185 45.2107 38.772 46.0597 38.7802C47.5312 38.7975 49.1347 38.0655 49.8615 37.1977C50.6092 36.3082 51.3315 34.6995 50.838 33.1245C50.5485 32.1975 50.0002 31.2712 49.2142 30.744C48.9952 30.5977 48.5415 30.414 48.363 30.3082L49.4242 31.0012L48.318 30.2805C48.0907 30.1035 47.2395 30.057 46.8367 30.0585C45.9667 30.0645 44.9812 30.4612 44.4682 31.089C44.3385 31.248 43.7992 31.9117 43.8637 32.1712C43.6642 32.2822 43.596 33.363 43.68 33.6585C43.8232 34.1677 43.89 34.5232 44.241 34.8847C44.8687 35.5357 46.1572 35.6317 46.7332 35.6422C46.7392 35.6422 46.746 35.643 46.7527 35.643L46.776 35.64L46.7527 35.643C46.8352 35.6452 46.92 35.649 47.004 35.6595L47.0295 36.1507C46.083 36.4147 45.0967 36.321 44.298 35.7105C43.728 35.2755 43.1107 34.4205 43.0912 33.4867C43.068 32.3587 43.275 31.4842 43.881 30.8482C44.6332 30.0607 44.934 29.9587 46.0762 29.6055L46.1265 29.5972L45.8715 28.299C45.2925 26.223 44.25 25.0665 42.7402 23.916C41.985 23.3392 41.1532 23.073 40.1662 22.737C39.1807 22.4032 37.806 22.4842 36.732 22.6305C36.1065 22.7152 34.3245 23.337 33.993 23.6475C33.732 23.892 33.1515 24.1515 32.898 24.4365C32.6182 24.75 32.2635 25.0237 31.965 25.3882C30.414 27.2707 30.4732 28.7265 30.204 29.2417C29.9595 29.7075 29.442 29.9392 29.1007 29.4225C28.9207 29.1502 28.7775 28.3762 28.6567 28.014C28.308 26.9647 28.0042 26.4225 27.3487 25.563C27.0172 25.1287 26.7772 24.9607 26.433 24.594C25.341 23.4315 23.136 22.5007 20.9925 22.5007C20.9902 22.5007 20.988 22.5007 20.9857 22.5007ZM29.667 36.2655C28.7017 36.2415 27.7965 35.4525 27.7845 34.476C27.7552 31.9845 31.4752 32.0145 31.4797 34.4077L31.4782 34.4055C31.4752 34.9762 31.2397 35.3715 30.9345 35.7C30.7417 35.91 30.0525 36.2655 29.6805 36.2655C29.676 36.2655 29.6715 36.2655 29.667 36.2655Z" fill="#4B57CC"/>
<path fill-rule="evenodd" clip-rule="evenodd" d="M25.7776 19.5005C24.4613 19.5005 24.5356 20.9645 25.2946 21.2675C25.7731 21.4572 26.0266 21.416 26.4406 21.7662C27.1298 22.3497 27.5101 22.7525 27.9916 23.5385C28.0516 23.6367 28.2908 23.9802 28.3178 24.0432C28.4086 24.2607 28.4873 24.4295 28.6043 24.5937C28.7783 24.8405 29.0236 25.418 29.1526 25.7112C29.2996 26.045 29.4488 26.696 29.5921 26.957C29.7001 27.1557 29.8021 26.6112 29.8471 26.486C30.0556 25.9325 30.3421 25.2515 30.6001 24.7302C30.9833 23.948 31.4161 23.375 31.8998 22.6985C32.3213 22.1075 33.0893 21.5022 33.8123 21.308C34.8526 21.0267 34.6508 19.5027 33.6233 19.5027L33.6211 19.5005H25.7776Z" fill="#4B57CC"/>
<path fill-rule="evenodd" clip-rule="evenodd" d="M34.7468 16.5165H24.2603C24.1575 16.5172 24.0593 16.5157 23.9648 16.5135C23.2695 16.503 22.7963 16.491 22.5638 17.2275C22.3028 18.057 22.884 18.753 23.511 18.7507V18.7477H35.6153C36.3585 18.7477 36.9968 18.06 36.6555 17.1675C36.4328 16.587 36.015 16.5007 35.4758 16.5007C35.2515 16.5007 35.007 16.5157 34.7468 16.5165Z" fill="#4B57CC"/>
<path fill-rule="evenodd" clip-rule="evenodd" d="M28.7258 2.8725C28.4753 3.6885 28.2068 4.5105 28.209 5.50575L28.2113 5.50275C28.2113 6.24975 28.287 7.1025 28.5285 7.76025C28.6028 7.95975 29.1848 9.3075 29.1848 9.309C28.7123 9.22425 27.7785 7.899 27.5438 7.4055C27.0825 6.42375 27.2708 5.442 27.2138 4.23075C27.0653 4.26675 26.4398 5.436 26.3303 5.68575C26.0483 6.321 25.956 6.75225 25.7708 7.455C25.5458 8.31075 25.6785 9.65775 25.9763 10.5322C26.031 10.692 26.2883 11.316 26.2958 11.4052C25.9193 11.2657 25.2413 10.2952 25.0943 9.8835C24.966 9.52275 24.8783 9.28125 24.7508 8.87025C24.6863 8.6565 24.5985 7.82475 24.5243 7.7385C24.3645 7.76625 23.5283 9.444 23.4203 9.675C23.1398 10.2555 22.8728 11.409 22.875 12.204C22.8773 13.3267 23.3363 14.5012 24.0413 15.2632C24.5048 15.7635 24.24 15.7485 25.2413 15.7507H34.125C34.7153 15.7507 35.4758 14.8545 35.7885 14.4367C36.2348 13.8427 36.4583 12.9975 36.3465 12.084C36.1583 10.5585 35.0505 9.135 34.1768 8.2605L32.7315 6.7305C32.3618 6.25875 31.671 5.51475 31.4258 5.04C31.0913 4.389 30.6735 3.8775 30.3803 3.0855C30.2408 2.709 30.1485 2.34975 30.0105 1.95C29.9108 1.656 29.8238 0.95325 29.7293 0.75C29.5013 0.81 28.8368 2.51325 28.7258 2.8725Z" fill="#E21E25"/>
</svg>
