<svg width="30" height="46" viewBox="0 0 30 46" fill="none" xmlns="http://www.w3.org/2000/svg">
<path fill-rule="evenodd" clip-rule="evenodd" d="M14.8353 26C14.9832 26 15.1316 26.0005 15.2789 26C16.6743 25.9904 16.7549 25.8964 16.1159 24.7389C13.8184 20.5752 10.2211 18.2081 5.25724 17.7657C4.49763 17.6979 4.39301 17.8345 4.58144 18.552C5.70831 22.8406 10.0423 25.9894 14.8353 26ZM8.25 7.2226C15.7803 8.40568 21.1796 12.2514 24.7833 18.5002C26.4791 14.8188 25.1581 9.51017 20.8991 6.76097C16.576 3.97073 11.066 4.77781 8.25 7.2226ZM6.58812 10.2906C5.94471 10.1091 5.56299 10.5592 5.28585 11.2545C4.97058 12.0425 4.71662 12.8407 4.53941 13.6698C4.40702 14.2891 4.59916 14.5111 5.25339 14.5146C7.33353 14.5263 9.31012 15.0255 11.1749 15.9179C14.7701 17.6384 17.3545 20.3239 18.9061 23.9439C19.1823 24.588 19.4352 24.6341 19.9921 24.2804C20.7555 23.7954 21.4813 23.279 22.1428 22.6627C22.5317 22.3009 22.5884 21.9745 22.3839 21.49C21.2104 18.7113 19.4682 16.3436 17.1305 14.4097C14.139 11.9351 10.6891 10.5592 6.58812 10.2906ZM29.9937 15.1999C29.9947 18.2188 29.7374 20.8771 28.6499 23.3853C26.9611 27.2796 23.8709 29.4324 19.8198 30.3642C19.5397 30.4284 19.2564 30.5029 18.9715 30.5195C18.2592 30.5608 17.7798 30.9059 17.4072 31.5061C16.9035 32.3189 16.3436 33.1007 15.6806 33.7965C15.1 34.4055 14.8281 34.4117 14.2818 33.7531C13.6711 33.0174 13.0879 32.2532 12.5587 31.458C12.18 30.8909 11.7063 30.6276 11.0411 30.5153C7.9499 29.9933 5.21252 28.7749 3.15689 26.3178C1.3752 24.1888 0.512379 21.6759 0.203153 18.9628C-0.0899896 16.3868 -0.102442 13.8138 0.40965 11.2513C1.58014 5.39299 5.3469 1.75376 11.2777 0.81989C14.8639 0.25543 18.4112 0.383222 21.8454 1.6508C25.7361 3.08704 28.1176 5.92434 29.2518 9.85021C29.7867 11.6998 30.0445 13.5914 29.9937 15.1999Z" fill="#3ECE71"/>
<path d="M24.7936 38.9423L25.4972 38.2386L24.7854 37.5268L24.09 38.2304L24.7936 38.9423ZM24.2822 43.25C24.4568 43.25 24.63 43.22 24.8018 43.16C24.9736 43.1 25.1284 43.0079 25.2661 42.8839C25.4038 42.7598 25.5157 42.6029 25.6016 42.4134C25.6875 42.2239 25.7304 41.9982 25.7304 41.7364C25.7304 41.6464 25.7236 41.5414 25.71 41.4214C25.6963 41.3014 25.68 41.1766 25.6609 41.047C25.6418 40.9175 25.62 40.7893 25.5954 40.6625C25.5709 40.5357 25.5484 40.4198 25.5279 40.3148C25.5075 40.2098 25.4891 40.1218 25.4727 40.0509C25.4563 39.98 25.4454 39.9364 25.44 39.92L24.7077 40.145C24.7186 40.1832 24.7322 40.2404 24.7486 40.3168C24.765 40.3932 24.7827 40.4804 24.8018 40.5786C24.8209 40.6768 24.84 40.7811 24.8591 40.8916C24.8782 41.002 24.8952 41.1098 24.9102 41.2148C24.9252 41.3198 24.9375 41.4179 24.947 41.5093C24.9566 41.6007 24.9613 41.6764 24.9613 41.7364C24.9613 41.9109 24.9334 42.0473 24.8775 42.1454C24.8216 42.2436 24.7561 42.3173 24.6811 42.3664C24.6061 42.4154 24.5311 42.4461 24.4561 42.4584C24.3811 42.4707 24.3232 42.4768 24.2822 42.4768H23.2391V43.25H24.2822ZM22.0813 39.5395L22.785 38.8359L22.0732 38.1241L21.3777 38.8277L22.0813 39.5395ZM20.0932 45.5204C20.4804 45.5204 20.8234 45.4659 21.122 45.3568C21.4207 45.2477 21.6722 45.0889 21.8768 44.8802C22.0813 44.6716 22.2368 44.4173 22.3432 44.1173C22.4495 43.8173 22.5027 43.4764 22.5027 43.0945C22.7236 43.1982 22.965 43.25 23.2268 43.25H23.4027V42.4768H23.2268C23.1968 42.4768 23.1429 42.472 23.0652 42.4625C22.9875 42.4529 22.9063 42.4277 22.8218 42.3868C22.7372 42.3459 22.6629 42.2825 22.5988 42.1966C22.5347 42.1107 22.5027 41.9914 22.5027 41.8386V40.4845H21.7295V43.0373C21.7295 43.3345 21.6975 43.5909 21.6334 43.8064C21.5693 44.0218 21.4697 44.1991 21.3347 44.3382C21.1997 44.4773 21.0293 44.5802 20.8234 44.647C20.6175 44.7139 20.3741 44.7473 20.0932 44.7473H19.5286V45.5204H20.0932ZM17.3318 43.3114C17.4463 43.3114 17.5568 43.3073 17.6632 43.2991C17.7695 43.2909 17.8704 43.28 17.9659 43.2664C18.585 43.1764 18.9804 42.9391 19.1522 42.5545C19.2041 42.4427 19.2313 42.3548 19.2341 42.2907C19.2368 42.2266 19.2382 42.1891 19.2382 42.1782C19.2382 42.0745 19.2259 41.9709 19.2013 41.8673C19.1741 41.7527 19.1332 41.6389 19.0786 41.5257C19.0241 41.4125 18.9627 41.3041 18.8945 41.2004C18.72 40.9386 18.5672 40.7095 18.4363 40.5132C18.3054 40.3168 18.1909 40.145 18.0927 39.9977C17.9945 39.8504 17.9113 39.7243 17.8432 39.6193C17.775 39.5143 17.715 39.4229 17.6632 39.3452C17.6113 39.2675 17.5663 39.1993 17.5282 39.1407C17.49 39.082 17.4532 39.0254 17.4177 38.9709L16.7632 39.3964L18.2441 41.6341C18.3313 41.765 18.3886 41.872 18.4159 41.9552C18.4432 42.0384 18.4568 42.1032 18.4568 42.1495C18.4568 42.1823 18.4513 42.2123 18.4404 42.2395C18.4132 42.2968 18.3484 42.3479 18.2461 42.3929C18.1438 42.4379 18.0136 42.4727 17.8554 42.4973C17.7218 42.5164 17.61 42.5266 17.52 42.5279C17.475 42.5286 17.4382 42.5291 17.4095 42.5295L17.3482 42.53C17.2145 42.53 17.0809 42.5232 16.9472 42.5095C16.7918 42.4959 16.6445 42.472 16.5054 42.4379C16.3663 42.4039 16.2491 42.3595 16.1536 42.305L15.8141 42.1127L15.4295 42.7877L15.7691 42.98C15.87 43.04 15.9825 43.0911 16.1066 43.1334C16.2307 43.1757 16.3602 43.2098 16.4952 43.2357C16.6302 43.2616 16.7686 43.2807 16.9104 43.2929C17.0523 43.3052 17.1927 43.3114 17.3318 43.3114ZM13.1427 43.25C13.3172 43.25 13.4904 43.22 13.6623 43.16C13.8341 43.1 13.9888 43.0079 14.1266 42.8839C14.2643 42.7598 14.3761 42.6029 14.462 42.4134C14.5479 42.2239 14.5909 41.9982 14.5909 41.7364C14.5909 41.6464 14.5841 41.5414 14.5704 41.4214C14.5568 41.3014 14.5404 41.1766 14.5213 41.047C14.5022 40.9175 14.4804 40.7893 14.4559 40.6625C14.4313 40.5357 14.4088 40.4198 14.3884 40.3148C14.3679 40.2098 14.3495 40.1218 14.3332 40.0509C14.3168 39.98 14.3059 39.9364 14.3004 39.92L13.5682 40.145C13.5791 40.1832 13.5927 40.2404 13.6091 40.3168C13.6254 40.3932 13.6432 40.4804 13.6623 40.5786C13.6813 40.6768 13.7004 40.7811 13.7195 40.8916C13.7386 41.002 13.7557 41.1098 13.7707 41.2148C13.7857 41.3198 13.7979 41.4179 13.8075 41.5093C13.817 41.6007 13.8218 41.6764 13.8218 41.7364C13.8218 41.9109 13.7938 42.0473 13.7379 42.1454C13.682 42.2436 13.6166 42.3173 13.5416 42.3664C13.4666 42.4154 13.3916 42.4461 13.3166 42.4584C13.2416 42.4707 13.1836 42.4768 13.1427 42.4768H11.4491V43.25H13.1427ZM13.9813 45.4714L14.6441 44.8086L13.9895 44.1541L13.3432 44.8086L13.9813 45.4714ZM12.4145 45.4795L13.0772 44.8168L12.4227 44.1623L11.7763 44.8168L12.4145 45.4795ZM7.58725 43.25C7.79998 43.25 8.00452 43.2329 8.20089 43.1989C8.39725 43.1648 8.57589 43.1123 8.7368 43.0414C8.92498 42.9623 9.08793 42.8627 9.22566 42.7427C9.36339 42.6227 9.47043 42.4877 9.5468 42.3377C9.55225 42.3241 9.5577 42.3118 9.56316 42.3009C9.56861 42.29 9.57407 42.2777 9.57952 42.2641C9.70498 42.4141 9.83316 42.5498 9.96407 42.6711C10.095 42.7925 10.2382 42.8961 10.3936 42.982C10.5491 43.0679 10.7216 43.1341 10.9111 43.1804C11.1007 43.2268 11.3168 43.25 11.5595 43.25H11.6209V42.4768H11.5595C11.3386 42.4768 11.1484 42.4509 10.9888 42.3991C10.8293 42.3473 10.682 42.2682 10.547 42.1618C10.412 42.0554 10.2791 41.9211 10.1482 41.7589C10.0173 41.5966 9.86861 41.4036 9.70225 41.18L8.07816 38.9259L11.4286 37.3918L11.1095 36.6841L7.35407 38.4186L7.20271 38.9914C7.2818 39.1032 7.38407 39.2464 7.50952 39.4209C7.61589 39.5709 7.75361 39.7645 7.9227 40.0018C8.0918 40.2391 8.2977 40.5282 8.54043 40.8691C8.71225 41.1009 8.81725 41.2857 8.85543 41.4234C8.89361 41.5611 8.9127 41.6668 8.9127 41.7404C8.9127 41.8332 8.89498 41.9164 8.85952 41.99C8.82134 42.0636 8.76339 42.1304 8.68566 42.1904C8.60793 42.2504 8.51384 42.3016 8.40339 42.3439C8.29293 42.3861 8.16884 42.4189 8.03111 42.442C7.89339 42.4652 7.74543 42.4768 7.58725 42.4768H6.38452V43.25H7.58725ZM6.55634 43.25V42.4768C6.29998 42.4741 6.10702 42.4584 5.97748 42.4298C5.84793 42.4011 5.75111 42.3466 5.68702 42.2661C5.62293 42.1857 5.58339 42.0718 5.56839 41.9245C5.55339 41.7773 5.54589 41.585 5.54589 41.3477V37.4123H4.77271V41.3477C4.77271 41.5604 4.77952 41.7541 4.79316 41.9286C4.8068 42.1032 4.83543 42.2607 4.87907 42.4011C4.9227 42.5416 4.98339 42.6643 5.06111 42.7693C5.13884 42.8743 5.24248 42.9616 5.37202 43.0311C5.50157 43.1007 5.65975 43.1539 5.84657 43.1907C6.03339 43.2275 6.26998 43.2473 6.55634 43.25Z" fill="#3ECE71"/>
</svg>
