<svg width="68" height="53" viewBox="0 0 68 53" fill="none" xmlns="http://www.w3.org/2000/svg">
<path d="M65.6516 36.9333L66.1425 36.4424L65.6577 35.9576L65.1668 36.4485L65.6516 36.9333ZM66.3051 37.8292L66.8205 37.3076L66.2959 36.786L65.7681 37.3137L66.3051 37.8292ZM64.9827 37.8476L65.5043 37.3199L64.9827 36.7983L64.4611 37.326L64.9827 37.8476ZM63.1234 40.7961C63.2686 40.7961 63.4097 40.7726 63.5468 40.7256C63.6838 40.6785 63.8086 40.6028 63.9211 40.4985C64.14 40.6928 64.4366 40.79 64.8109 40.79C64.954 40.79 65.0937 40.767 65.2297 40.721C65.3657 40.6749 65.49 40.5998 65.6025 40.4954C65.8234 40.6959 66.124 40.7961 66.5045 40.7961C66.6456 40.7941 66.7858 40.7675 66.9248 40.7164C67.0639 40.6652 67.1887 40.588 67.2992 40.4847C67.4096 40.3814 67.4991 40.2515 67.5676 40.095C67.6362 39.9386 67.6704 39.756 67.6704 39.5474C67.6704 39.4799 67.6653 39.4016 67.6551 39.3127C67.6448 39.2237 67.6321 39.1327 67.6167 39.0396C67.6014 38.9465 67.5845 38.854 67.5661 38.7619C67.5477 38.6699 67.5298 38.586 67.5124 38.5103C67.495 38.4346 67.4802 38.3712 67.4679 38.3201C67.4556 38.269 67.4475 38.2362 67.4434 38.2219L66.7224 38.4582C66.7305 38.4889 66.7413 38.5308 66.7546 38.584C66.7679 38.6371 66.7817 38.6965 66.796 38.7619C66.8103 38.8274 66.8246 38.8964 66.8389 38.969C66.8533 39.0416 66.866 39.1132 66.8773 39.1838C66.8885 39.2544 66.8977 39.3214 66.9049 39.3848C66.9121 39.4482 66.9156 39.5024 66.9156 39.5474C66.9156 39.6558 66.8993 39.7417 66.8665 39.8051C66.8338 39.8685 66.795 39.9171 66.75 39.9508C66.705 39.9846 66.6595 40.0071 66.6134 40.0183C66.5674 40.0296 66.5311 40.0352 66.5045 40.0352C66.3225 40.0352 66.191 39.9958 66.1102 39.9171C66.0294 39.8383 65.9891 39.7151 65.9891 39.5474V38.676H65.2281V39.5474C65.2281 39.6558 65.2108 39.7422 65.176 39.8066C65.1412 39.8711 65.1008 39.9196 65.0548 39.9524C65.0088 39.9851 64.9627 40.0061 64.9167 40.0153C64.8707 40.0245 64.8354 40.0291 64.8109 40.0291C64.6309 40.0291 64.5015 39.9907 64.4227 39.914C64.344 39.8373 64.3046 39.7151 64.3046 39.5474V38.676H63.5406V39.5596C63.5406 39.6701 63.5233 39.7565 63.4885 39.8189C63.4537 39.8813 63.4133 39.9283 63.3673 39.96C63.3213 39.9918 63.2752 40.0117 63.2292 40.0199C63.1832 40.0281 63.1479 40.0321 63.1234 40.0321H62.433V40.7961H63.1234ZM60.0889 42.4437C60.3671 42.4437 60.6177 42.4018 60.8406 42.3179C61.0636 42.2341 61.2554 42.116 61.4159 41.9636C61.5765 41.8112 61.7048 41.6276 61.801 41.4128C61.8971 41.1981 61.9575 40.9587 61.982 40.6949C62.0536 40.7419 62.1267 40.7706 62.2014 40.7808C62.276 40.791 62.3553 40.7961 62.4392 40.7961H62.5558V40.0321H62.4392C62.4208 40.0321 62.387 40.027 62.3379 40.0168C62.2888 40.0066 62.2382 39.9856 62.186 39.9539C62.1339 39.9222 62.0879 39.8777 62.048 39.8204C62.0081 39.7632 61.9881 39.6875 61.9881 39.5934V38.676H61.2242V40.5445C61.2242 40.7511 61.2017 40.9265 61.1567 41.0707C61.1117 41.2149 61.0431 41.332 60.9511 41.422C60.8591 41.512 60.7414 41.5775 60.5983 41.6184C60.4551 41.6593 60.2853 41.6798 60.0889 41.6798H59.7054V42.4437H60.0889ZM58.6285 40.7961C58.8248 40.7961 58.9921 40.7757 59.1301 40.7348C59.2682 40.6939 59.3827 40.6437 59.4738 40.5844C59.5648 40.5251 59.6359 40.4607 59.687 40.3911C59.7381 40.3216 59.776 40.2592 59.8005 40.204C59.8189 40.161 59.8358 40.1089 59.8512 40.0475C59.8665 39.9861 59.8742 39.9145 59.8742 39.8327C59.8742 39.7673 59.867 39.6946 59.8527 39.6149C59.8384 39.5351 59.8138 39.4523 59.7791 39.3664C59.7402 39.2682 59.686 39.1639 59.6164 39.0534C59.5469 38.9429 59.4676 38.8299 59.3787 38.7144C59.2897 38.5988 59.1946 38.4832 59.0933 38.3677C58.9921 38.2521 58.8903 38.1406 58.788 38.0332C58.6858 37.9258 58.586 37.8241 58.4889 37.7279C58.3917 37.6318 58.3043 37.5459 58.2266 37.4702L60.4725 36.4792L60.1933 35.8103L57.5239 37.0315L57.4626 37.7249C57.5301 37.774 57.6201 37.8476 57.7326 37.9458C57.8451 38.044 57.9652 38.157 58.0931 38.2848C58.2209 38.4127 58.3498 38.5487 58.4797 38.6929C58.6096 38.8371 58.7267 38.9798 58.831 39.1209C58.9353 39.262 59.0207 39.395 59.0872 39.5198C59.1537 39.6445 59.1869 39.7509 59.1869 39.8389C59.1869 39.8839 59.167 39.9191 59.1271 39.9447C59.0872 39.9703 59.0396 39.9897 58.9844 40.003C58.9292 40.0163 58.8729 40.0245 58.8156 40.0275C58.7584 40.0306 58.7134 40.0321 58.6806 40.0321H56.8858V40.7961H58.6285ZM53.9403 38.4183L54.4619 37.8967L53.9342 37.369L53.4248 37.8967L53.9403 38.4183ZM52.6547 38.4214L53.1733 37.8998L52.6455 37.372L52.1393 37.8998L52.6547 38.4214ZM55.0326 40.7961C55.4151 40.7941 55.7178 40.7 55.9408 40.5139C55.998 40.567 56.0635 40.612 56.1371 40.6489C56.2108 40.6857 56.2869 40.7148 56.3657 40.7363C56.4444 40.7578 56.5232 40.7731 56.6019 40.7823C56.6807 40.7915 56.7548 40.7961 56.8244 40.7961H57.0146V40.0321H56.8244C56.8101 40.0321 56.7881 40.0306 56.7584 40.0275C56.7288 40.0245 56.6945 40.0178 56.6556 40.0076C56.6168 39.9974 56.5769 39.9825 56.536 39.9631C56.4951 39.9437 56.4577 39.9171 56.424 39.8833C56.3902 39.8496 56.3626 39.8077 56.3412 39.7575C56.3197 39.7074 56.3089 39.6466 56.3089 39.575V38.676H55.548V39.6854C55.548 39.7857 55.5245 39.8624 55.4775 39.9156C55.4386 39.9565 55.3793 39.9877 55.2995 40.0091C55.2197 40.0306 55.1236 40.0414 55.0111 40.0414H51.498C51.4612 40.0414 51.4193 40.0362 51.3722 40.026C51.3252 40.0158 51.2817 39.9948 51.2418 39.9631C51.2019 39.9314 51.1682 39.8854 51.1406 39.825C51.113 39.7647 51.0992 39.6854 51.0992 39.5873C51.0992 39.532 51.1053 39.4666 51.1176 39.3909C51.1298 39.3152 51.1452 39.2365 51.1636 39.1546C51.182 39.0728 51.2014 38.9936 51.2219 38.9169C51.2423 38.8402 51.2618 38.7742 51.2802 38.719L50.9181 38.6054L50.553 38.4889C50.5469 38.5073 50.5326 38.5553 50.5101 38.6331C50.4876 38.7108 50.4635 38.8028 50.438 38.9092C50.4124 39.0156 50.3894 39.1286 50.3689 39.2482C50.3485 39.3679 50.3383 39.4789 50.3383 39.5811C50.3383 39.6998 50.3495 39.8066 50.372 39.9017C50.3945 39.9969 50.4231 40.0823 50.4579 40.1579C50.4927 40.2336 50.5321 40.2991 50.576 40.3543C50.62 40.4095 50.6625 40.4566 50.7034 40.4954C50.8077 40.5936 50.9273 40.6683 51.0623 40.7194C51.1973 40.7706 51.3405 40.7961 51.4919 40.7961H55.0326ZM47.718 37.6206L48.2396 37.099L47.7119 36.5712L47.2026 37.099L47.718 37.6206ZM46.4325 37.6236L46.951 37.102L46.4233 36.5743L45.917 37.102L46.4325 37.6236ZM47.0492 40.7961C47.1903 40.7961 47.3309 40.7716 47.471 40.7225C47.6112 40.6734 47.7375 40.5987 47.85 40.4985C47.9625 40.3983 48.0535 40.271 48.123 40.1165C48.1926 39.9621 48.2273 39.7795 48.2273 39.5689C48.2273 39.5014 48.2227 39.4226 48.2135 39.3326C48.2043 39.2426 48.1921 39.15 48.1767 39.0549C48.1614 38.9598 48.145 38.8652 48.1276 38.7711C48.1102 38.677 48.0934 38.5916 48.077 38.5149C48.0606 38.4382 48.0458 38.3733 48.0325 38.3201C48.0192 38.2669 48.0105 38.2332 48.0064 38.2189L47.2854 38.4367C47.2936 38.4674 47.3048 38.5108 47.3192 38.5671C47.3335 38.6233 47.3478 38.6857 47.3621 38.7543C47.3764 38.8228 47.3913 38.8954 47.4066 38.9721C47.422 39.0488 47.4358 39.124 47.448 39.1976C47.4603 39.2712 47.47 39.3403 47.4772 39.4047C47.4843 39.4691 47.4879 39.5239 47.4879 39.5689C47.4879 39.6773 47.4705 39.7627 47.4358 39.825C47.401 39.8874 47.3606 39.934 47.3146 39.9646C47.2685 39.9953 47.2225 40.0142 47.1765 40.0214C47.1305 40.0286 47.0952 40.0321 47.0706 40.0321H45.7268V40.7961H47.0492ZM41.8701 40.7961C42.0787 40.7961 42.2873 40.7777 42.496 40.7409C42.7046 40.7041 42.9081 40.656 43.1066 40.5967C43.305 40.5374 43.4952 40.4694 43.6772 40.3927C43.8593 40.316 44.029 40.2387 44.1866 40.161C44.295 40.3717 44.4458 40.5297 44.6391 40.635C44.8324 40.7404 45.0508 40.7941 45.2942 40.7961H45.8556V40.0321L45.2739 40.0318C45.2577 40.0314 45.2364 40.0304 45.2098 40.0291C45.1699 40.027 45.1275 40.0183 45.0825 40.003C45.0375 39.9877 44.9935 39.9631 44.9505 39.9294C44.9076 39.8956 44.8759 39.8481 44.8554 39.7867C44.9495 39.7274 45.0242 39.6788 45.0794 39.641C45.0932 39.6315 45.1056 39.623 45.1166 39.6155L45.1657 39.5826L45.1776 39.575L45.0886 38.9552C45.0681 38.9491 45.0211 38.9327 44.9475 38.9061C44.8738 38.8795 44.7828 38.8463 44.6744 38.8064C44.566 38.7665 44.4443 38.722 44.3093 38.6729C44.1743 38.6239 44.0352 38.5737 43.892 38.5226C43.7488 38.4715 43.6062 38.4224 43.464 38.3753C43.3218 38.3283 43.1884 38.2864 43.0636 38.2495C42.9388 38.2127 42.8273 38.1831 42.7292 38.1606C42.631 38.1381 42.5553 38.1268 42.5021 38.1268C42.3651 38.1268 42.2434 38.1498 42.137 38.1958C42.0306 38.2419 41.9371 38.3048 41.8563 38.3845C41.7755 38.4643 41.707 38.5579 41.6507 38.6653C41.5944 38.7727 41.5469 38.8877 41.508 39.0104L42.2106 39.2221C42.2372 39.1649 42.2628 39.1158 42.2873 39.0749C42.3119 39.034 42.3385 39.0007 42.3671 38.9752C42.3958 38.9496 42.428 38.9312 42.4638 38.9199C42.4996 38.9087 42.541 38.9031 42.588 38.9031C42.633 38.9031 42.6944 38.9102 42.7721 38.9245C42.8498 38.9389 42.9378 38.9583 43.036 38.9828C43.1342 39.0074 43.2395 39.0355 43.352 39.0672C43.4645 39.0989 43.578 39.1316 43.6926 39.1654C43.8071 39.1991 43.9196 39.2329 44.0301 39.2666C44.1405 39.3004 44.2418 39.3316 44.3338 39.3602C44.1866 39.4379 44.0132 39.5167 43.8138 39.5965C43.6143 39.6762 43.4042 39.7483 43.1833 39.8128C42.9623 39.8772 42.7384 39.9299 42.5113 39.9708C42.2843 40.0117 42.0705 40.0321 41.8701 40.0321H40.9558V40.7961H41.8701ZM43.1434 42.4131L43.7018 41.8546L43.1372 41.2901L42.585 41.8485L43.1434 42.4131ZM41.0846 40.7961V40.0321C40.9128 40.0321 40.7783 40.0235 40.6812 40.0061C40.584 39.9887 40.5114 39.9529 40.4633 39.8987C40.4152 39.8445 40.3856 39.7683 40.3743 39.6701C40.3631 39.5719 40.3575 39.441 40.3575 39.2774V36.3718H39.5935V39.2774C39.5935 39.4492 39.5991 39.6062 39.6104 39.7483C39.6216 39.8905 39.6446 40.0178 39.6794 40.1303C39.7142 40.2428 39.7648 40.341 39.8313 40.4249C39.8977 40.5087 39.9862 40.5778 40.0967 40.632C40.2071 40.6862 40.3431 40.7271 40.5047 40.7547C40.6663 40.7823 40.8596 40.7961 41.0846 40.7961ZM36.918 42.4437C37.2064 42.4437 37.4652 42.4008 37.6943 42.3149C37.9234 42.229 38.1187 42.1068 38.2803 41.9482C38.4419 41.7897 38.5687 41.5974 38.6608 41.3714C38.7528 41.1454 38.805 40.8912 38.8172 40.609V38.676H38.0533V40.5445C38.0533 40.7511 38.0308 40.9265 37.9858 41.0707C37.9408 41.2149 37.8722 41.332 37.7802 41.422C37.6881 41.512 37.5705 41.5775 37.4273 41.6184C37.2842 41.6593 37.1144 41.6798 36.918 41.6798H36.5376V42.4437H36.918ZM34.5617 38.4183L35.0833 37.8967L34.5555 37.369L34.0462 37.8967L34.5617 38.4183ZM33.2761 38.4214L33.7946 37.8998L33.2669 37.372L32.7606 37.8998L33.2761 38.4214ZM35.7276 40.7961C35.8687 40.7961 36.0093 40.7716 36.1494 40.7225C36.2896 40.6734 36.4159 40.5987 36.5284 40.4985C36.6409 40.3983 36.7319 40.271 36.8014 40.1165C36.871 39.9621 36.9058 39.7795 36.9058 39.5689C36.9058 39.5014 36.9012 39.4226 36.8919 39.3326C36.8827 39.2426 36.8705 39.15 36.8551 39.0549C36.8398 38.9598 36.8234 38.8652 36.806 38.7711C36.7887 38.677 36.7718 38.5911 36.7554 38.5134C36.7534 38.5052 36.7513 38.496 36.7493 38.4858L36.0252 38.676C36.0293 38.7006 36.0344 38.7261 36.0405 38.7527C36.0548 38.8223 36.0697 38.8954 36.085 38.9721C36.1004 39.0488 36.1142 39.124 36.1264 39.1976C36.1387 39.2712 36.1484 39.3403 36.1556 39.4047C36.1627 39.4691 36.1663 39.5239 36.1663 39.5689C36.1663 39.6773 36.1489 39.7627 36.1142 39.825C36.0794 39.8874 36.039 39.934 35.993 39.9646C35.9469 39.9953 35.9009 40.0142 35.8549 40.0214C35.8089 40.0286 35.7736 40.0321 35.7491 40.0321H32.0918C32.0386 40.0321 31.9926 40.0281 31.9537 40.0199C31.9148 40.0117 31.8755 39.9918 31.8356 39.96C31.7957 39.9283 31.7619 39.8823 31.7343 39.822C31.7067 39.7616 31.6929 39.6824 31.6929 39.5842C31.6929 39.529 31.6991 39.4635 31.7113 39.3878C31.7236 39.3121 31.7389 39.2339 31.7573 39.1531C31.7758 39.0723 31.7952 38.9936 31.8156 38.9169C31.8361 38.8402 31.8555 38.7742 31.8739 38.719L31.5119 38.6054L31.1468 38.4889C31.1406 38.5073 31.1263 38.5553 31.1038 38.6331C31.0813 38.7108 31.0573 38.8028 31.0317 38.9092C31.0062 39.0156 30.9831 39.1286 30.9627 39.2482C30.9422 39.3679 30.932 39.4789 30.932 39.5811C30.932 39.6998 30.9433 39.8066 30.9658 39.9017C30.9883 39.9969 31.0169 40.0823 31.0517 40.1579C31.0864 40.2336 31.1258 40.2991 31.1698 40.3543C31.2138 40.4095 31.2562 40.4566 31.2971 40.4954C31.4014 40.5936 31.5211 40.6683 31.6561 40.7194C31.7911 40.7706 31.9343 40.7961 32.0856 40.7961H35.7276ZM28.5051 40.7961V36.3718H27.7411V40.7961H28.5051ZM25.1331 40.7961C25.2906 40.7961 25.4328 40.789 25.5596 40.7746C25.6864 40.7603 25.8005 40.7389 25.9017 40.7102C26.003 40.6816 26.0935 40.6453 26.1733 40.6013C26.253 40.5573 26.3246 40.5057 26.388 40.4464C26.4596 40.3768 26.5169 40.3027 26.5598 40.2239C26.6028 40.1452 26.6355 40.0649 26.658 39.9831C26.6805 39.9012 26.6954 39.8204 26.7025 39.7407C26.7097 39.6609 26.7133 39.5842 26.7133 39.5106V36.3718H25.9523V39.5106C25.9523 39.6128 25.9447 39.6941 25.9293 39.7545C25.914 39.8148 25.89 39.8593 25.8572 39.8879C25.8102 39.935 25.7289 39.9708 25.6133 39.9953C25.4977 40.0199 25.3377 40.0321 25.1331 40.0321V40.7961ZM22.3227 40.7961C22.4556 40.7961 22.5896 40.7859 22.7246 40.7654C22.8821 40.7429 23.0299 40.7041 23.168 40.6489C23.306 40.5936 23.4288 40.521 23.5362 40.431C23.6435 40.341 23.7218 40.2316 23.7709 40.1027C23.8629 40.207 23.9534 40.3016 24.0424 40.3865C24.1314 40.4714 24.229 40.544 24.3354 40.6044C24.4418 40.6647 24.5614 40.7117 24.6944 40.7455C24.8273 40.7792 24.9838 40.7961 25.1638 40.7961H25.2559V40.0321H25.1638C25.0329 40.0321 24.9153 40.0112 24.811 39.9692C24.7067 39.9273 24.6069 39.8665 24.5118 39.7867C24.4167 39.7069 24.3221 39.6093 24.228 39.4937C24.1339 39.3781 24.0306 39.2457 23.9181 39.0964C23.7259 38.8386 23.5341 38.5824 23.3429 38.3278L23.0556 37.9446L22.7676 37.5592L25.0963 36.4823L24.7834 35.7827L22.1202 37.0744L21.9913 37.6973C22.1447 37.8875 22.2966 38.0752 22.4469 38.2603C22.5973 38.4454 22.7323 38.6208 22.8519 38.7865C22.9716 38.9521 23.0688 39.1025 23.1434 39.2375C23.2181 39.3725 23.2554 39.484 23.2554 39.5719C23.2493 39.6578 23.2217 39.7304 23.1726 39.7898C23.1235 39.8491 23.057 39.8966 22.9731 39.9324C22.8893 39.9682 22.7901 39.9938 22.6755 40.0091C22.561 40.0245 22.4362 40.0321 22.3012 40.0321H21.301V40.7961H22.3227ZM20.3836 37.8814L20.9052 37.3598L20.3775 36.832L19.8681 37.3598L20.3836 37.8814ZM19.098 37.8844L19.6165 37.3628L19.0888 36.8351L18.5826 37.3628L19.098 37.8844ZM19.1901 40.7961C19.3905 40.7961 19.569 40.7736 19.7255 40.7286C19.8819 40.6836 20.0175 40.6131 20.132 40.5169C20.2302 40.609 20.3509 40.6785 20.494 40.7256C20.6372 40.7726 20.7958 40.7961 20.9696 40.7961H21.4237V40.0321H20.9696C20.9512 40.0321 20.9164 40.0296 20.8653 40.0245C20.8142 40.0194 20.7625 40.004 20.7104 39.9785C20.6582 39.9529 20.6117 39.914 20.5708 39.8619C20.5298 39.8097 20.5094 39.7376 20.5094 39.6456V38.6729H19.7485V39.667C19.7485 39.7079 19.7429 39.7499 19.7316 39.7928C19.7204 39.8358 19.6958 39.8746 19.658 39.9094C19.6201 39.9442 19.5639 39.9733 19.4892 39.9969C19.4146 40.0204 19.3148 40.0321 19.1901 40.0321H18.1285V40.7961H19.1901ZM15.7844 42.4437C16.0626 42.4437 16.3131 42.4018 16.5361 42.3179C16.7591 42.2341 16.9508 42.116 17.1114 41.9636C17.2719 41.8112 17.4003 41.6276 17.4964 41.4128C17.5926 41.1981 17.6529 40.9587 17.6775 40.6949C17.7491 40.7419 17.8222 40.7706 17.8968 40.7808C17.9715 40.791 18.0508 40.7961 18.1346 40.7961H18.2512V40.0321H18.1346C18.1162 40.0321 18.0825 40.027 18.0334 40.0168C17.9843 40.0066 17.9337 39.9856 17.8815 39.9539C17.8293 39.9222 17.7833 39.8777 17.7434 39.8204C17.7035 39.7632 17.6836 39.6875 17.6836 39.5934V38.676H16.9196V40.5445C16.9196 40.7511 16.8971 40.9265 16.8521 41.0707C16.8071 41.2149 16.7386 41.332 16.6465 41.422C16.5545 41.512 16.4369 41.5775 16.2937 41.6184C16.1505 41.6593 15.9808 41.6798 15.7844 41.6798H15.4009V42.4437H15.7844ZM12.8052 42.4437C13.0179 42.4437 13.2087 42.435 13.3774 42.4177C13.5462 42.4003 13.699 42.3732 13.8361 42.3364C13.9731 42.2995 14.0969 42.254 14.2073 42.1998C14.3178 42.1456 14.4201 42.0817 14.5142 42.0081C14.7023 41.8587 14.8425 41.6803 14.9345 41.4727C15.0265 41.265 15.0726 41.0089 15.0726 40.7041V39.6149C15.0726 39.3981 15.049 39.1971 15.002 39.012C14.955 38.8269 14.8808 38.6668 14.7796 38.5318C14.6783 38.3968 14.5484 38.291 14.3899 38.2142C14.2314 38.1375 14.0406 38.0992 13.8177 38.0992C13.6377 38.0992 13.47 38.1324 13.3145 38.1989C13.159 38.2654 13.02 38.36 12.8972 38.4827C12.8543 38.5298 12.8093 38.5845 12.7622 38.6469C12.7152 38.7092 12.6727 38.7824 12.6349 38.8662C12.5971 38.9501 12.5659 39.0467 12.5413 39.1562C12.5168 39.2656 12.5045 39.3909 12.5045 39.532C12.5045 39.6957 12.5234 39.8409 12.5613 39.9677C12.5991 40.0945 12.6502 40.2045 12.7147 40.2975C12.7791 40.3906 12.8548 40.4689 12.9417 40.5323C13.0287 40.5957 13.1212 40.6473 13.2194 40.6872C13.3176 40.7271 13.4198 40.7552 13.5262 40.7716C13.6326 40.7879 13.7369 40.7961 13.8392 40.7961H14.3117C14.3035 40.9516 14.2774 41.0753 14.2334 41.1674C14.1894 41.2594 14.1245 41.3402 14.0386 41.4098C13.9834 41.4568 13.9184 41.4972 13.8438 41.531C13.7691 41.5647 13.6822 41.5923 13.583 41.6138C13.4838 41.6353 13.3702 41.6516 13.2424 41.6629C13.1146 41.6741 12.9688 41.6798 12.8052 41.6798V42.4437ZM14.3117 40.0321H13.8392C13.7696 40.0321 13.7001 40.0229 13.6305 40.0045C13.561 39.9861 13.4981 39.957 13.4418 39.9171C13.3856 39.8772 13.3396 39.8256 13.3038 39.7621C13.268 39.6987 13.2501 39.622 13.2501 39.532C13.2501 39.3029 13.3012 39.1342 13.4035 39.0258C13.5058 38.9174 13.6438 38.8632 13.8177 38.8632C13.8381 38.8632 13.8647 38.8657 13.8975 38.8708C13.9302 38.876 13.9644 38.8867 14.0002 38.9031C14.036 38.9194 14.0729 38.944 14.1107 38.9767C14.1485 39.0094 14.1823 39.0534 14.2119 39.1086C14.2416 39.1639 14.2656 39.2329 14.284 39.3157C14.3025 39.3986 14.3117 39.4983 14.3117 39.6149V40.0321ZM11.0103 37.55L11.5687 36.9916L11.0042 36.427L10.4519 36.9854L11.0103 37.55ZM10.6452 40.7961C10.7863 40.7961 10.9269 40.7716 11.0671 40.7225C11.2072 40.6734 11.3335 40.5987 11.446 40.4985C11.5585 40.3983 11.6495 40.271 11.719 40.1165C11.7886 39.9621 11.8234 39.7795 11.8234 39.5689C11.8234 39.5014 11.8188 39.4226 11.8096 39.3326C11.8004 39.2426 11.7881 39.15 11.7727 39.0549C11.7574 38.9598 11.741 38.8652 11.7237 38.7711C11.7063 38.677 11.6894 38.5916 11.673 38.5149C11.6567 38.4382 11.6418 38.3733 11.6285 38.3201C11.6152 38.2669 11.6065 38.2332 11.6025 38.2189L10.8814 38.4367C10.8896 38.4674 10.9009 38.5108 10.9152 38.5671C10.9295 38.6233 10.9438 38.6857 10.9581 38.7543C10.9725 38.8228 10.9873 38.8954 11.0026 38.9721C11.018 39.0488 11.0318 39.124 11.044 39.1976C11.0563 39.2712 11.066 39.3403 11.0732 39.4047C11.0804 39.4691 11.0839 39.5239 11.0839 39.5689C11.0839 39.6773 11.0665 39.7627 11.0318 39.825C10.997 39.8874 10.9566 39.934 10.9106 39.9646C10.8646 39.9953 10.8185 40.0142 10.7725 40.0214C10.7265 40.0286 10.6912 40.0321 10.6667 40.0321H9.82905V40.7961H10.6452ZM7.71814 40.7961C7.91859 40.7961 8.09706 40.7736 8.25354 40.7286C8.41002 40.6836 8.54553 40.6131 8.66007 40.5169C8.75825 40.609 8.87894 40.6785 9.02212 40.7256C9.1653 40.7726 9.32382 40.7961 9.49769 40.7961H9.95178V40.0321H9.49769C9.47928 40.0321 9.4445 40.0296 9.39337 40.0245C9.34223 40.0194 9.29058 40.004 9.23842 39.9785C9.18626 39.9529 9.13973 39.914 9.09882 39.8619C9.05791 39.8097 9.03746 39.7376 9.03746 39.6456V38.6729H8.27655V39.667C8.27655 39.7079 8.27092 39.7499 8.25967 39.7928C8.24842 39.8358 8.22388 39.8746 8.18604 39.9094C8.1482 39.9442 8.09195 39.9733 8.01729 39.9969C7.94263 40.0204 7.84291 40.0321 7.71814 40.0321H6.65655V40.7961H7.71814ZM8.7245 42.4836L9.24609 41.962L8.71837 41.4343L8.20905 41.962L8.7245 42.4836ZM7.43894 42.4867L7.95746 41.9651L7.42973 41.4374L6.92348 41.9651L7.43894 42.4867ZM3.26007 40.8115C3.48916 40.8115 3.70803 40.8074 3.91666 40.7992C4.1253 40.791 4.31706 40.7654 4.49195 40.7225C4.66683 40.6795 4.8228 40.612 4.95984 40.52C5.09689 40.4279 5.20734 40.2981 5.29121 40.1303C5.38121 40.2326 5.47325 40.3246 5.56734 40.4065C5.66144 40.4883 5.76422 40.5578 5.8757 40.6151C5.98717 40.6724 6.11144 40.7169 6.24848 40.7486C6.38553 40.7803 6.542 40.7961 6.71791 40.7961H6.77621V40.0321H6.71791C6.61769 40.0321 6.52717 40.0255 6.44638 40.0122C6.36558 39.9989 6.28888 39.9764 6.21627 39.9447C6.14365 39.913 6.07308 39.87 6.00456 39.8158C5.93604 39.7616 5.86394 39.6931 5.78825 39.6103C5.71257 39.5274 5.63024 39.4282 5.54127 39.3127C5.45229 39.1971 5.35155 39.0626 5.23905 38.9092L4.29712 37.6328L6.71178 36.5252L6.39882 35.8257L3.662 37.1143L3.49939 37.774C3.56484 37.8537 3.64359 37.9519 3.73564 38.0685C3.81337 38.1687 3.91053 38.2956 4.02712 38.449C4.14371 38.6024 4.27973 38.7865 4.43519 39.0012C4.47405 39.0565 4.51087 39.1122 4.54564 39.1685C4.58041 39.2247 4.61058 39.2799 4.63615 39.3341C4.66172 39.3883 4.68217 39.44 4.69752 39.4891C4.71286 39.5382 4.72053 39.5821 4.72053 39.621C4.72053 39.6456 4.71848 39.6711 4.71439 39.6977C4.7103 39.7243 4.70314 39.7458 4.69291 39.7621C4.66428 39.8071 4.61621 39.8475 4.54871 39.8833C4.48121 39.9191 4.38916 39.9493 4.27257 39.9739C4.15598 39.9984 4.01433 40.0173 3.84763 40.0306C3.68092 40.0439 3.48609 40.0506 3.26314 40.0506L1.44371 40.0383C1.40689 40.0383 1.36496 40.0332 1.31791 40.0229C1.27087 40.0127 1.2274 39.9918 1.18752 39.96C1.14763 39.9283 1.11388 39.8823 1.08627 39.822C1.05865 39.7616 1.04484 39.6824 1.04484 39.5842C1.04484 39.529 1.05098 39.4635 1.06325 39.3878C1.07553 39.3121 1.09087 39.2339 1.10928 39.1531C1.12769 39.0723 1.14712 38.9936 1.16757 38.9169C1.18803 38.8402 1.20746 38.7742 1.22587 38.719L0.863822 38.6054L0.498708 38.4889C0.492572 38.5073 0.478254 38.5553 0.455754 38.6331C0.433254 38.7108 0.40922 38.8028 0.383651 38.9092C0.358083 39.0156 0.335072 39.1286 0.314617 39.2482C0.294163 39.3679 0.283936 39.4789 0.283936 39.5811C0.283936 39.6998 0.295186 39.8066 0.317686 39.9017C0.340186 39.9969 0.368822 40.0823 0.403595 40.1579C0.438367 40.2336 0.477742 40.2991 0.52172 40.3543C0.565697 40.4095 0.60814 40.4566 0.649049 40.4954C0.753367 40.5936 0.873026 40.6683 1.00803 40.7194C1.14303 40.7706 1.28621 40.7961 1.43757 40.7961L3.26007 40.8115ZM43.6634 50.5461C43.8046 50.5461 43.9452 50.5216 44.0853 50.4725C44.2254 50.4234 44.3517 50.3487 44.4642 50.2485C44.5767 50.1483 44.6677 50.021 44.7373 49.8665C44.8068 49.7121 44.8416 49.5295 44.8416 49.3188C44.8416 49.2513 44.837 49.1726 44.8278 49.0826C44.8186 48.9926 44.8063 48.9 44.791 48.8049C44.7756 48.7098 44.7593 48.6152 44.7419 48.5211C44.7245 48.427 44.7076 48.3416 44.6913 48.2649C44.6749 48.1882 44.6601 48.1233 44.6468 48.0701C44.6335 48.0169 44.6248 47.9832 44.6207 47.9689L43.8997 48.1867C43.9079 48.2174 43.9191 48.2608 43.9334 48.3171C43.9477 48.3733 43.9621 48.4357 43.9764 48.5042C43.9907 48.5728 44.0055 48.6454 44.0209 48.7221C44.0362 48.7988 44.05 48.874 44.0623 48.9476C44.0746 49.0212 44.0843 49.0903 44.0914 49.1547C44.0986 49.2191 44.1022 49.2738 44.1022 49.3188C44.1022 49.4273 44.0848 49.5127 44.05 49.575C44.0152 49.6374 43.9748 49.684 43.9288 49.7146C43.8828 49.7453 43.8368 49.7642 43.7908 49.7714C43.7447 49.7786 43.7094 49.7821 43.6849 49.7821H42.341V50.5461H43.6634ZM43.0191 52.0833L43.5407 51.5617L43.0191 51.034L42.4975 51.5556L43.0191 52.0833ZM44.3047 52.0894L44.8263 51.5678L44.3047 51.0401L43.7769 51.5617L44.3047 52.0894ZM43.6573 52.9117L44.1421 52.4269L43.6512 51.936L43.1664 52.4208L43.6573 52.9117ZM42.4638 50.5461V49.7821C42.2919 49.7821 42.1575 49.7735 42.0603 49.7561C41.9631 49.7387 41.8905 49.7029 41.8425 49.6487C41.7944 49.5945 41.7647 49.5183 41.7535 49.4201C41.7422 49.3219 41.7366 49.191 41.7366 49.0274V46.1218H40.9726V49.0274C40.9726 49.1992 40.9783 49.3562 40.9895 49.4983C41.0008 49.6405 41.0238 49.7678 41.0585 49.8803C41.0933 49.9928 41.1439 50.091 41.2104 50.1749C41.2769 50.2587 41.3654 50.3278 41.4758 50.382C41.5863 50.4362 41.7223 50.4771 41.8839 50.5047C42.0455 50.5323 42.2388 50.5461 42.4638 50.5461ZM38.2972 52.1937C38.5856 52.1937 38.8443 52.1508 39.0734 52.0649C39.3025 51.979 39.4979 51.8567 39.6594 51.6982C39.821 51.5397 39.9479 51.3474 40.0399 51.1214C40.132 50.8954 40.1841 50.6412 40.1964 50.359V48.426H39.4324V50.2945C39.4324 50.5011 39.4099 50.6765 39.3649 50.8207C39.3199 50.9649 39.2514 51.082 39.1593 51.172C39.0673 51.262 38.9497 51.3275 38.8065 51.3684C38.6633 51.4093 38.4935 51.4298 38.2972 51.4298H37.9167V52.1937H38.2972ZM33.6427 50.5461C33.788 50.5461 33.9291 50.5226 34.0662 50.4756C34.2032 50.4285 34.328 50.3528 34.4405 50.2485C34.6593 50.4428 34.9559 50.54 35.3302 50.54C35.4734 50.54 35.613 50.517 35.7491 50.471C35.8851 50.4249 36.0093 50.3498 36.1218 50.2454C36.3427 50.4459 36.6434 50.5461 37.0239 50.5461C37.165 50.5441 37.3051 50.5175 37.4442 50.4664C37.5833 50.4152 37.7081 50.338 37.8185 50.2347C37.929 50.1314 38.0185 50.0015 38.087 49.845C38.1555 49.6886 38.1898 49.506 38.1898 49.2974C38.1898 49.2299 38.1847 49.1516 38.1744 49.0627C38.1642 48.9737 38.1514 48.8827 38.1361 48.7896C38.1208 48.6965 38.1039 48.604 38.0855 48.5119C38.0671 48.4199 38.0492 48.336 38.0318 48.2603C38.0144 48.1846 37.9996 48.1212 37.9873 48.0701C37.975 48.019 37.9668 47.9862 37.9627 47.9719L37.2417 48.2082C37.2499 48.2389 37.2606 48.2808 37.2739 48.334C37.2872 48.3871 37.301 48.4465 37.3154 48.5119C37.3297 48.5774 37.344 48.6464 37.3583 48.719C37.3726 48.7916 37.3854 48.8632 37.3967 48.9338C37.4079 49.0044 37.4171 49.0714 37.4243 49.1348C37.4314 49.1982 37.435 49.2524 37.435 49.2974C37.435 49.4058 37.4187 49.4917 37.3859 49.5551C37.3532 49.6185 37.3143 49.6671 37.2693 49.7008C37.2243 49.7346 37.1788 49.7571 37.1328 49.7683C37.0868 49.7796 37.0505 49.7852 37.0239 49.7852C36.8418 49.7852 36.7104 49.7458 36.6296 49.6671C36.5488 49.5883 36.5084 49.4651 36.5084 49.2974V48.426H35.7475V49.2974C35.7475 49.4058 35.7301 49.4922 35.6954 49.5566C35.6606 49.6211 35.6202 49.6696 35.5742 49.7024C35.5281 49.7351 35.4821 49.7561 35.4361 49.7653C35.3901 49.7745 35.3548 49.7791 35.3302 49.7791C35.1502 49.7791 35.0209 49.7407 34.9421 49.664C34.8634 49.5873 34.824 49.4651 34.824 49.2974V48.426H34.06V49.3096C34.06 49.4201 34.0426 49.5065 34.0079 49.5689C33.9731 49.6313 33.9327 49.6783 33.8867 49.71C33.8406 49.7417 33.7946 49.7617 33.7486 49.7699C33.7026 49.7781 33.6673 49.7821 33.6427 49.7821H32.9524V50.5461H33.6427ZM30.8415 50.5461C31.0419 50.5461 31.2204 50.5236 31.3769 50.4786C31.5334 50.4336 31.6689 50.3631 31.7834 50.2669C31.8816 50.359 32.0023 50.4285 32.1455 50.4756C32.2887 50.5226 32.4472 50.5461 32.621 50.5461H33.0751V49.7821H32.621C32.6026 49.7821 32.5679 49.7796 32.5167 49.7745C32.4656 49.7694 32.4139 49.754 32.3618 49.7285C32.3096 49.7029 32.2631 49.664 32.2222 49.6119C32.1813 49.5597 32.1608 49.4876 32.1608 49.3956V48.4229H31.3999V49.417C31.3999 49.4579 31.3943 49.4999 31.383 49.5428C31.3718 49.5858 31.3472 49.6246 31.3094 49.6594C31.2716 49.6942 31.2153 49.7233 31.1406 49.7469C31.066 49.7704 30.9663 49.7821 30.8415 49.7821H29.7799V50.5461H30.8415ZM31.8479 52.2336L32.3694 51.712L31.8417 51.1843L31.3324 51.712L31.8479 52.2336ZM30.5623 52.2367L31.0808 51.7151L30.5531 51.1874L30.0468 51.7151L30.5623 52.2367ZM29.9026 50.5461V49.7821C29.7308 49.7821 29.5963 49.7735 29.4992 49.7561C29.402 49.7387 29.3294 49.7029 29.2813 49.6487C29.2333 49.5945 29.2036 49.5183 29.1923 49.4201C29.1811 49.3219 29.1755 49.191 29.1755 49.0274V46.1218H28.4115V49.0274C28.4115 49.1992 28.4171 49.3562 28.4284 49.4983C28.4396 49.6405 28.4626 49.7678 28.4974 49.8803C28.5322 49.9928 28.5828 50.091 28.6493 50.1749C28.7158 50.2587 28.8042 50.3278 28.9147 50.382C29.0251 50.4362 29.1612 50.4771 29.3227 50.5047C29.4843 50.5323 29.6776 50.5461 29.9026 50.5461ZM25.5796 48.7482L26.138 48.1898L25.5734 47.6252L25.0212 48.1836L25.5796 48.7482ZM25.7054 52.1968C26.3067 52.1968 26.7583 52.0546 27.06 51.7703C27.3617 51.486 27.5125 51.0585 27.5125 50.4878V48.4229H26.7485V50.4878C26.7485 50.629 26.7347 50.7578 26.7071 50.8744C26.6795 50.991 26.6279 51.0907 26.5522 51.1736C26.4765 51.2564 26.3706 51.3203 26.2346 51.3653C26.0986 51.4103 25.9222 51.4328 25.7054 51.4328H25.0825C24.8882 51.4328 24.7108 51.3894 24.5502 51.3024C24.3896 51.2155 24.2602 51.0994 24.1621 50.9542C24.1007 50.8519 24.0526 50.7369 24.0179 50.609C23.9831 50.4812 23.9657 50.3477 23.9657 50.2086C23.9657 50.1023 23.9723 50.0005 23.9856 49.9033C23.9989 49.8062 24.0209 49.7049 24.0516 49.5996C24.0823 49.4942 24.1222 49.3823 24.1713 49.2636C24.2204 49.145 24.2817 49.011 24.3554 48.8617L23.665 48.5334C23.5812 48.7073 23.5101 48.8668 23.4518 49.012C23.3935 49.1573 23.3464 49.2964 23.3106 49.4293C23.2748 49.5623 23.2488 49.6922 23.2324 49.819C23.216 49.9458 23.2079 50.0767 23.2079 50.2117C23.2079 50.4244 23.2344 50.6285 23.2876 50.8238C23.3408 51.0191 23.4165 51.1966 23.5147 51.3561C23.5985 51.487 23.6972 51.6046 23.8108 51.709C23.9243 51.8133 24.048 51.9012 24.182 51.9728C24.316 52.0444 24.4587 52.0996 24.61 52.1385C24.7614 52.1774 24.9189 52.1968 25.0825 52.1968H25.7054Z" fill="#3F6FC8"/>
<path fill-rule="evenodd" clip-rule="evenodd" d="M50.0639 14.9234C53.3868 14.8801 56.7096 14.8801 60.0331 14.9187C57.0123 18.6514 53.5697 22.088 49.573 24.7729C48.3636 25.5818 47.1076 26.3202 45.8037 26.9655C44.1473 27.7791 42.425 28.4702 40.6355 28.9279C38.6717 29.4475 36.6308 29.828 34.5925 29.6251C32.8024 29.4535 31.1 28.7257 29.6285 27.7112C28.0626 26.6255 26.7507 25.1886 25.7622 23.5621C25.514 23.1437 25.2699 22.7206 25.0757 22.2729C26.5591 23.2588 28.0672 24.2327 29.723 24.9066C30.9523 25.4095 32.2642 25.7461 33.598 25.7627C34.524 25.7814 35.4407 25.615 36.3388 25.4102C38.6292 24.88 40.7832 23.8475 42.7104 22.5137C45.6281 20.4927 48.0449 17.8251 50.0639 14.9234ZM33.298 7.15741C31.8863 7.28713 30.4947 7.76876 29.3425 8.6023C27.847 9.67067 26.7248 11.2619 26.2664 13.0447C25.691 15.1037 26.0948 17.3761 27.221 19.1776C27.998 20.4355 29.1496 21.4513 30.4774 22.0966C32.4498 23.0426 34.8234 23.1144 36.849 22.2842C38.3032 21.6808 39.5844 20.6451 40.4333 19.3133C41.6028 17.5105 42.0405 15.2207 41.5056 13.1286C41.2954 12.3542 41.0087 11.5932 40.581 10.9107C39.0742 8.46793 36.1698 6.93522 33.298 7.15741ZM32.2935 5.9214C34.8599 5.67926 37.4896 6.13428 39.8233 7.22859C41.2282 7.89449 42.5275 8.7746 43.7023 9.79041C45.3381 11.2114 46.7278 12.915 47.7881 14.8056C47.8407 14.8682 47.8074 14.9453 47.7728 15.0072C46.0991 18.1099 43.6244 20.8273 40.5298 22.5523C38.8926 23.4803 37.0459 24.0258 35.1706 24.1702C32.8396 24.3558 30.4654 23.948 28.3293 23C26.6436 22.2649 25.0896 21.2471 23.6979 20.0484C22.1227 18.6913 20.751 17.108 19.5675 15.4003C21.2033 12.295 23.5928 9.52166 26.6469 7.74614C28.3672 6.73565 30.3057 6.10102 32.2935 5.9214ZM28.5043 0.684665C29.6811 0.445845 30.8778 0.292176 32.0793 0.250255C34.2187 0.24694 36.3135 1.00997 38.0591 2.22469C40.0368 3.60372 41.6301 5.51228 42.6978 7.66964C41.1611 6.71902 39.641 5.71784 37.9653 5.02533C36.8031 4.5437 35.5631 4.21773 34.3011 4.18979C33.3718 4.1858 32.4465 4.32084 31.5384 4.51243C29.6977 4.91224 27.9382 5.64866 26.3176 6.6046C24.5401 7.65235 22.9203 8.95754 21.4741 10.427C20.0897 11.8254 18.8244 13.3454 17.7281 14.9806C14.4033 15.097 11.0744 15.109 7.75024 15.0012C9.78919 12.4281 12.0576 10.0292 14.5636 7.90381C16.2446 6.48087 18.0361 5.18499 19.9347 4.06739C22.585 2.49211 25.4795 1.30533 28.5043 0.684665Z" fill="#213F76"/>
<path fill-rule="evenodd" clip-rule="evenodd" d="M32.7191 10.8545C31.2855 11.1997 30.1919 12.4031 29.675 13.7456C32.3572 13.8673 35.0421 13.7729 37.7257 13.7975C37.4363 12.5369 36.4604 11.4891 35.2623 11.0274C34.4594 10.7035 33.5606 10.6868 32.7191 10.8545ZM29.2818 9.84066C31.6567 7.91613 35.3016 7.83896 37.7989 9.57789C38.5579 10.1081 39.1892 10.8179 39.6569 11.6162C40.4432 13.0245 40.5563 14.6862 40.517 16.2675C36.8955 16.2848 33.2746 16.2409 29.653 16.2934C30.0322 17.286 30.7128 18.1674 31.6009 18.7555C32.3739 19.2697 33.3192 19.5425 34.2478 19.4467C35.4925 19.3116 36.5369 18.5227 37.3997 17.6692C38.4042 17.6266 39.4127 17.6459 40.4179 17.6379C39.6309 19.122 38.4022 20.386 36.8915 21.1344C35.9914 21.5841 34.9869 21.8255 33.9804 21.8229C31.1711 21.9486 28.3645 20.1917 27.3041 17.5774C26.5983 15.7014 26.6954 13.5108 27.6647 11.7432C28.0645 11.0048 28.6439 10.3795 29.2818 9.84066Z" fill="#EB7329"/>
</svg>
