<svg width="92" height="92" viewBox="0 0 92 92" fill="none" xmlns="http://www.w3.org/2000/svg">
<path d="M91 1H1V91H91V1Z" stroke="#55A2E7" stroke-opacity="0.595597"/>
<path d="M77.6516 60.9328L78.1425 60.4419L77.6577 59.9571L77.1668 60.448L77.6516 60.9328ZM78.3051 61.8287L78.8205 61.3071L78.2959 60.7855L77.7681 61.3132L78.3051 61.8287ZM76.9827 61.8471L77.5043 61.3194L76.9827 60.7978L76.4611 61.3255L76.9827 61.8471ZM75.1234 64.7956C75.2686 64.7956 75.4097 64.7721 75.5468 64.7251C75.6838 64.678 75.8086 64.6023 75.9211 64.498C76.14 64.6923 76.4366 64.7895 76.8109 64.7895C76.954 64.7895 77.0937 64.7665 77.2297 64.7205C77.3657 64.6744 77.49 64.5993 77.6025 64.495C77.8234 64.6954 78.124 64.7956 78.5045 64.7956C78.6456 64.7936 78.7858 64.767 78.9248 64.7159C79.0639 64.6647 79.1887 64.5875 79.2992 64.4842C79.4096 64.3809 79.4991 64.251 79.5676 64.0946C79.6362 63.9381 79.6704 63.7555 79.6704 63.5469C79.6704 63.4794 79.6653 63.4011 79.6551 63.3122C79.6448 63.2232 79.6321 63.1322 79.6167 63.0391C79.6014 62.946 79.5845 62.8535 79.5661 62.7614C79.5477 62.6694 79.5298 62.5855 79.5124 62.5098C79.495 62.4342 79.4802 62.3707 79.4679 62.3196C79.4556 62.2685 79.4475 62.2357 79.4434 62.2214L78.7224 62.4577C78.7305 62.4884 78.7413 62.5303 78.7546 62.5835C78.7679 62.6367 78.7817 62.696 78.796 62.7614C78.8103 62.8269 78.8246 62.8959 78.8389 62.9685C78.8533 63.0411 78.866 63.1127 78.8773 63.1833C78.8885 63.2539 78.8977 63.3209 78.9049 63.3843C78.9121 63.4477 78.9156 63.5019 78.9156 63.5469C78.9156 63.6553 78.8993 63.7412 78.8665 63.8046C78.8338 63.868 78.795 63.9166 78.75 63.9504C78.705 63.9841 78.6595 64.0066 78.6134 64.0179C78.5674 64.0291 78.5311 64.0347 78.5045 64.0347C78.3225 64.0347 78.191 63.9954 78.1102 63.9166C78.0294 63.8379 77.9891 63.7146 77.9891 63.5469V62.6755H77.2281V63.5469C77.2281 63.6553 77.2108 63.7417 77.176 63.8061C77.1412 63.8706 77.1008 63.9192 77.0548 63.9519C77.0088 63.9846 76.9627 64.0056 76.9167 64.0148C76.8707 64.024 76.8354 64.0286 76.8109 64.0286C76.6309 64.0286 76.5015 63.9902 76.4227 63.9135C76.344 63.8368 76.3046 63.7146 76.3046 63.5469V62.6755H75.5406V63.5592C75.5406 63.6696 75.5233 63.756 75.4885 63.8184C75.4537 63.8808 75.4133 63.9279 75.3673 63.9596C75.3213 63.9913 75.2752 64.0112 75.2292 64.0194C75.1832 64.0276 75.1479 64.0317 75.1234 64.0317H74.433V64.7956H75.1234ZM72.0889 66.4432C72.3671 66.4432 72.6177 66.4013 72.8406 66.3175C73.0636 66.2336 73.2554 66.1155 73.4159 65.9631C73.5765 65.8107 73.7048 65.6271 73.801 65.4123C73.8971 65.1976 73.9575 64.9582 73.982 64.6944C74.0536 64.7414 74.1267 64.7701 74.2014 64.7803C74.276 64.7905 74.3553 64.7956 74.4392 64.7956H74.5558V64.0317H74.4392C74.4208 64.0317 74.387 64.0265 74.3379 64.0163C74.2888 64.0061 74.2382 63.9851 74.186 63.9534C74.1339 63.9217 74.0879 63.8772 74.048 63.82C74.0081 63.7627 73.9881 63.687 73.9881 63.5929V62.6755H73.2242V64.544C73.2242 64.7506 73.2017 64.926 73.1567 65.0702C73.1117 65.2144 73.0431 65.3315 72.9511 65.4215C72.8591 65.5115 72.7414 65.577 72.5983 65.6179C72.4551 65.6588 72.2853 65.6793 72.0889 65.6793H71.7054V66.4432H72.0889ZM70.6285 64.7956C70.8248 64.7956 70.9921 64.7752 71.1301 64.7343C71.2682 64.6934 71.3827 64.6433 71.4738 64.5839C71.5648 64.5246 71.6359 64.4602 71.687 64.3906C71.7381 64.3211 71.776 64.2587 71.8005 64.2035C71.8189 64.1605 71.8358 64.1084 71.8512 64.047C71.8665 63.9856 71.8742 63.914 71.8742 63.8322C71.8742 63.7668 71.867 63.6942 71.8527 63.6144C71.8384 63.5346 71.8138 63.4518 71.7791 63.3659C71.7402 63.2677 71.686 63.1634 71.6164 63.0529C71.5469 62.9425 71.4676 62.8294 71.3787 62.7139C71.2897 62.5983 71.1946 62.4827 71.0933 62.3672C70.9921 62.2516 70.8903 62.1401 70.788 62.0327C70.6858 61.9254 70.586 61.8236 70.4889 61.7275C70.3917 61.6313 70.3043 61.5454 70.2266 61.4697L72.4725 60.4787L72.1933 59.8098L69.5239 61.031L69.4626 61.7244C69.5301 61.7735 69.6201 61.8471 69.7326 61.9453C69.8451 62.0435 69.9652 62.1565 70.0931 62.2843C70.2209 62.4122 70.3498 62.5482 70.4797 62.6924C70.6096 62.8366 70.7267 62.9793 70.831 63.1204C70.9353 63.2615 71.0207 63.3945 71.0872 63.5193C71.1537 63.644 71.1869 63.7504 71.1869 63.8384C71.1869 63.8834 71.167 63.9186 71.1271 63.9442C71.0872 63.9698 71.0396 63.9892 70.9844 64.0025C70.9292 64.0158 70.8729 64.024 70.8156 64.0271C70.7584 64.0301 70.7134 64.0317 70.6806 64.0317H68.8858V64.7956H70.6285ZM65.9403 62.4178L66.4619 61.8962L65.9342 61.3685L65.4248 61.8962L65.9403 62.4178ZM64.6547 62.4209L65.1733 61.8993L64.6455 61.3715L64.1393 61.8993L64.6547 62.4209ZM67.0326 64.7956C67.4151 64.7936 67.7178 64.6995 67.9408 64.5134C67.998 64.5665 68.0635 64.6115 68.1371 64.6484C68.2108 64.6852 68.2869 64.7143 68.3657 64.7358C68.4444 64.7573 68.5232 64.7726 68.6019 64.7818C68.6807 64.791 68.7548 64.7956 68.8244 64.7956H69.0146V64.0317H68.8244C68.8101 64.0317 68.7881 64.0301 68.7584 64.0271C68.7288 64.024 68.6945 64.0173 68.6556 64.0071C68.6168 63.9969 68.5769 63.9821 68.536 63.9626C68.4951 63.9432 68.4577 63.9166 68.424 63.8829C68.3902 63.8491 68.3626 63.8072 68.3412 63.7571C68.3197 63.7069 68.3089 63.6461 68.3089 63.5745V62.6755H67.548V63.685C67.548 63.7852 67.5245 63.8619 67.4775 63.9151C67.4386 63.956 67.3793 63.9872 67.2995 64.0086C67.2197 64.0301 67.1236 64.0409 67.0111 64.0409H63.498C63.4612 64.0409 63.4193 64.0357 63.3722 64.0255C63.3252 64.0153 63.2817 63.9943 63.2418 63.9626C63.2019 63.9309 63.1682 63.8849 63.1406 63.8246C63.113 63.7642 63.0992 63.685 63.0992 63.5868C63.0992 63.5315 63.1053 63.4661 63.1176 63.3904C63.1298 63.3147 63.1452 63.236 63.1636 63.1542C63.182 63.0723 63.2014 62.9931 63.2219 62.9164C63.2423 62.8397 63.2618 62.7737 63.2802 62.7185L62.9181 62.605L62.553 62.4884C62.5469 62.5068 62.5326 62.5548 62.5101 62.6326C62.4876 62.7103 62.4635 62.8023 62.438 62.9087C62.4124 63.0151 62.3894 63.1281 62.3689 63.2477C62.3485 63.3674 62.3383 63.4784 62.3383 63.5806C62.3383 63.6993 62.3495 63.8061 62.372 63.9013C62.3945 63.9964 62.4231 64.0818 62.4579 64.1575C62.4927 64.2331 62.5321 64.2986 62.576 64.3538C62.62 64.409 62.6625 64.4561 62.7034 64.495C62.8077 64.5931 62.9273 64.6678 63.0623 64.7189C63.1973 64.7701 63.3405 64.7956 63.4919 64.7956H67.0326ZM59.718 61.6201L60.2396 61.0985L59.7119 60.5708L59.2026 61.0985L59.718 61.6201ZM58.4325 61.6231L58.951 61.1015L58.4233 60.5738L57.917 61.1015L58.4325 61.6231ZM59.0492 64.7956C59.1903 64.7956 59.3309 64.7711 59.471 64.722C59.6112 64.6729 59.7375 64.5982 59.85 64.498C59.9625 64.3978 60.0535 64.2705 60.123 64.116C60.1926 63.9616 60.2273 63.779 60.2273 63.5684C60.2273 63.5009 60.2227 63.4221 60.2135 63.3321C60.2043 63.2421 60.1921 63.1496 60.1767 63.0544C60.1614 62.9593 60.145 62.8647 60.1276 62.7706C60.1102 62.6765 60.0934 62.5911 60.077 62.5144C60.0606 62.4377 60.0458 62.3728 60.0325 62.3196C60.0192 62.2664 60.0105 62.2327 60.0064 62.2184L59.2854 62.4362C59.2936 62.4669 59.3048 62.5104 59.3192 62.5666C59.3335 62.6229 59.3478 62.6852 59.3621 62.7538C59.3764 62.8223 59.3913 62.8949 59.4066 62.9716C59.422 63.0483 59.4358 63.1235 59.448 63.1971C59.4603 63.2708 59.47 63.3398 59.4772 63.4042C59.4843 63.4686 59.4879 63.5234 59.4879 63.5684C59.4879 63.6768 59.4705 63.7622 59.4358 63.8246C59.401 63.8869 59.3606 63.9335 59.3146 63.9642C59.2685 63.9948 59.2225 64.0138 59.1765 64.0209C59.1305 64.0281 59.0952 64.0317 59.0706 64.0317H57.7268V64.7956H59.0492ZM53.8701 64.7956C54.0787 64.7956 54.2873 64.7772 54.496 64.7404C54.7046 64.7036 54.9081 64.6555 55.1066 64.5962C55.305 64.5369 55.4952 64.4689 55.6772 64.3922C55.8593 64.3155 56.029 64.2382 56.1866 64.1605C56.295 64.3712 56.4458 64.5292 56.6391 64.6346C56.8324 64.7399 57.0508 64.7936 57.2942 64.7956H57.8556V64.0317L57.2739 64.0313C57.2577 64.0309 57.2364 64.03 57.2098 64.0286C57.1699 64.0265 57.1275 64.0179 57.0825 64.0025C57.0375 63.9872 56.9935 63.9626 56.9505 63.9289C56.9076 63.8951 56.8759 63.8476 56.8554 63.7862C56.9495 63.7269 57.0242 63.6783 57.0794 63.6405C57.0932 63.631 57.1056 63.6225 57.1166 63.6151L57.1657 63.5821L57.1776 63.5745L57.0886 62.9547C57.0681 62.9486 57.0211 62.9322 56.9475 62.9056C56.8738 62.879 56.7828 62.8458 56.6744 62.8059C56.566 62.766 56.4443 62.7215 56.3093 62.6725C56.1743 62.6234 56.0352 62.5733 55.892 62.5221C55.7488 62.471 55.6062 62.4219 55.464 62.3748C55.3218 62.3278 55.1884 62.2859 55.0636 62.249C54.9388 62.2122 54.8273 62.1826 54.7292 62.1601C54.631 62.1376 54.5553 62.1263 54.5021 62.1263C54.3651 62.1263 54.2434 62.1493 54.137 62.1954C54.0306 62.2414 53.9371 62.3043 53.8563 62.384C53.7755 62.4638 53.707 62.5574 53.6507 62.6648C53.5944 62.7722 53.5469 62.8872 53.508 63.01L54.2106 63.2217C54.2372 63.1644 54.2628 63.1153 54.2873 63.0744C54.3119 63.0335 54.3385 63.0002 54.3671 62.9747C54.3958 62.9491 54.428 62.9307 54.4638 62.9194C54.4996 62.9082 54.541 62.9026 54.588 62.9026C54.633 62.9026 54.6944 62.9097 54.7721 62.924C54.8498 62.9384 54.9378 62.9578 55.036 62.9823C55.1342 63.0069 55.2395 63.035 55.352 63.0667C55.4645 63.0984 55.578 63.1311 55.6926 63.1649C55.8071 63.1986 55.9196 63.2324 56.0301 63.2661C56.1405 63.2999 56.2418 63.3311 56.3338 63.3597C56.1866 63.4375 56.0132 63.5162 55.8138 63.596C55.6143 63.6757 55.4042 63.7479 55.1833 63.8123C54.9623 63.8767 54.7384 63.9294 54.5113 63.9703C54.2843 64.0112 54.0705 64.0317 53.8701 64.0317H52.9558V64.7956H53.8701ZM55.1434 66.4126L55.7018 65.8542L55.1372 65.2896L54.585 65.848L55.1434 66.4126ZM53.0846 64.7956V64.0317C52.9128 64.0317 52.7783 64.023 52.6812 64.0056C52.584 63.9882 52.5114 63.9524 52.4633 63.8982C52.4152 63.844 52.3856 63.7678 52.3743 63.6696C52.3631 63.5714 52.3575 63.4405 52.3575 63.2769V60.3713H51.5935V63.2769C51.5935 63.4487 51.5991 63.6057 51.6104 63.7479C51.6216 63.89 51.6446 64.0173 51.6794 64.1298C51.7142 64.2423 51.7648 64.3405 51.8313 64.4244C51.8977 64.5082 51.9862 64.5773 52.0967 64.6315C52.2071 64.6857 52.3431 64.7266 52.5047 64.7542C52.6663 64.7818 52.8596 64.7956 53.0846 64.7956ZM48.918 66.4432C49.2064 66.4432 49.4652 66.4003 49.6943 66.3144C49.9234 66.2285 50.1187 66.1063 50.2803 65.9477C50.4419 65.7892 50.5687 65.5969 50.6608 65.3709C50.7528 65.1449 50.805 64.8908 50.8172 64.6085V62.6755H50.0533V64.544C50.0533 64.7506 50.0308 64.926 49.9858 65.0702C49.9408 65.2144 49.8722 65.3315 49.7802 65.4215C49.6881 65.5115 49.5705 65.577 49.4273 65.6179C49.2842 65.6588 49.1144 65.6793 48.918 65.6793H48.5376V66.4432H48.918ZM46.5617 62.4178L47.0833 61.8962L46.5555 61.3685L46.0462 61.8962L46.5617 62.4178ZM45.2761 62.4209L45.7946 61.8993L45.2669 61.3715L44.7606 61.8993L45.2761 62.4209ZM47.7276 64.7956C47.8687 64.7956 48.0093 64.7711 48.1494 64.722C48.2896 64.6729 48.4159 64.5982 48.5284 64.498C48.6409 64.3978 48.7319 64.2705 48.8014 64.116C48.871 63.9616 48.9058 63.779 48.9058 63.5684C48.9058 63.5009 48.9012 63.4221 48.8919 63.3321C48.8827 63.2421 48.8705 63.1496 48.8551 63.0544C48.8398 62.9593 48.8234 62.8647 48.806 62.7706C48.7887 62.6765 48.7718 62.5906 48.7554 62.5129C48.7534 62.5047 48.7513 62.4955 48.7493 62.4853L48.0252 62.6755C48.0293 62.7001 48.0344 62.7256 48.0405 62.7522C48.0548 62.8218 48.0697 62.8949 48.085 62.9716C48.1004 63.0483 48.1142 63.1235 48.1264 63.1971C48.1387 63.2708 48.1484 63.3398 48.1556 63.4042C48.1627 63.4686 48.1663 63.5234 48.1663 63.5684C48.1663 63.6768 48.1489 63.7622 48.1142 63.8246C48.0794 63.8869 48.039 63.9335 47.993 63.9642C47.9469 63.9948 47.9009 64.0138 47.8549 64.0209C47.8089 64.0281 47.7736 64.0317 47.7491 64.0317H44.0918C44.0386 64.0317 43.9926 64.0276 43.9537 64.0194C43.9148 64.0112 43.8755 63.9913 43.8356 63.9596C43.7957 63.9279 43.7619 63.8818 43.7343 63.8215C43.7067 63.7611 43.6929 63.6819 43.6929 63.5837C43.6929 63.5285 43.6991 63.463 43.7113 63.3873C43.7236 63.3117 43.7389 63.2334 43.7573 63.1526C43.7758 63.0718 43.7952 62.9931 43.8156 62.9164C43.8361 62.8397 43.8555 62.7737 43.8739 62.7185L43.5119 62.605L43.1468 62.4884C43.1406 62.5068 43.1263 62.5548 43.1038 62.6326C43.0813 62.7103 43.0573 62.8023 43.0317 62.9087C43.0062 63.0151 42.9831 63.1281 42.9627 63.2477C42.9422 63.3674 42.932 63.4784 42.932 63.5806C42.932 63.6993 42.9433 63.8061 42.9658 63.9013C42.9883 63.9964 43.0169 64.0818 43.0517 64.1575C43.0864 64.2331 43.1258 64.2986 43.1698 64.3538C43.2138 64.409 43.2562 64.4561 43.2971 64.495C43.4014 64.5931 43.5211 64.6678 43.6561 64.7189C43.7911 64.7701 43.9343 64.7956 44.0856 64.7956H47.7276ZM40.5051 64.7956V60.3713H39.7411V64.7956H40.5051ZM37.1331 64.7956C37.2906 64.7956 37.4328 64.7885 37.5596 64.7742C37.6864 64.7598 37.8005 64.7384 37.9017 64.7097C38.003 64.6811 38.0935 64.6448 38.1733 64.6008C38.253 64.5568 38.3246 64.5052 38.388 64.4459C38.4596 64.3763 38.5169 64.3022 38.5598 64.2234C38.6028 64.1447 38.6355 64.0644 38.658 63.9826C38.6805 63.9008 38.6954 63.82 38.7025 63.7402C38.7097 63.6604 38.7133 63.5837 38.7133 63.5101V60.3713H37.9523V63.5101C37.9523 63.6123 37.9447 63.6936 37.9293 63.754C37.914 63.8143 37.89 63.8588 37.8572 63.8875C37.8102 63.9345 37.7289 63.9703 37.6133 63.9948C37.4977 64.0194 37.3377 64.0317 37.1331 64.0317V64.7956ZM34.3227 64.7956C34.4556 64.7956 34.5896 64.7854 34.7246 64.765C34.8821 64.7425 35.0299 64.7036 35.168 64.6484C35.306 64.5931 35.4288 64.5205 35.5362 64.4305C35.6435 64.3405 35.7218 64.2311 35.7709 64.1022C35.8629 64.2065 35.9534 64.3011 36.0424 64.386C36.1314 64.4709 36.229 64.5435 36.3354 64.6039C36.4418 64.6642 36.5614 64.7113 36.6944 64.745C36.8273 64.7788 36.9838 64.7956 37.1638 64.7956H37.2559V64.0317H37.1638C37.0329 64.0317 36.9153 64.0107 36.811 63.9688C36.7067 63.9268 36.6069 63.866 36.5118 63.7862C36.4167 63.7064 36.3221 63.6088 36.228 63.4932C36.1339 63.3776 36.0306 63.2452 35.9181 63.0959C35.7259 62.8381 35.5341 62.5819 35.3429 62.3273L35.0556 61.9441L34.7676 61.5587L37.0963 60.4818L36.7834 59.7822L34.1202 61.0739L33.9913 61.6968C34.1447 61.887 34.2966 62.0747 34.4469 62.2598C34.5973 62.4449 34.7323 62.6203 34.8519 62.786C34.9716 62.9517 35.0688 63.102 35.1434 63.237C35.2181 63.372 35.2554 63.4835 35.2554 63.5714C35.2493 63.6573 35.2217 63.73 35.1726 63.7893C35.1235 63.8486 35.057 63.8961 34.9731 63.9319C34.8893 63.9677 34.7901 63.9933 34.6755 64.0086C34.561 64.024 34.4362 64.0317 34.3012 64.0317H33.301V64.7956H34.3227ZM32.3836 61.8809L32.9052 61.3593L32.3775 60.8315L31.8681 61.3593L32.3836 61.8809ZM31.098 61.8839L31.6165 61.3623L31.0888 60.8346L30.5826 61.3623L31.098 61.8839ZM31.1901 64.7956C31.3905 64.7956 31.569 64.7731 31.7255 64.7281C31.8819 64.6831 32.0175 64.6126 32.132 64.5164C32.2302 64.6085 32.3509 64.678 32.494 64.7251C32.6372 64.7721 32.7958 64.7956 32.9696 64.7956H33.4237V64.0317H32.9696C32.9512 64.0317 32.9164 64.0291 32.8653 64.024C32.8142 64.0189 32.7625 64.0035 32.7104 63.978C32.6582 63.9524 32.6117 63.9135 32.5708 63.8614C32.5298 63.8092 32.5094 63.7371 32.5094 63.6451V62.6725H31.7485V63.6665C31.7485 63.7075 31.7429 63.7494 31.7316 63.7923C31.7204 63.8353 31.6958 63.8742 31.658 63.9089C31.6201 63.9437 31.5639 63.9729 31.4892 63.9964C31.4146 64.0199 31.3148 64.0317 31.1901 64.0317H30.1285V64.7956H31.1901ZM27.7844 66.4432C28.0626 66.4432 28.3131 66.4013 28.5361 66.3175C28.7591 66.2336 28.9508 66.1155 29.1114 65.9631C29.2719 65.8107 29.4003 65.6271 29.4964 65.4123C29.5926 65.1976 29.6529 64.9582 29.6775 64.6944C29.7491 64.7414 29.8222 64.7701 29.8968 64.7803C29.9715 64.7905 30.0508 64.7956 30.1346 64.7956H30.2512V64.0317H30.1346C30.1162 64.0317 30.0825 64.0265 30.0334 64.0163C29.9843 64.0061 29.9337 63.9851 29.8815 63.9534C29.8293 63.9217 29.7833 63.8772 29.7434 63.82C29.7035 63.7627 29.6836 63.687 29.6836 63.5929V62.6755H28.9196V64.544C28.9196 64.7506 28.8971 64.926 28.8521 65.0702C28.8071 65.2144 28.7386 65.3315 28.6465 65.4215C28.5545 65.5115 28.4369 65.577 28.2937 65.6179C28.1505 65.6588 27.9808 65.6793 27.7844 65.6793H27.4009V66.4432H27.7844ZM24.8052 66.4432C25.0179 66.4432 25.2087 66.4346 25.3774 66.4172C25.5462 66.3998 25.699 66.3727 25.8361 66.3359C25.9731 66.299 26.0969 66.2535 26.2073 66.1993C26.3178 66.1451 26.4201 66.0812 26.5142 66.0076C26.7023 65.8583 26.8425 65.6798 26.9345 65.4722C27.0265 65.2646 27.0726 65.0084 27.0726 64.7036V63.6144C27.0726 63.3976 27.049 63.1966 27.002 63.0115C26.955 62.8264 26.8808 62.6663 26.7796 62.5313C26.6783 62.3963 26.5484 62.2905 26.3899 62.2138C26.2314 62.1371 26.0406 62.0987 25.8177 62.0987C25.6377 62.0987 25.47 62.1319 25.3145 62.1984C25.159 62.2649 25.02 62.3595 24.8972 62.4822C24.8543 62.5293 24.8093 62.584 24.7622 62.6464C24.7152 62.7088 24.6727 62.7819 24.6349 62.8658C24.5971 62.9496 24.5659 63.0463 24.5413 63.1557C24.5168 63.2651 24.5045 63.3904 24.5045 63.5315C24.5045 63.6952 24.5234 63.8404 24.5613 63.9672C24.5991 64.094 24.6502 64.204 24.7147 64.2971C24.7791 64.3901 24.8548 64.4684 24.9417 64.5318C25.0287 64.5952 25.1212 64.6468 25.2194 64.6867C25.3176 64.7266 25.4198 64.7547 25.5262 64.7711C25.6326 64.7875 25.7369 64.7956 25.8392 64.7956H26.3117C26.3035 64.9511 26.2774 65.0748 26.2334 65.1669C26.1894 65.2589 26.1245 65.3397 26.0386 65.4093C25.9834 65.4563 25.9184 65.4967 25.8438 65.5305C25.7691 65.5642 25.6822 65.5918 25.583 65.6133C25.4838 65.6348 25.3702 65.6511 25.2424 65.6624C25.1146 65.6736 24.9688 65.6793 24.8052 65.6793V66.4432ZM26.3117 64.0317H25.8392C25.7696 64.0317 25.7001 64.0225 25.6305 64.004C25.561 63.9856 25.4981 63.9565 25.4418 63.9166C25.3856 63.8767 25.3396 63.8251 25.3038 63.7617C25.268 63.6982 25.2501 63.6215 25.2501 63.5315C25.2501 63.3025 25.3012 63.1337 25.4035 63.0253C25.5058 62.9169 25.6438 62.8627 25.8177 62.8627C25.8381 62.8627 25.8647 62.8652 25.8975 62.8704C25.9302 62.8755 25.9644 62.8862 26.0002 62.9026C26.036 62.9189 26.0729 62.9435 26.1107 62.9762C26.1485 63.0089 26.1823 63.0529 26.2119 63.1081C26.2416 63.1634 26.2656 63.2324 26.284 63.3152C26.3025 63.3981 26.3117 63.4978 26.3117 63.6144V64.0317ZM23.0103 61.5495L23.5687 60.9911L23.0042 60.4265L22.4519 60.985L23.0103 61.5495ZM22.6452 64.7956C22.7863 64.7956 22.9269 64.7711 23.0671 64.722C23.2072 64.6729 23.3335 64.5982 23.446 64.498C23.5585 64.3978 23.6495 64.2705 23.719 64.116C23.7886 63.9616 23.8234 63.779 23.8234 63.5684C23.8234 63.5009 23.8188 63.4221 23.8096 63.3321C23.8004 63.2421 23.7881 63.1496 23.7727 63.0544C23.7574 62.9593 23.741 62.8647 23.7237 62.7706C23.7063 62.6765 23.6894 62.5911 23.673 62.5144C23.6567 62.4377 23.6418 62.3728 23.6285 62.3196C23.6152 62.2664 23.6065 62.2327 23.6025 62.2184L22.8814 62.4362C22.8896 62.4669 22.9009 62.5104 22.9152 62.5666C22.9295 62.6229 22.9438 62.6852 22.9581 62.7538C22.9725 62.8223 22.9873 62.8949 23.0026 62.9716C23.018 63.0483 23.0318 63.1235 23.044 63.1971C23.0563 63.2708 23.066 63.3398 23.0732 63.4042C23.0804 63.4686 23.0839 63.5234 23.0839 63.5684C23.0839 63.6768 23.0665 63.7622 23.0318 63.8246C22.997 63.8869 22.9566 63.9335 22.9106 63.9642C22.8646 63.9948 22.8185 64.0138 22.7725 64.0209C22.7265 64.0281 22.6912 64.0317 22.6667 64.0317H21.829V64.7956H22.6452ZM19.7181 64.7956C19.9186 64.7956 20.0971 64.7731 20.2535 64.7281C20.41 64.6831 20.5455 64.6126 20.6601 64.5164C20.7583 64.6085 20.8789 64.678 21.0221 64.7251C21.1653 64.7721 21.3238 64.7956 21.4977 64.7956H21.9518V64.0317H21.4977C21.4793 64.0317 21.4445 64.0291 21.3934 64.024C21.3422 64.0189 21.2906 64.0035 21.2384 63.978C21.1863 63.9524 21.1397 63.9135 21.0988 63.8614C21.0579 63.8092 21.0375 63.7371 21.0375 63.6451V62.6725H20.2765V63.6665C20.2765 63.7075 20.2709 63.7494 20.2597 63.7923C20.2484 63.8353 20.2239 63.8742 20.186 63.9089C20.1482 63.9437 20.0919 63.9729 20.0173 63.9964C19.9426 64.0199 19.8429 64.0317 19.7181 64.0317H18.6565V64.7956H19.7181ZM20.7245 66.4831L21.2461 65.9615L20.7184 65.4338L20.209 65.9615L20.7245 66.4831ZM19.4389 66.4862L19.9575 65.9646L19.4297 65.4369L18.9235 65.9646L19.4389 66.4862ZM15.2601 64.811C15.4892 64.811 15.708 64.8069 15.9167 64.7987C16.1253 64.7905 16.3171 64.765 16.4919 64.722C16.6668 64.679 16.8228 64.6115 16.9598 64.5195C17.0969 64.4275 17.2073 64.2976 17.2912 64.1298C17.3812 64.2321 17.4733 64.3242 17.5673 64.406C17.6614 64.4878 17.7642 64.5573 17.8757 64.6146C17.9872 64.6719 18.1114 64.7164 18.2485 64.7481C18.3855 64.7798 18.542 64.7956 18.7179 64.7956H18.7762V64.0317H18.7179C18.6177 64.0317 18.5272 64.025 18.4464 64.0117C18.3656 63.9984 18.2889 63.9759 18.2163 63.9442C18.1437 63.9125 18.0731 63.8696 18.0046 63.8154C17.936 63.7611 17.8639 63.6926 17.7883 63.6098C17.7126 63.5269 17.6302 63.4277 17.5413 63.3122C17.4523 63.1966 17.3515 63.0621 17.239 62.9087L16.2971 61.6323L18.7118 60.5247L18.3988 59.8252L15.662 61.1138L15.4994 61.7735C15.5648 61.8533 15.6436 61.9514 15.7356 62.068C15.8134 62.1683 15.9105 62.2951 16.0271 62.4485C16.1437 62.6019 16.2797 62.786 16.4352 63.0007C16.474 63.056 16.5109 63.1117 16.5456 63.168C16.5804 63.2242 16.6106 63.2794 16.6362 63.3336C16.6617 63.3879 16.6822 63.4395 16.6975 63.4886C16.7129 63.5377 16.7205 63.5817 16.7205 63.6205C16.7205 63.6451 16.7185 63.6706 16.7144 63.6972C16.7103 63.7238 16.7031 63.7453 16.6929 63.7617C16.6643 63.8067 16.6162 63.8471 16.5487 63.8829C16.4812 63.9186 16.3892 63.9488 16.2726 63.9734C16.156 63.9979 16.0143 64.0168 15.8476 64.0301C15.6809 64.0434 15.4861 64.0501 15.2631 64.0501L13.4437 64.0378C13.4069 64.0378 13.365 64.0327 13.3179 64.0225C13.2709 64.0122 13.2274 63.9913 13.1875 63.9596C13.1476 63.9279 13.1139 63.8818 13.0863 63.8215C13.0587 63.7611 13.0448 63.6819 13.0448 63.5837C13.0448 63.5285 13.051 63.463 13.0633 63.3873C13.0755 63.3117 13.0909 63.2334 13.1093 63.1526C13.1277 63.0718 13.1471 62.9931 13.1676 62.9164C13.188 62.8397 13.2075 62.7737 13.2259 62.7185L12.8638 62.605L12.4987 62.4884C12.4926 62.5068 12.4783 62.5548 12.4558 62.6326C12.4333 62.7103 12.4092 62.8023 12.3837 62.9087C12.3581 63.0151 12.3351 63.1281 12.3146 63.2477C12.2942 63.3674 12.2839 63.4784 12.2839 63.5806C12.2839 63.6993 12.2952 63.8061 12.3177 63.9013C12.3402 63.9964 12.3688 64.0818 12.4036 64.1575C12.4384 64.2331 12.4777 64.2986 12.5217 64.3538C12.5657 64.409 12.6081 64.4561 12.649 64.495C12.7534 64.5931 12.873 64.6678 13.008 64.7189C13.143 64.7701 13.2862 64.7956 13.4376 64.7956L15.2601 64.811ZM55.6634 74.5456C55.8046 74.5456 55.9452 74.5211 56.0853 74.472C56.2254 74.4229 56.3517 74.3482 56.4642 74.248C56.5767 74.1478 56.6677 74.0205 56.7373 73.866C56.8068 73.7116 56.8416 73.529 56.8416 73.3184C56.8416 73.2509 56.837 73.1721 56.8278 73.0821C56.8186 72.9921 56.8063 72.8996 56.791 72.8044C56.7756 72.7093 56.7593 72.6147 56.7419 72.5206C56.7245 72.4265 56.7076 72.3411 56.6913 72.2644C56.6749 72.1877 56.6601 72.1228 56.6468 72.0696C56.6335 72.0164 56.6248 71.9827 56.6207 71.9684L55.8997 72.1862C55.9079 72.2169 55.9191 72.2604 55.9334 72.3166C55.9477 72.3729 55.9621 72.4352 55.9764 72.5038C55.9907 72.5723 56.0055 72.6449 56.0209 72.7216C56.0362 72.7983 56.05 72.8735 56.0623 72.9471C56.0746 73.0208 56.0843 73.0898 56.0914 73.1542C56.0986 73.2187 56.1022 73.2734 56.1022 73.3184C56.1022 73.4268 56.0848 73.5122 56.05 73.5746C56.0152 73.6369 55.9748 73.6835 55.9288 73.7142C55.8828 73.7448 55.8368 73.7638 55.7908 73.7709C55.7447 73.7781 55.7094 73.7817 55.6849 73.7817H54.341V74.5456H55.6634ZM55.0191 76.0828L55.5407 75.5612L55.0191 75.0335L54.4975 75.5551L55.0191 76.0828ZM56.3047 76.0889L56.8263 75.5673L56.3047 75.0396L55.7769 75.5612L56.3047 76.0889ZM55.6573 76.9112L56.1421 76.4264L55.6512 75.9355L55.1664 76.4203L55.6573 76.9112ZM54.4638 74.5456V73.7817C54.2919 73.7817 54.1575 73.773 54.0603 73.7556C53.9631 73.7382 53.8905 73.7024 53.8425 73.6482C53.7944 73.594 53.7647 73.5178 53.7535 73.4196C53.7422 73.3214 53.7366 73.1905 53.7366 73.0269V70.1213H52.9726V73.0269C52.9726 73.1987 52.9783 73.3557 52.9895 73.4979C53.0008 73.64 53.0238 73.7673 53.0585 73.8798C53.0933 73.9923 53.1439 74.0905 53.2104 74.1744C53.2769 74.2582 53.3654 74.3273 53.4758 74.3815C53.5863 74.4357 53.7223 74.4766 53.8839 74.5042C54.0455 74.5318 54.2388 74.5456 54.4638 74.5456ZM50.2972 76.1932C50.5856 76.1932 50.8443 76.1503 51.0734 76.0644C51.3025 75.9785 51.4979 75.8563 51.6594 75.6977C51.821 75.5392 51.9479 75.3469 52.0399 75.1209C52.132 74.8949 52.1841 74.6407 52.1964 74.3585V72.4255H51.4324V74.294C51.4324 74.5006 51.4099 74.676 51.3649 74.8202C51.3199 74.9644 51.2514 75.0815 51.1593 75.1715C51.0673 75.2615 50.9497 75.327 50.8065 75.3679C50.6633 75.4088 50.4935 75.4293 50.2972 75.4293H49.9167V76.1932H50.2972ZM45.6427 74.5456C45.788 74.5456 45.9291 74.5221 46.0662 74.4751C46.2032 74.428 46.328 74.3523 46.4405 74.248C46.6593 74.4423 46.9559 74.5395 47.3302 74.5395C47.4734 74.5395 47.613 74.5165 47.7491 74.4705C47.8851 74.4244 48.0093 74.3493 48.1218 74.245C48.3427 74.4454 48.6434 74.5456 49.0239 74.5456C49.165 74.5436 49.3051 74.517 49.4442 74.4659C49.5833 74.4147 49.7081 74.3375 49.8185 74.2342C49.929 74.1309 50.0185 74.001 50.087 73.8446C50.1555 73.6881 50.1898 73.5055 50.1898 73.2969C50.1898 73.2294 50.1847 73.1511 50.1744 73.0622C50.1642 72.9732 50.1514 72.8822 50.1361 72.7891C50.1208 72.696 50.1039 72.6035 50.0855 72.5114C50.0671 72.4194 50.0492 72.3355 50.0318 72.2598C50.0144 72.1842 49.9996 72.1207 49.9873 72.0696C49.975 72.0185 49.9668 71.9858 49.9627 71.9714L49.2417 72.2077C49.2499 72.2384 49.2606 72.2803 49.2739 72.3335C49.2872 72.3867 49.301 72.446 49.3154 72.5114C49.3297 72.5769 49.344 72.6459 49.3583 72.7185C49.3726 72.7912 49.3854 72.8627 49.3967 72.9333C49.4079 73.0039 49.4171 73.0709 49.4243 73.1343C49.4314 73.1977 49.435 73.2519 49.435 73.2969C49.435 73.4053 49.4187 73.4912 49.3859 73.5546C49.3532 73.618 49.3143 73.6666 49.2693 73.7004C49.2243 73.7341 49.1788 73.7566 49.1328 73.7679C49.0868 73.7791 49.0505 73.7847 49.0239 73.7847C48.8418 73.7847 48.7104 73.7454 48.6296 73.6666C48.5488 73.5879 48.5084 73.4646 48.5084 73.2969V72.4255H47.7475V73.2969C47.7475 73.4053 47.7301 73.4917 47.6954 73.5561C47.6606 73.6206 47.6202 73.6692 47.5742 73.7019C47.5281 73.7346 47.4821 73.7556 47.4361 73.7648C47.3901 73.774 47.3548 73.7786 47.3302 73.7786C47.1502 73.7786 47.0209 73.7402 46.9421 73.6635C46.8634 73.5868 46.824 73.4646 46.824 73.2969V72.4255H46.06V73.3092C46.06 73.4196 46.0426 73.506 46.0079 73.5684C45.9731 73.6308 45.9327 73.6778 45.8867 73.7096C45.8406 73.7413 45.7946 73.7612 45.7486 73.7694C45.7026 73.7776 45.6673 73.7817 45.6427 73.7817H44.9524V74.5456H45.6427ZM42.8415 74.5456C43.0419 74.5456 43.2204 74.5231 43.3769 74.4781C43.5334 74.4331 43.6689 74.3626 43.7834 74.2664C43.8816 74.3585 44.0023 74.428 44.1455 74.4751C44.2887 74.5221 44.4472 74.5456 44.621 74.5456H45.0751V73.7817H44.621C44.6026 73.7817 44.5679 73.7791 44.5167 73.774C44.4656 73.7689 44.4139 73.7535 44.3618 73.728C44.3096 73.7024 44.2631 73.6635 44.2222 73.6114C44.1813 73.5592 44.1608 73.4871 44.1608 73.3951V72.4225H43.3999V73.4165C43.3999 73.4575 43.3943 73.4994 43.383 73.5423C43.3718 73.5853 43.3472 73.6242 43.3094 73.6589C43.2716 73.6937 43.2153 73.7229 43.1406 73.7464C43.066 73.7699 42.9663 73.7817 42.8415 73.7817H41.7799V74.5456H42.8415ZM43.8479 76.2331L44.3694 75.7115L43.8417 75.1838L43.3324 75.7115L43.8479 76.2331ZM42.5623 76.2362L43.0808 75.7146L42.5531 75.1869L42.0468 75.7146L42.5623 76.2362ZM41.9026 74.5456V73.7817C41.7308 73.7817 41.5963 73.773 41.4992 73.7556C41.402 73.7382 41.3294 73.7024 41.2813 73.6482C41.2333 73.594 41.2036 73.5178 41.1923 73.4196C41.1811 73.3214 41.1755 73.1905 41.1755 73.0269V70.1213H40.4115V73.0269C40.4115 73.1987 40.4171 73.3557 40.4284 73.4979C40.4396 73.64 40.4626 73.7673 40.4974 73.8798C40.5322 73.9923 40.5828 74.0905 40.6493 74.1744C40.7158 74.2582 40.8042 74.3273 40.9147 74.3815C41.0251 74.4357 41.1612 74.4766 41.3227 74.5042C41.4843 74.5318 41.6776 74.5456 41.9026 74.5456ZM37.5796 72.7477L38.138 72.1893L37.5734 71.6247L37.0212 72.1831L37.5796 72.7477ZM37.7054 76.1963C38.3067 76.1963 38.7583 76.0542 39.06 75.7698C39.3617 75.4855 39.5125 75.058 39.5125 74.4873V72.4225H38.7485V74.4873C38.7485 74.6285 38.7347 74.7573 38.7071 74.8739C38.6795 74.9905 38.6279 75.0902 38.5522 75.1731C38.4765 75.2559 38.3706 75.3198 38.2346 75.3648C38.0986 75.4098 37.9222 75.4323 37.7054 75.4323H37.0825C36.8882 75.4323 36.7108 75.3889 36.5502 75.3019C36.3896 75.215 36.2602 75.0989 36.1621 74.9537C36.1007 74.8514 36.0526 74.7364 36.0179 74.6085C35.9831 74.4807 35.9657 74.3472 35.9657 74.2081C35.9657 74.1018 35.9723 74 35.9856 73.9029C35.9989 73.8057 36.0209 73.7044 36.0516 73.5991C36.0823 73.4938 36.1222 73.3818 36.1713 73.2631C36.2204 73.1445 36.2817 73.0105 36.3554 72.8612L35.665 72.5329C35.5812 72.7068 35.5101 72.8663 35.4518 73.0115C35.3935 73.1568 35.3464 73.2959 35.3106 73.4288C35.2748 73.5618 35.2488 73.6917 35.2324 73.8185C35.216 73.9453 35.2079 74.0762 35.2079 74.2112C35.2079 74.4239 35.2344 74.628 35.2876 74.8233C35.3408 75.0186 35.4165 75.1961 35.5147 75.3556C35.5985 75.4865 35.6972 75.6042 35.8108 75.7085C35.9243 75.8128 36.048 75.9008 36.182 75.9723C36.316 76.0439 36.4587 76.0992 36.61 76.138C36.7614 76.1769 36.9189 76.1963 37.0825 76.1963H37.7054Z" fill="#3F6FC8"/>
<path fill-rule="evenodd" clip-rule="evenodd" d="M62.0639 38.9231C65.3868 38.8799 68.7096 38.8799 72.0331 38.9185C69.0123 42.6511 65.5697 46.0877 61.573 48.7726C60.3636 49.5815 59.1076 50.32 57.8037 50.9652C56.1473 51.7788 54.425 52.47 52.6355 52.9277C50.6717 53.4472 48.6308 53.8277 46.5925 53.6248C44.8024 53.4532 43.1 52.7254 41.6285 51.711C40.0626 50.6253 38.7507 49.1884 37.7622 47.5619C37.514 47.1435 37.2699 46.7204 37.0757 46.2727C38.5591 47.2585 40.0672 48.2324 41.723 48.9063C42.9523 49.4092 44.2642 49.7459 45.598 49.7625C46.524 49.7811 47.4407 49.6148 48.3388 49.4099C50.6292 48.8797 52.7832 47.8473 54.7104 46.5135C57.6281 44.4925 60.0449 41.8249 62.0639 38.9231ZM45.298 31.1572C43.8863 31.2869 42.4947 31.7685 41.3425 32.6021C39.847 33.6704 38.7248 35.2617 38.2664 37.0445C37.691 39.1034 38.0948 41.3759 39.221 43.1773C39.998 44.4353 41.1496 45.4511 42.4774 46.0964C44.4498 47.0423 46.8234 47.1142 48.849 46.284C50.3032 45.6806 51.5844 44.6448 52.4333 43.313C53.6028 41.5102 54.0405 39.2205 53.5056 37.1283C53.2954 36.354 53.0087 35.593 52.581 34.9104C51.0742 32.4677 48.1698 30.935 45.298 31.1572ZM44.2935 29.9212C46.8599 29.679 49.4896 30.134 51.8233 31.2283C53.2282 31.8942 54.5275 32.7744 55.7023 33.7902C57.3381 35.2111 58.7278 36.9148 59.7881 38.8054C59.8407 38.8679 59.8074 38.9451 59.7728 39.007C58.0991 42.1096 55.6244 44.8271 52.5298 46.5521C50.8926 47.4801 49.0459 48.0256 47.1706 48.1699C44.8396 48.3555 42.4654 47.9477 40.3293 46.9998C38.6436 46.2647 37.0896 45.2469 35.6979 44.0481C34.1227 42.691 32.751 41.1078 31.5675 39.4001C33.2033 36.2948 35.5928 33.5214 38.6469 31.7459C40.3672 30.7354 42.3057 30.1008 44.2935 29.9212ZM40.5043 24.6844C41.6811 24.4456 42.8778 24.2919 44.0793 24.25C46.2187 24.2467 48.3135 25.0097 50.0591 26.2244C52.0368 27.6035 53.6301 29.512 54.6978 31.6694C53.1611 30.7188 51.641 29.7176 49.9653 29.0251C48.8031 28.5435 47.5631 28.2175 46.3011 28.1895C45.3718 28.1856 44.4465 28.3206 43.5384 28.5122C41.6977 28.912 39.9382 29.6484 38.3176 30.6044C36.5401 31.6521 34.9203 32.9573 33.4741 34.4268C32.0897 35.8251 30.8244 37.3452 29.7281 38.9803C26.4033 39.0968 23.0744 39.1087 19.7502 39.001C21.7892 36.4278 24.0576 34.029 26.5636 31.9036C28.2446 30.4806 30.0361 29.1847 31.9347 28.0671C34.585 26.4919 37.4795 25.3051 40.5043 24.6844Z" fill="#213F76"/>
<path fill-rule="evenodd" clip-rule="evenodd" d="M44.7191 34.854C43.2855 35.1992 42.1919 36.4027 41.675 37.7451C44.3572 37.8668 47.0421 37.7724 49.7257 37.797C49.4363 36.5364 48.4604 35.4886 47.2623 35.0269C46.4594 34.703 45.5606 34.6863 44.7191 34.854ZM41.2818 33.8402C43.6567 31.9156 47.3016 31.8385 49.7989 33.5774C50.5579 34.1076 51.1892 34.8174 51.6569 35.6157C52.4432 37.024 52.5563 38.6857 52.517 40.267C48.8955 40.2843 45.2746 40.2404 41.653 40.293C42.0322 41.2855 42.7128 42.1669 43.6009 42.755C44.3739 43.2692 45.3192 43.542 46.2478 43.4462C47.4925 43.3111 48.5369 42.5222 49.3997 41.6687C50.4042 41.6261 51.4127 41.6454 52.4179 41.6374C51.6309 43.1215 50.4022 44.3855 48.8915 45.1339C47.9914 45.5836 46.9869 45.8251 45.9804 45.8224C43.1711 45.9481 40.3645 44.1912 39.3041 41.5769C38.5983 39.7009 38.6954 37.5103 39.6647 35.7427C40.0645 35.0043 40.6439 34.379 41.2818 33.8402Z" fill="#EB7329"/>
</svg>
