<svg width="44" height="44" viewBox="0 0 44 44" fill="none" xmlns="http://www.w3.org/2000/svg">
<path d="M24.8833 40V35.4657C24.8833 35.2789 24.8122 35.0998 24.6857 34.9678C24.5591 34.8358 24.3875 34.7616 24.2085 34.7616H16.6308C16.4049 34.7606 16.1813 34.7133 15.9729 34.6222C15.7644 34.5311 15.5752 34.3981 15.4161 34.2307C15.2569 34.0634 15.1309 33.8649 15.0453 33.6467C14.9596 33.4285 14.916 33.1949 14.9169 32.9591V31.5687C14.9169 31.5687 19 29.4508 19 29L14.9169 27.7959V26.3547C14.9246 26.2012 14.8839 26.0493 14.801 25.9221C14.7182 25.795 14.5977 25.6996 14.458 25.6507L12.6159 25.0099C12.4836 24.9637 12.3629 24.8872 12.2625 24.7861C12.1621 24.685 12.0846 24.5618 12.0356 24.4255C11.9975 24.2818 11.9899 24.1312 12.0132 23.9841C12.0365 23.8369 12.0902 23.6969 12.1706 23.5736L14.8697 18.8351C14.8697 18.7928 14.8697 18.7928 14.8697 18.7928C14.8894 18.7499 14.9052 18.7051 14.9169 18.659C14.9202 18.6122 14.9202 18.5651 14.9169 18.5182C14.9198 18.5043 14.9198 18.4899 14.9169 18.476C14.9014 16.2381 15.414 14.0307 16.4094 12.0484C21.6248 1.66146 38.9818 2.6976 40.7703 15.5354C41.0786 17.7479 41.1413 19.9941 40.5489 22.1449C39.9565 24.2957 38.8659 26.2614 37.3734 27.8685C37.3553 27.8927 37.3395 27.9186 37.3262 27.946C37.2923 27.9896 37.2629 28.0368 37.2385 28.0868C37.2352 28.1407 37.2352 28.1948 37.2385 28.2487C37.2346 28.2815 37.2346 28.3146 37.2385 28.3473V40" stroke="white" stroke-width="2" stroke-linecap="round"/>
<path d="M7 24C5.77354 24.9773 5 26.4071 5 28C5 29.5929 5.77354 31.0227 7 32" stroke="#26FF7B" stroke-width="2" stroke-linecap="round"/>
<path d="M4.5 21C2.3537 22.7102 1 25.2124 1 28C1 30.7876 2.3537 33.2898 4.5 35" stroke="#26FF7B" stroke-width="2" stroke-linecap="round"/>
</svg>
