<svg width="92" height="92" viewBox="0 0 92 92" fill="none" xmlns="http://www.w3.org/2000/svg">
<path d="M91 1H1V91H91V1Z" stroke="#55A2E7" stroke-opacity="0.6"/>
<path d="M44.7689 35.942L39.9724 41.4942V35.9902L32.7588 44.6085L36.4487 43.4068C36.6184 45.4467 36.7824 47.4328 36.9533 49.4841C37.1299 49.3695 37.2709 49.2904 37.3993 49.194C39.8073 47.4041 42.2153 45.6176 44.6096 43.8127C44.9398 43.5639 45.1829 43.5157 45.5739 43.7199C47.3467 44.6544 49.2237 45.0351 51.227 44.7026C52.8323 44.4354 54.1452 43.5868 55.136 42.376C56.4512 40.7644 57.6798 39.084 58.8168 37.3421C58.9395 37.1552 59.0644 36.9683 59.2559 36.6782C59.583 37.8506 59.7238 39.0671 59.6733 40.2833C59.4256 46.9867 55.1325 52.305 48.655 53.9814C41.423 55.839 33.6256 51.4197 31.5066 44.2496C29.1387 36.2574 33.6119 28.2055 41.6913 26.091C45.934 24.981 50.4174 25.9408 54.0524 28.4073C54.0524 28.4073 53.9572 28.8155 53.8471 29.2099C53.7244 29.6525 52.4814 34.1624 51.2327 36.5669C50.9825 37.0685 50.6746 37.5391 50.3154 37.9693C49.957 38.3754 49.457 38.6292 48.9177 38.6786C48.3784 38.7281 47.8405 38.5695 47.4143 38.2353C46.5635 37.5749 45.7883 36.8158 44.9765 36.1025C44.9249 36.0521 44.863 36.012 44.7689 35.942Z" fill="white"/>
<path d="M63.9229 26.576C62.4621 26.5325 61.1709 26.7905 59.9452 27.4349C57.7665 28.5816 56.3389 30.4288 55.2622 32.5513C54.5489 33.9583 54.0926 35.4948 53.3885 36.9087C52.9023 37.8868 52.3015 38.858 51.5538 39.6469C50.1457 41.1444 48.537 41.219 46.8846 40.007C46.2127 39.5139 45.5981 38.9394 44.9123 38.3638L39.0036 44.0329C39.0036 43.0582 38.9669 38.8729 38.9669 38.8729L34.0488 43.8036L39.359 37.584C39.359 37.584 39.3178 41.5114 39.3178 43.2451C39.3625 43.26 43.1018 39.2158 45.0133 37.1598C45.2552 37.4499 45.4513 37.756 45.715 37.9854C46.3033 38.4956 46.8823 39.0392 47.544 39.4393C48.5255 40.0322 49.5208 39.8911 50.4335 39.1997C51.2855 38.5541 51.8096 37.6792 52.1822 36.6988C52.9849 34.5958 53.7016 32.4561 54.6132 30.4025C55.7713 27.7904 57.7539 25.9385 60.5047 25.0854C61.4622 24.7861 62.5469 24.6267 63.9229 24.6267V26.576Z" fill="white"/>
<path d="M38.3752 40.2867L38.475 45.4822L44.8963 39.5677C45.5843 40.07 46.1909 40.5997 46.8743 40.9976C48.8626 42.1557 50.5666 41.8794 52.1169 40.1743C53.4332 38.7261 54.2187 36.9545 55.0432 35.2115C55.8676 33.4686 56.7127 31.7784 58.0497 30.3726C59.6722 28.6755 61.4003 27.952 63.9229 28.0667V29.9013C61.4003 29.7867 59.9979 30.5893 58.8122 31.8208C57.419 33.2691 56.4237 34.9788 55.4743 36.7297C54.8379 37.9016 54.1453 39.046 53.4103 40.1537C53.0778 40.6513 52.6076 41.079 52.1329 41.4563C50.4129 42.8208 48.4922 42.8896 46.6025 41.6741C46.059 41.3301 45.5591 40.9059 44.9766 40.4724L38.2227 46.3617L38.0278 41.1387L34.0488 43.8127L38.3752 40.2867Z" fill="white"/>
<path d="M63.9229 31.736V33.5707C63.9229 33.5707 62.9952 33.5386 62.5308 33.6108C61.1322 33.819 59.8677 34.5582 59.0002 35.6748C58.1471 36.747 57.4339 37.9303 56.6106 39.0288C55.7552 40.1755 54.9559 41.3898 53.9308 42.3656C51.54 44.6418 48.4268 44.4411 45.6553 42.8541C45.1278 42.5526 44.8297 42.5766 44.3745 42.9332C42.2256 44.6154 40.047 46.2609 37.8763 47.919C37.8018 47.9763 37.7181 48.021 37.5323 48.1391C37.3557 46.2311 37.0496 42.814 37.0496 42.814L34.0476 43.807L37.4096 42.2269L37.7158 47.4706C38.3361 46.9856 38.8625 46.5831 39.3727 46.1726C41.1057 44.792 42.8353 43.408 44.5614 42.0205C44.8366 41.798 45.0304 41.7407 45.3492 41.9758C48.4452 44.2691 51.8164 43.4664 54.0248 40.6227C55.105 39.2272 55.9077 37.6196 56.8915 36.1438C57.5646 35.1302 58.256 34.1131 59.0702 33.2118C60.3304 31.8026 62.0882 31.6214 63.9229 31.736Z" fill="white"/>
<path d="M31.4571 64.2812C31.3771 64.37 31.2812 64.4432 31.1744 64.497C31.0628 64.5359 30.945 64.5534 30.8269 64.5488C30.7521 64.5496 30.6781 64.5326 30.6111 64.4992C30.5651 64.4773 30.5165 64.4614 30.4665 64.4517C30.3393 64.4658 30.2141 64.494 30.0931 64.5359C29.8695 64.6157 29.653 64.7138 29.4456 64.8294C29.206 64.9423 29.0076 65.1271 28.878 65.3582C28.8577 65.383 28.8322 65.403 28.8033 65.4167C28.7744 65.4305 28.7428 65.4376 28.7107 65.4376C28.6787 65.4376 28.6471 65.4305 28.6181 65.4167C28.5892 65.403 28.5637 65.383 28.5435 65.3582C28.6658 65.1591 28.8036 64.97 28.9557 64.7927C29.1373 64.5671 29.3563 64.3744 29.6032 64.2229C29.7504 64.1476 29.885 64.0501 30.0025 63.9337C29.9765 63.8562 29.9455 63.7805 29.9096 63.7071C29.8643 63.6099 29.7521 63.5625 29.5708 63.5625C29.465 63.5625 29.4111 63.5625 29.4068 63.5258C29.4025 63.4891 29.4068 63.461 29.4564 63.4114C29.5535 63.2839 29.67 63.1725 29.8017 63.0812C29.9729 62.9505 30.1763 62.8686 30.3902 62.8443C30.6042 62.82 30.8207 62.8541 31.0168 62.943C31.0879 62.9673 31.1498 63.0128 31.1942 63.0734C31.2386 63.134 31.2633 63.2068 31.265 63.2819C31.2652 63.4055 31.2208 63.5251 31.1399 63.6186C31.114 63.6574 31.0881 63.692 31.0643 63.7222C31.0398 63.7519 31.0167 63.7829 30.9953 63.815C30.9953 63.8776 31.0341 63.8992 31.114 63.8776C31.2371 63.8585 31.3552 63.8152 31.4614 63.7502C31.4873 63.8171 31.5046 63.8581 31.5132 63.8754C31.5305 63.9179 31.5393 63.9634 31.5391 64.0092C31.5394 64.0521 31.5313 64.0946 31.5154 64.1344C31.5154 64.1063 31.5003 64.1538 31.4571 64.2812Z" fill="white"/>
<path d="M30.2634 67.0802C30.4339 66.7564 30.5397 66.5924 30.5764 66.5924C30.6476 66.5622 30.7534 66.614 30.8915 66.7456C31.0062 66.8525 31.1109 66.9695 31.2044 67.0953L31.485 66.6269C31.5865 66.4521 31.6555 66.3658 31.6879 66.3658C31.8388 66.39 31.9743 66.472 32.0656 66.5946C32.1912 66.7069 32.2737 66.8596 32.2987 67.0262C32.2807 67.235 32.2003 67.4336 32.0677 67.596C31.9167 67.8118 31.8066 67.9197 31.7332 67.9197C31.6598 67.9197 31.6037 67.8593 31.4807 67.7363C31.3798 67.6343 31.2716 67.5398 31.157 67.4535C30.9303 67.9154 30.7512 68.1442 30.6152 68.1464C30.5598 68.1344 30.5093 68.1058 30.4706 68.0643L30.1944 67.8377C30.0692 67.737 30.0066 67.6744 30.0066 67.65C30.067 67.4496 30.1533 67.2581 30.2634 67.0802ZM32.2318 63.5881C32.2059 63.5328 32.1717 63.4819 32.1303 63.437C32.0978 63.4086 32.0583 63.3892 32.0159 63.3809C31.9769 63.37 31.9373 63.3613 31.8972 63.355L31.8325 63.4197C31.7742 63.478 31.7203 63.532 31.6706 63.5773C31.6047 63.64 31.5323 63.6957 31.4548 63.7435C31.4111 63.8248 31.3909 63.9168 31.3965 64.0089C31.4042 64.0998 31.4246 64.1891 31.457 64.2744L31.9124 63.873C32.0063 63.7714 32.1333 63.7063 32.2706 63.6895L32.2318 63.5881Z" fill="white"/>
<path d="M33.9068 63.372C33.7861 63.3811 33.6654 63.3548 33.5593 63.2965C33.4703 63.2365 33.3964 63.1568 33.3435 63.0634C33.3262 63.0634 33.2852 63.1195 33.2183 63.2296C33.1514 63.3396 33.091 63.4281 33.0154 63.5339C32.948 63.6561 32.8358 63.7473 32.7025 63.7886C32.6557 63.8011 32.6059 63.7966 32.5622 63.7756C32.4658 63.7408 32.3659 63.7162 32.2644 63.7022L31.8975 63.372L32.2428 62.9986C32.3183 62.9123 32.3852 62.8778 32.4435 62.8886C32.6002 62.9484 32.7611 62.9967 32.9248 63.0332C32.9766 63.0332 33.0759 62.9123 33.2205 62.6706C33.3651 62.4289 33.4708 62.3037 33.5421 62.3015L33.6651 62.349C33.7401 62.3805 33.8213 62.3945 33.9025 62.39C33.9155 62.4612 33.9306 62.5648 33.9478 62.6986C33.9651 62.8324 33.9759 62.9317 33.9759 62.9447C33.9751 63.0302 33.9664 63.1154 33.95 63.1994C33.9403 63.258 33.9258 63.3157 33.9068 63.372ZM33.296 66.7821C33.3001 66.8104 33.3111 66.8372 33.328 66.8602C33.345 66.8831 33.3673 66.9016 33.3931 66.9138C33.4644 66.9656 33.5744 67.0389 33.7255 67.1296C33.8766 67.2202 33.9629 67.2828 33.9888 67.2958C34.0557 67.2958 34.1637 67.1684 34.3104 66.9138C34.4273 66.7392 34.5013 66.5396 34.5262 66.331C34.4726 66.1668 34.373 66.0215 34.2392 65.9123C34.0622 65.7353 33.9262 65.6641 33.8334 65.6965C33.7888 65.6965 33.6874 65.8519 33.5291 66.1627C33.4164 66.3519 33.3376 66.5593 33.296 66.7756V66.7821Z" fill="white"/>
<path d="M36.1103 61.1922C36.0972 61.367 36.0488 61.5373 35.9679 61.6929C35.8612 61.9181 35.7371 62.1346 35.5967 62.3404C35.4206 62.6161 35.2021 62.8623 34.9492 63.0699C34.6879 63.268 34.3685 63.3743 34.0406 63.372H33.9067V62.3857C33.9456 62.3857 34.0168 62.3102 34.1226 62.1699C34.2545 61.9331 34.3657 61.6855 34.4549 61.4296C34.4873 61.3244 34.5119 61.2169 34.5283 61.108C34.5585 60.9418 34.5866 60.7281 34.6147 60.4605C34.6276 60.3166 34.6384 60.1979 34.647 60.1044C34.647 60.0159 34.6643 59.9533 34.6686 59.9145C34.7335 59.6075 34.832 59.3086 34.9621 59.0231L35.1931 58.5526C35.2319 58.4814 35.2686 58.4684 35.3075 58.5159C35.322 58.5355 35.331 58.5588 35.3332 58.5832C35.3355 58.6075 35.3311 58.632 35.3204 58.654L35.247 59.008L35.1499 59.8713C35.0549 60.3526 34.9945 60.6418 34.9708 60.7346C34.947 60.8274 34.9233 60.8922 34.9039 60.9677L34.8521 61.1835L35.1542 60.9353C35.2795 60.8135 35.4422 60.7375 35.6161 60.7195C35.7437 60.7152 35.868 60.76 35.9636 60.8447C36.0118 60.8885 36.0499 60.9423 36.0752 61.0023C36.1006 61.0623 36.1126 61.1271 36.1103 61.1922ZM35.6571 61.6627C35.5248 61.5608 35.3622 61.5061 35.1952 61.5073C35.0295 61.523 34.8756 61.6 34.7636 61.7231C34.578 61.9277 34.4058 62.144 34.2477 62.3706C34.4587 62.3732 34.6685 62.3381 34.8672 62.267C35.0565 62.1977 35.2335 62.0986 35.3916 61.9735C35.5686 61.8353 35.6571 61.7339 35.6571 61.6627Z" fill="white"/>
<path d="M40.4333 63.716C40.5556 63.7448 40.575 63.8289 40.4916 63.9685C40.3785 64.1324 40.241 64.278 40.0837 64.4002C39.9283 64.5225 39.7556 64.6498 39.5657 64.7822C39.4448 64.8707 39.3348 64.9548 39.2398 65.0347C38.7201 65.4762 38.2607 65.9841 37.8736 66.5455C37.5227 67.0089 37.3182 67.5665 37.2865 68.1469C37.2801 68.3488 37.3172 68.5497 37.3954 68.7359C37.4737 68.9222 37.5911 69.0893 37.7398 69.2261C38.0431 69.4999 38.4408 69.6453 38.8491 69.6318C40.0966 69.6318 41.2571 69.0347 42.3304 67.8404C42.3693 67.7887 42.406 67.7627 42.4448 67.7627C42.4837 67.7627 42.4945 67.7865 42.4966 67.8318C42.4959 67.8597 42.4869 67.8868 42.4707 67.9095C41.1355 69.9239 39.7909 70.9376 38.4369 70.9505C38.1854 70.9673 37.9334 70.9257 37.7005 70.8291C37.4677 70.7326 37.2603 70.5835 37.0945 70.3937C36.8084 70.0169 36.6633 69.5519 36.6844 69.0793C36.7107 68.2378 36.9602 67.4185 37.4074 66.7052C37.7106 66.1858 38.0822 65.7096 38.5124 65.2894C38.5801 65.2232 38.6945 65.1174 38.8556 64.9721C39.0175 64.8275 39.1535 64.7153 39.2614 64.6332C39.3693 64.5512 39.4642 64.4735 39.5398 64.4066C39.6153 64.3397 39.6714 64.2966 39.6714 64.2793C39.7376 64.1354 39.2909 64.093 38.3312 64.1519C38.2513 64.1649 38.2319 64.1282 38.2729 64.0397C38.3205 63.9429 38.3753 63.8499 38.4369 63.7613C38.5095 63.6529 38.5888 63.5491 38.6743 63.4505C38.7609 63.3469 38.8539 63.2489 38.9527 63.157C39.0369 63.2498 39.0369 63.3728 38.9527 63.5498L38.8383 63.6771C39.3698 63.6297 39.9048 63.6427 40.4333 63.716Z" fill="white"/>
<path d="M42.0155 61.1215C42.063 61.1215 42.0803 61.1431 42.0673 61.1841C41.9203 61.4607 41.7522 61.7255 41.5645 61.9762C41.4989 62.058 41.4174 62.1255 41.3249 62.1748C41.2882 62.205 40.9537 62.3712 40.3213 62.6776C39.8238 62.8972 39.363 63.192 38.9551 63.5517C38.9292 63.5057 38.9123 63.4552 38.9055 63.4028C38.897 63.3186 38.9136 63.2338 38.9529 63.1589C39.0824 63.0323 39.2573 62.8791 39.4774 62.6992C39.6932 62.5179 39.9436 62.3345 40.2155 62.1489C40.4875 61.9633 40.7702 61.7798 41.0659 61.6028C41.3451 61.4373 41.6333 61.2874 41.9292 61.1539L42.0155 61.1215ZM40.276 57.9618C40.319 57.7487 40.3978 57.5443 40.5091 57.3575C40.6659 57.0467 40.7673 56.8913 40.8134 56.8913C40.9062 56.8524 41.0422 56.9215 41.2191 57.1071C41.3534 57.2159 41.4531 57.3614 41.5062 57.5258C41.4826 57.7347 41.4085 57.9347 41.2904 58.1086C41.1436 58.3632 41.0357 58.4884 40.9688 58.4906C40.9429 58.4776 40.8565 58.4215 40.7055 58.3244C40.5544 58.2273 40.4443 58.1517 40.3731 58.1086C40.3451 58.0952 40.3212 58.0745 40.3041 58.0487C40.287 58.0228 40.2773 57.9928 40.276 57.9618Z" fill="white"/>
<path d="M42.3717 62.5871C42.3717 62.8914 42.3588 63.1655 42.3544 63.4094C42.3548 63.6164 42.3433 63.8232 42.3199 64.0288C42.295 64.3579 42.2268 64.6823 42.117 64.9936C42.0511 65.1876 41.9681 65.3754 41.8688 65.5547C41.8246 65.6256 41.7756 65.6934 41.7221 65.7576C41.6746 65.8008 41.6401 65.8137 41.6142 65.7986C41.6017 65.7921 41.5922 65.7812 41.5874 65.768C41.5826 65.7549 41.5829 65.7404 41.5883 65.7274C41.5883 65.7274 41.612 65.5914 41.6616 65.3432C41.7096 65.1069 41.7406 64.8674 41.7544 64.6267C41.7544 64.3936 41.7544 64.0655 41.7544 63.6425C41.7405 63.3186 41.7491 62.994 41.7803 62.6713C41.7989 62.5349 41.827 62.4001 41.8645 62.2677C41.9034 62.1274 41.9487 61.9893 41.9983 61.8554C42.048 61.7216 42.1019 61.5921 42.158 61.4713L42.3113 61.1518C42.348 61.0936 42.3825 61.0698 42.4127 61.0828C42.4263 61.0877 42.4376 61.0975 42.4444 61.1102C42.4511 61.123 42.4529 61.1378 42.4494 61.1518C42.4365 61.2305 42.4278 61.3097 42.4235 61.3893C42.4235 61.5123 42.4041 61.6526 42.3976 61.8058C42.3911 61.959 42.3825 62.1101 42.376 62.259C42.3695 62.408 42.3696 62.5094 42.3717 62.5871Z" fill="white"/>
<path d="M44.3788 66.258C44.2764 66.5738 44.1404 66.8778 43.973 67.1645C43.8962 67.3009 43.7961 67.4229 43.6774 67.5249C43.5758 67.5864 43.468 67.6371 43.3558 67.676C43.2112 67.7278 42.9932 67.8033 42.7083 67.8918C42.5388 67.9554 42.364 68.0038 42.186 68.0364C42.1536 68.0364 42.1364 68.0364 42.1364 68.0105C42.1018 67.9652 42.2766 67.812 42.6587 67.553C43.0407 67.294 43.2889 67.1213 43.3989 67.0436C43.5294 66.9438 43.6443 66.8253 43.74 66.6918C43.8551 66.5345 43.9407 66.3575 43.9925 66.1695C43.9306 66.1611 43.8676 66.1732 43.8133 66.2041C43.7585 66.2345 43.6969 66.2508 43.6342 66.2515C43.489 66.254 43.3485 66.2007 43.2414 66.1026C43.1935 66.0648 43.1559 66.0155 43.1321 65.9593C43.1084 65.903 43.0992 65.8417 43.1054 65.781C43.1227 65.7098 43.1464 65.6256 43.1788 65.5307C43.2343 65.3755 43.2999 65.2241 43.3752 65.0774C43.4591 64.8964 43.561 64.7243 43.6795 64.5638C43.7113 64.5084 43.7556 64.4613 43.8088 64.4261C43.862 64.3908 43.9227 64.3685 43.986 64.3609C44.0699 64.3598 44.1529 64.3789 44.228 64.4164C44.3031 64.454 44.3681 64.5089 44.4177 64.5767C44.5358 64.728 44.5976 64.9157 44.5925 65.1076C44.5943 65.2122 44.5885 65.3168 44.5752 65.4206C44.5752 65.5242 44.5493 65.6105 44.5364 65.6796C44.5234 65.7487 44.4997 65.8393 44.4738 65.9451C44.4486 66.0512 44.4169 66.1558 44.3788 66.258Z" fill="white"/>
<path d="M44.2124 65.612C44.2093 65.5247 44.2195 65.4373 44.2426 65.353C44.2577 65.2732 44.3268 65.2041 44.4584 65.1372C44.535 65.1058 44.6075 65.0652 44.6743 65.0163C44.7174 64.9904 44.8016 64.9322 44.9268 64.8372C45.0806 64.733 45.2024 64.588 45.2786 64.4185C45.3174 64.3171 45.3563 64.2588 45.3994 64.2415C45.4349 64.2486 45.4691 64.261 45.5009 64.2782C45.5238 64.2984 45.5517 64.312 45.5817 64.3177C45.6117 64.3234 45.6427 64.321 45.6714 64.3106C45.7284 64.2942 45.7816 64.2667 45.8279 64.2297C45.8742 64.1926 45.9127 64.1468 45.9412 64.0948C46.0149 63.9681 46.0756 63.8343 46.1225 63.6955C46.1225 63.6955 46.1656 63.7084 46.2369 63.7581C46.2613 63.7715 46.2895 63.7762 46.3169 63.7715C46.3444 63.7668 46.3694 63.7529 46.3879 63.7322C46.4212 63.6971 46.4489 63.657 46.4699 63.6135C46.4699 63.5962 46.5131 63.5056 46.5714 63.3394C46.6297 63.1732 46.6599 63.1235 46.716 63.1235C46.7721 63.1235 46.7656 63.1689 46.7656 63.2573C46.7641 63.4829 46.7202 63.7062 46.6361 63.9156C46.5683 64.1034 46.4706 64.279 46.3469 64.4358C46.2605 64.535 46.161 64.6221 46.0512 64.6948C45.9933 64.7257 45.9402 64.765 45.8937 64.8113C45.8019 64.9378 45.6896 65.048 45.5613 65.1372C45.4517 65.214 45.3298 65.2716 45.2009 65.3077C45.0766 65.4362 44.9391 65.5512 44.7908 65.6509C44.6724 65.7433 44.5484 65.8284 44.4196 65.9056C44.3557 65.9355 44.2962 65.974 44.2426 66.0199C44.1714 66.0696 44.1347 66.1149 44.1304 66.1516L44.2124 65.612Z" fill="white"/>
<path d="M49.3535 65.8996C49.3508 66.1062 49.321 66.3115 49.2651 66.5104C49.2101 66.7223 49.1312 66.9272 49.0298 67.1212C48.9125 67.3673 48.7558 67.5926 48.5658 67.7881C48.4239 67.9323 48.2307 68.0145 48.0284 68.0168C47.7176 68.0168 47.56 67.8291 47.5579 67.4514C47.5598 67.3096 47.5808 67.1688 47.6204 67.0327C47.6727 66.8824 47.74 66.7378 47.8212 66.601C47.8989 66.4658 47.9658 66.3514 48.0219 66.2578L47.9205 66.2255H47.8881C47.8959 66.1294 47.9239 66.036 47.9701 65.9514L48.4125 64.9327C48.4557 64.8269 48.5032 64.7729 48.5571 64.7729C48.6273 64.7825 48.694 64.8092 48.7514 64.8507C48.8377 64.9046 48.9111 64.9521 48.9672 64.9931C49.0884 65.0945 49.1888 65.2183 49.2629 65.3578C49.3311 65.53 49.362 65.7146 49.3535 65.8996ZM48.7449 66.901C48.7468 66.8454 48.7363 66.79 48.7143 66.7389C48.6923 66.6878 48.6593 66.6422 48.6176 66.6053C48.5626 66.5532 48.5017 66.5076 48.4363 66.4694C48.3778 66.4301 48.3127 66.4016 48.2442 66.3852C48.2053 66.3852 48.1384 66.4586 48.0456 66.601C47.964 66.7095 47.9154 66.8391 47.9053 66.9744C47.9053 67.1643 48.0197 67.2593 48.2464 67.2571C48.3636 67.2522 48.4768 67.2132 48.5723 67.1449C48.6196 67.1225 48.6603 67.0883 48.6906 67.0456C48.7208 67.0029 48.7395 66.9531 48.7449 66.901Z" fill="white"/>
<path d="M51.05 67.5616C50.9838 67.6485 50.9078 67.7275 50.8234 67.7969C50.7436 67.8529 50.6582 67.9006 50.5687 67.9393C50.4766 67.9779 50.3813 68.0082 50.2838 68.03L49.9773 68.1034L49.5608 68.2069C49.4598 68.2365 49.3531 68.2409 49.25 68.2199C49.25 68.1616 49.3191 68.0882 49.4658 68.0041L49.85 67.7602C49.9795 67.676 50.109 67.5962 50.2406 67.5141C50.5162 67.3328 50.766 67.115 50.9831 66.8667C51.0903 66.7356 51.189 66.5979 51.2788 66.4544C51.3241 66.3854 51.3932 66.271 51.4946 66.1048L51.7644 65.5479C51.8151 65.4369 51.8758 65.3307 51.9457 65.2307C51.9996 65.1508 52.0514 65.112 52.0968 65.1163C52.1421 65.1206 52.1529 65.1789 52.1356 65.2415C52.0903 65.3818 52.0601 65.4724 52.0471 65.5156C51.9951 65.667 51.9625 65.8243 51.95 65.9839C51.9241 66.0595 51.9068 66.1069 51.8982 66.1285C51.7989 66.3573 51.6953 66.5731 51.5853 66.776C51.4219 67.0478 51.2432 67.3101 51.05 67.5616Z" fill="white"/>
<path d="M53.8103 64.0714L53.7499 64.9757C53.7499 65.1398 53.7348 65.2909 53.7261 65.4268C53.7175 65.5628 53.7132 65.6837 53.7089 65.7851C53.6981 66.0009 53.6678 66.1002 53.616 66.1002C53.5642 66.1002 53.534 66.1822 53.4714 66.3419C53.4434 66.4218 53.4153 66.493 53.3916 66.5578C53.3678 66.6225 53.3463 66.6722 53.3355 66.7088C53.2215 67.0387 53.0609 67.3505 52.8585 67.6348C52.7812 67.7334 52.6832 67.8138 52.5712 67.8701C52.4593 67.9265 52.3363 67.9574 52.211 67.9607C52.0649 67.9629 51.9214 67.9216 51.7988 67.8419C51.6863 67.7848 51.5921 67.6973 51.5268 67.5894C51.4668 67.5007 51.4209 67.4031 51.3909 67.3002C51.3542 67.1988 51.3218 67.1491 51.2959 67.1491C51.3645 66.6947 51.5888 66.2781 51.9304 65.9707C51.9614 66.1249 52.0223 66.2715 52.1096 66.4024C52.1632 66.4741 52.2346 66.5305 52.3168 66.5661C52.3989 66.6017 52.4889 66.6152 52.5779 66.6053C52.6929 66.6077 52.8072 66.5879 52.9146 66.547C53.0016 66.5002 53.0757 66.4327 53.1304 66.3506C53.2024 66.2524 53.2444 66.1354 53.2513 66.0139C53.2621 65.8865 53.2664 65.7484 53.2664 65.5995C53.2664 65.4506 53.2664 65.3362 53.2664 65.2563C53.2664 65.1765 53.2664 65.0081 53.2664 64.7534C53.2664 64.4988 53.2794 64.1837 53.3074 63.8124C53.3153 63.5806 53.3456 63.35 53.3981 63.1239L53.8168 61.829C53.8491 61.7923 53.8794 61.7837 53.9053 61.8031C53.9281 61.8462 53.9392 61.8946 53.9376 61.9434C53.9376 61.9693 53.9161 62.2455 53.8772 62.7721C53.8384 63.2988 53.8081 63.7088 53.8103 64.0714ZM54.4146 60.834C54.7974 60.4557 55.2009 60.0991 55.6232 59.7657C55.8973 59.5498 56.1715 59.334 56.4456 59.1074L57.2743 58.4318C57.7189 58.0549 58.0945 57.7196 58.401 57.4261C58.6053 57.2318 58.9456 56.9038 59.4218 56.4419C60.0693 55.8203 60.3844 55.4988 60.3844 55.4836C60.3872 55.5228 60.3782 55.5619 60.3585 55.5959C60.3037 55.7875 60.2239 55.9711 60.1211 56.1419C60.0168 56.3319 59.8992 56.5144 59.7693 56.688C59.5858 56.9189 59.4391 57.1002 59.3376 57.2275C59.1758 57.4045 59.0463 57.5405 58.9556 57.6333C58.865 57.7261 58.6189 57.9592 58.3081 58.2441C58.1916 58.3498 58.0448 58.4793 57.8765 58.6304C57.7081 58.7815 57.501 58.9563 57.27 59.1527C56.9549 59.4232 56.6628 59.6628 56.3938 59.8714C56.1247 60.0801 55.7822 60.3448 55.3664 60.6657L54.4794 61.365C54.4103 61.4168 54.3477 61.4664 54.2873 61.5182C54.2268 61.57 54.1664 61.6153 54.106 61.6585C53.9894 61.7513 53.9247 61.7837 53.9117 61.7534C53.9744 61.5761 54.0516 61.4043 54.1427 61.2398C54.215 61.0917 54.3097 60.9556 54.4232 60.8362L54.4146 60.834Z" fill="white"/>
<path d="M57.4448 64.3695C57.2462 64.4817 57.1253 64.5465 57.0778 64.5681C57.0271 64.5926 56.98 64.6238 56.9376 64.6609C56.8758 64.7109 56.8174 64.765 56.7627 64.8227C56.7167 64.8524 56.6641 64.8702 56.6095 64.8745C56.5465 64.8801 56.4858 64.9008 56.4325 64.935C56.3506 64.9929 56.2727 65.0564 56.1994 65.1249C56.1278 65.1969 56.0428 65.2541 55.9491 65.2932C55.9003 65.2991 55.8511 65.2991 55.8023 65.2932L55.6145 65.2738C55.4678 65.2738 55.2735 65.4659 55.0318 65.8458C54.7901 66.2256 54.5073 66.4177 54.1685 66.4199C53.78 66.4199 53.5059 66.1932 53.3483 65.7335C53.3144 65.6269 53.2919 65.5169 53.2814 65.4055C53.2645 65.2882 53.2544 65.17 53.2512 65.0515C53.2528 64.8887 53.2761 64.7269 53.3203 64.5702C53.3572 64.4387 53.4079 64.3114 53.4714 64.1904C53.5098 64.1086 53.5694 64.0385 53.644 63.9875C53.7023 63.953 53.7541 63.9702 53.7973 64.0371C53.7864 64.2671 53.8371 64.4958 53.944 64.6997C54.0228 64.8319 54.1373 64.9392 54.2744 65.0091C54.4115 65.0789 54.5656 65.1086 54.7188 65.0947C54.8397 65.0838 54.9572 65.0487 55.0644 64.9916C55.1715 64.9345 55.2661 64.8566 55.3426 64.7623C55.5584 64.5465 55.6987 64.4472 55.7742 64.4774C55.8116 64.5114 55.8557 64.5371 55.9037 64.5527C55.9517 64.5683 56.0025 64.5736 56.0527 64.5681C56.1412 64.553 56.2296 64.4731 56.3225 64.3328C56.4153 64.1925 56.4908 64.1364 56.5491 64.1688C56.5782 64.1866 56.6106 64.1983 56.6444 64.2031C56.6781 64.2079 56.7125 64.2058 56.7455 64.1968C56.7973 64.1774 56.8685 64.0911 56.9613 63.9335C57.0541 63.776 57.1275 63.7177 57.1771 63.7501C57.191 63.775 57.2102 63.7966 57.2333 63.8134C57.2564 63.8302 57.2829 63.8417 57.3109 63.8472C57.352 63.8549 57.3945 63.8488 57.4318 63.8299C57.4547 63.8681 57.4735 63.9086 57.4879 63.9508C57.5052 63.997 57.514 64.046 57.5138 64.0954C57.5139 64.1369 57.5058 64.1779 57.4901 64.2163C57.4858 64.2659 57.4663 64.3155 57.4448 64.3695ZM54.775 57.9767C54.8397 57.7745 54.9289 57.581 55.0404 57.4004C55.2174 57.068 55.3275 56.8997 55.3706 56.8997C55.4924 56.928 55.6033 56.991 55.6901 57.081C55.8123 57.1744 55.9131 57.2929 55.9858 57.4285C56.0786 57.2752 56.1649 57.1285 56.2491 56.9839C56.3699 56.781 56.4419 56.6796 56.4649 56.6796C56.6147 56.7049 56.7511 56.7812 56.8512 56.8954C56.9814 57.0081 57.0633 57.1665 57.08 57.3378C57.0641 57.5485 56.9893 57.7504 56.8642 57.9206C56.7088 58.1364 56.5987 58.2551 56.5318 58.2573C56.4649 58.2594 56.398 58.2033 56.2965 58.0997C56.1894 57.9827 56.0724 57.8751 55.9469 57.7781C55.7181 58.2508 55.5368 58.4882 55.4073 58.4882C55.2828 58.4287 55.1678 58.3509 55.0663 58.2573C54.8721 58.0954 54.775 58.0026 54.775 57.9767ZM55.3426 56.4076C55.4024 56.2133 55.4812 56.0253 55.5778 55.8465C55.7332 55.5141 55.8347 55.3479 55.8822 55.3479C56.0359 55.3668 56.1765 55.4441 56.275 55.5637C56.401 55.6852 56.4778 55.8489 56.4908 56.0234C56.4721 56.2284 56.4047 56.426 56.2944 56.5997C56.1635 56.8457 56.0663 56.9688 56.003 56.9688C55.9642 56.9688 55.88 56.9105 55.7483 56.7961C55.6167 56.6817 55.5174 56.5975 55.4483 56.5479C55.3793 56.4983 55.3426 56.4443 55.3426 56.4033V56.4076Z" fill="white"/>
<path d="M57.4448 63.8386C57.5603 63.7638 57.65 63.6553 57.7016 63.5278C57.7361 63.4695 57.7663 63.4069 57.7966 63.3443L57.8894 63.1414C57.9452 63.0275 58.0179 62.9227 58.1052 62.8306C58.1347 62.7978 58.1706 62.7713 58.2107 62.7528C58.2507 62.7342 58.2942 62.724 58.3383 62.7227C58.4163 62.7234 58.4919 62.7491 58.5541 62.7961C58.5674 62.8093 58.5827 62.8202 58.5994 62.8285C58.6155 62.8368 58.6301 62.8477 58.6426 62.8609C58.6771 62.8609 58.716 62.8069 58.7635 62.7012C58.811 62.5954 58.8498 62.5371 58.8628 62.5371C58.9043 62.5366 58.9449 62.5499 58.9781 62.5749C59.0113 62.5999 59.0352 62.6352 59.0462 62.6753C59.0765 62.7517 59.094 62.8327 59.098 62.9148C59.0988 63.0909 59.0369 63.2616 58.9232 63.3961C58.885 63.4605 58.832 63.5149 58.7685 63.5547C58.7051 63.5945 58.6331 63.6185 58.5584 63.6249C58.483 63.6242 58.4089 63.6049 58.3426 63.5688C58.2931 63.5375 58.2369 63.5183 58.1786 63.5127C58.1398 63.5124 58.1016 63.5218 58.0674 63.5398C58.0331 63.5579 58.0039 63.5842 57.9822 63.6163C57.9145 63.7414 57.8628 63.8321 57.8268 63.8882C57.7304 64.068 57.6049 64.2306 57.4556 64.3695C57.4034 64.293 57.3742 64.2031 57.3714 64.1105C57.3647 64.0142 57.3906 63.9185 57.4448 63.8386ZM58.6491 65.9515C58.486 66.1901 58.3506 66.4464 58.2455 66.7155C58.118 66.9582 58.0402 67.2238 58.0167 67.4968C58.2886 67.6479 58.4225 67.8076 58.4246 67.976C58.4248 68.0994 58.3855 68.2197 58.3124 68.3192C58.2855 68.3661 58.247 68.4053 58.2004 68.4329C58.1539 68.4606 58.101 68.4756 58.0469 68.4767C57.9963 68.479 57.9463 68.466 57.9031 68.4394C57.86 68.4129 57.8259 68.374 57.8052 68.3278C57.7591 68.2177 57.7349 68.0997 57.734 67.9803C57.7741 67.5447 57.9042 67.1221 58.116 66.7393C58.3707 66.2069 58.5484 65.9479 58.6491 65.9623V65.9515Z" fill="white"/>
<path d="M61.4203 66.1779C61.3165 66.4929 61.1798 66.796 61.0124 67.0822C60.9355 67.2192 60.8355 67.3419 60.7167 67.4448C60.6151 67.5063 60.5073 67.557 60.3951 67.5959C60.2527 67.6477 60.0347 67.7232 59.7476 67.8117C59.5792 67.8763 59.4051 67.9247 59.2275 67.9563C59.193 67.9563 59.1757 67.9563 59.1757 67.9326C59.1433 67.8851 59.316 67.734 59.7002 67.475C60.0843 67.216 60.3282 67.0434 60.4405 66.9657C60.5701 66.8658 60.6843 66.7472 60.7793 66.6139C60.8964 66.4566 60.9828 66.2787 61.034 66.0894C60.9712 66.0828 60.9079 66.0956 60.8527 66.1261C60.7978 66.1566 60.7363 66.1729 60.6736 66.1736C60.5287 66.1745 60.3886 66.1214 60.2807 66.0247C60.2328 65.987 60.1953 65.9377 60.1718 65.8813C60.1484 65.825 60.1398 65.7637 60.1469 65.7031C60.162 65.6297 60.1879 65.5477 60.2182 65.4527C60.2746 65.2979 60.3402 65.1465 60.4146 64.9995C60.5001 64.8193 60.6019 64.6474 60.7189 64.4858C60.7516 64.4311 60.7961 64.3844 60.8491 64.3489C60.9021 64.3135 60.9623 64.2902 61.0253 64.2808C61.1092 64.2803 61.192 64.2995 61.267 64.337C61.342 64.3745 61.4071 64.4292 61.457 64.4966C61.5748 64.6482 61.6373 64.8356 61.634 65.0275C61.6337 65.1321 61.6279 65.2365 61.6167 65.3405C61.6038 65.4441 61.5908 65.5304 61.5757 65.5995C61.5606 65.6685 61.5412 65.757 61.5131 65.8649C61.4851 65.9729 61.4527 66.0873 61.4203 66.1779Z" fill="white"/>
<path d="M65.5448 64.0608C65.3376 64.8119 65.1038 65.2537 64.8434 65.386C64.6132 65.4909 64.3898 65.6098 64.1743 65.7421C64.1167 65.7853 64.0639 65.8345 64.0167 65.8889C63.9195 66.0324 63.8378 66.1858 63.7729 66.3465C63.6347 66.7004 63.5246 66.9724 63.4405 67.1623C63.3175 67.4384 63.0981 67.6602 62.8232 67.786C62.4859 67.8977 62.1368 67.9701 61.7829 68.0019C61.6728 68.0148 61.6016 67.9889 61.5671 67.9263C61.5326 67.8637 61.5995 67.8357 61.6923 67.7666L62.0398 67.5119C62.0592 67.4925 62.2103 67.3911 62.493 67.2141C62.7088 67.0652 62.8146 66.9983 62.8016 66.9983C62.9831 66.8617 63.1515 66.7086 63.3045 66.5407C63.4149 66.3356 63.5136 66.1245 63.6002 65.9083C63.7051 65.6467 63.8352 65.3959 63.9887 65.1594C64.1057 65.0163 64.2457 64.8938 64.4031 64.7968L64.7765 64.6004C64.8933 64.5475 65.0035 64.4809 65.1045 64.4019C65.1933 64.3045 65.2661 64.1938 65.3203 64.0738C65.4131 63.9076 65.4779 63.8278 65.5167 63.8321C65.5556 63.8364 65.575 63.9184 65.5448 64.0608ZM62.0527 62.2932C62.1186 62.0915 62.2077 61.8981 62.3182 61.717C62.4973 61.3846 62.6074 61.2162 62.6484 61.2162C62.7701 61.2446 62.8811 61.3075 62.9678 61.3975C63.0905 61.4904 63.1915 61.609 63.2635 61.745C63.3563 61.5918 63.4448 61.445 63.529 61.3004C63.6498 61.0975 63.7254 60.9961 63.7448 60.9961C63.8953 61.0212 64.0325 61.0974 64.1333 61.2119C64.2626 61.3253 64.3443 61.4833 64.3621 61.6544C64.3452 61.8648 64.2705 62.0664 64.1462 62.2371C63.9908 62.4529 63.8786 62.5716 63.8117 62.5738C63.7448 62.5759 63.68 62.5198 63.5764 62.4162C63.4713 62.2929 63.355 62.1794 63.229 62.0774C62.998 62.5501 62.8189 62.7875 62.6872 62.7875C62.5632 62.7282 62.4489 62.6503 62.3484 62.5565C62.152 62.4098 62.0527 62.317 62.0527 62.2932ZM62.6246 60.7177C62.6844 60.5233 62.7632 60.3354 62.8599 60.1565C63.0182 59.8241 63.1196 59.658 63.1642 59.658C63.3181 59.6765 63.4589 59.7538 63.557 59.8738C63.6827 59.9955 63.7594 60.1591 63.7729 60.3335C63.7528 60.5382 63.6855 60.7354 63.5764 60.9098C63.4448 61.1558 63.3477 61.2788 63.2829 61.2788C63.2182 61.2788 63.1599 61.2206 63.0304 61.1062C62.9009 60.9918 62.7973 60.9076 62.7282 60.858C62.6592 60.8083 62.6246 60.7587 62.6246 60.7177ZM63.0326 72.2364C63.0945 72.0339 63.1792 71.8392 63.2851 71.6558C63.4556 71.3213 63.5592 71.1529 63.5959 71.1529C63.6649 71.1529 63.7685 71.2134 63.9067 71.3364C64.0222 71.4309 64.1176 71.5476 64.1872 71.6796C64.2757 71.5328 64.3577 71.386 64.4376 71.2479C64.5541 71.0407 64.6261 70.9371 64.6534 70.9371C64.7968 70.9601 64.9259 71.0374 65.0139 71.1529C65.1378 71.2706 65.2146 71.4295 65.2297 71.5997C65.2108 71.8097 65.1363 72.0108 65.0139 72.1825C64.8714 72.3983 64.7657 72.5191 64.6988 72.5191C64.6318 72.5191 64.5736 72.4673 64.4829 72.3616C64.3798 72.2459 64.2671 72.1391 64.1462 72.0422C63.9304 72.5148 63.7577 72.7522 63.6304 72.7522C63.5115 72.691 63.4024 72.6125 63.3067 72.5191C63.1211 72.3573 63.0282 72.2645 63.0282 72.2364H63.0326ZM63.6326 73.4148C63.6997 73.2395 63.7835 73.0711 63.8829 72.912C64.0448 72.6184 64.1462 72.4803 64.1851 72.4803C64.2529 72.4951 64.3172 72.5231 64.3742 72.5627C64.4313 72.6023 64.4799 72.6528 64.5175 72.7112C64.6277 72.8277 64.6881 72.9826 64.6858 73.1429C64.6621 73.3387 64.5918 73.5259 64.4808 73.6889C64.347 73.9048 64.2541 73.9997 64.2045 73.9997C64.1539 73.984 64.1109 73.9502 64.0836 73.9048C64.0189 73.8422 63.9541 73.7753 63.8872 73.704L63.7189 73.5594C63.6563 73.4968 63.6282 73.4537 63.6282 73.4148H63.6326Z" fill="white"/>
<path d="M29.1454 67.2311C29.1454 67.1599 28.9922 67.0542 28.6879 66.9182C28.3836 66.7822 28.2239 66.6096 28.2239 66.3937C28.2287 66.2221 28.2607 66.0524 28.3188 65.8908C28.3822 65.7062 28.4609 65.5271 28.5541 65.3556C28.5725 65.326 28.6008 65.3039 28.6339 65.293C28.6678 65.2803 28.7036 65.2737 28.7397 65.2736C28.7735 65.2735 28.8071 65.2793 28.839 65.2908C28.8524 65.296 28.8642 65.3047 28.873 65.3162C28.8817 65.3276 28.8872 65.3413 28.8886 65.3556C28.8886 65.4139 28.9382 65.4721 29.0332 65.5304C29.1282 65.5887 29.2231 65.6534 29.3203 65.7225C29.4107 65.7817 29.4849 65.8626 29.5361 65.9578C29.584 66.0964 29.6059 66.2428 29.6008 66.3894C29.6004 66.6803 29.5656 66.97 29.4972 67.2527C29.3972 67.6142 29.265 67.9659 29.1023 68.3038C28.8232 68.9151 28.394 69.446 27.8548 69.847C27.6767 69.9615 27.4863 70.0556 27.2872 70.1275C27.0785 70.1973 26.8597 70.2323 26.6397 70.2311C26.3964 70.2455 26.1534 70.198 25.9333 70.0931C25.7133 69.9881 25.5234 69.8292 25.3814 69.6311C25.117 69.2403 24.9839 68.7754 25.0015 68.3038C25.0115 67.9846 25.0608 67.6678 25.1483 67.3606C25.234 67.0326 25.3385 66.7098 25.4613 66.3937C25.5778 66.1088 25.6771 65.8714 25.7613 65.6772C25.785 65.6297 25.8217 65.5606 25.867 65.4613C25.9123 65.3621 25.9728 65.2455 26.0418 65.0923C26.0936 64.9995 26.1368 64.9131 26.1778 64.8376C26.2188 64.7621 26.249 64.6952 26.2749 64.6347C26.3375 64.5203 26.385 64.4664 26.4195 64.4707C26.4541 64.475 26.4778 64.5268 26.4584 64.6153C26.4413 64.7087 26.4138 64.7999 26.3764 64.8872C26.0814 65.5793 25.8771 66.0628 25.7634 66.3376C25.5996 66.7063 25.501 67.1007 25.4721 67.5031C25.4721 68.0211 25.6339 68.3916 25.9577 68.6146C26.2341 68.7798 26.5533 68.8594 26.8749 68.8434C27.4901 68.862 28.0911 68.6573 28.567 68.2671C28.9541 67.9362 29.1469 67.5909 29.1454 67.2311Z" fill="white"/>
</svg>
