<svg width="64" height="53" viewBox="0 0 64 53" fill="none" xmlns="http://www.w3.org/2000/svg">
<path fill-rule="evenodd" clip-rule="evenodd" d="M33.8991 1.97293C33.0828 1.97293 32.3685 1.56502 32.002 0.962044C31.6332 1.56502 30.9207 1.97293 30.1021 1.97293C28.99 1.97293 28.0728 1.21957 27.9503 0.25C27.9001 0.446028 27.875 0.646861 27.875 0.847694C27.875 2.17425 28.9398 3.25 30.256 3.25C30.944 3.25 31.5637 2.95596 31.9992 2.48655C32.4318 2.95596 33.0537 3.25 33.7412 3.25C35.0579 3.25 36.125 2.17425 36.125 0.847694C36.125 0.646861 36.1005 0.446028 36.0503 0.25C35.9272 1.21957 35.0106 1.97293 33.8991 1.97293ZM30.0581 5.46022L30.4295 25.9802C27.5566 23.6873 25.4573 20.1511 24.8433 15.9728C24.2283 11.7935 25.2218 7.79101 27.3104 4.75094C24.3581 7.18962 22.4044 10.9518 22.2587 15.2379C22.0674 20.8721 25.0546 25.8429 29.5073 28.1913C27.7638 28.766 25.9163 28.9236 24.1047 28.6506C24.0036 28.6357 23.9036 28.6186 23.8036 28.6015C25.5044 29.3407 27.3407 29.6868 29.1841 29.6147C29.6601 29.5965 30.1346 29.5506 30.6064 29.478L31.9985 31.75L33.3916 29.478C33.8619 29.5506 34.3369 29.5965 34.8134 29.6147C36.6573 29.6873 38.4946 29.3412 40.1965 28.6015C40.0959 28.6186 39.9954 28.6357 39.8944 28.6506C38.0827 28.9236 36.2362 28.7655 34.4923 28.1903C38.9455 25.8429 41.9322 20.8748 41.7414 15.2379C41.5957 10.9518 39.6415 7.18909 36.6896 4.75094C38.7782 7.79101 39.7713 11.7941 39.1568 15.9728C38.5423 20.1511 36.4414 23.6873 33.5701 25.9786L33.9394 5.46022C33.1115 5.22628 32.4837 4.62917 31.9985 4C31.5164 4.62917 30.886 5.22628 30.0581 5.46022ZM44.8455 16.939C44.8455 20.6974 43.5163 24.0924 41.3848 26.5C45.3287 24.3864 47.7556 20.4769 47.75 16.2487C47.75 10.6576 43.5848 5.97373 38 4.75C42.0214 6.75596 44.8455 11.4593 44.8455 16.939ZM16.25 16.2487C16.2438 20.4769 18.6714 24.3864 22.6152 26.5C20.4837 24.0924 19.1545 20.6974 19.1545 16.939C19.1545 11.4593 21.9781 6.75596 26 4.75C20.4152 5.97373 16.25 10.6587 16.25 16.2487Z" fill="white"/>
<path d="M61.1292 43.8724C61.2302 43.8812 61.4412 43.7164 61.762 43.378C61.8411 43.3473 61.9268 43.3143 62.019 43.2792C62.0981 43.2528 62.186 43.1913 62.2827 43.0946C62.375 43.0023 62.4739 42.91 62.5793 42.8177C62.6892 42.7255 62.7815 42.5892 62.8562 42.409C62.9441 42.2113 63.0056 42.0157 63.0408 41.8224C63.054 41.7696 63.0562 41.7235 63.0474 41.684C63.0386 41.6444 63.0188 41.6268 62.988 41.6312C62.9749 41.6312 62.943 41.696 62.8925 41.8257C62.8419 41.9553 62.7925 42.0509 62.7441 42.1124C62.7002 42.1783 62.6442 42.2003 62.5761 42.1783C62.5079 42.1564 62.4651 42.1476 62.4475 42.152C62.3333 42.5211 62.208 42.6815 62.0718 42.6332C62.0498 42.6244 62.0015 42.598 61.9268 42.5541C61.7817 42.8002 61.6686 42.9496 61.5873 43.0023C61.506 43.055 61.4302 43.0704 61.3599 43.0485L61.1292 43.0089C61.0896 43.0748 61.0643 43.1506 61.0533 43.2363C61.0424 43.322 61.0402 43.4055 61.0468 43.4868C61.0533 43.5681 61.0654 43.6439 61.083 43.7142C61.1006 43.7845 61.116 43.8373 61.1292 43.8724ZM59.4417 38.5594C59.5823 38.5594 59.7712 38.3199 60.0085 37.8409C60.1052 37.9112 60.2173 38.0101 60.3447 38.1376C60.4722 38.265 60.5601 38.3287 60.6084 38.3287C60.6831 38.3287 60.7996 38.2167 60.9578 37.9925C61.1204 37.764 61.2017 37.5663 61.2017 37.3993C61.1929 37.2587 61.1127 37.1081 60.9611 36.9477C60.8095 36.7873 60.6787 36.7071 60.5689 36.7071C60.5337 36.7071 60.4623 36.7972 60.3546 36.9774C60.247 37.1576 60.1492 37.3202 60.0613 37.4652C59.9866 37.3597 59.8778 37.2378 59.735 37.0994C59.5922 36.9609 59.4834 36.9071 59.4087 36.9379C59.3691 36.9379 59.2593 37.107 59.0791 37.4454C58.8989 37.7838 58.8088 37.9816 58.8088 38.0387C58.8088 38.0651 58.8737 38.131 59.0033 38.2364C59.1329 38.3419 59.2285 38.421 59.29 38.4737C59.356 38.5309 59.4065 38.5594 59.4417 38.5594ZM59.2571 45.2501C59.5779 45.2501 59.8679 45.0392 60.1272 44.6173C60.3689 44.1954 60.604 43.9471 60.8325 43.8724C60.8984 43.8505 60.9973 43.8505 61.1292 43.8724C61.1511 43.8109 61.1687 43.7538 61.1819 43.701C61.1995 43.6439 61.2083 43.5714 61.2083 43.4835C61.2083 43.4 61.1973 43.3044 61.1753 43.1968C61.1533 43.0891 61.1379 43.0265 61.1292 43.0089C61.0369 43.0089 60.9391 43.0507 60.8358 43.1341C60.7325 43.2176 60.6084 43.3561 60.4634 43.5494C60.27 43.8131 60.0239 43.9449 59.7251 43.9449C59.5098 43.9449 59.3208 43.8724 59.1582 43.7274C58.9429 43.5297 58.8352 43.2111 58.8352 42.7716C58.7122 42.8419 58.6045 42.9705 58.5122 43.1572C58.4199 43.344 58.3364 43.5648 58.2617 43.8197C58.2661 44.2108 58.3518 44.5404 58.5188 44.8085C58.6858 45.0765 58.9319 45.2237 59.2571 45.2501ZM58.2617 43.8197C58.3584 43.8329 58.4408 43.8164 58.5089 43.7703C58.577 43.7241 58.6331 43.6538 58.677 43.5593C58.721 43.4648 58.7561 43.3506 58.7825 43.2165C58.8088 43.0825 58.8264 42.932 58.8352 42.765C58.8352 42.7386 58.8462 42.5848 58.8682 42.3036C58.8901 42.0223 58.9495 41.5038 59.0461 40.7479C59.1428 39.9921 59.1978 39.4801 59.2109 39.212C59.2109 39.1769 59.1989 39.1549 59.1747 39.1461C59.1505 39.1373 59.1274 39.1593 59.1055 39.212C58.8901 39.7569 58.7473 40.1371 58.677 40.3524C58.5408 41.0951 58.4386 41.7729 58.3705 42.386C58.3024 42.999 58.2661 43.4769 58.2617 43.8197ZM55.5195 45.2633C55.5591 45.2633 55.6118 45.2567 55.6777 45.2435C56.2183 45.1073 56.6314 44.8942 56.917 44.6041C57.084 44.4371 57.2477 44.1921 57.4081 43.8691C57.5685 43.5461 57.6597 43.1693 57.6816 42.7386C57.6816 42.163 57.3982 41.7037 56.8313 41.361C56.7302 41.2994 56.6643 41.3148 56.6335 41.4071C56.4314 41.8553 56.2644 42.2069 56.1326 42.4618C56.0974 42.5716 56.126 42.6639 56.2183 42.7386C56.7192 43.1473 56.9697 43.4659 56.9697 43.6944C56.9697 43.7823 56.8357 43.9603 56.5676 44.2284C56.2908 44.5096 55.9941 44.7601 55.6777 44.9798C55.5195 45.0941 55.4404 45.1754 55.4404 45.2237C55.4404 45.2501 55.4668 45.2633 55.5195 45.2633ZM53.7266 44.8843C53.7529 44.8996 53.7903 44.8854 53.8386 44.8414C53.8782 44.7975 53.9298 44.7272 53.9935 44.6305C54.0573 44.5338 54.144 44.3393 54.2539 44.0471C54.3638 43.7549 54.4363 43.4198 54.4714 43.0419C54.4934 42.8661 54.5066 42.6507 54.511 42.3959C54.5154 42.141 54.522 41.8553 54.5308 41.5389C54.5308 41.4642 54.5341 41.35 54.5407 41.1962C54.5472 41.0423 54.5549 40.8852 54.5637 40.7248C54.5725 40.5644 54.5824 40.4194 54.5934 40.2898C54.6044 40.1601 54.6143 40.0778 54.6231 40.0426C54.6274 40.0074 54.6143 39.9833 54.5835 39.9701C54.5527 39.9569 54.5176 39.9811 54.478 40.0426C54.4297 40.1393 54.3759 40.2502 54.3165 40.3755C54.2572 40.5007 54.2012 40.6337 54.1484 40.7743C54.0957 40.9149 54.0485 41.0577 54.0067 41.2028C53.965 41.3478 53.9353 41.4884 53.9177 41.6246C53.887 41.8575 53.876 42.1948 53.8848 42.6365C53.8936 43.0781 53.8914 43.4198 53.8782 43.6615C53.865 43.9032 53.832 44.1526 53.7793 44.4097C53.7266 44.6667 53.7002 44.7997 53.7002 44.8085C53.6914 44.8436 53.7002 44.8689 53.7266 44.8843ZM51.3469 42.7518C51.3909 42.7079 51.4425 42.6518 51.5018 42.5837C51.5612 42.5156 51.6216 42.4398 51.6831 42.3563C51.7446 42.2728 51.8051 42.186 51.8644 42.0959C51.9237 42.0059 51.9797 41.9147 52.0325 41.8224C52.116 41.6598 52.1841 41.5312 52.2368 41.4368C52.2896 41.3423 52.3412 41.261 52.3917 41.1929C52.4423 41.1247 52.5027 41.0643 52.573 41.0116C52.7004 40.9193 52.7773 40.8622 52.8037 40.8402C52.8301 40.8182 52.8652 40.7391 52.9092 40.6029C52.918 40.5765 52.9345 40.5249 52.9586 40.448C52.9828 40.3711 53.0015 40.3041 53.0147 40.2469C53.0278 40.1898 53.0125 40.1612 52.9685 40.1612C52.7708 40.3063 52.5708 40.3788 52.3687 40.3788C52.272 40.3788 52.1555 40.3546 52.0193 40.3063C51.804 40.236 51.6238 40.2008 51.4788 40.2008C51.281 40.2008 51.1107 40.2634 50.9679 40.3887C50.8251 40.5139 50.6987 40.704 50.5889 40.9589C50.5625 41.0204 50.5427 41.083 50.5295 41.1467C50.5164 41.2104 50.5186 41.2467 50.5361 41.2555C50.5889 41.2643 50.6515 41.2148 50.724 41.1072C50.7965 40.9995 50.8778 40.916 50.9679 40.8567C51.058 40.7974 51.1711 40.7721 51.3074 40.7809C51.4568 40.7897 51.615 40.8259 51.782 40.8896C51.949 40.9534 52.0501 41.0028 52.0852 41.038C51.782 41.495 51.5864 41.7631 51.4985 41.8422C51.4634 41.8729 51.4128 41.9081 51.3469 41.9476C51.303 42.0839 51.2854 42.2179 51.2942 42.3497C51.303 42.4816 51.3206 42.6156 51.3469 42.7518ZM51.7424 47.7286C51.8127 47.7286 51.9248 47.5968 52.0786 47.3331C52.2324 47.0694 52.3093 46.8673 52.3093 46.7267C52.2961 46.6212 52.1973 46.4751 52.0127 46.2883C51.8281 46.1016 51.6875 46.0279 51.5908 46.0675C51.5425 46.0675 51.4359 46.229 51.2711 46.552C51.1063 46.875 51.0239 47.0848 51.0239 47.1815C51.0239 47.2298 51.0569 47.276 51.1228 47.3199C51.1975 47.3727 51.3129 47.4507 51.4689 47.5539C51.6249 47.6572 51.7161 47.7154 51.7424 47.7286ZM47.9324 45.2501C47.9939 45.2501 48.0466 45.2457 48.0906 45.2369C48.6487 45.171 49.0354 45.0611 49.2507 44.9073C49.4661 44.7579 49.6858 44.4569 49.9099 44.0043C50.033 43.7582 50.1406 43.589 50.2329 43.4967C50.3735 43.3517 50.6043 43.2023 50.9251 43.0485C51.0745 42.9781 51.1953 42.8968 51.2876 42.8046C51.3667 42.7298 51.4436 42.631 51.5183 42.5079C51.5447 42.4552 51.593 42.3695 51.6633 42.2508L51.8743 42.0597L51.3469 41.9344C51.2942 41.9696 51.0986 42.0817 50.7603 42.2706C50.5493 42.3761 50.3626 42.5255 50.2 42.7189C50.0549 42.8946 49.8726 43.2067 49.6528 43.6549C49.5869 43.7999 49.4485 43.9493 49.2376 44.1031C49.0881 44.2086 48.8552 44.3514 48.5388 44.5316C48.4334 44.5931 48.2752 44.6876 48.0642 44.8151C47.7961 44.9864 47.6621 45.1227 47.6621 45.2237C47.6621 45.2413 47.7017 45.2501 47.7808 45.2501H47.9324ZM46.2844 44.8843C46.3108 44.8996 46.3481 44.8854 46.3965 44.8414C46.436 44.7975 46.4877 44.7272 46.5514 44.6305C46.6151 44.5338 46.7019 44.3393 46.8118 44.0471C46.9216 43.7549 46.9941 43.4198 47.0293 43.0419C47.0513 42.8661 47.0645 42.6507 47.0689 42.3959C47.0732 42.141 47.0798 41.8553 47.0886 41.5389C47.0886 41.4642 47.0919 41.35 47.0985 41.1962C47.1051 41.0423 47.1128 40.8852 47.1216 40.7248C47.1304 40.5644 47.1403 40.4194 47.1512 40.2898C47.1622 40.1601 47.1721 40.0778 47.1809 40.0426C47.1853 40.0074 47.1721 39.9833 47.1414 39.9701C47.1106 39.9569 47.0754 39.9811 47.0359 40.0426C46.9876 40.1393 46.9337 40.2502 46.8744 40.3755C46.8151 40.5007 46.759 40.6337 46.7063 40.7743C46.6536 40.9149 46.6063 41.0577 46.5646 41.2028C46.5228 41.3478 46.4932 41.4884 46.4756 41.6246C46.4448 41.8575 46.4338 42.1948 46.4426 42.6365C46.4514 43.0781 46.4492 43.4198 46.436 43.6615C46.4229 43.9032 46.3899 44.1526 46.3372 44.4097C46.2844 44.6667 46.2581 44.7997 46.2581 44.8085C46.2493 44.8436 46.2581 44.8689 46.2844 44.8843ZM44.3695 42.475C44.4069 42.475 44.4431 42.4673 44.4783 42.4519C44.5134 42.4365 44.5376 42.4134 44.5508 42.3827C44.6475 42.1322 44.7452 41.8806 44.8441 41.6279C44.943 41.3752 45.043 41.1236 45.144 40.8732C45.3154 40.4073 45.4011 40.0206 45.4011 39.713C45.4011 39.4142 45.3352 39.1219 45.2034 38.8363C45.0627 38.5507 44.9177 38.3837 44.7683 38.3353C44.7068 38.4584 44.6167 38.6957 44.4981 39.0472C44.4717 39.1175 44.4431 39.201 44.4124 39.2977C44.3816 39.3944 44.3464 39.5043 44.3069 39.6273C44.2981 39.6713 44.3201 39.7328 44.3728 39.8119C44.3948 39.8558 44.4189 39.8998 44.4453 39.9437L44.5244 40.0756C44.5815 40.1898 44.6409 40.3238 44.7024 40.4777C44.7551 40.6183 44.7815 40.7172 44.7815 40.7743C44.7815 40.9413 44.6826 41.2555 44.4849 41.7169C44.4453 41.8092 44.3508 42.0311 44.2014 42.3827C44.2102 42.4134 44.2311 42.4365 44.264 42.4519C44.297 42.4673 44.3322 42.475 44.3695 42.475ZM43.7334 50.7015C43.874 50.7015 44.063 50.462 44.3003 49.983C44.397 50.0533 44.509 50.1522 44.6365 50.2797C44.7639 50.4071 44.8518 50.4708 44.9002 50.4708C44.9749 50.4708 45.0913 50.3588 45.2495 50.1346C45.4121 49.9061 45.4934 49.7084 45.4934 49.5414C45.4846 49.4007 45.4044 49.2502 45.2528 49.0898C45.1012 48.9294 44.9705 48.8492 44.8606 48.8492C44.8254 48.8492 44.754 48.9393 44.6464 49.1195C44.5387 49.2997 44.4409 49.4623 44.353 49.6073C44.2783 49.5018 44.1696 49.3799 44.0267 49.2414C43.8839 49.103 43.7752 49.0492 43.7004 49.0799C43.6609 49.0799 43.551 49.2491 43.3709 49.5875C43.1907 49.9259 43.1006 50.1236 43.1006 50.1808C43.1006 50.2071 43.1654 50.2731 43.295 50.3785C43.4247 50.484 43.5203 50.5631 43.5818 50.6158C43.6477 50.673 43.6982 50.7015 43.7334 50.7015ZM42.1777 47.4518C42.4194 47.4518 42.6458 47.4166 42.8567 47.3463C43.0501 47.2804 43.2478 47.1837 43.45 47.0563C43.9993 46.6564 44.4343 46.1202 44.7551 45.4479C44.9573 45.0128 45.0957 44.6481 45.1704 44.3536C45.2451 44.0504 45.2825 43.7538 45.2825 43.4637C45.2825 43.266 45.2605 43.1166 45.2166 43.0155C45.1726 42.9232 45.1001 42.8408 44.999 42.7683C44.898 42.6958 44.798 42.6288 44.6991 42.5673C44.6002 42.5057 44.5508 42.4442 44.5508 42.3827C44.5464 42.3519 44.5288 42.3299 44.4981 42.3168C44.4673 42.3036 44.4332 42.297 44.3959 42.297C44.3585 42.297 44.3212 42.3036 44.2838 42.3168C44.2465 42.3299 44.219 42.3519 44.2014 42.3827C44.1047 42.5585 44.0223 42.7441 43.9542 42.9397C43.8861 43.1352 43.8521 43.3099 43.8521 43.4637C43.8521 43.6791 44.0125 43.8614 44.3333 44.0109C44.6497 44.1559 44.8079 44.2657 44.8079 44.3404C44.8079 44.714 44.6057 45.0699 44.2014 45.4083C43.7268 45.8038 43.1379 46.0016 42.4348 46.0016C42.0437 46.0016 41.7251 45.9203 41.479 45.7577C41.145 45.5248 40.978 45.1381 40.978 44.5975C40.978 44.3119 41.0813 43.9076 41.2878 43.3846C41.4065 43.099 41.6218 42.5958 41.9338 41.8751C41.969 41.796 41.9976 41.7015 42.0195 41.5917C42.0415 41.4994 42.0283 41.4488 41.98 41.4401C41.9448 41.4357 41.8943 41.4928 41.8284 41.6114C41.802 41.673 41.7679 41.7433 41.7262 41.8224C41.6845 41.9015 41.6372 41.9894 41.5845 42.0861C41.5098 42.2443 41.4482 42.3728 41.3999 42.4717L41.3356 42.601C41.317 42.6378 41.301 42.6683 41.2878 42.6925C41.2 42.8946 41.0945 43.1429 40.9714 43.4374C40.8572 43.723 40.7473 44.0614 40.6418 44.4525C40.5364 44.8568 40.4836 45.1842 40.4836 45.4347C40.4836 45.9972 40.6133 46.4586 40.8726 46.819C41.1758 47.2408 41.6108 47.4518 42.1777 47.4518ZM39.5344 38.098C39.6047 38.098 39.7168 37.9662 39.8706 37.7025C40.0244 37.4388 40.1013 37.2367 40.1013 37.0961C40.0881 36.9906 39.9893 36.8445 39.8047 36.6577C39.6201 36.4709 39.4795 36.3973 39.3828 36.4369C39.3345 36.4369 39.2279 36.5984 39.0631 36.9214C38.8983 37.2444 38.8159 37.4542 38.8159 37.5509C38.8159 37.5992 38.8489 37.6454 38.9148 37.6893C38.9895 37.7421 39.1049 37.8201 39.2609 37.9233C39.4169 38.0266 39.5081 38.0848 39.5344 38.098ZM38.9939 43.6219C39.1653 43.4462 39.307 43.2781 39.4191 43.1177C39.5311 42.9573 39.6377 42.7441 39.7388 42.4783C39.8398 42.2124 39.8904 41.9366 39.8904 41.651C39.8904 41.2819 39.8047 40.9874 39.6333 40.7677C39.4663 40.548 39.2598 40.4381 39.0137 40.4381C38.9214 40.4381 38.8269 40.526 38.7302 40.7018C38.6335 40.8776 38.5654 41.0006 38.5259 41.0709C38.4644 41.2028 38.4028 41.3368 38.3413 41.473C38.2578 41.662 38.2161 41.7784 38.2161 41.8224C38.2161 41.9498 38.2578 42.0487 38.3413 42.119C38.4248 42.1937 38.5193 42.2311 38.6248 42.2311C38.6819 42.2311 38.7456 42.2267 38.8159 42.2179C38.8774 42.2047 38.9302 42.1849 38.9741 42.1586C39.0269 42.1586 39.0862 42.2069 39.1521 42.3036C39.2136 42.4003 39.2444 42.475 39.2444 42.5277C39.2444 42.598 39.1609 42.6925 38.9939 42.8111C38.9412 42.8859 38.906 42.9661 38.8884 43.0517C38.8709 43.1374 38.8643 43.2187 38.8687 43.2956C38.8731 43.3726 38.8862 43.4418 38.9082 43.5033C38.9302 43.5648 38.9587 43.6044 38.9939 43.6219ZM33.938 47.4847C33.9863 47.5111 34.0588 47.5001 34.1555 47.4518C34.2698 47.399 34.4412 47.3155 34.6697 47.2013C34.8279 47.1222 34.9707 47.0453 35.0981 46.9706C35.6519 46.6014 36.1506 46.1334 36.5945 45.5665C36.8098 45.3028 37.0658 44.9886 37.3624 44.6239C37.6591 44.2591 37.9238 44.0306 38.1567 43.9383C38.2139 43.912 38.3611 43.8548 38.5984 43.767C38.8357 43.6791 38.9675 43.6307 38.9939 43.6219C39.0422 43.4857 39.0686 43.3473 39.073 43.2067C39.0774 43.066 39.051 42.9254 38.9939 42.7848C38.9456 42.8024 38.895 42.8221 38.8423 42.8441C38.5566 42.9584 38.3831 43.0309 38.3215 43.0616C38.1589 43.1363 37.9963 43.2308 37.8337 43.3451C37.6755 43.4725 37.5107 43.6329 37.3394 43.8263C37.2207 43.9713 37.0625 44.1822 36.8647 44.4591C36.5176 44.9645 36.2891 45.2831 36.1792 45.4149C36.0254 45.6083 35.9023 45.7445 35.8101 45.8236C35.7266 45.9291 35.5837 46.0763 35.3816 46.2653C35.3113 46.34 35.096 46.5201 34.7356 46.8058L34.1819 47.2013C34.1379 47.2364 34.0984 47.2672 34.0632 47.2936C34.0281 47.3243 33.9973 47.3485 33.971 47.3661C33.927 47.41 33.916 47.4496 33.938 47.4847ZM34.729 45.2501C35.063 45.2501 35.3289 45.0392 35.5266 44.6173C35.6672 44.2965 35.7376 43.9713 35.7376 43.6417C35.7288 43.5538 35.6914 43.4396 35.6255 43.2989C35.5552 43.1671 35.4673 43.121 35.3618 43.1605C35.3179 43.2045 35.2629 43.3319 35.197 43.5428C35.1355 43.7582 35.0916 43.868 35.0652 43.8724C34.9158 43.8724 34.7861 43.7977 34.6763 43.6483C34.5576 43.5033 34.4983 43.2858 34.4983 42.9957V42.7716C34.4456 42.754 34.3851 42.776 34.317 42.8375C34.2489 42.899 34.1863 42.9825 34.1292 43.088C34.072 43.1935 34.0248 43.3121 33.9874 43.444C33.9501 43.5758 33.9314 43.701 33.9314 43.8197C33.9314 44.1053 33.949 44.3426 33.9841 44.5316C34.0193 44.7118 34.105 44.8766 34.2412 45.026C34.3774 45.1754 34.54 45.2501 34.729 45.2501ZM33.9248 43.8197C34.0215 43.8329 34.1039 43.8164 34.172 43.7703C34.2401 43.7241 34.2961 43.6538 34.3401 43.5593C34.384 43.4648 34.4192 43.3506 34.4456 43.2165C34.4719 43.0825 34.4895 42.932 34.4983 42.765C34.4983 42.7386 34.5093 42.5848 34.5313 42.3036C34.5532 42.0223 34.6126 41.5038 34.7092 40.7479C34.8059 39.9921 34.8608 39.4801 34.874 39.212C34.874 39.1769 34.8619 39.1549 34.8378 39.1461C34.8136 39.1373 34.7905 39.1593 34.7686 39.212C34.5532 39.7569 34.4104 40.1371 34.3401 40.3524C34.2039 41.0951 34.1017 41.7729 34.0336 42.386C33.9655 42.999 33.9292 43.4769 33.9248 43.8197ZM29.5149 47.5507C30.5125 47.5419 31.3672 47.0563 32.0791 46.0939C32.7998 45.1007 33.1997 43.9142 33.2788 42.5343C33.2876 42.0069 33.2964 41.6466 33.3052 41.4532C33.314 41.2599 33.3206 41.1291 33.325 41.061C33.3293 40.9929 33.3162 40.9589 33.2854 40.9589C33.2415 40.9589 33.1876 41.0248 33.1239 41.1566C33.0602 41.2884 32.98 41.5005 32.8833 41.7927C32.7866 42.085 32.7295 42.3519 32.7119 42.5936L32.7124 42.7207C32.713 42.7977 32.7139 42.8949 32.7152 43.0122C32.7174 43.2078 32.7185 43.3693 32.7185 43.4967C32.7185 43.8307 32.679 44.0987 32.5999 44.3009C32.3933 44.881 32.0286 45.3446 31.5056 45.6918C30.9783 45.995 30.429 46.1466 29.8577 46.1466C29.3918 46.129 29.0172 46.0104 28.7338 45.7906C28.4503 45.5709 28.2998 45.2501 28.2822 44.8282C28.291 44.2657 28.491 43.5978 28.8821 42.8243C28.9084 42.7452 28.9106 42.6672 28.8887 42.5903C28.8667 42.5134 28.7986 42.5804 28.6843 42.7914C28.0911 43.8417 27.7966 44.8151 27.801 45.7115C27.8186 46.2784 27.979 46.7212 28.2822 47.0398C28.5855 47.3584 28.9963 47.5287 29.5149 47.5507ZM30.6685 44.2877C30.7124 44.2877 30.7717 44.2526 30.8464 44.1822C30.9607 44.0724 31.0519 43.9526 31.12 43.823C31.1881 43.6934 31.2376 43.5758 31.2683 43.4703C31.2991 43.3649 31.3057 43.2682 31.2881 43.1803C31.2705 43.0704 31.2299 42.9759 31.1661 42.8968C31.1024 42.8177 31.0123 42.7331 30.8959 42.6431C30.7794 42.553 30.6816 42.475 30.6025 42.409C30.4663 42.6332 30.3663 42.8024 30.3026 42.9166C30.2389 43.0309 30.1631 43.1869 30.0752 43.3846C30.0488 43.4462 30.0071 43.5362 29.95 43.6549C29.95 43.6901 29.9774 43.734 30.0324 43.7867C30.0873 43.8395 30.1532 43.8977 30.2301 43.9614C30.307 44.0251 30.3927 44.0955 30.4872 44.1724C30.5817 44.2493 30.6421 44.2877 30.6685 44.2877ZM23.8818 42.4177L23.9316 42.4156C24.0503 42.3981 24.1909 42.3585 24.3535 42.297C24.4326 42.2706 24.5018 42.2465 24.5612 42.2245C24.6205 42.2025 24.6699 42.1849 24.7095 42.1717C24.916 42.0926 25.0281 42.0465 25.0457 42.0333C25.1687 41.9806 25.3027 41.9125 25.4478 41.829C25.606 41.7367 25.7883 41.6027 25.9949 41.4269C26.1003 41.339 26.2058 41.2489 26.3113 41.1566C26.4167 41.0643 26.5222 40.9654 26.6277 40.86L27.5308 39.9767C27.5747 39.9327 27.6406 39.8789 27.7285 39.8152C27.8164 39.7515 27.8801 39.7064 27.9197 39.68C27.9504 39.6625 28.012 39.5922 28.1042 39.4691C28.1877 39.3592 28.2537 39.267 28.302 39.1923C28.3459 39.1132 28.3679 39.0362 28.3679 38.9615C28.3679 38.878 28.3262 38.8473 28.2427 38.8693L28.2485 38.8691L28.2358 38.8753C28.2162 38.885 28.1792 38.9023 28.1248 38.9274L28.0647 38.9549C27.9768 38.9945 27.8669 39.0143 27.7351 39.0143C27.5989 39.0143 27.4363 38.9879 27.2473 38.9352C26.9749 38.8561 26.7046 38.7704 26.4365 38.6781C26.3398 38.6605 26.23 38.6891 26.1069 38.7638C25.9751 38.8517 25.8477 38.9857 25.7246 39.1659C25.6191 39.3153 25.5532 39.423 25.5269 39.4889C25.4917 39.5636 25.4939 39.6031 25.5334 39.6075C25.5598 39.6207 25.6367 39.5636 25.7642 39.4361C25.8564 39.3439 25.9476 39.2867 26.0377 39.2648C26.1278 39.2428 26.2388 39.2582 26.3706 39.3109L27.1946 39.6471C26.9221 39.9591 26.7156 40.1854 26.575 40.326C26.3728 40.5194 26.219 40.6622 26.1135 40.7545C25.9773 40.8776 25.7949 41.016 25.5664 41.1698C25.3379 41.3236 25.1292 41.4466 24.9402 41.5389C24.1755 41.8905 23.7932 42.1652 23.7932 42.3629C23.7932 42.4069 23.8394 42.4244 23.9316 42.4156L23.8818 42.4177ZM23.2725 37.9728C23.3428 37.9728 23.4548 37.8409 23.6086 37.5773C23.7625 37.3136 23.8394 37.1114 23.8394 36.9708C23.8262 36.8653 23.7273 36.7192 23.5427 36.5325C23.3582 36.3457 23.2175 36.2721 23.1209 36.3116C23.0725 36.3116 22.9659 36.4731 22.8011 36.7961C22.6364 37.1191 22.554 37.329 22.554 37.4257C22.554 37.474 22.5869 37.5201 22.6528 37.5641C22.7275 37.6168 22.8429 37.6948 22.9989 37.7981C23.1549 37.9014 23.2461 37.9596 23.2725 37.9728ZM22.7649 42.7452C22.9583 42.7452 23.1516 42.7255 23.345 42.6859C23.5295 42.6464 23.7031 42.576 23.8657 42.475C24.3096 42.2069 24.6787 41.8553 24.9731 41.4203C25.3423 40.8885 25.5269 40.4447 25.5269 40.0887C25.5269 39.9261 25.4719 39.8053 25.3621 39.7262C25.2566 39.6427 25.1313 39.6009 24.9863 39.6009C24.8897 39.6009 24.771 39.6295 24.6304 39.6866C24.4941 39.7482 24.3711 39.8382 24.2612 39.9569C24.1514 40.0756 24.0107 40.2535 23.8394 40.4908C23.7603 40.6095 23.668 40.7424 23.5625 40.8896C23.457 41.0369 23.3428 41.1962 23.2197 41.3675C23.1055 41.3719 22.9912 41.3774 22.877 41.384C22.7627 41.3906 22.6484 41.4027 22.5342 41.4203C22.4727 41.6444 22.4518 41.8652 22.4716 42.0828C22.4913 42.3003 22.5122 42.5211 22.5342 42.7452H22.7649ZM23.6454 41.3829L23.5032 41.3807C23.5691 41.2928 23.6361 41.2028 23.7042 41.1105C23.7723 41.0182 23.8394 40.9237 23.9053 40.827C24.1426 40.515 24.3733 40.359 24.5974 40.359C24.7073 40.3458 24.8193 40.3656 24.9336 40.4183C25.0391 40.4667 25.0918 40.5084 25.0918 40.5436C25.0918 40.6359 25.0347 40.7435 24.9204 40.8666C24.7534 41.0599 24.5205 41.2137 24.2217 41.328C24.0898 41.3719 23.8503 41.3895 23.5032 41.3807L23.6454 41.3829ZM16.5356 47.2672C16.584 47.298 16.6455 47.298 16.7202 47.2672C16.7598 47.254 16.7949 47.2408 16.8257 47.2277C16.8521 47.2189 16.874 47.2101 16.8916 47.2013C17.0938 47.1178 17.2827 47.0244 17.4585 46.9211C17.6343 46.8179 17.8254 46.6915 18.032 46.5421C18.2385 46.3927 18.5 46.1631 18.8164 45.8533C19.1328 45.5434 19.4437 45.1743 19.7491 44.7458C20.0546 44.3174 20.316 43.9647 20.5336 43.6879C20.7511 43.411 21.0225 43.1825 21.3477 43.0023C21.5718 42.8968 21.7476 42.8265 21.875 42.7914C22.02 42.7518 22.1508 42.732 22.2672 42.732C22.3837 42.732 22.4727 42.7364 22.5342 42.7452C22.5781 42.6573 22.6188 42.5596 22.6561 42.4519C22.6935 42.3442 22.7166 42.2333 22.7253 42.119C22.7341 42.0048 22.7253 41.8883 22.699 41.7696C22.6726 41.651 22.6177 41.5345 22.5342 41.4203C22.4858 41.4291 22.4386 41.4379 22.3925 41.4466C22.3463 41.4554 22.2991 41.4708 22.2507 41.4928C21.9695 41.5983 21.6729 41.7609 21.3608 41.9806C21.0488 42.2003 20.7258 42.5167 20.3918 42.9298C20.2776 43.066 20.0249 43.4176 19.6338 43.9845C19.5283 44.1559 19.4163 44.3207 19.2976 44.4789C19.0471 44.8744 18.7824 45.2226 18.5033 45.5237C18.2242 45.8247 17.9518 46.0818 17.6859 46.2949C17.42 46.508 17.1816 46.6827 16.9707 46.819C16.7861 46.964 16.6609 47.0716 16.595 47.142C16.5422 47.2035 16.5225 47.2452 16.5356 47.2672ZM13.7144 41.5389C13.855 41.5389 14.0439 41.2994 14.2813 40.8204C14.3779 40.8907 14.49 40.9896 14.6174 41.1171C14.7449 41.2445 14.8328 41.3082 14.8811 41.3082C14.9558 41.3082 15.0723 41.1962 15.2305 40.972C15.3931 40.7435 15.4744 40.5458 15.4744 40.3788C15.4656 40.2382 15.3854 40.0876 15.2338 39.9272C15.0822 39.7668 14.9514 39.6866 14.8416 39.6866C14.8064 39.6866 14.735 39.7767 14.6273 39.9569C14.5197 40.1371 14.4219 40.2997 14.334 40.4447C14.2593 40.3392 14.1505 40.2173 14.0077 40.0788C13.8649 39.9404 13.7561 39.8866 13.6814 39.9174C13.6418 39.9174 13.532 40.0865 13.3518 40.4249C13.1716 40.7633 13.0815 40.9611 13.0815 41.0182C13.0815 41.0445 13.1464 41.1105 13.276 41.2159C13.4056 41.3214 13.5012 41.4005 13.5627 41.4532C13.6287 41.5104 13.6792 41.5389 13.7144 41.5389ZM12.9695 45.2501C13.4353 45.2501 13.9165 45.2205 14.4131 45.1611C14.9097 45.1018 15.4128 45.0062 15.9226 44.8744C16.2566 44.7821 16.5642 44.6788 16.8455 44.5646C17.1663 44.4195 17.4541 44.2613 17.709 44.09C17.8892 43.9625 18.0419 43.8087 18.1671 43.6285C18.2924 43.4484 18.4187 43.2067 18.5461 42.9034C18.6428 42.6661 18.7 42.4772 18.7175 42.3365C18.7263 42.2355 18.7131 42.1849 18.678 42.1849C18.6516 42.1849 18.5945 42.2596 18.5066 42.409C18.4187 42.5585 18.3022 42.6936 18.1572 42.8144C18.0122 42.9353 17.7661 43.0682 17.4189 43.2132C17.0718 43.3583 16.684 43.478 16.2555 43.5725C15.827 43.667 15.3788 43.7318 14.9108 43.767C14.4427 43.8021 14.0198 43.8197 13.6418 43.8197C12.5564 43.8109 11.7786 43.6944 11.3084 43.4703C11.0667 43.3341 10.9392 43.1825 10.926 43.0155C10.9128 42.8485 10.9008 42.7266 10.8898 42.6496C10.8788 42.5727 10.8513 42.5343 10.8074 42.5343C10.7634 42.5343 10.7305 42.5662 10.7085 42.6299C10.6865 42.6936 10.6547 42.8265 10.6129 43.0287C10.5712 43.2308 10.5349 43.433 10.5042 43.6351C10.4734 43.8373 10.458 43.9933 10.458 44.1031C10.458 44.38 10.5481 44.5997 10.7283 44.7623C10.926 44.9689 11.26 45.1095 11.7302 45.1842C12.0159 45.2281 12.429 45.2501 12.9695 45.2501ZM8.62549 44.8843C8.65186 44.8996 8.68921 44.8854 8.73755 44.8414C8.7771 44.7975 8.82874 44.7272 8.89246 44.6305C8.95618 44.5338 9.04297 44.3393 9.15283 44.0471C9.2627 43.7549 9.33521 43.4198 9.37036 43.0419C9.39233 42.8661 9.40552 42.6507 9.40991 42.3959C9.41431 42.141 9.4209 41.8553 9.42969 41.5389C9.42969 41.4642 9.43298 41.35 9.43958 41.1962C9.44617 41.0423 9.45386 40.8852 9.46265 40.7248C9.47144 40.5644 9.48132 40.4194 9.49231 40.2898C9.5033 40.1601 9.51318 40.0778 9.52197 40.0426C9.52637 40.0074 9.51318 39.9833 9.48242 39.9701C9.45166 39.9569 9.4165 39.9811 9.37695 40.0426C9.32861 40.1393 9.27478 40.2502 9.21546 40.3755C9.15613 40.5007 9.1001 40.6337 9.04736 40.7743C8.99463 40.9149 8.94739 41.0577 8.90564 41.2028C8.86389 41.3478 8.83423 41.4884 8.81665 41.6246C8.78589 41.8575 8.7749 42.1948 8.78369 42.6365C8.79248 43.0781 8.79028 43.4198 8.7771 43.6615C8.76392 43.9032 8.73096 44.1526 8.67822 44.4097C8.67163 44.4418 8.66545 44.472 8.65968 44.5002L8.63002 44.6465C8.60942 44.749 8.59912 44.803 8.59912 44.8085C8.59033 44.8436 8.59912 44.8689 8.62549 44.8843ZM6.89844 45.2501C7.23242 45.2501 7.49829 45.0392 7.69605 44.6173C7.83667 44.2965 7.90698 43.9713 7.90698 43.6417C7.89819 43.5538 7.86084 43.4396 7.79492 43.2989C7.72461 43.1671 7.63672 43.121 7.53125 43.1605C7.48731 43.2045 7.43237 43.3319 7.36646 43.5428C7.30493 43.7582 7.26099 43.868 7.23462 43.8724C7.08521 43.8724 6.95557 43.7977 6.8457 43.6483C6.72705 43.5033 6.66773 43.2858 6.66773 42.9957V42.7716C6.61499 42.754 6.55457 42.776 6.48645 42.8375C6.41834 42.899 6.35571 42.9825 6.29858 43.088C6.24146 43.1935 6.19421 43.3121 6.15686 43.444C6.11951 43.5758 6.10083 43.701 6.10083 43.8197C6.10083 44.1053 6.11841 44.3426 6.15356 44.5316C6.18872 44.7118 6.27441 44.8766 6.41065 45.026C6.54688 45.1754 6.70947 45.2501 6.89844 45.2501ZM6.09424 43.8197C6.19092 43.8329 6.27332 43.8164 6.34143 43.7703C6.40955 43.7241 6.46558 43.6538 6.50952 43.5593C6.55347 43.4648 6.58862 43.3506 6.61499 43.2165C6.64136 43.0825 6.65894 42.932 6.66773 42.765C6.66773 42.7386 6.67871 42.5848 6.70068 42.3036C6.72266 42.0223 6.78198 41.5038 6.87866 40.7479C6.97534 39.9921 7.03027 39.4801 7.04346 39.212C7.04346 39.1769 7.03137 39.1549 7.0072 39.1461C6.98303 39.1373 6.95996 39.1593 6.93799 39.212C6.72266 39.7569 6.57983 40.1371 6.50952 40.3524C6.37329 41.0951 6.27112 41.7729 6.203 42.386C6.13489 42.999 6.09863 43.4769 6.09424 43.8197ZM1.05811 52.0067C1.11963 52.0858 1.15918 51.8935 1.17676 51.4299C1.19434 50.9663 1.21411 50.4181 1.23608 49.7853C1.25806 49.1525 1.3042 48.4746 1.37451 47.7517C1.44482 47.0288 1.53601 46.4169 1.64807 45.9159C1.76013 45.4149 1.89087 45.0326 2.04028 44.7689C2.1897 44.514 2.37756 44.28 2.60388 44.0669C2.8302 43.8538 3.04883 43.7021 3.25977 43.6121C3.4707 43.522 3.67285 43.4549 3.86621 43.411C4.05957 43.3671 4.23425 43.3198 4.39026 43.2693C4.54626 43.2187 4.66931 43.1671 4.7594 43.1144C4.84949 43.0616 4.94397 42.9814 5.04285 42.8738C5.14172 42.7661 5.22522 42.6442 5.29334 42.5079C5.36145 42.3717 5.40649 42.2651 5.42847 42.1882C5.45044 42.1113 5.46143 42.0201 5.46143 41.9147C5.46143 41.7609 5.37573 41.6554 5.20435 41.5983C5.03296 41.5411 4.90772 41.5038 4.82861 41.4862C4.74951 41.4686 4.63306 41.4444 4.47925 41.4137C4.3606 41.3961 4.29248 41.3961 4.2749 41.4137C4.21338 41.4576 4.14087 41.5653 4.05737 41.7367L3.68164 42.4947C3.64648 42.5211 3.57947 42.5607 3.48059 42.6134C3.38171 42.6661 3.26855 42.7353 3.14111 42.821C3.01367 42.9067 2.87195 43.0243 2.71594 43.1737C2.55994 43.3231 2.427 43.4659 2.31714 43.6022C2.09302 43.8878 1.89966 44.202 1.73706 44.5448C1.65796 44.725 1.58545 44.9051 1.51953 45.0853C1.3042 45.7533 1.16797 46.5311 1.11084 47.4188C1.05371 48.3065 1.01855 49.1448 1.00537 49.9336C0.996582 50.4595 0.991699 50.9038 0.990723 51.2666L0.991048 51.6022L0.992188 51.7496C0.992188 51.8727 1.01416 51.9584 1.05811 52.0067Z" fill="white"/>
</svg>
