<svg width="36" height="43" viewBox="0 0 36 43" fill="none" xmlns="http://www.w3.org/2000/svg">
<path fill-rule="evenodd" clip-rule="evenodd" d="M27.6227 42.7273C27.2818 42.4304 26.8816 42.3233 26.4402 42.324C24.6292 42.3271 22.8186 42.3259 21.0076 42.3229C20.9079 42.3229 20.778 42.3748 20.7179 42.2525C20.6601 42.1355 20.7669 42.0499 20.8222 41.964C21.1516 41.4506 21.3062 40.8656 21.4951 40.2942C21.5366 40.1697 21.5759 40.0444 21.6216 39.9213C21.7384 39.607 21.8716 39.5116 22.2047 39.5113C23.4373 39.5101 24.6696 39.5109 25.9023 39.5109C26.2584 39.5105 26.2832 39.4817 26.2328 39.1281C26.08 38.0551 25.2164 37.1168 24.1751 36.8923C22.8064 36.5978 21.5003 37.352 21.0484 38.7033C20.8036 39.4348 20.5662 40.1693 20.3255 40.9023C20.1812 41.3415 19.9538 41.7307 19.6537 42.0783C19.5098 42.2442 19.3443 42.3316 19.1165 42.3286C18.3561 42.3191 17.5953 42.3263 16.8345 42.3248C16.0399 42.3233 15.4286 41.7425 15.4249 40.9349C15.4138 38.4659 15.4197 35.9969 15.4219 33.5283C15.4223 33.2201 15.5454 33.0554 15.8303 32.9573C16.4854 32.732 17.1416 32.5098 17.7986 32.289C18.0924 32.1902 18.2148 32.2746 18.2189 32.5931C18.2266 33.1193 18.2218 33.6456 18.2218 34.1719C18.2218 35.8435 18.2215 37.5152 18.2222 39.1868C18.2222 39.501 18.2322 39.5097 18.5453 39.5105C18.8198 39.5113 19.0935 39.5078 19.3673 39.5109C19.5954 39.5135 19.7405 39.4049 19.8117 39.1872C19.9323 38.8206 20.0424 38.4504 20.1752 38.0884C20.844 36.2623 22.1171 35.1919 24.029 34.9549C26.3456 34.6675 28.6462 36.3384 28.9912 38.9066C29.1748 40.2693 28.8283 41.4971 27.9388 42.5505C27.8846 42.6144 27.8193 42.6686 27.7596 42.7273H27.6227Z" fill="#CFCFCF"/>
<path fill-rule="evenodd" clip-rule="evenodd" d="M35.3252 41.0974C35.1506 41.6398 34.8307 42.0324 34.2696 42.1691C34.1742 42.1922 34.0733 42.1979 33.975 42.1983C32.4252 42.1995 30.8753 42.1991 29.3255 42.1964C29.2313 42.1964 29.1117 42.2361 29.0555 42.1225C29.0008 42.0128 29.0931 41.9312 29.143 41.8469C29.5347 41.1936 29.7753 40.49 29.8181 39.719C29.8353 39.4072 29.9071 39.3394 30.2136 39.339C30.8783 39.3375 31.5422 39.339 32.2066 39.3383C32.541 39.3375 32.5603 39.3182 32.5603 38.9803C32.5611 37.7138 32.5603 36.4474 32.5607 35.181C32.5611 34.7799 32.649 34.6501 33.0169 34.5223C33.66 34.2991 34.3057 34.0816 34.9488 33.8576C35.0892 33.8083 35.2161 33.7925 35.3252 33.9199V41.0974Z" fill="#CFCFCF"/>
<path fill-rule="evenodd" clip-rule="evenodd" d="M7.58666 42.2009C5.78788 42.2009 3.98947 42.2013 2.19107 42.2005C1.34037 42.2001 0.75205 41.616 0.751306 40.7653C0.749448 38.3687 0.75014 35.9722 0.750935 33.5757C0.750935 33.1876 0.84459 33.0558 1.20435 32.9348C1.8473 32.7193 2.48988 32.5042 3.1332 32.2913C3.42829 32.1935 3.52454 32.2644 3.52454 32.5811C3.52566 34.7334 3.52529 36.8857 3.52529 39.038C3.52529 39.4118 3.53792 39.4245 3.91106 39.4245C7.23396 39.4249 10.5565 39.4245 13.8794 39.4249C14.3031 39.4249 14.4112 39.544 14.3581 39.9653C14.2726 40.6394 14.0641 41.2706 13.7096 41.8543C13.5642 42.0926 13.384 42.2054 13.0963 42.2039C11.26 42.1953 9.42297 42.1998 7.58666 42.1998V42.2009Z" fill="#CFCFCF"/>
<path fill-rule="evenodd" clip-rule="evenodd" d="M8.26531 33.2373C8.47672 32.6596 8.88472 32.3172 9.51097 32.2701C10.2439 32.2146 10.7684 32.5172 11.0212 33.1815C11.6057 32.3482 12.1419 32.1067 12.8874 32.3273C13.4817 32.5032 13.8685 33.0115 13.8457 33.586C13.8214 34.1962 13.3629 34.6978 12.7052 34.8336C12.0125 34.9767 11.4664 34.6915 11.028 33.9452C10.7244 34.5659 10.2329 34.9114 9.47529 34.85C8.89497 34.8029 8.5549 34.5306 8.25734 33.9037C7.95219 34.7104 7.21929 34.9502 6.58812 34.8329C5.85143 34.6957 5.44722 34.1993 5.46543 33.4859C5.48062 32.8917 5.99186 32.366 6.66668 32.2728C7.21208 32.1978 7.99622 32.3866 8.26531 33.2373Z" fill="#CFCFCF"/>
<path fill-rule="evenodd" clip-rule="evenodd" d="M29.8139 33.1816C30.3487 32.3764 30.9213 32.1133 31.6768 32.3143C32.3135 32.4835 32.7242 32.9918 32.7051 33.587C32.6852 34.1964 32.201 34.7041 31.5106 34.8387C30.8232 34.9727 30.2327 34.6636 29.8135 33.9309C29.6461 34.2882 29.4079 34.5746 29.0226 34.7341C28.6345 34.8949 28.2367 34.9008 27.8362 34.7651C27.1831 34.5443 26.9025 33.9847 26.948 33.4743C27.0056 32.8316 27.5003 32.3676 28.171 32.2731C28.9 32.1705 29.4597 32.4747 29.8139 33.1816Z" fill="#CFCFCF"/>
<path fill-rule="evenodd" clip-rule="evenodd" d="M29.2447 13.4755C29.2447 14.41 29.2291 15.3455 29.2495 16.28C29.265 16.9673 28.9906 17.4579 28.3972 17.7996C23.6615 20.5311 18.9268 23.2645 14.196 26.0038C13.6433 26.324 13.1197 26.3367 12.5651 26.0135C10.8828 25.0332 9.19276 24.0627 7.50463 23.0902C6.99461 22.7963 6.74348 22.3748 6.75013 21.7712C6.76578 20.2799 6.76384 18.7876 6.75123 17.2963C6.74638 16.7171 6.99461 16.2975 7.47651 16.0172C9.31493 14.9474 11.1524 13.8756 13.0034 12.8282C13.9313 12.3035 14.74 12.7727 14.7817 13.8308C14.8011 14.3078 14.7701 14.7868 14.7991 15.2628C14.836 15.8819 15.1928 16.0999 15.7164 15.8079C16.7578 15.2287 17.7924 14.6349 18.8124 14.0168C19.3389 13.6975 19.3195 13.2254 18.793 12.8915C18.3742 12.6247 17.9262 12.4028 17.5093 12.1332C16.7209 11.625 16.6919 10.7217 17.4899 10.2476C19.3855 9.11839 21.3034 8.02619 23.2213 6.93496C23.6838 6.67213 24.1793 6.69646 24.6467 6.96319C25.9227 7.69424 27.1978 8.42725 28.4699 9.16609C28.9974 9.47273 29.2456 9.9429 29.2447 10.5513C29.2427 11.5267 29.2437 12.5011 29.2447 13.4755Z" fill="#F41710"/>
<path fill-rule="evenodd" clip-rule="evenodd" d="M6.75322 8.37017C6.75322 7.44278 6.76372 6.51443 6.75035 5.58704C6.73793 4.7196 7.05508 4.09973 7.84892 3.66747C9.34583 2.85032 10.815 1.98095 12.2699 1.09225C13.0074 0.641606 13.6665 0.63387 14.4088 1.08161C16.0863 2.097 17.7943 3.06114 19.4832 4.05622C20.5015 4.65675 20.5111 5.54159 19.4794 6.15082C16.7951 7.7358 14.0955 9.29466 11.4006 10.8632C10.4692 11.4067 9.53689 11.9501 8.60358 12.4888C7.63302 13.0477 6.87931 12.6957 6.80002 11.5662C6.72647 10.5054 6.78378 9.43585 6.78378 8.37017H6.75322Z" fill="#F41710"/>
</svg>
