<svg width="92" height="92" viewBox="0 0 92 92" fill="none" xmlns="http://www.w3.org/2000/svg">
<rect x="1" y="1" width="90" height="90" stroke="transparent" stroke-opacity="0.6"/>
<path fill-rule="evenodd" clip-rule="evenodd" d="M44.8229 23.5827C44.0011 23.6054 44.0116 23.6014 43.9828 23.9028C43.9313 24.4424 43.9589 51.735 44.0111 51.8347C44.0967 51.9982 44.0832 51.9971 45.939 51.9996C47.762 52.0022 47.9351 51.994 48.0204 51.9009C48.0669 51.85 48.0711 50.4666 48.0633 37.7558L48.0547 23.667L47.8707 23.631C47.6453 23.5871 45.7512 23.5571 44.8229 23.5827ZM50.1054 26.619C49.983 26.6312 49.9661 26.6436 49.9479 26.7333C49.9135 26.9029 49.9242 48.7443 49.9587 48.8338C49.9793 48.8873 50.0258 48.9225 50.0961 48.9378C50.2371 48.9683 53.3576 48.9679 53.4077 48.9373C53.4292 48.9242 53.5411 48.914 53.6565 48.9147C53.9709 48.9165 53.9769 48.9048 53.9901 48.2756C53.996 47.9913 53.9989 43.1262 53.9965 37.4641C53.994 31.802 53.9941 27.0867 53.9965 26.9856C54.0005 26.8212 53.9904 26.7919 53.9012 26.7074L53.8014 26.613L52.0219 26.6092C51.0432 26.6071 50.1808 26.6115 50.1054 26.619ZM38.8138 26.9552C38.1629 26.9699 38.0198 26.9816 37.9938 27.0221C37.9544 27.0837 37.9661 48.5436 38.0057 48.5826C38.0209 48.5976 38.9016 48.6098 39.9628 48.6098C42.1065 48.6098 42.0388 48.6167 42.0837 48.3952C42.1203 48.2147 42.108 27.6181 42.0711 27.3822C42.0202 27.0555 42.0101 27.0269 41.9304 26.9847C41.8469 26.9405 40.1686 26.9246 38.8138 26.9552ZM56.358 31.9979C55.9789 32.0233 55.9709 32.0317 55.9448 32.4308C55.9009 33.1009 55.9396 43.3 55.9863 43.3807C56.0967 43.5716 56.0691 43.5687 57.7033 43.563C59.3672 43.5572 59.3683 43.557 59.4375 43.3485C59.5181 43.1055 59.6088 42.5943 59.6396 42.21C59.6576 41.9848 59.6956 41.7196 59.7239 41.6208C59.8209 41.2828 59.8374 41.1574 59.8699 40.5141C59.8878 40.1599 59.9266 39.5533 59.9562 39.1662C60.0148 38.3999 60.0072 37.0913 59.9391 36.2366C59.9191 35.9846 59.8826 35.4395 59.8582 35.0255C59.8336 34.6114 59.796 34.2289 59.7745 34.1755C59.7529 34.1222 59.7065 33.8349 59.6713 33.5372C59.554 32.5436 59.4509 32.1487 59.2864 32.0631C59.2107 32.0237 59.0181 32.0124 58.3137 32.0056C57.8306 32.001 57.2488 31.9936 57.021 31.9892C56.7931 31.9849 56.4948 31.9888 56.358 31.9979ZM32.8169 32.0259C32.731 32.0389 32.6537 32.0564 32.6451 32.0649C32.5764 32.1327 32.4462 32.5965 32.4066 32.9142C32.3808 33.1212 32.3299 33.4379 32.2936 33.6179C32.2571 33.798 32.2124 34.1588 32.1942 34.4199C32.1492 35.066 32.1006 35.5021 32.0409 35.7947C31.9795 36.0964 31.99 39.1438 32.0539 39.559C32.0747 39.6941 32.116 40.0844 32.1456 40.4265C32.1752 40.7685 32.2122 41.1957 32.2277 41.3757C32.2433 41.5558 32.2717 41.8209 32.2908 41.9649C32.31 42.109 32.3425 42.3594 32.3631 42.5214C32.4437 43.1556 32.5664 43.4677 32.7569 43.5227C32.8972 43.5633 36.0193 43.5502 36.0611 43.5089C36.1245 43.4462 36.111 32.0725 36.0475 32.0457C35.9713 32.0133 33.0197 31.9953 32.8169 32.0259Z" fill="#B38630"/>
<path d="M56.1417 64.0422C55.9617 64.6413 55.7347 65.2163 55.1716 65.6002C54.605 65.9799 53.964 66.2338 53.2915 66.3449C52.4149 66.5044 51.5275 66.5981 50.637 66.6254C50.1003 66.6386 49.5223 66.6419 49.0277 66.311C48.6975 66.0892 48.5538 65.7707 48.6306 65.3851C48.69 65.0831 48.7338 64.7786 48.7883 64.475C48.8115 64.3909 48.8391 64.308 48.8709 64.2267C48.9245 64.3327 48.9716 64.3806 48.9699 64.4278C48.9567 64.7886 49.1607 65.0004 49.4728 65.0798C49.9484 65.2006 50.4314 65.3355 50.9169 65.3595C51.8722 65.4058 52.8357 65.4058 53.7737 65.17C54.2539 65.0622 54.7237 64.9119 55.1773 64.7207C55.5159 64.5635 55.8024 64.2863 56.1417 64.0422Z" fill="white"/>
<path d="M43.99 63.8429L45.4383 61.8728C46.0361 62.2038 46.1434 62.9931 45.5786 63.4126C45.4752 63.4786 45.3514 63.5048 45.2302 63.4862C44.7348 63.4035 44.4491 63.6741 44.2476 64.0654C44.0264 64.4949 43.82 64.9325 43.6251 65.3744C43.3411 66.0198 42.8135 66.3267 42.1612 66.4715C41.9994 66.5136 41.8329 66.535 41.6658 66.5352C42.2867 66.0769 43.0116 65.7591 43.4542 65.0004C43.2734 64.9797 43.1652 64.9681 43.0579 64.9541C42.664 64.9036 42.5137 64.6885 42.645 64.317C42.7284 64.0632 42.8392 63.8194 42.9753 63.5897C43.2428 63.1586 43.6647 63.1933 43.9025 63.6476C43.924 63.6914 43.9421 63.7411 43.99 63.8429Z" fill="white"/>
<path d="M29.4198 64.1331C29.3307 64.2829 29.2621 64.4509 29.1498 64.5799C28.7717 65.0119 28.3778 65.4305 27.9939 65.8558C27.7016 66.1777 27.4159 66.5177 26.9552 66.5856C26.7681 66.6197 26.5753 66.6052 26.3954 66.5434C25.9826 66.3721 25.6523 66.5434 25.322 66.7403C25.2247 66.8094 25.1156 66.8599 25 66.8892C25.4211 66.2761 25.8513 65.6738 26.563 65.3784C26.7001 65.3213 26.8875 65.3445 27.0411 65.3784C27.288 65.4302 27.5447 65.4073 27.7786 65.3126C28.0125 65.2178 28.213 65.0556 28.3547 64.8464C28.4373 64.7173 28.4265 64.6428 28.2721 64.5559C27.8824 64.3342 27.529 64.2854 27.1897 64.7214C27.2863 64.148 27.7627 63.8493 28.2267 64.014C28.8666 64.2374 28.8666 64.2374 29.4198 64.1331Z" fill="white"/>
<path d="M64.72 66.4799C65.3062 65.9694 66.1054 65.674 66.463 64.8177C66.2978 64.8177 66.2012 64.8177 66.1046 64.8177C65.6992 64.8094 65.5192 64.5504 65.6711 64.1797C65.7647 63.9507 65.8697 63.7264 65.9857 63.5079C66.1013 63.2919 66.2062 63.0445 66.5356 63.1256C66.6737 63.1701 66.7936 63.2582 66.8773 63.3769C66.961 63.4955 67.0039 63.6382 66.9997 63.7834C66.9836 63.9987 66.9417 64.2112 66.875 64.4164C66.7749 64.7727 66.6538 65.1227 66.5125 65.4647C66.3474 65.8329 66.0889 66.1126 65.6753 66.2301C65.3648 66.3178 65.0659 66.4452 64.7621 66.5544L64.72 66.4799Z" fill="white"/>
<path d="M47.6933 61.8059C47.52 63.0404 47.5761 64.3212 46.975 65.4697C46.8701 65.6838 46.735 65.8816 46.5737 66.0571C47.0518 64.6596 46.8404 63.0975 47.6933 61.8059Z" fill="white"/>
<path d="M61.1316 61.8129C60.959 62.8215 60.8203 63.8384 60.5974 64.8354C60.4999 65.269 60.2275 65.6629 60.0343 66.0766L59.8931 66.0236C60.4231 64.6526 60.187 63.083 61.049 61.7964L61.1316 61.8129Z" fill="white"/>
<path d="M32.1504 63.2666C32.0769 63.6729 32.0249 64.0849 31.9242 64.4846C31.8416 64.8213 31.6979 65.1465 31.5815 65.4774C31.3602 66.0997 30.8178 66.2991 30.2604 66.4786C30.1224 66.5209 29.9756 66.5254 29.8352 66.4918C29.9179 66.3879 30.0075 66.2898 30.1035 66.1981C30.3067 66.0252 30.5164 65.8605 30.7327 65.7017C31.4923 65.139 31.6872 64.2686 31.9663 63.4437C31.9861 63.3858 32.0059 63.3287 32.0274 63.2716C32.0274 63.2641 32.0439 63.2617 32.0521 63.2559L32.1504 63.2666Z" fill="white"/>
<path d="M61.5366 66.4761C61.6431 66.3669 61.734 66.2328 61.8586 66.1526C62.8759 65.5022 63.4167 64.5433 63.6669 63.3907C63.6889 63.3292 63.7165 63.27 63.7494 63.2136C63.7808 63.2964 63.8163 63.3452 63.8072 63.3791C63.6421 64.065 63.4935 64.7567 63.2895 65.4311C63.0922 66.0822 62.5175 66.2998 61.9346 66.4753C61.8191 66.5033 61.7019 66.5235 61.5837 66.5357L61.5366 66.4761Z" fill="white"/>
<path d="M40.849 63.2441C40.8184 63.4294 40.8011 63.6173 40.7549 63.7976C40.6228 64.3164 40.4898 64.836 40.3371 65.3482C40.1315 66.0391 39.5618 66.2956 38.94 66.4751C38.7919 66.5058 38.6423 66.5282 38.4917 66.5421C38.587 66.4246 38.6884 66.3122 38.7955 66.2054C39.1143 65.9274 39.452 65.6701 39.7575 65.378C40.2925 64.87 40.418 64.1592 40.6401 63.4981L40.7351 63.2168L40.849 63.2441Z" fill="white"/>
<path d="M58.8511 63.2265C58.8668 63.2906 58.8729 63.3567 58.8693 63.4226C58.7223 64.1913 58.5919 64.9641 58.2244 65.6707C57.9627 66.1729 57.4648 66.3028 56.9942 66.4741C56.8626 66.5147 56.722 66.5161 56.5896 66.4782C56.6717 66.3767 56.7597 66.28 56.853 66.1886C57.1634 65.9172 57.4945 65.6682 57.7926 65.3844C58.3268 64.8764 58.4531 64.1673 58.6785 63.5062C58.7116 63.4077 58.7496 63.3117 58.7851 63.2141L58.8511 63.2265Z" fill="white"/>
<path d="M35.5216 56.6704C36.2994 57.1875 36.3151 57.8064 35.5843 58.3252C35.4144 58.1984 35.2533 58.0602 35.1021 57.9115C35.074 57.8688 35.0562 57.8201 35.05 57.7693C35.0439 57.7184 35.0495 57.6669 35.0666 57.6186C35.1987 57.3001 35.3589 57.0005 35.5216 56.6704Z" fill="white"/>
<path d="M63.4845 59.801C63.4531 59.7952 63.4407 59.801 63.4333 59.7911C62.6836 59.2119 62.7917 59.3964 63.1393 58.6327C63.2125 58.4904 63.2935 58.3522 63.3821 58.219C64.1491 58.5442 64.1838 59.1978 63.4845 59.801Z" fill="white"/>
<path d="M27.0976 68.8704C27.8284 69.227 27.901 69.941 27.3082 70.4069C27.2842 70.4259 27.2463 70.4673 27.2388 70.4615C27.0512 70.3479 26.8713 70.2218 26.7005 70.0842C26.6683 70.0493 26.645 70.0072 26.6325 69.9614C26.62 69.9156 26.6187 69.8675 26.6287 69.821C26.7674 69.5042 26.9333 69.2013 27.0976 68.8704Z" fill="white"/>
<path d="M53.1105 61.8374C53.2121 61.9201 53.2649 61.9673 53.3211 62.0112C53.8735 62.4447 53.8049 62.7773 53.3104 63.3491C53.2625 63.4037 53.08 63.4128 53.0106 63.3664C52.4954 63.0214 52.4872 62.9809 52.7629 62.4216C52.8587 62.2329 52.9801 62.0567 53.1105 61.8374Z" fill="white"/>
<path d="M51.7867 61.9456C52.5108 62.3088 52.5851 63.0154 51.9997 63.4787C51.9712 63.5078 51.9361 63.5294 51.8973 63.5416C51.719 63.5689 51.2492 63.0228 51.3193 62.8632C51.4638 62.5587 51.6248 62.2633 51.7867 61.9456Z" fill="white"/>
<path d="M34.2712 61.3416C34.2456 61.4624 34.2109 61.5824 34.1952 61.7049C34.0851 62.5609 33.9805 63.4179 33.8815 64.2756C33.8344 64.6703 33.9359 65.0161 34.2786 65.2511C34.5684 65.4497 34.7294 65.4116 34.916 65.1154C35.0812 64.8531 35.2331 64.5834 35.404 64.3252C35.6608 63.938 36.0043 63.6004 36.5905 63.8578C36.7556 63.9314 36.9637 63.9215 37.1949 63.9554C37.1603 64.0767 37.1124 64.1938 37.052 64.3046C36.6896 64.83 36.332 65.3603 35.9399 65.8634C35.6666 66.2126 35.3322 66.4873 34.8665 66.5874C33.8996 66.7942 33.3803 66.0909 33.4414 65.367C33.5239 64.3526 33.6717 63.3431 33.8303 62.337C33.8848 61.9887 34.0532 61.6569 34.1696 61.3176L34.2712 61.3416ZM34.9879 65.3487C35.5757 65.453 35.9481 65.1551 36.2842 64.7985C36.3874 64.6893 36.4394 64.5313 36.5145 64.3947C36.3509 64.3233 36.1819 64.2646 36.0092 64.2193C35.9069 64.2115 35.8052 64.2409 35.7227 64.3021C35.3594 64.5594 35.1943 64.9541 34.9879 65.3496V65.3487Z" fill="white"/>
</svg>
