<svg width="57" height="44" viewBox="0 0 57 44" fill="none" xmlns="http://www.w3.org/2000/svg">
<path d="M26.6104 3.68836C26.6428 3.59253 26.7362 3.59769 26.8066 3.58427C27.1826 3.51306 27.5586 3.43152 27.9379 3.38965C28.4947 3.32784 29.0561 3.3196 29.6144 3.36503C31.0708 3.48431 32.4289 3.9079 33.6667 4.6818C35.7729 5.99872 37.1265 7.87251 37.7332 10.2814C37.8481 10.7384 37.9355 11.2012 37.9525 11.6749C37.9609 11.9108 37.982 12.1451 37.9982 12.38C38.0094 12.541 37.9668 12.6868 37.9041 12.8353C37.6822 13.3597 37.4581 13.8837 37.2586 14.4168C36.9761 15.1716 36.7573 15.9472 36.5898 16.7353C36.4815 17.2435 36.3834 17.7551 36.3124 18.2697C36.2428 18.7747 36.1944 19.2827 36.1607 19.7929C36.128 20.2942 36.1157 20.7947 36.1236 21.2945C36.129 21.6379 36.1475 21.9816 36.1764 22.3238C36.1944 22.5373 36.1225 22.7002 35.9867 22.8584C34.9716 24.0419 33.8516 25.1102 32.5756 26.0118C30.8166 27.2543 28.9011 28.1626 26.8212 28.7223C26.0627 28.9265 25.2916 29.0804 24.5128 29.1831C24.0647 29.242 23.6165 29.2886 23.1648 29.3046C22.8634 29.3152 22.5626 29.3399 22.2574 29.334C22.5391 29.254 22.8215 29.1764 23.1023 29.0934C24.0627 28.8071 24.9953 28.4346 25.8888 27.9807C28.311 26.7556 30.4082 24.9737 32.0084 22.7812C32.0315 22.7493 32.0579 22.7197 32.0783 22.6863C32.1496 22.57 32.2456 22.5149 32.3879 22.4947C32.786 22.4387 33.0727 22.212 33.2535 21.8572C33.481 21.4107 33.4102 20.9156 33.0741 20.5422C33.0092 20.4701 32.9406 20.4012 32.8653 20.322C32.9505 20.0963 33.0328 19.8772 33.1159 19.6586C33.458 18.7559 33.6958 17.8261 33.8608 16.8755C33.9989 16.0794 34.0642 15.2782 34.0793 14.4723C34.0905 13.8825 34.039 13.2953 33.9806 12.7083C33.881 11.7077 33.6726 10.73 33.3736 9.77151C33.0034 8.58493 32.5055 7.45467 31.85 6.3968C31.27 5.46057 30.4641 4.77498 29.4848 4.2849C28.6896 3.88681 27.8456 3.68792 26.9582 3.66964C26.8402 3.66713 26.7223 3.67878 26.6051 3.68438L26.6104 3.68836Z" fill="#00A693"/>
<path d="M22.2726 28.9194C22.3335 28.8752 22.3926 28.8297 22.4556 28.7893C22.9184 28.4917 23.3563 28.1568 23.7646 27.788C24.3087 27.2976 24.7728 26.74 25.1774 26.1339C25.8217 25.1688 26.2733 24.1189 26.5202 22.9821C26.7069 22.1222 26.7752 21.2525 26.7066 20.3772C26.673 19.9483 26.5829 19.5236 26.5149 19.0977C26.4888 18.9346 26.4933 18.9106 26.6308 18.8385C26.7439 18.7795 26.8601 18.7259 26.9748 18.67C29.7036 17.3419 31.5838 14.8311 32.2678 12.1171C32.5742 10.9156 32.6529 9.66734 32.4997 8.43688C32.4937 8.38882 32.4944 8.33987 32.4916 8.28296C32.588 8.29991 32.5902 8.37953 32.6138 8.43467C32.9818 9.29222 33.2689 10.1823 33.4713 11.0933C33.7007 12.1227 33.8148 13.1655 33.8309 14.219C33.8402 14.8283 33.7901 15.435 33.7208 16.0406C33.6028 17.0551 33.3796 18.0546 33.0547 19.0229C32.9494 19.3393 32.8267 19.65 32.7104 19.9627C32.6866 20.0272 32.6587 20.0902 32.6269 20.1511C32.5728 20.2544 32.5317 20.28 32.4118 20.251C32.2339 20.2079 32.0646 20.2293 31.8884 20.2657C31.2926 20.3879 30.7745 21.1139 31.0749 21.8315C31.237 22.0357 31.1372 22.2094 31.0205 22.3918C30.185 23.6915 29.164 24.8621 27.9899 25.8664C26.3878 27.2404 24.577 28.2402 22.567 28.8808C22.476 28.9103 22.3829 28.9321 22.2907 28.9575L22.2726 28.9194Z" fill="#00A693"/>
<path d="M37.5107 8.70003C37.4492 8.60065 37.3787 8.50585 37.328 8.40132C36.9748 7.67603 36.5285 6.99992 36.0003 6.39011C35.2935 5.57124 34.4643 4.90098 33.5226 4.37021C31.8679 3.43713 29.9662 3.03564 28.0754 3.22019C26.7142 3.35524 25.4463 3.76571 24.2604 4.43891C23.6283 4.79719 23.0932 5.26766 22.6642 5.85756C22.3959 6.22616 22.1951 6.62837 22.0411 7.05565C22.0149 7.12937 21.9917 7.20309 21.9674 7.27533C21.8927 7.28226 21.9099 7.22623 21.9084 7.19704C21.8369 5.10474 22.6393 3.41009 24.2611 2.10496C24.9999 1.51079 25.8484 1.13187 26.7795 0.943886C26.8945 0.920738 27.0129 0.915283 27.1296 0.900981C27.8456 0.813698 28.562 0.830948 29.2751 0.920886C29.7329 0.980037 30.1847 1.07905 30.6252 1.21679C32.188 1.70069 33.521 2.55848 34.6725 3.71234C35.4855 4.52723 36.1374 5.45653 36.6557 6.48005C36.9668 7.09428 37.2136 7.73622 37.41 8.39675C37.4405 8.49995 37.4779 8.60095 37.5123 8.70298L37.5107 8.70003Z" fill="#00A693"/>
<path d="M24.2436 1.69176C24.2186 1.80823 24.1235 1.86647 24.0405 1.93429C23.2834 2.55191 22.6808 3.29235 22.2659 4.17978C21.8916 4.98022 21.6796 5.81811 21.6579 6.70701C21.6396 7.46131 21.7222 8.19982 21.9715 8.9093C22.3006 9.84553 22.9313 10.4909 23.8982 10.7801C24.4269 10.9383 24.927 10.8391 25.4121 10.6104C25.4898 10.5737 25.5636 10.5289 25.6372 10.4889C25.6853 10.5447 25.6409 10.5721 25.6207 10.5963C25.1008 11.2189 24.4436 11.5517 23.6237 11.5629C22.8846 11.5729 22.2659 11.3103 21.7449 10.7934C21.0601 10.1145 20.6551 9.29116 20.4717 8.35183C20.3597 7.77786 20.3521 7.1968 20.4246 6.6215C20.5179 5.88431 20.776 5.19445 21.1543 4.55279C21.84 3.3901 22.7924 2.50606 23.9722 1.85954C24.0661 1.80809 24.1547 1.74705 24.2457 1.69043L24.2436 1.69176Z" fill="#00A693"/>
<path d="M23.9036 11.8182C24.055 11.7809 24.2091 11.7518 24.3574 11.7046C25.4447 11.3587 26.1001 10.6162 26.3478 9.50987C26.4352 9.11886 26.3411 8.74879 26.1627 8.40054C26.051 8.18234 25.8655 8.03844 25.633 7.95956C25.5525 7.93228 25.4693 7.91326 25.3392 7.87714C25.8017 7.78263 26.143 7.90825 26.4259 8.20386C26.7531 8.54577 26.9108 8.96449 26.9232 9.43025C26.9474 10.3413 26.5192 11.0068 25.7558 11.4649C25.3282 11.722 24.8548 11.8454 24.3532 11.8482C24.2058 11.8491 24.0591 11.8482 23.912 11.8482C23.909 11.8391 23.9064 11.828 23.9036 11.8182Z" fill="#00A693"/>
<path d="M26.0362 8.87478C26.0638 9.24264 25.7335 9.55993 25.3523 9.55919C24.9642 9.55919 24.6249 9.21197 24.6391 8.85576C24.6559 8.43113 24.9355 8.14894 25.3695 8.15513C25.7891 8.16103 26.0399 8.43172 26.0362 8.87478Z" fill="#00A693"/>
<path d="M25.0131 10.4991C25.1045 10.3992 25.2047 10.3057 25.2851 10.1976C25.3654 10.0896 25.4287 9.96467 25.5102 9.82903C25.7253 9.75457 25.9418 9.64444 26.1082 9.41724C26.0883 9.85365 25.6425 10.3017 25.0131 10.4991Z" fill="#00A693"/>
<path d="M26.6053 3.68392C26.5866 3.68805 26.5679 3.69262 26.549 3.69586C26.5394 3.6966 26.5298 3.6966 26.5203 3.69586C26.5316 3.68716 26.5427 3.67168 26.5542 3.67139C26.5734 3.67355 26.5922 3.67883 26.6097 3.68702C26.6103 3.68834 26.6053 3.68392 26.6053 3.68392Z" fill="#00A693"/>
<path d="M24.2464 1.69043L24.2838 1.70046L24.2446 1.69161L24.2464 1.69043Z" fill="#00A693"/>
<path d="M37.5131 8.70316C37.5066 8.70738 37.5123 8.70066 37.5107 8.7002C37.5116 8.70112 37.5124 8.70211 37.5131 8.70316Z" fill="#00A693"/>
<path d="M8.30346 43.9219C6.27646 43.9219 4.24945 43.9222 2.22245 43.9228C1.83428 43.9228 1.46294 43.8526 1.12571 43.659C0.434882 43.2617 0.0348315 42.676 0.00380907 41.8636C-0.00174718 41.7197 0.000413584 41.5756 0.000413584 41.4314C0.000413584 39.9703 0.000413584 38.5092 0.000413584 37.0481C0.000413584 36.616 0.00195698 36.6144 0.424386 36.6136C0.887407 36.6127 1.35043 36.6127 1.81345 36.6136C2.18664 36.615 2.19806 36.6252 2.1993 36.9915C2.20053 38.185 2.20053 39.3786 2.1993 40.5722C2.1993 40.85 2.19683 41.1278 2.20038 41.4056C2.2047 41.7534 2.24668 41.798 2.59364 41.7992C3.51968 41.8022 4.44572 41.8022 5.37176 41.7992C5.71949 41.7978 5.75854 41.7552 5.75885 41.4039C5.76039 39.9634 5.7607 38.5229 5.75978 37.0824C5.75978 36.9898 5.75715 36.8972 5.76317 36.8046C5.77181 36.6697 5.81534 36.6298 5.95718 36.6176C6.00826 36.6132 6.05997 36.6138 6.11152 36.6138C6.62598 36.6138 7.14045 36.6138 7.65492 36.6138C7.70632 36.6138 7.75802 36.6138 7.80926 36.6189C7.93073 36.6312 7.97687 36.6738 7.98536 36.791C7.992 36.8836 7.98922 36.9762 7.98922 37.0688C7.98922 38.4579 7.98922 39.8469 7.98922 41.236C7.98922 41.3286 7.98505 41.4221 7.99709 41.5138C8.00636 41.5806 8.03768 41.6425 8.08608 41.6895C8.13448 41.7365 8.19719 41.766 8.26426 41.7733C8.39992 41.7896 8.51352 41.7395 8.57664 41.6211C8.61862 41.5422 8.63838 41.4476 8.64995 41.3576C8.66261 41.2562 8.65489 41.1522 8.65489 41.0489C8.65489 38.5795 8.65489 36.11 8.65489 33.6406C8.65489 33.5376 8.65273 33.4344 8.6606 33.3319C8.6694 33.2163 8.71709 33.174 8.83917 33.1621C8.89011 33.1569 8.94181 33.157 8.99351 33.1569C9.49769 33.1569 10.0019 33.1569 10.506 33.1569C10.5266 33.1569 10.5471 33.1569 10.5678 33.1569C10.8086 33.1673 10.8439 33.2032 10.8525 33.4546C10.8558 33.5472 10.8538 33.6398 10.8538 33.7324C10.8538 36.1607 10.8538 38.589 10.8538 41.0173C10.8538 41.1304 10.851 41.2439 10.8573 41.3569C10.8596 41.4286 10.8722 41.4997 10.8947 41.5678C10.941 41.6949 11.0408 41.7639 11.1754 41.7759C11.2427 41.7817 11.3101 41.7655 11.3673 41.7297C11.4246 41.6939 11.4687 41.6404 11.4929 41.5774C11.5207 41.5002 11.5372 41.4195 11.542 41.3376C11.5506 41.225 11.5465 41.1115 11.5465 40.998C11.5465 38.5594 11.5465 36.1208 11.5465 33.6822C11.5465 33.5693 11.5448 33.4557 11.5531 33.3427C11.562 33.2238 11.6108 33.1763 11.7243 33.1624C11.7755 33.1573 11.8271 33.1552 11.8786 33.1561C12.393 33.1561 12.9074 33.1536 13.422 33.1561C13.7152 33.1579 13.7375 33.1839 13.744 33.4729C13.7458 33.5552 13.744 33.6375 13.744 33.7199V41.0665C13.744 41.1695 13.7395 41.2729 13.7477 41.3752C13.7517 41.4466 13.7677 41.5168 13.7952 41.5828C13.8949 41.8037 14.1778 41.8423 14.3241 41.6486C14.3828 41.5714 14.4167 41.465 14.4322 41.3672C14.4524 41.2467 14.445 41.1212 14.445 40.9977C14.4456 38.5591 14.4456 36.1205 14.445 33.6819C14.445 33.5688 14.4434 33.4553 14.4521 33.3424C14.461 33.2237 14.5103 33.1757 14.6231 33.1618C14.6743 33.1565 14.7259 33.1544 14.7774 33.1555C15.2918 33.1555 15.8064 33.1528 16.3208 33.1555C16.6141 33.1573 16.634 33.1791 16.6354 33.4756C16.6381 34.0209 16.6363 34.5661 16.6363 35.1116C16.6363 37.2209 16.6363 39.3303 16.6363 41.4396C16.6363 41.6964 16.6401 41.9531 16.5778 42.2065C16.3572 43.1017 15.7982 43.6508 14.9038 43.8675C14.6905 43.9191 14.476 43.9208 14.2601 43.9208C12.2742 43.9208 10.2884 43.9208 8.30253 43.9208L8.30346 43.9219Z" fill="#00A693"/>
<path d="M37.3669 43.9065C37.5227 43.7676 37.6201 43.6788 37.7207 43.5932C38.449 42.9731 39.1778 42.3536 39.9071 41.7347C40.1583 41.5217 40.2733 41.2583 40.2721 40.9235C40.2655 39.0615 40.269 37.1997 40.269 35.3377C40.269 34.7512 40.269 34.1647 40.269 33.5782C40.269 33.496 40.2667 33.4133 40.2733 33.3313C40.2827 33.2148 40.328 33.1736 40.4513 33.1615C40.5024 33.1564 40.5541 33.1566 40.6056 33.1564C41.2023 33.1564 41.7988 33.1547 42.396 33.1564C42.7297 33.1577 42.7432 33.1719 42.7435 33.5054C42.7447 34.771 42.745 36.0363 42.7445 37.3013C42.7445 37.4039 42.7463 37.5072 42.756 37.61C42.7584 37.6414 42.7718 37.6709 42.794 37.6933C42.8162 37.7156 42.8457 37.7293 42.877 37.7319C42.9488 37.7403 43.0209 37.7441 43.0931 37.7431C43.8648 37.7438 44.6365 37.7438 45.4082 37.7431C45.4701 37.7446 45.5319 37.7422 45.5934 37.7361C45.9714 37.6897 46.229 37.4274 46.262 37.0461C46.2815 36.821 46.2949 36.5947 46.2958 36.3689C46.2995 35.4428 46.2968 34.5168 46.2977 33.5907C46.2977 33.162 46.3034 33.157 46.7254 33.1561C47.1678 33.155 47.6103 33.155 48.0527 33.1561C48.1248 33.1546 48.1969 33.157 48.2688 33.1631C48.3821 33.1753 48.4301 33.2248 48.4413 33.3426C48.449 33.4242 48.4481 33.5068 48.4481 33.5895C48.4481 35.1432 48.4481 36.6966 48.4481 38.2495C48.4481 38.3318 48.4481 38.4142 48.4446 38.4965C48.4188 39.1282 48.0164 39.6636 47.412 39.8524C47.2744 39.8928 47.1317 39.9136 46.9882 39.9141C46.5252 39.9221 46.0622 39.9184 45.5991 39.9186C44.7865 39.9186 43.9739 39.9175 43.1606 39.9186C42.7593 39.9195 42.7468 39.934 42.7456 40.3367C42.7446 40.6556 42.7537 40.9748 42.7429 41.2936C42.7332 41.5807 42.7249 41.8709 42.6772 42.1531C42.529 43.0292 41.8609 43.6614 41.0802 43.8518C40.9107 43.8937 40.7369 43.9158 40.5623 43.9179C39.5745 43.9244 38.5867 43.9219 37.5997 43.9217C37.5483 43.9219 37.4986 43.9156 37.3669 43.9065Z" fill="#00A693"/>
<path d="M17.5779 43.9026C17.6608 43.8144 17.7097 43.7525 17.7683 43.7019C18.1266 43.3932 18.4869 43.0859 18.8464 42.7782C19.2137 42.4639 19.5727 42.1391 19.9506 41.8379C20.3099 41.5513 20.4548 41.1965 20.4526 40.7381C20.4418 38.3821 20.4477 36.0261 20.4477 33.67C20.4477 33.5774 20.4452 33.4848 20.4495 33.3922C20.4583 33.2011 20.4932 33.169 20.6946 33.1582C20.7357 33.1559 20.7769 33.1567 20.8181 33.1567C21.3839 33.1567 21.9499 33.1551 22.5158 33.1567C22.8645 33.1581 22.8765 33.1701 22.8768 33.526C22.8781 34.7711 22.8785 36.0161 22.8782 37.2611C22.877 37.374 22.8837 37.4869 22.8983 37.5989C22.9019 37.6355 22.9187 37.6695 22.9455 37.6946C22.9724 37.7197 23.0074 37.7341 23.0442 37.7352C23.1158 37.7402 23.1878 37.7433 23.2602 37.7433C24.0216 37.7433 24.7831 37.7433 25.5445 37.7433C25.5753 37.7433 25.6062 37.742 25.6371 37.7433C26.0604 37.7538 26.4353 37.4397 26.4421 36.9481C26.4454 36.7218 26.4441 36.4954 26.4441 36.269C26.4441 35.3532 26.4441 34.4375 26.4441 33.5217C26.4441 33.1667 26.452 33.1585 26.8065 33.1572C27.2901 33.1551 27.7736 33.1572 28.2573 33.1572C28.3191 33.156 28.3809 33.1581 28.4425 33.1633C28.5594 33.176 28.6055 33.2218 28.6158 33.3402C28.6229 33.422 28.6216 33.5047 28.6216 33.5872C28.6216 35.0997 28.6216 36.6122 28.6216 38.1248C28.6216 38.2379 28.6121 38.3512 28.6149 38.4643C28.6304 39.1316 28.0176 39.9338 27.1187 39.9201C26.5119 39.9108 25.9047 39.9201 25.2975 39.9201C24.6391 39.9201 23.9805 39.919 23.322 39.9201C22.9116 39.9212 22.8812 39.9523 22.8782 40.357C22.8747 40.8509 22.8782 41.3448 22.8694 41.8387C22.8512 42.9091 22.0067 43.7217 21.1546 43.8664C21.003 43.8921 20.8494 43.9192 20.6966 43.92C19.7295 43.9252 18.7624 43.9235 17.795 43.9231C17.7369 43.9217 17.6791 43.9118 17.5779 43.9026Z" fill="#00A693"/>
<path d="M17.3069 37.034C17.3069 35.8713 17.3069 34.7086 17.3069 33.5459C17.3069 33.1584 17.3081 33.1571 17.7066 33.1564C18.2622 33.1552 18.8178 33.1552 19.3735 33.1564C19.4145 33.1564 19.4557 33.1564 19.4969 33.1564C19.7479 33.1653 19.7726 33.1897 19.7772 33.4496C19.78 33.604 19.7772 33.7583 19.7772 33.9126C19.7772 36.094 19.7772 38.275 19.7772 40.4556C19.7772 40.5586 19.7797 40.6619 19.7703 40.7643C19.7584 40.8915 19.7018 40.9395 19.5696 40.9531C19.5491 40.9549 19.5285 40.9557 19.5079 40.9554C18.8494 40.9554 18.1909 40.9554 17.5324 40.9554C17.5013 40.9554 17.4704 40.9529 17.4397 40.9478C17.36 40.9344 17.3177 40.89 17.3112 40.7994C17.3047 40.7088 17.3061 40.6142 17.3059 40.5216C17.3065 39.3592 17.3068 38.1967 17.3069 37.034Z" fill="#00A693"/>
<path d="M37.162 37.066C37.162 35.9033 37.162 34.7409 37.162 33.5788C37.162 33.165 37.1694 33.1579 37.5692 33.157C38.1145 33.1557 38.6598 33.1557 39.2051 33.157C39.277 33.157 39.3494 33.1561 39.4212 33.1627C39.5423 33.1738 39.5877 33.2175 39.5971 33.3348C39.6038 33.4168 39.6016 33.4993 39.6016 33.5818C39.6016 35.9066 39.6016 38.2313 39.6016 40.5561C39.6016 40.6281 39.6033 40.7005 39.5982 40.7722C39.5885 40.9094 39.5493 40.9452 39.403 40.9545C39.3412 40.9584 39.2795 40.9565 39.2178 40.9565C38.6622 40.9565 38.1066 40.9565 37.5509 40.9565C37.479 40.9565 37.4066 40.958 37.3349 40.9516C37.2332 40.9425 37.1805 40.8968 37.1714 40.8002C37.1616 40.6981 37.1619 40.5949 37.1619 40.4915C37.1617 39.3497 37.1617 38.2078 37.162 37.066Z" fill="#00A693"/>
<path d="M3.80641 34.5748C3.85533 35.2641 3.20587 35.7927 2.63528 35.7848C1.97501 35.7759 1.43497 35.2272 1.4325 34.5914C1.43019 33.9895 1.96528 33.4055 2.60394 33.4007C3.26977 33.3956 3.84299 33.9443 3.80641 34.5748Z" fill="#00A693"/>
<path d="M6.46853 34.5968C6.50079 35.2859 5.87771 35.7937 5.28428 35.7834C4.65148 35.7724 4.09092 35.2612 4.09586 34.5865C4.1008 33.8456 4.73822 33.397 5.29523 33.4007C5.83743 33.4041 6.4977 33.8347 6.46853 34.5968Z" fill="#00A693"/>
<path d="M24.3275 43.8065C23.7359 43.8498 23.1391 43.2663 23.1493 42.6005C23.1581 42.0013 23.7128 41.4128 24.3709 41.429C24.9483 41.4432 25.538 41.9825 25.538 42.6292C25.5382 43.1583 25.0401 43.8549 24.3275 43.8065Z" fill="#00A693"/>
<path d="M48.0111 42.6079C48.0684 43.2773 47.416 43.818 46.8373 43.8158C46.2045 43.8135 45.6335 43.2631 45.6362 42.6212C45.6387 41.9884 46.1715 41.453 46.8092 41.4308C47.4374 41.4089 48.0602 41.9864 48.0111 42.6079Z" fill="#00A693"/>
<path d="M26.9995 43.8064C26.3769 43.8527 25.8015 43.2634 25.802 42.6217C25.802 41.975 26.382 41.4223 27.0003 41.4288C27.5868 41.4348 28.1762 41.948 28.185 42.607C28.1938 43.2661 27.6115 43.8425 26.9995 43.8064Z" fill="#00A693"/>
<path d="M44.1627 41.4382C44.7787 41.3891 45.3606 41.9784 45.3606 42.6224C45.3606 43.2571 44.7867 43.8224 44.1616 43.8155C43.5478 43.8087 42.9829 43.2665 42.9767 42.6371C42.9701 41.9554 43.5723 41.399 44.1627 41.4382Z" fill="#00A693"/>
<path d="M36.4686 35.0421C36.4686 34.8672 36.46 34.6924 36.456 34.5173C36.4405 33.8125 35.7644 33.1409 35.0126 33.148C33.5927 33.1613 32.1727 33.1613 30.7528 33.148C29.9376 33.14 29.2866 33.8642 29.2841 34.5979C29.2793 35.884 29.2741 37.1703 29.2866 38.4564C29.2921 39.0256 29.573 39.4532 30.0664 39.7375C30.2944 39.8685 30.5412 39.9211 30.8057 39.9201C31.814 39.9159 32.8223 39.9185 33.8308 39.9201C33.9335 39.9191 34.0362 39.925 34.1381 39.9375C34.2143 39.9478 34.2674 39.9968 34.2799 40.0789C34.3313 40.4164 34.344 40.7529 34.2583 41.0949C34.091 41.1955 33.9342 41.1775 33.7811 41.1776C32.4435 41.1789 31.1059 41.1792 29.7683 41.1786C29.6655 41.1786 29.5622 41.1772 29.4596 41.1858C29.3421 41.1957 29.2978 41.2445 29.2866 41.3627C29.2818 41.4136 29.2833 41.4655 29.2833 41.517C29.2833 42.2064 29.2833 42.8958 29.2833 43.5852C29.2833 43.9175 29.2898 43.9234 29.6354 43.9235C31.1684 43.9235 32.7015 43.9217 34.2347 43.9251C34.492 43.9251 34.7477 43.885 34.9927 43.8062C35.9616 43.4994 36.4529 42.5673 36.4555 41.927C36.4555 41.7417 36.468 41.5565 36.468 41.3713C36.4697 39.2612 36.4699 37.1514 36.4686 35.0421ZM34.2802 37.0505C34.2298 37.449 33.9407 37.7205 33.5345 37.7397C33.3184 37.7499 33.1023 37.7415 32.8862 37.7415V37.7426C32.6805 37.7426 32.4745 37.737 32.2689 37.7438C32.0817 37.7483 31.8994 37.684 31.7565 37.5631C31.6136 37.4422 31.5199 37.273 31.4933 37.0877C31.4782 36.9966 31.4691 36.9046 31.4663 36.8122C31.4625 36.6064 31.4625 36.4007 31.4663 36.1949C31.468 36.1023 31.4817 36.0109 31.4913 35.9191C31.5243 35.5889 31.7511 35.3048 32.184 35.2443C32.2454 35.2361 32.3073 35.2322 32.3692 35.2325C32.7087 35.2315 33.0483 35.229 33.3878 35.2339C33.4905 35.2361 33.5926 35.2495 33.6924 35.2739C34.0307 35.3559 34.2366 35.598 34.2824 35.9428C34.3296 36.3106 34.3289 36.683 34.2802 37.0505Z" fill="#00A693"/>
<path d="M56.3264 34.8727C56.3247 34.6983 56.3071 34.5244 56.2736 34.3532C56.1318 33.6246 55.547 33.1506 54.8099 33.1526C54.1105 33.1546 53.4111 33.1526 52.7118 33.1526C52.0121 33.1526 51.3124 33.1526 50.6127 33.1526C50.3942 33.1526 50.1806 33.172 49.9841 33.2771C49.4544 33.5622 49.1426 33.9857 49.1436 34.6082C49.1453 35.8837 49.1609 37.1593 49.1386 38.4343C49.1261 39.1528 49.7034 39.7493 50.2327 39.8714C50.3908 39.9078 50.5581 39.9155 50.7214 39.9163C51.6882 39.9203 52.655 39.9183 53.6217 39.9189C53.7247 39.9166 53.8278 39.9198 53.9304 39.9285C54.0693 39.9439 54.1368 40.0057 54.1419 40.1477C54.1513 40.4145 54.1513 40.6823 54.1426 40.9493C54.138 41.0908 54.0744 41.149 53.9295 41.1654C53.8169 41.1755 53.7038 41.1794 53.5907 41.1771C52.2331 41.1777 50.8755 41.1781 49.5177 41.1782C49.1661 41.1782 49.1494 41.1958 49.1485 41.5426C49.1464 42.2217 49.1464 42.9008 49.1485 43.5799C49.1479 43.6521 49.1517 43.7243 49.1599 43.796C49.1684 43.8644 49.2141 43.9147 49.2817 43.9136C49.3933 43.9116 49.508 43.907 49.6157 43.8806C51.4338 43.4355 52.9772 42.5243 54.2459 41.147C55.0803 40.242 55.6967 39.208 56.1251 38.0577C56.2582 37.7008 56.3267 37.3231 56.3273 36.9421C56.3313 36.251 56.3323 35.5617 56.3264 34.8727ZM54.1485 36.8225C54.1436 36.9456 54.1246 37.0676 54.0917 37.1863C53.9991 37.5144 53.7367 37.7197 53.3927 37.7399C53.2692 37.7472 53.1458 37.743 53.0223 37.7435C52.9092 37.7435 52.796 37.7435 52.6827 37.7435V37.7409C52.477 37.7409 52.2713 37.7452 52.0654 37.7396C51.8516 37.7339 51.6641 37.6583 51.5155 37.4996C51.3996 37.3762 51.3259 37.2315 51.3258 37.0573C51.3258 36.6869 51.3191 36.3164 51.3273 35.947C51.3341 35.6349 51.5371 35.3743 51.8366 35.285C51.945 35.2531 52.0571 35.2361 52.17 35.2342C52.5298 35.2279 52.8897 35.2308 53.2495 35.2327C53.3214 35.2327 53.3932 35.239 53.464 35.2515C53.8139 35.3155 54.0335 35.5183 54.105 35.8706C54.1277 35.9705 54.1419 36.0722 54.1474 36.1746C54.1553 36.3907 54.1579 36.6071 54.1485 36.8225Z" fill="#00A693"/>
</svg>
