<svg width="61" height="14" viewBox="0 0 61 14" fill="none" xmlns="http://www.w3.org/2000/svg">
<g clip-path="url(#clip0_13096_228)">
<path d="M54.9565 0C58.2655 0.027731 60.9998 2.64045 60.9998 6.08233C60.9998 9.51127 58.2971 12.1568 54.957 12.1573C51.5769 12.1573 48.9256 9.45766 48.91 6.08233C48.8948 2.73844 51.6264 0.0055462 54.9565 0ZM54.8377 9.83989C56.7639 9.89581 58.592 8.43531 58.6902 6.21637C58.7746 4.302 57.3193 2.42646 55.0849 2.33403C54.596 2.31449 54.108 2.39249 53.6491 2.56354C53.1901 2.7346 52.7693 2.99534 52.4106 3.3308C52.052 3.66625 51.7626 4.06981 51.5592 4.51828C51.3557 4.96676 51.2422 5.45132 51.2251 5.94414C51.1366 7.91767 52.6418 9.73543 54.8377 9.84035V9.83989Z" fill="#651FFF"/>
<path d="M5.24891 4.47728C5.24891 4.66723 5.24891 4.85719 5.24891 5.04761C5.24891 5.32954 5.16039 5.42521 4.87925 5.46357C4.20599 5.55601 3.58685 5.78341 3.08649 6.25576C2.1862 7.10571 1.79545 8.15071 2.04816 9.37873C2.30086 10.6068 3.04659 11.4438 4.2225 11.8352C5.89786 12.3926 7.58423 11.5857 8.27217 9.97402C8.40379 9.66529 8.46571 9.3376 8.51478 9.00714C8.54001 8.8389 8.63173 8.746 8.7973 8.73861C9.24906 8.7155 9.70169 8.7155 10.1535 8.73861C10.4149 8.7534 10.5084 8.89991 10.4772 9.20079C10.3964 10.0399 10.1193 10.8477 9.66868 11.5579C8.94681 12.6912 7.93187 13.4446 6.65047 13.8051C5.91458 14.0145 5.14141 14.0546 4.38807 13.9225C3.10911 13.6997 2.05121 13.089 1.21438 12.0904C0.426456 11.1489 0.0311203 10.0507 -6.63012e-05 8.82781C-0.0294184 7.61966 0.335189 6.52429 1.04514 5.55555C1.71244 4.64597 2.60309 4.0419 3.66894 3.69757C4.03235 3.57439 4.40942 3.49677 4.79166 3.46648C5.1127 3.44614 5.24661 3.5543 5.25028 3.88614C5.24982 4.08581 5.24891 4.28131 5.24891 4.47728Z" fill="#444249"/>
<path d="M22.403 5.13554C22.4122 5.63008 22.3879 6.19856 22.2067 6.75873C21.6857 8.36528 20.0512 9.40011 18.3845 9.16994C17.5035 9.04792 16.767 8.65414 16.1854 7.97751C16.0937 7.87167 16.0478 7.8786 15.9538 7.97104C15.2157 8.69731 14.2434 9.1325 13.2138 9.19747C12.1843 9.26244 11.1657 8.95288 10.3434 8.32507C9.19688 7.44692 8.60984 6.27297 8.55894 4.8268C8.54885 4.53701 8.66855 4.41084 8.95519 4.4076C9.33906 4.4039 9.72247 4.40483 10.1063 4.4076C10.4159 4.4076 10.5251 4.50466 10.5324 4.81525C10.5391 5.46199 10.7975 6.08024 11.252 6.53688C12.0743 7.391 13.5534 7.44923 14.4404 6.66167C14.9783 6.18377 15.2792 5.59449 15.3039 4.86747C15.3127 4.61882 15.3562 4.58046 15.6043 4.58C16.0226 4.58 16.4409 4.58 16.8587 4.58C17.2017 4.58 17.2834 4.66735 17.288 5.00751C17.293 5.35739 17.26 5.70911 17.354 6.05528C17.5191 6.66629 18.0672 7.16453 18.7267 7.21537C19.3509 7.26528 19.8485 7.00507 20.1897 6.46293C20.3612 6.19024 20.419 5.89029 20.419 5.57461C20.419 5.10781 20.419 4.64147 20.419 4.17466C20.419 3.85853 20.5405 3.74021 20.8588 3.73975C21.2306 3.73975 21.6029 3.73975 21.9756 3.73975C22.2796 3.73975 22.3993 3.86269 22.4012 4.17143C22.4044 4.46491 22.403 4.76071 22.403 5.13554Z" fill="#444249"/>
<path d="M27.4384 11.2054C25.3457 11.2054 23.6456 9.4953 23.647 7.39745C23.6483 5.2996 25.3517 3.5886 27.4398 3.58813C28.4433 3.59079 29.4051 3.99265 30.1161 4.70628C30.8271 5.41992 31.2297 6.3876 31.2363 7.39884C31.2437 9.4856 29.5261 11.2077 27.4384 11.2054ZM27.5632 5.59262C26.5262 5.51359 25.6801 6.25771 25.6305 7.3406C25.5874 8.27884 26.2763 9.16392 27.3889 9.21291C28.2828 9.25219 29.1908 8.58526 29.2477 7.45661C29.2959 6.54056 28.5813 5.63191 27.5632 5.59262Z" fill="#444249"/>
<path d="M37.1485 11.0106C36.799 11.0106 36.4495 11.0106 36.1 11.0106C35.7597 11.0106 35.6446 10.8928 35.6442 10.5549C35.6442 10.1852 35.6442 9.81649 35.6442 9.4489C35.6442 9.14848 35.7657 9.02461 36.0757 9.02138C36.5454 9.01722 37.015 9.02138 37.4846 9.02138C37.7702 9.02927 38.0559 9.01086 38.3381 8.96638C39.4952 8.75239 40.1158 7.36491 39.503 6.35458C39.1302 5.73987 38.5803 5.44962 37.8768 5.43853C37.4301 5.43113 36.9829 5.43853 36.5362 5.43622C36.2573 5.43622 36.1477 5.32899 36.1454 5.05261C36.1418 4.63818 36.1418 4.22345 36.1454 3.80841C36.1477 3.58748 36.2523 3.45622 36.4596 3.45669C37.1741 3.45946 37.891 3.39291 38.6018 3.52139C40.1552 3.8024 41.3995 5.04891 41.66 6.59075C41.9402 8.23798 41.1601 9.81448 39.6879 10.5891C39.1361 10.8755 38.523 11.021 37.9024 11.0129L37.1485 11.0106Z" fill="#444249"/>
<path d="M33.84 6.04403C34.0404 6.04403 34.2408 6.04172 34.4412 6.04403C34.6811 6.04773 34.8122 6.15865 34.8219 6.39483C34.8792 7.84655 34.6742 9.24604 34.0367 10.5697C33.463 11.7617 32.615 12.7175 31.6023 13.5411C31.5133 13.6137 31.4308 13.6941 31.34 13.7639C31.1698 13.8951 31.0075 13.8942 30.8648 13.7362C30.5726 13.4123 30.2877 13.0819 30.0104 12.7448C29.8705 12.5742 29.8994 12.3986 30.0723 12.2433C30.3535 11.9905 30.6447 11.7478 30.9217 11.4899C31.6455 10.8224 32.1934 9.98419 32.5164 9.05054C32.7427 8.39729 32.8522 7.70874 32.8397 7.01693C32.8369 6.83206 32.8337 6.64718 32.8365 6.46231C32.8411 6.1642 32.9635 6.04265 33.2552 6.04126C33.4506 6.04311 33.6455 6.04357 33.84 6.04403Z" fill="#444249"/>
<path d="M16.2885 11.2052C16.9237 11.2052 17.5589 11.2006 18.1941 11.2052C18.4231 11.2028 18.6452 11.2836 18.8198 11.4329C18.9944 11.5821 19.1098 11.7897 19.1449 12.0178C19.1799 12.2458 19.1323 12.4789 19.0106 12.6743C18.889 12.8698 18.7015 13.0146 18.4826 13.0821C18.373 13.1152 18.259 13.1308 18.1446 13.1283C16.9026 13.1283 15.661 13.1283 14.4196 13.1283C13.8395 13.1283 13.4029 12.7054 13.4084 12.1577C13.4139 11.6101 13.8459 11.2061 14.4174 11.2043C15.0429 11.2033 15.6648 11.2047 16.2885 11.2052Z" fill="#444249"/>
<path d="M47.1616 12.3447C47.1622 12.1386 47.2034 11.9348 47.2827 11.7449C47.3621 11.555 47.4781 11.3829 47.6239 11.2385C47.7698 11.0942 47.9426 10.9804 48.1324 10.9039C48.3222 10.8273 48.5253 10.7895 48.7297 10.7927C49.14 10.798 49.5318 10.9658 49.8204 11.2598C50.109 11.5539 50.2712 11.9505 50.272 12.3641C50.272 13.239 49.5639 13.9272 48.6696 13.924C47.8409 13.9193 47.1589 13.2057 47.1616 12.3447Z" fill="#FF9100"/>
<path d="M6.36664 8.72786C6.36709 8.95141 6.30172 9.17006 6.17879 9.35615C6.05586 9.54223 5.88091 9.68737 5.67608 9.77319C5.47125 9.85901 5.24576 9.88166 5.02816 9.83826C4.81055 9.79486 4.61062 9.68737 4.45366 9.5294C4.29671 9.37142 4.1898 9.17007 4.14647 8.95083C4.10314 8.73159 4.12533 8.50432 4.21024 8.2978C4.29515 8.09128 4.43896 7.91479 4.62346 7.79068C4.80796 7.66657 5.02485 7.60042 5.24668 7.6006C5.39382 7.59993 5.53964 7.62861 5.67574 7.68501C5.81183 7.74141 5.9355 7.82439 6.03961 7.92918C6.14372 8.03398 6.22622 8.1585 6.28235 8.29558C6.33848 8.43266 6.36713 8.57957 6.36664 8.72786Z" fill="#444249"/>
<path d="M38.1909 1.12181C38.1922 1.3449 38.1278 1.56336 38.0059 1.74957C37.8839 1.93579 37.71 2.0814 37.506 2.16799C37.3019 2.25459 37.077 2.27828 36.8596 2.23608C36.6423 2.19388 36.4422 2.08767 36.2847 1.93089C36.1272 1.77411 36.0193 1.5738 35.9748 1.35527C35.9303 1.13674 35.951 0.909802 36.0344 0.703152C36.1178 0.496502 36.2602 0.319413 36.4434 0.194273C36.6267 0.0691319 36.8427 0.00155751 37.0641 9.15539e-05C37.2114 -0.00180601 37.3576 0.0258104 37.4943 0.0813376C37.631 0.136865 37.7553 0.219197 37.8602 0.323554C37.965 0.42791 38.0482 0.552213 38.105 0.689247C38.1618 0.82628 38.191 0.973313 38.1909 1.12181Z" fill="#444249"/>
<path d="M22.7224 12.1704C22.7215 12.3933 22.6551 12.6109 22.5316 12.7958C22.4082 12.9806 22.2331 13.1245 22.0286 13.2093C21.824 13.294 21.5992 13.3158 21.3824 13.2719C21.1656 13.228 20.9665 13.1203 20.8103 12.9626C20.6541 12.8048 20.5478 12.6039 20.5048 12.3853C20.4618 12.1667 20.4839 11.9402 20.5685 11.7343C20.6531 11.5284 20.7963 11.3523 20.9801 11.2283C21.1638 11.1043 21.3799 11.038 21.6011 11.0376C21.7487 11.0369 21.8951 11.0658 22.0316 11.1225C22.1681 11.1792 22.2921 11.2627 22.3964 11.3681C22.5007 11.4734 22.5833 11.5986 22.6392 11.7363C22.6952 11.8741 22.7234 12.0216 22.7224 12.1704Z" fill="#444249"/>
</g>
<defs>
<clipPath id="clip0_13096_228">
<rect width="61" height="14" fill="white"/>
</clipPath>
</defs>
</svg>
