<svg width="92" height="92" viewBox="0 0 92 92" fill="none" xmlns="http://www.w3.org/2000/svg">
<path d="M91 1H1V91H91V1Z" stroke="#55A2E7" stroke-opacity="0.595597"/>
<path fill-rule="evenodd" clip-rule="evenodd" d="M55.6227 67.7273C55.2818 67.4304 54.8815 67.3233 54.4401 67.324C52.6291 67.3271 50.8185 67.3259 49.0076 67.3229C48.9078 67.3229 48.778 67.3748 48.7179 67.2525C48.66 67.1355 48.7668 67.0499 48.8221 66.964C49.1515 66.4506 49.3062 65.8656 49.495 65.2942C49.5365 65.1697 49.5759 65.0444 49.6215 64.9213C49.7383 64.607 49.8715 64.5116 50.2046 64.5113C51.4373 64.5101 52.6696 64.5109 53.9022 64.5109C54.2583 64.5105 54.2832 64.4817 54.2327 64.1281C54.0799 63.0551 53.2163 62.1168 52.1751 61.8923C50.8063 61.5978 49.5002 62.352 49.0484 63.7033C48.8036 64.4348 48.5661 65.1693 48.3254 65.9023C48.1811 66.3415 47.9537 66.7307 47.6536 67.0783C47.5097 67.2442 47.3442 67.3316 47.1165 67.3286C46.356 67.3191 45.5952 67.3263 44.8344 67.3248C44.0399 67.3233 43.4285 66.7425 43.4248 65.9349C43.4137 63.4659 43.4196 60.9969 43.4219 58.5283C43.4222 58.2201 43.5454 58.0554 43.8303 57.9573C44.4854 57.732 45.1416 57.5098 45.7985 57.289C46.0923 57.1902 46.2147 57.2746 46.2188 57.5931C46.2266 58.1193 46.2218 58.6456 46.2218 59.1719C46.2218 60.8435 46.2214 62.5152 46.2221 64.1868C46.2221 64.501 46.2321 64.5097 46.5452 64.5105C46.8197 64.5113 47.0935 64.5078 47.3672 64.5109C47.5954 64.5135 47.7404 64.4049 47.8116 64.1872C47.9322 63.8206 48.0424 63.4504 48.1752 63.0884C48.844 61.2623 50.1171 60.1919 52.0289 59.9549C54.3455 59.6675 56.6461 61.3384 56.9911 63.9066C57.1747 65.2693 56.8282 66.4971 55.9387 67.5505C55.8846 67.6144 55.8193 67.6686 55.7595 67.7273H55.6227Z" fill="#CFCFCF"/>
<path fill-rule="evenodd" clip-rule="evenodd" d="M63.3252 66.0974C63.1506 66.6398 62.8307 67.0324 62.2696 67.1691C62.1742 67.1922 62.0733 67.1979 61.975 67.1983C60.4252 67.1995 58.8753 67.1991 57.3255 67.1964C57.2313 67.1964 57.1117 67.2361 57.0555 67.1225C57.0008 67.0128 57.0931 66.9312 57.143 66.8469C57.5347 66.1936 57.7753 65.49 57.8181 64.719C57.8353 64.4072 57.9071 64.3394 58.2136 64.339C58.8783 64.3375 59.5422 64.339 60.2066 64.3383C60.541 64.3375 60.5603 64.3182 60.5603 63.9803C60.5611 62.7138 60.5603 61.4474 60.5607 60.181C60.5611 59.7799 60.649 59.6501 61.0169 59.5223C61.66 59.2991 62.3057 59.0816 62.9488 58.8576C63.0892 58.8083 63.2161 58.7925 63.3252 58.9199V66.0974Z" fill="#CFCFCF"/>
<path fill-rule="evenodd" clip-rule="evenodd" d="M35.5866 67.2014C33.7878 67.2014 31.9894 67.2018 30.191 67.201C29.3403 67.2006 28.752 66.6165 28.7512 65.7658C28.7494 63.3692 28.7501 60.9727 28.7509 58.5762C28.7509 58.1881 28.8445 58.0563 29.2043 57.9353C29.8472 57.7198 30.4898 57.5047 31.1331 57.2918C31.4282 57.194 31.5245 57.2649 31.5245 57.5816C31.5256 59.7339 31.5252 61.8862 31.5252 64.0385C31.5252 64.4123 31.5379 64.425 31.911 64.425C35.2339 64.4254 38.5564 64.425 41.8793 64.4254C42.303 64.4254 42.4112 64.5445 42.358 64.9658C42.2725 65.6399 42.064 66.2711 41.7095 66.8548C41.5642 67.0931 41.3839 67.2059 41.0963 67.2044C39.26 67.1958 37.4229 67.2003 35.5866 67.2003V67.2014Z" fill="#CFCFCF"/>
<path fill-rule="evenodd" clip-rule="evenodd" d="M36.2652 58.2373C36.4767 57.6596 36.8847 57.3172 37.5109 57.2701C38.2438 57.2146 38.7683 57.5172 39.0211 58.1815C39.6056 57.3482 40.1419 57.1067 40.8873 57.3273C41.4817 57.5032 41.8684 58.0115 41.8456 58.586C41.8214 59.1962 41.3629 59.6978 40.7051 59.8336C40.0125 59.9767 39.4663 59.6915 39.0279 58.9452C38.7243 59.5659 38.2328 59.9114 37.4752 59.85C36.8949 59.8029 36.5548 59.5306 36.2573 58.9037C35.9521 59.7104 35.2192 59.9502 34.5881 59.8329C33.8514 59.6957 33.4472 59.1993 33.4654 58.4859C33.4806 57.8917 33.9918 57.366 34.6666 57.2728C35.212 57.1978 35.9962 57.3866 36.2652 58.2373Z" fill="#CFCFCF"/>
<path fill-rule="evenodd" clip-rule="evenodd" d="M57.8138 58.1818C58.3486 57.3766 58.9212 57.1135 59.6767 57.3145C60.3135 57.4837 60.7241 57.992 60.705 58.5872C60.6852 59.1967 60.201 59.7043 59.5105 59.839C58.8231 59.9729 58.2326 59.6638 57.8134 58.9312C57.6461 59.2884 57.4079 59.5749 57.0225 59.7343C56.6345 59.8951 56.2367 59.9011 55.8362 59.7654C55.183 59.5445 54.9024 58.9849 54.9479 58.4745C55.0055 57.8319 55.5002 57.3679 56.1709 57.2733C56.8999 57.1708 57.4596 57.475 57.8138 58.1818Z" fill="#CFCFCF"/>
<path fill-rule="evenodd" clip-rule="evenodd" d="M57.2446 38.4755C57.2446 39.41 57.2291 40.3455 57.2494 41.28C57.265 41.9673 56.9906 42.4579 56.3971 42.7996C51.6615 45.5311 46.9268 48.2645 42.196 51.0038C41.6433 51.324 41.1197 51.3367 40.5651 51.0135C38.8828 50.0332 37.1927 49.0627 35.5046 48.0902C34.9945 47.7963 34.7434 47.3748 34.7501 46.7712C34.7657 45.2799 34.7638 43.7876 34.7512 42.2963C34.7463 41.7171 34.9945 41.2975 35.4765 41.0172C37.3149 39.9474 39.1523 38.8756 41.0033 37.8282C41.9313 37.3035 42.7399 37.7727 42.7816 38.8308C42.801 39.3078 42.77 39.7868 42.7991 40.2628C42.8359 40.8819 43.1928 41.0999 43.7164 40.8079C44.7577 40.2287 45.7923 39.6349 46.8124 39.0168C47.3389 38.6975 47.3195 38.2254 46.793 37.8915C46.3741 37.6247 45.9261 37.4028 45.5092 37.1332C44.7209 36.625 44.6918 35.7217 45.4898 35.2476C47.3854 34.1184 49.3033 33.0262 51.2213 31.935C51.6838 31.6721 52.1793 31.6965 52.6466 31.9632C53.9227 32.6942 55.1977 33.4272 56.4699 34.1661C56.9973 34.4727 57.2456 34.9429 57.2446 35.5513C57.2427 36.5267 57.2436 37.5011 57.2446 38.4755Z" fill="#F41710"/>
<path fill-rule="evenodd" clip-rule="evenodd" d="M34.7532 33.3702C34.7532 32.4428 34.7637 31.5144 34.7503 30.587C34.7379 29.7196 35.055 29.0997 35.8489 28.6675C37.3458 27.8503 38.815 26.981 40.2699 26.0922C41.0073 25.6416 41.6665 25.6339 42.4087 26.0816C44.0862 27.097 45.7942 28.0611 47.4832 29.0562C48.5015 29.6567 48.511 30.5416 47.4793 31.1508C44.795 32.7358 42.0954 34.2947 39.4006 35.8632C38.4692 36.4067 37.5368 36.9501 36.6035 37.4888C35.633 38.0477 34.8793 37.6957 34.8 36.5662C34.7264 35.5054 34.7837 34.4358 34.7837 33.3702H34.7532Z" fill="#F41710"/>
</svg>
